<svg xmlns="http://www.w3.org/2000/svg" xmlns:xlink="http://www.w3.org/1999/xlink" xmlns:inkscape="http://www.inkscape.org/namespaces/inkscape" version="1.1" width="318" height="52" viewBox="0 0 318 52">
<defs>
<path id="font_1_27" d="M.59799197 0 .35499574 .69433596H.2689972L.025985718 0H.101989749L.17199707 .20214844H.43998719L.5109863 0H.59799197M.42099 .2581482H.19099427C.23899842 .39820863 .29899598 .5722809 .30599977 .6172943H.30699159C.31399537 .5762787 .33399964 .5162506 .35099793 .46522523L.42099 .2581482Z"/>
<path id="font_1_34" d="M.57299807 .18798828C.57299807 .2639923 .5079956 .34098817 .3909912 .36299134 .5209961 .40098573 .5469971 .47698976 .5469971 .519989 .5469971 .6103058 .44898988 .69433596 .31199647 .69433596H.08898926V0H.33799745C.47399903 0 .57299807 .08999634 .57299807 .18803406V.18798828M.46899415 .5192108C.46899415 .45913697 .40499879 .3910675 .27598573 .3910675H.16999817V.6383209H.2849884C.3880005 .6380768 .46899415 .58506777 .46899415 .5190735V.5192108M.49398805 .18902588C.49398805 .121017459 .42099 .055999757 .30999757 .055999757H.16999817V.33007813H.30299378C.41099549 .32998658 .49398805 .2630005 .49398805 .18899536V.18902588Z"/>
<path id="font_1_42" d="M.5469971 .047180177 .54100039 .1151886C.5139923 .096191409 .48799134 .077178958 .45599366 .06718445 .4249878 .057174684 .3929901 .05618286 .36099244 .05618286 .2999878 .05618286 .24499512 .09118652 .20899964 .14019776 .1639862 .19920349 .14399719 .27122499 .14399719 .34324647 .14399719 .41625978 .1639862 .48927308 .20899964 .547287 .24499512 .59529116 .2999878 .6313019 .36099244 .6313019 .3899994 .6313019 .41799928 .6282959 .44499208 .6192932 .47299195 .6112976 .49798585 .5962982 .522995 .58128359L.5369873 .66130068C.5089874 .67230227 .47999574 .68130496 .44999696 .68730166 .42099 .69329836 .3909912 .6953125 .36099244 .6953125 .2789917 .6953125 .20298767 .65530398 .14898682 .5923004 .08999634 .5232849 .06098938 .43426515 .06098938 .34324647 .06098938 .2532196 .08999634 .16419983 .14898682 .095184329 .20298767 .032180787 .2789917-.0078125 .36099244-.0078125 .3939972-.0078125 .4269867-.0068206789 .45899964 .0021820069 .4909973 .012176514 .5189972 .029174805 .5469971 .047180177Z"/>
<path id="font_1_46" d="M.625 .341156C.625 .53427127 .49899293 .69433596 .33499146 .69433596H.08898926V0H.33499146C.49899293 0 .625 .15405274 .625 .341156M.54299929 .341156C.54299929 .174057 .44799806 .055999757 .31298829 .055999757H.17098999V.6383209H.31298829C.44699098 .6383209 .54299929 .5152588 .54299929 .341156Z"/>
<path id="font_1_49" d="M.5209961 0V.069000247L.30599977 .067993167 .17199707 .066986087V.32910157H.48199464V.39009095H.17199707V.62794497H.30099488C.31298829 .62794497 .32499696 .6269531 .33699037 .6269531H.5079956V.6919403H.08799744V0H.5209961Z"/>
<path id="font_1_54" d="M.49499513 .6269531V.6919403H.08799744V0H.17199707V.3159485H.45599366V.37695313H.17199707V.62794497H.2939911C.30599977 .62794497 .31799317 .6269531 .32998658 .6269531H.49499513Z"/>
<path id="font_1_58" d="M.55799868 .04118347V.29122926H.36099244V.22921753H.48199464V.07518005C.44299317 .062179567 .4019928 .05618286 .36099244 .05618286 .2999878 .05618286 .24499512 .09118652 .20899964 .14019776 .1639862 .19920349 .14498902 .27122499 .14498902 .34324647 .14498902 .41625978 .1639862 .48927308 .20899964 .547287 .24499512 .59529116 .2999878 .6313019 .36099244 .6313019 .3929901 .6313019 .42399598 .6273041 .45399476 .6163025 .48399354 .6053009 .5109863 .58729556 .5359955 .56729128L.5499878 .64730837C.5209961 .66329959 .4909973 .67630007 .45899964 .6843109 .42599488 .6923065 .3939972 .6953125 .36099244 .6953125 .2789917 .6953125 .20298767 .65530398 .14898682 .5923004 .08999634 .5232849 .06098938 .43426515 .06098938 .34324647 .06098938 .2532196 .08999634 .16419983 .14898682 .095184329 .20298767 .032180787 .2789917-.0078125 .36099244-.0078125 .42900086-.0078125 .49598695 .008178711 .55799868 .04118347Z"/>
<path id="font_1_62" d="M.57398989 0V.69433596H.48999024V.3910675H.17199707V.69433596H.08799744V0H.17199707V.33007813H.48999024V0H.57398989Z"/>
<path id="font_1_65" d="M.17098999 0V.69433596H.08699036V0H.17098999Z"/>
</defs>
<path transform="matrix(1.00006,0,0,-1.00006,159.31842,26.132607)" stroke-width=".3985" stroke-linecap="butt" stroke-miterlimit="10" stroke-linejoin="miter" fill="none" stroke="#000000" d="M-157.21546-24.33202H157.21546V24.332032H-157.21546Z"/>
<use data-text="A" xlink:href="#font_1_27" transform="matrix(59.779386,0,0,-59.779386,5.4141848,46.66684)"/>
<use data-text="B" xlink:href="#font_1_34" transform="matrix(59.779386,0,0,-59.779386,42.77632,46.66684)"/>
<use data-text="C" xlink:href="#font_1_42" transform="matrix(59.779386,0,0,-59.779386,80.1982,46.66684)"/>
<use data-text="D" xlink:href="#font_1_46" transform="matrix(59.779386,0,0,-59.779386,116.125629,46.66684)"/>
<use data-text="E" xlink:href="#font_1_49" transform="matrix(59.779386,0,0,-59.779386,156.65602,46.66684)"/>
<use data-text="F" xlink:href="#font_1_54" transform="matrix(59.779386,0,0,-59.779386,190.19225,46.66684)"/>
<use data-text="G" xlink:href="#font_1_58" transform="matrix(59.779386,0,0,-59.779386,220.67974,46.66684)"/>
<use data-text="H" xlink:href="#font_1_62" transform="matrix(59.779386,0,0,-59.779386,258.16145,46.66684)"/>
<use data-text="I" xlink:href="#font_1_65" transform="matrix(59.779386,0,0,-59.779386,297.7951,46.66684)"/>
</svg>
