<svg xmlns="http://www.w3.org/2000/svg" xmlns:xlink="http://www.w3.org/1999/xlink" xmlns:inkscape="http://www.inkscape.org/namespaces/inkscape" version="1.1" width="318" height="53" viewBox="0 0 318 53">
<defs>
<path id="font_1_97" d="M.46899415 .19126892C.46899415 .23124695 .45700074 .2822113 .4149933 .32917787 .37399293 .3741455 .33799745 .38414 .2559967 .40612794 .20899964 .41810609 .1789856 .42610169 .1539917 .4570923 .13699341 .47906495 .12799073 .50006106 .12799073 .5270386 .12799073 .58299258 .17599488 .6439514 .2639923 .6439514 .30799867 .6439514 .36499024 .634964 .4229889 .58099368L.43699647 .6609497C.3929901 .6869507 .34498597 .70996096 .2639923 .70996096 .1349945 .70996096 .051986696 .614975 .051986696 .5180359 .051986696 .48007203 .06298828 .43710328 .101989749 .39312745 .14099121 .34916688 .18499756 .33717347 .24099732 .32318116 .2639923 .31718446 .30299378 .30618287 .30999757 .30319215 .3659973 .28120423 .3929901 .23023987 .3929901 .1822815 .3929901 .11932373 .34399415 .052368165 .25698854 .052368165 .22698975 .052368165 .13899231 .057357789 .055999757 .13331604L.041992189 .054367067C.12399292-.005630493 .21299744-.015625 .2579956-.015625 .3809967-.015625 .46899415 .081344608 .46899415 .19126892Z"/>
<path id="font_1_104" d="M.60598757 .6263275V.69132998H.033996583V.6263275H.15899658C.17098999 .6263275 .18299866 .6273346 .19499207 .6273346H.27799989V0H.3619995V.6273346H.44499208C.45700074 .6273346 .46899415 .6263275 .48098756 .6263275H.60598757Z"/>
<path id="font_1_108" d="M.5549927 .23335266V.69433596H.47898866V.23236084C.47898866 .099365238 .397995 .040374757 .32398988 .040374757 .24798584 .040374757 .17199707 .102371219 .17199707 .23135376V.69433596H.08799744V.23335266C.08799744 .08937073 .19898987-.015625 .32299806-.015625 .44699098-.015625 .5549927 .08937073 .5549927 .23335266Z"/>
<path id="font_1_111" d="M.61099246 .69433596H.5329895L.3600006 .21409607C.35499574 .2000885 .32398988 .108047489 .31799317 .076034549H.31698609C.30899049 .11404419 .2769928 .20309448 .2599945 .2521057L.14399719 .5772705 .100997928 .69433596H.0129852299L.2679901 0H.35598756L.61099246 .69433596Z"/>
<path id="font_1_113" d="M.871994 .69433596H.79599L.71199038 .3831787 .6749878 .23310852C.6569977 .15907288 .6439972 .107040408 .6419983 .08102417H.6409912C.6389923 .108047489 .6259918 .16506958 .6100006 .22909546L.57099917 .3871765 .48799134 .69433596H.4039917L.32499696 .40318299 .2849884 .2441101C.25498963 .11804199 .2539978 .10003662 .2519989 .08003235H.25099183C.25099183 .08602905 .24699402 .11904907 .21899414 .23609925L.17599488 .40919496 .09899902 .69433596H.0129852299L.20298767 0H.28599549L.36499024 .28912355 .40499879 .44821168C.43199159 .56025698 .43798829 .5882721 .43998719 .61328127H.44099427C.44099427 .60928347 .44999696 .5462494 .4889984 .400177L.59498599 0H.6819916L.871994 .69433596Z"/>
<path id="font_1_115" d="M.61099246 0 .34599305 .36616517 .57199099 .69433596H.47999574L.30499269 .4342041 .125 .69433596H.025985718L.2639923 .36616517 .0129852299 0H.10499573L.30499269 .30514527 .5119934 0H.61099246Z"/>
<path id="font_1_117" d="M.62098696 .69433596H.5349884L.37998963 .45220948C.36799623 .43319703 .33399964 .3811798 .31799317 .3521576L.2689972 .43119813 .100997928 .69433596H.0029907227L.2709961 .27812196V0H.35299684V.27713014L.62098696 .69433596Z"/>
<path id="font_1_119" d="M.5269928 0V.06599426H.43798829L.18798828 .06399536H.1579895L.5219879 .6533356V.69433596H.06498718V.6313324H.2519989C.2639923 .6313324 .27598573 .6323242 .28799439 .6323242H.41600038L.051986696 .042999269V0H.5269928Z"/>
</defs>
<path transform="matrix(1.00002,0,0,-1.00002,159.13282,26.818217)" stroke-width=".3985" stroke-linecap="butt" stroke-miterlimit="10" stroke-linejoin="miter" fill="none" stroke="#000000" d="M-157.0361-25.01947H157.03614V25.01947H-157.0361Z"/>
<use data-text="S" xlink:href="#font_1_97" transform="matrix(59.776998,0,0,-59.776998,5.413727,47.560636)"/>
<use data-text="T" xlink:href="#font_1_104" transform="matrix(59.776998,0,0,-59.776998,36.617326,47.560636)"/>
<use data-text="U" xlink:href="#font_1_108" transform="matrix(59.776998,0,0,-59.776998,74.93437,47.560636)"/>
<use data-text="V" xlink:href="#font_1_111" transform="matrix(59.776998,0,0,-59.776998,113.43074,47.560636)"/>
<use data-text="W" xlink:href="#font_1_113" transform="matrix(59.776998,0,0,-59.776998,150.79137,47.560636)"/>
<use data-text="X" xlink:href="#font_1_115" transform="matrix(59.776998,0,0,-59.776998,203.7538,47.560636)"/>
<use data-text="Y" xlink:href="#font_1_117" transform="matrix(59.776998,0,0,-59.776998,241.1144,47.560636)"/>
<use data-text="Z" xlink:href="#font_1_119" transform="matrix(59.776998,0,0,-59.776998,278.47505,47.560636)"/>
</svg>
