<svg xmlns="http://www.w3.org/2000/svg" xmlns:xlink="http://www.w3.org/1999/xlink" xmlns:inkscape="http://www.inkscape.org/namespaces/inkscape" version="1.1" width="203" height="94" viewBox="0 0 203 94">
<path transform="matrix(1.00002,0,0,-1,229.07118,115.384)" stroke-width=".79701" stroke-linecap="butt" stroke-miterlimit="10" stroke-linejoin="miter" fill="none" stroke="#000000" d="M-113.38724 113.38724-28.3468 28.3468H-226.77448Z"/>
<path transform="matrix(1.00002,0,0,-1,229.07118,115.384)" stroke-width=".3985" stroke-linecap="butt" stroke-miterlimit="10" stroke-linejoin="miter" fill="none" stroke="#0000ff" d="M-113.38724 113.38724-28.3468 28.3468H-226.77448"/>
<path transform="matrix(1.00002,0,0,-1,229.07118,115.384)" stroke-width=".3985" stroke-linecap="butt" stroke-miterlimit="10" stroke-linejoin="miter" fill="none" stroke="#ff8000" d="M-136.06389 96.37941C-129.9883 88.27878-120.05022 84.03352-109.99701 85.24458-103.69696 86.00351-97.83012 88.85588-93.343 93.343"/>
<path transform="matrix(1.00002,0,0,-1,229.07118,115.384)" stroke-width=".3985" stroke-linecap="butt" stroke-miterlimit="10" stroke-linejoin="miter" fill="none" stroke="#0000ff" d="M-113.38724 113.38724-28.3468 28.3468H-226.77448"/>
<path transform="matrix(1.00002,0,0,-1,229.07118,115.384)" stroke-width=".3985" stroke-linecap="butt" stroke-miterlimit="10" stroke-linejoin="miter" fill="none" stroke="#0000ff" d="M-48.39104 48.39104C-53.7061 43.07597-56.69362 35.86343-56.69362 28.3468"/>
<path transform="matrix(1.00002,0,0,-1,229.07118,115.384)" stroke-width=".3985" stroke-linecap="butt" stroke-miterlimit="10" stroke-linejoin="miter" fill="none" stroke="#000000" d="M-127.56062 22.67752V34.01608"/>
</svg>
