<svg xmlns="http://www.w3.org/2000/svg" xmlns:xlink="http://www.w3.org/1999/xlink" xmlns:inkscape="http://www.inkscape.org/namespaces/inkscape" version="1.1" width="165" height="81" viewBox="0 0 165 81">
<defs>
<path id="font_1_1" d="M.4039917 .40527345C.37098695 .39926148 .35398866 .3712616 .35398866 .3502655 .35398866 .3312683 .36799623 .31427003 .3929901 .31427003 .41999818 .31427003 .44799806 .337265 .44799806 .37426759 .44799806 .41334535 .4119873 .4423828 .36299134 .4423828 .28799439 .4423828 .24598694 .386261 .23199463 .3672638 .21998596 .42237855 .1749878 .4423828 .13699341 .4423828 .100997928 .4423828 .07798767 .42037965 .06098938 .38526917 .041992189 .34925843 .0289917 .29226686 .0289917 .28826905 .0289917 .27926637 .035995485 .27626039 .042999269 .27626039 .053985597 .27626039 .055999757 .28126527 .06098938 .30126954 .07998657 .38026429 .100997928 .41737367 .1349945 .41737367 .16499329 .41737367 .16499329 .38526917 .16499329 .37026979 .16499329 .34925843 .15699768 .31826783 .15098572 .29226686 .14399719 .26626588 .13398743 .2232666 .12998963 .21125794L.08999634 .04725647C.08299255 .023254395 .08299255 .021255494 .08299255 .018249512 .08299255 .0052490236 .09199524-.0107421879 .11399841-.0107421879 .1459961-.0107421879 .15299988 .01625061 .1599884 .04525757 .17199707 .088256839 .17199707 .09025574 .18199158 .1312561 .21899414 .28126527 .22499085 .30526734 .22698975 .31025697 .23298645 .32226563 .2789917 .41737367 .3619995 .41737367 .3849945 .41737367 .39898683 .40930177 .4039917 .40527345Z"/>
<path id="font_1_2" d="M.39698792 .37402345C.35398866 .37001039 .34999085 .3360138 .34999085 .32901 .34999085 .31201173 .36299134 .29901124 .38198854 .29901124 .4099884 .29901124 .42900086 .32202149 .42900086 .355011 .42900086 .40527345 .37998963 .4423828 .30599977 .4423828 .17199707 .4423828 .13398743 .3420105 .13398743 .2960205 .13398743 .25810243 .15299988 .23814392 .1659851 .22616577 .18598938 .2071991 .21299744 .20121765 .24899292 .19422913 .2939911 .1852417 .3039856 .18325806 .32199098 .17027283 .33799745 .15830994 .34700013 .14231873 .34700013 .12130737 .34700013 .0953064 .32299806 .014251709 .20199585 .014251709 .1789856 .014251709 .10899353 .01725769 .08699036 .063308719 .13699341 .063308719 .14698792 .10331726 .14698792 .11730957 .14698792 .14730835 .11999512 .15332031 .10899353 .15332031 .09098816 .15332031 .052993776 .13931275 .052993776 .08731079 .052993776 .025268555 .115997318-.0107421879 .20098877-.0107421879 .36898805-.0107421879 .4059906 .11231995 .4059906 .15530396 .4059906 .1932373 .3849945 .21717835 .37298585 .2291565 .34700013 .25610353 .31498719 .26208497 .27999879 .2690735 .2679901 .2720642 .24598694 .276062 .24299622 .27705384 .20999146 .28404237 .19198609 .3040161 .19198609 .32901 .19198609 .3400116 .19898987 .37200929 .22698975 .3941803 .25498963 .41636659 .29299928 .41737367 .30599977 .41737367 .34098817 .41737367 .38198854 .40628053 .39698792 .37402345Z"/>
<path id="font_2_1" d="M.70599368 .22944641C.7200012 .22944641 .7409973 .22944641 .7409973 .25045777 .7409973 .27246095 .7220001 .27246095 .70599368 .27246095H.42099V.5578003C.42099 .573761 .42099 .59277346 .39898683 .59277346 .37799073 .59277346 .37799073 .57177737 .37799073 .5578003V.27246095H.09199524C.07798767 .27246095 .056991579 .27246095 .056991579 .25144959 .056991579 .22944641 .07598877 .22944641 .09199524 .22944641H.37799073V-.056793214C.37799073-.07279968 .37799073-.091796878 .3999939-.091796878 .42099-.091796878 .42099-.07080078 .42099-.056793214V.22944641H.70599368Z"/>
<path id="font_3_83" d="M.6239929 .4967041C.6239929 .59465029 .5249939 .6826172 .3880005 .6826172H.034988405V.6516113H.05899048C.13598633 .6516113 .13798523 .64060977 .13798523 .6046295V.07795715C.13798523 .041992189 .13598633 .0309906 .05899048 .0309906H.034988405V0C.069992069 .0029907227 .14399719 .0029907227 .18199158 .0029907227 .21998596 .0029907227 .29499818 .0029907227 .32998658 0V.0309906H.30599977C.22898865 .0309906 .22698975 .041992189 .22698975 .07795715V.3157959H.3959961C.5159912 .3157959 .6239929 .39675904 .6239929 .4967041M.5209961 .4967041C.5209961 .4497223 .5209961 .34179688 .3619995 .34179688H.22399903V.6116333C.22399903 .64460757 .22599793 .6516113 .272995 .6516113H.3619995C.5209961 .6516113 .5209961 .54566958 .5209961 .4967041Z"/>
<path id="font_3_90" d="M.72698977-.010345459C.72698977-.00033569337 .72698977 .010650635 .71598818 .010650635 .70700076 .010650635 .70599368 .0026550294 .7049866-.0073394777 .69898989-.061340333 .6569977-.09133911 .6139984-.09133911 .5669861-.09133911 .5419922-.05734253 .5179901 .006652832 .6359863 .059570314 .72099307 .1876831 .72099307 .3387909 .72099307 .5429535 .56999209 .7050781 .3880005 .7050781 .20899964 .7050781 .055999757 .54496768 .055999757 .3387909 .055999757 .13664246 .20698548-.022460938 .3889923-.022460938 .41999818-.022460938 .45498658-.016464234 .48399354-.007461548 .49899293-.1023407 .5130005-.19433594 .60598757-.19433594 .70799258-.1945343 .72698977-.061538698 .72698977-.010528564V-.010345459M.62098696 .33866883C.62098696 .2605896 .60899356 .11946106 .5029907 .04147339 .48098756 .097457889 .44898988 .14746094 .3899994 .14746094 .33898927 .14746094 .30799867 .10446167 .30799867 .06347656 .30799867 .036468507 .32099916 .017471314 .32199098 .015472412 .2679901 .035461427 .1559906 .10845947 .1559906 .33866883 .1559906 .59898379 .29599 .68006899 .3880005 .68006899 .4850006 .6794586 .62098696 .5934601 .62098696 .3384552V.33866883M.47698976 .025497437C.44299317 .0065307619 .41099549 .002532959 .3889923 .002532959 .33799745 .002532959 .32998658 .048461915 .32998658 .06347656 .32998658 .09246826 .35099793 .12545777 .3899994 .12545777 .44400025 .12545777 .46598817 .083465579 .47698976 .025497437Z"/>
<path id="font_3_76" d="M.71598818 .6516113V.6826172L.598999 .6796112 .48199464 .6826172V.6516113C.58499148 .6516113 .58499148 .6046295 .58499148 .577652V.15092469L.23199463 .6696167C.22299195 .6816101 .22200012 .6826172 .20298767 .6826172H.032989503V.6516113H.06199646C.07699585 .6516113 .09700012 .65060427 .11199951 .6496124 .1349945 .64660647 .13598633 .6456146 .13598633 .62661746V.10494995C.13598633 .07795715 .13598633 .0309906 .032989503 .0309906V0L.1499939 .0029907227 .2669983 0V.0309906C.1639862 .0309906 .1639862 .07795715 .1639862 .10494995V.62461856C.16899109 .6196289 .16999817 .6186218 .17399597 .6126251L.58200076 .0129852299C.59098818 .0009918213 .59199526 0 .598999 0 .61299136 0 .61299136 .0069885256 .61299136 .025985718V.577652C.61299136 .6046295 .61299136 .6516113 .71598818 .6516113Z"/>
</defs>
<path transform="matrix(1.00006,0,0,-1.00002,11.521797,70.09116)" stroke-width=".79701" stroke-linecap="butt" stroke-miterlimit="10" stroke-linejoin="miter" fill="none" stroke="#000000" d="M0 0 85.04042 56.69362"/>
<use data-text="r" xlink:href="#font_1_1" transform="matrix(8.966938,0,0,-8.966579,51.837217,38.02452)"/>
<path transform="matrix(1.00006,0,0,-1.00002,11.521797,70.09116)" stroke-width=".79701" stroke-linecap="butt" stroke-miterlimit="10" stroke-linejoin="miter" fill="none" stroke="#000000" d="M85.04042 56.69362 141.73404 0"/>
<use data-text="s" xlink:href="#font_1_2" transform="matrix(8.966938,0,0,-8.966579,128.63483,43.673639)"/>
<path transform="matrix(1.00006,0,0,-1.00002,11.521797,70.09116)" stroke-width=".79701" stroke-linecap="butt" stroke-miterlimit="10" stroke-linejoin="miter" fill="none" stroke="#000000" d="M0 0H141.73404"/>
<use data-text="r" xlink:href="#font_1_1" transform="matrix(8.966938,0,0,-8.966579,72.40745,79.124347)"/>
<use data-text="+" xlink:href="#font_2_1" transform="matrix(8.966938,0,0,-8.966579,78.86983,79.124347)"/>
<use data-text="s" xlink:href="#font_1_2" transform="matrix(8.966938,0,0,-8.966579,88.08639,79.124347)"/>
<path transform="matrix(1.00006,0,0,-1.00002,11.521797,70.09116)" stroke-width=".79701" stroke-linecap="butt" stroke-miterlimit="10" stroke-linejoin="miter" fill="none" stroke="#000000" d="M0 0 38.47507 25.65007"/>
<path transform="matrix(.8320699,-.55468109,-.55470326,-.8320367,49.999177,44.440584)" d="M3.21875 0C2.82347 .09964 1.08595 .66432 0 1.27882V-1.27882C1.08595-.66432 2.82347-.09964 3.21875 0Z"/>
<path transform="matrix(.8320699,-.55468109,-.55470326,-.8320367,49.999177,44.440584)" stroke-width=".79701" stroke-linecap="butt" stroke-miterlimit="10" stroke-linejoin="miter" fill="none" stroke="#000000" d="M3.21875 0C2.82347 .09964 1.08595 .66432 0 1.27882V-1.27882C1.08595-.66432 2.82347-.09964 3.21875 0Z"/>
<path transform="matrix(1.00006,0,0,-1.00002,11.521797,70.09116)" stroke-width=".79701" stroke-linecap="butt" stroke-miterlimit="10" stroke-linejoin="miter" fill="none" stroke="#000000" d="M85.04042 56.69362 115.61865 26.11537"/>
<path transform="matrix(.70714238,.70711418,.70714238,-.70711418,127.147388,43.975275)" d="M3.21875 0C2.82347 .09964 1.08595 .66432 0 1.27882V-1.27882C1.08595-.66432 2.82347-.09964 3.21875 0Z"/>
<path transform="matrix(.70714238,.70711418,.70714238,-.70711418,127.147388,43.975275)" stroke-width=".79701" stroke-linecap="butt" stroke-miterlimit="10" stroke-linejoin="miter" fill="none" stroke="#000000" d="M3.21875 0C2.82347 .09964 1.08595 .66432 0 1.27882V-1.27882C1.08595-.66432 2.82347-.09964 3.21875 0Z"/>
<path transform="matrix(1.00006,0,0,-1.00002,11.521797,70.09116)" stroke-width=".79701" stroke-linecap="butt" stroke-miterlimit="10" stroke-linejoin="miter" fill="none" stroke="#000000" d="M0 0H66.00516"/>
<path transform="matrix(1.00006,0,0,-1.00002,77.530918,70.09116)" d="M3.21875 0C2.82347 .09964 1.08595 .66432 0 1.27882V-1.27882C1.08595-.66432 2.82347-.09964 3.21875 0Z"/>
<path transform="matrix(1.00006,0,0,-1.00002,77.530918,70.09116)" stroke-width=".79701" stroke-linecap="butt" stroke-miterlimit="10" stroke-linejoin="miter" fill="none" stroke="#000000" d="M3.21875 0C2.82347 .09964 1.08595 .66432 0 1.27882V-1.27882C1.08595-.66432 2.82347-.09964 3.21875 0Z"/>
<use data-text="P" xlink:href="#font_3_83" transform="matrix(9.963197,0,0,-9.962799,1.2171784,73.49323)"/>
<use data-text="Q" xlink:href="#font_3_90" transform="matrix(9.963197,0,0,-9.962799,92.691669,7.94392)"/>
<use data-text="N" xlink:href="#font_3_76" transform="matrix(9.963197,0,0,-9.962799,156.78452,73.49323)"/>
</svg>
