<svg xmlns="http://www.w3.org/2000/svg" xmlns:xlink="http://www.w3.org/1999/xlink" xmlns:inkscape="http://www.inkscape.org/namespaces/inkscape" version="1.1" width="175" height="174" viewBox="0 0 175 174">
<defs>
<path id="font_1_1" d="M.44299317 .50320437C.44299317 .6051483 .41099549 .70410159 .32899476 .70410159 .18899536 .70410159 .039993287 .41127015 .039993287 .19126892 .039993287 .14524842 .049987794-.009765625 .15499878-.009765625 .29100038-.009765625 .44299317 .27627564 .44299317 .50320437M.13999939 .3623047C.15499878 .42126466 .17599488 .50520327 .21598816 .5761566 .24899292 .63612368 .28399659 .6840973 .32798768 .6840973 .36099244 .6840973 .3829956 .6561127 .3829956 .56018069 .3829956 .52420046 .37998963 .4742279 .35099793 .3623047H.13999939M.34399415 .33229066C.31900025 .23426819 .2979889 .17126465 .2619934 .10824585 .23298645 .057235719 .19799805 .010223389 .1559906 .010223389 .125 .010223389 .099990848 .034225465 .099990848 .133255 .099990848 .1982727 .115997318 .26628114 .13198853 .33229066H.34399415Z"/>
<path id="font_1_2" d="M.36799623 .61460879C.3769989 .6516113 .3809967 .6536102 .41999818 .6536102H.49198915C.5779877 .6536102 .6419983 .62760928 .6419983 .54959109 .6419983 .49858094 .6159973 .3515625 .4149933 .3515625H.3019867L.36799623 .61460879M.5069885 .33955384C.6309967 .3665619 .7279968 .44657899 .7279968 .5325928 .7279968 .6105957 .6489868 .6826172 .5099945 .6826172H.23899842C.21899414 .6826172 .20999146 .6826172 .20999146 .66360476 .20999146 .6536102 .21699524 .6536102 .23599243 .6536102 .29599 .6536102 .29599 .6456146 .29599 .63461306 .29599 .6325989 .29599 .6266022 .2919922 .6116028L.15699768 .073516849C.147995 .038513185 .1459961 .028518677 .07699585 .028518677 .053985597 .028518677 .04699707 .028518677 .04699707 .009506226 .04699707-.00048828127 .057998659-.00048828127 .06098938-.00048828127 .07899475-.00048828127 .099990848 .0015106201 .11898804 .0015106201H.23699951C.25498963 .0015106201 .27598573-.00048828127 .2939911-.00048828127 .3019867-.00048828127 .31298829-.00048828127 .31298829 .018508912 .31298829 .028518677 .3039856 .028518677 .2889862 .028518677 .22799683 .028518677 .22799683 .036514284 .22799683 .04650879 .22799683 .04751587 .22799683 .054519655 .22999573 .06251526L.29699708 .33155824H.4169922C.5119934 .33155824 .5299988 .2715454 .5299988 .23854065 .5299988 .22354126 .519989 .1845398 .5130005 .15852356 .5019989 .11251831 .49899293 .10151672 .49899293 .08251953 .49899293 .011505127 .5569916-.021484375 .6239929-.021484375 .7049866-.021484375 .73999026 .07751465 .73999026 .09152222 .73999026 .098526 .7350006 .10151672 .72898867 .10151672 .72099307 .10151672 .71899417 .09552002 .71699526 .087524417 .69299319 .01651001 .6519928-.0014953613 .6269989-.0014953613 .60198977-.0014953613 .58599856 .009506226 .58599856 .054519655 .58599856 .07852173 .59799197 .16952515 .598999 .17453003 .60398867 .2115326 .60398867 .2155304 .60398867 .22354126 .60398867 .29655458 .54499819 .32754518 .5069885 .33955384Z"/>
<path id="font_1_3" d="M.3889923 .40924073C.35798646 .4032135 .34199525 .3812256 .34199525 .3592224 .34199525 .33522035 .36099244 .32722474 .375 .32722474 .40299989 .32722474 .42599488 .35121156 .42599488 .3812256 .42599488 .41329957 .394989 .44140626 .34498597 .44140626 .30499269 .44140626 .25898744 .42340089 .21699524 .36221314 .20999146 .41532899 .16999817 .44140626 .12998963 .44140626 .09098816 .44140626 .070999149 .41127015 .05899048 .3892212 .041992189 .3532257 .026992798 .2932129 .026992798 .28822328 .026992798 .28422547 .0309906 .27922059 .037994386 .27922059 .04598999 .27922059 .04699707 .2802124 .052993776 .30322267 .067993167 .3632202 .08699036 .42140199 .1269989 .42140199 .15098572 .42140199 .1579895 .40422059 .1579895 .37521363 .1579895 .3532257 .147995 .31422425 .14099121 .28321839L.11299133 .17521668C.10899353 .15621948 .09799194 .11122131 .09298706 .0932312 .085998538 .067230228 .07499695 .020233155 .07499695 .0152282719 .07499695 .0012207031 .085998538-.009765625 .100997928-.009765625 .11199951-.009765625 .1309967-.0027770997 .13699341 .017227173 .13999939 .025222779 .1769867 .17622376 .18299866 .19921875 .18798828 .22122193 .19400025 .24221802 .19898987 .2642212 .20298767 .2782135 .20698548 .29421998 .20999146 .30722047 .21299744 .31622315 .23999024 .36521913 .2649994 .3872223 .2769928 .39822389 .30299378 .42140199 .34399415 .42140199 .3600006 .42140199 .37599183 .41836549 .3889923 .40924073Z"/>
</defs>
<path transform="matrix(1.00006,0,0,-1.00005,87.5391,87.240558)" stroke-width="1.19553" stroke-linecap="butt" stroke-dasharray="2.98883,2.98883" stroke-miterlimit="10" stroke-linejoin="miter" fill="none" stroke="#000000" d="M85.04042 0C85.04042 46.96713 46.96713 85.04042 0 85.04042-46.96713 85.04042-85.04042 46.96713-85.04042 0-85.04042-46.96713-46.96713-85.04042 0-85.04042 46.96713-85.04042 85.04042-46.96713 85.04042 0ZM0 0"/>
<path transform="matrix(1.00006,0,0,-1.00005,87.5391,87.240558)" stroke-width="1.19553" stroke-linecap="butt" stroke-dasharray="2.98883,2.98883" stroke-miterlimit="10" stroke-linejoin="miter" fill="none" stroke="#000000" d="M56.69362 0C56.69362 31.31142 31.31142 56.69362 0 56.69362-31.31142 56.69362-56.69362 31.31142-56.69362 0-56.69362-31.31142-31.31142-56.69362 0-56.69362 31.31142-56.69362 56.69362-31.31142 56.69362 0ZM0 0"/>
<path transform="matrix(1.00006,0,0,-1.00005,87.5391,87.240558)" d="M43.4294 36.44217C61.11241 15.36893 61.11241-15.36893 43.4294-36.44217L65.1441-54.66327C91.66862-23.05339 91.66862 23.05339 65.1441 54.66327Z" fill="#b3ffb3"/>
<path transform="matrix(1.00006,0,0,-1.00005,87.5391,87.240558)" stroke-width="1.19553" stroke-linecap="butt" stroke-miterlimit="10" stroke-linejoin="miter" fill="none" stroke="#0000ff" d="M0 0 65.1441 54.66327"/>
<path transform="matrix(1.00006,0,0,-1.00005,87.5391,87.240558)" stroke-width=".79701" stroke-linecap="butt" stroke-miterlimit="10" stroke-linejoin="miter" fill="none" stroke="#ff0000" d="M0 0 65.1441-54.66327"/>
<path transform="matrix(1.00006,0,0,-1.00005,87.5391,87.240558)" stroke-width=".79701" stroke-linecap="butt" stroke-miterlimit="10" stroke-linejoin="miter" fill="none" stroke="#000000" d="M65.1441 54.66327C91.66862 23.05339 91.66862-23.05339 65.1441-54.66327"/>
<path transform="matrix(1.00006,0,0,-1.00005,87.5391,87.240558)" stroke-width=".79701" stroke-linecap="butt" stroke-miterlimit="10" stroke-linejoin="miter" fill="none" stroke="#000000" d="M43.4294 36.44217C61.11241 15.36893 61.11241-15.36893 43.4294-36.44217"/>
<path transform="matrix(1.00006,0,0,-1.00005,87.5391,87.240558)" stroke-width=".79701" stroke-linecap="butt" stroke-miterlimit="10" stroke-linejoin="miter" fill="none" stroke="#0000ff" d="M21.71469 18.22108C30.5562 7.68446 30.5562-7.68446 21.71469-18.22108"/>
<use data-text="&#x03b8;" xlink:href="#font_1_1" transform="matrix(14.34706,0,0,-14.346916,119.40801,83.71738)" fill="#0000ff"/>
<use data-text="R" xlink:href="#font_1_2" transform="matrix(14.34706,0,0,-14.346916,136.25603,38.0211)"/>
<use data-text="r" xlink:href="#font_1_3" transform="matrix(14.34706,0,0,-14.346916,98.35275,116.78103)"/>
<path transform="matrix(1.00006,0,0,-1.00005,87.5391,87.240558)" stroke-width="1.19553" stroke-linecap="butt" stroke-miterlimit="10" stroke-linejoin="miter" fill="none" stroke="#0000ff" d="M.70082-3.4856 38.98453-39.03459"/>
<path transform="matrix(-.73281398,-.68045398,-.6804608,.7328066,88.23998,90.72634)" stroke-width=".9564" stroke-linecap="round" stroke-linejoin="round" fill="none" stroke="#0000ff" d="M-1.91284 2.55046C-1.75343 1.59402 0 .15938 .4782 0 0-.15938-1.75343-1.59402-1.91284-2.55046"/>
<path transform="matrix(.73281398,.68045398,.6804608,-.7328066,126.52595,126.277088)" stroke-width=".9564" stroke-linecap="round" stroke-linejoin="round" fill="none" stroke="#0000ff" d="M-1.91284 2.55046C-1.75343 1.59402 0 .15938 .4782 0 0-.15938-1.75343-1.59402-1.91284-2.55046"/>
</svg>
