<svg xmlns="http://www.w3.org/2000/svg" xmlns:xlink="http://www.w3.org/1999/xlink" xmlns:inkscape="http://www.inkscape.org/namespaces/inkscape" version="1.1" width="259" height="259" viewBox="0 0 259 259">
<defs>
<path id="font_1_101" d="M.526001 .20495606C.526001 .34495545 .4249878 .41796876 .3039856 .41796876 .28199769 .41781617 .22599793 .41781617 .18399048 .34181214V.36080934C.18399048 .47483827 .20498657 .51797488 .21199036 .53302 .23599243 .5801544 .2899933 .616272 .35099793 .616272 .36898805 .616272 .40299989 .6132202 .42599488 .58984377 .3899994 .58483889 .37199403 .5578308 .37199403 .52783206 .37199403 .49383546 .394989 .46583558 .43399049 .46583558 .47299195 .46583558 .49699403 .49183656 .49699403 .52983096 .49699403 .59187319 .45498658 .65527346 .34899903 .65527346 .21299744 .65527346 .04798889 .5688324 .04798889 .3170166 .04798889 .23808289 .056991579 .15814209 .09799194 .08920288 .14498902 .013244629 .22099304-.0107421879 .29100038-.0107421879 .42999269-.0107421879 .526001 .07121277 .526001 .20510865V.20495606M.3899994 .20710755C.3899994 .10618591 .3899994 .03225708 .2889862 .03225708 .23699951 .03225708 .20999146 .07121277 .20199585 .08720398 .18598938 .11917114 .18598938 .19212342 .18598938 .21009827 .18598938 .33499146 .23999024 .381958 .29499818 .381958 .3899994 .381958 .3899994 .3070221 .3899994 .20710755Z"/>
<path id="font_1_43" d="M.47799684 .117126468C.47799684 .13113404 .46398927 .13113404 .45399476 .13113404 .43598939 .13113404 .43499757 .12913513 .42999269 .11613464 .4039917 .053131105 .35598756 .03413391 .30499269 .03413391 .1659851 .03413391 .1659851 .18112183 .1659851 .22712708 .1659851 .28312684 .1659851 .41311646 .29499818 .41311646 .32998658 .41311646 .34700013 .41011048 .3600006 .40711976 .34199525 .39111329 .33999635 .3701172 .33999635 .3611145 .33999635 .3171234 .375 .29811097 .4019928 .29811097 .43299867 .29811097 .46499635 .3191223 .46499635 .3611145 .46499635 .44711305 .34899903 .453125 .29100038 .453125 .11199951 .45314027 .037994386 .33813478 .037994386 .22213745 .037994386 .08912659 .13198853-.005859375 .28599549-.005859375 .44799806-.005859375 .47799684 .11013794 .47799684 .117126468Z"/>
<path id="font_1_75" d="M.93499758 0V.04699707H.8659973V.30613709C.8659973 .40919496 .8149872 .4501953 .71199038 .4501953 .62098696 .4501953 .56900027 .40019227 .54299929 .3541565 .522995 .44718934 .43099977 .4501953 .3929901 .4501953 .30599977 .4501953 .24899292 .40518189 .21699524 .3421631V.4501953L.04499817 .4423828V.39537049C.10699463 .39537049 .11399841 .39537049 .11399841 .3563385V.04699707H.04499817V0L.17098999 .0029907227 .29699708 0V.04699707H.22799683V.2562256C.22799683 .3653412 .31498719 .41436769 .3769989 .41436769 .41099549 .41436769 .43299867 .39437867 .43299867 .31729127V.04699707H.3639984V0L.48999024 .0029907227 .6159973 0V.04699707H.5469971V.2562256C.5469971 .3653412 .6339874 .41436769 .69599917 .41436769 .7299957 .41436769 .7519989 .39437867 .7519989 .31729127V.04699707H.68299868V0L.8089905 .0029907227 .93499758 0Z"/>
<path id="font_1_78" d="M.526001 .32948304C.526001 .39642335 .526001 .65527346 .2889862 .65527346 .14698792 .65527346 .04798889 .57429507 .04798889 .44039918 .04798889 .3025055 .14698792 .22753906 .269989 .22753906 .30499269 .22753906 .35198976 .23452759 .3899994 .3045044V.28251649C.3899994 .20959473 .3809967 .1506958 .3659973 .11669922 .34899903 .077697757 .30599977 .03225708 .23699951 .03225708 .21899414 .03225708 .18299866 .0342865 .15299988 .05470276 .16499329 .05770874 .20199585 .07170105 .20199585 .11669922 .20199585 .1506958 .1789856 .17871094 .13999939 .17871094 .100997928 .17871094 .07699585 .15270996 .07699585 .11470032 .07699585 .046554567 .12799073-.0107421879 .23899842-.0107421879 .36898805-.0107421879 .526001 .07369995 .526001 .32948304M.3889923 .42840577C.3889923 .365448 .36299134 .26353456 .2789917 .26353456 .18399048 .26353456 .18399048 .33847047 .18399048 .43840028 .18399048 .5363312 .18399048 .616272 .29100038 .616272 .34999085 .616272 .37298585 .5633087 .3769989 .5533142 .3889923 .52033999 .3889923 .46238709 .3889923 .42840577Z"/>
</defs>
<path transform="matrix(1,0,0,-1.0001,129.854,129.57236)" d="M127.56062 0C127.56062 70.45068 70.45068 127.56062 0 127.56062-70.45068 127.56062-127.56062 70.45068-127.56062 0-127.56062-70.45068-70.45068-127.56062 0-127.56062 70.45068-127.56062 127.56062-70.45068 127.56062 0ZM0 0" fill="#fffac2"/>
<path transform="matrix(1,0,0,-1.0001,129.854,129.57236)" d="M85.04042 0C85.04042 46.96713 46.96713 85.04042 0 85.04042-46.96713 85.04042-85.04042 46.96713-85.04042 0-85.04042-46.96713-46.96713-85.04042 0-85.04042 46.96713-85.04042 85.04042-46.96713 85.04042 0ZM0 0" fill="#ffffff"/>
<path transform="matrix(1,0,0,-1.0001,129.854,129.57236)" stroke-width=".79701" stroke-linecap="butt" stroke-miterlimit="10" stroke-linejoin="miter" fill="none" stroke="#000000" d="M127.56062 0C127.56062 70.45068 70.45068 127.56062 0 127.56062-70.45068 127.56062-127.56062 70.45068-127.56062 0-127.56062-70.45068-70.45068-127.56062 0-127.56062 70.45068-127.56062 127.56062-70.45068 127.56062 0ZM0 0"/>
<path transform="matrix(1,0,0,-1.0001,129.854,129.57236)" stroke-width=".79701" stroke-linecap="butt" stroke-miterlimit="10" stroke-linejoin="miter" fill="none" stroke="#000000" d="M85.04042 0C85.04042 46.96713 46.96713 85.04042 0 85.04042-46.96713 85.04042-85.04042 46.96713-85.04042 0-85.04042-46.96713-46.96713-85.04042 0-85.04042 46.96713-85.04042 85.04042-46.96713 85.04042 0ZM0 0"/>
<path transform="matrix(1,0,0,-1.0001,129.854,129.57236)" stroke-width=".79701" stroke-linecap="butt" stroke-dasharray="2.98883,2.98883" stroke-miterlimit="10" stroke-linejoin="miter" fill="none" stroke="#000000" d="M0 0H85.04042"/>
<use data-text="6" xlink:href="#font_1_101" transform="matrix(9.9626,0,0,-9.963596,160.284,125.74297)"/>
<use data-text="c" xlink:href="#font_1_43" transform="matrix(9.9626,0,0,-9.963596,169.82819,125.74297)"/>
<use data-text="m" xlink:href="#font_1_75" transform="matrix(9.9626,0,0,-9.963596,174.91907,125.74297)"/>
<path transform="matrix(1,0,0,-1.0001,129.854,129.57236)" stroke-width=".79701" stroke-linecap="butt" stroke-dasharray="2.98883,2.98883" stroke-miterlimit="10" stroke-linejoin="miter" fill="none" stroke="#000000" d="M0 0-110.55237 68.03217"/>
<use data-text="9" xlink:href="#font_1_78" transform="matrix(9.9626,0,0,-9.963596,78.297,98.76128)"/>
<use data-text="c" xlink:href="#font_1_43" transform="matrix(9.9626,0,0,-9.963596,87.84117,98.76128)"/>
<use data-text="m" xlink:href="#font_1_75" transform="matrix(9.9626,0,0,-9.963596,92.93207,98.76128)"/>
<path transform="matrix(1,0,0,-1.0001,129.854,129.57236)" d="M1.99255 0C1.99255 1.10046 1.10046 1.99255 0 1.99255-1.10046 1.99255-1.99255 1.10046-1.99255 0-1.99255-1.10046-1.10046-1.99255 0-1.99255 1.10046-1.99255 1.99255-1.10046 1.99255 0ZM0 0"/>
<path transform="matrix(1,0,0,-1.0001,129.854,129.57236)" stroke-width=".3985" stroke-linecap="butt" stroke-miterlimit="10" stroke-linejoin="miter" fill="none" stroke="#000000" d="M1.99255 0C1.99255 1.10046 1.10046 1.99255 0 1.99255-1.10046 1.99255-1.99255 1.10046-1.99255 0-1.99255-1.10046-1.10046-1.99255 0-1.99255 1.10046-1.99255 1.99255-1.10046 1.99255 0ZM0 0"/>
<path transform="matrix(1,0,0,-1.0001,129.854,129.57236)" d="M87.03297 0C87.03297 1.10046 86.1409 1.99255 85.04042 1.99255 83.93996 1.99255 83.04787 1.10046 83.04787 0 83.04787-1.10046 83.93996-1.99255 85.04042-1.99255 86.1409-1.99255 87.03297-1.10046 87.03297 0ZM85.04042 0"/>
<path transform="matrix(1,0,0,-1.0001,129.854,129.57236)" stroke-width=".3985" stroke-linecap="butt" stroke-miterlimit="10" stroke-linejoin="miter" fill="none" stroke="#000000" d="M87.03297 0C87.03297 1.10046 86.1409 1.99255 85.04042 1.99255 83.93996 1.99255 83.04787 1.10046 83.04787 0 83.04787-1.10046 83.93996-1.99255 85.04042-1.99255 86.1409-1.99255 87.03297-1.10046 87.03297 0ZM85.04042 0"/>
<path transform="matrix(1,0,0,-1.0001,129.854,129.57236)" d="M-108.55981 68.03217C-108.55981 69.13263-109.45189 70.02472-110.55237 70.02472-111.65283 70.02472-112.54492 69.13263-112.54492 68.03217-112.54492 66.93169-111.65283 66.03961-110.55237 66.03961-109.45189 66.03961-108.55981 66.93169-108.55981 68.03217ZM-110.55237 68.03217"/>
<path transform="matrix(1,0,0,-1.0001,129.854,129.57236)" stroke-width=".3985" stroke-linecap="butt" stroke-miterlimit="10" stroke-linejoin="miter" fill="none" stroke="#000000" d="M-108.55981 68.03217C-108.55981 69.13263-109.45189 70.02472-110.55237 70.02472-111.65283 70.02472-112.54492 69.13263-112.54492 68.03217-112.54492 66.93169-111.65283 66.03961-110.55237 66.03961-109.45189 66.03961-108.55981 66.93169-108.55981 68.03217ZM-110.55237 68.03217"/>
</svg>
