<svg xmlns="http://www.w3.org/2000/svg" xmlns:xlink="http://www.w3.org/1999/xlink" xmlns:inkscape="http://www.inkscape.org/namespaces/inkscape" version="1.1" width="203" height="89" viewBox="0 0 203 89">
<path transform="matrix(1,0,0,-1.00002,2.2949982,115.38699)" stroke-width=".79701" stroke-linecap="butt" stroke-miterlimit="10" stroke-linejoin="miter" fill="none" stroke="#000000" d="M0 28.3468 85.04042 113.38724 198.42766 28.3468Z"/>
<path transform="matrix(1,0,0,-1.00002,2.2949982,115.38699)" stroke-width=".3985" stroke-linecap="butt" stroke-miterlimit="10" stroke-linejoin="miter" fill="none" stroke="#0000ff" d="M0 28.3468 85.04042 113.38724 198.42766 28.3468"/>
<path transform="matrix(1,0,0,-1.00002,2.2949982,115.38699)" stroke-width=".3985" stroke-linecap="butt" stroke-miterlimit="10" stroke-linejoin="miter" fill="none" stroke="#0000ff" d="M28.3468 28.3468C28.3468 35.86343 25.3593 43.07597 20.04422 48.39104"/>
<path transform="matrix(1,0,0,-1.00002,2.2949982,115.38699)" stroke-width=".3985" stroke-linecap="butt" stroke-miterlimit="10" stroke-linejoin="miter" fill="none" stroke="#0000ff" d="M0 28.3468 85.04042 113.38724 198.42766 28.3468"/>
<path transform="matrix(1,0,0,-1.00002,2.2949982,115.38699)" stroke-width=".3985" stroke-linecap="butt" stroke-miterlimit="10" stroke-linejoin="miter" fill="none" stroke="#ff8000" d="M64.99619 93.343C72.15646 86.18272 82.59602 83.38544 92.37712 86.00629 98.50665 87.64868 103.90968 91.30298 107.71707 96.37941"/>
<path transform="matrix(1,0,0,-1.00002,2.2949982,115.38699)" stroke-width=".3985" stroke-linecap="butt" stroke-miterlimit="10" stroke-linejoin="miter" fill="none" stroke="#000000" d="M51.02432 73.70186 45.35506 79.37114"/>
</svg>
