<svg xmlns="http://www.w3.org/2000/svg" xmlns:xlink="http://www.w3.org/1999/xlink" xmlns:inkscape="http://www.inkscape.org/namespaces/inkscape" version="1.1" width="229" height="145" viewBox="0 0 229 145">
<path transform="matrix(1.00003,0,0,-1.00005,114.4859,30.146708)" stroke-width=".3985" stroke-linecap="butt" stroke-miterlimit="10" stroke-linejoin="miter" fill="none" stroke="#000000" d="M-85.04042-28.3468-28.3468-56.69362 85.04042-28.3468 28.3468 0Z"/>
<path transform="matrix(1.00003,0,0,-1.00005,114.4859,30.146708)" stroke-width=".3985" stroke-linecap="butt" stroke-miterlimit="10" stroke-linejoin="miter" fill="none" stroke="#000000" d="M-85.04042-28.3468V-56.69362L-28.3468-85.04042 85.04042-56.69362V-28.3468"/>
<path transform="matrix(1.00003,0,0,-1.00005,114.4859,30.146708)" stroke-width=".3985" stroke-linecap="butt" stroke-miterlimit="10" stroke-linejoin="miter" fill="none" stroke="#000000" d="M-28.3468-56.69362V-85.04042"/>
<path transform="matrix(1.00003,0,0,-1.00005,114.4859,30.146708)" stroke-width=".3985" stroke-linecap="butt" stroke-miterlimit="10" stroke-linejoin="miter" fill="none" stroke="#0000ff" d="M0 28.3468V-28.3468"/>
<path transform="matrix(1.00003,0,0,-1.00005,114.4859,30.146708)" stroke-width=".3985" stroke-linecap="butt" stroke-miterlimit="10" stroke-linejoin="miter" fill="none" stroke="#0000ff" d="M0-79.37114V-113.38724"/>
<path transform="matrix(1.00003,0,0,-1.00005,114.4859,30.146708)" stroke-width=".3985" stroke-linecap="butt" stroke-miterlimit="10" stroke-linejoin="miter" fill="none" stroke="#ff0000" d="M-56.69362-56.69362-113.38724-70.867"/>
<path transform="matrix(1.00003,0,0,-1.00005,114.4859,30.146708)" stroke-width=".3985" stroke-linecap="butt" stroke-miterlimit="10" stroke-linejoin="miter" fill="none" stroke="#ff0000" d="M76.53629-22.67752 113.38724-14.17339"/>
<path transform="matrix(1.00003,0,0,-1.00005,114.4859,30.146708)" stroke-width=".3985" stroke-linecap="butt" stroke-miterlimit="10" stroke-linejoin="miter" fill="none" stroke="#00ff00" d="M-48.18947-19.84267-85.04042 0"/>
<path transform="matrix(1.00003,0,0,-1.00005,114.4859,30.146708)" stroke-width=".3985" stroke-linecap="butt" stroke-miterlimit="10" stroke-linejoin="miter" fill="none" stroke="#00ff00" d="M28.3468-56.69362 85.04042-85.04042"/>
</svg>
