<svg xmlns="http://www.w3.org/2000/svg" xmlns:xlink="http://www.w3.org/1999/xlink" xmlns:inkscape="http://www.inkscape.org/namespaces/inkscape" version="1.1" width="49" height="49" viewBox="0 0 49 49">
<path transform="matrix(1,0,0,-1,24.972,24.675999)" stroke-width=".79701" stroke-linecap="butt" stroke-miterlimit="10" stroke-linejoin="miter" fill="none" stroke="#bf0040" d="M22.67754 0 22.33322 3.93782 21.31 7.75629 19.63937 11.33876 17.37181 14.5769 14.5769 17.37181 11.33876 19.63937 7.75629 21.31 3.93782 22.33322 0 22.67754-3.93782 22.33322-7.75629 21.31-11.33876 19.63937-14.5769 17.37181-17.37181 14.5769-19.63937 11.33876-21.31 7.75629-22.33322 3.93782-22.67754 0-22.33322-3.93782-21.31-7.75629-19.63937-11.33876-17.37181-14.5769-14.5769-17.37181-11.33876-19.63937-7.75629-21.31-3.93782-22.33322 0-22.67754 3.93782-22.33322 7.75629-21.31 11.33876-19.63937 14.5769-17.37181 17.37181-14.5769 19.63937-11.33876 21.31-7.75629 22.33322-3.93782ZM0 22.67754"/>
</svg>
