<svg xmlns="http://www.w3.org/2000/svg" xmlns:xlink="http://www.w3.org/1999/xlink" xmlns:inkscape="http://www.inkscape.org/namespaces/inkscape" version="1.1" width="32" height="32" viewBox="0 0 32 32">
<path transform="matrix(1.00006,0,0,-1.00002,16.46885,16.172003)" stroke-width=".79701" stroke-linecap="butt" stroke-miterlimit="10" stroke-linejoin="miter" fill="none" stroke="#bf0040" d="M14.17339 0 13.95819 2.46114 13.3187 4.84764 12.27454 7.08669 10.85733 9.11052 9.11052 10.85733 7.08669 12.27454 4.84764 13.3187 2.46114 13.95819 0 14.17339-2.46114 13.95819-4.84764 13.3187-7.08669 12.27454-9.11052 10.85733-10.85733 9.11052-12.27454 7.08669-13.3187 4.84764-13.95819 2.46114-14.17339 0-13.95819-2.46114-13.3187-4.84764-12.27454-7.08669-10.85733-9.11052-9.11052-10.85733-7.08669-12.27454-4.84764-13.3187-2.46114-13.95819 0-14.17339 2.46114-13.95819 4.84764-13.3187 7.08669-12.27454 9.11052-10.85733 10.85733-9.11052 12.27454-7.08669 13.3187-4.84764 13.95819-2.46114ZM0 14.17339"/>
</svg>
