<svg xmlns="http://www.w3.org/2000/svg" xmlns:xlink="http://www.w3.org/1999/xlink" xmlns:inkscape="http://www.inkscape.org/namespaces/inkscape" version="1.1" width="118" height="137" viewBox="0 0 118 137">
<defs>
<path id="font_1_51" d="M.45700074 .16764832C.45700074 .20367432 .44599916 .24871826 .4079895 .29074098 .3889923 .31176759 .37298585 .32176209 .30899049 .36180116 .3809967 .39881898 .42999269 .4508667 .42999269 .51690676 .42999269 .6089783 .34098817 .6660156 .25 .6660156 .1499939 .6660156 .068984989 .5919647 .068984989 .49890138 .068984989 .48088075 .070999149 .43585206 .11299133 .38882447 .12399292 .3768158 .16099549 .35179139 .18598938 .33477784 .12799073 .30575563 .041992189 .24971009 .041992189 .15063477 .041992189 .044555665 .14399719-.022460938 .24899292-.022460938 .3619995-.022460938 .45700074 .060577394 .45700074 .16764832M.38598634 .51690676C.38598634 .45986939 .34700013 .41183473 .2869873 .3768158L.16299439 .4568634C.116989139 .4868927 .11299133 .5209198 .11299133 .53793337 .11299133 .5989685 .17799378 .64100649 .24899292 .64100649 .32199098 .64100649 .38598634 .588974 .38598634 .51690676M.40699769 .13162232C.40699769 .05757141 .33198548 .0055389406 .25 .0055389406 .1639862 .0055389406 .09199524 .06758118 .09199524 .15063477 .09199524 .2086792 .12399292 .2727356 .20899964 .31976319L.33198548 .24171448C.3600006 .22268677 .40699769 .19267273 .40699769 .13162232Z"/>
<path id="font_1_43" d="M.4149933 .119140628C.4149933 .12911988 .40499879 .12911988 .4019928 .12911988 .3929901 .12911988 .3909912 .12512207 .3889923 .119140628 .3600006 .026229859 .29499818 .014251709 .2579956 .014251709 .20498657 .014251709 .116989139 .0572052 .116989139 .21801758 .116989139 .38093568 .19898987 .42323304 .2519989 .42323304 .26098634 .42323304 .32398988 .42222596 .35899354 .38594056 .31799317 .38293458 .31199647 .3529358 .31199647 .3399353 .31199647 .31393434 .32998658 .2939453 .35798646 .2939453 .38398744 .2939453 .4039917 .3109436 .4039917 .34094239 .4039917 .40911866 .32798768 .4482422 .25099183 .4482422 .12599182 .4482422 .033996583 .3399353 .033996583 .21601868 .033996583 .08816528 .1329956-.0107421879 .24899292-.0107421879 .3829956-.0107421879 .4149933 .10914612 .4149933 .119140628Z"/>
<path id="font_1_75" d="M.8129883 0V.0309906C.7609863 .0309906 .73599246 .0309906 .7350006 .061019899V.25221253C.7350006 .3383026 .7350006 .36932374 .70399478 .405365 .6899872 .42237855 .6569977 .4423828 .598999 .4423828 .5149994 .4423828 .47099305 .38233949 .45399476 .34429933 .43998719 .43138124 .3659973 .4423828 .32099916 .4423828 .24798584 .4423828 .20098877 .39935304 .17298889 .33729554V.4423828L.03199768 .43066407V.3996582C.101989749 .3996582 .10998535 .39266969 .10998535 .34370423V.07595825C.10998535 .0309906 .09899902 .0309906 .03199768 .0309906V0L.14498902 .0029907227 .25698854 0V.0309906C.18998719 .0309906 .1789856 .0309906 .1789856 .07595825V.25978089C.1789856 .36431886 .25 .42037965 .31399537 .42037965 .3769989 .42037965 .3880005 .36631776 .3880005 .30926515V.076034549C.3880005 .0309906 .3769989 .0309906 .30999757 .0309906V0L.4229889 .0029907227 .5349884 0V.0309906C.46798707 .0309906 .45700074 .0309906 .45700074 .076034549V.2602234C.45700074 .36431886 .5279999 .42037965 .59199526 .42037965 .6549988 .42037965 .66600039 .36631776 .66600039 .30926515V.076034549C.66600039 .0309906 .6549988 .0309906 .58799746 .0309906V0L.70098879 .0029907227 .8129883 0Z"/>
<path id="font_1_100" d="M.4850006 .6435547H.24198914C.11999512 .6435547 .117996219 .6566467 .11399841 .67578127H.08898926L.055999757 .46954347H.08099365C.083999637 .48554994 .09298706 .54855349 .10598755 .5605469 .11299133 .5665436 .19099427 .5665436 .20399475 .5665436H.41099549L.29899598 .40853883C.20899964 .2735443 .17599488 .13453675 .17599488 .03253174 .17599488 .022537232 .17599488-.022460938 .22200012-.022460938 .2679901-.022460938 .2679901 .022537232 .2679901 .03253174V.08354187C.2679901 .13853455 .2709961 .19354248 .2789917 .24754334 .2829895 .27053834 .29699708 .35653688 .34098817 .41854859L.47599793 .608551C.4850006 .62054446 .4850006 .62254336 .4850006 .6435547Z"/>
</defs>
<path transform="matrix(1.00003,0,0,-1.00008,58.99022,115.391948)" d="M-56.69362 0C-56.69362-10.95894-31.31142-19.84267 0-19.84267 31.31142-19.84267 56.69362-10.95894 56.69362 0 56.69362 10.95894 31.31142 19.84267 0 19.84267-31.31142 19.84267-56.69362 10.95894-56.69362 0Z" fill="#b3b3ff"/>
<path transform="matrix(1.00003,0,0,-1.00008,58.99022,115.391948)" d="M-56.69362 0 0 113.38724 56.69362 0Z" fill="#b3b3ff"/>
<path transform="matrix(1.00003,0,0,-1.00008,58.99022,115.391948)" stroke-width=".79701" stroke-linecap="butt" stroke-miterlimit="10" stroke-linejoin="miter" fill="none" stroke="#000000" d="M-56.69362 0C-56.69362-10.95894-31.31142-19.84267 0-19.84267 31.31142-19.84267 56.69362-10.95894 56.69362 0"/>
<path transform="matrix(1.00003,0,0,-1.00008,58.99022,115.391948)" stroke-width=".3985" stroke-linecap="butt" stroke-dasharray="2.98883,2.98883" stroke-miterlimit="10" stroke-linejoin="miter" fill="none" stroke="#000000" d="M56.69362 0C56.69362 10.95894 31.31142 19.84267 0 19.84267-31.31142 19.84267-56.69362 10.95894-56.69362 0"/>
<path transform="matrix(1.00003,0,0,-1.00008,58.99022,115.391948)" stroke-width=".79701" stroke-linecap="butt" stroke-miterlimit="10" stroke-linejoin="miter" fill="none" stroke="#000000" d="M-56.69362 0 0 113.38724"/>
<path transform="matrix(1.00003,0,0,-1.00008,58.99022,115.391948)" stroke-width=".79701" stroke-linecap="butt" stroke-miterlimit="10" stroke-linejoin="miter" fill="none" stroke="#000000" d="M56.69362 0 0 113.38724"/>
<path transform="matrix(1.00003,0,0,-1.00008,58.99022,115.391948)" stroke-width=".3985" stroke-linecap="butt" stroke-dasharray="2.98883,2.98883" stroke-miterlimit="10" stroke-linejoin="miter" fill="none" stroke="#000000" d="M0 0V113.38724"/>
<use data-text="8" xlink:href="#font_1_51" transform="matrix(9.962899,0,0,-9.963397,34.44848,61.901666)"/>
<use data-text="c" xlink:href="#font_1_43" transform="matrix(9.962899,0,0,-9.963397,42.747568,61.901666)"/>
<use data-text="m" xlink:href="#font_1_75" transform="matrix(9.962899,0,0,-9.963397,47.171106,61.901666)"/>
<path transform="matrix(1.00003,0,0,-1.00008,58.99022,115.391948)" stroke-width=".3985" stroke-linecap="butt" stroke-dasharray="2.98883,2.98883" stroke-miterlimit="10" stroke-linejoin="miter" fill="none" stroke="#000000" d="M0 0H56.69362"/>
<use data-text="7" xlink:href="#font_1_100" transform="matrix(9.962899,0,0,-9.963397,76.82675,125.647769)"/>
<use data-text="c" xlink:href="#font_1_43" transform="matrix(9.962899,0,0,-9.963397,85.12584,125.647769)"/>
<use data-text="m" xlink:href="#font_1_75" transform="matrix(9.962899,0,0,-9.963397,89.54938,125.647769)"/>
</svg>
