<svg xmlns="http://www.w3.org/2000/svg" xmlns:xlink="http://www.w3.org/1999/xlink" xmlns:inkscape="http://www.inkscape.org/namespaces/inkscape" version="1.1" width="396" height="127" viewBox="0 0 396 127">
<defs>
<path id="font_1_3" d="M.4039917 .40527345C.37098695 .39926148 .35398866 .3712616 .35398866 .3502655 .35398866 .3312683 .36799623 .31427003 .3929901 .31427003 .41999818 .31427003 .44799806 .337265 .44799806 .37426759 .44799806 .41334535 .4119873 .4423828 .36299134 .4423828 .28799439 .4423828 .24598694 .386261 .23199463 .3672638 .21998596 .42237855 .1749878 .4423828 .13699341 .4423828 .100997928 .4423828 .07798767 .42037965 .06098938 .38526917 .041992189 .34925843 .0289917 .29226686 .0289917 .28826905 .0289917 .27926637 .035995485 .27626039 .042999269 .27626039 .053985597 .27626039 .055999757 .28126527 .06098938 .30126954 .07998657 .38026429 .100997928 .41737367 .1349945 .41737367 .16499329 .41737367 .16499329 .38526917 .16499329 .37026979 .16499329 .34925843 .15699768 .31826783 .15098572 .29226686 .14399719 .26626588 .13398743 .2232666 .12998963 .21125794L.08999634 .04725647C.08299255 .023254395 .08299255 .021255494 .08299255 .018249512 .08299255 .0052490236 .09199524-.0107421879 .11399841-.0107421879 .1459961-.0107421879 .15299988 .01625061 .1599884 .04525757 .17199707 .088256839 .17199707 .09025574 .18199158 .1312561 .21899414 .28126527 .22499085 .30526734 .22698975 .31025697 .23298645 .32226563 .2789917 .41737367 .3619995 .41737367 .3849945 .41737367 .39898683 .40930177 .4039917 .40527345Z"/>
<path id="font_1_1" d="M.09799194 .13923645C.10998535 .04725647 .14698792-.01171875 .21398926-.01171875 .27598573-.01171875 .33599855 .042266847 .37199403 .07525635 .37399293 .07624817 .3769989 .07925415 .3769989 .085250858 .3769989 .09124756 .36999513 .099243167 .36299134 .099243167 .35899354 .099243167 .35699464 .099243167 .34799195 .09025574 .28399659 .030273438 .24899292 .0132751469 .21598816 .0132751469 .20199585 .0132751469 .17999268 .0132751469 .16499329 .057266237 .1599884 .07325745 .1539917 .10824585 .1539917 .14422608 .1539917 .16023255 .1539917 .18022156 .1579895 .19621277 .1579895 .19721985 .1579895 .19921875 .17799378 .21821594 .22200012 .26319886 .2789917 .32817079 .31900025 .38916017 .397995 .5081177 .40499879 .5970917 .40499879 .6260834 .40499879 .66007998 .394989 .7050781 .34399415 .7050781 .2979889 .7050781 .2639923 .66407778 .25099183 .64707949 .1579895 .5311127 .09399414 .32017518 .09399414 .19221497 .09399414 .18722534 .09399414 .18022156 .09498596 .17422486 .07199097 .15322876 .04899597 .13223267 .026992798 .11024475 .023986817 .10824585 .016998291 .101242069 .01399231 .099243167 .011993408 .09625244 .009994507 .09324646 .009994507 .08924866 .009994507 .085250858 .01399231 .07424927 .022994996 .07424927 .03199768 .07424927 .069992069 .11224365 .08099365 .12423706L.09799194 .13923645M.1639862 .24420166C.17098999 .28419496 .20599365 .43714906 .23899842 .5261078 .25099183 .55810549 .29699708 .68006899 .34498597 .68006899 .37298585 .68006899 .37799073 .654068 .37799073 .62908938 .37799073 .61408999 .37399293 .55010989 .33399964 .46813966 .27598573 .35217286 .16499329 .24420166 .1639862 .24420166Z"/>
<path id="font_1_2" d="M.2869873 .6603241C.29100038 .67433169 .29100038 .67633059 .29100038 .68032839 .29100038 .68933108 .2849884 .69433596 .27598573 .69433596 .2619934 .69433596 .17399597 .6863251 .1539917 .6843262 .14399719 .68333438 .1329956 .6823273 .1329956 .665329 .1329956 .6523285 .14399719 .6523285 .1599884 .6523285 .20698548 .6523285 .20698548 .6453247 .20698548 .6363373 .20698548 .6323395 .20698548 .6303406 .20199585 .6123352L.05899048 .037261964C.054992677 .023254395 .054992677 .021255494 .054992677 .018249512 .054992677 .002243042 .067993167-.0107421879 .085998538-.0107421879 .102996829-.0107421879 .116989139-.00074768069 .12399292 .013244629 .12599182 .018249512 .1349945 .054260255 .13999939 .07527161L.16299439 .16429138C.1659851 .17930603 .17599488 .21731568 .1789856 .23231507L.19099427 .27633668C.19599915 .29934693 .25299073 .41737367 .36099244 .41737367 .4149933 .41737367 .4149933 .36436463 .4149933 .34735108 .4149933 .28633119 .36799623 .16429138 .35699464 .13328552 .34498597 .10227966 .34098817 .0922699 .34098817 .073272708 .34098817 .019256592 .38198854-.0107421879 .4269867-.0107421879 .522995-.0107421879 .56199648 .1322937 .56199648 .14329529 .56199648 .14828491 .5589905 .1552887 .548996 .1552887 .5379944 .1552887 .5369873 .15029907 .5329895 .13728333 .5079956 .052261354 .46598817 .014251709 .42999269 .014251709 .4229889 .014251709 .40499879 .014251709 .40499879 .04626465 .40499879 .0712738 .4149933 .09727478 .4229889 .119277957 .44299317 .17030335 .48298646 .27633668 .48298646 .33235169 .48298646 .42137147 .4169922 .4423828 .3639984 .4423828 .3039856 .4423828 .25299073 .41438294 .21299744 .36535646L.2869873 .6603241Z"/>
<path id="font_2_4" d="M.6349945 .6950989C.6349945 .70410159 .6279907 .70410159 .6259918 .70410159 .621994 .70410159 .62098696 .7030945 .60899356 .6880951 .6029968 .6810913 .56199648 .62905886 .5609894 .62805178 .5279999 .6931 .46199037 .70410159 .41999818 .70410159 .29299928 .70410159 .17799378 .5880127 .17799378 .47491456 .17799378 .39985658 .22299195 .3558197 .27198792 .33880616 .2829895 .3347931 .34199525 .31878663 .37199403 .31178285 .4229889 .29776 .43598939 .2937622 .45700074 .27174378 .46099855 .2667389 .48098756 .24371338 .48098756 .19667053 .48098756 .10359192 .394989 .007507324 .29499818 .007507324 .21299744 .007507324 .12199402 .042541505 .12199402 .15463257 .12199402 .17366028 .12599182 .19767761 .1289978 .20768738 .1289978 .21069336 .12998963 .21569824 .12998963 .21769715 .12998963 .22169495 .12799073 .22669983 .11999512 .22669983 .11099243 .22669983 .10998535 .22470093 .10598755 .20768738L.054992677 .0025024415C.054992677 .0015106201 .050994874-.011489868 .050994874-.012496948 .050994874-.021484375 .05899048-.021484375 .06098938-.021484375 .06498718-.021484375 .06599426-.020492554 .07798767-.005493164L.12399292 .05455017C.147995 .01852417 .19999695-.021484375 .29299928-.021484375 .42199708-.021484375 .5399933 .10359192 .5399933 .22869873 .5399933 .2707367 .5299988 .30776979 .49198915 .34480287 .47099305 .36582948 .45298768 .37083436 .36099244 .39485169 .2939911 .4128723 .2849884 .41586305 .2669983 .43188478 .25 .44889833 .23699951 .47291566 .23699951 .50694277 .23699951 .5910187 .32199098 .6770935 .4169922 .6770935 .5149994 .6770935 .5609894 .6170502 .5609894 .5219574 .5609894 .49594117 .55599978 .46891786 .55599978 .4649048 .55599978 .4559021 .56399539 .4559021 .5669861 .4559021 .57598879 .4559021 .57699587 .45890809 .58099368 .47491456L.6349945 .6950989Z"/>
<path id="font_2_2" d="M.18399048 .04798889C.18399048 .07699585 .1599884 .09700012 .13598633 .09700012 .10699463 .09700012 .08699036 .07299805 .08699036 .04899597 .08699036 .019989014 .11099243 0 .1349945 0 .1639862 0 .18399048 .023986817 .18399048 .04798889Z"/>
<path id="font_2_3" d="M.16999817 .1111145C.1349945 .05203247 .100997928 .03199768 .052993776 .0289917 .041992189 .027999878 .033996583 .027999878 .033996583 .009994507 .033996583 .0039978029 .038986207 0 .04598999 0 .06399536 0 .10899353 .0019989014 .1269989 .0019989014 .1559906 .0019989014 .18798828 0 .21598816 0 .22200012 0 .23399353 0 .23399353 .018997193 .23399353 .027999878 .22599793 .0289917 .21998596 .0289917 .19699097 .0309906 .17799378 .039001466 .17799378 .06304932 .17799378 .07707214 .18399048 .08808899 .19699097 .11012268L.272995 .23632813H.5279999C.5289917 .22731018 .5289917 .21929932 .5299988 .21028137 .5329895 .18423462 .54499819 .080078128 .54499819 .061050416 .54499819 .0309906 .49398805 .0289917 .47799684 .0289917 .46699525 .0289917 .45599366 .0289917 .45599366 .010986328 .45599366 0 .46499635 0 .47099305 0 .48799134 0 .5079956 .0019989014 .5249939 .0019989014H.58200076C.6429901 .0019989014 .68699648 0 .6879883 0 .69499209 0 .70599368 0 .70599368 .018997193 .70599368 .0289917 .69699099 .0289917 .6819916 .0289917 .6269989 .0289917 .6259918 .038009645 .6230011 .0680542L.56199648 .691864C.55999758 .711853 .55599978 .7138672 .54499819 .7138672 .5349884 .7138672 .5289917 .711853 .519989 .69685366L.16999817 .1111145M.2899933 .26531983 .4909973 .6009674 .5249939 .26531983H.2899933Z"/>
<path id="font_3_3" d="M.6429901 .32128907C.6579895 .32128907 .6729889 .32128907 .6729889 .33828736 .6729889 .35627748 .6559906 .35627748 .6389923 .35627748H.07998657C.06298828 .35627748 .04598999 .35627748 .04598999 .33828736 .04598999 .32128907 .06098938 .32128907 .07598877 .32128907H.6429901M.6389923 .14273072C.6559906 .14273072 .6729889 .14273072 .6729889 .16072083 .6729889 .17773438 .6579895 .17773438 .6429901 .17773438H.07598877C.06098938 .17773438 .04598999 .17773438 .04598999 .16072083 .04598999 .14273072 .06298828 .14273072 .07998657 .14273072H.6389923Z"/>
<path id="font_2_1" d="M.25898744 .3766632H.37199403C.34498597 .26483155 .32798768 .19194031 .32798768 .112075809 .32798768 .098083499 .32798768-.009765625 .36898805-.009765625 .3899994-.009765625 .4079895 .009231567 .4079895 .02619934 .4079895 .031188965 .4079895 .033187868 .40098573 .048171998 .37399293 .11706543 .37399293 .20292664 .37399293 .20991516 .37399293 .21591187 .37399293 .28678895 .394989 .3766632H.5069885C.519989 .3766632 .5529938 .3766632 .5529938 .4086609 .5529938 .43066407 .5339966 .43066407 .5159912 .43066407H.18699646C.1639862 .43066407 .12998963 .43066407 .083999637 .38165284 .057998659 .35269166 .025985718 .29977418 .025985718 .29377748 .025985718 .28779603 .0309906 .28579713 .036987306 .28579713 .04399109 .28579713 .04499817 .28878785 .049987794 .29478456 .101989749 .3766632 .1539917 .3766632 .1789856 .3766632H.23599243C.21398926 .30177308 .18899536 .21490479 .10699463 .04017639 .09899902 .02420044 .09899902 .022216797 .09899902 .016220093 .09899902-.004776001 .116989139-.009765625 .12599182-.009765625 .15499878-.009765625 .16299439 .016220093 .1749878 .058151246 .19099427 .109069827 .19099427 .111068729 .20098877 .15100098L.25898744 .3766632Z"/>
<path id="font_3_1" d="M.30599977-.2440033C.30599977-.24301148 .30599977-.24101258 .30299378-.23800659 .25698854-.19100952 .13398743-.06300354 .13398743 .24899292 .13398743 .56100466 .25498963 .68800356 .3039856 .73802188 .3039856 .7390137 .30599977 .7410126 .30599977 .74401858 .30599977 .7470093 .30299378 .74902346 .29899598 .74902346 .28799439 .74902346 .20298767 .67500308 .1539917 .56500247 .10398865 .45401 .08999634 .3460083 .08999634 .25 .08999634 .17799378 .09700012 .055999757 .15699768-.07299805 .20498657-.17700196 .2869873-.25 .29899598-.25 .3039856-.25 .30599977-.2480011 .30599977-.2440033Z"/>
<path id="font_2_6" d="M.3889923 .40924073C.35798646 .4032135 .34199525 .3812256 .34199525 .3592224 .34199525 .33522035 .36099244 .32722474 .375 .32722474 .40299989 .32722474 .42599488 .35121156 .42599488 .3812256 .42599488 .41329957 .394989 .44140626 .34498597 .44140626 .30499269 .44140626 .25898744 .42340089 .21699524 .36221314 .20999146 .41532899 .16999817 .44140626 .12998963 .44140626 .09098816 .44140626 .070999149 .41127015 .05899048 .3892212 .041992189 .3532257 .026992798 .2932129 .026992798 .28822328 .026992798 .28422547 .0309906 .27922059 .037994386 .27922059 .04598999 .27922059 .04699707 .2802124 .052993776 .30322267 .067993167 .3632202 .08699036 .42140199 .1269989 .42140199 .15098572 .42140199 .1579895 .40422059 .1579895 .37521363 .1579895 .3532257 .147995 .31422425 .14099121 .28321839L.11299133 .17521668C.10899353 .15621948 .09799194 .11122131 .09298706 .0932312 .085998538 .067230228 .07499695 .020233155 .07499695 .0152282719 .07499695 .0012207031 .085998538-.009765625 .100997928-.009765625 .11199951-.009765625 .1309967-.0027770997 .13699341 .017227173 .13999939 .025222779 .1769867 .17622376 .18299866 .19921875 .18798828 .22122193 .19400025 .24221802 .19898987 .2642212 .20298767 .2782135 .20698548 .29421998 .20999146 .30722047 .21299744 .31622315 .23999024 .36521913 .2649994 .3872223 .2769928 .39822389 .30299378 .42140199 .34399415 .42140199 .3600006 .42140199 .37599183 .41836549 .3889923 .40924073Z"/>
<path id="font_3_2" d="M.3769989 .2315979H.6419983C.6559906 .2315979 .6729889 .2315979 .6729889 .24859619 .6729889 .26660157 .6569977 .26660157 .6419983 .26660157H.3769989V.5319519C.3769989 .5459595 .3769989 .56295779 .3600006 .56295779 .34199525 .56295779 .34199525 .54696658 .34199525 .5319519V.26660157H.07699585C.06298828 .26660157 .04598999 .26660157 .04598999 .24958802 .04598999 .2315979 .06199646 .2315979 .07699585 .2315979H.34199525V-.032989503C.34199525-.04698181 .34199525-.0639801 .35899354-.0639801 .3769989-.0639801 .3769989-.047973634 .3769989-.032989503V.2315979Z"/>
<path id="font_4_1" d="M.3889923-.8549652 .21299744-.4659729C.20599365-.44996644 .20098877-.44996644 .19799805-.44996644 .19699097-.44996644 .19198609-.44996644 .18099976-.45796205L.085998538-.52996829C.07299805-.53996279 .07299805-.54296877 .07299805-.54597476 .07299805-.55096438 .07598877-.55696108 .08299255-.55696108 .08898926-.55696108 .10598755-.54296877 .116989139-.53497317 .12298584-.52996829 .13798523-.5189667 .14898682-.51097109L.34599305-.9439697C.35299684-.95996096 .35798646-.95996096 .36698915-.95996096 .38198854-.95996096 .3849945-.95396426 .3919983-.9399719L.84599307 .000030517579C.8529968 .014038086 .8529968 .018035889 .8529968 .02003479 .8529968 .030029297 .8450012 .040039064 .83299258 .040039064 .82499697 .040039064 .81799319 .03503418 .80999758 .01902771L.3889923-.8549652Z"/>
<path id="font_5_1" d="M.43998719 .16790772H.41799928C.4149933 .15092469 .40699769 .09597778 .39698792 .07998657 .3899994 .070999149 .33299256 .070999149 .30299378 .070999149H.117996219C.14498902 .09397888 .20599365 .15792847 .23199463 .18190003 .38398744 .3217926 .43998719 .37374879 .43998719 .47270204 .43998719 .5878906 .34899903 .66503909 .23298645 .66503909 .116989139 .66503909 .04899597 .5658264 .04899597 .4797058 .04899597 .42871095 .09298706 .42871095 .09599304 .42871095 .116989139 .42871095 .14299011 .44371034 .14299011 .475708 .14299011 .5037079 .12399292 .5227051 .09599304 .5227051 .08699036 .5227051 .084991458 .5227051 .08198547 .521698 .100997928 .5899048 .15499878 .6360321 .21998596 .6360321 .30499269 .6360321 .35699464 .56481936 .35699464 .47270204 .35699464 .3877411 .30799867 .313797 .25099183 .24984741L.04899597 .023986817V0H.4139862L.43998719 .16790772Z"/>
<path id="font_2_5" d="M.2809906 .6693268C.28199769 .6733246 .28399659 .6793213 .28399659 .6843262 .28399659 .69433596 .27398683 .69433596 .27198792 .69433596 .2709961 .69433596 .22200012 .6903229 .21699524 .68933108 .19999695 .688324 .18499756 .6863251 .16699219 .68533328 .14199829 .68333438 .1349945 .6823273 .1349945 .6643219 .1349945 .6543274 .14299011 .6543274 .15699768 .6543274 .20599365 .6543274 .20698548 .6453247 .20698548 .6353302 .20698548 .6293335 .20498657 .6213379 .20399475 .61834719L.05899048 .039245607C.054992677 .024230957 .054992677 .022232056 .054992677 .016235352 .054992677-.0057678224 .07199097-.009765625 .08198547-.009765625 .09899902-.009765625 .11199951 .0032196046 .116989139 .014221191L.1619873 .19529724C.16699219 .21731568 .17298889 .23832703 .17799378 .2603302 .18899536 .3023529 .18899536 .30334474 .20799256 .33236695 .22698975 .3613739 .27198792 .42140199 .34899903 .42140199 .3889923 .42140199 .40299989 .39138795 .40299989 .35136415 .40299989 .29534913 .3639984 .18629456 .34199525 .12628174 .33299256 .102264408 .32798768 .089263919 .32798768 .071258548 .32798768 .026229859 .35899354-.009765625 .40699769-.009765625 .5-.009765625 .5349884 .13728333 .5349884 .14328003 .5349884 .14828491 .5309906 .15228272 .5249939 .15228272 .5159912 .15228272 .5149994 .14929199 .5099945 .13227844 .4869995 .052246095 .44999696 .010223389 .4099884 .010223389 .3999939 .010223389 .38398744 .011230469 .38398744 .04324341 .38398744 .069244388 .3959961 .101257327 .3999939 .11227417 .41799928 .16029358 .46299745 .27833558 .46299745 .33636476 .46299745 .39639283 .42799378 .44140626 .35198976 .44140626 .29499818 .44140626 .24499512 .4143982 .20399475 .36238099L.2809906 .6693268Z"/>
</defs>
<path transform="matrix(1.00003,0,0,-1,58.7912,115.227)" d="M28.3468 85.04042C28.3468 100.69614 15.6557 113.38724 0 113.38724-15.6557 113.38724-28.3468 100.69614-28.3468 85.04042-28.3468 69.3847-15.6557 56.69362 0 56.69362 15.6557 56.69362 28.3468 69.3847 28.3468 85.04042ZM0 85.04042" fill="#ff8c00"/>
<path transform="matrix(1.00003,0,0,-1,58.7912,115.227)" d="M-56.69362 0C-56.69362 31.31142-31.31142 56.69362 0 56.69362 31.31142 56.69362 56.69362 31.31142 56.69362 0Z" fill="#87cefa"/>
<path transform="matrix(1.00003,0,0,-1,58.7912,115.227)" stroke-width=".3985" stroke-linecap="butt" stroke-miterlimit="10" stroke-linejoin="miter" fill="none" stroke="#000000" d="M-56.69362 0C-56.69362 31.31142-31.31142 56.69362 0 56.69362 31.31142 56.69362 56.69362 31.31142 56.69362 0"/>
<path transform="matrix(1.00003,0,0,-1,58.7912,115.227)" stroke-width=".3985" stroke-linecap="butt" stroke-dasharray="2.98883,2.98883" stroke-miterlimit="10" stroke-linejoin="miter" fill="none" stroke="#000000" d="M0 85.04042H28.3468"/>
<use data-text="r" xlink:href="#font_1_3" transform="matrix(8.966669,0,0,-8.9664,70.75756,26.667)"/>
<path transform="matrix(1.00003,0,0,-1,58.7912,115.227)" stroke-width=".3985" stroke-linecap="butt" stroke-miterlimit="10" stroke-linejoin="miter" fill="none" stroke="#000000" d="M-56.2951 0H56.2951"/>
<path transform="matrix(-1.00003,-0,0,1,2.2951508,115.227)" stroke-width=".3985" stroke-linecap="round" stroke-linejoin="round" fill="none" stroke="#000000" d="M-2.07224 2.39104C-1.69365 .95639-.84999 .27895 0 0-.84999-.27895-1.69365-.95639-2.07224-2.39104"/>
<path transform="matrix(1.00003,0,0,-1,115.28725,115.227)" stroke-width=".3985" stroke-linecap="round" stroke-linejoin="round" fill="none" stroke="#000000" d="M-2.07224 2.39104C-1.69365 .95639-.84999 .27895 0 0-.84999-.27895-1.69365-.95639-2.07224-2.39104"/>
<use data-text="&#x2113;" xlink:href="#font_1_1" transform="matrix(8.966669,0,0,-8.9664,56.888139,124.974)"/>
<path transform="matrix(1.00003,0,0,-1,58.7912,115.227)" stroke-width=".3985" stroke-linecap="butt" stroke-miterlimit="10" stroke-linejoin="miter" fill="none" stroke="#000000" d="M-56.69362-8.50412-6.06233-.06549"/>
<path transform="matrix(.9863696,-.16438,-.16438493,-.98634,52.925226,115.25973)" stroke-width=".3985" stroke-linecap="round" stroke-linejoin="round" fill="none" stroke="#000000" d="M-2.07224 2.39104C-1.69365 .95639-.84999 .27895 0 0-.84999-.27895-1.69365-.95639-2.07224-2.39104"/>
<path transform="matrix(1.00003,0,0,-1,58.7912,115.227)" stroke-width=".3985" stroke-linecap="butt" stroke-miterlimit="10" stroke-linejoin="miter" fill="none" stroke="#000000" d="M56.69362-8.50412 6.06233-.06549"/>
<path transform="matrix(-.9863696,-.16438,-.16438493,.98634,64.65717,115.25973)" stroke-width=".3985" stroke-linecap="round" stroke-linejoin="round" fill="none" stroke="#000000" d="M-2.07224 2.39104C-1.69365 .95639-.84999 .27895 0 0-.84999-.27895-1.69365-.95639-2.07224-2.39104"/>
<path transform="matrix(1.00003,0,0,-1,58.7912,115.227)" d="M175.75012 56.69362C175.75012 62.9558 160.52085 68.03217 141.73404 68.03217 122.94724 68.03217 107.71796 62.9558 107.71796 56.69362 107.71796 50.43143 122.94724 45.35507 141.73404 45.35507 160.52085 45.35507 175.75012 50.43143 175.75012 56.69362ZM141.73404 56.69362" fill="#ff8c00"/>
<path transform="matrix(1.00003,0,0,-1,58.7912,115.227)" d="M175.75012 45.35506 141.73404 0 107.71794 45.35506Z" fill="#87cefa"/>
<path transform="matrix(1.00003,0,0,-1,58.7912,115.227)" stroke-width=".3985" stroke-linecap="butt" stroke-dasharray="2.98883,2.98883" stroke-miterlimit="10" stroke-linejoin="miter" fill="none" stroke="#000000" d="M141.73404 0V56.69362"/>
<use data-text="h" xlink:href="#font_1_2" transform="matrix(8.966669,0,0,-8.9664,204.04956,89.993999)"/>
<path transform="matrix(1.00003,0,0,-1,58.7912,115.227)" stroke-width=".3985" stroke-linecap="butt" stroke-dasharray="2.98883,2.98883" stroke-miterlimit="10" stroke-linejoin="miter" fill="none" stroke="#000000" d="M141.73404 56.69362 175.75012 45.35506"/>
<use data-text="r" xlink:href="#font_1_3" transform="matrix(8.966669,0,0,-8.9664,215.3309,60.683)"/>
<path transform="matrix(1.00003,0,0,-1,58.7912,115.227)" stroke-width=".3985" stroke-linecap="butt" stroke-miterlimit="10" stroke-linejoin="miter" fill="none" stroke="#000000" d="M107.95705 45.03627 141.49495 .31877"/>
<path transform="matrix(-.600008,-.79997,-.799994,.59999,166.63195,70.03134)" stroke-width=".3985" stroke-linecap="round" stroke-linejoin="round" fill="none" stroke="#000000" d="M-2.07224 2.39104C-1.69365 .95639-.84999 .27895 0 0-.84999-.27895-1.69365-.95639-2.07224-2.39104"/>
<path transform="matrix(.600008,.79997,.799994,-.59999,200.40995,115.06762)" stroke-width=".3985" stroke-linecap="round" stroke-linejoin="round" fill="none" stroke="#000000" d="M-2.07224 2.39104C-1.69365 .95639-.84999 .27895 0 0-.84999-.27895-1.69365-.95639-2.07224-2.39104"/>
<use data-text="&#x2113;" xlink:href="#font_1_1" transform="matrix(8.966669,0,0,-8.9664,176.19573,95.662998)"/>
<use data-text="S" xlink:href="#font_2_4" transform="matrix(20.66312,0,0,-20.6625,204.04956,22.958)"/>
<use data-text="." xlink:href="#font_2_2" transform="matrix(20.66312,0,0,-20.6625,216.55075,22.958)"/>
<use data-text="A" xlink:href="#font_2_3" transform="matrix(20.66312,0,0,-20.6625,222.15045,22.958)"/>
<use data-text="=" xlink:href="#font_3_3" transform="matrix(20.66312,0,0,-20.6625,243.09874,22.958)"/>
<use data-text="&#x03c0;" xlink:href="#font_2_1" transform="matrix(20.66312,0,0,-20.6625,263.71238,22.958)"/>
<use data-text="(" xlink:href="#font_3_1" transform="matrix(20.66312,0,0,-20.6625,275.93074,22.958)"/>
<use data-text="r" xlink:href="#font_2_6" transform="matrix(20.66312,0,0,-20.6625,283.24797,22.958)"/>
<use data-text="+" xlink:href="#font_3_2" transform="matrix(20.66312,0,0,-20.6625,297.5204,22.958)"/>
<use data-text="&#x221a;" xlink:href="#font_4_1" transform="matrix(20.66312,0,0,-20.6625,316.98597,5.5719988)"/>
<path transform="matrix(1.00003,0,0,-1,64.25636,-77.269)" stroke-width=".8265" stroke-linecap="butt" stroke-miterlimit="10" stroke-linejoin="miter" fill="none" stroke="#000000" d="M269.941-82.428H330.367"/>
<use data-text="r" xlink:href="#font_2_6" transform="matrix(20.66312,0,0,-20.6625,334.2055,22.958)"/>
<use data-text="2" xlink:href="#font_5_1" transform="matrix(14.346631,0,0,-14.3462,343.88478,16.987999)"/>
<use data-text="+" xlink:href="#font_3_2" transform="matrix(20.66312,0,0,-20.6625,355.9981,22.958)"/>
<use data-text="h" xlink:href="#font_2_5" transform="matrix(20.66312,0,0,-20.6625,375.46473,22.958)"/>
<use data-text="2" xlink:href="#font_5_1" transform="matrix(14.346631,0,0,-14.3462,387.11109,16.987999)"/>
</svg>
