<svg xmlns="http://www.w3.org/2000/svg" xmlns:xlink="http://www.w3.org/1999/xlink" xmlns:inkscape="http://www.inkscape.org/namespaces/inkscape" version="1.1" width="236" height="127" viewBox="0 0 236 127">
<defs>
<path id="font_1_3" d="M.4039917 .40527345C.37098695 .39926148 .35398866 .3712616 .35398866 .3502655 .35398866 .3312683 .36799623 .31427003 .3929901 .31427003 .41999818 .31427003 .44799806 .337265 .44799806 .37426759 .44799806 .41334535 .4119873 .4423828 .36299134 .4423828 .28799439 .4423828 .24598694 .386261 .23199463 .3672638 .21998596 .42237855 .1749878 .4423828 .13699341 .4423828 .100997928 .4423828 .07798767 .42037965 .06098938 .38526917 .041992189 .34925843 .0289917 .29226686 .0289917 .28826905 .0289917 .27926637 .035995485 .27626039 .042999269 .27626039 .053985597 .27626039 .055999757 .28126527 .06098938 .30126954 .07998657 .38026429 .100997928 .41737367 .1349945 .41737367 .16499329 .41737367 .16499329 .38526917 .16499329 .37026979 .16499329 .34925843 .15699768 .31826783 .15098572 .29226686 .14399719 .26626588 .13398743 .2232666 .12998963 .21125794L.08999634 .04725647C.08299255 .023254395 .08299255 .021255494 .08299255 .018249512 .08299255 .0052490236 .09199524-.0107421879 .11399841-.0107421879 .1459961-.0107421879 .15299988 .01625061 .1599884 .04525757 .17199707 .088256839 .17199707 .09025574 .18199158 .1312561 .21899414 .28126527 .22499085 .30526734 .22698975 .31025697 .23298645 .32226563 .2789917 .41737367 .3619995 .41737367 .3849945 .41737367 .39898683 .40930177 .4039917 .40527345Z"/>
<path id="font_1_1" d="M.09799194 .13923645C.10998535 .04725647 .14698792-.01171875 .21398926-.01171875 .27598573-.01171875 .33599855 .042266847 .37199403 .07525635 .37399293 .07624817 .3769989 .07925415 .3769989 .085250858 .3769989 .09124756 .36999513 .099243167 .36299134 .099243167 .35899354 .099243167 .35699464 .099243167 .34799195 .09025574 .28399659 .030273438 .24899292 .0132751469 .21598816 .0132751469 .20199585 .0132751469 .17999268 .0132751469 .16499329 .057266237 .1599884 .07325745 .1539917 .10824585 .1539917 .14422608 .1539917 .16023255 .1539917 .18022156 .1579895 .19621277 .1579895 .19721985 .1579895 .19921875 .17799378 .21821594 .22200012 .26319886 .2789917 .32817079 .31900025 .38916017 .397995 .5081177 .40499879 .5970917 .40499879 .6260834 .40499879 .66007998 .394989 .7050781 .34399415 .7050781 .2979889 .7050781 .2639923 .66407778 .25099183 .64707949 .1579895 .5311127 .09399414 .32017518 .09399414 .19221497 .09399414 .18722534 .09399414 .18022156 .09498596 .17422486 .07199097 .15322876 .04899597 .13223267 .026992798 .11024475 .023986817 .10824585 .016998291 .101242069 .01399231 .099243167 .011993408 .09625244 .009994507 .09324646 .009994507 .08924866 .009994507 .085250858 .01399231 .07424927 .022994996 .07424927 .03199768 .07424927 .069992069 .11224365 .08099365 .12423706L.09799194 .13923645M.1639862 .24420166C.17098999 .28419496 .20599365 .43714906 .23899842 .5261078 .25099183 .55810549 .29699708 .68006899 .34498597 .68006899 .37298585 .68006899 .37799073 .654068 .37799073 .62908938 .37799073 .61408999 .37399293 .55010989 .33399964 .46813966 .27598573 .35217286 .16499329 .24420166 .1639862 .24420166Z"/>
<path id="font_1_2" d="M.2869873 .6603241C.29100038 .67433169 .29100038 .67633059 .29100038 .68032839 .29100038 .68933108 .2849884 .69433596 .27598573 .69433596 .2619934 .69433596 .17399597 .6863251 .1539917 .6843262 .14399719 .68333438 .1329956 .6823273 .1329956 .665329 .1329956 .6523285 .14399719 .6523285 .1599884 .6523285 .20698548 .6523285 .20698548 .6453247 .20698548 .6363373 .20698548 .6323395 .20698548 .6303406 .20199585 .6123352L.05899048 .037261964C.054992677 .023254395 .054992677 .021255494 .054992677 .018249512 .054992677 .002243042 .067993167-.0107421879 .085998538-.0107421879 .102996829-.0107421879 .116989139-.00074768069 .12399292 .013244629 .12599182 .018249512 .1349945 .054260255 .13999939 .07527161L.16299439 .16429138C.1659851 .17930603 .17599488 .21731568 .1789856 .23231507L.19099427 .27633668C.19599915 .29934693 .25299073 .41737367 .36099244 .41737367 .4149933 .41737367 .4149933 .36436463 .4149933 .34735108 .4149933 .28633119 .36799623 .16429138 .35699464 .13328552 .34498597 .10227966 .34098817 .0922699 .34098817 .073272708 .34098817 .019256592 .38198854-.0107421879 .4269867-.0107421879 .522995-.0107421879 .56199648 .1322937 .56199648 .14329529 .56199648 .14828491 .5589905 .1552887 .548996 .1552887 .5379944 .1552887 .5369873 .15029907 .5329895 .13728333 .5079956 .052261354 .46598817 .014251709 .42999269 .014251709 .4229889 .014251709 .40499879 .014251709 .40499879 .04626465 .40499879 .0712738 .4149933 .09727478 .4229889 .119277957 .44299317 .17030335 .48298646 .27633668 .48298646 .33235169 .48298646 .42137147 .4169922 .4423828 .3639984 .4423828 .3039856 .4423828 .25299073 .41438294 .21299744 .36535646L.2869873 .6603241Z"/>
</defs>
<path transform="matrix(1.00005,0,0,-1.00003,58.791994,114.989978)" d="M28.3468 85.04042C28.3468 100.69614 15.6557 113.38724 0 113.38724-15.6557 113.38724-28.3468 100.69614-28.3468 85.04042-28.3468 69.3847-15.6557 56.69362 0 56.69362 15.6557 56.69362 28.3468 69.3847 28.3468 85.04042ZM0 85.04042" fill="#ff8c00"/>
<path transform="matrix(1.00005,0,0,-1.00003,58.791994,114.989978)" d="M-56.69362 0C-56.69362 31.31142-31.31142 56.69362 0 56.69362 31.31142 56.69362 56.69362 31.31142 56.69362 0Z" fill="#87cefa"/>
<path transform="matrix(1.00005,0,0,-1.00003,58.791994,114.989978)" stroke-width=".3985" stroke-linecap="butt" stroke-miterlimit="10" stroke-linejoin="miter" fill="none" stroke="#000000" d="M-56.69362 0C-56.69362 31.31142-31.31142 56.69362 0 56.69362 31.31142 56.69362 56.69362 31.31142 56.69362 0"/>
<path transform="matrix(1.00005,0,0,-1.00003,58.791994,114.989978)" stroke-width=".3985" stroke-linecap="butt" stroke-dasharray="2.98883,2.98883" stroke-miterlimit="10" stroke-linejoin="miter" fill="none" stroke="#000000" d="M0 85.04042H28.3468"/>
<use data-text="r" xlink:href="#font_1_3" transform="matrix(8.966848,0,0,-8.966669,70.75859,26.427315)"/>
<path transform="matrix(1.00005,0,0,-1.00003,58.791994,114.989978)" stroke-width=".3985" stroke-linecap="butt" stroke-miterlimit="10" stroke-linejoin="miter" fill="none" stroke="#000000" d="M-56.2951 0H56.2951"/>
<path transform="matrix(-1.00005,-0,0,1.00003,2.2948189,114.989978)" stroke-width=".3985" stroke-linecap="round" stroke-linejoin="round" fill="none" stroke="#000000" d="M-2.07224 2.39104C-1.69365 .95639-.84999 .27895 0 0-.84999-.27895-1.69365-.95639-2.07224-2.39104"/>
<path transform="matrix(1.00005,0,0,-1.00003,115.28917,114.989978)" stroke-width=".3985" stroke-linecap="round" stroke-linejoin="round" fill="none" stroke="#000000" d="M-2.07224 2.39104C-1.69365 .95639-.84999 .27895 0 0-.84999-.27895-1.69365-.95639-2.07224-2.39104"/>
<use data-text="&#x2113;" xlink:href="#font_1_1" transform="matrix(8.966848,0,0,-8.966669,56.8889,124.73727)"/>
<path transform="matrix(1.00005,0,0,-1.00003,58.791994,114.989978)" stroke-width=".3985" stroke-linecap="butt" stroke-miterlimit="10" stroke-linejoin="miter" fill="none" stroke="#000000" d="M-56.69362-8.50412-6.06233-.06549"/>
<path transform="matrix(.9863893,-.16438493,-.16438821,-.9863696,52.9259,115.022708)" stroke-width=".3985" stroke-linecap="round" stroke-linejoin="round" fill="none" stroke="#000000" d="M-2.07224 2.39104C-1.69365 .95639-.84999 .27895 0 0-.84999-.27895-1.69365-.95639-2.07224-2.39104"/>
<path transform="matrix(1.00005,0,0,-1.00003,58.791994,114.989978)" stroke-width=".3985" stroke-linecap="butt" stroke-miterlimit="10" stroke-linejoin="miter" fill="none" stroke="#000000" d="M56.69362-8.50412 6.06233-.06549"/>
<path transform="matrix(-.9863893,-.16438493,-.16438821,.9863696,64.65808,115.022708)" stroke-width=".3985" stroke-linecap="round" stroke-linejoin="round" fill="none" stroke="#000000" d="M-2.07224 2.39104C-1.69365 .95639-.84999 .27895 0 0-.84999-.27895-1.69365-.95639-2.07224-2.39104"/>
<path transform="matrix(1.00005,0,0,-1.00003,58.791994,114.989978)" d="M175.75012 56.69362C175.75012 62.9558 160.52085 68.03217 141.73404 68.03217 122.94724 68.03217 107.71796 62.9558 107.71796 56.69362 107.71796 50.43143 122.94724 45.35507 141.73404 45.35507 160.52085 45.35507 175.75012 50.43143 175.75012 56.69362ZM141.73404 56.69362" fill="#ff8c00"/>
<path transform="matrix(1.00005,0,0,-1.00003,58.791994,114.989978)" d="M175.75012 45.35506 141.73404 0 107.71794 45.35506Z" fill="#87cefa"/>
<path transform="matrix(1.00005,0,0,-1.00003,58.791994,114.989978)" stroke-width=".3985" stroke-linecap="butt" stroke-dasharray="2.98883,2.98883" stroke-miterlimit="10" stroke-linejoin="miter" fill="none" stroke="#000000" d="M141.73404 0V56.69362"/>
<use data-text="h" xlink:href="#font_1_2" transform="matrix(8.966848,0,0,-8.966669,204.05324,89.75622)"/>
<path transform="matrix(1.00005,0,0,-1.00003,58.791994,114.989978)" stroke-width=".3985" stroke-linecap="butt" stroke-dasharray="2.98883,2.98883" stroke-miterlimit="10" stroke-linejoin="miter" fill="none" stroke="#000000" d="M141.73404 56.69362 175.75012 45.35506"/>
<use data-text="r" xlink:href="#font_1_3" transform="matrix(8.966848,0,0,-8.966669,215.33481,60.444337)"/>
<path transform="matrix(1.00005,0,0,-1.00003,58.791994,114.989978)" stroke-width=".3985" stroke-linecap="butt" stroke-miterlimit="10" stroke-linejoin="miter" fill="none" stroke="#000000" d="M107.95705 45.03627 141.49495 .31877"/>
<path transform="matrix(-.60002,-.799994,-.8000099,.600008,166.63489,69.79295)" stroke-width=".3985" stroke-linecap="round" stroke-linejoin="round" fill="none" stroke="#000000" d="M-2.07224 2.39104C-1.69365 .95639-.84999 .27895 0 0-.84999-.27895-1.69365-.95639-2.07224-2.39104"/>
<path transform="matrix(.60002,.799994,.8000099,-.600008,200.41356,114.83059)" stroke-width=".3985" stroke-linecap="round" stroke-linejoin="round" fill="none" stroke="#000000" d="M-2.07224 2.39104C-1.69365 .95639-.84999 .27895 0 0-.84999-.27895-1.69365-.95639-2.07224-2.39104"/>
<use data-text="&#x2113;" xlink:href="#font_1_1" transform="matrix(8.966848,0,0,-8.966669,176.19886,95.425388)"/>
</svg>
