<svg xmlns="http://www.w3.org/2000/svg" xmlns:xlink="http://www.w3.org/1999/xlink" xmlns:inkscape="http://www.inkscape.org/namespaces/inkscape" version="1.1" width="58" height="43" viewBox="0 0 58 43">
<path transform="matrix(1.00002,0,0,-1.00009,13.207886,30.348292)" d="M0 0H42.5202V28.3468H0Z" fill="#ffb3b3"/>
<path transform="matrix(1.00002,0,0,-1.00009,13.207886,30.348292)" d="M0 0H42.5202V28.3468H0Z" fill="#d9d9d9"/>
<path transform="matrix(1.00002,0,0,-1.00009,13.207886,30.348292)" stroke-width=".79701" stroke-linecap="butt" stroke-miterlimit="10" stroke-linejoin="miter" fill="none" stroke="#000000" d="M0 0H42.5202V28.3468H0Z"/>
<path transform="matrix(1.00002,0,0,-1.00009,13.207886,30.348292)" stroke-width=".79701" stroke-linecap="butt" stroke-miterlimit="10" stroke-linejoin="miter" fill="none" stroke="#000000" d="M-10.91336-10.91336H31.60684V17.43344H-10.91336Z"/>
<path transform="matrix(1.00002,0,0,-1.00009,13.207886,30.348292)" stroke-width=".79701" stroke-linecap="butt" stroke-miterlimit="10" stroke-linejoin="miter" fill="none" stroke="#000000" d="M42.5202 0 31.60684-10.91336"/>
<path transform="matrix(1.00002,0,0,-1.00009,13.207886,30.348292)" stroke-width=".79701" stroke-linecap="butt" stroke-miterlimit="10" stroke-linejoin="miter" fill="none" stroke="#000000" d="M0 28.3468-10.91336 17.43344"/>
<path transform="matrix(1.00002,0,0,-1.00009,13.207886,30.348292)" stroke-width=".79701" stroke-linecap="butt" stroke-miterlimit="10" stroke-linejoin="miter" fill="none" stroke="#000000" d="M42.5202 28.3468 31.60684 17.43344"/>
<path transform="matrix(1.00002,0,0,-1.00009,13.207886,30.348292)" stroke-width=".3985" stroke-linecap="butt" stroke-dasharray="2.98883,2.98883" stroke-miterlimit="10" stroke-linejoin="miter" fill="none" stroke="#000000" d="M0 0-10.91336-10.91336"/>
<path transform="matrix(1.00002,0,0,-1.00009,13.207886,30.348292)" stroke-width=".3985" stroke-linecap="butt" stroke-dasharray="2.98883,2.98883" stroke-miterlimit="10" stroke-linejoin="miter" fill="none" stroke="#000000" d="M-10.91336-10.91336V17.43344"/>
<path transform="matrix(1.00002,0,0,-1.00009,13.207886,30.348292)" stroke-width=".3985" stroke-linecap="butt" stroke-dasharray="2.98883,2.98883" stroke-miterlimit="10" stroke-linejoin="miter" fill="none" stroke="#000000" d="M-10.91336 17.43344H31.60684"/>
</svg>
