<svg xmlns="http://www.w3.org/2000/svg" xmlns:xlink="http://www.w3.org/1999/xlink" xmlns:inkscape="http://www.inkscape.org/namespaces/inkscape" version="1.1" width="327" height="172" viewBox="0 0 327 172">
<defs>
<path id="font_1_107" d="M.5049896 .21514893H.46299745C.45999146 .19412232 .45298768 .13502503 .43798829 .125 .42999269 .117996219 .35198976 .117996219 .33699037 .117996219H.18199158L.32598878 .23718262C.43699647 .3203125 .5049896 .37139894 .5049896 .46749879 .5049896 .5853729 .397995 .65625 .2659912 .65625 .15299988 .65625 .055999757 .5923462 .055999757 .49749757 .055999757 .44448854 .09899902 .42948915 .12199402 .42948915 .15299988 .42948915 .18899536 .45048524 .18899536 .49649049 .18899536 .5384979 .1579895 .559494 .1269989 .5634918 .16699219 .6092682 .21998596 .6132355 .24099732 .6132355 .33299256 .6132355 .3769989 .5384979 .3769989 .4664917 .3769989 .38842774 .32398988 .3163147 .2829895 .27323915L.06599426 .04598999C.055999757 .036987306 .055999757 .034988405 .055999757 .016998291V0H.47599793L.5049896 .21514893Z"/>
<path id="font_1_57" d="M.5299988 0V.042999269H.43299867V.15718079H.5299988V.20019531H.43299867V.62919619C.43299867 .65419009 .43199159 .6582031 .40699769 .6582031 .3889923 .6582031 .3869934 .6582031 .375 .6431885L.0309906 .20019531V.15718079H.31498719V.042999269H.20599365V0C.23498535 .0019989014 .33399964 .0019989014 .36999513 .0019989014 .4039917 .0019989014 .5029907 .0019989014 .5299988 0M.32398988 .20019531H.07699585L.32398988 .5181885V.20019531Z"/>
<path id="font_1_43" d="M.46798707 .117126468C.46798707 .12913513 .45700074 .12913513 .44699098 .12913513 .43099977 .12913513 .42999269 .12812805 .4249878 .11613464 .41799928 .09713745 .3909912 .030136109 .29899598 .030136109 .1579895 .030136109 .1579895 .1821289 .1579895 .22712708 .1579895 .28611756 .15899658 .41711427 .2899933 .41711427 .29699708 .41711427 .35598756 .41511537 .35598756 .41011048 .35598756 .41011048 .35499574 .40811158 .35299684 .40711976 .34999085 .40411378 .33699037 .38911439 .33699037 .36412049 .33699037 .32211305 .37098695 .30511476 .3959961 .30511476 .4169922 .30511476 .45498658 .31811524 .45498658 .3651123 .45498658 .44711305 .33999635 .453125 .28599549 .453125 .10798645 .453125 .037994386 .33711244 .037994386 .22212219 .037994386 .086135867 .1329956-.005859375 .27999879-.005859375 .43699647-.005859375 .46798707 .11012268 .46798707 .117126468Z"/>
<path id="font_1_75" d="M.9129944 0V.042999269H.84399417V.30636598C.84399417 .39823915 .8049927 .4501953 .69299319 .4501953 .59199526 .4501953 .54499819 .38227845 .5289917 .3503723 .5130005 .43518067 .44499208 .4501953 .3809967 .4501953 .2849884 .4501953 .23298645 .38827516 .21199036 .3403778H.21099854V.4501953L.041992189 .4423828V.3993683C.10398865 .3993683 .11099243 .3993683 .11099243 .36035157V.042999269H.041992189V0C.06498718 .0019989014 .13699341 .0019989014 .16499329 .0019989014 .19299317 .0019989014 .2659912 .0019989014 .2889862 0V.042999269H.21998596V.25627137C.21998596 .36532594 .30099488 .41719056 .3639984 .41719056 .40098573 .41719056 .4229889 .3952484 .4229889 .3173828V.042999269H.35398866V0C.3769989 .0019989014 .44898988 .0019989014 .47698976 .0019989014 .5049896 .0019989014 .5779877 .0019989014 .6009979 0V.042999269H.5319977V.25628663C.5319977 .36532594 .61299136 .41719056 .6759949 .41719056 .71299746 .41719056 .7350006 .3952484 .7350006 .3173828V.042999269H.66600039V0C.68899539 .0019989014 .7609863 .0019989014 .78900149 .0019989014 .81700137 .0019989014 .8899994 .0019989014 .9129944 0Z"/>
<path id="font_1_82" d="M.48298646 0V.042999269H.34599305V.6270447C.34599305 .65625 .34399415 .65625 .31199647 .65625 .23799134 .5918274 .1269989 .5918274 .10499573 .5918274H.085998538V.5488281H.10499573C.13999939 .5488281 .19299317 .5548248 .23298645 .5678253V.042999269H.09399414V0L.28799439 .0019989014 .48298646 0Z"/>
<path id="font_1_56" d="M.5049896 .20114136C.5049896 .32315064 .42199708 .41015626 .2849884 .41015626 .24499512 .41015626 .19699097 .4021454 .1539917 .3701477V.51953127C.18798828 .51101687 .21499634 .51101687 .22999573 .51101687 .2539978 .5115204 .31098939 .5115204 .37799073 .55252078 .40899659 .57147219 .46099855 .61634829 .46099855 .6392822 .46099855 .64427188 .46099855 .65625 .44898988 .65625 .44898988 .65625 .44599916 .65625 .43598939 .6512604 .3899994 .6351013 .34098817 .62402346 .2849884 .62402346 .22799683 .62402346 .17999268 .6351013 .1329956 .6522217 .12599182 .65423586 .12298584 .65625 .11999512 .65625 .10798645 .65625 .10798645 .6461792 .10798645 .62905886V.33825685C.10798645 .31932069 .10798645 .3083496 .12799073 .3083496 .13798523 .3083496 .13999939 .3093567 .147995 .31932069 .1599884 .33328248 .19599915 .3771515 .2809906 .3771515 .37298585 .3771515 .37298585 .283432 .37298585 .2046051 .37298585 .13259888 .37298585 .028274537 .25 .028274537 .21299744 .028274537 .1499939 .04234314 .115997318 .099594119 .16899109 .09916687 .18199158 .13916016 .18199158 .16116333 .18199158 .19760132 .1559906 .22460938 .11898804 .22460938 .08898926 .22460938 .055999757 .206604 .055999757 .15960694 .055999757 .07247925 .1349945-.01171875 .2539978-.01171875 .4079895-.01184082 .5049896 .0771637 .5049896 .20117188V.20114136Z"/>
<path id="font_1_34" d="M.7369995 .18492127C.7369995 .2798767 .6539917 .34883119 .5329895 .35783387 .6769867 .38482667 .7049866 .46673585 .7049866 .51368716 .7049866 .60557559 .62098696 .6855469 .46099855 .6855469H.038986207V.64253237H.14498902V.042999269H.038986207V0H.4909973C.6559906 0 .7369995 .088974 .7369995 .18492127M.57299807 .51467898C.57299807 .44476319 .5339966 .37283326 .4169922 .37283326H.2679901V.64253237H.44898988C.5519867 .64253237 .57299807 .564621 .57299807 .51467898M.6009979 .18692017C.6009979 .12394714 .5669861 .042999269 .45199586 .042999269H.2679901V.33984376H.46699525C.58399966 .33984376 .6009979 .23188782 .6009979 .18692017Z"/>
</defs>
<path transform="matrix(1.00005,0,0,-1.00006,2.2951585,157.91352)" stroke-width=".79701" stroke-linecap="butt" stroke-miterlimit="10" stroke-linejoin="miter" fill="none" stroke="#000000" d="M0 0H226.77448V113.38724H0Z"/>
<path transform="matrix(1.00005,0,0,-1.00006,2.2951585,157.91352)" stroke-width=".79701" stroke-linecap="butt" stroke-miterlimit="10" stroke-linejoin="miter" fill="none" stroke="#000000" d="M0 0 42.5202 42.5202"/>
<path transform="matrix(1.00005,0,0,-1.00006,2.2951585,157.91352)" stroke-width=".79701" stroke-linecap="butt" stroke-miterlimit="10" stroke-linejoin="miter" fill="none" stroke="#000000" d="M226.77448 0 269.29469 42.5202"/>
<path transform="matrix(1.00005,0,0,-1.00006,2.2951585,157.91352)" stroke-width=".79701" stroke-linecap="butt" stroke-miterlimit="10" stroke-linejoin="miter" fill="none" stroke="#000000" d="M226.77448 113.38724 269.29469 155.90744"/>
<path transform="matrix(1.00005,0,0,-1.00006,2.2951585,157.91352)" stroke-width=".79701" stroke-linecap="butt" stroke-miterlimit="10" stroke-linejoin="miter" fill="none" stroke="#000000" d="M0 113.38724 42.5202 155.90744"/>
<path transform="matrix(1.00005,0,0,-1.00006,2.2951585,157.91352)" stroke-width=".79701" stroke-linecap="butt" stroke-miterlimit="10" stroke-linejoin="miter" fill="none" stroke="#000000" d="M42.5202 42.5202H269.29469V155.90744H42.5202Z"/>
<path transform="matrix(1.00005,0,0,-1.00006,2.2951585,157.91352)" stroke-width=".79701" stroke-linecap="butt" stroke-dasharray="2.98883,2.98883" stroke-miterlimit="10" stroke-linejoin="miter" fill="none" stroke="#000000" d="M42.5202 42.5202V155.90744"/>
<path transform="matrix(1.00005,0,0,-1.00006,2.2951585,157.91352)" stroke-width=".79701" stroke-linecap="butt" stroke-dasharray="2.98883,2.98883" stroke-miterlimit="10" stroke-linejoin="miter" fill="none" stroke="#000000" d="M269.29469 42.5202V155.90744"/>
<path transform="matrix(1.00005,0,0,-1.00006,2.2951585,157.91352)" d="M134.46924-.19925H92.30522C91.20474-.19925 90.31267-1.09132 90.31267-2.1918V-11.71776C90.31267-12.81822 91.20474-13.71031 92.30522-13.71031H134.46924C135.56972-13.71031 136.46179-12.81822 136.46179-11.71776V-2.1918C136.46179-1.09132 135.56972-.19925 134.46924-.19925ZM90.31267-13.71031" fill="#ffffff"/>
<use data-text="2" xlink:href="#font_1_107" transform="matrix(14.346916,0,0,-14.34706,94.60477,169.5462)"/>
<use data-text="4" xlink:href="#font_1_57" transform="matrix(14.346916,0,0,-14.34706,102.68208,169.5462)"/>
<use data-text="c" xlink:href="#font_1_43" transform="matrix(14.346916,0,0,-14.34706,116.13949,169.5462)"/>
<use data-text="m" xlink:href="#font_1_75" transform="matrix(14.346916,0,0,-14.34706,123.31295,169.5462)"/>
<path transform="matrix(1.00005,0,0,-1.00006,2.2951585,157.91352)" d="M323.7965 91.82466H281.63246C280.532 91.82466 279.63993 90.93257 279.63993 89.8321V80.24875C279.63993 79.14827 280.532 78.2562 281.63246 78.2562H323.7965C324.89698 78.2562 325.78907 79.14827 325.78907 80.24875V89.8321C325.78907 90.93257 324.89698 91.82466 323.7965 91.82466ZM279.63993 78.2562" fill="#ffffff"/>
<use data-text="1" xlink:href="#font_1_82" transform="matrix(14.346916,0,0,-14.34706,283.94123,77.48769)"/>
<use data-text="5" xlink:href="#font_1_56" transform="matrix(14.346916,0,0,-14.34706,292.01853,77.48769)"/>
<use data-text="c" xlink:href="#font_1_43" transform="matrix(14.346916,0,0,-14.34706,305.47596,77.48769)"/>
<use data-text="m" xlink:href="#font_1_75" transform="matrix(14.346916,0,0,-14.34706,312.6494,77.48769)"/>
<path transform="matrix(1.00005,0,0,-1.00006,2.2951585,157.91352)" d="M298.8808 27.85503H256.7168C255.61632 27.85503 254.72425 26.96295 254.72425 25.86247V16.36519C254.72425 15.26472 255.61632 14.37263 256.7168 14.37263H298.8808C299.9813 14.37263 300.87339 15.26472 300.87339 16.36519V25.86247C300.87339 26.96295 299.9813 27.85503 298.8808 27.85503ZM254.72425 14.37263" fill="#ffffff"/>
<use data-text="1" xlink:href="#font_1_82" transform="matrix(14.346916,0,0,-14.34706,259.025,141.46154)"/>
<use data-text="2" xlink:href="#font_1_107" transform="matrix(14.346916,0,0,-14.34706,267.1023,141.46154)"/>
<use data-text="c" xlink:href="#font_1_43" transform="matrix(14.346916,0,0,-14.34706,280.5597,141.46154)"/>
<use data-text="m" xlink:href="#font_1_75" transform="matrix(14.346916,0,0,-14.34706,287.73316,141.46154)"/>
<path transform="matrix(1.00005,0,0,-1.00006,2.2951585,157.91352)" d="M111.19542 84.84117H99.71832C98.61786 84.84117 97.72577 83.94908 97.72577 82.84862V73.007C97.72577 71.90654 98.61786 71.01445 99.71832 71.01445H111.19542C112.2959 71.01445 113.18797 71.90654 113.18797 73.007V82.84862C113.18797 83.94908 112.2959 84.84117 111.19542 84.84117ZM97.72577 71.01445" fill="#ffffff"/>
<use data-text="B" xlink:href="#font_1_34" transform="matrix(14.346916,0,0,-14.34706,102.01814,84.90213)"/>
</svg>
