<svg xmlns="http://www.w3.org/2000/svg" xmlns:xlink="http://www.w3.org/1999/xlink" xmlns:inkscape="http://www.inkscape.org/namespaces/inkscape" version="1.1" width="106" height="77" viewBox="0 0 106 77">
<path transform="matrix(1.00005,0,0,-1.00005,18.665978,58.69413)" stroke-width=".79701" stroke-linecap="butt" stroke-miterlimit="10" stroke-linejoin="miter" fill="none" stroke="#000000" d="M0 0H85.04042V56.69362H0Z"/>
<path transform="matrix(1.00005,0,0,-1.00005,18.665978,58.69413)" stroke-width=".79701" stroke-linecap="butt" stroke-miterlimit="10" stroke-linejoin="miter" fill="none" stroke="#000000" d="M0 0H85.04042V56.69362H0Z"/>
<path transform="matrix(1.00005,0,0,-1.00005,18.665978,58.69413)" stroke-width=".79701" stroke-linecap="butt" stroke-miterlimit="10" stroke-linejoin="miter" fill="none" stroke="#000000" d="M-16.37003-16.37003H68.67038V40.32358H-16.37003Z"/>
<path transform="matrix(1.00005,0,0,-1.00005,18.665978,58.69413)" stroke-width=".79701" stroke-linecap="butt" stroke-miterlimit="10" stroke-linejoin="miter" fill="none" stroke="#000000" d="M85.04042 0 68.67038-16.37003"/>
<path transform="matrix(1.00005,0,0,-1.00005,18.665978,58.69413)" stroke-width=".79701" stroke-linecap="butt" stroke-miterlimit="10" stroke-linejoin="miter" fill="none" stroke="#000000" d="M0 56.69362-16.37003 40.32358"/>
<path transform="matrix(1.00005,0,0,-1.00005,18.665978,58.69413)" stroke-width=".79701" stroke-linecap="butt" stroke-miterlimit="10" stroke-linejoin="miter" fill="none" stroke="#000000" d="M85.04042 56.69362 68.67038 40.32358"/>
<path transform="matrix(1.00005,0,0,-1.00005,18.665978,58.69413)" stroke-width=".3985" stroke-linecap="butt" stroke-dasharray="2.98883,2.98883" stroke-miterlimit="10" stroke-linejoin="miter" fill="none" stroke="#000000" d="M0 0-16.37003-16.37003"/>
<path transform="matrix(1.00005,0,0,-1.00005,18.665978,58.69413)" stroke-width=".3985" stroke-linecap="butt" stroke-dasharray="2.98883,2.98883" stroke-miterlimit="10" stroke-linejoin="miter" fill="none" stroke="#000000" d="M-16.37003-16.37003V40.32358"/>
<path transform="matrix(1.00005,0,0,-1.00005,18.665978,58.69413)" stroke-width=".3985" stroke-linecap="butt" stroke-dasharray="2.98883,2.98883" stroke-miterlimit="10" stroke-linejoin="miter" fill="none" stroke="#000000" d="M-16.37003 40.32358H68.67038"/>
</svg>
