<svg xmlns="http://www.w3.org/2000/svg" xmlns:xlink="http://www.w3.org/1999/xlink" xmlns:inkscape="http://www.inkscape.org/namespaces/inkscape" version="1.1" width="313" height="172" viewBox="0 0 313 172">
<defs>
<path id="font_1_51" d="M.5139923 .18426514C.5139923 .29325868 .42799378 .34025575 .3769989 .36825563 .4269867 .3942566 .48298646 .4312439 .48298646 .5092468 .48298646 .61224368 .3909912 .65625 .28199769 .65625 .14898682 .65625 .07798767 .580246 .07798767 .48324586 .07798767 .429245 .10499573 .36924745 .1789856 .33026124 .06599426 .28025819 .04699707 .21125794 .04699707 .15927124 .04699707 .044265748 .14698792-.01171875 .2789917-.01171875 .4269867-.01171875 .5139923 .06826782 .5139923 .18426514M.4119873 .5092468C.4119873 .46824647 .3939972 .4252472 .33699037 .3922577L.19699097 .47125245C.1769867 .48225404 .14898682 .505249 .14898682 .5382385 .14898682 .61824038 .2559967 .62023928 .2789917 .62023928 .3639984 .62023928 .4119873 .5752411 .4119873 .5092468M.43399049 .13327027C.43399049 .053268434 .35398866 .028274537 .28199769 .028274537 .18299866 .028274537 .1269989 .08126831 .1269989 .16026306 .1269989 .23326111 .17199707 .27926637 .21998596 .30625917L.35798646 .2272644C.3909912 .20826721 .43399049 .18426514 .43399049 .13327027Z"/>
<path id="font_1_43" d="M.46798707 .117126468C.46798707 .12913513 .45700074 .12913513 .44699098 .12913513 .43099977 .12913513 .42999269 .12812805 .4249878 .11613464 .41799928 .09713745 .3909912 .030136109 .29899598 .030136109 .1579895 .030136109 .1579895 .1821289 .1579895 .22712708 .1579895 .28611756 .15899658 .41711427 .2899933 .41711427 .29699708 .41711427 .35598756 .41511537 .35598756 .41011048 .35598756 .41011048 .35499574 .40811158 .35299684 .40711976 .34999085 .40411378 .33699037 .38911439 .33699037 .36412049 .33699037 .32211305 .37098695 .30511476 .3959961 .30511476 .4169922 .30511476 .45498658 .31811524 .45498658 .3651123 .45498658 .44711305 .33999635 .453125 .28599549 .453125 .10798645 .453125 .037994386 .33711244 .037994386 .22212219 .037994386 .086135867 .1329956-.005859375 .27999879-.005859375 .43699647-.005859375 .46798707 .11012268 .46798707 .117126468Z"/>
<path id="font_1_75" d="M.9129944 0V.042999269H.84399417V.30636598C.84399417 .39823915 .8049927 .4501953 .69299319 .4501953 .59199526 .4501953 .54499819 .38227845 .5289917 .3503723 .5130005 .43518067 .44499208 .4501953 .3809967 .4501953 .2849884 .4501953 .23298645 .38827516 .21199036 .3403778H.21099854V.4501953L.041992189 .4423828V.3993683C.10398865 .3993683 .11099243 .3993683 .11099243 .36035157V.042999269H.041992189V0C.06498718 .0019989014 .13699341 .0019989014 .16499329 .0019989014 .19299317 .0019989014 .2659912 .0019989014 .2889862 0V.042999269H.21998596V.25627137C.21998596 .36532594 .30099488 .41719056 .3639984 .41719056 .40098573 .41719056 .4229889 .3952484 .4229889 .3173828V.042999269H.35398866V0C.3769989 .0019989014 .44898988 .0019989014 .47698976 .0019989014 .5049896 .0019989014 .5779877 .0019989014 .6009979 0V.042999269H.5319977V.25628663C.5319977 .36532594 .61299136 .41719056 .6759949 .41719056 .71299746 .41719056 .7350006 .3952484 .7350006 .3173828V.042999269H.66600039V0C.68899539 .0019989014 .7609863 .0019989014 .78900149 .0019989014 .81700137 .0019989014 .8899994 .0019989014 .9129944 0Z"/>
<path id="font_1_56" d="M.5049896 .20114136C.5049896 .32315064 .42199708 .41015626 .2849884 .41015626 .24499512 .41015626 .19699097 .4021454 .1539917 .3701477V.51953127C.18798828 .51101687 .21499634 .51101687 .22999573 .51101687 .2539978 .5115204 .31098939 .5115204 .37799073 .55252078 .40899659 .57147219 .46099855 .61634829 .46099855 .6392822 .46099855 .64427188 .46099855 .65625 .44898988 .65625 .44898988 .65625 .44599916 .65625 .43598939 .6512604 .3899994 .6351013 .34098817 .62402346 .2849884 .62402346 .22799683 .62402346 .17999268 .6351013 .1329956 .6522217 .12599182 .65423586 .12298584 .65625 .11999512 .65625 .10798645 .65625 .10798645 .6461792 .10798645 .62905886V.33825685C.10798645 .31932069 .10798645 .3083496 .12799073 .3083496 .13798523 .3083496 .13999939 .3093567 .147995 .31932069 .1599884 .33328248 .19599915 .3771515 .2809906 .3771515 .37298585 .3771515 .37298585 .283432 .37298585 .2046051 .37298585 .13259888 .37298585 .028274537 .25 .028274537 .21299744 .028274537 .1499939 .04234314 .115997318 .099594119 .16899109 .09916687 .18199158 .13916016 .18199158 .16116333 .18199158 .19760132 .1559906 .22460938 .11898804 .22460938 .08898926 .22460938 .055999757 .206604 .055999757 .15960694 .055999757 .07247925 .1349945-.01171875 .2539978-.01171875 .4079895-.01184082 .5049896 .0771637 .5049896 .20117188V.20114136Z"/>
<path id="font_1_57" d="M.5299988 0V.042999269H.43299867V.15718079H.5299988V.20019531H.43299867V.62919619C.43299867 .65419009 .43199159 .6582031 .40699769 .6582031 .3889923 .6582031 .3869934 .6582031 .375 .6431885L.0309906 .20019531V.15718079H.31498719V.042999269H.20599365V0C.23498535 .0019989014 .33399964 .0019989014 .36999513 .0019989014 .4039917 .0019989014 .5029907 .0019989014 .5299988 0M.32398988 .20019531H.07699585L.32398988 .5181885V.20019531Z"/>
<path id="font_1_27" d="M.80999758 0V.042999269H.71499636L.45799256 .67718508C.45098878 .6951904 .44898988 .7001953 .4249878 .7001953 .3999939 .7001953 .397995 .6951904 .3909912 .67718508L.14299011 .0670166C.13598633 .050994874 .13598633 .04899597 .10798645 .04598999 .08299255 .042999269 .07899475 .042999269 .056991579 .042999269H.038986207V0C.06498718 .0019989014 .125 .0019989014 .1539917 .0019989014 .18099976 .0019989014 .2539978 .0019989014 .2769928 0V.042999269C.25498963 .042999269 .21699524 .042999269 .18899536 .054000856 .19198609 .0630188 .19198609 .0650177 .19400025 .06903076L.24699402 .19917298H.5149994L.5779877 .042999269H.48399354V0C.5159912 .0019989014 .61299136 .0019989014 .651001 .0019989014 .68299868 .0019989014 .7849884 .0019989014 .80999758 0M.49699403 .2421875H.2639923L.3809967 .5301819 .49699403 .2421875Z"/>
</defs>
<path transform="matrix(1.00003,0,0,-1.00003,2.2955018,157.90825)" stroke-width=".79701" stroke-linecap="butt" stroke-miterlimit="10" stroke-linejoin="miter" fill="none" stroke="#000000" d="M0 0H226.77448V113.38724H0Z"/>
<path transform="matrix(1.00003,0,0,-1.00003,2.2955018,157.90825)" stroke-width=".79701" stroke-linecap="butt" stroke-miterlimit="10" stroke-linejoin="miter" fill="none" stroke="#000000" d="M0 0 42.5202 42.5202"/>
<path transform="matrix(1.00003,0,0,-1.00003,2.2955018,157.90825)" stroke-width=".79701" stroke-linecap="butt" stroke-miterlimit="10" stroke-linejoin="miter" fill="none" stroke="#000000" d="M226.77448 0 269.29469 42.5202"/>
<path transform="matrix(1.00003,0,0,-1.00003,2.2955018,157.90825)" stroke-width=".79701" stroke-linecap="butt" stroke-miterlimit="10" stroke-linejoin="miter" fill="none" stroke="#000000" d="M226.77448 113.38724 269.29469 155.90744"/>
<path transform="matrix(1.00003,0,0,-1.00003,2.2955018,157.90825)" stroke-width=".79701" stroke-linecap="butt" stroke-miterlimit="10" stroke-linejoin="miter" fill="none" stroke="#000000" d="M0 113.38724 42.5202 155.90744"/>
<path transform="matrix(1.00003,0,0,-1.00003,2.2955018,157.90825)" stroke-width=".79701" stroke-linecap="butt" stroke-miterlimit="10" stroke-linejoin="miter" fill="none" stroke="#000000" d="M42.5202 42.5202H269.29469V155.90744H42.5202Z"/>
<path transform="matrix(1.00003,0,0,-1.00003,2.2955018,157.90825)" stroke-width=".79701" stroke-linecap="butt" stroke-dasharray="2.98883,2.98883" stroke-miterlimit="10" stroke-linejoin="miter" fill="none" stroke="#000000" d="M42.5202 42.5202V155.90744"/>
<path transform="matrix(1.00003,0,0,-1.00003,2.2955018,157.90825)" stroke-width=".79701" stroke-linecap="butt" stroke-dasharray="2.98883,2.98883" stroke-miterlimit="10" stroke-linejoin="miter" fill="none" stroke="#000000" d="M269.29469 42.5202V155.90744"/>
<path transform="matrix(1.00003,0,0,-1.00003,2.2955018,157.90825)" d="M130.43073-.19925H96.34373C95.24326-.19925 94.35118-1.09132 94.35118-2.1918V-11.77516C94.35118-12.87563 95.24326-13.76772 96.34373-13.76772H130.43073C131.5312-13.76772 132.42328-12.87563 132.42328-11.77516V-2.1918C132.42328-1.09132 131.5312-.19925 130.43073-.19925ZM94.35118-13.76772" fill="#ffffff"/>
<use data-text="8" xlink:href="#font_1_51" transform="matrix(14.346631,0,0,-14.346631,98.642398,169.5116)"/>
<use data-text="c" xlink:href="#font_1_43" transform="matrix(14.346631,0,0,-14.346631,112.09954,169.5116)"/>
<use data-text="m" xlink:href="#font_1_75" transform="matrix(14.346631,0,0,-14.346631,119.27286,169.5116)"/>
<path transform="matrix(1.00003,0,0,-1.00003,2.2955018,157.90825)" d="M309.6231 91.82466H275.5361C274.4356 91.82466 273.54353 90.93257 273.54353 89.8321V80.24875C273.54353 79.14827 274.4356 78.2562 275.5361 78.2562H309.6231C310.72358 78.2562 311.61567 79.14827 311.61567 80.24875V89.8321C311.61567 90.93257 310.72358 91.82466 309.6231 91.82466ZM273.54353 78.2562" fill="#ffffff"/>
<use data-text="5" xlink:href="#font_1_56" transform="matrix(14.346631,0,0,-14.346631,277.83979,77.48483)"/>
<use data-text="c" xlink:href="#font_1_43" transform="matrix(14.346631,0,0,-14.346631,291.29695,77.48483)"/>
<use data-text="m" xlink:href="#font_1_75" transform="matrix(14.346631,0,0,-14.346631,298.47026,77.48483)"/>
<path transform="matrix(1.00003,0,0,-1.00003,2.2955018,157.90825)" d="M294.8423 27.8837H260.7553C259.65483 27.8837 258.76274 26.99162 258.76274 25.89114V16.36519C258.76274 15.26472 259.65483 14.37263 260.7553 14.37263H294.8423C295.94279 14.37263 296.83485 15.26472 296.83485 16.36519V25.89114C296.83485 26.99162 295.94279 27.8837 294.8423 27.8837ZM258.76274 14.37263" fill="#ffffff"/>
<use data-text="4" xlink:href="#font_1_57" transform="matrix(14.346631,0,0,-14.346631,263.05836,141.45676)"/>
<use data-text="c" xlink:href="#font_1_43" transform="matrix(14.346631,0,0,-14.346631,276.5155,141.45676)"/>
<use data-text="m" xlink:href="#font_1_75" transform="matrix(14.346631,0,0,-14.346631,283.6888,141.45676)"/>
<path transform="matrix(1.00003,0,0,-1.00003,2.2955018,157.90825)" d="M111.19542 84.84117H99.001C97.90053 84.84117 97.00845 83.94908 97.00845 82.84862V72.80615C97.00845 71.70569 97.90053 70.8136 99.001 70.8136H111.19542C112.2959 70.8136 113.18797 71.70569 113.18797 72.80615V82.84862C113.18797 83.94908 112.2959 84.84117 111.19542 84.84117ZM97.00845 70.8136" fill="#ffffff"/>
<use data-text="A" xlink:href="#font_1_27" transform="matrix(14.346631,0,0,-14.346631,101.29948,85.10006)"/>
</svg>
