<svg xmlns="http://www.w3.org/2000/svg" xmlns:xlink="http://www.w3.org/1999/xlink" xmlns:inkscape="http://www.inkscape.org/namespaces/inkscape" version="1.1" width="211" height="184" viewBox="0 0 211 184">
<defs>
<path id="font_1_82" d="M.49398805 0V.04699707H.35398866V.6231079C.35398866 .6452179 .35398866 .65527346 .32798768 .65527346 .31698609 .65527346 .31498719 .65527346 .30599977 .6482239 .22898865 .5909424 .12599182 .5909424 .10499573 .5909424H.084991458V.5439453H.10499573C.12098694 .5439453 .17599488 .54493716 .23498535 .5639343V.04699707H.09599304V0C.13999939 .0029907227 .24598694 .0029907227 .29499818 .0029907227 .34399415 .0029907227 .44999696 .0029907227 .49398805 0Z"/>
<path id="font_1_57" d="M.5419922 0V.04699707H.44499208V.15611267H.5419922V.203125H.44499208V.62423709C.44499208 .6512451 .44299317 .65625 .4149933 .65625 .3939972 .65625 .3929901 .6552429 .3809967 .6402283L.03199768 .203125V.15611267H.31999208V.04699707H.20799256V0C.24598694 .0029907227 .33699037 .0029907227 .37998963 .0029907227 .41999818 .0029907227 .5069885 .0029907227 .5419922 0M.33099366 .203125H.083999637L.33099366 .51319888V.203125Z"/>
<path id="font_1_43" d="M.47799684 .117126468C.47799684 .13113404 .46398927 .13113404 .45399476 .13113404 .43598939 .13113404 .43499757 .12913513 .42999269 .11613464 .4039917 .053131105 .35598756 .03413391 .30499269 .03413391 .1659851 .03413391 .1659851 .18112183 .1659851 .22712708 .1659851 .28312684 .1659851 .41311646 .29499818 .41311646 .32998658 .41311646 .34700013 .41011048 .3600006 .40711976 .34199525 .39111329 .33999635 .3701172 .33999635 .3611145 .33999635 .3171234 .375 .29811097 .4019928 .29811097 .43299867 .29811097 .46499635 .3191223 .46499635 .3611145 .46499635 .44711305 .34899903 .453125 .29100038 .453125 .11199951 .45314027 .037994386 .33813478 .037994386 .22213745 .037994386 .08912659 .13198853-.005859375 .28599549-.005859375 .44799806-.005859375 .47799684 .11013794 .47799684 .117126468Z"/>
<path id="font_1_75" d="M.93499758 0V.04699707H.8659973V.30613709C.8659973 .40919496 .8149872 .4501953 .71199038 .4501953 .62098696 .4501953 .56900027 .40019227 .54299929 .3541565 .522995 .44718934 .43099977 .4501953 .3929901 .4501953 .30599977 .4501953 .24899292 .40518189 .21699524 .3421631V.4501953L.04499817 .4423828V.39537049C.10699463 .39537049 .11399841 .39537049 .11399841 .3563385V.04699707H.04499817V0L.17098999 .0029907227 .29699708 0V.04699707H.22799683V.2562256C.22799683 .3653412 .31498719 .41436769 .3769989 .41436769 .41099549 .41436769 .43299867 .39437867 .43299867 .31729127V.04699707H.3639984V0L.48999024 .0029907227 .6159973 0V.04699707H.5469971V.2562256C.5469971 .3653412 .6339874 .41436769 .69599917 .41436769 .7299957 .41436769 .7519989 .39437867 .7519989 .31729127V.04699707H.68299868V0L.8089905 .0029907227 .93499758 0Z"/>
<path id="font_1_121" d="M.5289917 .31939698C.5289917 .41644288 .5279999 .65527346 .2869873 .65527346 .04598999 .65527346 .04499817 .41744996 .04499817 .31939698 .04499817 .22035218 .04598999-.0107421879 .2869873-.0107421879 .5269928-.0107421879 .5289917 .2193451 .5289917 .31939698M.40098573 .33140565C.40098573 .27537538 .40098573 .18432617 .3939972 .13230896 .37998963 .039260866 .31698609 .025253296 .2869873 .025253296 .25099183 .025253296 .19499207 .04725647 .18199158 .12030029 .17298889 .1723175 .17298889 .27638246 .17298889 .33140565 .17298889 .40344239 .17298889 .46847535 .18099976 .5205078 .19299317 .6092987 .2630005 .6192627 .2869873 .6192627 .32398988 .6192627 .36499024 .6003418 .38398744 .5565033 .40098573 .51950076 .40098573 .41345216 .40098573 .33140565Z"/>
</defs>
<path transform="matrix(1.00006,0,0,-1,28.084542,113.916)" d="M0-68.0313H170.07825C176.34044-68.0313 181.4168-37.5731 181.4168 .00002 181.4168 37.57317 176.34044 68.03136 170.07825 68.03136L0 68.0313C-6.26218 68.0313-11.33855 37.5731-11.33855-.00002-11.33855-37.57317-6.26218-68.03136 0-68.03136" fill="#ffbfbf"/>
<path transform="matrix(1.00006,0,0,-1,28.084542,113.916)" d="M0-68.0313C6.26218-68.0313 11.33855-37.5731 11.33855 .00002 11.33855 37.57317 6.26218 68.03136 0 68.03136-6.26218 68.03136-11.33855 37.57317-11.33855 .00002-11.33855-37.5731-6.26218-68.0313 0-68.0313" fill="#ffbfbf"/>
<path transform="matrix(1.00006,0,0,-1,28.084542,113.916)" d="M170.07825-68.0313C176.34044-68.0313 181.4168-37.5731 181.4168 .00002 181.4168 37.57317 176.34044 68.03136 170.07825 68.03136 163.81607 68.03136 158.7397 37.57317 158.7397 .00002 158.7397-37.5731 163.81607-68.0313 170.07825-68.0313" fill="#ffffff"/>
<path transform="matrix(1.00006,0,0,-1,28.084542,113.916)" stroke-width=".79701" stroke-linecap="butt" stroke-miterlimit="10" stroke-linejoin="miter" fill="none" stroke="#ec008c" d="M0-68.0313C6.26218-68.0313 11.33855-37.5731 11.33855 .00002 11.33855 37.57317 6.26218 68.03136 0 68.03136"/>
<path transform="matrix(1.00006,0,0,-1,28.084542,113.916)" stroke-width=".79701" stroke-linecap="butt" stroke-miterlimit="10" stroke-linejoin="miter" fill="none" stroke="#ec008c" d="M0 68.0313C-6.26218 68.0313-11.33855 37.5731-11.33855-.00002-11.33855-37.57317-6.26218-68.03136 0-68.03136"/>
<path transform="matrix(1.00006,0,0,-1,28.084542,113.916)" stroke-width=".79701" stroke-linecap="butt" stroke-miterlimit="10" stroke-linejoin="miter" fill="none" stroke="#ec008c" d="M170.07825-68.0313C176.34044-68.0313 181.4168-37.5731 181.4168 .00002 181.4168 37.57317 176.34044 68.03136 170.07825 68.03136"/>
<path transform="matrix(1.00006,0,0,-1,28.084542,113.916)" stroke-width=".79701" stroke-linecap="butt" stroke-miterlimit="10" stroke-linejoin="miter" fill="none" stroke="#ec008c" d="M170.07825 68.0313C163.81607 68.0313 158.7397 37.5731 158.7397-.00002 158.7397-37.57317 163.81607-68.03136 170.07825-68.03136"/>
<path transform="matrix(1.00006,0,0,-1,28.084542,113.916)" stroke-width=".79701" stroke-linecap="butt" stroke-miterlimit="10" stroke-linejoin="miter" fill="none" stroke="#000000" d="M0-68.0313H170.07825"/>
<path transform="matrix(1.00006,0,0,-1,28.084542,113.916)" stroke-width=".79701" stroke-linecap="butt" stroke-miterlimit="10" stroke-linejoin="miter" fill="none" stroke="#ec008c" d="M0 68.0313H170.07825"/>
<path transform="matrix(1.00006,0,0,-1,28.084542,113.916)" stroke-width=".79701" stroke-linecap="butt" stroke-miterlimit="10" stroke-linejoin="miter" fill="none" stroke="#0000ff" d="M-22.6771-67.23428V67.23428"/>
<path transform="matrix(0,1,1.00006,0,5.406082,181.54878)" stroke-width=".79701" stroke-linecap="round" stroke-linejoin="round" fill="none" stroke="#0000ff" d="M-2.55046 3.11095C-2.0845 1.24435-1.04614 .36295 0 0-1.04614-.36295-2.0845-1.24435-2.55046-3.11095"/>
<path transform="matrix(0,-1,-1.00006,-0,5.406082,46.28322)" stroke-width=".79701" stroke-linecap="round" stroke-linejoin="round" fill="none" stroke="#0000ff" d="M-2.55046 3.11095C-2.0845 1.24435-1.04614 .36295 0 0-1.04614-.36295-2.0845-1.24435-2.55046-3.11095"/>
<use data-text="1" xlink:href="#font_1_82" transform="matrix(0,9.9626,9.963197,0,9.18541,98.962)" fill="#0000ff"/>
<use data-text="4" xlink:href="#font_1_57" transform="matrix(0,9.9626,9.963197,0,9.18541,104.69049)" fill="#0000ff"/>
<use data-text="c" xlink:href="#font_1_43" transform="matrix(0,9.9626,9.963197,0,9.18541,114.22469)" fill="#0000ff"/>
<use data-text="m" xlink:href="#font_1_75" transform="matrix(0,9.9626,9.963197,0,9.18541,119.31558)" fill="#0000ff"/>
<path transform="matrix(1.00006,0,0,-1,28.084542,113.916)" stroke-width=".79701" stroke-linecap="butt" stroke-miterlimit="10" stroke-linejoin="miter" fill="none" stroke="#0000ff" d="M.797 79.36984H169.28125"/>
<path transform="matrix(-1.00006,-0,0,1,28.483065,34.546159)" stroke-width=".79701" stroke-linecap="round" stroke-linejoin="round" fill="none" stroke="#0000ff" d="M-2.55046 3.11095C-2.0845 1.24435-1.04614 .36295 0 0-1.04614-.36295-2.0845-1.24435-2.55046-3.11095"/>
<path transform="matrix(1.00006,0,0,-1,197.77448,34.546159)" stroke-width=".79701" stroke-linecap="round" stroke-linejoin="round" fill="none" stroke="#0000ff" d="M-2.55046 3.11095C-2.0845 1.24435-1.04614 .36295 0 0-1.04614-.36295-2.0845-1.24435-2.55046-3.11095"/>
<use data-text="1" xlink:href="#font_1_82" transform="matrix(0,9.9626,9.963197,0,109.92042,.9189987)" fill="#0000ff"/>
<use data-text="0" xlink:href="#font_1_121" transform="matrix(0,9.9626,9.963197,0,109.92042,6.6474916)" fill="#0000ff"/>
<use data-text="c" xlink:href="#font_1_43" transform="matrix(0,9.9626,9.963197,0,109.92042,16.181694)" fill="#0000ff"/>
<use data-text="m" xlink:href="#font_1_75" transform="matrix(0,9.9626,9.963197,0,109.92042,21.272583)" fill="#0000ff"/>
</svg>
