<svg xmlns="http://www.w3.org/2000/svg" xmlns:xlink="http://www.w3.org/1999/xlink" xmlns:inkscape="http://www.inkscape.org/namespaces/inkscape" version="1.1" width="211" height="161" viewBox="0 0 211 161">
<defs>
<path id="font_1_82" d="M.49398805 0V.04699707H.35398866V.6231079C.35398866 .6452179 .35398866 .65527346 .32798768 .65527346 .31698609 .65527346 .31498719 .65527346 .30599977 .6482239 .22898865 .5909424 .12599182 .5909424 .10499573 .5909424H.084991458V.5439453H.10499573C.12098694 .5439453 .17599488 .54493716 .23498535 .5639343V.04699707H.09599304V0C.13999939 .0029907227 .24598694 .0029907227 .29499818 .0029907227 .34399415 .0029907227 .44999696 .0029907227 .49398805 0Z"/>
<path id="font_1_121" d="M.5289917 .31939698C.5289917 .41644288 .5279999 .65527346 .2869873 .65527346 .04598999 .65527346 .04499817 .41744996 .04499817 .31939698 .04499817 .22035218 .04598999-.0107421879 .2869873-.0107421879 .5269928-.0107421879 .5289917 .2193451 .5289917 .31939698M.40098573 .33140565C.40098573 .27537538 .40098573 .18432617 .3939972 .13230896 .37998963 .039260866 .31698609 .025253296 .2869873 .025253296 .25099183 .025253296 .19499207 .04725647 .18199158 .12030029 .17298889 .1723175 .17298889 .27638246 .17298889 .33140565 .17298889 .40344239 .17298889 .46847535 .18099976 .5205078 .19299317 .6092987 .2630005 .6192627 .2869873 .6192627 .32398988 .6192627 .36499024 .6003418 .38398744 .5565033 .40098573 .51950076 .40098573 .41345216 .40098573 .33140565Z"/>
<path id="font_1_43" d="M.47799684 .117126468C.47799684 .13113404 .46398927 .13113404 .45399476 .13113404 .43598939 .13113404 .43499757 .12913513 .42999269 .11613464 .4039917 .053131105 .35598756 .03413391 .30499269 .03413391 .1659851 .03413391 .1659851 .18112183 .1659851 .22712708 .1659851 .28312684 .1659851 .41311646 .29499818 .41311646 .32998658 .41311646 .34700013 .41011048 .3600006 .40711976 .34199525 .39111329 .33999635 .3701172 .33999635 .3611145 .33999635 .3171234 .375 .29811097 .4019928 .29811097 .43299867 .29811097 .46499635 .3191223 .46499635 .3611145 .46499635 .44711305 .34899903 .453125 .29100038 .453125 .11199951 .45314027 .037994386 .33813478 .037994386 .22213745 .037994386 .08912659 .13198853-.005859375 .28599549-.005859375 .44799806-.005859375 .47799684 .11013794 .47799684 .117126468Z"/>
<path id="font_1_75" d="M.93499758 0V.04699707H.8659973V.30613709C.8659973 .40919496 .8149872 .4501953 .71199038 .4501953 .62098696 .4501953 .56900027 .40019227 .54299929 .3541565 .522995 .44718934 .43099977 .4501953 .3929901 .4501953 .30599977 .4501953 .24899292 .40518189 .21699524 .3421631V.4501953L.04499817 .4423828V.39537049C.10699463 .39537049 .11399841 .39537049 .11399841 .3563385V.04699707H.04499817V0L.17098999 .0029907227 .29699708 0V.04699707H.22799683V.2562256C.22799683 .3653412 .31498719 .41436769 .3769989 .41436769 .41099549 .41436769 .43299867 .39437867 .43299867 .31729127V.04699707H.3639984V0L.48999024 .0029907227 .6159973 0V.04699707H.5469971V.2562256C.5469971 .3653412 .6339874 .41436769 .69599917 .41436769 .7299957 .41436769 .7519989 .39437867 .7519989 .31729127V.04699707H.68299868V0L.8089905 .0029907227 .93499758 0Z"/>
<path id="font_2_1" d="M.2869873 .68333438C.2869873 .6843262 .2869873 .69433596 .27398683 .69433596 .25099183 .69433596 .17799378 .6863251 .1519928 .6843262 .14399719 .68333438 .1329956 .6823273 .1329956 .6643219 .1329956 .6523285 .14199829 .6523285 .15699768 .6523285 .20498657 .6523285 .20698548 .6453247 .20698548 .6353302L.20399475 .6153412 .05899048 .039260866C.054992677 .025253296 .054992677 .023254395 .054992677 .01725769 .054992677-.0057525637 .07499695-.0107421879 .083999637-.0107421879 .099990848-.0107421879 .115997318 .0012512207 .12098694 .015258789L.13999939 .091278079 .1619873 .18130493C.16799927 .2033081 .17399597 .22531128 .1789856 .24832154 .18099976 .25431825 .18899536 .28733827 .18998719 .29333497 .19299317 .30233766 .22399903 .35835267 .2579956 .38536073 .27999879 .4013672 .31098939 .42037965 .35398866 .42037965 .39698792 .42037965 .4079895 .3863678 .4079895 .35035707 .4079895 .29634095 .36999513 .18730164 .34599305 .12628174 .33799745 .103271488 .33299256 .091278079 .33299256 .0712738 .33299256 .024261475 .36799623-.0107421879 .4149933-.0107421879 .5089874-.0107421879 .54599 .13528443 .54599 .14329529 .54599 .1532898 .5369873 .1532898 .5339966 .1532898 .5239868 .1532898 .5239868 .15029907 .5189972 .13528443 .5039978 .08227539 .47200013 .011245728 .4169922 .011245728 .3999939 .011245728 .3929901 .021255494 .3929901 .044265748 .3929901 .0692749 .4019928 .09327698 .41099549 .11528015 .4269867 .15829468 .47200013 .2773285 .47200013 .3353424 .47200013 .4003601 .43199159 .4423828 .35699464 .4423828 .2939911 .4423828 .24598694 .41137696 .20899964 .36535646L.2869873 .68333438Z"/>
</defs>
<path transform="matrix(1.00006,0,0,-1.00002,28.084542,90.92758)" d="M0-68.0313H170.07825C176.34044-68.0313 181.4168-37.5731 181.4168 .00002 181.4168 37.57317 176.34044 68.03136 170.07825 68.03136L0 68.0313C-6.26218 68.0313-11.33855 37.5731-11.33855-.00002-11.33855-37.57317-6.26218-68.03136 0-68.03136" fill="#ccccff"/>
<path transform="matrix(1.00006,0,0,-1.00002,28.084542,90.92758)" d="M0-68.0313C6.26218-68.0313 11.33855-37.5731 11.33855 .00002 11.33855 37.57317 6.26218 68.03136 0 68.03136-6.26218 68.03136-11.33855 37.57317-11.33855 .00002-11.33855-37.5731-6.26218-68.0313 0-68.0313" fill="#ccccff"/>
<path transform="matrix(1.00006,0,0,-1.00002,28.084542,90.92758)" d="M170.07825-68.0313C176.34044-68.0313 181.4168-37.5731 181.4168 .00002 181.4168 37.57317 176.34044 68.03136 170.07825 68.03136 163.81607 68.03136 158.7397 37.57317 158.7397 .00002 158.7397-37.5731 163.81607-68.0313 170.07825-68.0313" fill="#ccccff"/>
<path transform="matrix(1.00006,0,0,-1.00002,28.084542,90.92758)" stroke-width=".79701" stroke-linecap="butt" stroke-miterlimit="10" stroke-linejoin="miter" fill="none" stroke="#ec008c" d="M0-68.0313C6.26218-68.0313 11.33855-37.5731 11.33855 .00002 11.33855 37.57317 6.26218 68.03136 0 68.03136"/>
<path transform="matrix(1.00006,0,0,-1.00002,28.084542,90.92758)" stroke-width=".79701" stroke-linecap="butt" stroke-miterlimit="10" stroke-linejoin="miter" fill="none" stroke="#ec008c" d="M0 68.0313C-6.26218 68.0313-11.33855 37.5731-11.33855-.00002-11.33855-37.57317-6.26218-68.03136 0-68.03136"/>
<path transform="matrix(1.00006,0,0,-1.00002,28.084542,90.92758)" stroke-width=".79701" stroke-linecap="butt" stroke-miterlimit="10" stroke-linejoin="miter" fill="none" stroke="#ec008c" d="M170.07825-68.0313C176.34044-68.0313 181.4168-37.5731 181.4168 .00002 181.4168 37.57317 176.34044 68.03136 170.07825 68.03136"/>
<path transform="matrix(1.00006,0,0,-1.00002,28.084542,90.92758)" stroke-width=".79701" stroke-linecap="butt" stroke-miterlimit="10" stroke-linejoin="miter" fill="none" stroke="#ec008c" d="M170.07825 68.0313C163.81607 68.0313 158.7397 37.5731 158.7397-.00002 158.7397-37.57317 163.81607-68.03136 170.07825-68.03136"/>
<path transform="matrix(1.00006,0,0,-1.00002,28.084542,90.92758)" stroke-width=".79701" stroke-linecap="butt" stroke-miterlimit="10" stroke-linejoin="miter" fill="none" stroke="#000000" d="M0-68.0313H170.07825"/>
<path transform="matrix(1.00006,0,0,-1.00002,28.084542,90.92758)" stroke-width=".79701" stroke-linecap="butt" stroke-miterlimit="10" stroke-linejoin="miter" fill="none" stroke="#ec008c" d="M0 68.0313H170.07825"/>
<path transform="matrix(1.00006,0,0,-1.00002,28.084542,90.92758)" stroke-width=".79701" stroke-linecap="butt" stroke-miterlimit="10" stroke-linejoin="miter" fill="none" stroke="#0000ff" d="M-22.6771-67.23428V67.23428"/>
<path transform="matrix(0,1.00002,1.00006,0,5.406082,158.56172)" stroke-width=".79701" stroke-linecap="round" stroke-linejoin="round" fill="none" stroke="#0000ff" d="M-2.55046 3.11095C-2.0845 1.24435-1.04614 .36295 0 0-1.04614-.36295-2.0845-1.24435-2.55046-3.11095"/>
<path transform="matrix(0,-1.00002,-1.00006,-0,5.406082,23.293442)" stroke-width=".79701" stroke-linecap="round" stroke-linejoin="round" fill="none" stroke="#0000ff" d="M-2.55046 3.11095C-2.0845 1.24435-1.04614 .36295 0 0-1.04614-.36295-2.0845-1.24435-2.55046-3.11095"/>
<use data-text="1" xlink:href="#font_1_82" transform="matrix(0,9.962799,9.963197,0,9.23542,75.97328)" fill="#0000ff"/>
<use data-text="0" xlink:href="#font_1_121" transform="matrix(0,9.962799,9.963197,0,9.23542,81.70189)" fill="#0000ff"/>
<use data-text="c" xlink:href="#font_1_43" transform="matrix(0,9.962799,9.963197,0,9.23542,91.23628)" fill="#0000ff"/>
<use data-text="m" xlink:href="#font_1_75" transform="matrix(0,9.962799,9.963197,0,9.23542,96.32727)" fill="#0000ff"/>
<path transform="matrix(1.00006,0,0,-1.00002,28.084542,90.92758)" stroke-width=".79701" stroke-linecap="butt" stroke-miterlimit="10" stroke-linejoin="miter" fill="none" stroke="#0000ff" d="M.797 79.36984H169.28125"/>
<path transform="matrix(-1.00006,-0,0,1.00002,28.483065,11.556152)" stroke-width=".79701" stroke-linecap="round" stroke-linejoin="round" fill="none" stroke="#0000ff" d="M-2.55046 3.11095C-2.0845 1.24435-1.04614 .36295 0 0-1.04614-.36295-2.0845-1.24435-2.55046-3.11095"/>
<path transform="matrix(1.00006,0,0,-1.00002,197.77448,11.556152)" stroke-width=".79701" stroke-linecap="round" stroke-linejoin="round" fill="none" stroke="#0000ff" d="M-2.55046 3.11095C-2.0845 1.24435-1.04614 .36295 0 0-1.04614-.36295-2.0845-1.24435-2.55046-3.11095"/>
<use data-text="h" xlink:href="#font_2_1" transform="matrix(9.963197,0,0,-9.962799,110.25847,7.8369219)" fill="#0000ff"/>
</svg>
