<svg xmlns="http://www.w3.org/2000/svg" xmlns:xlink="http://www.w3.org/1999/xlink" xmlns:inkscape="http://www.inkscape.org/namespaces/inkscape" version="1.1" width="206" height="170" viewBox="0 0 206 170">
<defs>
<path id="font_1_71" d="M.58200076 .2578125H.5569916C.54599 .15588379 .5319977 .0309906 .35598756 .0309906H.27398683C.22698975 .03060913 .22499085 .037612916 .22499085 .07060242V.6036072C.22499085 .63760378 .22499085 .6516113 .31999208 .6516113H.35299684V.6826172C.31698609 .6796112 .22599793 .6796112 .18499756 .6796112 .1459961 .6796112 .067993167 .6796112 .032989503 .6826172V.6516113H.056991579C.13398743 .6518097 .13598633 .6408081 .13598633 .6048126V.07795715C.13598633 .04197693 .13398743 .0309906 .056991579 .0309906H.032989503V0H.55400088L.58200076 .2578125Z"/>
<path id="font_1_66" d="M.24699402 0V.0309906C.18099976 .0309906 .1769867 .035995485 .1769867 .075042728V.4423828L.036987306 .43066407V.3996582C.101989749 .3996582 .11099243 .3936615 .11099243 .3447113V.07595825C.11099243 .0309906 .099990848 .0309906 .032989503 .0309906V0L.14299011 .0029907227C.17799378 .0029907227 .21299744 .0009918213 .24699402 0M.19198609 .603775C.19198609 .6307678 .16899109 .6567688 .13899231 .6567688 .10499573 .6567688 .084991458 .6287689 .084991458 .603775 .084991458 .57676699 .10798645 .55078127 .13798523 .55078127 .17199707 .55078127 .19198609 .5787811 .19198609 .603775Z"/>
<path id="font_1_59" d="M.4850006 .40411378C.4850006 .42111207 .47299195 .453125 .43399049 .453125 .4139862 .453125 .36999513 .44711305 .32798768 .40611268 .28599549 .43937684 .24398804 .4423828 .22200012 .4423828 .1289978 .4423828 .05999756 .37338258 .05999756 .29638673 .05999756 .25239564 .08198547 .21440125 .10699463 .19340515 .09399414 .17840576 .07598877 .14538574 .07598877 .11035156 .07598877 .07899475 .08898926 .04083252 .11999512 .020828248 .05999756 .003829956 .027999878-.039138795 .027999878-.07911682 .027999878-.15107727 .1269989-.20605469 .24899292-.20605469 .36698915-.20605469 .47099305-.15507508 .47099305-.07711792 .47099305-.042144777 .45700074 .008834839 .4059906 .036834718 .35299684 .064834598 .29499818 .064834598 .23399353 .064834598 .20899964 .064834598 .1659851 .064834598 .15899658 .065841678 .1269989 .069885257 .10598755 .101242069 .10598755 .13334656 .10598755 .13735962 .10598755 .16040039 .12298584 .18040467 .1619873 .15240479 .20298767 .14941406 .22200012 .14941406 .31498719 .14941406 .38398744 .21839905 .38398744 .2953949 .38398744 .3323822 .36799623 .36938478 .34298707 .39237977 .3789978 .42637635 .4149933 .43138124 .43299867 .43138124 .43299867 .43112184 .43998719 .43112184 .44299317 .43011476 .43199159 .42611695 .4269867 .41513063 .4269867 .40315248 .4269867 .38616944 .43998719 .37417604 .45599366 .37417604 .46598817 .37417604 .4850006 .3811798 .4850006 .4041443V.40411378M.30899049 .29626466C.30899049 .26930238 .30799867 .2373352 .29299928 .21235657 .2849884 .20037842 .2619934 .17240906 .22200012 .17240906 .1349945 .17240906 .1349945 .2722931 .1349945 .29527284 .1349945 .3222351 .13598633 .35420228 .15098572 .3791809 .15899658 .3913269 .18199158 .41937257 .22200012 .41937257 .30899049 .41937257 .30899049 .31922914 .30899049 .29618836V.29626466M.4189911-.07911682C.4189911-.13308716 .34799195-.18305969 .25-.18305969 .14898682-.18305969 .07998657-.13209534 .07998657-.07911682 .07998657-.03314209 .117996219 .003829956 .1619873 .0068359377H.22099304C.30699159 .0068359377 .4189911 .0068359377 .4189911-.07911682Z"/>
<path id="font_1_63" d="M.5349884 0V.0309906C.48298646 .0309906 .45799256 .0309906 .45700074 .061019899V.25221253C.45700074 .3383026 .45700074 .36932374 .42599488 .405365 .4119873 .42237855 .3789978 .4423828 .32099916 .4423828 .23699951 .4423828 .19299317 .38233949 .1769867 .34629823H.17599488V.69433596L.03199768 .6826172V.6516113C.101989749 .6516113 .10998535 .64463809 .10998535 .59580996V.076034549C.10998535 .0309906 .09899902 .0309906 .03199768 .0309906V0L.14498902 .0029907227 .25698854 0V.0309906C.18998719 .0309906 .1789856 .0309906 .1789856 .076034549V.2602234C.1789856 .36431886 .25 .42037965 .31399537 .42037965 .3769989 .42037965 .3880005 .36631776 .3880005 .30926515V.076034549C.3880005 .0309906 .3769989 .0309906 .30999757 .0309906V0L.4229889 .0029907227 .5349884 0Z"/>
<path id="font_1_105" d="M.33198548 .12385559V.18066406H.30699159V.12585449C.30699159 .052108766 .2769928 .014251709 .23999024 .014251709 .17298889 .014251709 .17298889 .10491943 .17298889 .12187195V.3996582H.31599427V.43066407H.17298889V.6142578H.147995C.14698792 .5324249 .116989139 .42565919 .018997193 .42166139V.3996582H.10398865V.12408447C.10398865 .0012512207 .19699097-.0107421879 .23298645-.0107421879 .3039856-.0107421879 .33198548 .060180665 .33198548 .12408447V.12385559Z"/>
<path id="font_1_81" d="M.47099305 .21424866C.47099305 .34223939 .37098695 .4482422 .25 .4482422 .125 .4482422 .027999878 .3392334 .027999878 .21424866 .027999878 .085250858 .13198853-.0107421879 .24899292-.0107421879 .36999513-.0107421879 .47099305 .087249759 .47099305 .21424866M.3880005 .22224427C.3880005 .18624878 .3880005 .13224793 .3659973 .08824158 .34399415 .04324341 .2999878 .014251709 .25 .014251709 .20698548 .014251709 .16299439 .035247804 .13598633 .08125305 .11099243 .12524414 .11099243 .18624878 .11099243 .22224427 .11099243 .26124574 .11099243 .31523133 .1349945 .35923768 .1619873 .40522767 .20899964 .426239 .24899292 .426239 .29299928 .426239 .33599855 .40423585 .3619995 .36123658 .3880005 .3182373 .3880005 .26023866 .3880005 .22224427Z"/>
<path id="font_1_109" d="M.5349884 0V.0309906C.46499635 .0309906 .45700074 .037994386 .45700074 .08705139V.4423828L.30999757 .43066407V.3996582C.37998963 .3996582 .3880005 .39266969 .3880005 .34373475V.16601563C.3880005 .07910156 .33999635 .011245728 .2669983 .011245728 .18299866 .011245728 .1789856 .058135988 .1789856 .11009216V.4423828L.03199768 .43066407V.3996582C.10998535 .3996582 .10998535 .39666749 .10998535 .3078003V.15802002C.10998535 .080093387 .10998535-.0107421879 .2619934-.0107421879 .31799317-.0107421879 .3619995 .017242432 .3909912 .07910156V-.0107421879L.5349884 0Z"/>
<path id="font_1_98" d="M.3600006 .12823487C.3600006 .18122864 .32998658 .21122742 .31799317 .22323609 .2849884 .25523377 .24598694 .26322938 .20399475 .27124024 .147995 .28224183 .08099365 .29522706 .08099365 .35324098 .08099365 .38822938 .10699463 .42922975 .19299317 .42922975 .30299378 .42922975 .30799867 .3392334 .30999757 .30822755 .31098939 .2992401 .32199098 .2992401 .32199098 .2992401 .33499146 .2992401 .33499146 .30422975 .33499146 .32322694V.4242401C.33499146 .4412384 .33499146 .4482422 .32398988 .4482422 .31900025 .4482422 .31698609 .4482422 .3039856 .43623353 .30099488 .43223573 .29100038 .42323304 .2869873 .42022706 .24899292 .4482422 .20799256 .4482422 .19299317 .4482422 .070999149 .4482422 .032989503 .38124085 .032989503 .3252411 .032989503 .29023744 .04899597 .26223756 .07598877 .24023438 .10798645 .2142334 .13598633 .2082367 .20799256 .19422913 .22999573 .19021607 .31199647 .17422486 .31199647 .10221863 .31199647 .051223756 .2769928 .011245728 .19898987 .011245728 .114990238 .011245728 .07899475 .068222049 .05999756 .1532135 .056991579 .16621399 .055999757 .17021179 .04598999 .17021179 .032989503 .17021179 .032989503 .16322327 .032989503 .1452179V.013214111C.032989503-.003753662 .032989503-.0107421879 .04399109-.0107421879 .04899597-.0107421879 .049987794-.009750366 .068984989 .009246826 .070999149 .011245728 .070999149 .013214111 .08898926 .032226564 .1329956-.009750366 .17799378-.0107421879 .19898987-.0107421879 .31399537-.0107421879 .3600006 .05621338 .3600006 .1282196V.12823487Z"/>
<path id="font_1_50" d="M.4149933 .11933899C.4149933 .12934876 .40699769 .13134766 .4019928 .13134766 .3929901 .13134766 .3909912 .12535095 .3889923 .11734009 .35398866 .014251709 .2639923 .014251709 .2539978 .014251709 .20399475 .014251709 .1639862 .044281007 .14099121 .08131409 .11099243 .12934876 .11099243 .19540406 .11099243 .23144531H.3899994C.4119873 .23144531 .4149933 .23144531 .4149933 .2524414 .4149933 .35131837 .36099244 .4482422 .23599243 .4482422 .11999512 .4482422 .027999878 .34532167 .027999878 .22042847 .027999878 .08631897 .1329956-.0107421879 .24798584-.0107421879 .36999513-.0107421879 .4149933 .10032654 .4149933 .11933899M.34899903 .2524414H.11199951C.117996219 .40126039 .20199585 .426239 .23599243 .426239 .33898927 .426239 .34899903 .2913971 .34899903 .2524414Z"/>
<path id="font_1_97" d="M.49899293 .18579102C.49899293 .2858429 .43299867 .36791993 .34899903 .38793946L.22099304 .4189453C.15899658 .43388368 .11999512 .48773194 .11999512 .5458069 .11999512 .61595156 .17399597 .677063 .2519989 .677063 .4189911 .677063 .44099427 .5127411 .44699098 .46777345 .44799806 .461792 .44799806 .45581056 .45899964 .45581056 .47200013 .45581056 .47200013 .46080018 .47200013 .47973634V.68107607C.47200013 .69807437 .47200013 .7050781 .46099855 .7050781 .45399476 .7050781 .45298768 .70407107 .44599916 .69207766L.41099549 .63497927C.3809967 .66404727 .33999635 .7050781 .25099183 .7050781 .13999939 .7050781 .055999757 .61694338 .055999757 .5107422 .055999757 .42790223 .10899353 .35490418 .18699646 .32788087 .19799805 .32388307 .24899292 .3118744 .31900025 .29486085 .34599305 .28785707 .37599183 .280838 .4039917 .24382019 .4249878 .2177887 .43499757 .18478394 .43499757 .1517334 .43499757 .0806427 .3849945 .008529663 .30099488 .008529663 .27198792 .008529663 .19599915 .013534546 .14299011 .06260681 .084991458 .11668396 .08198547 .18078614 .08099365 .21679688 .07998657 .22679138 .07199097 .22679138 .068984989 .22679138 .055999757 .22679138 .055999757 .2197876 .055999757 .20178223V.0015258789C.055999757-.015472412 .055999757-.022460938 .066986087-.022460938 .07398987-.022460938 .07499695-.020462037 .08198547-.009475708 .08198547-.009475708 .084991458-.0054626467 .117996219 .047592164 .14898682 .013534546 .21299744-.022460938 .3019867-.022460938 .4189911-.022460938 .49899293 .07562256 .49899293 .18579102Z"/>
<path id="font_1_84" d="M.5209961 .21636963C.5209961 .34336854 .42399598 .4423828 .31199647 .4423828 .23399353 .4423828 .19198609 .39837647 .17199707 .3763733V.4423828L.027999878 .43066407V.3996582C.09899902 .3996582 .10598755 .3936615 .10598755 .34973146V-.117996219C.10598755-.16308594 .09498596-.16308594 .027999878-.16308594V-.1940918L.13999939-.19110108 .25299073-.1940918V-.16308594C.18598938-.16308594 .1749878-.16308594 .1749878-.117996219V.050186159 .059173585C.17999268 .04319763 .22200012-.0107421879 .2979889-.0107421879 .4169922-.0107421879 .5209961 .087127689 .5209961 .21594239V.21636963M.43798829 .21594239C.43798829 .09512329 .36799623 .011245728 .2939911 .011245728 .2539978 .011245728 .21598816 .031219483 .18899536 .07215881 .1749878 .09312439 .1749878 .09411621 .1749878 .114089969V.33674623C.20399475 .38838197 .25299073 .41737367 .3039856 .41737367 .3769989 .41737367 .43798829 .32937623 .43798829 .21636963V.21594239Z"/>
<path id="font_1_107" d="M.44898988 .17396546H.42399598C.4189911 .14398194 .4119873 .099990848 .4019928 .084991458 .394989 .07699585 .32899476 .07699585 .30699159 .07699585H.1269989L.23298645 .17996216C.3889923 .31803895 .44898988 .37210084 .44898988 .47216798 .44898988 .5860901 .35899354 .6660156 .23699951 .6660156 .12399292 .6660156 .049987794 .57411196 .049987794 .48516847 .049987794 .4291687 .099990848 .4291687 .102996829 .4291687 .11999512 .4291687 .15499878 .44117738 .15499878 .48217774 .15499878 .5081787 .13699341 .5341797 .101989749 .5341797 .09399414 .5341797 .09199524 .5341797 .08898926 .5331726 .11199951 .59806826 .1659851 .63500979 .22399903 .63500979 .31498719 .63500979 .35798646 .5541382 .35798646 .47216798 .35798646 .39196778 .30799867 .31297303 .25299073 .25097657L.06098938 .036987306C.049987794 .025985718 .049987794 .023986817 .049987794 0H.42099L.44898988 .17396546Z"/>
<path id="font_1_56" d="M.44898988 .20091248C.44898988 .31991578 .36698915 .41992188 .25898744 .41992188 .21099854 .41992188 .16799927 .4039154 .13198853 .36891175V.5641022C.1519928 .55778506 .18499756 .55078127 .21699524 .55078127 .33999635 .55078127 .4099884 .6418457 .4099884 .65493777 .4099884 .6609802 .40699769 .6660156 .3999939 .6660156 .3999939 .66607668 .39698792 .66607668 .3919983 .66308596 .37199403 .65408328 .32299806 .63378909 .2559967 .63378909 .21598816 .63409426 .16999817 .641098 .12298584 .6621094 .114990238 .6651001 .11099243 .6651001 .11099243 .6651001 .100997928 .66508486 .100997928 .657074 .100997928 .64108279V.3447113C.100997928 .3266449 .100997928 .31861878 .114990238 .31861878 .12199402 .31861878 .12399292 .32164 .12799073 .32765199 .13899231 .34371949 .17599488 .3979187 .25698854 .3979187 .30899049 .3979187 .33399964 .3517456 .34199525 .3336792 .35798646 .2965393 .3600006 .2574005 .3600006 .20721436 .3600006 .17218018 .3600006 .112197879 .33599855 .07032776 .31199647 .031448366 .2749939 .0055389406 .22898865 .0055389406 .1559906 .0055389406 .09899902 .05836487 .08198547 .1171875 .084991458 .11685181 .08799744 .115859989 .09899902 .115859989 .13198853 .115859989 .14898682 .14085388 .14898682 .16485596 .14898682 .18885803 .13198853 .21386719 .09899902 .21386719 .084991458 .21386719 .049987794 .2068634 .049987794 .16085816 .049987794 .07432556 .11898804-.022460938 .23098755-.022460938 .34700013-.022460938 .44898988 .07331848 .44898988 .20019531V.20091248Z"/>
<path id="font_2_1" d="M.5069885 .24998474C.5069885 .3710022 .4099884 .4650116 .2919922 .4650116 .17199707 .4650116 .07699585 .36799623 .07699585 .25097657 .07699585 .1299591 .17399597 .035949708 .2919922 .035949708 .4119873 .035949708 .5069885 .13296509 .5069885 .24998474M.2919922 .08496094C.19799805 .08496094 .12599182 .16096497 .12599182 .24998474 .12599182 .34300233 .19999695 .41601563 .2919922 .41601563 .38598634 .41601563 .45799256 .33999635 .45799256 .25097657 .45799256 .15795899 .38398744 .08496094 .2919922 .08496094Z"/>
<path id="font_1_34" d="M.651001 .18289185C.651001 .26983644 .56900027 .34480287 .45799256 .35679627 .5549927 .3757782 .6239929 .43974305 .6239929 .51368716 .6239929 .6006317 .5319977 .6826172 .4019928 .6826172H.035995485V.6516113H.05999756C.13699341 .6516113 .13899231 .64060977 .13899231 .6046295V.07795715C.13899231 .041992189 .13699341 .0309906 .05999756 .0309906H.035995485V0H.42799378C.5609894-.0002593994 .651001 .08874512 .651001 .18273926V.18289185M.5269928 .5136719C.5269928 .44970704 .47799684 .36573792 .36698915 .36573792H.22200012V.6116333C.22200012 .64460757 .22399903 .6516113 .2709961 .6516113H.394989C.49198915 .65174868 .5269928 .56674197 .5269928 .51374819V.5136719M.5509949 .18386841C.5509949 .1129303 .49899293 .0309906 .3959961 .0309906H.2709961C.22399903 .0309906 .22200012 .037994386 .22200012 .07095337V.34375H.4099884C.5089874 .34399415 .5509949 .25099183 .5509949 .18399048V.18386841Z"/>
<path id="font_1_28" d="M.48298646 .08912659V.14511109H.45799256V.08912659C.45799256 .03112793 .43299867 .025131226 .42199708 .025131226 .3889923 .025131226 .3849945 .070129398 .3849945 .07511902V.27508546C.3849945 .31707765 .3849945 .3560791 .34899903 .39312745 .30999757 .43223573 .2599945 .4482422 .21199036 .4482422 .12998963 .4482422 .06098938 .40115357 .06098938 .335083 .06098938 .30508424 .08099365 .28808595 .10699463 .28808595 .1349945 .28808595 .15299988 .30807496 .15299988 .33407594 .15299988 .3460846 .147995 .37908937 .101989749 .38008119 .1289978 .41519166 .17799378 .426239 .20999146 .426239 .25898744 .426239 .31599427 .38710023 .31599427 .29808045V.26107789C.2649994 .25808717 .19499207 .25508119 .13198853 .22509766 .056991579 .19110108 .03199768 .13911438 .03199768 .09512329 .03199768 .014251709 .1289978-.0107421879 .19198609-.0107421879 .2579956-.0107421879 .3039856 .029251099 .32299806 .07624817 .32699586 .036132814 .35398866-.005859375 .40098573-.005859375 .42199708-.005859375 .48298646 .008132935 .48298646 .08912659M.31599427 .14013672C.31599427 .04525757 .24398804 .011245728 .19898987 .011245728 .1499939 .011245728 .10899353 .04624939 .10899353 .09625244 .10899353 .15124512 .15098572 .23425293 .31599427 .24024964V.14013672Z"/>
<path id="font_1_55" d="M.35699464 .63479617C.35699464 .6717987 .31999208 .7050781 .2669983 .7050781 .19699097 .7050781 .11199951 .65179446 .11199951 .5457611V.43066407H.032989503V.3996582H.11199951V.07595825C.11199951 .0309906 .100997928 .0309906 .033996583 .0309906V0L.147995 .0029907227C.18798828 .0029907227 .23498535 .0029907227 .2749939 0V.0309906H.2539978C.17999268 .0309906 .17799378 .04197693 .17799378 .07795715V.3996582H.2919922V.43066407H.1749878V.5467529C.1749878 .63479617 .22299195 .68307498 .2669983 .68307498 .269989 .68307498 .2849884 .68307498 .2999878 .675827 .28799439 .6717987 .269989 .6587982 .269989 .6338043 .269989 .61079409 .28599549 .5907898 .31298829 .5907898 .34199525 .5907898 .35699464 .61079409 .35699464 .63479617Z"/>
<path id="font_1_72" d="M.25498963 0V.0309906C.18798828 .0309906 .1769867 .0309906 .1769867 .07601929V.69433596L.032989503 .6826172V.6516113C.102996829 .6516113 .11099243 .64460757 .11099243 .5956421V.07595825C.11099243 .0309906 .099990848 .0309906 .032989503 .0309906V0L.14399719 .0029907227 .25498963 0Z"/>
<path id="font_1_92" d="M.4149933 .57025149C.4149933 .62815859 .375 .7050781 .22599793 .7050781 .117996219 .7050781 .055999757 .637146 .055999757 .5722656 .055999757 .53822329 .07899475 .52423098 .101989749 .52423098 .12998963 .52423098 .147995 .54422 .147995 .57022097 .147995 .6152344 .10598755 .6152344 .09199524 .6152344 .12298584 .6681061 .18099976 .68307498 .22299195 .68307498 .33198548 .68307498 .33198548 .6152344 .33198548 .5762329 .33198548 .5172577 .31599427 .49925233 .2979889 .4812622 .23199463 .40907289 .20999146 .31684876 .20999146 .25569154V.21057129C.20999146 .1925354 .20999146 .18652344 .22200012 .18652344 .23498535 .18652344 .23498535 .19554138 .23498535 .21357727V.24867249C.23498535 .37498475 .33198548 .446167 .36698915 .472229 .3939972 .49198915 .4149933 .5279999 .4149933 .56999209V.57025149M.2749939 .052993776C.2749939 .08198547 .25099183 .10598755 .22200012 .10598755 .19299317 .10598755 .16899109 .08198547 .16899109 .052993776 .16899109 .023986817 .19299317 0 .22200012 0 .25099183 0 .2749939 .023986817 .2749939 .052993776Z"/>
<path id="font_1_121" d="M.45999146 .31976319C.45999146 .39982606 .45498658 .47988893 .41999818 .5539398 .37399293 .65000918 .2919922 .6660156 .25 .6660156 .18998719 .6660156 .116989139 .64001467 .07598877 .54693606 .04399109 .47789 .038986207 .39982606 .038986207 .31976319 .038986207 .24472046 .042999269 .15464783 .083999637 .07859802 .1269989-.0024719239 .19999695-.022460938 .24899292-.022460938 .30299378-.022460938 .3789978-.0014648438 .4229889 .09359741 .45498658 .16265869 .45999146 .2407074 .45999146 .31976319M.3769989 .3317871C.3769989 .25672914 .3769989 .18867493 .3659973 .12461853 .35099793 .029556275 .2939911-.00047302247 .24899292-.00047302247 .20999146-.00047302247 .15098572 .024551392 .1329956 .12062073 .12199402 .18066406 .12199402 .2727356 .12199402 .3317871 .12199402 .39582826 .12199402 .46188355 .12998963 .5159149 .14898682 .63500979 .22399903 .64401248 .24899292 .64401248 .28199769 .64401248 .34799195 .6259918 .36698915 .52693179 .3769989 .47088624 .3769989 .39482118 .3769989 .3317871Z"/>
<path id="font_1_75" d="M.8129883 0V.0309906C.7609863 .0309906 .73599246 .0309906 .7350006 .061019899V.25221253C.7350006 .3383026 .7350006 .36932374 .70399478 .405365 .6899872 .42237855 .6569977 .4423828 .598999 .4423828 .5149994 .4423828 .47099305 .38233949 .45399476 .34429933 .43998719 .43138124 .3659973 .4423828 .32099916 .4423828 .24798584 .4423828 .20098877 .39935304 .17298889 .33729554V.4423828L.03199768 .43066407V.3996582C.101989749 .3996582 .10998535 .39266969 .10998535 .34370423V.07595825C.10998535 .0309906 .09899902 .0309906 .03199768 .0309906V0L.14498902 .0029907227 .25698854 0V.0309906C.18998719 .0309906 .1789856 .0309906 .1789856 .07595825V.25978089C.1789856 .36431886 .25 .42037965 .31399537 .42037965 .3769989 .42037965 .3880005 .36631776 .3880005 .30926515V.076034549C.3880005 .0309906 .3769989 .0309906 .30999757 .0309906V0L.4229889 .0029907227 .5349884 0V.0309906C.46798707 .0309906 .45700074 .0309906 .45700074 .076034549V.2602234C.45700074 .36431886 .5279999 .42037965 .59199526 .42037965 .6549988 .42037965 .66600039 .36631776 .66600039 .30926515V.076034549C.66600039 .0309906 .6549988 .0309906 .58799746 .0309906V0L.70098879 .0029907227 .8129883 0Z"/>
</defs>
<path transform="matrix(1.00005,0,0,-1.00003,10.911797,155.54232)" stroke-width="1.19553" stroke-linecap="butt" stroke-miterlimit="10" stroke-linejoin="miter" fill="none" stroke="#000000" d="M0 0H170.08086"/>
<path transform="matrix(1.00005,0,0,-1.00003,10.911797,155.54232)" stroke-width="1.19553" stroke-linecap="butt" stroke-miterlimit="10" stroke-linejoin="miter" fill="none" stroke="#000000" d="M170.08086 0V141.73404"/>
<use data-text="L" xlink:href="#font_1_71" transform="matrix(9.963098,0,0,-9.962899,157.2391,7.8328707)"/>
<use data-text="i" xlink:href="#font_1_66" transform="matrix(9.963098,0,0,-9.962899,163.46605,7.8328707)"/>
<use data-text="g" xlink:href="#font_1_59" transform="matrix(9.963098,0,0,-9.962899,166.23578,7.8328707)"/>
<use data-text="h" xlink:href="#font_1_63" transform="matrix(9.963098,0,0,-9.962899,171.21733,7.8328707)"/>
<use data-text="t" xlink:href="#font_1_105" transform="matrix(9.963098,0,0,-9.962899,176.47785,7.8328707)"/>
<use data-text="h" xlink:href="#font_1_63" transform="matrix(9.963098,0,0,-9.962899,180.35349,7.8328707)"/>
<use data-text="o" xlink:href="#font_1_81" transform="matrix(9.963098,0,0,-9.962899,185.89298,7.8328707)"/>
<use data-text="u" xlink:href="#font_1_109" transform="matrix(9.963098,0,0,-9.962899,190.87453,7.8328707)"/>
<use data-text="s" xlink:href="#font_1_98" transform="matrix(9.963098,0,0,-9.962899,196.414,7.8328707)"/>
<use data-text="e" xlink:href="#font_1_50" transform="matrix(9.963098,0,0,-9.962899,200.33946,7.8328707)"/>
<path transform="matrix(1.00005,0,0,-1.00003,10.911797,155.54232)" stroke-width="1.19553" stroke-linecap="butt" stroke-miterlimit="10" stroke-linejoin="miter" fill="none" stroke="#000000" d="M0 0V14.17339"/>
<use data-text="S" xlink:href="#font_1_97" transform="matrix(9.963098,0,0,-9.962899,1.217308,166.08663)"/>
<use data-text="h" xlink:href="#font_1_63" transform="matrix(9.963098,0,0,-9.962899,6.75679,166.08663)"/>
<use data-text="i" xlink:href="#font_1_66" transform="matrix(9.963098,0,0,-9.962899,12.296272,166.08663)"/>
<use data-text="p" xlink:href="#font_1_84" transform="matrix(9.963098,0,0,-9.962899,15.066017,166.08663)"/>
<path transform="matrix(1.00005,0,0,-1.00003,10.911797,155.54232)" stroke-width=".3985" stroke-linecap="butt" stroke-miterlimit="10" stroke-linejoin="miter" fill="none" stroke="#000000" d="M14.17339 0C14.17339 3.31013 13.44768 6.58401 12.04875 9.58401"/>
<use data-text="2" xlink:href="#font_1_107" transform="matrix(9.963098,0,0,-9.962899,34.274965,150.35816)"/>
<use data-text="5" xlink:href="#font_1_56" transform="matrix(9.963098,0,0,-9.962899,39.256517,150.35816)"/>
<use data-text="&#x25e6;" xlink:href="#font_2_1" transform="matrix(6.9741489,0,0,-6.9740097,44.237459,146.74204)"/>
<use data-text="B" xlink:href="#font_1_34" transform="matrix(9.963098,0,0,-9.962899,45.46752,166.08663)"/>
<use data-text="a" xlink:href="#font_1_28" transform="matrix(9.963098,0,0,-9.962899,52.521394,166.08663)"/>
<use data-text="s" xlink:href="#font_1_98" transform="matrix(9.963098,0,0,-9.962899,57.502946,166.08663)"/>
<use data-text="e" xlink:href="#font_1_50" transform="matrix(9.963098,0,0,-9.962899,61.4284,166.08663)"/>
<use data-text="o" xlink:href="#font_1_81" transform="matrix(9.963098,0,0,-9.962899,69.15977,166.08663)"/>
<use data-text="f" xlink:href="#font_1_55" transform="matrix(9.963098,0,0,-9.962899,74.14132,166.08663)"/>
<use data-text="t" xlink:href="#font_1_105" transform="matrix(9.963098,0,0,-9.962899,80.50774,166.08663)"/>
<use data-text="h" xlink:href="#font_1_63" transform="matrix(9.963098,0,0,-9.962899,84.38338,166.08663)"/>
<use data-text="e" xlink:href="#font_1_50" transform="matrix(9.963098,0,0,-9.962899,89.92285,166.08663)"/>
<use data-text="l" xlink:href="#font_1_72" transform="matrix(9.963098,0,0,-9.962899,97.6642,166.08663)"/>
<use data-text="i" xlink:href="#font_1_66" transform="matrix(9.963098,0,0,-9.962899,100.433948,166.08663)"/>
<use data-text="g" xlink:href="#font_1_59" transform="matrix(9.963098,0,0,-9.962899,103.20369,166.08663)"/>
<use data-text="h" xlink:href="#font_1_63" transform="matrix(9.963098,0,0,-9.962899,108.18523,166.08663)"/>
<use data-text="t" xlink:href="#font_1_105" transform="matrix(9.963098,0,0,-9.962899,113.4557,166.08663)"/>
<use data-text="h" xlink:href="#font_1_63" transform="matrix(9.963098,0,0,-9.962899,117.331348,166.08663)"/>
<use data-text="o" xlink:href="#font_1_81" transform="matrix(9.963098,0,0,-9.962899,122.87082,166.08663)"/>
<use data-text="u" xlink:href="#font_1_109" transform="matrix(9.963098,0,0,-9.962899,127.85237,166.08663)"/>
<use data-text="s" xlink:href="#font_1_98" transform="matrix(9.963098,0,0,-9.962899,133.39185,166.08663)"/>
<use data-text="e" xlink:href="#font_1_50" transform="matrix(9.963098,0,0,-9.962899,137.3173,166.08663)"/>
<use data-text="?" xlink:href="#font_1_92" transform="matrix(9.963098,0,0,-9.962899,141.74092,166.08663)"/>
<path transform="matrix(1.00005,0,0,-1.00003,10.911797,155.54232)" stroke-width="1.19553" stroke-linecap="butt" stroke-dasharray="2.98883,2.98883" stroke-miterlimit="10" stroke-linejoin="miter" fill="none" stroke="#0000ff" d="M170.08086 141.73404 0 0"/>
<use data-text="5" xlink:href="#font_1_56" transform="matrix(9.963098,0,0,-9.962899,184.52146,87.88129)"/>
<use data-text="0" xlink:href="#font_1_121" transform="matrix(9.963098,0,0,-9.962899,189.50302,87.88129)"/>
<use data-text="m" xlink:href="#font_1_75" transform="matrix(9.963098,0,0,-9.962899,194.48456,87.88129)"/>
</svg>
