<svg xmlns="http://www.w3.org/2000/svg" xmlns:xlink="http://www.w3.org/1999/xlink" xmlns:inkscape="http://www.inkscape.org/namespaces/inkscape" version="1.1" width="246" height="157" viewBox="0 0 246 157">
<defs>
<path id="font_1_27" d="M.71699526 0V.0309906H.69898989C.6389923 .0309906 .625 .037979127 .6139984 .07095337L.397995 .6958008C.3929901 .7088165 .3909912 .7158203 .375 .7158203 .35899354 .7158203 .35598756 .70980837 .35099793 .6958008L.14399719 .09791565C.12599182 .04698181 .085998538 .03199768 .03199768 .0309906V0L.13398743 .0029907227 .24899292 0V.0309906C.19898987 .0309906 .17399597 .05596924 .17399597 .0819397 .17399597 .08493042 .1749878 .09492493 .17599488 .09692383L.22200012 .2277832H.46899415L.5219879 .07495117C.522995 .07095337 .5249939 .064956668 .5249939 .060958864 .5249939 .0309906 .46899415 .0309906 .44198609 .0309906V0C.47799684 .0029907227 .5479889 .0029907227 .58599856 .0029907227L.71699526 0M.45799256 .25878907H.23298645L.34498597 .58380129 .45799256 .25878907Z"/>
<path id="font_1_77" d="M.5349884 0V.0309906C.48298646 .0309906 .45799256 .0309906 .45700074 .061019899V.25221253C.45700074 .3383026 .45700074 .36932374 .42599488 .405365 .4119873 .42237855 .3789978 .4423828 .32099916 .4423828 .24798584 .4423828 .20098877 .39935304 .17298889 .33729554V.4423828L.03199768 .43066407V.3996582C.101989749 .3996582 .10998535 .39266969 .10998535 .34370423V.07595825C.10998535 .0309906 .09899902 .0309906 .03199768 .0309906V0L.14498902 .0029907227 .25698854 0V.0309906C.18998719 .0309906 .1789856 .0309906 .1789856 .07595825V.25978089C.1789856 .36431886 .25 .42037965 .31399537 .42037965 .3769989 .42037965 .3880005 .36631776 .3880005 .30926515V.076034549C.3880005 .0309906 .3769989 .0309906 .30999757 .0309906V0L.4229889 .0029907227 .5349884 0Z"/>
<path id="font_1_59" d="M.4850006 .40411378C.4850006 .42111207 .47299195 .453125 .43399049 .453125 .4139862 .453125 .36999513 .44711305 .32798768 .40611268 .28599549 .43937684 .24398804 .4423828 .22200012 .4423828 .1289978 .4423828 .05999756 .37338258 .05999756 .29638673 .05999756 .25239564 .08198547 .21440125 .10699463 .19340515 .09399414 .17840576 .07598877 .14538574 .07598877 .11035156 .07598877 .07899475 .08898926 .04083252 .11999512 .020828248 .05999756 .003829956 .027999878-.039138795 .027999878-.07911682 .027999878-.15107727 .1269989-.20605469 .24899292-.20605469 .36698915-.20605469 .47099305-.15507508 .47099305-.07711792 .47099305-.042144777 .45700074 .008834839 .4059906 .036834718 .35299684 .064834598 .29499818 .064834598 .23399353 .064834598 .20899964 .064834598 .1659851 .064834598 .15899658 .065841678 .1269989 .069885257 .10598755 .101242069 .10598755 .13334656 .10598755 .13735962 .10598755 .16040039 .12298584 .18040467 .1619873 .15240479 .20298767 .14941406 .22200012 .14941406 .31498719 .14941406 .38398744 .21839905 .38398744 .2953949 .38398744 .3323822 .36799623 .36938478 .34298707 .39237977 .3789978 .42637635 .4149933 .43138124 .43299867 .43138124 .43299867 .43112184 .43998719 .43112184 .44299317 .43011476 .43199159 .42611695 .4269867 .41513063 .4269867 .40315248 .4269867 .38616944 .43998719 .37417604 .45599366 .37417604 .46598817 .37417604 .4850006 .3811798 .4850006 .4041443V.40411378M.30899049 .29626466C.30899049 .26930238 .30799867 .2373352 .29299928 .21235657 .2849884 .20037842 .2619934 .17240906 .22200012 .17240906 .1349945 .17240906 .1349945 .2722931 .1349945 .29527284 .1349945 .3222351 .13598633 .35420228 .15098572 .3791809 .15899658 .3913269 .18199158 .41937257 .22200012 .41937257 .30899049 .41937257 .30899049 .31922914 .30899049 .29618836V.29626466M.4189911-.07911682C.4189911-.13308716 .34799195-.18305969 .25-.18305969 .14898682-.18305969 .07998657-.13209534 .07998657-.07911682 .07998657-.03314209 .117996219 .003829956 .1619873 .0068359377H.22099304C.30699159 .0068359377 .4189911 .0068359377 .4189911-.07911682Z"/>
<path id="font_1_72" d="M.25498963 0V.0309906C.18798828 .0309906 .1769867 .0309906 .1769867 .07601929V.69433596L.032989503 .6826172V.6516113C.102996829 .6516113 .11099243 .64460757 .11099243 .5956421V.07595825C.11099243 .0309906 .099990848 .0309906 .032989503 .0309906V0L.14399719 .0029907227 .25498963 0Z"/>
<path id="font_1_50" d="M.4149933 .11933899C.4149933 .12934876 .40699769 .13134766 .4019928 .13134766 .3929901 .13134766 .3909912 .12535095 .3889923 .11734009 .35398866 .014251709 .2639923 .014251709 .2539978 .014251709 .20399475 .014251709 .1639862 .044281007 .14099121 .08131409 .11099243 .12934876 .11099243 .19540406 .11099243 .23144531H.3899994C.4119873 .23144531 .4149933 .23144531 .4149933 .2524414 .4149933 .35131837 .36099244 .4482422 .23599243 .4482422 .11999512 .4482422 .027999878 .34532167 .027999878 .22042847 .027999878 .08631897 .1329956-.0107421879 .24798584-.0107421879 .36999513-.0107421879 .4149933 .10032654 .4149933 .11933899M.34899903 .2524414H.11199951C.117996219 .40126039 .20199585 .426239 .23599243 .426239 .33898927 .426239 .34899903 .2913971 .34899903 .2524414Z"/>
<path id="font_1_81" d="M.47099305 .21424866C.47099305 .34223939 .37098695 .4482422 .25 .4482422 .125 .4482422 .027999878 .3392334 .027999878 .21424866 .027999878 .085250858 .13198853-.0107421879 .24899292-.0107421879 .36999513-.0107421879 .47099305 .087249759 .47099305 .21424866M.3880005 .22224427C.3880005 .18624878 .3880005 .13224793 .3659973 .08824158 .34399415 .04324341 .2999878 .014251709 .25 .014251709 .20698548 .014251709 .16299439 .035247804 .13598633 .08125305 .11099243 .12524414 .11099243 .18624878 .11099243 .22224427 .11099243 .26124574 .11099243 .31523133 .1349945 .35923768 .1619873 .40522767 .20899964 .426239 .24899292 .426239 .29299928 .426239 .33599855 .40423585 .3619995 .36123658 .3880005 .3182373 .3880005 .26023866 .3880005 .22224427Z"/>
<path id="font_1_55" d="M.35699464 .63479617C.35699464 .6717987 .31999208 .7050781 .2669983 .7050781 .19699097 .7050781 .11199951 .65179446 .11199951 .5457611V.43066407H.032989503V.3996582H.11199951V.07595825C.11199951 .0309906 .100997928 .0309906 .033996583 .0309906V0L.147995 .0029907227C.18798828 .0029907227 .23498535 .0029907227 .2749939 0V.0309906H.2539978C.17999268 .0309906 .17799378 .04197693 .17799378 .07795715V.3996582H.2919922V.43066407H.1749878V.5467529C.1749878 .63479617 .22299195 .68307498 .2669983 .68307498 .269989 .68307498 .2849884 .68307498 .2999878 .675827 .28799439 .6717987 .269989 .6587982 .269989 .6338043 .269989 .61079409 .28599549 .5907898 .31298829 .5907898 .34199525 .5907898 .35699464 .61079409 .35699464 .63479617Z"/>
<path id="font_1_112" d="M.5079956 .3996582V.43066407C.4850006 .4286499 .45599366 .42765809 .43299867 .42765809L.34599305 .43066407V.3996582C.3829956 .39865113 .3939972 .37568666 .3939972 .35671998 .3939972 .34773255 .3919983 .34373475 .3880005 .3327484L.28599549 .078125 .17399597 .35671998C.16799927 .3697052 .16799927 .37368775 .16799927 .37368775 .16799927 .3996582 .20698548 .3996582 .22499085 .3996582V.43066407L.115997318 .42765809C.08898926 .42765809 .04899597 .4286499 .018997193 .43066407V.3996582C.08198547 .3996582 .085998538 .3936615 .09899902 .36271668L.24299622 .008224487C.24899292-.0057525637 .25099183-.0107421879 .2639923-.0107421879 .2769928-.0107421879 .2809906-.0017700195 .2849884 .008224487L.41600038 .3327484C.4249878 .3557129 .44198609 .39865113 .5079956 .3996582Z"/>
<path id="font_1_28" d="M.48298646 .08912659V.14511109H.45799256V.08912659C.45799256 .03112793 .43299867 .025131226 .42199708 .025131226 .3889923 .025131226 .3849945 .070129398 .3849945 .07511902V.27508546C.3849945 .31707765 .3849945 .3560791 .34899903 .39312745 .30999757 .43223573 .2599945 .4482422 .21199036 .4482422 .12998963 .4482422 .06098938 .40115357 .06098938 .335083 .06098938 .30508424 .08099365 .28808595 .10699463 .28808595 .1349945 .28808595 .15299988 .30807496 .15299988 .33407594 .15299988 .3460846 .147995 .37908937 .101989749 .38008119 .1289978 .41519166 .17799378 .426239 .20999146 .426239 .25898744 .426239 .31599427 .38710023 .31599427 .29808045V.26107789C.2649994 .25808717 .19499207 .25508119 .13198853 .22509766 .056991579 .19110108 .03199768 .13911438 .03199768 .09512329 .03199768 .014251709 .1289978-.0107421879 .19198609-.0107421879 .2579956-.0107421879 .3039856 .029251099 .32299806 .07624817 .32699586 .036132814 .35398866-.005859375 .40098573-.005859375 .42199708-.005859375 .48298646 .008132935 .48298646 .08912659M.31599427 .14013672C.31599427 .04525757 .24398804 .011245728 .19898987 .011245728 .1499939 .011245728 .10899353 .04624939 .10899353 .09625244 .10899353 .15124512 .15098572 .23425293 .31599427 .24024964V.14013672Z"/>
<path id="font_1_105" d="M.33198548 .12385559V.18066406H.30699159V.12585449C.30699159 .052108766 .2769928 .014251709 .23999024 .014251709 .17298889 .014251709 .17298889 .10491943 .17298889 .12187195V.3996582H.31599427V.43066407H.17298889V.6142578H.147995C.14698792 .5324249 .116989139 .42565919 .018997193 .42166139V.3996582H.10398865V.12408447C.10398865 .0012512207 .19699097-.0107421879 .23298645-.0107421879 .3039856-.0107421879 .33198548 .060180665 .33198548 .12408447V.12385559Z"/>
<path id="font_1_66" d="M.24699402 0V.0309906C.18099976 .0309906 .1769867 .035995485 .1769867 .075042728V.4423828L.036987306 .43066407V.3996582C.101989749 .3996582 .11099243 .3936615 .11099243 .3447113V.07595825C.11099243 .0309906 .099990848 .0309906 .032989503 .0309906V0L.14299011 .0029907227C.17799378 .0029907227 .21299744 .0009918213 .24699402 0M.19198609 .603775C.19198609 .6307678 .16899109 .6567688 .13899231 .6567688 .10499573 .6567688 .084991458 .6287689 .084991458 .603775 .084991458 .57676699 .10798645 .55078127 .13798523 .55078127 .17199707 .55078127 .19198609 .5787811 .19198609 .603775Z"/>
<path id="font_1_47" d="M.5269928 0V.0309906C.45700074 .0309906 .44898988 .038009645 .44898988 .0871582V.69433596L.30499269 .6826172V.6516113C.375 .6516113 .3829956 .64463809 .3829956 .59580996V.38035584C.35398866 .41636659 .31098939 .4423828 .25698854 .4423828 .13899231 .4423828 .033996583 .3443451 .033996583 .21531677 .033996583 .088272098 .13198853-.0107421879 .24598694-.0107421879 .30999757-.0107421879 .35499574 .023254395 .37998963 .055267335V-.0107421879L.5269928 0M.37998963 .117996219C.37998963 .099990848 .37998963 .09799194 .36898805 .08099365 .33898927 .033218385 .2939911 .011245728 .25099183 .011245728 .20599365 .011245728 .16999817 .037216188 .1459961 .075164798 .11999512 .1161499 .116989139 .17320252 .116989139 .21421814 .116989139 .25125123 .11898804 .31129457 .147995 .35632325 .16899109 .38734437 .20698548 .42037965 .26098634 .42037965 .29599 .42037965 .33799745 .405365 .36898805 .3603363 .37998963 .34332276 .37998963 .34132386 .37998963 .32330323V.117996219Z"/>
<path id="font_1_84" d="M.5209961 .21636963C.5209961 .34336854 .42399598 .4423828 .31199647 .4423828 .23399353 .4423828 .19198609 .39837647 .17199707 .3763733V.4423828L.027999878 .43066407V.3996582C.09899902 .3996582 .10598755 .3936615 .10598755 .34973146V-.117996219C.10598755-.16308594 .09498596-.16308594 .027999878-.16308594V-.1940918L.13999939-.19110108 .25299073-.1940918V-.16308594C.18598938-.16308594 .1749878-.16308594 .1749878-.117996219V.050186159 .059173585C.17999268 .04319763 .22200012-.0107421879 .2979889-.0107421879 .4169922-.0107421879 .5209961 .087127689 .5209961 .21594239V.21636963M.43798829 .21594239C.43798829 .09512329 .36799623 .011245728 .2939911 .011245728 .2539978 .011245728 .21598816 .031219483 .18899536 .07215881 .1749878 .09312439 .1749878 .09411621 .1749878 .114089969V.33674623C.20399475 .38838197 .25299073 .41737367 .3039856 .41737367 .3769989 .41737367 .43798829 .32937623 .43798829 .21636963V.21594239Z"/>
<path id="font_1_96" d="M.3639984 .38137818C.3639984 .41337586 .33299256 .4423828 .2899933 .4423828 .21699524 .4423828 .18099976 .37538148 .16699219 .3323822V.4423828L.027999878 .43066407V.3996582C.09799194 .3996582 .10598755 .39266969 .10598755 .34370423V.07595825C.10598755 .0309906 .09498596 .0309906 .027999878 .0309906V0L.14199829 .0029907227C.18199158 .0029907227 .22898865 .0029907227 .2689972 0V.0309906H.24798584C.17399597 .0309906 .17199707 .04197693 .17199707 .07795715V.23181153C.17199707 .33137513 .21398926 .42037965 .2899933 .42037965 .29699708 .42037965 .29899598 .42037965 .30099488 .41937257 .2979889 .41838075 .27799989 .40637208 .27799989 .3803711 .27799989 .35237123 .29899598 .33737184 .32099916 .33737184 .33898927 .33737184 .3639984 .3493805 .3639984 .38137818Z"/>
<path id="font_1_98" d="M.3600006 .12823487C.3600006 .18122864 .32998658 .21122742 .31799317 .22323609 .2849884 .25523377 .24598694 .26322938 .20399475 .27124024 .147995 .28224183 .08099365 .29522706 .08099365 .35324098 .08099365 .38822938 .10699463 .42922975 .19299317 .42922975 .30299378 .42922975 .30799867 .3392334 .30999757 .30822755 .31098939 .2992401 .32199098 .2992401 .32199098 .2992401 .33499146 .2992401 .33499146 .30422975 .33499146 .32322694V.4242401C.33499146 .4412384 .33499146 .4482422 .32398988 .4482422 .31900025 .4482422 .31698609 .4482422 .3039856 .43623353 .30099488 .43223573 .29100038 .42323304 .2869873 .42022706 .24899292 .4482422 .20799256 .4482422 .19299317 .4482422 .070999149 .4482422 .032989503 .38124085 .032989503 .3252411 .032989503 .29023744 .04899597 .26223756 .07598877 .24023438 .10798645 .2142334 .13598633 .2082367 .20799256 .19422913 .22999573 .19021607 .31199647 .17422486 .31199647 .10221863 .31199647 .051223756 .2769928 .011245728 .19898987 .011245728 .114990238 .011245728 .07899475 .068222049 .05999756 .1532135 .056991579 .16621399 .055999757 .17021179 .04598999 .17021179 .032989503 .17021179 .032989503 .16322327 .032989503 .1452179V.013214111C.032989503-.003753662 .032989503-.0107421879 .04399109-.0107421879 .04899597-.0107421879 .049987794-.009750366 .068984989 .009246826 .070999149 .011245728 .070999149 .013214111 .08898926 .032226564 .1329956-.009750366 .17799378-.0107421879 .19898987-.0107421879 .31399537-.0107421879 .3600006 .05621338 .3600006 .1282196V.12823487Z"/>
<path id="font_2_1" d="M.798996 .33924867C.798996 .5552521 .6539917 .6972656 .43199159 .6972656 .20298767 .6972656 .06399536 .5492554 .06399536 .33924867 .06399536 .13224793 .20399475-.0107421879 .43099977-.0107421879 .6609955-.0107421879 .798996 .13424683 .798996 .33924867M.43099977 .03125C.37199403 .03125 .29899598 .059249879 .2579956 .1352539 .22499085 .19725037 .21699524 .2682495 .21699524 .3542633 .21699524 .41825868 .21998596 .5032654 .2639923 .57125857 .30499269 .6322632 .37199403 .6572571 .43099977 .6572571 .49499513 .6572571 .56399539 .6292572 .60398867 .56326296 .6419983 .49925233 .6459961 .42225648 .6459961 .3542633 .6459961 .28425599 .6419983 .19525147 .59999087 .12625122 .5549927 .053253175 .4850006 .03125 .43099977 .03125Z"/>
<path id="font_2_2" d="M.21398926 .40118409V.69433596L.036987306 .6863251V.639328C.09899902 .639328 .10598755 .639328 .10598755 .600296V0H.15299988L.20199585 .056015016C.20999146 .04814148 .25898744-.005859375 .34799195-.005859375 .49699403-.005859375 .59999087 .08413696 .59999087 .22315979 .59999087 .35617066 .5059967 .4501953 .36099244 .4501953 .28799439 .4501953 .23799134 .42118836 .21398926 .40118409M.21998596 .09902954V.3501587C.24699402 .3851776 .29499818 .41418458 .34999085 .41418458 .47200013 .41418458 .47200013 .29312135 .47200013 .22309876 .47200013 .17607117 .47200013 .12104797 .44599916 .08201599 .4169922 .041000368 .37098695 .02999878 .33898927 .02999878 .2689972 .02999878 .22999573 .08403015 .21998596 .09902954Z"/>
<path id="font_2_5" d="M.08299255 .44218446V.39518739C.099990848 .39518739 .12199402 .39518739 .13699341 .39318849 .15899658 .38919068 .15899658 .37617494 .15899658 .35516358V-.042114259C.15899658-.09214783 .14399719-.16419983 .083999637-.16419983 .067993167-.16419983 .05999756-.16220093 .04499817-.15820313 .06399536-.14419556 .068984989-.123168949 .068984989-.108169559 .068984989-.073135379 .042999269-.04612732 .0069885256-.04612732-.03100586-.04612732-.056015016-.073135379-.056015016-.10916138-.056015016-.16619873 .0039978029-.20019531 .085998538-.20019531 .17199707-.20019531 .2669983-.14819336 .2669983-.042114259V.4501953L.08299255 .44218446M.2669983 .6173096C.2669983 .66030886 .23199463 .6953125 .18899536 .6953125 .1459961 .6953125 .11099243 .66030886 .11099243 .6173096 .11099243 .5743103 .1459961 .53930667 .18899536 .53930667 .23199463 .53930667 .2669983 .5743103 .2669983 .6173096Z"/>
<path id="font_2_4" d="M.46199037 .2179718C.48399354 .2179718 .49398805 .2179718 .49398805 .2449646 .49398805 .27598573 .48799134 .34906007 .43798829 .3991089 .40098573 .43511964 .34799195 .453125 .2789917 .453125 .11898804 .453125 .03199768 .35005189 .03199768 .22497559 .03199768 .09107971 .13198853-.005859375 .29299928-.005859375 .45098878-.005859375 .49398805 .10006714 .49398805 .11706543 .49398805 .13504029 .47499085 .13504029 .46998597 .13504029 .45298768 .13504029 .45098878 .13005066 .44499208 .11405945 .42399598 .066101077 .36698915 .03413391 .3019867 .03413391 .16099549 .03413391 .1599884 .16700745 .1599884 .2179718H.46199037M.1599884 .25097657C.1619873 .29000855 .16299439 .3320465 .18399048 .36506654 .20999146 .4051056 .25 .41711427 .2789917 .41711427 .3959961 .41711427 .397995 .28599549 .39898683 .25097657H.1599884Z"/>
<path id="font_2_3" d="M.3600006 .40711976C.34199525 .39111329 .33999635 .3701172 .33999635 .3611145 .33999635 .3171234 .375 .29812623 .4019928 .29812623 .43299867 .29812623 .46499635 .3191223 .46499635 .3611145 .46499635 .44711305 .34899903 .453125 .29100038 .453125 .11199951 .453125 .037994386 .3381195 .037994386 .22212219 .037994386 .08912659 .13198853-.005859375 .28599549-.005859375 .44799806-.005859375 .47799684 .11012268 .47799684 .117126468 .47799684 .13113404 .46398927 .13113404 .45399476 .13113404 .43598939 .13113404 .43499757 .12913513 .42999269 .11613464 .4039917 .053131105 .35598756 .03413391 .30499269 .03413391 .1659851 .03413391 .1659851 .18112183 .1659851 .22712708 .1659851 .28312684 .1659851 .41311646 .29499818 .41311646 .32998658 .41311646 .34700013 .41011048 .3600006 .40711976Z"/>
<path id="font_2_6" d="M.102996829 .3973236V.123184207C.102996829 .01612854 .18998719-.005859375 .26098634-.005859375 .33699037-.005859375 .38198854 .05114746 .38198854 .124176029V.17721558H.33499146V.12619019C.33499146 .058151246 .30299378 .03413391 .2749939 .03413391 .21699524 .03413391 .21699524 .09817505 .21699524 .1211853V.3973236H.36299134V.44433595H.21699524V.6352234H.16999817C.16899109 .5352783 .11999512 .43632508 .020996094 .43333436V.3973236H.102996829Z"/>
<path id="font_3_1" d="M.45498658 .5001831C.45498658 .56614688 .43699647 .7050781 .33499146 .7050781 .19599915 .7050781 .041992189 .42323304 .041992189 .19425965 .041992189 .100250247 .070999149-.0107421879 .1619873-.0107421879 .30299378-.0107421879 .45498658 .27627564 .45498658 .5001831M.147995 .36328126C.16499329 .42723084 .18499756 .5071869 .22499085 .57814028 .2519989 .6271057 .2889862 .68307498 .33399964 .68307498 .3829956 .68307498 .3889923 .6191101 .3889923 .56214907 .3889923 .5131836 .3809967 .46220399 .35699464 .36328126H.147995M.34799195 .3312683C.33699037 .28527833 .31599427 .2002716 .27799989 .12826538 .24299622 .060256959 .20498657 .011245728 .1619873 .011245728 .1289978 .011245728 .10798645 .040252687 .10798645 .133255 .10798645 .17526245 .11399841 .23326111 .13999939 .3312683H.34799195Z"/>
<path id="font_4_1" d="M.33499146 .63612368C.33499146 .6630554 .33299256 .6640625 .30499269 .6640625 .24099732 .6014404 .1499939 .6004486 .10899353 .6004486V.5644531C.1329956 .5644531 .19898987 .5644531 .2539978 .592453V.08203125C.2539978 .04899597 .2539978 .035995485 .1539917 .035995485H.115997318V0C.13398743 .0009918213 .25698854 .0039978029 .2939911 .0039978029 .32499696 .0039978029 .45098878 .0009918213 .47299195 0V.035995485H.43499757C.33499146 .035995485 .33499146 .04899597 .33499146 .08203125V.63612368Z"/>
<path id="font_4_2" d="M.5049896 .18203736H.47099305C.46798707 .16001892 .45799256 .100997928 .44499208 .09098816 .43699647 .084991458 .3600006 .084991458 .34599305 .084991458H.1619873C.2669983 .17803955 .3019867 .20603943 .3619995 .25306703 .43598939 .312088 .5049896 .374115 .5049896 .46914674 .5049896 .5900879 .39898683 .6640625 .2709961 .6640625 .14698792 .6640625 .06298828 .57710269 .06298828 .4851532 .06298828 .43414308 .10598755 .42915345 .115997318 .42915345 .13999939 .42915345 .16899109 .44615174 .16899109 .48214723 .16899109 .5001526 .1619873 .53515627 .10998535 .53515627 .14099121 .6060791 .20899964 .62805178 .2559967 .62805178 .35598756 .62805178 .4079895 .5501404 .4079895 .46914674 .4079895 .38212586 .34599305 .3130951 .31399537 .27708436L.07299805 .038986207C.06298828 .02999878 .06298828 .027999878 .06298828 0H.47499085L.5049896 .18203736Z"/>
<path id="font_1_58" d="M.7350006 .24145508V.27246095L.61299136 .26945497C.57299807 .26945497 .48799134 .26945497 .45199586 .27246095V.24145508H.48399354C.57398989 .24145508 .57699587 .23045349 .57699587 .19346619V.12948609C.57699587 .017532349 .44999696 .008529663 .42199708 .008529663 .35699464 .008529663 .15899658 .043518068 .15899658 .34155274 .15899658 .6410217 .35598756 .67407229 .41600038 .67407229 .522995 .67407229 .6139984 .5839386 .6339874 .43670655 .6359863 .42268373 .6359863 .41967774 .6499939 .41967774 .66600039 .41967774 .66600039 .42268373 .66600039 .44371034V.68107607C.66600039 .69807437 .66600039 .7050781 .6549988 .7050781 .651001 .7050781 .6469879 .7050781 .6389923 .69306948L.58898928 .61898806C.5569916 .6510315 .5029907 .7050781 .4039917 .7050781 .21798706 .7050781 .055999757 .546875 .055999757 .34155274 .055999757 .13648987 .21598816-.022460938 .4059906-.022460938 .47898866-.022460938 .5589905 .0035247803 .59298709 .06251526 .60598757 .040527345 .6459961 .0005340576 .6569977 .0005340576 .66600039 .0005340576 .66600039 .008529663 .66600039 .023529053V.19746399C.66600039 .2364502 .66999819 .24145508 .7350006 .24145508Z"/>
<path id="font_1_109" d="M.5349884 0V.0309906C.46499635 .0309906 .45700074 .037994386 .45700074 .08705139V.4423828L.30999757 .43066407V.3996582C.37998963 .3996582 .3880005 .39266969 .3880005 .34373475V.16601563C.3880005 .07910156 .33999635 .011245728 .2669983 .011245728 .18299866 .011245728 .1789856 .058135988 .1789856 .11009216V.4423828L.03199768 .43066407V.3996582C.10998535 .3996582 .10998535 .39666749 .10998535 .3078003V.15802002C.10998535 .080093387 .10998535-.0107421879 .2619934-.0107421879 .31799317-.0107421879 .3619995 .017242432 .3909912 .07910156V-.0107421879L.5349884 0Z"/>
</defs>
<path transform="matrix(1,0,0,-1.00003,29.641999,141.16376)" stroke-width=".79701" stroke-linecap="butt" stroke-miterlimit="10" stroke-linejoin="miter" fill="none" stroke="#000000" d="M-28.3468-14.17339H198.42766"/>
<path transform="matrix(1,0,0,-1.00003,29.641999,141.16376)" stroke-width=".79701" stroke-linecap="butt" stroke-miterlimit="10" stroke-linejoin="miter" fill="none" stroke="#000000" d="M28.3468 0V56.69362"/>
<path transform="matrix(1,0,0,-1.00003,29.641999,141.16376)" d="M34.01608 56.69362C34.01608 59.8247 31.47789 62.36288 28.3468 62.36288 25.21571 62.36288 22.67754 59.8247 22.67754 56.69362 22.67754 53.56252 25.21571 51.02434 28.3468 51.02434 31.47789 51.02434 34.01608 53.56252 34.01608 56.69362ZM28.3468 56.69362" fill="#00aeef"/>
<path transform="matrix(1,0,0,-1.00003,29.641999,141.16376)" stroke-width=".79701" stroke-linecap="butt" stroke-miterlimit="10" stroke-linejoin="miter" fill="none" stroke="#000000" d="M34.01608 56.69362C34.01608 59.8247 31.47789 62.36288 28.3468 62.36288 25.21571 62.36288 22.67754 59.8247 22.67754 56.69362 22.67754 53.56252 25.21571 51.02434 28.3468 51.02434 31.47789 51.02434 34.01608 53.56252 34.01608 56.69362ZM28.3468 56.69362"/>
<path transform="matrix(1,0,0,-1.00003,29.641999,141.16376)" stroke-width=".79701" stroke-linecap="butt" stroke-miterlimit="10" stroke-linejoin="miter" fill="none" stroke="#000000" d="M28.3468 56.69362 14.17339 42.5202"/>
<path transform="matrix(1,0,0,-1.00003,29.641999,141.16376)" stroke-width=".79701" stroke-linecap="butt" stroke-miterlimit="10" stroke-linejoin="miter" fill="none" stroke="#000000" d="M28.3468 56.69362 42.5202 42.5202"/>
<path transform="matrix(1,0,0,-1.00003,29.641999,141.16376)" stroke-width=".79701" stroke-linecap="butt" stroke-miterlimit="10" stroke-linejoin="miter" fill="none" stroke="#000000" d="M28.3468 0 19.84267-14.17339"/>
<path transform="matrix(1,0,0,-1.00003,29.641999,141.16376)" stroke-width=".79701" stroke-linecap="butt" stroke-miterlimit="10" stroke-linejoin="miter" fill="none" stroke="#000000" d="M28.3468 0 36.85092-14.17339"/>
<path transform="matrix(1,0,0,-1.00003,29.641999,141.16376)" stroke-width=".3985" stroke-linecap="butt" stroke-dasharray="2.98883,2.98883" stroke-miterlimit="10" stroke-linejoin="miter" fill="none" stroke="#000000" d="M28.3468 56.69362H198.42766"/>
<path transform="matrix(1,0,0,-1.00003,29.641999,141.16376)" stroke-width="1.19553" stroke-linecap="butt" stroke-miterlimit="10" stroke-linejoin="miter" fill="none" stroke="#000000" d="M28.3468 56.69362 170.08086 127.56062"/>
<path transform="matrix(1,0,0,-1.00003,29.641999,141.16376)" stroke-width="1.19553" stroke-linecap="butt" stroke-miterlimit="10" stroke-linejoin="miter" fill="none" stroke="#000000" d="M28.3468 56.69362 170.08086 14.17339"/>
<use data-text="A" xlink:href="#font_1_27" transform="matrix(9.9626,0,0,-9.962899,130.768,76.0038)" fill="#0000ff"/>
<use data-text="n" xlink:href="#font_1_77" transform="matrix(9.9626,0,0,-9.962899,138.23996,76.0038)" fill="#0000ff"/>
<use data-text="g" xlink:href="#font_1_59" transform="matrix(9.9626,0,0,-9.962899,143.77916,76.0038)" fill="#0000ff"/>
<use data-text="l" xlink:href="#font_1_72" transform="matrix(9.9626,0,0,-9.962899,148.76047,76.0038)" fill="#0000ff"/>
<use data-text="e" xlink:href="#font_1_50" transform="matrix(9.9626,0,0,-9.962899,151.53006,76.0038)" fill="#0000ff"/>
<use data-text="o" xlink:href="#font_1_81" transform="matrix(9.9626,0,0,-9.962899,159.26105,76.0038)" fill="#0000ff"/>
<use data-text="f" xlink:href="#font_1_55" transform="matrix(9.9626,0,0,-9.962899,164.24234,76.0038)" fill="#0000ff"/>
<use data-text="e" xlink:href="#font_1_50" transform="matrix(9.9626,0,0,-9.962899,170.60846,76.0038)" fill="#0000ff"/>
<use data-text="l" xlink:href="#font_1_72" transform="matrix(9.9626,0,0,-9.962899,175.03186,76.0038)" fill="#0000ff"/>
<use data-text="e" xlink:href="#font_1_50" transform="matrix(9.9626,0,0,-9.962899,177.80146,76.0038)" fill="#0000ff"/>
<use data-text="v" xlink:href="#font_1_112" transform="matrix(9.9626,0,0,-9.962899,182.22486,76.0038)" fill="#0000ff"/>
<use data-text="a" xlink:href="#font_1_28" transform="matrix(9.9626,0,0,-9.962899,186.93717,76.0038)" fill="#0000ff"/>
<use data-text="t" xlink:href="#font_1_105" transform="matrix(9.9626,0,0,-9.962899,191.91846,76.0038)" fill="#0000ff"/>
<use data-text="i" xlink:href="#font_1_66" transform="matrix(9.9626,0,0,-9.962899,195.79392,76.0038)" fill="#0000ff"/>
<use data-text="o" xlink:href="#font_1_81" transform="matrix(9.9626,0,0,-9.962899,198.56354,76.0038)" fill="#0000ff"/>
<use data-text="n" xlink:href="#font_1_77" transform="matrix(9.9626,0,0,-9.962899,203.54483,76.0038)" fill="#0000ff"/>
<use data-text="A" xlink:href="#font_1_27" transform="matrix(9.9626,0,0,-9.962899,127.516,98.014469)" fill="#ff0000"/>
<use data-text="n" xlink:href="#font_1_77" transform="matrix(9.9626,0,0,-9.962899,134.98795,98.014469)" fill="#ff0000"/>
<use data-text="g" xlink:href="#font_1_59" transform="matrix(9.9626,0,0,-9.962899,140.52716,98.014469)" fill="#ff0000"/>
<use data-text="l" xlink:href="#font_1_72" transform="matrix(9.9626,0,0,-9.962899,145.50846,98.014469)" fill="#ff0000"/>
<use data-text="e" xlink:href="#font_1_50" transform="matrix(9.9626,0,0,-9.962899,148.27808,98.014469)" fill="#ff0000"/>
<use data-text="o" xlink:href="#font_1_81" transform="matrix(9.9626,0,0,-9.962899,156.00907,98.014469)" fill="#ff0000"/>
<use data-text="f" xlink:href="#font_1_55" transform="matrix(9.9626,0,0,-9.962899,160.99036,98.014469)" fill="#ff0000"/>
<use data-text="d" xlink:href="#font_1_47" transform="matrix(9.9626,0,0,-9.962899,167.35645,98.014469)" fill="#ff0000"/>
<use data-text="e" xlink:href="#font_1_50" transform="matrix(9.9626,0,0,-9.962899,172.89566,98.014469)" fill="#ff0000"/>
<use data-text="p" xlink:href="#font_1_84" transform="matrix(9.9626,0,0,-9.962899,177.31906,98.014469)" fill="#ff0000"/>
<use data-text="r" xlink:href="#font_1_96" transform="matrix(9.9626,0,0,-9.962899,182.85825,98.014469)" fill="#ff0000"/>
<use data-text="e" xlink:href="#font_1_50" transform="matrix(9.9626,0,0,-9.962899,186.76358,98.014469)" fill="#ff0000"/>
<use data-text="s" xlink:href="#font_1_98" transform="matrix(9.9626,0,0,-9.962899,191.18698,98.014469)" fill="#ff0000"/>
<use data-text="s" xlink:href="#font_1_98" transform="matrix(9.9626,0,0,-9.962899,195.11225,98.014469)" fill="#ff0000"/>
<use data-text="i" xlink:href="#font_1_66" transform="matrix(9.9626,0,0,-9.962899,199.0375,98.014469)" fill="#ff0000"/>
<use data-text="o" xlink:href="#font_1_81" transform="matrix(9.9626,0,0,-9.962899,201.80713,98.014469)" fill="#ff0000"/>
<use data-text="n" xlink:href="#font_1_77" transform="matrix(9.9626,0,0,-9.962899,206.78842,98.014469)" fill="#ff0000"/>
<path transform="matrix(1,0,0,-1.00003,29.641999,141.16376)" stroke-width=".79701" stroke-linecap="butt" stroke-miterlimit="10" stroke-linejoin="miter" fill="none" stroke="#000000" d="M170.08086 127.56062V138.89917H212.60106V127.56062ZM212.60106 138.89917"/>
<path transform="matrix(1,0,0,-1.00003,29.641999,141.16376)" stroke-width=".79701" stroke-linecap="butt" stroke-miterlimit="10" stroke-linejoin="miter" fill="none" stroke="#000000" d="M170.08086 14.17339V25.51193H212.60106V14.17339ZM212.60106 25.51193"/>
<use data-text="O" xlink:href="#font_2_1" transform="matrix(9.9626,0,0,-9.962899,202.612,11.83786)"/>
<use data-text="b" xlink:href="#font_2_2" transform="matrix(9.9626,0,0,-9.962899,211.20972,11.83786)"/>
<use data-text="j" xlink:href="#font_2_5" transform="matrix(9.9626,0,0,-9.962899,218.19351,11.83786)"/>
<use data-text="e" xlink:href="#font_2_4" transform="matrix(9.9626,0,0,-9.962899,221.69039,11.83786)"/>
<use data-text="c" xlink:href="#font_2_3" transform="matrix(9.9626,0,0,-9.962899,226.94068,11.83786)"/>
<use data-text="t" xlink:href="#font_2_6" transform="matrix(9.9626,0,0,-9.962899,232.03156,11.83786)"/>
<use data-text="O" xlink:href="#font_2_1" transform="matrix(9.9626,0,0,-9.962899,202.612,125.22828)"/>
<use data-text="b" xlink:href="#font_2_2" transform="matrix(9.9626,0,0,-9.962899,211.20972,125.22828)"/>
<use data-text="j" xlink:href="#font_2_5" transform="matrix(9.9626,0,0,-9.962899,218.19351,125.22828)"/>
<use data-text="e" xlink:href="#font_2_4" transform="matrix(9.9626,0,0,-9.962899,221.69039,125.22828)"/>
<use data-text="c" xlink:href="#font_2_3" transform="matrix(9.9626,0,0,-9.962899,226.94068,125.22828)"/>
<use data-text="t" xlink:href="#font_2_6" transform="matrix(9.9626,0,0,-9.962899,232.03156,125.22828)"/>
<path transform="matrix(1,0,0,-1.00003,29.641999,141.16376)" stroke-width="1.19553" stroke-linecap="butt" stroke-miterlimit="10" stroke-linejoin="miter" fill="none" stroke="#000000" d="M51.02432 56.69362C51.02432 60.00374 50.29834 63.2779 48.89967 66.27763"/>
<path transform="matrix(1,0,0,-1.00003,29.641999,141.16376)" stroke-width="1.19553" stroke-linecap="butt" stroke-miterlimit="10" stroke-linejoin="miter" fill="none" stroke="#000000" d="M51.02432 56.69362C51.02432 53.38348 50.29834 50.10933 48.89967 47.10959"/>
<use data-text="&#x03b8;" xlink:href="#font_3_1" transform="matrix(9.9626,0,0,-9.962899,98.36,77.258838)"/>
<use data-text="1" xlink:href="#font_4_1" transform="matrix(6.9738,0,0,-6.9740097,103.036,78.752887)"/>
<use data-text="&#x03b8;" xlink:href="#font_3_1" transform="matrix(9.9626,0,0,-9.962899,98.36,97.10243)"/>
<use data-text="2" xlink:href="#font_4_2" transform="matrix(6.9738,0,0,-6.9740097,103.036,98.59648)"/>
<use data-text="G" xlink:href="#font_1_58" transform="matrix(9.9626,0,0,-9.962899,211.407,151.70807)"/>
<use data-text="r" xlink:href="#font_1_96" transform="matrix(9.9626,0,0,-9.962899,219.22763,151.70807)"/>
<use data-text="o" xlink:href="#font_1_81" transform="matrix(9.9626,0,0,-9.962899,223.13298,151.70807)"/>
<use data-text="u" xlink:href="#font_1_109" transform="matrix(9.9626,0,0,-9.962899,228.11428,151.70807)"/>
<use data-text="n" xlink:href="#font_1_77" transform="matrix(9.9626,0,0,-9.962899,233.65348,151.70807)"/>
<use data-text="d" xlink:href="#font_1_47" transform="matrix(9.9626,0,0,-9.962899,239.19268,151.70807)"/>
</svg>
