<svg xmlns="http://www.w3.org/2000/svg" xmlns:xlink="http://www.w3.org/1999/xlink" xmlns:inkscape="http://www.inkscape.org/namespaces/inkscape" version="1.1" width="146" height="70" viewBox="0 0 146 70">
<defs>
<path id="font_1_2" d="M.73999026 .577652C.7509918 .620636 .7669983 .6506195 .84298709 .6536102 .84599307 .6536102 .8580017 .65460208 .8580017 .6716156 .8580017 .6826172 .848999 .6826172 .8450012 .6826172 .82499697 .6826172 .7739868 .680603 .7539978 .680603H.70599368C.69200137 .680603 .673996 .6826172 .6599884 .6826172 .6539917 .6826172 .6419983 .6826172 .6419983 .66360476 .6419983 .6536102 .6499939 .6536102 .6569977 .6536102 .71699526 .6516113 .72099307 .6286316 .72099307 .6106415 .72099307 .6016388 .7200012 .5986481 .71699526 .58465579L.60398867 .13392639 .3899994 .66560366C.3829956 .6816101 .38198854 .6826172 .3600006 .6826172H.23799134C.21798706 .6826172 .20899964 .6826172 .20899964 .66360476 .20899964 .6536102 .21598816 .6536102 .23498535 .6536102 .23999024 .6536102 .29899598 .6536102 .29899598 .6446228 .29899598 .6426239 .29699708 .6346283 .29599 .6316223L.16299439 .10194397C.15098572 .052978517 .1269989 .03199768 .06098938 .0289917 .055999757 .0289917 .04598999 .027999878 .04598999 .009994507 .04598999 0 .055999757 0 .05899048 0 .07899475 0 .12998963 .0019989014 .1499939 .0019989014H.19799805C.21199036 .0019989014 .22898865 0 .24299622 0 .25 0 .26098634 0 .26098634 .018997193 .26098634 .027999878 .25099183 .0289917 .24699402 .0289917 .21398926 .02999878 .18199158 .035995485 .18199158 .07196045 .18199158 .079956058 .18399048 .08895874 .18598938 .096954349L.32099916 .6316223C.32699586 .6216278 .32699586 .6196289 .33099366 .6106415L.56900027 .017990113C.57398989 .005996704 .57598879 0 .58499148 0 .59498599 0 .59599307 .0029907227 .59999087 .019989014L.73999026 .577652Z"/>
<path id="font_1_1" d="M.9079895 .6096344C.9169922 .6436157 .9189911 .6536102 .98999026 .6536102 1.0089874 .6536102 1.0179901 .6536102 1.0179901 .6726074 1.0179901 .6826172 1.0110016 .6826172 .99198916 .6826172H.871994C.8470001 .6826172 .84599307 .6816101 .83499148 .66560366L.46998597 .08895874 .394989 .660614C.3919983 .6826172 .3909912 .6826172 .36499024 .6826172H.24099732C.22200012 .6826172 .21299744 .6826172 .21299744 .66360476 .21299744 .6536102 .22200012 .6536102 .23699951 .6536102 .2979889 .6536102 .2979889 .6456146 .2979889 .6346283 .2979889 .6326294 .2979889 .6266327 .2939911 .6116333L.1659851 .10194397C.1539917 .053970338 .1309967 .03199768 .06399536 .0289917 .06098938 .0289917 .04899597 .027999878 .04899597 .010986328 .04899597 0 .057998659 0 .06199646 0 .08198547 0 .1329956 .0019989014 .15299988 .0019989014H.20098877C.21499634 .0019989014 .23199463 0 .24598694 0 .25299073 0 .2639923 0 .2639923 .018997193 .2639923 .027999878 .2539978 .0289917 .25 .0289917 .21699524 .02999878 .18499756 .035995485 .18499756 .07196045 .18499756 .081954959 .18499756 .082962039 .18899536 .096954349L.32699586 .6476135H.32798768L.41099549 .026992798C.4139862 .0029907227 .4149933 0 .42399598 0 .43499757 0 .43998719 .0079956059 .44499208 .016998291L.8470001 .6526184H.84799197L.7029877 .07395935C.69400027 .038986207 .69200137 .0289917 .621994 .0289917 .6029968 .0289917 .59298709 .0289917 .59298709 .010986328 .59298709 0 .60198977 0 .60798647 0 .625 0 .644989 .0019989014 .6619873 .0019989014H.7799988C.7969971 .0019989014 .81799319 0 .83499148 0 .84298709 0 .85398867 0 .85398867 .018997193 .85398867 .0289917 .8450012 .0289917 .8299866 .0289917 .7689972 .0289917 .7689972 .036987306 .7689972 .04698181 .7689972 .047973634 .7689972 .054977418 .7709961 .06297302L.9079895 .6096344Z"/>
<path id="font_1_4" d="M.42599488 .005508423C.59799197 .07449341 .7259979 .25660707 .7259979 .43780519 .7259979 .6029968 .6179962 .70410159 .47799684 .70410159 .2639923 .70410159 .04798889 .47384645 .04798889 .24258423 .04798889 .085494998 .1519928-.021484375 .29699708-.021484375 .33099366-.021484375 .3639984-.016494751 .3959961-.0064849855 .3899994-.06640625 .3899994-.07141113 .3899994-.09037781 .3899994-.11933899 .3899994-.19433594 .46998597-.19433594 .58898928-.19433594 .6329956-.0074920656 .6329956-.0014953613 .6329956 .004501343 .6289978 .008514404 .6239929 .008514404 .6179962 .008514404 .6159973 .0035095216 .61299136-.0074920656 .59098818-.07040405 .5389862-.1063385 .49499513-.1063385 .44400025-.1063385 .43099977-.07141113 .42599488 .005508423M.24598694 .010513306C.16699219 .037506105 .1289978 .1204834 .1289978 .21255493 .1289978 .28263856 .15499878 .41578675 .22099304 .51690676 .29499818 .6310272 .3939972 .6820984 .47200013 .6820984 .57598879 .6820984 .6459961 .59799197 .6459961 .46784974 .6459961 .39375306 .61099246 .1454773 .4229889 .035507204 .41799928 .08648682 .4039917 .14648438 .33799745 .14648438 .28399659 .14648438 .23799134 .09248352 .23799134 .043502809 .23799134 .03250122 .24198914 .017501831 .24598694 .010513306M.397995 .022506714C.3619995 .006500244 .33099366 .00050354006 .30299378 .00050354006 .29299928 .00050354006 .2579956 .00050354006 .2579956 .04449463 .2579956 .08049011 .29299928 .1264801 .33799745 .1264801 .3880005 .1264801 .39898683 .09248352 .39898683 .042495729 .39898683 .036499025 .39898683 .028503418 .397995 .022506714Z"/>
<path id="font_1_3" d="M.29599 .3177948H.46398927C.60198977 .3177948 .73999026 .41973878 .73999026 .53367617 .73999026 .6116333 .673996 .6826172 .5479889 .6826172H.23899842C.21998596 .6826172 .21099854 .6826172 .21099854 .66360476 .21099854 .6536102 .21998596 .6536102 .23498535 .6536102 .29599 .6536102 .29599 .6456146 .29599 .63461306 .29599 .63261416 .29599 .62661746 .2919922 .6116333L.15699768 .07395935C.147995 .038986207 .1459961 .0289917 .07598877 .0289917 .056991579 .0289917 .04699707 .0289917 .04699707 .010986328 .04699707 0 .055999757 0 .06199646 0 .08099365 0 .100997928 .0019989014 .11999512 .0019989014H.23699951C.2559967 .0019989014 .2769928 0 .29599 0 .3039856 0 .31498719 0 .31498719 .018997193 .31498719 .0289917 .30599977 .0289917 .29100038 .0289917 .23098755 .0289917 .22999573 .035980226 .22999573 .04597473 .22999573 .050979616 .23098755 .05796814 .23199463 .06297302L.29599 .3177948M.36799623 .614624C.3769989 .6516113 .3809967 .6536102 .41999818 .6536102H.5189972C.59399417 .6536102 .6559906 .6296234 .6559906 .55467227 .6559906 .5286865 .6429901 .4437256 .5970001 .39775086 .5799866 .37976075 .5319977 .34179688 .44099427 .34179688H.2999878L.36799623 .614624Z"/>
</defs>
<path transform="matrix(1.00008,0,0,-1,74.009738,62.698)" stroke-width=".79701" stroke-linecap="butt" stroke-miterlimit="10" stroke-linejoin="miter" fill="none" stroke="#000000" d="M0 56.69362H56.69362"/>
<use data-text="N" xlink:href="#font_1_2" transform="matrix(11.956157,0,0,-11.9552,134.42757,10.089001)"/>
<path transform="matrix(1.00008,0,0,-1,74.009738,62.698)" stroke-width=".79701" stroke-linecap="butt" stroke-miterlimit="10" stroke-linejoin="miter" fill="none" stroke="#000000" d="M-56.69362 56.69362H0"/>
<use data-text="M" xlink:href="#font_1_1" transform="matrix(11.956157,0,0,-11.9552,1.2169037,10.089001)"/>
<path transform="matrix(1.00008,0,0,-1,74.009738,62.698)" stroke-width=".79701" stroke-linecap="butt" stroke-miterlimit="10" stroke-linejoin="miter" fill="none" stroke="#000000" d="M0 0H56.69362"/>
<use data-text="Q" xlink:href="#font_1_4" transform="matrix(11.956157,0,0,-11.9552,134.42757,65.62)"/>
<path transform="matrix(1.00008,0,0,-1,74.009738,62.698)" stroke-width=".79701" stroke-linecap="butt" stroke-miterlimit="10" stroke-linejoin="miter" fill="none" stroke="#000000" d="M-56.69362 0H0"/>
<use data-text="P" xlink:href="#font_1_3" transform="matrix(11.956157,0,0,-11.9552,4.6191866,66.783008)"/>
<path transform="matrix(1.00008,0,0,-1,74.009738,62.698)" stroke-width=".3985" stroke-linecap="butt" stroke-miterlimit="10" stroke-linejoin="miter" fill="none" stroke="#000000" d="M-5.66927 56.69362H-8.30478"/>
<path transform="matrix(1.00008,0,0,-1,65.70429,6.004383)" d="M7.48325 0C6.56427 .22145 2.52473 1.47643 0 2.8421V-2.8421C2.52473-1.47643 6.56427-.22145 7.48325 0Z"/>
<path transform="matrix(1.00008,0,0,-1,65.70429,6.004383)" stroke-width=".3985" stroke-linecap="butt" stroke-miterlimit="10" stroke-linejoin="miter" fill="none" stroke="#000000" d="M7.48325 0C6.56427 .22145 2.52473 1.47643 0 2.8421V-2.8421C2.52473-1.47643 6.56427-.22145 7.48325 0Z"/>
<path transform="matrix(1.00008,0,0,-1,74.009738,62.698)" stroke-width=".3985" stroke-linecap="butt" stroke-miterlimit="10" stroke-linejoin="miter" fill="none" stroke="#000000" d="M-5.66927 0H-8.30478"/>
<path transform="matrix(1.00008,0,0,-1,65.70429,62.698)" d="M7.48325 0C6.56427 .22145 2.52473 1.47643 0 2.8421V-2.8421C2.52473-1.47643 6.56427-.22145 7.48325 0Z"/>
<path transform="matrix(1.00008,0,0,-1,65.70429,62.698)" stroke-width=".3985" stroke-linecap="butt" stroke-miterlimit="10" stroke-linejoin="miter" fill="none" stroke="#000000" d="M7.48325 0C6.56427 .22145 2.52473 1.47643 0 2.8421V-2.8421C2.52473-1.47643 6.56427-.22145 7.48325 0Z"/>
</svg>
