<svg xmlns="http://www.w3.org/2000/svg" xmlns:xlink="http://www.w3.org/1999/xlink" xmlns:inkscape="http://www.inkscape.org/namespaces/inkscape" version="1.1" width="344" height="429" viewBox="0 0 344 429">
<defs>
<path id="font_1_1" d="M.49198915 .40434266C.45498658 .39733888 .44400025 .3653412 .44400025 .3503418 .44400025 .33132936 .45799256 .31433106 .48298646 .31433106 .5109863 .31433106 .5379944 .33833314 .5379944 .3733368 .5379944 .41937257 .48799134 .4423828 .44099427 .4423828 .3809967 .4423828 .34599305 .38934327 .33399964 .3683319 .31498719 .41737367 .2709961 .4423828 .22299195 .4423828 .115997318 .4423828 .057998659 .31433106 .057998659 .28833009 .057998659 .2793274 .06498718 .2763214 .07199097 .2763214 .08099365 .2763214 .083999637 .2813263 .085998538 .287323 .116989139 .38633729 .18299866 .41737367 .22099304 .41737367 .25 .41737367 .27598573 .3983307 .27598573 .35133363 .27598573 .31533814 .23298645 .15530396 .21998596 .107284549 .21199036 .076293949 .18199158 .014251709 .1269989 .014251709 .10699463 .014251709 .085998538 .021270752 .07598877 .027282715 .102996829 .032287599 .12298584 .055282594 .12298584 .08128357 .12298584 .106292728 .10398865 .11729431 .084991458 .11729431 .055999757 .11729431 .02999878 .092285159 .02999878 .058288576 .02999878 .009246826 .083999637-.0107421879 .12599182-.0107421879 .18399048-.0107421879 .21798706 .03729248 .23298645 .06428528 .2579956-.0017547608 .31698609-.0107421879 .34399415-.0107421879 .45199586-.0107421879 .5089874 .11929321 .5089874 .14329529 .5089874 .14830017 .5059967 .15530396 .49598695 .15530396 .4850006 .15530396 .48399354 .1512909 .47898866 .1362915 .45700074 .06428528 .39898683 .014251709 .34700013 .014251709 .31799317 .014251709 .29100038 .032287599 .29100038 .08029175 .29100038 .10229492 .30499269 .15730286 .31399537 .1953125 .31799317 .21331787 .34498597 .32133485 .34700013 .32833863 .35899354 .3643341 .3889923 .41737367 .43998719 .41737367 .45799256 .41737367 .47698976 .41436769 .49198915 .40434266Z"/>
<path id="font_1_2" d="M.5019989 .38536073C.5029907 .3903656 .5049896 .39637757 .5049896 .40237428 .5049896 .41537477 .49598695 .43138124 .47399903 .43138124 .46099855 .43138124 .44299317 .42337037 .43499757 .40437318 .43399049 .40037538 .42399598 .35935975 .41799928 .33735658L.36799623 .13728333C.3600006 .10827637 .3600006 .106277469 .35798646 .09727478 .35699464 .09327698 .31498719 .014251709 .24299622 .014251709 .18099976 .014251709 .18099976 .07727051 .18099976 .09628296 .18099976 .14129639 .19400025 .19030762 .23699951 .30233766 .24499512 .3253479 .25099183 .33935548 .25099183 .35835267 .25099183 .40737916 .21398926 .4423828 .16499329 .4423828 .068984989 .4423828 .0289917 .30033876 .0289917 .28833009 .0289917 .2793274 .035995485 .27633668 .042999269 .27633668 .053985597 .27633668 .054992677 .28233338 .05899048 .29533387 .07998657 .3693695 .11999512 .41737367 .1619873 .41737367 .18598938 .41737367 .18598938 .39837647 .18598938 .3843689 .18598938 .36735536 .18199158 .34934999 .17298889 .3253479 .12599182 .2013092 .11299133 .15930176 .11299133 .11128235 .11299133 .00024414063 .20298767-.0107421879 .23999024-.0107421879 .2889862-.0107421879 .32398988 .01524353 .34199525 .0332489 .32899476-.017745972 .31799317-.0627594 .2789917-.11276245 .24899292-.15286255 .20899964-.18008423 .16499329-.18008423 .13699341-.18008423 .10398865-.16999817 .08999634-.14176941 .14299011-.14176941 .1499939-.09776306 .1499939-.087768558 .1499939-.06576538 .13398743-.051757814 .11199951-.051757814 .08799744-.051757814 .055999757-.07077026 .055999757-.116760257 .055999757-.16899109 .101989749-.20507813 .16499329-.20507813 .2669983-.20507813 .37599183-.117767337 .40499879-.00074768069L.5019989 .38536073Z"/>
<path id="font_2_64" d="M.2849884 .1850586V.24707031H.010986328V.1850586H.2849884Z"/>
<path id="font_2_57" d="M.48399354 .16503906V.19602967H.38198854V.649765C.38198854 .669754 .38198854 .6767578 .36299134 .6767578 .35099793 .6767578 .34999085 .67575076 .34098817 .6617584L.0289917 .19602967V.16503906H.3019867V.07901001C.3019867 .041992189 .29899598 .0309906 .22399903 .0309906H.20199585V0C.2649994 .0029907227 .33499146 .0029907227 .34199525 .0029907227 .34700013 .0029907227 .4189911 .0029907227 .48199464 0V.0309906H.45999146C.3849945 .0309906 .38198854 .041992189 .38198854 .07901001V.16503906H.48399354M.30799867 .19602967H.06098938L.30799867 .56581118V.19602967Z"/>
<path id="font_2_106" d="M.46998597 .17008972C.46998597 .25709535 .40098573 .33110047 .30499269 .35209657 .397995 .38710023 .44198609 .46009828 .44198609 .5290985 .44198609 .60606387 .35699464 .6660156 .25299073 .6660156 .14898682 .6660156 .070999149 .60705569 .070999149 .5310974 .070999149 .49809266 .09298706 .47909547 .12199402 .47909547 .15098572 .47909547 .17199707 .50009158 .17199707 .5290985 .17199707 .5640869 .147995 .57910159 .11399841 .57910159 .13999939 .6210327 .20098877 .64100649 .25 .64100649 .33299256 .64100649 .34899903 .5750885 .34899903 .52809146 .34899903 .49809266 .34298707 .45005799 .31799317 .41201783 .2869873 .36695863 .2519989 .36495973 .22299195 .36296083 .19799805 .36094667 .19599915 .36094667 .18798828 .36094667 .1789856 .35995484 .17098999 .35894776 .17098999 .34794618 .17098999 .33496095 .1789856 .33496095 .19599915 .33496095H.24299622C.32998658 .33496095 .36799623 .2646637 .36799623 .16937256 .36799623 .04145813 .2999878 .0055389406 .24899292 .0055389406 .22999573 .0055389406 .1329956 .010528564 .08799744 .0843811 .12399292 .07939148 .1519928 .10437012 .1519928 .13838196 .1519928 .17137146 .1269989 .19238281 .09799194 .19238281 .07299805 .19238281 .042999269 .17736817 .042999269 .13537598 .042999269 .046447755 .13598633-.022460938 .2519989-.022460938 .3769989-.022460938 .46998597 .06741333 .46998597 .16937256V.17008972Z"/>
<path id="font_2_107" d="M.46199037 .17704773H.43399049C.43199159 .16404724 .42399598 .10501099 .41099549 .08900452 .40499879 .07998657 .33599855 .07998657 .31599427 .07998657H.13798523L.23699951 .17404175C.40098573 .3161316 .46199037 .36915589 .46199037 .4711914 .46199037 .5860901 .36698915 .6660156 .24398804 .6660156 .1289978 .6660156 .050994874 .575119 .050994874 .4841919 .050994874 .43418885 .09399414 .42919923 .102996829 .42919923 .125 .42919923 .15499878 .44519044 .15499878 .48120118 .15499878 .51119998 .13398743 .5332031 .102996829 .5332031 .09799194 .5332031 .09498596 .5332031 .09098816 .53219607 .114990238 .6030731 .1789856 .63500979 .23298645 .63500979 .33499146 .63500979 .36999513 .5401764 .36999513 .4711914 .36999513 .36915589 .29299928 .28611756 .24499512 .23408509L.06199646 .035995485C.050994874 .024993897 .050994874 .022994996 .050994874 0H.43399049L.46199037 .17704773Z"/>
<path id="font_2_82" d="M.43199159 0V.0309906H.3999939C.30699159 .0309906 .3039856 .042999269 .3039856 .08001709V.63912966C.3039856 .6640167 .30299378 .6660156 .27799989 .6660156 .21598816 .60227969 .12399292 .60227969 .09298706 .60227969V.57128909C.11199951 .57128909 .17298889 .57128909 .22698975 .5972748V.08001709C.22698975 .042999269 .22399903 .0309906 .1309967 .0309906H.09899902V0C.1349945 .0029907227 .22399903 .0029907227 .2649994 .0029907227 .30599977 .0029907227 .3959961 .0029907227 .43199159 0Z"/>
<path id="font_2_56" d="M.46199037 .19992066C.46199037 .3209076 .37599183 .41992188 .2669983 .41992188 .21899414 .41992188 .16999817 .4039154 .1349945 .36791993V.5647888C.16499329 .55578616 .19599915 .55078127 .22698975 .55078127 .34999085 .55078127 .42199708 .63983157 .42199708 .6529236 .42199708 .6619873 .41600038 .6660156 .41099549 .6660156 .41099549 .6660156 .40699769 .6660156 .397995 .6609802 .35099793 .6418457 .30499269 .63378909 .2630005 .63378909 .21998596 .63378909 .1749878 .6418457 .1289978 .6609802 .11898804 .6660156 .115997318 .6660156 .115997318 .6660156 .10398865 .6660156 .10398865 .6559448 .10398865 .63882449V.34490968C.10398865 .32699586 .10398865 .31599427 .117996219 .31599427 .12599182 .31562806 .1289978 .3196411 .1349945 .32867433 .16499329 .37083436 .21299744 .39491273 .2649994 .39491273 .37199403 .39491273 .37199403 .24035645 .37199403 .20422364 .37199403 .17321778 .37199403 .11122131 .34399415 .06636047 .31698609 .024475098 .2749939 .0055389406 .23599243 .0055389406 .1769867 .0055389406 .10998535 .042419435 .085998538 .11621094 .085998538 .116882327 .09298706 .11488342 .099990848 .11488342 .11999512 .11488342 .14898682 .12788391 .14898682 .1638794 .14898682 .19488526 .1269989 .21289063 .099990848 .21289063 .07899475 .21289063 .050994874 .20088196 .050994874 .16088867 .050994874 .069732669 .1269989-.022460938 .23799134-.022460938 .35899354-.02279663 .46199037 .07521057 .46199037 .19921875V.19992066Z"/>
<path id="font_2_101" d="M.46998597 .20277405C.46998597 .32977296 .37799073 .42578126 .2649994 .42578126 .20498657 .42578126 .1619873 .3907776 .13398743 .33078004 .13398743 .43276979 .14498902 .4897766 .17199707 .54177859 .19198609 .58277896 .24099732 .64100649 .31498719 .64100649 .33499146 .64100649 .3809967 .63697817 .4039917 .6007843 .36698915 .6007843 .35099793 .5817871 .35099793 .55477908 .35099793 .5287781 .36898805 .50878909 .39698792 .50878909 .4249878 .50878909 .44400025 .5267792 .44400025 .55677798 .44400025 .61299136 .4039917 .6660156 .31298829 .6660156 .18399048 .6660156 .042999269 .5389252 .042999269 .31576539 .042999269 .044555665 .16499329-.022460938 .25898744-.022460938 .36999513-.022460938 .46998597 .07052612 .46998597 .2025299V.20277405M.3789978 .20353699C.3789978 .15553284 .3789978 .106536868 .3600006 .0695343 .32899476 .012527466 .2849884 .0055389406 .2579956 .0055389406 .20098877 .0055389406 .16799927 .05253601 .1559906 .08152771 .13699341 .12652588 .13598633 .20953369 .13598633 .2255249 .13598633 .2927704 .16699219 .4007721 .2630005 .4007721 .2789917 .4007721 .32798768 .4007721 .3600006 .33877564 .3789978 .300766 .3789978 .25177003 .3789978 .20376587V.20353699Z"/>
<path id="font_2_100" d="M.49899293 .6435547H.25C.12399292 .6435547 .12098694 .6566467 .117996219 .67578127H.08999634L.056991579 .46655274H.084991458C.08898926 .48954774 .09700012 .5455475 .10998535 .55755618 .116989139 .56355288 .19599915 .56355288 .20999146 .56355288H.41999818L.32398988 .4325409C.19400025 .25354005 .18199158 .090530399 .18199158 .03353882 .18199158 .022537232 .18199158-.022460938 .22799683-.022460938 .2749939-.022460938 .2749939 .021530152 .2749939 .03453064V.08354187C.2749939 .23054505 .29699708 .34654237 .34999085 .41854859L.48999024 .60954287C.49899293 .62054446 .49899293 .62254336 .49899293 .6435547Z"/>
<path id="font_3_121" d="M.45999146 .31976319C.45999146 .39982606 .45498658 .47988893 .41999818 .5539398 .37399293 .65000918 .2919922 .6660156 .25 .6660156 .18998719 .6660156 .116989139 .64001467 .07598877 .54693606 .04399109 .47789 .038986207 .39982606 .038986207 .31976319 .038986207 .24472046 .042999269 .15464783 .083999637 .07859802 .1269989-.0024719239 .19999695-.022460938 .24899292-.022460938 .30299378-.022460938 .3789978-.0014648438 .4229889 .09359741 .45498658 .16265869 .45999146 .2407074 .45999146 .31976319M.3769989 .3317871C.3769989 .25672914 .3769989 .18867493 .3659973 .12461853 .35099793 .029556275 .2939911-.00047302247 .24899292-.00047302247 .20999146-.00047302247 .15098572 .024551392 .1329956 .12062073 .12199402 .18066406 .12199402 .2727356 .12199402 .3317871 .12199402 .39582826 .12199402 .46188355 .12998963 .5159149 .14898682 .63500979 .22399903 .64401248 .24899292 .64401248 .28199769 .64401248 .34799195 .6259918 .36698915 .52693179 .3769989 .47088624 .3769989 .39482118 .3769989 .3317871Z"/>
<path id="font_4_27" d="M.70199587 0V.0289917C.6369934 .0289917 .61898806 .0289917 .6049957 .06993103L.3869934 .6958618C.3829956 .7078552 .3809967 .7138672 .36698915 .7138672 .35299684 .7138672 .35099793 .7108612 .34599305 .69485476L.13699341 .09689331C.12298584 .05595398 .09498596 .02998352 .0309906 .0289917V0L.1269989 .0019989014C.15499878 .0019989014 .20298767 .0019989014 .22898865 0V.0289917C.18699646 .02998352 .1619873 .050964357 .1619873 .07891846 .1619873 .08491516 .1619873 .08691406 .16699219 .09989929L.21299744 .23271179H.46499635L.519989 .075927738C.5249939 .063949588 .5249939 .061950685 .5249939 .058944704 .5249939 .0289917 .47399903 .0289917 .44898988 .0289917V0C.47200013 .0019989014 .5509949 .0019989014 .57899478 .0019989014 .6069946 .0019989014 .67900088 .0019989014 .70199587 0M.45498658 .26171876H.22299195L.33898927 .5948181 .45498658 .26171876Z"/>
<path id="font_4_34" d="M.6380005 .18299866C.6380005 .2639923 .5649872 .34399415 .44599916 .35699464 .54100039 .37478639 .6100006 .43873597 .6100006 .5137024 .6100006 .5996399 .522995 .6826172 .3919983 .6826172H.042999269V.6536102H.06298828C.1349945 .6536102 .13798523 .6436157 .13798523 .6066437V.07595825C.13798523 .038986207 .1349945 .0289917 .06298828 .0289917H.042999269V0H.4189911C.5479889 0 .6380005 .08694458 .6380005 .18286133V.18299866M.5219879 .5136566C.5219879 .44769288 .46998597 .36471559 .35899354 .36471559H.21398926V.61361697C.21398926 .64660647 .21598816 .6536102 .2599945 .6536102H.38598634C.48599244 .6536102 .5219879 .5676422 .5219879 .5136566M.5469971 .18385315C.5469971 .10293579 .48599244 .0289917 .3880005 .0289917H.2599945C.21598816 .0289917 .21398926 .035980226 .21398926 .06895447V.34472657H.40098573C.49699403 .34472657 .5469971 .26078797 .5469971 .18385315Z"/>
<path id="font_4_42" d="M.6519928 .23170471C.6519928 .24272156 .6519928 .24871826 .6409912 .24871826 .6309967 .24871826 .6299896 .24371338 .6299896 .2367096 .62098696 .07757568 .5049896 .007507324 .4079895 .007507324 .33799745 .007507324 .14698792 .049545289 .14698792 .34179688 .14698792 .63105776 .33499146 .6750946 .40699769 .6750946 .5119934 .6750946 .60398867 .5860138 .6239929 .43588258 .6259918 .4238739 .6259918 .42086793 .6380005 .42086793 .6519928 .42086793 .6519928 .4238739 .6519928 .44389344V.6810913C.6519928 .6990967 .6519928 .70410159 .6419983 .70410159 .6359863 .70410159 .6349945 .7020874 .6289978 .6920929L.5799866 .6130371C.5349884 .6690979 .46699525 .70410159 .394989 .70410159 .21199036 .70410159 .053985597 .54597476 .053985597 .34179688 .053985597 .13461304 .21398926-.021484375 .394989-.021484375 .5589905-.021484375 .6519928 .12161255 .6519928 .23170471Z"/>
<path id="font_4_46" d="M.69299319 .33480836C.69299319 .5276947 .55799868 .6826172 .3919983 .6826172H.041992189V.6536102H.06199646C.13398743 .6536102 .13699341 .6436157 .13699341 .6066437V.07595825C.13699341 .038986207 .13398743 .0289917 .06199646 .0289917H.041992189V0H.3919983C.5589905 0 .69299319 .1499176 .69299319 .33480836M.60198977 .33580018C.60198977 .2798462 .6009979 .18589783 .5439911 .11193848 .5109863 .06996155 .45098878 .0289917 .36698915 .0289917H.2619934C.21798706 .0289917 .21598816 .035995485 .21598816 .06896973V.6136322C.21598816 .6466217 .21798706 .6536102 .2619934 .6536102H.36698915C.44999696 .6536102 .5159912 .6136322 .5569916 .5476837 .60198977 .4767151 .60198977 .3757782 .60198977 .33580018Z"/>
<path id="font_4_49" d="M.6380005 .2558899H.6159973C.59199526 .09996033 .56799319 .0289917 .39898683 .0289917H.2630005C.21899414 .0289917 .21699524 .035995485 .21699524 .06896973V.3388672H.30799867C.4039917 .3388672 .4149933 .3078766 .4149933 .22190857H.43699647V.48477174H.4149933C.4149933 .39883424 .4039917 .3678589 .30799867 .3678589H.21699524V.6116791C.21699524 .6446686 .21899414 .6516571 .2630005 .6516571H.3959961C.54299929 .6516571 .57398989 .6016998 .58898928 .4577942H.61099246L.58499148 .68066409H.040985109V.6516571H.06098938C.1329956 .6516571 .13598633 .6416626 .13598633 .60469058V.07597351C.13598633 .038986207 .1329956 .0289917 .06098938 .0289917H.040985109V0H.59799197L.6380005 .2558899Z"/>
<path id="font_4_54" d="M.5970001 .45799256 .57099917 .68066409H.040985109V.6516571H.06098938C.1329956 .6516571 .13598633 .64167788 .13598633 .6047363V.07601929C.13598633 .039001466 .1329956 .0289917 .06098938 .0289917H.040985109V0C.06498718 .0019989014 .1539917 .0019989014 .18399048 .0019989014 .21899414 .0019989014 .30699159 .0019989014 .33599855 0V.0289917H.30599977C.21899414 .0289917 .21699524 .041000368 .21699524 .07702637V.32617188H.30499269C.39898683 .32617188 .40899659 .29315187 .40899659 .20909119H.43099977V.4719696H.40899659C.40899659 .3881073 .39898683 .35516358 .30499269 .35516358H.21699524V.61172488C.21699524 .6446686 .21899414 .6516571 .2630005 .6516571H.3880005C.5319977 .6516571 .5609894 .5987396 .57499697 .45799256H.5970001Z"/>
<path id="font_4_74" d="M.85198977 0V.0289917H.83200076C.7599945 .0289917 .7569885 .038986207 .7569885 .07595825V.6066437C.7569885 .6436157 .7599945 .6536102 .83200076 .6536102H.85198977V.6826172H.69699099C.6749878 .6826172 .673996 .6816101 .66600039 .6626129L.44799806 .093948367 .22999573 .66360476C.22299195 .6826172 .22200012 .6826172 .19898987 .6826172H.04399109V.6536102H.06399536C.13598633 .6536102 .13899231 .6436157 .13899231 .6066437V.10295105C.13899231 .07595825 .13899231 .0289917 .04399109 .0289917V0C.069992069 .0019989014 .12298584 .0019989014 .15098572 .0019989014 .1789856 .0019989014 .23199463 .0019989014 .2579956 0V.0289917C.16299439 .0289917 .16299439 .07595825 .16299439 .10295105V.6486206H.1639862L.40499879 .018997193C.40899659 .0079956059 .4119873 0 .42199708 0 .43099977 0 .43299867 .004989624 .43899537 .019989014L.6819916 .6536102H.68299868V.07595825C.68299868 .038986207 .6799927 .0289917 .60798647 .0289917H.58799746V0C.61099246 .0019989014 .69099429 .0019989014 .7200012 .0019989014 .7489929 .0019989014 .82899478 .0019989014 .85198977 0Z"/>
<path id="font_4_76" d="M.69200137 .6536102V.6826172C.66600039 .680603 .61299136 .680603 .58499148 .680603 .5569916 .680603 .5039978 .680603 .47799684 .6826172V.6536102C.57299807 .6536102 .57299807 .6066437 .57299807 .577652V.14093018L.22599793 .6686096C.21699524 .6816101 .21598816 .6826172 .19400025 .6826172H.040985109V.6536102C.083999637 .6536102 .10899353 .6536102 .13598633 .6466217V.10494995C.13598633 .07595825 .13598633 .0289917 .040985109 .0289917V0C.066986087 .0019989014 .11999512 .0019989014 .147995 .0019989014 .17599488 .0019989014 .22898865 .0019989014 .25498963 0V.0289917C.1599884 .0289917 .1599884 .07595825 .1599884 .10494995V.6306305C.16799927 .6226349 .16799927 .620636 .1769867 .6086426L.5669861 .01499939C.57699587 .0009918213 .5779877 0 .58499148 0 .59399417 0 .59599307 .0039978029 .5970001 .005996704V.577652C.5970001 .6066437 .5970001 .6536102 .69200137 .6536102Z"/>
</defs>
<path transform="matrix(1.00002,0,0,-1,143.8305,228.571)" stroke-width=".19925" stroke-linecap="butt" stroke-miterlimit="10" stroke-linejoin="miter" fill="none" stroke="#d9d9d9" d="M-141.73404-195.60463H198.42766M-141.73404-192.76978H198.42766M-141.73404-189.93492H198.42766M-141.73404-187.10007H198.42766M-141.73404-184.26523H198.42766M-141.73404-181.43038H198.42766M-141.73404-178.59552H198.42766M-141.73404-175.76068H198.42766M-141.73404-172.92583H198.42766M-141.73404-170.09098H198.42766M-141.73404-167.25612H198.42766M-141.73404-164.42128H198.42766M-141.73404-161.58643H198.42766M-141.73404-158.75157H198.42766M-141.73404-155.91674H198.42766M-141.73404-153.08188H198.42766M-141.73404-150.24703H198.42766M-141.73404-147.41219H198.42766M-141.73404-144.57733H198.42766M-141.73404-141.74248H198.42766M-141.73404-138.90763H198.42766M-141.73404-136.07279H198.42766M-141.73404-133.23793H198.42766M-141.73404-130.40308H198.42766M-141.73404-127.56824H198.42766M-141.73404-124.73338H198.42766M-141.73404-121.89853H198.42766M-141.73404-119.06367H198.42766M-141.73404-116.22884H198.42766M-141.73404-113.39398H198.42766M-141.73404-110.55913H198.42766M-141.73404-107.72429H198.42766M-141.73404-104.88943H198.42766M-141.73404-102.05458H198.42766M-141.73404-99.21973H198.42766M-141.73404-96.38489H198.42766M-141.73404-93.55003H198.42766M-141.73404-90.71518H198.42766M-141.73404-87.88034H198.42766M-141.73404-85.04549H198.42766M-141.73404-82.21063H198.42766M-141.73404-79.37578H198.42766M-141.73404-76.54094H198.42766M-141.73404-73.70609H198.42766M-141.73404-70.87123H198.42766M-141.73404-68.03639H198.42766M-141.73404-65.20154H198.42766M-141.73404-62.36668H198.42766M-141.73404-59.53183H198.42766M-141.73404-56.69699H198.42766M-141.73404-53.86214H198.42766M-141.73404-51.02728H198.42766M-141.73404-48.19244H198.42766M-141.73404-45.35759H198.42766M-141.73404-42.52274H198.42766M-141.73404-39.68788H198.42766M-141.73404-36.85304H198.42766M-141.73404-34.01819H198.42766M-141.73404-31.18333H198.42766M-141.73404-28.3485H198.42766M-141.73404-25.51364H198.42766M-141.73404-22.67879H198.42766M-141.73404-19.84393H198.42766M-141.73404-17.0091H198.42766M-141.73404-14.17424H198.42766M-141.73404-11.33939H198.42766M-141.73404-8.50455H198.42766M-141.73404-5.6697H198.42766M-141.73404-2.83484H198.42766M-141.73404 0H198.42766M-141.73404 2.83484H198.42766M-141.73404 5.6697H198.42766M-141.73404 8.50455H198.42766M-141.73404 11.33939H198.42766M-141.73404 14.17424H198.42766M-141.73404 17.0091H198.42766M-141.73404 19.84393H198.42766M-141.73404 22.67879H198.42766M-141.73404 25.51364H198.42766M-141.73404 28.3485H198.42766M-141.73404 31.18333H198.42766M-141.73404 34.01819H198.42766M-141.73404 36.85304H198.42766M-141.73404 39.68788H198.42766M-141.73404 42.52274H198.42766M-141.73404 45.35759H198.42766M-141.73404 48.19244H198.42766M-141.73404 51.02728H198.42766M-141.73404 53.86214H198.42766M-141.73404 56.69699H198.42766M-141.73404 59.53183H198.42766M-141.73404 62.36668H198.42766M-141.73404 65.20154H198.42766M-141.73404 68.03639H198.42766M-141.73404 70.87123H198.42766M-141.73404 73.70609H198.42766M-141.73404 76.54094H198.42766M-141.73404 79.37578H198.42766M-141.73404 82.21063H198.42766M-141.73404 85.04549H198.42766M-141.73404 87.88034H198.42766M-141.73404 90.71518H198.42766M-141.73404 93.55003H198.42766M-141.73404 96.38489H198.42766M-141.73404 99.21973H198.42766M-141.73404 102.05458H198.42766M-141.73404 104.88943H198.42766M-141.73404 107.72429H198.42766M-141.73404 110.55913H198.42766M-141.73404 113.39398H198.42766M-141.73404 116.22884H198.42766M-141.73404 119.06367H198.42766M-141.73404 121.89853H198.42766M-141.73404 124.73338H198.42766M-141.73404 127.56824H198.42766M-141.73404 130.40308H198.42766M-141.73404 133.23793H198.42766M-141.73404 136.07279H198.42766M-141.73404 138.90763H198.42766M-141.73404 141.74248H198.42766M-141.73404 144.57733H198.42766M-141.73404 147.41219H198.42766M-141.73404 150.24703H198.42766M-141.73404 153.08188H198.42766M-141.73404 155.91674H198.42766M-141.73404 158.75157H198.42766M-141.73404 161.58643H198.42766M-141.73404 164.42128H198.42766M-141.73404 167.25612H198.42766M-141.73404 170.09098H198.42766M-141.73404 172.92583H198.42766M-141.73404 175.76068H198.42766M-141.73404 178.59552H198.42766M-141.73404 181.43038H198.42766M-141.73404 184.26523H198.42766M-141.73404 187.10007H198.42766M-141.73404 189.93492H198.42766M-141.73404 192.76978H198.42766M-141.73404 195.60463H198.42766M-141.73404 198.43947H198.42766M-141.73404 201.27433H198.42766M-141.73404 204.10918H198.42766M-141.73404 206.94402H198.42766M-141.73404 209.77887H198.42766M-141.73404 212.61373H198.42766M-141.73404 215.44858H198.42766M-141.73404 218.28342H198.42766M-141.73404 221.11827H198.42766M-141.73404 223.95313H198.42766M-138.90763-198.42766V226.77448M-136.07279-198.42766V226.77448M-133.23793-198.42766V226.77448M-130.40308-198.42766V226.77448M-127.56824-198.42766V226.77448M-124.73338-198.42766V226.77448M-121.89853-198.42766V226.77448M-119.06367-198.42766V226.77448M-116.22884-198.42766V226.77448M-113.39398-198.42766V226.77448M-110.55913-198.42766V226.77448M-107.72429-198.42766V226.77448M-104.88943-198.42766V226.77448M-102.05458-198.42766V226.77448M-99.21973-198.42766V226.77448M-96.38489-198.42766V226.77448M-93.55003-198.42766V226.77448M-90.71518-198.42766V226.77448M-87.88034-198.42766V226.77448M-85.04549-198.42766V226.77448M-82.21063-198.42766V226.77448M-79.37578-198.42766V226.77448M-76.54094-198.42766V226.77448M-73.70609-198.42766V226.77448M-70.87123-198.42766V226.77448M-68.03639-198.42766V226.77448M-65.20154-198.42766V226.77448M-62.36668-198.42766V226.77448M-59.53183-198.42766V226.77448M-56.69699-198.42766V226.77448M-53.86214-198.42766V226.77448M-51.02728-198.42766V226.77448M-48.19244-198.42766V226.77448M-45.35759-198.42766V226.77448M-42.52274-198.42766V226.77448M-39.68788-198.42766V226.77448M-36.85304-198.42766V226.77448M-34.01819-198.42766V226.77448M-31.18333-198.42766V226.77448M-28.3485-198.42766V226.77448M-25.51364-198.42766V226.77448M-22.67879-198.42766V226.77448M-19.84393-198.42766V226.77448M-17.0091-198.42766V226.77448M-14.17424-198.42766V226.77448M-11.33939-198.42766V226.77448M-8.50455-198.42766V226.77448M-5.6697-198.42766V226.77448M-2.83484-198.42766V226.77448M0-198.42766V226.77448M2.83484-198.42766V226.77448M5.6697-198.42766V226.77448M8.50455-198.42766V226.77448M11.33939-198.42766V226.77448M14.17424-198.42766V226.77448M17.0091-198.42766V226.77448M19.84393-198.42766V226.77448M22.67879-198.42766V226.77448M25.51364-198.42766V226.77448M28.3485-198.42766V226.77448M31.18333-198.42766V226.77448M34.01819-198.42766V226.77448M36.85304-198.42766V226.77448M39.68788-198.42766V226.77448M42.52274-198.42766V226.77448M45.35759-198.42766V226.77448M48.19244-198.42766V226.77448M51.02728-198.42766V226.77448M53.86214-198.42766V226.77448M56.69699-198.42766V226.77448M59.53183-198.42766V226.77448M62.36668-198.42766V226.77448M65.20154-198.42766V226.77448M68.03639-198.42766V226.77448M70.87123-198.42766V226.77448M73.70609-198.42766V226.77448M76.54094-198.42766V226.77448M79.37578-198.42766V226.77448M82.21063-198.42766V226.77448M85.04549-198.42766V226.77448M87.88034-198.42766V226.77448M90.71518-198.42766V226.77448M93.55003-198.42766V226.77448M96.38489-198.42766V226.77448M99.21973-198.42766V226.77448M102.05458-198.42766V226.77448M104.88943-198.42766V226.77448M107.72429-198.42766V226.77448M110.55913-198.42766V226.77448M113.39398-198.42766V226.77448M116.22884-198.42766V226.77448M119.06367-198.42766V226.77448M121.89853-198.42766V226.77448M124.73338-198.42766V226.77448M127.56824-198.42766V226.77448M130.40308-198.42766V226.77448M133.23793-198.42766V226.77448M136.07279-198.42766V226.77448M138.90763-198.42766V226.77448M141.74248-198.42766V226.77448M144.57733-198.42766V226.77448M147.41219-198.42766V226.77448M150.24703-198.42766V226.77448M153.08188-198.42766V226.77448M155.91674-198.42766V226.77448M158.75157-198.42766V226.77448M161.58643-198.42766V226.77448M164.42128-198.42766V226.77448M167.25612-198.42766V226.77448M170.09098-198.42766V226.77448M172.92583-198.42766V226.77448M175.76068-198.42766V226.77448M178.59552-198.42766V226.77448M181.43038-198.42766V226.77448M184.26523-198.42766V226.77448M187.10007-198.42766V226.77448M189.93492-198.42766V226.77448M192.76978-198.42766V226.77448M195.60463-198.42766V226.77448M198.42766 226.77448"/>
<path transform="matrix(1.00002,0,0,-1,143.8305,228.571)" stroke-width=".3985" stroke-linecap="butt" stroke-miterlimit="10" stroke-linejoin="miter" fill="none" stroke="#a6a6a6" d="M-141.73404-198.42766H198.42766M-141.73404-170.08086H198.42766M-141.73404-141.73404H198.42766M-141.73404-113.38724H198.42766M-141.73404-85.04042H198.42766M-141.73404-56.69362H198.42766M-141.73404-28.3468H198.42766M-141.73404 0H198.42766M-141.73404 28.3468H198.42766M-141.73404 56.69362H198.42766M-141.73404 85.04042H198.42766M-141.73404 113.38724H198.42766M-141.73404 141.73404H198.42766M-141.73404 170.08086H198.42766M-141.73404 198.42766H198.42766M-141.73404 226.76451H198.42766M-141.73404-198.42766V226.77448M-113.38724-198.42766V226.77448M-85.04042-198.42766V226.77448M-56.69362-198.42766V226.77448M-28.3468-198.42766V226.77448M0-198.42766V226.77448M28.3468-198.42766V226.77448M56.69362-198.42766V226.77448M85.04042-198.42766V226.77448M113.38724-198.42766V226.77448M141.73404-198.42766V226.77448M170.08086-198.42766V226.77448M198.41771-198.42766V226.77448M198.42766 226.77448"/>
<path transform="matrix(1.00002,0,0,-1,143.8305,228.571)" stroke-width=".79701" stroke-linecap="butt" stroke-miterlimit="10" stroke-linejoin="miter" fill="none" stroke="#000000" d="M-126.76363 0H183.45725"/>
<path transform="matrix(-1.00002,-0,0,1,16.66584,228.571)" stroke-width=".79701" stroke-linecap="round" stroke-linejoin="round" fill="none" stroke="#000000" d="M-2.55046 3.11095C-2.0845 1.24435-1.04614 .36295 0 0-1.04614-.36295-2.0845-1.24435-2.55046-3.11095"/>
<path transform="matrix(1.00002,0,0,-1,327.68995,228.571)" stroke-width=".79701" stroke-linecap="round" stroke-linejoin="round" fill="none" stroke="#000000" d="M-2.55046 3.11095C-2.0845 1.24435-1.04614 .36295 0 0-1.04614-.36295-2.0845-1.24435-2.55046-3.11095"/>
<use data-text="x" xlink:href="#font_1_1" transform="matrix(8.966579,0,0,-8.9664,331.80729,230.501)"/>
<path transform="matrix(1.00002,0,0,-1,143.8305,228.571)" stroke-width=".79701" stroke-linecap="butt" stroke-miterlimit="10" stroke-linejoin="miter" fill="none" stroke="#000000" d="M0-169.28385V211.80405"/>
<path transform="matrix(0,1,1.00002,0,143.8305,398.25337)" stroke-width=".79701" stroke-linecap="round" stroke-linejoin="round" fill="none" stroke="#000000" d="M-2.55046 3.11095C-2.0845 1.24435-1.04614 .36295 0 0-1.04614-.36295-2.0845-1.24435-2.55046-3.11095"/>
<path transform="matrix(0,-1,-1.00002,-0,143.8305,16.368439)" stroke-width=".79701" stroke-linecap="round" stroke-linejoin="round" fill="none" stroke="#000000" d="M-2.55046 3.11095C-2.0845 1.24435-1.04614 .36295 0 0-1.04614-.36295-2.0845-1.24435-2.55046-3.11095"/>
<use data-text="y" xlink:href="#font_1_2" transform="matrix(8.966579,0,0,-8.9664,141.40045,10.507004)"/>
<path transform="matrix(1.00002,0,0,-1,143.8305,228.571)" stroke-width=".3985" stroke-linecap="butt" stroke-miterlimit="10" stroke-linejoin="miter" fill="none" stroke="#000000" d="M-113.38724 5.66927V-5.66927"/>
<use data-text="-" xlink:href="#font_2_64" transform="matrix(8.966579,0,0,-8.9664,26.599167,243.83)"/>
<use data-text="4" xlink:href="#font_2_57" transform="matrix(8.966579,0,0,-8.9664,29.674698,243.83)"/>
<path transform="matrix(1.00002,0,0,-1,143.8305,228.571)" stroke-width=".3985" stroke-linecap="butt" stroke-miterlimit="10" stroke-linejoin="miter" fill="none" stroke="#000000" d="M-85.04042 5.66927V-5.66927"/>
<use data-text="-" xlink:href="#font_2_64" transform="matrix(8.966579,0,0,-8.9664,54.945726,243.732)"/>
<use data-text="3" xlink:href="#font_2_106" transform="matrix(8.966579,0,0,-8.9664,58.021257,243.732)"/>
<path transform="matrix(1.00002,0,0,-1,143.8305,228.571)" stroke-width=".3985" stroke-linecap="butt" stroke-miterlimit="10" stroke-linejoin="miter" fill="none" stroke="#000000" d="M-56.69362 5.66927V-5.66927"/>
<use data-text="-" xlink:href="#font_2_64" transform="matrix(8.966579,0,0,-8.9664,83.29329,243.732)"/>
<use data-text="2" xlink:href="#font_2_107" transform="matrix(8.966579,0,0,-8.9664,86.36882,243.732)"/>
<path transform="matrix(1.00002,0,0,-1,143.8305,228.571)" stroke-width=".3985" stroke-linecap="butt" stroke-miterlimit="10" stroke-linejoin="miter" fill="none" stroke="#000000" d="M-28.3468 5.66927V-5.66927"/>
<use data-text="-" xlink:href="#font_2_64" transform="matrix(8.966579,0,0,-8.9664,111.64086,243.732)"/>
<use data-text="1" xlink:href="#font_2_82" transform="matrix(8.966579,0,0,-8.9664,114.71639,243.732)"/>
<path transform="matrix(1.00002,0,0,-1,143.8305,228.571)" stroke-width=".3985" stroke-linecap="butt" stroke-miterlimit="10" stroke-linejoin="miter" fill="none" stroke="#000000" d="M28.3468 5.66927V-5.66927"/>
<use data-text="1" xlink:href="#font_2_82" transform="matrix(8.966579,0,0,-8.9664,169.87302,243.732)"/>
<path transform="matrix(1.00002,0,0,-1,143.8305,228.571)" stroke-width=".3985" stroke-linecap="butt" stroke-miterlimit="10" stroke-linejoin="miter" fill="none" stroke="#000000" d="M56.69362 5.66927V-5.66927"/>
<use data-text="2" xlink:href="#font_2_107" transform="matrix(8.966579,0,0,-8.9664,198.2206,243.732)"/>
<path transform="matrix(1.00002,0,0,-1,143.8305,228.571)" stroke-width=".3985" stroke-linecap="butt" stroke-miterlimit="10" stroke-linejoin="miter" fill="none" stroke="#000000" d="M85.04042 5.66927V-5.66927"/>
<use data-text="3" xlink:href="#font_2_106" transform="matrix(8.966579,0,0,-8.9664,226.56816,243.732)"/>
<path transform="matrix(1.00002,0,0,-1,143.8305,228.571)" stroke-width=".3985" stroke-linecap="butt" stroke-miterlimit="10" stroke-linejoin="miter" fill="none" stroke="#000000" d="M113.38724 5.66927V-5.66927"/>
<use data-text="4" xlink:href="#font_2_57" transform="matrix(8.966579,0,0,-8.9664,254.91574,243.83)"/>
<path transform="matrix(1.00002,0,0,-1,143.8305,228.571)" stroke-width=".3985" stroke-linecap="butt" stroke-miterlimit="10" stroke-linejoin="miter" fill="none" stroke="#000000" d="M141.73404 5.66927V-5.66927"/>
<use data-text="5" xlink:href="#font_2_56" transform="matrix(8.966579,0,0,-8.9664,283.2633,243.732)"/>
<path transform="matrix(1.00002,0,0,-1,143.8305,228.571)" stroke-width=".3985" stroke-linecap="butt" stroke-miterlimit="10" stroke-linejoin="miter" fill="none" stroke="#000000" d="M170.08086 5.66927V-5.66927"/>
<use data-text="6" xlink:href="#font_2_101" transform="matrix(8.966579,0,0,-8.9664,311.60987,243.732)"/>
<path transform="matrix(1.00002,0,0,-1,143.8305,228.571)" stroke-width=".3985" stroke-linecap="butt" stroke-miterlimit="10" stroke-linejoin="miter" fill="none" stroke="#000000" d="M5.66927-170.08086H-5.66927"/>
<use data-text="-" xlink:href="#font_2_64" transform="matrix(8.966579,0,0,-8.9664,126.95717,401.539)"/>
<use data-text="6" xlink:href="#font_2_101" transform="matrix(8.966579,0,0,-8.9664,130.0327,401.539)"/>
<path transform="matrix(1.00002,0,0,-1,143.8305,228.571)" stroke-width=".3985" stroke-linecap="butt" stroke-miterlimit="10" stroke-linejoin="miter" fill="none" stroke="#000000" d="M5.66927-141.73404H-5.66927"/>
<use data-text="-" xlink:href="#font_2_64" transform="matrix(8.966579,0,0,-8.9664,126.95717,373.19203)"/>
<use data-text="5" xlink:href="#font_2_56" transform="matrix(8.966579,0,0,-8.9664,130.0327,373.19203)"/>
<path transform="matrix(1.00002,0,0,-1,143.8305,228.571)" stroke-width=".3985" stroke-linecap="butt" stroke-miterlimit="10" stroke-linejoin="miter" fill="none" stroke="#000000" d="M5.66927-113.38724H-5.66927"/>
<use data-text="-" xlink:href="#font_2_64" transform="matrix(8.966579,0,0,-8.9664,126.95717,344.99299)"/>
<use data-text="4" xlink:href="#font_2_57" transform="matrix(8.966579,0,0,-8.9664,130.0327,344.99299)"/>
<path transform="matrix(1.00002,0,0,-1,143.8305,228.571)" stroke-width=".3985" stroke-linecap="butt" stroke-miterlimit="10" stroke-linejoin="miter" fill="none" stroke="#000000" d="M5.66927-85.04042H-5.66927"/>
<use data-text="-" xlink:href="#font_2_64" transform="matrix(8.966579,0,0,-8.9664,126.95717,316.499)"/>
<use data-text="3" xlink:href="#font_2_106" transform="matrix(8.966579,0,0,-8.9664,130.0327,316.499)"/>
<path transform="matrix(1.00002,0,0,-1,143.8305,228.571)" stroke-width=".3985" stroke-linecap="butt" stroke-miterlimit="10" stroke-linejoin="miter" fill="none" stroke="#000000" d="M5.66927-56.69362H-5.66927"/>
<use data-text="-" xlink:href="#font_2_64" transform="matrix(8.966579,0,0,-8.9664,126.95717,288.25)"/>
<use data-text="2" xlink:href="#font_2_107" transform="matrix(8.966579,0,0,-8.9664,130.0327,288.25)"/>
<path transform="matrix(1.00002,0,0,-1,143.8305,228.571)" stroke-width=".3985" stroke-linecap="butt" stroke-miterlimit="10" stroke-linejoin="miter" fill="none" stroke="#000000" d="M5.66927-28.3468H-5.66927"/>
<use data-text="-" xlink:href="#font_2_64" transform="matrix(8.966579,0,0,-8.9664,126.95717,259.904)"/>
<use data-text="1" xlink:href="#font_2_82" transform="matrix(8.966579,0,0,-8.9664,130.0327,259.904)"/>
<path transform="matrix(1.00002,0,0,-1,143.8305,228.571)" stroke-width=".3985" stroke-linecap="butt" stroke-miterlimit="10" stroke-linejoin="miter" fill="none" stroke="#000000" d="M5.66927 28.3468H-5.66927"/>
<use data-text="1" xlink:href="#font_2_82" transform="matrix(8.966579,0,0,-8.9664,130.03223,203.20999)"/>
<path transform="matrix(1.00002,0,0,-1,143.8305,228.571)" stroke-width=".3985" stroke-linecap="butt" stroke-miterlimit="10" stroke-linejoin="miter" fill="none" stroke="#000000" d="M5.66927 56.69362H-5.66927"/>
<use data-text="2" xlink:href="#font_2_107" transform="matrix(8.966579,0,0,-8.9664,130.03223,174.863)"/>
<path transform="matrix(1.00002,0,0,-1,143.8305,228.571)" stroke-width=".3985" stroke-linecap="butt" stroke-miterlimit="10" stroke-linejoin="miter" fill="none" stroke="#000000" d="M5.66927 85.04042H-5.66927"/>
<use data-text="3" xlink:href="#font_2_106" transform="matrix(8.966579,0,0,-8.9664,130.03223,146.418)"/>
<path transform="matrix(1.00002,0,0,-1,143.8305,228.571)" stroke-width=".3985" stroke-linecap="butt" stroke-miterlimit="10" stroke-linejoin="miter" fill="none" stroke="#000000" d="M5.66927 113.38724H-5.66927"/>
<use data-text="4" xlink:href="#font_2_57" transform="matrix(8.966579,0,0,-8.9664,130.03223,118.219)"/>
<path transform="matrix(1.00002,0,0,-1,143.8305,228.571)" stroke-width=".3985" stroke-linecap="butt" stroke-miterlimit="10" stroke-linejoin="miter" fill="none" stroke="#000000" d="M5.66927 141.73404H-5.66927"/>
<use data-text="5" xlink:href="#font_2_56" transform="matrix(8.966579,0,0,-8.9664,130.03223,89.724)"/>
<path transform="matrix(1.00002,0,0,-1,143.8305,228.571)" stroke-width=".3985" stroke-linecap="butt" stroke-miterlimit="10" stroke-linejoin="miter" fill="none" stroke="#000000" d="M5.66927 170.08086H-5.66927"/>
<use data-text="6" xlink:href="#font_2_101" transform="matrix(8.966579,0,0,-8.9664,130.03223,61.377)"/>
<path transform="matrix(1.00002,0,0,-1,143.8305,228.571)" stroke-width=".3985" stroke-linecap="butt" stroke-miterlimit="10" stroke-linejoin="miter" fill="none" stroke="#000000" d="M5.66927 198.42766H-5.66927"/>
<use data-text="7" xlink:href="#font_2_100" transform="matrix(8.966579,0,0,-8.9664,130.03223,33.074998)"/>
<use data-text="0" xlink:href="#font_3_121" transform="matrix(9.962799,0,0,-9.9626,135.67035,244.395)"/>
<path transform="matrix(1.00002,0,0,-1,143.8305,228.571)" stroke-width=".79701" stroke-linecap="butt" stroke-miterlimit="10" stroke-linejoin="miter" fill="none" stroke="#000000" d="M28.3468 28.3468 85.04042 113.38724"/>
<path transform="matrix(1.00002,0,0,-1,143.8305,228.571)" stroke-width=".79701" stroke-linecap="butt" stroke-miterlimit="10" stroke-linejoin="miter" fill="none" stroke="#000000" d="M-85.04042 28.3468V113.38724"/>
<path transform="matrix(1.00002,0,0,-1,143.8305,228.571)" stroke-width=".79701" stroke-linecap="butt" stroke-miterlimit="10" stroke-linejoin="miter" fill="none" stroke="#000000" d="M28.3468-85.04042 85.04042-170.08086"/>
<path transform="matrix(1.00002,0,0,-1,143.8305,228.571)" stroke-width=".79701" stroke-linecap="butt" stroke-miterlimit="10" stroke-linejoin="miter" fill="none" stroke="#000000" d="M-113.38724-113.38724-56.69362-56.69362"/>
<use data-text="A" xlink:href="#font_4_27" transform="matrix(11.95544,0,0,-11.9552,159.88283,204.492)"/>
<use data-text="B" xlink:href="#font_4_34" transform="matrix(11.95544,0,0,-11.9552,232.39228,111.664)"/>
<use data-text="C" xlink:href="#font_4_42" transform="matrix(11.95544,0,0,-11.9552,167.952,309.841)"/>
<use data-text="D" xlink:href="#font_4_46" transform="matrix(11.95544,0,0,-11.9552,216.40998,402.735)"/>
<use data-text="E" xlink:href="#font_4_49" transform="matrix(11.95544,0,0,-11.9552,54.806718,211.886)"/>
<use data-text="F" xlink:href="#font_4_54" transform="matrix(11.95544,0,0,-11.9552,54.968736,111.664)"/>
<use data-text="M" xlink:href="#font_4_74" transform="matrix(11.95544,0,0,-11.9552,16.196946,346.04103)"/>
<use data-text="N" xlink:href="#font_4_76" transform="matrix(11.95544,0,0,-11.9552,90.65544,289.347)"/>
<path transform="matrix(1.00002,0,0,-1,143.8305,228.571)" stroke-width=".3985" stroke-linecap="butt" stroke-miterlimit="10" stroke-linejoin="miter" fill="none" stroke="#000000" d="M28.3468 28.3468 52.08719 63.9573"/>
<path transform="matrix(.55468109,-.83202,-.8320367,-.55467,195.91873,164.61371)" d="M7.48325 0C6.56427 .22145 2.52473 1.47643 0 2.8421V-2.8421C2.52473-1.47643 6.56427-.22145 7.48325 0Z"/>
<path transform="matrix(.55468109,-.83202,-.8320367,-.55467,195.91873,164.61371)" stroke-width=".3985" stroke-linecap="butt" stroke-miterlimit="10" stroke-linejoin="miter" fill="none" stroke="#000000" d="M7.48325 0C6.56427 .22145 2.52473 1.47643 0 2.8421V-2.8421C2.52473-1.47643 6.56427-.22145 7.48325 0Z"/>
<path transform="matrix(1.00002,0,0,-1,143.8305,228.571)" stroke-width=".3985" stroke-linecap="butt" stroke-miterlimit="10" stroke-linejoin="miter" fill="none" stroke="#000000" d="M-85.04042 28.3468V62.56223"/>
<path transform="matrix(0,-1,-1.00002,-0,58.788385,166.00878)" d="M7.48325 0C6.56427 .22145 2.52473 1.47643 0 2.8421V-2.8421C2.52473-1.47643 6.56427-.22145 7.48325 0Z"/>
<path transform="matrix(0,-1,-1.00002,-0,58.788385,166.00878)" stroke-width=".3985" stroke-linecap="butt" stroke-miterlimit="10" stroke-linejoin="miter" fill="none" stroke="#000000" d="M7.48325 0C6.56427 .22145 2.52473 1.47643 0 2.8421V-2.8421C2.52473-1.47643 6.56427-.22145 7.48325 0Z"/>
<path transform="matrix(1.00002,0,0,-1,143.8305,228.571)" stroke-width=".3985" stroke-linecap="butt" stroke-miterlimit="10" stroke-linejoin="miter" fill="none" stroke="#000000" d="M85.04042-170.08086 61.30003-134.47034"/>
<path transform="matrix(-.55468109,-.83202,-.8320367,.55467,205.13176,363.04133)" d="M7.48325 0C6.56427 .22145 2.52473 1.47643 0 2.8421V-2.8421C2.52473-1.47643 6.56427-.22145 7.48325 0Z"/>
<path transform="matrix(-.55468109,-.83202,-.8320367,.55467,205.13176,363.04133)" stroke-width=".3985" stroke-linecap="butt" stroke-miterlimit="10" stroke-linejoin="miter" fill="none" stroke="#000000" d="M7.48325 0C6.56427 .22145 2.52473 1.47643 0 2.8421V-2.8421C2.52473-1.47643 6.56427-.22145 7.48325 0Z"/>
<path transform="matrix(1.00002,0,0,-1,143.8305,228.571)" stroke-width=".3985" stroke-linecap="butt" stroke-miterlimit="10" stroke-linejoin="miter" fill="none" stroke="#000000" d="M-113.38724-113.38724-90.9128-90.9128"/>
<path transform="matrix(.70711418,-.7071,-.70711418,-.7071,52.91588,319.4838)" d="M7.48325 0C6.56427 .22145 2.52473 1.47643 0 2.8421V-2.8421C2.52473-1.47643 6.56427-.22145 7.48325 0Z"/>
<path transform="matrix(.70711418,-.7071,-.70711418,-.7071,52.91588,319.4838)" stroke-width=".3985" stroke-linecap="butt" stroke-miterlimit="10" stroke-linejoin="miter" fill="none" stroke="#000000" d="M7.48325 0C6.56427 .22145 2.52473 1.47643 0 2.8421V-2.8421C2.52473-1.47643 6.56427-.22145 7.48325 0Z"/>
</svg>
