<svg xmlns="http://www.w3.org/2000/svg" xmlns:xlink="http://www.w3.org/1999/xlink" xmlns:inkscape="http://www.inkscape.org/namespaces/inkscape" version="1.1" width="287" height="259" viewBox="0 0 287 259">
<defs>
<path id="font_1_1" d="M.49198915 .40434266C.45498658 .39733888 .44400025 .3653412 .44400025 .3503418 .44400025 .33132936 .45799256 .31433106 .48298646 .31433106 .5109863 .31433106 .5379944 .33833314 .5379944 .3733368 .5379944 .41937257 .48799134 .4423828 .44099427 .4423828 .3809967 .4423828 .34599305 .38934327 .33399964 .3683319 .31498719 .41737367 .2709961 .4423828 .22299195 .4423828 .115997318 .4423828 .057998659 .31433106 .057998659 .28833009 .057998659 .2793274 .06498718 .2763214 .07199097 .2763214 .08099365 .2763214 .083999637 .2813263 .085998538 .287323 .116989139 .38633729 .18299866 .41737367 .22099304 .41737367 .25 .41737367 .27598573 .3983307 .27598573 .35133363 .27598573 .31533814 .23298645 .15530396 .21998596 .107284549 .21199036 .076293949 .18199158 .014251709 .1269989 .014251709 .10699463 .014251709 .085998538 .021270752 .07598877 .027282715 .102996829 .032287599 .12298584 .055282594 .12298584 .08128357 .12298584 .106292728 .10398865 .11729431 .084991458 .11729431 .055999757 .11729431 .02999878 .092285159 .02999878 .058288576 .02999878 .009246826 .083999637-.0107421879 .12599182-.0107421879 .18399048-.0107421879 .21798706 .03729248 .23298645 .06428528 .2579956-.0017547608 .31698609-.0107421879 .34399415-.0107421879 .45199586-.0107421879 .5089874 .11929321 .5089874 .14329529 .5089874 .14830017 .5059967 .15530396 .49598695 .15530396 .4850006 .15530396 .48399354 .1512909 .47898866 .1362915 .45700074 .06428528 .39898683 .014251709 .34700013 .014251709 .31799317 .014251709 .29100038 .032287599 .29100038 .08029175 .29100038 .10229492 .30499269 .15730286 .31399537 .1953125 .31799317 .21331787 .34498597 .32133485 .34700013 .32833863 .35899354 .3643341 .3889923 .41737367 .43998719 .41737367 .45799256 .41737367 .47698976 .41436769 .49198915 .40434266Z"/>
<path id="font_1_2" d="M.5019989 .38536073C.5029907 .3903656 .5049896 .39637757 .5049896 .40237428 .5049896 .41537477 .49598695 .43138124 .47399903 .43138124 .46099855 .43138124 .44299317 .42337037 .43499757 .40437318 .43399049 .40037538 .42399598 .35935975 .41799928 .33735658L.36799623 .13728333C.3600006 .10827637 .3600006 .106277469 .35798646 .09727478 .35699464 .09327698 .31498719 .014251709 .24299622 .014251709 .18099976 .014251709 .18099976 .07727051 .18099976 .09628296 .18099976 .14129639 .19400025 .19030762 .23699951 .30233766 .24499512 .3253479 .25099183 .33935548 .25099183 .35835267 .25099183 .40737916 .21398926 .4423828 .16499329 .4423828 .068984989 .4423828 .0289917 .30033876 .0289917 .28833009 .0289917 .2793274 .035995485 .27633668 .042999269 .27633668 .053985597 .27633668 .054992677 .28233338 .05899048 .29533387 .07998657 .3693695 .11999512 .41737367 .1619873 .41737367 .18598938 .41737367 .18598938 .39837647 .18598938 .3843689 .18598938 .36735536 .18199158 .34934999 .17298889 .3253479 .12599182 .2013092 .11299133 .15930176 .11299133 .11128235 .11299133 .00024414063 .20298767-.0107421879 .23999024-.0107421879 .2889862-.0107421879 .32398988 .01524353 .34199525 .0332489 .32899476-.017745972 .31799317-.0627594 .2789917-.11276245 .24899292-.15286255 .20899964-.18008423 .16499329-.18008423 .13699341-.18008423 .10398865-.16999817 .08999634-.14176941 .14299011-.14176941 .1499939-.09776306 .1499939-.087768558 .1499939-.06576538 .13398743-.051757814 .11199951-.051757814 .08799744-.051757814 .055999757-.07077026 .055999757-.116760257 .055999757-.16899109 .101989749-.20507813 .16499329-.20507813 .2669983-.20507813 .37599183-.117767337 .40499879-.00074768069L.5019989 .38536073Z"/>
<path id="font_2_82" d="M.43199159 0V.0309906H.3999939C.30699159 .0309906 .3039856 .042999269 .3039856 .08001709V.63912966C.3039856 .6640167 .30299378 .6660156 .27799989 .6660156 .21598816 .60227969 .12399292 .60227969 .09298706 .60227969V.57128909C.11199951 .57128909 .17298889 .57128909 .22698975 .5972748V.08001709C.22698975 .042999269 .22399903 .0309906 .1309967 .0309906H.09899902V0C.1349945 .0029907227 .22399903 .0029907227 .2649994 .0029907227 .30599977 .0029907227 .3959961 .0029907227 .43199159 0Z"/>
<path id="font_2_107" d="M.46199037 .17704773H.43399049C.43199159 .16404724 .42399598 .10501099 .41099549 .08900452 .40499879 .07998657 .33599855 .07998657 .31599427 .07998657H.13798523L.23699951 .17404175C.40098573 .3161316 .46199037 .36915589 .46199037 .4711914 .46199037 .5860901 .36698915 .6660156 .24398804 .6660156 .1289978 .6660156 .050994874 .575119 .050994874 .4841919 .050994874 .43418885 .09399414 .42919923 .102996829 .42919923 .125 .42919923 .15499878 .44519044 .15499878 .48120118 .15499878 .51119998 .13398743 .5332031 .102996829 .5332031 .09799194 .5332031 .09498596 .5332031 .09098816 .53219607 .114990238 .6030731 .1789856 .63500979 .23298645 .63500979 .33499146 .63500979 .36999513 .5401764 .36999513 .4711914 .36999513 .36915589 .29299928 .28611756 .24499512 .23408509L.06199646 .035995485C.050994874 .024993897 .050994874 .022994996 .050994874 0H.43399049L.46199037 .17704773Z"/>
<path id="font_2_106" d="M.46998597 .17008972C.46998597 .25709535 .40098573 .33110047 .30499269 .35209657 .397995 .38710023 .44198609 .46009828 .44198609 .5290985 .44198609 .60606387 .35699464 .6660156 .25299073 .6660156 .14898682 .6660156 .070999149 .60705569 .070999149 .5310974 .070999149 .49809266 .09298706 .47909547 .12199402 .47909547 .15098572 .47909547 .17199707 .50009158 .17199707 .5290985 .17199707 .5640869 .147995 .57910159 .11399841 .57910159 .13999939 .6210327 .20098877 .64100649 .25 .64100649 .33299256 .64100649 .34899903 .5750885 .34899903 .52809146 .34899903 .49809266 .34298707 .45005799 .31799317 .41201783 .2869873 .36695863 .2519989 .36495973 .22299195 .36296083 .19799805 .36094667 .19599915 .36094667 .18798828 .36094667 .1789856 .35995484 .17098999 .35894776 .17098999 .34794618 .17098999 .33496095 .1789856 .33496095 .19599915 .33496095H.24299622C.32998658 .33496095 .36799623 .2646637 .36799623 .16937256 .36799623 .04145813 .2999878 .0055389406 .24899292 .0055389406 .22999573 .0055389406 .1329956 .010528564 .08799744 .0843811 .12399292 .07939148 .1519928 .10437012 .1519928 .13838196 .1519928 .17137146 .1269989 .19238281 .09799194 .19238281 .07299805 .19238281 .042999269 .17736817 .042999269 .13537598 .042999269 .046447755 .13598633-.022460938 .2519989-.022460938 .3769989-.022460938 .46998597 .06741333 .46998597 .16937256V.17008972Z"/>
<path id="font_2_57" d="M.48399354 .16503906V.19602967H.38198854V.649765C.38198854 .669754 .38198854 .6767578 .36299134 .6767578 .35099793 .6767578 .34999085 .67575076 .34098817 .6617584L.0289917 .19602967V.16503906H.3019867V.07901001C.3019867 .041992189 .29899598 .0309906 .22399903 .0309906H.20199585V0C.2649994 .0029907227 .33499146 .0029907227 .34199525 .0029907227 .34700013 .0029907227 .4189911 .0029907227 .48199464 0V.0309906H.45999146C.3849945 .0309906 .38198854 .041992189 .38198854 .07901001V.16503906H.48399354M.30799867 .19602967H.06098938L.30799867 .56581118V.19602967Z"/>
<path id="font_2_56" d="M.46199037 .19992066C.46199037 .3209076 .37599183 .41992188 .2669983 .41992188 .21899414 .41992188 .16999817 .4039154 .1349945 .36791993V.5647888C.16499329 .55578616 .19599915 .55078127 .22698975 .55078127 .34999085 .55078127 .42199708 .63983157 .42199708 .6529236 .42199708 .6619873 .41600038 .6660156 .41099549 .6660156 .41099549 .6660156 .40699769 .6660156 .397995 .6609802 .35099793 .6418457 .30499269 .63378909 .2630005 .63378909 .21998596 .63378909 .1749878 .6418457 .1289978 .6609802 .11898804 .6660156 .115997318 .6660156 .115997318 .6660156 .10398865 .6660156 .10398865 .6559448 .10398865 .63882449V.34490968C.10398865 .32699586 .10398865 .31599427 .117996219 .31599427 .12599182 .31562806 .1289978 .3196411 .1349945 .32867433 .16499329 .37083436 .21299744 .39491273 .2649994 .39491273 .37199403 .39491273 .37199403 .24035645 .37199403 .20422364 .37199403 .17321778 .37199403 .11122131 .34399415 .06636047 .31698609 .024475098 .2749939 .0055389406 .23599243 .0055389406 .1769867 .0055389406 .10998535 .042419435 .085998538 .11621094 .085998538 .116882327 .09298706 .11488342 .099990848 .11488342 .11999512 .11488342 .14898682 .12788391 .14898682 .1638794 .14898682 .19488526 .1269989 .21289063 .099990848 .21289063 .07899475 .21289063 .050994874 .20088196 .050994874 .16088867 .050994874 .069732669 .1269989-.022460938 .23799134-.022460938 .35899354-.02279663 .46199037 .07521057 .46199037 .19921875V.19992066Z"/>
<path id="font_2_101" d="M.46998597 .20277405C.46998597 .32977296 .37799073 .42578126 .2649994 .42578126 .20498657 .42578126 .1619873 .3907776 .13398743 .33078004 .13398743 .43276979 .14498902 .4897766 .17199707 .54177859 .19198609 .58277896 .24099732 .64100649 .31498719 .64100649 .33499146 .64100649 .3809967 .63697817 .4039917 .6007843 .36698915 .6007843 .35099793 .5817871 .35099793 .55477908 .35099793 .5287781 .36898805 .50878909 .39698792 .50878909 .4249878 .50878909 .44400025 .5267792 .44400025 .55677798 .44400025 .61299136 .4039917 .6660156 .31298829 .6660156 .18399048 .6660156 .042999269 .5389252 .042999269 .31576539 .042999269 .044555665 .16499329-.022460938 .25898744-.022460938 .36999513-.022460938 .46998597 .07052612 .46998597 .2025299V.20277405M.3789978 .20353699C.3789978 .15553284 .3789978 .106536868 .3600006 .0695343 .32899476 .012527466 .2849884 .0055389406 .2579956 .0055389406 .20098877 .0055389406 .16799927 .05253601 .1559906 .08152771 .13699341 .12652588 .13598633 .20953369 .13598633 .2255249 .13598633 .2927704 .16699219 .4007721 .2630005 .4007721 .2789917 .4007721 .32798768 .4007721 .3600006 .33877564 .3789978 .300766 .3789978 .25177003 .3789978 .20376587V.20353699Z"/>
<path id="font_3_121" d="M.45999146 .31976319C.45999146 .39982606 .45498658 .47988893 .41999818 .5539398 .37399293 .65000918 .2919922 .6660156 .25 .6660156 .18998719 .6660156 .116989139 .64001467 .07598877 .54693606 .04399109 .47789 .038986207 .39982606 .038986207 .31976319 .038986207 .24472046 .042999269 .15464783 .083999637 .07859802 .1269989-.0024719239 .19999695-.022460938 .24899292-.022460938 .30299378-.022460938 .3789978-.0014648438 .4229889 .09359741 .45498658 .16265869 .45999146 .2407074 .45999146 .31976319M.3769989 .3317871C.3769989 .25672914 .3769989 .18867493 .3659973 .12461853 .35099793 .029556275 .2939911-.00047302247 .24899292-.00047302247 .20999146-.00047302247 .15098572 .024551392 .1329956 .12062073 .12199402 .18066406 .12199402 .2727356 .12199402 .3317871 .12199402 .39582826 .12199402 .46188355 .12998963 .5159149 .14898682 .63500979 .22399903 .64401248 .24899292 .64401248 .28199769 .64401248 .34799195 .6259918 .36698915 .52693179 .3769989 .47088624 .3769989 .39482118 .3769989 .3317871Z"/>
<path id="font_4_1" d="M.48399354 .2983551C.48399354 .38616944 .4119873 .453125 .2579956 .453125 .20098877 .453125 .07299805 .45111085 .07299805 .3592224 .07299805 .3143158 .10699463 .29336549 .13798523 .29336549 .17199707 .29336549 .20298767 .31730653 .20298767 .3582306 .20298767 .3871765 .18598938 .40412904 .18299866 .407135 .19299317 .40911866 .21699524 .41311646 .2539978 .41311646 .32598878 .41311646 .36698915 .377182 .36698915 .2983551V.26641847C.20098877 .26641847 .032989503 .22340393 .032989503 .11224365 .032989503 .013137817 .1579895-.005859375 .22999573-.005859375 .30599977-.005859375 .35798646 .027130127 .3849945 .07418823 .3849945 .04815674 .3849945 .0001373291 .49198915 .0001373291H.54100039C.55999758 .0001373291 .57398989 .0001373291 .57398989 .025131226 .57398989 .04914856 .55799868 .04914856 .5479889 .04914856 .48399354 .05015564 .48399354 .060165407 .48399354 .084198V.2983551M.36698915 .13928223C.36698915 .03413391 .25099183 .03413391 .24699402 .03413391 .19599915 .03413391 .1539917 .06718445 .1539917 .11224365 .1539917 .14529419 .17199707 .22340393 .36698915 .23242188V.13928223Z"/>
<path id="font_4_2" d="M.21998596 .69433596 .040985109 .6863251V.6373291C.100997928 .6373291 .10899353 .6373291 .10899353 .5982971V.0001373291H.1599884L.20698548 .057144166C.23899842 .025131226 .28799439-.005859375 .35899354-.005859375 .5149994-.005859375 .61698916 .088134769 .61698916 .22216797 .61698916 .35717774 .519989 .4501953 .37199403 .4501953 .2919922 .4501953 .23899842 .41618348 .21998596 .40219117V.69433596M.22599793 .34617616C.25099183 .3781891 .29899598 .41018678 .3600006 .41018678 .48399354 .41018678 .48399354 .2901764 .48399354 .22416687 .48399354 .18215943 .48399354 .13014221 .46299745 .09414673 .42999269 .038131715 .36898805 .03413391 .34899903 .03413391 .2869873 .03413391 .24699402 .072143558 .22599793 .104141239V.34617616Z"/>
<path id="font_2_27" d="M.73599246 0V.0309906H.71899417C.6569977 .0309906 .6459961 .039978029 .6359863 .06794739L.40899659 .69480898C.4039917 .70780947 .40098573 .7158203 .3849945 .7158203 .36898805 .7158203 .36698915 .70980837 .36099244 .6938019L.1459961 .09989929C.13398743 .06694031 .11099243 .03199768 .033996583 .0309906V0C.07199097 .0029907227 .09899902 .0029907227 .13598633 .0029907227L.24899292 0V.0309906C.19198609 .03199768 .1749878 .06295776 .1749878 .08192444 .1749878 .090911868 .1769867 .09590149 .1789856 .10090637L.22599793 .22973633H.4850006L.5389862 .078933719C.54299929 .06893921 .5439911 .06594849 .5439911 .060958864 .5439911 .0309906 .48799134 .0309906 .46199037 .0309906V0C.5069885 .0029907227 .5589905 .0029907227 .6049957 .0029907227L.73599246 0M.47299195 .2607422H.23699951L.35499574 .5877838 .47299195 .2607422Z"/>
<path id="font_2_85" d="M.34098817-.23803711C.34098817-.23303223 .33799745-.23002625 .33198548-.22303772 .20298767-.105026248 .1639862 .07498169 .1639862 .24998474 .1639862 .40498353 .19400025 .59298709 .33499146 .72698977 .33898927 .73098757 .34098817 .7339783 .34098817 .73898318 .34098817 .74598696 .33599855 .75 .32899476 .75 .31698609 .75 .22698975 .6779785 .17298889 .568985 .125 .47297669 .100997928 .36997987 .100997928 .25097657 .100997928 .17897034 .10998535 .064971927 .16499329-.053024293 .22399903-.17602539 .31698609-.24902344 .32899476-.24902344 .33599855-.24902344 .34098817-.24502564 .34098817-.23803711Z"/>
<path id="font_2_45" d="M.20698548 .0019989014C.20698548 .070999149 .18099976 .10798645 .14199829 .10798645 .10699463 .10798645 .08799744 .08099365 .08799744 .053985597 .08799744 .026992798 .10699463 0 .14199829 0 .16699219 0 .18199158 .015991211 .18199158 .015991211 .18199158-.017044068 .18199158-.09919739 .10598755-.17132569 .101989749-.17633057 .101989749-.18135071 .101989749-.18135071 .101989749-.18635559 .10798645-.19335938 .114990238-.19335938 .12599182-.19335938 .20698548-.1162262 .20698548 .0019989014Z"/>
<path id="font_2_86" d="M.2979889 .25097657C.2979889 .3329773 .28599549 .4429779 .23399353 .5539856 .1749878 .6769867 .08198547 .75 .069992069 .75 .05999756 .75 .057998659 .74198916 .057998659 .73898318 .057998659 .7339783 .05999756 .73098757 .066986087 .72398379 .125 .6719818 .23498535 .5359802 .23498535 .25097657 .23498535 .10797119 .20899964-.091033939 .06399536-.22602844 .06199646-.22903443 .057998659-.23303223 .057998659-.23803711 .057998659-.24102783 .05999756-.24902344 .069992069-.24902344 .08198547-.24902344 .17199707-.17703247 .22599793-.06802368 .27398683 .02796936 .2979889 .13098145 .2979889 .25097657Z"/>
<path id="font_2_34" d="M.66999819 .18199158C.66999819 .27198792 .58299258 .34498597 .47200013 .35699464 .57099917 .37677003 .6409912 .43974305 .6409912 .51368716 .6409912 .6016388 .54499819 .6826172 .41299439 .6826172H.040985109V.6516113H.06399536C.14099121 .6516113 .14299011 .64060977 .14299011 .6036377V.07896423C.14299011 .041992189 .14099121 .0309906 .06399536 .0309906H.040985109V0H.44099427C.57598879-.00022888184 .66999819 .088760379 .66999819 .1817627V.18199158M.54499819 .51368716C.54499819 .4367218 .47799684 .36776734 .38398744 .36776734H.22698975V.6106262C.22698975 .64460757 .22898865 .6516113 .27598573 .6516113H.4059906C.5039978 .6517639 .54499819 .573761 .54499819 .5137634V.51368716M.57099917 .18388367C.57099917 .106933597 .5109863 .0309906 .4079895 .0309906H.27598573C.22898865 .0309906 .22698975 .037994386 .22698975 .07196045V.34277345H.41600038C.5319977 .34298707 .57099917 .24499512 .57099917 .18399048V.18388367Z"/>
<path id="font_5_80" d="M.70700076 .33880616C.70700076 .54597476 .5549927 .70410159 .3809967 .70410159 .20298767 .70410159 .053985597 .54397585 .053985597 .33880616 .053985597 .13562012 .20498657-.021484375 .37998963-.021484375 .5589905-.021484375 .70700076 .13761902 .70700076 .33880616M.6139984 .35380555C.6139984 .09358215 .47799684 .0015106201 .3809967 .0015106201 .2789917 .0015106201 .14698792 .097595218 .14698792 .35380555 .14698792 .59902957 .28599549 .6820984 .37998963 .6820984 .47898866 .6820984 .6139984 .59602358 .6139984 .35380555Z"/>
<path id="font_5_85" d="M.32499696-.24298096C.32499696-.23999024 .32499696-.23799134 .30799867-.22097779 .20799256-.11999512 .1519928 .045013429 .1519928 .24900818 .1519928 .44299317 .19898987 .60998538 .31498719 .72798159 .32499696 .73698428 .32499696 .73898318 .32499696 .74198916 .32499696 .74798586 .31999208 .75 .31599427 .75 .30299378 .75 .22099304 .6779938 .17199707 .5799866 .12098694 .47898866 .09799194 .37199403 .09799194 .24900818 .09799194 .16000366 .11199951 .041000368 .1639862-.06599426 .22299195-.18598938 .30499269-.25097657 .31599427-.25097657 .31999208-.25097657 .32499696-.24897766 .32499696-.24298096Z"/>
<path id="font_5_121" d="M.44799806 .31976319C.44799806 .40283204 .44299317 .48388673 .40699769 .5599518 .3659973 .64302065 .2939911 .66503909 .24499512 .66503909 .18699646 .66503909 .115997318 .6360016 .07899475 .552948 .050994874 .48989869 .040985109 .42785646 .040985109 .31976319 .040985109 .22268677 .04798889 .14964295 .083999637 .07858276 .12298584 .002532959 .19198609-.021484375 .24398804-.021484375 .33099366-.021484375 .3809967 .030548096 .4099884 .08859253 .44599916 .16365052 .44799806 .26171876 .44799806 .31976319M.37199403 .33177186C.37199403 .26472474 .37199403 .18867493 .36099244 .12762451 .34199525 .017532349 .2789917-.0014801025 .24398804-.0014801025 .21199036-.0014801025 .14698792 .016540528 .12799073 .12562561 .116989139 .18566895 .116989139 .26171876 .116989139 .33177186 .116989139 .41383363 .116989139 .48789979 .1329956 .54693606 .1499939 .6139984 .20098877 .64501956 .24398804 .64501956 .28199769 .64501956 .33999635 .621994 .35899354 .53593447 .37199403 .47888185 .37199403 .39982606 .37199403 .33177186Z"/>
<path id="font_5_45" d="M.19499207-.0040130617C.19499207 .057998659 .17399597 .09700012 .1349945 .09700012 .10598755 .09700012 .08699036 .07499695 .08699036 .04899597 .08699036 .021987915 .10598755 0 .13598633 0 .15098572 0 .1619873 .0069885256 .16799927 .011993408 .17098999 .01499939 .17298889 .01499939 .17298889 .01499939 .17298889 .01499939 .1749878 .0009918213 .1749878-.0040130617 .1749878-.06813049 .14898682-.12825012 .10499573-.17433167 .100997928-.17733765 .099990848-.17933655 .099990848-.18334961 .099990848-.18835449 .10499573-.19335938 .10998535-.19335938 .11898804-.19335938 .19499207-.11923218 .19499207-.0040130617Z"/>
<path id="font_5_86" d="M.28199769 .24900818C.28199769 .32499696 .27198792 .44898988 .21598816 .5649872 .15699768 .6849823 .07499695 .75 .06399536 .75 .05999756 .75 .054992677 .74798586 .054992677 .74198916 .054992677 .73898318 .054992677 .73698428 .07199097 .71998599 .17199707 .61898806 .22799683 .45399476 .22799683 .25 .22799683 .055999757 .18099976-.11099243 .06498718-.22898865 .054992677-.23799134 .054992677-.23999024 .054992677-.24298096 .054992677-.24897766 .05999756-.25097657 .06399536-.25097657 .07699585-.25097657 .15899658-.1789856 .20799256-.08099365 .25898744 .021011353 .28199769 .1289978 .28199769 .24900818Z"/>
</defs>
<path transform="matrix(1.00008,0,0,-1.00002,87.14244,171.88013)" stroke-width=".19925" stroke-linecap="butt" stroke-miterlimit="10" stroke-linejoin="miter" fill="none" stroke="#d9d9d9" d="M-85.04042-82.21063H198.42766M-85.04042-79.37578H198.42766M-85.04042-76.54094H198.42766M-85.04042-73.70609H198.42766M-85.04042-70.87123H198.42766M-85.04042-68.03639H198.42766M-85.04042-65.20154H198.42766M-85.04042-62.36668H198.42766M-85.04042-59.53183H198.42766M-85.04042-56.69699H198.42766M-85.04042-53.86214H198.42766M-85.04042-51.02728H198.42766M-85.04042-48.19244H198.42766M-85.04042-45.35759H198.42766M-85.04042-42.52274H198.42766M-85.04042-39.68788H198.42766M-85.04042-36.85304H198.42766M-85.04042-34.01819H198.42766M-85.04042-31.18333H198.42766M-85.04042-28.3485H198.42766M-85.04042-25.51364H198.42766M-85.04042-22.67879H198.42766M-85.04042-19.84393H198.42766M-85.04042-17.0091H198.42766M-85.04042-14.17424H198.42766M-85.04042-11.33939H198.42766M-85.04042-8.50455H198.42766M-85.04042-5.6697H198.42766M-85.04042-2.83484H198.42766M-85.04042 0H198.42766M-85.04042 2.83484H198.42766M-85.04042 5.6697H198.42766M-85.04042 8.50455H198.42766M-85.04042 11.33939H198.42766M-85.04042 14.17424H198.42766M-85.04042 17.0091H198.42766M-85.04042 19.84393H198.42766M-85.04042 22.67879H198.42766M-85.04042 25.51364H198.42766M-85.04042 28.3485H198.42766M-85.04042 31.18333H198.42766M-85.04042 34.01819H198.42766M-85.04042 36.85304H198.42766M-85.04042 39.68788H198.42766M-85.04042 42.52274H198.42766M-85.04042 45.35759H198.42766M-85.04042 48.19244H198.42766M-85.04042 51.02728H198.42766M-85.04042 53.86214H198.42766M-85.04042 56.69699H198.42766M-85.04042 59.53183H198.42766M-85.04042 62.36668H198.42766M-85.04042 65.20154H198.42766M-85.04042 68.03639H198.42766M-85.04042 70.87123H198.42766M-85.04042 73.70609H198.42766M-85.04042 76.54094H198.42766M-85.04042 79.37578H198.42766M-85.04042 82.21063H198.42766M-85.04042 85.04549H198.42766M-85.04042 87.88034H198.42766M-85.04042 90.71518H198.42766M-85.04042 93.55003H198.42766M-85.04042 96.38489H198.42766M-85.04042 99.21973H198.42766M-85.04042 102.05458H198.42766M-85.04042 104.88943H198.42766M-85.04042 107.72429H198.42766M-85.04042 110.55913H198.42766M-85.04042 113.39398H198.42766M-85.04042 116.22884H198.42766M-85.04042 119.06367H198.42766M-85.04042 121.89853H198.42766M-85.04042 124.73338H198.42766M-85.04042 127.56824H198.42766M-85.04042 130.40308H198.42766M-85.04042 133.23793H198.42766M-85.04042 136.07279H198.42766M-85.04042 138.90763H198.42766M-85.04042 141.74248H198.42766M-85.04042 144.57733H198.42766M-85.04042 147.41219H198.42766M-85.04042 150.24703H198.42766M-85.04042 153.08188H198.42766M-85.04042 155.91674H198.42766M-85.04042 158.75157H198.42766M-85.04042 161.58643H198.42766M-85.04042 164.42128H198.42766M-85.04042 167.25612H198.42766M-82.21063-85.04042V170.08086M-79.37578-85.04042V170.08086M-76.54094-85.04042V170.08086M-73.70609-85.04042V170.08086M-70.87123-85.04042V170.08086M-68.03639-85.04042V170.08086M-65.20154-85.04042V170.08086M-62.36668-85.04042V170.08086M-59.53183-85.04042V170.08086M-56.69699-85.04042V170.08086M-53.86214-85.04042V170.08086M-51.02728-85.04042V170.08086M-48.19244-85.04042V170.08086M-45.35759-85.04042V170.08086M-42.52274-85.04042V170.08086M-39.68788-85.04042V170.08086M-36.85304-85.04042V170.08086M-34.01819-85.04042V170.08086M-31.18333-85.04042V170.08086M-28.3485-85.04042V170.08086M-25.51364-85.04042V170.08086M-22.67879-85.04042V170.08086M-19.84393-85.04042V170.08086M-17.0091-85.04042V170.08086M-14.17424-85.04042V170.08086M-11.33939-85.04042V170.08086M-8.50455-85.04042V170.08086M-5.6697-85.04042V170.08086M-2.83484-85.04042V170.08086M0-85.04042V170.08086M2.83484-85.04042V170.08086M5.6697-85.04042V170.08086M8.50455-85.04042V170.08086M11.33939-85.04042V170.08086M14.17424-85.04042V170.08086M17.0091-85.04042V170.08086M19.84393-85.04042V170.08086M22.67879-85.04042V170.08086M25.51364-85.04042V170.08086M28.3485-85.04042V170.08086M31.18333-85.04042V170.08086M34.01819-85.04042V170.08086M36.85304-85.04042V170.08086M39.68788-85.04042V170.08086M42.52274-85.04042V170.08086M45.35759-85.04042V170.08086M48.19244-85.04042V170.08086M51.02728-85.04042V170.08086M53.86214-85.04042V170.08086M56.69699-85.04042V170.08086M59.53183-85.04042V170.08086M62.36668-85.04042V170.08086M65.20154-85.04042V170.08086M68.03639-85.04042V170.08086M70.87123-85.04042V170.08086M73.70609-85.04042V170.08086M76.54094-85.04042V170.08086M79.37578-85.04042V170.08086M82.21063-85.04042V170.08086M85.04549-85.04042V170.08086M87.88034-85.04042V170.08086M90.71518-85.04042V170.08086M93.55003-85.04042V170.08086M96.38489-85.04042V170.08086M99.21973-85.04042V170.08086M102.05458-85.04042V170.08086M104.88943-85.04042V170.08086M107.72429-85.04042V170.08086M110.55913-85.04042V170.08086M113.39398-85.04042V170.08086M116.22884-85.04042V170.08086M119.06367-85.04042V170.08086M121.89853-85.04042V170.08086M124.73338-85.04042V170.08086M127.56824-85.04042V170.08086M130.40308-85.04042V170.08086M133.23793-85.04042V170.08086M136.07279-85.04042V170.08086M138.90763-85.04042V170.08086M141.74248-85.04042V170.08086M144.57733-85.04042V170.08086M147.41219-85.04042V170.08086M150.24703-85.04042V170.08086M153.08188-85.04042V170.08086M155.91674-85.04042V170.08086M158.75157-85.04042V170.08086M161.58643-85.04042V170.08086M164.42128-85.04042V170.08086M167.25612-85.04042V170.08086M170.09098-85.04042V170.08086M172.92583-85.04042V170.08086M175.76068-85.04042V170.08086M178.59552-85.04042V170.08086M181.43038-85.04042V170.08086M184.26523-85.04042V170.08086M187.10007-85.04042V170.08086M189.93492-85.04042V170.08086M192.76978-85.04042V170.08086M195.60463-85.04042V170.08086M198.42766 170.08086"/>
<path transform="matrix(1.00008,0,0,-1.00002,87.14244,171.88013)" stroke-width=".3985" stroke-linecap="butt" stroke-miterlimit="10" stroke-linejoin="miter" fill="none" stroke="#a6a6a6" d="M-85.04042-85.04042H198.42766M-85.04042-56.69362H198.42766M-85.04042-28.3468H198.42766M-85.04042 0H198.42766M-85.04042 28.3468H198.42766M-85.04042 56.69362H198.42766M-85.04042 85.04042H198.42766M-85.04042 113.38724H198.42766M-85.04042 141.73404H198.42766M-85.04042 170.07089H198.42766M-85.04042-85.04042V170.08086M-56.69362-85.04042V170.08086M-28.3468-85.04042V170.08086M0-85.04042V170.08086M28.3468-85.04042V170.08086M56.69362-85.04042V170.08086M85.04042-85.04042V170.08086M113.38724-85.04042V170.08086M141.73404-85.04042V170.08086M170.08086-85.04042V170.08086M198.41771-85.04042V170.08086M198.42766 170.08086"/>
<path transform="matrix(1.00008,0,0,-1.00002,87.14244,171.88013)" stroke-width=".79701" stroke-linecap="butt" stroke-miterlimit="10" stroke-linejoin="miter" fill="none" stroke="#000000" d="M0 0H183.45725"/>
<path transform="matrix(1.00008,0,0,-1.00002,271.01289,171.88013)" stroke-width=".79701" stroke-linecap="round" stroke-linejoin="round" fill="none" stroke="#000000" d="M-2.55046 3.11095C-2.0845 1.24435-1.04614 .36295 0 0-1.04614-.36295-2.0845-1.24435-2.55046-3.11095"/>
<use data-text="x" xlink:href="#font_1_1" transform="matrix(8.967117,0,0,-8.966579,275.1305,173.81017)"/>
<path transform="matrix(1.00008,0,0,-1.00002,87.14244,171.88013)" stroke-width=".79701" stroke-linecap="butt" stroke-miterlimit="10" stroke-linejoin="miter" fill="none" stroke="#000000" d="M0 0V155.11043"/>
<path transform="matrix(0,-1.00002,-1.00008,-0,87.14244,16.368073)" stroke-width=".79701" stroke-linecap="round" stroke-linejoin="round" fill="none" stroke="#000000" d="M-2.55046 3.11095C-2.0845 1.24435-1.04614 .36295 0 0-1.04614-.36295-2.0845-1.24435-2.55046-3.11095"/>
<use data-text="y" xlink:href="#font_1_2" transform="matrix(8.967117,0,0,-8.966579,84.71225,10.506897)"/>
<path transform="matrix(1.00008,0,0,-1.00002,87.14244,171.88013)" stroke-width=".3985" stroke-linecap="butt" stroke-miterlimit="10" stroke-linejoin="miter" fill="none" stroke="#000000" d="M28.3468 5.66927V-5.66927"/>
<use data-text="1" xlink:href="#font_2_82" transform="matrix(8.967117,0,0,-8.966579,113.18652,187.04143)"/>
<path transform="matrix(1.00008,0,0,-1.00002,87.14244,171.88013)" stroke-width=".3985" stroke-linecap="butt" stroke-miterlimit="10" stroke-linejoin="miter" fill="none" stroke="#000000" d="M56.69362 5.66927V-5.66927"/>
<use data-text="2" xlink:href="#font_2_107" transform="matrix(8.967117,0,0,-8.966579,141.5358,187.04143)"/>
<path transform="matrix(1.00008,0,0,-1.00002,87.14244,171.88013)" stroke-width=".3985" stroke-linecap="butt" stroke-miterlimit="10" stroke-linejoin="miter" fill="none" stroke="#000000" d="M85.04042 5.66927V-5.66927"/>
<use data-text="3" xlink:href="#font_2_106" transform="matrix(8.967117,0,0,-8.966579,169.88506,187.04143)"/>
<path transform="matrix(1.00008,0,0,-1.00002,87.14244,171.88013)" stroke-width=".3985" stroke-linecap="butt" stroke-miterlimit="10" stroke-linejoin="miter" fill="none" stroke="#000000" d="M113.38724 5.66927V-5.66927"/>
<use data-text="4" xlink:href="#font_2_57" transform="matrix(8.967117,0,0,-8.966579,198.23433,187.13944)"/>
<path transform="matrix(1.00008,0,0,-1.00002,87.14244,171.88013)" stroke-width=".3985" stroke-linecap="butt" stroke-miterlimit="10" stroke-linejoin="miter" fill="none" stroke="#000000" d="M141.73404 5.66927V-5.66927"/>
<use data-text="5" xlink:href="#font_2_56" transform="matrix(8.967117,0,0,-8.966579,226.58359,187.04143)"/>
<path transform="matrix(1.00008,0,0,-1.00002,87.14244,171.88013)" stroke-width=".3985" stroke-linecap="butt" stroke-miterlimit="10" stroke-linejoin="miter" fill="none" stroke="#000000" d="M170.08086 5.66927V-5.66927"/>
<use data-text="6" xlink:href="#font_2_101" transform="matrix(8.967117,0,0,-8.966579,254.93187,187.04143)"/>
<path transform="matrix(1.00008,0,0,-1.00002,87.14244,171.88013)" stroke-width=".3985" stroke-linecap="butt" stroke-miterlimit="10" stroke-linejoin="miter" fill="none" stroke="#000000" d="M5.66927 28.3468H-5.66927"/>
<use data-text="1" xlink:href="#font_2_82" transform="matrix(8.967117,0,0,-8.966579,73.34334,146.51862)"/>
<path transform="matrix(1.00008,0,0,-1.00002,87.14244,171.88013)" stroke-width=".3985" stroke-linecap="butt" stroke-miterlimit="10" stroke-linejoin="miter" fill="none" stroke="#000000" d="M5.66927 56.69362H-5.66927"/>
<use data-text="2" xlink:href="#font_2_107" transform="matrix(8.967117,0,0,-8.966579,73.34334,118.17105)"/>
<path transform="matrix(1.00008,0,0,-1.00002,87.14244,171.88013)" stroke-width=".3985" stroke-linecap="butt" stroke-miterlimit="10" stroke-linejoin="miter" fill="none" stroke="#000000" d="M5.66927 85.04042H-5.66927"/>
<use data-text="3" xlink:href="#font_2_106" transform="matrix(8.967117,0,0,-8.966579,73.34334,89.72548)"/>
<path transform="matrix(1.00008,0,0,-1.00002,87.14244,171.88013)" stroke-width=".3985" stroke-linecap="butt" stroke-miterlimit="10" stroke-linejoin="miter" fill="none" stroke="#000000" d="M5.66927 113.38724H-5.66927"/>
<use data-text="4" xlink:href="#font_2_57" transform="matrix(8.967117,0,0,-8.966579,73.34334,61.525918)"/>
<path transform="matrix(1.00008,0,0,-1.00002,87.14244,171.88013)" stroke-width=".3985" stroke-linecap="butt" stroke-miterlimit="10" stroke-linejoin="miter" fill="none" stroke="#000000" d="M5.66927 141.73404H-5.66927"/>
<use data-text="5" xlink:href="#font_2_56" transform="matrix(8.967117,0,0,-8.966579,73.34334,33.03035)"/>
<use data-text="0" xlink:href="#font_3_121" transform="matrix(9.963397,0,0,-9.962799,84.651248,184.87039)"/>
<path transform="matrix(1.00008,0,0,-1.00002,87.14244,171.88013)" stroke-width=".3985" stroke-linecap="butt" stroke-miterlimit="10" stroke-linejoin="miter" fill="none" stroke="#000000" d="M36.85092 55.55992 34.01591 49.88914"/>
<path transform="matrix(.44717578,-.89441797,-.8944715,-.44714896,121.16106,121.99)" d="M6.15236 0C5.39682 .18257 2.07571 1.21715 0 2.34303V-2.34303C2.07571-1.21715 5.39682-.18257 6.15236 0Z"/>
<path transform="matrix(.44717578,-.89441797,-.8944715,-.44714896,121.16106,121.99)" stroke-width=".3985" stroke-linecap="butt" stroke-miterlimit="10" stroke-linejoin="miter" fill="none" stroke="#000000" d="M6.15236 0C5.39682 .18257 2.07571 1.21715 0 2.34303V-2.34303C2.07571-1.21715 5.39682-.18257 6.15236 0Z"/>
<path transform="matrix(1.00008,0,0,-1.00002,87.14244,171.88013)" stroke-width=".3985" stroke-linecap="butt" stroke-miterlimit="10" stroke-linejoin="miter" fill="none" stroke="#000000" d="M68.03217 13.60632 62.61157 12.52182"/>
<path transform="matrix(.98058846,-.19620393,-.19621569,-.9805296,149.75902,159.35807)" d="M6.15236 0C5.39682 .18257 2.07571 1.21715 0 2.34303V-2.34303C2.07571-1.21715 5.39682-.18257 6.15236 0Z"/>
<path transform="matrix(.98058846,-.19620393,-.19621569,-.9805296,149.75902,159.35807)" stroke-width=".3985" stroke-linecap="butt" stroke-miterlimit="10" stroke-linejoin="miter" fill="none" stroke="#000000" d="M6.15236 0C5.39682 .18257 2.07571 1.21715 0 2.34303V-2.34303C2.07571-1.21715 5.39682-.18257 6.15236 0Z"/>
<path transform="matrix(1.00008,0,0,-1.00002,87.14244,171.88013)" stroke-width=".79701" stroke-linecap="butt" stroke-miterlimit="10" stroke-linejoin="miter" fill="none" stroke="#000000" d="M0 0 56.69362 85.04042"/>
<use data-text="a" xlink:href="#font_4_1" transform="matrix(8.967117,0,0,-8.966579,106.614,131.35132)"/>
<path transform="matrix(1.00008,0,0,-1.00002,87.14244,171.88013)" stroke-width=".79701" stroke-linecap="butt" stroke-miterlimit="10" stroke-linejoin="miter" fill="none" stroke="#000000" d="M0 0 141.73404 28.3468"/>
<use data-text="b" xlink:href="#font_4_2" transform="matrix(8.967117,0,0,-8.966579,155.06787,167.65204)"/>
<path transform="matrix(1.00008,0,0,-1.00002,87.14244,171.88013)" stroke-width=".79701" stroke-linecap="butt" stroke-miterlimit="10" stroke-linejoin="miter" fill="none" stroke="#000000" d="M56.69362 85.04042 141.73404 28.3468"/>
<use data-text="A" xlink:href="#font_2_27" transform="matrix(8.967117,0,0,-8.966579,114.44962,81.08531)"/>
<use data-text="(" xlink:href="#font_2_85" transform="matrix(8.967117,0,0,-8.966579,121.36329,81.08531)"/>
<use data-text="2" xlink:href="#font_2_107" transform="matrix(8.967117,0,0,-8.966579,124.95013,81.08531)"/>
<use data-text="," xlink:href="#font_2_45" transform="matrix(8.967117,0,0,-8.966579,129.55924,81.08531)"/>
<use data-text="3" xlink:href="#font_2_106" transform="matrix(8.967117,0,0,-8.966579,132.12384,81.08531)"/>
<use data-text=")" xlink:href="#font_2_86" transform="matrix(8.967117,0,0,-8.966579,136.73294,81.08531)"/>
<use data-text="B" xlink:href="#font_2_34" transform="matrix(8.967117,0,0,-8.966579,232.40805,145.77861)"/>
<use data-text="(" xlink:href="#font_2_85" transform="matrix(8.967117,0,0,-8.966579,238.93613,145.77861)"/>
<use data-text="5" xlink:href="#font_2_56" transform="matrix(8.967117,0,0,-8.966579,242.52297,145.77861)"/>
<use data-text="," xlink:href="#font_2_45" transform="matrix(8.967117,0,0,-8.966579,247.13208,145.77861)"/>
<use data-text="1" xlink:href="#font_2_82" transform="matrix(8.967117,0,0,-8.966579,249.69667,145.77861)"/>
<use data-text=")" xlink:href="#font_2_86" transform="matrix(8.967117,0,0,-8.966579,254.30577,145.77861)"/>
<use data-text="O" xlink:href="#font_5_80" transform="matrix(11.956157,0,0,-11.95544,47.596284,168.19405)"/>
<use data-text="(" xlink:href="#font_5_85" transform="matrix(11.956157,0,0,-11.95544,56.70688,168.19405)"/>
<use data-text="0" xlink:href="#font_5_121" transform="matrix(11.956157,0,0,-11.95544,61.262178,168.19405)"/>
<use data-text="," xlink:href="#font_5_45" transform="matrix(11.956157,0,0,-11.95544,67.1207,168.19405)"/>
<use data-text="0" xlink:href="#font_5_121" transform="matrix(11.956157,0,0,-11.95544,70.37277,168.19405)"/>
<use data-text=")" xlink:href="#font_5_86" transform="matrix(11.956157,0,0,-11.95544,76.23128,168.19405)"/>
</svg>
