<svg xmlns="http://www.w3.org/2000/svg" xmlns:xlink="http://www.w3.org/1999/xlink" xmlns:inkscape="http://www.inkscape.org/namespaces/inkscape" version="1.1" width="429" height="429" viewBox="0 0 429 429">
<defs>
<path id="font_1_3" d="M.1789856 .23242188C.20599365 .23242188 .27398683 .23442078 .32199098 .2524109 .397995 .28141786 .40499879 .33940126 .40499879 .35740663 .40499879 .4013977 .36698915 .44140626 .30099488 .44140626 .19599915 .44140626 .04499817 .34640504 .04499817 .16836548 .04499817 .0632782 .10499573-.009765625 .19599915-.009765625 .33198548-.009765625 .41799928 .09629822 .41799928 .109313968 .41799928 .11531067 .4119873 .12031555 .4079895 .12031555 .40499879 .12031555 .4039917 .11932373 .394989 .110305789 .33099366 .025238038 .23599243 .010223389 .19799805 .010223389 .14099121 .010223389 .11099243 .055267335 .11099243 .1293335 .11099243 .14334107 .11099243 .16836548 .12599182 .23242188H.1789856M.1309967 .2524109C.17399597 .4064026 .2689972 .42140199 .30099488 .42140199 .34498597 .42140199 .375 .395401 .375 .35740663 .375 .2524109 .21499634 .2524109 .17298889 .2524109H.1309967Z"/>
<path id="font_1_2" d="M.5029907 .6693268C.5039978 .6733246 .5059967 .6793213 .5059967 .6843262 .5059967 .69433596 .49598695 .69433596 .49398805 .69433596 .49299623 .69433596 .44400025 .6903229 .43899537 .68933108 .42199708 .688324 .40699769 .6863251 .3889923 .68533328 .3639984 .68333438 .35699464 .6823273 .35699464 .6643219 .35699464 .6543274 .36499024 .6543274 .3789978 .6543274 .42799378 .6543274 .42900086 .6453247 .42900086 .6353302 .42900086 .6293335 .4269867 .6213379 .42599488 .61834719L.36499024 .37538148C.35398866 .4013977 .32699586 .44140626 .2749939 .44140626 .1619873 .44140626 .039993287 .29534913 .039993287 .14727783 .039993287 .04824829 .09799194-.009765625 .1659851-.009765625 .22099304-.009765625 .2679901 .033233644 .29599 .06625366 .30599977 .007232666 .35299684-.009765625 .3829956-.009765625 .41299439-.009765625 .43699647 .008224487 .45498658 .04423523 .47099305 .07826233 .4850006 .13928223 .4850006 .14328003 .4850006 .14828491 .48098756 .15228272 .47499085 .15228272 .46598817 .15228272 .46499635 .14727783 .46099855 .13227844 .44599916 .07325745 .4269867 .010223389 .38598634 .010223389 .35699464 .010223389 .35499574 .036239625 .35499574 .056243898 .35499574 .0602417 .35499574 .08125305 .3619995 .10926819L.5029907 .6693268M.30099488 .119277957C.29599 .102264408 .29599 .1002655 .28199769 .08125305 .2599945 .053237916 .21598816 .010223389 .16899109 .010223389 .12799073 .010223389 .10499573 .04724121 .10499573 .10626221 .10499573 .1612854 .13598633 .2733307 .15499878 .3153534 .18899536 .38539125 .23599243 .42140199 .2749939 .42140199 .34098817 .42140199 .35398866 .33937074 .35398866 .33135987 .35398866 .33036805 .35099793 .3173523 .34999085 .3153534L.30099488 .119277957Z"/>
<path id="font_1_1" d="M.23098755 .6693268C.23199463 .6733246 .23399353 .6793213 .23399353 .6843262 .23399353 .69433596 .22399903 .69433596 .22200012 .69433596 .22099304 .69433596 .18499756 .69132998 .16699219 .68933108 .1499939 .688324 .1349945 .6863251 .116989139 .68533328 .09298706 .68333438 .085998538 .6823273 .085998538 .6643219 .085998538 .6543274 .09599304 .6543274 .10598755 .6543274 .15699768 .6543274 .15699768 .6453247 .15699768 .6353302 .15699768 .6283417 .14898682 .59935 .14498902 .58135989L.12098694 .48538209C.11099243 .44540406 .053985597 .2183075 .049987794 .20030213 .04499817 .17529297 .04499817 .15829468 .04499817 .14527893 .04499817 .04324341 .101989749-.009765625 .16699219-.009765625 .2829895-.009765625 .40299989 .13928223 .40299989 .28434754 .40299989 .3763733 .35099793 .44140626 .27598573 .44140626 .22399903 .44140626 .1769867 .39839173 .1579895 .37838746L.23098755 .6693268M.16799927 .010223389C.13598633 .010223389 .100997928 .034240724 .100997928 .11227417 .100997928 .14527893 .10398865 .16429138 .12199402 .23431397 .125 .24732971 .14099121 .3113556 .14498902 .32435609 .14698792 .33236695 .20599365 .42140199 .27398683 .42140199 .31799317 .42140199 .33799745 .37738038 .33799745 .32536317 .33799745 .27734376 .30999757 .16429138 .2849884 .11227417 .2599945 .058242799 .21398926 .010223389 .16799927 .010223389Z"/>
<path id="font_1_4" d="M.44599916 .4016571C.46598817 .4016571 .47399903 .4016571 .47399903 .4206543 .47399903 .43066407 .46598817 .43066407 .44799806 .43066407H.36698915C.38598634 .5338745 .3999939 .60498049 .4079895 .63697817 .4139862 .6609802 .43499757 .6840973 .46099855 .6840973 .48199464 .6840973 .5029907 .67503359 .5130005 .6659851 .47399903 .66197207 .46199037 .63298037 .46199037 .61598208 .46199037 .5959778 .47698976 .5839844 .49598695 .5839844 .5159912 .5839844 .54599 .60098269 .54599 .63897708 .54599 .68107607 .5039978 .70410159 .45999146 .70410159 .4169922 .70410159 .375 .6720276 .35499574 .63298037 .33699037 .5979767 .32699586 .5619354 .3039856 .43066407H.23699951C.21798706 .43066407 .20799256 .43066407 .20799256 .4126587 .20799256 .4016571 .21398926 .4016571 .23399353 .4016571H.2979889C.27999879 .30871583 .23899842 .082839969 .21598816-.024108887 .19898987-.111068729 .18399048-.18411255 .13398743-.18411255 .1309967-.18411255 .101989749-.18411255 .083999637-.16506958 .1349945-.16107178 .1349945-.11706543 .1349945-.11607361 .1349945-.096069339 .11999512-.08407593 .100997928-.08407593 .08099365-.08407593 .050994874-.10107422 .050994874-.1390686 .050994874-.18209839 .09498596-.20410156 .13398743-.20410156 .23599243-.20410156 .27799989-.021102906 .2889862 .028869629 .30699159 .1058197 .35598756 .37167359 .36099244 .4016571H.44599916Z"/>
<path id="font_1_5" d="M.33799745 .12710572C.33399964 .111083988 .33198548 .10708618 .31900025 .09207153 .27799989 .039016725 .23599243 .019989014 .20498657 .019989014 .17199707 .019989014 .14099121 .046020509 .14099121 .11508179 .14099121 .1681366 .17098999 .28025819 .19299317 .32530213 .22200012 .38136292 .2669983 .42140199 .30899049 .42140199 .375 .42140199 .3880005 .3393097 .3880005 .333313L.3849945 .31929017 .33799745 .12710572M.3999939 .37535096C.3869934 .40438844 .35899354 .44140626 .30899049 .44140626 .19999695 .44140626 .07598877 .3042755 .07598877 .15513611 .07598877 .05102539 .13899231 0 .20298767 0 .2559967 0 .30299378 .042007448 .32099916 .062042238L.29899598-.028030396C.2849884-.08305359 .2789917-.108062747 .24299622-.14308167 .20199585-.18411255 .1639862-.18411255 .14199829-.18411255 .11199951-.18411255 .08699036-.18211365 .06199646-.17410279 .09399414-.1651001 .101989749-.13708496 .101989749-.12608338 .101989749-.110061649 .08999634-.094055179 .067993167-.094055179 .04399109-.094055179 .017990113-.11407471 .017990113-.14709473 .017990113-.18811035 .05899048-.20410156 .14399719-.20410156 .272995-.20410156 .33999635-.12107849 .35299684-.06704712L.46398927 .38131715C.46699525 .3933258 .46699525 .3953247 .46699525 .3973236 .46699525 .41133119 .45599366 .42233277 .44099427 .42233277 .4169922 .42233277 .40299989 .40234376 .3999939 .37530519V.37535096Z"/>
<path id="font_1_6" d="M.2809906 .6693268C.28199769 .6733246 .28399659 .6793213 .28399659 .6843262 .28399659 .69433596 .27398683 .69433596 .27198792 .69433596 .2709961 .69433596 .22200012 .6903229 .21699524 .68933108 .19999695 .688324 .18499756 .6863251 .16699219 .68533328 .14199829 .68333438 .1349945 .6823273 .1349945 .6643219 .1349945 .6543274 .14299011 .6543274 .15699768 .6543274 .20599365 .6543274 .20698548 .6453247 .20698548 .6353302 .20698548 .6293335 .20498657 .6213379 .20399475 .61834719L.05899048 .039245607C.054992677 .024230957 .054992677 .022232056 .054992677 .016235352 .054992677-.0057678224 .07199097-.009765625 .08198547-.009765625 .09899902-.009765625 .11199951 .0032196046 .116989139 .014221191L.1619873 .19529724C.16699219 .21731568 .17298889 .23832703 .17799378 .2603302 .18899536 .3023529 .18899536 .30334474 .20799256 .33236695 .22698975 .3613739 .27198792 .42140199 .34899903 .42140199 .3889923 .42140199 .40299989 .39138795 .40299989 .35136415 .40299989 .29534913 .3639984 .18629456 .34199525 .12628174 .33299256 .102264408 .32798768 .089263919 .32798768 .071258548 .32798768 .026229859 .35899354-.009765625 .40699769-.009765625 .5-.009765625 .5349884 .13728333 .5349884 .14328003 .5349884 .14828491 .5309906 .15228272 .5249939 .15228272 .5159912 .15228272 .5149994 .14929199 .5099945 .13227844 .4869995 .052246095 .44999696 .010223389 .4099884 .010223389 .3999939 .010223389 .38398744 .011230469 .38398744 .04324341 .38398744 .069244388 .3959961 .101257327 .3999939 .11227417 .41799928 .16029358 .46299745 .27833558 .46299745 .33636476 .46299745 .39639283 .42799378 .44140626 .35198976 .44140626 .29499818 .44140626 .24499512 .4143982 .20399475 .36238099L.2809906 .6693268Z"/>
</defs>
<path transform="matrix(1,0,0,-1.00006,2.2949982,427.22068)" stroke-width=".19925" stroke-linecap="butt" stroke-miterlimit="10" stroke-linejoin="miter" fill="none" stroke="#d9d9d9" d="M0 0H425.20213M0 2.83484H425.20213M0 5.6697H425.20213M0 8.50455H425.20213M0 11.33939H425.20213M0 14.17424H425.20213M0 17.0091H425.20213M0 19.84393H425.20213M0 22.67879H425.20213M0 25.51364H425.20213M0 28.3485H425.20213M0 31.18333H425.20213M0 34.01819H425.20213M0 36.85304H425.20213M0 39.68788H425.20213M0 42.52274H425.20213M0 45.35759H425.20213M0 48.19244H425.20213M0 51.02728H425.20213M0 53.86214H425.20213M0 56.69699H425.20213M0 59.53183H425.20213M0 62.36668H425.20213M0 65.20154H425.20213M0 68.03639H425.20213M0 70.87123H425.20213M0 73.70609H425.20213M0 76.54094H425.20213M0 79.37578H425.20213M0 82.21063H425.20213M0 85.04549H425.20213M0 87.88034H425.20213M0 90.71518H425.20213M0 93.55003H425.20213M0 96.38489H425.20213M0 99.21973H425.20213M0 102.05458H425.20213M0 104.88943H425.20213M0 107.72429H425.20213M0 110.55913H425.20213M0 113.39398H425.20213M0 116.22884H425.20213M0 119.06367H425.20213M0 121.89853H425.20213M0 124.73338H425.20213M0 127.56824H425.20213M0 130.40308H425.20213M0 133.23793H425.20213M0 136.07279H425.20213M0 138.90763H425.20213M0 141.74248H425.20213M0 144.57733H425.20213M0 147.41219H425.20213M0 150.24703H425.20213M0 153.08188H425.20213M0 155.91674H425.20213M0 158.75157H425.20213M0 161.58643H425.20213M0 164.42128H425.20213M0 167.25612H425.20213M0 170.09098H425.20213M0 172.92583H425.20213M0 175.76068H425.20213M0 178.59552H425.20213M0 181.43038H425.20213M0 184.26523H425.20213M0 187.10007H425.20213M0 189.93492H425.20213M0 192.76978H425.20213M0 195.60463H425.20213M0 198.43947H425.20213M0 201.27433H425.20213M0 204.10918H425.20213M0 206.94402H425.20213M0 209.77887H425.20213M0 212.61373H425.20213M0 215.44858H425.20213M0 218.28342H425.20213M0 221.11827H425.20213M0 223.95313H425.20213M0 226.78797H425.20213M0 229.62282H425.20213M0 232.45767H425.20213M0 235.29253H425.20213M0 238.12737H425.20213M0 240.96222H425.20213M0 243.79708H425.20213M0 246.63191H425.20213M0 249.46677H425.20213M0 252.30162H425.20213M0 255.13648H425.20213M0 257.9713H425.20213M0 260.80619H425.20213M0 263.64103H425.20213M0 266.47587H425.20213M0 269.3107H425.20213M0 272.14558H425.20213M0 274.9804H425.20213M0 277.81526H425.20213M0 280.65013H425.20213M0 283.48497H425.20213M0 286.31983H425.20213M0 289.15467H425.20213M0 291.98954H425.20213M0 294.82438H425.20213M0 297.6592H425.20213M0 300.49406H425.20213M0 303.32893H425.20213M0 306.16377H425.20213M0 308.9986H425.20213M0 311.83348H425.20213M0 314.66835H425.20213M0 317.50318H425.20213M0 320.338H425.20213M0 323.17289H425.20213M0 326.0077H425.20213M0 328.84257H425.20213M0 331.6774H425.20213M0 334.51225H425.20213M0 337.3471H425.20213M0 340.18196H425.20213M0 343.0168H425.20213M0 345.85166H425.20213M0 348.68653H425.20213M0 351.52137H425.20213M0 354.3562H425.20213M0 357.19108H425.20213M0 360.0259H425.20213M0 362.86076H425.20213M0 365.6956H425.20213M0 368.53047H425.20213M0 371.3653H425.20213M0 374.20018H425.20213M0 377.035H425.20213M0 379.86988H425.20213M0 382.7047H425.20213M0 385.53956H425.20213M0 388.3744H425.20213M0 391.20927H425.20213M0 394.0441H425.20213M0 396.87895H425.20213M0 399.7138H425.20213M0 402.54866H425.20213M0 405.3835H425.20213M0 408.21836H425.20213M0 411.0532H425.20213M0 413.88807H425.20213M0 416.7229H425.20213M0 419.55775H425.20213M0 422.3926H425.20213M0 0V425.20213M2.83484 0V425.20213M5.6697 0V425.20213M8.50455 0V425.20213M11.33939 0V425.20213M14.17424 0V425.20213M17.0091 0V425.20213M19.84393 0V425.20213M22.67879 0V425.20213M25.51364 0V425.20213M28.3485 0V425.20213M31.18333 0V425.20213M34.01819 0V425.20213M36.85304 0V425.20213M39.68788 0V425.20213M42.52274 0V425.20213M45.35759 0V425.20213M48.19244 0V425.20213M51.02728 0V425.20213M53.86214 0V425.20213M56.69699 0V425.20213M59.53183 0V425.20213M62.36668 0V425.20213M65.20154 0V425.20213M68.03639 0V425.20213M70.87123 0V425.20213M73.70609 0V425.20213M76.54094 0V425.20213M79.37578 0V425.20213M82.21063 0V425.20213M85.04549 0V425.20213M87.88034 0V425.20213M90.71518 0V425.20213M93.55003 0V425.20213M96.38489 0V425.20213M99.21973 0V425.20213M102.05458 0V425.20213M104.88943 0V425.20213M107.72429 0V425.20213M110.55913 0V425.20213M113.39398 0V425.20213M116.22884 0V425.20213M119.06367 0V425.20213M121.89853 0V425.20213M124.73338 0V425.20213M127.56824 0V425.20213M130.40308 0V425.20213M133.23793 0V425.20213M136.07279 0V425.20213M138.90763 0V425.20213M141.74248 0V425.20213M144.57733 0V425.20213M147.41219 0V425.20213M150.24703 0V425.20213M153.08188 0V425.20213M155.91674 0V425.20213M158.75157 0V425.20213M161.58643 0V425.20213M164.42128 0V425.20213M167.25612 0V425.20213M170.09098 0V425.20213M172.92583 0V425.20213M175.76068 0V425.20213M178.59552 0V425.20213M181.43038 0V425.20213M184.26523 0V425.20213M187.10007 0V425.20213M189.93492 0V425.20213M192.76978 0V425.20213M195.60463 0V425.20213M198.43947 0V425.20213M201.27433 0V425.20213M204.10918 0V425.20213M206.94402 0V425.20213M209.77887 0V425.20213M212.61373 0V425.20213M215.44858 0V425.20213M218.28342 0V425.20213M221.11827 0V425.20213M223.95313 0V425.20213M226.78797 0V425.20213M229.62282 0V425.20213M232.45767 0V425.20213M235.29253 0V425.20213M238.12737 0V425.20213M240.96222 0V425.20213M243.79708 0V425.20213M246.63191 0V425.20213M249.46677 0V425.20213M252.30162 0V425.20213M255.13648 0V425.20213M257.9713 0V425.20213M260.80619 0V425.20213M263.64103 0V425.20213M266.47587 0V425.20213M269.3107 0V425.20213M272.14558 0V425.20213M274.9804 0V425.20213M277.81526 0V425.20213M280.65013 0V425.20213M283.48497 0V425.20213M286.31983 0V425.20213M289.15467 0V425.20213M291.98954 0V425.20213M294.82438 0V425.20213M297.6592 0V425.20213M300.49406 0V425.20213M303.32893 0V425.20213M306.16377 0V425.20213M308.9986 0V425.20213M311.83348 0V425.20213M314.66835 0V425.20213M317.50318 0V425.20213M320.338 0V425.20213M323.17289 0V425.20213M326.0077 0V425.20213M328.84257 0V425.20213M331.6774 0V425.20213M334.51225 0V425.20213M337.3471 0V425.20213M340.18196 0V425.20213M343.0168 0V425.20213M345.85166 0V425.20213M348.68653 0V425.20213M351.52137 0V425.20213M354.3562 0V425.20213M357.19108 0V425.20213M360.0259 0V425.20213M362.86076 0V425.20213M365.6956 0V425.20213M368.53047 0V425.20213M371.3653 0V425.20213M374.20018 0V425.20213M377.035 0V425.20213M379.86988 0V425.20213M382.7047 0V425.20213M385.53956 0V425.20213M388.3744 0V425.20213M391.20927 0V425.20213M394.0441 0V425.20213M396.87895 0V425.20213M399.7138 0V425.20213M402.54866 0V425.20213M405.3835 0V425.20213M408.21836 0V425.20213M411.0532 0V425.20213M413.88807 0V425.20213M416.7229 0V425.20213M419.55775 0V425.20213M422.3926 0V425.20213M425.20213 425.20213"/>
<path transform="matrix(1,0,0,-1.00006,2.2949982,427.22068)" stroke-width=".79701" stroke-linecap="butt" stroke-miterlimit="10" stroke-linejoin="miter" fill="none" stroke="#999999" d="M0 0H425.20213M0 28.3468H425.20213M0 56.69362H425.20213M0 85.04042H425.20213M0 113.38724H425.20213M0 141.73404H425.20213M0 170.08086H425.20213M0 198.42766H425.20213M0 226.77448H425.20213M0 255.12128H425.20213M0 283.4681H425.20213M0 311.8149H425.20213M0 340.1617H425.20213M0 368.5085H425.20213M0 396.85533H425.20213M0 425.19218H425.20213M0 0V425.20213M28.3468 0V425.20213M56.69362 0V425.20213M85.04042 0V425.20213M113.38724 0V425.20213M141.73404 0V425.20213M170.08086 0V425.20213M198.42766 0V425.20213M226.77448 0V425.20213M255.12128 0V425.20213M283.4681 0V425.20213M311.8149 0V425.20213M340.1617 0V425.20213M368.5085 0V425.20213M396.85533 0V425.20213M425.19218 0V425.20213M425.20213 425.20213"/>
<path transform="matrix(1,0,0,-1.00006,2.2949982,427.22068)" stroke-width=".79701" stroke-linecap="butt" stroke-miterlimit="10" stroke-linejoin="miter" fill="none" stroke="#000000" d="M0 368.5085 56.69362 396.85533"/>
<use data-text="e" xlink:href="#font_1_3" transform="matrix(11.9552,0,0,-11.955917,27.929,40.79651)"/>
<path transform="matrix(1,0,0,-1.00006,2.2949982,427.22068)" stroke-width=".79701" stroke-linecap="butt" stroke-miterlimit="10" stroke-linejoin="miter" fill="none" stroke="#000000" d="M283.4681 28.3468 340.1617 56.69362"/>
<use data-text="d" xlink:href="#font_1_2" transform="matrix(11.9552,0,0,-11.955917,311.06898,380.9789)"/>
<path transform="matrix(1,0,0,-1.00006,2.2949982,427.22068)" stroke-width=".79701" stroke-linecap="butt" stroke-miterlimit="10" stroke-linejoin="miter" fill="none" stroke="#000000" d="M141.73404 141.73404 255.12128 226.77448"/>
<use data-text="b" xlink:href="#font_1_1" transform="matrix(11.9552,0,0,-11.955917,198.234,239.23639)"/>
<path transform="matrix(1,0,0,-1.00006,2.2949982,427.22068)" stroke-width=".79701" stroke-linecap="butt" stroke-miterlimit="10" stroke-linejoin="miter" fill="none" stroke="#000000" d="M85.04042 311.8149 198.42766 396.85533"/>
<use data-text="f" xlink:href="#font_1_4" transform="matrix(11.9552,0,0,-11.955917,140.506,66.82007)"/>
<path transform="matrix(1,0,0,-1.00006,2.2949982,427.22068)" stroke-width=".79701" stroke-linecap="butt" stroke-miterlimit="10" stroke-linejoin="miter" fill="none" stroke="#000000" d="M28.3468 28.3468 113.38724 85.04042"/>
<use data-text="g" xlink:href="#font_1_5" transform="matrix(11.9552,0,0,-11.955917,70.145,364.47993)"/>
<path transform="matrix(1,0,0,-1.00006,2.2949982,427.22068)" stroke-width=".79701" stroke-linecap="butt" stroke-miterlimit="10" stroke-linejoin="miter" fill="none" stroke="#000000" d="M340.1617 340.1617 425.20213 396.85533"/>
<use data-text="h" xlink:href="#font_1_6" transform="matrix(11.9552,0,0,-11.955917,381.60798,54.970369)"/>
<path transform="matrix(1,0,0,-1.00006,2.2949982,427.22068)" stroke-width=".3985" stroke-linecap="butt" stroke-miterlimit="10" stroke-linejoin="miter" fill="none" stroke="#000000" d="M0 368.5085 24.24802 380.6326"/>
<path transform="matrix(.89438,-.4471968,-.44717,-.8944336,26.542998,46.565248)" d="M3.7613 0C3.2994 .1127 1.26901 .75136 0 1.44638V-1.44638C1.26901-.75136 3.2994-.1127 3.7613 0Z"/>
<path transform="matrix(.89438,-.4471968,-.44717,-.8944336,26.542998,46.565248)" stroke-width=".3985" stroke-linecap="butt" stroke-miterlimit="10" stroke-linejoin="miter" fill="none" stroke="#000000" d="M3.7613 0C3.2994 .1127 1.26901 .75136 0 1.44638V-1.44638C1.26901-.75136 3.2994-.1127 3.7613 0Z"/>
<path transform="matrix(1,0,0,-1.00006,2.2949982,427.22068)" stroke-width=".3985" stroke-linecap="butt" stroke-miterlimit="10" stroke-linejoin="miter" fill="none" stroke="#000000" d="M283.4681 28.3468 307.7161 40.47089"/>
<path transform="matrix(.89438,-.4471968,-.44717,-.8944336,310.0111,386.74736)" d="M3.7613 0C3.2994 .1127 1.26901 .75136 0 1.44638V-1.44638C1.26901-.75136 3.2994-.1127 3.7613 0Z"/>
<path transform="matrix(.89438,-.4471968,-.44717,-.8944336,310.0111,386.74736)" stroke-width=".3985" stroke-linecap="butt" stroke-miterlimit="10" stroke-linejoin="miter" fill="none" stroke="#000000" d="M3.7613 0C3.2994 .1127 1.26901 .75136 0 1.44638V-1.44638C1.26901-.75136 3.2994-.1127 3.7613 0Z"/>
<path transform="matrix(1,0,0,-1.00006,2.2949982,427.22068)" stroke-width=".3985" stroke-linecap="butt" stroke-miterlimit="10" stroke-linejoin="miter" fill="none" stroke="#000000" d="M85.04042 311.8149 138.0679 351.58546"/>
<path transform="matrix(.79997,-.600026,-.59999,-.80001798,140.36289,75.614139)" d="M3.7613 0C3.2994 .1127 1.26901 .75136 0 1.44638V-1.44638C1.26901-.75136 3.2994-.1127 3.7613 0Z"/>
<path transform="matrix(.79997,-.600026,-.59999,-.80001798,140.36289,75.614139)" stroke-width=".3985" stroke-linecap="butt" stroke-miterlimit="10" stroke-linejoin="miter" fill="none" stroke="#000000" d="M3.7613 0C3.2994 .1127 1.26901 .75136 0 1.44638V-1.44638C1.26901-.75136 3.2994-.1127 3.7613 0Z"/>
<path transform="matrix(1,0,0,-1.00006,2.2949982,427.22068)" stroke-width=".3985" stroke-linecap="butt" stroke-miterlimit="10" stroke-linejoin="miter" fill="none" stroke="#000000" d="M255.12128 226.77448 202.0938 187.0039"/>
<path transform="matrix(-.79997,.600026,.59999,.80001798,204.38881,240.20555)" d="M3.7613 0C3.2994 .1127 1.26901 .75136 0 1.44638V-1.44638C1.26901-.75136 3.2994-.1127 3.7613 0Z"/>
<path transform="matrix(-.79997,.600026,.59999,.80001798,204.38881,240.20555)" stroke-width=".3985" stroke-linecap="butt" stroke-miterlimit="10" stroke-linejoin="miter" fill="none" stroke="#000000" d="M3.7613 0C3.2994 .1127 1.26901 .75136 0 1.44638V-1.44638C1.26901-.75136 3.2994-.1127 3.7613 0Z"/>
<path transform="matrix(1,0,0,-1.00006,2.2949982,427.22068)" stroke-width=".3985" stroke-linecap="butt" stroke-miterlimit="10" stroke-linejoin="miter" fill="none" stroke="#000000" d="M113.38724 85.04042 74.68 59.23558"/>
<path transform="matrix(-.83202,.55470326,.55467,.8320699,76.975009,367.98155)" d="M3.7613 0C3.2994 .1127 1.26901 .75136 0 1.44638V-1.44638C1.26901-.75136 3.2994-.1127 3.7613 0Z"/>
<path transform="matrix(-.83202,.55470326,.55467,.8320699,76.975009,367.98155)" stroke-width=".3985" stroke-linecap="butt" stroke-miterlimit="10" stroke-linejoin="miter" fill="none" stroke="#000000" d="M3.7613 0C3.2994 .1127 1.26901 .75136 0 1.44638V-1.44638C1.26901-.75136 3.2994-.1127 3.7613 0Z"/>
<path transform="matrix(1,0,0,-1.00006,2.2949982,427.22068)" stroke-width=".3985" stroke-linecap="butt" stroke-miterlimit="10" stroke-linejoin="miter" fill="none" stroke="#000000" d="M425.20213 396.85533 386.4949 371.05049"/>
<path transform="matrix(-.83202,.55470326,.55467,.8320699,388.78993,56.14795)" d="M3.7613 0C3.2994 .1127 1.26901 .75136 0 1.44638V-1.44638C1.26901-.75136 3.2994-.1127 3.7613 0Z"/>
<path transform="matrix(-.83202,.55470326,.55467,.8320699,388.78993,56.14795)" stroke-width=".3985" stroke-linecap="butt" stroke-miterlimit="10" stroke-linejoin="miter" fill="none" stroke="#000000" d="M3.7613 0C3.2994 .1127 1.26901 .75136 0 1.44638V-1.44638C1.26901-.75136 3.2994-.1127 3.7613 0Z"/>
</svg>
