<svg xmlns="http://www.w3.org/2000/svg" xmlns:xlink="http://www.w3.org/1999/xlink" xmlns:inkscape="http://www.inkscape.org/namespaces/inkscape" version="1.1" width="174" height="174" viewBox="0 0 174 174">
<defs>
<path id="font_1_1" d="M.48999024 .67318728C.47898866 .7001953 .46398927 .7001953 .44599916 .7001953 .42799378 .7001953 .41299439 .7001953 .4019928 .67318728L.14898682 .072021488C.14199829 .055999757 .14199829 .055007936 .116989139 .052001954 .099990848 .049987794 .08099365 .04899597 .06399536 .04899597H.042999269V0C.09899902 .0019989014 .11199951 .0029907227 .16499329 .0029907227 .20399475 .0029907227 .23599243 .0029907227 .2979889 0V.04899597C.2709961 .04899597 .23699951 .04899597 .20899964 .060012819L.2639923 .1921997H.54100039L.6009979 .04899597H.5069885V0C.5419922 .0029907227 .6429901 .0029907227 .6839905 .0029907227 .7259979 .0029907227 .8109894 .0029907227 .848999 0V.04899597H.7519989L.48999024 .67318728M.40299989 .52119448 .519989 .24121094H.2849884L.40299989 .52119448Z"/>
<path id="font_1_2" d="M.1499939 .63653567V.04899597H.041992189V0H.5169983C.6879883 0 .7739868 .088974 .7739868 .18595886 .7739868 .2729187 .69999697 .3439026 .5669861 .35890199 .6769867 .37789918 .7409973 .43981935 .7409973 .51371768 .7409973 .60557559 .651001 .6855469 .48599244 .6855469H.041992189V.63653567H.1499939M.2829895 .37690736V.63653567H.47299195C.59199526 .63653567 .59599307 .5336914 .59599307 .51371768 .59599307 .44081117 .5469971 .37690736 .44699098 .37690736H.2829895M.2829895 .04899597V.33691407H.4850006C.5009918 .33691407 .55400088 .33691407 .58799746 .29692079 .61698916 .2609253 .6230011 .21994019 .6230011 .18795777 .6230011 .11897278 .58299258 .04899597 .47499085 .04899597H.2829895Z"/>
<path id="font_1_3" d="M.7879944 .6692352C.7879944 .6872406 .7879944 .6982422 .7679901 .6982422 .7579956 .6982422 .7559967 .696228 .746994 .6882324L.68099978 .63023379C.6239929 .676239 .5509949 .6982422 .47799684 .6982422 .21998596 .6982422 .06599426 .5462494 .06599426 .34326173 .06599426 .14526367 .21398926-.01171875 .47898866-.01171875 .6669922-.01171875 .7879944 .10827637 .7879944 .22825623 .7879944 .2502594 .7779999 .2502594 .7619934 .2502594 .7509918 .2502594 .73799136 .2502594 .7369995 .23426819 .72898867 .089263919 .59599307 .03727722 .5009918 .03727722 .44699098 .03727722 .34999085 .04827881 .2829895 .12226868 .22999573 .18226624 .22299195 .2752533 .22299195 .34326173 .22299195 .46324159 .24699402 .52323916 .28799439 .5692444 .33499146 .62223818 .41600038 .64923098 .49899293 .64923098 .58699038 .64923098 .7029877 .5962372 .72898867 .43725587 .73098757 .42425538 .7429962 .42425538 .7579956 .42425538 .7849884 .42425538 .7879944 .42625428 .7879944 .45324708V.6692352Z"/>
<path id="font_1_4" d="M.1499939 .63653567V.04899597H.041992189V0H.48399354C.68299868 0 .83999636 .12094116 .83999636 .33776856 .83999636 .5496063 .69299319 .6855469 .48298646 .6855469H.041992189V.63653567H.1499939M.2889862 .04899597V.63653567H.44099427C.519989 .63653567 .59399417 .611557 .6380005 .55659487 .6819916 .50064089 .68899539 .42970277 .68899539 .33776856 .68899539 .24084473 .68899539 .04899597 .44198609 .04899597H.2889862Z"/>
</defs>
<path transform="matrix(1.00005,0,0,-1.00003,87.13939,86.84113)" stroke-width=".19925" stroke-linecap="butt" stroke-miterlimit="10" stroke-linejoin="miter" fill="none" stroke="#d9d9d9" d="M-85.04042-82.21063H85.04042M-85.04042-79.37578H85.04042M-85.04042-76.54094H85.04042M-85.04042-73.70609H85.04042M-85.04042-70.87123H85.04042M-85.04042-68.03639H85.04042M-85.04042-65.20154H85.04042M-85.04042-62.36668H85.04042M-85.04042-59.53183H85.04042M-85.04042-56.69699H85.04042M-85.04042-53.86214H85.04042M-85.04042-51.02728H85.04042M-85.04042-48.19244H85.04042M-85.04042-45.35759H85.04042M-85.04042-42.52274H85.04042M-85.04042-39.68788H85.04042M-85.04042-36.85304H85.04042M-85.04042-34.01819H85.04042M-85.04042-31.18333H85.04042M-85.04042-28.3485H85.04042M-85.04042-25.51364H85.04042M-85.04042-22.67879H85.04042M-85.04042-19.84393H85.04042M-85.04042-17.0091H85.04042M-85.04042-14.17424H85.04042M-85.04042-11.33939H85.04042M-85.04042-8.50455H85.04042M-85.04042-5.6697H85.04042M-85.04042-2.83484H85.04042M-85.04042 0H85.04042M-85.04042 2.83484H85.04042M-85.04042 5.6697H85.04042M-85.04042 8.50455H85.04042M-85.04042 11.33939H85.04042M-85.04042 14.17424H85.04042M-85.04042 17.0091H85.04042M-85.04042 19.84393H85.04042M-85.04042 22.67879H85.04042M-85.04042 25.51364H85.04042M-85.04042 28.3485H85.04042M-85.04042 31.18333H85.04042M-85.04042 34.01819H85.04042M-85.04042 36.85304H85.04042M-85.04042 39.68788H85.04042M-85.04042 42.52274H85.04042M-85.04042 45.35759H85.04042M-85.04042 48.19244H85.04042M-85.04042 51.02728H85.04042M-85.04042 53.86214H85.04042M-85.04042 56.69699H85.04042M-85.04042 59.53183H85.04042M-85.04042 62.36668H85.04042M-85.04042 65.20154H85.04042M-85.04042 68.03639H85.04042M-85.04042 70.87123H85.04042M-85.04042 73.70609H85.04042M-85.04042 76.54094H85.04042M-85.04042 79.37578H85.04042M-85.04042 82.21063H85.04042M-85.04042 85.03552H85.04042M-82.21063-85.04042V85.04042M-79.37578-85.04042V85.04042M-76.54094-85.04042V85.04042M-73.70609-85.04042V85.04042M-70.87123-85.04042V85.04042M-68.03639-85.04042V85.04042M-65.20154-85.04042V85.04042M-62.36668-85.04042V85.04042M-59.53183-85.04042V85.04042M-56.69699-85.04042V85.04042M-53.86214-85.04042V85.04042M-51.02728-85.04042V85.04042M-48.19244-85.04042V85.04042M-45.35759-85.04042V85.04042M-42.52274-85.04042V85.04042M-39.68788-85.04042V85.04042M-36.85304-85.04042V85.04042M-34.01819-85.04042V85.04042M-31.18333-85.04042V85.04042M-28.3485-85.04042V85.04042M-25.51364-85.04042V85.04042M-22.67879-85.04042V85.04042M-19.84393-85.04042V85.04042M-17.0091-85.04042V85.04042M-14.17424-85.04042V85.04042M-11.33939-85.04042V85.04042M-8.50455-85.04042V85.04042M-5.6697-85.04042V85.04042M-2.83484-85.04042V85.04042M0-85.04042V85.04042M2.83484-85.04042V85.04042M5.6697-85.04042V85.04042M8.50455-85.04042V85.04042M11.33939-85.04042V85.04042M14.17424-85.04042V85.04042M17.0091-85.04042V85.04042M19.84393-85.04042V85.04042M22.67879-85.04042V85.04042M25.51364-85.04042V85.04042M28.3485-85.04042V85.04042M31.18333-85.04042V85.04042M34.01819-85.04042V85.04042M36.85304-85.04042V85.04042M39.68788-85.04042V85.04042M42.52274-85.04042V85.04042M45.35759-85.04042V85.04042M48.19244-85.04042V85.04042M51.02728-85.04042V85.04042M53.86214-85.04042V85.04042M56.69699-85.04042V85.04042M59.53183-85.04042V85.04042M62.36668-85.04042V85.04042M65.20154-85.04042V85.04042M68.03639-85.04042V85.04042M70.87123-85.04042V85.04042M73.70609-85.04042V85.04042M76.54094-85.04042V85.04042M79.37578-85.04042V85.04042M82.21063-85.04042V85.04042M85.03552-85.04042V85.04042M85.04042 85.04042"/>
<path transform="matrix(1.00005,0,0,-1.00003,87.13939,86.84113)" stroke-width=".3985" stroke-linecap="butt" stroke-miterlimit="10" stroke-linejoin="miter" fill="none" stroke="#a6a6a6" d="M-85.04042-85.04042H85.04042M-85.04042-56.69362H85.04042M-85.04042-28.3468H85.04042M-85.04042 0H85.04042M-85.04042 28.3468H85.04042M-85.04042 56.69362H85.04042M-85.04042 85.03047H85.04042M-85.04042-85.04042V85.04042M-56.69362-85.04042V85.04042M-28.3468-85.04042V85.04042M0-85.04042V85.04042M28.3468-85.04042V85.04042M56.69362-85.04042V85.04042M85.03047-85.04042V85.04042M85.04042 85.04042"/>
<use data-text="A" xlink:href="#font_1_1" transform="matrix(8.966848,0,0,-8.966669,18.91597,26.626324)"/>
<use data-text="B" xlink:href="#font_1_2" transform="matrix(8.966848,0,0,-8.966669,147.3554,26.626324)"/>
<use data-text="C" xlink:href="#font_1_3" transform="matrix(8.966848,0,0,-8.966669,147.3554,153.20813)"/>
<use data-text="D" xlink:href="#font_1_4" transform="matrix(8.966848,0,0,-8.966669,18.792984,153.20813)"/>
<path transform="matrix(1.00005,0,0,-1.00003,87.13939,86.84113)" stroke-width="1.19553" stroke-linecap="butt" stroke-miterlimit="10" stroke-linejoin="miter" fill="none" stroke="#000000" d="M-56.69362 56.69362H56.69362V-56.69362H-56.69362Z"/>
<path transform="matrix(1.00005,0,0,-1.00003,87.13939,86.84113)" stroke-width="1.19553" stroke-linecap="butt" stroke-miterlimit="10" stroke-linejoin="miter" fill="none" stroke="#000000" d="M-56.69362-56.69362 56.69362 56.69362"/>
<path transform="matrix(1.00005,0,0,-1.00003,87.13939,86.84113)" stroke-width="1.19553" stroke-linecap="butt" stroke-miterlimit="10" stroke-linejoin="miter" fill="none" stroke="#000000" d="M-56.69362 56.69362 56.69362-56.69362"/>
<path transform="matrix(1.00005,0,0,-1.00003,87.13939,86.84113)" stroke-width=".3985" stroke-linecap="butt" stroke-miterlimit="10" stroke-linejoin="miter" fill="none" stroke="#000000" d="M-56.69362-56.69362V-6.97389"/>
<path transform="matrix(0,-1.00003,-1.00005,-0,30.44294,93.81523)" d="M6.15236 0C5.39682 .18257 2.07571 1.21715 0 2.34303V-2.34303C2.07571-1.21715 5.39682-.18257 6.15236 0Z"/>
<path transform="matrix(0,-1.00003,-1.00005,-0,30.44294,93.81523)" stroke-width=".3985" stroke-linecap="butt" stroke-miterlimit="10" stroke-linejoin="miter" fill="none" stroke="#000000" d="M6.15236 0C5.39682 .18257 2.07571 1.21715 0 2.34303V-2.34303C2.07571-1.21715 5.39682-.18257 6.15236 0Z"/>
<path transform="matrix(1.00005,0,0,-1.00003,87.13939,86.84113)" stroke-width=".3985" stroke-linecap="butt" stroke-miterlimit="10" stroke-linejoin="miter" fill="none" stroke="#000000" d="M-56.69362-56.69362H-6.97389"/>
<path transform="matrix(1.00005,0,0,-1.00003,80.16515,143.53646)" d="M6.15236 0C5.39682 .18257 2.07571 1.21715 0 2.34303V-2.34303C2.07571-1.21715 5.39682-.18257 6.15236 0Z"/>
<path transform="matrix(1.00005,0,0,-1.00003,80.16515,143.53646)" stroke-width=".3985" stroke-linecap="butt" stroke-miterlimit="10" stroke-linejoin="miter" fill="none" stroke="#000000" d="M6.15236 0C5.39682 .18257 2.07571 1.21715 0 2.34303V-2.34303C2.07571-1.21715 5.39682-.18257 6.15236 0Z"/>
<path transform="matrix(1.00005,0,0,-1.00003,87.13939,86.84113)" stroke-width=".3985" stroke-linecap="butt" stroke-miterlimit="10" stroke-linejoin="miter" fill="none" stroke="#000000" d="M56.69362-56.69362V-6.97389"/>
<path transform="matrix(0,-1.00003,-1.00005,-0,143.83585,93.81523)" d="M6.15236 0C5.39682 .18257 2.07571 1.21715 0 2.34303V-2.34303C2.07571-1.21715 5.39682-.18257 6.15236 0Z"/>
<path transform="matrix(0,-1.00003,-1.00005,-0,143.83585,93.81523)" stroke-width=".3985" stroke-linecap="butt" stroke-miterlimit="10" stroke-linejoin="miter" fill="none" stroke="#000000" d="M6.15236 0C5.39682 .18257 2.07571 1.21715 0 2.34303V-2.34303C2.07571-1.21715 5.39682-.18257 6.15236 0Z"/>
<path transform="matrix(1.00005,0,0,-1.00003,87.13939,86.84113)" stroke-width=".3985" stroke-linecap="butt" stroke-miterlimit="10" stroke-linejoin="miter" fill="none" stroke="#000000" d="M56.69362 56.69362H6.97389"/>
<path transform="matrix(-1.00005,-0,0,1.00003,94.113628,30.145813)" d="M6.15236 0C5.39682 .18257 2.07571 1.21715 0 2.34303V-2.34303C2.07571-1.21715 5.39682-.18257 6.15236 0Z"/>
<path transform="matrix(-1.00005,-0,0,1.00003,94.113628,30.145813)" stroke-width=".3985" stroke-linecap="butt" stroke-miterlimit="10" stroke-linejoin="miter" fill="none" stroke="#000000" d="M6.15236 0C5.39682 .18257 2.07571 1.21715 0 2.34303V-2.34303C2.07571-1.21715 5.39682-.18257 6.15236 0Z"/>
<path transform="matrix(1.00005,0,0,-1.00003,87.13939,86.84113)" stroke-width=".3985" stroke-linecap="butt" stroke-miterlimit="10" stroke-linejoin="miter" fill="none" stroke="#000000" d="M-56.69362-56.69362-10.60054-10.60054"/>
<path transform="matrix(.7071353,-.7071212,-.7071353,-.7071212,76.53832,97.44199)" d="M6.15236 0C5.39682 .18257 2.07571 1.21715 0 2.34303V-2.34303C2.07571-1.21715 5.39682-.18257 6.15236 0Z"/>
<path transform="matrix(.7071353,-.7071212,-.7071353,-.7071212,76.53832,97.44199)" stroke-width=".3985" stroke-linecap="butt" stroke-miterlimit="10" stroke-linejoin="miter" fill="none" stroke="#000000" d="M6.15236 0C5.39682 .18257 2.07571 1.21715 0 2.34303V-2.34303C2.07571-1.21715 5.39682-.18257 6.15236 0Z"/>
<path transform="matrix(1.00005,0,0,-1.00003,87.13939,86.84113)" stroke-width=".3985" stroke-linecap="butt" stroke-miterlimit="10" stroke-linejoin="miter" fill="none" stroke="#000000" d="M56.69362-56.69362 10.60054-10.60054"/>
<path transform="matrix(-.7071353,-.7071212,-.7071353,.7071212,97.740459,97.44199)" d="M6.15236 0C5.39682 .18257 2.07571 1.21715 0 2.34303V-2.34303C2.07571-1.21715 5.39682-.18257 6.15236 0Z"/>
<path transform="matrix(-.7071353,-.7071212,-.7071353,.7071212,97.740459,97.44199)" stroke-width=".3985" stroke-linecap="butt" stroke-miterlimit="10" stroke-linejoin="miter" fill="none" stroke="#000000" d="M6.15236 0C5.39682 .18257 2.07571 1.21715 0 2.34303V-2.34303C2.07571-1.21715 5.39682-.18257 6.15236 0Z"/>
</svg>
