<svg xmlns="http://www.w3.org/2000/svg" xmlns:xlink="http://www.w3.org/1999/xlink" xmlns:inkscape="http://www.inkscape.org/namespaces/inkscape" version="1.1" width="262" height="328" viewBox="0 0 262 328">
<defs>
<path id="font_1_76" d="M.7509918 .6496124V.6826172C.70599368 .6796112 .6589966 .6796112 .6329956 .6796112 .6069946 .6796112 .55999758 .6796112 .5149994 .6826172V.6496124C.6159973 .6496124 .6159973 .6016388 .6159973 .5756531V.14892578L.24299622 .66760256C.23199463 .6816101 .23098755 .6826172 .21099854 .6826172H.04399109V.6496124H.07199097C.08999634 .6496124 .09799194 .6496124 .117996219 .6476135 .14399719 .64460757 .14498902 .6436157 .14498902 .62461856V.10694885C.14498902 .080963138 .14498902 .032989503 .04399109 .032989503V0C.08898926 .0029907227 .13598633 .0029907227 .1619873 .0029907227 .18798828 .0029907227 .23498535 .0029907227 .27999879 0V.032989503C.1789856 .032989503 .1789856 .080963138 .1789856 .10694885V.6164093L.6119995 .01499939C.62098696 .0029907227 .6230011 0 .6329956 0 .6499939 0 .6499939 .009994507 .6499939 .027999878V.5754547C.6499939 .6014252 .6499939 .64941409 .7509918 .64941409V.6496124Z"/>
<path id="font_1_109" d="M.56199648 .00022888184V.033233644C.49398805 .033233644 .48599244 .040237428 .48599244 .08924866V.44140626L.33399964 .43040467V.3973999C.4019928 .3973999 .4099884 .39039613 .4099884 .34136964V.16726685C.4099884 .08125305 .35798646 .018234253 .2829895 .018234253 .19699097 .018234253 .19299317 .06123352 .19299317 .11126709V.44140626L.040985109 .43040467V.3973999C.116989139 .3973999 .116989139 .39439393 .116989139 .30534364V.15527344C.116989139 .08325195 .116989139-.009765625 .2769928-.009765625 .37098695-.009765625 .40699769 .0622406 .4119873 .071243289H.41299439V-.009765625L.56199648 .00022888184Z"/>
<path id="font_1_75" d="M.8569946 0V.032989503C.79299929 .032989503 .7809906 .032989503 .7809906 .07803345V.3032837C.7809906 .3843689 .74598696 .44140626 .6369934 .44140626 .54499819 .44140626 .49899293 .37835694 .48298646 .34933473 .46499635 .42140199 .4079895 .44140626 .34298707 .44140626 .24598694 .44140626 .19999695 .37236024 .18699646 .34532167H.18598938V.44140626L.040985109 .43045045V.39746095C.10899353 .39746095 .116989139 .3904419 .116989139 .3413849V.078048709C.116989139 .032989503 .10499573 .032989503 .040985109 .032989503V0C.083999637 .0029907227 .12799073 .0029907227 .15499878 .0029907227 .18399048 .0029907227 .22599793 .0029907227 .2689972 0V.032989503C.20498657 .032989503 .19299317 .032989503 .19299317 .078048709V.25927735C.19299317 .36434938 .27198792 .4133911 .33499146 .4133911 .3999939 .4133911 .41099549 .36235047 .41099549 .3072815V.07803345C.41099549 .032989503 .39898683 .032989503 .33499146 .032989503V0C.37799073 .0029907227 .42199708 .0029907227 .44898988 .0029907227 .47799684 .0029907227 .519989 .0029907227 .5629883 0V.032989503C.49899293 .032989503 .4869995 .032989503 .4869995 .07803345V.25923158C.4869995 .36434938 .56599429 .4133911 .6289978 .4133911 .69400027 .4133911 .7049866 .36235047 .7049866 .3072815V.07803345C.7049866 .032989503 .69299319 .032989503 .6289978 .032989503V0C.6719971 .0029907227 .71598818 .0029907227 .7429962 .0029907227 .7719879 .0029907227 .81399539 .0029907227 .8569946 0Z"/>
<path id="font_1_35" d="M.55400088 .21650696C.55400088 .3425293 .45098878 .44140626 .32899476 .44140626 .25 .44140626 .20098877 .39845277 .18399048 .38053895V.69433596L.034988405 .68333438V.6503296C.102996829 .6503296 .11099243 .6433258 .11099243 .5943451V.00048828127H.14199829L.17799378 .0625C.20199585 .02822876 .24899292-.009765625 .31698609-.009765625 .44400025-.009765625 .55400088 .08828735 .55400088 .21640015V.21650696M.46499635 .21740723C.46499635 .19438172 .46499635 .12332153 .42900086 .07627869 .3929901 .031234742 .34599305 .018234253 .31298829 .018234253 .2649994 .018234253 .22499085 .04324341 .19898987 .08229065 .18699646 .1013031 .18699646 .10231018 .18699646 .12132263V.3164978C.18699646 .33551026 .18699646 .3375244 .20199585 .3555298 .23098755 .39248658 .27799989 .4133911 .32299806 .4133911 .375 .4133911 .4139862 .38252259 .43399049 .35253907 .45098878 .3255005 .46499635 .29048158 .46499635 .21740723Z"/>
<path id="font_1_50" d="M.44099427 .12036133C.44099427 .12435913 .43798829 .13438416 .4249878 .13438416 .4139862 .13438416 .4119873 .12736511 .4099884 .12136841 .37399293 .024230957 .28799439 .021224976 .269989 .021224976 .22499085 .021224976 .1789856 .042251588 .14898682 .08831787 .11898804 .13438416 .11898804 .19847107 .11898804 .22851563H.41299439C.43499757 .22851563 .44099427 .22851563 .44099427 .25151063 .44099427 .34039308 .3919983 .44628907 .25099183 .44628907 .1269989 .44628907 .02999878 .3433838 .02999878 .21949768 .02999878 .09031677 .13798523-.009765625 .2639923-.009765625 .3909912-.009765625 .44099427 .097335819 .44099427 .12036133M.37298585 .25450135H.11999512C.1289978 .39431764 .21398926 .41827394 .25099183 .41827394 .36799623 .41827394 .37199403 .27748109 .37298585 .25450135Z"/>
<path id="font_1_96" d="M.38398744 .3784027C.38398744 .4133911 .35198976 .44140626 .30799867 .44140626 .24299622 .44140626 .19898987 .39239503 .17799378 .33639527H.1769867V.44140626L.034988405 .43045045V.39746095C.102996829 .39746095 .11099243 .3904419 .11099243 .3413849V.078048709C.11099243 .032989503 .09899902 .032989503 .034988405 .032989503V0C.07398987 .0029907227 .1289978 .0029907227 .15299988 .0029907227 .21199036 .0029907227 .21398926 .0029907227 .2789917 0V.032989503H.25898744C.18598938 .032989503 .18399048 .044006349 .18399048 .08004761V.22824097C.18399048 .30332948 .21499634 .41145326 .31098939 .41345216 .30499269 .40899659 .29499818 .40098573 .29499818 .37799073 .29499818 .34700013 .31900025 .33299256 .33898927 .33299256 .36299134 .33299256 .38398744 .34899903 .38398744 .37799073V.3784027Z"/>
<path id="font_1_81" d="M.5 .21325684C.5 .3382721 .39698792 .44628907 .2649994 .44628907 .1329956 .44628907 .02999878 .3382721 .02999878 .21325684 .02999878 .08824158 .13699341-.009765625 .2649994-.009765625 .3939972-.009765625 .5 .08824158 .5 .21325684M.41099549 .22225952C.41099549 .17625427 .40899659 .12124634 .3809967 .07923889 .35398866 .039230348 .30899049 .021224976 .2649994 .021224976 .21099854 .021224976 .16899109 .047225954 .14698792 .082229617 .12199402 .12324524 .11898804 .17224121 .11898804 .22225952 .11898804 .2602539 .11898804 .32026673 .1499939 .363266 .17599488 .3982849 .21798706 .41827394 .2649994 .41827394 .31698609 .41827394 .3600006 .39328004 .3829956 .35827638 .4099884 .31626893 .41099549 .2622528 .41099549 .22225952Z"/>
<path id="font_1_55" d="M.3769989 .63201907C.3769989 .6750946 .33499146 .70410159 .28199769 .70410159 .20698548 .70410159 .117996219 .65005496 .117996219 .54286196V.43066407H.035995485V.3976593H.117996219V.07795715C.117996219 .032989503 .10598755 .032989503 .041992189 .032989503V0C.08099365 .0029907227 .13598633 .0029907227 .1599884 .0029907227 .21899414 .0029907227 .22099304 .0029907227 .28599549 0V.032989503H.2659912C.19299317 .032989503 .19099427 .04397583 .19099427 .079956058V.3976593H.31098939V.43066407H.18798828V.54385378C.18798828 .63108828 .23699951 .6760864 .2809906 .6760864 .29699708 .6760864 .30599977 .6720886 .30999757 .6710968 .2919922 .6620941 .2869873 .6450958 .2869873 .63209536 .2869873 .60609439 .30599977 .58709719 .33198548 .58709719 .35899354 .58709719 .3769989 .60609439 .3769989 .63209536V.63201907Z"/>
<path id="font_1_54" d="M.647995 .45303346 .61898806 .6796875H.04399109V.64668276H.06599426C.14299011 .64668276 .14498902 .6356964 .14498902 .59877017V.08102417C.14498902 .044006349 .14299011 .032989503 .06599426 .032989503H.04399109V0L.19799805 .0029907227C.24499512 .0029907227 .31799317 .0029907227 .36299134 0V.032989503H.33099366C.23699951 .032989503 .23699951 .04699707 .23699951 .08203125V.32421876H.32998658C.42799378 .32421876 .43998719 .29318238 .43998719 .2071228H.47099305V.47399903H.43998719C.43998719 .38916017 .42799378 .35720826 .32998658 .35720826H.23699951V.60575869C.23699951 .6396942 .23899842 .64668276 .2849884 .64668276H.41799928C.58099368 .64668276 .59999087 .58380129 .61698916 .45303346H.647995Z"/>
<path id="font_1_66" d="M.2599945 .0001373291V.03314209C.19499207 .03314209 .19099427 .038146974 .19099427 .07714844V.44140626L.04499817 .43045045V.39746095C.10899353 .39746095 .117996219 .39144898 .117996219 .34239198V.07814026C.117996219 .03314209 .10598755 .03314209 .041992189 .03314209V0C.08099365 .0029907227 .13699341 .0029907227 .1519928 .0029907227 .16499329 .0029907227 .22499085 .0029907227 .2599945 0V.0001373291M.20298767 .6021881C.20298767 .6351929 .1769867 .6582031 .147995 .6582031 .11898804 .6582031 .09298706 .6351929 .09298706 .6021881 .09298706 .5731964 .115997318 .54719546 .147995 .54719546 .1789856 .54719546 .20298767 .5731964 .20298767 .6021881Z"/>
<path id="font_1_105" d="M.35299684 .1250763V.1809845H.32199098V.12705994C.32199098 .058166505 .29100038 .021224976 .25299073 .021224976 .18598938 .021224976 .18598938 .10710144 .18598938 .12307739V.3976593H.33499146V.43066407H.18598938V.6142578H.15499878C.1539917 .52345278 .11299133 .4286499 .019989014 .42565919V.3976593H.10998535V.1250763C.10998535 .008224487 .19999695-.009765625 .24598694-.009765625 .31298829-.010009766 .35299684 .049987794 .35299684 .125V.1250763Z"/>
<path id="font_1_98" d="M.3829956 .12924195C.3829956 .1772461 .35398866 .24725342 .23498535 .2692566 .22698975 .2712555 .17098999 .28126527 .16699219 .28126527 .13598633 .28826905 .08898926 .30926515 .08898926 .34927369 .08898926 .37927247 .11099243 .4212799 .20599365 .4212799 .31799317 .4212799 .32299806 .33926393 .32499696 .31126405 .32598878 .30326844 .33299256 .30026246 .33999635 .30026246 .35598756 .30026246 .35598756 .30726625 .35598756 .32626344V.4202881C.35598756 .4362793 .35598756 .44628907 .34298707 .44628907 .33799745 .44628907 .33499146 .44628907 .31900025 .4302826 .31698609 .4292755 .30799867 .4202881 .30499269 .4202881 .30499269 .4202881 .3019867 .4202881 .29599 .4242859 .27999879 .43528749 .25099183 .44628907 .20599365 .44628907 .06599426 .44628907 .034988405 .37026979 .034988405 .32226563 .034988405 .27226258 .07199097 .24325562 .07499695 .24024964 .114990238 .21025086 .13798523 .20625305 .20498657 .19424439 .2519989 .18525696 .32899476 .17124939 .32899476 .10324097 .32899476 .0642395 .30299378 .018234253 .21099854 .018234253 .10998535 .018234253 .08099365 .09623718 .067993167 .14924622 .06399536 .1622467 .06298828 .16725159 .050994874 .16725159 .034988405 .16725159 .034988405 .15924073 .034988405 .14024353V.016220093C.034988405 .00022888184 .034988405-.009765625 .04798889-.009765625 .053985597-.009765625 .054992677-.008773804 .07299805 .010223389 .07798767 .0152282719 .08898926 .02822876 .09399414 .033233644 .13899231-.0077667238 .18598938-.009765625 .21199036-.009765625 .33898927-.009765625 .3829956 .06323242 .3829956 .12924195Z"/>
<path id="font_1_97" d="M.5299988 .18458557C.5299988 .2716217 .47299195 .36065675 .37098695 .38467408L.23298645 .416687C.16899109 .4316864 .12199402 .4827118 .12199402 .5437927 .12199402 .61094668 .17999268 .6740875 .2669983 .6740875 .43998719 .6740875 .46299745 .51171877 .46798707 .4737091 .46998597 .46270753 .47099305 .45570375 .48399354 .45570375 .5 .45570375 .5 .46270753 .5 .4817047V.6781006C.5 .6940918 .5 .70410159 .4869995 .70410159 .47898866 .70410159 .47698976 .7010956 .46998597 .690094L.43499757 .6340027C.3849945 .6890869 .32099916 .70410159 .2659912 .70410159 .14698792 .70410159 .05899048 .61395266 .05899048 .51171877 .05899048 .43569947 .101989749 .39367677 .12098694 .3746643 .15699768 .33865357 .18998719 .3306427 .2979889 .30563355 .38398744 .28562928 .39898683 .2826233 .43199159 .24760437 .44198609 .23660279 .46699525 .20259094 .46699525 .15356446 .46699525 .08453369 .4139862 .011505127 .31999208 .011505127 .20999146 .011505127 .09599304 .06452942 .08999634 .20359802 .08898926 .21960449 .08898926 .22660828 .07499695 .22660828 .05899048 .22660828 .05899048 .21859741 .05899048 .19958496V.004501343C.05899048-.011489868 .05899048-.021484375 .07199097-.021484375 .07998657-.021484375 .08099365-.019485474 .08799744-.009490967 .09199524-.0034942628 .09599304 .005508423 .12399292 .047531129 .18699646-.0084991459 .26098634-.021484375 .32099916-.021484375 .44599916-.021484375 .5299988 .07752991 .5299988 .18458557Z"/>
<path id="font_1_72" d="M.2669983 0V.032989503C.20298767 .032989503 .19099427 .032989503 .19099427 .07801819V.69433596L.041992189 .6826172V.6496124C.10998535 .6496124 .117996219 .64260867 .117996219 .5936432V.07795715C.117996219 .032989503 .10598755 .032989503 .041992189 .032989503V0C.08099365 .0029907227 .13699341 .0029907227 .1539917 .0029907227 .17399597 .0029907227 .22799683 .0029907227 .2669983 0Z"/>
<path id="font_1_47" d="M.55400088 0V.032989503C.48599244 .032989503 .47799684 .039993287 .47799684 .089019779V.69433596L.32899476 .6826172V.6496124C.39698792 .6496124 .40499879 .64263918 .40499879 .5938263V.38339234C.36999513 .42140199 .32299806 .44140626 .2709961 .44140626 .1459961 .44140626 .034988405 .3443756 .034988405 .21531677 .034988405 .09225464 .1349945-.009765625 .26098634-.009765625 .31999208-.009765625 .36898805 .018234253 .4019928 .053237916V-.009765625L.55400088 0M.4019928 .12399292C.4019928 .10598755 .4019928 .101989749 .3869934 .08198547 .35899354 .042236329 .31298829 .018234253 .2659912 .018234253 .21998596 .018234253 .17999268 .042236329 .1559906 .07925415 .1289978 .118270877 .12399292 .16729737 .12399292 .21430969 .12399292 .27233888 .1329956 .3133545 .1559906 .3483734 .17999268 .38539125 .22499085 .4133911 .27598573 .4133911 .32398988 .4133911 .37199403 .38938905 .4019928 .33737184V.12399292Z"/>
<path id="font_1_91" d="M.5549927-.19413758V-.16113281C.4909973-.16113281 .47898866-.16113281 .47898866-.11602783V.44140626H.45098878L.4139862 .35437013C.3809967 .4073944 .33299256 .44140626 .269989 .44140626 .14498902 .44140626 .034988405 .3443756 .034988405 .21531677 .034988405 .09025574 .13798523-.009765625 .26098634-.009765625 .33299256-.009765625 .3789978 .030227662 .40299989 .0602417V-.11602783C.40299989-.16113281 .3909912-.16113281 .32699586-.16113281V-.19413758C.36999513-.19114685 .4139862-.19114685 .44099427-.19114685 .46998597-.19114685 .5119934-.19114685 .5549927-.19413758M.4059906 .14228821C.4059906 .12626648 .4059906 .120269779 .3909912 .09425354 .35398866 .033233644 .30099488 .018234253 .2669983 .018234253 .18699646 .018234253 .12399292 .10726929 .12399292 .21531677 .12399292 .32936097 .19799805 .4104004 .2769928 .4104004 .35798646 .4104004 .4059906 .32936097 .4059906 .27433778V.14228821Z"/>
<path id="font_1_77" d="M.56199648 0V.032989503C.49798585 .032989503 .48599244 .032989503 .48599244 .07803345V.3032837C.48599244 .38737489 .44799806 .44140626 .34298707 .44140626 .24398804 .44140626 .19898987 .36935426 .18699646 .34532167H.18598938V.44140626L.040985109 .43045045V.39746095C.10899353 .39746095 .116989139 .3904419 .116989139 .3413849V.078048709C.116989139 .032989503 .10499573 .032989503 .040985109 .032989503V0C.083999637 .0029907227 .12799073 .0029907227 .15499878 .0029907227 .18399048 .0029907227 .22599793 .0029907227 .2689972 0V.032989503C.20498657 .032989503 .19299317 .032989503 .19299317 .078048709V.25927735C.19299317 .36434938 .272995 .4133911 .33399964 .4133911 .394989 .4133911 .4099884 .37036134 .4099884 .3072815V.07803345C.4099884 .032989503 .397995 .032989503 .33399964 .032989503V0C.3769989 .0029907227 .42099 .0029907227 .44799806 .0029907227 .47698976 .0029907227 .5189972 .0029907227 .56199648 0Z"/>
<path id="font_1_43" d="M.44099427 .12031555C.44099427 .13232422 .42799378 .13232422 .4249878 .13232422 .41799928 .13232422 .41299439 .13131714 .4099884 .12130737 .40299989 .10029602 .375 .021224976 .2749939 .021224976 .21299744 .021224976 .12399292 .0692749 .12399292 .21739197 .12399292 .3614807 .19799805 .4152832 .2709961 .4152832 .27999879 .4152832 .33299256 .4152832 .36799623 .39746095 .33999635 .3884735 .33599855 .36547853 .33599855 .35346986 .33599855 .32647706 .35499574 .30647279 .3829956 .30647279 .40899659 .30625917 .42999269 .32426454 .42999269 .35427857 .42999269 .41627503 .3619995 .44628907 .2679901 .44628907 .1289978 .44628907 .034988405 .3352661 .034988405 .21624756 .034988405 .0892334 .13899231-.009765625 .2649994-.009765625 .4059906-.009765625 .44099427 .10824585 .44099427 .12023926V.12031555Z"/>
<path id="font_1_118" d="M.5379944 .3976593V.43066407C.5029907 .42765809 .5009918 .42765809 .45899964 .42765809 .45498658 .42765809 .4019928 .42765809 .37298585 .43066407V.3976593C.4019928 .39564515 .41600038 .37954713 .41600038 .3564148 .41600038 .3504181 .4149933 .3434143 .4099884 .3314209L.30299378 .089645389 .18699646 .3514099C.17999268 .36647035 .17999268 .3684845 .17999268 .37249757 .17999268 .39665223 .21099854 .3976593 .23298645 .3976593V.43066407C.18798828 .42765809 .14498902 .42765809 .12298584 .42765809 .101989749 .42765809 .053985597 .42765809 .021987915 .43066407V.3976593C.07398987 .3976593 .08799744 .39564515 .10499573 .35742188L.2630005-.0002746582C.21798706-.106170658 .18798828-.17610169 .117996219-.17610169 .09298706-.17610169 .07699585-.16412354 .07699585-.16412354 .083999637-.16212464 .10699463-.1511383 .10699463-.122161868 .10699463-.094192508 .085998538-.079193118 .06399536-.079193118 .04399109-.079193118 .020996094-.0921936 .020996094-.12315369 .020996094-.16711426 .06399536-.20410156 .117996219-.20410156 .20698548-.20410156 .25498963-.09718323 .25898744-.08718872L.44299317 .32940675C.46798707 .38659669 .5049896 .39665223 .5379944 .3976593Z"/>
<path id="font_1_85" d="M.35299684-.23800659C.35299684-.23400879 .35198976-.23300171 .33898927-.22000122 .20199585-.09100342 .16799927 .09498596 .16799927 .25 .16799927 .5379944 .2869873 .6729889 .33799745 .71899417 .35198976 .7319946 .35299684 .7330017 .35299684 .73799136 .35299684 .7429962 .34899903 .75 .33898927 .75 .32299806 .75 .272995 .69898989 .2649994 .6899872 .1309967 .5499878 .102996829 .36999513 .102996829 .25 .102996829 .025985718 .19699097-.15400696 .33299256-.25 .34098817-.25 .35299684-.25 .35299684-.23800659Z"/>
<path id="font_1_46" d="M.7509918 .33480836C.7509918 .52767947 .6049957 .6826172 .42599488 .6826172H.04598999V.6496124H.067993167C.14498902 .6496124 .14698792 .63861086 .14698792 .6016388V.080963138C.14698792 .04399109 .14498902 .032989503 .067993167 .032989503H.04598999V0H.42599488C.60598757 0 .7509918 .1499176 .7509918 .33480836M.6499939 .33580018C.6499939 .28483583 .6499939 .18688965 .58699038 .11294556 .5519867 .07197571 .48799134 .032989503 .39898683 .032989503H.28399659C.23799134 .032608034 .23599243 .039611818 .23599243 .0736084V.60861209C.23599243 .64260867 .23799134 .6496124 .28399659 .6496124H.39898683C.47698976 .6496124 .5419922 .61761477 .58599856 .5676117 .6499939 .49160768 .6499939 .38461305 .6499939 .3356018V.33580018Z"/>
<path id="font_1_28" d="M.5139923 .09020996V.14530945H.48298646V.09020996C.48298646 .0491333 .46798707 .033111574 .44699098 .033111574 .4099884 .033111574 .4099884 .079193118 .4099884 .09020996V.29856874C.4099884 .39653016 .31498719 .44628907 .22399903 .44628907 .14099121 .44628907 .066986087 .4143219 .066986087 .34857179 .066986087 .318573 .08799744 .30056764 .11399841 .30056764 .14199829 .30056764 .16099549 .3205719 .16099549 .3475647 .16099549 .37156678 .1459961 .38856507 .12399292 .3935547 .16099549 .41827394 .21499634 .41827394 .22200012 .41827394 .27799989 .41827394 .33399964 .37957765 .33399964 .29756166V.26651C.27598573 .26350404 .20899964 .26049806 .13899231 .23144531 .050994874 .1933899 .033996583 .13528443 .033996583 .10223389 .033996583 .016220093 .1349945-.009765625 .20399475-.009765625 .2769928-.009765625 .32199098 .031219483 .34399415 .07122803 .34899903 .033111574 .375-.0048828127 .4189911-.0048828127 .42900086-.0048828127 .5139923-.00088500979 .5139923 .09010315V.09020996M.33399964 .14111328C.33399964 .04421997 .2519989 .018234253 .21199036 .018234253 .1599884 .018234253 .115997318 .053222658 .115997318 .10122681 .115997318 .16722107 .17799378 .23522949 .33399964 .24023438V.14111328Z"/>
<path id="font_1_86" d="M.30899049 .25C.30899049 .34498597 .29299928 .45899964 .23098755 .57699587 .18199158 .6689911 .09098816 .75 .07299805 .75 .06298828 .75 .05999756 .7429962 .05999756 .73799136 .05999756 .73399356 .05999756 .7319946 .07199097 .7200012 .21199036 .58699038 .24398804 .4039917 .24398804 .25 .24398804-.037002565 .125-.17300415 .07398987-.2190094 .06098938-.23200989 .05999756-.23300171 .05999756-.23800659 .05999756-.24301148 .06298828-.25 .07299805-.25 .08898926-.25 .13899231-.19900513 .14698792-.19000244 .2809906-.05000305 .30899049 .12998963 .30899049 .25Z"/>
<path id="font_2_82" d="M.4189911 0V.0309906H.3869934C.29699708 .0309906 .2939911 .041992189 .2939911 .07902527V.64012148C.2939911 .6640167 .2939911 .6660156 .2709961 .6660156 .20899964 .60227969 .12098694 .60227969 .08898926 .60227969V.57128909C.10899353 .57128909 .16799927 .57128909 .21998596 .5972748V.07902527C.21998596 .042999269 .21699524 .0309906 .1269989 .0309906H.09498596V0C.12998963 .0029907227 .21699524 .0029907227 .25698854 .0029907227 .29699708 .0029907227 .38398744 .0029907227 .4189911 0Z"/>
<path id="font_2_121" d="M.45999146 .31976319C.45999146 .39982606 .45498658 .47988893 .41999818 .5539398 .37399293 .65000918 .2919922 .6660156 .25 .6660156 .18998719 .6660156 .116989139 .64001467 .07598877 .54693606 .04399109 .47789 .038986207 .39982606 .038986207 .31976319 .038986207 .24472046 .042999269 .15464783 .083999637 .07859802 .1269989-.0024719239 .19999695-.022460938 .24899292-.022460938 .30299378-.022460938 .3789978-.0014648438 .4229889 .09359741 .45498658 .16265869 .45999146 .2407074 .45999146 .31976319M.3769989 .3317871C.3769989 .25672914 .3769989 .18867493 .3659973 .12461853 .35099793 .029556275 .2939911-.00047302247 .24899292-.00047302247 .20999146-.00047302247 .15098572 .024551392 .1329956 .12062073 .12199402 .18066406 .12199402 .2727356 .12199402 .3317871 .12199402 .39582826 .12199402 .46188355 .12998963 .5159149 .14898682 .63500979 .22399903 .64401248 .24899292 .64401248 .28199769 .64401248 .34799195 .6259918 .36698915 .52693179 .3769989 .47088624 .3769989 .39482118 .3769989 .3317871Z"/>
<path id="font_2_107" d="M.44898988 .17396546H.42399598C.4189911 .14398194 .4119873 .099990848 .4019928 .084991458 .394989 .07699585 .32899476 .07699585 .30699159 .07699585H.1269989L.23298645 .17996216C.3889923 .31803895 .44898988 .37210084 .44898988 .47216798 .44898988 .5860901 .35899354 .6660156 .23699951 .6660156 .12399292 .6660156 .049987794 .57411196 .049987794 .48516847 .049987794 .4291687 .099990848 .4291687 .102996829 .4291687 .11999512 .4291687 .15499878 .44117738 .15499878 .48217774 .15499878 .5081787 .13699341 .5341797 .101989749 .5341797 .09399414 .5341797 .09199524 .5341797 .08898926 .5331726 .11199951 .59806826 .1659851 .63500979 .22399903 .63500979 .31498719 .63500979 .35798646 .5541382 .35798646 .47216798 .35798646 .39196778 .30799867 .31297303 .25299073 .25097657L.06098938 .036987306C.049987794 .025985718 .049987794 .023986817 .049987794 0H.42099L.44898988 .17396546Z"/>
<path id="font_2_106" d="M.45700074 .17037964C.45700074 .252594 .3939972 .33088685 .2899933 .35191346 .37199403 .37893678 .42999269 .4490509 .42999269 .52809146 .42999269 .6100464 .34199525 .6660156 .24598694 .6660156 .14498902 .6660156 .068984989 .60606387 .068984989 .53009036 .068984989 .49710084 .09098816 .47808839 .11999512 .47808839 .15098572 .47808839 .17098999 .50009158 .17098999 .5290985 .17098999 .57910159 .12399292 .57910159 .10899353 .57910159 .13999939 .62802127 .20599365 .64100649 .24198914 .64100649 .2829895 .64100649 .33799745 .6190338 .33799745 .5290985 .33799745 .51708987 .33599855 .45906068 .30999757 .4149933 .27999879 .36691285 .24598694 .36390687 .22099304 .36291505 .21299744 .36190797 .18899536 .35990907 .18199158 .35990907 .17399597 .35890199 .16699219 .35791017 .16699219 .3479004 .16699219 .33691407 .17399597 .33691407 .19099427 .33691407H.23498535C.31698609 .33691407 .35398866 .2686615 .35398866 .17037964 .35398866 .034469606 .2849884 .0055389406 .24099732 .0055389406 .19799805 .0055389406 .12298584 .022491456 .08799744 .08137512 .12298584 .07637024 .1539917 .09837341 .1539917 .1363678 .1539917 .17237854 .1269989 .19238281 .09799194 .19238281 .07398987 .19238281 .041992189 .17837525 .041992189 .1343689 .041992189 .043441774 .1349945-.022460938 .24398804-.022460938 .3659973-.022460938 .45700074 .06838989 .45700074 .17037964Z"/>
<path id="font_2_57" d="M.47099305 .16503906V.19602967H.37098695V.6507721C.37098695 .6707611 .37098695 .6767578 .35499574 .6767578 .34599305 .6767578 .34298707 .6767578 .33499146 .6647644L.027999878 .19602967V.16503906H.2939911V.07800293C.2939911 .041992189 .2919922 .0309906 .21798706 .0309906H.19699097V0C.23799134 .0029907227 .2899933 .0029907227 .33198548 .0029907227 .37399293 .0029907227 .4269867 .0029907227 .46798707 0V.0309906H.44699098C.37298585 .0309906 .37098695 .041992189 .37098695 .07800293V.16503906H.47099305M.2999878 .19602967H.055999757L.2999878 .56881716V.19602967Z"/>
<path id="font_2_56" d="M.44898988 .20091248C.44898988 .31991578 .36698915 .41992188 .25898744 .41992188 .21099854 .41992188 .16799927 .4039154 .13198853 .36891175V.5641022C.1519928 .55778506 .18499756 .55078127 .21699524 .55078127 .33999635 .55078127 .4099884 .6418457 .4099884 .65493777 .4099884 .6609802 .40699769 .6660156 .3999939 .6660156 .3999939 .66607668 .39698792 .66607668 .3919983 .66308596 .37199403 .65408328 .32299806 .63378909 .2559967 .63378909 .21598816 .63409426 .16999817 .641098 .12298584 .6621094 .114990238 .6651001 .11099243 .6651001 .11099243 .6651001 .100997928 .66508486 .100997928 .657074 .100997928 .64108279V.3447113C.100997928 .3266449 .100997928 .31861878 .114990238 .31861878 .12199402 .31861878 .12399292 .32164 .12799073 .32765199 .13899231 .34371949 .17599488 .3979187 .25698854 .3979187 .30899049 .3979187 .33399964 .3517456 .34199525 .3336792 .35798646 .2965393 .3600006 .2574005 .3600006 .20721436 .3600006 .17218018 .3600006 .112197879 .33599855 .07032776 .31199647 .031448366 .2749939 .0055389406 .22898865 .0055389406 .1559906 .0055389406 .09899902 .05836487 .08198547 .1171875 .084991458 .11685181 .08799744 .115859989 .09899902 .115859989 .13198853 .115859989 .14898682 .14085388 .14898682 .16485596 .14898682 .18885803 .13198853 .21386719 .09899902 .21386719 .084991458 .21386719 .049987794 .2068634 .049987794 .16085816 .049987794 .07432556 .11898804-.022460938 .23098755-.022460938 .34700013-.022460938 .44898988 .07331848 .44898988 .20019531V.20091248Z"/>
<path id="font_2_101" d="M.45700074 .2036438C.45700074 .33070375 .36799623 .4267578 .25698854 .4267578 .18899536 .4267578 .1519928 .37573243 .13198853 .327713V.35173036C.13198853 .6047821 .2559967 .64100649 .30699159 .64100649 .33099366 .64100649 .37298585 .634964 .394989 .6007538 .37998963 .6007538 .33999635 .6007538 .33999635 .5557556 .33999635 .524765 .3639984 .5097656 .38598634 .5097656 .4019928 .5097656 .43199159 .51875308 .43199159 .5577545 .43199159 .6178589 .3880005 .6660156 .30499269 .6660156 .1769867 .6660156 .041992189 .5367584 .041992189 .31570436 .041992189 .048553468 .1579895-.022460938 .25099183-.022460938 .3619995-.022460938 .45700074 .07156372 .45700074 .2036438M.36698915 .20463562C.36698915 .15661621 .36698915 .10658264 .34999085 .0705719 .31999208 .010528564 .27398683 .0055389406 .25099183 .0055389406 .18798828 .0055389406 .1579895 .06556702 .1519928 .080566409 .13398743 .127594 .13398743 .2076416 .13398743 .22564698 .13398743 .30369569 .1659851 .40374757 .2559967 .40374757 .27198792 .40374757 .31799317 .40374757 .34899903 .34172059 .36698915 .30470277 .36698915 .2536621 .36698915 .20463562Z"/>
<path id="font_2_100" d="M.4850006 .6435547H.24198914C.11999512 .6435547 .117996219 .6566467 .11399841 .67578127H.08898926L.055999757 .46954347H.08099365C.083999637 .48554994 .09298706 .54855349 .10598755 .5605469 .11299133 .5665436 .19099427 .5665436 .20399475 .5665436H.41099549L.29899598 .40853883C.20899964 .2735443 .17599488 .13453675 .17599488 .03253174 .17599488 .022537232 .17599488-.022460938 .22200012-.022460938 .2679901-.022460938 .2679901 .022537232 .2679901 .03253174V.08354187C.2679901 .13853455 .2709961 .19354248 .2789917 .24754334 .2829895 .27053834 .29699708 .35653688 .34098817 .41854859L.47599793 .608551C.4850006 .62054446 .4850006 .62254336 .4850006 .6435547Z"/>
<path id="font_2_78" d="M.45700074 .32888795C.45700074 .598114 .34199525 .6660156 .25299073 .6660156 .19799805 .6660156 .14898682 .64801028 .10598755 .6031189 .06498718 .5580902 .041992189 .5160217 .041992189 .44091798 .041992189 .3158722 .12998963 .21777344 .24198914 .21777344 .30299378 .21777344 .34399415 .25979615 .36698915 .3178711V.28582765C.36698915 .05178833 .2630005 .0055389406 .20498657 .0055389406 .18798828 .0055389406 .13398743 .007537842 .10699463 .041778566 .15098572 .041778566 .15899658 .07078552 .15899658 .08778381 .15899658 .118774417 .1349945 .13378906 .11299133 .13378906 .09700012 .13378906 .066986087 .12478638 .066986087 .08578491 .066986087 .018615723 .12098694-.022460938 .20599365-.022460938 .33499146-.022460938 .45700074 .11378479 .45700074 .32888795M.36499024 .42089845C.36499024 .33789063 .33099366 .24076844 .24299622 .24076844 .22698975 .2407074 .18099976 .2407074 .1499939 .30371095 .13198853 .34072877 .13198853 .3908081 .13198853 .43988038 .13198853 .49397279 .13198853 .5410614 .15299988 .578125 .17999268 .62805178 .21798706 .64100649 .25299073 .64100649 .29899598 .64100649 .33198548 .60710147 .34899903 .562088 .36099244 .52989199 .36499024 .46688844 .36499024 .42089845Z"/>
<path id="font_3_62" d="M.7859955 0V.035995485H.7619934C.68499758 .035995485 .68299868 .04598999 .68299868 .08097839V.60165408C.68299868 .6356201 .68499758 .64660647 .7619934 .64660647H.7859955V.6826172L.6359863 .6786041 .4850006 .6826172V.64660647H.5089874C.58599856 .64660647 .58799746 .6366272 .58799746 .60165408V.37290956H.2539978V.60165408C.2539978 .6356201 .2559967 .64660647 .33299256 .64660647H.35699464V.6826172L.20698548 .6786041 .055999757 .6826172V.64660647H.07998657C.15699768 .64660647 .15899658 .6366272 .15899658 .60165408V.08097839C.15899658 .04698181 .15699768 .035995485 .07998657 .035995485H.055999757V0L.20599365 .0039978029 .35699464 0V.035995485H.33299256C.2559967 .035995485 .2539978 .04598999 .2539978 .08097839V.33691407H.58799746V.08097839C.58799746 .04698181 .58599856 .035995485 .5089874 .035995485H.4850006V0L.6349945 .0039978029 .7859955 0Z"/>
<path id="font_3_66" d="M.27398683 0V.035995485C.21598816 .035995485 .20599365 .035995485 .20599365 .07803345V.44140626L.05899048 .43052674V.39453126C.12199402 .39453126 .1309967 .3885193 .1309967 .33952333V.07952881C.1309967 .035995485 .12098694 .035995485 .055999757 .035995485V0C.055999757 0 .12799073 .0039978029 .16799927 .0039978029 .20298767 .0039978029 .23899842 .0029907227 .27398683 0M.21899414 .60214236C.21899414 .6341553 .19400025 .66015627 .1619873 .66015627 .12799073 .66015627 .10499573 .6321411 .10499573 .6031494 .10499573 .57115176 .12998963 .54515078 .1619873 .54515078 .19599915 .54515078 .21899414 .57315066 .21899414 .60214236Z"/>
<path id="font_3_98" d="M.40699769 .1315155C.40699769 .1694336 .3899994 .1993866 .3639984 .2233429 .32598878 .25827027 .27999879 .2662506 .24499512 .2722473 .16499329 .28622438 .099990848 .29818727 .099990848 .35113526 .099990848 .38320924 .1269989 .422287 .22200012 .422287 .33799745 .422287 .34298707 .34114076 .34498597 .3121643 .34599305 .30119325 .35798646 .30119325 .3619995 .30119325 .3789978 .30119325 .3789978 .30818177 .3789978 .32714845V.42027284C.3789978 .43728639 .3789978 .44628907 .36499024 .44628907 .3600006 .44628907 .35798646 .44628907 .34498597 .4342804 .34298707 .43328858 .33299256 .4242859 .32699586 .419281 .29699708 .4402771 .25898744 .44628907 .22200012 .44628907 .07899475 .44628907 .04499817 .3711853 .04499817 .32115174 .04499817 .2892151 .05899048 .2632599 .08299255 .24330139 .12098694 .21035767 .15899658 .20336914 .22099304 .1933899 .2709961 .18440247 .35198976 .17044068 .35198976 .103515628 .35198976 .06437683 .32499696 .018234253 .22898865 .018234253 .1329956 .018234253 .09799194 .08143616 .07998657 .1494751 .07699585 .16244507 .07598877 .16644287 .06199646 .16644287 .04499817 .16644287 .04499817 .15945435 .04499817 .13949585V.016220093C.04499817-.00077819827 .04499817-.009765625 .05899048-.009765625 .067993167-.009765625 .08699036 .011230469 .10699463 .03327942 .15098572-.0077667238 .20498657-.009765625 .22898865-.009765625 .35899354-.009765625 .40699769 .06036377 .40699769 .1315155Z"/>
<path id="font_3_105" d="M.375 .12606812V.1809845H.34098817V.12705994C.34098817 .059173585 .30899049 .022232056 .269989 .022232056 .20098877 .022232056 .20098877 .10609436 .20098877 .124069217V.39465333H.35699464V.43066407H.20098877V.6142578H.16699219C.1659851 .5244446 .125 .42565919 .0289917 .4226532V.39465333H.12199402V.1250763C.12199402 .01322937 .20599365-.009765625 .2619934-.009765625 .32899476-.010009766 .375 .04699707 .375 .12599182V.12606812Z"/>
<path id="font_3_81" d="M.5289917 .21325684C.5289917 .3382721 .42199708 .44628907 .28399659 .44628907 .1459961 .44628907 .038986207 .3382721 .038986207 .21325684 .038986207 .0892334 .14898682-.009765625 .28399659-.009765625 .4189911-.009765625 .5289917 .0892334 .5289917 .21325684M.43798829 .22225952C.43798829 .17424011 .43499757 .12124634 .4059906 .08023071 .3789978 .042236329 .33299256 .022232056 .28399659 .022232056 .24699402 .022232056 .19299317 .034225465 .1599884 .083236698 .1329956 .12423706 .12998963 .17625427 .12998963 .22225952 .12998963 .2652588 .1309967 .32426454 .1659851 .36727906 .19099427 .39627076 .23298645 .41827394 .28399659 .41827394 .34298707 .41827394 .3849945 .39027406 .40699769 .3592682 .43499757 .32026673 .43798829 .27026368 .43798829 .22225952Z"/>
<path id="font_3_59" d="M.54499819 .40040589C.54499819 .42340089 .526001 .45140077 .48599244 .45140077 .47099305 .45140077 .4169922 .44839479 .36999513 .4053955 .33999635 .42739869 .2979889 .44140626 .2539978 .44140626 .15098572 .44140626 .07598877 .372406 .07598877 .29440309 .07598877 .2554016 .09599304 .21939087 .12399292 .19340515 .115997318 .18440247 .09399414 .1513977 .09399414 .11239624 .09399414 .09939575 .09700012 .05239868 .13598633 .023391724 .09098816 .0082092289 .038986207-.024841309 .038986207-.076934818 .038986207-.15003968 .14898682-.20507813 .28399659-.20507813 .41099549-.20507813 .5289917-.15505982 .5289917-.074920658 .5289917-.0448761 .5169983 .00920105 .46199037 .039260866 .40299989 .0703125 .34399415 .0703125 .24699402 .0703125 .22499085 .0703125 .18899536 .0703125 .18099976 .07130432 .14898682 .078308109 .1309967 .108306888 .1309967 .13729859 .1309967 .16246033 .13798523 .17045594 .14399719 .17845154 .15899658 .16944885 .19499207 .14746094 .25299073 .14746094 .35598756 .14746094 .43099977 .21644593 .43099977 .29444886 .43099977 .33345033 .41299439 .36445619 .3889923 .39045716 .43399049 .42245484 .47299195 .42344667 .48999024 .42344667 .48599244 .41944886 .48098756 .41545106 .48098756 .39945985 .48098756 .37945558 .49598695 .3674469 .5130005 .3674469 .5269928 .3674469 .54499819 .37745667 .54499819 .40045167V.40040589M.35099793 .29444886C.35099793 .27845765 .35099793 .2384491 .33099366 .21244812 .31698609 .19544983 .2899933 .17745972 .2539978 .17745972 .1559906 .17720032 .1559906 .2732849 .1559906 .29429627 .1559906 .310318 .1559906 .3503418 .17599488 .3763733 .18998719 .39338685 .21699524 .4113922 .25299073 .4113922 .35099793 .4113922 .35099793 .31532289 .35099793 .29429627V.29444886M.46798707-.07600403C.46798707-.12904358 .3889923-.17507935 .28399659-.17507935 .1789856-.17507935 .099990848-.12808228 .099990848-.07608032 .099990848-.04107666 .13198853 .0019226074 .19599915 .0029296876H.2539978C.34298707 .0029296876 .46798707 .0029296876 .46798707-.07608032V-.07600403Z"/>
<path id="font_3_96" d="M.40699769 .37739564C.40699769 .4113922 .375 .44140626 .32798768 .44140626 .27799989 .44140626 .22299195 .4104004 .19299317 .33439637H.19198609V.44140626L.04899597 .43052674V.39453126C.115997318 .39453126 .12399292 .3875122 .12399292 .33843995V.079055789C.12399292 .035995485 .11399841 .035995485 .04899597 .035995485V0C.053985597 0 .12199402 .0039978029 .16299439 .0039978029L.29299928 0V.035995485H.272995C.19898987 .036071779 .19898987 .047073366 .19898987 .081085208V.22807312C.19898987 .31207276 .23799134 .41308595 .33299256 .41308595 .32398988 .40608216 .31599427 .39308167 .31599427 .3770752 .31599427 .3440857 .34199525 .3310852 .36099244 .3310852 .3849945 .3310852 .40699769 .34707643 .40699769 .3770752V.37739564Z"/>
<path id="font_3_28" d="M.5439911 .09013367V.14515686H.5099945V.09114075C.5099945 .08113098 .5099945 .033111574 .47299195 .033111574 .43598939 .033111574 .43598939 .0801239 .43598939 .09313965V.268219C.43598939 .3212433 .43598939 .35925294 .3899994 .39627076 .34899903 .4302826 .30099488 .44628907 .24198914 .44628907 .14698792 .44628907 .07998657 .41027833 .07998657 .34925843 .07998657 .31723023 .101989749 .30023194 .12799073 .30023194 .15499878 .30023194 .1749878 .3202362 .1749878 .34724427 .1749878 .3642578 .16699219 .38526917 .13999939 .39326478 .17599488 .41827394 .23399353 .41827394 .23999024 .41827394 .29599 .41827394 .35699464 .38127137 .35699464 .29722596V.2662201C.3019867 .26420594 .23599243 .2612152 .16299439 .23420716 .07299805 .20118714 .04499817 .14616394 .04499817 .101135257 .04499817 .0152282719 .14898682-.009765625 .21998596-.009765625 .2999878-.009765625 .34700013 .035232545 .36799623 .07423401 .37199403 .033111574 .39898683-.0048828127 .44499208-.0048828127 .44499208-.0048828127 .5439911-.0048828127 .5439911 .09010315V.09013367M.35699464 .14111328C.35699464 .04522705 .272995 .018234253 .22799683 .018234253 .1769867 .018234253 .1289978 .052230836 .1289978 .10122681 .1289978 .15621948 .1769867 .23323059 .35699464 .24023438V.14111328Z"/>
<path id="font_3_75" d="M.8969879 0V.035995485C.83200076 .035995485 .82199099 .035995485 .82199099 .07904053V.3032837C.82199099 .3903656 .7789917 .44140626 .6719971 .44140626 .59298709 .44140626 .5389862 .39837647 .5119934 .34832765 .49198915 .41940309 .43798829 .44140626 .36499024 .44140626 .2829895 .44140626 .22999573 .39637757 .20199585 .34432984H.20098877V.44140626L.053985597 .43052674V.39453126C.12098694 .39453126 .1289978 .3875122 .1289978 .33843995V.079055789C.1289978 .035995485 .11898804 .035995485 .053985597 .035995485V0C.053985597 0 .12599182 .0039978029 .16799927 .0039978029 .20498657 .0039978029 .27398683 .0009918213 .2829895 0V.035995485C.21798706 .035995485 .20799256 .035995485 .20799256 .079055789V.25932313C.20799256 .36434938 .29100038 .4133911 .35699464 .4133911 .4269867 .4133911 .43598939 .3583374 .43598939 .3072815V.07904053C.43598939 .035995485 .42599488 .035995485 .36099244 .035995485V0C.36099244 0 .43299867 .0039978029 .47499085 .0039978029 .5119934 .0039978029 .58099368 .0009918213 .58999636 0V.035995485C.5249939 .035995485 .5149994 .035995485 .5149994 .07904053V.25923158C.5149994 .36434938 .59799197 .4133911 .6639862 .4133911 .73399356 .4133911 .7429962 .3583374 .7429962 .3072815V.07904053C.7429962 .035995485 .73298647 .035995485 .66799929 .035995485V0C.66799929 0 .73999026 .0039978029 .7819977 .0039978029 .81900027 .0039978029 .8880005 .0009918213 .8969879 0Z"/>
<path id="font_3_55" d="M.397995 .63075259C.397995 .6737671 .35499574 .7037811 .2999878 .7037811 .22099304 .7037811 .1309967 .6477661 .1309967 .54270938V.43066407H.04499817V.39465333H.1309967V.078948978C.1309967 .035995485 .12098694 .035995485 .055999757 .035995485V0C.06098938 0 .1289978 .0039978029 .16999817 .0039978029L.2999878 0V.035995485H.27999879C.20599365 .03565979 .20599365 .046661378 .20599365 .08065796V.39465333H.33099366V.43066407H.20199585V.54270938C.20199585 .63375857 .2559967 .67578127 .29899598 .67578127 .30799867 .67578127 .31799317 .6737671 .32798768 .67077639 .31399537 .6627655 .30599977 .64675906 .30599977 .63075259 .30599977 .6037445 .32499696 .58473208 .35198976 .58473208 .3789978 .58473208 .397995 .6037445 .397995 .63075259Z"/>
<path id="font_3_76" d="M.7859955 .64660647V.6826172C.7449951 .6796112 .7049866 .6786041 .6639862 .6786041 .6230011 .6786041 .58299258 .6796112 .5419922 .6826172V.64660647C.644989 .64660647 .644989 .6016388 .644989 .57466128V.15092469L.26098634 .66760256C.25 .6816101 .24899292 .6826172 .22898865 .6826172H.055999757V.64660647H.085998538C.1289978 .64660647 .1539917 .6416168 .15899658 .64060977V.107940677C.15899658 .080963138 .15899658 .035995485 .055999757 .035995485V0C.09700012 .0029907227 .13699341 .0039978029 .17799378 .0039978029 .21899414 .0039978029 .25898744 .0029907227 .2999878 0V.035995485C.19699097 .035995485 .19699097 .080963138 .19699097 .107940677V.6126251L.6409912 .01499939C.651001 .0009918213 .6519928 0 .6639862 0 .68299868 0 .68299868 .008987427 .68299868 .027999878V.57466128C.68299868 .6016388 .68299868 .64660647 .7859955 .64660647Z"/>
<path id="font_3_109" d="M.58999636 0V.035995485C.522995 .035995485 .5149994 .042999269 .5149994 .092056278V.44140626L.36099244 .43052674V.39453126C.42799378 .39439393 .43598939 .3874359 .43598939 .33872987V.16749573C.43598939 .079330448 .3789978 .018234253 .30299378 .018234253 .21199036 .018234253 .20799256 .061309816 .20799256 .11239624V.44140626L.053985597 .43052674V.39453126C.1289978 .39453126 .1289978 .39154054 .1289978 .30273438V.15246582C.1289978 .083343509 .1289978-.009765625 .29599-.009765625 .31799317-.009765625 .3909912-.009765625 .43899537 .07432556H.43998719V-.009765625L.58999636 0Z"/>
<path id="font_3_35" d="M.58399966 .21640015C.58399966 .33839417 .48098756 .44140626 .34999085 .44140626 .2899933 .44140626 .23498535 .41740418 .19898987 .38139344V.69433596L.04899597 .68333438V.6473236C.116989139 .6473236 .12399292 .639328 .12399292 .58935549V.00022888184H.1579895L.19299317 .06124878C.23098755 .011230469 .28599549-.009765625 .33898927-.009765625 .47099305-.009765625 .58399966 .089263919 .58399966 .2163086V.21640015M.49299623 .21731568C.49299623 .19430542 .49299623 .119277957 .45199586 .072250369 .4119873 .027236939 .36299134 .018234253 .33399964 .018234253 .2539978 .018234253 .21398926 .08125305 .20298767 .102264408V.33535768C.23098755 .38137818 .2849884 .4133911 .34498597 .4133911 .40098573 .4133911 .44099427 .38137818 .46099855 .35136415 .48098756 .32235719 .49299623 .28334046 .49299623 .21731568Z"/>
<path id="font_3_50" d="M.46798707 .12036133C.46798707 .12435913 .46598817 .13438416 .45098878 .13438416 .43798829 .13438416 .43598939 .12837219 .43299867 .11836243 .4019928 .037246705 .32598878 .022232056 .2899933 .022232056 .24299622 .022232056 .19799805 .043258668 .16799927 .08131409 .1309967 .12837219 .12998963 .18945313 .12998963 .22851563H.43998719C.46099855 .22851563 .46798707 .22851563 .46798707 .25050355 .46798707 .33839417 .4189911 .44628907 .269989 .44628907 .13899231 .44628907 .038986207 .34239198 .038986207 .21949768 .038986207 .092315677 .1499939-.009765625 .2829895-.009765625 .41799928-.009765625 .46798707 .09832764 .46798707 .12036133M.397995 .25450135H.1309967C.14199829 .39530946 .23199463 .41827394 .269989 .41827394 .3929901 .41827394 .39698792 .27947999 .397995 .25450135Z"/>
<path id="font_3_54" d="M.6819916 .44908143 .6519928 .67871096H.055999757V.6427002H.07998657C.15699768 .6427002 .15899658 .63272097 .15899658 .5977936V.08103943C.15899658 .04699707 .15699768 .035995485 .07998657 .035995485H.055999757V0L.20799256 .0039978029 .3829956 0V.035995485H.34799195C.2539978 .035995485 .2539978 .04901123 .2539978 .08203125V.32226563H.35099793C.45098878 .32226563 .46499635 .29223634 .46499635 .20515442H.49899293V.47503663H.46499635C.46499635 .38919068 .45098878 .3582611 .35099793 .3582611H.2539978V.603775C.2539978 .63471987 .25498963 .6427002 .3019867 .6427002H.44198609C.6029968 .6427002 .6299896 .58880618 .647995 .44908143H.6819916Z"/>
<path id="font_3_97" d="M.55999758 .18554688C.55999758 .27555848 .49699403 .36054994 .39698792 .38356019L.24899292 .41755677C.16099549 .43756105 .13398743 .5005493 .13398743 .5424652 .13398743 .6082916 .19499207 .67111209 .28599549 .67111209 .42099 .67111209 .47898866 .58135989 .49499513 .4765625 .49699403 .46154786 .49798585 .45655824 .5130005 .45655824 .5299988 .45655824 .5299988 .463562 .5299988 .4825592V.677124C.5299988 .6941223 .5299988 .703125 .5159912 .703125 .5079956 .703125 .5059967 .700119 .49899293 .68911746L.46299745 .6332245C.39698792 .700119 .31399537 .703125 .28599549 .703125 .1599884 .703125 .069992069 .61328127 .069992069 .512558 .069992069 .45655824 .09498596 .41355897 .1309967 .37954713 .17098999 .3405609 .20399475 .33355714 .31199647 .30955506 .40299989 .28955079 .4229889 .28555299 .45199586 .2575531 .47499085 .23446656 .49598695 .20246887 .49598695 .15745545 .49598695 .08746338 .43798829 .016464234 .34199525 .016464234 .24499512 .016464234 .11099243 .05445862 .10398865 .2054596 .102996829 .22146607 .102996829 .22746277 .08699036 .22746277 .069992069 .22746277 .069992069 .22045899 .069992069 .20045471V.006454468C.069992069-.010543823 .069992069-.01953125 .083999637-.01953125 .09199524-.01953125 .09399414-.016540528 .099990848-.007537842 .10899353 .0044555666 .1289978 .036468507 .13699341 .049453737 .19999695-.0055389406 .2769928-.01953125 .34199525-.01953125 .47399903-.01953125 .55999758 .07946777 .55999758 .18545532V.18554688Z"/>
<path id="font_3_72" d="M.2809906 0V.035995485C.21598816 .035995485 .20599365 .035995485 .20599365 .07901001V.69433596L.055999757 .6826172V.64660647C.12298584 .64660647 .1309967 .6396179 .1309967 .59065249V.07896423C.1309967 .035995485 .12098694 .035995485 .055999757 .035995485V0C.055999757 0 .12799073 .0039978029 .16799927 .0039978029 .20599365 .0039978029 .24299622 .0029907227 .2809906 0Z"/>
<path id="font_3_47" d="M.58099368 0V.035995485C.5139923 .035995485 .5059967 .042999269 .5059967 .09202576V.69433596L.35598756 .6826172V.64660647C.4229889 .64660647 .43099977 .6396332 .43099977 .5908203V.3843689C.3939972 .4203949 .34599305 .44140626 .29100038 .44140626 .1579895 .44140626 .04598999 .34132386 .04598999 .21520996 .04598999 .09008789 .1519928-.009765625 .2789917-.009765625 .36099244-.009765625 .4099884 .03414917 .4269867 .05206299V-.009765625L.58099368 0M.4269867 .10499573C.40098573 .05807495 .34999085 .018234253 .2849884 .018234253 .22898865 .018234253 .18899536 .051071168 .16899109 .080078128 .14898682 .11010742 .13699341 .15014649 .13699341 .21421814 .13699341 .23724365 .13699341 .3123169 .17799378 .35932923 .21798706 .40438844 .2669983 .4133911 .29599 .4133911 .34399415 .4133911 .3869934 .39137269 .4149933 .35533143 .4269867 .33932496 .4269867 .33833314 .4269867 .31933595V.10499573Z"/>
</defs>
<path transform="matrix(1.0001,0,0,-1.00008,33.552858,294.2666)" stroke-width=".19925" stroke-linecap="butt" stroke-miterlimit="10" stroke-linejoin="miter" fill="none" stroke="#d9d9d9" d="M0 0H226.77448M0 2.83484H226.77448M0 5.6697H226.77448M0 8.50455H226.77448M0 11.33939H226.77448M0 14.17424H226.77448M0 17.0091H226.77448M0 19.84393H226.77448M0 22.67879H226.77448M0 25.51364H226.77448M0 28.3485H226.77448M0 31.18333H226.77448M0 34.01819H226.77448M0 36.85304H226.77448M0 39.68788H226.77448M0 42.52274H226.77448M0 45.35759H226.77448M0 48.19244H226.77448M0 51.02728H226.77448M0 53.86214H226.77448M0 56.69699H226.77448M0 59.53183H226.77448M0 62.36668H226.77448M0 65.20154H226.77448M0 68.03639H226.77448M0 70.87123H226.77448M0 73.70609H226.77448M0 76.54094H226.77448M0 79.37578H226.77448M0 82.21063H226.77448M0 85.04549H226.77448M0 87.88034H226.77448M0 90.71518H226.77448M0 93.55003H226.77448M0 96.38489H226.77448M0 99.21973H226.77448M0 102.05458H226.77448M0 104.88943H226.77448M0 107.72429H226.77448M0 110.55913H226.77448M0 113.39398H226.77448M0 116.22884H226.77448M0 119.06367H226.77448M0 121.89853H226.77448M0 124.73338H226.77448M0 127.56824H226.77448M0 130.40308H226.77448M0 133.23793H226.77448M0 136.07279H226.77448M0 138.90763H226.77448M0 141.74248H226.77448M0 144.57733H226.77448M0 147.41219H226.77448M0 150.24703H226.77448M0 153.08188H226.77448M0 155.91674H226.77448M0 158.75157H226.77448M0 161.58643H226.77448M0 164.42128H226.77448M0 167.25612H226.77448M0 170.09098H226.77448M0 172.92583H226.77448M0 175.76068H226.77448M0 178.59552H226.77448M0 181.43038H226.77448M0 184.26523H226.77448M0 187.10007H226.77448M0 189.93492H226.77448M0 192.76978H226.77448M0 195.60463H226.77448M0 198.43947H226.77448M0 201.27433H226.77448M0 204.10918H226.77448M0 206.94402H226.77448M0 209.77887H226.77448M0 212.61373H226.77448M0 215.44858H226.77448M0 218.28342H226.77448M0 221.11827H226.77448M0 223.95313H226.77448M0 226.78797H226.77448M0 229.62282H226.77448M0 232.45767H226.77448M0 235.29253H226.77448M0 238.12737H226.77448M0 240.96222H226.77448M0 243.79708H226.77448M0 246.63191H226.77448M0 249.46677H226.77448M0 252.30162H226.77448M0 255.13648H226.77448M0 257.9713H226.77448M0 260.80619H226.77448M0 263.64103H226.77448M0 266.47587H226.77448M0 269.3107H226.77448M0 272.14558H226.77448M0 274.9804H226.77448M0 277.81526H226.77448M0 280.65013H226.77448M0 0V283.4681M2.83484 0V283.4681M5.6697 0V283.4681M8.50455 0V283.4681M11.33939 0V283.4681M14.17424 0V283.4681M17.0091 0V283.4681M19.84393 0V283.4681M22.67879 0V283.4681M25.51364 0V283.4681M28.3485 0V283.4681M31.18333 0V283.4681M34.01819 0V283.4681M36.85304 0V283.4681M39.68788 0V283.4681M42.52274 0V283.4681M45.35759 0V283.4681M48.19244 0V283.4681M51.02728 0V283.4681M53.86214 0V283.4681M56.69699 0V283.4681M59.53183 0V283.4681M62.36668 0V283.4681M65.20154 0V283.4681M68.03639 0V283.4681M70.87123 0V283.4681M73.70609 0V283.4681M76.54094 0V283.4681M79.37578 0V283.4681M82.21063 0V283.4681M85.04549 0V283.4681M87.88034 0V283.4681M90.71518 0V283.4681M93.55003 0V283.4681M96.38489 0V283.4681M99.21973 0V283.4681M102.05458 0V283.4681M104.88943 0V283.4681M107.72429 0V283.4681M110.55913 0V283.4681M113.39398 0V283.4681M116.22884 0V283.4681M119.06367 0V283.4681M121.89853 0V283.4681M124.73338 0V283.4681M127.56824 0V283.4681M130.40308 0V283.4681M133.23793 0V283.4681M136.07279 0V283.4681M138.90763 0V283.4681M141.74248 0V283.4681M144.57733 0V283.4681M147.41219 0V283.4681M150.24703 0V283.4681M153.08188 0V283.4681M155.91674 0V283.4681M158.75157 0V283.4681M161.58643 0V283.4681M164.42128 0V283.4681M167.25612 0V283.4681M170.09098 0V283.4681M172.92583 0V283.4681M175.76068 0V283.4681M178.59552 0V283.4681M181.43038 0V283.4681M184.26523 0V283.4681M187.10007 0V283.4681M189.93492 0V283.4681M192.76978 0V283.4681M195.60463 0V283.4681M198.43947 0V283.4681M201.27433 0V283.4681M204.10918 0V283.4681M206.94402 0V283.4681M209.77887 0V283.4681M212.61373 0V283.4681M215.44858 0V283.4681M218.28342 0V283.4681M221.11827 0V283.4681M223.95313 0V283.4681M226.77448 283.4681"/>
<path transform="matrix(1.0001,0,0,-1.00008,33.552858,294.2666)" stroke-width=".3985" stroke-linecap="butt" stroke-miterlimit="10" stroke-linejoin="miter" fill="none" stroke="#a6a6a6" d="M0 0H226.77448M0 28.3468H226.77448M0 56.69362H226.77448M0 85.04042H226.77448M0 113.38724H226.77448M0 141.73404H226.77448M0 170.08086H226.77448M0 198.42766H226.77448M0 226.77448H226.77448M0 255.12128H226.77448M0 283.45814H226.77448M0 0V283.4681M28.3468 0V283.4681M56.69362 0V283.4681M85.04042 0V283.4681M113.38724 0V283.4681M141.73404 0V283.4681M170.08086 0V283.4681M198.42766 0V283.4681M226.76451 0V283.4681M226.77448 283.4681"/>
<path transform="matrix(1.0001,0,0,-1.00008,33.552858,294.2666)" stroke-width=".79701" stroke-linecap="butt" stroke-miterlimit="10" stroke-linejoin="miter" fill="none" stroke="#000000" d="M0 0H225.97747"/>
<path transform="matrix(1.0001,0,0,-1.00008,259.95149,294.2666)" stroke-width=".79701" stroke-linecap="round" stroke-linejoin="round" fill="none" stroke="#000000" d="M-2.55046 3.11095C-2.0845 1.24435-1.04614 .36295 0 0-1.04614-.36295-2.0845-1.24435-2.55046-3.11095"/>
<path transform="matrix(1.0001,0,0,-1.00008,33.552858,294.2666)" stroke-width=".79701" stroke-linecap="butt" stroke-miterlimit="10" stroke-linejoin="miter" fill="none" stroke="#000000" d="M0 0V282.67109"/>
<path transform="matrix(0,-1.00008,-1.0001,-0,33.552858,11.174377)" stroke-width=".79701" stroke-linecap="round" stroke-linejoin="round" fill="none" stroke="#000000" d="M-2.55046 3.11095C-2.0845 1.24435-1.04614 .36295 0 0-1.04614-.36295-2.0845-1.24435-2.55046-3.11095"/>
<use data-text="N" xlink:href="#font_1_76" transform="matrix(7.970897,0,0,-7.9707376,133.82788,326.07716)"/>
<use data-text="u" xlink:href="#font_1_109" transform="matrix(7.970897,0,0,-7.9707376,140.17272,326.07716)"/>
<use data-text="m" xlink:href="#font_1_75" transform="matrix(7.970897,0,0,-7.9707376,144.87555,326.07716)"/>
<use data-text="b" xlink:href="#font_1_35" transform="matrix(7.970897,0,0,-7.9707376,151.69068,326.07716)"/>
<use data-text="e" xlink:href="#font_1_50" transform="matrix(7.970897,0,0,-7.9707376,156.62467,326.07716)"/>
<use data-text="r" xlink:href="#font_1_96" transform="matrix(7.970897,0,0,-7.9707376,160.38694,326.07716)"/>
<use data-text="o" xlink:href="#font_1_81" transform="matrix(7.970897,0,0,-7.9707376,166.50858,326.07716)"/>
<use data-text="f" xlink:href="#font_1_55" transform="matrix(7.970897,0,0,-7.9707376,170.74112,326.07716)"/>
<use data-text="F" xlink:href="#font_1_54" transform="matrix(7.970897,0,0,-7.9707376,176.15335,326.07716)"/>
<use data-text="r" xlink:href="#font_1_96" transform="matrix(7.970897,0,0,-7.9707376,180.97574,326.07716)"/>
<use data-text="u" xlink:href="#font_1_109" transform="matrix(7.970897,0,0,-7.9707376,184.2757,326.07716)"/>
<use data-text="i" xlink:href="#font_1_66" transform="matrix(7.970897,0,0,-7.9707376,188.97855,326.07716)"/>
<use data-text="t" xlink:href="#font_1_105" transform="matrix(7.970897,0,0,-7.9707376,191.32996,326.07716)"/>
<use data-text="s" xlink:href="#font_1_98" transform="matrix(7.970897,0,0,-7.9707376,194.62192,326.07716)"/>
<use data-text="S" xlink:href="#font_1_97" transform="matrix(7.970897,0,0,-7.9707376,200.77548,326.07716)"/>
<use data-text="o" xlink:href="#font_1_81" transform="matrix(7.970897,0,0,-7.9707376,205.4783,326.07716)"/>
<use data-text="l" xlink:href="#font_1_72" transform="matrix(7.970897,0,0,-7.9707376,209.71085,326.07716)"/>
<use data-text="d" xlink:href="#font_1_47" transform="matrix(7.970897,0,0,-7.9707376,212.06226,326.07716)"/>
<use data-text="F" xlink:href="#font_1_54" transform="matrix(0,-7.9707376,-7.970897,-0,7.195221,171.05873)"/>
<use data-text="r" xlink:href="#font_1_96" transform="matrix(0,-7.9707376,-7.970897,-0,7.195221,166.24442)"/>
<use data-text="e" xlink:href="#font_1_50" transform="matrix(0,-7.9707376,-7.970897,-0,7.195221,162.94452)"/>
<use data-text="q" xlink:href="#font_1_91" transform="matrix(0,-7.9707376,-7.970897,-0,7.195221,159.18233)"/>
<use data-text="u" xlink:href="#font_1_109" transform="matrix(0,-7.9707376,-7.970897,-0,7.195221,154.71076)"/>
<use data-text="e" xlink:href="#font_1_50" transform="matrix(0,-7.9707376,-7.970897,-0,7.195221,150.00801)"/>
<use data-text="n" xlink:href="#font_1_77" transform="matrix(0,-7.9707376,-7.970897,-0,7.195221,146.24582)"/>
<use data-text="c" xlink:href="#font_1_43" transform="matrix(0,-7.9707376,-7.970897,-0,7.195221,141.54309)"/>
<use data-text="y" xlink:href="#font_1_118" transform="matrix(0,-7.9707376,-7.970897,-0,7.195221,137.7809)"/>
<use data-text="(" xlink:href="#font_1_85" transform="matrix(0,-7.9707376,-7.970897,-0,7.195221,130.49565)"/>
<use data-text="D" xlink:href="#font_1_46" transform="matrix(0,-7.9707376,-7.970897,-0,7.195221,127.203739)"/>
<use data-text="a" xlink:href="#font_1_28" transform="matrix(0,-7.9707376,-7.970897,-0,7.195221,120.73947)"/>
<use data-text="y" xlink:href="#font_1_118" transform="matrix(0,-7.9707376,-7.970897,-0,7.195221,116.738178)"/>
<use data-text="s" xlink:href="#font_1_98" transform="matrix(0,-7.9707376,-7.970897,-0,7.195221,112.26659)"/>
<use data-text=")" xlink:href="#font_1_86" transform="matrix(0,-7.9707376,-7.970897,-0,7.195221,108.92685)"/>
<use data-text="1" xlink:href="#font_2_82" transform="matrix(9.963596,0,0,-9.963397,56.920194,312.9271)"/>
<use data-text="0" xlink:href="#font_2_121" transform="matrix(9.963596,0,0,-9.963397,61.90199,312.9271)"/>
<use data-text="2" xlink:href="#font_2_107" transform="matrix(9.963596,0,0,-9.963397,85.270038,312.9271)"/>
<use data-text="0" xlink:href="#font_2_121" transform="matrix(9.963596,0,0,-9.963397,90.25183,312.9271)"/>
<use data-text="3" xlink:href="#font_2_106" transform="matrix(9.963596,0,0,-9.963397,113.619869,312.9271)"/>
<use data-text="0" xlink:href="#font_2_121" transform="matrix(9.963596,0,0,-9.963397,118.60166,312.9271)"/>
<use data-text="4" xlink:href="#font_2_57" transform="matrix(9.963596,0,0,-9.963397,141.9697,313.0371)"/>
<use data-text="0" xlink:href="#font_2_121" transform="matrix(9.963596,0,0,-9.963397,146.95149,313.0371)"/>
<use data-text="5" xlink:href="#font_2_56" transform="matrix(9.963596,0,0,-9.963397,170.31954,312.9271)"/>
<use data-text="0" xlink:href="#font_2_121" transform="matrix(9.963596,0,0,-9.963397,175.30133,312.9271)"/>
<use data-text="6" xlink:href="#font_2_101" transform="matrix(9.963596,0,0,-9.963397,198.66837,312.9271)"/>
<use data-text="0" xlink:href="#font_2_121" transform="matrix(9.963596,0,0,-9.963397,203.65016,312.9271)"/>
<use data-text="7" xlink:href="#font_2_100" transform="matrix(9.963596,0,0,-9.963397,227.0182,313.0271)"/>
<use data-text="0" xlink:href="#font_2_121" transform="matrix(9.963596,0,0,-9.963397,232,313.0271)"/>
<use data-text="0" xlink:href="#font_2_121" transform="matrix(9.963596,0,0,-9.963397,16.546158,297.47486)"/>
<use data-text="3" xlink:href="#font_2_106" transform="matrix(9.963596,0,0,-9.963397,16.546158,240.77632)"/>
<use data-text="6" xlink:href="#font_2_101" transform="matrix(9.963596,0,0,-9.963397,16.546158,184.0788)"/>
<use data-text="9" xlink:href="#font_2_78" transform="matrix(9.963596,0,0,-9.963397,16.546158,127.38025)"/>
<use data-text="1" xlink:href="#font_2_82" transform="matrix(9.963596,0,0,-9.963397,11.56366,70.79173)"/>
<use data-text="2" xlink:href="#font_2_107" transform="matrix(9.963596,0,0,-9.963397,16.545456,70.79173)"/>
<use data-text="1" xlink:href="#font_2_82" transform="matrix(9.963596,0,0,-9.963397,11.56366,13.984161)"/>
<use data-text="5" xlink:href="#font_2_56" transform="matrix(9.963596,0,0,-9.963397,16.545456,13.984161)"/>
<path transform="matrix(1.0001,0,0,-1.00008,33.552858,294.2666)" d="M28.3468 0V56.69362H56.69362V0ZM56.69362 56.69362" fill="#6666ff"/>
<path transform="matrix(1.0001,0,0,-1.00008,33.552858,294.2666)" stroke-width=".3985" stroke-linecap="butt" stroke-miterlimit="10" stroke-linejoin="miter" fill="none" stroke="#000000" d="M28.3468 0V56.69362H56.69362V0ZM56.69362 56.69362"/>
<path transform="matrix(1.0001,0,0,-1.00008,33.552858,294.2666)" d="M56.69362 0V132.37953H85.04042V0ZM85.04042 132.37953" fill="#6666ff"/>
<path transform="matrix(1.0001,0,0,-1.00008,33.552858,294.2666)" stroke-width=".3985" stroke-linecap="butt" stroke-miterlimit="10" stroke-linejoin="miter" fill="none" stroke="#000000" d="M56.69362 0V132.37953H85.04042V0ZM85.04042 132.37953"/>
<path transform="matrix(1.0001,0,0,-1.00008,33.552858,294.2666)" d="M85.04042 0V226.77448H113.38724V0ZM113.38724 226.77448" fill="#6666ff"/>
<path transform="matrix(1.0001,0,0,-1.00008,33.552858,294.2666)" stroke-width=".3985" stroke-linecap="butt" stroke-miterlimit="10" stroke-linejoin="miter" fill="none" stroke="#000000" d="M85.04042 0V226.77448H113.38724V0ZM113.38724 226.77448"/>
<path transform="matrix(1.0001,0,0,-1.00008,33.552858,294.2666)" d="M113.38724 0V283.4681H141.73404V0ZM141.73404 283.4681" fill="#6666ff"/>
<path transform="matrix(1.0001,0,0,-1.00008,33.552858,294.2666)" stroke-width=".3985" stroke-linecap="butt" stroke-miterlimit="10" stroke-linejoin="miter" fill="none" stroke="#000000" d="M113.38724 0V283.4681H141.73404V0ZM141.73404 283.4681"/>
<path transform="matrix(1.0001,0,0,-1.00008,33.552858,294.2666)" d="M141.73404 0V151.08853H170.08086V0ZM170.08086 151.08853" fill="#6666ff"/>
<path transform="matrix(1.0001,0,0,-1.00008,33.552858,294.2666)" stroke-width=".3985" stroke-linecap="butt" stroke-miterlimit="10" stroke-linejoin="miter" fill="none" stroke="#000000" d="M141.73404 0V151.08853H170.08086V0ZM170.08086 151.08853"/>
<path transform="matrix(1.0001,0,0,-1.00008,33.552858,294.2666)" d="M170.08086 0V94.39491H198.42766V0ZM198.42766 94.39491" fill="#6666ff"/>
<path transform="matrix(1.0001,0,0,-1.00008,33.552858,294.2666)" stroke-width=".3985" stroke-linecap="butt" stroke-miterlimit="10" stroke-linejoin="miter" fill="none" stroke="#000000" d="M170.08086 0V94.39491H198.42766V0ZM198.42766 94.39491"/>
<use data-text="H" xlink:href="#font_3_62" transform="matrix(6.974498,0,0,-6.974358,84.09591,5.825531)"/>
<use data-text="i" xlink:href="#font_3_66" transform="matrix(6.974498,0,0,-6.974358,89.97541,5.825531)"/>
<use data-text="s" xlink:href="#font_3_98" transform="matrix(6.974498,0,0,-6.974358,92.22818,5.825531)"/>
<use data-text="t" xlink:href="#font_3_105" transform="matrix(6.974498,0,0,-6.974358,95.38762,5.825531)"/>
<use data-text="o" xlink:href="#font_3_81" transform="matrix(6.974498,0,0,-6.974358,98.498249,5.825531)"/>
<use data-text="g" xlink:href="#font_3_59" transform="matrix(6.974498,0,0,-6.974358,102.466739,5.825531)"/>
<use data-text="r" xlink:href="#font_3_96" transform="matrix(6.974498,0,0,-6.974358,106.43523,5.825531)"/>
<use data-text="a" xlink:href="#font_3_28" transform="matrix(6.974498,0,0,-6.974358,109.54587,5.825531)"/>
<use data-text="m" xlink:href="#font_3_75" transform="matrix(6.974498,0,0,-6.974358,113.51436,5.825531)"/>
<use data-text="o" xlink:href="#font_3_81" transform="matrix(6.974498,0,0,-6.974358,122.74161,5.825531)"/>
<use data-text="f" xlink:href="#font_3_55" transform="matrix(6.974498,0,0,-6.974358,126.7101,5.825531)"/>
<use data-text="N" xlink:href="#font_3_76" transform="matrix(6.974498,0,0,-6.974358,131.86425,5.825531)"/>
<use data-text="u" xlink:href="#font_3_109" transform="matrix(6.974498,0,0,-6.974358,137.74375,5.825531)"/>
<use data-text="m" xlink:href="#font_3_75" transform="matrix(6.974498,0,0,-6.974358,142.14466,5.825531)"/>
<use data-text="b" xlink:href="#font_3_35" transform="matrix(6.974498,0,0,-6.974358,148.48447,5.825531)"/>
<use data-text="e" xlink:href="#font_3_50" transform="matrix(6.974498,0,0,-6.974358,153.0946,5.825531)"/>
<use data-text="r" xlink:href="#font_3_96" transform="matrix(6.974498,0,0,-6.974358,156.63765,5.825531)"/>
<use data-text="o" xlink:href="#font_3_81" transform="matrix(6.974498,0,0,-6.974358,162.43346,5.825531)"/>
<use data-text="f" xlink:href="#font_3_55" transform="matrix(6.974498,0,0,-6.974358,166.40195,5.825531)"/>
<use data-text="F" xlink:href="#font_3_54" transform="matrix(6.974498,0,0,-6.974358,171.55609,5.825531)"/>
<use data-text="r" xlink:href="#font_3_96" transform="matrix(6.974498,0,0,-6.974358,176.06163,5.825531)"/>
<use data-text="u" xlink:href="#font_3_109" transform="matrix(6.974498,0,0,-6.974358,179.17226,5.825531)"/>
<use data-text="i" xlink:href="#font_3_66" transform="matrix(6.974498,0,0,-6.974358,183.57317,5.825531)"/>
<use data-text="t" xlink:href="#font_3_105" transform="matrix(6.974498,0,0,-6.974358,185.82593,5.825531)"/>
<use data-text="s" xlink:href="#font_3_98" transform="matrix(6.974498,0,0,-6.974358,188.93656,5.825531)"/>
<use data-text="S" xlink:href="#font_3_97" transform="matrix(6.974498,0,0,-6.974358,194.7742,5.825531)"/>
<use data-text="o" xlink:href="#font_3_81" transform="matrix(6.974498,0,0,-6.974358,199.17511,5.825531)"/>
<use data-text="l" xlink:href="#font_3_72" transform="matrix(6.974498,0,0,-6.974358,203.1436,5.825531)"/>
<use data-text="d" xlink:href="#font_3_47" transform="matrix(6.974498,0,0,-6.974358,205.39636,5.825531)"/>
</svg>
