<svg xmlns="http://www.w3.org/2000/svg" xmlns:xlink="http://www.w3.org/1999/xlink" xmlns:inkscape="http://www.inkscape.org/namespaces/inkscape" version="1.1" width="234" height="244" viewBox="0 0 234 244">
<defs>
<path id="font_1_113" d="M1.1210022 .64660647V.6826172C1.1109924 .6816101 1.0569916 .6786041 1.0279999 .6786041 .98599246 .6786041 .94299319 .680603 .901001 .6826172V.64660647C.95799258 .6456146 .9850006 .62168887 .9850006 .5957031 .9850006 .59169009 .9850006 .5897064 .9799957 .5767212L.8149872 .11529541 .6399994 .60469058C.6359863 .61569216 .6359863 .6186981 .6359863 .6186981 .6359863 .64660647 .69299319 .64660647 .71899417 .64660647V.6826172L.56999209 .6786041C.5289917 .6786041 .4889984 .6796112 .44799806 .6826172V.64660647C.5009918 .64660647 .5179901 .6446228 .5289917 .6316986 .5359955 .623703 .548996 .58670046 .5569916 .56373599L.3959961 .11529541 .22200012 .60069277C.21699524 .61369326 .21699524 .61569216 .21699524 .6186981 .21699524 .64660647 .27398683 .64660647 .2999878 .64660647V.6826172L.15098572 .6786041C.10998535 .6786041 .069992069 .6796112 .0289917 .6826172V.64660647C.09098816 .64660647 .10899353 .64660647 .12199402 .60969546L.33898927 .0034332276C.34498597-.013549805 .34999085-.01953125 .3659973-.01953125 .38398744-.01953125 .3869934-.009552002 .3919983 .0034332276L.57499697 .51379397 .7579956 .0034332276C.7630005-.009552002 .7659912-.01953125 .7839966-.01953125 .8009949-.01953125 .8049927-.012542725 .8109894 .0034332276L1.0179901 .58070376C1.0309906 .6166992 1.0549927 .64660647 1.1210022 .64660647Z"/>
<path id="font_1_28" d="M.5439911 .09013367V.14515686H.5099945V.09114075C.5099945 .08113098 .5099945 .033111574 .47299195 .033111574 .43598939 .033111574 .43598939 .0801239 .43598939 .09313965V.268219C.43598939 .3212433 .43598939 .35925294 .3899994 .39627076 .34899903 .4302826 .30099488 .44628907 .24198914 .44628907 .14698792 .44628907 .07998657 .41027833 .07998657 .34925843 .07998657 .31723023 .101989749 .30023194 .12799073 .30023194 .15499878 .30023194 .1749878 .3202362 .1749878 .34724427 .1749878 .3642578 .16699219 .38526917 .13999939 .39326478 .17599488 .41827394 .23399353 .41827394 .23999024 .41827394 .29599 .41827394 .35699464 .38127137 .35699464 .29722596V.2662201C.3019867 .26420594 .23599243 .2612152 .16299439 .23420716 .07299805 .20118714 .04499817 .14616394 .04499817 .101135257 .04499817 .0152282719 .14898682-.009765625 .21998596-.009765625 .2999878-.009765625 .34700013 .035232545 .36799623 .07423401 .37199403 .033111574 .39898683-.0048828127 .44499208-.0048828127 .44499208-.0048828127 .5439911-.0048828127 .5439911 .09010315V.09013367M.35699464 .14111328C.35699464 .04522705 .272995 .018234253 .22799683 .018234253 .1769867 .018234253 .1289978 .052230836 .1289978 .10122681 .1289978 .15621948 .1769867 .23323059 .35699464 .24023438V.14111328Z"/>
<path id="font_1_105" d="M.375 .12606812V.1809845H.34098817V.12705994C.34098817 .059173585 .30899049 .022232056 .269989 .022232056 .20098877 .022232056 .20098877 .10609436 .20098877 .124069217V.39465333H.35699464V.43066407H.20098877V.6142578H.16699219C.1659851 .5244446 .125 .42565919 .0289917 .4226532V.39465333H.12199402V.1250763C.12199402 .01322937 .20599365-.009765625 .2619934-.009765625 .32899476-.010009766 .375 .04699707 .375 .12599182V.12606812Z"/>
<path id="font_1_50" d="M.46798707 .12036133C.46798707 .12435913 .46598817 .13438416 .45098878 .13438416 .43798829 .13438416 .43598939 .12837219 .43299867 .11836243 .4019928 .037246705 .32598878 .022232056 .2899933 .022232056 .24299622 .022232056 .19799805 .043258668 .16799927 .08131409 .1309967 .12837219 .12998963 .18945313 .12998963 .22851563H.43998719C.46099855 .22851563 .46798707 .22851563 .46798707 .25050355 .46798707 .33839417 .4189911 .44628907 .269989 .44628907 .13899231 .44628907 .038986207 .34239198 .038986207 .21949768 .038986207 .092315677 .1499939-.009765625 .2829895-.009765625 .41799928-.009765625 .46798707 .09832764 .46798707 .12036133M.397995 .25450135H.1309967C.14199829 .39530946 .23199463 .41827394 .269989 .41827394 .3929901 .41827394 .39698792 .27947999 .397995 .25450135Z"/>
<path id="font_1_96" d="M.40699769 .37739564C.40699769 .4113922 .375 .44140626 .32798768 .44140626 .27799989 .44140626 .22299195 .4104004 .19299317 .33439637H.19198609V.44140626L.04899597 .43052674V.39453126C.115997318 .39453126 .12399292 .3875122 .12399292 .33843995V.079055789C.12399292 .035995485 .11399841 .035995485 .04899597 .035995485V0C.053985597 0 .12199402 .0039978029 .16299439 .0039978029L.29299928 0V.035995485H.272995C.19898987 .036071779 .19898987 .047073366 .19898987 .081085208V.22807312C.19898987 .31207276 .23799134 .41308595 .33299256 .41308595 .32398988 .40608216 .31599427 .39308167 .31599427 .3770752 .31599427 .3440857 .34199525 .3310852 .36099244 .3310852 .3849945 .3310852 .40699769 .34707643 .40699769 .3770752V.37739564Z"/>
<path id="font_1_42" d="M.74398806 .23434448C.74398806 .24534607 .7429962 .25334168 .72698977 .25334168 .72099307 .25334168 .71099856 .25334168 .70999148 .24034119 .70199587 .079422 .56599429 .016464234 .46699525 .016464234 .3600006 .016464234 .1769867 .0814209 .1769867 .34129334 .1769867 .61213687 .37098695 .66711428 .46499635 .66711428 .56399539 .66711428 .6819916 .6011505 .70799258 .429245 .70999148 .4172516 .71899417 .4172516 .7259979 .4172516 .74398806 .4172516 .74398806 .4232483 .74398806 .4432373V.677124C.74398806 .6941223 .74398806 .703125 .7299957 .703125 .7259979 .703125 .72099307 .703125 .71299746 .69111636L.6599884 .6151428C.6179962 .65711978 .548996 .703125 .45298768 .703125 .24299622 .703125 .069992069 .5411835 .069992069 .34228517 .069992069 .13938904 .24598694-.01953125 .45298768-.01953125 .6299896-.01953125 .74398806 .1124115 .74398806 .23434448Z"/>
<path id="font_1_81" d="M.5289917 .21325684C.5289917 .3382721 .42199708 .44628907 .28399659 .44628907 .1459961 .44628907 .038986207 .3382721 .038986207 .21325684 .038986207 .0892334 .14898682-.009765625 .28399659-.009765625 .4189911-.009765625 .5289917 .0892334 .5289917 .21325684M.43798829 .22225952C.43798829 .17424011 .43499757 .12124634 .4059906 .08023071 .3789978 .042236329 .33299256 .022232056 .28399659 .022232056 .24699402 .022232056 .19299317 .034225465 .1599884 .083236698 .1329956 .12423706 .12998963 .17625427 .12998963 .22225952 .12998963 .2652588 .1309967 .32426454 .1659851 .36727906 .19099427 .39627076 .23298645 .41827394 .28399659 .41827394 .34298707 .41827394 .3849945 .39027406 .40699769 .3592682 .43499757 .32026673 .43798829 .27026368 .43798829 .22225952Z"/>
<path id="font_1_77" d="M.58999636 0V.035995485C.5249939 .035995485 .5149994 .035995485 .5149994 .07904053V.3032837C.5149994 .3903656 .47200013 .44140626 .36499024 .44140626 .2829895 .44140626 .22999573 .39637757 .20199585 .34432984H.20098877V.44140626L.053985597 .43052674V.39453126C.12098694 .39453126 .1289978 .3875122 .1289978 .33843995V.079055789C.1289978 .035995485 .11898804 .035995485 .053985597 .035995485V0C.053985597 0 .12599182 .0039978029 .16799927 .0039978029 .20498657 .0039978029 .27398683 .0009918213 .2829895 0V.035995485C.21798706 .035995485 .20799256 .035995485 .20799256 .079055789V.25932313C.20799256 .36434938 .29100038 .4133911 .35699464 .4133911 .4269867 .4133911 .43598939 .3583374 .43598939 .3072815V.07904053C.43598939 .035995485 .42599488 .035995485 .36099244 .035995485V0C.36099244 0 .43299867 .0039978029 .47499085 .0039978029 .5119934 .0039978029 .58099368 .0009918213 .58999636 0Z"/>
<path id="font_1_98" d="M.40699769 .1315155C.40699769 .1694336 .3899994 .1993866 .3639984 .2233429 .32598878 .25827027 .27999879 .2662506 .24499512 .2722473 .16499329 .28622438 .099990848 .29818727 .099990848 .35113526 .099990848 .38320924 .1269989 .422287 .22200012 .422287 .33799745 .422287 .34298707 .34114076 .34498597 .3121643 .34599305 .30119325 .35798646 .30119325 .3619995 .30119325 .3789978 .30119325 .3789978 .30818177 .3789978 .32714845V.42027284C.3789978 .43728639 .3789978 .44628907 .36499024 .44628907 .3600006 .44628907 .35798646 .44628907 .34498597 .4342804 .34298707 .43328858 .33299256 .4242859 .32699586 .419281 .29699708 .4402771 .25898744 .44628907 .22200012 .44628907 .07899475 .44628907 .04499817 .3711853 .04499817 .32115174 .04499817 .2892151 .05899048 .2632599 .08299255 .24330139 .12098694 .21035767 .15899658 .20336914 .22099304 .1933899 .2709961 .18440247 .35198976 .17044068 .35198976 .103515628 .35198976 .06437683 .32499696 .018234253 .22898865 .018234253 .1329956 .018234253 .09799194 .08143616 .07998657 .1494751 .07699585 .16244507 .07598877 .16644287 .06199646 .16644287 .04499817 .16644287 .04499817 .15945435 .04499817 .13949585V.016220093C.04499817-.00077819827 .04499817-.009765625 .05899048-.009765625 .067993167-.009765625 .08699036 .011230469 .10699463 .03327942 .15098572-.0077667238 .20498657-.009765625 .22898865-.009765625 .35899354-.009765625 .40699769 .06036377 .40699769 .1315155Z"/>
<path id="font_1_109" d="M.58999636 0V.035995485C.522995 .035995485 .5149994 .042999269 .5149994 .092056278V.44140626L.36099244 .43052674V.39453126C.42799378 .39439393 .43598939 .3874359 .43598939 .33872987V.16749573C.43598939 .079330448 .3789978 .018234253 .30299378 .018234253 .21199036 .018234253 .20799256 .061309816 .20799256 .11239624V.44140626L.053985597 .43052674V.39453126C.1289978 .39453126 .1289978 .39154054 .1289978 .30273438V.15246582C.1289978 .083343509 .1289978-.009765625 .29599-.009765625 .31799317-.009765625 .3909912-.009765625 .43899537 .07432556H.43998719V-.009765625L.58999636 0Z"/>
<path id="font_1_75" d="M.8969879 0V.035995485C.83200076 .035995485 .82199099 .035995485 .82199099 .07904053V.3032837C.82199099 .3903656 .7789917 .44140626 .6719971 .44140626 .59298709 .44140626 .5389862 .39837647 .5119934 .34832765 .49198915 .41940309 .43798829 .44140626 .36499024 .44140626 .2829895 .44140626 .22999573 .39637757 .20199585 .34432984H.20098877V.44140626L.053985597 .43052674V.39453126C.12098694 .39453126 .1289978 .3875122 .1289978 .33843995V.079055789C.1289978 .035995485 .11898804 .035995485 .053985597 .035995485V0C.053985597 0 .12599182 .0039978029 .16799927 .0039978029 .20498657 .0039978029 .27398683 .0009918213 .2829895 0V.035995485C.21798706 .035995485 .20799256 .035995485 .20799256 .079055789V.25932313C.20799256 .36434938 .29100038 .4133911 .35699464 .4133911 .4269867 .4133911 .43598939 .3583374 .43598939 .3072815V.07904053C.43598939 .035995485 .42599488 .035995485 .36099244 .035995485V0C.36099244 0 .43299867 .0039978029 .47499085 .0039978029 .5119934 .0039978029 .58099368 .0009918213 .58999636 0V.035995485C.5249939 .035995485 .5149994 .035995485 .5149994 .07904053V.25923158C.5149994 .36434938 .59799197 .4133911 .6639862 .4133911 .73399356 .4133911 .7429962 .3583374 .7429962 .3072815V.07904053C.7429962 .035995485 .73298647 .035995485 .66799929 .035995485V0C.66799929 0 .73999026 .0039978029 .7819977 .0039978029 .81900027 .0039978029 .8880005 .0009918213 .8969879 0Z"/>
<path id="font_1_84" d="M.58399966 .21640015C.58399966 .33940126 .48199464 .44140626 .35499574 .44140626 .2979889 .44140626 .23999024 .4203949 .19898987 .3804016V.44140626L.04899597 .43052674V.39453126C.11898804 .39453126 .12399292 .38952638 .12399292 .34753419V-.11437988C.12399292-.15736389 .11399841-.15736389 .04899597-.15736389V-.19335938C.04899597-.19346619 .12098694-.18945313 .16299439-.18945313 .19999695-.18936157 .2689972-.19236756 .27799989-.19335938V-.15736389C.21299744-.15736389 .20298767-.15736389 .20298767-.114486698V.048233034C.20799256 .04324341 .25498963-.009765625 .33898927-.009765625 .47099305-.009765625 .58399966 .089263919 .58399966 .2163086V.21640015M.49299623 .2163086C.49299623 .102264408 .41799928 .018234253 .33299256 .018234253 .24499512 .018234253 .20599365 .09526062 .20298767 .101257327V.33335877C.23298645 .38339234 .29100038 .4093933 .34399415 .4093933 .42799378 .4093933 .49299623 .32136537 .49299623 .2163086Z"/>
<path id="font_1_66" d="M.27398683 0V.035995485C.21598816 .035995485 .20599365 .035995485 .20599365 .07803345V.44140626L.05899048 .43052674V.39453126C.12199402 .39453126 .1309967 .3885193 .1309967 .33952333V.07952881C.1309967 .035995485 .12098694 .035995485 .055999757 .035995485V0C.055999757 0 .12799073 .0039978029 .16799927 .0039978029 .20298767 .0039978029 .23899842 .0029907227 .27398683 0M.21899414 .60214236C.21899414 .6341553 .19400025 .66015627 .1619873 .66015627 .12799073 .66015627 .10499573 .6321411 .10499573 .6031494 .10499573 .57115176 .12998963 .54515078 .1619873 .54515078 .19599915 .54515078 .21899414 .57315066 .21899414 .60214236Z"/>
<path id="font_1_85" d="M.375-.23703003C.375-.23103333 .37199403-.22903443 .36499024-.22203064 .23199463-.10203552 .18299866 .067977908 .18299866 .24998474 .18299866 .519989 .28599549 .65197756 .36799623 .72598269 .37199403 .72998049 .375 .73298647 .375 .73799136 .375 .75 .36299134 .75 .35499574 .75 .16499329 .61598208 .114990238 .40397645 .114990238 .25097657 .114990238 .10997009 .15699768-.10902405 .35499574-.24902344 .36299134-.24902344 .375-.24902344 .375-.23703003Z"/>
<path id="font_1_71" d="M.651001 .2628479H.61698916C.60598757 .16491699 .59098818 .035995485 .4019928 .035995485H.3019867C.25498963 .035995485 .2539978 .04399109 .2539978 .07496643V.600647C.2539978 .6336212 .2539978 .64660647 .34799195 .64660647H.3829956V.6826172L.20799256 .6786041 .055999757 .6826172V.64660647H.07998657C.15699768 .64660647 .15899658 .63661196 .15899658 .6016388V.080963138C.15899658 .04698181 .15699768 .035995485 .07998657 .035995485H.055999757V0H.62098696L.651001 .2628479Z"/>
<path id="font_1_86" d="M.32998658 .24998474C.32998658 .39097596 .28799439 .60998538 .08999634 .75 .08299255 .75 .070999149 .75 .070999149 .73799136 .070999149 .73298647 .07398987 .72998049 .07998657 .72299197 .1659851 .64398196 .2619934 .5089874 .2619934 .25097657 .2619934 .04197693 .19699097-.11602783 .08898926-.21403504 .07199097-.23103333 .070999149-.23202515 .070999149-.23703003 .070999149-.24203491 .07398987-.24902344 .083999637-.24902344 .09599304-.24902344 .19099427-.18302918 .25698854-.058029176 .30099488 .024978638 .32998658 .13298035 .32998658 .24998474Z"/>
<path id="font_2_54" d="M.647995 .45303346 .61898806 .6796875H.04399109V.64668276H.06599426C.14299011 .64668276 .14498902 .6356964 .14498902 .59877017V.08102417C.14498902 .044006349 .14299011 .032989503 .06599426 .032989503H.04399109V0L.19799805 .0029907227C.24499512 .0029907227 .31799317 .0029907227 .36299134 0V.032989503H.33099366C.23699951 .032989503 .23699951 .04699707 .23699951 .08203125V.32421876H.32998658C.42799378 .32421876 .43998719 .29318238 .43998719 .2071228H.47099305V.47399903H.43998719C.43998719 .38916017 .42799378 .35720826 .32998658 .35720826H.23699951V.60575869C.23699951 .6396942 .23899842 .64668276 .2849884 .64668276H.41799928C.58099368 .64668276 .59999087 .58380129 .61698916 .45303346H.647995Z"/>
<path id="font_2_96" d="M.38398744 .3784027C.38398744 .4133911 .35198976 .44140626 .30799867 .44140626 .24299622 .44140626 .19898987 .39239503 .17799378 .33639527H.1769867V.44140626L.034988405 .43045045V.39746095C.102996829 .39746095 .11099243 .3904419 .11099243 .3413849V.078048709C.11099243 .032989503 .09899902 .032989503 .034988405 .032989503V0C.07398987 .0029907227 .1289978 .0029907227 .15299988 .0029907227 .21199036 .0029907227 .21398926 .0029907227 .2789917 0V.032989503H.25898744C.18598938 .032989503 .18399048 .044006349 .18399048 .08004761V.22824097C.18399048 .30332948 .21499634 .41145326 .31098939 .41345216 .30499269 .40899659 .29499818 .40098573 .29499818 .37799073 .29499818 .34700013 .31900025 .33299256 .33898927 .33299256 .36299134 .33299256 .38398744 .34899903 .38398744 .37799073V.3784027Z"/>
<path id="font_2_50" d="M.44099427 .12036133C.44099427 .12435913 .43798829 .13438416 .4249878 .13438416 .4139862 .13438416 .4119873 .12736511 .4099884 .12136841 .37399293 .024230957 .28799439 .021224976 .269989 .021224976 .22499085 .021224976 .1789856 .042251588 .14898682 .08831787 .11898804 .13438416 .11898804 .19847107 .11898804 .22851563H.41299439C.43499757 .22851563 .44099427 .22851563 .44099427 .25151063 .44099427 .34039308 .3919983 .44628907 .25099183 .44628907 .1269989 .44628907 .02999878 .3433838 .02999878 .21949768 .02999878 .09031677 .13798523-.009765625 .2639923-.009765625 .3909912-.009765625 .44099427 .097335819 .44099427 .12036133M.37298585 .25450135H.11999512C.1289978 .39431764 .21398926 .41827394 .25099183 .41827394 .36799623 .41827394 .37199403 .27748109 .37298585 .25450135Z"/>
<path id="font_2_91" d="M.5549927-.19413758V-.16113281C.4909973-.16113281 .47898866-.16113281 .47898866-.11602783V.44140626H.45098878L.4139862 .35437013C.3809967 .4073944 .33299256 .44140626 .269989 .44140626 .14498902 .44140626 .034988405 .3443756 .034988405 .21531677 .034988405 .09025574 .13798523-.009765625 .26098634-.009765625 .33299256-.009765625 .3789978 .030227662 .40299989 .0602417V-.11602783C.40299989-.16113281 .3909912-.16113281 .32699586-.16113281V-.19413758C.36999513-.19114685 .4139862-.19114685 .44099427-.19114685 .46998597-.19114685 .5119934-.19114685 .5549927-.19413758M.4059906 .14228821C.4059906 .12626648 .4059906 .120269779 .3909912 .09425354 .35398866 .033233644 .30099488 .018234253 .2669983 .018234253 .18699646 .018234253 .12399292 .10726929 .12399292 .21531677 .12399292 .32936097 .19799805 .4104004 .2769928 .4104004 .35798646 .4104004 .4059906 .32936097 .4059906 .27433778V.14228821Z"/>
<path id="font_2_109" d="M.56199648 .00022888184V.033233644C.49398805 .033233644 .48599244 .040237428 .48599244 .08924866V.44140626L.33399964 .43040467V.3973999C.4019928 .3973999 .4099884 .39039613 .4099884 .34136964V.16726685C.4099884 .08125305 .35798646 .018234253 .2829895 .018234253 .19699097 .018234253 .19299317 .06123352 .19299317 .11126709V.44140626L.040985109 .43040467V.3973999C.116989139 .3973999 .116989139 .39439393 .116989139 .30534364V.15527344C.116989139 .08325195 .116989139-.009765625 .2769928-.009765625 .37098695-.009765625 .40699769 .0622406 .4119873 .071243289H.41299439V-.009765625L.56199648 .00022888184Z"/>
<path id="font_2_77" d="M.56199648 0V.032989503C.49798585 .032989503 .48599244 .032989503 .48599244 .07803345V.3032837C.48599244 .38737489 .44799806 .44140626 .34298707 .44140626 .24398804 .44140626 .19898987 .36935426 .18699646 .34532167H.18598938V.44140626L.040985109 .43045045V.39746095C.10899353 .39746095 .116989139 .3904419 .116989139 .3413849V.078048709C.116989139 .032989503 .10499573 .032989503 .040985109 .032989503V0C.083999637 .0029907227 .12799073 .0029907227 .15499878 .0029907227 .18399048 .0029907227 .22599793 .0029907227 .2689972 0V.032989503C.20498657 .032989503 .19299317 .032989503 .19299317 .078048709V.25927735C.19299317 .36434938 .272995 .4133911 .33399964 .4133911 .394989 .4133911 .4099884 .37036134 .4099884 .3072815V.07803345C.4099884 .032989503 .397995 .032989503 .33399964 .032989503V0C.3769989 .0029907227 .42099 .0029907227 .44799806 .0029907227 .47698976 .0029907227 .5189972 .0029907227 .56199648 0Z"/>
<path id="font_2_43" d="M.44099427 .12031555C.44099427 .13232422 .42799378 .13232422 .4249878 .13232422 .41799928 .13232422 .41299439 .13131714 .4099884 .12130737 .40299989 .10029602 .375 .021224976 .2749939 .021224976 .21299744 .021224976 .12399292 .0692749 .12399292 .21739197 .12399292 .3614807 .19799805 .4152832 .2709961 .4152832 .27999879 .4152832 .33299256 .4152832 .36799623 .39746095 .33999635 .3884735 .33599855 .36547853 .33599855 .35346986 .33599855 .32647706 .35499574 .30647279 .3829956 .30647279 .40899659 .30625917 .42999269 .32426454 .42999269 .35427857 .42999269 .41627503 .3619995 .44628907 .2679901 .44628907 .1289978 .44628907 .034988405 .3352661 .034988405 .21624756 .034988405 .0892334 .13899231-.009765625 .2649994-.009765625 .4059906-.009765625 .44099427 .10824585 .44099427 .12023926V.12031555Z"/>
<path id="font_2_118" d="M.5379944 .3976593V.43066407C.5029907 .42765809 .5009918 .42765809 .45899964 .42765809 .45498658 .42765809 .4019928 .42765809 .37298585 .43066407V.3976593C.4019928 .39564515 .41600038 .37954713 .41600038 .3564148 .41600038 .3504181 .4149933 .3434143 .4099884 .3314209L.30299378 .089645389 .18699646 .3514099C.17999268 .36647035 .17999268 .3684845 .17999268 .37249757 .17999268 .39665223 .21099854 .3976593 .23298645 .3976593V.43066407C.18798828 .42765809 .14498902 .42765809 .12298584 .42765809 .101989749 .42765809 .053985597 .42765809 .021987915 .43066407V.3976593C.07398987 .3976593 .08799744 .39564515 .10499573 .35742188L.2630005-.0002746582C.21798706-.106170658 .18798828-.17610169 .117996219-.17610169 .09298706-.17610169 .07699585-.16412354 .07699585-.16412354 .083999637-.16212464 .10699463-.1511383 .10699463-.122161868 .10699463-.094192508 .085998538-.079193118 .06399536-.079193118 .04399109-.079193118 .020996094-.0921936 .020996094-.12315369 .020996094-.16711426 .06399536-.20410156 .117996219-.20410156 .20698548-.20410156 .25498963-.09718323 .25898744-.08718872L.44299317 .32940675C.46798707 .38659669 .5049896 .39665223 .5379944 .3976593Z"/>
<path id="font_2_85" d="M.35299684-.23800659C.35299684-.23400879 .35198976-.23300171 .33898927-.22000122 .20199585-.09100342 .16799927 .09498596 .16799927 .25 .16799927 .5379944 .2869873 .6729889 .33799745 .71899417 .35198976 .7319946 .35299684 .7330017 .35299684 .73799136 .35299684 .7429962 .34899903 .75 .33898927 .75 .32299806 .75 .272995 .69898989 .2649994 .6899872 .1309967 .5499878 .102996829 .36999513 .102996829 .25 .102996829 .025985718 .19699097-.15400696 .33299256-.25 .34098817-.25 .35299684-.25 .35299684-.23800659Z"/>
<path id="font_2_46" d="M.7509918 .33480836C.7509918 .52767947 .6049957 .6826172 .42599488 .6826172H.04598999V.6496124H.067993167C.14498902 .6496124 .14698792 .63861086 .14698792 .6016388V.080963138C.14698792 .04399109 .14498902 .032989503 .067993167 .032989503H.04598999V0H.42599488C.60598757 0 .7509918 .1499176 .7509918 .33480836M.6499939 .33580018C.6499939 .28483583 .6499939 .18688965 .58699038 .11294556 .5519867 .07197571 .48799134 .032989503 .39898683 .032989503H.28399659C.23799134 .032608034 .23599243 .039611818 .23599243 .0736084V.60861209C.23599243 .64260867 .23799134 .6496124 .28399659 .6496124H.39898683C.47698976 .6496124 .5419922 .61761477 .58599856 .5676117 .6499939 .49160768 .6499939 .38461305 .6499939 .3356018V.33580018Z"/>
<path id="font_2_28" d="M.5139923 .09020996V.14530945H.48298646V.09020996C.48298646 .0491333 .46798707 .033111574 .44699098 .033111574 .4099884 .033111574 .4099884 .079193118 .4099884 .09020996V.29856874C.4099884 .39653016 .31498719 .44628907 .22399903 .44628907 .14099121 .44628907 .066986087 .4143219 .066986087 .34857179 .066986087 .318573 .08799744 .30056764 .11399841 .30056764 .14199829 .30056764 .16099549 .3205719 .16099549 .3475647 .16099549 .37156678 .1459961 .38856507 .12399292 .3935547 .16099549 .41827394 .21499634 .41827394 .22200012 .41827394 .27799989 .41827394 .33399964 .37957765 .33399964 .29756166V.26651C.27598573 .26350404 .20899964 .26049806 .13899231 .23144531 .050994874 .1933899 .033996583 .13528443 .033996583 .10223389 .033996583 .016220093 .1349945-.009765625 .20399475-.009765625 .2769928-.009765625 .32199098 .031219483 .34399415 .07122803 .34899903 .033111574 .375-.0048828127 .4189911-.0048828127 .42900086-.0048828127 .5139923-.00088500979 .5139923 .09010315V.09020996M.33399964 .14111328C.33399964 .04421997 .2519989 .018234253 .21199036 .018234253 .1599884 .018234253 .115997318 .053222658 .115997318 .10122681 .115997318 .16722107 .17799378 .23522949 .33399964 .24023438V.14111328Z"/>
<path id="font_2_98" d="M.3829956 .12924195C.3829956 .1772461 .35398866 .24725342 .23498535 .2692566 .22698975 .2712555 .17098999 .28126527 .16699219 .28126527 .13598633 .28826905 .08898926 .30926515 .08898926 .34927369 .08898926 .37927247 .11099243 .4212799 .20599365 .4212799 .31799317 .4212799 .32299806 .33926393 .32499696 .31126405 .32598878 .30326844 .33299256 .30026246 .33999635 .30026246 .35598756 .30026246 .35598756 .30726625 .35598756 .32626344V.4202881C.35598756 .4362793 .35598756 .44628907 .34298707 .44628907 .33799745 .44628907 .33499146 .44628907 .31900025 .4302826 .31698609 .4292755 .30799867 .4202881 .30499269 .4202881 .30499269 .4202881 .3019867 .4202881 .29599 .4242859 .27999879 .43528749 .25099183 .44628907 .20599365 .44628907 .06599426 .44628907 .034988405 .37026979 .034988405 .32226563 .034988405 .27226258 .07199097 .24325562 .07499695 .24024964 .114990238 .21025086 .13798523 .20625305 .20498657 .19424439 .2519989 .18525696 .32899476 .17124939 .32899476 .10324097 .32899476 .0642395 .30299378 .018234253 .21099854 .018234253 .10998535 .018234253 .08099365 .09623718 .067993167 .14924622 .06399536 .1622467 .06298828 .16725159 .050994874 .16725159 .034988405 .16725159 .034988405 .15924073 .034988405 .14024353V.016220093C.034988405 .00022888184 .034988405-.009765625 .04798889-.009765625 .053985597-.009765625 .054992677-.008773804 .07299805 .010223389 .07798767 .0152282719 .08898926 .02822876 .09399414 .033233644 .13899231-.0077667238 .18598938-.009765625 .21199036-.009765625 .33898927-.009765625 .3829956 .06323242 .3829956 .12924195Z"/>
<path id="font_2_86" d="M.30899049 .25C.30899049 .34498597 .29299928 .45899964 .23098755 .57699587 .18199158 .6689911 .09098816 .75 .07299805 .75 .06298828 .75 .05999756 .7429962 .05999756 .73799136 .05999756 .73399356 .05999756 .7319946 .07199097 .7200012 .21199036 .58699038 .24398804 .4039917 .24398804 .25 .24398804-.037002565 .125-.17300415 .07398987-.2190094 .06098938-.23200989 .05999756-.23300171 .05999756-.23800659 .05999756-.24301148 .06298828-.25 .07299805-.25 .08898926-.25 .13899231-.19900513 .14698792-.19000244 .2809906-.05000305 .30899049 .12998963 .30899049 .25Z"/>
<path id="font_3_107" d="M.44898988 .17396546H.42399598C.4189911 .14398194 .4119873 .099990848 .4019928 .084991458 .394989 .07699585 .32899476 .07699585 .30699159 .07699585H.1269989L.23298645 .17996216C.3889923 .31803895 .44898988 .37210084 .44898988 .47216798 .44898988 .5860901 .35899354 .6660156 .23699951 .6660156 .12399292 .6660156 .049987794 .57411196 .049987794 .48516847 .049987794 .4291687 .099990848 .4291687 .102996829 .4291687 .11999512 .4291687 .15499878 .44117738 .15499878 .48217774 .15499878 .5081787 .13699341 .5341797 .101989749 .5341797 .09399414 .5341797 .09199524 .5341797 .08898926 .5331726 .11199951 .59806826 .1659851 .63500979 .22399903 .63500979 .31498719 .63500979 .35798646 .5541382 .35798646 .47216798 .35798646 .39196778 .30799867 .31297303 .25299073 .25097657L.06098938 .036987306C.049987794 .025985718 .049987794 .023986817 .049987794 0H.42099L.44898988 .17396546Z"/>
<path id="font_3_121" d="M.45999146 .31976319C.45999146 .39982606 .45498658 .47988893 .41999818 .5539398 .37399293 .65000918 .2919922 .6660156 .25 .6660156 .18998719 .6660156 .116989139 .64001467 .07598877 .54693606 .04399109 .47789 .038986207 .39982606 .038986207 .31976319 .038986207 .24472046 .042999269 .15464783 .083999637 .07859802 .1269989-.0024719239 .19999695-.022460938 .24899292-.022460938 .30299378-.022460938 .3789978-.0014648438 .4229889 .09359741 .45498658 .16265869 .45999146 .2407074 .45999146 .31976319M.3769989 .3317871C.3769989 .25672914 .3769989 .18867493 .3659973 .12461853 .35099793 .029556275 .2939911-.00047302247 .24899292-.00047302247 .20999146-.00047302247 .15098572 .024551392 .1329956 .12062073 .12199402 .18066406 .12199402 .2727356 .12199402 .3317871 .12199402 .39582826 .12199402 .46188355 .12998963 .5159149 .14898682 .63500979 .22399903 .64401248 .24899292 .64401248 .28199769 .64401248 .34799195 .6259918 .36698915 .52693179 .3769989 .47088624 .3769989 .39482118 .3769989 .3317871Z"/>
<path id="font_3_56" d="M.44898988 .20091248C.44898988 .31991578 .36698915 .41992188 .25898744 .41992188 .21099854 .41992188 .16799927 .4039154 .13198853 .36891175V.5641022C.1519928 .55778506 .18499756 .55078127 .21699524 .55078127 .33999635 .55078127 .4099884 .6418457 .4099884 .65493777 .4099884 .6609802 .40699769 .6660156 .3999939 .6660156 .3999939 .66607668 .39698792 .66607668 .3919983 .66308596 .37199403 .65408328 .32299806 .63378909 .2559967 .63378909 .21598816 .63409426 .16999817 .641098 .12298584 .6621094 .114990238 .6651001 .11099243 .6651001 .11099243 .6651001 .100997928 .66508486 .100997928 .657074 .100997928 .64108279V.3447113C.100997928 .3266449 .100997928 .31861878 .114990238 .31861878 .12199402 .31861878 .12399292 .32164 .12799073 .32765199 .13899231 .34371949 .17599488 .3979187 .25698854 .3979187 .30899049 .3979187 .33399964 .3517456 .34199525 .3336792 .35798646 .2965393 .3600006 .2574005 .3600006 .20721436 .3600006 .17218018 .3600006 .112197879 .33599855 .07032776 .31199647 .031448366 .2749939 .0055389406 .22898865 .0055389406 .1559906 .0055389406 .09899902 .05836487 .08198547 .1171875 .084991458 .11685181 .08799744 .115859989 .09899902 .115859989 .13198853 .115859989 .14898682 .14085388 .14898682 .16485596 .14898682 .18885803 .13198853 .21386719 .09899902 .21386719 .084991458 .21386719 .049987794 .2068634 .049987794 .16085816 .049987794 .07432556 .11898804-.022460938 .23098755-.022460938 .34700013-.022460938 .44898988 .07331848 .44898988 .20019531V.20091248Z"/>
<path id="font_3_106" d="M.45700074 .17037964C.45700074 .252594 .3939972 .33088685 .2899933 .35191346 .37199403 .37893678 .42999269 .4490509 .42999269 .52809146 .42999269 .6100464 .34199525 .6660156 .24598694 .6660156 .14498902 .6660156 .068984989 .60606387 .068984989 .53009036 .068984989 .49710084 .09098816 .47808839 .11999512 .47808839 .15098572 .47808839 .17098999 .50009158 .17098999 .5290985 .17098999 .57910159 .12399292 .57910159 .10899353 .57910159 .13999939 .62802127 .20599365 .64100649 .24198914 .64100649 .2829895 .64100649 .33799745 .6190338 .33799745 .5290985 .33799745 .51708987 .33599855 .45906068 .30999757 .4149933 .27999879 .36691285 .24598694 .36390687 .22099304 .36291505 .21299744 .36190797 .18899536 .35990907 .18199158 .35990907 .17399597 .35890199 .16699219 .35791017 .16699219 .3479004 .16699219 .33691407 .17399597 .33691407 .19099427 .33691407H.23498535C.31698609 .33691407 .35398866 .2686615 .35398866 .17037964 .35398866 .034469606 .2849884 .0055389406 .24099732 .0055389406 .19799805 .0055389406 .12298584 .022491456 .08799744 .08137512 .12298584 .07637024 .1539917 .09837341 .1539917 .1363678 .1539917 .17237854 .1269989 .19238281 .09799194 .19238281 .07398987 .19238281 .041992189 .17837525 .041992189 .1343689 .041992189 .043441774 .1349945-.022460938 .24398804-.022460938 .3659973-.022460938 .45700074 .06838989 .45700074 .17037964Z"/>
<path id="font_3_57" d="M.47099305 .16503906V.19602967H.37098695V.6507721C.37098695 .6707611 .37098695 .6767578 .35499574 .6767578 .34599305 .6767578 .34298707 .6767578 .33499146 .6647644L.027999878 .19602967V.16503906H.2939911V.07800293C.2939911 .041992189 .2919922 .0309906 .21798706 .0309906H.19699097V0C.23799134 .0029907227 .2899933 .0029907227 .33198548 .0029907227 .37399293 .0029907227 .4269867 .0029907227 .46798707 0V.0309906H.44699098C.37298585 .0309906 .37098695 .041992189 .37098695 .07800293V.16503906H.47099305M.2999878 .19602967H.055999757L.2999878 .56881716V.19602967Z"/>
<path id="font_3_82" d="M.4189911 0V.0309906H.3869934C.29699708 .0309906 .2939911 .041992189 .2939911 .07902527V.64012148C.2939911 .6640167 .2939911 .6660156 .2709961 .6660156 .20899964 .60227969 .12098694 .60227969 .08898926 .60227969V.57128909C.10899353 .57128909 .16799927 .57128909 .21998596 .5972748V.07902527C.21998596 .042999269 .21699524 .0309906 .1269989 .0309906H.09498596V0C.12998963 .0029907227 .21699524 .0029907227 .25698854 .0029907227 .29699708 .0029907227 .38398744 .0029907227 .4189911 0Z"/>
<path id="font_3_101" d="M.45700074 .2036438C.45700074 .33070375 .36799623 .4267578 .25698854 .4267578 .18899536 .4267578 .1519928 .37573243 .13198853 .327713V.35173036C.13198853 .6047821 .2559967 .64100649 .30699159 .64100649 .33099366 .64100649 .37298585 .634964 .394989 .6007538 .37998963 .6007538 .33999635 .6007538 .33999635 .5557556 .33999635 .524765 .3639984 .5097656 .38598634 .5097656 .4019928 .5097656 .43199159 .51875308 .43199159 .5577545 .43199159 .6178589 .3880005 .6660156 .30499269 .6660156 .1769867 .6660156 .041992189 .5367584 .041992189 .31570436 .041992189 .048553468 .1579895-.022460938 .25099183-.022460938 .3619995-.022460938 .45700074 .07156372 .45700074 .2036438M.36698915 .20463562C.36698915 .15661621 .36698915 .10658264 .34999085 .0705719 .31999208 .010528564 .27398683 .0055389406 .25099183 .0055389406 .18798828 .0055389406 .1579895 .06556702 .1519928 .080566409 .13398743 .127594 .13398743 .2076416 .13398743 .22564698 .13398743 .30369569 .1659851 .40374757 .2559967 .40374757 .27198792 .40374757 .31799317 .40374757 .34899903 .34172059 .36698915 .30470277 .36698915 .2536621 .36698915 .20463562Z"/>
<path id="font_1_46" d="M.78900149 .33580018C.78900149 .52568057 .6380005 .6826172 .45199586 .6826172H.057998659V.64660647H.08198547C.15899658 .64660647 .16099549 .63661196 .16099549 .6016388V.080963138C.16099549 .04698181 .15899658 .035995485 .08198547 .035995485H.057998659V0H.45199586C.6359863 0 .78900149 .1479187 .78900149 .33580018M.6859894 .33580018C.6859894 .21987915 .6569977 .15991211 .621994 .11793518 .57699587 .066970828 .5049896 .035995485 .4249878 .035995485H.2999878C.25299073 .035614015 .2519989 .04360962 .2519989 .07461548V.607605C.2519989 .63861086 .25299073 .64660647 .2999878 .64660647H.42399598C.5089874 .64660647 .58299258 .6116028 .6289978 .5526123 .66999819 .49861146 .6859894 .42260743 .6859894 .3356018V.33580018Z"/>
<path id="font_1_72" d="M.2809906 0V.035995485C.21598816 .035995485 .20599365 .035995485 .20599365 .07901001V.69433596L.055999757 .6826172V.64660647C.12298584 .64660647 .1309967 .6396179 .1309967 .59065249V.07896423C.1309967 .035995485 .12098694 .035995485 .055999757 .035995485V0C.055999757 0 .12799073 .0039978029 .16799927 .0039978029 .20599365 .0039978029 .24299622 .0029907227 .2809906 0Z"/>
<path id="font_1_118" d="M.56799319 .39465333V.43066407C.5399933 .4286499 .5209961 .426651 .49198915 .426651 .46499635 .426651 .42799378 .42765809 .40098573 .43066407V.39465333C.43399049 .39265443 .44198609 .3726654 .44198609 .3566742 .44198609 .3446808 .43699647 .33569337 .43299867 .32569886L.32199098 .08883667 .19898987 .3526764C.19599915 .3586731 .19299317 .3646698 .19299317 .37167359 .19299317 .39465333 .22698975 .39465333 .24398804 .39465333V.43066407L.1289978 .426651C.09899902 .426651 .05999756 .42765809 .0309906 .43066407V.39465333C.08699036 .39465333 .09799194 .3916626 .11299133 .35968019L.2809906-.00012207031C.27198792-.020111084 .2619934-.039093019 .25299073-.05908203 .23098755-.10707092 .19898987-.17610169 .1309967-.17610169 .10598755-.17610169 .09799194-.1710968 .08799744-.1640625 .08799744-.16397095 .116989139-.15396118 .116989139-.12097168 .116989139-.096069339 .09899902-.078063968 .07398987-.078063968 .04798889-.078063968 .02999878-.096069339 .02999878-.12207031 .02999878-.16908264 .07699585-.20410156 .1309967-.20410156 .21598816-.20396424 .2649994-.114974979 .2789917-.08496094L.47299195 .33270265C.5009918 .3936615 .5519867 .39465333 .56799319 .39465333Z"/>
<path id="font_1_62" d="M.7859955 0V.035995485H.7619934C.68499758 .035995485 .68299868 .04598999 .68299868 .08097839V.60165408C.68299868 .6356201 .68499758 .64660647 .7619934 .64660647H.7859955V.6826172L.6359863 .6786041 .4850006 .6826172V.64660647H.5089874C.58599856 .64660647 .58799746 .6366272 .58799746 .60165408V.37290956H.2539978V.60165408C.2539978 .6356201 .2559967 .64660647 .33299256 .64660647H.35699464V.6826172L.20698548 .6786041 .055999757 .6826172V.64660647H.07998657C.15699768 .64660647 .15899658 .6366272 .15899658 .60165408V.08097839C.15899658 .04698181 .15699768 .035995485 .07998657 .035995485H.055999757V0L.20599365 .0039978029 .35699464 0V.035995485H.33299256C.2559967 .035995485 .2539978 .04598999 .2539978 .08097839V.33691407H.58799746V.08097839C.58799746 .04698181 .58599856 .035995485 .5089874 .035995485H.4850006V0L.6349945 .0039978029 .7859955 0Z"/>
<path id="font_1_63" d="M.58999636 0V.035995485C.5249939 .035995485 .5149994 .035995485 .5149994 .0790863V.3035736C.5149994 .39045716 .47200013 .44140626 .36499024 .44140626 .27598573 .44140626 .22698975 .3884735 .20498657 .35058595H.20399475V.69433596L.053985597 .6826172V.64660647C.12098694 .64660647 .1289978 .6396179 .1289978 .59065249V.07896423C.1289978 .035995485 .11898804 .035995485 .053985597 .035995485V0C.053985597 0 .12599182 .0039978029 .16799927 .0039978029 .20498657 .0039978029 .27398683 .0009918213 .2829895 0V.035995485C.21798706 .035995485 .20799256 .035995485 .20799256 .07904053V.25923158C.20799256 .36434938 .29100038 .4133911 .35699464 .4133911 .4269867 .4133911 .43598939 .3583374 .43598939 .3072815V.07904053C.43598939 .035995485 .42599488 .035995485 .36099244 .035995485V0C.36099244 0 .43299867 .0039978029 .47499085 .0039978029 .5119934 .0039978029 .58099368 .0009918213 .58999636 0Z"/>
<path id="font_1_47" d="M.58099368 0V.035995485C.5139923 .035995485 .5059967 .042999269 .5059967 .09202576V.69433596L.35598756 .6826172V.64660647C.4229889 .64660647 .43099977 .6396332 .43099977 .5908203V.3843689C.3939972 .4203949 .34599305 .44140626 .29100038 .44140626 .1579895 .44140626 .04598999 .34132386 .04598999 .21520996 .04598999 .09008789 .1519928-.009765625 .2789917-.009765625 .36099244-.009765625 .4099884 .03414917 .4269867 .05206299V-.009765625L.58099368 0M.4269867 .10499573C.40098573 .05807495 .34999085 .018234253 .2849884 .018234253 .22898865 .018234253 .18899536 .051071168 .16899109 .080078128 .14898682 .11010742 .13699341 .15014649 .13699341 .21421814 .13699341 .23724365 .13699341 .3123169 .17799378 .35932923 .21798706 .40438844 .2669983 .4133911 .29599 .4133911 .34399415 .4133911 .3869934 .39137269 .4149933 .35533143 .4269867 .33932496 .4269867 .33833314 .4269867 .31933595V.10499573Z"/>
<path id="font_1_80" d="M.80599978 .33828736C.80599978 .53819277 .6419983 .703125 .43798829 .703125 .23298645 .703125 .069992069 .53819277 .069992069 .33828736 .069992069 .14239502 .23298645-.01953125 .43798829-.01953125 .6429901-.01953125 .80599978 .14239502 .80599978 .33828736M.69898989 .35427857C.69898989 .1084137 .5549927 .013458252 .43798829 .013458252 .32099916 .013458252 .1769867 .1084137 .1769867 .35427857 .1769867 .5861664 .32398988 .67111209 .43798829 .67111209 .5519867 .67111209 .69898989 .5861664 .69898989 .35427857Z"/>
<path id="font_1_112" d="M.56799319 .39465333V.43066407C.54299929 .4286499 .5169983 .426651 .49198915 .426651 .46499635 .426651 .42799378 .42765809 .40098573 .43066407V.39465333C.44299317 .39265443 .44299317 .35964967 .44299317 .35665895 .44299317 .35165406 .44198609 .34165956 .43499757 .32765199L.32199098 .08065796 .19799805 .35266114C.19799805 .35266114 .19198609 .36465455 .19198609 .37165834 .19198609 .39465333 .22599793 .39465333 .24299622 .39465333V.43066407C.24299622 .43066407 .16999817 .426651 .1289978 .426651 .09899902 .426651 .05999756 .42765809 .0309906 .43066407V.39465333C.085998538 .39453126 .09799194 .3925171 .11299133 .3585205L.2709961 .011184692C.27598573-.00079345706 .28199769-.009765625 .29899598-.009765625 .31799317-.009765625 .32199098-.00079345706 .32699586 .010192871L.47399903 .33258058C.5019989 .39352418 .5519867 .39453126 .56799319 .39453126V.39465333Z"/>
<path id="font_1_74" d="M.96499636 0V.035995485H.94099429C.8639984 .035995485 .8619995 .04598999 .8619995 .080963138V.6016388C.8619995 .6356201 .8639984 .64660647 .94099429 .64660647H.96499636V.6826172H.79100039C.7709961 .6826172 .7619934 .6826172 .7539978 .6626129L.5139923 .095962528 .2749939 .660614C.2659912 .6826172 .2579956 .6826172 .23699951 .6826172H.06199646V.64660647H.085998538C.16299439 .64660647 .16499329 .63661196 .16499329 .6016388V.107940677C.16499329 .080963138 .16499329 .035995485 .06199646 .035995485V0C.102996829 .0029907227 .14299011 .0039978029 .18399048 .0039978029 .22499085 .0039978029 .2649994 .0029907227 .30599977 0V.035995485C.20298767 .035995485 .20298767 .080963138 .20298767 .107940677V.63461306L.20399475 .6356201 .46398927 .022994996C.46899415 .010986328 .47399903 0 .4889984 0 .49598695 0 .5049896 .0029907227 .5130005 .020996094L.7769928 .6456146 .7779999 .64460757V.080963138C.7779999 .04698181 .776001 .035995485 .69898989 .035995485H.6749878V0L.81999209 .0039978029 .96499636 0Z"/>
</defs>
<path transform="matrix(1.00005,0,0,-1.00002,33.550928,209.19295)" stroke-width=".19925" stroke-linecap="butt" stroke-miterlimit="10" stroke-linejoin="miter" fill="none" stroke="#d9d9d9" d="M0 0H198.42766M0 2.83484H198.42766M0 5.6697H198.42766M0 8.50455H198.42766M0 11.33939H198.42766M0 14.17424H198.42766M0 17.0091H198.42766M0 19.84393H198.42766M0 22.67879H198.42766M0 25.51364H198.42766M0 28.3485H198.42766M0 31.18333H198.42766M0 34.01819H198.42766M0 36.85304H198.42766M0 39.68788H198.42766M0 42.52274H198.42766M0 45.35759H198.42766M0 48.19244H198.42766M0 51.02728H198.42766M0 53.86214H198.42766M0 56.69699H198.42766M0 59.53183H198.42766M0 62.36668H198.42766M0 65.20154H198.42766M0 68.03639H198.42766M0 70.87123H198.42766M0 73.70609H198.42766M0 76.54094H198.42766M0 79.37578H198.42766M0 82.21063H198.42766M0 85.04549H198.42766M0 87.88034H198.42766M0 90.71518H198.42766M0 93.55003H198.42766M0 96.38489H198.42766M0 99.21973H198.42766M0 102.05458H198.42766M0 104.88943H198.42766M0 107.72429H198.42766M0 110.55913H198.42766M0 113.39398H198.42766M0 116.22884H198.42766M0 119.06367H198.42766M0 121.89853H198.42766M0 124.73338H198.42766M0 127.56824H198.42766M0 130.40308H198.42766M0 133.23793H198.42766M0 136.07279H198.42766M0 138.90763H198.42766M0 141.74248H198.42766M0 144.57733H198.42766M0 147.41219H198.42766M0 150.24703H198.42766M0 153.08188H198.42766M0 155.91674H198.42766M0 158.75157H198.42766M0 161.58643H198.42766M0 164.42128H198.42766M0 167.25612H198.42766M0 170.09098H198.42766M0 172.92583H198.42766M0 175.76068H198.42766M0 178.59552H198.42766M0 181.43038H198.42766M0 184.26523H198.42766M0 187.10007H198.42766M0 189.93492H198.42766M0 192.76978H198.42766M0 195.60463H198.42766M0 0V198.42766M2.83484 0V198.42766M5.6697 0V198.42766M8.50455 0V198.42766M11.33939 0V198.42766M14.17424 0V198.42766M17.0091 0V198.42766M19.84393 0V198.42766M22.67879 0V198.42766M25.51364 0V198.42766M28.3485 0V198.42766M31.18333 0V198.42766M34.01819 0V198.42766M36.85304 0V198.42766M39.68788 0V198.42766M42.52274 0V198.42766M45.35759 0V198.42766M48.19244 0V198.42766M51.02728 0V198.42766M53.86214 0V198.42766M56.69699 0V198.42766M59.53183 0V198.42766M62.36668 0V198.42766M65.20154 0V198.42766M68.03639 0V198.42766M70.87123 0V198.42766M73.70609 0V198.42766M76.54094 0V198.42766M79.37578 0V198.42766M82.21063 0V198.42766M85.04549 0V198.42766M87.88034 0V198.42766M90.71518 0V198.42766M93.55003 0V198.42766M96.38489 0V198.42766M99.21973 0V198.42766M102.05458 0V198.42766M104.88943 0V198.42766M107.72429 0V198.42766M110.55913 0V198.42766M113.39398 0V198.42766M116.22884 0V198.42766M119.06367 0V198.42766M121.89853 0V198.42766M124.73338 0V198.42766M127.56824 0V198.42766M130.40308 0V198.42766M133.23793 0V198.42766M136.07279 0V198.42766M138.90763 0V198.42766M141.74248 0V198.42766M144.57733 0V198.42766M147.41219 0V198.42766M150.24703 0V198.42766M153.08188 0V198.42766M155.91674 0V198.42766M158.75157 0V198.42766M161.58643 0V198.42766M164.42128 0V198.42766M167.25612 0V198.42766M170.09098 0V198.42766M172.92583 0V198.42766M175.76068 0V198.42766M178.59552 0V198.42766M181.43038 0V198.42766M184.26523 0V198.42766M187.10007 0V198.42766M189.93492 0V198.42766M192.76978 0V198.42766M195.60463 0V198.42766M198.42766 198.42766"/>
<path transform="matrix(1.00005,0,0,-1.00002,33.550928,209.19295)" stroke-width=".3985" stroke-linecap="butt" stroke-miterlimit="10" stroke-linejoin="miter" fill="none" stroke="#a6a6a6" d="M0 0H198.42766M0 28.3468H198.42766M0 56.69362H198.42766M0 85.04042H198.42766M0 113.38724H198.42766M0 141.73404H198.42766M0 170.08086H198.42766M0 198.41771H198.42766M0 0V198.42766M28.3468 0V198.42766M56.69362 0V198.42766M85.04042 0V198.42766M113.38724 0V198.42766M141.73404 0V198.42766M170.08086 0V198.42766M198.41771 0V198.42766M198.42766 198.42766"/>
<path transform="matrix(1.00005,0,0,-1.00002,33.550928,209.19295)" stroke-width=".79701" stroke-linecap="butt" stroke-miterlimit="10" stroke-linejoin="miter" fill="none" stroke="#000000" d="M0 0H197.63065"/>
<path transform="matrix(1.00005,0,0,-1.00002,231.58997,209.19295)" stroke-width=".79701" stroke-linecap="round" stroke-linejoin="round" fill="none" stroke="#000000" d="M-2.55046 3.11095C-2.0845 1.24435-1.04614 .36295 0 0-1.04614-.36295-2.0845-1.24435-2.55046-3.11095"/>
<path transform="matrix(1.00005,0,0,-1.00002,33.550928,209.19295)" stroke-width=".79701" stroke-linecap="butt" stroke-miterlimit="10" stroke-linejoin="miter" fill="none" stroke="#000000" d="M0 0V197.63065"/>
<path transform="matrix(0,-1.00002,-1.00005,-0,33.550928,11.159821)" stroke-width=".79701" stroke-linecap="round" stroke-linejoin="round" fill="none" stroke="#000000" d="M-2.55046 3.11095C-2.0845 1.24435-1.04614 .36295 0 0-1.04614-.36295-2.0845-1.24435-2.55046-3.11095"/>
<use data-text="W" xlink:href="#font_1_113" transform="matrix(6.9741489,0,0,-6.97394,97.388118,240.62158)"/>
<use data-text="a" xlink:href="#font_1_28" transform="matrix(6.9741489,0,0,-6.97394,104.77374,240.62158)"/>
<use data-text="t" xlink:href="#font_1_105" transform="matrix(6.9741489,0,0,-6.97394,108.742038,240.62158)"/>
<use data-text="e" xlink:href="#font_1_50" transform="matrix(6.9741489,0,0,-6.97394,111.85251,240.62158)"/>
<use data-text="r" xlink:href="#font_1_96" transform="matrix(6.9741489,0,0,-6.97394,115.395389,240.62158)"/>
<use data-text="C" xlink:href="#font_1_42" transform="matrix(6.9741489,0,0,-6.97394,121.18393,240.62158)"/>
<use data-text="o" xlink:href="#font_1_81" transform="matrix(6.9741489,0,0,-6.97394,126.87485,240.62158)"/>
<use data-text="n" xlink:href="#font_1_77" transform="matrix(6.9741489,0,0,-6.97394,130.84314,240.62158)"/>
<use data-text="s" xlink:href="#font_1_98" transform="matrix(6.9741489,0,0,-6.97394,135.24382,240.62158)"/>
<use data-text="u" xlink:href="#font_1_109" transform="matrix(6.9741489,0,0,-6.97394,138.4031,240.62158)"/>
<use data-text="m" xlink:href="#font_1_75" transform="matrix(6.9741489,0,0,-6.97394,142.8038,240.62158)"/>
<use data-text="p" xlink:href="#font_1_84" transform="matrix(6.9741489,0,0,-6.97394,149.35253,240.62158)"/>
<use data-text="t" xlink:href="#font_1_105" transform="matrix(6.9741489,0,0,-6.97394,153.75322,240.62158)"/>
<use data-text="i" xlink:href="#font_1_66" transform="matrix(6.9741489,0,0,-6.97394,156.8637,240.62158)"/>
<use data-text="o" xlink:href="#font_1_81" transform="matrix(6.9741489,0,0,-6.97394,159.11634,240.62158)"/>
<use data-text="n" xlink:href="#font_1_77" transform="matrix(6.9741489,0,0,-6.97394,163.08463,240.62158)"/>
<use data-text="(" xlink:href="#font_1_85" transform="matrix(6.9741489,0,0,-6.97394,170.17035,240.62158)"/>
<use data-text="L" xlink:href="#font_1_71" transform="matrix(6.9741489,0,0,-6.97394,173.28083,240.62158)"/>
<use data-text="i" xlink:href="#font_1_66" transform="matrix(6.9741489,0,0,-6.97394,178.20459,240.62158)"/>
<use data-text="t" xlink:href="#font_1_105" transform="matrix(6.9741489,0,0,-6.97394,180.45723,240.62158)"/>
<use data-text="e" xlink:href="#font_1_50" transform="matrix(6.9741489,0,0,-6.97394,183.5677,240.62158)"/>
<use data-text="r" xlink:href="#font_1_96" transform="matrix(6.9741489,0,0,-6.97394,187.11058,240.62158)"/>
<use data-text="s" xlink:href="#font_1_98" transform="matrix(6.9741489,0,0,-6.97394,190.22106,240.62158)"/>
<use data-text=")" xlink:href="#font_1_86" transform="matrix(6.9741489,0,0,-6.97394,193.38034,240.62158)"/>
<use data-text="F" xlink:href="#font_2_54" transform="matrix(0,-7.9702599,-7.970498,-0,7.1946108,128.51433)"/>
<use data-text="r" xlink:href="#font_2_96" transform="matrix(0,-7.9702599,-7.970498,-0,7.1946108,123.70029)"/>
<use data-text="e" xlink:href="#font_2_50" transform="matrix(0,-7.9702599,-7.970498,-0,7.1946108,120.400608)"/>
<use data-text="q" xlink:href="#font_2_91" transform="matrix(0,-7.9702599,-7.970498,-0,7.1946108,116.63864)"/>
<use data-text="u" xlink:href="#font_2_109" transform="matrix(0,-7.9702599,-7.970498,-0,7.1946108,112.16733)"/>
<use data-text="e" xlink:href="#font_2_50" transform="matrix(0,-7.9702599,-7.970498,-0,7.1946108,107.464878)"/>
<use data-text="n" xlink:href="#font_2_77" transform="matrix(0,-7.9702599,-7.970498,-0,7.1946108,103.70291)"/>
<use data-text="c" xlink:href="#font_2_43" transform="matrix(0,-7.9702599,-7.970498,-0,7.1946108,99.00046)"/>
<use data-text="y" xlink:href="#font_2_118" transform="matrix(0,-7.9702599,-7.970498,-0,7.1946108,95.238498)"/>
<use data-text="(" xlink:href="#font_2_85" transform="matrix(0,-7.9702599,-7.970498,-0,7.1946108,87.953678)"/>
<use data-text="D" xlink:href="#font_2_46" transform="matrix(0,-7.9702599,-7.970498,-0,7.1946108,84.66196)"/>
<use data-text="a" xlink:href="#font_2_28" transform="matrix(0,-7.9702599,-7.970498,-0,7.1946108,78.198078)"/>
<use data-text="y" xlink:href="#font_2_118" transform="matrix(0,-7.9702599,-7.970498,-0,7.1946108,74.19702)"/>
<use data-text="s" xlink:href="#font_2_98" transform="matrix(0,-7.9702599,-7.970498,-0,7.1946108,69.72571)"/>
<use data-text=")" xlink:href="#font_2_86" transform="matrix(0,-7.9702599,-7.970498,-0,7.1946108,66.38617)"/>
<use data-text="2" xlink:href="#font_3_107" transform="matrix(9.963098,0,0,-9.962799,56.91709,219.34815)"/>
<use data-text="0" xlink:href="#font_3_121" transform="matrix(9.963098,0,0,-9.962799,61.898645,219.34815)"/>
<use data-text="2" xlink:href="#font_3_107" transform="matrix(9.963098,0,0,-9.962799,85.26551,219.34815)"/>
<use data-text="5" xlink:href="#font_3_56" transform="matrix(9.963098,0,0,-9.962799,90.24706,219.34815)"/>
<use data-text="3" xlink:href="#font_3_106" transform="matrix(9.963098,0,0,-9.962799,113.61392,219.34815)"/>
<use data-text="0" xlink:href="#font_3_121" transform="matrix(9.963098,0,0,-9.962799,118.595478,219.34815)"/>
<use data-text="3" xlink:href="#font_3_106" transform="matrix(9.963098,0,0,-9.962799,141.96234,219.34815)"/>
<use data-text="5" xlink:href="#font_3_56" transform="matrix(9.963098,0,0,-9.962799,146.9439,219.34815)"/>
<use data-text="4" xlink:href="#font_3_57" transform="matrix(9.963098,0,0,-9.962799,170.31076,219.45816)"/>
<use data-text="0" xlink:href="#font_3_121" transform="matrix(9.963098,0,0,-9.962799,175.29233,219.45816)"/>
<use data-text="1" xlink:href="#font_3_82" transform="matrix(9.963098,0,0,-9.962799,25.0495,184.16345)"/>
<use data-text="2" xlink:href="#font_3_107" transform="matrix(9.963098,0,0,-9.962799,25.0495,155.81589)"/>
<use data-text="3" xlink:href="#font_3_106" transform="matrix(9.963098,0,0,-9.962799,25.0495,127.35931)"/>
<use data-text="4" xlink:href="#font_3_57" transform="matrix(9.963098,0,0,-9.962799,25.0495,99.17574)"/>
<use data-text="5" xlink:href="#font_3_56" transform="matrix(9.963098,0,0,-9.962799,25.0495,70.66417)"/>
<use data-text="6" xlink:href="#font_3_101" transform="matrix(9.963098,0,0,-9.962799,25.0495,42.316606)"/>
<path transform="matrix(1.00005,0,0,-1.00002,33.550928,209.19295)" d="M28.3468 0V56.69362H56.69362V0ZM56.69362 56.69362" fill="#6666ff"/>
<path transform="matrix(1.00005,0,0,-1.00002,33.550928,209.19295)" stroke-width=".3985" stroke-linecap="butt" stroke-miterlimit="10" stroke-linejoin="miter" fill="none" stroke="#000000" d="M28.3468 0V56.69362H56.69362V0ZM56.69362 56.69362"/>
<path transform="matrix(1.00005,0,0,-1.00002,33.550928,209.19295)" d="M56.69362 0V113.38724H85.04042V0ZM85.04042 113.38724" fill="#6666ff"/>
<path transform="matrix(1.00005,0,0,-1.00002,33.550928,209.19295)" stroke-width=".3985" stroke-linecap="butt" stroke-miterlimit="10" stroke-linejoin="miter" fill="none" stroke="#000000" d="M56.69362 0V113.38724H85.04042V0ZM85.04042 113.38724"/>
<path transform="matrix(1.00005,0,0,-1.00002,33.550928,209.19295)" d="M85.04042 0V170.08086H113.38724V0ZM113.38724 170.08086" fill="#6666ff"/>
<path transform="matrix(1.00005,0,0,-1.00002,33.550928,209.19295)" stroke-width=".3985" stroke-linecap="butt" stroke-miterlimit="10" stroke-linejoin="miter" fill="none" stroke="#000000" d="M85.04042 0V170.08086H113.38724V0ZM113.38724 170.08086"/>
<path transform="matrix(1.00005,0,0,-1.00002,33.550928,209.19295)" d="M113.38724 0V141.73404H141.73404V0ZM141.73404 141.73404" fill="#6666ff"/>
<path transform="matrix(1.00005,0,0,-1.00002,33.550928,209.19295)" stroke-width=".3985" stroke-linecap="butt" stroke-miterlimit="10" stroke-linejoin="miter" fill="none" stroke="#000000" d="M113.38724 0V141.73404H141.73404V0ZM141.73404 141.73404"/>
<path transform="matrix(1.00005,0,0,-1.00002,33.550928,209.19295)" d="M141.73404 0V85.04042H170.08086V0ZM170.08086 85.04042" fill="#6666ff"/>
<path transform="matrix(1.00005,0,0,-1.00002,33.550928,209.19295)" stroke-width=".3985" stroke-linecap="butt" stroke-miterlimit="10" stroke-linejoin="miter" fill="none" stroke="#000000" d="M141.73404 0V85.04042H170.08086V0ZM170.08086 85.04042"/>
<use data-text="D" xlink:href="#font_1_46" transform="matrix(6.9741489,0,0,-6.97394,41.919343,5.818878)"/>
<use data-text="a" xlink:href="#font_1_28" transform="matrix(6.9741489,0,0,-6.97394,47.917108,5.818878)"/>
<use data-text="i" xlink:href="#font_1_66" transform="matrix(6.9741489,0,0,-6.97394,51.8854,5.818878)"/>
<use data-text="l" xlink:href="#font_1_72" transform="matrix(6.9741489,0,0,-6.97394,54.13804,5.818878)"/>
<use data-text="y" xlink:href="#font_1_118" transform="matrix(6.9741489,0,0,-6.97394,56.39068,5.818878)"/>
<use data-text="H" xlink:href="#font_1_62" transform="matrix(6.9741489,0,0,-6.97394,63.253244,5.818878)"/>
<use data-text="o" xlink:href="#font_1_81" transform="matrix(6.9741489,0,0,-6.97394,69.13244,5.818878)"/>
<use data-text="u" xlink:href="#font_1_109" transform="matrix(6.9741489,0,0,-6.97394,73.10073,5.818878)"/>
<use data-text="s" xlink:href="#font_1_98" transform="matrix(6.9741489,0,0,-6.97394,77.50143,5.818878)"/>
<use data-text="e" xlink:href="#font_1_50" transform="matrix(6.9741489,0,0,-6.97394,80.66071,5.818878)"/>
<use data-text="h" xlink:href="#font_1_63" transform="matrix(6.9741489,0,0,-6.97394,84.203578,5.818878)"/>
<use data-text="o" xlink:href="#font_1_81" transform="matrix(6.9741489,0,0,-6.97394,88.60427,5.818878)"/>
<use data-text="l" xlink:href="#font_1_72" transform="matrix(6.9741489,0,0,-6.97394,92.57256,5.818878)"/>
<use data-text="d" xlink:href="#font_1_47" transform="matrix(6.9741489,0,0,-6.97394,94.8252,5.818878)"/>
<use data-text="W" xlink:href="#font_1_113" transform="matrix(6.9741489,0,0,-6.97394,101.91093,5.818878)"/>
<use data-text="a" xlink:href="#font_1_28" transform="matrix(6.9741489,0,0,-6.97394,109.303539,5.818878)"/>
<use data-text="t" xlink:href="#font_1_105" transform="matrix(6.9741489,0,0,-6.97394,113.27183,5.818878)"/>
<use data-text="e" xlink:href="#font_1_50" transform="matrix(6.9741489,0,0,-6.97394,116.3823,5.818878)"/>
<use data-text="r" xlink:href="#font_1_96" transform="matrix(6.9741489,0,0,-6.97394,119.92516,5.818878)"/>
<use data-text="C" xlink:href="#font_1_42" transform="matrix(6.9741489,0,0,-6.97394,125.71371,5.818878)"/>
<use data-text="o" xlink:href="#font_1_81" transform="matrix(6.9741489,0,0,-6.97394,131.40464,5.818878)"/>
<use data-text="n" xlink:href="#font_1_77" transform="matrix(6.9741489,0,0,-6.97394,135.37293,5.818878)"/>
<use data-text="s" xlink:href="#font_1_98" transform="matrix(6.9741489,0,0,-6.97394,139.77359,5.818878)"/>
<use data-text="u" xlink:href="#font_1_109" transform="matrix(6.9741489,0,0,-6.97394,142.93289,5.818878)"/>
<use data-text="m" xlink:href="#font_1_75" transform="matrix(6.9741489,0,0,-6.97394,147.33359,5.818878)"/>
<use data-text="p" xlink:href="#font_1_84" transform="matrix(6.9741489,0,0,-6.97394,153.88233,5.818878)"/>
<use data-text="t" xlink:href="#font_1_105" transform="matrix(6.9741489,0,0,-6.97394,158.28299,5.818878)"/>
<use data-text="i" xlink:href="#font_1_66" transform="matrix(6.9741489,0,0,-6.97394,161.39347,5.818878)"/>
<use data-text="o" xlink:href="#font_1_81" transform="matrix(6.9741489,0,0,-6.97394,163.64612,5.818878)"/>
<use data-text="n" xlink:href="#font_1_77" transform="matrix(6.9741489,0,0,-6.97394,167.61441,5.818878)"/>
<use data-text="O" xlink:href="#font_1_80" transform="matrix(6.9741489,0,0,-6.97394,174.70014,5.818878)"/>
<use data-text="v" xlink:href="#font_1_112" transform="matrix(6.9741489,0,0,-6.97394,180.82343,5.818878)"/>
<use data-text="e" xlink:href="#font_1_50" transform="matrix(6.9741489,0,0,-6.97394,184.79868,5.818878)"/>
<use data-text="r" xlink:href="#font_1_96" transform="matrix(6.9741489,0,0,-6.97394,188.34156,5.818878)"/>
<use data-text="a" xlink:href="#font_1_28" transform="matrix(6.9741489,0,0,-6.97394,194.1301,5.818878)"/>
<use data-text="M" xlink:href="#font_1_74" transform="matrix(6.9741489,0,0,-6.97394,200.78342,5.818878)"/>
<use data-text="o" xlink:href="#font_1_81" transform="matrix(6.9741489,0,0,-6.97394,207.95285,5.818878)"/>
<use data-text="n" xlink:href="#font_1_77" transform="matrix(6.9741489,0,0,-6.97394,211.92111,5.818878)"/>
<use data-text="t" xlink:href="#font_1_105" transform="matrix(6.9741489,0,0,-6.97394,216.11258,5.818878)"/>
<use data-text="h" xlink:href="#font_1_63" transform="matrix(6.9741489,0,0,-6.97394,219.22306,5.818878)"/>
</svg>
