<svg xmlns="http://www.w3.org/2000/svg" xmlns:xlink="http://www.w3.org/1999/xlink" xmlns:inkscape="http://www.inkscape.org/namespaces/inkscape" version="1.1" width="376" height="359" viewBox="0 0 376 359">
<defs>
<path id="font_1_82" d="M.4189911 0V.0309906H.3869934C.29699708 .0309906 .2939911 .041992189 .2939911 .07902527V.64012148C.2939911 .6640167 .2939911 .6660156 .2709961 .6660156 .20899964 .60227969 .12098694 .60227969 .08898926 .60227969V.57128909C.10899353 .57128909 .16799927 .57128909 .21998596 .5972748V.07902527C.21998596 .042999269 .21699524 .0309906 .1269989 .0309906H.09498596V0C.12998963 .0029907227 .21699524 .0029907227 .25698854 .0029907227 .29699708 .0029907227 .38398744 .0029907227 .4189911 0Z"/>
<path id="font_1_121" d="M.45999146 .31976319C.45999146 .39982606 .45498658 .47988893 .41999818 .5539398 .37399293 .65000918 .2919922 .6660156 .25 .6660156 .18998719 .6660156 .116989139 .64001467 .07598877 .54693606 .04399109 .47789 .038986207 .39982606 .038986207 .31976319 .038986207 .24472046 .042999269 .15464783 .083999637 .07859802 .1269989-.0024719239 .19999695-.022460938 .24899292-.022460938 .30299378-.022460938 .3789978-.0014648438 .4229889 .09359741 .45498658 .16265869 .45999146 .2407074 .45999146 .31976319M.3769989 .3317871C.3769989 .25672914 .3769989 .18867493 .3659973 .12461853 .35099793 .029556275 .2939911-.00047302247 .24899292-.00047302247 .20999146-.00047302247 .15098572 .024551392 .1329956 .12062073 .12199402 .18066406 .12199402 .2727356 .12199402 .3317871 .12199402 .39582826 .12199402 .46188355 .12998963 .5159149 .14898682 .63500979 .22399903 .64401248 .24899292 .64401248 .28199769 .64401248 .34799195 .6259918 .36698915 .52693179 .3769989 .47088624 .3769989 .39482118 .3769989 .3317871Z"/>
<path id="font_1_107" d="M.44898988 .17396546H.42399598C.4189911 .14398194 .4119873 .099990848 .4019928 .084991458 .394989 .07699585 .32899476 .07699585 .30699159 .07699585H.1269989L.23298645 .17996216C.3889923 .31803895 .44898988 .37210084 .44898988 .47216798 .44898988 .5860901 .35899354 .6660156 .23699951 .6660156 .12399292 .6660156 .049987794 .57411196 .049987794 .48516847 .049987794 .4291687 .099990848 .4291687 .102996829 .4291687 .11999512 .4291687 .15499878 .44117738 .15499878 .48217774 .15499878 .5081787 .13699341 .5341797 .101989749 .5341797 .09399414 .5341797 .09199524 .5341797 .08898926 .5331726 .11199951 .59806826 .1659851 .63500979 .22399903 .63500979 .31498719 .63500979 .35798646 .5541382 .35798646 .47216798 .35798646 .39196778 .30799867 .31297303 .25299073 .25097657L.06098938 .036987306C.049987794 .025985718 .049987794 .023986817 .049987794 0H.42099L.44898988 .17396546Z"/>
<path id="font_1_106" d="M.45700074 .17037964C.45700074 .252594 .3939972 .33088685 .2899933 .35191346 .37199403 .37893678 .42999269 .4490509 .42999269 .52809146 .42999269 .6100464 .34199525 .6660156 .24598694 .6660156 .14498902 .6660156 .068984989 .60606387 .068984989 .53009036 .068984989 .49710084 .09098816 .47808839 .11999512 .47808839 .15098572 .47808839 .17098999 .50009158 .17098999 .5290985 .17098999 .57910159 .12399292 .57910159 .10899353 .57910159 .13999939 .62802127 .20599365 .64100649 .24198914 .64100649 .2829895 .64100649 .33799745 .6190338 .33799745 .5290985 .33799745 .51708987 .33599855 .45906068 .30999757 .4149933 .27999879 .36691285 .24598694 .36390687 .22099304 .36291505 .21299744 .36190797 .18899536 .35990907 .18199158 .35990907 .17399597 .35890199 .16699219 .35791017 .16699219 .3479004 .16699219 .33691407 .17399597 .33691407 .19099427 .33691407H.23498535C.31698609 .33691407 .35398866 .2686615 .35398866 .17037964 .35398866 .034469606 .2849884 .0055389406 .24099732 .0055389406 .19799805 .0055389406 .12298584 .022491456 .08799744 .08137512 .12298584 .07637024 .1539917 .09837341 .1539917 .1363678 .1539917 .17237854 .1269989 .19238281 .09799194 .19238281 .07398987 .19238281 .041992189 .17837525 .041992189 .1343689 .041992189 .043441774 .1349945-.022460938 .24398804-.022460938 .3659973-.022460938 .45700074 .06838989 .45700074 .17037964Z"/>
<path id="font_1_57" d="M.47099305 .16503906V.19602967H.37098695V.6507721C.37098695 .6707611 .37098695 .6767578 .35499574 .6767578 .34599305 .6767578 .34298707 .6767578 .33499146 .6647644L.027999878 .19602967V.16503906H.2939911V.07800293C.2939911 .041992189 .2919922 .0309906 .21798706 .0309906H.19699097V0C.23799134 .0029907227 .2899933 .0029907227 .33198548 .0029907227 .37399293 .0029907227 .4269867 .0029907227 .46798707 0V.0309906H.44699098C.37298585 .0309906 .37098695 .041992189 .37098695 .07800293V.16503906H.47099305M.2999878 .19602967H.055999757L.2999878 .56881716V.19602967Z"/>
<path id="font_1_56" d="M.44898988 .20091248C.44898988 .31991578 .36698915 .41992188 .25898744 .41992188 .21099854 .41992188 .16799927 .4039154 .13198853 .36891175V.5641022C.1519928 .55778506 .18499756 .55078127 .21699524 .55078127 .33999635 .55078127 .4099884 .6418457 .4099884 .65493777 .4099884 .6609802 .40699769 .6660156 .3999939 .6660156 .3999939 .66607668 .39698792 .66607668 .3919983 .66308596 .37199403 .65408328 .32299806 .63378909 .2559967 .63378909 .21598816 .63409426 .16999817 .641098 .12298584 .6621094 .114990238 .6651001 .11099243 .6651001 .11099243 .6651001 .100997928 .66508486 .100997928 .657074 .100997928 .64108279V.3447113C.100997928 .3266449 .100997928 .31861878 .114990238 .31861878 .12199402 .31861878 .12399292 .32164 .12799073 .32765199 .13899231 .34371949 .17599488 .3979187 .25698854 .3979187 .30899049 .3979187 .33399964 .3517456 .34199525 .3336792 .35798646 .2965393 .3600006 .2574005 .3600006 .20721436 .3600006 .17218018 .3600006 .112197879 .33599855 .07032776 .31199647 .031448366 .2749939 .0055389406 .22898865 .0055389406 .1559906 .0055389406 .09899902 .05836487 .08198547 .1171875 .084991458 .11685181 .08799744 .115859989 .09899902 .115859989 .13198853 .115859989 .14898682 .14085388 .14898682 .16485596 .14898682 .18885803 .13198853 .21386719 .09899902 .21386719 .084991458 .21386719 .049987794 .2068634 .049987794 .16085816 .049987794 .07432556 .11898804-.022460938 .23098755-.022460938 .34700013-.022460938 .44898988 .07331848 .44898988 .20019531V.20091248Z"/>
<path id="font_1_101" d="M.45700074 .2036438C.45700074 .33070375 .36799623 .4267578 .25698854 .4267578 .18899536 .4267578 .1519928 .37573243 .13198853 .327713V.35173036C.13198853 .6047821 .2559967 .64100649 .30699159 .64100649 .33099366 .64100649 .37298585 .634964 .394989 .6007538 .37998963 .6007538 .33999635 .6007538 .33999635 .5557556 .33999635 .524765 .3639984 .5097656 .38598634 .5097656 .4019928 .5097656 .43199159 .51875308 .43199159 .5577545 .43199159 .6178589 .3880005 .6660156 .30499269 .6660156 .1769867 .6660156 .041992189 .5367584 .041992189 .31570436 .041992189 .048553468 .1579895-.022460938 .25099183-.022460938 .3619995-.022460938 .45700074 .07156372 .45700074 .2036438M.36698915 .20463562C.36698915 .15661621 .36698915 .10658264 .34999085 .0705719 .31999208 .010528564 .27398683 .0055389406 .25099183 .0055389406 .18798828 .0055389406 .1579895 .06556702 .1519928 .080566409 .13398743 .127594 .13398743 .2076416 .13398743 .22564698 .13398743 .30369569 .1659851 .40374757 .2559967 .40374757 .27198792 .40374757 .31799317 .40374757 .34899903 .34172059 .36698915 .30470277 .36698915 .2536621 .36698915 .20463562Z"/>
<path id="font_1_100" d="M.4850006 .6435547H.24198914C.11999512 .6435547 .117996219 .6566467 .11399841 .67578127H.08898926L.055999757 .46954347H.08099365C.083999637 .48554994 .09298706 .54855349 .10598755 .5605469 .11299133 .5665436 .19099427 .5665436 .20399475 .5665436H.41099549L.29899598 .40853883C.20899964 .2735443 .17599488 .13453675 .17599488 .03253174 .17599488 .022537232 .17599488-.022460938 .22200012-.022460938 .2679901-.022460938 .2679901 .022537232 .2679901 .03253174V.08354187C.2679901 .13853455 .2709961 .19354248 .2789917 .24754334 .2829895 .27053834 .29699708 .35653688 .34098817 .41854859L.47599793 .608551C.4850006 .62054446 .4850006 .62254336 .4850006 .6435547Z"/>
<path id="font_1_51" d="M.45700074 .16764832C.45700074 .20367432 .44599916 .24871826 .4079895 .29074098 .3889923 .31176759 .37298585 .32176209 .30899049 .36180116 .3809967 .39881898 .42999269 .4508667 .42999269 .51690676 .42999269 .6089783 .34098817 .6660156 .25 .6660156 .1499939 .6660156 .068984989 .5919647 .068984989 .49890138 .068984989 .48088075 .070999149 .43585206 .11299133 .38882447 .12399292 .3768158 .16099549 .35179139 .18598938 .33477784 .12799073 .30575563 .041992189 .24971009 .041992189 .15063477 .041992189 .044555665 .14399719-.022460938 .24899292-.022460938 .3619995-.022460938 .45700074 .060577394 .45700074 .16764832M.38598634 .51690676C.38598634 .45986939 .34700013 .41183473 .2869873 .3768158L.16299439 .4568634C.116989139 .4868927 .11299133 .5209198 .11299133 .53793337 .11299133 .5989685 .17799378 .64100649 .24899292 .64100649 .32199098 .64100649 .38598634 .588974 .38598634 .51690676M.40699769 .13162232C.40699769 .05757141 .33198548 .0055389406 .25 .0055389406 .1639862 .0055389406 .09199524 .06758118 .09199524 .15063477 .09199524 .2086792 .12399292 .2727356 .20899964 .31976319L.33198548 .24171448C.3600006 .22268677 .40699769 .19267273 .40699769 .13162232Z"/>
<path id="font_1_78" d="M.45700074 .32888795C.45700074 .598114 .34199525 .6660156 .25299073 .6660156 .19799805 .6660156 .14898682 .64801028 .10598755 .6031189 .06498718 .5580902 .041992189 .5160217 .041992189 .44091798 .041992189 .3158722 .12998963 .21777344 .24198914 .21777344 .30299378 .21777344 .34399415 .25979615 .36698915 .3178711V.28582765C.36698915 .05178833 .2630005 .0055389406 .20498657 .0055389406 .18798828 .0055389406 .13398743 .007537842 .10699463 .041778566 .15098572 .041778566 .15899658 .07078552 .15899658 .08778381 .15899658 .118774417 .1349945 .13378906 .11299133 .13378906 .09700012 .13378906 .066986087 .12478638 .066986087 .08578491 .066986087 .018615723 .12098694-.022460938 .20599365-.022460938 .33499146-.022460938 .45700074 .11378479 .45700074 .32888795M.36499024 .42089845C.36499024 .33789063 .33099366 .24076844 .24299622 .24076844 .22698975 .2407074 .18099976 .2407074 .1499939 .30371095 .13198853 .34072877 .13198853 .3908081 .13198853 .43988038 .13198853 .49397279 .13198853 .5410614 .15299988 .578125 .17999268 .62805178 .21798706 .64100649 .25299073 .64100649 .29899598 .64100649 .33198548 .60710147 .34899903 .562088 .36099244 .52989199 .36499024 .46688844 .36499024 .42089845Z"/>
<path id="font_1_97" d="M.49899293 .18579102C.49899293 .2858429 .43299867 .36791993 .34899903 .38793946L.22099304 .4189453C.15899658 .43388368 .11999512 .48773194 .11999512 .5458069 .11999512 .61595156 .17399597 .677063 .2519989 .677063 .4189911 .677063 .44099427 .5127411 .44699098 .46777345 .44799806 .461792 .44799806 .45581056 .45899964 .45581056 .47200013 .45581056 .47200013 .46080018 .47200013 .47973634V.68107607C.47200013 .69807437 .47200013 .7050781 .46099855 .7050781 .45399476 .7050781 .45298768 .70407107 .44599916 .69207766L.41099549 .63497927C.3809967 .66404727 .33999635 .7050781 .25099183 .7050781 .13999939 .7050781 .055999757 .61694338 .055999757 .5107422 .055999757 .42790223 .10899353 .35490418 .18699646 .32788087 .19799805 .32388307 .24899292 .3118744 .31900025 .29486085 .34599305 .28785707 .37599183 .280838 .4039917 .24382019 .4249878 .2177887 .43499757 .18478394 .43499757 .1517334 .43499757 .0806427 .3849945 .008529663 .30099488 .008529663 .27198792 .008529663 .19599915 .013534546 .14299011 .06260681 .084991458 .11668396 .08198547 .18078614 .08099365 .21679688 .07998657 .22679138 .07199097 .22679138 .068984989 .22679138 .055999757 .22679138 .055999757 .2197876 .055999757 .20178223V.0015258789C.055999757-.015472412 .055999757-.022460938 .066986087-.022460938 .07398987-.022460938 .07499695-.020462037 .08198547-.009475708 .08198547-.009475708 .084991458-.0054626467 .117996219 .047592164 .14898682 .013534546 .21299744-.022460938 .3019867-.022460938 .4189911-.022460938 .49899293 .07562256 .49899293 .18579102Z"/>
<path id="font_1_84" d="M.5209961 .21636963C.5209961 .34336854 .42399598 .4423828 .31199647 .4423828 .23399353 .4423828 .19198609 .39837647 .17199707 .3763733V.4423828L.027999878 .43066407V.3996582C.09899902 .3996582 .10598755 .3936615 .10598755 .34973146V-.117996219C.10598755-.16308594 .09498596-.16308594 .027999878-.16308594V-.1940918L.13999939-.19110108 .25299073-.1940918V-.16308594C.18598938-.16308594 .1749878-.16308594 .1749878-.117996219V.050186159 .059173585C.17999268 .04319763 .22200012-.0107421879 .2979889-.0107421879 .4169922-.0107421879 .5209961 .087127689 .5209961 .21594239V.21636963M.43798829 .21594239C.43798829 .09512329 .36799623 .011245728 .2939911 .011245728 .2539978 .011245728 .21598816 .031219483 .18899536 .07215881 .1749878 .09312439 .1749878 .09411621 .1749878 .114089969V.33674623C.20399475 .38838197 .25299073 .41737367 .3039856 .41737367 .3769989 .41737367 .43798829 .32937623 .43798829 .21636963V.21594239Z"/>
<path id="font_1_50" d="M.4149933 .11933899C.4149933 .12934876 .40699769 .13134766 .4019928 .13134766 .3929901 .13134766 .3909912 .12535095 .3889923 .11734009 .35398866 .014251709 .2639923 .014251709 .2539978 .014251709 .20399475 .014251709 .1639862 .044281007 .14099121 .08131409 .11099243 .12934876 .11099243 .19540406 .11099243 .23144531H.3899994C.4119873 .23144531 .4149933 .23144531 .4149933 .2524414 .4149933 .35131837 .36099244 .4482422 .23599243 .4482422 .11999512 .4482422 .027999878 .34532167 .027999878 .22042847 .027999878 .08631897 .1329956-.0107421879 .24798584-.0107421879 .36999513-.0107421879 .4149933 .10032654 .4149933 .11933899M.34899903 .2524414H.11199951C.117996219 .40126039 .20199585 .426239 .23599243 .426239 .33898927 .426239 .34899903 .2913971 .34899903 .2524414Z"/>
<path id="font_1_47" d="M.5269928 0V.0309906C.45700074 .0309906 .44898988 .038009645 .44898988 .0871582V.69433596L.30499269 .6826172V.6516113C.375 .6516113 .3829956 .64463809 .3829956 .59580996V.38035584C.35398866 .41636659 .31098939 .4423828 .25698854 .4423828 .13899231 .4423828 .033996583 .3443451 .033996583 .21531677 .033996583 .088272098 .13198853-.0107421879 .24598694-.0107421879 .30999757-.0107421879 .35499574 .023254395 .37998963 .055267335V-.0107421879L.5269928 0M.37998963 .117996219C.37998963 .099990848 .37998963 .09799194 .36898805 .08099365 .33898927 .033218385 .2939911 .011245728 .25099183 .011245728 .20599365 .011245728 .16999817 .037216188 .1459961 .075164798 .11999512 .1161499 .116989139 .17320252 .116989139 .21421814 .116989139 .25125123 .11898804 .31129457 .147995 .35632325 .16899109 .38734437 .20698548 .42037965 .26098634 .42037965 .29599 .42037965 .33799745 .405365 .36898805 .3603363 .37998963 .34332276 .37998963 .34132386 .37998963 .32330323V.117996219Z"/>
<path id="font_1_85" d="M.33099366-.2400055C.33099366-.23701477 .33099366-.23500061 .31399537-.21800232 .18899536-.0920105 .15699768 .09700012 .15699768 .25 .15699768 .42399598 .19499207 .59799197 .31799317 .72299197 .33099366 .7350006 .33099366 .7369995 .33099366 .73999026 .33099366 .746994 .32699586 .75 .32099916 .75 .31098939 .75 .22099304 .6819916 .1619873 .5549927 .11099243 .44499208 .09899902 .33399964 .09899902 .25 .09899902 .17199707 .10998535 .050994874 .16499329-.06201172 .22499085-.18501282 .31098939-.25 .32099916-.25 .32699586-.25 .33099366-.24700928 .33099366-.2400055Z"/>
<path id="font_1_70" d="M.5109863 0V.0309906C.47399903 .0309906 .45199586 .0309906 .4139862 .0839386L.2869873 .26278688C.28599549 .26478578 .2809906 .2707672 .2809906 .2737732 .2809906 .277771 .35198976 .33770753 .3619995 .34570313 .4249878 .39666749 .46699525 .39865113 .48799134 .3996582V.43066407C.45899964 .42765809 .44599916 .42765809 .41799928 .42765809 .38198854 .42765809 .31999208 .42965699 .30599977 .43066407V.3996582C.32499696 .39865113 .33499146 .3876648 .33499146 .37467958 .33499146 .3547058 .32099916 .3427124 .31298829 .33570863L.17199707 .21382141V.69433596L.027999878 .6826172V.6516113C.09799194 .6516113 .10598755 .64460757 .10598755 .5956421V.07595825C.10598755 .0309906 .09498596 .0309906 .027999878 .0309906V0L.13699341 .0029907227 .24699402 0V.0309906C.17999268 .0309906 .16899109 .0309906 .16899109 .07595825V.17889405L.23298645 .23387146C.30999757 .12792969 .35198976 .07196045 .35198976 .053985597 .35198976 .034988405 .33499146 .0309906 .31599427 .0309906V0L.42399598 .0029907227C.45298768 .0029907227 .48199464 .0019989014 .5109863 0Z"/>
<path id="font_1_75" d="M.8129883 0V.0309906C.7609863 .0309906 .73599246 .0309906 .7350006 .061019899V.25221253C.7350006 .3383026 .7350006 .36932374 .70399478 .405365 .6899872 .42237855 .6569977 .4423828 .598999 .4423828 .5149994 .4423828 .47099305 .38233949 .45399476 .34429933 .43998719 .43138124 .3659973 .4423828 .32099916 .4423828 .24798584 .4423828 .20098877 .39935304 .17298889 .33729554V.4423828L.03199768 .43066407V.3996582C.101989749 .3996582 .10998535 .39266969 .10998535 .34370423V.07595825C.10998535 .0309906 .09899902 .0309906 .03199768 .0309906V0L.14498902 .0029907227 .25698854 0V.0309906C.18998719 .0309906 .1789856 .0309906 .1789856 .07595825V.25978089C.1789856 .36431886 .25 .42037965 .31399537 .42037965 .3769989 .42037965 .3880005 .36631776 .3880005 .30926515V.076034549C.3880005 .0309906 .3769989 .0309906 .30999757 .0309906V0L.4229889 .0029907227 .5349884 0V.0309906C.46798707 .0309906 .45700074 .0309906 .45700074 .076034549V.2602234C.45700074 .36431886 .5279999 .42037965 .59199526 .42037965 .6549988 .42037965 .66600039 .36631776 .66600039 .30926515V.076034549C.66600039 .0309906 .6549988 .0309906 .58799746 .0309906V0L.70098879 .0029907227 .8129883 0Z"/>
<path id="font_1_102" d="M.44299317 .7299957C.44299317 .7409973 .43399049 .75 .4229889 .75 .40899659 .75 .40499879 .73999026 .4019928 .7299957L.06098938-.21200562C.055999757-.2250061 .055999757-.23001099 .055999757-.23001099 .055999757-.24101258 .06498718-.25 .07598877-.25 .08999634-.25 .09399414-.2400055 .09700012-.23001099L.43798829 .71199038C.44299317 .72499087 .44299317 .7299957 .44299317 .7299957Z"/>
<path id="font_1_63" d="M.5349884 0V.0309906C.48298646 .0309906 .45799256 .0309906 .45700074 .061019899V.25221253C.45700074 .3383026 .45700074 .36932374 .42599488 .405365 .4119873 .42237855 .3789978 .4423828 .32099916 .4423828 .23699951 .4423828 .19299317 .38233949 .1769867 .34629823H.17599488V.69433596L.03199768 .6826172V.6516113C.101989749 .6516113 .10998535 .64463809 .10998535 .59580996V.076034549C.10998535 .0309906 .09899902 .0309906 .03199768 .0309906V0L.14498902 .0029907227 .25698854 0V.0309906C.18998719 .0309906 .1789856 .0309906 .1789856 .076034549V.2602234C.1789856 .36431886 .25 .42037965 .31399537 .42037965 .3769989 .42037965 .3880005 .36631776 .3880005 .30926515V.076034549C.3880005 .0309906 .3769989 .0309906 .30999757 .0309906V0L.4229889 .0029907227 .5349884 0Z"/>
<path id="font_1_86" d="M.2889862 .25C.2889862 .32798768 .27799989 .44898988 .22299195 .56199648 .16299439 .68499758 .07699585 .75 .066986087 .75 .06098938 .75 .056991579 .74598696 .056991579 .73999026 .056991579 .7369995 .056991579 .7350006 .07598877 .71699526 .17399597 .6179962 .23098755 .45899964 .23098755 .25 .23098755 .07899475 .19400025-.09700012 .069992069-.2230072 .056991579-.23500061 .056991579-.23701477 .056991579-.2400055 .056991579-.2460022 .06098938-.25 .066986087-.25 .07699585-.25 .16699219-.18200684 .22599793-.055007936 .2769928 .054992677 .2889862 .16600037 .2889862 .25Z"/>
<path id="font_1_54" d="M.6100006 .45477296 .58200076 .6796875H.032989503V.64868167H.056991579C.13398743 .64868167 .13598633 .63768008 .13598633 .6016998V.07797241C.13598633 .041992189 .13398743 .0309906 .056991579 .0309906H.032989503V0C.067993167 .0029907227 .1459961 .0029907227 .18499756 .0029907227 .22599793 .0029907227 .31698609 .0029907227 .35299684 0V.0309906H.31999208C.22499085 .031188965 .22499085 .044189454 .22499085 .079193118V.3251953H.31098939C.40699769 .3251953 .4169922 .29318238 .4169922 .20819092H.44198609V.4731903H.4169922C.4169922 .38919068 .40699769 .3561859 .31098939 .3561859H.22499085V.6091919C.22499085 .64167788 .22698975 .64868167 .27398683 .64868167H.3939972C.5439911 .64868167 .56900027 .5926819 .58499148 .4546814L.6100006 .45477296Z"/>
<path id="font_1_96" d="M.3639984 .38137818C.3639984 .41337586 .33299256 .4423828 .2899933 .4423828 .21699524 .4423828 .18099976 .37538148 .16699219 .3323822V.4423828L.027999878 .43066407V.3996582C.09799194 .3996582 .10598755 .39266969 .10598755 .34370423V.07595825C.10598755 .0309906 .09498596 .0309906 .027999878 .0309906V0L.14199829 .0029907227C.18199158 .0029907227 .22898865 .0029907227 .2689972 0V.0309906H.24798584C.17399597 .0309906 .17199707 .04197693 .17199707 .07795715V.23181153C.17199707 .33137513 .21398926 .42037965 .2899933 .42037965 .29699708 .42037965 .29899598 .42037965 .30099488 .41937257 .2979889 .41838075 .27799989 .40637208 .27799989 .3803711 .27799989 .35237123 .29899598 .33737184 .32099916 .33737184 .33898927 .33737184 .3639984 .3493805 .3639984 .38137818Z"/>
<path id="font_1_91" d="M.5269928-.1940918V-.16308594C.45999146-.16308594 .44898988-.16308594 .44898988-.117996219V.4423828H.4269867L.3889923 .35136415C.37599183 .379364 .33499146 .4423828 .25498963 .4423828 .13899231 .4423828 .033996583 .34535218 .033996583 .21531677 .033996583 .090270999 .1309967-.0107421879 .24699402-.0107421879 .31698609-.0107421879 .35798646 .03225708 .37998963 .061264039V-.117996219C.37998963-.16308594 .36898805-.16308594 .3019867-.16308594V-.1940918L.4139862-.19110108 .5269928-.1940918M.3829956 .1362915C.3829956 .104278568 .36499024 .07626343 .34298707 .052261354 .32998658 .038253786 .2979889 .011245728 .25099183 .011245728 .17799378 .011245728 .116989139 .10028076 .116989139 .21531677 .116989139 .3343506 .18699646 .41737367 .26098634 .41737367 .34098817 .41737367 .3829956 .33035279 .3829956 .2773285V.1362915Z"/>
<path id="font_1_109" d="M.5349884 0V.0309906C.46499635 .0309906 .45700074 .037994386 .45700074 .08705139V.4423828L.30999757 .43066407V.3996582C.37998963 .3996582 .3880005 .39266969 .3880005 .34373475V.16601563C.3880005 .07910156 .33999635 .011245728 .2669983 .011245728 .18299866 .011245728 .1789856 .058135988 .1789856 .11009216V.4423828L.03199768 .43066407V.3996582C.10998535 .3996582 .10998535 .39666749 .10998535 .3078003V.15802002C.10998535 .080093387 .10998535-.0107421879 .2619934-.0107421879 .31799317-.0107421879 .3619995 .017242432 .3909912 .07910156V-.0107421879L.5349884 0Z"/>
<path id="font_1_77" d="M.5349884 0V.0309906C.48298646 .0309906 .45799256 .0309906 .45700074 .061019899V.25221253C.45700074 .3383026 .45700074 .36932374 .42599488 .405365 .4119873 .42237855 .3789978 .4423828 .32099916 .4423828 .24798584 .4423828 .20098877 .39935304 .17298889 .33729554V.4423828L.03199768 .43066407V.3996582C.101989749 .3996582 .10998535 .39266969 .10998535 .34370423V.07595825C.10998535 .0309906 .09899902 .0309906 .03199768 .0309906V0L.14498902 .0029907227 .25698854 0V.0309906C.18998719 .0309906 .1789856 .0309906 .1789856 .07595825V.25978089C.1789856 .36431886 .25 .42037965 .31399537 .42037965 .3769989 .42037965 .3880005 .36631776 .3880005 .30926515V.076034549C.3880005 .0309906 .3769989 .0309906 .30999757 .0309906V0L.4229889 .0029907227 .5349884 0Z"/>
<path id="font_1_43" d="M.4149933 .119140628C.4149933 .12911988 .40499879 .12911988 .4019928 .12911988 .3929901 .12911988 .3909912 .12512207 .3889923 .119140628 .3600006 .026229859 .29499818 .014251709 .2579956 .014251709 .20498657 .014251709 .116989139 .0572052 .116989139 .21801758 .116989139 .38093568 .19898987 .42323304 .2519989 .42323304 .26098634 .42323304 .32398988 .42222596 .35899354 .38594056 .31799317 .38293458 .31199647 .3529358 .31199647 .3399353 .31199647 .31393434 .32998658 .2939453 .35798646 .2939453 .38398744 .2939453 .4039917 .3109436 .4039917 .34094239 .4039917 .40911866 .32798768 .4482422 .25099183 .4482422 .12599182 .4482422 .033996583 .3399353 .033996583 .21601868 .033996583 .08816528 .1329956-.0107421879 .24899292-.0107421879 .3829956-.0107421879 .4149933 .10914612 .4149933 .119140628Z"/>
<path id="font_1_118" d="M.5079956 .3996582V.43066407C.4850006 .4286499 .45599366 .42765809 .43299867 .42765809L.34599305 .43066407V.3996582C.3769989 .39866639 .3929901 .3816681 .3929901 .35668946 .3929901 .34669496 .3919983 .34469605 .3869934 .33270265L.28599549 .08685303 .1749878 .35568238C.17098999 .36567689 .16899109 .36967469 .16899109 .3736725 .16899109 .3996582 .20599365 .3996582 .22499085 .3996582V.43066407L.115997318 .42765809C.08898926 .42765809 .04899597 .4286499 .018997193 .43066407V.3996582C.066986087 .3996582 .085998538 .3996582 .099990848 .36468507L.25-.000091552738 .22499085-.059066774C.20298767-.11407471 .1749878-.18309021 .11099243-.18309021 .10598755-.18309021 .08299255-.18309021 .06399536-.16503906 .09498596-.16104126 .102996829-.13905335 .102996829-.123046878 .102996829-.0970459 .083999637-.08103943 .06098938-.08103943 .040985109-.08103943 .018997193-.09403992 .018997193-.124053958 .018997193-.16905213 .06098938-.20507813 .11099243-.20507813 .17399597-.20507813 .21499634-.14804077 .23899842-.091049198L.4149933 .33569337C.44099427 .39865113 .49198915 .3996582 .5079956 .3996582Z"/>
<path id="font_2_62" d="M.9069977 0V.051986696H.798996V.6335449H.9069977V.6855469C.86898806 .6825409 .7679901 .6825409 .72499087 .6825409 .68099978 .6825409 .5799866 .6825409 .5419922 .6855469V.6335449H.6499939V.3828125H.3039856V.6335449H.4119873V.6855469C.37399293 .6825409 .272995 .6825409 .22999573 .6825409 .18598938 .6825409 .084991458 .6825409 .04699707 .6855469V.6335449H.15499878V.051986696H.04699707V0C.084991458 .0029907227 .18598938 .0029907227 .22999573 .0029907227 .272995 .0029907227 .37399293 .0029907227 .4119873 0V.051986696H.3039856V.33081056H.6499939V.051986696H.5419922V0C.5799866 .0029907227 .68099978 .0029907227 .72499087 .0029907227 .7679901 .0029907227 .86898806 .0029907227 .9069977 0Z"/>
<path id="font_2_66" d="M.2999878 0V.051986696H.24099732V.45117188L.06199646 .44335938V.39135743C.117996219 .39135743 .125 .39135743 .125 .35331727V.051986696H.05899048V0C.116989139 .0029907227 .12799073 .0029907227 .18099976 .0029907227 .22200012 .0029907227 .25099183 .0029907227 .2999878 0M.25099183 .6053772C.25099183 .6503906 .21299744 .685379 .17098999 .685379 .12599182 .685379 .08999634 .64938357 .08999634 .6053772 .08999634 .560379 .12799073 .5253906 .16999817 .5253906 .21499634 .5253906 .25099183 .5613861 .25099183 .6053772Z"/>
<path id="font_2_98" d="M.44099427 .14112854C.44099427 .18511963 .42099 .21511841 .397995 .2361145 .35398866 .2770996 .3019867 .2850952 .2639923 .29110719 .17298889 .3060913 .117996219 .315094 .117996219 .35908509 .117996219 .41807557 .21499634 .41807557 .23599243 .41807557 .34799195 .41807557 .35299684 .36408998 .35499574 .3360901 .35699464 .32009889 .37098695 .32009889 .3829956 .32009889 .4099884 .32009889 .41099549 .3270874 .41099549 .35108949V.42407228C.41099549 .44306947 .41099549 .45507813 .3889923 .45507813 .3809967 .45507813 .37799073 .45507813 .34399415 .43806459 .3019867 .45507813 .25498963 .45507813 .23799134 .45507813 .20399475 .45507813 .040985109 .45507813 .040985109 .3210907 .040985109 .2761078 .066986087 .24711609 .09199524 .2281189 .13198853 .20011902 .1749878 .19311524 .23999024 .1821289 .2899933 .1741333 .3639984 .16212464 .3639984 .10714722 .3639984 .03715515 .27598573 .03515625 .24499512 .03515625 .14299011 .03515625 .11399841 .09214783 .09799194 .13912964 .09298706 .15612793 .09098816 .15812683 .068984989 .15812683 .040985109 .15812683 .040985109 .15013123 .040985109 .12713623V.024154664C.040985109 .0051574709 .040985109-.0068359377 .06298828-.0068359377 .07199097-.0068359377 .07398987-.0068359377 .09498596 .006149292L.12098694 .023162842C.17098999-.0068359377 .22399903-.0068359377 .24499512-.0068359377 .27598573-.0068359377 .44099427-.0068359377 .44099427 .14112854Z"/>
<path id="font_2_105" d="M.40699769 .12319946V.17422486H.35099793V.12519837C.35099793 .056167604 .31298829 .040161134 .2899933 .040161134 .23199463 .040161134 .23098755 .093185428 .23098755 .12019348V.39233399H.3869934V.44433595H.23098755V.6357422H.1749878C.17399597 .53652957 .12298584 .43632508 .022994996 .43432618V.39233399H.10899353V.12319946C.10899353 .02015686 .18998719-.0068359377 .2749939-.0068359377 .35099793-.0068359377 .40699769 .044158937 .40699769 .12319946Z"/>
<path id="font_2_81" d="M.5779877 .21810913C.5779877 .3440857 .4889984 .45507813 .30599977 .45507813 .12199402 .45507813 .033996583 .3430786 .033996583 .21810913 .033996583 .09913635 .12199402-.0068359377 .30599977-.0068359377 .49198915-.0068359377 .5779877 .10014343 .5779877 .21810913M.44299317 .2301178C.44299317 .14312744 .44299317 .040161134 .30599977 .040161134 .16899109 .040161134 .16899109 .14312744 .16899109 .2301178 .16899109 .312088 .16899109 .41307069 .30599977 .41307069 .44299317 .41307069 .44299317 .3110962 .44299317 .2301178Z"/>
<path id="font_2_59" d="M.59498599 .39317323C.59498599 .42315675 .57199099 .4581604 .5249939 .4581604 .48599244 .4581604 .44099427 .4421692 .4119873 .41915895 .37599183 .4391632 .33499146 .45117188 .27198792 .45117188 .10998535 .45117188 .06098938 .3631897 .06098938 .30223084 .06098938 .24423218 .09498596 .2142334 .11299133 .19824219 .09298706 .17428589 .07998657 .14233399 .07998657 .10932922 .07998657 .072906497 .09498596 .037902833 .12098694 .012908936 .07899475 .0019073486 .033996583-.02609253 .033996583-.07411194 .033996583-.12713623 .09298706-.20214844 .30599977-.20214844 .49499513-.20214844 .5779877-.14215088 .5779877-.071121219 .5779877 .025909424 .5029907 .056900026 .48199464 .06491089 .42799378 .08691406 .36698915 .08691406 .27598573 .08691406H.22399903C.19400025 .08691406 .1749878 .08691406 .1599884 .10015869 .1499939 .1103363 .13699341 .1253357 .13699341 .14933777 .13699341 .15931702 .13999939 .17030335 .14498902 .17727661 .18598938 .15731812 .23498535 .15234375 .27198792 .15234375 .43399049 .15234375 .48298646 .24023438 .48298646 .301239 .48298646 .3551941 .44898988 .3901825 .44299317 .39517213 .46998597 .40916444 .48999024 .4121704 .5039978 .4141693 .5009918 .40815736 .5 .3981781 .5 .39317323 .5 .36488343 .519989 .34475709 .5469971 .34475709 .57398989 .34475709 .59498599 .36488343 .59498599 .3930664V.39317323M.36698915 .3017578C.36698915 .259964 .36698915 .1953125 .27198792 .1953125 .1769867 .1953125 .1769867 .2609558 .1769867 .30075074 .1769867 .34274293 .1769867 .40815736 .27198792 .40815736 .36698915 .40815736 .36698915 .3417511 .36698915 .3017578M.4850006-.07411194C.4850006-.10813904 .44299317-.15914917 .30599977-.15914917 .17399597-.15914917 .1269989-.11112976 .1269989-.07312012 .1269989-.017089844 .19198609-.017089844 .20698548-.017089844H.33399964C.3639984-.017089844 .4850006-.017089844 .4850006-.07411194Z"/>
<path id="font_2_96" d="M.47099305 .36416627C.47099305 .41915895 .4149933 .45117188 .35699464 .45117188 .27198792 .45117188 .23098755 .38116456 .21598816 .34317018L.21499634 .344162V.45117188L.04598999 .44335938V.39135743C.10499573 .39135743 .11199951 .39135743 .11199951 .35231019V.051986696H.04598999V0C.10398865 .0029907227 .11399841 .0029907227 .17399597 .0029907227L.30999757 0V.051986696H.22799683V.2141571C.22799683 .2932434 .25898744 .4063568 .35499574 .40934754 .35499574 .40916444 .33898927 .39216615 .33898927 .36416627 .33898927 .3241577 .36799623 .29815675 .40499879 .29815675 .44198609 .29815675 .47099305 .3251648 .47099305 .36416627Z"/>
<path id="font_2_28" d="M.58898928 .025985718C.58898928 .051986696 .57299807 .051986696 .5589905 .051986696 .49699403 .051986696 .49699403 .06199646 .49699403 .085006717V.29605104C.49699403 .38606263 .4249878 .45507813 .2619934 .45507813 .21299744 .45507813 .069992069 .45507813 .069992069 .35606385 .069992069 .31204225 .10398865 .28804017 .13699341 .28804017 .1769867 .28804017 .20498657 .31704713 .20498657 .35505677 .20498657 .3870697 .18399048 .4060669 .18399048 .4060669 .19198609 .4080658 .22099304 .41307069 .2599945 .41307069 .33999635 .41307069 .375 .36906434 .375 .29704286V.2680359C.22499085 .26704408 .02999878 .23402405 .02999878 .11199951 .02999878 .027160645 .12599182-.0068359377 .23498535-.0068359377 .33799745-.0068359377 .3809967 .04815674 .3939972 .06816101 .3939972 .037994386 .40499879 0 .5019989 0H.5549927C.57398989 0 .58898928 0 .58898928 .025985718M.375 .13699341C.375 .03515625 .25498963 .03515625 .25099183 .03515625 .19898987 .03515625 .1519928 .066207889 .1519928 .11427307 .1519928 .1843872 .24499512 .22746277 .375 .23046875V.13699341Z"/>
<path id="font_2_75" d="M.98999026 0V.051986696H.923996V.3034973C.923996 .42315675 .8509979 .45117188 .7589874 .45117188 .6539917 .45117188 .598999 .39059449 .5779877 .35958863 .55400088 .4371643 .4869995 .45117188 .4189911 .45117188 .2979889 .45117188 .24398804 .3715973 .23199463 .34959413H.23098755V.45117188L.055999757 .44335938V.39135743C.114990238 .39135743 .12199402 .39135743 .12199402 .35231019V.051986696H.055999757V0C.10998535 .0029907227 .14498902 .0029907227 .18299866 .0029907227 .22200012 .0029907227 .2559967 .0029907227 .30999757 0V.051986696H.24398804V.25320436C.24398804 .36413575 .33999635 .40916444 .4039917 .40916444 .43899537 .40916444 .46199037 .39215089 .46199037 .31411744V.051986696H.3959961V0C.44999696 .0029907227 .4850006 .0029907227 .522995 .0029907227 .56199648 .0029907227 .59599307 .0029907227 .6499939 0V.051986696H.58399966V.25308229C.58399966 .36413575 .6799927 .40916444 .74398806 .40916444 .7789917 .40916444 .8019867 .39215089 .8019867 .31411744V.051986696H.73599246V0C.7899933 .0029907227 .82499697 .0029907227 .86299136 .0029907227 .9019928 .0029907227 .9359894 .0029907227 .98999026 0Z"/>
<path id="font_2_55" d="M.46699525 .60920718C.46699525 .6551819 .4269867 .7011719 .34298707 .7011719 .24198914 .7011719 .125 .6601715 .125 .54125979V.44433595H.04598999V.39233399H.125V.051986696H.05899048V0C.116989139 .0029907227 .1269989 .0029907227 .18699646 .0029907227L.32299806 0V.051986696H.24099732V.39233399H.36299134V.44433595H.23498535V.5422516C.23498535 .59721377 .2579956 .6591797 .33999635 .6591797 .34298707 .6591797 .35299684 .6571808 .35299684 .6571808 .35299684 .6571808 .35299684 .6551819 .35099793 .653183 .33999635 .6409912 .33499146 .625 .33499146 .60899356 .33499146 .5649872 .36999513 .54299929 .40098573 .54299929 .43099977 .54299929 .46699525 .5649872 .46699525 .60899356V.60920718Z"/>
<path id="font_2_63" d="M.6499939 0V.051986696H.58399966V.30311585C.58399966 .4251709 .5079956 .45117188 .4189911 .45117188 .31399537 .45117188 .25898744 .39015199 .23799134 .35914613V.69433596L.055999757 .6855469V.6335449C.114990238 .6335449 .12199402 .6335449 .12199402 .5946808V.051986696H.055999757V0C.10998535 .0029907227 .14498902 .0029907227 .18299866 .0029907227 .22200012 .0029907227 .2559967 .0029907227 .30999757 0V.051986696H.24398804V.25308229C.24398804 .36413575 .33999635 .40916444 .4039917 .40916444 .43899537 .40916444 .46199037 .39215089 .46199037 .31411744V.051986696H.3959961V0C.44999696 .0029907227 .4850006 .0029907227 .522995 .0029907227 .56199648 .0029907227 .59599307 .0029907227 .6499939 0Z"/>
<path id="font_2_50" d="M.526001 .11508179C.526001 .13604737 .5049896 .13604737 .49798585 .13604737 .48098756 .13604737 .47698976 .13404846 .46899415 .11706543 .43699647 .04714966 .35198976 .040161134 .32398988 .040161134 .17599488 .040161134 .17098999 .15603638 .16899109 .2119751H.49198915C.5130005 .2119751 .526001 .2119751 .526001 .2409668 .526001 .28399659 .5159912 .35003663 .46598817 .3990631 .4099884 .45507813 .31999208 .45507813 .29699708 .45507813 .11898804 .45507813 .033996583 .34402467 .033996583 .2259674 .033996583 .09609985 .13398743-.0068359377 .31199647-.0068359377 .48799134-.0068359377 .526001 .10108948 .526001 .11508179M.42799378 .25097657H.16899109C.16999817 .29100038 .17399597 .41307069 .2979889 .41307069 .42199708 .41307069 .4269867 .2899933 .42799378 .25097657Z"/>
<path id="font_2_77" d="M.6499939 0V.051986696H.58399966V.3034973C.58399966 .4251709 .5079956 .45117188 .4189911 .45117188 .2979889 .45117188 .24398804 .3715973 .23199463 .34959413H.23098755V.45117188L.055999757 .44335938V.39135743C.114990238 .39135743 .12199402 .39135743 .12199402 .35231019V.051986696H.055999757V0C.10998535 .0029907227 .14498902 .0029907227 .18299866 .0029907227 .22200012 .0029907227 .2559967 .0029907227 .30999757 0V.051986696H.24398804V.25320436C.24398804 .36413575 .33999635 .40916444 .4039917 .40916444 .43899537 .40916444 .46199037 .39215089 .46199037 .31411744V.051986696H.3959961V0C.44999696 .0029907227 .4850006 .0029907227 .522995 .0029907227 .56199648 .0029907227 .59599307 .0029907227 .6499939 0Z"/>
<path id="font_2_47" d="M.6339874 0V.051986696C.57499697 .051986696 .56799319 .051986696 .56799319 .09101868V.69433596L.38598634 .6855469V.6335449C.44499208 .6335449 .45199586 .6335449 .45199586 .5946808V.40815736C.397995 .4451599 .34599305 .45117188 .30899049 .45117188 .13999939 .45117188 .040985109 .35116578 .040985109 .22215271 .040985109 .091156009 .13798523-.0068359377 .29699708-.0068359377 .36999513-.007003784 .41999818 .021987915 .44599916 .041992189V-.0068359377L.6339874 0M.44599916 .11099243C.39898683 .045150758 .33999635 .03515625 .30599977 .03515625 .17599488 .03515625 .17599488 .15916443 .17599488 .21916199 .17599488 .28216554 .17599488 .40916444 .31900025 .40916444 .36499024 .40916444 .4119873 .39016725 .44599916 .34716798V.11099243Z"/>
</defs>
<path transform="matrix(1.00003,0,0,-1.00003,33.97357,324.45838)" stroke-width=".19925" stroke-linecap="butt" stroke-miterlimit="10" stroke-linejoin="miter" fill="none" stroke="#d9d9d9" d="M0 0H340.1617M0 2.83484H340.1617M0 5.6697H340.1617M0 8.50455H340.1617M0 11.33939H340.1617M0 14.17424H340.1617M0 17.0091H340.1617M0 19.84393H340.1617M0 22.67879H340.1617M0 25.51364H340.1617M0 28.3485H340.1617M0 31.18333H340.1617M0 34.01819H340.1617M0 36.85304H340.1617M0 39.68788H340.1617M0 42.52274H340.1617M0 45.35759H340.1617M0 48.19244H340.1617M0 51.02728H340.1617M0 53.86214H340.1617M0 56.69699H340.1617M0 59.53183H340.1617M0 62.36668H340.1617M0 65.20154H340.1617M0 68.03639H340.1617M0 70.87123H340.1617M0 73.70609H340.1617M0 76.54094H340.1617M0 79.37578H340.1617M0 82.21063H340.1617M0 85.04549H340.1617M0 87.88034H340.1617M0 90.71518H340.1617M0 93.55003H340.1617M0 96.38489H340.1617M0 99.21973H340.1617M0 102.05458H340.1617M0 104.88943H340.1617M0 107.72429H340.1617M0 110.55913H340.1617M0 113.39398H340.1617M0 116.22884H340.1617M0 119.06367H340.1617M0 121.89853H340.1617M0 124.73338H340.1617M0 127.56824H340.1617M0 130.40308H340.1617M0 133.23793H340.1617M0 136.07279H340.1617M0 138.90763H340.1617M0 141.74248H340.1617M0 144.57733H340.1617M0 147.41219H340.1617M0 150.24703H340.1617M0 153.08188H340.1617M0 155.91674H340.1617M0 158.75157H340.1617M0 161.58643H340.1617M0 164.42128H340.1617M0 167.25612H340.1617M0 170.09098H340.1617M0 172.92583H340.1617M0 175.76068H340.1617M0 178.59552H340.1617M0 181.43038H340.1617M0 184.26523H340.1617M0 187.10007H340.1617M0 189.93492H340.1617M0 192.76978H340.1617M0 195.60463H340.1617M0 198.43947H340.1617M0 201.27433H340.1617M0 204.10918H340.1617M0 206.94402H340.1617M0 209.77887H340.1617M0 212.61373H340.1617M0 215.44858H340.1617M0 218.28342H340.1617M0 221.11827H340.1617M0 223.95313H340.1617M0 226.78797H340.1617M0 229.62282H340.1617M0 232.45767H340.1617M0 235.29253H340.1617M0 238.12737H340.1617M0 240.96222H340.1617M0 243.79708H340.1617M0 246.63191H340.1617M0 249.46677H340.1617M0 252.30162H340.1617M0 255.13648H340.1617M0 257.9713H340.1617M0 260.80619H340.1617M0 263.64103H340.1617M0 266.47587H340.1617M0 269.3107H340.1617M0 272.14558H340.1617M0 274.9804H340.1617M0 277.81526H340.1617M0 280.65013H340.1617M0 283.48497H340.1617M0 286.31983H340.1617M0 289.15467H340.1617M0 291.98954H340.1617M0 294.82438H340.1617M0 297.6592H340.1617M0 300.49406H340.1617M0 303.32893H340.1617M0 306.16377H340.1617M0 308.9986H340.1617M0 0V311.8149M2.83484 0V311.8149M5.6697 0V311.8149M8.50455 0V311.8149M11.33939 0V311.8149M14.17424 0V311.8149M17.0091 0V311.8149M19.84393 0V311.8149M22.67879 0V311.8149M25.51364 0V311.8149M28.3485 0V311.8149M31.18333 0V311.8149M34.01819 0V311.8149M36.85304 0V311.8149M39.68788 0V311.8149M42.52274 0V311.8149M45.35759 0V311.8149M48.19244 0V311.8149M51.02728 0V311.8149M53.86214 0V311.8149M56.69699 0V311.8149M59.53183 0V311.8149M62.36668 0V311.8149M65.20154 0V311.8149M68.03639 0V311.8149M70.87123 0V311.8149M73.70609 0V311.8149M76.54094 0V311.8149M79.37578 0V311.8149M82.21063 0V311.8149M85.04549 0V311.8149M87.88034 0V311.8149M90.71518 0V311.8149M93.55003 0V311.8149M96.38489 0V311.8149M99.21973 0V311.8149M102.05458 0V311.8149M104.88943 0V311.8149M107.72429 0V311.8149M110.55913 0V311.8149M113.39398 0V311.8149M116.22884 0V311.8149M119.06367 0V311.8149M121.89853 0V311.8149M124.73338 0V311.8149M127.56824 0V311.8149M130.40308 0V311.8149M133.23793 0V311.8149M136.07279 0V311.8149M138.90763 0V311.8149M141.74248 0V311.8149M144.57733 0V311.8149M147.41219 0V311.8149M150.24703 0V311.8149M153.08188 0V311.8149M155.91674 0V311.8149M158.75157 0V311.8149M161.58643 0V311.8149M164.42128 0V311.8149M167.25612 0V311.8149M170.09098 0V311.8149M172.92583 0V311.8149M175.76068 0V311.8149M178.59552 0V311.8149M181.43038 0V311.8149M184.26523 0V311.8149M187.10007 0V311.8149M189.93492 0V311.8149M192.76978 0V311.8149M195.60463 0V311.8149M198.43947 0V311.8149M201.27433 0V311.8149M204.10918 0V311.8149M206.94402 0V311.8149M209.77887 0V311.8149M212.61373 0V311.8149M215.44858 0V311.8149M218.28342 0V311.8149M221.11827 0V311.8149M223.95313 0V311.8149M226.78797 0V311.8149M229.62282 0V311.8149M232.45767 0V311.8149M235.29253 0V311.8149M238.12737 0V311.8149M240.96222 0V311.8149M243.79708 0V311.8149M246.63191 0V311.8149M249.46677 0V311.8149M252.30162 0V311.8149M255.13648 0V311.8149M257.9713 0V311.8149M260.80619 0V311.8149M263.64103 0V311.8149M266.47587 0V311.8149M269.3107 0V311.8149M272.14558 0V311.8149M274.9804 0V311.8149M277.81526 0V311.8149M280.65013 0V311.8149M283.48497 0V311.8149M286.31983 0V311.8149M289.15467 0V311.8149M291.98954 0V311.8149M294.82438 0V311.8149M297.6592 0V311.8149M300.49406 0V311.8149M303.32893 0V311.8149M306.16377 0V311.8149M308.9986 0V311.8149M311.83348 0V311.8149M314.66835 0V311.8149M317.50318 0V311.8149M320.338 0V311.8149M323.17289 0V311.8149M326.0077 0V311.8149M328.84257 0V311.8149M331.6774 0V311.8149M334.51225 0V311.8149M337.3471 0V311.8149M340.1617 311.8149"/>
<path transform="matrix(1.00003,0,0,-1.00003,33.97357,324.45838)" stroke-width=".3985" stroke-linecap="butt" stroke-miterlimit="10" stroke-linejoin="miter" fill="none" stroke="#a6a6a6" d="M0 0H340.1617M0 28.3468H340.1617M0 56.69362H340.1617M0 85.04042H340.1617M0 113.38724H340.1617M0 141.73404H340.1617M0 170.08086H340.1617M0 198.42766H340.1617M0 226.77448H340.1617M0 255.12128H340.1617M0 283.4681H340.1617M0 311.80497H340.1617M0 0V311.8149M28.3468 0V311.8149M56.69362 0V311.8149M85.04042 0V311.8149M113.38724 0V311.8149M141.73404 0V311.8149M170.08086 0V311.8149M198.42766 0V311.8149M226.77448 0V311.8149M255.12128 0V311.8149M283.4681 0V311.8149M311.8149 0V311.8149M340.15177 0V311.8149M340.1617 311.8149"/>
<path transform="matrix(1.00003,0,0,-1.00003,33.97357,324.45838)" stroke-width=".79701" stroke-linecap="butt" stroke-miterlimit="10" stroke-linejoin="miter" fill="none" stroke="#000000" d="M0 0H339.3647"/>
<path transform="matrix(1.00003,0,0,-1.00003,373.74699,324.45838)" stroke-width=".79701" stroke-linecap="round" stroke-linejoin="round" fill="none" stroke="#000000" d="M-2.55046 3.11095C-2.0845 1.24435-1.04614 .36295 0 0-1.04614-.36295-2.0845-1.24435-2.55046-3.11095"/>
<path transform="matrix(1.00003,0,0,-1.00003,33.97357,324.45838)" stroke-width=".79701" stroke-linecap="butt" stroke-miterlimit="10" stroke-linejoin="miter" fill="none" stroke="#000000" d="M0 0V311.0179"/>
<path transform="matrix(0,-1.00003,-1.00003,-0,33.97357,13.032593)" stroke-width=".79701" stroke-linecap="round" stroke-linejoin="round" fill="none" stroke="#000000" d="M-2.55046 3.11095C-2.0845 1.24435-1.04614 .36295 0 0-1.04614-.36295-2.0845-1.24435-2.55046-3.11095"/>
<use data-text="1" xlink:href="#font_1_82" transform="matrix(9.962899,0,0,-9.962899,57.33927,334.61369)"/>
<use data-text="0" xlink:href="#font_1_121" transform="matrix(9.962899,0,0,-9.962899,62.320726,334.61369)"/>
<use data-text="2" xlink:href="#font_1_107" transform="matrix(9.962899,0,0,-9.962899,85.687129,334.61369)"/>
<use data-text="0" xlink:href="#font_1_121" transform="matrix(9.962899,0,0,-9.962899,90.66858,334.61369)"/>
<use data-text="3" xlink:href="#font_1_106" transform="matrix(9.962899,0,0,-9.962899,114.03497,334.61369)"/>
<use data-text="0" xlink:href="#font_1_121" transform="matrix(9.962899,0,0,-9.962899,119.016429,334.61369)"/>
<use data-text="4" xlink:href="#font_1_57" transform="matrix(9.962899,0,0,-9.962899,142.38283,334.7237)"/>
<use data-text="0" xlink:href="#font_1_121" transform="matrix(9.962899,0,0,-9.962899,147.36429,334.7237)"/>
<use data-text="5" xlink:href="#font_1_56" transform="matrix(9.962899,0,0,-9.962899,170.73069,334.61369)"/>
<use data-text="0" xlink:href="#font_1_121" transform="matrix(9.962899,0,0,-9.962899,175.71213,334.61369)"/>
<use data-text="6" xlink:href="#font_1_101" transform="matrix(9.962899,0,0,-9.962899,199.07753,334.61369)"/>
<use data-text="0" xlink:href="#font_1_121" transform="matrix(9.962899,0,0,-9.962899,204.05899,334.61369)"/>
<use data-text="7" xlink:href="#font_1_100" transform="matrix(9.962899,0,0,-9.962899,227.42539,334.71369)"/>
<use data-text="0" xlink:href="#font_1_121" transform="matrix(9.962899,0,0,-9.962899,232.40683,334.71369)"/>
<use data-text="8" xlink:href="#font_1_51" transform="matrix(9.962899,0,0,-9.962899,255.77324,334.61369)"/>
<use data-text="0" xlink:href="#font_1_121" transform="matrix(9.962899,0,0,-9.962899,260.7547,334.61369)"/>
<use data-text="9" xlink:href="#font_1_78" transform="matrix(9.962899,0,0,-9.962899,284.1211,334.61369)"/>
<use data-text="0" xlink:href="#font_1_121" transform="matrix(9.962899,0,0,-9.962899,289.10255,334.61369)"/>
<use data-text="1" xlink:href="#font_1_82" transform="matrix(9.962899,0,0,-9.962899,309.97789,334.61369)"/>
<use data-text="0" xlink:href="#font_1_121" transform="matrix(9.962899,0,0,-9.962899,314.95933,334.61369)"/>
<use data-text="0" xlink:href="#font_1_121" transform="matrix(9.962899,0,0,-9.962899,319.9408,334.61369)"/>
<use data-text="1" xlink:href="#font_1_82" transform="matrix(9.962899,0,0,-9.962899,20.490166,270.97077)"/>
<use data-text="0" xlink:href="#font_1_121" transform="matrix(9.962899,0,0,-9.962899,25.471619,270.97077)"/>
<use data-text="1" xlink:href="#font_1_82" transform="matrix(9.962899,0,0,-9.962899,20.490166,242.62392)"/>
<use data-text="5" xlink:href="#font_1_56" transform="matrix(9.962899,0,0,-9.962899,25.471619,242.62392)"/>
<use data-text="2" xlink:href="#font_1_107" transform="matrix(9.962899,0,0,-9.962899,20.490166,214.27606)"/>
<use data-text="0" xlink:href="#font_1_121" transform="matrix(9.962899,0,0,-9.962899,25.471619,214.27606)"/>
<use data-text="2" xlink:href="#font_1_107" transform="matrix(9.962899,0,0,-9.962899,20.490166,185.9282)"/>
<use data-text="5" xlink:href="#font_1_56" transform="matrix(9.962899,0,0,-9.962899,25.471619,185.9282)"/>
<use data-text="3" xlink:href="#font_1_106" transform="matrix(9.962899,0,0,-9.962899,20.490166,157.58036)"/>
<use data-text="0" xlink:href="#font_1_121" transform="matrix(9.962899,0,0,-9.962899,25.471619,157.58036)"/>
<use data-text="3" xlink:href="#font_1_106" transform="matrix(9.962899,0,0,-9.962899,20.490166,129.23252)"/>
<use data-text="5" xlink:href="#font_1_56" transform="matrix(9.962899,0,0,-9.962899,25.471619,129.23252)"/>
<use data-text="4" xlink:href="#font_1_57" transform="matrix(9.962899,0,0,-9.962899,20.490166,100.93967)"/>
<use data-text="0" xlink:href="#font_1_121" transform="matrix(9.962899,0,0,-9.962899,25.471619,100.93967)"/>
<use data-text="4" xlink:href="#font_1_57" transform="matrix(9.962899,0,0,-9.962899,20.490166,72.592807)"/>
<use data-text="5" xlink:href="#font_1_56" transform="matrix(9.962899,0,0,-9.962899,25.471619,72.592807)"/>
<use data-text="5" xlink:href="#font_1_56" transform="matrix(9.962899,0,0,-9.962899,20.490166,44.18994)"/>
<use data-text="0" xlink:href="#font_1_121" transform="matrix(9.962899,0,0,-9.962899,25.471619,44.18994)"/>
<use data-text="5" xlink:href="#font_1_56" transform="matrix(9.962899,0,0,-9.962899,20.490166,15.842102)"/>
<use data-text="5" xlink:href="#font_1_56" transform="matrix(9.962899,0,0,-9.962899,25.471619,15.842102)"/>
<path transform="matrix(1.00003,0,0,-1.00003,33.97357,324.45838)" d="M28.3468 0V283.4681H42.5202V0" fill="#6666ff"/>
<path transform="matrix(1.00003,0,0,-1.00003,33.97357,324.45838)" stroke-width=".79701" stroke-linecap="butt" stroke-miterlimit="10" stroke-linejoin="miter" fill="none" stroke="#000000" d="M28.3468 0V283.4681H42.5202V0"/>
<path transform="matrix(1.00003,0,0,-1.00003,33.97357,324.45838)" d="M42.5202 0V141.73404H70.867V0" fill="#6666ff"/>
<path transform="matrix(1.00003,0,0,-1.00003,33.97357,324.45838)" stroke-width=".79701" stroke-linecap="butt" stroke-miterlimit="10" stroke-linejoin="miter" fill="none" stroke="#000000" d="M42.5202 0V141.73404H70.867V0"/>
<path transform="matrix(1.00003,0,0,-1.00003,33.97357,324.45838)" d="M70.867 0V226.77448H113.38724V0" fill="#6666ff"/>
<path transform="matrix(1.00003,0,0,-1.00003,33.97357,324.45838)" stroke-width=".79701" stroke-linecap="butt" stroke-miterlimit="10" stroke-linejoin="miter" fill="none" stroke="#000000" d="M70.867 0V226.77448H113.38724V0"/>
<path transform="matrix(1.00003,0,0,-1.00003,33.97357,324.45838)" d="M113.38724 0V198.42766H198.42766V0" fill="#6666ff"/>
<path transform="matrix(1.00003,0,0,-1.00003,33.97357,324.45838)" stroke-width=".79701" stroke-linecap="butt" stroke-miterlimit="10" stroke-linejoin="miter" fill="none" stroke="#000000" d="M113.38724 0V198.42766H198.42766V0"/>
<path transform="matrix(1.00003,0,0,-1.00003,33.97357,324.45838)" d="M198.42766 0V85.04042H255.12128V0" fill="#6666ff"/>
<path transform="matrix(1.00003,0,0,-1.00003,33.97357,324.45838)" stroke-width=".79701" stroke-linecap="butt" stroke-miterlimit="10" stroke-linejoin="miter" fill="none" stroke="#000000" d="M198.42766 0V85.04042H255.12128V0"/>
<use data-text="S" xlink:href="#font_1_97" transform="matrix(9.962899,0,0,-9.962899,131.09049,355.2973)"/>
<use data-text="p" xlink:href="#font_1_84" transform="matrix(9.962899,0,0,-9.962899,136.62985,355.2973)"/>
<use data-text="e" xlink:href="#font_1_50" transform="matrix(9.962899,0,0,-9.962899,142.4482,355.2973)"/>
<use data-text="e" xlink:href="#font_1_50" transform="matrix(9.962899,0,0,-9.962899,146.87172,355.2973)"/>
<use data-text="d" xlink:href="#font_1_47" transform="matrix(9.962899,0,0,-9.962899,151.29526,355.2973)"/>
<use data-text="(" xlink:href="#font_1_85" transform="matrix(9.962899,0,0,-9.962899,160.15227,355.2973)"/>
<use data-text="k" xlink:href="#font_1_70" transform="matrix(9.962899,0,0,-9.962899,164.02785,355.2973)"/>
<use data-text="m" xlink:href="#font_1_75" transform="matrix(9.962899,0,0,-9.962899,169.28826,355.2973)"/>
<use data-text="/" xlink:href="#font_1_102" transform="matrix(9.962899,0,0,-9.962899,177.58736,355.2973)"/>
<use data-text="h" xlink:href="#font_1_63" transform="matrix(9.962899,0,0,-9.962899,182.5688,355.2973)"/>
<use data-text=")" xlink:href="#font_1_86" transform="matrix(9.962899,0,0,-9.962899,188.10816,355.2973)"/>
<use data-text="F" xlink:href="#font_1_54" transform="matrix(0,-9.962899,-9.962899,-0,7.9918215,233.29561)"/>
<use data-text="r" xlink:href="#font_1_96" transform="matrix(0,-9.962899,-9.962899,-0,7.9918215,227.60678)"/>
<use data-text="e" xlink:href="#font_1_50" transform="matrix(0,-9.962899,-9.962899,-0,7.9918215,223.70134)"/>
<use data-text="q" xlink:href="#font_1_91" transform="matrix(0,-9.962899,-9.962899,-0,7.9918215,219.2778)"/>
<use data-text="u" xlink:href="#font_1_109" transform="matrix(0,-9.962899,-9.962899,-0,7.9918215,214.0174)"/>
<use data-text="e" xlink:href="#font_1_50" transform="matrix(0,-9.962899,-9.962899,-0,7.9918215,208.47803)"/>
<use data-text="n" xlink:href="#font_1_77" transform="matrix(0,-9.962899,-9.962899,-0,7.9918215,204.05449)"/>
<use data-text="c" xlink:href="#font_1_43" transform="matrix(0,-9.962899,-9.962899,-0,7.9918215,198.51512)"/>
<use data-text="y" xlink:href="#font_1_118" transform="matrix(0,-9.962899,-9.962899,-0,7.9918215,194.0916)"/>
<use data-text="H" xlink:href="#font_2_62" transform="matrix(7.9703395,0,0,-7.9703395,158.0273,7.503845)"/>
<use data-text="i" xlink:href="#font_2_66" transform="matrix(7.9703395,0,0,-7.9703395,165.63898,7.503845)"/>
<use data-text="s" xlink:href="#font_2_98" transform="matrix(7.9703395,0,0,-7.9703395,168.34889,7.503845)"/>
<use data-text="t" xlink:href="#font_2_105" transform="matrix(7.9703395,0,0,-7.9703395,172.19857,7.503845)"/>
<use data-text="o" xlink:href="#font_2_81" transform="matrix(7.9703395,0,0,-7.9703395,175.99245,7.503845)"/>
<use data-text="g" xlink:href="#font_2_59" transform="matrix(7.9703395,0,0,-7.9703395,180.87825,7.503845)"/>
<use data-text="r" xlink:href="#font_2_96" transform="matrix(7.9703395,0,0,-7.9703395,185.76407,7.503845)"/>
<use data-text="a" xlink:href="#font_2_28" transform="matrix(7.9703395,0,0,-7.9703395,189.79706,7.503845)"/>
<use data-text="m" xlink:href="#font_2_75" transform="matrix(7.9703395,0,0,-7.9703395,194.54738,7.503845)"/>
<use data-text="o" xlink:href="#font_2_81" transform="matrix(7.9703395,0,0,-7.9703395,205.937,7.503845)"/>
<use data-text="f" xlink:href="#font_2_55" transform="matrix(7.9703395,0,0,-7.9703395,210.8228,7.503845)"/>
<use data-text="t" xlink:href="#font_2_105" transform="matrix(7.9703395,0,0,-7.9703395,217.0556,7.503845)"/>
<use data-text="h" xlink:href="#font_2_63" transform="matrix(7.9703395,0,0,-7.9703395,220.84949,7.503845)"/>
<use data-text="e" xlink:href="#font_2_50" transform="matrix(7.9703395,0,0,-7.9703395,226.2773,7.503845)"/>
<use data-text="a" xlink:href="#font_2_28" transform="matrix(7.9703395,0,0,-7.9703395,234.00055,7.503845)"/>
<use data-text="g" xlink:href="#font_2_59" transform="matrix(7.9703395,0,0,-7.9703395,238.75087,7.503845)"/>
<use data-text="e" xlink:href="#font_2_50" transform="matrix(7.9703395,0,0,-7.9703395,243.63669,7.503845)"/>
<use data-text="s" xlink:href="#font_2_98" transform="matrix(7.9703395,0,0,-7.9703395,248.10805,7.503845)"/>
<use data-text="o" xlink:href="#font_2_81" transform="matrix(7.9703395,0,0,-7.9703395,255.20963,7.503845)"/>
<use data-text="f" xlink:href="#font_2_55" transform="matrix(7.9703395,0,0,-7.9703395,260.09544,7.503845)"/>
<use data-text="a" xlink:href="#font_2_28" transform="matrix(7.9703395,0,0,-7.9703395,266.32826,7.503845)"/>
<use data-text="t" xlink:href="#font_2_105" transform="matrix(7.9703395,0,0,-7.9703395,271.07856,7.503845)"/>
<use data-text="t" xlink:href="#font_2_105" transform="matrix(7.9703395,0,0,-7.9703395,274.87245,7.503845)"/>
<use data-text="e" xlink:href="#font_2_50" transform="matrix(7.9703395,0,0,-7.9703395,278.66633,7.503845)"/>
<use data-text="n" xlink:href="#font_2_77" transform="matrix(7.9703395,0,0,-7.9703395,283.1377,7.503845)"/>
<use data-text="d" xlink:href="#font_2_47" transform="matrix(7.9703395,0,0,-7.9703395,288.5655,7.503845)"/>
<use data-text="e" xlink:href="#font_2_50" transform="matrix(7.9703395,0,0,-7.9703395,293.9933,7.503845)"/>
<use data-text="e" xlink:href="#font_2_50" transform="matrix(7.9703395,0,0,-7.9703395,298.46464,7.503845)"/>
<use data-text="s" xlink:href="#font_2_98" transform="matrix(7.9703395,0,0,-7.9703395,302.936,7.503845)"/>
</svg>
