<svg xmlns="http://www.w3.org/2000/svg" xmlns:xlink="http://www.w3.org/1999/xlink" xmlns:inkscape="http://www.inkscape.org/namespaces/inkscape" version="1.1" width="376" height="416" viewBox="0 0 376 416">
<defs>
<path id="font_1_82" d="M.4189911 0V.0309906H.3869934C.29699708 .0309906 .2939911 .041992189 .2939911 .07902527V.64012148C.2939911 .6640167 .2939911 .6660156 .2709961 .6660156 .20899964 .60227969 .12098694 .60227969 .08898926 .60227969V.57128909C.10899353 .57128909 .16799927 .57128909 .21998596 .5972748V.07902527C.21998596 .042999269 .21699524 .0309906 .1269989 .0309906H.09498596V0C.12998963 .0029907227 .21699524 .0029907227 .25698854 .0029907227 .29699708 .0029907227 .38398744 .0029907227 .4189911 0Z"/>
<path id="font_1_121" d="M.45999146 .31976319C.45999146 .39982606 .45498658 .47988893 .41999818 .5539398 .37399293 .65000918 .2919922 .6660156 .25 .6660156 .18998719 .6660156 .116989139 .64001467 .07598877 .54693606 .04399109 .47789 .038986207 .39982606 .038986207 .31976319 .038986207 .24472046 .042999269 .15464783 .083999637 .07859802 .1269989-.0024719239 .19999695-.022460938 .24899292-.022460938 .30299378-.022460938 .3789978-.0014648438 .4229889 .09359741 .45498658 .16265869 .45999146 .2407074 .45999146 .31976319M.3769989 .3317871C.3769989 .25672914 .3769989 .18867493 .3659973 .12461853 .35099793 .029556275 .2939911-.00047302247 .24899292-.00047302247 .20999146-.00047302247 .15098572 .024551392 .1329956 .12062073 .12199402 .18066406 .12199402 .2727356 .12199402 .3317871 .12199402 .39582826 .12199402 .46188355 .12998963 .5159149 .14898682 .63500979 .22399903 .64401248 .24899292 .64401248 .28199769 .64401248 .34799195 .6259918 .36698915 .52693179 .3769989 .47088624 .3769989 .39482118 .3769989 .3317871Z"/>
<path id="font_1_107" d="M.44898988 .17396546H.42399598C.4189911 .14398194 .4119873 .099990848 .4019928 .084991458 .394989 .07699585 .32899476 .07699585 .30699159 .07699585H.1269989L.23298645 .17996216C.3889923 .31803895 .44898988 .37210084 .44898988 .47216798 .44898988 .5860901 .35899354 .6660156 .23699951 .6660156 .12399292 .6660156 .049987794 .57411196 .049987794 .48516847 .049987794 .4291687 .099990848 .4291687 .102996829 .4291687 .11999512 .4291687 .15499878 .44117738 .15499878 .48217774 .15499878 .5081787 .13699341 .5341797 .101989749 .5341797 .09399414 .5341797 .09199524 .5341797 .08898926 .5331726 .11199951 .59806826 .1659851 .63500979 .22399903 .63500979 .31498719 .63500979 .35798646 .5541382 .35798646 .47216798 .35798646 .39196778 .30799867 .31297303 .25299073 .25097657L.06098938 .036987306C.049987794 .025985718 .049987794 .023986817 .049987794 0H.42099L.44898988 .17396546Z"/>
<path id="font_1_106" d="M.45700074 .17037964C.45700074 .252594 .3939972 .33088685 .2899933 .35191346 .37199403 .37893678 .42999269 .4490509 .42999269 .52809146 .42999269 .6100464 .34199525 .6660156 .24598694 .6660156 .14498902 .6660156 .068984989 .60606387 .068984989 .53009036 .068984989 .49710084 .09098816 .47808839 .11999512 .47808839 .15098572 .47808839 .17098999 .50009158 .17098999 .5290985 .17098999 .57910159 .12399292 .57910159 .10899353 .57910159 .13999939 .62802127 .20599365 .64100649 .24198914 .64100649 .2829895 .64100649 .33799745 .6190338 .33799745 .5290985 .33799745 .51708987 .33599855 .45906068 .30999757 .4149933 .27999879 .36691285 .24598694 .36390687 .22099304 .36291505 .21299744 .36190797 .18899536 .35990907 .18199158 .35990907 .17399597 .35890199 .16699219 .35791017 .16699219 .3479004 .16699219 .33691407 .17399597 .33691407 .19099427 .33691407H.23498535C.31698609 .33691407 .35398866 .2686615 .35398866 .17037964 .35398866 .034469606 .2849884 .0055389406 .24099732 .0055389406 .19799805 .0055389406 .12298584 .022491456 .08799744 .08137512 .12298584 .07637024 .1539917 .09837341 .1539917 .1363678 .1539917 .17237854 .1269989 .19238281 .09799194 .19238281 .07398987 .19238281 .041992189 .17837525 .041992189 .1343689 .041992189 .043441774 .1349945-.022460938 .24398804-.022460938 .3659973-.022460938 .45700074 .06838989 .45700074 .17037964Z"/>
<path id="font_1_57" d="M.47099305 .16503906V.19602967H.37098695V.6507721C.37098695 .6707611 .37098695 .6767578 .35499574 .6767578 .34599305 .6767578 .34298707 .6767578 .33499146 .6647644L.027999878 .19602967V.16503906H.2939911V.07800293C.2939911 .041992189 .2919922 .0309906 .21798706 .0309906H.19699097V0C.23799134 .0029907227 .2899933 .0029907227 .33198548 .0029907227 .37399293 .0029907227 .4269867 .0029907227 .46798707 0V.0309906H.44699098C.37298585 .0309906 .37098695 .041992189 .37098695 .07800293V.16503906H.47099305M.2999878 .19602967H.055999757L.2999878 .56881716V.19602967Z"/>
<path id="font_1_56" d="M.44898988 .20091248C.44898988 .31991578 .36698915 .41992188 .25898744 .41992188 .21099854 .41992188 .16799927 .4039154 .13198853 .36891175V.5641022C.1519928 .55778506 .18499756 .55078127 .21699524 .55078127 .33999635 .55078127 .4099884 .6418457 .4099884 .65493777 .4099884 .6609802 .40699769 .6660156 .3999939 .6660156 .3999939 .66607668 .39698792 .66607668 .3919983 .66308596 .37199403 .65408328 .32299806 .63378909 .2559967 .63378909 .21598816 .63409426 .16999817 .641098 .12298584 .6621094 .114990238 .6651001 .11099243 .6651001 .11099243 .6651001 .100997928 .66508486 .100997928 .657074 .100997928 .64108279V.3447113C.100997928 .3266449 .100997928 .31861878 .114990238 .31861878 .12199402 .31861878 .12399292 .32164 .12799073 .32765199 .13899231 .34371949 .17599488 .3979187 .25698854 .3979187 .30899049 .3979187 .33399964 .3517456 .34199525 .3336792 .35798646 .2965393 .3600006 .2574005 .3600006 .20721436 .3600006 .17218018 .3600006 .112197879 .33599855 .07032776 .31199647 .031448366 .2749939 .0055389406 .22898865 .0055389406 .1559906 .0055389406 .09899902 .05836487 .08198547 .1171875 .084991458 .11685181 .08799744 .115859989 .09899902 .115859989 .13198853 .115859989 .14898682 .14085388 .14898682 .16485596 .14898682 .18885803 .13198853 .21386719 .09899902 .21386719 .084991458 .21386719 .049987794 .2068634 .049987794 .16085816 .049987794 .07432556 .11898804-.022460938 .23098755-.022460938 .34700013-.022460938 .44898988 .07331848 .44898988 .20019531V.20091248Z"/>
<path id="font_1_101" d="M.45700074 .2036438C.45700074 .33070375 .36799623 .4267578 .25698854 .4267578 .18899536 .4267578 .1519928 .37573243 .13198853 .327713V.35173036C.13198853 .6047821 .2559967 .64100649 .30699159 .64100649 .33099366 .64100649 .37298585 .634964 .394989 .6007538 .37998963 .6007538 .33999635 .6007538 .33999635 .5557556 .33999635 .524765 .3639984 .5097656 .38598634 .5097656 .4019928 .5097656 .43199159 .51875308 .43199159 .5577545 .43199159 .6178589 .3880005 .6660156 .30499269 .6660156 .1769867 .6660156 .041992189 .5367584 .041992189 .31570436 .041992189 .048553468 .1579895-.022460938 .25099183-.022460938 .3619995-.022460938 .45700074 .07156372 .45700074 .2036438M.36698915 .20463562C.36698915 .15661621 .36698915 .10658264 .34999085 .0705719 .31999208 .010528564 .27398683 .0055389406 .25099183 .0055389406 .18798828 .0055389406 .1579895 .06556702 .1519928 .080566409 .13398743 .127594 .13398743 .2076416 .13398743 .22564698 .13398743 .30369569 .1659851 .40374757 .2559967 .40374757 .27198792 .40374757 .31799317 .40374757 .34899903 .34172059 .36698915 .30470277 .36698915 .2536621 .36698915 .20463562Z"/>
<path id="font_1_100" d="M.4850006 .6435547H.24198914C.11999512 .6435547 .117996219 .6566467 .11399841 .67578127H.08898926L.055999757 .46954347H.08099365C.083999637 .48554994 .09298706 .54855349 .10598755 .5605469 .11299133 .5665436 .19099427 .5665436 .20399475 .5665436H.41099549L.29899598 .40853883C.20899964 .2735443 .17599488 .13453675 .17599488 .03253174 .17599488 .022537232 .17599488-.022460938 .22200012-.022460938 .2679901-.022460938 .2679901 .022537232 .2679901 .03253174V.08354187C.2679901 .13853455 .2709961 .19354248 .2789917 .24754334 .2829895 .27053834 .29699708 .35653688 .34098817 .41854859L.47599793 .608551C.4850006 .62054446 .4850006 .62254336 .4850006 .6435547Z"/>
<path id="font_1_51" d="M.45700074 .16764832C.45700074 .20367432 .44599916 .24871826 .4079895 .29074098 .3889923 .31176759 .37298585 .32176209 .30899049 .36180116 .3809967 .39881898 .42999269 .4508667 .42999269 .51690676 .42999269 .6089783 .34098817 .6660156 .25 .6660156 .1499939 .6660156 .068984989 .5919647 .068984989 .49890138 .068984989 .48088075 .070999149 .43585206 .11299133 .38882447 .12399292 .3768158 .16099549 .35179139 .18598938 .33477784 .12799073 .30575563 .041992189 .24971009 .041992189 .15063477 .041992189 .044555665 .14399719-.022460938 .24899292-.022460938 .3619995-.022460938 .45700074 .060577394 .45700074 .16764832M.38598634 .51690676C.38598634 .45986939 .34700013 .41183473 .2869873 .3768158L.16299439 .4568634C.116989139 .4868927 .11299133 .5209198 .11299133 .53793337 .11299133 .5989685 .17799378 .64100649 .24899292 .64100649 .32199098 .64100649 .38598634 .588974 .38598634 .51690676M.40699769 .13162232C.40699769 .05757141 .33198548 .0055389406 .25 .0055389406 .1639862 .0055389406 .09199524 .06758118 .09199524 .15063477 .09199524 .2086792 .12399292 .2727356 .20899964 .31976319L.33198548 .24171448C.3600006 .22268677 .40699769 .19267273 .40699769 .13162232Z"/>
<path id="font_1_78" d="M.45700074 .32888795C.45700074 .598114 .34199525 .6660156 .25299073 .6660156 .19799805 .6660156 .14898682 .64801028 .10598755 .6031189 .06498718 .5580902 .041992189 .5160217 .041992189 .44091798 .041992189 .3158722 .12998963 .21777344 .24198914 .21777344 .30299378 .21777344 .34399415 .25979615 .36698915 .3178711V.28582765C.36698915 .05178833 .2630005 .0055389406 .20498657 .0055389406 .18798828 .0055389406 .13398743 .007537842 .10699463 .041778566 .15098572 .041778566 .15899658 .07078552 .15899658 .08778381 .15899658 .118774417 .1349945 .13378906 .11299133 .13378906 .09700012 .13378906 .066986087 .12478638 .066986087 .08578491 .066986087 .018615723 .12098694-.022460938 .20599365-.022460938 .33499146-.022460938 .45700074 .11378479 .45700074 .32888795M.36499024 .42089845C.36499024 .33789063 .33099366 .24076844 .24299622 .24076844 .22698975 .2407074 .18099976 .2407074 .1499939 .30371095 .13198853 .34072877 .13198853 .3908081 .13198853 .43988038 .13198853 .49397279 .13198853 .5410614 .15299988 .578125 .17999268 .62805178 .21798706 .64100649 .25299073 .64100649 .29899598 .64100649 .33198548 .60710147 .34899903 .562088 .36099244 .52989199 .36499024 .46688844 .36499024 .42089845Z"/>
<path id="font_2_121" d="M.47299195 .31976319C.47299195 .38682557 .46998597 .47288514 .43499757 .5479431 .3909912 .64201357 .31498719 .6660156 .25698854 .6660156 .19699097 .6660156 .12098694 .64201357 .07699585 .5459442 .04499817 .47688294 .039993287 .39582826 .039993287 .31976319 .039993287 .25471498 .041992189 .15765381 .084991458 .07858276 .13198853-.0064697267 .20999146-.022460938 .2559967-.022460938 .32099916-.022460938 .394989 .0055389406 .43699647 .097595218 .46699525 .1646576 .47299195 .23971558 .47299195 .31976319M.3869934 .33177186C.3869934 .2697296 .3869934 .18566895 .3769989 .12661743 .35598756 .012542725 .28199769 .002532959 .25698854 .002532959 .22698975 .002532959 .15499878 .016540528 .13598633 .12962342 .12599182 .18867493 .12599182 .2747345 .12599182 .33177186 .12599182 .39982606 .12599182 .47888185 .13798523 .53393557 .1579895 .6230011 .22200012 .64100649 .2559967 .64100649 .2939911 .64100649 .35699464 .62098696 .37599183 .5279236 .3869934 .47288514 .3869934 .39482118 .3869934 .33177186Z"/>
<path id="font_2_82" d="M.43199159 0V.0309906H.3999939C.30699159 .0309906 .3039856 .042999269 .3039856 .08001709V.63912966C.3039856 .6640167 .30299378 .6660156 .27799989 .6660156 .21598816 .60227969 .12399292 .60227969 .09298706 .60227969V.57128909C.11199951 .57128909 .17298889 .57128909 .22698975 .5972748V.08001709C.22698975 .042999269 .22399903 .0309906 .1309967 .0309906H.09899902V0C.1349945 .0029907227 .22399903 .0029907227 .2649994 .0029907227 .30599977 .0029907227 .3959961 .0029907227 .43199159 0Z"/>
<path id="font_2_107" d="M.46199037 .17704773H.43399049C.43199159 .16404724 .42399598 .10501099 .41099549 .08900452 .40499879 .07998657 .33599855 .07998657 .31599427 .07998657H.13798523L.23699951 .17404175C.40098573 .3161316 .46199037 .36915589 .46199037 .4711914 .46199037 .5860901 .36698915 .6660156 .24398804 .6660156 .1289978 .6660156 .050994874 .575119 .050994874 .4841919 .050994874 .43418885 .09399414 .42919923 .102996829 .42919923 .125 .42919923 .15499878 .44519044 .15499878 .48120118 .15499878 .51119998 .13398743 .5332031 .102996829 .5332031 .09799194 .5332031 .09498596 .5332031 .09098816 .53219607 .114990238 .6030731 .1789856 .63500979 .23298645 .63500979 .33499146 .63500979 .36999513 .5401764 .36999513 .4711914 .36999513 .36915589 .29299928 .28611756 .24499512 .23408509L.06199646 .035995485C.050994874 .024993897 .050994874 .022994996 .050994874 0H.43399049L.46199037 .17704773Z"/>
<path id="font_2_106" d="M.46998597 .17008972C.46998597 .25709535 .40098573 .33110047 .30499269 .35209657 .397995 .38710023 .44198609 .46009828 .44198609 .5290985 .44198609 .60606387 .35699464 .6660156 .25299073 .6660156 .14898682 .6660156 .070999149 .60705569 .070999149 .5310974 .070999149 .49809266 .09298706 .47909547 .12199402 .47909547 .15098572 .47909547 .17199707 .50009158 .17199707 .5290985 .17199707 .5640869 .147995 .57910159 .11399841 .57910159 .13999939 .6210327 .20098877 .64100649 .25 .64100649 .33299256 .64100649 .34899903 .5750885 .34899903 .52809146 .34899903 .49809266 .34298707 .45005799 .31799317 .41201783 .2869873 .36695863 .2519989 .36495973 .22299195 .36296083 .19799805 .36094667 .19599915 .36094667 .18798828 .36094667 .1789856 .35995484 .17098999 .35894776 .17098999 .34794618 .17098999 .33496095 .1789856 .33496095 .19599915 .33496095H.24299622C.32998658 .33496095 .36799623 .2646637 .36799623 .16937256 .36799623 .04145813 .2999878 .0055389406 .24899292 .0055389406 .22999573 .0055389406 .1329956 .010528564 .08799744 .0843811 .12399292 .07939148 .1519928 .10437012 .1519928 .13838196 .1519928 .17137146 .1269989 .19238281 .09799194 .19238281 .07299805 .19238281 .042999269 .17736817 .042999269 .13537598 .042999269 .046447755 .13598633-.022460938 .2519989-.022460938 .3769989-.022460938 .46998597 .06741333 .46998597 .16937256V.17008972Z"/>
<path id="font_2_57" d="M.48399354 .16503906V.19602967H.38198854V.649765C.38198854 .669754 .38198854 .6767578 .36299134 .6767578 .35099793 .6767578 .34999085 .67575076 .34098817 .6617584L.0289917 .19602967V.16503906H.3019867V.07901001C.3019867 .041992189 .29899598 .0309906 .22399903 .0309906H.20199585V0C.2649994 .0029907227 .33499146 .0029907227 .34199525 .0029907227 .34700013 .0029907227 .4189911 .0029907227 .48199464 0V.0309906H.45999146C.3849945 .0309906 .38198854 .041992189 .38198854 .07901001V.16503906H.48399354M.30799867 .19602967H.06098938L.30799867 .56581118V.19602967Z"/>
<path id="font_2_56" d="M.46199037 .19992066C.46199037 .3209076 .37599183 .41992188 .2669983 .41992188 .21899414 .41992188 .16999817 .4039154 .1349945 .36791993V.5647888C.16499329 .55578616 .19599915 .55078127 .22698975 .55078127 .34999085 .55078127 .42199708 .63983157 .42199708 .6529236 .42199708 .6619873 .41600038 .6660156 .41099549 .6660156 .41099549 .6660156 .40699769 .6660156 .397995 .6609802 .35099793 .6418457 .30499269 .63378909 .2630005 .63378909 .21998596 .63378909 .1749878 .6418457 .1289978 .6609802 .11898804 .6660156 .115997318 .6660156 .115997318 .6660156 .10398865 .6660156 .10398865 .6559448 .10398865 .63882449V.34490968C.10398865 .32699586 .10398865 .31599427 .117996219 .31599427 .12599182 .31562806 .1289978 .3196411 .1349945 .32867433 .16499329 .37083436 .21299744 .39491273 .2649994 .39491273 .37199403 .39491273 .37199403 .24035645 .37199403 .20422364 .37199403 .17321778 .37199403 .11122131 .34399415 .06636047 .31698609 .024475098 .2749939 .0055389406 .23599243 .0055389406 .1769867 .0055389406 .10998535 .042419435 .085998538 .11621094 .085998538 .116882327 .09298706 .11488342 .099990848 .11488342 .11999512 .11488342 .14898682 .12788391 .14898682 .1638794 .14898682 .19488526 .1269989 .21289063 .099990848 .21289063 .07899475 .21289063 .050994874 .20088196 .050994874 .16088867 .050994874 .069732669 .1269989-.022460938 .23799134-.022460938 .35899354-.02279663 .46199037 .07521057 .46199037 .19921875V.19992066Z"/>
<path id="font_2_101" d="M.46998597 .20277405C.46998597 .32977296 .37799073 .42578126 .2649994 .42578126 .20498657 .42578126 .1619873 .3907776 .13398743 .33078004 .13398743 .43276979 .14498902 .4897766 .17199707 .54177859 .19198609 .58277896 .24099732 .64100649 .31498719 .64100649 .33499146 .64100649 .3809967 .63697817 .4039917 .6007843 .36698915 .6007843 .35099793 .5817871 .35099793 .55477908 .35099793 .5287781 .36898805 .50878909 .39698792 .50878909 .4249878 .50878909 .44400025 .5267792 .44400025 .55677798 .44400025 .61299136 .4039917 .6660156 .31298829 .6660156 .18399048 .6660156 .042999269 .5389252 .042999269 .31576539 .042999269 .044555665 .16499329-.022460938 .25898744-.022460938 .36999513-.022460938 .46998597 .07052612 .46998597 .2025299V.20277405M.3789978 .20353699C.3789978 .15553284 .3789978 .106536868 .3600006 .0695343 .32899476 .012527466 .2849884 .0055389406 .2579956 .0055389406 .20098877 .0055389406 .16799927 .05253601 .1559906 .08152771 .13699341 .12652588 .13598633 .20953369 .13598633 .2255249 .13598633 .2927704 .16699219 .4007721 .2630005 .4007721 .2789917 .4007721 .32798768 .4007721 .3600006 .33877564 .3789978 .300766 .3789978 .25177003 .3789978 .20376587V.20353699Z"/>
<path id="font_2_100" d="M.49899293 .6435547H.25C.12399292 .6435547 .12098694 .6566467 .117996219 .67578127H.08999634L.056991579 .46655274H.084991458C.08898926 .48954774 .09700012 .5455475 .10998535 .55755618 .116989139 .56355288 .19599915 .56355288 .20999146 .56355288H.41999818L.32398988 .4325409C.19400025 .25354005 .18199158 .090530399 .18199158 .03353882 .18199158 .022537232 .18199158-.022460938 .22799683-.022460938 .2749939-.022460938 .2749939 .021530152 .2749939 .03453064V.08354187C.2749939 .23054505 .29699708 .34654237 .34999085 .41854859L.48999024 .60954287C.49899293 .62054446 .49899293 .62254336 .49899293 .6435547Z"/>
<path id="font_2_51" d="M.46998597 .16764832C.46998597 .26472474 .3959961 .3127594 .37098695 .32876588 .3600006 .33677674 .33099366 .35479737 .31900025 .36180116 .36898805 .38581849 .44198609 .43585206 .44198609 .51690676 .44198609 .6109772 .34799195 .6660156 .2579956 .6660156 .15299988 .6660156 .070999149 .5909729 .070999149 .49890138 .070999149 .46087647 .084991458 .42485047 .10899353 .39582826 .12599182 .3768158 .13198853 .37280274 .18998719 .3357849 .101989749 .29374696 .042999269 .23269654 .042999269 .15063477 .042999269 .044555665 .147995-.022460938 .2559967-.022460938 .37199403-.022460938 .46998597 .059570314 .46998597 .16764832M.3939972 .51690676C.3939972 .44685365 .33399964 .40083314 .2939911 .37780763L.17199707 .45387269C.14199829 .47288514 .11898804 .4998932 .11898804 .53692629 .11898804 .6019745 .18899536 .64100649 .25498963 .64100649 .33198548 .64100649 .3939972 .58695986 .3939972 .51690676M.41600038 .1326294C.41600038 .05357361 .33599855 .0055389406 .25698854 .0055389406 .16999817 .0055389406 .09700012 .06758118 .09700012 .15063477 .09700012 .22268677 .14698792 .28274537 .21699524 .31877137L.34298707 .2407074C.3659973 .22569275 .41600038 .19366455 .41600038 .1326294Z"/>
<path id="font_2_78" d="M.46998597 .3287964C.46998597 .5999756 .34999085 .6660156 .2599945 .6660156 .14498902 .6660156 .042999269 .5729675 .042999269 .44187928 .042999269 .31478883 .1349945 .21875 .24798584 .21875 .32099916 .21875 .36099244 .27175904 .3789978 .31478883V.2927704C.3789978 .04875183 .2679901 .0055389406 .21099854 .0055389406 .18798828 .0055389406 .13699341 .009552002 .11099243 .042755128H.114990238C.12298584 .040740968 .1619873 .04875183 .1619873 .088760379 .1619873 .11476135 .14399719 .13476563 .115997318 .13476563 .08799744 .13476563 .068984989 .116760257 .068984989 .086761478 .068984989 .020629883 .12199402-.022460938 .21199036-.022460938 .34098817-.022460938 .46998597 .10975647 .46998597 .32888795V.3287964M.3769989 .42089845C.3769989 .34788514 .34399415 .2437439 .25 .2437439 .23399353 .2437439 .18499756 .2437439 .15299988 .30584718 .13398743 .34388734 .13398743 .3928833 .13398743 .4409027 .13398743 .48892213 .13398743 .5389557 .15499878 .5769806 .18499756 .628006 .22399903 .64100649 .2599945 .64100649 .32798768 .64100649 .35499574 .5719757 .35899354 .56196597 .37298585 .5249481 .3769989 .46391297 .3769989 .42089845Z"/>
<path id="font_1_27" d="M.71699526 0V.0309906H.69898989C.6389923 .0309906 .625 .037979127 .6139984 .07095337L.397995 .6958008C.3929901 .7088165 .3909912 .7158203 .375 .7158203 .35899354 .7158203 .35598756 .70980837 .35099793 .6958008L.14399719 .09791565C.12599182 .04698181 .085998538 .03199768 .03199768 .0309906V0L.13398743 .0029907227 .24899292 0V.0309906C.19898987 .0309906 .17399597 .05596924 .17399597 .0819397 .17399597 .08493042 .1749878 .09492493 .17599488 .09692383L.22200012 .2277832H.46899415L.5219879 .07495117C.522995 .07095337 .5249939 .064956668 .5249939 .060958864 .5249939 .0309906 .46899415 .0309906 .44198609 .0309906V0C.47799684 .0029907227 .5479889 .0029907227 .58599856 .0029907227L.71699526 0M.45799256 .25878907H.23298645L.34498597 .58380129 .45799256 .25878907Z"/>
<path id="font_1_75" d="M.8129883 0V.0309906C.7609863 .0309906 .73599246 .0309906 .7350006 .061019899V.25221253C.7350006 .3383026 .7350006 .36932374 .70399478 .405365 .6899872 .42237855 .6569977 .4423828 .598999 .4423828 .5149994 .4423828 .47099305 .38233949 .45399476 .34429933 .43998719 .43138124 .3659973 .4423828 .32099916 .4423828 .24798584 .4423828 .20098877 .39935304 .17298889 .33729554V.4423828L.03199768 .43066407V.3996582C.101989749 .3996582 .10998535 .39266969 .10998535 .34370423V.07595825C.10998535 .0309906 .09899902 .0309906 .03199768 .0309906V0L.14498902 .0029907227 .25698854 0V.0309906C.18998719 .0309906 .1789856 .0309906 .1789856 .07595825V.25978089C.1789856 .36431886 .25 .42037965 .31399537 .42037965 .3769989 .42037965 .3880005 .36631776 .3880005 .30926515V.076034549C.3880005 .0309906 .3769989 .0309906 .30999757 .0309906V0L.4229889 .0029907227 .5349884 0V.0309906C.46798707 .0309906 .45700074 .0309906 .45700074 .076034549V.2602234C.45700074 .36431886 .5279999 .42037965 .59199526 .42037965 .6549988 .42037965 .66600039 .36631776 .66600039 .30926515V.076034549C.66600039 .0309906 .6549988 .0309906 .58799746 .0309906V0L.70098879 .0029907227 .8129883 0Z"/>
<path id="font_1_81" d="M.47099305 .21424866C.47099305 .34223939 .37098695 .4482422 .25 .4482422 .125 .4482422 .027999878 .3392334 .027999878 .21424866 .027999878 .085250858 .13198853-.0107421879 .24899292-.0107421879 .36999513-.0107421879 .47099305 .087249759 .47099305 .21424866M.3880005 .22224427C.3880005 .18624878 .3880005 .13224793 .3659973 .08824158 .34399415 .04324341 .2999878 .014251709 .25 .014251709 .20698548 .014251709 .16299439 .035247804 .13598633 .08125305 .11099243 .12524414 .11099243 .18624878 .11099243 .22224427 .11099243 .26124574 .11099243 .31523133 .1349945 .35923768 .1619873 .40522767 .20899964 .426239 .24899292 .426239 .29299928 .426239 .33599855 .40423585 .3619995 .36123658 .3880005 .3182373 .3880005 .26023866 .3880005 .22224427Z"/>
<path id="font_1_109" d="M.5349884 0V.0309906C.46499635 .0309906 .45700074 .037994386 .45700074 .08705139V.4423828L.30999757 .43066407V.3996582C.37998963 .3996582 .3880005 .39266969 .3880005 .34373475V.16601563C.3880005 .07910156 .33999635 .011245728 .2669983 .011245728 .18299866 .011245728 .1789856 .058135988 .1789856 .11009216V.4423828L.03199768 .43066407V.3996582C.10998535 .3996582 .10998535 .39666749 .10998535 .3078003V.15802002C.10998535 .080093387 .10998535-.0107421879 .2619934-.0107421879 .31799317-.0107421879 .3619995 .017242432 .3909912 .07910156V-.0107421879L.5349884 0Z"/>
<path id="font_1_77" d="M.5349884 0V.0309906C.48298646 .0309906 .45799256 .0309906 .45700074 .061019899V.25221253C.45700074 .3383026 .45700074 .36932374 .42599488 .405365 .4119873 .42237855 .3789978 .4423828 .32099916 .4423828 .24798584 .4423828 .20098877 .39935304 .17298889 .33729554V.4423828L.03199768 .43066407V.3996582C.101989749 .3996582 .10998535 .39266969 .10998535 .34370423V.07595825C.10998535 .0309906 .09899902 .0309906 .03199768 .0309906V0L.14498902 .0029907227 .25698854 0V.0309906C.18998719 .0309906 .1789856 .0309906 .1789856 .07595825V.25978089C.1789856 .36431886 .25 .42037965 .31399537 .42037965 .3769989 .42037965 .3880005 .36631776 .3880005 .30926515V.076034549C.3880005 .0309906 .3769989 .0309906 .30999757 .0309906V0L.4229889 .0029907227 .5349884 0Z"/>
<path id="font_1_105" d="M.33198548 .12385559V.18066406H.30699159V.12585449C.30699159 .052108766 .2769928 .014251709 .23999024 .014251709 .17298889 .014251709 .17298889 .10491943 .17298889 .12187195V.3996582H.31599427V.43066407H.17298889V.6142578H.147995C.14698792 .5324249 .116989139 .42565919 .018997193 .42166139V.3996582H.10398865V.12408447C.10398865 .0012512207 .19699097-.0107421879 .23298645-.0107421879 .3039856-.0107421879 .33198548 .060180665 .33198548 .12408447V.12385559Z"/>
<path id="font_1_55" d="M.35699464 .63479617C.35699464 .6717987 .31999208 .7050781 .2669983 .7050781 .19699097 .7050781 .11199951 .65179446 .11199951 .5457611V.43066407H.032989503V.3996582H.11199951V.07595825C.11199951 .0309906 .100997928 .0309906 .033996583 .0309906V0L.147995 .0029907227C.18798828 .0029907227 .23498535 .0029907227 .2749939 0V.0309906H.2539978C.17999268 .0309906 .17799378 .04197693 .17799378 .07795715V.3996582H.2919922V.43066407H.1749878V.5467529C.1749878 .63479617 .22299195 .68307498 .2669983 .68307498 .269989 .68307498 .2849884 .68307498 .2999878 .675827 .28799439 .6717987 .269989 .6587982 .269989 .6338043 .269989 .61079409 .28599549 .5907898 .31298829 .5907898 .34199525 .5907898 .35699464 .61079409 .35699464 .63479617Z"/>
<path id="font_1_66" d="M.24699402 0V.0309906C.18099976 .0309906 .1769867 .035995485 .1769867 .075042728V.4423828L.036987306 .43066407V.3996582C.101989749 .3996582 .11099243 .3936615 .11099243 .3447113V.07595825C.11099243 .0309906 .099990848 .0309906 .032989503 .0309906V0L.14299011 .0029907227C.17799378 .0029907227 .21299744 .0009918213 .24699402 0M.19198609 .603775C.19198609 .6307678 .16899109 .6567688 .13899231 .6567688 .10499573 .6567688 .084991458 .6287689 .084991458 .603775 .084991458 .57676699 .10798645 .55078127 .13798523 .55078127 .17199707 .55078127 .19198609 .5787811 .19198609 .603775Z"/>
<path id="font_1_72" d="M.25498963 0V.0309906C.18798828 .0309906 .1769867 .0309906 .1769867 .07601929V.69433596L.032989503 .6826172V.6516113C.102996829 .6516113 .11099243 .64460757 .11099243 .5956421V.07595825C.11099243 .0309906 .099990848 .0309906 .032989503 .0309906V0L.14399719 .0029907227 .25498963 0Z"/>
<path id="font_1_70" d="M.5109863 0V.0309906C.47399903 .0309906 .45199586 .0309906 .4139862 .0839386L.2869873 .26278688C.28599549 .26478578 .2809906 .2707672 .2809906 .2737732 .2809906 .277771 .35198976 .33770753 .3619995 .34570313 .4249878 .39666749 .46699525 .39865113 .48799134 .3996582V.43066407C.45899964 .42765809 .44599916 .42765809 .41799928 .42765809 .38198854 .42765809 .31999208 .42965699 .30599977 .43066407V.3996582C.32499696 .39865113 .33499146 .3876648 .33499146 .37467958 .33499146 .3547058 .32099916 .3427124 .31298829 .33570863L.17199707 .21382141V.69433596L.027999878 .6826172V.6516113C.09799194 .6516113 .10598755 .64460757 .10598755 .5956421V.07595825C.10598755 .0309906 .09498596 .0309906 .027999878 .0309906V0L.13699341 .0029907227 .24699402 0V.0309906C.17999268 .0309906 .16899109 .0309906 .16899109 .07595825V.17889405L.23298645 .23387146C.30999757 .12792969 .35198976 .07196045 .35198976 .053985597 .35198976 .034988405 .33499146 .0309906 .31599427 .0309906V0L.42399598 .0029907227C.45298768 .0029907227 .48199464 .0019989014 .5109863 0Z"/>
<path id="font_1_98" d="M.3600006 .12823487C.3600006 .18122864 .32998658 .21122742 .31799317 .22323609 .2849884 .25523377 .24598694 .26322938 .20399475 .27124024 .147995 .28224183 .08099365 .29522706 .08099365 .35324098 .08099365 .38822938 .10699463 .42922975 .19299317 .42922975 .30299378 .42922975 .30799867 .3392334 .30999757 .30822755 .31098939 .2992401 .32199098 .2992401 .32199098 .2992401 .33499146 .2992401 .33499146 .30422975 .33499146 .32322694V.4242401C.33499146 .4412384 .33499146 .4482422 .32398988 .4482422 .31900025 .4482422 .31698609 .4482422 .3039856 .43623353 .30099488 .43223573 .29100038 .42323304 .2869873 .42022706 .24899292 .4482422 .20799256 .4482422 .19299317 .4482422 .070999149 .4482422 .032989503 .38124085 .032989503 .3252411 .032989503 .29023744 .04899597 .26223756 .07598877 .24023438 .10798645 .2142334 .13598633 .2082367 .20799256 .19422913 .22999573 .19021607 .31199647 .17422486 .31199647 .10221863 .31199647 .051223756 .2769928 .011245728 .19898987 .011245728 .114990238 .011245728 .07899475 .068222049 .05999756 .1532135 .056991579 .16621399 .055999757 .17021179 .04598999 .17021179 .032989503 .17021179 .032989503 .16322327 .032989503 .1452179V.013214111C.032989503-.003753662 .032989503-.0107421879 .04399109-.0107421879 .04899597-.0107421879 .049987794-.009750366 .068984989 .009246826 .070999149 .011245728 .070999149 .013214111 .08898926 .032226564 .1329956-.009750366 .17799378-.0107421879 .19898987-.0107421879 .31399537-.0107421879 .3600006 .05621338 .3600006 .1282196V.12823487Z"/>
<path id="font_1_28" d="M.48298646 .08912659V.14511109H.45799256V.08912659C.45799256 .03112793 .43299867 .025131226 .42199708 .025131226 .3889923 .025131226 .3849945 .070129398 .3849945 .07511902V.27508546C.3849945 .31707765 .3849945 .3560791 .34899903 .39312745 .30999757 .43223573 .2599945 .4482422 .21199036 .4482422 .12998963 .4482422 .06098938 .40115357 .06098938 .335083 .06098938 .30508424 .08099365 .28808595 .10699463 .28808595 .1349945 .28808595 .15299988 .30807496 .15299988 .33407594 .15299988 .3460846 .147995 .37908937 .101989749 .38008119 .1289978 .41519166 .17799378 .426239 .20999146 .426239 .25898744 .426239 .31599427 .38710023 .31599427 .29808045V.26107789C.2649994 .25808717 .19499207 .25508119 .13198853 .22509766 .056991579 .19110108 .03199768 .13911438 .03199768 .09512329 .03199768 .014251709 .1289978-.0107421879 .19198609-.0107421879 .2579956-.0107421879 .3039856 .029251099 .32299806 .07624817 .32699586 .036132814 .35398866-.005859375 .40098573-.005859375 .42199708-.005859375 .48298646 .008132935 .48298646 .08912659M.31599427 .14013672C.31599427 .04525757 .24398804 .011245728 .19898987 .011245728 .1499939 .011245728 .10899353 .04624939 .10899353 .09625244 .10899353 .15124512 .15098572 .23425293 .31599427 .24024964V.14013672Z"/>
<path id="font_1_50" d="M.4149933 .11933899C.4149933 .12934876 .40699769 .13134766 .4019928 .13134766 .3929901 .13134766 .3909912 .12535095 .3889923 .11734009 .35398866 .014251709 .2639923 .014251709 .2539978 .014251709 .20399475 .014251709 .1639862 .044281007 .14099121 .08131409 .11099243 .12934876 .11099243 .19540406 .11099243 .23144531H.3899994C.4119873 .23144531 .4149933 .23144531 .4149933 .2524414 .4149933 .35131837 .36099244 .4482422 .23599243 .4482422 .11999512 .4482422 .027999878 .34532167 .027999878 .22042847 .027999878 .08631897 .1329956-.0107421879 .24798584-.0107421879 .36999513-.0107421879 .4149933 .10032654 .4149933 .11933899M.34899903 .2524414H.11199951C.117996219 .40126039 .20199585 .426239 .23599243 .426239 .33898927 .426239 .34899903 .2913971 .34899903 .2524414Z"/>
<path id="font_1_85" d="M.33099366-.2400055C.33099366-.23701477 .33099366-.23500061 .31399537-.21800232 .18899536-.0920105 .15699768 .09700012 .15699768 .25 .15699768 .42399598 .19499207 .59799197 .31799317 .72299197 .33099366 .7350006 .33099366 .7369995 .33099366 .73999026 .33099366 .746994 .32699586 .75 .32099916 .75 .31098939 .75 .22099304 .6819916 .1619873 .5549927 .11099243 .44499208 .09899902 .33399964 .09899902 .25 .09899902 .17199707 .10998535 .050994874 .16499329-.06201172 .22499085-.18501282 .31098939-.25 .32099916-.25 .32699586-.25 .33099366-.24700928 .33099366-.2400055Z"/>
<path id="font_1_96" d="M.3639984 .38137818C.3639984 .41337586 .33299256 .4423828 .2899933 .4423828 .21699524 .4423828 .18099976 .37538148 .16699219 .3323822V.4423828L.027999878 .43066407V.3996582C.09799194 .3996582 .10598755 .39266969 .10598755 .34370423V.07595825C.10598755 .0309906 .09498596 .0309906 .027999878 .0309906V0L.14199829 .0029907227C.18199158 .0029907227 .22898865 .0029907227 .2689972 0V.0309906H.24798584C.17399597 .0309906 .17199707 .04197693 .17199707 .07795715V.23181153C.17199707 .33137513 .21398926 .42037965 .2899933 .42037965 .29699708 .42037965 .29899598 .42037965 .30099488 .41937257 .2979889 .41838075 .27799989 .40637208 .27799989 .3803711 .27799989 .35237123 .29899598 .33737184 .32099916 .33737184 .33898927 .33737184 .3639984 .3493805 .3639984 .38137818Z"/>
<path id="font_1_86" d="M.2889862 .25C.2889862 .32798768 .27799989 .44898988 .22299195 .56199648 .16299439 .68499758 .07699585 .75 .066986087 .75 .06098938 .75 .056991579 .74598696 .056991579 .73999026 .056991579 .7369995 .056991579 .7350006 .07598877 .71699526 .17399597 .6179962 .23098755 .45899964 .23098755 .25 .23098755 .07899475 .19400025-.09700012 .069992069-.2230072 .056991579-.23500061 .056991579-.23701477 .056991579-.2400055 .056991579-.2460022 .06098938-.25 .066986087-.25 .07699585-.25 .16699219-.18200684 .22599793-.055007936 .2769928 .054992677 .2889862 .16600037 .2889862 .25Z"/>
<path id="font_1_54" d="M.6100006 .45477296 .58200076 .6796875H.032989503V.64868167H.056991579C.13398743 .64868167 .13598633 .63768008 .13598633 .6016998V.07797241C.13598633 .041992189 .13398743 .0309906 .056991579 .0309906H.032989503V0C.067993167 .0029907227 .1459961 .0029907227 .18499756 .0029907227 .22599793 .0029907227 .31698609 .0029907227 .35299684 0V.0309906H.31999208C.22499085 .031188965 .22499085 .044189454 .22499085 .079193118V.3251953H.31098939C.40699769 .3251953 .4169922 .29318238 .4169922 .20819092H.44198609V.4731903H.4169922C.4169922 .38919068 .40699769 .3561859 .31098939 .3561859H.22499085V.6091919C.22499085 .64167788 .22698975 .64868167 .27398683 .64868167H.3939972C.5439911 .64868167 .56900027 .5926819 .58499148 .4546814L.6100006 .45477296Z"/>
<path id="font_1_91" d="M.5269928-.1940918V-.16308594C.45999146-.16308594 .44898988-.16308594 .44898988-.117996219V.4423828H.4269867L.3889923 .35136415C.37599183 .379364 .33499146 .4423828 .25498963 .4423828 .13899231 .4423828 .033996583 .34535218 .033996583 .21531677 .033996583 .090270999 .1309967-.0107421879 .24699402-.0107421879 .31698609-.0107421879 .35798646 .03225708 .37998963 .061264039V-.117996219C.37998963-.16308594 .36898805-.16308594 .3019867-.16308594V-.1940918L.4139862-.19110108 .5269928-.1940918M.3829956 .1362915C.3829956 .104278568 .36499024 .07626343 .34298707 .052261354 .32998658 .038253786 .2979889 .011245728 .25099183 .011245728 .17799378 .011245728 .116989139 .10028076 .116989139 .21531677 .116989139 .3343506 .18699646 .41737367 .26098634 .41737367 .34098817 .41737367 .3829956 .33035279 .3829956 .2773285V.1362915Z"/>
<path id="font_1_43" d="M.4149933 .119140628C.4149933 .12911988 .40499879 .12911988 .4019928 .12911988 .3929901 .12911988 .3909912 .12512207 .3889923 .119140628 .3600006 .026229859 .29499818 .014251709 .2579956 .014251709 .20498657 .014251709 .116989139 .0572052 .116989139 .21801758 .116989139 .38093568 .19898987 .42323304 .2519989 .42323304 .26098634 .42323304 .32398988 .42222596 .35899354 .38594056 .31799317 .38293458 .31199647 .3529358 .31199647 .3399353 .31199647 .31393434 .32998658 .2939453 .35798646 .2939453 .38398744 .2939453 .4039917 .3109436 .4039917 .34094239 .4039917 .40911866 .32798768 .4482422 .25099183 .4482422 .12599182 .4482422 .033996583 .3399353 .033996583 .21601868 .033996583 .08816528 .1329956-.0107421879 .24899292-.0107421879 .3829956-.0107421879 .4149933 .10914612 .4149933 .119140628Z"/>
<path id="font_1_118" d="M.5079956 .3996582V.43066407C.4850006 .4286499 .45599366 .42765809 .43299867 .42765809L.34599305 .43066407V.3996582C.3769989 .39866639 .3929901 .3816681 .3929901 .35668946 .3929901 .34669496 .3919983 .34469605 .3869934 .33270265L.28599549 .08685303 .1749878 .35568238C.17098999 .36567689 .16899109 .36967469 .16899109 .3736725 .16899109 .3996582 .20599365 .3996582 .22499085 .3996582V.43066407L.115997318 .42765809C.08898926 .42765809 .04899597 .4286499 .018997193 .43066407V.3996582C.066986087 .3996582 .085998538 .3996582 .099990848 .36468507L.25-.000091552738 .22499085-.059066774C.20298767-.11407471 .1749878-.18309021 .11099243-.18309021 .10598755-.18309021 .08299255-.18309021 .06399536-.16503906 .09498596-.16104126 .102996829-.13905335 .102996829-.123046878 .102996829-.0970459 .083999637-.08103943 .06098938-.08103943 .040985109-.08103943 .018997193-.09403992 .018997193-.124053958 .018997193-.16905213 .06098938-.20507813 .11099243-.20507813 .17399597-.20507813 .21499634-.14804077 .23899842-.091049198L.4149933 .33569337C.44099427 .39865113 .49198915 .3996582 .5079956 .3996582Z"/>
<path id="font_3_62" d="M.9069977 0V.051986696H.798996V.6335449H.9069977V.6855469C.86898806 .6825409 .7679901 .6825409 .72499087 .6825409 .68099978 .6825409 .5799866 .6825409 .5419922 .6855469V.6335449H.6499939V.3828125H.3039856V.6335449H.4119873V.6855469C.37399293 .6825409 .272995 .6825409 .22999573 .6825409 .18598938 .6825409 .084991458 .6825409 .04699707 .6855469V.6335449H.15499878V.051986696H.04699707V0C.084991458 .0029907227 .18598938 .0029907227 .22999573 .0029907227 .272995 .0029907227 .37399293 .0029907227 .4119873 0V.051986696H.3039856V.33081056H.6499939V.051986696H.5419922V0C.5799866 .0029907227 .68099978 .0029907227 .72499087 .0029907227 .7679901 .0029907227 .86898806 .0029907227 .9069977 0Z"/>
<path id="font_3_66" d="M.2999878 0V.051986696H.24099732V.45117188L.06199646 .44335938V.39135743C.117996219 .39135743 .125 .39135743 .125 .35331727V.051986696H.05899048V0C.116989139 .0029907227 .12799073 .0029907227 .18099976 .0029907227 .22200012 .0029907227 .25099183 .0029907227 .2999878 0M.25099183 .6053772C.25099183 .6503906 .21299744 .685379 .17098999 .685379 .12599182 .685379 .08999634 .64938357 .08999634 .6053772 .08999634 .560379 .12799073 .5253906 .16999817 .5253906 .21499634 .5253906 .25099183 .5613861 .25099183 .6053772Z"/>
<path id="font_3_98" d="M.44099427 .14112854C.44099427 .18511963 .42099 .21511841 .397995 .2361145 .35398866 .2770996 .3019867 .2850952 .2639923 .29110719 .17298889 .3060913 .117996219 .315094 .117996219 .35908509 .117996219 .41807557 .21499634 .41807557 .23599243 .41807557 .34799195 .41807557 .35299684 .36408998 .35499574 .3360901 .35699464 .32009889 .37098695 .32009889 .3829956 .32009889 .4099884 .32009889 .41099549 .3270874 .41099549 .35108949V.42407228C.41099549 .44306947 .41099549 .45507813 .3889923 .45507813 .3809967 .45507813 .37799073 .45507813 .34399415 .43806459 .3019867 .45507813 .25498963 .45507813 .23799134 .45507813 .20399475 .45507813 .040985109 .45507813 .040985109 .3210907 .040985109 .2761078 .066986087 .24711609 .09199524 .2281189 .13198853 .20011902 .1749878 .19311524 .23999024 .1821289 .2899933 .1741333 .3639984 .16212464 .3639984 .10714722 .3639984 .03715515 .27598573 .03515625 .24499512 .03515625 .14299011 .03515625 .11399841 .09214783 .09799194 .13912964 .09298706 .15612793 .09098816 .15812683 .068984989 .15812683 .040985109 .15812683 .040985109 .15013123 .040985109 .12713623V.024154664C.040985109 .0051574709 .040985109-.0068359377 .06298828-.0068359377 .07199097-.0068359377 .07398987-.0068359377 .09498596 .006149292L.12098694 .023162842C.17098999-.0068359377 .22399903-.0068359377 .24499512-.0068359377 .27598573-.0068359377 .44099427-.0068359377 .44099427 .14112854Z"/>
<path id="font_3_105" d="M.40699769 .12319946V.17422486H.35099793V.12519837C.35099793 .056167604 .31298829 .040161134 .2899933 .040161134 .23199463 .040161134 .23098755 .093185428 .23098755 .12019348V.39233399H.3869934V.44433595H.23098755V.6357422H.1749878C.17399597 .53652957 .12298584 .43632508 .022994996 .43432618V.39233399H.10899353V.12319946C.10899353 .02015686 .18998719-.0068359377 .2749939-.0068359377 .35099793-.0068359377 .40699769 .044158937 .40699769 .12319946Z"/>
<path id="font_3_81" d="M.5779877 .21810913C.5779877 .3440857 .4889984 .45507813 .30599977 .45507813 .12199402 .45507813 .033996583 .3430786 .033996583 .21810913 .033996583 .09913635 .12199402-.0068359377 .30599977-.0068359377 .49198915-.0068359377 .5779877 .10014343 .5779877 .21810913M.44299317 .2301178C.44299317 .14312744 .44299317 .040161134 .30599977 .040161134 .16899109 .040161134 .16899109 .14312744 .16899109 .2301178 .16899109 .312088 .16899109 .41307069 .30599977 .41307069 .44299317 .41307069 .44299317 .3110962 .44299317 .2301178Z"/>
<path id="font_3_59" d="M.59498599 .39317323C.59498599 .42315675 .57199099 .4581604 .5249939 .4581604 .48599244 .4581604 .44099427 .4421692 .4119873 .41915895 .37599183 .4391632 .33499146 .45117188 .27198792 .45117188 .10998535 .45117188 .06098938 .3631897 .06098938 .30223084 .06098938 .24423218 .09498596 .2142334 .11299133 .19824219 .09298706 .17428589 .07998657 .14233399 .07998657 .10932922 .07998657 .072906497 .09498596 .037902833 .12098694 .012908936 .07899475 .0019073486 .033996583-.02609253 .033996583-.07411194 .033996583-.12713623 .09298706-.20214844 .30599977-.20214844 .49499513-.20214844 .5779877-.14215088 .5779877-.071121219 .5779877 .025909424 .5029907 .056900026 .48199464 .06491089 .42799378 .08691406 .36698915 .08691406 .27598573 .08691406H.22399903C.19400025 .08691406 .1749878 .08691406 .1599884 .10015869 .1499939 .1103363 .13699341 .1253357 .13699341 .14933777 .13699341 .15931702 .13999939 .17030335 .14498902 .17727661 .18598938 .15731812 .23498535 .15234375 .27198792 .15234375 .43399049 .15234375 .48298646 .24023438 .48298646 .301239 .48298646 .3551941 .44898988 .3901825 .44299317 .39517213 .46998597 .40916444 .48999024 .4121704 .5039978 .4141693 .5009918 .40815736 .5 .3981781 .5 .39317323 .5 .36488343 .519989 .34475709 .5469971 .34475709 .57398989 .34475709 .59498599 .36488343 .59498599 .3930664V.39317323M.36698915 .3017578C.36698915 .259964 .36698915 .1953125 .27198792 .1953125 .1769867 .1953125 .1769867 .2609558 .1769867 .30075074 .1769867 .34274293 .1769867 .40815736 .27198792 .40815736 .36698915 .40815736 .36698915 .3417511 .36698915 .3017578M.4850006-.07411194C.4850006-.10813904 .44299317-.15914917 .30599977-.15914917 .17399597-.15914917 .1269989-.11112976 .1269989-.07312012 .1269989-.017089844 .19198609-.017089844 .20698548-.017089844H.33399964C.3639984-.017089844 .4850006-.017089844 .4850006-.07411194Z"/>
<path id="font_3_96" d="M.47099305 .36416627C.47099305 .41915895 .4149933 .45117188 .35699464 .45117188 .27198792 .45117188 .23098755 .38116456 .21598816 .34317018L.21499634 .344162V.45117188L.04598999 .44335938V.39135743C.10499573 .39135743 .11199951 .39135743 .11199951 .35231019V.051986696H.04598999V0C.10398865 .0029907227 .11399841 .0029907227 .17399597 .0029907227L.30999757 0V.051986696H.22799683V.2141571C.22799683 .2932434 .25898744 .4063568 .35499574 .40934754 .35499574 .40916444 .33898927 .39216615 .33898927 .36416627 .33898927 .3241577 .36799623 .29815675 .40499879 .29815675 .44198609 .29815675 .47099305 .3251648 .47099305 .36416627Z"/>
<path id="font_3_28" d="M.58898928 .025985718C.58898928 .051986696 .57299807 .051986696 .5589905 .051986696 .49699403 .051986696 .49699403 .06199646 .49699403 .085006717V.29605104C.49699403 .38606263 .4249878 .45507813 .2619934 .45507813 .21299744 .45507813 .069992069 .45507813 .069992069 .35606385 .069992069 .31204225 .10398865 .28804017 .13699341 .28804017 .1769867 .28804017 .20498657 .31704713 .20498657 .35505677 .20498657 .3870697 .18399048 .4060669 .18399048 .4060669 .19198609 .4080658 .22099304 .41307069 .2599945 .41307069 .33999635 .41307069 .375 .36906434 .375 .29704286V.2680359C.22499085 .26704408 .02999878 .23402405 .02999878 .11199951 .02999878 .027160645 .12599182-.0068359377 .23498535-.0068359377 .33799745-.0068359377 .3809967 .04815674 .3939972 .06816101 .3939972 .037994386 .40499879 0 .5019989 0H.5549927C.57398989 0 .58898928 0 .58898928 .025985718M.375 .13699341C.375 .03515625 .25498963 .03515625 .25099183 .03515625 .19898987 .03515625 .1519928 .066207889 .1519928 .11427307 .1519928 .1843872 .24499512 .22746277 .375 .23046875V.13699341Z"/>
<path id="font_3_75" d="M.98999026 0V.051986696H.923996V.3034973C.923996 .42315675 .8509979 .45117188 .7589874 .45117188 .6539917 .45117188 .598999 .39059449 .5779877 .35958863 .55400088 .4371643 .4869995 .45117188 .4189911 .45117188 .2979889 .45117188 .24398804 .3715973 .23199463 .34959413H.23098755V.45117188L.055999757 .44335938V.39135743C.114990238 .39135743 .12199402 .39135743 .12199402 .35231019V.051986696H.055999757V0C.10998535 .0029907227 .14498902 .0029907227 .18299866 .0029907227 .22200012 .0029907227 .2559967 .0029907227 .30999757 0V.051986696H.24398804V.25320436C.24398804 .36413575 .33999635 .40916444 .4039917 .40916444 .43899537 .40916444 .46199037 .39215089 .46199037 .31411744V.051986696H.3959961V0C.44999696 .0029907227 .4850006 .0029907227 .522995 .0029907227 .56199648 .0029907227 .59599307 .0029907227 .6499939 0V.051986696H.58399966V.25308229C.58399966 .36413575 .6799927 .40916444 .74398806 .40916444 .7789917 .40916444 .8019867 .39215089 .8019867 .31411744V.051986696H.73599246V0C.7899933 .0029907227 .82499697 .0029907227 .86299136 .0029907227 .9019928 .0029907227 .9359894 .0029907227 .98999026 0Z"/>
<path id="font_3_63" d="M.6499939 0V.051986696H.58399966V.30311585C.58399966 .4251709 .5079956 .45117188 .4189911 .45117188 .31399537 .45117188 .25898744 .39015199 .23799134 .35914613V.69433596L.055999757 .6855469V.6335449C.114990238 .6335449 .12199402 .6335449 .12199402 .5946808V.051986696H.055999757V0C.10998535 .0029907227 .14498902 .0029907227 .18299866 .0029907227 .22200012 .0029907227 .2559967 .0029907227 .30999757 0V.051986696H.24398804V.25308229C.24398804 .36413575 .33999635 .40916444 .4039917 .40916444 .43899537 .40916444 .46199037 .39215089 .46199037 .31411744V.051986696H.3959961V0C.44999696 .0029907227 .4850006 .0029907227 .522995 .0029907227 .56199648 .0029907227 .59599307 .0029907227 .6499939 0Z"/>
<path id="font_3_114" d="M.85598757 .39233399V.44433595C.82099917 .44132997 .81900027 .44132997 .7739868 .44132997 .74198916 .44132997 .71199038 .44132997 .6799927 .44433595V.39233399C.69599917 .39233399 .71199038 .39233399 .73298647 .38432313 .73098757 .37832643 .7299957 .37431336 .7279968 .37031556L.61898806 .11817932 .5009918 .39233399H.5519867V.44433595C.5069885 .44132997 .46099855 .44132997 .43998719 .44132997 .4229889 .44132997 .36799623 .44132997 .33799745 .44433595V.39233399H.394989C.397995 .3853302 .4059906 .36631776 .41099549 .35630799 .40899659 .3493042 .4079895 .34629823 .4059906 .3413086L.31999208 .14118958 .21199036 .39233399H.2619934V.44433595C.20399475 .44132997 .18798828 .44132997 .14099121 .44132997 .11898804 .44132997 .06298828 .44132997 .027999878 .44433595V.39233399H.085998538L.24398804 .023132325C.2559967-.0048828127 .272995-.0048828127 .2869873-.0048828127 .31698609-.0048828127 .32099916 .004119873 .32998658 .025131226L.44198609 .28326417 .55400088 .025131226C.5629883 .004119873 .5669861-.0048828127 .5970001-.0048828127 .6119995-.0048828127 .6279907-.0048828127 .6399994 .023132325L.7899933 .37132264C.7969971 .38832093 .798996 .39233399 .85598757 .39233399Z"/>
<path id="font_3_77" d="M.6499939 0V.051986696H.58399966V.3034973C.58399966 .4251709 .5079956 .45117188 .4189911 .45117188 .2979889 .45117188 .24398804 .3715973 .23199463 .34959413H.23098755V.45117188L.055999757 .44335938V.39135743C.114990238 .39135743 .12199402 .39135743 .12199402 .35231019V.051986696H.055999757V0C.10998535 .0029907227 .14498902 .0029907227 .18299866 .0029907227 .22200012 .0029907227 .2559967 .0029907227 .30999757 0V.051986696H.24398804V.25320436C.24398804 .36413575 .33999635 .40916444 .4039917 .40916444 .43899537 .40916444 .46199037 .39215089 .46199037 .31411744V.051986696H.3959961V0C.44999696 .0029907227 .4850006 .0029907227 .522995 .0029907227 .56199648 .0029907227 .59599307 .0029907227 .6499939 0Z"/>
<path id="font_3_72" d="M.30699159 0V.051986696H.24099732V.69433596L.05899048 .6855469V.6335449C.117996219 .6335449 .125 .6335449 .125 .594574V.051986696H.05899048V0C.116989139 .0029907227 .1269989 .0029907227 .18299866 .0029907227 .23899842 .0029907227 .24899292 .0029907227 .30699159 0Z"/>
<path id="font_3_50" d="M.526001 .11508179C.526001 .13604737 .5049896 .13604737 .49798585 .13604737 .48098756 .13604737 .47698976 .13404846 .46899415 .11706543 .43699647 .04714966 .35198976 .040161134 .32398988 .040161134 .17599488 .040161134 .17098999 .15603638 .16899109 .2119751H.49198915C.5130005 .2119751 .526001 .2119751 .526001 .2409668 .526001 .28399659 .5159912 .35003663 .46598817 .3990631 .4099884 .45507813 .31999208 .45507813 .29699708 .45507813 .11898804 .45507813 .033996583 .34402467 .033996583 .2259674 .033996583 .09609985 .13398743-.0068359377 .31199647-.0068359377 .48799134-.0068359377 .526001 .10108948 .526001 .11508179M.42799378 .25097657H.16899109C.16999817 .29100038 .17399597 .41307069 .2979889 .41307069 .42199708 .41307069 .4269867 .2899933 .42799378 .25097657Z"/>
<path id="font_3_55" d="M.46699525 .60920718C.46699525 .6551819 .4269867 .7011719 .34298707 .7011719 .24198914 .7011719 .125 .6601715 .125 .54125979V.44433595H.04598999V.39233399H.125V.051986696H.05899048V0C.116989139 .0029907227 .1269989 .0029907227 .18699646 .0029907227L.32299806 0V.051986696H.24099732V.39233399H.36299134V.44433595H.23498535V.5422516C.23498535 .59721377 .2579956 .6591797 .33999635 .6591797 .34298707 .6591797 .35299684 .6571808 .35299684 .6571808 .35299684 .6571808 .35299684 .6551819 .35099793 .653183 .33999635 .6409912 .33499146 .625 .33499146 .60899356 .33499146 .5649872 .36999513 .54299929 .40098573 .54299929 .43099977 .54299929 .46699525 .5649872 .46699525 .60899356V.60920718Z"/>
<path id="font_3_70" d="M.6259918 0V.051986696H.6069946C.56799319 .051986696 .56199648 .054992677 .5499878 .0690155L.36999513 .2742157 .5099945 .37631227C.5239868 .38632203 .5319977 .39233399 .598999 .39233399V.44433595C.56399539 .44132997 .56199648 .44132997 .5119934 .44132997 .47299195 .44132997 .45599366 .44132997 .40098573 .44433595V.39233399C.41600038 .39233399 .4189911 .389328 .4229889 .3833313L.22799683 .24032593V.69433596L.04598999 .6855469V.6335449C.10499573 .6335449 .11199951 .6335449 .11199951 .594574V.051986696H.04598999V0C.09700012 .0029907227 .12799073 .0029907227 .1659851 .0029907227 .20799256 .0029907227 .23599243 .0029907227 .2869873 0V.051986696H.22099304V.16490174L.28599549 .21287537C.3019867 .19587708 .41999818 .0639801 .41999818 .05899048 .41999818 .051986696 .40499879 .051986696 .39698792 .051986696V0C.45498658 .0029907227 .47200013 .0029907227 .5169983 .0029907227 .5309906 .0029907227 .59399417 .0029907227 .6259918 0Z"/>
</defs>
<path transform="matrix(1.00008,0,0,-1.00002,33.975519,381.1464)" stroke-width=".19925" stroke-linecap="butt" stroke-miterlimit="10" stroke-linejoin="miter" fill="none" stroke="#d9d9d9" d="M0 0H340.1617M0 2.83484H340.1617M0 5.6697H340.1617M0 8.50455H340.1617M0 11.33939H340.1617M0 14.17424H340.1617M0 17.0091H340.1617M0 19.84393H340.1617M0 22.67879H340.1617M0 25.51364H340.1617M0 28.3485H340.1617M0 31.18333H340.1617M0 34.01819H340.1617M0 36.85304H340.1617M0 39.68788H340.1617M0 42.52274H340.1617M0 45.35759H340.1617M0 48.19244H340.1617M0 51.02728H340.1617M0 53.86214H340.1617M0 56.69699H340.1617M0 59.53183H340.1617M0 62.36668H340.1617M0 65.20154H340.1617M0 68.03639H340.1617M0 70.87123H340.1617M0 73.70609H340.1617M0 76.54094H340.1617M0 79.37578H340.1617M0 82.21063H340.1617M0 85.04549H340.1617M0 87.88034H340.1617M0 90.71518H340.1617M0 93.55003H340.1617M0 96.38489H340.1617M0 99.21973H340.1617M0 102.05458H340.1617M0 104.88943H340.1617M0 107.72429H340.1617M0 110.55913H340.1617M0 113.39398H340.1617M0 116.22884H340.1617M0 119.06367H340.1617M0 121.89853H340.1617M0 124.73338H340.1617M0 127.56824H340.1617M0 130.40308H340.1617M0 133.23793H340.1617M0 136.07279H340.1617M0 138.90763H340.1617M0 141.74248H340.1617M0 144.57733H340.1617M0 147.41219H340.1617M0 150.24703H340.1617M0 153.08188H340.1617M0 155.91674H340.1617M0 158.75157H340.1617M0 161.58643H340.1617M0 164.42128H340.1617M0 167.25612H340.1617M0 170.09098H340.1617M0 172.92583H340.1617M0 175.76068H340.1617M0 178.59552H340.1617M0 181.43038H340.1617M0 184.26523H340.1617M0 187.10007H340.1617M0 189.93492H340.1617M0 192.76978H340.1617M0 195.60463H340.1617M0 198.43947H340.1617M0 201.27433H340.1617M0 204.10918H340.1617M0 206.94402H340.1617M0 209.77887H340.1617M0 212.61373H340.1617M0 215.44858H340.1617M0 218.28342H340.1617M0 221.11827H340.1617M0 223.95313H340.1617M0 226.78797H340.1617M0 229.62282H340.1617M0 232.45767H340.1617M0 235.29253H340.1617M0 238.12737H340.1617M0 240.96222H340.1617M0 243.79708H340.1617M0 246.63191H340.1617M0 249.46677H340.1617M0 252.30162H340.1617M0 255.13648H340.1617M0 257.9713H340.1617M0 260.80619H340.1617M0 263.64103H340.1617M0 266.47587H340.1617M0 269.3107H340.1617M0 272.14558H340.1617M0 274.9804H340.1617M0 277.81526H340.1617M0 280.65013H340.1617M0 283.48497H340.1617M0 286.31983H340.1617M0 289.15467H340.1617M0 291.98954H340.1617M0 294.82438H340.1617M0 297.6592H340.1617M0 300.49406H340.1617M0 303.32893H340.1617M0 306.16377H340.1617M0 308.9986H340.1617M0 311.83348H340.1617M0 314.66835H340.1617M0 317.50318H340.1617M0 320.338H340.1617M0 323.17289H340.1617M0 326.0077H340.1617M0 328.84257H340.1617M0 331.6774H340.1617M0 334.51225H340.1617M0 337.3471H340.1617M0 340.18196H340.1617M0 343.0168H340.1617M0 345.85166H340.1617M0 348.68653H340.1617M0 351.52137H340.1617M0 354.3562H340.1617M0 357.19108H340.1617M0 360.0259H340.1617M0 362.86076H340.1617M0 365.6956H340.1617M0 0V368.5085M2.83484 0V368.5085M5.6697 0V368.5085M8.50455 0V368.5085M11.33939 0V368.5085M14.17424 0V368.5085M17.0091 0V368.5085M19.84393 0V368.5085M22.67879 0V368.5085M25.51364 0V368.5085M28.3485 0V368.5085M31.18333 0V368.5085M34.01819 0V368.5085M36.85304 0V368.5085M39.68788 0V368.5085M42.52274 0V368.5085M45.35759 0V368.5085M48.19244 0V368.5085M51.02728 0V368.5085M53.86214 0V368.5085M56.69699 0V368.5085M59.53183 0V368.5085M62.36668 0V368.5085M65.20154 0V368.5085M68.03639 0V368.5085M70.87123 0V368.5085M73.70609 0V368.5085M76.54094 0V368.5085M79.37578 0V368.5085M82.21063 0V368.5085M85.04549 0V368.5085M87.88034 0V368.5085M90.71518 0V368.5085M93.55003 0V368.5085M96.38489 0V368.5085M99.21973 0V368.5085M102.05458 0V368.5085M104.88943 0V368.5085M107.72429 0V368.5085M110.55913 0V368.5085M113.39398 0V368.5085M116.22884 0V368.5085M119.06367 0V368.5085M121.89853 0V368.5085M124.73338 0V368.5085M127.56824 0V368.5085M130.40308 0V368.5085M133.23793 0V368.5085M136.07279 0V368.5085M138.90763 0V368.5085M141.74248 0V368.5085M144.57733 0V368.5085M147.41219 0V368.5085M150.24703 0V368.5085M153.08188 0V368.5085M155.91674 0V368.5085M158.75157 0V368.5085M161.58643 0V368.5085M164.42128 0V368.5085M167.25612 0V368.5085M170.09098 0V368.5085M172.92583 0V368.5085M175.76068 0V368.5085M178.59552 0V368.5085M181.43038 0V368.5085M184.26523 0V368.5085M187.10007 0V368.5085M189.93492 0V368.5085M192.76978 0V368.5085M195.60463 0V368.5085M198.43947 0V368.5085M201.27433 0V368.5085M204.10918 0V368.5085M206.94402 0V368.5085M209.77887 0V368.5085M212.61373 0V368.5085M215.44858 0V368.5085M218.28342 0V368.5085M221.11827 0V368.5085M223.95313 0V368.5085M226.78797 0V368.5085M229.62282 0V368.5085M232.45767 0V368.5085M235.29253 0V368.5085M238.12737 0V368.5085M240.96222 0V368.5085M243.79708 0V368.5085M246.63191 0V368.5085M249.46677 0V368.5085M252.30162 0V368.5085M255.13648 0V368.5085M257.9713 0V368.5085M260.80619 0V368.5085M263.64103 0V368.5085M266.47587 0V368.5085M269.3107 0V368.5085M272.14558 0V368.5085M274.9804 0V368.5085M277.81526 0V368.5085M280.65013 0V368.5085M283.48497 0V368.5085M286.31983 0V368.5085M289.15467 0V368.5085M291.98954 0V368.5085M294.82438 0V368.5085M297.6592 0V368.5085M300.49406 0V368.5085M303.32893 0V368.5085M306.16377 0V368.5085M308.9986 0V368.5085M311.83348 0V368.5085M314.66835 0V368.5085M317.50318 0V368.5085M320.338 0V368.5085M323.17289 0V368.5085M326.0077 0V368.5085M328.84257 0V368.5085M331.6774 0V368.5085M334.51225 0V368.5085M337.3471 0V368.5085M340.1617 368.5085"/>
<path transform="matrix(1.00008,0,0,-1.00002,33.975519,381.1464)" stroke-width=".3985" stroke-linecap="butt" stroke-miterlimit="10" stroke-linejoin="miter" fill="none" stroke="#a6a6a6" d="M0 0H340.1617M0 28.3468H340.1617M0 56.69362H340.1617M0 85.04042H340.1617M0 113.38724H340.1617M0 141.73404H340.1617M0 170.08086H340.1617M0 198.42766H340.1617M0 226.77448H340.1617M0 255.12128H340.1617M0 283.4681H340.1617M0 311.8149H340.1617M0 340.1617H340.1617M0 368.49858H340.1617M0 0V368.5085M28.3468 0V368.5085M56.69362 0V368.5085M85.04042 0V368.5085M113.38724 0V368.5085M141.73404 0V368.5085M170.08086 0V368.5085M198.42766 0V368.5085M226.77448 0V368.5085M255.12128 0V368.5085M283.4681 0V368.5085M311.8149 0V368.5085M340.15177 0V368.5085M340.1617 368.5085"/>
<path transform="matrix(1.00008,0,0,-1.00002,33.975519,381.1464)" stroke-width=".79701" stroke-linecap="butt" stroke-miterlimit="10" stroke-linejoin="miter" fill="none" stroke="#000000" d="M0 0H339.3647"/>
<path transform="matrix(1.00008,0,0,-1.00002,373.76594,381.1464)" stroke-width=".79701" stroke-linecap="round" stroke-linejoin="round" fill="none" stroke="#000000" d="M-2.55046 3.11095C-2.0845 1.24435-1.04614 .36295 0 0-1.04614-.36295-2.0845-1.24435-2.55046-3.11095"/>
<path transform="matrix(1.00008,0,0,-1.00002,33.975519,381.1464)" stroke-width=".79701" stroke-linecap="butt" stroke-miterlimit="10" stroke-linejoin="miter" fill="none" stroke="#000000" d="M0 0V367.71153"/>
<path transform="matrix(0,-1.00002,-1.00008,-0,33.975519,13.028992)" stroke-width=".79701" stroke-linecap="round" stroke-linejoin="round" fill="none" stroke="#000000" d="M-2.55046 3.11095C-2.0845 1.24435-1.04614 .36295 0 0-1.04614-.36295-2.0845-1.24435-2.55046-3.11095"/>
<use data-text="1" xlink:href="#font_1_82" transform="matrix(9.963397,0,0,-9.962799,57.342386,391.3016)"/>
<use data-text="0" xlink:href="#font_1_121" transform="matrix(9.963397,0,0,-9.962799,62.32409,391.3016)"/>
<use data-text="2" xlink:href="#font_1_107" transform="matrix(9.963397,0,0,-9.962799,85.69165,391.3016)"/>
<use data-text="0" xlink:href="#font_1_121" transform="matrix(9.963397,0,0,-9.962799,90.673358,391.3016)"/>
<use data-text="3" xlink:href="#font_1_106" transform="matrix(9.963397,0,0,-9.962799,114.04092,391.3016)"/>
<use data-text="0" xlink:href="#font_1_121" transform="matrix(9.963397,0,0,-9.962799,119.02262,391.3016)"/>
<use data-text="4" xlink:href="#font_1_57" transform="matrix(9.963397,0,0,-9.962799,142.3902,391.4116)"/>
<use data-text="0" xlink:href="#font_1_121" transform="matrix(9.963397,0,0,-9.962799,147.37189,391.4116)"/>
<use data-text="5" xlink:href="#font_1_56" transform="matrix(9.963397,0,0,-9.962799,170.73947,391.3016)"/>
<use data-text="0" xlink:href="#font_1_121" transform="matrix(9.963397,0,0,-9.962799,175.72116,391.3016)"/>
<use data-text="6" xlink:href="#font_1_101" transform="matrix(9.963397,0,0,-9.962799,199.0877,391.3016)"/>
<use data-text="0" xlink:href="#font_1_121" transform="matrix(9.963397,0,0,-9.962799,204.06943,391.3016)"/>
<use data-text="7" xlink:href="#font_1_100" transform="matrix(9.963397,0,0,-9.962799,227.43698,391.4016)"/>
<use data-text="0" xlink:href="#font_1_121" transform="matrix(9.963397,0,0,-9.962799,232.4187,391.4016)"/>
<use data-text="8" xlink:href="#font_1_51" transform="matrix(9.963397,0,0,-9.962799,255.78626,391.3016)"/>
<use data-text="0" xlink:href="#font_1_121" transform="matrix(9.963397,0,0,-9.962799,260.76799,391.3016)"/>
<use data-text="9" xlink:href="#font_1_78" transform="matrix(9.963397,0,0,-9.962799,284.13554,391.3016)"/>
<use data-text="0" xlink:href="#font_1_121" transform="matrix(9.963397,0,0,-9.962799,289.11723,391.3016)"/>
<use data-text="1" xlink:href="#font_1_82" transform="matrix(9.963397,0,0,-9.962799,309.9936,391.3016)"/>
<use data-text="0" xlink:href="#font_1_121" transform="matrix(9.963397,0,0,-9.962799,314.97529,391.3016)"/>
<use data-text="0" xlink:href="#font_1_121" transform="matrix(9.963397,0,0,-9.962799,319.95698,391.3016)"/>
<use data-text="0" xlink:href="#font_2_121" transform="matrix(8.967117,0,0,-8.966579,25.845864,384.03346)"/>
<use data-text="1" xlink:href="#font_2_82" transform="matrix(8.967117,0,0,-8.966579,25.845864,355.78489)"/>
<use data-text="2" xlink:href="#font_2_107" transform="matrix(8.967117,0,0,-8.966579,25.845864,327.43733)"/>
<use data-text="3" xlink:href="#font_2_106" transform="matrix(8.967117,0,0,-8.966579,25.845864,298.99177)"/>
<use data-text="4" xlink:href="#font_2_57" transform="matrix(8.967117,0,0,-8.966579,25.845864,270.79219)"/>
<use data-text="5" xlink:href="#font_2_56" transform="matrix(8.967117,0,0,-8.966579,25.845864,242.29662)"/>
<use data-text="6" xlink:href="#font_2_101" transform="matrix(8.967117,0,0,-8.966579,25.845864,213.94905)"/>
<use data-text="7" xlink:href="#font_2_100" transform="matrix(8.967117,0,0,-8.966579,25.845864,185.64647)"/>
<use data-text="8" xlink:href="#font_2_51" transform="matrix(8.967117,0,0,-8.966579,25.845864,157.25492)"/>
<use data-text="9" xlink:href="#font_2_78" transform="matrix(8.967117,0,0,-8.966579,25.845864,128.90735)"/>
<use data-text="1" xlink:href="#font_2_82" transform="matrix(8.967117,0,0,-8.966579,21.237496,100.559787)"/>
<use data-text="0" xlink:href="#font_2_121" transform="matrix(8.967117,0,0,-8.966579,25.846596,100.559787)"/>
<use data-text="1" xlink:href="#font_2_82" transform="matrix(8.967117,0,0,-8.966579,21.237496,72.31119)"/>
<use data-text="1" xlink:href="#font_2_82" transform="matrix(8.967117,0,0,-8.966579,25.846596,72.31119)"/>
<use data-text="1" xlink:href="#font_2_82" transform="matrix(8.967117,0,0,-8.966579,21.237496,43.963655)"/>
<use data-text="2" xlink:href="#font_2_107" transform="matrix(8.967117,0,0,-8.966579,25.846596,43.963655)"/>
<use data-text="1" xlink:href="#font_2_82" transform="matrix(8.967117,0,0,-8.966579,21.237496,15.518066)"/>
<use data-text="3" xlink:href="#font_2_106" transform="matrix(8.967117,0,0,-8.966579,25.846596,15.518066)"/>
<path transform="matrix(1.00008,0,0,-1.00002,33.975519,381.1464)" d="M28.3468 0V141.73404H56.69362V0" fill="#6666ff"/>
<path transform="matrix(1.00008,0,0,-1.00002,33.975519,381.1464)" stroke-width=".79701" stroke-linecap="butt" stroke-miterlimit="10" stroke-linejoin="miter" fill="none" stroke="#000000" d="M28.3468 0V141.73404H56.69362V0"/>
<path transform="matrix(1.00008,0,0,-1.00002,33.975519,381.1464)" d="M56.69362 0V226.77448H85.04042V0" fill="#6666ff"/>
<path transform="matrix(1.00008,0,0,-1.00002,33.975519,381.1464)" stroke-width=".79701" stroke-linecap="butt" stroke-miterlimit="10" stroke-linejoin="miter" fill="none" stroke="#000000" d="M56.69362 0V226.77448H85.04042V0"/>
<path transform="matrix(1.00008,0,0,-1.00002,33.975519,381.1464)" d="M85.04042 0V340.1617H113.38724V0" fill="#6666ff"/>
<path transform="matrix(1.00008,0,0,-1.00002,33.975519,381.1464)" stroke-width=".79701" stroke-linecap="butt" stroke-miterlimit="10" stroke-linejoin="miter" fill="none" stroke="#000000" d="M85.04042 0V340.1617H113.38724V0"/>
<path transform="matrix(1.00008,0,0,-1.00002,33.975519,381.1464)" d="M113.38724 0V198.42766H141.73404V0" fill="#6666ff"/>
<path transform="matrix(1.00008,0,0,-1.00002,33.975519,381.1464)" stroke-width=".79701" stroke-linecap="butt" stroke-miterlimit="10" stroke-linejoin="miter" fill="none" stroke="#000000" d="M113.38724 0V198.42766H141.73404V0"/>
<path transform="matrix(1.00008,0,0,-1.00002,33.975519,381.1464)" d="M141.73404 0V85.04042H170.08086V0" fill="#6666ff"/>
<path transform="matrix(1.00008,0,0,-1.00002,33.975519,381.1464)" stroke-width=".79701" stroke-linecap="butt" stroke-miterlimit="10" stroke-linejoin="miter" fill="none" stroke="#000000" d="M141.73404 0V85.04042H170.08086V0"/>
<path transform="matrix(1.00008,0,0,-1.00002,33.975519,381.1464)" d="M170.08086 0V56.69362H198.42766V0" fill="#6666ff"/>
<path transform="matrix(1.00008,0,0,-1.00002,33.975519,381.1464)" stroke-width=".79701" stroke-linecap="butt" stroke-miterlimit="10" stroke-linejoin="miter" fill="none" stroke="#000000" d="M170.08086 0V56.69362H198.42766V0"/>
<path transform="matrix(1.00008,0,0,-1.00002,33.975519,381.1464)" d="M198.42766 0V28.3468H226.77448V0" fill="#6666ff"/>
<path transform="matrix(1.00008,0,0,-1.00002,33.975519,381.1464)" stroke-width=".79701" stroke-linecap="butt" stroke-miterlimit="10" stroke-linejoin="miter" fill="none" stroke="#000000" d="M198.42766 0V28.3468H226.77448V0"/>
<use data-text="A" xlink:href="#font_1_27" transform="matrix(9.963397,0,0,-9.962799,94.75038,411.98503)"/>
<use data-text="m" xlink:href="#font_1_75" transform="matrix(9.963397,0,0,-9.962799,102.22293,411.98503)"/>
<use data-text="o" xlink:href="#font_1_81" transform="matrix(9.963397,0,0,-9.962799,110.52243,411.98503)"/>
<use data-text="u" xlink:href="#font_1_109" transform="matrix(9.963397,0,0,-9.962799,115.50412,411.98503)"/>
<use data-text="n" xlink:href="#font_1_77" transform="matrix(9.963397,0,0,-9.962799,121.04376,411.98503)"/>
<use data-text="t" xlink:href="#font_1_105" transform="matrix(9.963397,0,0,-9.962799,126.31439,411.98503)"/>
<use data-text="o" xlink:href="#font_1_81" transform="matrix(9.963397,0,0,-9.962799,133.49802,411.98503)"/>
<use data-text="f" xlink:href="#font_1_55" transform="matrix(9.963397,0,0,-9.962799,138.4797,411.98503)"/>
<use data-text="m" xlink:href="#font_1_75" transform="matrix(9.963397,0,0,-9.962799,144.84632,411.98503)"/>
<use data-text="i" xlink:href="#font_1_66" transform="matrix(9.963397,0,0,-9.962799,153.14583,411.98503)"/>
<use data-text="l" xlink:href="#font_1_72" transform="matrix(9.963397,0,0,-9.962799,155.91565,411.98503)"/>
<use data-text="k" xlink:href="#font_1_70" transform="matrix(9.963397,0,0,-9.962799,158.68549,411.98503)"/>
<use data-text="s" xlink:href="#font_1_98" transform="matrix(9.963397,0,0,-9.962799,167.26398,411.98503)"/>
<use data-text="a" xlink:href="#font_1_28" transform="matrix(9.963397,0,0,-9.962799,171.18955,411.98503)"/>
<use data-text="l" xlink:href="#font_1_72" transform="matrix(9.963397,0,0,-9.962799,176.17124,411.98503)"/>
<use data-text="e" xlink:href="#font_1_50" transform="matrix(9.963397,0,0,-9.962799,178.94107,411.98503)"/>
<use data-text="s" xlink:href="#font_1_98" transform="matrix(9.963397,0,0,-9.962799,183.36483,411.98503)"/>
<use data-text="(" xlink:href="#font_1_85" transform="matrix(9.963397,0,0,-9.962799,187.2904,411.98503)"/>
<use data-text="i" xlink:href="#font_1_66" transform="matrix(9.963397,0,0,-9.962799,191.16617,411.98503)"/>
<use data-text="n" xlink:href="#font_1_77" transform="matrix(9.963397,0,0,-9.962799,193.936,411.98503)"/>
<use data-text="l" xlink:href="#font_1_72" transform="matrix(9.963397,0,0,-9.962799,202.79346,411.98503)"/>
<use data-text="i" xlink:href="#font_1_66" transform="matrix(9.963397,0,0,-9.962799,205.5633,411.98503)"/>
<use data-text="t" xlink:href="#font_1_105" transform="matrix(9.963397,0,0,-9.962799,208.33312,411.98503)"/>
<use data-text="r" xlink:href="#font_1_96" transform="matrix(9.963397,0,0,-9.962799,212.20888,411.98503)"/>
<use data-text="e" xlink:href="#font_1_50" transform="matrix(9.963397,0,0,-9.962799,216.11454,411.98503)"/>
<use data-text="s" xlink:href="#font_1_98" transform="matrix(9.963397,0,0,-9.962799,220.53829,411.98503)"/>
<use data-text=")" xlink:href="#font_1_86" transform="matrix(9.963397,0,0,-9.962799,224.46387,411.98503)"/>
<use data-text="F" xlink:href="#font_1_54" transform="matrix(0,-9.962799,-9.963397,-0,7.9924318,289.98457)"/>
<use data-text="r" xlink:href="#font_1_96" transform="matrix(0,-9.962799,-9.963397,-0,7.9924318,284.2958)"/>
<use data-text="e" xlink:href="#font_1_50" transform="matrix(0,-9.962799,-9.963397,-0,7.9924318,280.39039)"/>
<use data-text="q" xlink:href="#font_1_91" transform="matrix(0,-9.962799,-9.963397,-0,7.9924318,275.96693)"/>
<use data-text="u" xlink:href="#font_1_109" transform="matrix(0,-9.962799,-9.963397,-0,7.9924318,270.70655)"/>
<use data-text="e" xlink:href="#font_1_50" transform="matrix(0,-9.962799,-9.963397,-0,7.9924318,265.16725)"/>
<use data-text="n" xlink:href="#font_1_77" transform="matrix(0,-9.962799,-9.963397,-0,7.9924318,260.74375)"/>
<use data-text="c" xlink:href="#font_1_43" transform="matrix(0,-9.962799,-9.963397,-0,7.9924318,255.20444)"/>
<use data-text="y" xlink:href="#font_1_118" transform="matrix(0,-9.962799,-9.963397,-0,7.9924318,250.78095)"/>
<use data-text="H" xlink:href="#font_3_62" transform="matrix(7.9707376,0,0,-7.9702599,163.49088,7.5009157)"/>
<use data-text="i" xlink:href="#font_3_66" transform="matrix(7.9707376,0,0,-7.9702599,171.10294,7.5009157)"/>
<use data-text="s" xlink:href="#font_3_98" transform="matrix(7.9707376,0,0,-7.9702599,173.81299,7.5009157)"/>
<use data-text="t" xlink:href="#font_3_105" transform="matrix(7.9707376,0,0,-7.9702599,177.66286,7.5009157)"/>
<use data-text="o" xlink:href="#font_3_81" transform="matrix(7.9707376,0,0,-7.9702599,181.45693,7.5009157)"/>
<use data-text="g" xlink:href="#font_3_59" transform="matrix(7.9707376,0,0,-7.9702599,186.34297,7.5009157)"/>
<use data-text="r" xlink:href="#font_3_96" transform="matrix(7.9707376,0,0,-7.9702599,191.22904,7.5009157)"/>
<use data-text="a" xlink:href="#font_3_28" transform="matrix(7.9707376,0,0,-7.9702599,195.26222,7.5009157)"/>
<use data-text="m" xlink:href="#font_3_75" transform="matrix(7.9707376,0,0,-7.9702599,200.01279,7.5009157)"/>
<use data-text="s" xlink:href="#font_3_98" transform="matrix(7.9707376,0,0,-7.9702599,211.40297,7.5009157)"/>
<use data-text="h" xlink:href="#font_3_63" transform="matrix(7.9707376,0,0,-7.9702599,215.25284,7.5009157)"/>
<use data-text="o" xlink:href="#font_3_81" transform="matrix(7.9707376,0,0,-7.9702599,220.68091,7.5009157)"/>
<use data-text="w" xlink:href="#font_3_114" transform="matrix(7.9707376,0,0,-7.9702599,225.30394,7.5009157)"/>
<use data-text="i" xlink:href="#font_3_66" transform="matrix(7.9707376,0,0,-7.9702599,232.35805,7.5009157)"/>
<use data-text="n" xlink:href="#font_3_77" transform="matrix(7.9707376,0,0,-7.9702599,235.0681,7.5009157)"/>
<use data-text="g" xlink:href="#font_3_59" transform="matrix(7.9707376,0,0,-7.9702599,240.49617,7.5009157)"/>
<use data-text="s" xlink:href="#font_3_98" transform="matrix(7.9707376,0,0,-7.9702599,248.62633,7.5009157)"/>
<use data-text="a" xlink:href="#font_3_28" transform="matrix(7.9707376,0,0,-7.9702599,252.4762,7.5009157)"/>
<use data-text="l" xlink:href="#font_3_72" transform="matrix(7.9707376,0,0,-7.9702599,257.22676,7.5009157)"/>
<use data-text="e" xlink:href="#font_3_50" transform="matrix(7.9707376,0,0,-7.9702599,259.93684,7.5009157)"/>
<use data-text="s" xlink:href="#font_3_98" transform="matrix(7.9707376,0,0,-7.9702599,264.4084,7.5009157)"/>
<use data-text="o" xlink:href="#font_3_81" transform="matrix(7.9707376,0,0,-7.9702599,271.5103,7.5009157)"/>
<use data-text="f" xlink:href="#font_3_55" transform="matrix(7.9707376,0,0,-7.9702599,276.39637,7.5009157)"/>
<use data-text="m" xlink:href="#font_3_75" transform="matrix(7.9707376,0,0,-7.9702599,282.62953,7.5009157)"/>
<use data-text="i" xlink:href="#font_3_66" transform="matrix(7.9707376,0,0,-7.9702599,290.76765,7.5009157)"/>
<use data-text="l" xlink:href="#font_3_72" transform="matrix(7.9707376,0,0,-7.9702599,293.47767,7.5009157)"/>
<use data-text="k" xlink:href="#font_3_70" transform="matrix(7.9707376,0,0,-7.9702599,296.18775,7.5009157)"/>
</svg>
