<svg xmlns="http://www.w3.org/2000/svg" xmlns:xlink="http://www.w3.org/1999/xlink" xmlns:inkscape="http://www.inkscape.org/namespaces/inkscape" version="1.1" width="227" height="145" viewBox="0 0 227 145">
<defs>
<path id="font_1_82" d="M.4189911 0V.0309906H.3869934C.29699708 .0309906 .2939911 .041992189 .2939911 .07902527V.64012148C.2939911 .6640167 .2939911 .6660156 .2709961 .6660156 .20899964 .60227969 .12098694 .60227969 .08898926 .60227969V.57128909C.10899353 .57128909 .16799927 .57128909 .21998596 .5972748V.07902527C.21998596 .042999269 .21699524 .0309906 .1269989 .0309906H.09498596V0C.12998963 .0029907227 .21699524 .0029907227 .25698854 .0029907227 .29699708 .0029907227 .38398744 .0029907227 .4189911 0Z"/>
<path id="font_1_57" d="M.47099305 .16503906V.19602967H.37098695V.6507721C.37098695 .6707611 .37098695 .6767578 .35499574 .6767578 .34599305 .6767578 .34298707 .6767578 .33499146 .6647644L.027999878 .19602967V.16503906H.2939911V.07800293C.2939911 .041992189 .2919922 .0309906 .21798706 .0309906H.19699097V0C.23799134 .0029907227 .2899933 .0029907227 .33198548 .0029907227 .37399293 .0029907227 .4269867 .0029907227 .46798707 0V.0309906H.44699098C.37298585 .0309906 .37098695 .041992189 .37098695 .07800293V.16503906H.47099305M.2999878 .19602967H.055999757L.2999878 .56881716V.19602967Z"/>
<path id="font_1_121" d="M.45999146 .31976319C.45999146 .39982606 .45498658 .47988893 .41999818 .5539398 .37399293 .65000918 .2919922 .6660156 .25 .6660156 .18998719 .6660156 .116989139 .64001467 .07598877 .54693606 .04399109 .47789 .038986207 .39982606 .038986207 .31976319 .038986207 .24472046 .042999269 .15464783 .083999637 .07859802 .1269989-.0024719239 .19999695-.022460938 .24899292-.022460938 .30299378-.022460938 .3789978-.0014648438 .4229889 .09359741 .45498658 .16265869 .45999146 .2407074 .45999146 .31976319M.3769989 .3317871C.3769989 .25672914 .3769989 .18867493 .3659973 .12461853 .35099793 .029556275 .2939911-.00047302247 .24899292-.00047302247 .20999146-.00047302247 .15098572 .024551392 .1329956 .12062073 .12199402 .18066406 .12199402 .2727356 .12199402 .3317871 .12199402 .39582826 .12199402 .46188355 .12998963 .5159149 .14898682 .63500979 .22399903 .64401248 .24899292 .64401248 .28199769 .64401248 .34799195 .6259918 .36698915 .52693179 .3769989 .47088624 .3769989 .39482118 .3769989 .3317871Z"/>
<path id="font_1_56" d="M.44898988 .20091248C.44898988 .31991578 .36698915 .41992188 .25898744 .41992188 .21099854 .41992188 .16799927 .4039154 .13198853 .36891175V.5641022C.1519928 .55778506 .18499756 .55078127 .21699524 .55078127 .33999635 .55078127 .4099884 .6418457 .4099884 .65493777 .4099884 .6609802 .40699769 .6660156 .3999939 .6660156 .3999939 .66607668 .39698792 .66607668 .3919983 .66308596 .37199403 .65408328 .32299806 .63378909 .2559967 .63378909 .21598816 .63409426 .16999817 .641098 .12298584 .6621094 .114990238 .6651001 .11099243 .6651001 .11099243 .6651001 .100997928 .66508486 .100997928 .657074 .100997928 .64108279V.3447113C.100997928 .3266449 .100997928 .31861878 .114990238 .31861878 .12199402 .31861878 .12399292 .32164 .12799073 .32765199 .13899231 .34371949 .17599488 .3979187 .25698854 .3979187 .30899049 .3979187 .33399964 .3517456 .34199525 .3336792 .35798646 .2965393 .3600006 .2574005 .3600006 .20721436 .3600006 .17218018 .3600006 .112197879 .33599855 .07032776 .31199647 .031448366 .2749939 .0055389406 .22898865 .0055389406 .1559906 .0055389406 .09899902 .05836487 .08198547 .1171875 .084991458 .11685181 .08799744 .115859989 .09899902 .115859989 .13198853 .115859989 .14898682 .14085388 .14898682 .16485596 .14898682 .18885803 .13198853 .21386719 .09899902 .21386719 .084991458 .21386719 .049987794 .2068634 .049987794 .16085816 .049987794 .07432556 .11898804-.022460938 .23098755-.022460938 .34700013-.022460938 .44898988 .07331848 .44898988 .20019531V.20091248Z"/>
<path id="font_1_100" d="M.4850006 .6435547H.24198914C.11999512 .6435547 .117996219 .6566467 .11399841 .67578127H.08898926L.055999757 .46954347H.08099365C.083999637 .48554994 .09298706 .54855349 .10598755 .5605469 .11299133 .5665436 .19099427 .5665436 .20399475 .5665436H.41099549L.29899598 .40853883C.20899964 .2735443 .17599488 .13453675 .17599488 .03253174 .17599488 .022537232 .17599488-.022460938 .22200012-.022460938 .2679901-.022460938 .2679901 .022537232 .2679901 .03253174V.08354187C.2679901 .13853455 .2709961 .19354248 .2789917 .24754334 .2829895 .27053834 .29699708 .35653688 .34098817 .41854859L.47599793 .608551C.4850006 .62054446 .4850006 .62254336 .4850006 .6435547Z"/>
<path id="font_1_78" d="M.45700074 .32888795C.45700074 .598114 .34199525 .6660156 .25299073 .6660156 .19799805 .6660156 .14898682 .64801028 .10598755 .6031189 .06498718 .5580902 .041992189 .5160217 .041992189 .44091798 .041992189 .3158722 .12998963 .21777344 .24198914 .21777344 .30299378 .21777344 .34399415 .25979615 .36698915 .3178711V.28582765C.36698915 .05178833 .2630005 .0055389406 .20498657 .0055389406 .18798828 .0055389406 .13398743 .007537842 .10699463 .041778566 .15098572 .041778566 .15899658 .07078552 .15899658 .08778381 .15899658 .118774417 .1349945 .13378906 .11299133 .13378906 .09700012 .13378906 .066986087 .12478638 .066986087 .08578491 .066986087 .018615723 .12098694-.022460938 .20599365-.022460938 .33499146-.022460938 .45700074 .11378479 .45700074 .32888795M.36499024 .42089845C.36499024 .33789063 .33099366 .24076844 .24299622 .24076844 .22698975 .2407074 .18099976 .2407074 .1499939 .30371095 .13198853 .34072877 .13198853 .3908081 .13198853 .43988038 .13198853 .49397279 .13198853 .5410614 .15299988 .578125 .17999268 .62805178 .21798706 .64100649 .25299073 .64100649 .29899598 .64100649 .33198548 .60710147 .34899903 .562088 .36099244 .52989199 .36499024 .46688844 .36499024 .42089845Z"/>
<path id="font_1_107" d="M.44898988 .17396546H.42399598C.4189911 .14398194 .4119873 .099990848 .4019928 .084991458 .394989 .07699585 .32899476 .07699585 .30699159 .07699585H.1269989L.23298645 .17996216C.3889923 .31803895 .44898988 .37210084 .44898988 .47216798 .44898988 .5860901 .35899354 .6660156 .23699951 .6660156 .12399292 .6660156 .049987794 .57411196 .049987794 .48516847 .049987794 .4291687 .099990848 .4291687 .102996829 .4291687 .11999512 .4291687 .15499878 .44117738 .15499878 .48217774 .15499878 .5081787 .13699341 .5341797 .101989749 .5341797 .09399414 .5341797 .09199524 .5341797 .08898926 .5331726 .11199951 .59806826 .1659851 .63500979 .22399903 .63500979 .31498719 .63500979 .35798646 .5541382 .35798646 .47216798 .35798646 .39196778 .30799867 .31297303 .25299073 .25097657L.06098938 .036987306C.049987794 .025985718 .049987794 .023986817 .049987794 0H.42099L.44898988 .17396546Z"/>
<path id="font_2_121" d="M.47299195 .31976319C.47299195 .38682557 .46998597 .47288514 .43499757 .5479431 .3909912 .64201357 .31498719 .6660156 .25698854 .6660156 .19699097 .6660156 .12098694 .64201357 .07699585 .5459442 .04499817 .47688294 .039993287 .39582826 .039993287 .31976319 .039993287 .25471498 .041992189 .15765381 .084991458 .07858276 .13198853-.0064697267 .20999146-.022460938 .2559967-.022460938 .32099916-.022460938 .394989 .0055389406 .43699647 .097595218 .46699525 .1646576 .47299195 .23971558 .47299195 .31976319M.3869934 .33177186C.3869934 .2697296 .3869934 .18566895 .3769989 .12661743 .35598756 .012542725 .28199769 .002532959 .25698854 .002532959 .22698975 .002532959 .15499878 .016540528 .13598633 .12962342 .12599182 .18867493 .12599182 .2747345 .12599182 .33177186 .12599182 .39982606 .12599182 .47888185 .13798523 .53393557 .1579895 .6230011 .22200012 .64100649 .2559967 .64100649 .2939911 .64100649 .35699464 .62098696 .37599183 .5279236 .3869934 .47288514 .3869934 .39482118 .3869934 .33177186Z"/>
<path id="font_2_82" d="M.43199159 0V.0309906H.3999939C.30699159 .0309906 .3039856 .042999269 .3039856 .08001709V.63912966C.3039856 .6640167 .30299378 .6660156 .27799989 .6660156 .21598816 .60227969 .12399292 .60227969 .09298706 .60227969V.57128909C.11199951 .57128909 .17298889 .57128909 .22698975 .5972748V.08001709C.22698975 .042999269 .22399903 .0309906 .1309967 .0309906H.09899902V0C.1349945 .0029907227 .22399903 .0029907227 .2649994 .0029907227 .30599977 .0029907227 .3959961 .0029907227 .43199159 0Z"/>
<path id="font_2_88" d="M.19599915 .053985597C.19599915 .08299255 .17199707 .10798645 .14199829 .10798645 .11199951 .10798645 .08799744 .08299255 .08799744 .053985597 .08799744 .023986817 .11199951 0 .14199829 0 .17199707 0 .19599915 .023986817 .19599915 .053985597Z"/>
<path id="font_2_107" d="M.46199037 .17704773H.43399049C.43199159 .16404724 .42399598 .10501099 .41099549 .08900452 .40499879 .07998657 .33599855 .07998657 .31599427 .07998657H.13798523L.23699951 .17404175C.40098573 .3161316 .46199037 .36915589 .46199037 .4711914 .46199037 .5860901 .36698915 .6660156 .24398804 .6660156 .1289978 .6660156 .050994874 .575119 .050994874 .4841919 .050994874 .43418885 .09399414 .42919923 .102996829 .42919923 .125 .42919923 .15499878 .44519044 .15499878 .48120118 .15499878 .51119998 .13398743 .5332031 .102996829 .5332031 .09799194 .5332031 .09498596 .5332031 .09098816 .53219607 .114990238 .6030731 .1789856 .63500979 .23298645 .63500979 .33499146 .63500979 .36999513 .5401764 .36999513 .4711914 .36999513 .36915589 .29299928 .28611756 .24499512 .23408509L.06199646 .035995485C.050994874 .024993897 .050994874 .022994996 .050994874 0H.43399049L.46199037 .17704773Z"/>
<path id="font_2_106" d="M.46998597 .17008972C.46998597 .25709535 .40098573 .33110047 .30499269 .35209657 .397995 .38710023 .44198609 .46009828 .44198609 .5290985 .44198609 .60606387 .35699464 .6660156 .25299073 .6660156 .14898682 .6660156 .070999149 .60705569 .070999149 .5310974 .070999149 .49809266 .09298706 .47909547 .12199402 .47909547 .15098572 .47909547 .17199707 .50009158 .17199707 .5290985 .17199707 .5640869 .147995 .57910159 .11399841 .57910159 .13999939 .6210327 .20098877 .64100649 .25 .64100649 .33299256 .64100649 .34899903 .5750885 .34899903 .52809146 .34899903 .49809266 .34298707 .45005799 .31799317 .41201783 .2869873 .36695863 .2519989 .36495973 .22299195 .36296083 .19799805 .36094667 .19599915 .36094667 .18798828 .36094667 .1789856 .35995484 .17098999 .35894776 .17098999 .34794618 .17098999 .33496095 .1789856 .33496095 .19599915 .33496095H.24299622C.32998658 .33496095 .36799623 .2646637 .36799623 .16937256 .36799623 .04145813 .2999878 .0055389406 .24899292 .0055389406 .22999573 .0055389406 .1329956 .010528564 .08799744 .0843811 .12399292 .07939148 .1519928 .10437012 .1519928 .13838196 .1519928 .17137146 .1269989 .19238281 .09799194 .19238281 .07299805 .19238281 .042999269 .17736817 .042999269 .13537598 .042999269 .046447755 .13598633-.022460938 .2519989-.022460938 .3769989-.022460938 .46998597 .06741333 .46998597 .16937256V.17008972Z"/>
<path id="font_2_57" d="M.48399354 .16503906V.19602967H.38198854V.649765C.38198854 .669754 .38198854 .6767578 .36299134 .6767578 .35099793 .6767578 .34999085 .67575076 .34098817 .6617584L.0289917 .19602967V.16503906H.3019867V.07901001C.3019867 .041992189 .29899598 .0309906 .22399903 .0309906H.20199585V0C.2649994 .0029907227 .33499146 .0029907227 .34199525 .0029907227 .34700013 .0029907227 .4189911 .0029907227 .48199464 0V.0309906H.45999146C.3849945 .0309906 .38198854 .041992189 .38198854 .07901001V.16503906H.48399354M.30799867 .19602967H.06098938L.30799867 .56581118V.19602967Z"/>
<path id="font_3_62" d="M.94400027 0V.055999757H.83699038V.62953189H.94400027V.6855469C.92099 .6835327 .7779999 .6815338 .7619934 .6815338 .73999026 .6815338 .6009979 .6835327 .57899478 .6855469V.62953189H.6859894V.38476563H.31498719V.62953189H.42199708V.6855469C.39898683 .6835327 .2559967 .6815338 .23999024 .6815338 .21798706 .6815338 .07899475 .6835327 .056991579 .6855469V.62953189H.1639862V.055999757H.056991579V0C.07998657 .0019989014 .22299195 .0039978029 .23899842 .0039978029 .26098634 .0039978029 .3999939 .0019989014 .42199708 0V.055999757H.31498719V.3287506H.6859894V.055999757H.57899478V0C.60198977 .0019989014 .7449951 .0039978029 .7609863 .0039978029 .7829895 .0039978029 .9219971 .0019989014 .94400027 0Z"/>
<path id="font_3_50" d="M.5509949 .11407471C.5509949 .13606262 .5289917 .13606262 .5189972 .13606262 .5009918 .13606262 .49598695 .13505554 .48799134 .11907959 .45199586 .045135499 .36099244 .045135499 .34399415 .045135499 .18598938 .045135499 .18099976 .16203308 .1789856 .20800781H.5159912C.5369873 .20800781 .5509949 .20800781 .5509949 .23800659 .5509949 .2669983 .5439911 .34199525 .49598695 .39100648 .44198609 .44511415 .36799623 .453125 .31298829 .453125 .12799073 .453125 .039993287 .3431244 .039993287 .22512818 .039993287 .10612488 .13198853-.005859375 .32998658-.005859375 .3659973-.005859375 .42399598-.0018615723 .47399903 .025131226 .5329895 .055999757 .5509949 .104003909 .5509949 .11399841V.11407471M.45199586 .25H.1789856C.17999268 .28903199 .18499756 .40711976 .31399537 .40711976 .44299317 .40711976 .44999696 .2930298 .45199586 .25Z"/>
<path id="font_3_66" d="M.31498719 0V.055999757H.2539978V.4501953L.069992069 .4423828V.3863678C.1269989 .3863678 .13398743 .3863678 .13398743 .34733583V.055999757H.066986087V0C.066986087 0 .147995 .0039978029 .19299317 .0039978029 .23399353 .0039978029 .27398683 .0029907227 .31498719 0M.2639923 .602478C.2639923 .6484833 .22698975 .68447878 .18199158 .68447878 .13598633 .68447878 .099990848 .6464844 .099990848 .60346987 .099990848 .55747988 .13699341 .5214844 .18199158 .5214844 .22799683 .5214844 .2639923 .55947878 .2639923 .602478Z"/>
<path id="font_3_59" d="M.6239929 .38919068C.6239929 .42018128 .598999 .45619203 .548996 .45619203 .5079956 .45619203 .46299745 .44018556 .43299867 .41818238 .37399293 .4501953 .31098939 .4501953 .2869873 .4501953 .12399292 .4501953 .068984989 .3651886 .068984989 .30119325 .068984989 .2442627 .10398865 .21226502 .12199402 .19726563 .09899902 .16899109 .08999634 .13999939 .08999634 .10899353 .08999634 .07199097 .10398865 .038986207 .12998963 .0129852299 .09498596 .0051116945 .039993287-.019943238 .039993287-.07203674 .039993287-.13214112 .10998535-.20117188 .32299806-.20117188 .5069885-.20117188 .60598757-.14816284 .60598757-.06903076 .60598757-.04899597 .6029968 .023132325 .519989 .062210084 .45999146 .089263919 .3939972 .089263919 .2919922 .089263919H.23799134C.20298767 .089263919 .18899536 .089263919 .17199707 .103256229 .1619873 .11125183 .14898682 .12625122 .14898682 .1502533 .14898682 .15626526 .14898682 .16725159 .1559906 .17625427 .20799256 .15126038 .2659912 .15126038 .2869873 .15126038 .45599366 .15126038 .5059967 .2392273 .5059967 .30020143 .5059967 .3511963 .47499085 .38519288 .46598817 .39318849 .48199464 .39920045 .5049896 .40618897 .526001 .40820313 .5239868 .40319825 .522995 .39520265 .522995 .38919068 .522995 .3531952 .5529938 .3381958 .57299807 .3381958 .59599307 .3381958 .6239929 .3551941 .6239929 .38919068M.3869934 .30119325C.3869934 .2602234 .3869934 .19726563 .2869873 .19726563 .18798828 .19726563 .18798828 .2612152 .18798828 .30020143 .18798828 .34014894 .18798828 .40419007 .2869873 .40419007 .3869934 .40419007 .3869934 .34114076 .3869934 .30111695V.30119325M.5079956-.072128299C.5079956-.105148319 .46598817-.15518189 .32299806-.15518189 .18598938-.15518189 .13798523-.1081543 .13798523-.071121219 .13798523-.019134522 .20698548-.019134522 .21998596-.019134522H.35299684C.37799073-.019134522 .5079956-.019134522 .5079956-.072143558V-.072128299Z"/>
<path id="font_3_63" d="M.67900088 0V.055999757H.6119995V.3011322C.6119995 .42419435 .5329895 .4501953 .44099427 .4501953 .32998658 .4501953 .27398683 .3901825 .25099183 .3561554V.69433596L.06399536 .6855469V.62953189C.12298584 .62953189 .1309967 .62953189 .1309967 .590683V.055999757H.06399536V0C.06399536 0 .1459961 .0039978029 .19400025 .0039978029 .24299622 .0039978029 .32499696 0 .32499696 0V.055999757H.2579956V.24909973C.2579956 .36515809 .3619995 .40419007 .42199708 .40419007 .46598817 .40419007 .4850006 .3811798 .4850006 .3091278V.055999757H.41799928V0C.41799928 0 .5 .0039978029 .5479889 .0039978029 .5970001 .0039978029 .67900088 0 .67900088 0Z"/>
<path id="font_3_105" d="M.42900086 .121170047V.17320252H.3659973V.1251831C.3659973 .056137086 .32398988 .045135499 .3039856 .045135499 .24598694 .045135499 .24499512 .09416199 .24499512 .121170047V.38832093H.4079895V.44433595H.24499512V.6357422H.18199158C.18099976 .5425415 .13398743 .43733216 .027999878 .43432618V.38832093H.117996219V.121170047C.117996219 .022140503 .19898987-.005859375 .28599549-.005859375 .36499024-.005859375 .42900086 .040130617 .42900086 .121170047Z"/>
<path id="font_3_85" d="M.42900086-.23103333C.42900086-.22303772 .42599488-.22003174 .4099884-.20703125 .30799867-.11903381 .23298645 .037979127 .23298645 .24998474 .23298645 .38897706 .2659912 .58699038 .4189911 .7149811 .42399598 .7189789 .42900086 .72299197 .42900086 .73197939 .42900086 .75 .4099884 .75 .4059906 .75 .3849945 .75 .32798768 .7039795 .30699159 .6839905 .20999146 .5879822 .12199402 .4519806 .12199402 .25097657 .12199402 .082977298 .18399048-.062026979 .30699159-.18302918 .32798768-.20303345 .38398744-.24902344 .4059906-.24902344 .4099884-.24902344 .42900086-.24902344 .42900086-.23103333Z"/>
<path id="font_3_43" d="M.5349884 .11413574C.5349884 .13212586 .5179901 .13212586 .5029907 .13212586 .47999574 .13212586 .47799684 .13113404 .47099305 .11613464 .45599366 .08312988 .42399598 .045135499 .34700013 .045135499 .18598938 .045135499 .18598938 .18511963 .18598938 .22612 .18598938 .30111695 .19799805 .40211488 .33198548 .40211488 .33799745 .40211488 .394989 .40112306 .394989 .39712525L.3929901 .39311219C.3909912 .39012147 .38198854 .37512208 .38198854 .3531189 .38198854 .31211854 .4119873 .28411866 .45098878 .28411866 .49198915 .28411866 .5209961 .31211854 .5209961 .35412599 .5209961 .45011903 .3869934 .453125 .32899476 .453125 .10598755 .453125 .04699707 .3151245 .04699707 .22212219 .04699707 .10513306 .13398743-.005859375 .32299806-.005859375 .37199403-.005859375 .4229889 .0021362305 .46299745 .025131226 .519989 .059127809 .5349884 .10812378 .5349884 .11413574Z"/>
<path id="font_3_75" d="M1.0349884 0V.055999757H.96798709V.30078126C.96798709 .42619325 .8849945 .4501953 .7969971 .4501953 .70098879 .4501953 .6399994 .40518189 .6069946 .35583497 .58200076 .44319154 .49598695 .4501953 .44198609 .4501953 .32199098 .4501953 .2649994 .38002015 .24499512 .34577943V.4501953L.06399536 .4423828V.3863678C.12298584 .3863678 .1309967 .3863678 .1309967 .34677125V.055999757H.06399536V0C.06399536 0 .1459961 .0039978029 .19400025 .0039978029 .24299622 .0039978029 .32499696 0 .32499696 0V.055999757H.2579956V.24882508C.2579956 .36715699 .36499024 .40419007 .42199708 .40419007 .46699525 .40419007 .48599244 .38217164 .48599244 .308136V.055999757H.4189911V0C.4189911 0 .5009918 .0039978029 .548996 .0039978029 .59799197 .0039978029 .6799927 0 .6799927 0V.055999757H.61299136V.24909973C.61299136 .36715699 .7200012 .40419007 .7769928 .40419007 .82199099 .40419007 .84098818 .38217164 .84098818 .308136V.055999757H.7739868V0C.7739868 0 .85598757 .0039978029 .9039917 .0039978029 .9529877 .0039978029 1.0349884 0 1.0349884 0Z"/>
<path id="font_3_86" d="M.38198854 .24998474C.38198854 .417984 .31999208 .5629883 .19699097 .6839905 .17599488 .7039795 .11999512 .75 .09799194 .75 .09399414 .75 .07499695 .75 .07499695 .73197939 .07499695 .72398379 .07798767 .7209778 .09399414 .70799258 .19599915 .61997988 .2709961 .46298219 .2709961 .25097657 .2709961 .111968997 .23799134-.08602905 .084991458-.21403504 .07998657-.21803284 .07499695-.22203064 .07499695-.23103333 .07499695-.24902344 .09399414-.24902344 .09799194-.24902344 .11898804-.24902344 .17599488-.20303345 .19699097-.18302918 .2939911-.087020877 .38198854 .048980714 .38198854 .24998474Z"/>
<path id="font_3_54" d="M.7509918 .4401245 .71699526 .67904666H.056991579V.6230469H.1639862V.055999757H.056991579V0C.08299255 .0019989014 .23399353 .0039978029 .24198914 .0039978029L.35299684 .0029907227C.3789978 .0019989014 .4229889 .0019989014 .44898988 0V.055999757H.31498719V.31214906H.3769989C.46499635 .31214906 .48799134 .2841339 .48799134 .2020874H.5509949V.47810365H.48799134C.48799134 .3971405 .46598817 .36816407 .3769989 .36816407H.31498719V.6230469H.47799684C.6199951 .6230469 .6689911 .5770569 .6879883 .4401245H.7509918Z"/>
<path id="font_3_96" d="M.49499513 .3611908C.49499513 .41618348 .43899537 .4501953 .3769989 .4501953 .30499269 .45028688 .25698854 .4022827 .22999573 .34028626H.22898865V.4501953L.054992677 .4423828V.3863678C.11399841 .3863678 .12199402 .3863678 .12199402 .34733583V.055999757H.054992677V0C.05899048 0 .13598633 .0039978029 .18299866 .0039978029L.32598878 0V.055999757H.24198914V.21017456C.24198914 .30029298 .2829895 .399292 .37298585 .40429688 .37298585 .40429688 .35899354 .3862915 .35899354 .36128236 .35899354 .32229615 .3869934 .29328919 .4269867 .29328919 .46699525 .29328919 .49499513 .32229615 .49499513 .36128236V.3611908Z"/>
<path id="font_3_91" d="M.6629944-.19371033V-.13769531H.59599307V.4501953H.5399933L.49398805 .3731842C.44699098 .42518617 .3889923 .4501953 .32099916 .4501953 .1499939 .4501953 .04699707 .35217286 .04699707 .22116089 .04699707 .10014343 .13798523-.005859375 .31199647-.005859375 .37399293-.005859375 .4269867 .014129639 .46899415 .045135499V-.13769531H.4019928V-.19371033C.4019928-.19371033 .48399354-.18969727 .5319977-.18969727 .58099368-.18969727 .6629944-.19371033 .6629944-.19371033M.47599793 .13414002C.44198609 .074142459 .38598634 .040130617 .32398988 .040130617 .24899292 .040130617 .18598938 .10014343 .18598938 .22116089 .18598938 .34718324 .26098634 .39918519 .33699037 .39918519 .42099 .39918519 .47599793 .32217408 .47599793 .26916505V.13414002Z"/>
<path id="font_3_109" d="M.67900088 .0001373291V.056137086C.6199951 .056137086 .6119995 .056137086 .6119995 .09513855V.4501953L.41799928 .44218446V.3861847C.47698976 .3861847 .4850006 .3861847 .4850006 .34718324V.16215515C.4850006 .07913208 .42099 .040130617 .34498597 .040130617 .25898744 .040130617 .2579956 .06213379 .2579956 .11013794V.4501953L.06399536 .44218446V.3861847C.12298584 .3861847 .1309967 .3861847 .1309967 .34718324V.12113953C.1309967 .005126953 .24198914-.005859375 .32798768-.005859375 .36099244-.005859375 .43499757-.005859375 .49198915 .06513977V-.005859375L.67900088 .0001373291Z"/>
<path id="font_3_77" d="M.67900088 0V.055999757H.6119995V.30078126C.6119995 .42419435 .5329895 .4501953 .44099427 .4501953 .31999208 .4501953 .2639923 .37800599 .24499512 .34577943V.4501953L.06399536 .4423828V.3863678C.12298584 .3863678 .1309967 .3863678 .1309967 .34677125V.055999757H.06399536V0C.06399536 0 .1459961 .0039978029 .19400025 .0039978029 .24299622 .0039978029 .32499696 0 .32499696 0V.055999757H.2579956V.24882508C.2579956 .36515809 .3619995 .40419007 .42199708 .40419007 .46598817 .40419007 .4850006 .3811798 .4850006 .3091278V.055999757H.41799928V0C.41799928 0 .5 .0039978029 .5479889 .0039978029 .5970001 .0039978029 .67900088 0 .67900088 0Z"/>
<path id="font_3_118" d="M.6459961 .38832093V.44433595C.6179962 .44232179 .58999636 .44032289 .56199648 .44032289 .5319977 .44032289 .49299623 .44132997 .46299745 .44433595V.38832093C.4869995 .38832093 .4909973 .3873291 .5059967 .38232423L.3769989 .1300354 .23899842 .38832093H.2849884V.44433595C.28199769 .44433595 .20098877 .44032289 .1539917 .44032289 .10899353 .44032289 .038986207 .44433595 .035995485 .44433595V.38832093H.101989749L.30899049-.00012207031C.30299378-.013137817 .272995-.07116699 .269989-.076156619 .23699951-.13616944 .18299866-.15420532 .147995-.15420532 .13899231-.15420532 .13699341-.15420532 .1329956-.15319824 .1499939-.14115906 .15899658-.122161868 .15899658-.10015869 .15899658-.057159425 .1269989-.03515625 .09399414-.03515625 .06098938-.03515625 .0289917-.057159425 .0289917-.10015869 .0289917-.15620423 .08099365-.20019531 .14698792-.20019531 .22099304-.20019531 .29899598-.15820313 .34399415-.07116699L.57099917 .36930848C.57899478 .38331605 .5799866 .38432313 .6009979 .3873291 .61299136 .38832093 .6419983 .38832093 .6459961 .38832093Z"/>
<path id="font_3_46" d="M.9089966 .33776856C.9089966 .54660037 .7529907 .6855469 .5249939 .6855469H.056991579V.62953189H.1639862V.055999757H.056991579V0H.526001C.74598696 0 .9089966 .12693787 .9089966 .33776856M.7529907 .33776856C.7529907 .24784851 .7529907 .055999757 .48399354 .055999757H.30799867V.62953189H.48298646C.7529907 .62953189 .7529907 .42869569 .7529907 .33776856Z"/>
<path id="font_3_98" d="M.46398927 .14213562C.46398927 .18812561 .43998719 .22012329 .4169922 .23912049 .36999513 .27812196 .32699586 .28512574 .24398804 .29812623 .18699646 .3071289 .12799073 .31611634 .12799073 .35612489 .12799073 .41212464 .22799683 .41212464 .24899292 .41212464 .3619995 .41212464 .3659973 .36611939 .36898805 .3421173 .37098695 .3221283 .3769989 .32011415 .3999939 .32011415 .42900086 .32011415 .43199159 .32312013 .43199159 .35212709V.42111207C.43199159 .44111634 .43199159 .453125 .4079895 .453125 .40098573 .453125 .397995 .453125 .38198854 .44511415 .37998963 .4441223 .36698915 .43811036 .36299134 .43811036 .36299134 .43811036 .3600006 .43811036 .35598756 .4401245 .31498719 .453125 .272995 .453125 .2519989 .453125 .22299195 .453125 .1619873 .453125 .11199951 .42611695 .054992677 .39411927 .04699707 .3421173 .04699707 .3191223 .04699707 .2111206 .1789856 .19113159 .24899292 .18013 .30999757 .17112732 .3829956 .16012573 .3829956 .10812378 .3829956 .040130617 .28399659 .040130617 .2599945 .040130617 .16499329 .040130617 .12998963 .08312988 .11099243 .13713074 .10499573 .15412903 .10398865 .15612793 .07899475 .15612793 .049987794 .15612793 .04699707 .15312195 .04699707 .12413025V.026138306C.04699707 .006134033 .04699707-.005859375 .069992069-.005859375 .07899475-.005859375 .08099365-.005859375 .101989749 .0071258547 .10798645 .010131836 .12399292 .019134522 .12998963 .023132325 .18199158-.005859375 .23599243-.005859375 .25898744-.005859375 .2919922-.005859375 .46398927-.005859375 .46398927 .14213562Z"/>
<path id="font_3_81" d="M.60598757 .21812439C.60598757 .3371277 .5189972 .453125 .32299806 .453125 .125 .453125 .039993287 .3361206 .039993287 .21812439 .039993287 .101135257 .1289978-.005859375 .32299806-.005859375 .5179901-.005859375 .60598757 .102127078 .60598757 .21812439M.46699525 .2301178C.46699525 .14413452 .46699525 .045135499 .32299806 .045135499 .1789856 .045135499 .1789856 .14413452 .1789856 .2301178 .1789856 .31011964 .1789856 .40711976 .32299806 .40711976 .46699525 .40711976 .46699525 .31011964 .46699525 .2301178Z"/>
<path id="font_3_28" d="M.61898806 .028137207C.61898806 .056137086 .60398867 .056137086 .58299258 .056137086 .522995 .056137086 .522995 .06413269 .522995 .087127689V.29512025C.522995 .37712098 .45700074 .453125 .2769928 .453125 .21899414 .453125 .07899475 .453125 .07899475 .35412599 .07899475 .31011964 .11099243 .28411866 .147995 .28411866 .19198609 .28411866 .21798706 .3151245 .21798706 .3531189 .21798706 .37512208 .20899964 .39012147 .20599365 .39311219 .20399475 .39611817 .20298767 .40011598 .20298767 .40011598 .20298767 .40512086 .2669983 .40711976 .27398683 .40711976 .34399415 .40711976 .3959961 .37911988 .3959961 .29412843V.26712037C.34700013 .26712037 .035995485 .26312257 .035995485 .11512756 .035995485 .022140503 .1459961-.005859375 .24598694-.005859375 .35198976-.005859375 .39898683 .042129518 .41600038 .06813049 .41600038 .025131226 .44299317 .0001373291 .5249939 .0001373291H.58399966C.6029968 .0001373291 .61898806 .0001373291 .61898806 .028137207M.3959961 .13713074C.3959961 .11613464 .3959961 .087127689 .35699464 .06312561 .31900025 .040130617 .27198792 .040130617 .2659912 .040130617 .20999146 .040130617 .1619873 .071136478 .1619873 .11613464 .1619873 .19812012 .29599 .22512818 .3959961 .2281189V.13713074Z"/>
<path id="font_3_55" d="M.4909973 .6063385C.4909973 .65234377 .44999696 .70028689 .36499024 .70028689 .24899292 .70028689 .1349945 .6533203 .1349945 .540329V.44433595H.051986696V.38832093H.1349945V.055999757H.067993167V0C.07199097 0 .14898682 .0039978029 .19599915 .0039978029L.33898927 0V.055999757H.25498963V.38832093H.3829956V.44433595H.24798584V.5383301C.24798584 .55532839 .24798584 .6542969 .35798646 .6542969 .36898805 .6542969 .36898805 .65234377 .36898805 .65234377 .36898805 .65234377 .36799623 .64933779 .3659973 .64733889 .3619995 .64134219 .35398866 .6263428 .35398866 .6063385 .35398866 .55833438 .3929901 .53733828 .42199708 .53733828 .45498658 .53733828 .4909973 .56033328 .4909973 .6063385Z"/>
</defs>
<path transform="matrix(1,0,0,-1.00002,26.984002,124.111248)" stroke-width=".19925" stroke-linecap="butt" stroke-miterlimit="10" stroke-linejoin="miter" fill="none" stroke="#d9d9d9" d="M0 0H198.42766M0 2.83484H198.42766M0 5.6697H198.42766M0 8.50455H198.42766M0 11.33939H198.42766M0 14.17424H198.42766M0 17.0091H198.42766M0 19.84393H198.42766M0 22.67879H198.42766M0 25.51364H198.42766M0 28.3485H198.42766M0 31.18333H198.42766M0 34.01819H198.42766M0 36.85304H198.42766M0 39.68788H198.42766M0 42.52274H198.42766M0 45.35759H198.42766M0 48.19244H198.42766M0 51.02728H198.42766M0 53.86214H198.42766M0 56.69699H198.42766M0 59.53183H198.42766M0 62.36668H198.42766M0 65.20154H198.42766M0 68.03639H198.42766M0 70.87123H198.42766M0 73.70609H198.42766M0 76.54094H198.42766M0 79.37578H198.42766M0 82.21063H198.42766M0 85.04549H198.42766M0 87.88034H198.42766M0 90.71518H198.42766M0 93.55003H198.42766M0 96.38489H198.42766M0 99.21973H198.42766M0 102.05458H198.42766M0 104.88943H198.42766M0 107.72429H198.42766M0 110.55913H198.42766M0 113.38402H198.42766M0 0V113.38724M2.83484 0V113.38724M5.6697 0V113.38724M8.50455 0V113.38724M11.33939 0V113.38724M14.17424 0V113.38724M17.0091 0V113.38724M19.84393 0V113.38724M22.67879 0V113.38724M25.51364 0V113.38724M28.3485 0V113.38724M31.18333 0V113.38724M34.01819 0V113.38724M36.85304 0V113.38724M39.68788 0V113.38724M42.52274 0V113.38724M45.35759 0V113.38724M48.19244 0V113.38724M51.02728 0V113.38724M53.86214 0V113.38724M56.69699 0V113.38724M59.53183 0V113.38724M62.36668 0V113.38724M65.20154 0V113.38724M68.03639 0V113.38724M70.87123 0V113.38724M73.70609 0V113.38724M76.54094 0V113.38724M79.37578 0V113.38724M82.21063 0V113.38724M85.04549 0V113.38724M87.88034 0V113.38724M90.71518 0V113.38724M93.55003 0V113.38724M96.38489 0V113.38724M99.21973 0V113.38724M102.05458 0V113.38724M104.88943 0V113.38724M107.72429 0V113.38724M110.55913 0V113.38724M113.39398 0V113.38724M116.22884 0V113.38724M119.06367 0V113.38724M121.89853 0V113.38724M124.73338 0V113.38724M127.56824 0V113.38724M130.40308 0V113.38724M133.23793 0V113.38724M136.07279 0V113.38724M138.90763 0V113.38724M141.74248 0V113.38724M144.57733 0V113.38724M147.41219 0V113.38724M150.24703 0V113.38724M153.08188 0V113.38724M155.91674 0V113.38724M158.75157 0V113.38724M161.58643 0V113.38724M164.42128 0V113.38724M167.25612 0V113.38724M170.09098 0V113.38724M172.92583 0V113.38724M175.76068 0V113.38724M178.59552 0V113.38724M181.43038 0V113.38724M184.26523 0V113.38724M187.10007 0V113.38724M189.93492 0V113.38724M192.76978 0V113.38724M195.60463 0V113.38724M198.42766 113.38724"/>
<path transform="matrix(1,0,0,-1.00002,26.984002,124.111248)" stroke-width=".3985" stroke-linecap="butt" stroke-miterlimit="10" stroke-linejoin="miter" fill="none" stroke="#a6a6a6" d="M0 0H198.42766M0 28.3468H198.42766M0 56.69362H198.42766M0 85.04042H198.42766M0 113.37727H198.42766M0 0V113.38724M28.3468 0V113.38724M56.69362 0V113.38724M85.04042 0V113.38724M113.38724 0V113.38724M141.73404 0V113.38724M170.08086 0V113.38724M198.41771 0V113.38724M198.42766 113.38724"/>
<path transform="matrix(1,0,0,-1.00002,26.984002,124.111248)" stroke-width=".79701" stroke-linecap="butt" stroke-miterlimit="10" stroke-linejoin="miter" fill="none" stroke="#000000" d="M0 0H197.63065"/>
<path transform="matrix(1,0,0,-1.00002,225.01316,124.111248)" stroke-width=".79701" stroke-linecap="round" stroke-linejoin="round" fill="none" stroke="#000000" d="M-2.55046 3.11095C-2.0845 1.24435-1.04614 .36295 0 0-1.04614-.36295-2.0845-1.24435-2.55046-3.11095"/>
<path transform="matrix(1,0,0,-1.00002,26.984002,124.111248)" stroke-width=".79701" stroke-linecap="butt" stroke-miterlimit="10" stroke-linejoin="miter" fill="none" stroke="#000000" d="M0 0V112.59023"/>
<path transform="matrix(0,-1.00002,-1,-0,26.984002,11.1202549)" stroke-width=".79701" stroke-linecap="round" stroke-linejoin="round" fill="none" stroke="#000000" d="M-2.55046 3.11095C-2.0845 1.24435-1.04614 .36295 0 0-1.04614-.36295-2.0845-1.24435-2.55046-3.11095"/>
<use data-text="1" xlink:href="#font_1_82" transform="matrix(9.9626,0,0,-9.962799,47.859,134.37645)"/>
<use data-text="4" xlink:href="#font_1_57" transform="matrix(9.9626,0,0,-9.962799,52.8403,134.37645)"/>
<use data-text="0" xlink:href="#font_1_121" transform="matrix(9.9626,0,0,-9.962799,57.8216,134.37645)"/>
<use data-text="1" xlink:href="#font_1_82" transform="matrix(9.9626,0,0,-9.962799,76.206,134.37645)"/>
<use data-text="4" xlink:href="#font_1_57" transform="matrix(9.9626,0,0,-9.962799,81.1873,134.37645)"/>
<use data-text="5" xlink:href="#font_1_56" transform="matrix(9.9626,0,0,-9.962799,86.1686,134.37645)"/>
<use data-text="1" xlink:href="#font_1_82" transform="matrix(9.9626,0,0,-9.962799,104.552,134.26645)"/>
<use data-text="5" xlink:href="#font_1_56" transform="matrix(9.9626,0,0,-9.962799,109.5333,134.26645)"/>
<use data-text="5" xlink:href="#font_1_56" transform="matrix(9.9626,0,0,-9.962799,114.5146,134.26645)"/>
<use data-text="1" xlink:href="#font_1_82" transform="matrix(9.9626,0,0,-9.962799,132.899,134.36646)"/>
<use data-text="7" xlink:href="#font_1_100" transform="matrix(9.9626,0,0,-9.962799,137.88031,134.36646)"/>
<use data-text="0" xlink:href="#font_1_121" transform="matrix(9.9626,0,0,-9.962799,142.8616,134.36646)"/>
<use data-text="1" xlink:href="#font_1_82" transform="matrix(9.9626,0,0,-9.962799,161.246,134.26645)"/>
<use data-text="9" xlink:href="#font_1_78" transform="matrix(9.9626,0,0,-9.962799,166.2273,134.26645)"/>
<use data-text="0" xlink:href="#font_1_121" transform="matrix(9.9626,0,0,-9.962799,171.20859,134.26645)"/>
<use data-text="2" xlink:href="#font_1_107" transform="matrix(9.9626,0,0,-9.962799,189.59299,134.26645)"/>
<use data-text="0" xlink:href="#font_1_121" transform="matrix(9.9626,0,0,-9.962799,194.5743,134.26645)"/>
<use data-text="0" xlink:href="#font_1_121" transform="matrix(9.9626,0,0,-9.962799,199.5556,134.26645)"/>
<use data-text="0" xlink:href="#font_2_121" transform="matrix(8.9664,0,0,-8.966579,18.855004,126.99831)"/>
<use data-text="1" xlink:href="#font_2_82" transform="matrix(8.9664,0,0,-8.966579,11.681999,98.650737)"/>
<use data-text="." xlink:href="#font_2_88" transform="matrix(8.9664,0,0,-8.966579,16.290726,98.650737)"/>
<use data-text="0" xlink:href="#font_2_121" transform="matrix(8.9664,0,0,-8.966579,18.855118,98.650737)"/>
<use data-text="2" xlink:href="#font_2_107" transform="matrix(8.9664,0,0,-8.966579,11.681999,70.30417)"/>
<use data-text="." xlink:href="#font_2_88" transform="matrix(8.9664,0,0,-8.966579,16.290726,70.30417)"/>
<use data-text="0" xlink:href="#font_2_121" transform="matrix(8.9664,0,0,-8.966579,18.855118,70.30417)"/>
<use data-text="3" xlink:href="#font_2_106" transform="matrix(8.9664,0,0,-8.966579,11.681999,41.956598)"/>
<use data-text="." xlink:href="#font_2_88" transform="matrix(8.9664,0,0,-8.966579,16.290726,41.956598)"/>
<use data-text="0" xlink:href="#font_2_121" transform="matrix(8.9664,0,0,-8.966579,18.855118,41.956598)"/>
<use data-text="4" xlink:href="#font_2_57" transform="matrix(8.9664,0,0,-8.966579,11.681999,13.658035)"/>
<use data-text="." xlink:href="#font_2_88" transform="matrix(8.9664,0,0,-8.966579,16.290726,13.658035)"/>
<use data-text="0" xlink:href="#font_2_121" transform="matrix(8.9664,0,0,-8.966579,18.855118,13.658035)"/>
<path transform="matrix(1,0,0,-1.00002,26.984002,124.111248)" d="M28.3468 0V45.35506H42.5202V0ZM42.5202 45.35506" fill="#6666ff"/>
<path transform="matrix(1,0,0,-1.00002,26.984002,124.111248)" stroke-width=".79701" stroke-linecap="butt" stroke-miterlimit="10" stroke-linejoin="miter" fill="none" stroke="#000000" d="M28.3468 0V45.35506H42.5202V0ZM42.5202 45.35506"/>
<path transform="matrix(1,0,0,-1.00002,26.984002,124.111248)" d="M42.5202 0V56.69362H70.867V0ZM70.867 56.69362" fill="#6666ff"/>
<path transform="matrix(1,0,0,-1.00002,26.984002,124.111248)" stroke-width=".79701" stroke-linecap="butt" stroke-miterlimit="10" stroke-linejoin="miter" fill="none" stroke="#000000" d="M42.5202 0V56.69362H70.867V0ZM70.867 56.69362"/>
<path transform="matrix(1,0,0,-1.00002,26.984002,124.111248)" d="M70.867 0V56.69362H113.38724V0ZM113.38724 56.69362" fill="#6666ff"/>
<path transform="matrix(1,0,0,-1.00002,26.984002,124.111248)" stroke-width=".79701" stroke-linecap="butt" stroke-miterlimit="10" stroke-linejoin="miter" fill="none" stroke="#000000" d="M70.867 0V56.69362H113.38724V0ZM113.38724 56.69362"/>
<path transform="matrix(1,0,0,-1.00002,26.984002,124.111248)" d="M113.38724 0V25.51193H170.08086V0ZM170.08086 25.51193" fill="#6666ff"/>
<path transform="matrix(1,0,0,-1.00002,26.984002,124.111248)" stroke-width=".79701" stroke-linecap="butt" stroke-miterlimit="10" stroke-linejoin="miter" fill="none" stroke="#000000" d="M113.38724 0V25.51193H170.08086V0ZM170.08086 25.51193"/>
<path transform="matrix(1,0,0,-1.00002,26.984002,124.111248)" d="M170.08086 0V28.3468H184.25424V0ZM184.25424 28.3468" fill="#6666ff"/>
<path transform="matrix(1,0,0,-1.00002,26.984002,124.111248)" stroke-width=".79701" stroke-linecap="butt" stroke-miterlimit="10" stroke-linejoin="miter" fill="none" stroke="#000000" d="M170.08086 0V28.3468H184.25424V0ZM184.25424 28.3468"/>
<use data-text="H" xlink:href="#font_3_62" transform="matrix(6.9738,0,0,-6.97394,102.194,141.36559)"/>
<use data-text="e" xlink:href="#font_3_50" transform="matrix(6.9738,0,0,-6.97394,109.18175,141.36559)"/>
<use data-text="i" xlink:href="#font_3_66" transform="matrix(6.9738,0,0,-6.97394,113.310237,141.36559)"/>
<use data-text="g" xlink:href="#font_3_59" transform="matrix(6.9738,0,0,-6.97394,115.84172,141.36559)"/>
<use data-text="h" xlink:href="#font_3_63" transform="matrix(6.9738,0,0,-6.97394,120.35377,141.36559)"/>
<use data-text="t" xlink:href="#font_3_105" transform="matrix(6.9738,0,0,-6.97394,125.1099,141.36559)"/>
<use data-text="(" xlink:href="#font_3_85" transform="matrix(6.9738,0,0,-6.97394,131.65134,141.36559)"/>
<use data-text="c" xlink:href="#font_3_43" transform="matrix(6.9738,0,0,-6.97394,135.1731,141.36559)"/>
<use data-text="m" xlink:href="#font_3_75" transform="matrix(6.9738,0,0,-6.97394,139.19,141.36559)"/>
<use data-text=")" xlink:href="#font_3_86" transform="matrix(6.9738,0,0,-6.97394,146.67292,141.36559)"/>
<use data-text="F" xlink:href="#font_3_54" transform="matrix(0,-6.97394,-6.9738,-0,6.0009996,104.221858)"/>
<use data-text="r" xlink:href="#font_3_96" transform="matrix(0,-6.97394,-6.9738,-0,6.0009996,99.32614)"/>
<use data-text="e" xlink:href="#font_3_50" transform="matrix(0,-6.97394,-6.9738,-0,6.0009996,95.595088)"/>
<use data-text="q" xlink:href="#font_3_91" transform="matrix(0,-6.97394,-6.9738,-0,6.0009996,91.46652)"/>
<use data-text="u" xlink:href="#font_3_109" transform="matrix(0,-6.97394,-6.9738,-0,6.0009996,86.70332)"/>
<use data-text="e" xlink:href="#font_3_50" transform="matrix(0,-6.97394,-6.9738,-0,6.0009996,81.69603)"/>
<use data-text="n" xlink:href="#font_3_77" transform="matrix(0,-6.97394,-6.9738,-0,6.0009996,77.56746)"/>
<use data-text="c" xlink:href="#font_3_43" transform="matrix(0,-6.97394,-6.9738,-0,6.0009996,72.560169)"/>
<use data-text="y" xlink:href="#font_3_118" transform="matrix(0,-6.97394,-6.9738,-0,6.0009996,68.54318)"/>
<use data-text="D" xlink:href="#font_3_46" transform="matrix(0,-6.97394,-6.9738,-0,6.0009996,60.76027)"/>
<use data-text="e" xlink:href="#font_3_50" transform="matrix(0,-6.97394,-6.9738,-0,6.0009996,53.890947)"/>
<use data-text="n" xlink:href="#font_3_77" transform="matrix(0,-6.97394,-6.9738,-0,6.0009996,49.762376)"/>
<use data-text="s" xlink:href="#font_3_98" transform="matrix(0,-6.97394,-6.9738,-0,6.0009996,44.75508)"/>
<use data-text="i" xlink:href="#font_3_66" transform="matrix(0,-6.97394,-6.9738,-0,6.0009996,41.184419)"/>
<use data-text="t" xlink:href="#font_3_105" transform="matrix(0,-6.97394,-6.9738,-0,6.0009996,38.652879)"/>
<use data-text="y" xlink:href="#font_3_118" transform="matrix(0,-6.97394,-6.9738,-0,6.0009996,35.375123)"/>
<use data-text="H" xlink:href="#font_3_62" transform="matrix(6.9738,0,0,-6.97394,83.901,5.7998735)"/>
<use data-text="i" xlink:href="#font_3_66" transform="matrix(6.9738,0,0,-6.97394,90.88875,5.7998735)"/>
<use data-text="s" xlink:href="#font_3_98" transform="matrix(6.9738,0,0,-6.97394,93.420238,5.7998735)"/>
<use data-text="t" xlink:href="#font_3_105" transform="matrix(6.9738,0,0,-6.97394,96.99082,5.7998735)"/>
<use data-text="o" xlink:href="#font_3_81" transform="matrix(6.9738,0,0,-6.97394,100.512599,5.7998735)"/>
<use data-text="g" xlink:href="#font_3_59" transform="matrix(6.9738,0,0,-6.97394,105.02465,5.7998735)"/>
<use data-text="r" xlink:href="#font_3_96" transform="matrix(6.9738,0,0,-6.97394,109.536708,5.7998735)"/>
<use data-text="a" xlink:href="#font_3_28" transform="matrix(6.9738,0,0,-6.97394,113.26769,5.7998735)"/>
<use data-text="m" xlink:href="#font_3_75" transform="matrix(6.9738,0,0,-6.97394,117.65421,5.7998735)"/>
<use data-text="o" xlink:href="#font_3_81" transform="matrix(6.9738,0,0,-6.97394,128.15677,5.7998735)"/>
<use data-text="f" xlink:href="#font_3_55" transform="matrix(6.9738,0,0,-6.97394,132.66883,5.7998735)"/>
<use data-text="H" xlink:href="#font_3_62" transform="matrix(6.9738,0,0,-6.97394,138.478,5.7998735)"/>
<use data-text="e" xlink:href="#font_3_50" transform="matrix(6.9738,0,0,-6.97394,145.46573,5.7998735)"/>
<use data-text="i" xlink:href="#font_3_66" transform="matrix(6.9738,0,0,-6.97394,149.59424,5.7998735)"/>
<use data-text="g" xlink:href="#font_3_59" transform="matrix(6.9738,0,0,-6.97394,152.12574,5.7998735)"/>
<use data-text="h" xlink:href="#font_3_63" transform="matrix(6.9738,0,0,-6.97394,156.63779,5.7998735)"/>
<use data-text="t" xlink:href="#font_3_105" transform="matrix(6.9738,0,0,-6.97394,161.40088,5.7998735)"/>
<use data-text="s" xlink:href="#font_3_98" transform="matrix(6.9738,0,0,-6.97394,164.92267,5.7998735)"/>
</svg>
