<svg xmlns="http://www.w3.org/2000/svg" xmlns:xlink="http://www.w3.org/1999/xlink" xmlns:inkscape="http://www.inkscape.org/namespaces/inkscape" version="1.1" width="227" height="179" viewBox="0 0 227 179">
<defs>
<path id="font_1_57" d="M.47099305 .16503906V.19602967H.37098695V.6507721C.37098695 .6707611 .37098695 .6767578 .35499574 .6767578 .34599305 .6767578 .34298707 .6767578 .33499146 .6647644L.027999878 .19602967V.16503906H.2939911V.07800293C.2939911 .041992189 .2919922 .0309906 .21798706 .0309906H.19699097V0C.23799134 .0029907227 .2899933 .0029907227 .33198548 .0029907227 .37399293 .0029907227 .4269867 .0029907227 .46798707 0V.0309906H.44699098C.37298585 .0309906 .37098695 .041992189 .37098695 .07800293V.16503906H.47099305M.2999878 .19602967H.055999757L.2999878 .56881716V.19602967Z"/>
<path id="font_1_121" d="M.45999146 .31976319C.45999146 .39982606 .45498658 .47988893 .41999818 .5539398 .37399293 .65000918 .2919922 .6660156 .25 .6660156 .18998719 .6660156 .116989139 .64001467 .07598877 .54693606 .04399109 .47789 .038986207 .39982606 .038986207 .31976319 .038986207 .24472046 .042999269 .15464783 .083999637 .07859802 .1269989-.0024719239 .19999695-.022460938 .24899292-.022460938 .30299378-.022460938 .3789978-.0014648438 .4229889 .09359741 .45498658 .16265869 .45999146 .2407074 .45999146 .31976319M.3769989 .3317871C.3769989 .25672914 .3769989 .18867493 .3659973 .12461853 .35099793 .029556275 .2939911-.00047302247 .24899292-.00047302247 .20999146-.00047302247 .15098572 .024551392 .1329956 .12062073 .12199402 .18066406 .12199402 .2727356 .12199402 .3317871 .12199402 .39582826 .12199402 .46188355 .12998963 .5159149 .14898682 .63500979 .22399903 .64401248 .24899292 .64401248 .28199769 .64401248 .34799195 .6259918 .36698915 .52693179 .3769989 .47088624 .3769989 .39482118 .3769989 .3317871Z"/>
<path id="font_1_56" d="M.44898988 .20091248C.44898988 .31991578 .36698915 .41992188 .25898744 .41992188 .21099854 .41992188 .16799927 .4039154 .13198853 .36891175V.5641022C.1519928 .55778506 .18499756 .55078127 .21699524 .55078127 .33999635 .55078127 .4099884 .6418457 .4099884 .65493777 .4099884 .6609802 .40699769 .6660156 .3999939 .6660156 .3999939 .66607668 .39698792 .66607668 .3919983 .66308596 .37199403 .65408328 .32299806 .63378909 .2559967 .63378909 .21598816 .63409426 .16999817 .641098 .12298584 .6621094 .114990238 .6651001 .11099243 .6651001 .11099243 .6651001 .100997928 .66508486 .100997928 .657074 .100997928 .64108279V.3447113C.100997928 .3266449 .100997928 .31861878 .114990238 .31861878 .12199402 .31861878 .12399292 .32164 .12799073 .32765199 .13899231 .34371949 .17599488 .3979187 .25698854 .3979187 .30899049 .3979187 .33399964 .3517456 .34199525 .3336792 .35798646 .2965393 .3600006 .2574005 .3600006 .20721436 .3600006 .17218018 .3600006 .112197879 .33599855 .07032776 .31199647 .031448366 .2749939 .0055389406 .22898865 .0055389406 .1559906 .0055389406 .09899902 .05836487 .08198547 .1171875 .084991458 .11685181 .08799744 .115859989 .09899902 .115859989 .13198853 .115859989 .14898682 .14085388 .14898682 .16485596 .14898682 .18885803 .13198853 .21386719 .09899902 .21386719 .084991458 .21386719 .049987794 .2068634 .049987794 .16085816 .049987794 .07432556 .11898804-.022460938 .23098755-.022460938 .34700013-.022460938 .44898988 .07331848 .44898988 .20019531V.20091248Z"/>
<path id="font_1_101" d="M.45700074 .2036438C.45700074 .33070375 .36799623 .4267578 .25698854 .4267578 .18899536 .4267578 .1519928 .37573243 .13198853 .327713V.35173036C.13198853 .6047821 .2559967 .64100649 .30699159 .64100649 .33099366 .64100649 .37298585 .634964 .394989 .6007538 .37998963 .6007538 .33999635 .6007538 .33999635 .5557556 .33999635 .524765 .3639984 .5097656 .38598634 .5097656 .4019928 .5097656 .43199159 .51875308 .43199159 .5577545 .43199159 .6178589 .3880005 .6660156 .30499269 .6660156 .1769867 .6660156 .041992189 .5367584 .041992189 .31570436 .041992189 .048553468 .1579895-.022460938 .25099183-.022460938 .3619995-.022460938 .45700074 .07156372 .45700074 .2036438M.36698915 .20463562C.36698915 .15661621 .36698915 .10658264 .34999085 .0705719 .31999208 .010528564 .27398683 .0055389406 .25099183 .0055389406 .18798828 .0055389406 .1579895 .06556702 .1519928 .080566409 .13398743 .127594 .13398743 .2076416 .13398743 .22564698 .13398743 .30369569 .1659851 .40374757 .2559967 .40374757 .27198792 .40374757 .31799317 .40374757 .34899903 .34172059 .36698915 .30470277 .36698915 .2536621 .36698915 .20463562Z"/>
<path id="font_1_51" d="M.45700074 .16764832C.45700074 .20367432 .44599916 .24871826 .4079895 .29074098 .3889923 .31176759 .37298585 .32176209 .30899049 .36180116 .3809967 .39881898 .42999269 .4508667 .42999269 .51690676 .42999269 .6089783 .34098817 .6660156 .25 .6660156 .1499939 .6660156 .068984989 .5919647 .068984989 .49890138 .068984989 .48088075 .070999149 .43585206 .11299133 .38882447 .12399292 .3768158 .16099549 .35179139 .18598938 .33477784 .12799073 .30575563 .041992189 .24971009 .041992189 .15063477 .041992189 .044555665 .14399719-.022460938 .24899292-.022460938 .3619995-.022460938 .45700074 .060577394 .45700074 .16764832M.38598634 .51690676C.38598634 .45986939 .34700013 .41183473 .2869873 .3768158L.16299439 .4568634C.116989139 .4868927 .11299133 .5209198 .11299133 .53793337 .11299133 .5989685 .17799378 .64100649 .24899292 .64100649 .32199098 .64100649 .38598634 .588974 .38598634 .51690676M.40699769 .13162232C.40699769 .05757141 .33198548 .0055389406 .25 .0055389406 .1639862 .0055389406 .09199524 .06758118 .09199524 .15063477 .09199524 .2086792 .12399292 .2727356 .20899964 .31976319L.33198548 .24171448C.3600006 .22268677 .40699769 .19267273 .40699769 .13162232Z"/>
<path id="font_1_78" d="M.45700074 .32888795C.45700074 .598114 .34199525 .6660156 .25299073 .6660156 .19799805 .6660156 .14898682 .64801028 .10598755 .6031189 .06498718 .5580902 .041992189 .5160217 .041992189 .44091798 .041992189 .3158722 .12998963 .21777344 .24198914 .21777344 .30299378 .21777344 .34399415 .25979615 .36698915 .3178711V.28582765C.36698915 .05178833 .2630005 .0055389406 .20498657 .0055389406 .18798828 .0055389406 .13398743 .007537842 .10699463 .041778566 .15098572 .041778566 .15899658 .07078552 .15899658 .08778381 .15899658 .118774417 .1349945 .13378906 .11299133 .13378906 .09700012 .13378906 .066986087 .12478638 .066986087 .08578491 .066986087 .018615723 .12098694-.022460938 .20599365-.022460938 .33499146-.022460938 .45700074 .11378479 .45700074 .32888795M.36499024 .42089845C.36499024 .33789063 .33099366 .24076844 .24299622 .24076844 .22698975 .2407074 .18099976 .2407074 .1499939 .30371095 .13198853 .34072877 .13198853 .3908081 .13198853 .43988038 .13198853 .49397279 .13198853 .5410614 .15299988 .578125 .17999268 .62805178 .21798706 .64100649 .25299073 .64100649 .29899598 .64100649 .33198548 .60710147 .34899903 .562088 .36099244 .52989199 .36499024 .46688844 .36499024 .42089845Z"/>
<path id="font_2_121" d="M.47299195 .31976319C.47299195 .38682557 .46998597 .47288514 .43499757 .5479431 .3909912 .64201357 .31498719 .6660156 .25698854 .6660156 .19699097 .6660156 .12098694 .64201357 .07699585 .5459442 .04499817 .47688294 .039993287 .39582826 .039993287 .31976319 .039993287 .25471498 .041992189 .15765381 .084991458 .07858276 .13198853-.0064697267 .20999146-.022460938 .2559967-.022460938 .32099916-.022460938 .394989 .0055389406 .43699647 .097595218 .46699525 .1646576 .47299195 .23971558 .47299195 .31976319M.3869934 .33177186C.3869934 .2697296 .3869934 .18566895 .3769989 .12661743 .35598756 .012542725 .28199769 .002532959 .25698854 .002532959 .22698975 .002532959 .15499878 .016540528 .13598633 .12962342 .12599182 .18867493 .12599182 .2747345 .12599182 .33177186 .12599182 .39982606 .12599182 .47888185 .13798523 .53393557 .1579895 .6230011 .22200012 .64100649 .2559967 .64100649 .2939911 .64100649 .35699464 .62098696 .37599183 .5279236 .3869934 .47288514 .3869934 .39482118 .3869934 .33177186Z"/>
<path id="font_2_82" d="M.43199159 0V.0309906H.3999939C.30699159 .0309906 .3039856 .042999269 .3039856 .08001709V.63912966C.3039856 .6640167 .30299378 .6660156 .27799989 .6660156 .21598816 .60227969 .12399292 .60227969 .09298706 .60227969V.57128909C.11199951 .57128909 .17298889 .57128909 .22698975 .5972748V.08001709C.22698975 .042999269 .22399903 .0309906 .1309967 .0309906H.09899902V0C.1349945 .0029907227 .22399903 .0029907227 .2649994 .0029907227 .30599977 .0029907227 .3959961 .0029907227 .43199159 0Z"/>
<path id="font_2_88" d="M.19599915 .053985597C.19599915 .08299255 .17199707 .10798645 .14199829 .10798645 .11199951 .10798645 .08799744 .08299255 .08799744 .053985597 .08799744 .023986817 .11199951 0 .14199829 0 .17199707 0 .19599915 .023986817 .19599915 .053985597Z"/>
<path id="font_2_107" d="M.46199037 .17704773H.43399049C.43199159 .16404724 .42399598 .10501099 .41099549 .08900452 .40499879 .07998657 .33599855 .07998657 .31599427 .07998657H.13798523L.23699951 .17404175C.40098573 .3161316 .46199037 .36915589 .46199037 .4711914 .46199037 .5860901 .36698915 .6660156 .24398804 .6660156 .1289978 .6660156 .050994874 .575119 .050994874 .4841919 .050994874 .43418885 .09399414 .42919923 .102996829 .42919923 .125 .42919923 .15499878 .44519044 .15499878 .48120118 .15499878 .51119998 .13398743 .5332031 .102996829 .5332031 .09799194 .5332031 .09498596 .5332031 .09098816 .53219607 .114990238 .6030731 .1789856 .63500979 .23298645 .63500979 .33499146 .63500979 .36999513 .5401764 .36999513 .4711914 .36999513 .36915589 .29299928 .28611756 .24499512 .23408509L.06199646 .035995485C.050994874 .024993897 .050994874 .022994996 .050994874 0H.43399049L.46199037 .17704773Z"/>
<path id="font_2_106" d="M.46998597 .17008972C.46998597 .25709535 .40098573 .33110047 .30499269 .35209657 .397995 .38710023 .44198609 .46009828 .44198609 .5290985 .44198609 .60606387 .35699464 .6660156 .25299073 .6660156 .14898682 .6660156 .070999149 .60705569 .070999149 .5310974 .070999149 .49809266 .09298706 .47909547 .12199402 .47909547 .15098572 .47909547 .17199707 .50009158 .17199707 .5290985 .17199707 .5640869 .147995 .57910159 .11399841 .57910159 .13999939 .6210327 .20098877 .64100649 .25 .64100649 .33299256 .64100649 .34899903 .5750885 .34899903 .52809146 .34899903 .49809266 .34298707 .45005799 .31799317 .41201783 .2869873 .36695863 .2519989 .36495973 .22299195 .36296083 .19799805 .36094667 .19599915 .36094667 .18798828 .36094667 .1789856 .35995484 .17098999 .35894776 .17098999 .34794618 .17098999 .33496095 .1789856 .33496095 .19599915 .33496095H.24299622C.32998658 .33496095 .36799623 .2646637 .36799623 .16937256 .36799623 .04145813 .2999878 .0055389406 .24899292 .0055389406 .22999573 .0055389406 .1329956 .010528564 .08799744 .0843811 .12399292 .07939148 .1519928 .10437012 .1519928 .13838196 .1519928 .17137146 .1269989 .19238281 .09799194 .19238281 .07299805 .19238281 .042999269 .17736817 .042999269 .13537598 .042999269 .046447755 .13598633-.022460938 .2519989-.022460938 .3769989-.022460938 .46998597 .06741333 .46998597 .16937256V.17008972Z"/>
<path id="font_2_57" d="M.48399354 .16503906V.19602967H.38198854V.649765C.38198854 .669754 .38198854 .6767578 .36299134 .6767578 .35099793 .6767578 .34999085 .67575076 .34098817 .6617584L.0289917 .19602967V.16503906H.3019867V.07901001C.3019867 .041992189 .29899598 .0309906 .22399903 .0309906H.20199585V0C.2649994 .0029907227 .33499146 .0029907227 .34199525 .0029907227 .34700013 .0029907227 .4189911 .0029907227 .48199464 0V.0309906H.45999146C.3849945 .0309906 .38198854 .041992189 .38198854 .07901001V.16503906H.48399354M.30799867 .19602967H.06098938L.30799867 .56581118V.19602967Z"/>
<path id="font_2_56" d="M.46199037 .19992066C.46199037 .3209076 .37599183 .41992188 .2669983 .41992188 .21899414 .41992188 .16999817 .4039154 .1349945 .36791993V.5647888C.16499329 .55578616 .19599915 .55078127 .22698975 .55078127 .34999085 .55078127 .42199708 .63983157 .42199708 .6529236 .42199708 .6619873 .41600038 .6660156 .41099549 .6660156 .41099549 .6660156 .40699769 .6660156 .397995 .6609802 .35099793 .6418457 .30499269 .63378909 .2630005 .63378909 .21998596 .63378909 .1749878 .6418457 .1289978 .6609802 .11898804 .6660156 .115997318 .6660156 .115997318 .6660156 .10398865 .6660156 .10398865 .6559448 .10398865 .63882449V.34490968C.10398865 .32699586 .10398865 .31599427 .117996219 .31599427 .12599182 .31562806 .1289978 .3196411 .1349945 .32867433 .16499329 .37083436 .21299744 .39491273 .2649994 .39491273 .37199403 .39491273 .37199403 .24035645 .37199403 .20422364 .37199403 .17321778 .37199403 .11122131 .34399415 .06636047 .31698609 .024475098 .2749939 .0055389406 .23599243 .0055389406 .1769867 .0055389406 .10998535 .042419435 .085998538 .11621094 .085998538 .116882327 .09298706 .11488342 .099990848 .11488342 .11999512 .11488342 .14898682 .12788391 .14898682 .1638794 .14898682 .19488526 .1269989 .21289063 .099990848 .21289063 .07899475 .21289063 .050994874 .20088196 .050994874 .16088867 .050994874 .069732669 .1269989-.022460938 .23799134-.022460938 .35899354-.02279663 .46199037 .07521057 .46199037 .19921875V.19992066Z"/>
<path id="font_3_113" d="M1.2890015 .62953189V.6855469C1.2519989 .6825409 1.2159882 .6815338 1.1790009 .6815338L1.0319977 .6855469V.62953189H1.0499878C1.0569916 .62953189 1.1299896 .62953189 1.1299896 .6215515 1.1299896 .61854556 1.1269989 .6125641 1.1259918 .6095581L.94299319 .16706848 .7509918 .62953189H.84298709V.6855469C.7899933 .6815338 .71598818 .6815338 .6619873 .6815338L.5079956 .6855469V.62953189H.59498599L.6269989 .55262759 .46699525 .16706848 .27598573 .62953189H.36698915V.6855469L.18699646 .6815338 .032989503 .6855469V.62953189H.11999512L.37399293 .017242432C.38398744-.0057373049 .3889923-.01171875 .4229889-.01171875 .45199586-.01171875 .46099855-.010726929 .47299195 .017242432L.6609955 .47071839 .84799197 .017242432C.8600006-.01171875 .875-.01171875 .8989868-.01171875 .9319916-.01171875 .9379883-.006729126 .94799807 .017242432L1.1940003 .611557C1.2009888 .62953189 1.2159882 .62953189 1.2659912 .62953189H1.2890015Z"/>
<path id="font_3_50" d="M.5509949 .11407471C.5509949 .13606262 .5289917 .13606262 .5189972 .13606262 .5009918 .13606262 .49598695 .13505554 .48799134 .11907959 .45199586 .045135499 .36099244 .045135499 .34399415 .045135499 .18598938 .045135499 .18099976 .16203308 .1789856 .20800781H.5159912C.5369873 .20800781 .5509949 .20800781 .5509949 .23800659 .5509949 .2669983 .5439911 .34199525 .49598695 .39100648 .44198609 .44511415 .36799623 .453125 .31298829 .453125 .12799073 .453125 .039993287 .3431244 .039993287 .22512818 .039993287 .10612488 .13198853-.005859375 .32998658-.005859375 .3659973-.005859375 .42399598-.0018615723 .47399903 .025131226 .5329895 .055999757 .5509949 .104003909 .5509949 .11399841V.11407471M.45199586 .25H.1789856C.17999268 .28903199 .18499756 .40711976 .31399537 .40711976 .44299317 .40711976 .44999696 .2930298 .45199586 .25Z"/>
<path id="font_3_66" d="M.31498719 0V.055999757H.2539978V.4501953L.069992069 .4423828V.3863678C.1269989 .3863678 .13398743 .3863678 .13398743 .34733583V.055999757H.066986087V0C.066986087 0 .147995 .0039978029 .19299317 .0039978029 .23399353 .0039978029 .27398683 .0029907227 .31498719 0M.2639923 .602478C.2639923 .6484833 .22698975 .68447878 .18199158 .68447878 .13598633 .68447878 .099990848 .6464844 .099990848 .60346987 .099990848 .55747988 .13699341 .5214844 .18199158 .5214844 .22799683 .5214844 .2639923 .55947878 .2639923 .602478Z"/>
<path id="font_3_59" d="M.6239929 .38919068C.6239929 .42018128 .598999 .45619203 .548996 .45619203 .5079956 .45619203 .46299745 .44018556 .43299867 .41818238 .37399293 .4501953 .31098939 .4501953 .2869873 .4501953 .12399292 .4501953 .068984989 .3651886 .068984989 .30119325 .068984989 .2442627 .10398865 .21226502 .12199402 .19726563 .09899902 .16899109 .08999634 .13999939 .08999634 .10899353 .08999634 .07199097 .10398865 .038986207 .12998963 .0129852299 .09498596 .0051116945 .039993287-.019943238 .039993287-.07203674 .039993287-.13214112 .10998535-.20117188 .32299806-.20117188 .5069885-.20117188 .60598757-.14816284 .60598757-.06903076 .60598757-.04899597 .6029968 .023132325 .519989 .062210084 .45999146 .089263919 .3939972 .089263919 .2919922 .089263919H.23799134C.20298767 .089263919 .18899536 .089263919 .17199707 .103256229 .1619873 .11125183 .14898682 .12625122 .14898682 .1502533 .14898682 .15626526 .14898682 .16725159 .1559906 .17625427 .20799256 .15126038 .2659912 .15126038 .2869873 .15126038 .45599366 .15126038 .5059967 .2392273 .5059967 .30020143 .5059967 .3511963 .47499085 .38519288 .46598817 .39318849 .48199464 .39920045 .5049896 .40618897 .526001 .40820313 .5239868 .40319825 .522995 .39520265 .522995 .38919068 .522995 .3531952 .5529938 .3381958 .57299807 .3381958 .59599307 .3381958 .6239929 .3551941 .6239929 .38919068M.3869934 .30119325C.3869934 .2602234 .3869934 .19726563 .2869873 .19726563 .18798828 .19726563 .18798828 .2612152 .18798828 .30020143 .18798828 .34014894 .18798828 .40419007 .2869873 .40419007 .3869934 .40419007 .3869934 .34114076 .3869934 .30111695V.30119325M.5079956-.072128299C.5079956-.105148319 .46598817-.15518189 .32299806-.15518189 .18598938-.15518189 .13798523-.1081543 .13798523-.071121219 .13798523-.019134522 .20698548-.019134522 .21998596-.019134522H.35299684C.37799073-.019134522 .5079956-.019134522 .5079956-.072143558V-.072128299Z"/>
<path id="font_3_63" d="M.67900088 0V.055999757H.6119995V.3011322C.6119995 .42419435 .5329895 .4501953 .44099427 .4501953 .32998658 .4501953 .27398683 .3901825 .25099183 .3561554V.69433596L.06399536 .6855469V.62953189C.12298584 .62953189 .1309967 .62953189 .1309967 .590683V.055999757H.06399536V0C.06399536 0 .1459961 .0039978029 .19400025 .0039978029 .24299622 .0039978029 .32499696 0 .32499696 0V.055999757H.2579956V.24909973C.2579956 .36515809 .3619995 .40419007 .42199708 .40419007 .46598817 .40419007 .4850006 .3811798 .4850006 .3091278V.055999757H.41799928V0C.41799928 0 .5 .0039978029 .5479889 .0039978029 .5970001 .0039978029 .67900088 0 .67900088 0Z"/>
<path id="font_3_105" d="M.42900086 .121170047V.17320252H.3659973V.1251831C.3659973 .056137086 .32398988 .045135499 .3039856 .045135499 .24598694 .045135499 .24499512 .09416199 .24499512 .121170047V.38832093H.4079895V.44433595H.24499512V.6357422H.18199158C.18099976 .5425415 .13398743 .43733216 .027999878 .43432618V.38832093H.117996219V.121170047C.117996219 .022140503 .19898987-.005859375 .28599549-.005859375 .36499024-.005859375 .42900086 .040130617 .42900086 .121170047Z"/>
<path id="font_3_85" d="M.42900086-.23103333C.42900086-.22303772 .42599488-.22003174 .4099884-.20703125 .30799867-.11903381 .23298645 .037979127 .23298645 .24998474 .23298645 .38897706 .2659912 .58699038 .4189911 .7149811 .42399598 .7189789 .42900086 .72299197 .42900086 .73197939 .42900086 .75 .4099884 .75 .4059906 .75 .3849945 .75 .32798768 .7039795 .30699159 .6839905 .20999146 .5879822 .12199402 .4519806 .12199402 .25097657 .12199402 .082977298 .18399048-.062026979 .30699159-.18302918 .32798768-.20303345 .38398744-.24902344 .4059906-.24902344 .4099884-.24902344 .42900086-.24902344 .42900086-.23103333Z"/>
<path id="font_3_70" d="M.6559906 0V.055999757C.6259918 .055999757 .6049957 .055999757 .59599307 .05899048 .58898928 .05999756 .58699038 .06199646 .57499697 .07400513L.3929901 .2722168 .5359955 .37431336C.5499878 .38432313 .55599978 .38832093 .6279907 .38832093V.44433595C.6009979 .44232179 .57299807 .44032289 .54599 .44032289 .5019989 .44032289 .42199708 .44433595 .4169922 .44433595V.38832093C.42999269 .38832093 .43299867 .3853302 .43699647 .38232423 .43499757 .38032533 .42799378 .37532044 .4249878 .37332154L.24198914 .2421875V.69433596L.054992677 .6855469V.62953189C.115997318 .62953189 .12199402 .62953189 .12199402 .5885773V.055999757H.054992677V0C.06098938 0 .13598633 .0039978029 .1789856 .0039978029 .22698975 .0039978029 .30299378 0 .30299378 0V.055999757H.23599243V.16090393L.30499269 .20986939 .43099977 .07298279C.43899537 .0639801 .43998719 .0619812 .43998719 .0619812 .43998719 .055999757 .4269867 .055999757 .4189911 .055999757V0L.548996 .0039978029C.58499148 .0039978029 .6199951 .0029907227 .6559906 0Z"/>
<path id="font_3_86" d="M.38198854 .24998474C.38198854 .417984 .31999208 .5629883 .19699097 .6839905 .17599488 .7039795 .11999512 .75 .09799194 .75 .09399414 .75 .07499695 .75 .07499695 .73197939 .07499695 .72398379 .07798767 .7209778 .09399414 .70799258 .19599915 .61997988 .2709961 .46298219 .2709961 .25097657 .2709961 .111968997 .23799134-.08602905 .084991458-.21403504 .07998657-.21803284 .07499695-.22203064 .07499695-.23103333 .07499695-.24902344 .09399414-.24902344 .09799194-.24902344 .11898804-.24902344 .17599488-.20303345 .19699097-.18302918 .2939911-.087020877 .38198854 .048980714 .38198854 .24998474Z"/>
<path id="font_3_54" d="M.7509918 .4401245 .71699526 .67904666H.056991579V.6230469H.1639862V.055999757H.056991579V0C.08299255 .0019989014 .23399353 .0039978029 .24198914 .0039978029L.35299684 .0029907227C.3789978 .0019989014 .4229889 .0019989014 .44898988 0V.055999757H.31498719V.31214906H.3769989C.46499635 .31214906 .48799134 .2841339 .48799134 .2020874H.5509949V.47810365H.48799134C.48799134 .3971405 .46598817 .36816407 .3769989 .36816407H.31498719V.6230469H.47799684C.6199951 .6230469 .6689911 .5770569 .6879883 .4401245H.7509918Z"/>
<path id="font_3_96" d="M.49499513 .3611908C.49499513 .41618348 .43899537 .4501953 .3769989 .4501953 .30499269 .45028688 .25698854 .4022827 .22999573 .34028626H.22898865V.4501953L.054992677 .4423828V.3863678C.11399841 .3863678 .12199402 .3863678 .12199402 .34733583V.055999757H.054992677V0C.05899048 0 .13598633 .0039978029 .18299866 .0039978029L.32598878 0V.055999757H.24198914V.21017456C.24198914 .30029298 .2829895 .399292 .37298585 .40429688 .37298585 .40429688 .35899354 .3862915 .35899354 .36128236 .35899354 .32229615 .3869934 .29328919 .4269867 .29328919 .46699525 .29328919 .49499513 .32229615 .49499513 .36128236V.3611908Z"/>
<path id="font_3_91" d="M.6629944-.19371033V-.13769531H.59599307V.4501953H.5399933L.49398805 .3731842C.44699098 .42518617 .3889923 .4501953 .32099916 .4501953 .1499939 .4501953 .04699707 .35217286 .04699707 .22116089 .04699707 .10014343 .13798523-.005859375 .31199647-.005859375 .37399293-.005859375 .4269867 .014129639 .46899415 .045135499V-.13769531H.4019928V-.19371033C.4019928-.19371033 .48399354-.18969727 .5319977-.18969727 .58099368-.18969727 .6629944-.19371033 .6629944-.19371033M.47599793 .13414002C.44198609 .074142459 .38598634 .040130617 .32398988 .040130617 .24899292 .040130617 .18598938 .10014343 .18598938 .22116089 .18598938 .34718324 .26098634 .39918519 .33699037 .39918519 .42099 .39918519 .47599793 .32217408 .47599793 .26916505V.13414002Z"/>
<path id="font_3_109" d="M.67900088 .0001373291V.056137086C.6199951 .056137086 .6119995 .056137086 .6119995 .09513855V.4501953L.41799928 .44218446V.3861847C.47698976 .3861847 .4850006 .3861847 .4850006 .34718324V.16215515C.4850006 .07913208 .42099 .040130617 .34498597 .040130617 .25898744 .040130617 .2579956 .06213379 .2579956 .11013794V.4501953L.06399536 .44218446V.3861847C.12298584 .3861847 .1309967 .3861847 .1309967 .34718324V.12113953C.1309967 .005126953 .24198914-.005859375 .32798768-.005859375 .36099244-.005859375 .43499757-.005859375 .49198915 .06513977V-.005859375L.67900088 .0001373291Z"/>
<path id="font_3_77" d="M.67900088 0V.055999757H.6119995V.30078126C.6119995 .42419435 .5329895 .4501953 .44099427 .4501953 .31999208 .4501953 .2639923 .37800599 .24499512 .34577943V.4501953L.06399536 .4423828V.3863678C.12298584 .3863678 .1309967 .3863678 .1309967 .34677125V.055999757H.06399536V0C.06399536 0 .1459961 .0039978029 .19400025 .0039978029 .24299622 .0039978029 .32499696 0 .32499696 0V.055999757H.2579956V.24882508C.2579956 .36515809 .3619995 .40419007 .42199708 .40419007 .46598817 .40419007 .4850006 .3811798 .4850006 .3091278V.055999757H.41799928V0C.41799928 0 .5 .0039978029 .5479889 .0039978029 .5970001 .0039978029 .67900088 0 .67900088 0Z"/>
<path id="font_3_43" d="M.5349884 .11413574C.5349884 .13212586 .5179901 .13212586 .5029907 .13212586 .47999574 .13212586 .47799684 .13113404 .47099305 .11613464 .45599366 .08312988 .42399598 .045135499 .34700013 .045135499 .18598938 .045135499 .18598938 .18511963 .18598938 .22612 .18598938 .30111695 .19799805 .40211488 .33198548 .40211488 .33799745 .40211488 .394989 .40112306 .394989 .39712525L.3929901 .39311219C.3909912 .39012147 .38198854 .37512208 .38198854 .3531189 .38198854 .31211854 .4119873 .28411866 .45098878 .28411866 .49198915 .28411866 .5209961 .31211854 .5209961 .35412599 .5209961 .45011903 .3869934 .453125 .32899476 .453125 .10598755 .453125 .04699707 .3151245 .04699707 .22212219 .04699707 .10513306 .13398743-.005859375 .32299806-.005859375 .37199403-.005859375 .4229889 .0021362305 .46299745 .025131226 .519989 .059127809 .5349884 .10812378 .5349884 .11413574Z"/>
<path id="font_3_118" d="M.6459961 .38832093V.44433595C.6179962 .44232179 .58999636 .44032289 .56199648 .44032289 .5319977 .44032289 .49299623 .44132997 .46299745 .44433595V.38832093C.4869995 .38832093 .4909973 .3873291 .5059967 .38232423L.3769989 .1300354 .23899842 .38832093H.2849884V.44433595C.28199769 .44433595 .20098877 .44032289 .1539917 .44032289 .10899353 .44032289 .038986207 .44433595 .035995485 .44433595V.38832093H.101989749L.30899049-.00012207031C.30299378-.013137817 .272995-.07116699 .269989-.076156619 .23699951-.13616944 .18299866-.15420532 .147995-.15420532 .13899231-.15420532 .13699341-.15420532 .1329956-.15319824 .1499939-.14115906 .15899658-.122161868 .15899658-.10015869 .15899658-.057159425 .1269989-.03515625 .09399414-.03515625 .06098938-.03515625 .0289917-.057159425 .0289917-.10015869 .0289917-.15620423 .08099365-.20019531 .14698792-.20019531 .22099304-.20019531 .29899598-.15820313 .34399415-.07116699L.57099917 .36930848C.57899478 .38331605 .5799866 .38432313 .6009979 .3873291 .61299136 .38832093 .6419983 .38832093 .6459961 .38832093Z"/>
<path id="font_3_46" d="M.9089966 .33776856C.9089966 .54660037 .7529907 .6855469 .5249939 .6855469H.056991579V.62953189H.1639862V.055999757H.056991579V0H.526001C.74598696 0 .9089966 .12693787 .9089966 .33776856M.7529907 .33776856C.7529907 .24784851 .7529907 .055999757 .48399354 .055999757H.30799867V.62953189H.48298646C.7529907 .62953189 .7529907 .42869569 .7529907 .33776856Z"/>
<path id="font_3_98" d="M.46398927 .14213562C.46398927 .18812561 .43998719 .22012329 .4169922 .23912049 .36999513 .27812196 .32699586 .28512574 .24398804 .29812623 .18699646 .3071289 .12799073 .31611634 .12799073 .35612489 .12799073 .41212464 .22799683 .41212464 .24899292 .41212464 .3619995 .41212464 .3659973 .36611939 .36898805 .3421173 .37098695 .3221283 .3769989 .32011415 .3999939 .32011415 .42900086 .32011415 .43199159 .32312013 .43199159 .35212709V.42111207C.43199159 .44111634 .43199159 .453125 .4079895 .453125 .40098573 .453125 .397995 .453125 .38198854 .44511415 .37998963 .4441223 .36698915 .43811036 .36299134 .43811036 .36299134 .43811036 .3600006 .43811036 .35598756 .4401245 .31498719 .453125 .272995 .453125 .2519989 .453125 .22299195 .453125 .1619873 .453125 .11199951 .42611695 .054992677 .39411927 .04699707 .3421173 .04699707 .3191223 .04699707 .2111206 .1789856 .19113159 .24899292 .18013 .30999757 .17112732 .3829956 .16012573 .3829956 .10812378 .3829956 .040130617 .28399659 .040130617 .2599945 .040130617 .16499329 .040130617 .12998963 .08312988 .11099243 .13713074 .10499573 .15412903 .10398865 .15612793 .07899475 .15612793 .049987794 .15612793 .04699707 .15312195 .04699707 .12413025V.026138306C.04699707 .006134033 .04699707-.005859375 .069992069-.005859375 .07899475-.005859375 .08099365-.005859375 .101989749 .0071258547 .10798645 .010131836 .12399292 .019134522 .12998963 .023132325 .18199158-.005859375 .23599243-.005859375 .25898744-.005859375 .2919922-.005859375 .46398927-.005859375 .46398927 .14213562Z"/>
<path id="font_3_62" d="M.94400027 0V.055999757H.83699038V.62953189H.94400027V.6855469C.92099 .6835327 .7779999 .6815338 .7619934 .6815338 .73999026 .6815338 .6009979 .6835327 .57899478 .6855469V.62953189H.6859894V.38476563H.31498719V.62953189H.42199708V.6855469C.39898683 .6835327 .2559967 .6815338 .23999024 .6815338 .21798706 .6815338 .07899475 .6835327 .056991579 .6855469V.62953189H.1639862V.055999757H.056991579V0C.07998657 .0019989014 .22299195 .0039978029 .23899842 .0039978029 .26098634 .0039978029 .3999939 .0019989014 .42199708 0V.055999757H.31498719V.3287506H.6859894V.055999757H.57899478V0C.60198977 .0019989014 .7449951 .0039978029 .7609863 .0039978029 .7829895 .0039978029 .9219971 .0019989014 .94400027 0Z"/>
<path id="font_3_81" d="M.60598757 .21812439C.60598757 .3371277 .5189972 .453125 .32299806 .453125 .125 .453125 .039993287 .3361206 .039993287 .21812439 .039993287 .101135257 .1289978-.005859375 .32299806-.005859375 .5179901-.005859375 .60598757 .102127078 .60598757 .21812439M.46699525 .2301178C.46699525 .14413452 .46699525 .045135499 .32299806 .045135499 .1789856 .045135499 .1789856 .14413452 .1789856 .2301178 .1789856 .31011964 .1789856 .40711976 .32299806 .40711976 .46699525 .40711976 .46699525 .31011964 .46699525 .2301178Z"/>
<path id="font_3_28" d="M.61898806 .028137207C.61898806 .056137086 .60398867 .056137086 .58299258 .056137086 .522995 .056137086 .522995 .06413269 .522995 .087127689V.29512025C.522995 .37712098 .45700074 .453125 .2769928 .453125 .21899414 .453125 .07899475 .453125 .07899475 .35412599 .07899475 .31011964 .11099243 .28411866 .147995 .28411866 .19198609 .28411866 .21798706 .3151245 .21798706 .3531189 .21798706 .37512208 .20899964 .39012147 .20599365 .39311219 .20399475 .39611817 .20298767 .40011598 .20298767 .40011598 .20298767 .40512086 .2669983 .40711976 .27398683 .40711976 .34399415 .40711976 .3959961 .37911988 .3959961 .29412843V.26712037C.34700013 .26712037 .035995485 .26312257 .035995485 .11512756 .035995485 .022140503 .1459961-.005859375 .24598694-.005859375 .35198976-.005859375 .39898683 .042129518 .41600038 .06813049 .41600038 .025131226 .44299317 .0001373291 .5249939 .0001373291H.58399966C.6029968 .0001373291 .61898806 .0001373291 .61898806 .028137207M.3959961 .13713074C.3959961 .11613464 .3959961 .087127689 .35699464 .06312561 .31900025 .040130617 .27198792 .040130617 .2659912 .040130617 .20999146 .040130617 .1619873 .071136478 .1619873 .11613464 .1619873 .19812012 .29599 .22512818 .3959961 .2281189V.13713074Z"/>
<path id="font_3_75" d="M1.0349884 0V.055999757H.96798709V.30078126C.96798709 .42619325 .8849945 .4501953 .7969971 .4501953 .70098879 .4501953 .6399994 .40518189 .6069946 .35583497 .58200076 .44319154 .49598695 .4501953 .44198609 .4501953 .32199098 .4501953 .2649994 .38002015 .24499512 .34577943V.4501953L.06399536 .4423828V.3863678C.12298584 .3863678 .1309967 .3863678 .1309967 .34677125V.055999757H.06399536V0C.06399536 0 .1459961 .0039978029 .19400025 .0039978029 .24299622 .0039978029 .32499696 0 .32499696 0V.055999757H.2579956V.24882508C.2579956 .36715699 .36499024 .40419007 .42199708 .40419007 .46699525 .40419007 .48599244 .38217164 .48599244 .308136V.055999757H.4189911V0C.4189911 0 .5009918 .0039978029 .548996 .0039978029 .59799197 .0039978029 .6799927 0 .6799927 0V.055999757H.61299136V.24909973C.61299136 .36715699 .7200012 .40419007 .7769928 .40419007 .82199099 .40419007 .84098818 .38217164 .84098818 .308136V.055999757H.7739868V0C.7739868 0 .85598757 .0039978029 .9039917 .0039978029 .9529877 .0039978029 1.0349884 0 1.0349884 0Z"/>
<path id="font_3_47" d="M.6619873 0V.055999757C.6029968 .055999757 .59498599 .055999757 .59498599 .09501648V.69433596L.4079895 .6855469V.62953189C.46699525 .62953189 .47499085 .62953189 .47499085 .59065249V.40820313C.41299439 .44618226 .35699464 .4501953 .32398988 .4501953 .14498902 .4501953 .04699707 .34817506 .04699707 .22116089 .04699707 .09713745 .13999939-.005859375 .31098939-.005859375 .375-.005859375 .42799378 .014129639 .46798707 .042129518V-.005859375L.6619873 0M.46798707 .115997318C.44499208 .08314514 .3959961 .040130617 .32299806 .040130617 .18598938 .040130617 .18598938 .16015625 .18598938 .21916199 .18598938 .2811737 .18598938 .40419007 .33599855 .40419007 .41999818 .40419007 .46499635 .3481903 .46798707 .3441925V.115997318Z"/>
<path id="font_3_83" d="M.8029938 .48664857C.8029938 .5955658 .69599917 .6855469 .5099945 .6855469H.056991579V.62953189H.1639862V.055999757H.056991579V0C.07998657 .0019989014 .22299195 .0039978029 .23899842 .0039978029 .26098634 .0039978029 .3999939 .0019989014 .42199708 0V.055999757H.31498719V.2917633H.5099945C.69299319 .2917633 .8029938 .3767395 .8029938 .48664857M.6399994 .48664857C.6399994 .42170716 .6399994 .34277345 .47399903 .34277345H.30799867V.62953189H.47599793C.6399994 .62953189 .6399994 .55059817 .6399994 .48664857Z"/>
<path id="font_3_72" d="M.32099916 0V.055999757H.2539978V.69433596L.066986087 .6855469V.62953189C.12599182 .62953189 .13398743 .62953189 .13398743 .5905762V.055999757H.066986087V0C.069992069 0 .147995 .0039978029 .19400025 .0039978029 .24299622 .0039978029 .31799317 0 .32099916 0Z"/>
</defs>
<path transform="matrix(1,0,0,-1.00006,26.984002,152.42343)" stroke-width=".19925" stroke-linecap="butt" stroke-miterlimit="10" stroke-linejoin="miter" fill="none" stroke="#d9d9d9" d="M0 0H198.42766M0 2.83484H198.42766M0 5.6697H198.42766M0 8.50455H198.42766M0 11.33939H198.42766M0 14.17424H198.42766M0 17.0091H198.42766M0 19.84393H198.42766M0 22.67879H198.42766M0 25.51364H198.42766M0 28.3485H198.42766M0 31.18333H198.42766M0 34.01819H198.42766M0 36.85304H198.42766M0 39.68788H198.42766M0 42.52274H198.42766M0 45.35759H198.42766M0 48.19244H198.42766M0 51.02728H198.42766M0 53.86214H198.42766M0 56.69699H198.42766M0 59.53183H198.42766M0 62.36668H198.42766M0 65.20154H198.42766M0 68.03639H198.42766M0 70.87123H198.42766M0 73.70609H198.42766M0 76.54094H198.42766M0 79.37578H198.42766M0 82.21063H198.42766M0 85.04549H198.42766M0 87.88034H198.42766M0 90.71518H198.42766M0 93.55003H198.42766M0 96.38489H198.42766M0 99.21973H198.42766M0 102.05458H198.42766M0 104.88943H198.42766M0 107.72429H198.42766M0 110.55913H198.42766M0 113.39398H198.42766M0 116.22884H198.42766M0 119.06367H198.42766M0 121.89853H198.42766M0 124.73338H198.42766M0 127.56824H198.42766M0 130.40308H198.42766M0 133.23793H198.42766M0 136.07279H198.42766M0 138.90763H198.42766M0 141.73253H198.42766M0 0V141.73404M2.83484 0V141.73404M5.6697 0V141.73404M8.50455 0V141.73404M11.33939 0V141.73404M14.17424 0V141.73404M17.0091 0V141.73404M19.84393 0V141.73404M22.67879 0V141.73404M25.51364 0V141.73404M28.3485 0V141.73404M31.18333 0V141.73404M34.01819 0V141.73404M36.85304 0V141.73404M39.68788 0V141.73404M42.52274 0V141.73404M45.35759 0V141.73404M48.19244 0V141.73404M51.02728 0V141.73404M53.86214 0V141.73404M56.69699 0V141.73404M59.53183 0V141.73404M62.36668 0V141.73404M65.20154 0V141.73404M68.03639 0V141.73404M70.87123 0V141.73404M73.70609 0V141.73404M76.54094 0V141.73404M79.37578 0V141.73404M82.21063 0V141.73404M85.04549 0V141.73404M87.88034 0V141.73404M90.71518 0V141.73404M93.55003 0V141.73404M96.38489 0V141.73404M99.21973 0V141.73404M102.05458 0V141.73404M104.88943 0V141.73404M107.72429 0V141.73404M110.55913 0V141.73404M113.39398 0V141.73404M116.22884 0V141.73404M119.06367 0V141.73404M121.89853 0V141.73404M124.73338 0V141.73404M127.56824 0V141.73404M130.40308 0V141.73404M133.23793 0V141.73404M136.07279 0V141.73404M138.90763 0V141.73404M141.74248 0V141.73404M144.57733 0V141.73404M147.41219 0V141.73404M150.24703 0V141.73404M153.08188 0V141.73404M155.91674 0V141.73404M158.75157 0V141.73404M161.58643 0V141.73404M164.42128 0V141.73404M167.25612 0V141.73404M170.09098 0V141.73404M172.92583 0V141.73404M175.76068 0V141.73404M178.59552 0V141.73404M181.43038 0V141.73404M184.26523 0V141.73404M187.10007 0V141.73404M189.93492 0V141.73404M192.76978 0V141.73404M195.60463 0V141.73404M198.42766 141.73404"/>
<path transform="matrix(1,0,0,-1.00006,26.984002,152.42343)" stroke-width=".3985" stroke-linecap="butt" stroke-miterlimit="10" stroke-linejoin="miter" fill="none" stroke="#a6a6a6" d="M0 0H198.42766M0 28.3468H198.42766M0 56.69362H198.42766M0 85.04042H198.42766M0 113.38724H198.42766M0 141.72409H198.42766M0 0V141.73404M28.3468 0V141.73404M56.69362 0V141.73404M85.04042 0V141.73404M113.38724 0V141.73404M141.73404 0V141.73404M170.08086 0V141.73404M198.41771 0V141.73404M198.42766 141.73404"/>
<path transform="matrix(1,0,0,-1.00006,26.984002,152.42343)" stroke-width=".79701" stroke-linecap="butt" stroke-miterlimit="10" stroke-linejoin="miter" fill="none" stroke="#000000" d="M0 0H197.63065"/>
<path transform="matrix(1,0,0,-1.00006,225.01316,152.42343)" stroke-width=".79701" stroke-linecap="round" stroke-linejoin="round" fill="none" stroke="#000000" d="M-2.55046 3.11095C-2.0845 1.24435-1.04614 .36295 0 0-1.04614-.36295-2.0845-1.24435-2.55046-3.11095"/>
<path transform="matrix(1,0,0,-1.00006,26.984002,152.42343)" stroke-width=".79701" stroke-linecap="butt" stroke-miterlimit="10" stroke-linejoin="miter" fill="none" stroke="#000000" d="M0 0V140.93703"/>
<path transform="matrix(0,-1.00006,-1,-0,26.984002,11.079422)" stroke-width=".79701" stroke-linecap="round" stroke-linejoin="round" fill="none" stroke="#000000" d="M-2.55046 3.11095C-2.0845 1.24435-1.04614 .36295 0 0-1.04614-.36295-2.0845-1.24435-2.55046-3.11095"/>
<use data-text="4" xlink:href="#font_1_57" transform="matrix(9.9626,0,0,-9.963197,50.349,162.68904)"/>
<use data-text="0" xlink:href="#font_1_121" transform="matrix(9.9626,0,0,-9.963197,55.3303,162.68904)"/>
<use data-text="5" xlink:href="#font_1_56" transform="matrix(9.9626,0,0,-9.963197,78.696,162.57904)"/>
<use data-text="0" xlink:href="#font_1_121" transform="matrix(9.9626,0,0,-9.963197,83.67731,162.57904)"/>
<use data-text="5" xlink:href="#font_1_56" transform="matrix(9.9626,0,0,-9.963197,107.043,162.57904)"/>
<use data-text="5" xlink:href="#font_1_56" transform="matrix(9.9626,0,0,-9.963197,112.0243,162.57904)"/>
<use data-text="6" xlink:href="#font_1_101" transform="matrix(9.9626,0,0,-9.963197,135.39,162.57904)"/>
<use data-text="5" xlink:href="#font_1_56" transform="matrix(9.9626,0,0,-9.963197,140.3713,162.57904)"/>
<use data-text="8" xlink:href="#font_1_51" transform="matrix(9.9626,0,0,-9.963197,163.737,162.57904)"/>
<use data-text="0" xlink:href="#font_1_121" transform="matrix(9.9626,0,0,-9.963197,168.7183,162.57904)"/>
<use data-text="9" xlink:href="#font_1_78" transform="matrix(9.9626,0,0,-9.963197,192.08301,162.57904)"/>
<use data-text="0" xlink:href="#font_1_121" transform="matrix(9.9626,0,0,-9.963197,197.0643,162.57904)"/>
<use data-text="0" xlink:href="#font_2_121" transform="matrix(8.9664,0,0,-8.966938,18.855004,155.31061)"/>
<use data-text="1" xlink:href="#font_2_82" transform="matrix(8.9664,0,0,-8.966938,11.681999,126.96191)"/>
<use data-text="." xlink:href="#font_2_88" transform="matrix(8.9664,0,0,-8.966938,16.290726,126.96191)"/>
<use data-text="0" xlink:href="#font_2_121" transform="matrix(8.9664,0,0,-8.966938,18.855118,126.96191)"/>
<use data-text="2" xlink:href="#font_2_107" transform="matrix(8.9664,0,0,-8.966938,11.681999,98.614208)"/>
<use data-text="." xlink:href="#font_2_88" transform="matrix(8.9664,0,0,-8.966938,16.290726,98.614208)"/>
<use data-text="0" xlink:href="#font_2_121" transform="matrix(8.9664,0,0,-8.966938,18.855118,98.614208)"/>
<use data-text="3" xlink:href="#font_2_106" transform="matrix(8.9664,0,0,-8.966938,11.681999,70.2655)"/>
<use data-text="." xlink:href="#font_2_88" transform="matrix(8.9664,0,0,-8.966938,16.290726,70.2655)"/>
<use data-text="0" xlink:href="#font_2_121" transform="matrix(8.9664,0,0,-8.966938,18.855118,70.2655)"/>
<use data-text="4" xlink:href="#font_2_57" transform="matrix(8.9664,0,0,-8.966938,11.681999,41.965814)"/>
<use data-text="." xlink:href="#font_2_88" transform="matrix(8.9664,0,0,-8.966938,16.290726,41.965814)"/>
<use data-text="0" xlink:href="#font_2_121" transform="matrix(8.9664,0,0,-8.966938,18.855118,41.965814)"/>
<use data-text="5" xlink:href="#font_2_56" transform="matrix(8.9664,0,0,-8.966938,11.681999,13.5681)"/>
<use data-text="." xlink:href="#font_2_88" transform="matrix(8.9664,0,0,-8.966938,16.290726,13.5681)"/>
<use data-text="0" xlink:href="#font_2_121" transform="matrix(8.9664,0,0,-8.966938,18.855118,13.5681)"/>
<path transform="matrix(1,0,0,-1.00006,26.984002,152.42343)" d="M28.3468 0V22.67752H56.69362V0ZM56.69362 22.67752" fill="#6666ff"/>
<path transform="matrix(1,0,0,-1.00006,26.984002,152.42343)" stroke-width=".79701" stroke-linecap="butt" stroke-miterlimit="10" stroke-linejoin="miter" fill="none" stroke="#000000" d="M28.3468 0V22.67752H56.69362V0ZM56.69362 22.67752"/>
<path transform="matrix(1,0,0,-1.00006,26.984002,152.42343)" d="M56.69362 0V68.03217H70.867V0ZM70.867 68.03217" fill="#6666ff"/>
<path transform="matrix(1,0,0,-1.00006,26.984002,152.42343)" stroke-width=".79701" stroke-linecap="butt" stroke-miterlimit="10" stroke-linejoin="miter" fill="none" stroke="#000000" d="M56.69362 0V68.03217H70.867V0ZM70.867 68.03217"/>
<path transform="matrix(1,0,0,-1.00006,26.984002,152.42343)" d="M70.867 0V42.5202H113.38724V0ZM113.38724 42.5202" fill="#6666ff"/>
<path transform="matrix(1,0,0,-1.00006,26.984002,152.42343)" stroke-width=".79701" stroke-linecap="butt" stroke-miterlimit="10" stroke-linejoin="miter" fill="none" stroke="#000000" d="M70.867 0V42.5202H113.38724V0ZM113.38724 42.5202"/>
<path transform="matrix(1,0,0,-1.00006,26.984002,152.42343)" d="M113.38724 0V18.9923H155.90744V0ZM155.90744 18.9923" fill="#6666ff"/>
<path transform="matrix(1,0,0,-1.00006,26.984002,152.42343)" stroke-width=".79701" stroke-linecap="butt" stroke-miterlimit="10" stroke-linejoin="miter" fill="none" stroke="#000000" d="M113.38724 0V18.9923H155.90744V0ZM155.90744 18.9923"/>
<path transform="matrix(1,0,0,-1.00006,26.984002,152.42343)" d="M155.90744 0V14.17339H170.08086V0ZM170.08086 14.17339" fill="#6666ff"/>
<path transform="matrix(1,0,0,-1.00006,26.984002,152.42343)" stroke-width=".79701" stroke-linecap="butt" stroke-miterlimit="10" stroke-linejoin="miter" fill="none" stroke="#000000" d="M155.90744 0V14.17339H170.08086V0ZM170.08086 14.17339"/>
<path transform="matrix(1,0,0,-1.00006,26.984002,152.42343)" stroke-width=".79701" stroke-linecap="butt" stroke-miterlimit="10" stroke-linejoin="miter" fill="none" stroke="#000000" d="M21.2601 0 42.5202 22.67752 63.7803 68.03217 92.1271 42.5202 134.64734 18.9923 162.99414 14.17339 177.16754 0"/>
<path transform="matrix(1,0,0,-1.00006,26.984002,152.42343)" d="M44.51276 22.67752C44.51276 23.77798 43.62067 24.67007 42.5202 24.67007 41.41972 24.67007 40.52765 23.77798 40.52765 22.67752 40.52765 21.57704 41.41972 20.68497 42.5202 20.68497 43.62067 20.68497 44.51276 21.57704 44.51276 22.67752ZM42.5202 22.67752"/>
<path transform="matrix(1,0,0,-1.00006,26.984002,152.42343)" d="M65.77286 68.03217C65.77286 69.13263 64.88077 70.02472 63.7803 70.02472 62.67982 70.02472 61.78775 69.13263 61.78775 68.03217 61.78775 66.93169 62.67982 66.03961 63.7803 66.03961 64.88077 66.03961 65.77286 66.93169 65.77286 68.03217ZM63.7803 68.03217"/>
<path transform="matrix(1,0,0,-1.00006,26.984002,152.42343)" d="M94.11966 42.5202C94.11966 43.62067 93.22758 44.51276 92.1271 44.51276 91.02664 44.51276 90.13455 43.62067 90.13455 42.5202 90.13455 41.41972 91.02664 40.52765 92.1271 40.52765 93.22758 40.52765 94.11966 41.41972 94.11966 42.5202ZM92.1271 42.5202"/>
<path transform="matrix(1,0,0,-1.00006,26.984002,152.42343)" d="M136.6399 18.9923C136.6399 20.09277 135.7478 20.98485 134.64734 20.98485 133.54686 20.98485 132.65479 20.09277 132.65479 18.9923 132.65479 17.89183 133.54686 16.99974 134.64734 16.99974 135.7478 16.99974 136.6399 17.89183 136.6399 18.9923ZM134.64734 18.9923"/>
<path transform="matrix(1,0,0,-1.00006,26.984002,152.42343)" d="M164.9867 14.17339C164.9867 15.27386 164.09462 16.16594 162.99414 16.16594 161.89368 16.16594 161.00159 15.27386 161.00159 14.17339 161.00159 13.07292 161.89368 12.18083 162.99414 12.18083 164.09462 12.18083 164.9867 13.07292 164.9867 14.17339ZM162.99414 14.17339"/>
<use data-text="W" xlink:href="#font_3_113" transform="matrix(6.9738,0,0,-6.9742186,102.56,175.34882)"/>
<use data-text="e" xlink:href="#font_3_50" transform="matrix(6.9738,0,0,-6.9742186,111.040149,175.34882)"/>
<use data-text="i" xlink:href="#font_3_66" transform="matrix(6.9738,0,0,-6.9742186,115.16863,175.34882)"/>
<use data-text="g" xlink:href="#font_3_59" transform="matrix(6.9738,0,0,-6.9742186,117.70012,175.34882)"/>
<use data-text="h" xlink:href="#font_3_63" transform="matrix(6.9738,0,0,-6.9742186,122.212169,175.34882)"/>
<use data-text="t" xlink:href="#font_3_105" transform="matrix(6.9738,0,0,-6.9742186,126.9683,175.34882)"/>
<use data-text="(" xlink:href="#font_3_85" transform="matrix(6.9738,0,0,-6.9742186,133.50974,175.34882)"/>
<use data-text="k" xlink:href="#font_3_70" transform="matrix(6.9738,0,0,-6.9742186,137.0315,175.34882)"/>
<use data-text="g" xlink:href="#font_3_59" transform="matrix(6.9738,0,0,-6.9742186,141.79462,175.34882)"/>
<use data-text=")" xlink:href="#font_3_86" transform="matrix(6.9738,0,0,-6.9742186,146.30667,175.34882)"/>
<use data-text="F" xlink:href="#font_3_54" transform="matrix(0,-6.9742186,-6.9738,-0,6.001007,118.35938)"/>
<use data-text="r" xlink:href="#font_3_96" transform="matrix(0,-6.9742186,-6.9738,-0,6.001007,113.46347)"/>
<use data-text="e" xlink:href="#font_3_50" transform="matrix(0,-6.9742186,-6.9738,-0,6.001007,109.73227)"/>
<use data-text="q" xlink:href="#font_3_91" transform="matrix(0,-6.9742186,-6.9738,-0,6.001007,105.60354)"/>
<use data-text="u" xlink:href="#font_3_109" transform="matrix(0,-6.9742186,-6.9738,-0,6.001007,100.84015)"/>
<use data-text="e" xlink:href="#font_3_50" transform="matrix(0,-6.9742186,-6.9738,-0,6.001007,95.83266)"/>
<use data-text="n" xlink:href="#font_3_77" transform="matrix(0,-6.9742186,-6.9738,-0,6.001007,91.70392)"/>
<use data-text="c" xlink:href="#font_3_43" transform="matrix(0,-6.9742186,-6.9738,-0,6.001007,86.69644)"/>
<use data-text="y" xlink:href="#font_3_118" transform="matrix(0,-6.9742186,-6.9738,-0,6.001007,82.67929)"/>
<use data-text="D" xlink:href="#font_3_46" transform="matrix(0,-6.9742186,-6.9738,-0,6.001007,74.89606)"/>
<use data-text="e" xlink:href="#font_3_50" transform="matrix(0,-6.9742186,-6.9738,-0,6.001007,68.02646)"/>
<use data-text="n" xlink:href="#font_3_77" transform="matrix(0,-6.9742186,-6.9738,-0,6.001007,63.89772)"/>
<use data-text="s" xlink:href="#font_3_98" transform="matrix(0,-6.9742186,-6.9738,-0,6.001007,58.89023)"/>
<use data-text="i" xlink:href="#font_3_66" transform="matrix(0,-6.9742186,-6.9738,-0,6.001007,55.319429)"/>
<use data-text="t" xlink:href="#font_3_105" transform="matrix(0,-6.9742186,-6.9738,-0,6.001007,52.78778)"/>
<use data-text="y" xlink:href="#font_3_118" transform="matrix(0,-6.9742186,-6.9738,-0,6.001007,49.509889)"/>
<use data-text="H" xlink:href="#font_3_62" transform="matrix(6.9738,0,0,-6.9742186,57.759004,5.7586367)"/>
<use data-text="i" xlink:href="#font_3_66" transform="matrix(6.9738,0,0,-6.9742186,64.74675,5.7586367)"/>
<use data-text="s" xlink:href="#font_3_98" transform="matrix(6.9738,0,0,-6.9742186,67.27824,5.7586367)"/>
<use data-text="t" xlink:href="#font_3_105" transform="matrix(6.9738,0,0,-6.9742186,70.84882,5.7586367)"/>
<use data-text="o" xlink:href="#font_3_81" transform="matrix(6.9738,0,0,-6.9742186,74.3706,5.7586367)"/>
<use data-text="g" xlink:href="#font_3_59" transform="matrix(6.9738,0,0,-6.9742186,78.88265,5.7586367)"/>
<use data-text="r" xlink:href="#font_3_96" transform="matrix(6.9738,0,0,-6.9742186,83.39471,5.7586367)"/>
<use data-text="a" xlink:href="#font_3_28" transform="matrix(6.9738,0,0,-6.9742186,87.125698,5.7586367)"/>
<use data-text="m" xlink:href="#font_3_75" transform="matrix(6.9738,0,0,-6.9742186,91.512218,5.7586367)"/>
<use data-text="a" xlink:href="#font_3_28" transform="matrix(6.9738,0,0,-6.9742186,102.01476,5.7586367)"/>
<use data-text="n" xlink:href="#font_3_77" transform="matrix(6.9738,0,0,-6.9742186,106.40128,5.7586367)"/>
<use data-text="d" xlink:href="#font_3_47" transform="matrix(6.9738,0,0,-6.9742186,111.40847,5.7586367)"/>
<use data-text="F" xlink:href="#font_3_54" transform="matrix(6.9738,0,0,-6.9742186,119.44228,5.7586367)"/>
<use data-text="r" xlink:href="#font_3_96" transform="matrix(6.9738,0,0,-6.9742186,124.34486,5.7586367)"/>
<use data-text="e" xlink:href="#font_3_50" transform="matrix(6.9738,0,0,-6.9742186,128.07584,5.7586367)"/>
<use data-text="q" xlink:href="#font_3_91" transform="matrix(6.9738,0,0,-6.9742186,132.20435,5.7586367)"/>
<use data-text="u" xlink:href="#font_3_109" transform="matrix(6.9738,0,0,-6.9742186,136.96744,5.7586367)"/>
<use data-text="e" xlink:href="#font_3_50" transform="matrix(6.9738,0,0,-6.9742186,141.97464,5.7586367)"/>
<use data-text="n" xlink:href="#font_3_77" transform="matrix(6.9738,0,0,-6.9742186,146.10312,5.7586367)"/>
<use data-text="c" xlink:href="#font_3_43" transform="matrix(6.9738,0,0,-6.9742186,151.11032,5.7586367)"/>
<use data-text="y" xlink:href="#font_3_118" transform="matrix(6.9738,0,0,-6.9742186,155.12723,5.7586367)"/>
<use data-text="P" xlink:href="#font_3_83" transform="matrix(6.9738,0,0,-6.9742186,162.90998,5.7586367)"/>
<use data-text="o" xlink:href="#font_3_81" transform="matrix(6.9738,0,0,-6.9742186,168.79587,5.7586367)"/>
<use data-text="l" xlink:href="#font_3_72" transform="matrix(6.9738,0,0,-6.9742186,173.30792,5.7586367)"/>
<use data-text="y" xlink:href="#font_3_118" transform="matrix(6.9738,0,0,-6.9742186,175.83942,5.7586367)"/>
<use data-text="g" xlink:href="#font_3_59" transform="matrix(6.9738,0,0,-6.9742186,180.60254,5.7586367)"/>
<use data-text="o" xlink:href="#font_3_81" transform="matrix(6.9738,0,0,-6.9742186,185.1146,5.7586367)"/>
<use data-text="n" xlink:href="#font_3_77" transform="matrix(6.9738,0,0,-6.9742186,189.62665,5.7586367)"/>
</svg>
