<svg xmlns="http://www.w3.org/2000/svg" xmlns:xlink="http://www.w3.org/1999/xlink" xmlns:inkscape="http://www.inkscape.org/namespaces/inkscape" version="1.1" width="248" height="393" viewBox="0 0 248 393">
<defs>
<path id="font_1_95" d="M.7519989 .088897708C.7519989 .09489441 .7519989 .10687256 .73799136 .10687256 .72499087 .10687256 .72499087 .09788513 .723999 .08988953 .71899417 .026992798 .6879883 .0029907227 .6569977 .0029907227 .625 .0029907227 .6139984 .022994996 .60598757 .039978029 .5970001 .061935426 .58799746 .12983704 .58200076 .17475891 .57398989 .23666382 .5649872 .3035431 .45399476 .33850099 .548996 .36550904 .6269989 .42453004 .6269989 .5025635 .6269989 .601593 .5059967 .6826172 .35899354 .6826172H.039993287V.6516113H.06298828C.13999939 .6516113 .14199829 .64060977 .14199829 .6035919V.07891846C.14199829 .04197693 .13999939 .0309906 .06298828 .0309906H.039993287V0C.08699036 .0029907227 .13699341 .0029907227 .18499756 .0029907227 .23298645 .0029907227 .2829895 .0029907227 .33099366 0V.0309906H.30799867C.23098755 .0309906 .22898865 .04197693 .22898865 .07891846V.32850648H.34899903C.42099 .32850648 .45298768 .29057313 .45700074 .28657533 .4869995 .24963379 .4869995 .23466492 .4869995 .16377259 .4869995 .09687805 .4869995 .052963258 .5349884 .01499939 .58200076-.022003174 .6419983-.022003174 .6529999-.022003174 .7369995-.022003174 .7519989 .064941409 .7519989 .088897708M.5249939 .5025635C.5249939 .41653443 .48098756 .35351563 .34498597 .35351563H.22898865V.6105957C.22898865 .63661196 .23098755 .6456146 .25 .6496124 .25898744 .6516113 .29100038 .6516113 .31199647 .6516113 .397995 .6516113 .5249939 .6516113 .5249939 .5025635Z"/>
<path id="font_1_28" d="M.49699403 .089141849V.14515686H.46899415V.090148929C.46899415 .07914734 .46899415 .029129029 .43299867 .029129029 .39698792 .029129029 .39698792 .07714844 .39698792 .09315491V.26818849C.39698792 .32521058 .39698792 .3592224 .35198976 .40022279 .31498719 .43322755 .2669983 .4482422 .21699524 .4482422 .1329956 .4482422 .06298828 .40623475 .06298828 .34220887 .06298828 .311203 .083999637 .2942047 .10998535 .2942047 .13699341 .2942047 .1559906 .31420899 .1559906 .34020997 .1559906 .3832245 .11099243 .38822938 .11099243 .38822938 .13798523 .41423036 .18598938 .42323304 .21499634 .42323304 .2659912 .42323304 .32299806 .3852234 .32299806 .29719544V.26419068C.2689972 .26219178 .19400025 .2571869 .1269989 .22518921 .054992677 .19017029 .032989503 .13816834 .032989503 .09814453 .032989503 .01625061 .12998963-.0107421879 .19699097-.0107421879 .27999879-.0107421879 .31799317 .04425049 .33198548 .072250369 .33699037 .030136109 .3659973-.005859375 .40899659-.005859375 .43399049-.005859375 .49699403 .009140015 .49699403 .08912659V.089141849M.32299806 .14112854C.32299806 .04425049 .24798584 .014251709 .20399475 .014251709 .15699768 .014251709 .11299133 .04824829 .11299133 .098236087 .11299133 .16423035 .16999817 .23422241 .32299806 .24023438V.14112854Z"/>
<path id="font_1_66" d="M.25299073 0V.0309906C.18798828 .0309906 .18399048 .035995485 .18399048 .075042728V.4423828L.039993287 .43066407V.3996582C.10398865 .3996582 .11299133 .3936615 .11299133 .3447113V.07695007C.11299133 .0309906 .101989749 .0309906 .035995485 .0309906V0C.08099365 .0019989014 .101989749 .0029907227 .1459961 .0029907227 .1619873 .0029907227 .20399475 .0029907227 .25299073 0M.19699097 .6028137C.19699097 .63282778 .17298889 .6568146 .14299011 .6568146 .11299133 .6568146 .08898926 .63282778 .08898926 .6028137 .08898926 .57281497 .11299133 .5488281 .14299011 .5488281 .17298889 .5488281 .19699097 .57281497 .19699097 .6028137Z"/>
<path id="font_1_77" d="M.5469971 0V.0309906C.49598695 .03125 .47099305 .03125 .46998597 .0622406V.25431825C.46998597 .3373413 .46998597 .36636354 .44198609 .4013672 .4189911 .42938233 .3809967 .4423828 .33099366 .4423828 .23799134 .4423828 .19499207 .37335206 .18099976 .34535218H.17999268V.4423828L.034988405 .43066407V.3996582C.102996829 .3996582 .11199951 .39266969 .11199951 .34370423V.07695007C.11199951 .0309906 .100997928 .0309906 .034988405 .0309906V0C.08198547 .0019989014 .100997928 .0029907227 .14898682 .0029907227 .19699097 .0029907227 .20999146 .0019989014 .2630005 0V.0309906C.19699097 .0309906 .18598938 .0309906 .18598938 .07695007V.25878907C.18598938 .36532594 .26098634 .41737367 .32398988 .41737367 .3829956 .41737367 .3959961 .3683319 .3959961 .30825807V.077041629C.3959961 .0309906 .3849945 .0309906 .31900025 .0309906V0C.3659973 .0019989014 .3849945 .0029907227 .43299867 .0029907227 .48098756 .0029907227 .49398805 .0019989014 .5469971 0Z"/>
<path id="font_1_55" d="M.3659973 .6340637C.3659973 .67207339 .32798768 .7050781 .272995 .7050781 .19499207 .7046509 .11299133 .6456604 .11299133 .5456543V.43066407H.033996583V.3996582H.11299133V.07695007C.11299133 .0309906 .101989749 .0309906 .035995485 .0309906V0C.08898926 .0019989014 .101989749 .0029907227 .15299988 .0029907227L.27999879 0V.0309906H.2599945C.18699646 .0309906 .18399048 .04197693 .18399048 .078948978V.3996582H.2999878V.43066407H.18099976V.5436554C.18099976 .6350708 .22999573 .68006899 .272995 .68006899 .2829895 .68006899 .29299928 .67807009 .30299378 .67407229 .29299928 .67007449 .2769928 .6580658 .2769928 .6330719 .2769928 .6070709 .29599 .58906558 .32099916 .58906558 .34799195 .58906558 .3659973 .60806277 .3659973 .6340637Z"/>
<path id="font_1_72" d="M.26098634 0V.0309906C.19499207 .0309906 .18399048 .0309906 .18399048 .07701111V.69433596L.035995485 .6826172V.6516113C.10398865 .6516113 .11299133 .64460757 .11299133 .5956421V.07696533C.11299133 .0309906 .101989749 .0309906 .035995485 .0309906V0C.08299255 .0019989014 .101989749 .0029907227 .147995 .0029907227 .19499207 .0029907227 .21199036 .0019989014 .26098634 0Z"/>
<path id="font_1_85" d="M.34098817-.23803711C.34098817-.23303223 .33799745-.23002625 .33198548-.22303772 .20298767-.105026248 .1639862 .07498169 .1639862 .24998474 .1639862 .40498353 .19400025 .59298709 .33499146 .72698977 .33898927 .73098757 .34098817 .7339783 .34098817 .73898318 .34098817 .74598696 .33599855 .75 .32899476 .75 .31698609 .75 .22698975 .6779785 .17298889 .568985 .125 .47297669 .100997928 .36997987 .100997928 .25097657 .100997928 .17897034 .10998535 .064971927 .16499329-.053024293 .22399903-.17602539 .31698609-.24902344 .32899476-.24902344 .33599855-.24902344 .34098817-.24502564 .34098817-.23803711Z"/>
<path id="font_1_75" d="M.83299258 0V.0309906C.7819977 .03125 .7569885 .03125 .7559967 .0622406V.2539215C.7559967 .34077455 .7559967 .36872865 .72299197 .4056549 .70199587 .43037416 .6619873 .4423828 .6159973 .4423828 .5439911 .4423828 .49499513 .40037538 .46699525 .3473816 .45498658 .40637208 .4149933 .4423828 .33099366 .4423828 .25099183 .4423828 .20199585 .39038087 .18099976 .3443756H.17999268V.4423828L.034988405 .43066407V.3996582C.102996829 .3996582 .11199951 .39266969 .11199951 .34370423V.07695007C.11199951 .0309906 .100997928 .0309906 .034988405 .0309906V0C.08198547 .0019989014 .100997928 .0029907227 .14898682 .0029907227 .19699097 .0029907227 .20999146 .0019989014 .2630005 0V.0309906C.19699097 .0309906 .18598938 .0309906 .18598938 .07695007V.25878907C.18598938 .36732484 .2639923 .41737367 .32398988 .41737367 .3789978 .41737367 .39698792 .37834168 .39698792 .30825807V.077041629C.39698792 .0309906 .38598634 .0309906 .31999208 .0309906V0C.36698915 .0019989014 .38598634 .0029907227 .43399049 .0029907227 .48199464 .0029907227 .49499513 .0019989014 .5479889 0V.0309906C.48199464 .0309906 .47099305 .0309906 .47099305 .077041629V.2592163C.47099305 .36732484 .548996 .41737367 .60899356 .41737367 .6639862 .41737367 .6819916 .37834168 .6819916 .30825807V.077041629C.6819916 .0309906 .67099 .0309906 .6049957 .0309906V0C.6519928 .0019989014 .67099 .0029907227 .71899417 .0029907227 .7669983 .0029907227 .7799988 .0019989014 .83299258 0Z"/>
<path id="font_1_86" d="M.2979889 .25097657C.2979889 .3329773 .28599549 .4429779 .23399353 .5539856 .1749878 .6769867 .08198547 .75 .069992069 .75 .05999756 .75 .057998659 .74198916 .057998659 .73898318 .057998659 .7339783 .05999756 .73098757 .066986087 .72398379 .125 .6719818 .23498535 .5359802 .23498535 .25097657 .23498535 .10797119 .20899964-.091033939 .06399536-.22602844 .06199646-.22903443 .057998659-.23303223 .057998659-.23803711 .057998659-.24102783 .05999756-.24902344 .069992069-.24902344 .08198547-.24902344 .17199707-.17703247 .22599793-.06802368 .27398683 .02796936 .2979889 .13098145 .2979889 .25097657Z"/>
<path id="font_2_54" d="M.56799319 .46017457 .5439911 .68125918H.050994874V.65527346C.11999512 .65527346 .1309967 .65527346 .1309967 .61024478V.071014408C.1309967 .025985718 .11999512 .025985718 .050994874 .025985718V0C.07998657 .0019989014 .13598633 .0019989014 .16699219 .0019989014 .20799256 .0019989014 .2559967 .0019989014 .29699708 0V.025985718H.2749939C.19898987 .025985718 .19699097 .035995485 .19699097 .072006229V.328125H.2869873C.37998963 .328125 .3889923 .29510499 .3889923 .21107483H.40699769V.47117616H.3889923C.3889923 .38713075 .37998963 .35411073 .2869873 .35411073H.19699097V.61624148C.19699097 .65026858 .19898987 .65527346 .23899842 .65527346H.36799623C.5189972 .65527346 .5359955 .5932312 .5499878 .46017457H.56799319Z"/>
<path id="font_2_96" d="M.33299256 .3864746C.33299256 .4184723 .30099488 .43847657 .2669983 .43847657 .19099427 .43847657 .1579895 .36447145 .147995 .32946778H.14698792V.43847657L.0309906 .4273529V.4013672C.08999634 .4013672 .09899902 .39535523 .09899902 .3473053V.06903076C.09899902 .0309906 .09498596 .025985718 .0309906 .025985718V0C.054992677 .0019989014 .100997928 .0019989014 .1269989 .0019989014 .1559906 .0019989014 .20698548 .0019989014 .23399353 0V.025985718C.1619873 .026351929 .1499939 .026351929 .1499939 .07136536V.23635865C.1499939 .33236695 .19099427 .4224701 .2659912 .4224701 .272995 .4224701 .27999879 .421463 .2869873 .41844178 .2869873 .41844178 .2649994 .41140748 .2649994 .38536073 .2649994 .36135865 .28399659 .35136415 .29899598 .35136415 .31098939 .35136415 .33299256 .35835267 .33299256 .38635255V.3864746Z"/>
<path id="font_2_50" d="M.3849945 .25134278C.3849945 .35336305 .33099366 .4423828 .21699524 .4423828 .11099243 .4423828 .026992798 .34135438 .026992798 .21833802 .026992798 .08824158 .12199402-.0078125 .22799683-.0078125 .33999635-.0078125 .38398744 .09825134 .38398744 .119262699 .38398744 .12626648 .37599183 .12626648 .37599183 .12626648 .36898805 .12626648 .36799623 .12426758 .3639984 .11225891 .34199525 .044204713 .2869873 .010177612 .23498535 .010177612 .19198609 .010177612 .14898682 .034194948 .12199402 .07823181 .09098816 .12927246 .09098816 .18830872 .09098816 .23535156H.3809967C.3849945 .23934937 .3849945 .24134827 .3849945 .25134278M.33099366 .25035096H.09199524C.09899902 .3943634 .17599488 .42637635 .21598816 .42637635 .28399659 .42637635 .32998658 .36236573 .33099366 .25035096Z"/>
<path id="font_2_91" d="M.47898866-.19494629V-.16894531C.4149933-.16894531 .41099549-.16494751 .41099549-.12591553V.43847657H.394989L.36499024 .3394165C.34199525 .39245606 .2999878 .43847657 .23298645 .43847657 .1309967 .43847657 .032989503 .3474121 .032989503 .21533203 .032989503 .084228519 .125-.0078125 .22499085-.0078125 .3019867-.0078125 .34498597 .051208497 .35798646 .07322693V-.12591553C.35798646-.16395569 .35398866-.16894531 .2899933-.16894531V-.19494629C.31399537-.19294739 .35798646-.19294739 .38398744-.19294739 .4099884-.19294739 .45498658-.19294739 .47898866-.19494629M.3600006 .13726807C.3600006 .09423828 .32398988 .054214479 .32099916 .051208497 .2899933 .016189576 .2539978 .008178711 .22999573 .008178711 .15499878 .008178711 .09700012 .10324097 .09700012 .21432495 .09700012 .33140565 .16299439 .4204712 .23999024 .4204712 .31999208 .4204712 .3600006 .32940675 .3600006 .27737428V.13726807Z"/>
<path id="font_2_109" d="M.48298646 .00018310547V.026184082C.42399598 .026184082 .4149933 .032180787 .4149933 .080215457V.43847657L.2939911 .42747499V.401474C.35299684 .401474 .3619995 .39546205 .3619995 .34742738V.1652832C.3619995 .081222537 .31698609 .008178711 .24299622 .008178711 .16099549 .008178711 .1539917 .0572052 .1539917 .10923767V.43847657L.032989503 .42747499V.401474C.07299805 .401474 .099990848 .401474 .100997928 .36143495V.16929627C.100997928 .10223389 .100997928 .0592041 .1269989 .031188965 .13999939 .018173218 .16499329-.0078125 .23699951-.0078125 .32199098-.0078125 .35499574 .064208988 .36299134 .08522034H.3639984V-.0078125L.48298646 .00018310547Z"/>
<path id="font_2_77" d="M.48298646 0V.025985718C.4189911 .025985718 .4149933 .02999878 .4149933 .06904602V.3043213C.4149933 .35539247 .40499879 .43847657 .2869873 .43847657 .20799256 .43847657 .16699219 .3774109 .1519928 .33737184H.15098572V.43847657L.032989503 .4273529V.4013672C.09199524 .4013672 .100997928 .39535523 .100997928 .3473053V.06903076C.100997928 .0309906 .09700012 .025985718 .032989503 .025985718V0C.056991579 .0019989014 .100997928 .0019989014 .1269989 .0019989014 .15299988 .0019989014 .19799805 .0019989014 .22200012 0V.025985718C.1579895 .025985718 .1539917 .02999878 .1539917 .06903076V.26123048C.1539917 .35339356 .20999146 .4224701 .27999879 .4224701 .35398866 .4224701 .3619995 .35638429 .3619995 .30833436V.06904602C.3619995 .03100586 .35798646 .025985718 .2939911 .025985718V0C.31799317 .0019989014 .3619995 .0019989014 .3880005 .0019989014 .4139862 .0019989014 .45899964 .0019989014 .48298646 0Z"/>
<path id="font_2_43" d="M.38398744 .11817932C.38398744 .122177127 .3829956 .1251831 .37599183 .1251831 .36898805 .1251831 .36799623 .124176029 .3639984 .11117554 .33799745 .030181885 .2809906 .010177612 .23799134 .010177612 .17399597 .010177612 .09700012 .06918335 .09700012 .21717835 .09700012 .36930848 .17098999 .42437745 .22999573 .42437745 .2689972 .42437745 .32699586 .40534974 .34899903 .35029603 .32998658 .35029603 .3019867 .35029603 .3019867 .31529237 .3019867 .28729249 .32499696 .27929688 .33799745 .27929688 .34498597 .27931214 .37399293 .28230287 .37399293 .31732179 .37399293 .3883667 .30599977 .4423828 .22898865 .4423828 .12298584 .4423828 .032989503 .3443451 .032989503 .21627808 .032989503 .083221439 .1269989-.0078125 .22898865-.0078125 .35299684-.0078125 .38398744 .10722351 .38398744 .1182251V.11817932Z"/>
<path id="font_2_118" d="M.47399903 .40368653V.4296875L.41099549 .42767335C.3899994 .42767335 .35699464 .42767335 .33699037 .4296875V.40368653C.375 .40068055 .37599183 .37269593 .37599183 .36470033 .37599183 .3547058 .37399293 .34970094 .36898805 .33770753L.2599945 .0677948 .14099121 .35969544C.13598633 .37168885 .13598633 .37968446 .13598633 .37968446 .13598633 .40168763 .15899658 .40368653 .18299866 .40368653V.4296875C.15899658 .42767335 .115997318 .42767335 .09098816 .42767335 .06399536 .42767335 .03199768 .42767335 .009994507 .4296875V.40368653C.06399536 .40368653 .069992069 .39868165 .08299255 .36669923L.23199463-.00018310547C.18699646-.1181488 .16099549-.18713379 .09799194-.18713379 .08699036-.18713379 .06199646-.18412781 .04399109-.1661377 .066986087-.1641388 .07699585-.15014649 .07699585-.1331482 .07699585-.1161499 .06498718-.10116577 .04499817-.10116577 .022994996-.10116577 .011993408-.1161499 .011993408-.13415528 .011993408-.1741333 .052993776-.203125 .09799194-.203125 .1559906-.203125 .19198609-.1471405 .21199036-.09716797L.3899994 .34170533C.4149933 .40267945 .45999146 .40368653 .47399903 .40368653Z"/>
<path id="font_3_106" d="M.45700074 .17037964C.45700074 .252594 .3939972 .33088685 .2899933 .35191346 .37199403 .37893678 .42999269 .4490509 .42999269 .52809146 .42999269 .6100464 .34199525 .6660156 .24598694 .6660156 .14498902 .6660156 .068984989 .60606387 .068984989 .53009036 .068984989 .49710084 .09098816 .47808839 .11999512 .47808839 .15098572 .47808839 .17098999 .50009158 .17098999 .5290985 .17098999 .57910159 .12399292 .57910159 .10899353 .57910159 .13999939 .62802127 .20599365 .64100649 .24198914 .64100649 .2829895 .64100649 .33799745 .6190338 .33799745 .5290985 .33799745 .51708987 .33599855 .45906068 .30999757 .4149933 .27999879 .36691285 .24598694 .36390687 .22099304 .36291505 .21299744 .36190797 .18899536 .35990907 .18199158 .35990907 .17399597 .35890199 .16699219 .35791017 .16699219 .3479004 .16699219 .33691407 .17399597 .33691407 .19099427 .33691407H.23498535C.31698609 .33691407 .35398866 .2686615 .35398866 .17037964 .35398866 .034469606 .2849884 .0055389406 .24099732 .0055389406 .19799805 .0055389406 .12298584 .022491456 .08799744 .08137512 .12298584 .07637024 .1539917 .09837341 .1539917 .1363678 .1539917 .17237854 .1269989 .19238281 .09799194 .19238281 .07398987 .19238281 .041992189 .17837525 .041992189 .1343689 .041992189 .043441774 .1349945-.022460938 .24398804-.022460938 .3659973-.022460938 .45700074 .06838989 .45700074 .17037964Z"/>
<path id="font_3_56" d="M.44898988 .20091248C.44898988 .31991578 .36698915 .41992188 .25898744 .41992188 .21099854 .41992188 .16799927 .4039154 .13198853 .36891175V.5641022C.1519928 .55778506 .18499756 .55078127 .21699524 .55078127 .33999635 .55078127 .4099884 .6418457 .4099884 .65493777 .4099884 .6609802 .40699769 .6660156 .3999939 .6660156 .3999939 .66607668 .39698792 .66607668 .3919983 .66308596 .37199403 .65408328 .32299806 .63378909 .2559967 .63378909 .21598816 .63409426 .16999817 .641098 .12298584 .6621094 .114990238 .6651001 .11099243 .6651001 .11099243 .6651001 .100997928 .66508486 .100997928 .657074 .100997928 .64108279V.3447113C.100997928 .3266449 .100997928 .31861878 .114990238 .31861878 .12199402 .31861878 .12399292 .32164 .12799073 .32765199 .13899231 .34371949 .17599488 .3979187 .25698854 .3979187 .30899049 .3979187 .33399964 .3517456 .34199525 .3336792 .35798646 .2965393 .3600006 .2574005 .3600006 .20721436 .3600006 .17218018 .3600006 .112197879 .33599855 .07032776 .31199647 .031448366 .2749939 .0055389406 .22898865 .0055389406 .1559906 .0055389406 .09899902 .05836487 .08198547 .1171875 .084991458 .11685181 .08799744 .115859989 .09899902 .115859989 .13198853 .115859989 .14898682 .14085388 .14898682 .16485596 .14898682 .18885803 .13198853 .21386719 .09899902 .21386719 .084991458 .21386719 .049987794 .2068634 .049987794 .16085816 .049987794 .07432556 .11898804-.022460938 .23098755-.022460938 .34700013-.022460938 .44898988 .07331848 .44898988 .20019531V.20091248Z"/>
<path id="font_3_88" d="M.19198609 .052993776C.19198609 .08198547 .16799927 .10598755 .13899231 .10598755 .10998535 .10598755 .085998538 .08198547 .085998538 .052993776 .085998538 .023986817 .10998535 0 .13899231 0 .16799927 0 .19198609 .023986817 .19198609 .052993776Z"/>
<path id="font_3_57" d="M.47099305 .16503906V.19602967H.37098695V.6507721C.37098695 .6707611 .37098695 .6767578 .35499574 .6767578 .34599305 .6767578 .34298707 .6767578 .33499146 .6647644L.027999878 .19602967V.16503906H.2939911V.07800293C.2939911 .041992189 .2919922 .0309906 .21798706 .0309906H.19699097V0C.23799134 .0029907227 .2899933 .0029907227 .33198548 .0029907227 .37399293 .0029907227 .4269867 .0029907227 .46798707 0V.0309906H.44699098C.37298585 .0309906 .37098695 .041992189 .37098695 .07800293V.16503906H.47099305M.2999878 .19602967H.055999757L.2999878 .56881716V.19602967Z"/>
<path id="font_3_82" d="M.4189911 0V.0309906H.3869934C.29699708 .0309906 .2939911 .041992189 .2939911 .07902527V.64012148C.2939911 .6640167 .2939911 .6660156 .2709961 .6660156 .20899964 .60227969 .12098694 .60227969 .08898926 .60227969V.57128909C.10899353 .57128909 .16799927 .57128909 .21998596 .5972748V.07902527C.21998596 .042999269 .21699524 .0309906 .1269989 .0309906H.09498596V0C.12998963 .0029907227 .21699524 .0029907227 .25698854 .0029907227 .29699708 .0029907227 .38398744 .0029907227 .4189911 0Z"/>
<path id="font_3_100" d="M.4850006 .6435547H.24198914C.11999512 .6435547 .117996219 .6566467 .11399841 .67578127H.08898926L.055999757 .46954347H.08099365C.083999637 .48554994 .09298706 .54855349 .10598755 .5605469 .11299133 .5665436 .19099427 .5665436 .20399475 .5665436H.41099549L.29899598 .40853883C.20899964 .2735443 .17599488 .13453675 .17599488 .03253174 .17599488 .022537232 .17599488-.022460938 .22200012-.022460938 .2679901-.022460938 .2679901 .022537232 .2679901 .03253174V.08354187C.2679901 .13853455 .2709961 .19354248 .2789917 .24754334 .2829895 .27053834 .29699708 .35653688 .34098817 .41854859L.47599793 .608551C.4850006 .62054446 .4850006 .62254336 .4850006 .6435547Z"/>
<path id="font_3_78" d="M.45700074 .32888795C.45700074 .598114 .34199525 .6660156 .25299073 .6660156 .19799805 .6660156 .14898682 .64801028 .10598755 .6031189 .06498718 .5580902 .041992189 .5160217 .041992189 .44091798 .041992189 .3158722 .12998963 .21777344 .24198914 .21777344 .30299378 .21777344 .34399415 .25979615 .36698915 .3178711V.28582765C.36698915 .05178833 .2630005 .0055389406 .20498657 .0055389406 .18798828 .0055389406 .13398743 .007537842 .10699463 .041778566 .15098572 .041778566 .15899658 .07078552 .15899658 .08778381 .15899658 .118774417 .1349945 .13378906 .11299133 .13378906 .09700012 .13378906 .066986087 .12478638 .066986087 .08578491 .066986087 .018615723 .12098694-.022460938 .20599365-.022460938 .33499146-.022460938 .45700074 .11378479 .45700074 .32888795M.36499024 .42089845C.36499024 .33789063 .33099366 .24076844 .24299622 .24076844 .22698975 .2407074 .18099976 .2407074 .1499939 .30371095 .13198853 .34072877 .13198853 .3908081 .13198853 .43988038 .13198853 .49397279 .13198853 .5410614 .15299988 .578125 .17999268 .62805178 .21798706 .64100649 .25299073 .64100649 .29899598 .64100649 .33198548 .60710147 .34899903 .562088 .36099244 .52989199 .36499024 .46688844 .36499024 .42089845Z"/>
<path id="font_3_101" d="M.45700074 .2036438C.45700074 .33070375 .36799623 .4267578 .25698854 .4267578 .18899536 .4267578 .1519928 .37573243 .13198853 .327713V.35173036C.13198853 .6047821 .2559967 .64100649 .30699159 .64100649 .33099366 .64100649 .37298585 .634964 .394989 .6007538 .37998963 .6007538 .33999635 .6007538 .33999635 .5557556 .33999635 .524765 .3639984 .5097656 .38598634 .5097656 .4019928 .5097656 .43199159 .51875308 .43199159 .5577545 .43199159 .6178589 .3880005 .6660156 .30499269 .6660156 .1769867 .6660156 .041992189 .5367584 .041992189 .31570436 .041992189 .048553468 .1579895-.022460938 .25099183-.022460938 .3619995-.022460938 .45700074 .07156372 .45700074 .2036438M.36698915 .20463562C.36698915 .15661621 .36698915 .10658264 .34999085 .0705719 .31999208 .010528564 .27398683 .0055389406 .25099183 .0055389406 .18798828 .0055389406 .1579895 .06556702 .1519928 .080566409 .13398743 .127594 .13398743 .2076416 .13398743 .22564698 .13398743 .30369569 .1659851 .40374757 .2559967 .40374757 .27198792 .40374757 .31799317 .40374757 .34899903 .34172059 .36698915 .30470277 .36698915 .2536621 .36698915 .20463562Z"/>
<path id="font_3_107" d="M.44898988 .17396546H.42399598C.4189911 .14398194 .4119873 .099990848 .4019928 .084991458 .394989 .07699585 .32899476 .07699585 .30699159 .07699585H.1269989L.23298645 .17996216C.3889923 .31803895 .44898988 .37210084 .44898988 .47216798 .44898988 .5860901 .35899354 .6660156 .23699951 .6660156 .12399292 .6660156 .049987794 .57411196 .049987794 .48516847 .049987794 .4291687 .099990848 .4291687 .102996829 .4291687 .11999512 .4291687 .15499878 .44117738 .15499878 .48217774 .15499878 .5081787 .13699341 .5341797 .101989749 .5341797 .09399414 .5341797 .09199524 .5341797 .08898926 .5331726 .11199951 .59806826 .1659851 .63500979 .22399903 .63500979 .31498719 .63500979 .35798646 .5541382 .35798646 .47216798 .35798646 .39196778 .30799867 .31297303 .25299073 .25097657L.06098938 .036987306C.049987794 .025985718 .049987794 .023986817 .049987794 0H.42099L.44898988 .17396546Z"/>
<path id="font_3_51" d="M.45700074 .16764832C.45700074 .20367432 .44599916 .24871826 .4079895 .29074098 .3889923 .31176759 .37298585 .32176209 .30899049 .36180116 .3809967 .39881898 .42999269 .4508667 .42999269 .51690676 .42999269 .6089783 .34098817 .6660156 .25 .6660156 .1499939 .6660156 .068984989 .5919647 .068984989 .49890138 .068984989 .48088075 .070999149 .43585206 .11299133 .38882447 .12399292 .3768158 .16099549 .35179139 .18598938 .33477784 .12799073 .30575563 .041992189 .24971009 .041992189 .15063477 .041992189 .044555665 .14399719-.022460938 .24899292-.022460938 .3619995-.022460938 .45700074 .060577394 .45700074 .16764832M.38598634 .51690676C.38598634 .45986939 .34700013 .41183473 .2869873 .3768158L.16299439 .4568634C.116989139 .4868927 .11299133 .5209198 .11299133 .53793337 .11299133 .5989685 .17799378 .64100649 .24899292 .64100649 .32199098 .64100649 .38598634 .588974 .38598634 .51690676M.40699769 .13162232C.40699769 .05757141 .33198548 .0055389406 .25 .0055389406 .1639862 .0055389406 .09199524 .06758118 .09199524 .15063477 .09199524 .2086792 .12399292 .2727356 .20899964 .31976319L.33198548 .24171448C.3600006 .22268677 .40699769 .19267273 .40699769 .13162232Z"/>
<path id="font_3_121" d="M.45999146 .31976319C.45999146 .39982606 .45498658 .47988893 .41999818 .5539398 .37399293 .65000918 .2919922 .6660156 .25 .6660156 .18998719 .6660156 .116989139 .64001467 .07598877 .54693606 .04399109 .47789 .038986207 .39982606 .038986207 .31976319 .038986207 .24472046 .042999269 .15464783 .083999637 .07859802 .1269989-.0024719239 .19999695-.022460938 .24899292-.022460938 .30299378-.022460938 .3789978-.0014648438 .4229889 .09359741 .45498658 .16265869 .45999146 .2407074 .45999146 .31976319M.3769989 .3317871C.3769989 .25672914 .3769989 .18867493 .3659973 .12461853 .35099793 .029556275 .2939911-.00047302247 .24899292-.00047302247 .20999146-.00047302247 .15098572 .024551392 .1329956 .12062073 .12199402 .18066406 .12199402 .2727356 .12199402 .3317871 .12199402 .39582826 .12199402 .46188355 .12998963 .5159149 .14898682 .63500979 .22399903 .64401248 .24899292 .64401248 .28199769 .64401248 .34799195 .6259918 .36698915 .52693179 .3769989 .47088624 .3769989 .39482118 .3769989 .3317871Z"/>
<path id="font_4_95" d="M.83499148 .0921936C.83499148 .109176639 .82699587 .11216736 .81399539 .11216736 .79499819 .11216736 .7939911 .10517883 .79299929 .0921936 .7879944 .042251588 .7569885 .021270752 .72898867 .021270752 .6649933 .021270752 .6579895 .0881958 .6499939 .18008423 .6439972 .23301697 .6369934 .30693055 .5289917 .3399048 .6639862 .3758545 .69699099 .44776917 .69699099 .501709 .69699099 .601593 .59199526 .6855469 .40699769 .6855469H.037994386V.64253237H.14399719V.042999269H.037994386V0C.066986087 .0019989014 .17098999 .0019989014 .20698548 .0019989014 .24299622 .0019989014 .34799195 .0019989014 .3769989 0V.042999269H.2709961V.32714845H.3899994C.42999269 .32714845 .46199037 .31513978 .48399354 .28912355 .5139923 .25509645 .5139923 .23309326 .5139923 .1660614 .5139923 .09901428 .5139923 .057998659 .5649872 .023986817 .61698916-.010726929 .69898989-.01171875 .72099307-.01171875 .82299807-.01171875 .83499148 .07824707 .83499148 .09223938V.0921936M.55599978 .50183108C.55599978 .44696046 .5549927 .36013795 .3880005 .36013795H.2709961V.64253237H.3899994C.5529938 .64253237 .55599978 .5607147 .55599978 .50183108Z"/>
<path id="font_4_28" d="M.54100039 .022140503C.54100039 .043136598 .5319977 .043136598 .5179901 .043136598 .45498658 .044128419 .45498658 .060134889 .45498658 .08312988V.29911805C.45498658 .39111329 .38198854 .453125 .24099732 .453125 .18499756 .453125 .066986087 .44812013 .066986087 .36412049 .066986087 .32211305 .09899902 .30412293 .12599182 .30412293 .1559906 .30412293 .18499756 .32511903 .18499756 .3631134 .18499756 .3821106 .17799378 .40011598 .16099549 .41111756 .19400025 .42012025 .21798706 .42012025 .23699951 .42012025 .30499269 .42012025 .34599305 .3821106 .34599305 .30012513V.26011659C.18798828 .26011659 .0289917 .21612549 .0289917 .10513306 .0289917 .014129639 .14498902-.005859375 .21398926-.005859375 .29100038-.005859375 .33999635 .036132814 .3600006 .0801239 .3600006 .042999269 .3600006 0 .46099855 0H.5119934C.5329895 0 .54100039 0 .54100039 .021987915V.022140503M.34599305 .13899231C.34599305 .04499817 .2619934 .026992798 .22999573 .026992798 .18099976 .026992798 .13999939 .05999756 .13999939 .10598755 .13999939 .19699097 .24798584 .22799683 .34599305 .23298645V.13899231Z"/>
<path id="font_4_66" d="M.2789917 0V.042999269H.21699524V.4501953L.04699707 .4423828V.3993683C.10598755 .3993683 .11299133 .3993683 .11299133 .3603363V.042999269H.04399109V0C.066986087 .0019989014 .13598633 .0019989014 .16299439 .0019989014 .19099427 .0019989014 .25498963 .0019989014 .2789917 0M.22898865 .6081238C.22898865 .64912417 .19499207 .68013 .15699768 .68013 .115997318 .68013 .083999637 .64712527 .083999637 .6081238 .083999637 .5671234 .117996219 .5361328 .1559906 .5361328 .19699097 .5361328 .22898865 .5691223 .22898865 .6081238Z"/>
<path id="font_4_77" d="M.59999087 0V.042999269H.5309906V.30613709C.5309906 .40118409 .48999024 .4501953 .37998963 .4501953 .30799867 .4501953 .24598694 .41519166 .21199036 .34014894H.21099854V.4501953L.041992189 .4423828V.3993683C.10398865 .3993683 .11099243 .3993683 .11099243 .36035157V.042999269H.041992189V0C.06498718 .0019989014 .13699341 .0019989014 .16499329 .0019989014 .19299317 .0019989014 .2659912 .0019989014 .2889862 0V.042999269H.21998596V.25627137C.21998596 .3643341 .2999878 .41719056 .3639984 .41719056 .40098573 .41719056 .42199708 .3932495 .42199708 .31733705V.042999269H.35299684V0C.37599183 .0019989014 .44799806 .0019989014 .47599793 .0019989014 .5039978 .0019989014 .57699587 .0019989014 .59999087 0Z"/>
<path id="font_4_55" d="M.42199708 .617218C.42199708 .65818789 .38598634 .7001953 .31498719 .7001953 .22399903 .7001953 .11299133 .66218569 .11299133 .54626467V.44433595H.038986207V.4013214H.11299133V.042999269H.04399109V0C.066986087 .0019989014 .14199829 .0019989014 .16999817 .0019989014 .19898987 .0019989014 .27999879 .0019989014 .3039856 0V.042999269H.21699524V.4013214H.33099366V.44433595H.21199036V.54725649C.21199036 .65119937 .27799989 .66719058 .31098939 .66719058 .32199098 .66719058 .32398988 .6661835 .32998658 .6641846 .31498719 .65419009 .30599977 .63720706 .30599977 .6162262 .30599977 .57624819 .33799745 .55825808 .3639984 .55825808 .38598634 .55825808 .42199708 .5732422 .42199708 .617218Z"/>
<path id="font_4_72" d="M.28599549 0V.042999269H.21699524V.69433596L.04399109 .6855469V.64253237C.10598755 .64253237 .11299133 .64253237 .11299133 .6035614V.042999269H.04399109V0C.066986087 .0019989014 .13798523 .0019989014 .16499329 .0019989014 .19198609 .0019989014 .2630005 .0019989014 .28599549 0Z"/>
<path id="font_4_46" d="M.798996 .33677674C.798996 .56259158 .6469879 .6855469 .45899964 .6855469H.037994386V.64253237H.14399719V.042999269H.037994386V0H.45899964C.651001 0 .798996 .122924808 .798996 .33677674M.6629944 .33776856C.6629944 .22085572 .647995 .16889954 .61299136 .12193298 .5779877 .07597351 .5109863 .042999269 .42099 .042999269H.2709961V.64253237H.42099C.5079956 .64253237 .5779877 .6085663 .61499026 .5566101 .6439972 .51564028 .6629944 .4666748 .6629944 .33776856Z"/>
<path id="font_4_98" d="M.40499879 .13912964C.40499879 .18711853 .3789978 .22012329 .35899354 .23812866 .31799317 .27212525 .28399659 .27812196 .22999573 .28811646 .1659851 .29911805 .10598755 .31011964 .10598755 .35812379 .10598755 .42311097 .19499207 .42311097 .21598816 .42311097 .32699586 .42311097 .33299256 .3531189 .33499146 .328125 .33599855 .3151245 .34399415 .3151245 .35598756 .3151245 .3769989 .3151245 .3769989 .31811524 .3769989 .34111024V.42712403C.3769989 .44612123 .3769989 .453125 .3619995 .453125 .35598756 .453125 .35398866 .453125 .33898927 .4441223 .33499146 .44111634 .32398988 .43411256 .31900025 .43112184 .29100038 .44711305 .2539978 .453125 .21798706 .453125 .18798828 .453125 .037994386 .453125 .037994386 .32312013 .037994386 .21812439 .1619873 .19612122 .19299317 .19113159 .21998596 .18612671 .25299073 .18013 .25698854 .18013 .29699708 .17112732 .33699037 .14613343 .33699037 .10412598 .33699037 .027130127 .24598694 .027130127 .22499085 .027130127 .17399597 .027130127 .11099243 .043136598 .08299255 .14012146 .07699585 .16012573 .07598877 .16113281 .05899048 .16113281 .037994386 .16113281 .037994386 .15812683 .037994386 .13513184V.020126343C.037994386 .0011291504 .037994386-.005859375 .052993776-.005859375 .05999756-.005859375 .06199646-.005859375 .08198547 .010131836L.10798645 .029129029C.15299988-.005859375 .20698548-.005859375 .22499085-.005859375 .27999879-.005859375 .40499879 .006134033 .40499879 .13912964Z"/>
<path id="font_4_105" d="M.37399293 .124176029V.17721558H.33198548V.1251831C.33198548 .059143068 .3019867 .030136109 .2709961 .030136109 .21099854 .030136109 .21099854 .09716797 .21099854 .12017822V.4013214H.35499574V.44433595H.21099854V.6357422H.16899109C.16799927 .53652957 .11999512 .43733216 .020996094 .43432618V.4013214H.101989749V.123184207C.101989749 .01713562 .18399048-.005859375 .2559967-.005859375 .32998658-.005859375 .37399293 .05014038 .37399293 .124176029Z"/>
<path id="font_4_96" d="M.4269867 .3711853C.4269867 .42218019 .375 .4501953 .32699586 .4501953 .24798584 .4501953 .21398926 .38119508 .19999695 .33918763H.19898987V.4501953L.034988405 .4423828V.3993683C.09700012 .3993683 .10398865 .3993683 .10398865 .3603363V.042999269H.034988405V0C.057998659 .0019989014 .1329956 .0019989014 .16099549 .0019989014 .18998719 .0019989014 .2709961 .0019989014 .29499818 0V.042999269H.20799256V.22518921C.20799256 .25819398 .21499634 .41719056 .33198548 .41719056 .31799317 .40618897 .31098939 .38919068 .31098939 .3711853 .31098939 .33018495 .34399415 .31318666 .36898805 .31318666 .3939972 .31318666 .4269867 .33018495 .4269867 .3711853Z"/>
<path id="font_4_35" d="M.58599856 .22319031C.58599856 .36018373 .49198915 .4501953 .35499574 .4501953 .29599 .4501953 .24899292 .43118287 .20799256 .39918519V.69433596L.034988405 .6863251V.6433258C.09700012 .6433258 .10398865 .6433258 .10398865 .6042938V.0001373291H.1459961C.16299439 .019134522 .17999268 .038131715 .19599915 .058135988 .24699402 .005126953 .3019867-.005859375 .34199525-.005859375 .47999574-.005859375 .58599856 .07814026 .58599856 .22315979V.22319031M.46598817 .22416687C.46598817 .17915344 .46598817 .12214661 .44198609 .08514404 .41099549 .037139894 .3639984 .027130127 .33198548 .027130127 .2639923 .027130127 .22698975 .07513428 .21299744 .09713745V.35118104C.24798584 .39918519 .2999878 .41719056 .34199525 .41719056 .46598817 .41719056 .46598817 .29019166 .46598817 .22418213V.22416687Z"/>
<path id="font_4_109" d="M.59999087 0V.042999269C.5379944 .042999269 .5309906 .042999269 .5309906 .08201599V.4501953L.35299684 .4423828V.3993683C.4149933 .3993683 .42199708 .3993683 .42199708 .36035157V.16423035C.42199708 .08818054 .3769989 .027130127 .29899598 .027130127 .22399903 .027130127 .21998596 .05215454 .21998596 .10719299V.4501953L.041992189 .4423828V.3993683C.10398865 .3993683 .11099243 .3993683 .11099243 .36035157V.12319946C.11099243 .023132325 .17799378-.005859375 .2849884-.005859375 .30899049-.005859375 .3829956-.005859375 .42599488 .075164798H.4269867V-.005859375L.59999087 0Z"/>
<path id="font_4_81" d="M.5299988 .21913147C.5299988 .35412599 .43798829 .453125 .2809906 .453125 .117996219 .453125 .0309906 .3491211 .0309906 .21913147 .0309906 .088134769 .12298584-.005859375 .27999879-.005859375 .44299317-.005859375 .5299988 .09312439 .5299988 .21913147M.4099884 .22912598C.4099884 .14613343 .4099884 .030136109 .2809906 .030136109 .15098572 .030136109 .15098572 .14712525 .15098572 .22912598 .15098572 .27612306 .15098572 .3261261 .16999817 .36212159 .19198609 .40211488 .23699951 .42012025 .27999879 .42012025 .33699037 .42012025 .37298585 .39311219 .3899994 .3651123 .4099884 .32911683 .4099884 .27713014 .4099884 .22912598Z"/>
</defs>
<path transform="matrix(1.00005,0,0,-1.00003,34.0289,355.8233)" stroke-width=".19925" stroke-linecap="butt" stroke-miterlimit="10" stroke-linejoin="miter" fill="none" stroke="#d9d9d9" d="M0 0H212.60106M0 2.83484H212.60106M0 5.6697H212.60106M0 8.50455H212.60106M0 11.33939H212.60106M0 14.17424H212.60106M0 17.0091H212.60106M0 19.84393H212.60106M0 22.67879H212.60106M0 25.51364H212.60106M0 28.3485H212.60106M0 31.18333H212.60106M0 34.01819H212.60106M0 36.85304H212.60106M0 39.68788H212.60106M0 42.52274H212.60106M0 45.35759H212.60106M0 48.19244H212.60106M0 51.02728H212.60106M0 53.86214H212.60106M0 56.69699H212.60106M0 59.53183H212.60106M0 62.36668H212.60106M0 65.20154H212.60106M0 68.03639H212.60106M0 70.87123H212.60106M0 73.70609H212.60106M0 76.54094H212.60106M0 79.37578H212.60106M0 82.21063H212.60106M0 85.04549H212.60106M0 87.88034H212.60106M0 90.71518H212.60106M0 93.55003H212.60106M0 96.38489H212.60106M0 99.21973H212.60106M0 102.05458H212.60106M0 104.88943H212.60106M0 107.72429H212.60106M0 110.55913H212.60106M0 113.39398H212.60106M0 116.22884H212.60106M0 119.06367H212.60106M0 121.89853H212.60106M0 124.73338H212.60106M0 127.56824H212.60106M0 130.40308H212.60106M0 133.23793H212.60106M0 136.07279H212.60106M0 138.90763H212.60106M0 141.74248H212.60106M0 144.57733H212.60106M0 147.41219H212.60106M0 150.24703H212.60106M0 153.08188H212.60106M0 155.91674H212.60106M0 158.75157H212.60106M0 161.58643H212.60106M0 164.42128H212.60106M0 167.25612H212.60106M0 170.09098H212.60106M0 172.92583H212.60106M0 175.76068H212.60106M0 178.59552H212.60106M0 181.43038H212.60106M0 184.26523H212.60106M0 187.10007H212.60106M0 189.93492H212.60106M0 192.76978H212.60106M0 195.60463H212.60106M0 198.43947H212.60106M0 201.27433H212.60106M0 204.10918H212.60106M0 206.94402H212.60106M0 209.77887H212.60106M0 212.61373H212.60106M0 215.44858H212.60106M0 218.28342H212.60106M0 221.11827H212.60106M0 223.95313H212.60106M0 226.78797H212.60106M0 229.62282H212.60106M0 232.45767H212.60106M0 235.29253H212.60106M0 238.12737H212.60106M0 240.96222H212.60106M0 243.79708H212.60106M0 246.63191H212.60106M0 249.46677H212.60106M0 252.30162H212.60106M0 255.13648H212.60106M0 257.9713H212.60106M0 260.80619H212.60106M0 263.64103H212.60106M0 266.47587H212.60106M0 269.3107H212.60106M0 272.14558H212.60106M0 274.9804H212.60106M0 277.81526H212.60106M0 280.65013H212.60106M0 283.48497H212.60106M0 286.31983H212.60106M0 289.15467H212.60106M0 291.98954H212.60106M0 294.82438H212.60106M0 297.6592H212.60106M0 300.49406H212.60106M0 303.32893H212.60106M0 306.16377H212.60106M0 308.9986H212.60106M0 311.83348H212.60106M0 314.66835H212.60106M0 317.50318H212.60106M0 320.338H212.60106M0 323.17289H212.60106M0 326.0077H212.60106M0 328.84257H212.60106M0 331.6774H212.60106M0 334.51225H212.60106M0 337.3471H212.60106M0 0V340.1617M2.83484 0V340.1617M5.6697 0V340.1617M8.50455 0V340.1617M11.33939 0V340.1617M14.17424 0V340.1617M17.0091 0V340.1617M19.84393 0V340.1617M22.67879 0V340.1617M25.51364 0V340.1617M28.3485 0V340.1617M31.18333 0V340.1617M34.01819 0V340.1617M36.85304 0V340.1617M39.68788 0V340.1617M42.52274 0V340.1617M45.35759 0V340.1617M48.19244 0V340.1617M51.02728 0V340.1617M53.86214 0V340.1617M56.69699 0V340.1617M59.53183 0V340.1617M62.36668 0V340.1617M65.20154 0V340.1617M68.03639 0V340.1617M70.87123 0V340.1617M73.70609 0V340.1617M76.54094 0V340.1617M79.37578 0V340.1617M82.21063 0V340.1617M85.04549 0V340.1617M87.88034 0V340.1617M90.71518 0V340.1617M93.55003 0V340.1617M96.38489 0V340.1617M99.21973 0V340.1617M102.05458 0V340.1617M104.88943 0V340.1617M107.72429 0V340.1617M110.55913 0V340.1617M113.39398 0V340.1617M116.22884 0V340.1617M119.06367 0V340.1617M121.89853 0V340.1617M124.73338 0V340.1617M127.56824 0V340.1617M130.40308 0V340.1617M133.23793 0V340.1617M136.07279 0V340.1617M138.90763 0V340.1617M141.74248 0V340.1617M144.57733 0V340.1617M147.41219 0V340.1617M150.24703 0V340.1617M153.08188 0V340.1617M155.91674 0V340.1617M158.75157 0V340.1617M161.58643 0V340.1617M164.42128 0V340.1617M167.25612 0V340.1617M170.09098 0V340.1617M172.92583 0V340.1617M175.76068 0V340.1617M178.59552 0V340.1617M181.43038 0V340.1617M184.26523 0V340.1617M187.10007 0V340.1617M189.93492 0V340.1617M192.76978 0V340.1617M195.60463 0V340.1617M198.43947 0V340.1617M201.27433 0V340.1617M204.10918 0V340.1617M206.94402 0V340.1617M209.77887 0V340.1617M212.60106 340.1617"/>
<path transform="matrix(1.00005,0,0,-1.00003,34.0289,355.8233)" stroke-width=".3985" stroke-linecap="butt" stroke-miterlimit="10" stroke-linejoin="miter" fill="none" stroke="#a6a6a6" d="M0 0H212.60106M0 28.3468H212.60106M0 56.69362H212.60106M0 85.04042H212.60106M0 113.38724H212.60106M0 141.73404H212.60106M0 170.08086H212.60106M0 198.42766H212.60106M0 226.77448H212.60106M0 255.12128H212.60106M0 283.4681H212.60106M0 311.8149H212.60106M0 340.15177H212.60106M0 0V340.1617M28.3468 0V340.1617M56.69362 0V340.1617M85.04042 0V340.1617M113.38724 0V340.1617M141.73404 0V340.1617M170.08086 0V340.1617M198.42766 0V340.1617M212.60106 340.1617"/>
<path transform="matrix(1.00005,0,0,-1.00003,34.0289,355.8233)" stroke-width=".79701" stroke-linecap="butt" stroke-miterlimit="10" stroke-linejoin="miter" fill="none" stroke="#000000" d="M0 0H211.80405"/>
<path transform="matrix(1.00005,0,0,-1.00003,246.24207,355.8233)" stroke-width=".79701" stroke-linecap="round" stroke-linejoin="round" fill="none" stroke="#000000" d="M-2.55046 3.11095C-2.0845 1.24435-1.04614 .36295 0 0-1.04614-.36295-2.0845-1.24435-2.55046-3.11095"/>
<path transform="matrix(1.00005,0,0,-1.00003,34.0289,355.8233)" stroke-width=".79701" stroke-linecap="butt" stroke-miterlimit="10" stroke-linejoin="miter" fill="none" stroke="#000000" d="M0 0V339.3647"/>
<path transform="matrix(0,-1.00003,-1.00005,-0,34.0289,16.049897)" stroke-width=".79701" stroke-linecap="round" stroke-linejoin="round" fill="none" stroke="#000000" d="M-2.55046 3.11095C-2.0845 1.24435-1.04614 .36295 0 0-1.04614-.36295-2.0845-1.24435-2.55046-3.11095"/>
<use data-text="R" xlink:href="#font_1_95" transform="matrix(8.966848,0,0,-8.966669,104.63442,388.74629)"/>
<use data-text="a" xlink:href="#font_1_28" transform="matrix(8.966848,0,0,-8.966669,111.41336,388.74629)"/>
<use data-text="i" xlink:href="#font_1_66" transform="matrix(8.966848,0,0,-8.966669,116.02233,388.74629)"/>
<use data-text="n" xlink:href="#font_1_77" transform="matrix(8.966848,0,0,-8.966669,118.586849,388.74629)"/>
<use data-text="f" xlink:href="#font_1_55" transform="matrix(8.966848,0,0,-8.966669,123.70692,388.74629)"/>
<use data-text="a" xlink:href="#font_1_28" transform="matrix(8.966848,0,0,-8.966669,126.5225,388.74629)"/>
<use data-text="l" xlink:href="#font_1_72" transform="matrix(8.966848,0,0,-8.966669,131.13147,388.74629)"/>
<use data-text="l" xlink:href="#font_1_72" transform="matrix(8.966848,0,0,-8.966669,133.69599,388.74629)"/>
<use data-text="(" xlink:href="#font_1_85" transform="matrix(8.966848,0,0,-8.966669,139.33612,388.74629)"/>
<use data-text="m" xlink:href="#font_1_75" transform="matrix(8.966848,0,0,-8.966669,142.92288,388.74629)"/>
<use data-text="m" xlink:href="#font_1_75" transform="matrix(8.966848,0,0,-8.966669,150.59848,388.74629)"/>
<use data-text=")" xlink:href="#font_1_86" transform="matrix(8.966848,0,0,-8.966669,158.27411,388.74629)"/>
<use data-text="F" xlink:href="#font_2_54" transform="matrix(0,-20.66312,-20.663533,-0,16.289002,213.80005)"/>
<use data-text="r" xlink:href="#font_2_96" transform="matrix(0,-20.66312,-20.663533,-0,16.289002,202.95192)"/>
<use data-text="e" xlink:href="#font_2_50" transform="matrix(0,-20.66312,-20.663533,-0,16.289002,195.63718)"/>
<use data-text="q" xlink:href="#font_2_91" transform="matrix(0,-20.66312,-20.663533,-0,16.289002,187.24794)"/>
<use data-text="u" xlink:href="#font_2_109" transform="matrix(0,-20.66312,-20.663533,-0,16.289002,177.22634)"/>
<use data-text="e" xlink:href="#font_2_50" transform="matrix(0,-20.66312,-20.663533,-0,16.289002,166.66748)"/>
<use data-text="n" xlink:href="#font_2_77" transform="matrix(0,-20.66312,-20.663533,-0,16.289002,158.27825)"/>
<use data-text="c" xlink:href="#font_2_43" transform="matrix(0,-20.66312,-20.663533,-0,16.289002,147.7194)"/>
<use data-text="y" xlink:href="#font_2_118" transform="matrix(0,-20.66312,-20.663533,-0,16.289002,139.33017)"/>
<use data-text="3" xlink:href="#font_3_106" transform="matrix(9.963098,0,0,-9.962899,53.519876,374.48286)"/>
<use data-text="5" xlink:href="#font_3_56" transform="matrix(9.963098,0,0,-9.962899,58.50142,374.48286)"/>
<use data-text="." xlink:href="#font_3_88" transform="matrix(9.963098,0,0,-9.962899,63.48297,374.48286)"/>
<use data-text="5" xlink:href="#font_3_56" transform="matrix(9.963098,0,0,-9.962899,66.25271,374.48286)"/>
<use data-text="4" xlink:href="#font_3_57" transform="matrix(9.963098,0,0,-9.962899,81.868289,374.59288)"/>
<use data-text="1" xlink:href="#font_3_82" transform="matrix(9.963098,0,0,-9.962899,86.84984,374.59288)"/>
<use data-text="." xlink:href="#font_3_88" transform="matrix(9.963098,0,0,-9.962899,91.83139,374.59288)"/>
<use data-text="5" xlink:href="#font_3_56" transform="matrix(9.963098,0,0,-9.962899,94.60112,374.59288)"/>
<use data-text="4" xlink:href="#font_3_57" transform="matrix(9.963098,0,0,-9.962899,110.216709,374.59288)"/>
<use data-text="7" xlink:href="#font_3_100" transform="matrix(9.963098,0,0,-9.962899,115.19825,374.59288)"/>
<use data-text="." xlink:href="#font_3_88" transform="matrix(9.963098,0,0,-9.962899,120.1798,374.59288)"/>
<use data-text="5" xlink:href="#font_3_56" transform="matrix(9.963098,0,0,-9.962899,122.94954,374.59288)"/>
<use data-text="5" xlink:href="#font_3_56" transform="matrix(9.963098,0,0,-9.962899,138.56412,374.48286)"/>
<use data-text="3" xlink:href="#font_3_106" transform="matrix(9.963098,0,0,-9.962899,143.54566,374.48286)"/>
<use data-text="." xlink:href="#font_3_88" transform="matrix(9.963098,0,0,-9.962899,148.52722,374.48286)"/>
<use data-text="5" xlink:href="#font_3_56" transform="matrix(9.963098,0,0,-9.962899,151.29695,374.48286)"/>
<use data-text="5" xlink:href="#font_3_56" transform="matrix(9.963098,0,0,-9.962899,166.91254,374.48286)"/>
<use data-text="9" xlink:href="#font_3_78" transform="matrix(9.963098,0,0,-9.962899,171.89408,374.48286)"/>
<use data-text="." xlink:href="#font_3_88" transform="matrix(9.963098,0,0,-9.962899,176.87564,374.48286)"/>
<use data-text="5" xlink:href="#font_3_56" transform="matrix(9.963098,0,0,-9.962899,179.64537,374.48286)"/>
<use data-text="6" xlink:href="#font_3_101" transform="matrix(9.963098,0,0,-9.962899,195.26096,374.48286)"/>
<use data-text="5" xlink:href="#font_3_56" transform="matrix(9.963098,0,0,-9.962899,200.2425,374.48286)"/>
<use data-text="." xlink:href="#font_3_88" transform="matrix(9.963098,0,0,-9.962899,205.22406,374.48286)"/>
<use data-text="5" xlink:href="#font_3_56" transform="matrix(9.963098,0,0,-9.962899,207.99379,374.48286)"/>
<use data-text="2" xlink:href="#font_3_107" transform="matrix(9.963098,0,0,-9.962899,17.023056,302.4457)"/>
<use data-text="4" xlink:href="#font_3_57" transform="matrix(9.963098,0,0,-9.962899,17.023056,245.805)"/>
<use data-text="6" xlink:href="#font_3_101" transform="matrix(9.963098,0,0,-9.962899,17.023056,188.94528)"/>
<use data-text="8" xlink:href="#font_3_51" transform="matrix(9.963098,0,0,-9.962899,17.023056,132.2506)"/>
<use data-text="1" xlink:href="#font_3_82" transform="matrix(9.963098,0,0,-9.962899,12.040802,75.55487)"/>
<use data-text="0" xlink:href="#font_3_121" transform="matrix(9.963098,0,0,-9.962899,17.022347,75.55487)"/>
<use data-text="1" xlink:href="#font_3_82" transform="matrix(9.963098,0,0,-9.962899,12.040802,18.969178)"/>
<use data-text="2" xlink:href="#font_3_107" transform="matrix(9.963098,0,0,-9.962899,17.022347,18.969178)"/>
<path transform="matrix(1.00005,0,0,-1.00003,34.0289,355.8233)" d="M14.17339 0V170.08086H42.5202V0ZM42.5202 170.08086" fill="#6666ff"/>
<path transform="matrix(1.00005,0,0,-1.00003,34.0289,355.8233)" stroke-width=".3985" stroke-linecap="butt" stroke-miterlimit="10" stroke-linejoin="miter" fill="none" stroke="#000000" d="M14.17339 0V170.08086H42.5202V0ZM42.5202 170.08086"/>
<path transform="matrix(1.00005,0,0,-1.00003,34.0289,355.8233)" d="M42.5202 0V226.77448H70.867V0ZM70.867 226.77448" fill="#6666ff"/>
<path transform="matrix(1.00005,0,0,-1.00003,34.0289,355.8233)" stroke-width=".3985" stroke-linecap="butt" stroke-miterlimit="10" stroke-linejoin="miter" fill="none" stroke="#000000" d="M42.5202 0V226.77448H70.867V0ZM70.867 226.77448"/>
<path transform="matrix(1.00005,0,0,-1.00003,34.0289,355.8233)" d="M70.867 0V283.4681H99.21382V0ZM99.21382 283.4681" fill="#6666ff"/>
<path transform="matrix(1.00005,0,0,-1.00003,34.0289,355.8233)" stroke-width=".3985" stroke-linecap="butt" stroke-miterlimit="10" stroke-linejoin="miter" fill="none" stroke="#000000" d="M70.867 0V283.4681H99.21382V0ZM99.21382 283.4681"/>
<path transform="matrix(1.00005,0,0,-1.00003,34.0289,355.8233)" d="M99.21382 0V255.12128H127.56062V0ZM127.56062 255.12128" fill="#6666ff"/>
<path transform="matrix(1.00005,0,0,-1.00003,34.0289,355.8233)" stroke-width=".3985" stroke-linecap="butt" stroke-miterlimit="10" stroke-linejoin="miter" fill="none" stroke="#000000" d="M99.21382 0V255.12128H127.56062V0ZM127.56062 255.12128"/>
<path transform="matrix(1.00005,0,0,-1.00003,34.0289,355.8233)" d="M127.56062 0V226.77448H155.90744V0ZM155.90744 226.77448" fill="#6666ff"/>
<path transform="matrix(1.00005,0,0,-1.00003,34.0289,355.8233)" stroke-width=".3985" stroke-linecap="butt" stroke-miterlimit="10" stroke-linejoin="miter" fill="none" stroke="#000000" d="M127.56062 0V226.77448H155.90744V0ZM155.90744 226.77448"/>
<path transform="matrix(1.00005,0,0,-1.00003,34.0289,355.8233)" d="M155.90744 0V255.12128H184.25424V0ZM184.25424 255.12128" fill="#6666ff"/>
<path transform="matrix(1.00005,0,0,-1.00003,34.0289,355.8233)" stroke-width=".3985" stroke-linecap="butt" stroke-miterlimit="10" stroke-linejoin="miter" fill="none" stroke="#000000" d="M155.90744 0V255.12128H184.25424V0ZM184.25424 255.12128"/>
<path transform="matrix(1.00005,0,0,-1.00003,34.0289,355.8233)" stroke-width=".79701" stroke-linecap="butt" stroke-miterlimit="10" stroke-linejoin="miter" fill="none" stroke="#000000" d="M0 0 28.3468 170.08086 56.69362 226.77448 85.04042 283.4681 113.38724 255.12128 141.73404 226.77448 170.08086 255.12128 198.42766 0"/>
<path transform="matrix(1.00005,0,0,-1.00003,34.0289,355.8233)" d="M31.33563 170.08086C31.33563 171.73155 29.99751 173.06969 28.3468 173.06969 26.69609 173.06969 25.35797 171.73155 25.35797 170.08086 25.35797 168.43015 26.69609 167.09203 28.3468 167.09203 29.99751 167.09203 31.33563 168.43015 31.33563 170.08086ZM28.3468 170.08086"/>
<path transform="matrix(1.00005,0,0,-1.00003,34.0289,355.8233)" d="M59.68245 226.77448C59.68245 228.42517 58.34431 229.7633 56.69362 229.7633 55.04291 229.7633 53.70479 228.42517 53.70479 226.77448 53.70479 225.12377 55.04291 223.78565 56.69362 223.78565 58.34431 223.78565 59.68245 225.12377 59.68245 226.77448ZM56.69362 226.77448"/>
<path transform="matrix(1.00005,0,0,-1.00003,34.0289,355.8233)" d="M88.02925 283.4681C88.02925 285.1188 86.69113 286.4569 85.04042 286.4569 83.38971 286.4569 82.05159 285.1188 82.05159 283.4681 82.05159 281.81739 83.38971 280.47926 85.04042 280.47926 86.69113 280.47926 88.02925 281.81739 88.02925 283.4681ZM85.04042 283.4681"/>
<path transform="matrix(1.00005,0,0,-1.00003,34.0289,355.8233)" d="M116.37607 255.12128C116.37607 256.772 115.03793 258.1101 113.38724 258.1101 111.73653 258.1101 110.3984 256.772 110.3984 255.12128 110.3984 253.47058 111.73653 252.13245 113.38724 252.13245 115.03793 252.13245 116.37607 253.47058 116.37607 255.12128ZM113.38724 255.12128"/>
<path transform="matrix(1.00005,0,0,-1.00003,34.0289,355.8233)" d="M144.72287 226.77448C144.72287 228.42517 143.38475 229.7633 141.73404 229.7633 140.08333 229.7633 138.74521 228.42517 138.74521 226.77448 138.74521 225.12377 140.08333 223.78565 141.73404 223.78565 143.38475 223.78565 144.72287 225.12377 144.72287 226.77448ZM141.73404 226.77448"/>
<path transform="matrix(1.00005,0,0,-1.00003,34.0289,355.8233)" d="M173.06969 255.12128C173.06969 256.772 171.73155 258.1101 170.08086 258.1101 168.43015 258.1101 167.09203 256.772 167.09203 255.12128 167.09203 253.47058 168.43015 252.13245 170.08086 252.13245 171.73155 252.13245 173.06969 253.47058 173.06969 255.12128ZM170.08086 255.12128"/>
<use data-text="R" xlink:href="#font_4_95" transform="matrix(14.346916,0,0,-14.346631,59.826189,11.958984)"/>
<use data-text="a" xlink:href="#font_4_28" transform="matrix(14.346916,0,0,-14.346631,71.86325,11.958984)"/>
<use data-text="i" xlink:href="#font_4_66" transform="matrix(14.346916,0,0,-14.346631,79.711,11.958984)"/>
<use data-text="n" xlink:href="#font_4_77" transform="matrix(14.346916,0,0,-14.346631,84.201587,11.958984)"/>
<use data-text="f" xlink:href="#font_4_55" transform="matrix(14.346916,0,0,-14.346631,93.168399,11.958984)"/>
<use data-text="a" xlink:href="#font_4_28" transform="matrix(14.346916,0,0,-14.346631,98.103748,11.958984)"/>
<use data-text="l" xlink:href="#font_4_72" transform="matrix(14.346916,0,0,-14.346631,105.95149,11.958984)"/>
<use data-text="l" xlink:href="#font_4_72" transform="matrix(14.346916,0,0,-14.346631,110.44208,11.958984)"/>
<use data-text="D" xlink:href="#font_4_46" transform="matrix(14.346916,0,0,-14.346631,120.312747,11.958984)"/>
<use data-text="i" xlink:href="#font_4_66" transform="matrix(14.346916,0,0,-14.346631,132.6798,11.958984)"/>
<use data-text="s" xlink:href="#font_4_98" transform="matrix(14.346916,0,0,-14.346631,137.17038,11.958984)"/>
<use data-text="t" xlink:href="#font_4_105" transform="matrix(14.346916,0,0,-14.346631,143.5404,11.958984)"/>
<use data-text="r" xlink:href="#font_4_96" transform="matrix(14.346916,0,0,-14.346631,149.82436,11.958984)"/>
<use data-text="i" xlink:href="#font_4_66" transform="matrix(14.346916,0,0,-14.346631,156.42395,11.958984)"/>
<use data-text="b" xlink:href="#font_4_35" transform="matrix(14.346916,0,0,-14.346631,160.91452,11.958984)"/>
<use data-text="u" xlink:href="#font_4_109" transform="matrix(14.346916,0,0,-14.346631,169.88135,11.958984)"/>
<use data-text="t" xlink:href="#font_4_105" transform="matrix(14.346916,0,0,-14.346631,178.84816,11.958984)"/>
<use data-text="i" xlink:href="#font_4_66" transform="matrix(14.346916,0,0,-14.346631,185.13211,11.958984)"/>
<use data-text="o" xlink:href="#font_4_81" transform="matrix(14.346916,0,0,-14.346631,189.62268,11.958984)"/>
<use data-text="n" xlink:href="#font_4_77" transform="matrix(14.346916,0,0,-14.346631,197.7,11.958984)"/>
</svg>
