<svg xmlns="http://www.w3.org/2000/svg" xmlns:xlink="http://www.w3.org/1999/xlink" xmlns:inkscape="http://www.inkscape.org/namespaces/inkscape" version="1.1" width="202" height="171" viewBox="0 0 202 171">
<defs>
<clipPath id="clip_1">
<path transform="matrix(1.00005,0,0,-1.00002,101.31311,113.09902)" d="M14.1734 0C14.1734 31.31142-11.20877 56.69362-42.5202 56.69362-73.83162 56.69362-99.21382 31.31142-99.21382 0-99.21382-31.31142-73.83162-56.69362-42.5202-56.69362-11.20877-56.69362 14.1734-31.31142 14.1734 0ZM-42.5202 0"/>
</clipPath>
<clipPath id="clip_2">
<path transform="matrix(1.00005,0,0,-1.00002,101.31311,113.09902)" d="M99.21382 0C99.21382 31.31142 73.83162 56.69362 42.5202 56.69362 11.20877 56.69362-14.1734 31.31142-14.1734 0-14.1734-31.31142 11.20877-56.69362 42.5202-56.69362 73.83162-56.69362 99.21382-31.31142 99.21382 0ZM42.5202 0"/>
</clipPath>
<path id="font_3_83" d="M.6239929 .4967041C.6239929 .59465029 .5249939 .6826172 .3880005 .6826172H.034988405V.6516113H.05899048C.13598633 .6516113 .13798523 .64060977 .13798523 .6046295V.07795715C.13798523 .041992189 .13598633 .0309906 .05899048 .0309906H.034988405V0C.069992069 .0029907227 .14399719 .0029907227 .18199158 .0029907227 .21998596 .0029907227 .29499818 .0029907227 .32998658 0V.0309906H.30599977C.22898865 .0309906 .22698975 .041992189 .22698975 .07795715V.3157959H.3959961C.5159912 .3157959 .6239929 .39675904 .6239929 .4967041M.5209961 .4967041C.5209961 .4497223 .5209961 .34179688 .3619995 .34179688H.22399903V.6116333C.22399903 .64460757 .22599793 .6516113 .272995 .6516113H.3619995C.5209961 .6516113 .5209961 .54566958 .5209961 .4967041Z"/>
<path id="font_3_90" d="M.72698977-.010345459C.72698977-.00033569337 .72698977 .010650635 .71598818 .010650635 .70700076 .010650635 .70599368 .0026550294 .7049866-.0073394777 .69898989-.061340333 .6569977-.09133911 .6139984-.09133911 .5669861-.09133911 .5419922-.05734253 .5179901 .006652832 .6359863 .059570314 .72099307 .1876831 .72099307 .3387909 .72099307 .5429535 .56999209 .7050781 .3880005 .7050781 .20899964 .7050781 .055999757 .54496768 .055999757 .3387909 .055999757 .13664246 .20698548-.022460938 .3889923-.022460938 .41999818-.022460938 .45498658-.016464234 .48399354-.007461548 .49899293-.1023407 .5130005-.19433594 .60598757-.19433594 .70799258-.1945343 .72698977-.061538698 .72698977-.010528564V-.010345459M.62098696 .33866883C.62098696 .2605896 .60899356 .11946106 .5029907 .04147339 .48098756 .097457889 .44898988 .14746094 .3899994 .14746094 .33898927 .14746094 .30799867 .10446167 .30799867 .06347656 .30799867 .036468507 .32099916 .017471314 .32199098 .015472412 .2679901 .035461427 .1559906 .10845947 .1559906 .33866883 .1559906 .59898379 .29599 .68006899 .3880005 .68006899 .4850006 .6794586 .62098696 .5934601 .62098696 .3384552V.33866883M.47698976 .025497437C.44299317 .0065307619 .41099549 .002532959 .3889923 .002532959 .33799745 .002532959 .32998658 .048461915 .32998658 .06347656 .32998658 .09246826 .35099793 .12545777 .3899994 .12545777 .44400025 .12545777 .46598817 .083465579 .47698976 .025497437Z"/>
<path id="font_3_27" d="M.71699526 0V.0309906H.69898989C.6389923 .0309906 .625 .037979127 .6139984 .07095337L.397995 .6958008C.3929901 .7088165 .3909912 .7158203 .375 .7158203 .35899354 .7158203 .35598756 .70980837 .35099793 .6958008L.14399719 .09791565C.12599182 .04698181 .085998538 .03199768 .03199768 .0309906V0L.13398743 .0029907227 .24899292 0V.0309906C.19898987 .0309906 .17399597 .05596924 .17399597 .0819397 .17399597 .08493042 .1749878 .09492493 .17599488 .09692383L.22200012 .2277832H.46899415L.5219879 .07495117C.522995 .07095337 .5249939 .064956668 .5249939 .060958864 .5249939 .0309906 .46899415 .0309906 .44198609 .0309906V0C.47799684 .0029907227 .5479889 .0029907227 .58599856 .0029907227L.71699526 0M.45799256 .25878907H.23298645L.34498597 .58380129 .45799256 .25878907Z"/>
<path id="font_3_34" d="M.651001 .18289185C.651001 .26983644 .56900027 .34480287 .45799256 .35679627 .5549927 .3757782 .6239929 .43974305 .6239929 .51368716 .6239929 .6006317 .5319977 .6826172 .4019928 .6826172H.035995485V.6516113H.05999756C.13699341 .6516113 .13899231 .64060977 .13899231 .6046295V.07795715C.13899231 .041992189 .13699341 .0309906 .05999756 .0309906H.035995485V0H.42799378C.5609894-.0002593994 .651001 .08874512 .651001 .18273926V.18289185M.5269928 .5136719C.5269928 .44970704 .47799684 .36573792 .36698915 .36573792H.22200012V.6116333C.22200012 .64460757 .22399903 .6516113 .2709961 .6516113H.394989C.49198915 .65174868 .5269928 .56674197 .5269928 .51374819V.5136719M.5509949 .18386841C.5509949 .1129303 .49899293 .0309906 .3959961 .0309906H.2709961C.22399903 .0309906 .22200012 .037994386 .22200012 .07095337V.34375H.4099884C.5089874 .34399415 .5509949 .25099183 .5509949 .18399048V.18386841Z"/>
<path id="font_4_97" d="M.57398989 .20323181C.57398989 .31422425 .49299623 .39523316 .4019928 .41423036L.25698854 .4452362C.21699524 .4542389 .16099549 .48823548 .16099549 .5492401 .16099549 .59225466 .18899536 .6542511 .2889862 .6542511 .36898805 .6542511 .46998597 .6202545 .49299623 .48423768 .49699403 .4602356 .49699403 .4582367 .5179901 .4582367 .5419922 .4582367 .5419922 .46324159 .5419922 .48623658V.6692505C.5419922 .68826296 .5419922 .6972656 .5239868 .6972656 .5159912 .6972656 .5149994 .69625857 .5039978 .68626406L.45899964 .6422577C.40098573 .68826296 .33599855 .6972656 .28799439 .6972656 .13598633 .6972656 .06399536 .6012573 .06399536 .49624635 .06399536 .4312439 .09700012 .38523866 .117996219 .36323548 .16699219 .31422425 .20098877 .30723573 .30999757 .28323365 .397995 .2642212 .4149933 .26123048 .43699647 .24023438 .45199586 .22523499 .47698976 .19923401 .47698976 .15324402 .47698976 .10523987 .45098878 .036254884 .34700013 .036254884 .2709961 .036254884 .11898804 .056243898 .11099243 .20523072 .10998535 .22322083 .10998535 .22822571 .08799744 .22822571 .06399536 .22822571 .06399536 .222229 .06399536 .19923401V.01725769C.06399536-.0017547608 .06399536-.0107421879 .08198547-.0107421879 .09098816-.0107421879 .09298706-.008743286 .100997928-.0017547608L.14698792 .04425049C.21299744-.0047454836 .30599977-.0107421879 .34700013-.0107421879 .5119934-.0107421879 .57398989 .102249149 .57398989 .20323181Z"/>
<path id="font_4_50" d="M.49398805 .11706543C.49398805 .13504029 .47499085 .13504029 .46998597 .13504029 .45298768 .13504029 .45098878 .13005066 .44499208 .11405945 .42399598 .066101077 .36698915 .03413391 .3019867 .03413391 .16099549 .03413391 .1599884 .16700745 .1599884 .2179718H.46199037C.48399354 .2179718 .49398805 .2179718 .49398805 .2449646 .49398805 .27598573 .48799134 .34906007 .43798829 .3991089 .40098573 .43511964 .34799195 .453125 .2789917 .453125 .11898804 .453125 .03199768 .35005189 .03199768 .22497559 .03199768 .09107971 .13198853-.005859375 .29299928-.005859375 .45098878-.005859375 .49398805 .10006714 .49398805 .11706543M.39898683 .25097657H.1599884C.1619873 .29000855 .16299439 .3320465 .18399048 .36506654 .20999146 .4051056 .25 .41711427 .2789917 .41711427 .3959961 .41711427 .397995 .28599549 .39898683 .25097657Z"/>
<path id="font_4_59" d="M.55799868 .3970642C.55799868 .42007447 .54100039 .45507813 .49499513 .45507813 .47999574 .45507813 .43299867 .45207215 .3889923 .41706849 .37098695 .42918397 .32899476 .4501953 .25498963 .4501953 .11099243 .4501953 .055999757 .37243653 .055999757 .3024292 .055999757 .26127626 .07598877 .22012329 .10798645 .19703675 .07998657 .16191101 .07398987 .12878418 .07398987 .10771179 .07398987 .0927124 .07798767 .04371643 .117996219 .01171875 .10499573 .008712769 .03199768-.012252808 .03199768-.075164798 .03199768-.12609864 .08699036-.2010498 .2869873-.2010498 .46398927-.2010498 .5419922-.14207459 .5419922-.07217407 .5419922-.04222107 .5339966 .020706177 .46699525 .054718019 .41099549 .08300781 .35099793 .08300781 .25498963 .08300781 .22898865 .08300781 .18299866 .08300781 .17799378 .083984378 .13398743 .0909729 .12298584 .12898255 .12298584 .14697266 .12298584 .15698242 .1269989 .17198181 .1329956 .17997742 .1789856 .15629578 .22999573 .15429688 .25498963 .15429688 .39898683 .15429688 .45399476 .23234558 .45399476 .3024292 .45399476 .34942628 .42900086 .38243104 .4139862 .3984375 .44400025 .4144287 .46499635 .4164276 .47599793 .4174347 .47399903 .4124298 .47200013 .40342713 .47200013 .39743043 .47200013 .37219239 .4889984 .354187 .5149994 .354187 .54100039 .354187 .55799868 .3731842 .55799868 .39718629V.3970642M.34298707 .30221559C.34298707 .25724793 .34298707 .19029236 .25498963 .19029236 .16699219 .19021607 .16699219 .25733949 .16699219 .3024292 .16699219 .34742738 .16699219 .41418458 .25498963 .41418458 .34298707 .41418458 .34298707 .34742738 .34298707 .3024292V.30221559M.45599366-.07501221C.45599366-.11102295 .4169922-.16503906 .2869873-.16503906 .16699219-.16503906 .117996219-.11903381 .117996219-.073013309 .117996219-.013000488 .18099976-.013000488 .19499207-.013000488H.31199647C.34298707-.013000488 .45599366-.013000488 .45599366-.07501221Z"/>
<path id="font_4_75" d="M.93499758 0V.04699707H.8659973V.30613709C.8659973 .40919496 .8149872 .4501953 .71199038 .4501953 .62098696 .4501953 .56900027 .40019227 .54299929 .3541565 .522995 .44718934 .43099977 .4501953 .3929901 .4501953 .30599977 .4501953 .24899292 .40518189 .21699524 .3421631V.4501953L.04499817 .4423828V.39537049C.10699463 .39537049 .11399841 .39537049 .11399841 .3563385V.04699707H.04499817V0L.17098999 .0029907227 .29699708 0V.04699707H.22799683V.2562256C.22799683 .3653412 .31498719 .41436769 .3769989 .41436769 .41099549 .41436769 .43299867 .39437867 .43299867 .31729127V.04699707H.3639984V0L.48999024 .0029907227 .6159973 0V.04699707H.5469971V.2562256C.5469971 .3653412 .6339874 .41436769 .69599917 .41436769 .7299957 .41436769 .7519989 .39437867 .7519989 .31729127V.04699707H.68299868V0L.8089905 .0029907227 .93499758 0Z"/>
<path id="font_4_77" d="M.61499026 0V.04699707H.54599V.30613709C.54599 .41119386 .49198915 .4501953 .3919983 .4501953 .29599 .4501953 .24299622 .39318849 .21699524 .3421631V.4501953L.04499817 .4423828V.39537049C.10699463 .39537049 .11399841 .39537049 .11399841 .3563385V.04699707H.04499817V0L.17098999 .0029907227 .29699708 0V.04699707H.22799683V.2562256C.22799683 .3653412 .31399537 .41436769 .3769989 .41436769 .41099549 .41436769 .43199159 .39337159 .43199159 .31729127V.04699707H.36299134V0L.4889984 .0029907227 .61499026 0Z"/>
<path id="font_4_105" d="M.38198854 .124176029V.17721558H.33499146V.12619019C.33499146 .058151246 .30299378 .03413391 .2749939 .03413391 .21699524 .03413391 .21699524 .09817505 .21699524 .1211853V.3973236H.36299134V.44433595H.21699524V.6357422H.16999817C.16899109 .53552249 .11999512 .43632508 .020996094 .43333436V.3973236H.102996829V.123184207C.102996829 .01612854 .18998719-.005859375 .26098634-.005859375 .33699037-.005859375 .38198854 .05114746 .38198854 .124176029Z"/>
<path id="font_5_1" d="M.33499146 .63612368C.33499146 .6630554 .33299256 .6640625 .30499269 .6640625 .24099732 .6014404 .1499939 .6004486 .10899353 .6004486V.5644531C.1329956 .5644531 .19898987 .5644531 .2539978 .592453V.08203125C.2539978 .04899597 .2539978 .035995485 .1539917 .035995485H.115997318V0C.13398743 .0009918213 .25698854 .0039978029 .2939911 .0039978029 .32499696 .0039978029 .45098878 .0009918213 .47299195 0V.035995485H.43499757C.33499146 .035995485 .33499146 .04899597 .33499146 .08203125V.63612368Z"/>
<path id="font_5_2" d="M.5049896 .18203736H.47099305C.46798707 .16001892 .45799256 .100997928 .44499208 .09098816 .43699647 .084991458 .3600006 .084991458 .34599305 .084991458H.1619873C.2669983 .17803955 .3019867 .20603943 .3619995 .25306703 .43598939 .312088 .5049896 .374115 .5049896 .46914674 .5049896 .5900879 .39898683 .6640625 .2709961 .6640625 .14698792 .6640625 .06298828 .57710269 .06298828 .4851532 .06298828 .43414308 .10598755 .42915345 .115997318 .42915345 .13999939 .42915345 .16899109 .44615174 .16899109 .48214723 .16899109 .5001526 .1619873 .53515627 .10998535 .53515627 .14099121 .6060791 .20899964 .62805178 .2559967 .62805178 .35598756 .62805178 .4079895 .5501404 .4079895 .46914674 .4079895 .38212586 .34599305 .3130951 .31399537 .27708436L.07299805 .038986207C.06298828 .02999878 .06298828 .027999878 .06298828 0H.47499085L.5049896 .18203736Z"/>
<path id="font_6_2" d="M.45498658 .5001831C.45498658 .56614688 .43699647 .7050781 .33499146 .7050781 .19599915 .7050781 .041992189 .42323304 .041992189 .19425965 .041992189 .100250247 .070999149-.0107421879 .1619873-.0107421879 .30299378-.0107421879 .45498658 .27627564 .45498658 .5001831M.147995 .36328126C.16499329 .42723084 .18499756 .5071869 .22499085 .57814028 .2519989 .6271057 .2889862 .68307498 .33399964 .68307498 .3829956 .68307498 .3889923 .6191101 .3889923 .56214907 .3889923 .5131836 .3809967 .46220399 .35699464 .36328126H.147995M.34799195 .3312683C.33699037 .28527833 .31599427 .2002716 .27799989 .12826538 .24299622 .060256959 .20498657 .011245728 .1619873 .011245728 .1289978 .011245728 .10798645 .040252687 .10798645 .133255 .10798645 .17526245 .11399841 .23326111 .13999939 .3312683H.34799195Z"/>
<path id="font_6_1" d="M.47698976 .23631287C.47698976 .39337159 .38398744 .4423828 .30999757 .4423828 .17298889 .4423828 .040985109 .29933167 .040985109 .15829468 .040985109 .06526184 .100997928-.0107421879 .20298767-.0107421879 .2659912-.0107421879 .33799745 .012252808 .4139862 .073272708 .4269867 .020248414 .45999146-.0107421879 .5049896-.0107421879 .55799868-.0107421879 .58898928 .044265748 .58898928 .060272218 .58898928 .06726074 .58299258 .07026672 .57699587 .07026672 .56999209 .07026672 .5669861 .06726074 .56399539 .060272218 .54599 .011245728 .5099945 .011245728 .5079956 .011245728 .47698976 .011245728 .47698976 .089279178 .47698976 .11328125 .47698976 .1342926 .47698976 .1362915 .4869995 .14828491 .58099368 .2663269 .60198977 .38235475 .60198977 .38336183 .60198977 .38536073 .6009979 .39337159 .58999636 .39337159 .5799866 .39337159 .5799866 .3903656 .57499697 .37236024 .5569916 .30934144 .5239868 .23332215 .47698976 .17430115V.23631287M.4099884 .09927368C.32199098 .022247315 .24499512 .011245728 .20498657 .011245728 .14498902 .011245728 .114990238 .056259157 .114990238 .120285037 .114990238 .16929627 .14099121 .2773285 .17298889 .32833863 .21998596 .4013672 .27398683 .42037965 .30899049 .42037965 .4079895 .42037965 .4079895 .28933717 .4079895 .21130371 .4079895 .17430115 .4079895 .11628723 .4099884 .09927368Z"/>
</defs>
<g clip-path="url(#clip_1)">
<g clip-path="url(#clip_2)">
<path transform="matrix(1.00005,0,0,-1.00002,101.31311,113.09902)" d="M14.1734 0C14.1734 31.31142-11.20877 56.69362-42.5202 56.69362-73.83162 56.69362-99.21382 31.31142-99.21382 0-99.21382-31.31142-73.83162-56.69362-42.5202-56.69362-11.20877-56.69362 14.1734-31.31142 14.1734 0ZM-42.5202 0" fill="#6dcff6"/>
</g>
</g>
<path transform="matrix(1.00005,0,0,-1.00002,101.31311,113.09902)" stroke-width=".3985" stroke-linecap="butt" stroke-miterlimit="10" stroke-linejoin="miter" fill="none" stroke="#000000" d="M14.1734 0C14.1734 31.31142-11.20877 56.69362-42.5202 56.69362-73.83162 56.69362-99.21382 31.31142-99.21382 0-99.21382-31.31142-73.83162-56.69362-42.5202-56.69362-11.20877-56.69362 14.1734-31.31142 14.1734 0ZM-42.5202 0"/>
<path transform="matrix(1.00005,0,0,-1.00002,101.31311,113.09902)" stroke-width=".3985" stroke-linecap="butt" stroke-miterlimit="10" stroke-linejoin="miter" fill="none" stroke="#000000" d="M99.21382 0C99.21382 31.31142 73.83162 56.69362 42.5202 56.69362 11.20877 56.69362-14.1734 31.31142-14.1734 0-14.1734-31.31142 11.20877-56.69362 42.5202-56.69362 73.83162-56.69362 99.21382-31.31142 99.21382 0ZM42.5202 0"/>
<path transform="matrix(1.00005,0,0,-1.00002,101.31311,113.09902)" stroke-width="1.19553" stroke-linecap="butt" stroke-miterlimit="10" stroke-linejoin="miter" fill="none" stroke="#000000" d="M0 36.85092-42.5202 0 0-36.85092 42.5202 0Z"/>
<path transform="matrix(1.00005,0,0,-1.00002,101.31311,113.09902)" stroke-width="1.19553" stroke-linecap="butt" stroke-miterlimit="10" stroke-linejoin="miter" fill="none" stroke="#000000" d="M0 36.85092V-36.85092"/>
<use data-text="P" xlink:href="#font_3_83" transform="matrix(9.963098,0,0,-9.962799,48.485475,116.50109)"/>
<use data-text="Q" xlink:href="#font_3_90" transform="matrix(9.963098,0,0,-9.962799,153.02469,115.64407)"/>
<use data-text="A" xlink:href="#font_3_27" transform="matrix(9.963098,0,0,-9.962799,97.57693,67.0581)"/>
<use data-text="B" xlink:href="#font_3_34" transform="matrix(9.963098,0,0,-9.962799,97.785938,160.27497)"/>
<path transform="matrix(1.00005,0,0,-1.00002,101.31311,113.09902)" stroke-width="1.19553" stroke-linecap="butt" stroke-miterlimit="10" stroke-linejoin="miter" fill="none" stroke="#000000" d="M5.66927 0 56.14688 98.15071"/>
<path transform="matrix(.45734284,-.8892678,-.8892944,-.45732916,157.73618,14.414795)" stroke-width="1.19553" stroke-linecap="round" stroke-linejoin="round" fill="none" stroke="#000000" d="M-3.02867 3.83081C-2.47534 1.53229-1.24231 .44691 0 0-1.24231-.44691-2.47534-1.53229-3.02867-3.83081"/>
<path transform="matrix(1.00005,0,0,-1.00002,101.31311,113.09902)" stroke-width="1.19553" stroke-linecap="butt" stroke-miterlimit="10" stroke-linejoin="miter" fill="none" stroke="#000000" d="M-5.66927 0-56.14688 98.15071"/>
<path transform="matrix(-.45734284,-.8892678,-.8892944,.45732916,44.890054,14.414795)" stroke-width="1.19553" stroke-linecap="round" stroke-linejoin="round" fill="none" stroke="#000000" d="M-3.02867 3.83081C-2.47534 1.53229-1.24231 .44691 0 0-1.24231-.44691-2.47534-1.53229-3.02867-3.83081"/>
<use data-text="S" xlink:href="#font_4_97" transform="matrix(9.963098,0,0,-9.962799,21.060105,7.862915)" fill="#0000ff"/>
<use data-text="e" xlink:href="#font_4_50" transform="matrix(9.963098,0,0,-9.962799,27.426529,7.862915)" fill="#0000ff"/>
<use data-text="g" xlink:href="#font_4_59" transform="matrix(9.963098,0,0,-9.962799,32.67708,7.862915)" fill="#0000ff"/>
<use data-text="m" xlink:href="#font_4_75" transform="matrix(9.963098,0,0,-9.962799,38.40587,7.862915)" fill="#0000ff"/>
<use data-text="e" xlink:href="#font_4_50" transform="matrix(9.963098,0,0,-9.962799,47.950517,7.862915)" fill="#0000ff"/>
<use data-text="n" xlink:href="#font_4_77" transform="matrix(9.963098,0,0,-9.962799,53.201066,7.862915)" fill="#0000ff"/>
<use data-text="t" xlink:href="#font_4_105" transform="matrix(9.963098,0,0,-9.962799,59.258638,7.862915)" fill="#0000ff"/>
<use data-text="1" xlink:href="#font_5_1" transform="matrix(6.9741489,0,0,-6.97394,63.70323,10.363968)" fill="#0000ff"/>
<use data-text="S" xlink:href="#font_4_97" transform="matrix(9.963098,0,0,-9.962799,134.45377,7.862915)" fill="#0000ff"/>
<use data-text="e" xlink:href="#font_4_50" transform="matrix(9.963098,0,0,-9.962799,140.82019,7.862915)" fill="#0000ff"/>
<use data-text="g" xlink:href="#font_4_59" transform="matrix(9.963098,0,0,-9.962799,146.07074,7.862915)" fill="#0000ff"/>
<use data-text="m" xlink:href="#font_4_75" transform="matrix(9.963098,0,0,-9.962799,151.79953,7.862915)" fill="#0000ff"/>
<use data-text="e" xlink:href="#font_4_50" transform="matrix(9.963098,0,0,-9.962799,161.34418,7.862915)" fill="#0000ff"/>
<use data-text="n" xlink:href="#font_4_77" transform="matrix(9.963098,0,0,-9.962799,166.59473,7.862915)" fill="#0000ff"/>
<use data-text="t" xlink:href="#font_4_105" transform="matrix(9.963098,0,0,-9.962799,172.6523,7.862915)" fill="#0000ff"/>
<use data-text="2" xlink:href="#font_5_2" transform="matrix(6.9741489,0,0,-6.97394,177.0969,10.363968)" fill="#0000ff"/>
<path transform="matrix(1.00005,0,0,-1.00002,101.31311,113.09902)" stroke-width=".79701" stroke-linecap="butt" stroke-miterlimit="10" stroke-linejoin="miter" fill="none" stroke="#000000" d="M-56.6936 0C-56.6936 6.26218-51.61723 11.33855-45.35506 11.33855-39.09286 11.33855-34.0165 6.26218-34.0165 0-34.0165-6.26218-39.09286-11.33855-45.35506-11.33855-51.61723-11.33855-56.6936-6.26218-56.6936 0"/>
<path transform="matrix(1.00005,0,0,-1.00002,101.31311,113.09902)" stroke-width=".79701" stroke-linecap="butt" stroke-miterlimit="10" stroke-linejoin="miter" fill="none" stroke="#000000" d="M28.3468 0C28.3468-6.26218 33.42317-11.33855 39.68535-11.33855 45.94753-11.33855 51.0239-6.26218 51.0239 0 51.0239 6.26218 45.94753 11.33855 39.68535 11.33855 33.42317 11.33855 28.3468 6.26218 28.3468 0"/>
<use data-text="&#x03b8;" xlink:href="#font_6_2" transform="matrix(9.963098,0,0,-9.962799,73.32271,115.03306)"/>
<use data-text="&#x03b1;" xlink:href="#font_6_1" transform="matrix(9.963098,0,0,-9.962799,120.78609,112.40401)"/>
</svg>
