<svg xmlns="http://www.w3.org/2000/svg" xmlns:xlink="http://www.w3.org/1999/xlink" xmlns:inkscape="http://www.inkscape.org/namespaces/inkscape" version="1.1" width="359" height="259" viewBox="0 0 359 259">
<defs>
<clipPath id="clip_1">
<path transform="matrix(1,0,0,-1.00009,144.227,129.76824)" d="M28.3468 0C28.3468 46.96713-9.72647 85.04042-56.69362 85.04042-103.66075 85.04042-141.73404 46.96713-141.73404 0-141.73404-46.96713-103.66075-85.04042-56.69362-85.04042-9.72647-85.04042 28.3468-46.96713 28.3468 0ZM-56.69362 0"/>
</clipPath>
<path id="font_2_82" d="M.49398805 0V.04699707H.35398866V.6231079C.35398866 .6452179 .35398866 .65527346 .32798768 .65527346 .31698609 .65527346 .31498719 .65527346 .30599977 .6482239 .22898865 .5909424 .12599182 .5909424 .10499573 .5909424H.084991458V.5439453H.10499573C.12098694 .5439453 .17599488 .54493716 .23498535 .5639343V.04699707H.09599304V0C.13999939 .0029907227 .24598694 .0029907227 .29499818 .0029907227 .34399415 .0029907227 .44999696 .0029907227 .49398805 0Z"/>
<path id="font_2_121" d="M.5289917 .31939698C.5289917 .41644288 .5279999 .65527346 .2869873 .65527346 .04598999 .65527346 .04499817 .41744996 .04499817 .31939698 .04499817 .22035218 .04598999-.0107421879 .2869873-.0107421879 .5269928-.0107421879 .5289917 .2193451 .5289917 .31939698M.40098573 .33140565C.40098573 .27537538 .40098573 .18432617 .3939972 .13230896 .37998963 .039260866 .31698609 .025253296 .2869873 .025253296 .25099183 .025253296 .19499207 .04725647 .18199158 .12030029 .17298889 .1723175 .17298889 .27638246 .17298889 .33140565 .17298889 .40344239 .17298889 .46847535 .18099976 .5205078 .19299317 .6092987 .2630005 .6192627 .2869873 .6192627 .32398988 .6192627 .36499024 .6003418 .38398744 .5565033 .40098573 .51950076 .40098573 .41345216 .40098573 .33140565Z"/>
<path id="font_2_75" d="M.93499758 0V.04699707H.8659973V.30613709C.8659973 .40919496 .8149872 .4501953 .71199038 .4501953 .62098696 .4501953 .56900027 .40019227 .54299929 .3541565 .522995 .44718934 .43099977 .4501953 .3929901 .4501953 .30599977 .4501953 .24899292 .40518189 .21699524 .3421631V.4501953L.04499817 .4423828V.39537049C.10699463 .39537049 .11399841 .39537049 .11399841 .3563385V.04699707H.04499817V0L.17098999 .0029907227 .29699708 0V.04699707H.22799683V.2562256C.22799683 .3653412 .31498719 .41436769 .3769989 .41436769 .41099549 .41436769 .43299867 .39437867 .43299867 .31729127V.04699707H.3639984V0L.48999024 .0029907227 .6159973 0V.04699707H.5469971V.2562256C.5469971 .3653412 .6339874 .41436769 .69599917 .41436769 .7299957 .41436769 .7519989 .39437867 .7519989 .31729127V.04699707H.68299868V0L.8089905 .0029907227 .93499758 0Z"/>
<path id="font_2_100" d="M.55799868 .6435547H.35398866C.33099366 .6435547 .18399048 .6485901 .16999817 .6526184 .14898682 .6566467 .147995 .6656952 .1459961 .67578127H.09899902L.06399536 .42167665H.11099243C.12098694 .49757386 .13398743 .5105591 .13798523 .512558 .14898682 .5185547 .22999573 .5185547 .24699402 .5185547H.41600038C.397995 .49658204 .3789978 .4756012 .36099244 .45362855 .2649994 .34178163 .19299317 .20695496 .19299317 .059158327 .19299317-.0107421879 .24899292-.0107421879 .25498963-.0107421879 .2709961-.0107421879 .31799317-.0057525637 .31799317 .060150148V.10609436C.31799317 .15403748 .32099916 .20196533 .32798768 .24890137 .33699037 .31581117 .35798646 .3747406 .3929901 .41567994L.5479889 .59555056C.55799868 .6065521 .55799868 .608551 .55799868 .6435547Z"/>
<path id="font_2_234" d="M.375 .52565C.375 .6145477 .3039856 .6855469 .21598816 .6855469 .1269989 .6855469 .055999757 .6145477 .055999757 .52565 .055999757 .43774415 .1269989 .366745 .21598816 .366745 .3039856 .366745 .375 .43774415 .375 .52565M.31498719 .52565C.31498719 .47070313 .2709961 .4267578 .21598816 .4267578 .16099549 .4267578 .115997318 .47070313 .115997318 .52565 .115997318 .58058169 .16099549 .62553408 .21598816 .62553408 .2709961 .62553408 .31498719 .58058169 .31498719 .52565Z"/>
<path id="font_2_107" d="M.5169983 .22200012H.46998597C.46699525 .20199585 .45799256 .13798523 .44400025 .1309967 .43299867 .125 .35798646 .125 .34199525 .125H.19499207C.24198914 .1639862 .2939911 .20698548 .33898927 .23999024 .45298768 .3242035 .5169983 .37124635 .5169983 .4663086 .5169983 .5812988 .41299439 .65527346 .27198792 .65527346 .15098572 .65527346 .056991579 .593277 .056991579 .50331118 .056991579 .44430543 .10499573 .42930604 .1289978 .42930604 .16099549 .42930604 .20098877 .4513092 .20098877 .50131228 .20098877 .55329897 .15899658 .5693054 .14399719 .5733032 .17298889 .5972748 .21099854 .6082611 .24699402 .6082611 .33299256 .6082611 .3789978 .54029849 .3789978 .4653015 .3789978 .39627076 .34098817 .3282013 .2709961 .25712586L.069992069 .051986696C.056991579 .039993287 .056991579 .037994386 .056991579 .017990113V0H.48599244L.5169983 .22200012Z"/>
<path id="font_3_1" d="M.73999026 .4358673C.73999026 .5970001 .6339874 .7050781 .4850006 .7050781 .2689972 .7050781 .04899597 .47790528 .04899597 .24472046 .04899597 .07859802 .16099549-.022460938 .30499269-.022460938 .5169983-.022460938 .73999026 .19668579 .73999026 .4358673M.31098939 .0035247803C.21199036 .0035247803 .14199829 .08459473 .14199829 .21670532 .14199829 .2607422 .1559906 .4068451 .23298645 .52394106 .3019867 .62802127 .3999939 .68006899 .47898866 .68006899 .5609894 .68006899 .651001 .62402346 .651001 .4748993 .651001 .4028473 .6239929 .24671936 .5249939 .12362671 .47698976 .062576297 .394989 .0035247803 .31098939 .0035247803Z"/>
<path id="font_4_1" d="M.33499146 .63612368C.33499146 .6630554 .33299256 .6640625 .30499269 .6640625 .24099732 .6014404 .1499939 .6004486 .10899353 .6004486V.5644531C.1329956 .5644531 .19898987 .5644531 .2539978 .592453V.08203125C.2539978 .04899597 .2539978 .035995485 .1539917 .035995485H.115997318V0C.13398743 .0009918213 .25698854 .0039978029 .2939911 .0039978029 .32499696 .0039978029 .45098878 .0009918213 .47299195 0V.035995485H.43499757C.33499146 .035995485 .33499146 .04899597 .33499146 .08203125V.63612368Z"/>
<path id="font_4_2" d="M.5049896 .18203736H.47099305C.46798707 .16001892 .45799256 .100997928 .44499208 .09098816 .43699647 .084991458 .3600006 .084991458 .34599305 .084991458H.1619873C.2669983 .17803955 .3019867 .20603943 .3619995 .25306703 .43598939 .312088 .5049896 .374115 .5049896 .46914674 .5049896 .5900879 .39898683 .6640625 .2709961 .6640625 .14698792 .6640625 .06298828 .57710269 .06298828 .4851532 .06298828 .43414308 .10598755 .42915345 .115997318 .42915345 .13999939 .42915345 .16899109 .44615174 .16899109 .48214723 .16899109 .5001526 .1619873 .53515627 .10998535 .53515627 .14099121 .6060791 .20899964 .62805178 .2559967 .62805178 .35598756 .62805178 .4079895 .5501404 .4079895 .46914674 .4079895 .38212586 .34599305 .3130951 .31399537 .27708436L.07299805 .038986207C.06298828 .02999878 .06298828 .027999878 .06298828 0H.47499085L.5049896 .18203736Z"/>
<path id="font_2_27" d="M.82699587 0V.04699707H.7299957L.47399903 .6722412C.46299745 .6982422 .45098878 .6982422 .43399049 .6982422 .4059906 .6982422 .4019928 .6902313 .394989 .6722412L.14698792 .07002258C.14099121 .055007936 .13798523 .04699707 .06199646 .04699707H.040985109V0L.1579895 .0029907227C.19699097 .0029907227 .25299073 .0029907227 .2899933 0V.04699707C.2899933 .04699707 .20098877 .04699707 .20098877 .060012819L.20498657 .07203674 .25498963 .19322205H.522995L.58299258 .04699707H.48799134V0C.526001 .0029907227 .62098696 .0029907227 .6639862 .0029907227 .70399478 .0029907227 .7919922 .0029907227 .82699587 0M.5029907 .24023438H.2749939L.3889923 .51823428 .5029907 .24023438Z"/>
<path id="font_2_34" d="M.7529907 .18592835C.7529907 .28189088 .6669922 .3488617 .5479889 .35786439 .6559906 .37686158 .72099307 .43678285 .72099307 .51368716 .72099307 .60557559 .6339874 .6855469 .47299195 .6855469H.038986207V.63853457H.14698792V.04699707H.038986207V0H.5029907C.6689911 0 .7529907 .08796692 .7529907 .18592835M.57899478 .51368716C.57899478 .43678285 .5309906 .37486268 .43399049 .37486268H.27799989V.63853457H.45999146C.5609894 .63853457 .57899478 .55963137 .57899478 .51368716M.60598757 .18693543C.60598757 .17492676 .60598757 .04699707 .46199037 .04699707H.27799989V.3388672H.47200013C.49198915 .3388672 .5389862 .3388672 .57299807 .29588319 .60598757 .253891 .60598757 .19792176 .60598757 .18693543Z"/>
</defs>
<g clip-path="url(#clip_1)">
<path transform="matrix(1,0,0,-1.00009,144.227,129.76824)" d="M212.60106 0C212.60106 70.45068 155.49112 127.56062 85.04042 127.56062 14.58972 127.56062-42.5202 70.45068-42.5202 0-42.5202-70.45068 14.58972-127.56062 85.04042-127.56062 155.49112-127.56062 212.60106-70.45068 212.60106 0ZM85.04042 0" fill="#b3b3ff"/>
</g>
<path transform="matrix(1,0,0,-1.00009,144.227,129.76824)" stroke-width="1.19553" stroke-linecap="butt" stroke-miterlimit="10" stroke-linejoin="miter" fill="none" stroke="#000000" d="M28.3468 0C28.3468 46.96713-9.72647 85.04042-56.69362 85.04042-103.66075 85.04042-141.73404 46.96713-141.73404 0-141.73404-46.96713-103.66075-85.04042-56.69362-85.04042-9.72647-85.04042 28.3468-46.96713 28.3468 0ZM-56.69362 0"/>
<path transform="matrix(1,0,0,-1.00009,144.227,129.76824)" stroke-width="1.19553" stroke-linecap="butt" stroke-miterlimit="10" stroke-linejoin="miter" fill="none" stroke="#000000" d="M212.60106 0C212.60106 70.45068 155.49112 127.56062 85.04042 127.56062 14.58972 127.56062-42.5202 70.45068-42.5202 0-42.5202-70.45068 14.58972-127.56062 85.04042-127.56062 155.49112-127.56062 212.60106-70.45068 212.60106 0ZM85.04042 0"/>
<path transform="matrix(1,0,0,-1.00009,144.227,129.76824)" stroke-width=".79701" stroke-linecap="butt" stroke-miterlimit="10" stroke-linejoin="miter" fill="none" stroke="#000000" d="M-17.72113 75.59772-17.74973-75.61247"/>
<use data-text="1" xlink:href="#font_2_82" transform="matrix(9.9626,0,0,-9.963496,130.211,132.98352)"/>
<use data-text="0" xlink:href="#font_2_121" transform="matrix(9.9626,0,0,-9.963496,135.93952,132.98352)"/>
<use data-text="m" xlink:href="#font_2_75" transform="matrix(9.9626,0,0,-9.963496,145.47373,132.98352)"/>
<path transform="matrix(1,0,0,-1.00009,144.227,129.76824)" stroke-width="1.19553" stroke-linecap="butt" stroke-dasharray="2.98883,2.98883" stroke-miterlimit="10" stroke-linejoin="miter" fill="none" stroke="#000000" d="M-56.69362 0-17.72113 75.59772"/>
<path transform="matrix(1,0,0,-1.00009,144.227,129.76824)" stroke-width="1.19553" stroke-linecap="butt" stroke-dasharray="2.98883,2.98883" stroke-miterlimit="10" stroke-linejoin="miter" fill="none" stroke="#000000" d="M-56.69362 0-17.74973-75.61247"/>
<path transform="matrix(1,0,0,-1.00009,144.227,129.76824)" stroke-width="1.19553" stroke-linecap="butt" stroke-dasharray="2.98883,2.98883" stroke-miterlimit="10" stroke-linejoin="miter" fill="none" stroke="#000000" d="M85.04042 0-17.72113 75.59772"/>
<path transform="matrix(1,0,0,-1.00009,144.227,129.76824)" stroke-width="1.19553" stroke-linecap="butt" stroke-dasharray="2.98883,2.98883" stroke-miterlimit="10" stroke-linejoin="miter" fill="none" stroke="#000000" d="M85.04042 0-17.74973-75.61247"/>
<path transform="matrix(1,0,0,-1.00009,144.227,129.76824)" stroke-width=".79701" stroke-linecap="butt" stroke-miterlimit="10" stroke-linejoin="miter" fill="none" stroke="#000000" d="M-48.70248 2.90837C-51.55492 10.7457-59.00804 15.96436-66.55156 15.96436"/>
<path transform="matrix(-1,-0,0,1.00009,77.27693,113.80244)" stroke-width=".79701" stroke-linecap="round" stroke-linejoin="round" fill="none" stroke="#000000" d="M-2.55046 3.11095C-2.0845 1.24435-1.04614 .36295 0 0-1.04614-.36295-2.0845-1.24435-2.55046-3.11095"/>
<use data-text="7" xlink:href="#font_2_100" transform="matrix(9.9626,0,0,-9.963496,65.48401,110.45149)"/>
<use data-text="0" xlink:href="#font_2_121" transform="matrix(9.9626,0,0,-9.963496,71.21251,110.45149)"/>
<use data-text="&#x00b0;" xlink:href="#font_2_234" transform="matrix(9.9626,0,0,-9.963496,76.94101,110.45149)"/>
<path transform="matrix(1,0,0,-1.00009,144.227,129.76824)" stroke-width=".79701" stroke-linecap="butt" stroke-miterlimit="10" stroke-linejoin="miter" fill="none" stroke="#000000" d="M69.05815-5.81718C73.87706-19.0574 88.51718-25.88385 101.7574-21.06494 105.96436-19.5339 109.69717-16.91988 112.06247-14.10083"/>
<path transform="matrix(.64276,-.766109,-.76604,-.64281788,256.5456,143.56507)" stroke-width=".79701" stroke-linecap="round" stroke-linejoin="round" fill="none" stroke="#000000" d="M-2.55046 3.11095C-2.0845 1.24435-1.04614 .36295 0 0-1.04614-.36295-2.0845-1.24435-2.55046-3.11095"/>
<use data-text="1" xlink:href="#font_2_82" transform="matrix(9.9626,0,0,-9.963496,255.378,148.81795)"/>
<use data-text="2" xlink:href="#font_2_107" transform="matrix(9.9626,0,0,-9.963496,261.1065,148.81795)"/>
<use data-text="0" xlink:href="#font_2_121" transform="matrix(9.9626,0,0,-9.963496,266.83503,148.81795)"/>
<use data-text="&#x00b0;" xlink:href="#font_2_234" transform="matrix(9.9626,0,0,-9.963496,272.5635,148.81795)"/>
<use data-text="O" xlink:href="#font_3_1" transform="matrix(9.9626,0,0,-9.963496,71.94501,132.42548)"/>
<use data-text="1" xlink:href="#font_4_1" transform="matrix(6.9738,0,0,-6.9744279,79.54401,133.92061)"/>
<use data-text="O" xlink:href="#font_3_1" transform="matrix(9.9626,0,0,-9.963496,232.787,132.42548)"/>
<use data-text="2" xlink:href="#font_4_2" transform="matrix(6.9738,0,0,-6.9744279,240.386,133.92061)"/>
<use data-text="A" xlink:href="#font_2_27" transform="matrix(9.9626,0,0,-9.963496,122.177,50.64312)"/>
<use data-text="B" xlink:href="#font_2_34" transform="matrix(9.9626,0,0,-9.963496,122.40201,215.74298)"/>
</svg>
