<svg xmlns="http://www.w3.org/2000/svg" xmlns:xlink="http://www.w3.org/1999/xlink" xmlns:inkscape="http://www.inkscape.org/namespaces/inkscape" version="1.1" width="203" height="202" viewBox="0 0 203 202">
<defs>
<path id="font_1_6" d="M.33399964 .30233766C.33999635 .32835389 .36299134 .42037965 .43299867 .42037965 .43798829 .42037965 .46199037 .42037965 .48298646 .40734864 .45498658 .402359 .43499757 .37734986 .43499757 .35334779 .43499757 .33735658 .44599916 .31835938 .47299195 .31835938 .49499513 .31835938 .5269928 .3363495 .5269928 .37635804 .5269928 .42837525 .46798707 .4423828 .43399049 .4423828 .37599183 .4423828 .34098817 .38935853 .32899476 .36634828 .3039856 .43237306 .25 .4423828 .22099304 .4423828 .116989139 .4423828 .05999756 .3133545 .05999756 .28834535 .05999756 .27833558 .069992069 .27833558 .07199097 .27833558 .07998657 .27833558 .08299255 .28033448 .084991458 .28933717 .11898804 .39535523 .18499756 .42037965 .21899414 .42037965 .23799134 .42037965 .272995 .4113617 .272995 .35334779 .272995 .32235719 .2559967 .25532533 .21899414 .11528015 .20298767 .053268434 .16799927 .011245728 .12399292 .011245728 .117996219 .011245728 .09498596 .011245728 .07398987 .024276734 .09899902 .029266358 .12098694 .05027771 .12098694 .07827759 .12098694 .105270389 .09899902 .11328125 .083999637 .11328125 .053985597 .11328125 .0289917 .08728027 .0289917 .055267335 .0289917 .009246826 .07899475-.0107421879 .12298584-.0107421879 .18899536-.0107421879 .22499085 .059280397 .22799683 .0652771 .23999024 .028274537 .27598573-.0107421879 .33599855-.0107421879 .43899537-.0107421879 .49598695 .118270877 .49598695 .14328003 .49598695 .1532898 .4869995 .1532898 .48399354 .1532898 .47499085 .1532898 .47299195 .14929199 .47099305 .14228821 .43798829 .03527832 .36999513 .011245728 .33799745 .011245728 .29899598 .011245728 .2829895 .043273927 .2829895 .07727051 .2829895 .09927368 .2889862 .121276859 .2999878 .16529846L.33399964 .30233766Z"/>
<path id="font_1_3" d="M.37298585 .37835694C.35499574 .41537477 .32598878 .4423828 .2809906 .4423828 .1639862 .4423828 .039993287 .29533387 .039993287 .14929199 .039993287 .055267335 .09498596-.0107421879 .17298889-.0107421879 .19299317-.0107421879 .24299622-.0067443849 .30299378 .06427002 .31098939 .022247315 .34599305-.0107421879 .3939972-.0107421879 .42900086-.0107421879 .45199586 .012252808 .46798707 .044265748 .4850006 .08027649 .49798585 .14129639 .49798585 .14329529 .49798585 .1532898 .4889984 .1532898 .48599244 .1532898 .47599793 .1532898 .47499085 .14929199 .47200013 .13528443 .45498658 .07026672 .43699647 .011245728 .3959961 .011245728 .36898805 .011245728 .3659973 .037261964 .3659973 .057266237 .3659973 .07926941 .36799623 .08728027 .3789978 .13128662 .3899994 .17329407 .3919983 .18330384 .40098573 .22131348L.43699647 .36135865C.44400025 .38935853 .44400025 .39135743 .44400025 .39537049 .44400025 .41236878 .43199159 .42237855 .4149933 .42237855 .3909912 .42237855 .37599183 .4003601 .37298585 .37835694M.30799867 .119277957C.30299378 .10127258 .30299378 .09927368 .28799439 .08227539 .24398804 .027252198 .20298767 .011245728 .1749878 .011245728 .125 .011245728 .11099243 .06626892 .11099243 .105285648 .11099243 .1552887 .14299011 .27833558 .1659851 .32434083 .19699097 .38336183 .24198914 .42037965 .28199769 .42037965 .34700013 .42037965 .36099244 .3383484 .36099244 .33235169 .36099244 .32633973 .35899354 .32034303 .35798646 .31533814L.30799867 .119277957Z"/>
<path id="font_1_4" d="M.28399659 .6252594C.28399659 .6452637 .269989 .6612549 .24699402 .6612549 .21998596 .6612549 .19299317 .6352539 .19299317 .6082611 .19299317 .5892639 .20698548 .5722656 .23098755 .5722656 .2539978 .5722656 .28399659 .5952606 .28399659 .6252594M.20799256 .24932862C.21998596 .27833558 .21998596 .28033448 .22999573 .30734254 .23799134 .3273468 .24299622 .34135438 .24299622 .36035157 .24299622 .405365 .21099854 .4423828 .16099549 .4423828 .066986087 .4423828 .0289917 .29733277 .0289917 .28833009 .0289917 .27833558 .038986207 .27833558 .040985109 .27833558 .050994874 .27833558 .051986696 .28033448 .056991579 .29634095 .083999637 .3903656 .12399292 .42037965 .1579895 .42037965 .1659851 .42037965 .18299866 .42037965 .18299866 .3883667 .18299866 .36735536 .17599488 .346344 .17199707 .3363495 .1639862 .31033326 .11898804 .19430542 .102996829 .1512909 .09298706 .12528992 .07998657 .0922699 .07998657 .0712738 .07998657 .024261475 .11399841-.0107421879 .1619873-.0107421879 .2559967-.0107421879 .29299928 .1342926 .29299928 .14329529 .29299928 .1532898 .28399659 .1532898 .2809906 .1532898 .2709961 .1532898 .2709961 .15029907 .2659912 .13528443 .24798584 .072265628 .21499634 .011245728 .1639862 .011245728 .14698792 .011245728 .13999939 .021255494 .13999939 .044265748 .13999939 .0692749 .1459961 .08326721 .16899109 .14428711L.20799256 .24932862Z"/>
<path id="font_1_5" d="M.3909912 .37405396C.36299134 .37304688 .34298707 .3510437 .34298707 .32904054 .34298707 .31503297 .35198976 .30003358 .37399293 .30003358 .3959961 .30003358 .41999818 .31703187 .41999818 .35603334 .41999818 .40124513 .3769989 .4423828 .30099488 .4423828 .16899109 .4423828 .13198853 .3400421 .13198853 .29605104 .13198853 .21820069 .20599365 .20323181 .23498535 .19725037 .2869873 .18727112 .33898927 .17628479 .33898927 .12133789 .33898927 .095336917 .31599427 .011245728 .19599915 .011245728 .18199158 .011245728 .10499573 .011245728 .08198547 .064331058 .11999512 .059326173 .14498902 .08934021 .14498902 .11734009 .14498902 .14033509 .1289978 .15234375 .10798645 .15234375 .08198547 .15234375 .051986696 .1313324 .051986696 .08633423 .051986696 .029281617 .10899353-.0107421879 .19499207-.0107421879 .35699464-.0107421879 .3959961 .1103363 .3959961 .15533448 .3959961 .19125366 .3769989 .21620178 .36499024 .22817993 .33799745 .25613404 .30899049 .26112367 .2649994 .27009584 .22898865 .27807618 .18899536 .2850647 .18899536 .33003236 .18899536 .3590393 .21299744 .42037965 .30099488 .42037965 .32598878 .42037965 .37599183 .41333009 .3909912 .37405396Z"/>
<path id="font_1_7" d="M.48599244 .38136292C.48999024 .39537049 .48999024 .39736939 .48999024 .40437318 .48999024 .42237855 .47599793 .43138124 .46099855 .43138124 .45098878 .43138124 .43499757 .42536927 .42599488 .41036988 .42399598 .405365 .41600038 .37435914 .4119873 .35635377 .40499879 .33035279 .397995 .30334474 .3919983 .27633668L.34700013 .09628296C.34298707 .08126831 .2999878 .011245728 .23399353 .011245728 .18299866 .011245728 .17199707 .055267335 .17199707 .0922699 .17199707 .1382904 .18899536 .20030213 .22299195 .28833009 .23899842 .3293457 .24299622 .3403473 .24299622 .36035157 .24299622 .405365 .21099854 .4423828 .16099549 .4423828 .06599426 .4423828 .0289917 .29733277 .0289917 .28833009 .0289917 .27833558 .038986207 .27833558 .040985109 .27833558 .050994874 .27833558 .051986696 .28033448 .056991579 .29634095 .083999637 .3903656 .12399292 .42037965 .1579895 .42037965 .1659851 .42037965 .18299866 .42037965 .18299866 .3883667 .18299866 .36335755 .17298889 .3373413 .1659851 .31834413 .12599182 .21231079 .10798645 .1552887 .10798645 .10827637 .10798645 .019256592 .17098999-.0107421879 .22999573-.0107421879 .2689972-.0107421879 .30299378 .0062561037 .33099366 .03425598 .31799317-.017745972 .30599977-.06674194 .2659912-.11973572 .23999024-.15385437 .20199585-.18309021 .1559906-.18309021 .14199829-.18309021 .09700012-.18005371 .07998657-.14074707 .09599304-.14074707 .10899353-.14074707 .12298584-.1287384 .1329956-.11973572 .14299011-.10673523 .14299011-.08773804 .14299011-.056747438 .115997318-.052734376 .10598755-.052734376 .08299255-.052734376 .049987794-.068740848 .049987794-.11773682 .049987794-.16796875 .09399414-.20507813 .1559906-.20507813 .25898744-.20507813 .3619995-.11373901 .3899994-.00074768069L.48599244 .38136292Z"/>
<path id="font_2_1" d="M.49198915 .40434266C.45498658 .39733888 .44400025 .3653412 .44400025 .3503418 .44400025 .33132936 .45799256 .31433106 .48298646 .31433106 .5109863 .31433106 .5379944 .33833314 .5379944 .3733368 .5379944 .41937257 .48799134 .4423828 .44099427 .4423828 .3809967 .4423828 .34599305 .38934327 .33399964 .3683319 .31498719 .41737367 .2709961 .4423828 .22299195 .4423828 .115997318 .4423828 .057998659 .31433106 .057998659 .28833009 .057998659 .2793274 .06498718 .2763214 .07199097 .2763214 .08099365 .2763214 .083999637 .2813263 .085998538 .287323 .116989139 .38633729 .18299866 .41737367 .22099304 .41737367 .25 .41737367 .27598573 .3983307 .27598573 .35133363 .27598573 .31533814 .23298645 .15530396 .21998596 .107284549 .21199036 .076293949 .18199158 .014251709 .1269989 .014251709 .10699463 .014251709 .085998538 .021270752 .07598877 .027282715 .102996829 .032287599 .12298584 .055282594 .12298584 .08128357 .12298584 .106292728 .10398865 .11729431 .084991458 .11729431 .055999757 .11729431 .02999878 .092285159 .02999878 .058288576 .02999878 .009246826 .083999637-.0107421879 .12599182-.0107421879 .18399048-.0107421879 .21798706 .03729248 .23298645 .06428528 .2579956-.0017547608 .31698609-.0107421879 .34399415-.0107421879 .45199586-.0107421879 .5089874 .11929321 .5089874 .14329529 .5089874 .14830017 .5059967 .15530396 .49598695 .15530396 .4850006 .15530396 .48399354 .1512909 .47898866 .1362915 .45700074 .06428528 .39898683 .014251709 .34700013 .014251709 .31799317 .014251709 .29100038 .032287599 .29100038 .08029175 .29100038 .10229492 .30499269 .15730286 .31399537 .1953125 .31799317 .21331787 .34498597 .32133485 .34700013 .32833863 .35899354 .3643341 .3889923 .41737367 .43998719 .41737367 .45799256 .41737367 .47698976 .41436769 .49198915 .40434266Z"/>
<path id="font_2_2" d="M.5019989 .38536073C.5029907 .3903656 .5049896 .39637757 .5049896 .40237428 .5049896 .41537477 .49598695 .43138124 .47399903 .43138124 .46099855 .43138124 .44299317 .42337037 .43499757 .40437318 .43399049 .40037538 .42399598 .35935975 .41799928 .33735658L.36799623 .13728333C.3600006 .10827637 .3600006 .106277469 .35798646 .09727478 .35699464 .09327698 .31498719 .014251709 .24299622 .014251709 .18099976 .014251709 .18099976 .07727051 .18099976 .09628296 .18099976 .14129639 .19400025 .19030762 .23699951 .30233766 .24499512 .3253479 .25099183 .33935548 .25099183 .35835267 .25099183 .40737916 .21398926 .4423828 .16499329 .4423828 .068984989 .4423828 .0289917 .30033876 .0289917 .28833009 .0289917 .2793274 .035995485 .27633668 .042999269 .27633668 .053985597 .27633668 .054992677 .28233338 .05899048 .29533387 .07998657 .3693695 .11999512 .41737367 .1619873 .41737367 .18598938 .41737367 .18598938 .39837647 .18598938 .3843689 .18598938 .36735536 .18199158 .34934999 .17298889 .3253479 .12599182 .2013092 .11299133 .15930176 .11299133 .11128235 .11299133 .00024414063 .20298767-.0107421879 .23999024-.0107421879 .2889862-.0107421879 .32398988 .01524353 .34199525 .0332489 .32899476-.017745972 .31799317-.0627594 .2789917-.11276245 .24899292-.15286255 .20899964-.18008423 .16499329-.18008423 .13699341-.18008423 .10398865-.16999817 .08999634-.14176941 .14299011-.14176941 .1499939-.09776306 .1499939-.087768558 .1499939-.06576538 .13398743-.051757814 .11199951-.051757814 .08799744-.051757814 .055999757-.07077026 .055999757-.116760257 .055999757-.16899109 .101989749-.20507813 .16499329-.20507813 .2669983-.20507813 .37599183-.117767337 .40499879-.00074768069L.5019989 .38536073Z"/>
<path id="font_1_1" d="M.1789856 .114868167C.13899231 .047973634 .099990848 .033981325 .055999757 .0309906 .04399109 .02999878 .034988405 .02999878 .034988405 .010986328 .034988405 .004989624 .039993287 0 .04798889 0 .07499695 0 .10598755 .0029907227 .13398743 .0029907227 .16699219 .0029907227 .20199585 0 .23399353 0 .23999024 0 .25299073 0 .25299073 .018997193 .25299073 .02999878 .24398804 .0309906 .23699951 .0309906 .21398926 .032989503 .18998719 .04096985 .18998719 .06593323 .18998719 .077926639 .19599915 .088897708 .20399475 .102890018L.27999879 .23068238H.5309906C.5329895 .2097168 .5469971 .07392883 .5469971 .063949588 .5469971 .033981325 .49499513 .0309906 .47499085 .0309906 .46099855 .0309906 .45098878 .0309906 .45098878 .010986328 .45098878 0 .46299745 0 .46499635 0 .5059967 0 .548996 .0029907227 .58999636 .0029907227 .61499026 .0029907227 .6779938 0 .7029877 0 .70899966 0 .72099307 0 .72099307 .019989014 .72099307 .0309906 .71099856 .0309906 .69799807 .0309906 .6359863 .0309906 .6359863 .037979127 .6329956 .06694031L.57199099 .691803C.56999209 .71180728 .56999209 .7158203 .5529938 .7158203 .5369873 .7158203 .5329895 .7088165 .5269928 .69880679L.1789856 .114868167M.29899598 .26168824 .49598695 .5917816 .5279999 .26168824H.29899598Z"/>
<path id="font_1_2" d="M.1599884 .07795715C.1499939 .038986207 .147995 .0309906 .068984989 .0309906 .051986696 .0309906 .041992189 .0309906 .041992189 .010986328 .041992189 0 .050994874 0 .068984989 0H.42599488C.58399966 0 .70199587 .11791992 .70199587 .21585083 .70199587 .28778077 .6439972 .3457489 .5469971 .35673524 .651001 .37573243 .7559967 .44970704 .7559967 .5446625 .7559967 .6186218 .6899872 .6826172 .56999209 .6826172H.23399353C.21499634 .6826172 .20498657 .6826172 .20498657 .6626129 .20498657 .6516113 .21398926 .6516113 .23298645 .6516113 .23498535 .6516113 .2539978 .6516113 .2709961 .6496124 .2889862 .6476135 .2979889 .64660647 .2979889 .6336212 .2979889 .6296234 .29699708 .62661746 .2939911 .614624L.1599884 .07795715M.31098939 .36573792 .37298585 .6136322C.38198854 .64860537 .38398744 .6516113 .4269867 .6516113H.55599978C.6439972 .6516113 .6649933 .5926361 .6649933 .5486603 .6649933 .46069337 .57899478 .36573792 .45700074 .36573792H.31098939M.2659912 .0309906C.2519989 .0309906 .25 .0309906 .24398804 .03199768 .23399353 .032989503 .23098755 .033996583 .23098755 .04197693 .23098755 .04498291 .23098755 .04698181 .23599243 .064971927L.30499269 .34375H.49398805C.58999636 .34375 .60899356 .2698059 .60899356 .22683716 .60899356 .12791443 .519989 .0309906 .4019928 .0309906H.2659912Z"/>
</defs>
<path transform="matrix(1.00006,0,0,-1,30.643692,172.077)" stroke-width=".19925" stroke-linecap="butt" stroke-miterlimit="10" stroke-linejoin="miter" fill="none" stroke="#d9d9d9" d="M-28.3468-25.51364H170.08086M-28.3468-22.67879H170.08086M-28.3468-19.84393H170.08086M-28.3468-17.0091H170.08086M-28.3468-14.17424H170.08086M-28.3468-11.33939H170.08086M-28.3468-8.50455H170.08086M-28.3468-5.6697H170.08086M-28.3468-2.83484H170.08086M-28.3468 0H170.08086M-28.3468 2.83484H170.08086M-28.3468 5.6697H170.08086M-28.3468 8.50455H170.08086M-28.3468 11.33939H170.08086M-28.3468 14.17424H170.08086M-28.3468 17.0091H170.08086M-28.3468 19.84393H170.08086M-28.3468 22.67879H170.08086M-28.3468 25.51364H170.08086M-28.3468 28.3485H170.08086M-28.3468 31.18333H170.08086M-28.3468 34.01819H170.08086M-28.3468 36.85304H170.08086M-28.3468 39.68788H170.08086M-28.3468 42.52274H170.08086M-28.3468 45.35759H170.08086M-28.3468 48.19244H170.08086M-28.3468 51.02728H170.08086M-28.3468 53.86214H170.08086M-28.3468 56.69699H170.08086M-28.3468 59.53183H170.08086M-28.3468 62.36668H170.08086M-28.3468 65.20154H170.08086M-28.3468 68.03639H170.08086M-28.3468 70.87123H170.08086M-28.3468 73.70609H170.08086M-28.3468 76.54094H170.08086M-28.3468 79.37578H170.08086M-28.3468 82.21063H170.08086M-28.3468 85.04549H170.08086M-28.3468 87.88034H170.08086M-28.3468 90.71518H170.08086M-28.3468 93.55003H170.08086M-28.3468 96.38489H170.08086M-28.3468 99.21973H170.08086M-28.3468 102.05458H170.08086M-28.3468 104.88943H170.08086M-28.3468 107.72429H170.08086M-28.3468 110.55913H170.08086M-28.3468 113.39398H170.08086M-28.3468 116.22884H170.08086M-28.3468 119.06367H170.08086M-28.3468 121.89853H170.08086M-28.3468 124.73338H170.08086M-28.3468 127.56824H170.08086M-28.3468 130.40308H170.08086M-28.3468 133.23793H170.08086M-28.3468 136.07279H170.08086M-28.3468 138.90763H170.08086M-28.3468 141.74248H170.08086M-28.3468 144.57733H170.08086M-28.3468 147.41219H170.08086M-28.3468 150.24703H170.08086M-28.3468 153.08188H170.08086M-28.3468 155.91674H170.08086M-28.3468 158.75157H170.08086M-28.3468 161.58643H170.08086M-28.3468 164.42128H170.08086M-28.3468 167.25612H170.08086M-25.51364-28.3468V170.08086M-22.67879-28.3468V170.08086M-19.84393-28.3468V170.08086M-17.0091-28.3468V170.08086M-14.17424-28.3468V170.08086M-11.33939-28.3468V170.08086M-8.50455-28.3468V170.08086M-5.6697-28.3468V170.08086M-2.83484-28.3468V170.08086M0-28.3468V170.08086M2.83484-28.3468V170.08086M5.6697-28.3468V170.08086M8.50455-28.3468V170.08086M11.33939-28.3468V170.08086M14.17424-28.3468V170.08086M17.0091-28.3468V170.08086M19.84393-28.3468V170.08086M22.67879-28.3468V170.08086M25.51364-28.3468V170.08086M28.3485-28.3468V170.08086M31.18333-28.3468V170.08086M34.01819-28.3468V170.08086M36.85304-28.3468V170.08086M39.68788-28.3468V170.08086M42.52274-28.3468V170.08086M45.35759-28.3468V170.08086M48.19244-28.3468V170.08086M51.02728-28.3468V170.08086M53.86214-28.3468V170.08086M56.69699-28.3468V170.08086M59.53183-28.3468V170.08086M62.36668-28.3468V170.08086M65.20154-28.3468V170.08086M68.03639-28.3468V170.08086M70.87123-28.3468V170.08086M73.70609-28.3468V170.08086M76.54094-28.3468V170.08086M79.37578-28.3468V170.08086M82.21063-28.3468V170.08086M85.04549-28.3468V170.08086M87.88034-28.3468V170.08086M90.71518-28.3468V170.08086M93.55003-28.3468V170.08086M96.38489-28.3468V170.08086M99.21973-28.3468V170.08086M102.05458-28.3468V170.08086M104.88943-28.3468V170.08086M107.72429-28.3468V170.08086M110.55913-28.3468V170.08086M113.39398-28.3468V170.08086M116.22884-28.3468V170.08086M119.06367-28.3468V170.08086M121.89853-28.3468V170.08086M124.73338-28.3468V170.08086M127.56824-28.3468V170.08086M130.40308-28.3468V170.08086M133.23793-28.3468V170.08086M136.07279-28.3468V170.08086M138.90763-28.3468V170.08086M141.74248-28.3468V170.08086M144.57733-28.3468V170.08086M147.41219-28.3468V170.08086M150.24703-28.3468V170.08086M153.08188-28.3468V170.08086M155.91674-28.3468V170.08086M158.75157-28.3468V170.08086M161.58643-28.3468V170.08086M164.42128-28.3468V170.08086M167.25612-28.3468V170.08086M170.08086 170.08086"/>
<path transform="matrix(1.00006,0,0,-1,30.643692,172.077)" stroke-width=".79701" stroke-linecap="butt" stroke-miterlimit="10" stroke-linejoin="miter" fill="none" stroke="#999999" d="M-28.3468-28.3468H170.08086M-28.3468 0H170.08086M-28.3468 28.3468H170.08086M-28.3468 56.69362H170.08086M-28.3468 85.04042H170.08086M-28.3468 113.38724H170.08086M-28.3468 141.73404H170.08086M-28.3468 170.07089H170.08086M-28.3468-28.3468V170.08086M0-28.3468V170.08086M28.3468-28.3468V170.08086M56.69362-28.3468V170.08086M85.04042-28.3468V170.08086M113.38724-28.3468V170.08086M141.73404-28.3468V170.08086M170.07089-28.3468V170.08086M170.08086 170.08086"/>
<path transform="matrix(1.00006,0,0,-1,30.643692,172.077)" stroke-width=".3985" stroke-linecap="butt" stroke-miterlimit="10" stroke-linejoin="miter" fill="none" stroke="#000000" d="M-28.3468 0H141.33554"/>
<path transform="matrix(1.00006,0,0,-1,172.18697,172.077)" stroke-width=".3985" stroke-linecap="round" stroke-linejoin="round" fill="none" stroke="#000000" d="M-2.07224 2.39104C-1.69365 .95639-.84999 .27895 0 0-.84999-.27895-1.69365-.95639-2.07224-2.39104"/>
<use data-text="x" xlink:href="#font_1_6" transform="matrix(9.963197,0,0,-9.9626,175.9064,175.362)"/>
<use data-text="a" xlink:href="#font_1_3" transform="matrix(9.963197,0,0,-9.9626,183.24929,175.362)"/>
<use data-text="x" xlink:href="#font_1_6" transform="matrix(9.963197,0,0,-9.9626,188.50986,175.362)"/>
<use data-text="i" xlink:href="#font_1_4" transform="matrix(9.963197,0,0,-9.9626,194.19886,175.362)"/>
<use data-text="s" xlink:href="#font_1_5" transform="matrix(9.963197,0,0,-9.9626,197.62619,175.362)"/>
<path transform="matrix(1.00006,0,0,-1,30.643692,172.077)" stroke-width=".3985" stroke-linecap="butt" stroke-miterlimit="10" stroke-linejoin="miter" fill="none" stroke="#000000" d="M0-28.3468V141.33554"/>
<path transform="matrix(0,-1,-1.00006,-0,30.643692,30.542206)" stroke-width=".3985" stroke-linecap="round" stroke-linejoin="round" fill="none" stroke="#000000" d="M-2.07224 2.39104C-1.69365 .95639-.84999 .27895 0 0-.84999-.27895-1.69365-.95639-2.07224-2.39104"/>
<use data-text="y" xlink:href="#font_1_7" transform="matrix(9.963197,0,0,-9.9626,17.660912,24.886002)"/>
<use data-text="a" xlink:href="#font_1_3" transform="matrix(9.963197,0,0,-9.9626,24.55545,24.886002)"/>
<use data-text="x" xlink:href="#font_1_6" transform="matrix(9.963197,0,0,-9.9626,29.816018,24.886002)"/>
<use data-text="i" xlink:href="#font_1_4" transform="matrix(9.963197,0,0,-9.9626,35.505006,24.886002)"/>
<use data-text="s" xlink:href="#font_1_5" transform="matrix(9.963197,0,0,-9.9626,38.932344,24.886002)"/>
<path transform="matrix(1.00006,0,0,-1,30.643692,172.077)" stroke-width="1.19553" stroke-linecap="butt" stroke-miterlimit="10" stroke-linejoin="miter" fill="none" stroke="#000000" d="M28.3468 28.3468 113.38724 141.73404"/>
<path transform="matrix(1.00006,0,0,-1,30.643692,172.077)" stroke-width=".3985" stroke-linecap="butt" stroke-dasharray="2.98883,2.98883" stroke-miterlimit="10" stroke-linejoin="miter" fill="none" stroke="#000000" d="M28.3468 28.3468H113.38724"/>
<use data-text="x" xlink:href="#font_2_1" transform="matrix(8.966938,0,0,-8.9664,98.90278,151.111)"/>
<path transform="matrix(1.00006,0,0,-1,30.643692,172.077)" stroke-width=".3985" stroke-linecap="butt" stroke-dasharray="2.98883,2.98883" stroke-miterlimit="10" stroke-linejoin="miter" fill="none" stroke="#000000" d="M113.38724 28.3468V141.73404"/>
<use data-text="y" xlink:href="#font_2_2" transform="matrix(8.966938,0,0,-8.9664,147.55771,88.09499)"/>
<path transform="matrix(1.00006,0,0,-1,30.643692,172.077)" stroke-width=".3985" stroke-linecap="butt" stroke-miterlimit="10" stroke-linejoin="miter" fill="none" stroke="#000000" d="M28.3468 28.3468 73.75226 88.88727"/>
<path transform="matrix(.600026,-.79997,-.80001798,-.59999,104.400379,83.18973)" d="M8.54343 0C7.49426 .25244 2.88243 1.68295 0 3.23967V-3.23967C2.88243-1.68295 7.49426-.25244 8.54343 0Z"/>
<path transform="matrix(.600026,-.79997,-.80001798,-.59999,104.400379,83.18973)" stroke-width=".3985" stroke-linecap="butt" stroke-miterlimit="10" stroke-linejoin="miter" fill="none" stroke="#000000" d="M8.54343 0C7.49426 .25244 2.88243 1.68295 0 3.23967V-3.23967C2.88243-1.68295 7.49426-.25244 8.54343 0Z"/>
<path transform="matrix(1.00006,0,0,-1,30.643692,172.077)" stroke-width=".3985" stroke-linecap="butt" stroke-miterlimit="10" stroke-linejoin="miter" fill="none" stroke="#000000" d="M113.38724 28.3468H107.71796V34.01608H113.38724V28.3468"/>
<use data-text="A" xlink:href="#font_1_1" transform="matrix(9.963197,0,0,-9.9626,47.999734,147.134)"/>
<use data-text="B" xlink:href="#font_1_2" transform="matrix(9.963197,0,0,-9.9626,140.00925,26.822999)"/>
</svg>
