<svg xmlns="http://www.w3.org/2000/svg" xmlns:xlink="http://www.w3.org/1999/xlink" xmlns:inkscape="http://www.inkscape.org/namespaces/inkscape" version="1.1" width="457" height="315" viewBox="0 0 457 315">
<defs>
<path id="font_1_3" d="M.82199099 .33924867C.82199099 .5482483 .68099978 .6982422 .44400025 .6982422 .20599365 .6982422 .06599426 .5472412 .06599426 .33924867 .06599426 .13726807 .20498657-.01171875 .44400025-.01171875 .68299868-.01171875 .82199099 .13626099 .82199099 .33924867M.44400025 .03427124C.38198854 .03427124 .31098939 .061279298 .2679901 .13226319 .22698975 .2002716 .22299195 .28825379 .22299195 .35424806 .22299195 .44325257 .23199463 .5182495 .2809906 .5822449 .30699159 .6152344 .3639984 .65522769 .44400025 .65522769 .5099945 .65522769 .57299807 .62823489 .6119995 .5752411 .6609955 .5102539 .6649933 .42425538 .6649933 .35424806 .6649933 .2652588 .6559906 .20126343 .625 .14027405 .58799746 .0712738 .5169983 .03427124 .44400025 .03427124Z"/>
<path id="font_1_4" d="M.29499818 .2987671H.47898866C.621994 .2987671 .7409973 .37174989 .7409973 .48965455 .7409973 .5995636 .6399994 .6855469 .46899415 .6855469H.041992189V.63653567H.1499939V.04899597H.041992189V0C.07699585 .0029907227 .18099976 .0029907227 .22200012 .0029907227 .2630005 .0029907227 .36799623 .0029907227 .40299989 0V.04899597H.29499818V.2987671M.43099977 .63653567C.58399966 .63653567 .58399966 .56059268 .58399966 .48965455 .58399966 .41970826 .58399966 .34277345 .42999269 .34277345H.2889862V.63653567H.43099977Z"/>
<path id="font_2_1" d="M.34098817-.23803711C.34098817-.23303223 .33799745-.23002625 .33198548-.22303772 .20298767-.105026248 .1639862 .07498169 .1639862 .24996948 .1639862 .40498353 .19400025 .59298709 .33499146 .72698977 .33898927 .73098757 .34098817 .73399356 .34098817 .7389984 .34098817 .74598696 .33599855 .75 .32899476 .75 .31698609 .75 .22698975 .6779785 .17298889 .568985 .125 .47297669 .100997928 .36997987 .100997928 .25097657 .100997928 .17897034 .10998535 .064971927 .16499329-.053024293 .22399903-.17602539 .31698609-.24902344 .32899476-.24902344 .33599855-.24902344 .34098817-.24502564 .34098817-.23803711Z"/>
<path id="font_3_2" d="M.49198915 .40434266C.45498658 .39733888 .44400025 .3653412 .44400025 .3503418 .44400025 .33132936 .45799256 .31433106 .48298646 .31433106 .5109863 .31433106 .5379944 .33833314 .5379944 .3733368 .5379944 .41937257 .48799134 .4423828 .44099427 .4423828 .3809967 .4423828 .34599305 .38934327 .33399964 .3683319 .31498719 .41737367 .2709961 .4423828 .22299195 .4423828 .115997318 .4423828 .057998659 .31433106 .057998659 .28833009 .057998659 .2793274 .06498718 .2763214 .07199097 .2763214 .08099365 .2763214 .083999637 .2813263 .085998538 .287323 .116989139 .38633729 .18299866 .41737367 .22099304 .41737367 .25 .41737367 .27598573 .3983307 .27598573 .35133363 .27598573 .31533814 .23298645 .15530396 .21998596 .107284549 .21199036 .076293949 .18199158 .014251709 .1269989 .014251709 .10699463 .014251709 .085998538 .021270752 .07598877 .027282715 .102996829 .032287599 .12298584 .055282594 .12298584 .08128357 .12298584 .106292728 .10398865 .11729431 .084991458 .11729431 .055999757 .11729431 .02999878 .092285159 .02999878 .058288576 .02999878 .009246826 .083999637-.0107421879 .12599182-.0107421879 .18399048-.0107421879 .21798706 .03729248 .23298645 .06428528 .2579956-.0017547608 .31698609-.0107421879 .34399415-.0107421879 .45199586-.0107421879 .5089874 .11929321 .5089874 .14329529 .5089874 .14830017 .5059967 .15530396 .49598695 .15530396 .4850006 .15530396 .48399354 .1512909 .47898866 .1362915 .45700074 .06428528 .39898683 .014251709 .34700013 .014251709 .31799317 .014251709 .29100038 .032287599 .29100038 .08029175 .29100038 .10229492 .30499269 .15730286 .31399537 .1953125 .31799317 .21331787 .34498597 .32133485 .34700013 .32833863 .35899354 .3643341 .3889923 .41737367 .43998719 .41737367 .45799256 .41737367 .47698976 .41436769 .49198915 .40434266Z"/>
<path id="font_4_1" d="M.35899354 .6349335C.35899354 .66503909 .35499574 .66503909 .32499696 .66503909 .25898744 .60058596 .15699768 .60058596 .12098694 .60058596V.5615845C.14698792 .5615845 .21299744 .5615845 .272995 .58958438V.08496094C.272995 .051986696 .272995 .038986207 .16999817 .038986207H.1269989V0C.18199158 .0039978029 .2599945 .0039978029 .31599427 .0039978029 .37199403 .0039978029 .44999696 .0039978029 .5049896 0V.038986207H.46199037C.35899354 .038986207 .35899354 .051986696 .35899354 .08496094V.6349335Z"/>
<path id="font_3_1" d="M.18199158 .015991211C.18199158-.017044068 .18199158-.09921265 .10798645-.17036438 .101989749-.17636109 .101989749-.17736817 .101989749-.18136597 .101989749-.18836975 .10899353-.19335938 .114990238-.19335938 .12599182-.19335938 .20698548-.115249637 .20698548 .0019989014 .20698548 .06399536 .18499756 .10798645 .14199829 .10798645 .10798645 .10798645 .08799744 .08198547 .08799744 .053985597 .08799744 .025985718 .10798645 0 .14199829 0 .15699768 0 .17199707 .004989624 .18199158 .015991211Z"/>
<path id="font_3_3" d="M.5019989 .38536073C.5029907 .3903656 .5049896 .39637757 .5049896 .40237428 .5049896 .41537477 .49598695 .43138124 .47399903 .43138124 .46099855 .43138124 .44299317 .42337037 .43499757 .40437318 .43399049 .40037538 .42399598 .35935975 .41799928 .33735658L.36799623 .13728333C.3600006 .10827637 .3600006 .106277469 .35798646 .09727478 .35699464 .09327698 .31498719 .014251709 .24299622 .014251709 .18099976 .014251709 .18099976 .07727051 .18099976 .09628296 .18099976 .14129639 .19400025 .19030762 .23699951 .30233766 .24499512 .3253479 .25099183 .33935548 .25099183 .35835267 .25099183 .40737916 .21398926 .4423828 .16499329 .4423828 .068984989 .4423828 .0289917 .30033876 .0289917 .28833009 .0289917 .2793274 .035995485 .27633668 .042999269 .27633668 .053985597 .27633668 .054992677 .28233338 .05899048 .29533387 .07998657 .3693695 .11999512 .41737367 .1619873 .41737367 .18598938 .41737367 .18598938 .39837647 .18598938 .3843689 .18598938 .36735536 .18199158 .34934999 .17298889 .3253479 .12599182 .2013092 .11299133 .15930176 .11299133 .11128235 .11299133 .00024414063 .20298767-.0107421879 .23999024-.0107421879 .2889862-.0107421879 .32398988 .01524353 .34199525 .0332489 .32899476-.017745972 .31799317-.0627594 .2789917-.11276245 .24899292-.15286255 .20899964-.18008423 .16499329-.18008423 .13699341-.18008423 .10398865-.16999817 .08999634-.14176941 .14299011-.14176941 .1499939-.09776306 .1499939-.087768558 .1499939-.06576538 .13398743-.051757814 .11199951-.051757814 .08799744-.051757814 .055999757-.07077026 .055999757-.116760257 .055999757-.16899109 .101989749-.20507813 .16499329-.20507813 .2669983-.20507813 .37599183-.117767337 .40499879-.00074768069L.5019989 .38536073Z"/>
<path id="font_2_2" d="M.2979889 .25097657C.2979889 .3329773 .28599549 .4429779 .23399353 .5539856 .1749878 .6769867 .08198547 .75 .069992069 .75 .05999756 .75 .057998659 .74198916 .057998659 .7389984 .057998659 .73399356 .05999756 .73098757 .066986087 .72398379 .125 .6719818 .23498535 .5359802 .23498535 .25097657 .23498535 .10797119 .20899964-.091033939 .06399536-.22602844 .06199646-.22903443 .057998659-.23303223 .057998659-.23803711 .057998659-.24102783 .05999756-.24902344 .069992069-.24902344 .08198547-.24902344 .17199707-.17703247 .22599793-.06802368 .27398683 .02796936 .2979889 .13098145 .2979889 .25097657Z"/>
<path id="font_1_2" d="M.30699159 .6725464C.29599 .6855469 .2939911 .6855469 .272995 .6855469H.041992189V.63653567H.1499939V.07797241C.1499939 .055984498 .14898682 .054992677 .12098694 .051986696 .09700012 .04899597 .09498596 .04899597 .067993167 .04899597H.041992189V0C.10699463 .0029907227 .1349945 .0029907227 .17799378 .0029907227 .22200012 .0029907227 .24899292 .0029907227 .31498719 0V.04899597H.2889862C.2619934 .04899597 .2599945 .04899597 .23599243 .051986696 .20799256 .054992677 .20698548 .055984498 .20698548 .07797241V.5925751L.71499636 .0129852299C.7259979 0 .7299957 0 .74398806 0 .772995 0 .772995 .010986328 .772995 .032989503V.6075592C.772995 .6295471 .7739868 .63053897 .8019867 .6335449 .82598879 .63653567 .8279877 .63653567 .8549957 .63653567H.8809967V.6855469C.81599429 .6825409 .7879944 .6825409 .7449951 .6825409 .70098879 .6825409 .673996 .6825409 .60798647 .6855469V.63653567H.6339874C.6609955 .63653567 .6629944 .63653567 .68699648 .6335449 .71499636 .63053897 .71598818 .6295471 .71598818 .6075592V.20587158L.30699159 .6725464Z"/>
<path id="font_4_2" d="M.5379944 .18702698H.5009918C.49899293 .17301941 .4889984 .10699463 .47399903 .09599304 .46699525 .08999634 .38598634 .08999634 .37199403 .08999634H.18499756L.31298829 .19403076C.34700013 .22103882 .43598939 .28504945 .46699525 .31506349 .49699403 .3450775 .5379944 .39608766 .5379944 .46710206 .5379944 .5920563 .4249878 .66503909 .29100038 .66503909 .1619873 .66503909 .07199097 .58006289 .07199097 .48609925 .07199097 .43510438 .114990238 .42910768 .12599182 .42910768 .15098572 .42910768 .17999268 .44709779 .17999268 .48310853 .17999268 .50509646 .16699219 .5371094 .12298584 .5371094 .1459961 .5880585 .20698548 .6260376 .27598573 .6260376 .3809967 .6260376 .43699647 .5480957 .43699647 .46710206 .43699647 .39608766 .3899994 .32305909 .31999208 .25904847L.08299255 .041992189C.07299805 .03199768 .07199097 .0309906 .07199097 0H.5069885L.5379944 .18702698Z"/>
<path id="font_1_1" d="M.5609894 .13093567 .31599427 .6595459C.3039856 .6855469 .2899933 .6855469 .2689972 .6855469H.04499817V.63653567H.15299988V.07797241C.15299988 .055984498 .1519928 .054992677 .12399292 .051986696 .099990848 .04899597 .09799194 .04899597 .070999149 .04899597H.04499817V0C.10998535 .0029907227 .13798523 .0029907227 .18099976 .0029907227 .22499085 .0029907227 .2519989 .0029907227 .31799317 0V.04899597H.2919922C.2649994 .04899597 .2630005 .04899597 .23899842 .051986696 .21099854 .054992677 .20999146 .055984498 .20999146 .07797241V.62254336H.21099854L.48799134 .025985718C.49198915 .016998291 .5 0 .5219879 0 .54499819 0 .5519867 .015991211 .5569916 .025985718L.83999636 .6355438H.84098818V.04899597H.73298647V0C.7679901 .0029907227 .8639984 .0029907227 .9039917 .0029907227 .94400027 .0029907227 1.0410004 .0029907227 1.0759888 0V.04899597H.96798709V.63653567H1.0759888V.6855469H.8529968C.83200076 .6855469 .81900027 .6855469 .8069916 .6605377L.5609894 .13093567Z"/>
<path id="font_5_1" d="M.45999146 .29933167C.45999146 .39115907 .3869934 .453125 .24598694 .453125 .18998719 .453125 .07199097 .44812013 .07199097 .36421205 .07199097 .32228089 .10398865 .3043213 .1309967 .3043213 .16099549 .3043213 .18998719 .32528688 .18998719 .3632202 .18998719 .3821869 .18299866 .40014649 .1659851 .4111328 .19898987 .42012025 .22299195 .42012025 .24198914 .42012025 .30999757 .42012025 .35099793 .3821869 .35099793 .3003235V.26039125C.19299317 .26039125 .033996583 .21636963 .033996583 .10522461 .033996583 .014129639 .1499939-.005859375 .21899414-.005859375 .29599-.005859375 .34498597 .03614807 .36499024 .080200199 .36499024 .043151857 .36499024 .0001373291 .46598817 .0001373291H.5169983C.5379944 .0001373291 .54599 .0001373291 .54599 .022140503 .54599 .043151857 .5369873 .043151857 .522995 .043151857 .45999146 .044158937 .45999146 .060180665 .45999146 .08320618V.29933167M.35099793 .13926697C.35099793 .045150758 .2669983 .027130127 .23498535 .027130127 .18598938 .027130127 .14498902 .060180665 .14498902 .10623169 .14498902 .19734192 .25299073 .2283783 .35099793 .23339844V.13926697Z"/>
<path id="font_5_2" d="M.20799256 .69433596 .034988405 .6863251V.6433258C.09700012 .6433258 .10398865 .6433258 .10398865 .6042938V.0001373291H.1459961C.16299439 .019134522 .17999268 .038131715 .19599915 .058135988 .24699402 .005126953 .3019867-.005859375 .34199525-.005859375 .47999574-.005859375 .58599856 .07814026 .58599856 .22315979 .58599856 .36018373 .49198915 .4501953 .35499574 .4501953 .29599 .4501953 .24899292 .43118287 .20799256 .39918519V.69433596M.21299744 .35118104C.24798584 .39918519 .2999878 .41719056 .34199525 .41719056 .46598817 .41719056 .46598817 .2901764 .46598817 .22416687 .46598817 .17915344 .46598817 .12214661 .44198609 .08514404 .41099549 .037139894 .3639984 .027130127 .33198548 .027130127 .2639923 .027130127 .22698975 .07513428 .21299744 .09713745V.35118104Z"/>
</defs>
<path transform="matrix(1,0,0,-1.00002,200.521,228.57427)" stroke-width=".19925" stroke-linecap="butt" stroke-miterlimit="10" stroke-linejoin="miter" fill="none" stroke="#d9d9d9" d="M-198.42766-82.21063H255.12128M-198.42766-79.37578H255.12128M-198.42766-76.54094H255.12128M-198.42766-73.70609H255.12128M-198.42766-70.87123H255.12128M-198.42766-68.03639H255.12128M-198.42766-65.20154H255.12128M-198.42766-62.36668H255.12128M-198.42766-59.53183H255.12128M-198.42766-56.69699H255.12128M-198.42766-53.86214H255.12128M-198.42766-51.02728H255.12128M-198.42766-48.19244H255.12128M-198.42766-45.35759H255.12128M-198.42766-42.52274H255.12128M-198.42766-39.68788H255.12128M-198.42766-36.85304H255.12128M-198.42766-34.01819H255.12128M-198.42766-31.18333H255.12128M-198.42766-28.3485H255.12128M-198.42766-25.51364H255.12128M-198.42766-22.67879H255.12128M-198.42766-19.84393H255.12128M-198.42766-17.0091H255.12128M-198.42766-14.17424H255.12128M-198.42766-11.33939H255.12128M-198.42766-8.50455H255.12128M-198.42766-5.6697H255.12128M-198.42766-2.83484H255.12128M-198.42766 0H255.12128M-198.42766 2.83484H255.12128M-198.42766 5.6697H255.12128M-198.42766 8.50455H255.12128M-198.42766 11.33939H255.12128M-198.42766 14.17424H255.12128M-198.42766 17.0091H255.12128M-198.42766 19.84393H255.12128M-198.42766 22.67879H255.12128M-198.42766 25.51364H255.12128M-198.42766 28.3485H255.12128M-198.42766 31.18333H255.12128M-198.42766 34.01819H255.12128M-198.42766 36.85304H255.12128M-198.42766 39.68788H255.12128M-198.42766 42.52274H255.12128M-198.42766 45.35759H255.12128M-198.42766 48.19244H255.12128M-198.42766 51.02728H255.12128M-198.42766 53.86214H255.12128M-198.42766 56.69699H255.12128M-198.42766 59.53183H255.12128M-198.42766 62.36668H255.12128M-198.42766 65.20154H255.12128M-198.42766 68.03639H255.12128M-198.42766 70.87123H255.12128M-198.42766 73.70609H255.12128M-198.42766 76.54094H255.12128M-198.42766 79.37578H255.12128M-198.42766 82.21063H255.12128M-198.42766 85.04549H255.12128M-198.42766 87.88034H255.12128M-198.42766 90.71518H255.12128M-198.42766 93.55003H255.12128M-198.42766 96.38489H255.12128M-198.42766 99.21973H255.12128M-198.42766 102.05458H255.12128M-198.42766 104.88943H255.12128M-198.42766 107.72429H255.12128M-198.42766 110.55913H255.12128M-198.42766 113.39398H255.12128M-198.42766 116.22884H255.12128M-198.42766 119.06367H255.12128M-198.42766 121.89853H255.12128M-198.42766 124.73338H255.12128M-198.42766 127.56824H255.12128M-198.42766 130.40308H255.12128M-198.42766 133.23793H255.12128M-198.42766 136.07279H255.12128M-198.42766 138.90763H255.12128M-198.42766 141.74248H255.12128M-198.42766 144.57733H255.12128M-198.42766 147.41219H255.12128M-198.42766 150.24703H255.12128M-198.42766 153.08188H255.12128M-198.42766 155.91674H255.12128M-198.42766 158.75157H255.12128M-198.42766 161.58643H255.12128M-198.42766 164.42128H255.12128M-198.42766 167.25612H255.12128M-198.42766 170.09098H255.12128M-198.42766 172.92583H255.12128M-198.42766 175.76068H255.12128M-198.42766 178.59552H255.12128M-198.42766 181.43038H255.12128M-198.42766 184.26523H255.12128M-198.42766 187.10007H255.12128M-198.42766 189.93492H255.12128M-198.42766 192.76978H255.12128M-198.42766 195.60463H255.12128M-198.42766 198.43947H255.12128M-198.42766 201.27433H255.12128M-198.42766 204.10918H255.12128M-198.42766 206.94402H255.12128M-198.42766 209.77887H255.12128M-198.42766 212.61373H255.12128M-198.42766 215.44858H255.12128M-198.42766 218.28342H255.12128M-198.42766 221.11827H255.12128M-198.42766 223.95313H255.12128M-195.60463-85.04042V226.77448M-192.76978-85.04042V226.77448M-189.93492-85.04042V226.77448M-187.10007-85.04042V226.77448M-184.26523-85.04042V226.77448M-181.43038-85.04042V226.77448M-178.59552-85.04042V226.77448M-175.76068-85.04042V226.77448M-172.92583-85.04042V226.77448M-170.09098-85.04042V226.77448M-167.25612-85.04042V226.77448M-164.42128-85.04042V226.77448M-161.58643-85.04042V226.77448M-158.75157-85.04042V226.77448M-155.91674-85.04042V226.77448M-153.08188-85.04042V226.77448M-150.24703-85.04042V226.77448M-147.41219-85.04042V226.77448M-144.57733-85.04042V226.77448M-141.74248-85.04042V226.77448M-138.90763-85.04042V226.77448M-136.07279-85.04042V226.77448M-133.23793-85.04042V226.77448M-130.40308-85.04042V226.77448M-127.56824-85.04042V226.77448M-124.73338-85.04042V226.77448M-121.89853-85.04042V226.77448M-119.06367-85.04042V226.77448M-116.22884-85.04042V226.77448M-113.39398-85.04042V226.77448M-110.55913-85.04042V226.77448M-107.72429-85.04042V226.77448M-104.88943-85.04042V226.77448M-102.05458-85.04042V226.77448M-99.21973-85.04042V226.77448M-96.38489-85.04042V226.77448M-93.55003-85.04042V226.77448M-90.71518-85.04042V226.77448M-87.88034-85.04042V226.77448M-85.04549-85.04042V226.77448M-82.21063-85.04042V226.77448M-79.37578-85.04042V226.77448M-76.54094-85.04042V226.77448M-73.70609-85.04042V226.77448M-70.87123-85.04042V226.77448M-68.03639-85.04042V226.77448M-65.20154-85.04042V226.77448M-62.36668-85.04042V226.77448M-59.53183-85.04042V226.77448M-56.69699-85.04042V226.77448M-53.86214-85.04042V226.77448M-51.02728-85.04042V226.77448M-48.19244-85.04042V226.77448M-45.35759-85.04042V226.77448M-42.52274-85.04042V226.77448M-39.68788-85.04042V226.77448M-36.85304-85.04042V226.77448M-34.01819-85.04042V226.77448M-31.18333-85.04042V226.77448M-28.3485-85.04042V226.77448M-25.51364-85.04042V226.77448M-22.67879-85.04042V226.77448M-19.84393-85.04042V226.77448M-17.0091-85.04042V226.77448M-14.17424-85.04042V226.77448M-11.33939-85.04042V226.77448M-8.50455-85.04042V226.77448M-5.6697-85.04042V226.77448M-2.83484-85.04042V226.77448M0-85.04042V226.77448M2.83484-85.04042V226.77448M5.6697-85.04042V226.77448M8.50455-85.04042V226.77448M11.33939-85.04042V226.77448M14.17424-85.04042V226.77448M17.0091-85.04042V226.77448M19.84393-85.04042V226.77448M22.67879-85.04042V226.77448M25.51364-85.04042V226.77448M28.3485-85.04042V226.77448M31.18333-85.04042V226.77448M34.01819-85.04042V226.77448M36.85304-85.04042V226.77448M39.68788-85.04042V226.77448M42.52274-85.04042V226.77448M45.35759-85.04042V226.77448M48.19244-85.04042V226.77448M51.02728-85.04042V226.77448M53.86214-85.04042V226.77448M56.69699-85.04042V226.77448M59.53183-85.04042V226.77448M62.36668-85.04042V226.77448M65.20154-85.04042V226.77448M68.03639-85.04042V226.77448M70.87123-85.04042V226.77448M73.70609-85.04042V226.77448M76.54094-85.04042V226.77448M79.37578-85.04042V226.77448M82.21063-85.04042V226.77448M85.04549-85.04042V226.77448M87.88034-85.04042V226.77448M90.71518-85.04042V226.77448M93.55003-85.04042V226.77448M96.38489-85.04042V226.77448M99.21973-85.04042V226.77448M102.05458-85.04042V226.77448M104.88943-85.04042V226.77448M107.72429-85.04042V226.77448M110.55913-85.04042V226.77448M113.39398-85.04042V226.77448M116.22884-85.04042V226.77448M119.06367-85.04042V226.77448M121.89853-85.04042V226.77448M124.73338-85.04042V226.77448M127.56824-85.04042V226.77448M130.40308-85.04042V226.77448M133.23793-85.04042V226.77448M136.07279-85.04042V226.77448M138.90763-85.04042V226.77448M141.74248-85.04042V226.77448M144.57733-85.04042V226.77448M147.41219-85.04042V226.77448M150.24703-85.04042V226.77448M153.08188-85.04042V226.77448M155.91674-85.04042V226.77448M158.75157-85.04042V226.77448M161.58643-85.04042V226.77448M164.42128-85.04042V226.77448M167.25612-85.04042V226.77448M170.09098-85.04042V226.77448M172.92583-85.04042V226.77448M175.76068-85.04042V226.77448M178.59552-85.04042V226.77448M181.43038-85.04042V226.77448M184.26523-85.04042V226.77448M187.10007-85.04042V226.77448M189.93492-85.04042V226.77448M192.76978-85.04042V226.77448M195.60463-85.04042V226.77448M198.43947-85.04042V226.77448M201.27433-85.04042V226.77448M204.10918-85.04042V226.77448M206.94402-85.04042V226.77448M209.77887-85.04042V226.77448M212.61373-85.04042V226.77448M215.44858-85.04042V226.77448M218.28342-85.04042V226.77448M221.11827-85.04042V226.77448M223.95313-85.04042V226.77448M226.78797-85.04042V226.77448M229.62282-85.04042V226.77448M232.45767-85.04042V226.77448M235.29253-85.04042V226.77448M238.12737-85.04042V226.77448M240.96222-85.04042V226.77448M243.79708-85.04042V226.77448M246.63191-85.04042V226.77448M249.46677-85.04042V226.77448M252.30162-85.04042V226.77448M255.12128 226.77448"/>
<path transform="matrix(1,0,0,-1.00002,200.521,228.57427)" stroke-width=".3985" stroke-linecap="butt" stroke-miterlimit="10" stroke-linejoin="miter" fill="none" stroke="#a6a6a6" d="M-198.42766-85.04042H255.12128M-198.42766-56.69362H255.12128M-198.42766-28.3468H255.12128M-198.42766 0H255.12128M-198.42766 28.3468H255.12128M-198.42766 56.69362H255.12128M-198.42766 85.04042H255.12128M-198.42766 113.38724H255.12128M-198.42766 141.73404H255.12128M-198.42766 170.08086H255.12128M-198.42766 198.42766H255.12128M-198.42766 226.76451H255.12128M-198.42766-85.04042V226.77448M-170.08086-85.04042V226.77448M-141.73404-85.04042V226.77448M-113.38724-85.04042V226.77448M-85.04042-85.04042V226.77448M-56.69362-85.04042V226.77448M-28.3468-85.04042V226.77448M0-85.04042V226.77448M28.3468-85.04042V226.77448M56.69362-85.04042V226.77448M85.04042-85.04042V226.77448M113.38724-85.04042V226.77448M141.73404-85.04042V226.77448M170.08086-85.04042V226.77448M198.42766-85.04042V226.77448M226.77448-85.04042V226.77448M255.11133-85.04042V226.77448M255.12128 226.77448"/>
<use data-text="O" xlink:href="#font_1_3" transform="matrix(8.9664,0,0,-8.966579,196.536,238.24646)"/>
<use data-text="P" xlink:href="#font_1_4" transform="matrix(8.9664,0,0,-8.966579,75.388,117.42603)"/>
<use data-text="(" xlink:href="#font_2_1" transform="matrix(8.9664,0,0,-8.966579,82.632999,117.42603)"/>
<use data-text="x" xlink:href="#font_3_2" transform="matrix(8.9664,0,0,-8.966579,86.21701,117.42603)"/>
<use data-text="1" xlink:href="#font_4_1" transform="matrix(5.9776,0,0,-5.97772,91.44,118.42205)"/>
<use data-text="," xlink:href="#font_3_1" transform="matrix(8.9664,0,0,-8.966579,95.591,117.42603)"/>
<use data-text="y" xlink:href="#font_3_3" transform="matrix(8.9664,0,0,-8.966579,99.67969,117.42603)"/>
<use data-text="1" xlink:href="#font_4_1" transform="matrix(5.9776,0,0,-5.97772,104.225009,118.42205)"/>
<use data-text=")" xlink:href="#font_2_2" transform="matrix(8.9664,0,0,-8.966579,108.377017,117.42603)"/>
<use data-text="N" xlink:href="#font_1_2" transform="matrix(8.9664,0,0,-8.966579,289.081,117.42603)"/>
<use data-text="(" xlink:href="#font_2_1" transform="matrix(8.9664,0,0,-8.966579,297.369,117.42603)"/>
<use data-text="x" xlink:href="#font_3_2" transform="matrix(8.9664,0,0,-8.966579,300.953,117.42603)"/>
<use data-text="2" xlink:href="#font_4_2" transform="matrix(5.9776,0,0,-5.97772,306.176,118.42205)"/>
<use data-text="," xlink:href="#font_3_1" transform="matrix(8.9664,0,0,-8.966579,310.328,117.42603)"/>
<use data-text="y" xlink:href="#font_3_3" transform="matrix(8.9664,0,0,-8.966579,314.4167,117.42603)"/>
<use data-text="2" xlink:href="#font_4_2" transform="matrix(5.9776,0,0,-5.97772,318.962,118.42205)"/>
<use data-text=")" xlink:href="#font_2_2" transform="matrix(8.9664,0,0,-8.966579,323.113,117.42603)"/>
<use data-text="M" xlink:href="#font_1_1" transform="matrix(8.9664,0,0,-8.966579,195.493,111.664928)"/>
<path transform="matrix(1,0,0,-1.00002,200.521,228.57427)" stroke-width=".3985" stroke-linecap="butt" stroke-miterlimit="10" stroke-linejoin="miter" fill="none" stroke="#000000" d="M0 0-36.90132 49.2019"/>
<path transform="matrix(-.59999,-.799986,-.79997,.60000208,163.61968,179.37139)" d="M8.54343 0C7.49426 .25244 2.88243 1.68295 0 3.23967V-3.23967C2.88243-1.68295 7.49426-.25244 8.54343 0Z"/>
<path transform="matrix(-.59999,-.799986,-.79997,.60000208,163.61968,179.37139)" stroke-width=".3985" stroke-linecap="butt" stroke-miterlimit="10" stroke-linejoin="miter" fill="none" stroke="#000000" d="M8.54343 0C7.49426 .25244 2.88243 1.68295 0 3.23967V-3.23967C2.88243-1.68295 7.49426-.25244 8.54343 0Z"/>
<path transform="matrix(1,0,0,-1.00002,200.521,228.57427)" stroke-width=".3985" stroke-linecap="butt" stroke-miterlimit="10" stroke-linejoin="miter" fill="none" stroke="#000000" d="M0 0 36.90132 49.2019"/>
<path transform="matrix(.59999,-.799986,-.79997,-.60000208,237.42232,179.37139)" d="M8.54343 0C7.49426 .25244 2.88243 1.68295 0 3.23967V-3.23967C2.88243-1.68295 7.49426-.25244 8.54343 0Z"/>
<path transform="matrix(.59999,-.799986,-.79997,-.60000208,237.42232,179.37139)" stroke-width=".3985" stroke-linecap="butt" stroke-miterlimit="10" stroke-linejoin="miter" fill="none" stroke="#000000" d="M8.54343 0C7.49426 .25244 2.88243 1.68295 0 3.23967V-3.23967C2.88243-1.68295 7.49426-.25244 8.54343 0Z"/>
<path transform="matrix(1,0,0,-1.00002,200.521,228.57427)" stroke-width=".79701" stroke-linecap="butt" stroke-miterlimit="10" stroke-linejoin="miter" fill="none" stroke="#000000" d="M0 0-85.04042 113.38724"/>
<use data-text="a" xlink:href="#font_5_1" transform="matrix(11.9552,0,0,-11.95544,147.74399,174.53618)"/>
<path transform="matrix(1,0,0,-1.00002,200.521,228.57427)" stroke-width=".79701" stroke-linecap="butt" stroke-miterlimit="10" stroke-linejoin="miter" fill="none" stroke="#000000" d="M0 0 85.04042 113.38724"/>
<use data-text="b" xlink:href="#font_5_2" transform="matrix(11.9552,0,0,-11.95544,246.76,176.03122)"/>
<path transform="matrix(1,0,0,-1.00002,200.521,228.57427)" stroke-width=".79701" stroke-linecap="butt" stroke-miterlimit="10" stroke-linejoin="miter" fill="none" stroke="#000000" d="M85.04042 113.38724H-85.04042"/>
<path transform="matrix(1,0,0,-1.00002,200.521,228.57427)" stroke-width=".79701" stroke-linecap="butt" stroke-miterlimit="10" stroke-linejoin="miter" fill="none" stroke="#000000" d="M0 0V113.38724"/>
</svg>
