<svg xmlns="http://www.w3.org/2000/svg" xmlns:xlink="http://www.w3.org/1999/xlink" xmlns:inkscape="http://www.inkscape.org/namespaces/inkscape" version="1.1" width="124" height="27" viewBox="0 0 124 27">
<defs>
<path id="font_1_1" d="M.47399903 .6722412C.46299745 .6982422 .45098878 .6982422 .43399049 .6982422 .4059906 .6982422 .4019928 .6902313 .394989 .6722412L.14698792 .07002258C.14099121 .055007936 .13798523 .04699707 .06199646 .04699707H.040985109V0C.07899475 .0009918213 .1269989 .0029907227 .1579895 .0029907227 .19699097 .0029907227 .25299073 .0029907227 .2899933 0V.04699707C.28799439 .04699707 .20098877 .04699707 .20098877 .060012819 .20098877 .061019899 .20399475 .07102966 .20498657 .07203674L.25498963 .19322205H.522995L.58299258 .04699707H.48799134V0C.526001 .0029907227 .62098696 .0029907227 .6639862 .0029907227 .70399478 .0029907227 .7919922 .0029907227 .82699587 0V.04699707H.7299957L.47399903 .6722412M.3889923 .51823428 .5029907 .24023438H.2749939L.3889923 .51823428Z"/>
<path id="font_1_2" d="M.27799989 .37486268V.63853457H.45999146C.5609894 .63853457 .57899478 .55963137 .57899478 .51368716 .57899478 .43678285 .5309906 .37486268 .43399049 .37486268H.27799989M.5479889 .35786439C.6559906 .37686158 .72099307 .43678285 .72099307 .51368716 .72099307 .60557559 .6339874 .6855469 .47299195 .6855469H.038986207V.63853457H.14698792V.04699707H.038986207V0H.5029907C.6689911 0 .7529907 .08796692 .7529907 .18592835 .7529907 .28189088 .6669922 .3488617 .5479889 .35786439M.46199037 .04699707H.27799989V.3388672H.47200013C.49198915 .3388672 .5389862 .3388672 .57299807 .29588319 .60598757 .253891 .60598757 .19792176 .60598757 .18693543 .60598757 .17492676 .60598757 .04699707 .46199037 .04699707Z"/>
<path id="font_1_3" d="M.37399293 .077056888C.37399293 .04598999 .37399293 0 .47799684 0H.526001C.54599 0 .55799868 0 .55799868 .023986817 .55799868 .04699707 .54499819 .04699707 .5319977 .04699707 .47099305 .04798889 .47099305 .061019899 .47099305 .08406067V.2993164C.47099305 .38816834 .3999939 .453125 .25099183 .453125 .19400025 .453125 .07199097 .44911195 .07199097 .36120606 .07199097 .317276 .10699463 .29830934 .13398743 .29830934 .16499329 .29830934 .19699097 .3192749 .19699097 .36120606 .19699097 .39115907 .17799378 .40812684 .1749878 .41012574 .20298767 .41612245 .23498535 .41711427 .24699402 .41711427 .32199098 .41711427 .35699464 .3751831 .35699464 .2993164V.2653656C.28599549 .26237489 .03199768 .2533722 .03199768 .10821533 .03199768 .012130737 .1559906-.005859375 .22499085-.005859375 .30499269-.006011963 .35198976 .034988405 .37399293 .077056888M.35699464 .234375V.13917542C.35699464 .042999269 .2649994 .02999878 .23999024 .02999878 .18899536 .02999878 .14898682 .06503296 .14898682 .1091156 .14898682 .21733094 .30699159 .23135376 .35699464 .234375Z"/>
</defs>
<path transform="matrix(1.00008,0,0,-1.00003,5.54924,15.474074)" stroke-width=".79701" stroke-linecap="butt" stroke-miterlimit="10" stroke-linejoin="miter" fill="none" stroke="#000000" d="M.59775 0H112.78947"/>
<path transform="matrix(-1.00008,-0,0,1.00003,5.947772,15.474074)" stroke-width=".79701" stroke-linecap="butt" stroke-miterlimit="10" stroke-linejoin="miter" fill="none" stroke="#000000" d="M0 3.08846V-3.08846"/>
<path transform="matrix(1.00008,0,0,-1.00003,118.547008,15.474074)" stroke-width=".79701" stroke-linecap="butt" stroke-miterlimit="10" stroke-linejoin="miter" fill="none" stroke="#000000" d="M0 3.08846V-3.08846"/>
<use data-text="A" xlink:href="#font_1_1" transform="matrix(9.963397,0,0,-9.962899,1.2178955,25.829384)"/>
<use data-text="B" xlink:href="#font_1_2" transform="matrix(9.963397,0,0,-9.962899,114.86998,25.829384)"/>
<use data-text="a" xlink:href="#font_1_3" transform="matrix(9.963397,0,0,-9.962899,59.46255,6.3488008)"/>
<path transform="matrix(1.00008,0,0,-1.00003,5.54924,15.474074)" stroke-width=".3985" stroke-linecap="butt" stroke-miterlimit="10" stroke-linejoin="miter" fill="none" stroke="#000000" d="M56.69362 0H58.3103"/>
<path transform="matrix(1.00008,0,0,-1.00003,63.864206,15.474074)" d="M6.0659 0C5.32098 .18004 2.04654 1.20032 0 2.31061V-2.31061C2.04654-1.20032 5.32098-.18004 6.0659 0Z"/>
<path transform="matrix(1.00008,0,0,-1.00003,63.864206,15.474074)" stroke-width=".3985" stroke-linecap="butt" stroke-miterlimit="10" stroke-linejoin="miter" fill="none" stroke="#000000" d="M6.0659 0C5.32098 .18004 2.04654 1.20032 0 2.31061V-2.31061C2.04654-1.20032 5.32098-.18004 6.0659 0Z"/>
</svg>
