<svg xmlns="http://www.w3.org/2000/svg" xmlns:xlink="http://www.w3.org/1999/xlink" xmlns:inkscape="http://www.inkscape.org/namespaces/inkscape" version="1.1" width="124" height="29" viewBox="0 0 124 29">
<defs>
<path id="font_1_1" d="M.2889862 .30177308H.46598817C.6049957 .30177308 .72099307 .37374879 .72099307 .49064637 .72099307 .6005707 .621994 .6855469 .45599366 .6855469H.038986207V.63853457H.14698792V.04699707H.038986207V0C.07699585 .0029907227 .1749878 .0029907227 .21798706 .0029907227 .26098634 .0029907227 .35899354 .0029907227 .39698792 0V.04699707H.2889862V.30177308M.4169922 .34277345H.2829895V.63853457H.41799928C.56799319 .63853457 .56799319 .56259158 .56799319 .49064637 .56799319 .41970826 .56799319 .34277345 .4169922 .34277345Z"/>
<path id="font_1_2" d="M.59199526 .018249512C.7559967 .08226013 .798996 .23027039 .798996 .33926393 .798996 .55526736 .6539917 .6972656 .43199159 .6972656 .20298767 .6972656 .06399536 .5492554 .06399536 .33926393 .06399536 .13526917 .19999695-.0107421879 .43199159-.0107421879 .45399476-.0107421879 .4869995-.009750366 .5269928-.0017547608 .5549927-.11534119 .57499697-.19433594 .66799929-.19433594 .769989-.19433594 .8049927-.07633972 .8049927-.007751465 .8049927 .00024414063 .8049927 .018249512 .7869873 .018249512 .7719879 .018249512 .769989 .0052490236 .7689972-.0017547608 .7630005-.04032898 .70098879-.04133606 .6839905-.04133606 .6609955-.04133606 .6309967-.04133606 .59199526 .018249512M.33699037 .051254274C.21398926 .11026001 .21099854 .26226808 .21099854 .340271 .21099854 .38026429 .21099854 .4752655 .24798584 .54626467 .2999878 .6422577 .38598634 .6572571 .43099977 .6572571 .4850006 .6572571 .5629883 .6372528 .61099246 .55226138 .6489868 .48526 .6519928 .39926148 .6519928 .340271 .6519928 .28427125 .6519928 .13526917 .55599978 .06925964 .5339966 .102264408 .49798585 .15527344 .43099977 .15527344 .37998963 .15527344 .33399964 .1212616 .33399964 .07325745 .33399964 .06726074 .33499146 .056259157 .33699037 .051254274M.5139923 .04525757C.4889984 .03425598 .45899964 .029251099 .43199159 .029251099 .3769989 .029251099 .36999513 .06124878 .36999513 .07325745 .36999513 .1002655 .39898683 .119262699 .43199159 .119262699 .45999146 .119262699 .49398805 .10826111 .5139923 .04525757Z"/>
<path id="font_1_3" d="M.37399293 .077056888C.37399293 .04598999 .37399293 0 .47799684 0H.526001C.54599 0 .55799868 0 .55799868 .023986817 .55799868 .04699707 .54499819 .04699707 .5319977 .04699707 .47099305 .04798889 .47099305 .061019899 .47099305 .08406067V.2993164C.47099305 .38816834 .3999939 .453125 .25099183 .453125 .19400025 .453125 .07199097 .44911195 .07199097 .36120606 .07199097 .317276 .10699463 .29830934 .13398743 .29830934 .16499329 .29830934 .19699097 .3192749 .19699097 .36120606 .19699097 .39115907 .17799378 .40812684 .1749878 .41012574 .20298767 .41612245 .23498535 .41711427 .24699402 .41711427 .32199098 .41711427 .35699464 .3751831 .35699464 .2993164V.2653656C.28599549 .26237489 .03199768 .2533722 .03199768 .10821533 .03199768 .012130737 .1559906-.005859375 .22499085-.005859375 .30499269-.006011963 .35198976 .034988405 .37399293 .077056888M.35699464 .234375V.13917542C.35699464 .042999269 .2649994 .02999878 .23999024 .02999878 .18899536 .02999878 .14898682 .06503296 .14898682 .1091156 .14898682 .21733094 .30699159 .23135376 .35699464 .234375Z"/>
</defs>
<path transform="matrix(1.00006,0,0,-1.00006,5.1334078,15.474148)" stroke-width=".79701" stroke-linecap="butt" stroke-miterlimit="10" stroke-linejoin="miter" fill="none" stroke="#000000" d="M.59775 0H112.78947"/>
<path transform="matrix(-1.00006,-0,0,1.00006,5.5319316,15.474148)" stroke-width=".79701" stroke-linecap="butt" stroke-miterlimit="10" stroke-linejoin="miter" fill="none" stroke="#000000" d="M0 3.08846V-3.08846"/>
<path transform="matrix(1.00006,0,0,-1.00006,118.12891,15.474148)" stroke-width=".79701" stroke-linecap="butt" stroke-miterlimit="10" stroke-linejoin="miter" fill="none" stroke="#000000" d="M0 3.08846V-3.08846"/>
<use data-text="P" xlink:href="#font_1_1" transform="matrix(9.963197,0,0,-9.963197,1.2171707,25.82977)"/>
<use data-text="Q" xlink:href="#font_1_2" transform="matrix(9.963197,0,0,-9.963197,114.223949,25.82977)"/>
<use data-text="a" xlink:href="#font_1_3" transform="matrix(9.963197,0,0,-9.963197,59.04564,6.3486006)"/>
<path transform="matrix(1.00006,0,0,-1.00006,5.1334078,15.474148)" stroke-width=".3985" stroke-linecap="butt" stroke-miterlimit="10" stroke-linejoin="miter" fill="none" stroke="#000000" d="M56.69362 0H56.89296"/>
<path transform="matrix(1.00006,0,0,-1.00006,62.029779,15.474148)" d="M7.48325 0C6.56427 .22145 2.52473 1.47643 0 2.8421V-2.8421C2.52473-1.47643 6.56427-.22145 7.48325 0Z"/>
<path transform="matrix(1.00006,0,0,-1.00006,62.029779,15.474148)" stroke-width=".3985" stroke-linecap="butt" stroke-miterlimit="10" stroke-linejoin="miter" fill="none" stroke="#000000" d="M7.48325 0C6.56427 .22145 2.52473 1.47643 0 2.8421V-2.8421C2.52473-1.47643 6.56427-.22145 7.48325 0Z"/>
</svg>
