<svg xmlns="http://www.w3.org/2000/svg" xmlns:xlink="http://www.w3.org/1999/xlink" xmlns:inkscape="http://www.inkscape.org/namespaces/inkscape" version="1.1" width="299" height="287" viewBox="0 0 299 287">
<defs>
<path id="font_1_74" d="M.8789978 0V.0309906H.8549957C.7779999 .0309906 .776001 .041992189 .776001 .07795715V.6046295C.776001 .64060977 .7779999 .6516113 .8549957 .6516113H.8789978V.6826172H.70999148C.6839905 .6826172 .6839905 .6816101 .6769867 .66360476L.45799256 .10095215 .24099732 .660614C.23199463 .6826172 .22898865 .6826172 .20599365 .6826172H.036987306V.6516113H.06098938C.13798523 .6516113 .13999939 .64060977 .13999939 .6046295V.10494995C.13999939 .07795715 .13999939 .0309906 .036987306 .0309906V0L.1539917 .0029907227 .2709961 0V.0309906C.16799927 .0309906 .16799927 .07795715 .16799927 .10494995V.6436157H.16899109L.4099884 .021987915C.4149933 .008987427 .41999818 0 .42999269 0 .44099427 0 .44400025 .0079956059 .44799806 .018997193L.69400027 .6516113H.69499209V.07795715C.69499209 .041992189 .69299319 .0309906 .6159973 .0309906H.59199526V0C.6289978 .0029907227 .69699099 .0029907227 .73599246 .0029907227 .7749939 .0029907227 .84199526 .0029907227 .8789978 0Z"/>
<path id="font_2_74" d="M.72898867 0V.69433596H.61299136L.49899293 .37316896 .45098878 .23210144C.44299317 .2060852 .41600038 .12504578 .4099884 .09303284H.40899659C.4059906 .11305237 .3999939 .13406372 .38398744 .18507385L.35499574 .27412416 .20698548 .69433596H.08999634V0H.16799927V.61328127L.16899109 .61299136C.16899109 .61299136 .17799378 .56799319 .23899842 .3929901L.37098695 .015991211H.44499208L.56399539 .35099793 .60798647 .48199464C.6179962 .5119934 .6429901 .58599856 .6489868 .61499026H.6499939V0H.72898867Z"/>
<path id="font_2_65" d="M.17098999 0V.69433596H.08699036V0H.17098999Z"/>
<path id="font_2_95" d="M.57899478 0 .3939972 .32637025 .3959961 .32737733C.5519867 .38137818 .5529938 .48934938 .5529938 .50834658 .5529938 .6033325 .45700074 .69433596 .31298829 .69433596H.08898926V0H.17098999V.3173828H.31799317L.49499513 0H.57899478M.47399903 .50834658C.47399903 .45436097 .43399049 .3783722 .3019867 .3783722H.17098999V.6383209H.3019867C.42900086 .6383209 .47399903 .5663452 .47399903 .50834658Z"/>
<path id="font_2_80" d="M.6399994 .3461609C.6399994 .5540161 .5029907 .70996096 .34599305 .70996096 .18899536 .70996096 .051986696 .5530243 .051986696 .3461609 .051986696 .13729859 .19099427-.015625 .34599305-.015625 .5009918-.015625 .6399994 .13729859 .6399994 .3461609M.55599978 .35916139C.55599978 .169281 .45498658 .04736328 .34599305 .04736328 .23599243 .04736328 .13598633 .17028809 .13598633 .35916139 .13598633 .5430298 .24198914 .6469574 .34599305 .6469574 .44999696 .6469574 .55599978 .5430298 .55599978 .35916139Z"/>
</defs>
<path transform="matrix(1.00008,0,0,-1.00002,143.039,143.43355)" stroke-width=".79701" stroke-linecap="butt" stroke-miterlimit="10" stroke-linejoin="miter" fill="none" stroke="#0000ff" d="M-141.73404 0H140.93703"/>
<path transform="matrix(1.00008,0,0,-1.00002,284.38587,143.43355)" stroke-width=".79701" stroke-linecap="round" stroke-linejoin="round" fill="none" stroke="#0000ff" d="M-2.55046 3.11095C-2.0845 1.24435-1.04614 .36295 0 0-1.04614-.36295-2.0845-1.24435-2.55046-3.11095"/>
<use data-text="M" xlink:href="#font_1_74" transform="matrix(9.963397,0,0,-9.962799,288.50364,146.83562)" fill="#0000ff"/>
<path transform="matrix(1.00008,0,0,-1.00002,143.039,143.43355)" stroke-width=".19925" stroke-linecap="butt" stroke-miterlimit="10" stroke-linejoin="miter" fill="none" stroke="#7f807f" d="M-141.73404-141.73404H141.73404M-141.73404-113.38724H141.73404M-141.73404-85.04042H141.73404M-141.73404-56.69362H141.73404M-141.73404-28.3468H141.73404M-141.73404 0H141.73404M-141.73404 28.3468H141.73404M-141.73404 56.69362H141.73404M-141.73404 85.04042H141.73404M-141.73404 113.38724H141.73404M-141.73404 141.72409H141.73404M-141.73404-141.73404V141.73404M-113.38724-141.73404V141.73404M-85.04042-141.73404V141.73404M-56.69362-141.73404V141.73404M-28.3468-141.73404V141.73404M0-141.73404V141.73404M28.3468-141.73404V141.73404M56.69362-141.73404V141.73404M85.04042-141.73404V141.73404M113.38724-141.73404V141.73404M141.72409-141.73404V141.73404M141.73404 141.73404"/>
<path transform="matrix(1.00008,0,0,-1.00002,143.039,143.43355)" stroke-width=".3985" stroke-linecap="butt" stroke-miterlimit="10" stroke-linejoin="miter" fill="none" stroke="#000000" d="M-110.61957 60.02095H110.61958V110.05989H-110.61957Z"/>
<use data-text="M" xlink:href="#font_2_74" transform="matrix(59.78058,0,0,-59.776998,35.731416,79.13426)"/>
<use data-text="I" xlink:href="#font_2_65" transform="matrix(59.78058,0,0,-59.776998,84.75148,79.13426)"/>
<use data-text="R" xlink:href="#font_2_95" transform="matrix(59.78058,0,0,-59.776998,100.234668,79.13426)"/>
<use data-text="R" xlink:href="#font_2_95" transform="matrix(59.78058,0,0,-59.776998,136.46169,79.13426)"/>
<use data-text="O" xlink:href="#font_2_80" transform="matrix(59.78058,0,0,-59.776998,172.6887,79.13426)"/>
<use data-text="R" xlink:href="#font_2_95" transform="matrix(59.78058,0,0,-59.776998,214.11663,79.13426)"/>
</svg>
