<svg xmlns="http://www.w3.org/2000/svg" xmlns:xlink="http://www.w3.org/1999/xlink" xmlns:inkscape="http://www.inkscape.org/namespaces/inkscape" version="1.1" width="287" height="287" viewBox="0 0 287 287">
<defs>
<path id="font_1_1" d="M.9259949 .6056366C.93499758 .6416168 .93699648 .6516113 1.0119934 .6516113 1.0349884 .6516113 1.0439911 .6516113 1.0439911 .6716156 1.0439911 .6826172 1.0339966 .6826172 1.0169983 .6826172H.8849945C.85899356 .6826172 .8580017 .6826172 .84599307 .66360476L.48098756 .093948367 .40299989 .65960696C.3999939 .6826172 .397995 .6826172 .37199403 .6826172H.23498535C.21598816 .6826172 .20498657 .6826172 .20498657 .66360476 .20498657 .6516113 .21398926 .6516113 .23399353 .6516113 .24699402 .6516113 .2649994 .65060427 .2769928 .6496124 .29299928 .6476135 .29899598 .64460757 .29899598 .6336212 .29899598 .6296234 .2979889 .62661746 .29499818 .614624L.16799927 .10594177C.1579895 .065963748 .14099121 .033996583 .05999756 .0309906 .054992677 .0309906 .041992189 .02999878 .041992189 .011993408 .041992189 .0029907227 .04798889 0 .055999757 0 .08799744 0 .12298584 .0029907227 .1559906 .0029907227 .18998719 .0029907227 .22599793 0 .25898744 0 .2639923 0 .2769928 0 .2769928 .019989014 .2769928 .0309906 .2659912 .0309906 .25898744 .0309906 .20199585 .03199768 .19099427 .051986696 .19099427 .07496643 .19099427 .081954959 .19198609 .08695984 .19499207 .09794617L.33099366 .64260867H.33198548L.41799928 .022994996C.41999818 .010986328 .42099 0 .43299867 0 .44400025 0 .44999696 .010986328 .45498658 .017990113L.85899356 .65060427H.8600006L.71699526 .07795715C.70700076 .038986207 .7049866 .0309906 .6259918 .0309906 .60899356 .0309906 .59799197 .0309906 .59799197 .011993408 .59799197 0 .6100006 0 .61299136 0 .6409912 0 .70899966 .0029907227 .7369995 .0029907227 .7779999 .0029907227 .82099917 0 .8619995 0 .8679962 0 .8809967 0 .8809967 .019989014 .8809967 .0309906 .871994 .0309906 .8529968 .0309906 .81599429 .0309906 .7879944 .0309906 .7879944 .048980714 .7879944 .052978517 .7879944 .054977418 .79299929 .07296753L.9259949 .6056366Z"/>
</defs>
<path transform="matrix(1.00003,0,0,-1.00002,143.73274,143.43355)" stroke-width=".19925" stroke-linecap="butt" stroke-miterlimit="10" stroke-linejoin="miter" fill="none" stroke="#7f807f" d="M-141.73404-141.73404H141.73404M-141.73404-113.38724H141.73404M-141.73404-85.04042H141.73404M-141.73404-56.69362H141.73404M-141.73404-28.3468H141.73404M-141.73404 0H141.73404M-141.73404 28.3468H141.73404M-141.73404 56.69362H141.73404M-141.73404 85.04042H141.73404M-141.73404 113.38724H141.73404M-141.73404 141.72409H141.73404M-141.73404-141.73404V141.73404M-113.38724-141.73404V141.73404M-85.04042-141.73404V141.73404M-56.69362-141.73404V141.73404M-28.3468-141.73404V141.73404M0-141.73404V141.73404M28.3468-141.73404V141.73404M56.69362-141.73404V141.73404M85.04042-141.73404V141.73404M113.38724-141.73404V141.73404M141.72409-141.73404V141.73404M141.73404 141.73404"/>
<path transform="matrix(1.00003,0,0,-1.00002,143.73274,143.43355)" d="M0 85.04042-49.98537-68.79948 80.87897 26.27925H-80.87897L49.98537-68.79948Z" fill="#ffbf80" fill-rule="evenodd"/>
<path transform="matrix(1.00003,0,0,-1.00002,143.73274,143.43355)" stroke-width=".79701" stroke-linecap="butt" stroke-miterlimit="10" stroke-linejoin="miter" fill="none" stroke="#000000" d="M-113.38724 113.38724 112.82367-112.82367"/>
<path transform="matrix(.7071212,.70711418,.7071212,-.70711418,256.84159,256.54127)" stroke-width=".79701" stroke-linecap="round" stroke-linejoin="round" fill="none" stroke="#000000" d="M-2.55046 3.11095C-2.0845 1.24435-1.04614 .36295 0 0-1.04614-.36295-2.0845-1.24435-2.55046-3.11095"/>
<use data-text="M" xlink:href="#font_1_1" transform="matrix(9.962899,0,0,-9.962799,260.84226,253.10375)"/>
</svg>
