<svg xmlns="http://www.w3.org/2000/svg" xmlns:xlink="http://www.w3.org/1999/xlink" xmlns:inkscape="http://www.inkscape.org/namespaces/inkscape" version="1.1" width="451" height="231" viewBox="0 0 451 231">
<defs>
<path id="font_1_27" d="M.71699526 0V.0309906H.69898989C.6389923 .0309906 .625 .037979127 .6139984 .07095337L.397995 .6958008C.3929901 .7088165 .3909912 .7158203 .375 .7158203 .35899354 .7158203 .35598756 .70980837 .35099793 .6958008L.14399719 .09791565C.12599182 .04698181 .085998538 .03199768 .03199768 .0309906V0L.13398743 .0029907227 .24899292 0V.0309906C.19898987 .0309906 .17399597 .05596924 .17399597 .0819397 .17399597 .08493042 .1749878 .09492493 .17599488 .09692383L.22200012 .2277832H.46899415L.5219879 .07495117C.522995 .07095337 .5249939 .064956668 .5249939 .060958864 .5249939 .0309906 .46899415 .0309906 .44198609 .0309906V0C.47799684 .0029907227 .5479889 .0029907227 .58599856 .0029907227L.71699526 0M.45799256 .25878907H.23298645L.34498597 .58380129 .45799256 .25878907Z"/>
<path id="font_1_34" d="M.651001 .18289185C.651001 .26983644 .56900027 .34480287 .45799256 .35679627 .5549927 .3757782 .6239929 .43974305 .6239929 .51368716 .6239929 .6006317 .5319977 .6826172 .4019928 .6826172H.035995485V.6516113H.05999756C.13699341 .6516113 .13899231 .64060977 .13899231 .6046295V.07795715C.13899231 .041992189 .13699341 .0309906 .05999756 .0309906H.035995485V0H.42799378C.5609894-.0002593994 .651001 .08874512 .651001 .18273926V.18289185M.5269928 .5136719C.5269928 .44970704 .47799684 .36573792 .36698915 .36573792H.22200012V.6116333C.22200012 .64460757 .22399903 .6516113 .2709961 .6516113H.394989C.49198915 .65174868 .5269928 .56674197 .5269928 .51374819V.5136719M.5509949 .18386841C.5509949 .1129303 .49899293 .0309906 .3959961 .0309906H.2709961C.22399903 .0309906 .22200012 .037994386 .22200012 .07095337V.34375H.4099884C.5089874 .34399415 .5509949 .25099183 .5509949 .18399048V.18386841Z"/>
<path id="font_1_42" d="M.6649933 .23271179C.6649933 .24272156 .6649933 .24972534 .6519928 .24972534 .6409912 .24972534 .6409912 .24372864 .6399994 .23371887 .6319885 .09059143 .5249939 .008529663 .41600038 .008529663 .35499574 .008529663 .15899658 .042556764 .15899658 .34080506 .15899658 .64004519 .35398866 .67407229 .4149933 .67407229 .5239868 .67407229 .61299136 .58299258 .6329956 .4368744 .6349945 .42286683 .6349945 .41986085 .6489868 .41986085 .6649933 .41986085 .6649933 .42286683 .6649933 .44387818V.68107607C.6649933 .69807437 .6649933 .7050781 .6539917 .7050781 .6499939 .7050781 .6459961 .7050781 .6380005 .69306948L.58799746 .61901858C.5509949 .6550598 .5 .7050781 .4039917 .7050781 .21699524 .7050781 .055999757 .5459595 .055999757 .34179688 .055999757 .1346283 .21798706-.022460938 .4039917-.022460938 .5669861-.022460938 .6649933 .116622928 .6649933 .23271179Z"/>
<path id="font_1_100" d="M.4850006 .6435547H.24198914C.11999512 .6435547 .117996219 .6566467 .11399841 .67578127H.08898926L.055999757 .46954347H.08099365C.083999637 .48554994 .09298706 .54855349 .10598755 .5605469 .11299133 .5665436 .19099427 .5665436 .20399475 .5665436H.41099549L.29899598 .40853883C.20899964 .2735443 .17599488 .13453675 .17599488 .03253174 .17599488 .022537232 .17599488-.022460938 .22200012-.022460938 .2679901-.022460938 .2679901 .022537232 .2679901 .03253174V.08354187C.2679901 .13853455 .2709961 .19354248 .2789917 .24754334 .2829895 .27053834 .29699708 .35653688 .34098817 .41854859L.47599793 .608551C.4850006 .62054446 .4850006 .62254336 .4850006 .6435547Z"/>
<path id="font_1_88" d="M.19198609 .052993776C.19198609 .08198547 .16799927 .10598755 .13899231 .10598755 .10998535 .10598755 .085998538 .08198547 .085998538 .052993776 .085998538 .023986817 .10998535 0 .13899231 0 .16799927 0 .19198609 .023986817 .19198609 .052993776Z"/>
<path id="font_1_57" d="M.47099305 .16503906V.19602967H.37098695V.6507721C.37098695 .6707611 .37098695 .6767578 .35499574 .6767578 .34599305 .6767578 .34298707 .6767578 .33499146 .6647644L.027999878 .19602967V.16503906H.2939911V.07800293C.2939911 .041992189 .2919922 .0309906 .21798706 .0309906H.19699097V0C.23799134 .0029907227 .2899933 .0029907227 .33198548 .0029907227 .37399293 .0029907227 .4269867 .0029907227 .46798707 0V.0309906H.44699098C.37298585 .0309906 .37098695 .041992189 .37098695 .07800293V.16503906H.47099305M.2999878 .19602967H.055999757L.2999878 .56881716V.19602967Z"/>
<path id="font_1_43" d="M.4149933 .119140628C.4149933 .12911988 .40499879 .12911988 .4019928 .12911988 .3929901 .12911988 .3909912 .12512207 .3889923 .119140628 .3600006 .026229859 .29499818 .014251709 .2579956 .014251709 .20498657 .014251709 .116989139 .0572052 .116989139 .21801758 .116989139 .38093568 .19898987 .42323304 .2519989 .42323304 .26098634 .42323304 .32398988 .42222596 .35899354 .38594056 .31799317 .38293458 .31199647 .3529358 .31199647 .3399353 .31199647 .31393434 .32998658 .2939453 .35798646 .2939453 .38398744 .2939453 .4039917 .3109436 .4039917 .34094239 .4039917 .40911866 .32798768 .4482422 .25099183 .4482422 .12599182 .4482422 .033996583 .3399353 .033996583 .21601868 .033996583 .08816528 .1329956-.0107421879 .24899292-.0107421879 .3829956-.0107421879 .4149933 .10914612 .4149933 .119140628Z"/>
<path id="font_1_75" d="M.8129883 0V.0309906C.7609863 .0309906 .73599246 .0309906 .7350006 .061019899V.25221253C.7350006 .3383026 .7350006 .36932374 .70399478 .405365 .6899872 .42237855 .6569977 .4423828 .598999 .4423828 .5149994 .4423828 .47099305 .38233949 .45399476 .34429933 .43998719 .43138124 .3659973 .4423828 .32099916 .4423828 .24798584 .4423828 .20098877 .39935304 .17298889 .33729554V.4423828L.03199768 .43066407V.3996582C.101989749 .3996582 .10998535 .39266969 .10998535 .34370423V.07595825C.10998535 .0309906 .09899902 .0309906 .03199768 .0309906V0L.14498902 .0029907227 .25698854 0V.0309906C.18998719 .0309906 .1789856 .0309906 .1789856 .07595825V.25978089C.1789856 .36431886 .25 .42037965 .31399537 .42037965 .3769989 .42037965 .3880005 .36631776 .3880005 .30926515V.076034549C.3880005 .0309906 .3769989 .0309906 .30999757 .0309906V0L.4229889 .0029907227 .5349884 0V.0309906C.46798707 .0309906 .45700074 .0309906 .45700074 .076034549V.2602234C.45700074 .36431886 .5279999 .42037965 .59199526 .42037965 .6549988 .42037965 .66600039 .36631776 .66600039 .30926515V.076034549C.66600039 .0309906 .6549988 .0309906 .58799746 .0309906V0L.70098879 .0029907227 .8129883 0Z"/>
<path id="font_1_106" d="M.45700074 .17037964C.45700074 .252594 .3939972 .33088685 .2899933 .35191346 .37199403 .37893678 .42999269 .4490509 .42999269 .52809146 .42999269 .6100464 .34199525 .6660156 .24598694 .6660156 .14498902 .6660156 .068984989 .60606387 .068984989 .53009036 .068984989 .49710084 .09098816 .47808839 .11999512 .47808839 .15098572 .47808839 .17098999 .50009158 .17098999 .5290985 .17098999 .57910159 .12399292 .57910159 .10899353 .57910159 .13999939 .62802127 .20599365 .64100649 .24198914 .64100649 .2829895 .64100649 .33799745 .6190338 .33799745 .5290985 .33799745 .51708987 .33599855 .45906068 .30999757 .4149933 .27999879 .36691285 .24598694 .36390687 .22099304 .36291505 .21299744 .36190797 .18899536 .35990907 .18199158 .35990907 .17399597 .35890199 .16699219 .35791017 .16699219 .3479004 .16699219 .33691407 .17399597 .33691407 .19099427 .33691407H.23498535C.31698609 .33691407 .35398866 .2686615 .35398866 .17037964 .35398866 .034469606 .2849884 .0055389406 .24099732 .0055389406 .19799805 .0055389406 .12298584 .022491456 .08799744 .08137512 .12298584 .07637024 .1539917 .09837341 .1539917 .1363678 .1539917 .17237854 .1269989 .19238281 .09799194 .19238281 .07398987 .19238281 .041992189 .17837525 .041992189 .1343689 .041992189 .043441774 .1349945-.022460938 .24398804-.022460938 .3659973-.022460938 .45700074 .06838989 .45700074 .17037964Z"/>
<path id="font_1_101" d="M.45700074 .2036438C.45700074 .33070375 .36799623 .4267578 .25698854 .4267578 .18899536 .4267578 .1519928 .37573243 .13198853 .327713V.35173036C.13198853 .6047821 .2559967 .64100649 .30699159 .64100649 .33099366 .64100649 .37298585 .634964 .394989 .6007538 .37998963 .6007538 .33999635 .6007538 .33999635 .5557556 .33999635 .524765 .3639984 .5097656 .38598634 .5097656 .4019928 .5097656 .43199159 .51875308 .43199159 .5577545 .43199159 .6178589 .3880005 .6660156 .30499269 .6660156 .1769867 .6660156 .041992189 .5367584 .041992189 .31570436 .041992189 .048553468 .1579895-.022460938 .25099183-.022460938 .3619995-.022460938 .45700074 .07156372 .45700074 .2036438M.36698915 .20463562C.36698915 .15661621 .36698915 .10658264 .34999085 .0705719 .31999208 .010528564 .27398683 .0055389406 .25099183 .0055389406 .18798828 .0055389406 .1579895 .06556702 .1519928 .080566409 .13398743 .127594 .13398743 .2076416 .13398743 .22564698 .13398743 .30369569 .1659851 .40374757 .2559967 .40374757 .27198792 .40374757 .31799317 .40374757 .34899903 .34172059 .36698915 .30470277 .36698915 .2536621 .36698915 .20463562Z"/>
<path id="font_2_57" d="M.46199037 .16699219V.19598389H.36099244V.6508026C.36099244 .6697998 .36099244 .6748047 .34700013 .6748047 .33898927 .6748047 .33599855 .6748047 .32798768 .6628113L.026992798 .19598389V.16699219H.2899933V.07598877C.2899933 .038986207 .28799439 .0289917 .21499634 .0289917H.19499207V0C.21798706 .0019989014 .29699708 .0019989014 .32499696 .0019989014 .35299684 .0019989014 .43299867 .0019989014 .45599366 0V.0289917H.43598939C.3639984 .0289917 .36099244 .038986207 .36099244 .07598877V.16699219H.46199037M.29499818 .19598389H.051986696L.29499818 .57284548V.19598389Z"/>
<path id="font_2_121" d="M.44799806 .31976319C.44799806 .40283204 .44299317 .48388673 .40699769 .5599518 .3659973 .64302065 .2939911 .66503909 .24499512 .66503909 .18699646 .66503909 .115997318 .6360016 .07899475 .552948 .050994874 .48989869 .040985109 .42785646 .040985109 .31976319 .040985109 .22268677 .04798889 .14964295 .083999637 .07858276 .12298584 .002532959 .19198609-.021484375 .24398804-.021484375 .33099366-.021484375 .3809967 .030548096 .4099884 .08859253 .44599916 .16365052 .44799806 .26171876 .44799806 .31976319M.37199403 .33177186C.37199403 .26472474 .37199403 .18867493 .36099244 .12762451 .34199525 .017532349 .2789917-.0014801025 .24398804-.0014801025 .21199036-.0014801025 .14698792 .016540528 .12799073 .12562561 .116989139 .18566895 .116989139 .26171876 .116989139 .33177186 .116989139 .41383363 .116989139 .48789979 .1329956 .54693606 .1499939 .6139984 .20098877 .64501956 .24398804 .64501956 .28199769 .64501956 .33999635 .621994 .35899354 .53593447 .37199403 .47888185 .37199403 .39982606 .37199403 .33177186Z"/>
<path id="font_2_234" d="M.31999208 .546875C.31999208 .6216736 .25898744 .6826172 .18399048 .6826172 .10798645 .6826172 .04798889 .6216736 .04798889 .546875 .04798889 .47206117 .10798645 .4111328 .18399048 .4111328 .25898744 .4111328 .31999208 .47206117 .31999208 .546875M.28399659 .546875C.28399659 .4920044 .23899842 .4471283 .18399048 .4471283 .12799073 .4471283 .083999637 .4920044 .083999637 .546875 .083999637 .60272219 .12799073 .64660647 .18399048 .64660647 .23899842 .64660647 .28399659 .60272219 .28399659 .546875Z"/>
<path id="font_2_51" d="M.44799806 .1659851C.44799806 .2679901 .37599183 .31298829 .2979889 .36099244 .34799195 .38798524 .42099 .43400575 .42099 .5180054 .42099 .60502627 .33699037 .66503909 .24499512 .66503909 .1459961 .66503909 .067993167 .59202578 .067993167 .5010071 .067993167 .4670105 .07798767 .43299867 .10598755 .39898683 .116989139 .38598634 .117996219 .3849945 .18798828 .33599855 .09098816 .2908783 .040985109 .22380066 .040985109 .1506958 .040985109 .044555665 .14199829-.021484375 .24398804-.021484375 .35499574-.021484375 .44799806 .060577394 .44799806 .16572571V.1659851M.37998963 .5169983C.37998963 .45599366 .33599855 .40699769 .27799989 .375L.1619873 .45098878C.14898682 .45988465 .10899353 .48590089 .10899353 .5349426 .10899353 .59999087 .1769867 .641037 .24398804 .641037 .31599427 .641037 .37998963 .58898928 .37998963 .516922V.5169983M.4019928 .13360596C.4019928 .057556154 .32499696 .005508423 .24499512 .005508423 .1599884 .005996704 .08699036 .067993167 .08699036 .15098572 .08699036 .22898865 .14399719 .2919922 .20899964 .32199098L.32998658 .24299622C.35598756 .22599793 .4019928 .19499207 .4019928 .13398743V.13360596Z"/>
<path id="font_1_85" d="M.33099366-.2400055C.33099366-.23701477 .33099366-.23500061 .31399537-.21800232 .18899536-.0920105 .15699768 .09700012 .15699768 .25 .15699768 .42399598 .19499207 .59799197 .31799317 .72299197 .33099366 .7350006 .33099366 .7369995 .33099366 .73999026 .33099366 .746994 .32699586 .75 .32099916 .75 .31098939 .75 .22099304 .6819916 .1619873 .5549927 .11099243 .44499208 .09899902 .33399964 .09899902 .25 .09899902 .17199707 .10998535 .050994874 .16499329-.06201172 .22499085-.18501282 .31098939-.25 .32099916-.25 .32699586-.25 .33099366-.24700928 .33099366-.2400055Z"/>
<path id="font_1_28" d="M.48298646 .08912659V.14511109H.45799256V.08912659C.45799256 .03112793 .43299867 .025131226 .42199708 .025131226 .3889923 .025131226 .3849945 .070129398 .3849945 .07511902V.27508546C.3849945 .31707765 .3849945 .3560791 .34899903 .39312745 .30999757 .43223573 .2599945 .4482422 .21199036 .4482422 .12998963 .4482422 .06098938 .40115357 .06098938 .335083 .06098938 .30508424 .08099365 .28808595 .10699463 .28808595 .1349945 .28808595 .15299988 .30807496 .15299988 .33407594 .15299988 .3460846 .147995 .37908937 .101989749 .38008119 .1289978 .41519166 .17799378 .426239 .20999146 .426239 .25898744 .426239 .31599427 .38710023 .31599427 .29808045V.26107789C.2649994 .25808717 .19499207 .25508119 .13198853 .22509766 .056991579 .19110108 .03199768 .13911438 .03199768 .09512329 .03199768 .014251709 .1289978-.0107421879 .19198609-.0107421879 .2579956-.0107421879 .3039856 .029251099 .32299806 .07624817 .32699586 .036132814 .35398866-.005859375 .40098573-.005859375 .42199708-.005859375 .48298646 .008132935 .48298646 .08912659M.31599427 .14013672C.31599427 .04525757 .24398804 .011245728 .19898987 .011245728 .1499939 .011245728 .10899353 .04624939 .10899353 .09625244 .10899353 .15124512 .15098572 .23425293 .31599427 .24024964V.14013672Z"/>
<path id="font_1_86" d="M.2889862 .25C.2889862 .32798768 .27799989 .44898988 .22299195 .56199648 .16299439 .68499758 .07699585 .75 .066986087 .75 .06098938 .75 .056991579 .74598696 .056991579 .73999026 .056991579 .7369995 .056991579 .7350006 .07598877 .71699526 .17399597 .6179962 .23098755 .45899964 .23098755 .25 .23098755 .07899475 .19400025-.09700012 .069992069-.2230072 .056991579-.23500061 .056991579-.23701477 .056991579-.2400055 .056991579-.2460022 .06098938-.25 .066986087-.25 .07699585-.25 .16699219-.18200684 .22599793-.055007936 .2769928 .054992677 .2889862 .16600037 .2889862 .25Z"/>
<path id="font_1_83" d="M.6239929 .4967041C.6239929 .59465029 .5249939 .6826172 .3880005 .6826172H.034988405V.6516113H.05899048C.13598633 .6516113 .13798523 .64060977 .13798523 .6046295V.07795715C.13798523 .041992189 .13598633 .0309906 .05899048 .0309906H.034988405V0C.069992069 .0029907227 .14399719 .0029907227 .18199158 .0029907227 .21998596 .0029907227 .29499818 .0029907227 .32998658 0V.0309906H.30599977C.22898865 .0309906 .22698975 .041992189 .22698975 .07795715V.3157959H.3959961C.5159912 .3157959 .6239929 .39675904 .6239929 .4967041M.5209961 .4967041C.5209961 .4497223 .5209961 .34179688 .3619995 .34179688H.22399903V.6116333C.22399903 .64460757 .22599793 .6516113 .272995 .6516113H.3619995C.5209961 .6516113 .5209961 .54566958 .5209961 .4967041Z"/>
<path id="font_1_90" d="M.72698977-.010345459C.72698977-.00033569337 .72698977 .010650635 .71598818 .010650635 .70700076 .010650635 .70599368 .0026550294 .7049866-.0073394777 .69898989-.061340333 .6569977-.09133911 .6139984-.09133911 .5669861-.09133911 .5419922-.05734253 .5179901 .006652832 .6359863 .059570314 .72099307 .1876831 .72099307 .3387909 .72099307 .5429535 .56999209 .7050781 .3880005 .7050781 .20899964 .7050781 .055999757 .54496768 .055999757 .3387909 .055999757 .13664246 .20698548-.022460938 .3889923-.022460938 .41999818-.022460938 .45498658-.016464234 .48399354-.007461548 .49899293-.1023407 .5130005-.19433594 .60598757-.19433594 .70799258-.1945343 .72698977-.061538698 .72698977-.010528564V-.010345459M.62098696 .33866883C.62098696 .2605896 .60899356 .11946106 .5029907 .04147339 .48098756 .097457889 .44898988 .14746094 .3899994 .14746094 .33898927 .14746094 .30799867 .10446167 .30799867 .06347656 .30799867 .036468507 .32099916 .017471314 .32199098 .015472412 .2679901 .035461427 .1559906 .10845947 .1559906 .33866883 .1559906 .59898379 .29599 .68006899 .3880005 .68006899 .4850006 .6794586 .62098696 .5934601 .62098696 .3384552V.33866883M.47698976 .025497437C.44299317 .0065307619 .41099549 .002532959 .3889923 .002532959 .33799745 .002532959 .32998658 .048461915 .32998658 .06347656 .32998658 .09246826 .35099793 .12545777 .3899994 .12545777 .44400025 .12545777 .46598817 .083465579 .47698976 .025497437Z"/>
<path id="font_1_95" d="M.7319946 .08753967C.7319946 .09353638 .7319946 .104537967 .71899417 .104537967 .70799258 .104537967 .70799258 .09555054 .70700076 .08854675 .70098879 .017532349 .66600039-.00047302247 .6409912-.00047302247 .59199526-.00047302247 .58399966 .05053711 .56999209 .14355469L.5569916 .22355652C.5389862 .28756715 .48999024 .3205719 .43499757 .3395691 .5319977 .36357118 .6100006 .4245758 .6100006 .502594 .6100006 .5986023 .49598695 .6826172 .34899903 .6826172H.034988405V.6516113H.05899048C.13598633 .6516113 .13798523 .64060977 .13798523 .604599V.077545169C.13798523 .04197693 .13598633 .0309906 .05899048 .0309906H.034988405V0C.070999149 .0029907227 .14199829 .0029907227 .18099976 .0029907227 .21998596 .0029907227 .29100038 .0029907227 .32699586 0V.0309906H.30299378C.22599793 .0309906 .22399903 .04197693 .22399903 .077926639V.3305359H.33898927C.35499574 .3305359 .39698792 .3305359 .43199159 .29658509 .46998597 .26063539 .46998597 .22969055 .46998597 .16279602 .46998597 .09788513 .46998597 .05795288 .5109863 .019989014 .5519867-.016464234 .6069946-.022460938 .6369934-.022460938 .71499636-.022460938 .7319946 .059524537 .7319946 .087524417V.08753967M.5069885 .5025635C.5069885 .43354798 .48298646 .35253907 .33499146 .35253907H.22399903V.6116028C.22399903 .6345978 .22399903 .64660647 .24598694 .6496124 .2559967 .6516113 .2849884 .6516113 .30499269 .6516113 .394989 .6516113 .5069885 .6476135 .5069885 .5025635Z"/>
<path id="font_1_107" d="M.44898988 .17396546H.42399598C.4189911 .14398194 .4119873 .099990848 .4019928 .084991458 .394989 .07699585 .32899476 .07699585 .30699159 .07699585H.1269989L.23298645 .17996216C.3889923 .31803895 .44898988 .37210084 .44898988 .47216798 .44898988 .5860901 .35899354 .6660156 .23699951 .6660156 .12399292 .6660156 .049987794 .57411196 .049987794 .48516847 .049987794 .4291687 .099990848 .4291687 .102996829 .4291687 .11999512 .4291687 .15499878 .44117738 .15499878 .48217774 .15499878 .5081787 .13699341 .5341797 .101989749 .5341797 .09399414 .5341797 .09199524 .5341797 .08898926 .5331726 .11199951 .59806826 .1659851 .63500979 .22399903 .63500979 .31498719 .63500979 .35798646 .5541382 .35798646 .47216798 .35798646 .39196778 .30799867 .31297303 .25299073 .25097657L.06098938 .036987306C.049987794 .025985718 .049987794 .023986817 .049987794 0H.42099L.44898988 .17396546Z"/>
<path id="font_3_57" d="M.48399354 .16503906V.19602967H.38198854V.649765C.38198854 .669754 .38198854 .6767578 .36299134 .6767578 .35099793 .6767578 .34999085 .67575076 .34098817 .6617584L.0289917 .19602967V.16503906H.3019867V.07901001C.3019867 .041992189 .29899598 .0309906 .22399903 .0309906H.20199585V0C.2649994 .0029907227 .33499146 .0029907227 .34199525 .0029907227 .34700013 .0029907227 .4189911 .0029907227 .48199464 0V.0309906H.45999146C.3849945 .0309906 .38198854 .041992189 .38198854 .07901001V.16503906H.48399354M.30799867 .19602967H.06098938L.30799867 .56581118V.19602967Z"/>
<path id="font_3_121" d="M.47299195 .31976319C.47299195 .38682557 .46998597 .47288514 .43499757 .5479431 .3909912 .64201357 .31498719 .6660156 .25698854 .6660156 .19699097 .6660156 .12098694 .64201357 .07699585 .5459442 .04499817 .47688294 .039993287 .39582826 .039993287 .31976319 .039993287 .25471498 .041992189 .15765381 .084991458 .07858276 .13198853-.0064697267 .20999146-.022460938 .2559967-.022460938 .32099916-.022460938 .394989 .0055389406 .43699647 .097595218 .46699525 .1646576 .47299195 .23971558 .47299195 .31976319M.3869934 .33177186C.3869934 .2697296 .3869934 .18566895 .3769989 .12661743 .35598756 .012542725 .28199769 .002532959 .25698854 .002532959 .22698975 .002532959 .15499878 .016540528 .13598633 .12962342 .12599182 .18867493 .12599182 .2747345 .12599182 .33177186 .12599182 .39982606 .12599182 .47888185 .13798523 .53393557 .1579895 .6230011 .22200012 .64100649 .2559967 .64100649 .2939911 .64100649 .35699464 .62098696 .37599183 .5279236 .3869934 .47288514 .3869934 .39482118 .3869934 .33177186Z"/>
<path id="font_3_234" d="M.33499146 .5410156C.33499146 .6186981 .27198792 .6826172 .19299317 .6826172 .11399841 .6826172 .049987794 .6186981 .049987794 .5410156 .049987794 .46232606 .11399841 .39842225 .19299317 .39842225 .27198792 .39842225 .33499146 .46232606 .33499146 .5410156M.29299928 .5410156C.29299928 .48524476 .24798584 .4404297 .19299317 .4404297 .13699341 .4404297 .09199524 .48524476 .09199524 .5410156 .09199524 .5957947 .13699341 .64060977 .19299317 .64060977 .24798584 .64060977 .29299928 .5957947 .29299928 .5410156Z"/>
<path id="font_2_85" d="M.32499696-.24298096C.32499696-.23999024 .32499696-.23799134 .30799867-.22097779 .20799256-.11999512 .1519928 .045013429 .1519928 .24900818 .1519928 .44299317 .19898987 .60998538 .31498719 .72798159 .32499696 .73698428 .32499696 .73898318 .32499696 .74198916 .32499696 .74798586 .31999208 .75 .31599427 .75 .30299378 .75 .22099304 .6779938 .17199707 .5799866 .12098694 .47898866 .09799194 .37199403 .09799194 .24900818 .09799194 .16000366 .11199951 .041000368 .1639862-.06599426 .22299195-.18598938 .30499269-.25097657 .31599427-.25097657 .31999208-.25097657 .32499696-.24897766 .32499696-.24298096Z"/>
<path id="font_2_35" d="M.5079956 .21640015C.5079956 .34339906 .4139862 .44140626 .30299378 .44140626 .24798584 .44140626 .20098877 .4163971 .16699219 .3744049V.69433596L.027999878 .68333438V.6543274C.09599304 .6543274 .10398865 .6473236 .10398865 .5983124V.00022888184H.12599182L.1619873 .06523132C.18499756 .02822876 .22799683-.009765625 .2919922-.009765625 .40699769-.009765625 .5079956 .0872345 .5079956 .21626282V.21640015M.43199159 .21725464C.43199159 .1502533 .42199708 .10824585 .397995 .07223511 .37799073 .041229249 .33799745 .010223389 .28799439 .010223389 .23399353 .010223389 .19898987 .04522705 .18199158 .07223511 .16899109 .09324646 .16899109 .09724426 .16899109 .11424255V.32026673C.16899109 .33839417 .16899109 .34039308 .17999268 .35639955 .20399475 .39239503 .24798584 .42140199 .29699708 .42140199 .32699586 .42140199 .43199159 .4093933 .43199159 .21739197V.21725464Z"/>
<path id="font_2_86" d="M.28199769 .24900818C.28199769 .32499696 .27198792 .44898988 .21598816 .5649872 .15699768 .6849823 .07499695 .75 .06399536 .75 .05999756 .75 .054992677 .74798586 .054992677 .74198916 .054992677 .73898318 .054992677 .73698428 .07199097 .71998599 .17199707 .61898806 .22799683 .45399476 .22799683 .25 .22799683 .055999757 .18099976-.11099243 .06498718-.22898865 .054992677-.23799134 .054992677-.23999024 .054992677-.24298096 .054992677-.24897766 .05999756-.25097657 .06399536-.25097657 .07699585-.25097657 .15899658-.1789856 .20799256-.08099365 .25898744 .021011353 .28199769 .1289978 .28199769 .24900818Z"/>
<path id="font_1_46" d="M.70700076 .33580018C.70700076 .52568057 .57199099 .6826172 .40098573 .6826172H.034988405V.6516113H.05899048C.13598633 .6516113 .13798523 .64060977 .13798523 .6046295V.07795715C.13798523 .041992189 .13598633 .0309906 .05899048 .0309906H.034988405V0H.40098573C.56900027 0 .70700076 .1479187 .70700076 .33580018M.6069946 .33580018C.6069946 .22486878 .58799746 .16490174 .5519867 .11593628 .5319977 .08895874 .47499085 .0309906 .37399293 .0309906H.272995C.22599793 .0309906 .22399903 .037994386 .22399903 .07096863V.6116333C.22399903 .64460757 .22599793 .6516113 .272995 .6516113H.37298585C.43499757 .6516113 .5039978 .6296234 .5549927 .55867007 .59799197 .49969483 .6069946 .41375733 .6069946 .33580018Z"/>
<path id="font_1_49" d="M.6519928 .2579193H.6269989C.60198977 .10397339 .57899478 .0309906 .40699769 .0309906H.27398683C.22698975 .0309906 .22499085 .037994386 .22499085 .07098389V.33789063H.31498719C.4119873 .33789063 .4229889 .30589295 .4229889 .220932H.44799806V.48606874H.4229889C.4229889 .39994813 .4119873 .36888124 .31498719 .36888124H.22499085V.6087799C.22499085 .6416931 .22698975 .64868167 .27398683 .64868167H.40299989C.55599978 .64868167 .58299258 .59381106 .598999 .45507813H.6239929L.59599307 .6796875H.032989503V.64868167H.056991579C.13398743 .64868167 .13598633 .6377106 .13598633 .6017914V.07797241C.13598633 .041992189 .13398743 .0309906 .056991579 .0309906H.032989503V0H.6100006L.6519928 .2579193Z"/>
<path id="font_1_54" d="M.6100006 .45477296 .58200076 .6796875H.032989503V.64868167H.056991579C.13398743 .64868167 .13598633 .63768008 .13598633 .6016998V.07797241C.13598633 .041992189 .13398743 .0309906 .056991579 .0309906H.032989503V0C.067993167 .0029907227 .1459961 .0029907227 .18499756 .0029907227 .22599793 .0029907227 .31698609 .0029907227 .35299684 0V.0309906H.31999208C.22499085 .031188965 .22499085 .044189454 .22499085 .079193118V.3251953H.31098939C.40699769 .3251953 .4169922 .29318238 .4169922 .20819092H.44198609V.4731903H.4169922C.4169922 .38919068 .40699769 .3561859 .31098939 .3561859H.22499085V.6091919C.22499085 .64167788 .22698975 .64868167 .27398683 .64868167H.3939972C.5439911 .64868167 .56900027 .5926819 .58499148 .4546814L.6100006 .45477296Z"/>
<path id="font_1_82" d="M.4189911 0V.0309906H.3869934C.29699708 .0309906 .2939911 .041992189 .2939911 .07902527V.64012148C.2939911 .6640167 .2939911 .6660156 .2709961 .6660156 .20899964 .60227969 .12098694 .60227969 .08898926 .60227969V.57128909C.10899353 .57128909 .16799927 .57128909 .21998596 .5972748V.07902527C.21998596 .042999269 .21699524 .0309906 .1269989 .0309906H.09498596V0C.12998963 .0029907227 .21699524 .0029907227 .25698854 .0029907227 .29699708 .0029907227 .38398744 .0029907227 .4189911 0Z"/>
<path id="font_1_56" d="M.44898988 .20091248C.44898988 .31991578 .36698915 .41992188 .25898744 .41992188 .21099854 .41992188 .16799927 .4039154 .13198853 .36891175V.5641022C.1519928 .55778506 .18499756 .55078127 .21699524 .55078127 .33999635 .55078127 .4099884 .6418457 .4099884 .65493777 .4099884 .6609802 .40699769 .6660156 .3999939 .6660156 .3999939 .66607668 .39698792 .66607668 .3919983 .66308596 .37199403 .65408328 .32299806 .63378909 .2559967 .63378909 .21598816 .63409426 .16999817 .641098 .12298584 .6621094 .114990238 .6651001 .11099243 .6651001 .11099243 .6651001 .100997928 .66508486 .100997928 .657074 .100997928 .64108279V.3447113C.100997928 .3266449 .100997928 .31861878 .114990238 .31861878 .12199402 .31861878 .12399292 .32164 .12799073 .32765199 .13899231 .34371949 .17599488 .3979187 .25698854 .3979187 .30899049 .3979187 .33399964 .3517456 .34199525 .3336792 .35798646 .2965393 .3600006 .2574005 .3600006 .20721436 .3600006 .17218018 .3600006 .112197879 .33599855 .07032776 .31199647 .031448366 .2749939 .0055389406 .22898865 .0055389406 .1559906 .0055389406 .09899902 .05836487 .08198547 .1171875 .084991458 .11685181 .08799744 .115859989 .09899902 .115859989 .13198853 .115859989 .14898682 .14085388 .14898682 .16485596 .14898682 .18885803 .13198853 .21386719 .09899902 .21386719 .084991458 .21386719 .049987794 .2068634 .049987794 .16085816 .049987794 .07432556 .11898804-.022460938 .23098755-.022460938 .34700013-.022460938 .44898988 .07331848 .44898988 .20019531V.20091248Z"/>
<path id="font_1_51" d="M.45700074 .16764832C.45700074 .20367432 .44599916 .24871826 .4079895 .29074098 .3889923 .31176759 .37298585 .32176209 .30899049 .36180116 .3809967 .39881898 .42999269 .4508667 .42999269 .51690676 .42999269 .6089783 .34098817 .6660156 .25 .6660156 .1499939 .6660156 .068984989 .5919647 .068984989 .49890138 .068984989 .48088075 .070999149 .43585206 .11299133 .38882447 .12399292 .3768158 .16099549 .35179139 .18598938 .33477784 .12799073 .30575563 .041992189 .24971009 .041992189 .15063477 .041992189 .044555665 .14399719-.022460938 .24899292-.022460938 .3619995-.022460938 .45700074 .060577394 .45700074 .16764832M.38598634 .51690676C.38598634 .45986939 .34700013 .41183473 .2869873 .3768158L.16299439 .4568634C.116989139 .4868927 .11299133 .5209198 .11299133 .53793337 .11299133 .5989685 .17799378 .64100649 .24899292 .64100649 .32199098 .64100649 .38598634 .588974 .38598634 .51690676M.40699769 .13162232C.40699769 .05757141 .33198548 .0055389406 .25 .0055389406 .1639862 .0055389406 .09199524 .06758118 .09199524 .15063477 .09199524 .2086792 .12399292 .2727356 .20899964 .31976319L.33198548 .24171448C.3600006 .22268677 .40699769 .19267273 .40699769 .13162232Z"/>
<path id="font_2_106" d="M.44799806 .17103577C.44799806 .263031 .37399293 .33503724 .27799989 .35203553 .36499024 .37702943 .42099 .45002748 .42099 .5280304 .42099 .60702517 .33898927 .66503909 .24198914 .66503909 .14199829 .66503909 .067993167 .6040344 .067993167 .5310364 .067993167 .49121095 .09899902 .48321534 .11399841 .48321534 .1349945 .48321534 .15899658 .49821473 .15899658 .5282135 .15899658 .5602112 .1349945 .57421877 .11299133 .57421877 .10699463 .57421877 .10499573 .57421877 .101989749 .57321169 .13999939 .641037 .23399353 .641037 .23899842 .641037 .27198792 .641037 .33699037 .6260681 .33699037 .5282135 .33699037 .5092163 .33399964 .453125 .30499269 .41001893 .2749939 .3658905 .24099732 .36288453 .21398926 .36187745L.18399048 .35888673C.16699219 .35787965 .16299439 .35688783 .16299439 .34788514 .16299439 .33789063 .16799927 .33789063 .18598938 .33789063H.23199463C.31698609 .33789063 .35499574 .267807 .35499574 .17172241 .35499574 .04058838 .2869873 .005508423 .23799134 .005508423 .18998719 .005508423 .10798645 .028564454 .07899475 .09472656 .11099243 .08955383 .13999939 .107543949 .13999939 .14355469 .13999939 .17271424 .11898804 .1927185 .09098816 .1927185 .066986087 .1927185 .040985109 .1787262 .040985109 .14071656 .040985109 .051620485 .12998963-.021484375 .24099732-.021484375 .3600006-.021453858 .44799806 .06954956 .44799806 .17054749V.17103577Z"/>
<path id="font_2_107" d="M.43998719 .16799927H.41799928C.4149933 .15098572 .40699769 .09599304 .39698792 .07998657 .3899994 .070999149 .33299256 .070999149 .30299378 .070999149H.117996219C.14498902 .09399414 .20599365 .1579895 .23199463 .18199158 .38398744 .3217926 .43998719 .37374879 .43998719 .47270204 .43998719 .5878906 .34899903 .66503909 .23298645 .66503909 .116989139 .66503909 .04899597 .5658264 .04899597 .4797058 .04899597 .42871095 .09298706 .42871095 .09599304 .42871095 .116989139 .42871095 .14299011 .44371034 .14299011 .475708 .14299011 .5037079 .12399292 .5227051 .09599304 .5227051 .08699036 .5227051 .084991458 .5227051 .08198547 .521698 .100997928 .5899048 .15499878 .6360321 .21998596 .6360321 .30499269 .6360321 .35699464 .56481936 .35699464 .47270204 .35699464 .3877411 .30799867 .313797 .25099183 .24984741L.04899597 .023986817V0H.4139862L.43998719 .16799927Z"/>
<path id="font_2_43" d="M.4059906 .1191864C.4059906 .12817383 .39898683 .12817383 .3959961 .12817383 .3869934 .12817383 .38598634 .1251831 .3829956 .1131897 .36099244 .04222107 .30699159 .01222229 .25299073 .01222229 .19198609 .01222229 .11099243 .065200809 .11099243 .21713257 .11099243 .3831482 .19599915 .4242859 .24598694 .4242859 .28399659 .4242859 .33898927 .40924073 .3619995 .3701172 .34999085 .3701172 .31298829 .3701172 .31298829 .32911683 .31298829 .30511476 .32998658 .28811646 .35398866 .28811646 .3769989 .28811646 .3959961 .30210877 .3959961 .33111573 .3959961 .39819337 .32598878 .44628907 .24499512 .44628907 .12799073 .44628907 .034988405 .34210206 .034988405 .21614075 .034988405 .0881958 .1309967-.009765625 .24398804-.009765625 .37599183-.009765625 .4059906 .110183719 .4059906 .1191864Z"/>
</defs>
<path transform="matrix(1,0,0,-1.00003,27.839997,96.725559)" stroke-width=".3985" stroke-linecap="butt" stroke-miterlimit="10" stroke-linejoin="miter" fill="none" stroke="#000000" d="M0 0H198.42766L85.04042 85.04042Z"/>
<use data-text="A" xlink:href="#font_1_27" transform="matrix(9.9626,0,0,-9.962899,16.848,100.29266)"/>
<use data-text="B" xlink:href="#font_1_34" transform="matrix(9.9626,0,0,-9.962899,229.787,100.127658)"/>
<use data-text="C" xlink:href="#font_1_42" transform="matrix(9.9626,0,0,-9.962899,109.284,7.943886)"/>
<use data-text="7" xlink:href="#font_1_100" transform="matrix(9.9626,0,0,-9.962899,112.668,115.49512)"/>
<use data-text="." xlink:href="#font_1_88" transform="matrix(9.9626,0,0,-9.962899,117.6493,115.49512)"/>
<use data-text="4" xlink:href="#font_1_57" transform="matrix(9.9626,0,0,-9.962899,120.4189,115.49512)"/>
<use data-text="c" xlink:href="#font_1_43" transform="matrix(9.9626,0,0,-9.962899,128.70778,115.49512)"/>
<use data-text="m" xlink:href="#font_1_75" transform="matrix(9.9626,0,0,-9.962899,133.13118,115.49512)"/>
<use data-text="3" xlink:href="#font_1_106" transform="matrix(9.9626,0,0,-9.962899,1.2169952,57.412374)"/>
<use data-text="." xlink:href="#font_1_88" transform="matrix(9.9626,0,0,-9.962899,6.1982958,57.412374)"/>
<use data-text="6" xlink:href="#font_1_101" transform="matrix(9.9626,0,0,-9.962899,8.9678959,57.412374)"/>
<use data-text="c" xlink:href="#font_1_43" transform="matrix(9.9626,0,0,-9.962899,17.256775,57.412374)"/>
<use data-text="m" xlink:href="#font_1_75" transform="matrix(9.9626,0,0,-9.962899,21.680176,57.412374)"/>
<path transform="matrix(1,0,0,-1.00003,27.839997,96.725559)" stroke-width=".3985" stroke-linecap="butt" stroke-miterlimit="10" stroke-linejoin="miter" fill="none" stroke="#000000" d="M22.67752 0C22.67752 6.01332 20.28746 11.78342 16.03543 16.03543"/>
<use data-text="4" xlink:href="#font_2_57" transform="matrix(11.9552,0,0,-11.95556,56.638998,95.013507)"/>
<use data-text="0" xlink:href="#font_2_121" transform="matrix(11.9552,0,0,-11.95556,62.497045,95.013507)"/>
<use data-text="&#x00b0;" xlink:href="#font_2_234" transform="matrix(11.9552,0,0,-11.95556,68.35509,95.013507)"/>
<path transform="matrix(1,0,0,-1.00003,27.839997,96.725559)" stroke-width=".3985" stroke-linecap="butt" stroke-miterlimit="10" stroke-linejoin="miter" fill="none" stroke="#000000" d="M72.28444 73.70186C80.79198 68.78995 91.49715 69.91559 98.79736 76.4888"/>
<use data-text="8" xlink:href="#font_2_51" transform="matrix(11.9552,0,0,-11.95556,90.655,43.987974)"/>
<use data-text="0" xlink:href="#font_2_121" transform="matrix(11.9552,0,0,-11.95556,96.51305,43.987974)"/>
<use data-text="&#x00b0;" xlink:href="#font_2_234" transform="matrix(11.9552,0,0,-11.95556,102.37109,43.987974)"/>
<use data-text="(" xlink:href="#font_1_85" transform="matrix(9.9626,0,0,-9.962899,7.2999956,14.173073)"/>
<use data-text="a" xlink:href="#font_1_28" transform="matrix(9.9626,0,0,-9.962899,11.175446,14.173073)"/>
<use data-text=")" xlink:href="#font_1_86" transform="matrix(9.9626,0,0,-9.962899,16.156746,14.173073)"/>
<path transform="matrix(1,0,0,-1.00003,27.839997,96.725559)" stroke-width=".3985" stroke-linecap="butt" stroke-miterlimit="10" stroke-linejoin="miter" fill="none" stroke="#000000" d="M255.12128 0 348.66584 85.04042 411.02873 0Z"/>
<use data-text="P" xlink:href="#font_1_83" transform="matrix(9.9626,0,0,-9.962899,272.65699,100.127658)"/>
<use data-text="Q" xlink:href="#font_1_90" transform="matrix(9.9626,0,0,-9.962899,442.389,99.27063)"/>
<use data-text="R" xlink:href="#font_1_95" transform="matrix(9.9626,0,0,-9.962899,372.84,7.943886)"/>
<use data-text="2" xlink:href="#font_1_107" transform="matrix(9.9626,0,0,-9.962899,273.346,57.521379)"/>
<use data-text="." xlink:href="#font_1_88" transform="matrix(9.9626,0,0,-9.962899,278.3273,57.521379)"/>
<use data-text="4" xlink:href="#font_1_57" transform="matrix(9.9626,0,0,-9.962899,281.0969,57.521379)"/>
<use data-text="c" xlink:href="#font_1_43" transform="matrix(9.9626,0,0,-9.962899,289.38578,57.521379)"/>
<use data-text="m" xlink:href="#font_1_75" transform="matrix(9.9626,0,0,-9.962899,293.80918,57.521379)"/>
<use data-text="3" xlink:href="#font_1_106" transform="matrix(9.9626,0,0,-9.962899,347.94599,115.38512)"/>
<use data-text="." xlink:href="#font_1_88" transform="matrix(9.9626,0,0,-9.962899,352.92729,115.38512)"/>
<use data-text="3" xlink:href="#font_1_106" transform="matrix(9.9626,0,0,-9.962899,355.6969,115.38512)"/>
<use data-text="c" xlink:href="#font_1_43" transform="matrix(9.9626,0,0,-9.962899,363.98579,115.38512)"/>
<use data-text="m" xlink:href="#font_1_75" transform="matrix(9.9626,0,0,-9.962899,368.40919,115.38512)"/>
<path transform="matrix(1,0,0,-1.00003,27.839997,96.725559)" stroke-width=".3985" stroke-linecap="butt" stroke-miterlimit="10" stroke-linejoin="miter" fill="none" stroke="#000000" d="M396.85533 0C396.85533 4.66454 398.4997 9.18166 401.4978 12.7547"/>
<use data-text="4" xlink:href="#font_3_57" transform="matrix(8.9664,0,0,-8.966669,404.18699,91.18439)"/>
<use data-text="0" xlink:href="#font_3_121" transform="matrix(8.9664,0,0,-8.966669,408.79573,91.18439)"/>
<use data-text="&#x00b0;" xlink:href="#font_3_234" transform="matrix(8.9664,0,0,-8.966669,413.40443,91.18439)"/>
<use data-text="(" xlink:href="#font_2_85" transform="matrix(11.9552,0,0,-11.95556,260.98103,14.665092)"/>
<use data-text="b" xlink:href="#font_2_35" transform="matrix(11.9552,0,0,-11.95556,265.53596,14.665092)"/>
<use data-text=")" xlink:href="#font_2_86" transform="matrix(11.9552,0,0,-11.95556,272.03956,14.665092)"/>
<path transform="matrix(1,0,0,-1.00003,27.839997,96.725559)" stroke-width=".3985" stroke-linecap="butt" stroke-miterlimit="10" stroke-linejoin="miter" fill="none" stroke="#000000" d="M113.38724-113.38724H283.4681L184.25424-28.3468Z"/>
<path transform="matrix(1,0,0,-1.00003,27.839997,96.725559)" stroke-width=".3985" stroke-linecap="butt" stroke-miterlimit="10" stroke-linejoin="miter" fill="none" stroke="#000000" d="M184.25424-113.38724V-28.3468"/>
<use data-text="D" xlink:href="#font_1_46" transform="matrix(9.9626,0,0,-9.962899,130.096,213.51908)"/>
<use data-text="E" xlink:href="#font_1_49" transform="matrix(9.9626,0,0,-9.962899,314.828,213.50406)"/>
<use data-text="F" xlink:href="#font_1_54" transform="matrix(9.9626,0,0,-9.962899,208.841,121.5533)"/>
<use data-text="1" xlink:href="#font_1_82" transform="matrix(9.9626,0,0,-9.962899,213.26599,228.77552)"/>
<use data-text="3" xlink:href="#font_1_106" transform="matrix(9.9626,0,0,-9.962899,218.24729,228.77552)"/>
<use data-text="c" xlink:href="#font_1_43" transform="matrix(9.9626,0,0,-9.962899,226.53618,228.77552)"/>
<use data-text="m" xlink:href="#font_1_75" transform="matrix(9.9626,0,0,-9.962899,230.95958,228.77552)"/>
<use data-text="2" xlink:href="#font_1_107" transform="matrix(9.9626,0,0,-9.962899,145.721,170.80278)"/>
<use data-text="5" xlink:href="#font_1_56" transform="matrix(9.9626,0,0,-9.962899,150.7023,170.80278)"/>
<use data-text="c" xlink:href="#font_1_43" transform="matrix(9.9626,0,0,-9.962899,158.99118,170.80278)"/>
<use data-text="m" xlink:href="#font_1_75" transform="matrix(9.9626,0,0,-9.962899,163.41458,170.80278)"/>
<use data-text="1" xlink:href="#font_1_82" transform="matrix(9.9626,0,0,-9.962899,221.28299,170.80278)"/>
<use data-text="." xlink:href="#font_1_88" transform="matrix(9.9626,0,0,-9.962899,226.26428,170.80278)"/>
<use data-text="5" xlink:href="#font_1_56" transform="matrix(9.9626,0,0,-9.962899,229.03389,170.80278)"/>
<use data-text="c" xlink:href="#font_1_43" transform="matrix(9.9626,0,0,-9.962899,237.32277,170.80278)"/>
<use data-text="m" xlink:href="#font_1_75" transform="matrix(9.9626,0,0,-9.962899,241.74617,170.80278)"/>
<use data-text="2" xlink:href="#font_1_107" transform="matrix(9.9626,0,0,-9.962899,272.30799,170.80278)"/>
<use data-text="." xlink:href="#font_1_88" transform="matrix(9.9626,0,0,-9.962899,277.2893,170.80278)"/>
<use data-text="8" xlink:href="#font_1_51" transform="matrix(9.9626,0,0,-9.962899,280.0589,170.80278)"/>
<use data-text="c" xlink:href="#font_1_43" transform="matrix(9.9626,0,0,-9.962899,288.34779,170.80278)"/>
<use data-text="m" xlink:href="#font_1_75" transform="matrix(9.9626,0,0,-9.962899,292.77119,170.80278)"/>
<path transform="matrix(1,0,0,-1.00003,27.839997,96.725559)" stroke-width=".3985" stroke-linecap="butt" stroke-miterlimit="10" stroke-linejoin="miter" fill="none" stroke="#000000" d="M141.73404-113.38724C141.73404-105.2863 137.41072-97.79817 130.39528-93.74788"/>
<use data-text="3" xlink:href="#font_2_106" transform="matrix(11.9552,0,0,-11.95556,175.696,208.40392)"/>
<use data-text="2" xlink:href="#font_2_107" transform="matrix(11.9552,0,0,-11.95556,181.55405,208.40392)"/>
<use data-text="&#x00b0;" xlink:href="#font_2_234" transform="matrix(11.9552,0,0,-11.95556,187.4121,208.40392)"/>
<use data-text="(" xlink:href="#font_2_85" transform="matrix(11.9552,0,0,-11.95556,119.898998,156.40335)"/>
<use data-text="c" xlink:href="#font_2_43" transform="matrix(11.9552,0,0,-11.95556,124.453929,156.40335)"/>
<use data-text=")" xlink:href="#font_2_86" transform="matrix(11.9552,0,0,-11.95556,129.65445,156.40335)"/>
</svg>
