<svg xmlns="http://www.w3.org/2000/svg" xmlns:xlink="http://www.w3.org/1999/xlink" xmlns:inkscape="http://www.inkscape.org/namespaces/inkscape" version="1.1" width="167" height="103" viewBox="0 0 167 103">
<defs>
<path id="font_1_83" d="M.72099307 .49064637C.72099307 .6005707 .621994 .6855469 .45599366 .6855469H.038986207V.63853457H.14698792V.04699707H.038986207V0C.07699585 .0029907227 .1749878 .0029907227 .21798706 .0029907227 .26098634 .0029907227 .35899354 .0029907227 .39698792 0V.04699707H.2889862V.30177308H.46598817C.6049957 .30177308 .72099307 .37374879 .72099307 .49064637M.56799319 .49064637C.56799319 .41970826 .56799319 .34277345 .4169922 .34277345H.2829895V.63853457H.41799928C.56799319 .63853457 .56799319 .56259158 .56799319 .49064637Z"/>
<path id="font_1_80" d="M.798996 .33924867C.798996 .5552521 .6539917 .6972656 .43199159 .6972656 .20298767 .6972656 .06399536 .5492554 .06399536 .33924867 .06399536 .13224793 .20399475-.0107421879 .43099977-.0107421879 .6609955-.0107421879 .798996 .13424683 .798996 .33924867M.6459961 .3542633C.6459961 .28425599 .6419983 .19525147 .59999087 .12625122 .5549927 .053253175 .4850006 .03125 .43099977 .03125 .37199403 .03125 .29899598 .059249879 .2579956 .1352539 .22499085 .19725037 .21699524 .2682495 .21699524 .3542633 .21699524 .41825868 .21998596 .5032654 .2639923 .57125857 .30499269 .6322632 .37199403 .6572571 .43099977 .6572571 .49499513 .6572571 .56399539 .6292572 .60398867 .56326296 .6419983 .49925233 .6459961 .42225648 .6459961 .3542633Z"/>
<path id="font_1_76" d="M.8600006 .63853457V.6855469C.82199099 .6826172 .7649994 .6826172 .7259979 .6826172 .6839905 .6825409 .6319885 .6825409 .59098818 .6855469V.63853457H.6159973C.6339874 .63861086 .651001 .63760378 .6689911 .63560488 .69799807 .63261416 .69898989 .63160708 .69898989 .6096039V.2046051L.30099488 .6726074C.2899933 .6845398 .2889862 .6855469 .2679901 .6855469H.038986207V.63853457H.14698792V.075912479C.14698792 .05392456 .1459961 .05291748 .117996219 .049926759 .09399414 .04699707 .09199524 .04699707 .06399536 .04699707H.038986207V0C.07699585 .0029296876 .13398743 .0029296876 .17298889 .0029296876 .21499634 .0029907227 .2669983 .0029907227 .30799867 0V.04699707H.2829895C.2649994 .046920778 .24798584 .047927858 .22999573 .049926759 .20098877 .05291748 .19999695 .05392456 .19999695 .075927738V.5989227L.69799807 .012924194C.70799258 .0009918213 .70899966 0 .72499087 0 .7519989 0 .7519989 .008987427 .7519989 .03199768V.60961917C.7519989 .63160708 .7529907 .63261416 .7809906 .63560488 .8049927 .63853457 .8069916 .63853457 .83499148 .63853457H.8600006Z"/>
<path id="font_2_85" d="M.33099366-.2400055C.33099366-.23701477 .33099366-.23500061 .31399537-.21800232 .18899536-.0920105 .15699768 .09700012 .15699768 .25 .15699768 .42399598 .19499207 .59799197 .31799317 .72299197 .33099366 .7350006 .33099366 .7369995 .33099366 .73999026 .33099366 .746994 .32699586 .75 .32099916 .75 .31098939 .75 .22099304 .6819916 .1619873 .5549927 .11099243 .44499208 .09899902 .33399964 .09899902 .25 .09899902 .17199707 .10998535 .050994874 .16499329-.06201172 .22499085-.18501282 .31098939-.25 .32099916-.25 .32699586-.25 .33099366-.24700928 .33099366-.2400055Z"/>
<path id="font_2_28" d="M.48298646 .08912659V.14511109H.45799256V.08912659C.45799256 .03112793 .43299867 .025131226 .42199708 .025131226 .3889923 .025131226 .3849945 .070129398 .3849945 .07511902V.27508546C.3849945 .31707765 .3849945 .3560791 .34899903 .39312745 .30999757 .43223573 .2599945 .4482422 .21199036 .4482422 .12998963 .4482422 .06098938 .40115357 .06098938 .335083 .06098938 .30508424 .08099365 .28808595 .10699463 .28808595 .1349945 .28808595 .15299988 .30807496 .15299988 .33407594 .15299988 .3460846 .147995 .37908937 .101989749 .38008119 .1289978 .41519166 .17799378 .426239 .20999146 .426239 .25898744 .426239 .31599427 .38710023 .31599427 .29808045V.26107789C.2649994 .25808717 .19499207 .25508119 .13198853 .22509766 .056991579 .19110108 .03199768 .13911438 .03199768 .09512329 .03199768 .014251709 .1289978-.0107421879 .19198609-.0107421879 .2579956-.0107421879 .3039856 .029251099 .32299806 .07624817 .32699586 .036132814 .35398866-.005859375 .40098573-.005859375 .42199708-.005859375 .48298646 .008132935 .48298646 .08912659M.31599427 .14013672C.31599427 .04525757 .24398804 .011245728 .19898987 .011245728 .1499939 .011245728 .10899353 .04624939 .10899353 .09625244 .10899353 .15124512 .15098572 .23425293 .31599427 .24024964V.14013672Z"/>
<path id="font_2_86" d="M.2889862 .25C.2889862 .32798768 .27799989 .44898988 .22299195 .56199648 .16299439 .68499758 .07699585 .75 .066986087 .75 .06098938 .75 .056991579 .74598696 .056991579 .73999026 .056991579 .7369995 .056991579 .7350006 .07598877 .71699526 .17399597 .6179962 .23098755 .45899964 .23098755 .25 .23098755 .07899475 .19400025-.09700012 .069992069-.2230072 .056991579-.23500061 .056991579-.23701477 .056991579-.2400055 .056991579-.2460022 .06098938-.25 .066986087-.25 .07699585-.25 .16699219-.18200684 .22599793-.055007936 .2769928 .054992677 .2889862 .16600037 .2889862 .25Z"/>
<path id="font_3_118" d="M.4039917-.0027770997 .5009918 .38739015C.5049896 .4013977 .5049896 .4033966 .5049896 .4073944 .5049896 .4223938 .49299623 .43139649 .47999574 .43139649 .45199586 .43139649 .44499208 .40638734 .44099427 .39237977L.36799623 .09725952C.3600006 .06625366 .31999208 .010223389 .2639923 .010223389 .21899414 .010223389 .20999146 .055252077 .20999146 .088256839 .20999146 .14828491 .24499512 .24333191 .2679901 .3073578 .27598573 .33036805 .2809906 .34336854 .2809906 .3633728 .2809906 .4033966 .25698854 .44140626 .20799256 .44140626 .116989139 .44140626 .08299255 .29434205 .08299255 .28834535 .08299255 .27934266 .09199524 .27934266 .09700012 .27934266 .10899353 .27934266 .10998535 .28233338 .11399841 .29634095 .12199402 .32635499 .147995 .42140199 .20599365 .42140199 .21798706 .42140199 .22898865 .4163971 .22898865 .39237977 .22898865 .3673706 .21899414 .34136964 .19799805 .28334046 .1659851 .19430542 .15299988 .14328003 .15299988 .104263309 .15299988 .014221191 .21199036-.009765625 .26098634-.009765625 .3039856-.009765625 .33399964 .01222229 .34999085 .02822876 .33999635-.01576233 .32798768-.066711429 .29299928-.11766052 .26098634-.16262818 .22499085-.18359375 .18998719-.18359375 .16299439-.18359375 .1349945-.17060852 .12799073-.13365174 .17599488-.13182068 .1769867-.08882141 .1769867-.08882141 .1769867-.07382202 .1659851-.059814454 .1459961-.059814454 .13899231-.059814454 .09899902-.061813356 .09899902-.11982727 .09899902-.1706543 .13798523-.20359802 .18899536-.20359802 .29299928-.20359802 .37998963-.0978241 .4039917-.002822876V-.0027770997Z"/>
<path id="font_3_116" d="M.47299195 .14334107C.47299195 .15232849 .46398927 .15232849 .45999146 .15232849 .44799806 .15232849 .44799806 .15032959 .44299317 .13334656 .42199708 .06538391 .375 .010314941 .32598878 .010314941 .28399659 .010314941 .27799989 .056381227 .27799989 .0743866 .27799989 .09538269 .28599549 .12734986 .2979889 .17631531L.32099916 .26722718C.33999635 .34417726 .3600006 .42126466 .41999818 .42126466 .4249878 .42126466 .44599916 .42126466 .46398927 .40716554 .44198609 .40116883 .42900086 .3831787 .42900086 .36317445 .42900086 .34217835 .44499208 .33416749 .45999146 .33416749 .47799684 .33416749 .5049896 .34716798 .5049896 .3831787 .5049896 .43032838 .44999696 .44140626 .42099 .44140626 .37098695 .44140626 .33999635 .400177 .32499696 .37316896 .31399537 .4061737 .2829895 .44140626 .23298645 .44140626 .1329956 .44140626 .08299255 .30819703 .08299255 .288208 .08299255 .27922059 .09199524 .27922059 .09700012 .27922059 .10798645 .27922059 .10899353 .28121949 .11399841 .2972107 .13699341 .37316896 .18499756 .42126466 .23098755 .42126466 .2539978 .42126466 .2769928 .40516664 .2769928 .35717774 .2769928 .33416749 .2669983 .2942047 .25898744 .26322938L.21798706 .09838867C.20698548 .06437683 .18199158 .010314941 .13699341 .010314941 .13198853 .010314941 .10998535 .010314941 .09199524 .024383545 .12098694 .03237915 .12799073 .056381227 .12799073 .06838989 .12799073 .087387088 .11399841 .09738159 .09700012 .09738159 .070999149 .09738159 .050994874 .07537842 .050994874 .04838562 .050994874 .008300781 .09498596-.009765625 .1349945-.009765625 .17599488-.009765625 .20799256 .017349244 .22999573 .059387208 .23799134 .03538513 .2639923-.009765625 .32398988-.009765625 .42199708-.009765625 .47299195 .12336731 .47299195 .14334107Z"/>
<path id="font_4_106" d="M.44799806 .17103577C.44799806 .263031 .37399293 .33503724 .27799989 .35203553 .36499024 .37702943 .42099 .45002748 .42099 .5280304 .42099 .60702517 .33898927 .66503909 .24198914 .66503909 .14199829 .66503909 .067993167 .6040344 .067993167 .5310364 .067993167 .49121095 .09899902 .48321534 .11399841 .48321534 .1349945 .48321534 .15899658 .49821473 .15899658 .5282135 .15899658 .5602112 .1349945 .57421877 .11299133 .57421877 .10699463 .57421877 .10499573 .57421877 .101989749 .57321169 .13999939 .641037 .23399353 .641037 .23899842 .641037 .27198792 .641037 .33699037 .6260681 .33699037 .5282135 .33699037 .5092163 .33399964 .453125 .30499269 .41001893 .2749939 .3658905 .24099732 .36288453 .21398926 .36187745L.18399048 .35888673C.16699219 .35787965 .16299439 .35688783 .16299439 .34788514 .16299439 .33789063 .16799927 .33789063 .18598938 .33789063H.23199463C.31698609 .33789063 .35499574 .267807 .35499574 .17172241 .35499574 .04058838 .2869873 .005508423 .23799134 .005508423 .18998719 .005508423 .10798645 .028564454 .07899475 .09472656 .11099243 .08955383 .13999939 .107543949 .13999939 .14355469 .13999939 .17271424 .11898804 .1927185 .09098816 .1927185 .066986087 .1927185 .040985109 .1787262 .040985109 .14071656 .040985109 .051620485 .12998963-.021484375 .24099732-.021484375 .3600006-.021453858 .44799806 .06954956 .44799806 .17054749V.17103577Z"/>
<path id="font_4_101" d="M.44799806 .2036438C.44799806 .33665467 .35499574 .42578126 .25498963 .42578126 .1659851 .42578126 .1329956 .34864808 .12298584 .3206482V.34765626C.12298584 .60061648 .24598694 .640625 .2999878 .640625 .33599855 .6405945 .37199403 .62960818 .3909912 .5996094 .3789978 .59962466 .34098817 .59962466 .34098817 .55862429 .34098817 .53660586 .35598756 .51760867 .38198854 .51760867 .40699769 .51760867 .42399598 .53260806 .42399598 .56159976 .42399598 .6137543 .38598634 .66503909 .29899598 .66503909 .17298889 .66503909 .040985109 .53559878 .040985109 .31556703 .040985109 .040512086 .16099549-.021484375 .24598694-.021484375 .35499574-.021484375 .44799806 .073516849 .44799806 .20353699V.2036438M.3659973 .20452881C.3659973 .15351868 .3659973 .10852051 .34700013 .070510867 .32199098 .022506714 .28599549 .005508423 .24598694 .005508423 .18299866 .005508423 .15299988 .06150818 .14399719 .08251953 .1349945 .10852051 .125 .15753174 .125 .22753906 .125 .30664063 .16099549 .40577699 .25099183 .40577699 .30599977 .40577699 .33499146 .36872865 .34999085 .33467103 .3659973 .29762269 .3659973 .2475586 .3659973 .20452881Z"/>
<path id="font_4_234" d="M.31999208 .546875C.31999208 .6216736 .25898744 .6826172 .18399048 .6826172 .10798645 .6826172 .04798889 .6216736 .04798889 .546875 .04798889 .47206117 .10798645 .4111328 .18399048 .4111328 .25898744 .4111328 .31999208 .47206117 .31999208 .546875M.28399659 .546875C.28399659 .4920044 .23899842 .4471283 .18399048 .4471283 .12799073 .4471283 .083999637 .4920044 .083999637 .546875 .083999637 .60272219 .12799073 .64660647 .18399048 .64660647 .23899842 .64660647 .28399659 .60272219 .28399659 .546875Z"/>
</defs>
<path transform="matrix(1.00006,0,0,-1.00003,12.568855,96.316539)" stroke-width=".79701" stroke-linecap="butt" stroke-miterlimit="10" stroke-linejoin="miter" fill="none" stroke="#000000" d="M0 0H141.73404L56.69362 85.04042Z"/>
<use data-text="P" xlink:href="#font_1_83" transform="matrix(9.963197,0,0,-9.962899,1.2171784,99.73364)"/>
<use data-text="O" xlink:href="#font_1_80" transform="matrix(9.963197,0,0,-9.962899,157.83158,99.73364)"/>
<use data-text="N" xlink:href="#font_1_76" transform="matrix(9.963197,0,0,-9.962899,64.78198,7.7538759)"/>
<use data-text="(" xlink:href="#font_2_85" transform="matrix(9.963197,0,0,-9.962899,24.664582,13.764053)"/>
<use data-text="a" xlink:href="#font_2_28" transform="matrix(9.963197,0,0,-9.962899,28.54026,13.764053)"/>
<use data-text=")" xlink:href="#font_2_86" transform="matrix(9.963197,0,0,-9.962899,33.52186,13.764053)"/>
<use data-text="y" xlink:href="#font_3_118" transform="matrix(14.34706,0,0,-14.346631,27.316742,89.51233)"/>
<use data-text="x" xlink:href="#font_3_116" transform="matrix(14.34706,0,0,-14.346631,67.11612,25.704415)"/>
<path transform="matrix(1.00006,0,0,-1.00003,12.568855,96.316539)" stroke-width=".79701" stroke-linecap="butt" stroke-miterlimit="10" stroke-linejoin="miter" fill="none" stroke="#000000" d="M104.88309 31.18166V42.5202"/>
<path transform="matrix(1.00006,0,0,-1.00003,12.568855,96.316539)" stroke-width=".3985" stroke-linecap="butt" stroke-miterlimit="10" stroke-linejoin="miter" fill="none" stroke="#000000" d="M93.54454-5.66927V5.66927"/>
<path transform="matrix(1.00006,0,0,-1.00003,12.568855,96.316539)" stroke-width=".79701" stroke-linecap="butt" stroke-miterlimit="10" stroke-linejoin="miter" fill="none" stroke="#000000" d="M127.56062 0C127.56062 4.51811 128.91121 8.93556 131.43758 12.681"/>
<use data-text="3" xlink:href="#font_4_106" transform="matrix(14.34706,0,0,-14.346631,116.30007,92.561428)"/>
<use data-text="6" xlink:href="#font_4_101" transform="matrix(14.34706,0,0,-14.346631,123.33013,92.561428)"/>
<use data-text="&#x00b0;" xlink:href="#font_4_234" transform="matrix(14.34706,0,0,-14.346631,130.3602,92.561428)"/>
</svg>
