<svg xmlns="http://www.w3.org/2000/svg" xmlns:xlink="http://www.w3.org/1999/xlink" xmlns:inkscape="http://www.inkscape.org/namespaces/inkscape" version="1.1" width="174" height="151" viewBox="0 0 174 151">
<defs>
<path id="font_1_1" d="M.30099488 .119277957C.29599 .102264408 .29599 .1002655 .28199769 .08125305 .2599945 .053237916 .21598816 .010223389 .16899109 .010223389 .12799073 .010223389 .10499573 .04724121 .10499573 .10626221 .10499573 .1612854 .13598633 .2733307 .15499878 .3153534 .18899536 .38539125 .23599243 .42140199 .2749939 .42140199 .34098817 .42140199 .35398866 .33937074 .35398866 .33135987 .35398866 .33036805 .35099793 .3173523 .34999085 .3153534L.30099488 .119277957M.36499024 .37538148C.35398866 .4013977 .32699586 .44140626 .2749939 .44140626 .1619873 .44140626 .039993287 .29534913 .039993287 .14727783 .039993287 .04824829 .09799194-.009765625 .1659851-.009765625 .22099304-.009765625 .2679901 .033233644 .29599 .06625366 .30599977 .007232666 .35299684-.009765625 .3829956-.009765625 .41299439-.009765625 .43699647 .008224487 .45498658 .04423523 .47099305 .07824707 .4850006 .13926697 .4850006 .14326477 .4850006 .14826966 .48098756 .15226746 .47499085 .15226746 .46598817 .15226746 .46499635 .14726258 .46099855 .13226319 .44599916 .07324219 .4269867 .010223389 .38598634 .010223389 .35699464 .010223389 .35499574 .036239625 .35499574 .056243898 .35499574 .07923889 .35798646 .09025574 .36698915 .1292572 .37399293 .15426636 .3789978 .17626953 .3869934 .20527649 .42399598 .35533143 .43299867 .39134217 .43299867 .39733888 .43299867 .41133119 .42199708 .42233277 .40699769 .42233277 .375 .42233277 .36698915 .3873291 .36499024 .3753357V.37538148Z"/>
</defs>
<path transform="matrix(1.00002,0,0,-1.00002,87.33537,75.645198)" d="M85.04042 0 42.5202 73.64735H-42.5202L-85.04042 0-42.5202-73.64735H42.5202Z" fill="#87cefa"/>
<path transform="matrix(1.00002,0,0,-1.00002,87.33537,75.645198)" stroke-width=".79701" stroke-linecap="butt" stroke-miterlimit="10" stroke-linejoin="miter" fill="none" stroke="#1e90ff" d="M85.04042 0 42.5202 73.64735H-42.5202L-85.04042 0-42.5202-73.64735H42.5202Z"/>
<path transform="matrix(1.00002,0,0,-1.00002,87.33537,75.645198)" stroke-width=".3985" stroke-linecap="butt" stroke-dasharray="2.98883,2.98883" stroke-miterlimit="10" stroke-linejoin="miter" fill="none" stroke="#000000" d="M0 0V-74.26848"/>
<use data-text="a" xlink:href="#font_1_1" transform="matrix(14.346487,0,0,-14.346487,76.441158,115.869)"/>
<path transform="matrix(1.00002,0,0,-1.00002,87.33537,75.645198)" stroke-width=".79701" stroke-linecap="butt" stroke-miterlimit="10" stroke-linejoin="miter" fill="none" stroke="#000000" d="M0-66.61517H5.66927V-74.26848"/>
<path transform="matrix(1.00002,0,0,-1.00002,87.33537,75.645198)" d="M1.99255 0C1.99255 1.10046 1.10046 1.99255 0 1.99255-1.10046 1.99255-1.99255 1.10046-1.99255 0-1.99255-1.10046-1.10046-1.99255 0-1.99255 1.10046-1.99255 1.99255-1.10046 1.99255 0ZM0 0"/>
<path transform="matrix(1.00002,0,0,-1.00002,87.33537,75.645198)" stroke-width=".3985" stroke-linecap="butt" stroke-miterlimit="10" stroke-linejoin="miter" fill="none" stroke="#000000" d="M1.99255 0C1.99255 1.10046 1.10046 1.99255 0 1.99255-1.10046 1.99255-1.99255 1.10046-1.99255 0-1.99255-1.10046-1.10046-1.99255 0-1.99255 1.10046-1.99255 1.99255-1.10046 1.99255 0ZM0 0"/>
</svg>
