<svg xmlns="http://www.w3.org/2000/svg" xmlns:xlink="http://www.w3.org/1999/xlink" xmlns:inkscape="http://www.inkscape.org/namespaces/inkscape" version="1.1" width="174" height="162" viewBox="0 0 174 162">
<defs>
<path id="font_1_63" d="M.5209961 0V.0289917C.47099305 .0289917 .44599916 .0289917 .44499208 .059020997V.24320984C.44499208 .3363037 .44499208 .3643341 .42199708 .39637757 .3929901 .4353943 .34599305 .44140626 .31199647 .44140626 .22599793 .44140626 .18598938 .37634278 .17199707 .34532167H.17098999V.69433596L.03199768 .6826172V.6536102C.099990848 .6536102 .10798645 .64663699 .10798645 .59780886V.074035648C.10798645 .0289917 .09700012 .0289917 .03199768 .0289917V0C.057998659 .0019989014 .11199951 .0019989014 .13999939 .0019989014 .16899109 .0019989014 .22299195 .0019989014 .24899292 0V.0289917C.18499756 .0289917 .17298889 .0289917 .17298889 .074035648V.2602234C.17298889 .3653412 .24198914 .42140199 .3039856 .42140199 .3659973 .42140199 .37998963 .37034608 .37998963 .3092804V.074035648C.37998963 .0289917 .36898805 .0289917 .3039856 .0289917V0C.32998658 .0019989014 .38398744 .0019989014 .4119873 .0019989014 .44099427 .0019989014 .49499513 .0019989014 .5209961 0Z"/>
<path id="font_2_1" d="M.28799439 .64105227C.28799439 .664032 .28799439 .66503909 .2679901 .66503909 .24398804 .6380615 .19400025 .6012573 .09098816 .6012573V.5722656C.11399841 .5722656 .1639862 .5722656 .21899414 .59825137V.07701111C.21899414 .041000368 .21598816 .0289917 .12799073 .0289917H.09700012V0C.12399292 .0019989014 .22099304 .0019989014 .2539978 .0019989014 .2869873 .0019989014 .3829956 .0019989014 .4099884 0V.0289917H.3789978C.29100038 .0289917 .28799439 .041000368 .28799439 .07701111V.64105227Z"/>
<path id="font_2_2" d="M.36099244 .6508026C.36099244 .6697998 .36099244 .6748047 .34700013 .6748047 .33898927 .6748047 .33599855 .6748047 .32798768 .662796L.026992798 .19598389V.16699219H.2899933V.07598877C.2899933 .038986207 .28799439 .0289917 .21499634 .0289917H.19499207V0C.21798706 .0019989014 .29699708 .0019989014 .32499696 .0019989014 .35299684 .0019989014 .43299867 .0019989014 .45599366 0V.0289917H.43598939C.3639984 .0289917 .36099244 .038986207 .36099244 .07598877V.16699219H.46199037V.19598389H.36099244V.6508026M.29499818 .5728302V.19598389H.051986696L.29499818 .5728302Z"/>
<path id="font_1_43" d="M.4059906 .1191864C.4059906 .12817383 .39898683 .12817383 .3959961 .12817383 .3869934 .12817383 .38598634 .1251831 .3829956 .1131897 .36099244 .04222107 .30699159 .01222229 .25299073 .01222229 .19198609 .01222229 .11099243 .065200809 .11099243 .21713257 .11099243 .3831482 .19599915 .4242859 .24598694 .4242859 .28399659 .4242859 .33898927 .40924073 .3619995 .3701172 .34999085 .3701172 .31298829 .3701172 .31298829 .32911683 .31298829 .30511476 .32998658 .28811646 .35398866 .28811646 .3769989 .28811646 .3959961 .30210877 .3959961 .33111573 .3959961 .39819337 .32598878 .44628907 .24499512 .44628907 .12799073 .44628907 .034988405 .34210206 .034988405 .21614075 .034988405 .0881958 .1309967-.009765625 .24398804-.009765625 .37599183-.009765625 .4059906 .110183719 .4059906 .1191864Z"/>
<path id="font_1_75" d="M.79299929 0V.0289917C.7429962 .0289917 .71798709 .0289917 .71699526 .059051515V.24342346C.71699526 .3365631 .71699526 .36450196 .69400027 .39640809 .6649933 .4353943 .6179962 .44140626 .58399966 .44140626 .5009918 .44140626 .45899964 .38145448 .44299317 .3425598 .42900086 .41940309 .375 .44140626 .31199647 .44140626 .21499634 .44140626 .1769867 .35850526 .16899109 .338562H.16799927V.44140626L.03199768 .4303589V.4013672C.099990848 .4013672 .10798645 .39437867 .10798645 .34553529V.07408142C.10798645 .0289917 .09700012 .0289917 .03199768 .0289917V0C.057998659 .0019989014 .11199951 .0019989014 .13999939 .0019989014 .16899109 .0019989014 .22299195 .0019989014 .24899292 0V.0289917C.18499756 .0289917 .17298889 .0289917 .17298889 .07408142V.26046754C.17298889 .36547853 .24198914 .4213562 .3039856 .4213562 .3659973 .4213562 .37998963 .37045289 .37998963 .3095703V.07408142C.37998963 .0289917 .36898805 .0289917 .3039856 .0289917V0C.32998658 .0019989014 .38398744 .0019989014 .4119873 .0019989014 .44099427 .0019989014 .49499513 .0019989014 .5209961 0V.0289917C.45700074 .0289917 .44499208 .0289917 .44499208 .07408142V.26046754C.44499208 .36547853 .5139923 .4213562 .57598879 .4213562 .6380005 .4213562 .6519928 .37045289 .6519928 .3095703V.07408142C.6519928 .0289917 .6409912 .0289917 .57598879 .0289917V0C.60198977 .0019989014 .6559906 .0019989014 .6839905 .0019989014 .71299746 .0019989014 .7669983 .0019989014 .79299929 0Z"/>
<path id="font_3_107" d="M.44898988 .17396546H.42399598C.4189911 .14398194 .4119873 .099990848 .4019928 .084991458 .394989 .07699585 .32899476 .07699585 .30699159 .07699585H.1269989L.23298645 .17996216C.3889923 .31803895 .44898988 .37210084 .44898988 .47216798 .44898988 .5860901 .35899354 .6660156 .23699951 .6660156 .12399292 .6660156 .049987794 .57411196 .049987794 .48516847 .049987794 .4291687 .099990848 .4291687 .102996829 .4291687 .11999512 .4291687 .15499878 .44117738 .15499878 .48217774 .15499878 .5081787 .13699341 .5341797 .101989749 .5341797 .09399414 .5341797 .09199524 .5341797 .08898926 .5331726 .11199951 .59806826 .1659851 .63500979 .22399903 .63500979 .31498719 .63500979 .35798646 .5541382 .35798646 .47216798 .35798646 .39196778 .30799867 .31297303 .25299073 .25097657L.06098938 .036987306C.049987794 .025985718 .049987794 .023986817 .049987794 0H.42099L.44898988 .17396546Z"/>
<path id="font_3_121" d="M.45999146 .31976319C.45999146 .39982606 .45498658 .47988893 .41999818 .5539398 .37399293 .65000918 .2919922 .6660156 .25 .6660156 .18998719 .6660156 .116989139 .64001467 .07598877 .54693606 .04399109 .47789 .038986207 .39982606 .038986207 .31976319 .038986207 .24472046 .042999269 .15464783 .083999637 .07859802 .1269989-.0024719239 .19999695-.022460938 .24899292-.022460938 .30299378-.022460938 .3789978-.0014648438 .4229889 .09359741 .45498658 .16265869 .45999146 .2407074 .45999146 .31976319M.3769989 .3317871C.3769989 .25672914 .3769989 .18867493 .3659973 .12461853 .35099793 .029556275 .2939911-.00047302247 .24899292-.00047302247 .20999146-.00047302247 .15098572 .024551392 .1329956 .12062073 .12199402 .18066406 .12199402 .2727356 .12199402 .3317871 .12199402 .39582826 .12199402 .46188355 .12998963 .5159149 .14898682 .63500979 .22399903 .64401248 .24899292 .64401248 .28199769 .64401248 .34799195 .6259918 .36698915 .52693179 .3769989 .47088624 .3769989 .39482118 .3769989 .3317871Z"/>
<path id="font_3_43" d="M.4149933 .119140628C.4149933 .12911988 .40499879 .12911988 .4019928 .12911988 .3929901 .12911988 .3909912 .12512207 .3889923 .119140628 .3600006 .026229859 .29499818 .014251709 .2579956 .014251709 .20498657 .014251709 .116989139 .0572052 .116989139 .21801758 .116989139 .38093568 .19898987 .42323304 .2519989 .42323304 .26098634 .42323304 .32398988 .42222596 .35899354 .38594056 .31799317 .38293458 .31199647 .3529358 .31199647 .3399353 .31199647 .31393434 .32998658 .2939453 .35798646 .2939453 .38398744 .2939453 .4039917 .3109436 .4039917 .34094239 .4039917 .40911866 .32798768 .4482422 .25099183 .4482422 .12599182 .4482422 .033996583 .3399353 .033996583 .21601868 .033996583 .08816528 .1329956-.0107421879 .24899292-.0107421879 .3829956-.0107421879 .4149933 .10914612 .4149933 .119140628Z"/>
<path id="font_3_75" d="M.8129883 0V.0309906C.7609863 .0309906 .73599246 .0309906 .7350006 .061019899V.25221253C.7350006 .3383026 .7350006 .36932374 .70399478 .405365 .6899872 .42237855 .6569977 .4423828 .598999 .4423828 .5149994 .4423828 .47099305 .38233949 .45399476 .34429933 .43998719 .43138124 .3659973 .4423828 .32099916 .4423828 .24798584 .4423828 .20098877 .39935304 .17298889 .33729554V.4423828L.03199768 .43066407V.3996582C.101989749 .3996582 .10998535 .39266969 .10998535 .34370423V.07595825C.10998535 .0309906 .09899902 .0309906 .03199768 .0309906V0L.14498902 .0029907227 .25698854 0V.0309906C.18998719 .0309906 .1789856 .0309906 .1789856 .07595825V.25978089C.1789856 .36431886 .25 .42037965 .31399537 .42037965 .3769989 .42037965 .3880005 .36631776 .3880005 .30926515V.076034549C.3880005 .0309906 .3769989 .0309906 .30999757 .0309906V0L.4229889 .0029907227 .5349884 0V.0309906C.46798707 .0309906 .45700074 .0309906 .45700074 .076034549V.2602234C.45700074 .36431886 .5279999 .42037965 .59199526 .42037965 .6549988 .42037965 .66600039 .36631776 .66600039 .30926515V.076034549C.66600039 .0309906 .6549988 .0309906 .58799746 .0309906V0L.70098879 .0029907227 .8129883 0Z"/>
</defs>
<path transform="matrix(1.00002,0,0,-1,87.33537,75.645008)" stroke-width=".79701" stroke-linecap="butt" stroke-miterlimit="10" stroke-linejoin="miter" fill="none" stroke="#000000" d="M85.04042 0 42.5202 73.64735H-42.5202L-85.04042 0-42.5202-73.64735H42.5202Z"/>
<use data-text="h" xlink:href="#font_1_63" transform="matrix(14.346487,0,0,-14.3462,83.4333,72.125)"/>
<path transform="matrix(1.00002,0,0,-1,87.33537,75.645008)" stroke-width=".3985" stroke-linecap="butt" stroke-dasharray="2.98883,2.98883" stroke-miterlimit="10" stroke-linejoin="miter" fill="none" stroke="#000000" d="M0 0V-74.26848"/>
<use data-text="1" xlink:href="#font_2_1" transform="matrix(14.346487,0,0,-14.3462,47.14357,117.33)"/>
<use data-text="4" xlink:href="#font_2_2" transform="matrix(14.346487,0,0,-14.3462,54.158998,117.33)"/>
<use data-text="c" xlink:href="#font_1_43" transform="matrix(14.346487,0,0,-14.3462,65.86896,117.33)"/>
<use data-text="m" xlink:href="#font_1_75" transform="matrix(14.346487,0,0,-14.3462,72.10968,117.33)"/>
<path transform="matrix(1.00002,0,0,-1,87.33537,75.645008)" stroke-width=".79701" stroke-linecap="butt" stroke-miterlimit="10" stroke-linejoin="miter" fill="none" stroke="#000000" d="M0-66.61517H5.66927V-74.26848"/>
<use data-text="2" xlink:href="#font_3_107" transform="matrix(9.962799,0,0,-9.9626,80.00323,160.268)"/>
<use data-text="0" xlink:href="#font_3_121" transform="matrix(9.962799,0,0,-9.9626,84.98461,160.268)"/>
<use data-text="c" xlink:href="#font_3_43" transform="matrix(9.962799,0,0,-9.9626,93.28362,160.268)"/>
<use data-text="m" xlink:href="#font_3_75" transform="matrix(9.962799,0,0,-9.9626,97.707118,160.268)"/>
<path transform="matrix(1.00002,0,0,-1,87.33537,75.645008)" stroke-width=".79701" stroke-linecap="butt" stroke-miterlimit="10" stroke-linejoin="miter" fill="none" stroke="#000000" d="M1.99255 0C1.99255 1.10046 1.10046 1.99255 0 1.99255-1.10046 1.99255-1.99255 1.10046-1.99255 0-1.99255-1.10046-1.10046-1.99255 0-1.99255 1.10046-1.99255 1.99255-1.10046 1.99255 0ZM0 0"/>
</svg>
