<svg xmlns="http://www.w3.org/2000/svg" xmlns:xlink="http://www.w3.org/1999/xlink" xmlns:inkscape="http://www.inkscape.org/namespaces/inkscape" version="1.1" width="248" height="152" viewBox="0 0 248 152">
<defs>
<path id="font_1_104" d="M.7789917 .4308777 .7569885 .6738281H.06498718L.042999269 .4308777H.09399414C.10398865 .5418396 .11299133 .6248169 .2599945 .6248169H.33898927V.04899597H.18598938V0C.22999573 .0029907227 .3600006 .0029907227 .4119873 .0029907227 .46398927 .0029907227 .59298709 .0029907227 .6369934 0V.04899597H.48399354V.6248169H.5629883C.70999148 .6248169 .71798709 .5398407 .7279968 .4308777H.7789917Z"/>
<path id="font_1_96" d="M.45498658 .36618043C.45498658 .41719056 .40299989 .4501953 .34399415 .4501953 .27398683 .4501953 .23098755 .39918519 .20899964 .34118653H.20799256V.4501953L.040985109 .4423828V.39337159C.100997928 .39337159 .10899353 .39337159 .10899353 .3543396V.04899597H.040985109V0L.16899109 .0029907227C.19400025 .0029907227 .2519989 .0029907227 .30499269 0V.04899597H.21998596V.21818543C.21998596 .29125978 .24699402 .40737916 .34399415 .41036988 .33299256 .39898683 .32798768 .38198854 .32798768 .3659973 .32798768 .32199098 .36299134 .3019867 .3909912 .3019867 .4229889 .3019867 .45498658 .32398988 .45498658 .3659973V.36618043Z"/>
<path id="font_1_66" d="M.2919922 0V.04899597H.23098755V.4501953L.054992677 .4423828V.39337159C.11299133 .39337159 .11999512 .39337159 .11999512 .3543396V.04899597H.051986696V0C.11898804 .0019989014 .13198853 .0029907227 .17399597 .0029907227 .22299195 .0029907227 .23599243 .0019989014 .2919922 0M.24198914 .6053314C.24198914 .65234377 .20399475 .68434146 .1639862 .68434146 .12199402 .68434146 .085998538 .6503296 .085998538 .6063385 .085998538 .55934146 .12399292 .52734377 .1639862 .52734377 .20599365 .52734377 .24198914 .56134036 .24198914 .6053314Z"/>
<path id="font_1_28" d="M.56900027 .025131226C.56900027 .0491333 .5529938 .0491333 .54299929 .0491333 .47898866 .050125123 .47898866 .060134889 .47898866 .08413696V.29812623C.47898866 .38612367 .40699769 .453125 .25299073 .453125 .19599915 .453125 .067993167 .45111085 .067993167 .3591156 .067993167 .31411744 .101989749 .29312135 .1329956 .29312135 .16699219 .29312135 .19799805 .3171234 .19799805 .35812379 .19799805 .38711549 .18099976 .40411378 .17799378 .40711976 .18798828 .40911866 .21199036 .41311646 .24899292 .41311646 .32099916 .41311646 .3619995 .37712098 .3619995 .29812623V.26612855C.19599915 .26612855 .027999878 .22312927 .027999878 .11213684 .027999878 .013137817 .15299988-.005859375 .22499085-.005859375 .30099488-.005859375 .35299684 .027130127 .37998963 .0741272 .37998963 .04798889 .37998963 0 .4869995 0H.5359955C.5549927 0 .56900027 0 .56900027 .024993897V.025131226M.3619995 .13899231C.3619995 .033996583 .24598694 .033996583 .24198914 .033996583 .19099427 .033996583 .14898682 .066986087 .14898682 .11199951 .14898682 .14498902 .16699219 .22299195 .3619995 .23199463V.13899231Z"/>
<path id="font_1_77" d="M.6299896-.0002746582V.048721315H.56199648V.30471803C.56199648 .4237213 .48999024 .4497223 .40299989 .4497223 .27999879 .4497223 .23098755 .35972596 .22399903 .34472657H.22299195V.4497223L.049987794 .44172669V.39271546C.10998535 .39271546 .117996219 .39271546 .117996219 .353714V.048721315H.049987794V-.0002746582L.17599488 .0027160645 .30299378-.0002746582V.048721315H.23498535V.25372315C.23498535 .36572267 .32699586 .40971376 .3869934 .40971376 .4249878 .40971376 .44499208 .38871766 .44499208 .3137207V.048721315H.3769989V-.0002746582L.5029907 .0027160645 .6299896-.0002746582Z"/>
<path id="font_1_59" d="M.57499697 .39517213C.57499697 .42118836 .5549927 .45619203 .5089874 .45619203 .45999146 .45619203 .41799928 .43218995 .39898683 .41818238 .35699464 .44319154 .31098939 .4501953 .2630005 .4501953 .10998535 .4501953 .057998659 .36715699 .057998659 .30212403 .057998659 .24708557 .09199524 .21107483 .10998535 .19606018 .08898926 .17304993 .07699585 .13902283 .07699585 .10900879 .07699585 .06599426 .09799194 .031967164 .11898804 .012954712 .042999269-.008056641 .032989503-.051071168 .032989503-.0730896 .032989503-.13311768 .101989749-.20114136 .29499818-.20114136 .46998597-.2010498 .55799868-.14604187 .55799868-.0700531 .55799868-.03504944 .54499819 .026947022 .47599793 .05895996 .41799928 .08496094 .36499024 .08496094 .2659912 .08496094H.21598816C.18399048 .08496094 .16999817 .08496094 .15299988 .09802246 .13798523 .111083988 .12998963 .12817383 .12998963 .14828491 .12998963 .1683197 .13798523 .17930603 .13798523 .17930603 .1749878 .16030884 .21899414 .15332031 .2630005 .15332031 .41600038 .15332031 .46798707 .23631287 .46798707 .3013153 .46798707 .34231568 .44898988 .37532044 .42799378 .39631654 .45498658 .41018678 .47499085 .41218568 .48799134 .41418458 .4869995 .41018678 .4850006 .40419007 .4850006 .39419557 .4850006 .36721803 .5059967 .3492279 .5299988 .3492279 .5519867 .3492279 .57499697 .36521913 .57499697 .39520265V.39517213M.35299684 .3022461C.35299684 .25727845 .35299684 .1933136 .2630005 .1933136 .17298889 .1933136 .17298889 .25727845 .17298889 .30125428 .17298889 .34622193 .17298889 .41018678 .2630005 .41018678 .35299684 .41018678 .35299684 .34622193 .35299684 .3022461M.46899415-.07408142C.46899415-.10610962 .43199159-.16113281 .29599-.16113281 .1639862-.16113281 .12199402-.1111145 .12199402-.07208252 .12199402-.014053345 .18598938-.014053345 .20098877-.014053345H.32199098C.35299684-.014007568 .46899415-.014007568 .46899415-.07400513V-.07408142Z"/>
<path id="font_1_109" d="M.6299896 0V.04899597C.56999209 .04899597 .56199648 .04899597 .56199648 .088012699V.4501953L.3769989 .4423828V.39337159C.43699647 .39337159 .44499208 .39337159 .44499208 .35437013V.16433716C.44499208 .08433533 .3929901 .03413391 .31599427 .03413391 .23899842 .03413391 .23498535 .056259157 .23498535 .10932922V.4501953L.049987794 .4423828V.39337159C.10998535 .39337159 .117996219 .39337159 .117996219 .35437013V.12333679C.117996219 .014129639 .20399475-.005859375 .30099488-.005859375 .33198548-.005859375 .3999939-.005859375 .45098878 .06933594V-.005859375L.6299896 0Z"/>
<path id="font_1_72" d="M.29899598 0V.04899597H.23098755V.69433596L.051986696 .6855469V.63653567C.11199951 .63653567 .11999512 .63653567 .11999512 .5975647V.04899597H.051986696V0L.1749878 .0029907227 .29899598 0Z"/>
<path id="font_1_55" d="M.45098878 .6111908C.45098878 .65615847 .4119873 .70014956 .33399964 .70014956 .22898865 .70014956 .12098694 .65515139 .12098694 .5432434V.44433595H.04399109V.3953247H.12098694V.04899597H.052993776V0L.18099976 .0029907227C.20599365 .0029907227 .2639923 .0029907227 .31698609 0V.04899597H.23199463V.3953247H.35099793V.44433595H.22599793V.5432434C.22599793 .65216067 .3039856 .66015627 .32899476 .66015627 .33198548 .66015627 .34199525 .65815737 .34199525 .65815737 .34199525 .65815737 .34199525 .65615847 .33999635 .65415957 .32899476 .6411438 .32398988 .6271515 .32398988 .611145 .32398988 .56915286 .35798646 .54714968 .3869934 .54714968 .41999818 .54714968 .45098878 .57115176 .45098878 .611145V.6111908Z"/>
<path id="font_1_43" d="M.49198915 .11613464C.49198915 .13212586 .47698976 .13212586 .46598817 .13212586 .44599916 .13212586 .44599916 .13113404 .43798829 .11312866 .41799928 .06512451 .37298585 .037139894 .31399537 .037139894 .17199707 .037139894 .17199707 .18112183 .17199707 .22612 .17199707 .28611756 .17298889 .41011048 .3039856 .41011048 .31098939 .41011048 .36499024 .40911866 .36499024 .40411378L.3619995 .39912416C.35299684 .38812257 .34899903 .3721161 .34899903 .35812379 .34899903 .3171234 .37998963 .29312135 .4139862 .29312135 .44499208 .29312135 .47898866 .31411744 .47898866 .3591156 .47898866 .453125 .33898927 .453125 .2999878 .453125 .10798645 .453125 .038986207 .33111573 .038986207 .22212219 .038986207 .09613037 .1289978-.005859375 .29499818-.005859375 .33198548-.005859375 .3809967 .0001373291 .4229889 .026138306 .47999574 .06098938 .49198915 .11299133 .49198915 .115997318V.11613464Z"/>
<path id="font_1_50" d="M.5089874 .11605835C.5089874 .13604737 .4889984 .13604737 .48298646 .13604737 .46499635 .13604737 .46299745 .13005066 .45700074 .11605835 .43399049 .06410217 .37298585 .037139894 .30999757 .037139894 .16799927 .037139894 .1659851 .16601563 .1659851 .21496582H.47599793C.49699403 .21496582 .5089874 .21496582 .5089874 .2429657 .5089874 .26498414 .5069885 .35305787 .44198609 .4071045 .39698792 .4441223 .33699037 .453125 .28799439 .453125 .116989139 .453125 .032989503 .345047 .032989503 .22497559 .032989503 .09408569 .13198853-.005859375 .3019867-.005859375 .46699525-.005859375 .5089874 .1000824 .5089874 .11605835M.41099549 .25097657H.1659851C.16799927 .29701234 .17298889 .41311646 .28799439 .41311646 .40499879 .41311646 .40899659 .29100038 .41099549 .25097657Z"/>
<path id="font_1_95" d="M.8829956 .09687805C.8829956 .11882019 .8679962 .12080383 .8569946 .12080383 .83399966 .12080383 .83299258 .10684204 .83200076 .09687805 .82699587 .04798889 .79599 .027999878 .7679901 .027999878 .70799258 .027999878 .69999697 .087890628 .6879883 .17367554 .6769867 .2474823 .66999819 .30134584 .57099917 .3383026 .6559906 .3623047 .73799136 .41534425 .73799136 .49942018 .73799136 .60450747 .6199951 .6855469 .43099977 .6855469H.041992189V.63653567H.1499939V.04899597H.041992189V0C.07798767 .0029907227 .17799378 .0029907227 .21899414 .0029907227 .2599945 .0029907227 .36099244 .0029907227 .39698792 0V.04899597H.2889862V.32229615H.4119873C.45298768 .32229615 .47999574 .31332398 .5089874 .2834015 .5369873 .25546266 .5369873 .23153687 .5369873 .16470337 .5369873 .10185242 .5369873 .054977418 .5970001 .019989014 .6409912-.005004883 .70399478-.012008667 .7589874-.012008667 .8659973-.012008667 .8829956 .074920658 .8829956 .09687805M.58099368 .49942018C.58099368 .44236756 .57899478 .3623047 .41299439 .3623047H.2889862V.63653567H.4149933C.5779877 .63653567 .58099368 .5594635 .58099368 .49942018Z"/>
<path id="font_1_105" d="M.3929901 .123184207V.1762085H.34199525V.12617493C.34199525 .055145265 .30599977 .037139894 .2809906 .037139894 .22299195 .037139894 .22299195 .09716797 .22299195 .1211853V.3953247H.37399293V.44433595H.22299195V.6357422H.17199707C.17098999 .5415344 .12399292 .43832398 .021987915 .43533326V.3953247H.10598755V.123184207C.10598755 .009140015 .20498657-.005859375 .2669983-.005859375 .34498597-.005859375 .3929901 .05014038 .3929901 .123184207Z"/>
</defs>
<path transform="matrix(1.00003,0,0,-1.00005,117.52309,87.23155)" stroke-width="1.19553" stroke-linecap="butt" stroke-miterlimit="10" stroke-linejoin="miter" fill="none" stroke="#000000" d="M0 0H127.547L63.77348 85.03131Z"/>
<path transform="matrix(1.00003,0,0,-1.00005,117.52309,87.23155)" stroke-width="1.19553" stroke-linecap="butt" stroke-miterlimit="10" stroke-linejoin="miter" fill="none" stroke="#000000" d="M-49.10486-49.10486H78.44211L14.66856 35.92644Z"/>
<path transform="matrix(1.00003,0,0,-1.00005,117.52309,87.23155)" stroke-width="1.19553" stroke-linecap="butt" stroke-miterlimit="10" stroke-linejoin="miter" fill="none" stroke="#000000" d="M0 0-49.10486-49.10486"/>
<path transform="matrix(1.00003,0,0,-1.00005,117.52309,87.23155)" stroke-width="1.19553" stroke-linecap="butt" stroke-miterlimit="10" stroke-linejoin="miter" fill="none" stroke="#000000" d="M127.547 0 78.44211-49.10486"/>
<path transform="matrix(1.00003,0,0,-1.00005,117.52309,87.23155)" stroke-width="1.19553" stroke-linecap="butt" stroke-miterlimit="10" stroke-linejoin="miter" fill="none" stroke="#000000" d="M63.77348 85.03131 14.66856 35.92644"/>
<path transform="matrix(1.00003,0,0,-1.00005,117.52309,87.23155)" stroke-width="1.19553" stroke-linecap="butt" stroke-miterlimit="10" stroke-linejoin="miter" fill="none" stroke="#000000" d="M-49.10486-49.10486H78.44211L14.66856 35.92644Z"/>
<path transform="matrix(1.00003,0,0,-1.00005,117.52309,87.23155)" stroke-width=".79701" stroke-linecap="butt" stroke-miterlimit="10" stroke-linejoin="miter" fill="none" stroke="#000000" d="M0-42.5202-41.78023-59.23204"/>
<path transform="matrix(-.92846789,.37138853,.37138114,.92848637,75.37162,146.61457)" stroke-width=".79701" stroke-linecap="round" stroke-linejoin="round" fill="none" stroke="#000000" d="M-2.55046 3.11095C-2.0845 1.24435-1.04614 .36295 0 0-1.04614-.36295-2.0845-1.24435-2.55046-3.11095"/>
<use data-text="T" xlink:href="#font_1_104" transform="matrix(8.966669,0,0,-8.966848,1.2165833,148.99964)"/>
<use data-text="r" xlink:href="#font_1_96" transform="matrix(8.966669,0,0,-8.966848,7.7174227,148.99964)"/>
<use data-text="i" xlink:href="#font_1_66" transform="matrix(8.966669,0,0,-8.966848,12.093155,148.99964)"/>
<use data-text="a" xlink:href="#font_1_28" transform="matrix(8.966669,0,0,-8.966848,15.043198,148.99964)"/>
<use data-text="n" xlink:href="#font_1_77" transform="matrix(8.966669,0,0,-8.966848,20.199036,148.99964)"/>
<use data-text="g" xlink:href="#font_1_59" transform="matrix(8.966669,0,0,-8.966848,26.090149,148.99964)"/>
<use data-text="u" xlink:href="#font_1_109" transform="matrix(8.966669,0,0,-8.966848,31.398407,148.99964)"/>
<use data-text="l" xlink:href="#font_1_72" transform="matrix(8.966669,0,0,-8.966848,37.28952,148.99964)"/>
<use data-text="a" xlink:href="#font_1_28" transform="matrix(8.966669,0,0,-8.966848,40.239564,148.99964)"/>
<use data-text="r" xlink:href="#font_1_96" transform="matrix(8.966669,0,0,-8.966848,45.3954,148.99964)"/>
<use data-text="f" xlink:href="#font_1_55" transform="matrix(8.966669,0,0,-8.966848,53.29503,148.99964)"/>
<use data-text="a" xlink:href="#font_1_28" transform="matrix(8.966669,0,0,-8.966848,56.540987,148.99964)"/>
<use data-text="c" xlink:href="#font_1_43" transform="matrix(8.966669,0,0,-8.966848,61.696809,148.99964)"/>
<use data-text="e" xlink:href="#font_1_50" transform="matrix(8.966669,0,0,-8.966848,66.4133,148.99964)"/>
<path transform="matrix(1.00003,0,0,-1.00005,117.52309,87.23155)" stroke-width=".79701" stroke-linecap="butt" stroke-miterlimit="10" stroke-linejoin="miter" fill="none" stroke="#000000" d="M60.48537 17.96515V38.42824"/>
<path transform="matrix(0,-1.00005,-1.00003,-0,178.01027,48.402875)" stroke-width=".79701" stroke-linecap="round" stroke-linejoin="round" fill="none" stroke="#000000" d="M-2.55046 3.11095C-2.0845 1.24435-1.04614 .36295 0 0-1.04614-.36295-2.0845-1.24435-2.55046-3.11095"/>
<use data-text="R" xlink:href="#font_1_95" transform="matrix(8.966669,0,0,-8.966848,96.37845,50.241708)"/>
<use data-text="e" xlink:href="#font_1_50" transform="matrix(8.966669,0,0,-8.966848,104.33188,50.241708)"/>
<use data-text="c" xlink:href="#font_1_43" transform="matrix(8.966669,0,0,-8.966848,109.20079,50.241708)"/>
<use data-text="t" xlink:href="#font_1_105" transform="matrix(8.966669,0,0,-8.966848,113.91725,50.241708)"/>
<use data-text="a" xlink:href="#font_1_28" transform="matrix(8.966669,0,0,-8.966848,118.041919,50.241708)"/>
<use data-text="n" xlink:href="#font_1_77" transform="matrix(8.966669,0,0,-8.966848,123.19777,50.241708)"/>
<use data-text="g" xlink:href="#font_1_59" transform="matrix(8.966669,0,0,-8.966848,129.08887,50.241708)"/>
<use data-text="u" xlink:href="#font_1_109" transform="matrix(8.966669,0,0,-8.966848,134.39714,50.241708)"/>
<use data-text="l" xlink:href="#font_1_72" transform="matrix(8.966669,0,0,-8.966848,140.28824,50.241708)"/>
<use data-text="a" xlink:href="#font_1_28" transform="matrix(8.966669,0,0,-8.966848,143.23828,50.241708)"/>
<use data-text="r" xlink:href="#font_1_96" transform="matrix(8.966669,0,0,-8.966848,148.39412,50.241708)"/>
<use data-text="f" xlink:href="#font_1_55" transform="matrix(8.966669,0,0,-8.966848,156.30274,50.241708)"/>
<use data-text="a" xlink:href="#font_1_28" transform="matrix(8.966669,0,0,-8.966848,159.5487,50.241708)"/>
<use data-text="c" xlink:href="#font_1_43" transform="matrix(8.966669,0,0,-8.966848,164.70453,50.241708)"/>
<use data-text="e" xlink:href="#font_1_50" transform="matrix(8.966669,0,0,-8.966848,169.42099,50.241708)"/>
</svg>
