<svg xmlns="http://www.w3.org/2000/svg" xmlns:xlink="http://www.w3.org/1999/xlink" xmlns:inkscape="http://www.inkscape.org/namespaces/inkscape" version="1.1" width="302" height="100" viewBox="0 0 302 100">
<defs>
<path id="font_1_121" d="M.45999146 .31976319C.45999146 .39982606 .45498658 .47988893 .41999818 .5539398 .37399293 .65000918 .2919922 .6660156 .25 .6660156 .18998719 .6660156 .116989139 .64001467 .07598877 .54693606 .04399109 .47789 .038986207 .39982606 .038986207 .31976319 .038986207 .24472046 .042999269 .15464783 .083999637 .07859802 .1269989-.0024719239 .19999695-.022460938 .24899292-.022460938 .30299378-.022460938 .3789978-.0014648438 .4229889 .09359741 .45498658 .16265869 .45999146 .2407074 .45999146 .31976319M.3769989 .3317871C.3769989 .25672914 .3769989 .18867493 .3659973 .12461853 .35099793 .029556275 .2939911-.00047302247 .24899292-.00047302247 .20999146-.00047302247 .15098572 .024551392 .1329956 .12062073 .12199402 .18066406 .12199402 .2727356 .12199402 .3317871 .12199402 .39582826 .12199402 .46188355 .12998963 .5159149 .14898682 .63500979 .22399903 .64401248 .24899292 .64401248 .28199769 .64401248 .34799195 .6259918 .36698915 .52693179 .3769989 .47088624 .3769989 .39482118 .3769989 .3317871Z"/>
<path id="font_1_88" d="M.19198609 .052993776C.19198609 .08198547 .16799927 .10598755 .13899231 .10598755 .10998535 .10598755 .085998538 .08198547 .085998538 .052993776 .085998538 .023986817 .10998535 0 .13899231 0 .16799927 0 .19198609 .023986817 .19198609 .052993776Z"/>
<path id="font_1_107" d="M.44898988 .17396546H.42399598C.4189911 .14398194 .4119873 .099990848 .4019928 .084991458 .394989 .07699585 .32899476 .07699585 .30699159 .07699585H.1269989L.23298645 .17996216C.3889923 .31803895 .44898988 .37210084 .44898988 .47216798 .44898988 .5860901 .35899354 .6660156 .23699951 .6660156 .12399292 .6660156 .049987794 .57411196 .049987794 .48516847 .049987794 .4291687 .099990848 .4291687 .102996829 .4291687 .11999512 .4291687 .15499878 .44117738 .15499878 .48217774 .15499878 .5081787 .13699341 .5341797 .101989749 .5341797 .09399414 .5341797 .09199524 .5341797 .08898926 .5331726 .11199951 .59806826 .1659851 .63500979 .22399903 .63500979 .31498719 .63500979 .35798646 .5541382 .35798646 .47216798 .35798646 .39196778 .30799867 .31297303 .25299073 .25097657L.06098938 .036987306C.049987794 .025985718 .049987794 .023986817 .049987794 0H.42099L.44898988 .17396546Z"/>
<path id="font_1_56" d="M.44898988 .20091248C.44898988 .31991578 .36698915 .41992188 .25898744 .41992188 .21099854 .41992188 .16799927 .4039154 .13198853 .36891175V.5641022C.1519928 .55778506 .18499756 .55078127 .21699524 .55078127 .33999635 .55078127 .4099884 .6418457 .4099884 .65493777 .4099884 .6609802 .40699769 .6660156 .3999939 .6660156 .3999939 .66607668 .39698792 .66607668 .3919983 .66308596 .37199403 .65408328 .32299806 .63378909 .2559967 .63378909 .21598816 .63409426 .16999817 .641098 .12298584 .6621094 .114990238 .6651001 .11099243 .6651001 .11099243 .6651001 .100997928 .66508486 .100997928 .657074 .100997928 .64108279V.3447113C.100997928 .3266449 .100997928 .31861878 .114990238 .31861878 .12199402 .31861878 .12399292 .32164 .12799073 .32765199 .13899231 .34371949 .17599488 .3979187 .25698854 .3979187 .30899049 .3979187 .33399964 .3517456 .34199525 .3336792 .35798646 .2965393 .3600006 .2574005 .3600006 .20721436 .3600006 .17218018 .3600006 .112197879 .33599855 .07032776 .31199647 .031448366 .2749939 .0055389406 .22898865 .0055389406 .1559906 .0055389406 .09899902 .05836487 .08198547 .1171875 .084991458 .11685181 .08799744 .115859989 .09899902 .115859989 .13198853 .115859989 .14898682 .14085388 .14898682 .16485596 .14898682 .18885803 .13198853 .21386719 .09899902 .21386719 .084991458 .21386719 .049987794 .2068634 .049987794 .16085816 .049987794 .07432556 .11898804-.022460938 .23098755-.022460938 .34700013-.022460938 .44898988 .07331848 .44898988 .20019531V.20091248Z"/>
<path id="font_1_100" d="M.4850006 .6435547H.24198914C.11999512 .6435547 .117996219 .6566467 .11399841 .67578127H.08898926L.055999757 .46954347H.08099365C.083999637 .48554994 .09298706 .54855349 .10598755 .5605469 .11299133 .5665436 .19099427 .5665436 .20399475 .5665436H.41099549L.29899598 .40853883C.20899964 .2735443 .17599488 .13453675 .17599488 .03253174 .17599488 .022537232 .17599488-.022460938 .22200012-.022460938 .2679901-.022460938 .2679901 .022537232 .2679901 .03253174V.08354187C.2679901 .13853455 .2709961 .19354248 .2789917 .24754334 .2829895 .27053834 .29699708 .35653688 .34098817 .41854859L.47599793 .608551C.4850006 .62054446 .4850006 .62254336 .4850006 .6435547Z"/>
<path id="font_1_82" d="M.4189911 0V.0309906H.3869934C.29699708 .0309906 .2939911 .041992189 .2939911 .07902527V.64012148C.2939911 .6640167 .2939911 .6660156 .2709961 .6660156 .20899964 .60227969 .12098694 .60227969 .08898926 .60227969V.57128909C.10899353 .57128909 .16799927 .57128909 .21998596 .5972748V.07902527C.21998596 .042999269 .21699524 .0309906 .1269989 .0309906H.09498596V0C.12998963 .0029907227 .21699524 .0029907227 .25698854 .0029907227 .29699708 .0029907227 .38398744 .0029907227 .4189911 0Z"/>
<path id="font_1_65" d="M.33299256 0V.0309906H.30699159C.22799683 .0309906 .22499085 .041992189 .22499085 .07795715V.6046295C.22499085 .64060977 .22799683 .6516113 .30699159 .6516113H.33299256V.6826172C.2979889 .6796112 .21899414 .6796112 .18099976 .6796112 .14199829 .6796112 .06298828 .6796112 .027999878 .6826172V.6516113H.053985597C.1329956 .6516113 .13598633 .64060977 .13598633 .6046295V.07795715C.13598633 .041992189 .1329956 .0309906 .053985597 .0309906H.027999878V0C.06298828 .0029907227 .14199829 .0029907227 .17999268 .0029907227 .21899414 .0029907227 .2979889 .0029907227 .33299256 0Z"/>
<path id="font_1_75" d="M.8129883 0V.0309906C.7609863 .0309906 .73599246 .0309906 .7350006 .061019899V.25221253C.7350006 .3383026 .7350006 .36932374 .70399478 .405365 .6899872 .42237855 .6569977 .4423828 .598999 .4423828 .5149994 .4423828 .47099305 .38233949 .45399476 .34429933 .43998719 .43138124 .3659973 .4423828 .32099916 .4423828 .24798584 .4423828 .20098877 .39935304 .17298889 .33729554V.4423828L.03199768 .43066407V.3996582C.101989749 .3996582 .10998535 .39266969 .10998535 .34370423V.07595825C.10998535 .0309906 .09899902 .0309906 .03199768 .0309906V0L.14498902 .0029907227 .25698854 0V.0309906C.18998719 .0309906 .1789856 .0309906 .1789856 .07595825V.25978089C.1789856 .36431886 .25 .42037965 .31399537 .42037965 .3769989 .42037965 .3880005 .36631776 .3880005 .30926515V.076034549C.3880005 .0309906 .3769989 .0309906 .30999757 .0309906V0L.4229889 .0029907227 .5349884 0V.0309906C.46798707 .0309906 .45700074 .0309906 .45700074 .076034549V.2602234C.45700074 .36431886 .5279999 .42037965 .59199526 .42037965 .6549988 .42037965 .66600039 .36631776 .66600039 .30926515V.076034549C.66600039 .0309906 .6549988 .0309906 .58799746 .0309906V0L.70098879 .0029907227 .8129883 0Z"/>
<path id="font_1_84" d="M.5209961 .21636963C.5209961 .34336854 .42399598 .4423828 .31199647 .4423828 .23399353 .4423828 .19198609 .39837647 .17199707 .3763733V.4423828L.027999878 .43066407V.3996582C.09899902 .3996582 .10598755 .3936615 .10598755 .34973146V-.117996219C.10598755-.16308594 .09498596-.16308594 .027999878-.16308594V-.1940918L.13999939-.19110108 .25299073-.1940918V-.16308594C.18598938-.16308594 .1749878-.16308594 .1749878-.117996219V.050186159 .059173585C.17999268 .04319763 .22200012-.0107421879 .2979889-.0107421879 .4169922-.0107421879 .5209961 .087127689 .5209961 .21594239V.21636963M.43798829 .21594239C.43798829 .09512329 .36799623 .011245728 .2939911 .011245728 .2539978 .011245728 .21598816 .031219483 .18899536 .07215881 .1749878 .09312439 .1749878 .09411621 .1749878 .114089969V.33674623C.20399475 .38838197 .25299073 .41737367 .3039856 .41737367 .3769989 .41737367 .43798829 .32937623 .43798829 .21636963V.21594239Z"/>
<path id="font_1_81" d="M.47099305 .21424866C.47099305 .34223939 .37098695 .4482422 .25 .4482422 .125 .4482422 .027999878 .3392334 .027999878 .21424866 .027999878 .085250858 .13198853-.0107421879 .24899292-.0107421879 .36999513-.0107421879 .47099305 .087249759 .47099305 .21424866M.3880005 .22224427C.3880005 .18624878 .3880005 .13224793 .3659973 .08824158 .34399415 .04324341 .2999878 .014251709 .25 .014251709 .20698548 .014251709 .16299439 .035247804 .13598633 .08125305 .11099243 .12524414 .11099243 .18624878 .11099243 .22224427 .11099243 .26124574 .11099243 .31523133 .1349945 .35923768 .1619873 .40522767 .20899964 .426239 .24899292 .426239 .29299928 .426239 .33599855 .40423585 .3619995 .36123658 .3880005 .3182373 .3880005 .26023866 .3880005 .22224427Z"/>
<path id="font_1_98" d="M.3600006 .12823487C.3600006 .18122864 .32998658 .21122742 .31799317 .22323609 .2849884 .25523377 .24598694 .26322938 .20399475 .27124024 .147995 .28224183 .08099365 .29522706 .08099365 .35324098 .08099365 .38822938 .10699463 .42922975 .19299317 .42922975 .30299378 .42922975 .30799867 .3392334 .30999757 .30822755 .31098939 .2992401 .32199098 .2992401 .32199098 .2992401 .33499146 .2992401 .33499146 .30422975 .33499146 .32322694V.4242401C.33499146 .4412384 .33499146 .4482422 .32398988 .4482422 .31900025 .4482422 .31698609 .4482422 .3039856 .43623353 .30099488 .43223573 .29100038 .42323304 .2869873 .42022706 .24899292 .4482422 .20799256 .4482422 .19299317 .4482422 .070999149 .4482422 .032989503 .38124085 .032989503 .3252411 .032989503 .29023744 .04899597 .26223756 .07598877 .24023438 .10798645 .2142334 .13598633 .2082367 .20799256 .19422913 .22999573 .19021607 .31199647 .17422486 .31199647 .10221863 .31199647 .051223756 .2769928 .011245728 .19898987 .011245728 .114990238 .011245728 .07899475 .068222049 .05999756 .1532135 .056991579 .16621399 .055999757 .17021179 .04598999 .17021179 .032989503 .17021179 .032989503 .16322327 .032989503 .1452179V.013214111C.032989503-.003753662 .032989503-.0107421879 .04399109-.0107421879 .04899597-.0107421879 .049987794-.009750366 .068984989 .009246826 .070999149 .011245728 .070999149 .013214111 .08898926 .032226564 .1329956-.009750366 .17799378-.0107421879 .19898987-.0107421879 .31399537-.0107421879 .3600006 .05621338 .3600006 .1282196V.12823487Z"/>
<path id="font_1_66" d="M.24699402 0V.0309906C.18099976 .0309906 .1769867 .035995485 .1769867 .075042728V.4423828L.036987306 .43066407V.3996582C.101989749 .3996582 .11099243 .3936615 .11099243 .3447113V.07595825C.11099243 .0309906 .099990848 .0309906 .032989503 .0309906V0L.14299011 .0029907227C.17799378 .0029907227 .21299744 .0009918213 .24699402 0M.19198609 .603775C.19198609 .6307678 .16899109 .6567688 .13899231 .6567688 .10499573 .6567688 .084991458 .6287689 .084991458 .603775 .084991458 .57676699 .10798645 .55078127 .13798523 .55078127 .17199707 .55078127 .19198609 .5787811 .19198609 .603775Z"/>
<path id="font_1_35" d="M.5209961 .2163086C.5209961 .34335328 .4229889 .4423828 .30899049 .4423828 .23098755 .4423828 .18798828 .39537049 .17199707 .3773651V.69433596L.027999878 .68333438V.6523285C.09799194 .6523285 .10598755 .6453247 .10598755 .596344V.00024414063H.1309967L.16699219 .06227112C.18199158 .039260866 .22399903-.0107421879 .2979889-.0107421879 .4169922-.0107421879 .5209961 .08728027 .5209961 .2163086M.43798829 .21731568C.43798829 .18029785 .43598939 .120285037 .40699769 .07527161 .38598634 .044265748 .34799195 .011245728 .2939911 .011245728 .24899292 .011260986 .21299744 .03526306 .18899536 .072265628 .1749878 .09326172 .1749878 .09625244 .1749878 .11425781V.32034303C.1749878 .3393402 .1749878 .3403473 .18598938 .35635377 .22499085 .41236878 .27999879 .42037965 .3039856 .42037965 .34899903 .42037965 .3849945 .3943634 .40899659 .35635377 .43499757 .31533814 .43798829 .25831605 .43798829 .21730042V.21731568Z"/>
<path id="font_1_72" d="M.25498963 0V.0309906C.18798828 .0309906 .1769867 .0309906 .1769867 .07601929V.69433596L.032989503 .6826172V.6516113C.102996829 .6516113 .11099243 .64460757 .11099243 .5956421V.07595825C.11099243 .0309906 .099990848 .0309906 .032989503 .0309906V0L.14399719 .0029907227 .25498963 0Z"/>
<path id="font_1_50" d="M.4149933 .11933899C.4149933 .12934876 .40699769 .13134766 .4019928 .13134766 .3929901 .13134766 .3909912 .12535095 .3889923 .11734009 .35398866 .014251709 .2639923 .014251709 .2539978 .014251709 .20399475 .014251709 .1639862 .044281007 .14099121 .08131409 .11099243 .12934876 .11099243 .19540406 .11099243 .23144531H.3899994C.4119873 .23144531 .4149933 .23144531 .4149933 .2524414 .4149933 .35131837 .36099244 .4482422 .23599243 .4482422 .11999512 .4482422 .027999878 .34532167 .027999878 .22042847 .027999878 .08631897 .1329956-.0107421879 .24798584-.0107421879 .36999513-.0107421879 .4149933 .10032654 .4149933 .11933899M.34899903 .2524414H.11199951C.117996219 .40126039 .20199585 .426239 .23599243 .426239 .33898927 .426239 .34899903 .2913971 .34899903 .2524414Z"/>
<path id="font_1_108" d="M.71598818 .6516113V.6826172L.59799197 .6796112 .47898866 .6826172V.6516113C.58200076 .6516113 .58200076 .6044922 .58200076 .57748416V.23051453C.58200076 .088531497 .4850006 .008529663 .3899994 .008529663 .34298707 .008529663 .22499085 .03352356 .22499085 .22351074V.6044922C.22499085 .6405792 .22698975 .6516113 .3039856 .6516113H.32798768V.6826172C.29299928 .6796112 .21899414 .6796112 .18099976 .6796112 .14299011 .6796112 .067993167 .6796112 .032989503 .6826172V.6516113H.056991579C.13398743 .6516113 .13598633 .6405792 .13598633 .6044922V.22750855C.13598633 .086517337 .2519989-.022460938 .3880005-.022460938 .5029907-.022460938 .59298709 .07052612 .6100006 .18450928 .61299136 .20451355 .61299136 .21351624 .61299136 .25350953V.5734863C.61299136 .6064911 .61299136 .6516113 .71598818 .6516113Z"/>
<path id="font_1_77" d="M.5349884 0V.0309906C.48298646 .0309906 .45799256 .0309906 .45700074 .061019899V.25221253C.45700074 .3383026 .45700074 .36932374 .42599488 .405365 .4119873 .42237855 .3789978 .4423828 .32099916 .4423828 .24798584 .4423828 .20098877 .39935304 .17298889 .33729554V.4423828L.03199768 .43066407V.3996582C.101989749 .3996582 .10998535 .39266969 .10998535 .34370423V.07595825C.10998535 .0309906 .09899902 .0309906 .03199768 .0309906V0L.14498902 .0029907227 .25698854 0V.0309906C.18998719 .0309906 .1789856 .0309906 .1789856 .07595825V.25978089C.1789856 .36431886 .25 .42037965 .31399537 .42037965 .3769989 .42037965 .3880005 .36631776 .3880005 .30926515V.076034549C.3880005 .0309906 .3769989 .0309906 .30999757 .0309906V0L.4229889 .0029907227 .5349884 0Z"/>
<path id="font_1_70" d="M.5109863 0V.0309906C.47399903 .0309906 .45199586 .0309906 .4139862 .0839386L.2869873 .26278688C.28599549 .26478578 .2809906 .2707672 .2809906 .2737732 .2809906 .277771 .35198976 .33770753 .3619995 .34570313 .4249878 .39666749 .46699525 .39865113 .48799134 .3996582V.43066407C.45899964 .42765809 .44599916 .42765809 .41799928 .42765809 .38198854 .42765809 .31999208 .42965699 .30599977 .43066407V.3996582C.32499696 .39865113 .33499146 .3876648 .33499146 .37467958 .33499146 .3547058 .32099916 .3427124 .31298829 .33570863L.17199707 .21382141V.69433596L.027999878 .6826172V.6516113C.09799194 .6516113 .10598755 .64460757 .10598755 .5956421V.07595825C.10598755 .0309906 .09498596 .0309906 .027999878 .0309906V0L.13699341 .0029907227 .24699402 0V.0309906C.17999268 .0309906 .16899109 .0309906 .16899109 .07595825V.17889405L.23298645 .23387146C.30999757 .12792969 .35198976 .07196045 .35198976 .053985597 .35198976 .034988405 .33499146 .0309906 .31599427 .0309906V0L.42399598 .0029907227C.45298768 .0029907227 .48199464 .0019989014 .5109863 0Z"/>
<path id="font_1_118" d="M.5079956 .3996582V.43066407C.4850006 .4286499 .45599366 .42765809 .43299867 .42765809L.34599305 .43066407V.3996582C.3769989 .39866639 .3929901 .3816681 .3929901 .35668946 .3929901 .34669496 .3919983 .34469605 .3869934 .33270265L.28599549 .08685303 .1749878 .35568238C.17098999 .36567689 .16899109 .36967469 .16899109 .3736725 .16899109 .3996582 .20599365 .3996582 .22499085 .3996582V.43066407L.115997318 .42765809C.08898926 .42765809 .04899597 .4286499 .018997193 .43066407V.3996582C.066986087 .3996582 .085998538 .3996582 .099990848 .36468507L.25-.000091552738 .22499085-.059066774C.20298767-.11407471 .1749878-.18309021 .11099243-.18309021 .10598755-.18309021 .08299255-.18309021 .06399536-.16503906 .09498596-.16104126 .102996829-.13905335 .102996829-.123046878 .102996829-.0970459 .083999637-.08103943 .06098938-.08103943 .040985109-.08103943 .018997193-.09403992 .018997193-.124053958 .018997193-.16905213 .06098938-.20507813 .11099243-.20507813 .17399597-.20507813 .21499634-.14804077 .23899842-.091049198L.4149933 .33569337C.44099427 .39865113 .49198915 .3996582 .5079956 .3996582Z"/>
<path id="font_1_49" d="M.6519928 .2579193H.6269989C.60198977 .10397339 .57899478 .0309906 .40699769 .0309906H.27398683C.22698975 .0309906 .22499085 .037994386 .22499085 .07098389V.33789063H.31498719C.4119873 .33789063 .4229889 .30589295 .4229889 .220932H.44799806V.48606874H.4229889C.4229889 .39994813 .4119873 .36888124 .31498719 .36888124H.22499085V.6087799C.22499085 .6416931 .22698975 .64868167 .27398683 .64868167H.40299989C.55599978 .64868167 .58299258 .59381106 .598999 .45507813H.6239929L.59599307 .6796875H.032989503V.64868167H.056991579C.13398743 .64868167 .13598633 .6377106 .13598633 .6017914V.07797241C.13598633 .041992189 .13398743 .0309906 .056991579 .0309906H.032989503V0H.6100006L.6519928 .2579193Z"/>
<path id="font_1_91" d="M.5269928-.1940918V-.16308594C.45999146-.16308594 .44898988-.16308594 .44898988-.117996219V.4423828H.4269867L.3889923 .35136415C.37599183 .379364 .33499146 .4423828 .25498963 .4423828 .13899231 .4423828 .033996583 .34535218 .033996583 .21531677 .033996583 .090270999 .1309967-.0107421879 .24699402-.0107421879 .31698609-.0107421879 .35798646 .03225708 .37998963 .061264039V-.117996219C.37998963-.16308594 .36898805-.16308594 .3019867-.16308594V-.1940918L.4139862-.19110108 .5269928-.1940918M.3829956 .1362915C.3829956 .104278568 .36499024 .07626343 .34298707 .052261354 .32998658 .038253786 .2979889 .011245728 .25099183 .011245728 .17799378 .011245728 .116989139 .10028076 .116989139 .21531677 .116989139 .3343506 .18699646 .41737367 .26098634 .41737367 .34098817 .41737367 .3829956 .33035279 .3829956 .2773285V.1362915Z"/>
<path id="font_1_109" d="M.5349884 0V.0309906C.46499635 .0309906 .45700074 .037994386 .45700074 .08705139V.4423828L.30999757 .43066407V.3996582C.37998963 .3996582 .3880005 .39266969 .3880005 .34373475V.16601563C.3880005 .07910156 .33999635 .011245728 .2669983 .011245728 .18299866 .011245728 .1789856 .058135988 .1789856 .11009216V.4423828L.03199768 .43066407V.3996582C.10998535 .3996582 .10998535 .39666749 .10998535 .3078003V.15802002C.10998535 .080093387 .10998535-.0107421879 .2619934-.0107421879 .31799317-.0107421879 .3619995 .017242432 .3909912 .07910156V-.0107421879L.5349884 0Z"/>
<path id="font_1_28" d="M.48298646 .08912659V.14511109H.45799256V.08912659C.45799256 .03112793 .43299867 .025131226 .42199708 .025131226 .3889923 .025131226 .3849945 .070129398 .3849945 .07511902V.27508546C.3849945 .31707765 .3849945 .3560791 .34899903 .39312745 .30999757 .43223573 .2599945 .4482422 .21199036 .4482422 .12998963 .4482422 .06098938 .40115357 .06098938 .335083 .06098938 .30508424 .08099365 .28808595 .10699463 .28808595 .1349945 .28808595 .15299988 .30807496 .15299988 .33407594 .15299988 .3460846 .147995 .37908937 .101989749 .38008119 .1289978 .41519166 .17799378 .426239 .20999146 .426239 .25898744 .426239 .31599427 .38710023 .31599427 .29808045V.26107789C.2649994 .25808717 .19499207 .25508119 .13198853 .22509766 .056991579 .19110108 .03199768 .13911438 .03199768 .09512329 .03199768 .014251709 .1289978-.0107421879 .19198609-.0107421879 .2579956-.0107421879 .3039856 .029251099 .32299806 .07624817 .32699586 .036132814 .35398866-.005859375 .40098573-.005859375 .42199708-.005859375 .48298646 .008132935 .48298646 .08912659M.31599427 .14013672C.31599427 .04525757 .24398804 .011245728 .19898987 .011245728 .1499939 .011245728 .10899353 .04624939 .10899353 .09625244 .10899353 .15124512 .15098572 .23425293 .31599427 .24024964V.14013672Z"/>
<path id="font_1_71" d="M.58200076 .2578125H.5569916C.54599 .15588379 .5319977 .0309906 .35598756 .0309906H.27398683C.22698975 .03060913 .22499085 .037612916 .22499085 .07060242V.6036072C.22499085 .63760378 .22499085 .6516113 .31999208 .6516113H.35299684V.6826172C.31698609 .6796112 .22599793 .6796112 .18499756 .6796112 .1459961 .6796112 .067993167 .6796112 .032989503 .6826172V.6516113H.056991579C.13398743 .6518097 .13598633 .6408081 .13598633 .6048126V.07795715C.13598633 .04197693 .13398743 .0309906 .056991579 .0309906H.032989503V0H.55400088L.58200076 .2578125Z"/>
<path id="font_1_42" d="M.6649933 .23271179C.6649933 .24272156 .6649933 .24972534 .6519928 .24972534 .6409912 .24972534 .6409912 .24372864 .6399994 .23371887 .6319885 .09059143 .5249939 .008529663 .41600038 .008529663 .35499574 .008529663 .15899658 .042556764 .15899658 .34080506 .15899658 .64004519 .35398866 .67407229 .4149933 .67407229 .5239868 .67407229 .61299136 .58299258 .6329956 .4368744 .6349945 .42286683 .6349945 .41986085 .6489868 .41986085 .6649933 .41986085 .6649933 .42286683 .6649933 .44387818V.68107607C.6649933 .69807437 .6649933 .7050781 .6539917 .7050781 .6499939 .7050781 .6459961 .7050781 .6380005 .69306948L.58799746 .61901858C.5509949 .6550598 .5 .7050781 .4039917 .7050781 .21699524 .7050781 .055999757 .5459595 .055999757 .34179688 .055999757 .1346283 .21798706-.022460938 .4039917-.022460938 .5669861-.022460938 .6649933 .116622928 .6649933 .23271179Z"/>
<path id="font_1_96" d="M.3639984 .38137818C.3639984 .41337586 .33299256 .4423828 .2899933 .4423828 .21699524 .4423828 .18099976 .37538148 .16699219 .3323822V.4423828L.027999878 .43066407V.3996582C.09799194 .3996582 .10598755 .39266969 .10598755 .34370423V.07595825C.10598755 .0309906 .09498596 .0309906 .027999878 .0309906V0L.14199829 .0029907227C.18199158 .0029907227 .22898865 .0029907227 .2689972 0V.0309906H.24798584C.17399597 .0309906 .17199707 .04197693 .17199707 .07795715V.23181153C.17199707 .33137513 .21398926 .42037965 .2899933 .42037965 .29699708 .42037965 .29899598 .42037965 .30099488 .41937257 .2979889 .41838075 .27799989 .40637208 .27799989 .3803711 .27799989 .35237123 .29899598 .33737184 .32099916 .33737184 .33898927 .33737184 .3639984 .3493805 .3639984 .38137818Z"/>
<path id="font_1_105" d="M.33198548 .12385559V.18066406H.30699159V.12585449C.30699159 .052108766 .2769928 .014251709 .23999024 .014251709 .17298889 .014251709 .17298889 .10491943 .17298889 .12187195V.3996582H.31599427V.43066407H.17298889V.6142578H.147995C.14698792 .5324249 .116989139 .42565919 .018997193 .42166139V.3996582H.10398865V.12408447C.10398865 .0012512207 .19699097-.0107421879 .23298645-.0107421879 .3039856-.0107421879 .33198548 .060180665 .33198548 .12408447V.12385559Z"/>
</defs>
<path transform="matrix(1.00003,0,0,-1,24.24228,13.397)" stroke-width=".79701" stroke-linecap="butt" stroke-miterlimit="10" stroke-linejoin="miter" fill="none" stroke="#000000" d="M0 0H255.12128"/>
<path transform="matrix(1.00003,0,0,-1,24.24228,13.397)" stroke-width=".3985" stroke-linecap="butt" stroke-miterlimit="10" stroke-linejoin="miter" fill="none" stroke="#000000" d="M0 0V4.25226"/>
<use data-text="0" xlink:href="#font_1_121" transform="matrix(9.962899,0,0,-9.9626,21.751206,23.551999)"/>
<path transform="matrix(1.00003,0,0,-1,24.24228,13.397)" stroke-width=".3985" stroke-linecap="butt" stroke-miterlimit="10" stroke-linejoin="miter" fill="none" stroke="#000000" d="M63.7803 0V4.25226"/>
<use data-text="0" xlink:href="#font_1_121" transform="matrix(9.962899,0,0,-9.9626,79.16693,23.551999)"/>
<use data-text="." xlink:href="#font_1_88" transform="matrix(9.962899,0,0,-9.9626,84.148387,23.551999)"/>
<use data-text="2" xlink:href="#font_1_107" transform="matrix(9.962899,0,0,-9.9626,86.91807,23.551999)"/>
<use data-text="5" xlink:href="#font_1_56" transform="matrix(9.962899,0,0,-9.9626,91.89951,23.551999)"/>
<path transform="matrix(1.00003,0,0,-1,24.24228,13.397)" stroke-width=".3985" stroke-linecap="butt" stroke-miterlimit="10" stroke-linejoin="miter" fill="none" stroke="#000000" d="M127.56062 0V4.25226"/>
<use data-text="0" xlink:href="#font_1_121" transform="matrix(9.962899,0,0,-9.9626,145.43991,23.551999)"/>
<use data-text="." xlink:href="#font_1_88" transform="matrix(9.962899,0,0,-9.9626,150.42137,23.551999)"/>
<use data-text="5" xlink:href="#font_1_56" transform="matrix(9.962899,0,0,-9.9626,153.19106,23.551999)"/>
<path transform="matrix(1.00003,0,0,-1,24.24228,13.397)" stroke-width=".3985" stroke-linecap="butt" stroke-miterlimit="10" stroke-linejoin="miter" fill="none" stroke="#000000" d="M191.34095 0V4.25226"/>
<use data-text="0" xlink:href="#font_1_121" transform="matrix(9.962899,0,0,-9.9626,206.73175,23.652)"/>
<use data-text="." xlink:href="#font_1_88" transform="matrix(9.962899,0,0,-9.9626,211.7132,23.652)"/>
<use data-text="7" xlink:href="#font_1_100" transform="matrix(9.962899,0,0,-9.9626,214.48288,23.652)"/>
<use data-text="5" xlink:href="#font_1_56" transform="matrix(9.962899,0,0,-9.9626,219.46433,23.652)"/>
<path transform="matrix(1.00003,0,0,-1,24.24228,13.397)" stroke-width=".3985" stroke-linecap="butt" stroke-miterlimit="10" stroke-linejoin="miter" fill="none" stroke="#000000" d="M255.12128 0V4.25226"/>
<use data-text="1" xlink:href="#font_1_82" transform="matrix(9.962899,0,0,-9.9626,276.88087,23.551999)"/>
<use data-text="I" xlink:href="#font_1_65" transform="matrix(9.962899,0,0,-9.9626,1.2175903,7.944)"/>
<use data-text="m" xlink:href="#font_1_75" transform="matrix(9.962899,0,0,-9.9626,4.8141939,7.944)"/>
<use data-text="p" xlink:href="#font_1_84" transform="matrix(9.962899,0,0,-9.9626,13.113289,7.944)"/>
<use data-text="o" xlink:href="#font_1_81" transform="matrix(9.962899,0,0,-9.9626,18.921662,7.944)"/>
<use data-text="s" xlink:href="#font_1_98" transform="matrix(9.962899,0,0,-9.9626,23.903107,7.944)"/>
<use data-text="s" xlink:href="#font_1_98" transform="matrix(9.962899,0,0,-9.9626,27.828476,7.944)"/>
<use data-text="i" xlink:href="#font_1_66" transform="matrix(9.962899,0,0,-9.9626,31.75386,7.944)"/>
<use data-text="b" xlink:href="#font_1_35" transform="matrix(9.962899,0,0,-9.9626,34.52356,7.944)"/>
<use data-text="l" xlink:href="#font_1_72" transform="matrix(9.962899,0,0,-9.9626,40.062929,7.944)"/>
<use data-text="e" xlink:href="#font_1_50" transform="matrix(9.962899,0,0,-9.9626,42.83261,7.944)"/>
<use data-text="U" xlink:href="#font_1_108" transform="matrix(9.962899,0,0,-9.9626,70.031658,7.835)"/>
<use data-text="n" xlink:href="#font_1_77" transform="matrix(9.962899,0,0,-9.9626,77.50384,7.835)"/>
<use data-text="l" xlink:href="#font_1_72" transform="matrix(9.962899,0,0,-9.9626,83.043209,7.835)"/>
<use data-text="i" xlink:href="#font_1_66" transform="matrix(9.962899,0,0,-9.9626,85.81289,7.835)"/>
<use data-text="k" xlink:href="#font_1_70" transform="matrix(9.962899,0,0,-9.9626,88.58257,7.835)"/>
<use data-text="e" xlink:href="#font_1_50" transform="matrix(9.962899,0,0,-9.9626,93.56402,7.835)"/>
<use data-text="l" xlink:href="#font_1_72" transform="matrix(9.962899,0,0,-9.9626,97.98756,7.835)"/>
<use data-text="y" xlink:href="#font_1_118" transform="matrix(9.962899,0,0,-9.9626,100.757259,7.835)"/>
<use data-text="E" xlink:href="#font_1_49" transform="matrix(9.962899,0,0,-9.9626,120.24916,7.835)"/>
<use data-text="q" xlink:href="#font_1_91" transform="matrix(9.962899,0,0,-9.9626,127.0339,7.835)"/>
<use data-text="u" xlink:href="#font_1_109" transform="matrix(9.962899,0,0,-9.9626,132.29431,7.835)"/>
<use data-text="a" xlink:href="#font_1_28" transform="matrix(9.962899,0,0,-9.9626,137.83368,7.835)"/>
<use data-text="l" xlink:href="#font_1_72" transform="matrix(9.962899,0,0,-9.9626,142.81513,7.835)"/>
<use data-text="l" xlink:href="#font_1_72" transform="matrix(9.962899,0,0,-9.9626,145.58483,7.835)"/>
<use data-text="y" xlink:href="#font_1_118" transform="matrix(9.962899,0,0,-9.9626,148.3545,7.835)"/>
<use data-text="L" xlink:href="#font_1_71" transform="matrix(9.962899,0,0,-9.9626,156.9226,7.835)"/>
<use data-text="i" xlink:href="#font_1_66" transform="matrix(9.962899,0,0,-9.9626,163.14943,7.835)"/>
<use data-text="k" xlink:href="#font_1_70" transform="matrix(9.962899,0,0,-9.9626,165.91912,7.835)"/>
<use data-text="e" xlink:href="#font_1_50" transform="matrix(9.962899,0,0,-9.9626,170.91053,7.835)"/>
<use data-text="l" xlink:href="#font_1_72" transform="matrix(9.962899,0,0,-9.9626,175.33406,7.835)"/>
<use data-text="y" xlink:href="#font_1_118" transform="matrix(9.962899,0,0,-9.9626,178.10375,7.835)"/>
<use data-text="L" xlink:href="#font_1_71" transform="matrix(9.962899,0,0,-9.9626,202.37264,7.835)"/>
<use data-text="i" xlink:href="#font_1_66" transform="matrix(9.962899,0,0,-9.9626,208.59946,7.835)"/>
<use data-text="k" xlink:href="#font_1_70" transform="matrix(9.962899,0,0,-9.9626,211.36914,7.835)"/>
<use data-text="e" xlink:href="#font_1_50" transform="matrix(9.962899,0,0,-9.9626,216.35059,7.835)"/>
<use data-text="l" xlink:href="#font_1_72" transform="matrix(9.962899,0,0,-9.9626,220.77411,7.835)"/>
<use data-text="y" xlink:href="#font_1_118" transform="matrix(9.962899,0,0,-9.9626,223.5438,7.835)"/>
<use data-text="C" xlink:href="#font_1_42" transform="matrix(9.962899,0,0,-9.9626,263.02644,9.658)"/>
<use data-text="e" xlink:href="#font_1_50" transform="matrix(9.962899,0,0,-9.9626,270.21968,9.658)"/>
<use data-text="r" xlink:href="#font_1_96" transform="matrix(9.962899,0,0,-9.9626,274.6432,9.658)"/>
<use data-text="t" xlink:href="#font_1_105" transform="matrix(9.962899,0,0,-9.9626,278.54866,9.658)"/>
<use data-text="a" xlink:href="#font_1_28" transform="matrix(9.962899,0,0,-9.9626,282.4242,9.658)"/>
<use data-text="i" xlink:href="#font_1_66" transform="matrix(9.962899,0,0,-9.9626,287.40565,9.658)"/>
<use data-text="n" xlink:href="#font_1_77" transform="matrix(9.962899,0,0,-9.9626,290.17536,9.658)"/>
<path transform="matrix(1.00003,0,0,-1,24.24228,13.397)" stroke-width=".3985" stroke-linecap="butt" stroke-miterlimit="10" stroke-linejoin="miter" fill="none" stroke="#000000" d="M21.26009-63.78032C21.26009-52.03856 11.74176-42.52023 0-42.52023-11.74176-42.52023-21.26009-52.03856-21.26009-63.78032-21.26009-75.52208-11.74176-85.0404 0-85.0404 11.74176-85.0404 21.26009-75.52208 21.26009-63.78032ZM0-63.78032"/>
<path transform="matrix(1.00003,0,0,-1,24.24228,13.397)" stroke-width=".3985" stroke-linecap="butt" stroke-miterlimit="10" stroke-linejoin="miter" fill="none" stroke="#000000" d="M-21.26009-63.78032H21.26009"/>
<path transform="matrix(1.00003,0,0,-1,24.24228,13.397)" stroke-width=".3985" stroke-linecap="butt" stroke-miterlimit="10" stroke-linejoin="miter" fill="none" stroke="#000000" d="M0-85.0404V-42.52023"/>
<path transform="matrix(1.00003,0,0,-1,24.24228,13.397)" stroke-width=".3985" stroke-linecap="butt" stroke-miterlimit="10" stroke-linejoin="miter" fill="none" stroke="#000000" d="M85.04039-63.78032C85.04039-52.03856 75.52206-42.52023 63.7803-42.52023 52.03854-42.52023 42.52022-52.03856 42.52022-63.78032 42.52022-75.52208 52.03854-85.0404 63.7803-85.0404 75.52206-85.0404 85.04039-75.52208 85.04039-63.78032ZM63.7803-63.78032"/>
<path transform="matrix(1.00003,0,0,-1,24.24228,13.397)" stroke-width=".3985" stroke-linecap="butt" stroke-miterlimit="10" stroke-linejoin="miter" fill="none" stroke="#000000" d="M42.5202-63.78032H85.04042"/>
<path transform="matrix(1.00003,0,0,-1,24.24228,13.397)" stroke-width=".3985" stroke-linecap="butt" stroke-miterlimit="10" stroke-linejoin="miter" fill="none" stroke="#000000" d="M63.7803-85.0404V-42.52023"/>
<path transform="matrix(1.00003,0,0,-1,24.24228,13.397)" d="M63.7803-63.78032H85.04042C85.04042-52.03856 75.5221-42.52023 63.78033-42.52023Z" fill="#3333ff"/>
<path transform="matrix(1.00003,0,0,-1,24.24228,13.397)" stroke-width=".3985" stroke-linecap="butt" stroke-miterlimit="10" stroke-linejoin="miter" fill="none" stroke="#000000" d="M148.82073-63.78032C148.82073-52.03856 139.3024-42.52023 127.56062-42.52023 115.81886-42.52023 106.30054-52.03856 106.30054-63.78032 106.30054-75.52208 115.81886-85.0404 127.56062-85.0404 139.3024-85.0404 148.82073-75.52208 148.82073-63.78032ZM127.56062-63.78032"/>
<path transform="matrix(1.00003,0,0,-1,24.24228,13.397)" stroke-width=".3985" stroke-linecap="butt" stroke-miterlimit="10" stroke-linejoin="miter" fill="none" stroke="#000000" d="M106.3005-63.78032H148.82074"/>
<path transform="matrix(1.00003,0,0,-1,24.24228,13.397)" stroke-width=".3985" stroke-linecap="butt" stroke-miterlimit="10" stroke-linejoin="miter" fill="none" stroke="#000000" d="M127.56062-85.0404V-42.52023"/>
<path transform="matrix(1.00003,0,0,-1,24.24228,13.397)" d="M127.56062-63.78032H148.82074C148.82074-52.03856 139.30242-42.52023 127.56064-42.52023Z" fill="#3333ff"/>
<path transform="matrix(1.00003,0,0,-1,24.24228,13.397)" d="M127.56062-63.78032V-42.52023C115.81886-42.52023 106.30054-52.03856 106.30054-63.78032Z" fill="#3333ff"/>
<path transform="matrix(1.00003,0,0,-1,24.24228,13.397)" stroke-width=".3985" stroke-linecap="butt" stroke-miterlimit="10" stroke-linejoin="miter" fill="none" stroke="#000000" d="M212.60103-63.78032C212.60103-52.03856 203.0827-42.52023 191.34095-42.52023 179.59918-42.52023 170.08086-52.03856 170.08086-63.78032 170.08086-75.52208 179.59918-85.0404 191.34095-85.0404 203.0827-85.0404 212.60103-75.52208 212.60103-63.78032ZM191.34095-63.78032"/>
<path transform="matrix(1.00003,0,0,-1,24.24228,13.397)" stroke-width=".3985" stroke-linecap="butt" stroke-miterlimit="10" stroke-linejoin="miter" fill="none" stroke="#000000" d="M170.08086-63.78032H212.60106"/>
<path transform="matrix(1.00003,0,0,-1,24.24228,13.397)" stroke-width=".3985" stroke-linecap="butt" stroke-miterlimit="10" stroke-linejoin="miter" fill="none" stroke="#000000" d="M191.34095-85.0404V-42.52023"/>
<path transform="matrix(1.00003,0,0,-1,24.24228,13.397)" d="M191.34095-63.78032H212.60106C212.60106-52.03856 203.08274-42.52023 191.34098-42.52023Z" fill="#3333ff"/>
<path transform="matrix(1.00003,0,0,-1,24.24228,13.397)" d="M191.34095-63.78032V-42.52023C179.59918-42.52023 170.08086-52.03856 170.08086-63.78032Z" fill="#3333ff"/>
<path transform="matrix(1.00003,0,0,-1,24.24228,13.397)" d="M191.34095-63.78032H170.08086C170.08086-75.52208 179.59918-85.0404 191.34095-85.0404Z" fill="#3333ff"/>
<path transform="matrix(1.00003,0,0,-1,24.24228,13.397)" stroke-width=".3985" stroke-linecap="butt" stroke-miterlimit="10" stroke-linejoin="miter" fill="none" stroke="#000000" d="M276.38136-63.78032C276.38136-52.03856 266.86305-42.52023 255.12128-42.52023 243.37952-42.52023 233.86119-52.03856 233.86119-63.78032 233.86119-75.52208 243.37952-85.0404 255.12128-85.0404 266.86305-85.0404 276.38136-75.52208 276.38136-63.78032ZM255.12128-63.78032"/>
<path transform="matrix(1.00003,0,0,-1,24.24228,13.397)" stroke-width=".3985" stroke-linecap="butt" stroke-miterlimit="10" stroke-linejoin="miter" fill="none" stroke="#000000" d="M233.86116-63.78032H276.38136"/>
<path transform="matrix(1.00003,0,0,-1,24.24228,13.397)" stroke-width=".3985" stroke-linecap="butt" stroke-miterlimit="10" stroke-linejoin="miter" fill="none" stroke="#000000" d="M255.12128-85.0404V-42.52023"/>
<path transform="matrix(1.00003,0,0,-1,24.24228,13.397)" d="M255.12128-63.78032H276.38136C276.38136-52.03856 266.86305-42.52023 255.12128-42.52023Z" fill="#3333ff"/>
<path transform="matrix(1.00003,0,0,-1,24.24228,13.397)" d="M255.12128-63.78032V-42.52023C243.37952-42.52023 233.86119-52.03856 233.86119-63.78032Z" fill="#3333ff"/>
<path transform="matrix(1.00003,0,0,-1,24.24228,13.397)" d="M255.12128-63.78032H233.86116C233.86116-75.52208 243.37949-85.0404 255.12125-85.0404Z" fill="#3333ff"/>
<path transform="matrix(1.00003,0,0,-1,24.24228,13.397)" d="M255.12128-63.78032V-85.0404C266.86305-85.0404 276.38136-75.52208 276.38136-63.78032Z" fill="#3333ff"/>
</svg>
