<svg xmlns="http://www.w3.org/2000/svg" xmlns:xlink="http://www.w3.org/1999/xlink" xmlns:inkscape="http://www.inkscape.org/namespaces/inkscape" version="1.1" width="174" height="188" viewBox="0 0 174 188">
<defs>
<path id="font_1_78" d="M.5419922 .32951356C.5419922 .38146974 .5389862 .48536683 .48799134 .56329348 .45399476 .61224368 .3959961 .65625 .29699708 .65625 .15299988 .65625 .04899597 .5762787 .04899597 .44041444 .04899597 .3155365 .13398743 .22558594 .2829895 .22558594 .32699586 .22558594 .36999513 .24757385 .40098573 .3015442V.28356935C.40098573 .21755982 .3939972 .15446472 .375 .11239624 .3619995 .086364749 .32199098 .03327942 .24398804 .03327942 .23599243 .03327942 .19299317 .03327942 .1619873 .05430603 .19599915 .06561279 .20899964 .09161377 .20899964 .117614749 .20899964 .15960694 .1769867 .18261719 .14399719 .18261719 .116989139 .18261719 .07899475 .16560364 .07899475 .115615848 .07899475 .04751587 .12998963-.01171875 .24598694-.01171875 .3849945-.01171875 .5419922 .0776062 .5419922 .32957459V.32951356M.3999939 .4295807C.3999939 .38357545 .38198854 .26657105 .28599549 .26657105 .18998719 .26623536 .18998719 .33924867 .18998719 .43824769 .18998719 .5352478 .18998719 .61624148 .29899598 .61624148 .3619995 .61624148 .3849945 .5602417 .3880005 .551239 .3999939 .5182495 .3999939 .46324159 .3999939 .429245V.4295807Z"/>
<path id="font_1_43" d="M.49198915 .11613464C.49198915 .13212586 .47698976 .13212586 .46598817 .13212586 .44599916 .13212586 .44599916 .13113404 .43798829 .11312866 .41799928 .06512451 .37298585 .037139894 .31399537 .037139894 .17199707 .037139894 .17199707 .18112183 .17199707 .22612 .17199707 .28611756 .17298889 .41011048 .3039856 .41011048 .31098939 .41011048 .36499024 .40911866 .36499024 .40411378L.3619995 .39912416C.35299684 .38812257 .34899903 .3721161 .34899903 .35812379 .34899903 .3171234 .37998963 .29312135 .4139862 .29312135 .44499208 .29312135 .47898866 .31411744 .47898866 .3591156 .47898866 .453125 .33898927 .453125 .2999878 .453125 .10798645 .453125 .038986207 .33111573 .038986207 .22212219 .038986207 .09613037 .1289978-.005859375 .29499818-.005859375 .33198548-.005859375 .3809967 .0001373291 .4229889 .026138306 .47999574 .06098938 .49198915 .11299133 .49198915 .115997318V.11613464Z"/>
<path id="font_1_75" d="M.95899966-.0002746582V.048721315H.8909912V.30471803C.8909912 .42271424 .81999209 .4497223 .7319946 .4497223 .6279907 .4497223 .57699587 .38671876 .55799868 .3557129 .5359955 .4457245 .44799806 .4497223 .4039917 .4497223 .27999879 .4497223 .23098755 .35972596 .22399903 .34472657H.22299195V.4497223L.049987794 .44172669V.39271546C.10998535 .39271546 .117996219 .39271546 .117996219 .353714V.048721315H.049987794V-.0002746582L.17599488 .0027160645 .30299378-.0002746582V.048721315H.23498535V.25372315C.23498535 .36471559 .32699586 .40971376 .3869934 .40971376 .4249878 .40971376 .44599916 .38972474 .44599916 .3137207V.048721315H.37799073V-.0002746582L.5039978 .0027160645 .6309967-.0002746582V.048721315H.5629883V.25372315C.5629883 .36471559 .6549988 .40971376 .71499636 .40971376 .7529907 .40971376 .7739868 .38972474 .7739868 .3137207V.048721315H.70599368V-.0002746582L.83200076 .0027160645 .95899966-.0002746582Z"/>
<path id="font_1_82" d="M.5089874 0V.04899597H.3639984V.62309268C.3639984 .6451874 .3639984 .65625 .33499146 .65625 .32299806 .65625 .32099916 .65625 .31199647 .6492157 .23498535 .5919647 .12799073 .5919647 .10798645 .5919647H.08799744V.54296877H.10798645C.13198853 .54296877 .18598938 .5459595 .24198914 .56295779V.04899597H.09899902V0C.13699341 .0029907227 .2579956 .0029907227 .30299378 .0029907227 .34999085 .0029907227 .46798707 .0029907227 .5089874 0Z"/>
<path id="font_1_106" d="M.5419922 .18023682C.5419922 .25924684 .48199464 .32824708 .36898805 .35224916 .46998597 .38723756 .5089874 .4562378 .5089874 .51724246 .5089874 .5922394 .43399049 .65625 .2849884 .65625 .1619873 .65625 .08198547 .59013369 .08198547 .50909426 .08198547 .46409608 .11399841 .4360962 .1539917 .4360962 .19699097 .4360962 .22599793 .4670868 .22599793 .50808718 .22599793 .5410919 .20698548 .5700989 .16699219 .57910159 .1749878 .5861206 .21598816 .61624148 .27999879 .61624148 .36698915 .61624148 .36698915 .5510864 .36698915 .51908877 .36698915 .463089 .34599305 .3761139 .2599945 .37112428L.21299744 .36816407C.19699097 .3661499 .19699097 .35516358 .19699097 .3481598 .19699097 .32815553 .20799256 .32815553 .22599793 .32815553H.272995C.3849945 .32815553 .3849945 .23019409 .3849945 .18022156 .3849945 .13523865 .3849945 .03327942 .27799989 .03327942 .2659912 .03327942 .19699097 .03527832 .15098572 .06825256 .19699097 .08125305 .20698548 .12023926 .20698548 .14323426 .20698548 .19036865 .17399597 .22238159 .12799073 .22238159 .084991458 .22238159 .04899597 .19337464 .04899597 .14237976 .04899597 .048324586 .14898682-.01171875 .2829895-.01171875 .46598817-.01171875 .5419922 .088378909 .5419922 .18037415V.18023682Z"/>
</defs>
<path transform="matrix(1.00002,0,0,-1.00003,2.29467,172.08267)" stroke-width=".79701" stroke-linecap="butt" stroke-miterlimit="10" stroke-linejoin="miter" fill="none" stroke="#000000" d="M0 0H170.08086L141.73404 85.04042H28.3468Z"/>
<path transform="matrix(1.00002,0,0,-1.00003,2.29467,172.08267)" stroke-width=".79701" stroke-linecap="butt" stroke-miterlimit="10" stroke-linejoin="miter" fill="none" stroke="#000000" d="M0 0 85.04042 170.08086"/>
<path transform="matrix(1.00002,0,0,-1.00003,2.29467,172.08267)" stroke-width=".79701" stroke-linecap="butt" stroke-miterlimit="10" stroke-linejoin="miter" fill="none" stroke="#000000" d="M170.08086 0 85.04042 170.08086"/>
<path transform="matrix(1.00002,0,0,-1.00003,2.29467,172.08267)" stroke-width=".79701" stroke-linecap="butt" stroke-miterlimit="10" stroke-linejoin="miter" fill="none" stroke="#000000" d="M141.73404 85.04042 85.04042 170.08086"/>
<path transform="matrix(1.00002,0,0,-1.00003,2.29467,172.08267)" stroke-width=".79701" stroke-linecap="butt" stroke-miterlimit="10" stroke-linejoin="miter" fill="none" stroke="#000000" d="M28.3468 85.04042 85.04042 170.08086"/>
<path transform="matrix(1.00002,0,0,-1.00003,2.29467,172.08267)" stroke-width=".3985" stroke-linecap="butt" stroke-dasharray="2.98883,2.98883" stroke-miterlimit="10" stroke-linejoin="miter" fill="none" stroke="#000000" d="M0 0 141.73404 85.04042"/>
<path transform="matrix(1.00002,0,0,-1.00003,2.29467,172.08267)" stroke-width=".3985" stroke-linecap="butt" stroke-dasharray="2.98883,2.98883" stroke-miterlimit="10" stroke-linejoin="miter" fill="none" stroke="#000000" d="M170.08086 0 28.3468 85.04042"/>
<path transform="matrix(1.00002,0,0,-1.00003,2.29467,172.08267)" stroke-width=".3985" stroke-linecap="butt" stroke-dasharray="2.98883,2.98883" stroke-miterlimit="10" stroke-linejoin="miter" fill="none" stroke="#ff0000" d="M85.04042 170.08086V51.02432"/>
<path transform="matrix(1.00002,0,0,-1.00003,2.29467,172.08267)" stroke-width="1.19553" stroke-linecap="butt" stroke-miterlimit="10" stroke-linejoin="miter" fill="none" stroke="#000000" d="M85.04042 51.02432H93.54454V59.52844H85.04042"/>
<use data-text="9" xlink:href="#font_1_78" transform="matrix(8.966579,0,0,-8.966669,90.85644,70.0836)"/>
<use data-text="c" xlink:href="#font_1_43" transform="matrix(8.966579,0,0,-8.966669,99.69748,70.0836)"/>
<use data-text="m" xlink:href="#font_1_75" transform="matrix(8.966579,0,0,-8.966669,104.413898,70.0836)"/>
<use data-text="1" xlink:href="#font_1_82" transform="matrix(8.966579,0,0,-8.966669,73.48309,186.3091)"/>
<use data-text="3" xlink:href="#font_1_106" transform="matrix(8.966579,0,0,-8.966669,78.791309,186.3091)"/>
<use data-text="c" xlink:href="#font_1_43" transform="matrix(8.966579,0,0,-8.966669,87.63235,186.3091)"/>
<use data-text="m" xlink:href="#font_1_75" transform="matrix(8.966579,0,0,-8.966669,92.34876,186.3091)"/>
</svg>
