<svg xmlns="http://www.w3.org/2000/svg" xmlns:xlink="http://www.w3.org/1999/xlink" xmlns:inkscape="http://www.inkscape.org/namespaces/inkscape" version="1.1" width="226" height="159" viewBox="0 0 226 159">
<defs>
<path id="font_1_113" d="M1.1640015 .63853457V.6855469C1.1369934 .6845398 1.1019898 .6825409 1.0569916 .6825409 1.0189972 .6825409 .95700076 .6825409 .92099 .6855469V.63853457C.94599917 .63853457 .99398806 .63853457 1.022995 .6275482L.8509979 .1809845 .673996 .63853457H.769989V.6855469C.7319946 .6825409 .6380005 .6825409 .59498599 .6825409 .55599978 .6825409 .47698976 .6825409 .44198609 .6855469V.63853457H.5279999L.56900027 .53263857 .43299867 .1809845 .2559967 .63853457H.35198976V.6855469C.31399537 .6825409 .21998596 .6825409 .1769867 .6825409 .13798523 .6825409 .05899048 .6825409 .023986817 .6855469V.63853457H.10998535L.34999085 .018157959C.35598756 .002166748 .3600006-.0078125 .3849945-.0078125 .4099884-.0078125 .4139862 .002166748 .41999818 .018157959L.59399417 .4677124 .7679901 .018157959C.7739868 .002166748 .7779999-.0078125 .8029938-.0078125 .8279877-.0078125 .83200076 .002166748 .83799746 .018157959L1.0690003 .614563C1.074997 .631546 1.0759888 .6335449 1.1069946 .63653567 1.1269989 .63853457 1.147995 .63853457 1.1640015 .63853457Z"/>
<path id="font_1_28" d="M.5529938 .023986817C.5529938 .04699707 .5399933 .04699707 .5269928 .04699707 .46598817 .04798889 .46598817 .06100464 .46598817 .083999637V.29907228C.46598817 .3881073 .394989 .453125 .24598694 .453125 .18899536 .453125 .066986087 .44911195 .066986087 .36109925 .066986087 .3170929 .101989749 .29808045 .1289978 .29808045 .1599884 .29808045 .19198609 .3190918 .19198609 .36109925 .19198609 .39111329 .17298889 .40811158 .16999817 .41011048 .19799805 .41612245 .22999573 .41711427 .24198914 .41711427 .31698609 .41711427 .35198976 .3751068 .35198976 .29907228V.26506043C.2809906 .2620697 .026992798 .25306703 .026992798 .10801697 .026992798 .012130737 .15098572-.005859375 .21998596-.005859375 .2999878-.005859375 .34700013 .035125734 .36898805 .07713318 .36898805 .04598999 .36898805 0 .47299195 0H.5209961C.54100039 0 .5529938 0 .5529938 .023986817M.35198976 .13899231C.35198976 .043151857 .2599945 .030136109 .23498535 .030136109 .18399048 .030136109 .14399719 .06517029 .14399719 .10922241 .14399719 .21734619 .3019867 .23136902 .35198976 .234375V.13899231Z"/>
<path id="font_1_72" d="M.29299928 0V.04699707H.22399903V.69433596L.04699707 .6855469V.63853457C.10899353 .63853457 .115997318 .63853457 .115997318 .5995636V.04699707H.04699707V0L.16999817 .0029907227 .29299928 0Z"/>
<path id="font_1_58" d="M.8450012 .22935486V.2763672C.80999758 .2733612 .72299197 .2733612 .6839905 .2733612 .6259918 .2733612 .5329895 .2733612 .47898866 .2763672V.22935486H.6230011V.1282959C.6230011 .109298709 .6230011 .08027649 .58399966 .057266237 .55799868 .042251588 .526001 .036254884 .49398805 .036254884 .4079895 .036254884 .32199098 .06526184 .272995 .12730408 .22999573 .18232727 .21699524 .25335694 .21699524 .3443451 .21699524 .4563141 .23699951 .5142975 .27398683 .5632782 .31399537 .613266 .3909912 .6502533 .4869995 .6502533 .59399417 .6502533 .68899539 .5742798 .71099856 .4473114 .71398928 .4283142 .71499636 .4263153 .73799136 .4263153 .7639923 .4263153 .7649994 .4283142 .7649994 .4543152V.6692505C.7649994 .68826296 .7649994 .6972656 .746994 .6972656 .73799136 .6972656 .73599246 .69525149 .7279968 .68826296L.6619873 .62927249C.58898928 .68725588 .5169983 .6972656 .46499635 .6972656 .21899414 .6972656 .06399536 .55029299 .06399536 .343338 .06399536 .14431763 .20899964-.0107421879 .46699525-.0107421879 .5-.0107421879 .6029968-.008743286 .6529999 .053253175 .6839905 .026245118 .74398806 .00024414063 .7509918 .00024414063 .7649994 .00024414063 .7649994 .013244629 .7649994 .028244019V.22935486H.8450012Z"/>
<path id="font_1_96" d="M.44198609 .36819459C.44198609 .42118836 .3880005 .4501953 .33599855 .4501953 .2659912 .4501953 .22599793 .40019227 .20298767 .33718873V.4501953L.036987306 .4423828V.39537049C.09899902 .39537049 .10598755 .39537049 .10598755 .3563385V.04699707H.036987306V0L.16299439 .0029907227C.20098877 .0029907227 .2649994 .0029907227 .30099488 0V.04699707H.21398926V.22218323C.21398926 .29226686 .23899842 .41436769 .33898927 .41436769 .33898927 .41436769 .31999208 .39736939 .31999208 .36834718 .31999208 .32730104 .35198976 .3072815 .3809967 .3072815 .4099884 .3072815 .44198609 .3283081 .44198609 .36834718V.36819459Z"/>
<path id="font_1_81" d="M.5419922 .21812439C.5419922 .35212709 .44999696 .453125 .2869873 .453125 .12298584 .453125 .03199768 .35112 .03199768 .21812439 .03199768 .09413147 .11999512-.005859375 .2869873-.005859375 .45498658-.005859375 .5419922 .09512329 .5419922 .21812439M.4139862 .22912598C.4139862 .14213562 .4139862 .03413391 .2869873 .03413391 .1599884 .03413391 .1599884 .14213562 .1599884 .22912598 .1599884 .27412416 .1599884 .32511903 .1769867 .3591156 .19599915 .39611817 .23799134 .41711427 .2869873 .41711427 .32899476 .41711427 .37098695 .40112306 .3929901 .36611939 .4139862 .3321228 .4139862 .27713014 .4139862 .22912598Z"/>
<path id="font_1_109" d="M.61499026 .0001373291V.0471344C.5529938 .0471344 .54599 .0471344 .54599 .086135867V.4501953L.36299134 .44218446V.39518739C.4249878 .39518739 .43199159 .39518739 .43199159 .3561859V.16514588C.43199159 .08314514 .3809967 .030136109 .30799867 .030136109 .23098755 .030136109 .22799683 .055130006 .22799683 .10914612V.4501953L.04499817 .44218446V.39518739C.10699463 .39518739 .11399841 .39518739 .11399841 .3561859V.12313843C.11399841 .01612854 .19499207-.005859375 .2939911-.005859375 .31999208-.005859375 .3919983-.005859375 .43798829 .072143558V-.005859375L.61499026 .0001373291Z"/>
<path id="font_1_77" d="M.61499026 0V.04699707H.54599V.30613709C.54599 .41119386 .49198915 .4501953 .3919983 .4501953 .29599 .4501953 .24299622 .39318849 .21699524 .3421631V.4501953L.04499817 .4423828V.39537049C.10699463 .39537049 .11399841 .39537049 .11399841 .3563385V.04699707H.04499817V0L.17098999 .0029907227 .29699708 0V.04699707H.22799683V.2562256C.22799683 .3653412 .31399537 .41436769 .3769989 .41436769 .41099549 .41436769 .43199159 .39337159 .43199159 .31729127V.04699707H.36299134V0L.4889984 .0029907227 .61499026 0Z"/>
<path id="font_1_47" d="M.6009979 0V.04699707C.5389862 .04699707 .5319977 .04699707 .5319977 .086013797V.69433596L.35499574 .6855469V.63853457C.4169922 .63853457 .42399598 .63853457 .42399598 .5996704V.40518189C.37399293 .44418336 .32199098 .4501953 .2889862 .4501953 .14299011 .4501953 .037994386 .36218263 .037994386 .22116089 .037994386 .089141849 .12998963-.005859375 .27799989-.005859375 .33898927-.005859375 .3869934 .018127442 .41799928 .043136598V-.005859375L.6009979 0M.41799928 .102996829C.40499879 .08514404 .3639984 .030136109 .28799439 .030136109 .1659851 .030136109 .1659851 .15115357 .1659851 .22116089 .1659851 .26916505 .1659851 .3231659 .19198609 .36218263 .22099304 .40419007 .2679901 .41418458 .29899598 .41418458 .35598756 .41418458 .3959961 .3821869 .41799928 .35317994V.102996829Z"/>
<path id="font_1_56" d="M.5169983 .20121765C.5169983 .31617738 .43798829 .4091797 .2899933 .4091797 .26098634 .4091797 .20799256 .4061737 .16099549 .37417604V.5060425C.18899536 .5010376 .19999695 .4990387 .23399353 .4990387 .37998963 .4990387 .47200013 .6120453 .47200013 .637146 .47200013 .64419558 .46998597 .65527346 .45799256 .65527346 .45498658 .65527346 .45399476 .65527346 .44299317 .6512451 .38598634 .62908938 .33299256 .6230469 .2899933 .6230469 .21398926 .6230469 .16099549 .6421814 .1349945 .6512451 .12599182 .65426638 .125 .65527346 .12199402 .65527346 .10798645 .65527346 .10798645 .64419558 .10798645 .6280823V.33618165C.10798645 .31817628 .10798645 .30519105 .12998963 .30519105 .14299011 .30519105 .14498902 .30918885 .1519928 .31718446 .19099427 .36317445 .24499512 .37316896 .28599549 .37316896 .375 .37316896 .375 .28518678 .375 .20521546 .375 .13223267 .375 .03225708 .25498963 .03225708 .23098755 .03225708 .16799927 .037246705 .12599182 .09423828 .1619873 .09648132 .19099427 .1204834 .19099427 .16148377 .19099427 .21447754 .147995 .22949219 .12399292 .22949219 .10899353 .22949219 .056991579 .2204895 .056991579 .15948487 .056991579 .074417117 .1349945-.0107421879 .25898744-.0107421879 .4189911-.0107421879 .5169983 .079437259 .5169983 .20147705V.20121765Z"/>
<path id="font_1_43" d="M.47799684 .117126468C.47799684 .13113404 .46398927 .13113404 .45399476 .13113404 .43598939 .13113404 .43499757 .12913513 .42999269 .11613464 .4039917 .053131105 .35598756 .03413391 .30499269 .03413391 .1659851 .03413391 .1659851 .18112183 .1659851 .22712708 .1659851 .28312684 .1659851 .41311646 .29499818 .41311646 .32998658 .41311646 .34700013 .41011048 .3600006 .40711976 .34199525 .39111329 .33999635 .3701172 .33999635 .3611145 .33999635 .3171234 .375 .29811097 .4019928 .29811097 .43299867 .29811097 .46499635 .3191223 .46499635 .3611145 .46499635 .44711305 .34899903 .453125 .29100038 .453125 .11199951 .45314027 .037994386 .33813478 .037994386 .22213745 .037994386 .08912659 .13198853-.005859375 .28599549-.005859375 .44799806-.005859375 .47799684 .11013794 .47799684 .117126468Z"/>
<path id="font_1_75" d="M.93499758 0V.04699707H.8659973V.30613709C.8659973 .40919496 .8149872 .4501953 .71199038 .4501953 .62098696 .4501953 .56900027 .40019227 .54299929 .3541565 .522995 .44718934 .43099977 .4501953 .3929901 .4501953 .30599977 .4501953 .24899292 .40518189 .21699524 .3421631V.4501953L.04499817 .4423828V.39537049C.10699463 .39537049 .11399841 .39537049 .11399841 .3563385V.04699707H.04499817V0L.17098999 .0029907227 .29699708 0V.04699707H.22799683V.2562256C.22799683 .3653412 .31498719 .41436769 .3769989 .41436769 .41099549 .41436769 .43299867 .39437867 .43299867 .31729127V.04699707H.3639984V0L.48999024 .0029907227 .6159973 0V.04699707H.5469971V.2562256C.5469971 .3653412 .6339874 .41436769 .69599917 .41436769 .7299957 .41436769 .7519989 .39437867 .7519989 .31729127V.04699707H.68299868V0L.8089905 .0029907227 .93499758 0Z"/>
<path id="font_2_2" d="M.18399048 .34199525V.36097718C.18399048 .47483827 .20498657 .5178375 .21199036 .5328369 .23599243 .579834 .2899933 .616272 .35099793 .616272 .36898805 .616272 .40299989 .6132202 .42599488 .58984377 .3899994 .58483889 .37199403 .5578308 .37199403 .52783206 .37199403 .49383546 .394989 .46583558 .43399049 .46583558 .47299195 .46583558 .49699403 .49183656 .49699403 .52983096 .49699403 .59187319 .45498658 .65527346 .34899903 .65527346 .21299744 .65527346 .04798889 .5688324 .04798889 .3170166 .04798889 .23808289 .056991579 .15814209 .09799194 .08920288 .14498902 .013244629 .22099304-.0107421879 .29100038-.0107421879 .42999269-.0107421879 .526001 .07121277 .526001 .20510865 .526001 .34498597 .4249878 .41796876 .3039856 .41796876 .28199769 .41796876 .22599793 .41796876 .18399048 .34199525M.2889862 .03225708C.23699951 .03225708 .20999146 .07121277 .20199585 .08720398 .18598938 .11917114 .18598938 .19212342 .18598938 .21009827 .18598938 .33499146 .23999024 .381958 .29499818 .381958 .3899994 .381958 .3899994 .3070221 .3899994 .20710755 .3899994 .10618591 .3899994 .03225708 .2889862 .03225708Z"/>
<path id="font_2_1" d="M.5169983 .20147705C.5169983 .31629945 .43798829 .4091797 .2899933 .4091797 .26098634 .4091797 .20799256 .4061737 .16099549 .37417604V.5060425C.18899536 .5010376 .19999695 .4990387 .23399353 .4990387 .37998963 .4990387 .47200013 .6120453 .47200013 .6370392 .47200013 .64404299 .46998597 .65504458 .45799256 .65504458 .45498658 .65504458 .45399476 .65504458 .44299317 .65104678 .38598634 .6290436 .33299256 .6230469 .2899933 .6230469 .21398926 .6230469 .16099549 .64204409 .1349945 .65104678 .12599182 .6540375 .125 .65504458 .12199402 .65504458 .10798645 .65504458 .10798645 .64404299 .10798645 .6280365V.33625794C.10798645 .31829835 .10798645 .3053131 .12998963 .3053131 .14299011 .3053131 .14498902 .3093109 .1519928 .31729127 .19099427 .3631897 .24499512 .37316896 .28599549 .37316896 .375 .37316896 .375 .28536988 .375 .20549011 .375 .1324768 .375 .03225708 .25498963 .03225708 .23098755 .03225708 .16799927 .037261964 .12599182 .09448242 .1619873 .09648132 .19099427 .1204834 .19099427 .16148377 .19099427 .21447754 .147995 .22949219 .12399292 .22949219 .10899353 .22949219 .056991579 .2204895 .056991579 .15948487 .056991579 .074417117 .1349945-.0107421879 .25898744-.0107421879 .4189911-.0107421879 .5169983 .079437259 .5169983 .20147705Z"/>
<path id="font_3_1" d="M.5069885 .24998474C.5069885 .3710022 .4099884 .4650116 .2919922 .4650116 .17199707 .4650116 .07699585 .36799623 .07699585 .25097657 .07699585 .1299591 .17399597 .035949708 .2919922 .035949708 .4119873 .035949708 .5069885 .13296509 .5069885 .24998474M.2919922 .08496094C.19799805 .08496094 .12599182 .16096497 .12599182 .24998474 .12599182 .34300233 .19999695 .41601563 .2919922 .41601563 .38598634 .41601563 .45799256 .33999635 .45799256 .25097657 .45799256 .15795899 .38398744 .08496094 .2919922 .08496094Z"/>
</defs>
<path transform="matrix(1,0,0,-1,12.624001,153.565)" stroke-width="1.19553" stroke-linecap="butt" stroke-miterlimit="10" stroke-linejoin="miter" fill="none" stroke="#000000" d="M0 0V141.73404"/>
<use data-text="W" xlink:href="#font_1_113" transform="matrix(9.9626,0,0,-9.9626,1.2170029,7.833008)"/>
<use data-text="a" xlink:href="#font_1_28" transform="matrix(9.9626,0,0,-9.9626,12.116081,7.833008)"/>
<use data-text="l" xlink:href="#font_1_72" transform="matrix(9.9626,0,0,-9.9626,17.685173,7.833008)"/>
<use data-text="l" xlink:href="#font_1_72" transform="matrix(9.9626,0,0,-9.9626,20.863244,7.833008)"/>
<path transform="matrix(1,0,0,-1,12.624001,153.565)" stroke-width="1.19553" stroke-linecap="butt" stroke-miterlimit="10" stroke-linejoin="miter" fill="none" stroke="#000000" d="M0 0H170.08086"/>
<use data-text="G" xlink:href="#font_1_58" transform="matrix(9.9626,0,0,-9.9626,186.62299,156.982)"/>
<use data-text="r" xlink:href="#font_1_96" transform="matrix(9.9626,0,0,-9.9626,195.62918,156.982)"/>
<use data-text="o" xlink:href="#font_1_81" transform="matrix(9.9626,0,0,-9.9626,200.35146,156.982)"/>
<use data-text="u" xlink:href="#font_1_109" transform="matrix(9.9626,0,0,-9.9626,206.07996,156.982)"/>
<use data-text="n" xlink:href="#font_1_77" transform="matrix(9.9626,0,0,-9.9626,212.44605,156.982)"/>
<use data-text="d" xlink:href="#font_1_47" transform="matrix(9.9626,0,0,-9.9626,218.81215,156.982)"/>
<path transform="matrix(1,0,0,-1,12.624001,153.565)" d="M8.50412 141.73404 121.89136 8.50412 113.38724 0 0 133.2299Z" fill="#cccccc"/>
<path transform="matrix(1,0,0,-1,12.624001,153.565)" stroke-width="1.19553" stroke-linecap="butt" stroke-miterlimit="10" stroke-linejoin="miter" fill="none" stroke="#0000ff" d="M8.50412 141.73404 121.89136 8.50412 113.38724 0 0 133.2299Z"/>
<path transform="matrix(1,0,0,-1,12.624001,153.565)" stroke-width="1.19553" stroke-linecap="butt" stroke-miterlimit="10" stroke-linejoin="miter" fill="none" stroke="#000000" d="M0 0H14.17339V14.17339H0Z"/>
<use data-text="5" xlink:href="#font_1_56" transform="matrix(9.9626,0,0,-9.9626,85.575,85.906009)"/>
<use data-text="c" xlink:href="#font_1_43" transform="matrix(9.9626,0,0,-9.9626,95.11916,85.906009)"/>
<use data-text="m" xlink:href="#font_1_75" transform="matrix(9.9626,0,0,-9.9626,100.21005,85.906009)"/>
<path transform="matrix(1,0,0,-1,12.624001,153.565)" stroke-width=".3985" stroke-linecap="butt" stroke-miterlimit="10" stroke-linejoin="miter" fill="none" stroke="#000000" d="M113.38724 0C113.38724 4.69675 109.57986 8.50412 104.8831 8.50412 100.18636 8.50412 96.37898 4.69675 96.37898 0"/>
<use data-text="6" xlink:href="#font_2_2" transform="matrix(9.9626,0,0,-9.9626,98.15,148.491)"/>
<use data-text="5" xlink:href="#font_2_1" transform="matrix(9.9626,0,0,-9.9626,103.878498,148.491)"/>
<use data-text="&#x25e6;" xlink:href="#font_3_1" transform="matrix(6.9738,0,0,-6.9738,109.607,144.875)"/>
<path transform="matrix(1,0,0,-1,12.624001,153.565)" stroke-width="1.19553" stroke-linecap="butt" stroke-miterlimit="10" stroke-linejoin="miter" fill="none" stroke="#0000ff" d="M26.64476 119.0565H18.14064"/>
<path transform="matrix(1,0,0,-1,12.624001,153.565)" stroke-width="1.19553" stroke-linecap="butt" stroke-miterlimit="10" stroke-linejoin="miter" fill="none" stroke="#0000ff" d="M44.78714 96.37897H36.28299"/>
<path transform="matrix(1,0,0,-1,12.624001,153.565)" stroke-width="1.19553" stroke-linecap="butt" stroke-miterlimit="10" stroke-linejoin="miter" fill="none" stroke="#0000ff" d="M62.9295 73.70186H54.42537"/>
<path transform="matrix(1,0,0,-1,12.624001,153.565)" stroke-width="1.19553" stroke-linecap="butt" stroke-miterlimit="10" stroke-linejoin="miter" fill="none" stroke="#0000ff" d="M81.07188 51.02432H72.56775"/>
<path transform="matrix(1,0,0,-1,12.624001,153.565)" stroke-width="1.19553" stroke-linecap="butt" stroke-miterlimit="10" stroke-linejoin="miter" fill="none" stroke="#0000ff" d="M99.21252 28.3468H90.70839"/>
</svg>
