<svg xmlns="http://www.w3.org/2000/svg" xmlns:xlink="http://www.w3.org/1999/xlink" xmlns:inkscape="http://www.inkscape.org/namespaces/inkscape" version="1.1" width="454" height="381" viewBox="0 0 454 381">
<defs>
<path id="font_1_28" d="M.5130005 .14328003C.5130005 .15228272 .5039978 .15228272 .5 .15228272 .48799134 .15228272 .4869995 .1512909 .48098756 .12828064 .46099855 .04524231 .44198609 .010238647 .4139862 .010238647 .3919983 .010238647 .3869934 .031234742 .3869934 .050247194 .3869934 .06526184 .3909912 .088256839 .394989 .103271488L.46499635 .38237C.46798707 .39337159 .46798707 .39837647 .46798707 .39837647 .46798707 .40937806 .45999146 .4223938 .44198609 .4223938 .4099884 .4223938 .40299989 .38337709 .40299989 .38337709L.4019928 .38237C.3829956 .42939759 .34899903 .44140626 .32199098 .44140626 .21299744 .44140626 .09799194 .28834535 .09799194 .14228821 .09799194 .053253175 .14498902-.009765625 .21299744-.009765625 .2539978-.009765625 .29499818 .016235352 .33299256 .06124878 .34399415 .00022888184 .3889923-.009765625 .4119873-.009765625 .45098878-.009765625 .47099305 .019241333 .48399354 .04824829 .5009918 .08326721 .5130005 .1402893 .5130005 .14328003M.33898927 .121276859C.33299256 .09526062 .272995 .010238647 .21499634 .010238647 .1619873 .010238647 .1599884 .088256839 .1599884 .1002655 .1599884 .15028382 .19198609 .2683258 .20799256 .3083496 .23399353 .3703766 .2789917 .42138673 .32199098 .42138673 .38198854 .42138673 .3889923 .33235169 .3889923 .3253479L.38598634 .31134034 .33898927 .121276859Z"/>
<path id="font_1_72" d="M.272995 .14222718C.272995 .15222168 .2649994 .15222168 .2599945 .15222168 .2559967 .15222168 .24899292 .15222168 .24699402 .14622498 .24598694 .14323426 .24198914 .1282196 .23899842 .11923218 .22599793 .07022095 .20899964 .010223389 .1749878 .010223389 .15299988 .010223389 .147995 .031219483 .147995 .050231935 .147995 .06323242 .15299988 .0912323 .1559906 .10423279L.2979889 .67123416C.29899598 .67723086 .30099488 .68122866 .30099488 .6842346 .30099488 .69322207 .2939911 .6942291 .27799989 .69322207L.17799378 .6842346C.1639862 .68322756 .15499878 .6822357 .15499878 .66423037 .15499878 .6542206 .16299439 .6542206 .1769867 .6542206 .22698975 .6542206 .22698975 .64523318 .22698975 .6352234 .22698975 .6312256 .22499085 .6212311 .22399903 .6172333L.09799194 .113220218C.09599304 .10423279 .09298706 .0932312 .09298706 .07823181 .09298706 .025222779 .1269989-.009765625 .17298889-.009765625 .20698548-.009765625 .22698975 .01322937 .24099732 .041229249 .25898744 .07423401 .272995 .13922119 .272995 .14222718Z"/>
<path id="font_1_77" d="M.57299807 .14328003C.57299807 .15228272 .56399539 .15228272 .55999758 .15228272 .5479889 .15228272 .5469971 .14929199 .54299929 .13427735 .5339966 .1002655 .5069885 .010238647 .45098878 .010238647 .43598939 .010238647 .42799378 .017242432 .42799378 .040252687 .42799378 .06425476 .43899537 .09526062 .44699098 .11528015 .47299195 .18829346 .5069885 .28134156 .5069885 .33935548 .5069885 .39237977 .48399354 .44140626 .40699769 .44140626 .34498597 .44140626 .2979889 .40538026 .2649994 .36036683 .2619934 .40538026 .23098755 .44140626 .18499756 .44140626 .1619873 .44140626 .13598633 .43139649 .114990238 .38838197 .09599304 .35136415 .08299255 .28933717 .08299255 .28933717 .08299255 .28134156 .08799744 .2793274 .09700012 .2793274 .10798645 .2793274 .10899353 .28033448 .114990238 .30334474 .12998963 .36236573 .14898682 .42138673 .18299866 .42138673 .20899964 .42138673 .20899964 .39237977 .20899964 .3803711 .20899964 .36135865 .20498657 .33935548 .20098877 .3253479L.12799073 .0332489C.12399292 .019241333 .12399292 .018234253 .12399292 .01423645 .12399292 .0022277833 .13198853-.009765625 .1499939-.009765625 .17298889-.009765625 .18299866 .008239746 .18699646 .025238038L.24798584 .2713318C.2539978 .29333497 .30799867 .42138673 .4039917 .42138673 .44999696 .42138673 .44999696 .3713684 .44999696 .35437013 .44999696 .29234315 .4059906 .17230225 .3889923 .12327576 .37998963 .0982666 .37599183 .089263919 .37599183 .06825256 .37599183 .020233155 .40699769-.009765625 .44799806-.009765625 .54100039-.009765625 .57299807 .13928223 .57299807 .14328003Z"/>
<path id="font_1_59" d="M.36499024-.060043336 .47499085 .38235475C.47799684 .39337159 .47799684 .39837647 .47799684 .39837647 .47799684 .4093933 .46998597 .4223938 .45199586 .4223938 .42900086 .4223938 .41600038 .40138246 .4139862 .3843689H.41299439C.40299989 .40737916 .37799073 .44140626 .33198548 .44140626 .22599793 .44140626 .10998535 .2962799 .10998535 .15013123 .10998535 .058029176 .1599884 0 .22599793 0 .2789917 0 .32398988 .046020509 .33099366 .053024293L.29899598-.077056888C.28799439-.108062747 .25-.18510437 .16899109-.18510437 .1579895-.18510437 .12399292-.18411255 .09799194-.1730957 .11999512-.16409302 .1289978-.14408875 .1289978-.13008118 .1289978-.11706543 .11999512-.10105896 .09700012-.10105896 .07699585-.10105896 .051986696-.11807251 .051986696-.15008545 .051986696-.18811035 .09098816-.20410156 .16799927-.20410156 .269989-.20410156 .34498597-.13908386 .36499024-.060043336M.39698792 .31329347 .35099793 .1301117C.34298707 .097076419 .28199769 .018997193 .22799683 .018997193 .17399597 .018997193 .17199707 .097076419 .17199707 .10908508 .17199707 .15713501 .20199585 .2702484 .21798706 .30828858 .24299622 .37034608 .28799439 .4223938 .33198548 .4223938 .3919983 .4223938 .3999939 .3353119 .3999939 .32929994 .3999939 .32929994 .39898683 .32229615 .39698792 .31329347Z"/>
<path id="font_1_50" d="M.45700074 .1053009C.45700074 .11231995 .44898988 .12031555 .44299317 .12031555 .43998719 .12031555 .43899537 .11932373 .43099977 .110305789 .37799073 .038253786 .30299378 .010223389 .2519989 .010223389 .18598938 .010223389 .1769867 .08929443 .1769867 .12132263 .1769867 .1653595 .18399048 .1933899 .19400025 .23242188H.22999573C.2649994 .23242188 .45298768 .23242188 .45298768 .35839845 .45298768 .4033966 .41600038 .44140626 .35699464 .44140626 .25299073 .44140626 .11399841 .33940126 .11399841 .1633606 .11399841 .06227112 .1659851-.009765625 .25099183-.009765625 .375-.009765625 .45700074 .091293338 .45700074 .1053009M.4189911 .35940553C.4189911 .2524109 .25299073 .2524109 .22099304 .2524109H.19999695C.23999024 .41140748 .33799745 .42140199 .35598756 .42140199 .3959961 .42140199 .4189911 .3934021 .4189911 .35940553Z"/>
<path id="font_1_98" d="M.38398744 .15518189C.38398744 .2411499 .31298829 .2571411 .2649994 .2681427 .23799134 .2741394 .20199585 .282135 .20199585 .32713319 .20199585 .35313417 .22399903 .42132569 .30499269 .42132569 .34599305 .42132569 .375 .4002533 .38198854 .36813355 .34599305 .36413575 .34399415 .33413697 .34399415 .33013917 .34399415 .31913758 .35099793 .30513 .37098695 .30513 .3939972 .30513 .41099549 .32313539 .41099549 .35713197 .41099549 .40325929 .37098695 .44140626 .30699159 .44140626 .18699646 .44140626 .1519928 .3391266 .1519928 .29614259 .1519928 .25914 .17098999 .23815918 .17999268 .22814942 .19699097 .2121582 .21598816 .20716858 .25898744 .19715882 .28399659 .19216919 .33499146 .18017578 .33499146 .1251831 .33499146 .09819031 .31098939 .010223389 .20098877 .010223389 .16499329 .010223389 .114990238 .024215699 .10398865 .07119751 .1519928 .07319641 .1519928 .11619568 .1519928 .11619568 .1519928 .13717652 .13398743 .14518738 .12098694 .14518738 .11299133 .14518738 .07398987 .14118958 .07398987 .0861969 .07398987 .025222779 .1309967-.009765625 .19999695-.009765625 .33999635-.009765625 .38398744 .10119629 .38398744 .15518189Z"/>
<path id="font_1_105" d="M.34799195 .14302063C.34799195 .15200806 .33898927 .15200806 .33499146 .15200806 .32398988 .15200806 .32299806 .15000916 .31799317 .13902283 .30599977 .108062747 .2669983 .010192871 .20199585 .010192871 .18699646 .010192871 .17298889 .017196656 .17298889 .05014038 .17298889 .06512451 .1769867 .08808899 .18099976 .10307312L.2559967 .4016571H.33898927C.35598756 .4016571 .3659973 .4016571 .3659973 .41966249 .3659973 .43066407 .35899354 .43066407 .34199525 .43066407H.2630005L.30299378 .58792117C.3039856 .5899353 .30499269 .60095217 .30499269 .60095217 .30499269 .6099701 .2979889 .625 .2789917 .625 .2539978 .625 .24499512 .60295107 .24099732 .58792117L.20199585 .43066407H.116989139C.09899902 .43066407 .08999634 .43066407 .08999634 .4116516 .08999634 .4016571 .09799194 .4016571 .11399841 .4016571H.19499207L.12298584 .11405945C.117996219 .09408569 .117996219 .082092288 .117996219 .07810974 .117996219 .032165529 .14498902-.009765625 .19999695-.009765625 .2979889-.009765625 .34799195 .13801575 .34799195 .14302063Z"/>
<path id="font_1_63" d="M.522995 .14328003C.522995 .15228272 .5139923 .15228272 .5099945 .15228272 .49798585 .15228272 .49699403 .14929199 .49299623 .13427735 .48399354 .1002655 .45700074 .010223389 .40098573 .010223389 .38598634 .010223389 .37799073 .017227173 .37799073 .040237428 .37799073 .06425476 .3889923 .09526062 .39698792 .11526489 .4229889 .18830872 .45700074 .28134156 .45700074 .33937074 .45700074 .39237977 .43399049 .44140626 .35699464 .44140626 .29299928 .44140626 .25099183 .40438844 .22299195 .3703766L.2979889 .671402C.2999878 .6773987 .30099488 .6813965 .30099488 .68440249 .30099488 .69340518 .2939911 .694397 .27799989 .69340518L.17799378 .68440249C.1639862 .6833954 .15499878 .68240359 .15499878 .6643982 .15499878 .6544037 .16299439 .6544037 .1769867 .6544037 .22698975 .6544037 .22698975 .645401 .22698975 .6354065 .22698975 .63139346 .22499085 .6213989 .22399903 .6174011L.07798767 .033233644C.07499695 .020233155 .07398987 .018234253 .07398987 .0152282719 .07398987 .0022277833 .08299255-.009765625 .099990848-.009765625 .12799073-.009765625 .13398743 .016235352 .13598633 .023239136L.19799805 .2713318C.20399475 .29434205 .2579956 .42140199 .35398866 .42140199 .3999939 .42140199 .3999939 .37138368 .3999939 .35437013 .3999939 .29234315 .35598756 .17230225 .33898927 .12327576 .32998658 .0982666 .32598878 .089263919 .32598878 .06825256 .32598878 .020233155 .35699464-.009765625 .397995-.009765625 .4909973-.009765625 .522995 .13928223 .522995 .14328003Z"/>
<path id="font_1_75" d="M.82299807 .14328003C.82299807 .15228272 .81399539 .15228272 .80999758 .15228272 .7979889 .15228272 .7969971 .14929199 .79299929 .13427735 .7839966 .1002655 .7569885 .010238647 .70098879 .010238647 .6859894 .010238647 .6779938 .017242432 .6779938 .040252687 .6779938 .06425476 .68899539 .09526062 .69699099 .11528015 .72299197 .18829346 .7569885 .28134156 .7569885 .33935548 .7569885 .39237977 .73399356 .44140626 .6569977 .44140626 .59498599 .44140626 .54499819 .40538026 .5089874 .35035707 .5029907 .41838075 .45599366 .44140626 .4079895 .44140626 .34999085 .44140626 .30099488 .41038514 .2649994 .36036683 .2619934 .40538026 .23098755 .44140626 .18499756 .44140626 .1619873 .44140626 .13598633 .43139649 .114990238 .38838197 .09599304 .35136415 .08299255 .28933717 .08299255 .28933717 .08299255 .28134156 .08799744 .2793274 .09700012 .2793274 .10798645 .2793274 .10899353 .28033448 .114990238 .30334474 .12998963 .36236573 .14898682 .42138673 .18299866 .42138673 .20899964 .42138673 .20899964 .39237977 .20899964 .3803711 .20899964 .36135865 .20498657 .33935548 .20098877 .3253479L.12799073 .0332489C.12399292 .019241333 .12399292 .018234253 .12399292 .01423645 .12399292 .0022277833 .13198853-.009765625 .1499939-.009765625 .1619873-.009765625 .17799378-.0027770997 .18499756 .017242432L.23098755 .20230103C.23599243 .22431946 .24198914 .24531555 .24699402 .26733399 .25698854 .3043518 .31199647 .42138673 .40499879 .42138673 .45098878 .42138673 .45098878 .3703766 .45098878 .35437013 .45098878 .3343506 .44699098 .3123474 .44299317 .29434205L.3769989 .03024292C.37399293 .019241333 .37399293 .01423645 .37399293 .01423645 .37399293 .0032348633 .38198854-.009765625 .3999939-.009765625 .4229889-.009765625 .43299867 .008239746 .43699647 .025238038L.49798585 .2713318C.5039978 .29434205 .55799868 .42138673 .6539917 .42138673 .69999697 .42138673 .69999697 .3713684 .69999697 .35437013 .69999697 .29234315 .6559906 .17230225 .6389923 .12327576 .6299896 .0982666 .6259918 .089263919 .6259918 .06825256 .6259918 .020233155 .6569977-.009765625 .69799807-.009765625 .79100039-.009765625 .82299807 .13928223 .82299807 .14328003Z"/>
<path id="font_2_49" d="M.7609863 .25598146C.7609863 .27397157 .7429962 .27397157 .73298647 .27397157 .71099856 .27397157 .71099856 .27297975 .69898989 .24697876 .6459961 .12399292 .6029968 .04699707 .43998719 .04699707H.33999635C.33099366 .04699707 .32398988 .04699707 .31698609 .04798889L.3869934 .32896424H.43798829C.49299623 .32896424 .5069885 .31896974 .5069885 .28897096 .5069885 .28196717 .5039978 .26197816 .5 .24397278 .49798585 .236969 .49699403 .22998047 .49699403 .22998047 .49699403 .2119751 .5149994 .2119751 .5249939 .2119751 .5419922 .2119751 .548996 .2119751 .5549927 .23597718L.61099246 .4618683C.61299136 .4688568 .6139984 .4718628 .6139984 .47485353 .6139984 .49284364 .59599307 .49284364 .58599856 .49284364 .56399539 .49284364 .5609894 .48983766 .55599978 .4708557 .5379944 .40093995 .519989 .37597657 .44099427 .37597657H.39898683L.46199037 .63067629C.47599793 .6326752 .5169983 .6326752 .5439911 .6326752 .66600039 .6326752 .73098757 .6326752 .73098757 .52679446 .73098757 .5078125 .73098757 .5048218 .7279968 .47885133 .72698977 .47485353 .72499087 .4618683 .72499087 .45787049 .72499087 .4389038 .7429962 .4389038 .7529907 .4389038 .7789917 .4389038 .7799988 .44589234 .7819977 .46487428L.8049927 .66267397C.8029938 .6796875 .7869873 .6796875 .772995 .6796875H.25698854C.23999024 .6796875 .22299195 .6796875 .22299195 .65068057 .22299195 .6326752 .23999024 .6326752 .2539978 .6326752H.27598573C.28599549 .6326752 .31900025 .63067629 .32499696 .63067629L.18399048 .06498718C.17999268 .050994874 .1789856 .049987794 .16099549 .04899597 .14898682 .04798889 .1329956 .04699707 .12098694 .04699707H.09899902C.08198547 .04699707 .06399536 .04699707 .06399536 .017990113 .06399536 0 .08099365 0 .09599304 0H.6279907C.6489868 0 .6539917 0 .6609955 .016998291L.7559967 .23898316C.7579956 .24397278 .7609863 .24996948 .7609863 .25598146Z"/>
<path id="font_2_91" d="M.5-.16448975C.5-.14749146 .48298646-.14648438 .47299195-.14648438 .45899964-.14648438 .44299317-.14648438 .42999269-.14549256L.57199099 .4201355C.57299807 .4241333 .57398989 .43014527 .57398989 .43414308 .57398989 .43814088 .57099917 .45214845 .55599978 .45214845 .55599978 .45214845 .5 .43914796 .47099305 .4141388 .43899537 .44714356 .3999939 .45214845 .37399293 .45214845 .20599365 .45214845 .10598755 .28614808 .10598755 .15216065 .10598755 .033172609 .18998719-.0078125 .2659912-.0078125 .31098939-.0078125 .34799195 .010177612 .3639984 .020187378L.32699586-.12953186C.32398988-.14349365 .32299806-.14450073 .31098939-.14549256 .2979889-.14648438 .2769928-.14648438 .2769928-.14648438 .25898744-.14648438 .24099732-.14648438 .24099732-.17549134 .24099732-.18049622 .24398804-.1934967 .26098634-.1934967 .29499818-.1934967 .33099366-.19049073 .36499024-.19049073 .40098573-.19049073 .43798829-.1934967 .47299195-.1934967 .47999574-.1934967 .5-.1934967 .5-.16448975M.3869934 .11016846C.37799073 .07518005 .31999208 .028182984 .269989 .028182984 .24699402 .028182984 .21299744 .042175294 .21299744 .09916687 .21299744 .15316773 .24798584 .27615357 .25898744 .30415345 .29299928 .4011383 .34799195 .4161377 .37399293 .4161377 .40899659 .4161377 .43699647 .39414979 .44799806 .35414125L.3869934 .11016846Z"/>
<path id="font_2_109" d="M.6549988 .14816284C.6549988 .16217041 .6419983 .16217041 .6269989 .16217041 .6029968 .16217041 .60198977 .16116333 .59498599 .13616944 .58699038 .10316467 .56900027 .028182984 .5349884 .028182984 .522995 .028182984 .5159912 .03617859 .5159912 .059173585 .5159912 .07817078 .5179901 .08618164 .5219879 .10217285L.59098818 .3791504C.59498599 .39414979 .59498599 .39614869 .59498599 .4011383 .59498599 .43214417 .57099917 .44413758 .5499878 .44413758 .5369873 .44413758 .49798585 .43814088 .48599244 .38813783L.4169922 .107177738C.41299439 .08917236 .4119873 .08517456 .38398744 .057174684 .36999513 .044174196 .34498597 .028182984 .31498719 .028182984 .2649994 .028182984 .2630005 .07518005 .2630005 .09716797 .2630005 .15716553 .29699708 .24615479 .32099916 .30915834 .32998658 .33415223 .33499146 .34614564 .33499146 .36314393 .33499146 .41914369 .28399659 .45214845 .22999573 .45214845 .12599182 .45214845 .07699585 .31715394 .07699585 .29615785 .07699585 .28215028 .08999634 .28215028 .10499573 .28215028 .12399292 .28215028 .1289978 .28215028 .1329956 .29515077 .14099121 .32115174 .16799927 .4161377 .22499085 .4161377 .22999573 .4161377 .23899842 .4161377 .23899842 .39814759 .23899842 .3771515 .22698975 .34614564 .22099304 .33215333 .18899536 .24615479 .16099549 .17416382 .16099549 .11816406 .16099549 .027175904 .22599793-.0078125 .30899049-.0078125 .33699037-.0078125 .3789978-.002822876 .42799378 .043182374 .44699098 .008178711 .49198915-.0078125 .5309906-.0078125 .5779877-.0078125 .6029968 .026184082 .6159973 .046173097 .6419983 .08818054 .6549988 .14416504 .6549988 .14816284Z"/>
<path id="font_2_66" d="M.3899994 .14816284C.3899994 .16217041 .3769989 .16217041 .3619995 .16217041 .34298707 .16217041 .33799745 .16217041 .33399964 .14916992 .32598878 .123168949 .29899598 .028182984 .24198914 .028182984 .23699951 .028182984 .22799683 .028182984 .22799683 .046173097 .22799683 .059173585 .23498535 .08416748 .23599243 .08618164L.32598878 .32414247C.33198548 .34014894 .33499146 .34814454 .33499146 .36314393 .33499146 .41914369 .28399659 .45214845 .22999573 .45214845 .12599182 .45214845 .07699585 .31715394 .07699585 .29615785 .07699585 .28215028 .08999634 .28215028 .10499573 .28215028 .12399292 .28215028 .1289978 .28215028 .1329956 .29515077 .14099121 .32115174 .16799927 .4161377 .22499085 .4161377 .22999573 .4161377 .23899842 .4161377 .23899842 .39814759 .23899842 .3851471 .23199463 .3601532 .23098755 .35813905L.14099121 .120162967C.1349945 .10417175 .13198853 .09617615 .13198853 .08117676 .13198853 .025177002 .18299866-.0078125 .23699951-.0078125 .34098817-.0078125 .3899994 .12716675 .3899994 .14816284M.4039917 .6143341C.4039917 .642334 .3829956 .67433169 .34199525 .67433169 .29599 .67433169 .25299073 .6313324 .25299073 .5873413 .25299073 .5553436 .2769928 .52734377 .31498719 .52734377 .3619995 .52734377 .4039917 .57133486 .4039917 .6143341Z"/>
<path id="font_2_28" d="M.61499026 .14816284C.61499026 .16217041 .60198977 .16217041 .58699038 .16217041 .5629883 .16217041 .56199648 .16116333 .5549927 .13616944 .5469971 .10316467 .5289917 .028182984 .49499513 .028182984 .48298646 .028182984 .47599793 .03617859 .47599793 .059173585 .47599793 .07817078 .47799684 .08618164 .48199464 .10217285L.548996 .3721466C.5529938 .387146 .5529938 .3891449 .5529938 .3931427 .5529938 .4161377 .5359955 .4351349 .5079956 .4351349 .4909973 .4351349 .47399903 .42713929 .46099855 .4141388 .42900086 .44714356 .3899994 .45214845 .3639984 .45214845 .19599915 .45214845 .09599304 .28614808 .09599304 .15216065 .09599304 .033172609 .17999268-.0078125 .2559967-.0078125 .31698609-.0078125 .3639984 .02418518 .3880005 .043182374 .40699769 .008178711 .45199586-.0078125 .4909973-.0078125 .5379944-.0078125 .5629883 .026184082 .57598879 .046173097 .60198977 .08818054 .61499026 .14416504 .61499026 .14816284M.37599183 .10017395C.33299256 .043182374 .29100038 .028182984 .2599945 .028182984 .23699951 .028182984 .20298767 .042175294 .20298767 .09916687 .20298767 .15316773 .23799134 .27615357 .24899292 .30415345 .2829895 .4011383 .33799745 .4161377 .3639984 .4161377 .39898683 .4161377 .4269867 .39414979 .43798829 .35414125L.3789978 .11816406C.3769989 .11117554 .3769989 .108169559 .37599183 .10017395Z"/>
<path id="font_2_77" d="M.6839905 .14816284C.6839905 .16217041 .67099 .16217041 .6559906 .16217041 .6369934 .16217041 .6319885 .16217041 .6279907 .14916992 .6199951 .123168949 .59298709 .028182984 .5359955 .028182984 .5309906 .028182984 .5219879 .028182984 .5219879 .046173097 .5219879 .06716919 .5319977 .093170169 .54499819 .12716675 .5589905 .16416931 .60398867 .28215028 .60398867 .33914186 .60398867 .4221344 .54499819 .45214845 .46598817 .45214845 .44499208 .45214845 .3789978 .45214845 .31298829 .3831482 .29299928 .44013978 .23298645 .45214845 .20098877 .45214845 .1539917 .45214845 .1289978 .4181366 .115997318 .39814759 .08999634 .35614015 .07699585 .30015565 .07699585 .29615785 .07699585 .28215028 .08999634 .28215028 .10499573 .28215028 .1289978 .28215028 .12998963 .28315736 .13699341 .30815126 .14498902 .34114076 .16299439 .4161377 .19699097 .4161377 .20899964 .4161377 .21598816 .4081421 .21598816 .3851471 .21598816 .3661499 .21398926 .35813905 .20999146 .34214784L.13899231 .057174684C.1349945 .042175294 .1349945 .04017639 .1349945 .035186769 .1349945 .004180908 .15899658-.0078125 .17999268-.0078125 .18699646-.0078125 .22999573-.0058135988 .24299622 .046173097L.30499269 .29415895C.31199647 .32315064 .36799623 .4161377 .45899964 .4161377 .5019989 .4161377 .5019989 .3781433 .5019989 .35914613 .5019989 .29914857 .45599366 .17616272 .43798829 .13116455 .42900086 .106170658 .42599488 .09617615 .42599488 .08117676 .42599488 .025177002 .47698976-.0078125 .5309906-.0078125 .6349945-.0078125 .6839905 .12716675 .6839905 .14816284Z"/>
<path id="font_2_59" d="M.45098878-.06401062 .5589905 .36912538C.5629883 .38513185 .5629883 .39312745 .5629883 .39312745 .5629883 .4161377 .54599 .4351349 .5179901 .4351349 .4909973 .4351349 .47999574 .4241333 .47099305 .41514588 .44198609 .44213868 .4099884 .45214845 .37399293 .45214845 .20399475 .45214845 .10699463 .28709413 .10699463 .15803528 .10699463 .052001954 .1789856 0 .2689972 0 .30099488 0 .33198548 .0079956059 .3659973 .026992798L.34899903-.044006349C.32499696-.13702393 .2679901-.16601563 .21398926-.16601563 .18699646-.16601563 .1639862-.1630249 .1519928-.16001892 .17298889-.14302063 .17999268-.11701965 .17999268-.104019168 .17999268-.07901001 .16099549-.058013917 .12998963-.058013917 .09498596-.058013917 .05899048-.087020877 .05899048-.13201905 .05899048-.19403076 .13798523-.20202637 .21199036-.20202637 .33299256-.20202637 .42900086-.15101624 .45098878-.06401062M.3889923 .11701965C.37998963 .08201599 .32099916 .035995485 .272995 .035995485 .21998596 .035995485 .21499634 .085006717 .21499634 .10702515 .21499634 .16204834 .25 .28308106 .2639923 .31809999 .29699708 .4011383 .34799195 .4161377 .37399293 .4161377 .4039917 .4161377 .43598939 .40013124 .44799806 .35610963L.3889923 .11701965Z"/>
<path id="font_2_72" d="M.33099366 .14822388C.33099366 .16223145 .31799317 .16223145 .30299378 .16223145 .2789917 .16223145 .27799989 .16122437 .2709961 .13621521 .2630005 .10321045 .24499512 .028182984 .21099854 .028182984 .19898987 .028182984 .19198609 .03617859 .19198609 .059188844 .19198609 .078201297 .19400025 .0861969 .19799805 .10220337L.33799745 .66041567C.33898927 .66542056 .34098817 .67141726 .34098817 .6764221 .34098817 .6954193 .32299806 .6944275 .30899049 .6934204L.18598938 .6874237C.1749878 .6864166 .15499878 .6864166 .15499878 .6574249 .15499878 .63941958 .17298889 .63941958 .18199158 .63941958 .19400025 .63941958 .21199036 .6384125 .22399903 .63742068L.09498596 .11820984C.09098816 .10220337 .09098816 .095199588 .09098816 .08920288 .09098816 .025177002 .15098572-.0078125 .20698548-.0078125 .2539978-.0078125 .2789917 .026184082 .2919922 .046188356 .31799317 .0881958 .33099366 .14422608 .33099366 .14822388Z"/>
<path id="font_2_96" d="M.56199648 .36314393C.56199648 .4161377 .5079956 .45214845 .43499757 .45214845 .39698792 .45214845 .34999085 .44114686 .30699159 .39814759 .2899933 .42913819 .25 .45214845 .20098877 .45214845 .1539917 .45214845 .1289978 .4181366 .115997318 .39814759 .08999634 .3561554 .07699585 .30015565 .07699585 .29615785 .07699585 .28215028 .08999634 .28215028 .10499573 .28215028 .1289978 .28215028 .12998963 .28315736 .13699341 .30815126 .14498902 .341156 .16299439 .4161377 .19699097 .4161377 .20899964 .4161377 .21598816 .4081421 .21598816 .3851471 .21598816 .3661499 .21398926 .3581543 .20999146 .34214784L.13899231 .057174684C.1349945 .042175294 .1349945 .04017639 .1349945 .03517151 .1349945 .004180908 .15899658-.0078125 .17999268-.0078125 .18699646-.0078125 .22999573-.0058135988 .24299622 .046173097L.31098939 .31814576C.31698609 .341156 .3619995 .4161377 .43199159 .4161377 .44299317 .4161377 .46699525 .41514588 .4869995 .3991394 .44099427 .3781433 .43998719 .33615113 .43998719 .33215333 .43998719 .30715943 .45899964 .28614808 .48999024 .28614808 .5279999 .28614808 .56199648 .31814576 .56199648 .36314393Z"/>
<path id="font_1_64" d="M.33198548 .23217774C.33198548 .2421875 .32398988 .2421875 .30799867 .2421875H.117996219C.09799194 .2421875 .09599304 .2421875 .09298706 .23118592 .09098816 .22517395 .084991458 .20617676 .084991458 .20018006 .084991458 .19018555 .09298706 .19018555 .10899353 .19018555H.29899598C.31900025 .19018555 .32099916 .19018555 .32398988 .20118714 .32598878 .20718384 .33198548 .22618103 .33198548 .23217774Z"/>
<path id="font_1_27" d="M.6769867 .017990113C.6769867 .0289917 .66999819 .0289917 .6569977 .0289917 .60798647 .0289917 .6029968 .035980226 .6009979 .061950685L.5569916 .68984988C.55599978 .7108612 .5549927 .7138672 .54100039 .7138672 .5269928 .7138672 .5239868 .7078552 .5169983 .69584658L.18399048 .11186218C.15299988 .0569458 .125 .033981325 .07499695 .0289917 .06399536 .027999878 .055999757 .026992798 .055999757 .009994507 .055999757 0 .067993167 0 .067993167 0 .09199524 0 .11898804 .0019989014 .14399719 .0019989014 .17098999 .0019989014 .19999695 0 .22599793 0 .23298645 0 .24398804 0 .24398804 .018997193 .24398804 .027999878 .23599243 .0289917 .22999573 .0289917 .20599365 .0309906 .19198609 .04296875 .19198609 .061950685 .19198609 .075927738 .19999695 .088897708 .20899964 .10487366L.28199769 .23368836H.5139923L.5249939 .07292175C.526001 .0569458 .5279999 .02998352 .46598817 .0289917 .45199586 .0289917 .44299317 .0289917 .44299317 .009994507 .44299317 0 .45298768 0 .45700074 0 .48999024 0 .526001 .0019989014 .55999758 .0019989014 .59298709 .0019989014 .6269989 0 .6589966 0 .6649933 0 .6769867 0 .6769867 .017990113M.5119934 .2626953H.29899598L.4889984 .59580996 .5119934 .2626953Z"/>
<path id="font_1_96" d="M.48098756 .38337709C.48098756 .4343872 .41299439 .44140626 .3849945 .44140626 .33898927 .44140626 .30099488 .41938783 .2639923 .3673706 .25498963 .4263916 .21199036 .44140626 .18499756 .44140626 .1619873 .44140626 .13598633 .43139649 .114990238 .38838197 .09599304 .35136415 .08299255 .28933717 .08299255 .28933717 .08299255 .28134156 .08799744 .2793274 .09700012 .2793274 .10798645 .2793274 .10899353 .28033448 .114990238 .30334474 .12998963 .36236573 .14898682 .42138673 .18299866 .42138673 .20899964 .42138673 .20899964 .39237977 .20899964 .3803711 .20899964 .36135865 .20498657 .33935548 .20098877 .3253479L.12799073 .0332489C.12399292 .019241333 .12399292 .018234253 .12399292 .01423645 .12399292 .0022277833 .13198853-.009765625 .1499939-.009765625 .17298889-.009765625 .18299866 .009231567 .18699646 .025238038L.2519989 .28633119C.25498963 .29833985 .2999878 .42138673 .38398744 .42138673 .3889923 .42138673 .4169922 .42138673 .43899537 .40737916 .42399598 .40338136 .40499879 .38838197 .40499879 .3633728 .40499879 .34236146 .42099 .3343506 .43598939 .3343506 .45399476 .3343506 .48098756 .34736634 .48098756 .38337709Z"/>
<path id="font_1_43" d="M.45700074 .105148319C.45700074 .11213684 .44898988 .12013245 .44299317 .12013245 .43998719 .12013245 .43899537 .119140628 .43099977 .11013794 .37799073 .03819275 .30299378 .01020813 .2519989 .01020813 .20098877 .01020813 .17399597 .05517578 .17399597 .11413574 .17399597 .16011048 .19799805 .2700348 .23098755 .3270111 .2649994 .38708497 .31399537 .4212799 .35699464 .4212799 .36299134 .4212799 .41600038 .4212799 .42999269 .37301637 .40499879 .37200929 .3829956 .35301209 .3829956 .32901 .3829956 .3040161 .40499879 .29901124 .4139862 .29901124 .42399598 .29901124 .46099855 .3050232 .46099855 .3570099 .46099855 .40419007 .4189911 .44140626 .35798646 .44140626 .23599243 .44140626 .10998535 .3000183 .10998535 .15211487 .10998535 .050186159 .17098999-.009765625 .25099183-.009765625 .375-.009765625 .45700074 .091156009 .45700074 .105148319Z"/>
<path id="font_1_66" d="M.32299806 .14328003C.32299806 .15228272 .31399537 .15228272 .30999757 .15228272 .2979889 .15228272 .29699708 .14929199 .29299928 .13427735 .28399659 .1002655 .2579956 .010238647 .20098877 .010238647 .18998719 .010238647 .17799378 .01524353 .17799378 .039245607 .17799378 .06526184 .19198609 .10127258 .20999146 .15028382L.2689972 .3123474C.27799989 .33735658 .27999879 .34535218 .27999879 .3633728 .27999879 .41438294 .24699402 .44140626 .20799256 .44140626 .115997318 .44140626 .08299255 .29333497 .08299255 .28834535 .08299255 .2793274 .09199524 .2793274 .09700012 .2793274 .10899353 .2793274 .10998535 .28233338 .11399841 .29634095 .12199402 .32835389 .147995 .42138673 .20599365 .42138673 .22799683 .42138673 .22799683 .40237428 .22799683 .39137269 .22799683 .3653717 .22200012 .34835816 .21499634 .33035279L.1349945 .11326599C.1269989 .09126282 .1269989 .07826233 .1269989 .06925964 .1269989 .011230469 .1659851-.009765625 .19898987-.009765625 .29100038-.009765625 .32299806 .13928223 .32299806 .14328003M.34999085 .6103821C.34999085 .63838198 .32998658 .6503906 .30999757 .6503906 .27999879 .6503906 .25099183 .6223755 .25099183 .5933838 .25099183 .56637576 .27198792 .55337527 .29100038 .55337527 .32099916 .55337527 .34999085 .5803833 .34999085 .6103821Z"/>
<path id="font_1_91" d="M.41600038-.17604065C.41600038-.16503906 .4099884-.16503906 .3919983-.16503906 .36999513-.16503906 .34399415-.16503906 .34399415-.15002442 .34399415-.14401245 .34399415-.14201355 .34599305-.1329956L.48399354 .41740418C.4850006 .42140199 .48599244 .42739869 .48599244 .43139649 .48599244 .43640138 .48199464 .44039918 .47698976 .44039918 .46899415 .44039918 .43199159 .40638734 .41600038 .37538148 .40499879 .40438844 .3809967 .44140626 .33198548 .44140626 .22299195 .44140626 .10798645 .28834535 .10798645 .14228821 .10798645 .053237916 .15499878-.009765625 .22299195-.009765625 .25898744-.009765625 .29499818 .010223389 .32899476 .04524231L.32998658 .04423523 .2919922-.107940677C.27799989-.16204834 .27799989-.16404724 .21398926-.16503906 .20098877-.16503906 .19198609-.16503906 .19198609-.18405152 .19198609-.19404602 .20199585-.19404602 .20599365-.19404602 .23599243-.19404602 .269989-.19204712 .30099488-.19204712 .33299256-.19204712 .36698915-.19404602 .397995-.19404602 .4039917-.19404602 .41600038-.19404602 .41600038-.17604065M.34999085 .12327576C.34298707 .0962677 .2829895 .010223389 .22499085 .010223389 .17199707 .010223389 .16999817 .088256839 .16999817 .1002655 .16999817 .15028382 .20199585 .26834107 .21798706 .3083496 .24398804 .3703766 .2889862 .42140199 .33198548 .42140199 .3929901 .42140199 .39898683 .32835389 .39898683 .32536317L.3959961 .3113556 .34999085 .12327576Z"/>
<path id="font_1_109" d="M.5479889 .14328003C.5479889 .15228272 .5389862 .15228272 .5349884 .15228272 .522995 .15228272 .5219879 .1512909 .5159912 .12828064 .49598695 .04524231 .47698976 .010238647 .44898988 .010238647 .4269867 .010238647 .42199708 .031234742 .42199708 .050247194 .42199708 .06526184 .42599488 .088256839 .42999269 .103271488L.5009918 .38737489C.5049896 .40138246 .5049896 .40338136 .5049896 .40737916 .5049896 .4223938 .49299623 .43139649 .47999574 .43139649 .45199586 .43139649 .44400025 .40638734 .44099427 .39237977L.36898805 .103271488C.36898805 .103271488 .36898805 .0922699 .36698915 .087265018 .34700013 .04524231 .30999757 .010238647 .2639923 .010238647 .21899414 .010238647 .20999146 .055252077 .20999146 .088256839 .20999146 .14828491 .24499512 .24331665 .2679901 .30734254 .27598573 .33035279 .2809906 .34335328 .2809906 .3633728 .2809906 .40338136 .25698854 .44140626 .20799256 .44140626 .116989139 .44140626 .08299255 .29434205 .08299255 .28834535 .08299255 .2793274 .09199524 .2793274 .09700012 .2793274 .10899353 .2793274 .10998535 .28233338 .11399841 .29634095 .12199402 .32635499 .147995 .42138673 .20599365 .42138673 .21798706 .42138673 .22898865 .41638185 .22898865 .39237977 .22898865 .3673706 .21899414 .34135438 .19799805 .28334046 .1659851 .19430542 .15299988 .14328003 .15299988 .104263309 .15299988 .01423645 .21199036-.009765625 .26098634-.009765625 .30299378-.009765625 .33799745 .010238647 .36999513 .050247194 .3809967 .011230469 .4119873-.009765625 .44699098-.009765625 .48599244-.009765625 .5059967 .019241333 .5189972 .04824829 .5359955 .08326721 .5479889 .1402893 .5479889 .14328003Z"/>
<path id="font_1_47" d="M.522995 .14328003C.522995 .15228272 .5139923 .15228272 .5099945 .15228272 .49798585 .15228272 .49699403 .1512909 .4909973 .12828064 .47099305 .04524231 .45199586 .010223389 .42399598 .010223389 .4019928 .010223389 .39698792 .031234742 .39698792 .050247194 .39698792 .06324768 .4019928 .09126282 .40499879 .104263309L.5469971 .671402C.5479889 .6773987 .5499878 .6813965 .5499878 .68440249 .5499878 .69340518 .54299929 .694397 .5269928 .69340518L.4269867 .68440249C.41299439 .6833954 .4039917 .68240359 .4039917 .6643982 .4039917 .6544037 .4119873 .6544037 .42599488 .6544037 .47599793 .6544037 .47599793 .645401 .47599793 .6354065 .47599793 .6304016 .47399903 .622406 .47299195 .61839297L.4139862 .38038636C.3999939 .4123993 .375 .44140626 .33198548 .44140626 .22299195 .44140626 .10798645 .28834535 .10798645 .14228821 .10798645 .053237916 .15499878-.009765625 .22299195-.009765625 .2639923-.009765625 .30499269 .016235352 .34298707 .06124878 .35398866 .00022888184 .39898683-.009765625 .42199708-.009765625 .46099855-.009765625 .48098756 .019226075 .49398805 .04824829 .5109863 .08325195 .522995 .14027405 .522995 .14328003M.34999085 .12327576C.34298707 .0962677 .2829895 .010223389 .22499085 .010223389 .17199707 .010223389 .16999817 .088256839 .16999817 .1002655 .16999817 .15028382 .20199585 .26834107 .21798706 .3083496 .24398804 .3703766 .2889862 .42140199 .33198548 .42140199 .3929901 .42140199 .39898683 .32835389 .39898683 .32536317L.3959961 .3113556 .34999085 .12327576Z"/>
<path id="font_1_88" d="M.21099854 .057998659C.21099854 .08799744 .18798828 .09700012 .17098999 .09700012 .14299011 .09700012 .11199951 .069992069 .11199951 .038986207 .11199951 .016998291 .12799073 0 .1519928 0 .1789856 0 .21099854 .024993897 .21099854 .057998659Z"/>
<path id="font_1_65" d="M.32199098 .018997193C.32199098 .0289917 .31498719 .0289917 .29599 .0289917 .2679901 .0289917 .23899842 .0289917 .23899842 .04597473 .23899842 .051971437 .23899842 .053970338 .24099732 .06297302L.37799073 .6126404C.38598634 .6466217 .3959961 .6536102 .45599366 .6536102 .47698976 .6536102 .4850006 .6536102 .4850006 .6726074 .4850006 .6826172 .47499085 .6826172 .47099305 .6826172 .43399049 .6826172 .394989 .680603 .35798646 .680603 .31999208 .680603 .2809906 .6826172 .24398804 .6826172 .23599243 .6826172 .22499085 .6826172 .22499085 .6646118 .22499085 .6536102 .23199463 .6536102 .24899292 .6536102 .30799867 .6536102 .30799867 .6466217 .30799867 .6356201 .30799867 .6356201 .30799867 .6276245 .3039856 .6116333L.16899109 .07196045C.1599884 .035995485 .1539917 .0289917 .085998538 .0289917 .07199097 .0289917 .06199646 .0289917 .06199646 .009994507 .06199646 0 .07199097 0 .07598877 0 .11199951 0 .15098572 .0019989014 .18798828 .0019989014 .22599793 .0019989014 .2659912 0 .30299378 0 .31098939 0 .32199098 0 .32199098 .018997193Z"/>
<path id="font_1_45" d="M.21398926 .041992189C.21398926 .06399536 .20799256 .09700012 .17098999 .09700012 .13899231 .09700012 .11199951 .068984989 .11199951 .037994386 .11199951 .009994507 .1329956 0 .1519928 0 .1749878 0 .19099427 .01499939 .19099427 .01499939 .17399597-.06713867 .1289978-.12724304 .08299255-.16731262 .070999149-.17933655 .069992069-.18034363 .069992069-.18334961 .069992069-.18736267 .07398987-.19335938 .07899475-.19335938 .09599304-.19335938 .21398926-.073150638 .21398926 .041992189Z"/>
<path id="font_1_35" d="M.44898988 .28933717C.44898988 .3763733 .40299989 .44140626 .33399964 .44140626 .28399659 .44140626 .24299622 .4013977 .22698975 .38539125L.2979889 .671402C.2999878 .67840579 .30099488 .6813965 .30099488 .68440249 .30099488 .69340518 .2939911 .694397 .27799989 .69340518L.17799378 .68440249C.1639862 .6833954 .15499878 .68240359 .15499878 .6643982 .15499878 .6544037 .16299439 .6544037 .1769867 .6544037 .22698975 .6544037 .22698975 .645401 .22698975 .6354065 .22698975 .6304016 .22499085 .6233978 .22399903 .61839297L.12298584 .21331787C.11399841 .17729187 .11399841 .1512909 .11399841 .14027405 .11399841 .04524231 .1619873-.009765625 .22399903-.009765625 .33599855-.009765625 .44898988 .14628601 .44898988 .28933717M.33198548 .10826111C.29699708 .038238527 .2559967 .010223389 .22499085 .010223389 .17999268 .010223389 .1659851 .06425476 .1659851 .10626221 .1659851 .14527893 .1769867 .18530274 .19898987 .27534486 .20199585 .28533937 .20399475 .29534913 .20698548 .30534364 .21699524 .34436036 .27799989 .42140199 .33099366 .42140199 .36698915 .42140199 .38598634 .38438417 .38598634 .33135987 .38598634 .27534486 .35198976 .15028382 .33198548 .10826111Z"/>
<path id="font_1_81" d="M.49699403 .2793274C.49699403 .38337709 .43299867 .44140626 .35798646 .44140626 .23599243 .44140626 .10998535 .30033876 .10998535 .15228272 .10998535 .04425049 .1769867-.009765625 .24899292-.009765625 .37098695-.009765625 .49699403 .13328552 .49699403 .2793274M.43299867 .3173523C.43299867 .27433778 .40899659 .1612854 .3769989 .106277469 .33599855 .035247804 .2849884 .010238647 .25 .010238647 .20799256 .010238647 .17399597 .04624939 .17399597 .11427307 .17399597 .16029358 .19799805 .2703247 .23098755 .3273468 .2679901 .39137269 .31900025 .42138673 .35598756 .42138673 .40699769 .42138673 .43299867 .3743744 .43299867 .3173523Z"/>
</defs>
<path transform="matrix(1.00002,0,0,-1.00003,281.91938,172.08269)" stroke-width=".79701" stroke-linecap="butt" stroke-miterlimit="10" stroke-linejoin="miter" fill="none" stroke="#000000" d="M-255.12128 0H0V170.08086H-255.12128Z"/>
<path transform="matrix(1.00002,0,0,-1.00003,281.91938,172.08269)" stroke-width=".79701" stroke-linecap="butt" stroke-miterlimit="10" stroke-linejoin="miter" fill="none" stroke="#000000" d="M-255.12128 0H-226.77448V28.3468H-255.12128"/>
<path transform="matrix(1.00002,0,0,-1.00003,281.91938,172.08269)" stroke-width=".79701" stroke-linecap="butt" stroke-miterlimit="10" stroke-linejoin="miter" fill="none" stroke="#000000" d="M0 0H-28.3468V28.3468H0"/>
<path transform="matrix(1.00002,0,0,-1.00003,281.91938,172.08269)" stroke-width=".79701" stroke-linecap="butt" stroke-miterlimit="10" stroke-linejoin="miter" fill="none" stroke="#000000" d="M0 170.08086H-28.3468V141.73404H0"/>
<path transform="matrix(1.00002,0,0,-1.00003,281.91938,172.08269)" stroke-width=".79701" stroke-linecap="butt" stroke-miterlimit="10" stroke-linejoin="miter" fill="none" stroke="#000000" d="M-255.12128 170.08086H-226.77448V141.73404H-255.12128"/>
<use data-text="a" xlink:href="#font_1_28" transform="matrix(20.662915,0,0,-20.66312,-.7872925,218.29108)"/>
<use data-text="l" xlink:href="#font_1_72" transform="matrix(20.662915,0,0,-20.66312,9.544159,218.29108)"/>
<use data-text="l" xlink:href="#font_1_72" transform="matrix(20.662915,0,0,-20.66312,16.259583,218.29108)"/>
<use data-text="a" xlink:href="#font_1_28" transform="matrix(20.662915,0,0,-20.66312,28.657319,218.29108)"/>
<use data-text="n" xlink:href="#font_1_77" transform="matrix(20.662915,0,0,-20.66312,38.98877,218.29108)"/>
<use data-text="g" xlink:href="#font_1_59" transform="matrix(20.662915,0,0,-20.66312,50.353395,218.29108)"/>
<use data-text="l" xlink:href="#font_1_72" transform="matrix(20.662915,0,0,-20.66312,59.651704,218.29108)"/>
<use data-text="e" xlink:href="#font_1_50" transform="matrix(20.662915,0,0,-20.66312,64.81741,218.29108)"/>
<use data-text="s" xlink:href="#font_1_98" transform="matrix(20.662915,0,0,-20.66312,74.11572,218.29108)"/>
<use data-text="t" xlink:href="#font_1_105" transform="matrix(20.662915,0,0,-20.66312,89.612918,218.29108)"/>
<use data-text="h" xlink:href="#font_1_63" transform="matrix(20.662915,0,0,-20.66312,96.32837,218.29108)"/>
<use data-text="e" xlink:href="#font_1_50" transform="matrix(20.662915,0,0,-20.66312,106.65982,218.29108)"/>
<use data-text="s" xlink:href="#font_1_98" transform="matrix(20.662915,0,0,-20.66312,123.190128,218.29108)"/>
<use data-text="a" xlink:href="#font_1_28" transform="matrix(20.662915,0,0,-20.66312,131.45532,218.29108)"/>
<use data-text="m" xlink:href="#font_1_75" transform="matrix(20.662915,0,0,-20.66312,141.78678,218.29108)"/>
<use data-text="e" xlink:href="#font_1_50" transform="matrix(20.662915,0,0,-20.66312,158.31708,218.29108)"/>
<path transform="matrix(1.00002,0,0,-1.00003,281.91938,172.08269)" stroke-width=".3985" stroke-linecap="butt" stroke-miterlimit="10" stroke-linejoin="miter" fill="none" stroke="#000000" d="M-170.08086-22.67752-240.6002 16.81355"/>
<path transform="matrix(-.8724875,-.48860467,-.48859979,.87249627,41.140535,155.17128)" stroke-width=".3985" stroke-linecap="round" stroke-linejoin="round" fill="none" stroke="#000000" d="M-2.07224 2.39104C-1.69365 .95639-.84999 .27895 0 0-.84999-.27895-1.69365-.95639-2.07224-2.39104"/>
<use data-text="E" xlink:href="#font_2_49" transform="matrix(20.662915,0,0,-20.66312,87.00745,290.56727)"/>
<use data-text="q" xlink:href="#font_2_91" transform="matrix(20.662915,0,0,-20.66312,102.64926,290.56727)"/>
<use data-text="u" xlink:href="#font_2_109" transform="matrix(20.662915,0,0,-20.66312,113.64197,290.56727)"/>
<use data-text="i" xlink:href="#font_2_66" transform="matrix(20.662915,0,0,-20.66312,126.47363,290.56727)"/>
<use data-text="a" xlink:href="#font_2_28" transform="matrix(20.662915,0,0,-20.66312,133.82962,290.56727)"/>
<use data-text="n" xlink:href="#font_2_77" transform="matrix(20.662915,0,0,-20.66312,146.04141,290.56727)"/>
<use data-text="g" xlink:href="#font_2_59" transform="matrix(20.662915,0,0,-20.66312,159.47232,290.56727)"/>
<use data-text="u" xlink:href="#font_2_109" transform="matrix(20.662915,0,0,-20.66312,170.465,290.56727)"/>
<use data-text="l" xlink:href="#font_2_72" transform="matrix(20.662915,0,0,-20.66312,183.29666,290.56727)"/>
<use data-text="a" xlink:href="#font_2_28" transform="matrix(20.662915,0,0,-20.66312,189.43354,290.56727)"/>
<use data-text="r" xlink:href="#font_2_96" transform="matrix(20.662915,0,0,-20.66312,201.64533,290.56727)"/>
<use data-text="-" xlink:href="#font_1_64" transform="matrix(20.662915,0,0,-20.66312,58.659914,319.0901)"/>
<use data-text="A" xlink:href="#font_1_27" transform="matrix(20.662915,0,0,-20.66312,73.12396,319.0901)"/>
<use data-text="r" xlink:href="#font_1_96" transform="matrix(20.662915,0,0,-20.66312,95.3779,319.0901)"/>
<use data-text="e" xlink:href="#font_1_50" transform="matrix(20.662915,0,0,-20.66312,102.8992,319.0901)"/>
<use data-text="c" xlink:href="#font_1_43" transform="matrix(20.662915,0,0,-20.66312,111.1644,319.0901)"/>
<use data-text="t" xlink:href="#font_1_105" transform="matrix(20.662915,0,0,-20.66312,120.46271,319.0901)"/>
<use data-text="a" xlink:href="#font_1_28" transform="matrix(20.662915,0,0,-20.66312,127.17813,319.0901)"/>
<use data-text="n" xlink:href="#font_1_77" transform="matrix(20.662915,0,0,-20.66312,137.50959,319.0901)"/>
<use data-text="g" xlink:href="#font_1_59" transform="matrix(20.662915,0,0,-20.66312,148.87418,319.0901)"/>
<use data-text="l" xlink:href="#font_1_72" transform="matrix(20.662915,0,0,-20.66312,158.17249,319.0901)"/>
<use data-text="e" xlink:href="#font_1_50" transform="matrix(20.662915,0,0,-20.66312,163.33823,319.0901)"/>
<use data-text="i" xlink:href="#font_1_66" transform="matrix(20.662915,0,0,-20.66312,179.8479,319.0901)"/>
<use data-text="s" xlink:href="#font_1_98" transform="matrix(20.662915,0,0,-20.66312,186.04679,319.0901)"/>
<use data-text="a" xlink:href="#font_1_28" transform="matrix(20.662915,0,0,-20.66312,201.54398,319.0901)"/>
<use data-text="n" xlink:href="#font_1_77" transform="matrix(20.662915,0,0,-20.66312,211.87543,319.0901)"/>
<use data-text="e" xlink:href="#font_1_50" transform="matrix(20.662915,0,0,-20.66312,230.47205,319.0901)"/>
<use data-text="q" xlink:href="#font_1_91" transform="matrix(20.662915,0,0,-20.66312,238.75788,319.0901)"/>
<use data-text="u" xlink:href="#font_1_109" transform="matrix(20.662915,0,0,-20.66312,248.05615,319.0901)"/>
<use data-text="i" xlink:href="#font_1_66" transform="matrix(20.662915,0,0,-20.66312,258.90425,319.0901)"/>
<use data-text="a" xlink:href="#font_1_28" transform="matrix(20.662915,0,0,-20.66312,265.1031,319.0901)"/>
<use data-text="n" xlink:href="#font_1_77" transform="matrix(20.662915,0,0,-20.66312,275.4345,319.0901)"/>
<use data-text="g" xlink:href="#font_1_59" transform="matrix(20.662915,0,0,-20.66312,286.79914,319.0901)"/>
<use data-text="u" xlink:href="#font_1_109" transform="matrix(20.662915,0,0,-20.66312,296.0974,319.0901)"/>
<use data-text="l" xlink:href="#font_1_72" transform="matrix(20.662915,0,0,-20.66312,306.9455,319.0901)"/>
<use data-text="a" xlink:href="#font_1_28" transform="matrix(20.662915,0,0,-20.66312,312.1112,319.0901)"/>
<use data-text="r" xlink:href="#font_1_96" transform="matrix(20.662915,0,0,-20.66312,322.4427,319.0901)"/>
<use data-text="q" xlink:href="#font_1_91" transform="matrix(20.662915,0,0,-20.66312,338.18788,319.0901)"/>
<use data-text="u" xlink:href="#font_1_109" transform="matrix(20.662915,0,0,-20.66312,347.48616,319.0901)"/>
<use data-text="a" xlink:href="#font_1_28" transform="matrix(20.662915,0,0,-20.66312,358.33418,319.0901)"/>
<use data-text="d" xlink:href="#font_1_47" transform="matrix(20.662915,0,0,-20.66312,368.66566,319.0901)"/>
<use data-text="r" xlink:href="#font_1_96" transform="matrix(20.662915,0,0,-20.66312,378.99708,319.0901)"/>
<use data-text="i" xlink:href="#font_1_66" transform="matrix(20.662915,0,0,-20.66312,387.53089,319.0901)"/>
<use data-text="l" xlink:href="#font_1_72" transform="matrix(20.662915,0,0,-20.66312,393.72975,319.0901)"/>
<use data-text="a" xlink:href="#font_1_28" transform="matrix(20.662915,0,0,-20.66312,398.8955,319.0901)"/>
<use data-text="t" xlink:href="#font_1_105" transform="matrix(20.662915,0,0,-20.66312,409.22694,319.0901)"/>
<use data-text="e" xlink:href="#font_1_50" transform="matrix(20.662915,0,0,-20.66312,415.94239,319.0901)"/>
<use data-text="r" xlink:href="#font_1_96" transform="matrix(20.662915,0,0,-20.66312,425.24067,319.0901)"/>
<use data-text="a" xlink:href="#font_1_28" transform="matrix(20.662915,0,0,-20.66312,432.76203,319.0901)"/>
<use data-text="l" xlink:href="#font_1_72" transform="matrix(20.662915,0,0,-20.66312,443.09346,319.0901)"/>
<use data-text="." xlink:href="#font_1_88" transform="matrix(20.662915,0,0,-20.66312,448.25923,319.0901)"/>
<use data-text="-" xlink:href="#font_1_64" transform="matrix(20.662915,0,0,-20.66312,58.659914,347.23097)"/>
<use data-text="I" xlink:href="#font_1_65" transform="matrix(20.662915,0,0,-20.66312,65.89194,347.23097)"/>
<use data-text="t" xlink:href="#font_1_105" transform="matrix(20.662915,0,0,-20.66312,73.681858,347.23097)"/>
<use data-text="s" xlink:href="#font_1_98" transform="matrix(20.662915,0,0,-20.66312,80.39728,347.23097)"/>
<use data-text="a" xlink:href="#font_1_28" transform="matrix(20.662915,0,0,-20.66312,95.8945,347.23097)"/>
<use data-text="n" xlink:href="#font_1_77" transform="matrix(20.662915,0,0,-20.66312,106.22592,347.23097)"/>
<use data-text="g" xlink:href="#font_1_59" transform="matrix(20.662915,0,0,-20.66312,117.590549,347.23097)"/>
<use data-text="l" xlink:href="#font_1_72" transform="matrix(20.662915,0,0,-20.66312,126.888858,347.23097)"/>
<use data-text="e" xlink:href="#font_1_50" transform="matrix(20.662915,0,0,-20.66312,132.05457,347.23097)"/>
<use data-text="s" xlink:href="#font_1_98" transform="matrix(20.662915,0,0,-20.66312,141.35288,347.23097)"/>
<use data-text="a" xlink:href="#font_1_28" transform="matrix(20.662915,0,0,-20.66312,156.8501,347.23097)"/>
<use data-text="r" xlink:href="#font_1_96" transform="matrix(20.662915,0,0,-20.66312,167.18152,347.23097)"/>
<use data-text="e" xlink:href="#font_1_50" transform="matrix(20.662915,0,0,-20.66312,174.70282,347.23097)"/>
<use data-text="a" xlink:href="#font_1_28" transform="matrix(20.662915,0,0,-20.66312,191.2125,347.23097)"/>
<use data-text="l" xlink:href="#font_1_72" transform="matrix(20.662915,0,0,-20.66312,201.54395,347.23097)"/>
<use data-text="l" xlink:href="#font_1_72" transform="matrix(20.662915,0,0,-20.66312,208.2594,347.23097)"/>
<use data-text="e" xlink:href="#font_1_50" transform="matrix(20.662915,0,0,-20.66312,220.65717,347.23097)"/>
<use data-text="q" xlink:href="#font_1_91" transform="matrix(20.662915,0,0,-20.66312,228.943,347.23097)"/>
<use data-text="u" xlink:href="#font_1_109" transform="matrix(20.662915,0,0,-20.66312,238.24127,347.23097)"/>
<use data-text="a" xlink:href="#font_1_28" transform="matrix(20.662915,0,0,-20.66312,249.08936,347.23097)"/>
<use data-text="l" xlink:href="#font_1_72" transform="matrix(20.662915,0,0,-20.66312,259.42079,347.23097)"/>
<use data-text="," xlink:href="#font_1_45" transform="matrix(20.662915,0,0,-20.66312,264.58656,347.23097)"/>
<use data-text="b" xlink:href="#font_1_35" transform="matrix(20.662915,0,0,-20.66312,277.99678,347.23097)"/>
<use data-text="u" xlink:href="#font_1_109" transform="matrix(20.662915,0,0,-20.66312,287.29505,347.23097)"/>
<use data-text="t" xlink:href="#font_1_105" transform="matrix(20.662915,0,0,-20.66312,298.14314,347.23097)"/>
<use data-text="n" xlink:href="#font_1_77" transform="matrix(20.662915,0,0,-20.66312,312.09059,347.23097)"/>
<use data-text="o" xlink:href="#font_1_81" transform="matrix(20.662915,0,0,-20.66312,323.4552,347.23097)"/>
<use data-text="t" xlink:href="#font_1_105" transform="matrix(20.662915,0,0,-20.66312,333.78663,347.23097)"/>
<use data-text="a" xlink:href="#font_1_28" transform="matrix(20.662915,0,0,-20.66312,347.73414,347.23097)"/>
<use data-text="l" xlink:href="#font_1_72" transform="matrix(20.662915,0,0,-20.66312,358.06556,347.23097)"/>
<use data-text="l" xlink:href="#font_1_72" transform="matrix(20.662915,0,0,-20.66312,364.781,347.23097)"/>
<use data-text="i" xlink:href="#font_1_66" transform="matrix(20.662915,0,0,-20.66312,65.89206,375.68183)"/>
<use data-text="t" xlink:href="#font_1_105" transform="matrix(20.662915,0,0,-20.66312,72.09094,375.68183)"/>
<use data-text="s" xlink:href="#font_1_98" transform="matrix(20.662915,0,0,-20.66312,78.806369,375.68183)"/>
<use data-text="s" xlink:href="#font_1_98" transform="matrix(20.662915,0,0,-20.66312,94.30356,375.68183)"/>
<use data-text="i" xlink:href="#font_1_66" transform="matrix(20.662915,0,0,-20.66312,102.568759,375.68183)"/>
<use data-text="d" xlink:href="#font_1_47" transform="matrix(20.662915,0,0,-20.66312,108.76764,375.68183)"/>
<use data-text="e" xlink:href="#font_1_50" transform="matrix(20.662915,0,0,-20.66312,119.09909,375.68183)"/>
<use data-text="s" xlink:href="#font_1_98" transform="matrix(20.662915,0,0,-20.66312,128.3974,375.68183)"/>
<use data-text="a" xlink:href="#font_1_28" transform="matrix(20.662915,0,0,-20.66312,143.89459,375.68183)"/>
<use data-text="r" xlink:href="#font_1_96" transform="matrix(20.662915,0,0,-20.66312,154.22605,375.68183)"/>
<use data-text="e" xlink:href="#font_1_50" transform="matrix(20.662915,0,0,-20.66312,161.74735,375.68183)"/>
<use data-text="e" xlink:href="#font_1_50" transform="matrix(20.662915,0,0,-20.66312,178.25702,375.68183)"/>
<use data-text="q" xlink:href="#font_1_91" transform="matrix(20.662915,0,0,-20.66312,186.54285,375.68183)"/>
<use data-text="u" xlink:href="#font_1_109" transform="matrix(20.662915,0,0,-20.66312,195.84116,375.68183)"/>
<use data-text="a" xlink:href="#font_1_28" transform="matrix(20.662915,0,0,-20.66312,206.68921,375.68183)"/>
<use data-text="l" xlink:href="#font_1_72" transform="matrix(20.662915,0,0,-20.66312,217.02063,375.68183)"/>
<use data-text="." xlink:href="#font_1_88" transform="matrix(20.662915,0,0,-20.66312,222.1864,375.68183)"/>
</svg>
