<svg xmlns="http://www.w3.org/2000/svg" xmlns:xlink="http://www.w3.org/1999/xlink" xmlns:inkscape="http://www.inkscape.org/namespaces/inkscape" version="1.1" width="420" height="372" viewBox="0 0 420 372">
<defs>
<path id="font_1_107" d="M.4169922 .15492249H.39898683C.3889923 .083969119 .3809967 .07197571 .3769989 .06599426 .37199403 .057998659 .2999878 .057998659 .28599549 .057998659H.09399414L.2849884 .24986267C.34599305 .30781556 .4169922 .37576295 .4169922 .47473146 .4169922 .59298709 .32299806 .6611328 .21798706 .6611328 .10798645 .6611328 .040985109 .5639038 .040985109 .47373963 .040985109 .43473817 .069992069 .42973329 .08198547 .42973329 .09199524 .42973329 .12199402 .43572999 .12199402 .47073365 .12199402 .5017395 .09599304 .5107422 .08198547 .5107422 .07598877 .5107422 .069992069 .5097351 .06599426 .5077362 .084991458 .59298709 .14299011 .63513186 .20399475 .63513186 .29100038 .63513186 .34799195 .5659027 .34799195 .47473146 .34799195 .38775636 .29699708 .31282044 .23999024 .24786377L.040985109 .022994996V0H.3929901L.4169922 .15492249Z"/>
<path id="font_1_43" d="M.38398744 .11817932C.38398744 .122177127 .3829956 .1251831 .37599183 .1251831 .36898805 .1251831 .36799623 .124176029 .3639984 .11117554 .33799745 .030181885 .2809906 .010177612 .23799134 .010177612 .17399597 .010177612 .09700012 .06918335 .09700012 .21717835 .09700012 .36930848 .17098999 .42437745 .22999573 .42437745 .2689972 .42437745 .32699586 .40534974 .34899903 .35029603 .32998658 .35029603 .3019867 .35029603 .3019867 .31529237 .3019867 .28729249 .32499696 .27929688 .33799745 .27929688 .34498597 .27931214 .37399293 .28230287 .37399293 .31732179 .37399293 .3883667 .30599977 .4423828 .22898865 .4423828 .12298584 .4423828 .032989503 .3443451 .032989503 .21627808 .032989503 .083221439 .1269989-.0078125 .22898865-.0078125 .35299684-.0078125 .38398744 .10722351 .38398744 .1182251V.11817932Z"/>
<path id="font_1_75" d="M.74398806 0V.025985718C.6799927 .025985718 .6759949 .02999878 .6759949 .06904602V.3043213C.6759949 .35438539 .6669922 .43847657 .5479889 .43847657 .47999574 .43847657 .43299867 .3924408 .4149933 .33836366H.4139862C.4019928 .4204712 .34298707 .43847657 .2869873 .43847657 .20799256 .43847657 .16699219 .3774109 .1519928 .33737184H.15098572V.43847657L.032989503 .4273529V.4013672C.09199524 .4013672 .100997928 .39535523 .100997928 .3473053V.06903076C.100997928 .0309906 .09700012 .025985718 .032989503 .025985718V0C.056991579 .0019989014 .100997928 .0019989014 .1269989 .0019989014 .15299988 .0019989014 .19799805 .0019989014 .22200012 0V.025985718C.1579895 .025985718 .1539917 .02999878 .1539917 .06903076V.26123048C.1539917 .35339356 .20999146 .4224701 .27999879 .4224701 .35398866 .4224701 .3619995 .35638429 .3619995 .30833436V.06904602C.3619995 .03100586 .35798646 .025985718 .2939911 .025985718V0C.31799317 .0019989014 .3619995 .0019989014 .3880005 .0019989014 .4139862 .0019989014 .45899964 .0019989014 .48298646 0V.025985718C.4189911 .025985718 .4149933 .02999878 .4149933 .06904602V.26127626C.4149933 .35339356 .47099305 .4224701 .54100039 .4224701 .61499026 .4224701 .6230011 .35638429 .6230011 .30833436V.06904602C.6230011 .03100586 .61898806 .025985718 .5549927 .025985718V0C.57899478 .0019989014 .6230011 .0019989014 .6489868 .0019989014 .6749878 .0019989014 .7200012 .0019989014 .74398806 0Z"/>
<path id="font_1_51" d="M.4249878 .16331482C.4249878 .25427247 .3639984 .2962494 .32398988 .3232422 .30999757 .3332367 .3019867 .33824159 .27198792 .3602295 .33499146 .3922119 .39898683 .4402008 .39898683 .51716616 .39898683 .60813906 .31098939 .6611328 .22999573 .6611328 .13899231 .6611328 .05899048 .59513857 .05899048 .5041809 .05899048 .479187 .06498718 .436203 .10398865 .39822389 .11399841 .3882141 .1559906 .3582306 .18299866 .3392334 .13798523 .31625367 .032989503 .26127626 .032989503 .15130615 .032989503 .048355104 .1309967-.015625 .22799683-.015625 .33499146-.015625 .4249878 .061340333 .4249878 .16331482M.36499024 .51716616C.36499024 .4242096 .26098634 .37123109 .2559967 .37123109 .2559967 .37123109 .2539978 .37123109 .24598694 .37722779L.14099121 .4481964C.1329956 .4532013 .09298706 .48417665 .09298706 .53115847 .09298706 .5921478 .1559906 .63812258 .22799683 .63812258 .30699159 .63812258 .36499024 .5821533 .36499024 .51716616M.3880005 .13832093C.3880005 .06434631 .31399537 .008361816 .22999573 .008361816 .13899231 .008361816 .069992069 .073349 .069992069 .15231323 .069992069 .23127747 .1309967 .29725648 .19999695 .32824708L.32499696 .24327088C.33999635 .23228455 .3880005 .19929505 .3880005 .13832093Z"/>
<path id="font_1_82" d="M.38398744 0V.025985718H.35398866C.2679901 .025985718 .2659912 .037002565 .2659912 .073013309V.6391907C.2659912 .66012576 .2649994 .6611328 .25099183 .6611328 .21199036 .6142578 .15299988 .5993042 .09700012 .5973053 .09399414 .5973053 .08898926 .5973053 .08799744 .5953064 .08699036 .5933075 .08699036 .5913086 .08699036 .5703125 .117996219 .5703125 .16999817 .5763092 .20999146 .600296V.073013309C.20999146 .037994386 .20799256 .025985718 .12199402 .025985718H.09199524V0L.23799134 .0019989014 .38398744 0Z"/>
<path id="font_1_57" d="M.43798829 .16992188V.1959076H.33599855V.64694216C.33599855 .66793826 .33499146 .6689453 .31698609 .6689453L.019989014 .1959076V.16992188H.27799989V.07196045C.27799989 .035980226 .27598573 .025985718 .20599365 .025985718H.18699646V0C.21899414 .0019989014 .272995 .0019989014 .30699159 .0019989014 .34098817 .0019989014 .394989 .0019989014 .4269867 0V.025985718H.4079895C.33799745 .025985718 .33599855 .035980226 .33599855 .07196045V.16992188H.43798829M.2809906 .1959076H.039993287L.2809906 .5809326V.1959076Z"/>
</defs>
<path transform="matrix(1.00006,0,0,-1.00008,361.42878,228.78704)" d="M56.69362-141.73404H-354.3351V226.77448H56.69362ZM-354.3351 226.77448" fill="#6dcff6"/>
<path transform="matrix(1.00006,0,0,-1.00008,361.42878,228.78704)" stroke-width=".79701" stroke-linecap="butt" stroke-miterlimit="10" stroke-linejoin="miter" fill="none" stroke="#000000" d="M0-141.73404H-283.4681V226.77448H0ZM-283.4681 226.77448"/>
<path transform="matrix(1.00006,0,0,-1.00008,361.42878,228.78704)" stroke-width=".79701" stroke-linecap="butt" stroke-miterlimit="10" stroke-linejoin="miter" fill="none" stroke="#000000" d="M56.69362 56.69362H-283.4681"/>
<path transform="matrix(1.00006,0,0,-1.00008,361.42878,228.78704)" stroke-width=".79701" stroke-linecap="butt" stroke-miterlimit="10" stroke-linejoin="miter" fill="none" stroke="#000000" d="M0-85.04042H56.69362V56.69362H0"/>
<path transform="matrix(1.00006,0,0,-1.00008,361.42878,228.78704)" stroke-width=".79701" stroke-linecap="butt" stroke-miterlimit="10" stroke-linejoin="miter" fill="none" stroke="#000000" d="M-283.4681-85.04042H0"/>
<path transform="matrix(1.00006,0,0,-1.00008,361.42878,228.78704)" stroke-width=".79701" stroke-linecap="butt" stroke-miterlimit="10" stroke-linejoin="miter" fill="none" stroke="#000000" d="M-283.4681 113.38724H0"/>
<path transform="matrix(1.00006,0,0,-1.00008,361.42878,228.78704)" stroke-width=".79701" stroke-linecap="butt" stroke-miterlimit="10" stroke-linejoin="miter" fill="none" stroke="#000000" d="M-283.4681-85.04042H-340.1617V56.69362H-283.4681"/>
<use data-text="2" xlink:href="#font_1_107" transform="matrix(20.66374,0,0,-20.664155,57.909578,140.05394)"/>
<use data-text="c" xlink:href="#font_1_43" transform="matrix(20.66374,0,0,-20.664155,73.614048,140.05394)"/>
<use data-text="m" xlink:href="#font_1_75" transform="matrix(20.66374,0,0,-20.664155,82.00351,140.05394)"/>
<use data-text="8" xlink:href="#font_1_51" transform="matrix(20.66374,0,0,-20.664155,1.2131653,224.93672)"/>
<use data-text="c" xlink:href="#font_1_43" transform="matrix(20.66374,0,0,-20.664155,16.917634,224.93672)"/>
<use data-text="m" xlink:href="#font_1_75" transform="matrix(20.66374,0,0,-20.664155,25.307099,224.93672)"/>
<use data-text="8" xlink:href="#font_1_51" transform="matrix(20.66374,0,0,-20.664155,57.909578,83.19139)"/>
<use data-text="c" xlink:href="#font_1_43" transform="matrix(20.66374,0,0,-20.664155,73.614048,83.19139)"/>
<use data-text="m" xlink:href="#font_1_75" transform="matrix(20.66374,0,0,-20.664155,82.00351,83.19139)"/>
<use data-text="1" xlink:href="#font_1_82" transform="matrix(20.66374,0,0,-20.664155,223.20648,37.172716)"/>
<use data-text="4" xlink:href="#font_1_57" transform="matrix(20.66374,0,0,-20.664155,232.69116,37.172716)"/>
<use data-text="c" xlink:href="#font_1_43" transform="matrix(20.66374,0,0,-20.664155,248.39563,37.172716)"/>
<use data-text="m" xlink:href="#font_1_75" transform="matrix(20.66374,0,0,-20.664155,256.7851,37.172716)"/>
<use data-text="2" xlink:href="#font_1_107" transform="matrix(20.66374,0,0,-20.664155,57.909578,338.4978)"/>
<use data-text="c" xlink:href="#font_1_43" transform="matrix(20.66374,0,0,-20.664155,73.614048,338.4978)"/>
<use data-text="m" xlink:href="#font_1_75" transform="matrix(20.66374,0,0,-20.664155,82.00351,338.4978)"/>
</svg>
