<svg xmlns="http://www.w3.org/2000/svg" xmlns:xlink="http://www.w3.org/1999/xlink" xmlns:inkscape="http://www.inkscape.org/namespaces/inkscape" version="1.1" width="174" height="174" viewBox="0 0 174 174">
<defs>
<path id="font_1_51" d="M.45700074 .16764832C.45700074 .20367432 .44599916 .24871826 .4079895 .29074098 .3889923 .31176759 .37298585 .32176209 .30899049 .36180116 .3809967 .39881898 .42999269 .4508667 .42999269 .51690676 .42999269 .6089783 .34098817 .6660156 .25 .6660156 .1499939 .6660156 .068984989 .5919647 .068984989 .49890138 .068984989 .48088075 .070999149 .43585206 .11299133 .38882447 .12399292 .3768158 .16099549 .35179139 .18598938 .33477784 .12799073 .30575563 .041992189 .24971009 .041992189 .15063477 .041992189 .044555665 .14399719-.022460938 .24899292-.022460938 .3619995-.022460938 .45700074 .060577394 .45700074 .16764832M.38598634 .51690676C.38598634 .45986939 .34700013 .41183473 .2869873 .3768158L.16299439 .4568634C.116989139 .4868927 .11299133 .5209198 .11299133 .53793337 .11299133 .5989685 .17799378 .64100649 .24899292 .64100649 .32199098 .64100649 .38598634 .588974 .38598634 .51690676M.40699769 .13162232C.40699769 .05757141 .33198548 .0055389406 .25 .0055389406 .1639862 .0055389406 .09199524 .06758118 .09199524 .15063477 .09199524 .2086792 .12399292 .2727356 .20899964 .31976319L.33198548 .24171448C.3600006 .22268677 .40699769 .19267273 .40699769 .13162232Z"/>
<path id="font_1_43" d="M.4149933 .119140628C.4149933 .12911988 .40499879 .12911988 .4019928 .12911988 .3929901 .12911988 .3909912 .12512207 .3889923 .119140628 .3600006 .026229859 .29499818 .014251709 .2579956 .014251709 .20498657 .014251709 .116989139 .0572052 .116989139 .21801758 .116989139 .38093568 .19898987 .42323304 .2519989 .42323304 .26098634 .42323304 .32398988 .42222596 .35899354 .38594056 .31799317 .38293458 .31199647 .3529358 .31199647 .3399353 .31199647 .31393434 .32998658 .2939453 .35798646 .2939453 .38398744 .2939453 .4039917 .3109436 .4039917 .34094239 .4039917 .40911866 .32798768 .4482422 .25099183 .4482422 .12599182 .4482422 .033996583 .3399353 .033996583 .21601868 .033996583 .08816528 .1329956-.0107421879 .24899292-.0107421879 .3829956-.0107421879 .4149933 .10914612 .4149933 .119140628Z"/>
<path id="font_1_75" d="M.8129883 0V.0309906C.7609863 .0309906 .73599246 .0309906 .7350006 .061019899V.25221253C.7350006 .3383026 .7350006 .36932374 .70399478 .405365 .6899872 .42237855 .6569977 .4423828 .598999 .4423828 .5149994 .4423828 .47099305 .38233949 .45399476 .34429933 .43998719 .43138124 .3659973 .4423828 .32099916 .4423828 .24798584 .4423828 .20098877 .39935304 .17298889 .33729554V.4423828L.03199768 .43066407V.3996582C.101989749 .3996582 .10998535 .39266969 .10998535 .34370423V.07595825C.10998535 .0309906 .09899902 .0309906 .03199768 .0309906V0L.14498902 .0029907227 .25698854 0V.0309906C.18998719 .0309906 .1789856 .0309906 .1789856 .07595825V.25978089C.1789856 .36431886 .25 .42037965 .31399537 .42037965 .3769989 .42037965 .3880005 .36631776 .3880005 .30926515V.076034549C.3880005 .0309906 .3769989 .0309906 .30999757 .0309906V0L.4229889 .0029907227 .5349884 0V.0309906C.46798707 .0309906 .45700074 .0309906 .45700074 .076034549V.2602234C.45700074 .36431886 .5279999 .42037965 .59199526 .42037965 .6549988 .42037965 .66600039 .36631776 .66600039 .30926515V.076034549C.66600039 .0309906 .6549988 .0309906 .58799746 .0309906V0L.70098879 .0029907227 .8129883 0Z"/>
<path id="font_2_1" d="M.0289917 .19602967V.16503906H.3019867V.07901001C.3019867 .041992189 .29899598 .0309906 .22399903 .0309906H.20199585V0C.2649994 .0029907227 .33499146 .0029907227 .34199525 .0029907227 .34700013 .0029907227 .4189911 .0029907227 .48199464 0V.0309906H.45999146C.3849945 .0309906 .38198854 .041992189 .38198854 .07901001V.16503906H.48399354V.19602967H.38198854V.64974978C.38198854 .669754 .38198854 .6767578 .36299134 .6767578 .35099793 .6767578 .34999085 .67575076 .34098817 .66174319L.0289917 .19602967M.06098938 .19602967 .30799867 .56581118V.19602967H.06098938Z"/>
<path id="font_2_2" d="M.10398865 .3444519C.10398865 .32641603 .10398865 .31539918 .117996219 .31539918 .12599182 .31539918 .1289978 .31941224 .1349945 .32843019 .16499329 .3704834 .21299744 .39453126 .2649994 .39453126 .37199403 .39453126 .37199403 .24029541 .37199403 .20425415 .37199403 .17324829 .37199403 .11125183 .34399415 .06637573 .31698609 .024475098 .2749939 .0055389406 .23599243 .0055389406 .1769867 .0055389406 .10998535 .042434694 .085998538 .116256717 .08699036 .116256717 .09298706 .11425781 .099990848 .11425781 .11999512 .11425781 .14898682 .12724304 .14898682 .16325379 .14898682 .19424439 .1269989 .21224976 .099990848 .21224976 .07899475 .21224976 .050994874 .20025635 .050994874 .1602478 .050994874 .069366458 .1269989-.022460938 .23799134-.022460938 .35899354-.022460938 .46199037 .0753479 .46199037 .19924927 .46199037 .3204193 .37599183 .41952516 .2669983 .41952516 .21899414 .41952516 .16999817 .40351869 .1349945 .36747743V.56477358C.16499329 .5557709 .19599915 .55078127 .22698975 .55078127 .34999085 .55078127 .42199708 .6397705 .42199708 .652771 .42199708 .6617737 .41600038 .6657715 .41099549 .6657715 .40899659 .6657715 .40699769 .6657715 .397995 .6607666 .35099793 .6417694 .30499269 .6337738 .2630005 .6337738 .21998596 .6337738 .1749878 .6417694 .1289978 .6607666 .11898804 .6657715 .116989139 .6657715 .115997318 .6657715 .10398865 .6657715 .10398865 .655777 .10398865 .6387787V.3444519Z"/>
<path id="font_3_1" d="M.54499819 .25C.54499819 .3768463 .44299317 .47679139 .31900025 .47679139 .19499207 .47679139 .09298706 .3758545 .09298706 .25 .09298706 .12313843 .19499207 .02319336 .31900025 .02319336 .44299317 .02319336 .54499819 .12413025 .54499819 .25M.31900025 .07519531C.22299195 .07519531 .14498902 .15209961 .14498902 .25 .14498902 .34788514 .22299195 .4248047 .31900025 .4248047 .4149933 .4248047 .49299623 .34788514 .49299623 .25 .49299623 .15209961 .4149933 .07519531 .31900025 .07519531Z"/>
<path id="font_4_80" d="M.798996 .33924867C.798996 .5552521 .6539917 .6972656 .43199159 .6972656 .20298767 .6972656 .06399536 .5492554 .06399536 .33924867 .06399536 .13224793 .20399475-.0107421879 .43099977-.0107421879 .6609955-.0107421879 .798996 .13424683 .798996 .33924867M.6459961 .3542633C.6459961 .28425599 .6419983 .19525147 .59999087 .12625122 .5549927 .053253175 .4850006 .03125 .43099977 .03125 .37199403 .03125 .29899598 .059249879 .2579956 .1352539 .22499085 .19725037 .21699524 .2682495 .21699524 .3542633 .21699524 .41825868 .21998596 .5032654 .2639923 .57125857 .30499269 .6322632 .37199403 .6572571 .43099977 .6572571 .49499513 .6572571 .56399539 .6292572 .60398867 .56326296 .6419983 .49925233 .6459961 .42225648 .6459961 .3542633Z"/>
</defs>
<path transform="matrix(1.00002,0,0,-1,87.33537,87.038)" stroke-width=".79701" stroke-linecap="butt" stroke-miterlimit="10" stroke-linejoin="miter" fill="none" stroke="#000000" d="M85.04042 0 60.1327 60.1327 0 85.04042-60.1327 60.1327-85.04042 0-60.1327-60.1327 0-85.04042 60.1327-60.1327Z"/>
<path transform="matrix(1.00002,0,0,-1,87.33537,87.038)" stroke-width=".3985" stroke-linecap="butt" stroke-dasharray="2.98883,2.98883" stroke-miterlimit="10" stroke-linejoin="miter" fill="none" stroke="#000000" d="M0 0H85.04042"/>
<use data-text="8" xlink:href="#font_1_51" transform="matrix(9.962799,0,0,-9.9626,105.314739,97.193)"/>
<use data-text="c" xlink:href="#font_1_43" transform="matrix(9.962799,0,0,-9.9626,113.61375,97.193)"/>
<use data-text="m" xlink:href="#font_1_75" transform="matrix(9.962799,0,0,-9.9626,118.03724,97.193)"/>
<path transform="matrix(1.00002,0,0,-1,87.33537,87.038)" stroke-width=".3985" stroke-linecap="butt" stroke-dasharray="2.98883,2.98883" stroke-miterlimit="10" stroke-linejoin="miter" fill="none" stroke="#000000" d="M0 0 60.1327 60.1327"/>
<use data-text="8" xlink:href="#font_1_51" transform="matrix(9.962799,0,0,-9.9626,120.92204,60.18)"/>
<use data-text="c" xlink:href="#font_1_43" transform="matrix(9.962799,0,0,-9.9626,129.22106,60.18)"/>
<use data-text="m" xlink:href="#font_1_75" transform="matrix(9.962799,0,0,-9.9626,133.64455,60.18)"/>
<path transform="matrix(1.00002,0,0,-1,87.33537,87.038)" stroke-width=".79701" stroke-linecap="butt" stroke-miterlimit="10" stroke-linejoin="miter" fill="none" stroke="#000000" d="M13.99864 2.21716C13.46425 5.5916 11.72737 8.66135 9.1103 10.85733"/>
<use data-text="4" xlink:href="#font_2_1" transform="matrix(8.966579,0,0,-8.9664,107.20677,80.672008)"/>
<use data-text="5" xlink:href="#font_2_2" transform="matrix(8.966579,0,0,-8.9664,111.806629,80.672008)"/>
<use data-text="&#x25e6;" xlink:href="#font_3_1" transform="matrix(5.97772,0,0,-5.9776,116.42296,76.86301)"/>
<path transform="matrix(1.00002,0,0,-1,87.33537,87.038)" d="M1.99255 0C1.99255 1.10046 1.10046 1.99255 0 1.99255-1.10046 1.99255-1.99255 1.10046-1.99255 0-1.99255-1.10046-1.10046-1.99255 0-1.99255 1.10046-1.99255 1.99255-1.10046 1.99255 0ZM0 0"/>
<path transform="matrix(1.00002,0,0,-1,87.33537,87.038)" stroke-width=".3985" stroke-linecap="butt" stroke-miterlimit="10" stroke-linejoin="miter" fill="none" stroke="#000000" d="M1.99255 0C1.99255 1.10046 1.10046 1.99255 0 1.99255-1.10046 1.99255-1.99255 1.10046-1.99255 0-1.99255-1.10046-1.10046-1.99255 0-1.99255 1.10046-1.99255 1.99255-1.10046 1.99255 0ZM0 0"/>
<use data-text="O" xlink:href="#font_4_80" transform="matrix(9.962799,0,0,-9.9626,75.20713,83.409008)"/>
</svg>
