<svg xmlns="http://www.w3.org/2000/svg" xmlns:xlink="http://www.w3.org/1999/xlink" xmlns:inkscape="http://www.inkscape.org/namespaces/inkscape" version="1.1" width="137" height="11" viewBox="0 0 137 11">
<defs>
<path id="font_1_90" d="M.72698977-.010345459C.72698977-.00033569337 .72698977 .010650635 .71598818 .010650635 .70700076 .010650635 .70599368 .0026550294 .7049866-.0073394777 .69898989-.061340333 .6569977-.09133911 .6139984-.09133911 .5669861-.09133911 .5419922-.05734253 .5179901 .006652832 .6359863 .059570314 .72099307 .1876831 .72099307 .3387909 .72099307 .5429535 .56999209 .7050781 .3880005 .7050781 .20899964 .7050781 .055999757 .54496768 .055999757 .3387909 .055999757 .13664246 .20698548-.022460938 .3889923-.022460938 .41999818-.022460938 .45498658-.016464234 .48399354-.007461548 .49899293-.1023407 .5130005-.19433594 .60598757-.19433594 .70799258-.1945343 .72698977-.061538698 .72698977-.010528564V-.010345459M.62098696 .33866883C.62098696 .2605896 .60899356 .11946106 .5029907 .04147339 .48098756 .097457889 .44898988 .14746094 .3899994 .14746094 .33898927 .14746094 .30799867 .10446167 .30799867 .06347656 .30799867 .036468507 .32099916 .017471314 .32199098 .015472412 .2679901 .035461427 .1559906 .10845947 .1559906 .33866883 .1559906 .59898379 .29599 .68006899 .3880005 .68006899 .4850006 .6794586 .62098696 .5934601 .62098696 .3384552V.33866883M.47698976 .025497437C.44299317 .0065307619 .41099549 .002532959 .3889923 .002532959 .33799745 .002532959 .32998658 .048461915 .32998658 .06347656 .32998658 .09246826 .35099793 .12545777 .3899994 .12545777 .44400025 .12545777 .46598817 .083465579 .47698976 .025497437Z"/>
<path id="font_1_83" d="M.6239929 .4967041C.6239929 .59465029 .5249939 .6826172 .3880005 .6826172H.034988405V.6516113H.05899048C.13598633 .6516113 .13798523 .64060977 .13798523 .6046295V.07795715C.13798523 .041992189 .13598633 .0309906 .05899048 .0309906H.034988405V0C.069992069 .0029907227 .14399719 .0029907227 .18199158 .0029907227 .21998596 .0029907227 .29499818 .0029907227 .32998658 0V.0309906H.30599977C.22898865 .0309906 .22698975 .041992189 .22698975 .07795715V.3157959H.3959961C.5159912 .3157959 .6239929 .39675904 .6239929 .4967041M.5209961 .4967041C.5209961 .4497223 .5209961 .34179688 .3619995 .34179688H.22399903V.6116333C.22399903 .64460757 .22599793 .6516113 .272995 .6516113H.3619995C.5209961 .6516113 .5209961 .54566958 .5209961 .4967041Z"/>
</defs>
<path transform="matrix(1.00008,0,0,-1.00003,11.522728,5.398802)" stroke-width=".3985" stroke-linecap="butt" stroke-miterlimit="10" stroke-linejoin="miter" fill="none" stroke="#000000" d="M.29886 0H113.08836"/>
<path transform="matrix(-1.00008,-0,0,1.00003,11.721993,5.398802)" stroke-width=".3985" stroke-linecap="butt" stroke-miterlimit="10" stroke-linejoin="miter" fill="none" stroke="#000000" d="M0 2.29141V-2.29141"/>
<path transform="matrix(1.00008,0,0,-1.00003,124.71976,5.398802)" stroke-width=".3985" stroke-linecap="butt" stroke-miterlimit="10" stroke-linejoin="miter" fill="none" stroke="#000000" d="M0 2.29141V-2.29141"/>
<use data-text="Q" xlink:href="#font_1_90" transform="matrix(9.963397,0,0,-9.962899,128.43909,7.943878)"/>
<use data-text="P" xlink:href="#font_1_83" transform="matrix(9.963397,0,0,-9.962899,1.2179031,8.800904)"/>
<path transform="matrix(1.00008,0,0,-1.00003,11.522728,5.398802)" stroke-width=".3985" stroke-linecap="butt" stroke-miterlimit="10" stroke-linejoin="miter" fill="none" stroke="#000000" d="M56.69362 0H50.16351"/>
<path transform="matrix(1.00008,0,0,-1.00003,61.69025,5.398802)" d="M8.54343 0C7.49426 .25244 2.88243 1.68295 0 3.23967V-3.23967C2.88243-1.68295 7.49426-.25244 8.54343 0Z"/>
<path transform="matrix(1.00008,0,0,-1.00003,61.69025,5.398802)" stroke-width=".3985" stroke-linecap="butt" stroke-miterlimit="10" stroke-linejoin="miter" fill="none" stroke="#000000" d="M8.54343 0C7.49426 .25244 2.88243 1.68295 0 3.23967V-3.23967C2.88243-1.68295 7.49426-.25244 8.54343 0Z"/>
</svg>
