<svg xmlns="http://www.w3.org/2000/svg" xmlns:xlink="http://www.w3.org/1999/xlink" xmlns:inkscape="http://www.inkscape.org/namespaces/inkscape" version="1.1" width="118" height="152" viewBox="0 0 118 152">
<path transform="matrix(1.00003,0,0,-1.00005,144.03176,144.73638)" stroke-width=".79701" stroke-linecap="butt" stroke-miterlimit="10" stroke-linejoin="miter" fill="none" stroke="#000000" d="M-141.73404 141.73404V0H-28.3468Z"/>
<path transform="matrix(1.00003,0,0,-1.00005,144.03176,144.73638)" stroke-width=".3985" stroke-linecap="butt" stroke-miterlimit="10" stroke-linejoin="miter" fill="none" stroke="#0000ff" d="M-141.73404 141.73404V0H-28.3468"/>
<path transform="matrix(1.00003,0,0,-1.00005,144.03176,144.73638)" stroke-width=".3985" stroke-linecap="butt" stroke-miterlimit="10" stroke-linejoin="miter" fill="none" stroke="#ff8000" d="M-141.73404 113.38724C-135.29875 113.38724-129.05207 115.58043-124.02725 119.60022"/>
<path transform="matrix(1.00003,0,0,-1.00005,144.03176,144.73638)" stroke-width=".3985" stroke-linecap="butt" stroke-miterlimit="10" stroke-linejoin="miter" fill="none" stroke="#0000ff" d="M-130.39548 0V11.33855H-141.73404"/>
<path transform="matrix(1.00003,0,0,-1.00005,144.03176,144.73638)" stroke-width=".3985" stroke-linecap="butt" stroke-miterlimit="10" stroke-linejoin="miter" fill="none" stroke="#000000" d="M-73.70186-5.66927V5.66927"/>
<path transform="matrix(1.00003,0,0,-1.00005,144.03176,144.73638)" stroke-width=".3985" stroke-linecap="butt" stroke-miterlimit="10" stroke-linejoin="miter" fill="none" stroke="#000000" d="M-68.03217-5.66927V5.66927"/>
<path transform="matrix(1.00003,0,0,-1.00005,144.03176,144.73638)" stroke-width=".3985" stroke-linecap="butt" stroke-miterlimit="10" stroke-linejoin="miter" fill="none" stroke="#000000" d="M-85.04042 62.36288-79.37114 68.03217"/>
</svg>
