<svg xmlns="http://www.w3.org/2000/svg" xmlns:xlink="http://www.w3.org/1999/xlink" xmlns:inkscape="http://www.inkscape.org/namespaces/inkscape" version="1.1" width="118" height="151" viewBox="0 0 118 151">
<path transform="matrix(1.00003,0,0,-1.00005,2.2955018,143.73638)" stroke-width=".79701" stroke-linecap="butt" stroke-miterlimit="10" stroke-linejoin="miter" fill="none" stroke="#000000" d="M113.38724 141.73404V0H0Z"/>
<path transform="matrix(1.00003,0,0,-1.00005,2.2955018,143.73638)" stroke-width=".3985" stroke-linecap="butt" stroke-miterlimit="10" stroke-linejoin="miter" fill="none" stroke="#0000ff" d="M113.38724 141.73404V0H0"/>
<path transform="matrix(1.00003,0,0,-1.00005,2.2955018,143.73638)" stroke-width=".3985" stroke-linecap="butt" stroke-miterlimit="10" stroke-linejoin="miter" fill="none" stroke="#ff8000" d="M95.68044 119.60022C100.70526 115.58043 106.95195 113.38724 113.38724 113.38724"/>
<path transform="matrix(1.00003,0,0,-1.00005,2.2955018,143.73638)" stroke-width=".3985" stroke-linecap="butt" stroke-miterlimit="10" stroke-linejoin="miter" fill="none" stroke="#0000ff" d="M102.04868 0V11.33855H113.38724"/>
<path transform="matrix(1.00003,0,0,-1.00005,2.2955018,143.73638)" stroke-width=".3985" stroke-linecap="butt" stroke-miterlimit="10" stroke-linejoin="miter" fill="none" stroke="#000000" d="M73.70186-5.66927V5.66927"/>
<path transform="matrix(1.00003,0,0,-1.00005,2.2955018,143.73638)" stroke-width=".3985" stroke-linecap="butt" stroke-miterlimit="10" stroke-linejoin="miter" fill="none" stroke="#000000" d="M68.03217-5.66927V5.66927"/>
<path transform="matrix(1.00003,0,0,-1.00005,2.2955018,143.73638)" stroke-width=".3985" stroke-linecap="butt" stroke-miterlimit="10" stroke-linejoin="miter" fill="none" stroke="#000000" d="M56.69362 56.69362 45.35506 68.03217"/>
</svg>
