<svg xmlns="http://www.w3.org/2000/svg" xmlns:xlink="http://www.w3.org/1999/xlink" xmlns:inkscape="http://www.inkscape.org/namespaces/inkscape" version="1.1" width="175" height="97" viewBox="0 0 175 97">
<path transform="matrix(1.00002,0,0,-1.00002,229.07118,115.385997)" stroke-width=".79701" stroke-linecap="butt" stroke-miterlimit="10" stroke-linejoin="miter" fill="none" stroke="#000000" d="M-170.08086 113.38724-226.77448 28.3468H-56.69362Z"/>
<path transform="matrix(1.00002,0,0,-1.00002,229.07118,115.385997)" stroke-width=".3985" stroke-linecap="butt" stroke-miterlimit="10" stroke-linejoin="miter" fill="none" stroke="#0000ff" d="M-170.08086 113.38724-226.77448 28.3468H-56.69362"/>
<path transform="matrix(1.00002,0,0,-1.00002,229.07118,115.385997)" stroke-width=".3985" stroke-linecap="butt" stroke-miterlimit="10" stroke-linejoin="miter" fill="none" stroke="#ff8000" d="M-198.42766 28.3468C-198.42766 37.8224-203.16744 46.67595-211.0513 51.9318"/>
<path transform="matrix(1.00002,0,0,-1.00002,229.07118,115.385997)" stroke-width=".3985" stroke-linecap="butt" stroke-miterlimit="10" stroke-linejoin="miter" fill="none" stroke="#000000" d="M-198.42766 85.04042-184.25424 73.70186"/>
<path transform="matrix(1.00002,0,0,-1.00002,229.07118,115.385997)" stroke-width=".3985" stroke-linecap="butt" stroke-miterlimit="10" stroke-linejoin="miter" fill="none" stroke="#000000" d="M-153.07259 19.84267V36.85092"/>
<path transform="matrix(1.00002,0,0,-1.00002,229.07118,115.385997)" stroke-width=".3985" stroke-linecap="butt" stroke-miterlimit="10" stroke-linejoin="miter" fill="none" stroke="#000000" d="M-147.40332 19.84267V36.85092"/>
</svg>
