<svg xmlns="http://www.w3.org/2000/svg" xmlns:xlink="http://www.w3.org/1999/xlink" xmlns:inkscape="http://www.inkscape.org/namespaces/inkscape" version="1.1" width="175" height="95" viewBox="0 0 175 95">
<path transform="matrix(1.00002,0,0,-1,58.988817,120.854)" stroke-width=".79701" stroke-linecap="butt" stroke-miterlimit="10" stroke-linejoin="miter" fill="none" stroke="#000000" d="M-56.69362 113.38724H113.38724L0 28.3468Z"/>
<path transform="matrix(1.00002,0,0,-1,58.988817,120.854)" stroke-width=".3985" stroke-linecap="butt" stroke-miterlimit="10" stroke-linejoin="miter" fill="none" stroke="#0000ff" d="M-56.69362 113.38724H113.38724L0 28.3468"/>
<path transform="matrix(1.00002,0,0,-1,58.988817,120.854)" stroke-width=".3985" stroke-linecap="butt" stroke-miterlimit="10" stroke-linejoin="miter" fill="none" stroke="#ff8000" d="M-40.97043 89.80225C-33.08658 95.05809-28.3468 103.91162-28.3468 113.38724"/>
<path transform="matrix(1.00002,0,0,-1,58.988817,120.854)" stroke-width=".3985" stroke-linecap="butt" stroke-miterlimit="10" stroke-linejoin="miter" fill="none" stroke="#000000" d="M14.17339 107.71794V119.0565"/>
<path transform="matrix(1.00002,0,0,-1,58.988817,120.854)" stroke-width=".3985" stroke-linecap="butt" stroke-miterlimit="10" stroke-linejoin="miter" fill="none" stroke="#000000" d="M17.00824 107.71794V119.0565"/>
<path transform="matrix(1.00002,0,0,-1,58.988817,120.854)" stroke-width=".3985" stroke-linecap="butt" stroke-miterlimit="10" stroke-linejoin="miter" fill="none" stroke="#000000" d="M-34.01608 68.03217-22.67752 73.70186"/>
</svg>
