<svg xmlns="http://www.w3.org/2000/svg" xmlns:xlink="http://www.w3.org/1999/xlink" xmlns:inkscape="http://www.inkscape.org/namespaces/inkscape" version="1.1" width="367" height="376" viewBox="0 0 367 376">
<defs>
<path id="font_1_80" d="M.798996 .33924867C.798996 .5552521 .6539917 .6972656 .43199159 .6972656 .20298767 .6972656 .06399536 .5492554 .06399536 .33924867 .06399536 .13224793 .20399475-.0107421879 .43099977-.0107421879 .6609955-.0107421879 .798996 .13424683 .798996 .33924867M.6459961 .3542633C.6459961 .28425599 .6419983 .19525147 .59999087 .12625122 .5549927 .053253175 .4850006 .03125 .43099977 .03125 .37199403 .03125 .29899598 .059249879 .2579956 .1352539 .22499085 .19725037 .21699524 .2682495 .21699524 .3542633 .21699524 .41825868 .21998596 .5032654 .2639923 .57125857 .30499269 .6322632 .37199403 .6572571 .43099977 .6572571 .49499513 .6572571 .56399539 .6292572 .60398867 .56326296 .6419983 .49925233 .6459961 .42225648 .6459961 .3542633Z"/>
<path id="font_1_115" d="M.83499148 0V.04699707H.7369995L.48399354 .39675904 .6519928 .61761477C.6629944 .63160708 .6639862 .63261416 .69898989 .63560488 .72299197 .63853457 .72898867 .63853457 .7569885 .63853457H.7859955V.6855469C.74398806 .6826172 .69499209 .6826172 .6519928 .6826172 .61299136 .6825409 .5359955 .6825409 .5 .6855469V.63853457C.5179901 .63853457 .5569916 .63853457 .59199526 .62753298 .59098818 .62553408 .58599856 .61953738 .58399966 .61654666L.45199586 .44154359 .30899049 .63853457H.3919983V.6855469C.35099793 .6826172 .2559967 .6826172 .21099854 .6826172 .17098999 .6825409 .083999637 .6825409 .04899597 .6855469V.63853457H.14698792L.36898805 .33174134 .16699219 .06690979C.1579895 .05491638 .1559906 .05291748 .12399292 .049926759 .10398865 .04798889 .08299255 .04699707 .06298828 .04699707H.033996583V0C.07598877 .0029296876 .125 .0029296876 .16799927 .0029296876 .20698548 .0029907227 .28399659 .0029907227 .31999208 0V.04699707C.3019867 .04699707 .2630005 .04699707 .22799683 .057998659 .22898865 .05999756 .23399353 .06599426 .23599243 .068984989L.40098573 .28799439 .57499697 .04699707H.49198915V0C.5329895 .0029296876 .6279907 .0029296876 .6729889 .0029296876 .71299746 .0029907227 .7999878 .0029907227 .83499148 0Z"/>
<path id="font_1_117" d="M.848999 .63853457V.6855469L.7350006 .6826172C.69599917 .6825409 .6399994 .6825409 .6029968 .6855469V.63853457C.6259918 .63853457 .6529999 .63853457 .67900088 .62854006 .6769867 .62454226 .6769867 .62254336 .6719971 .61654666L.4850006 .34153749 .28199769 .63853457H.36698915V.6855469C.32598878 .6826172 .22898865 .6826172 .18399048 .6826172 .14399719 .6825409 .053985597 .6825409 .018997193 .6855469V.63853457H.116989139L.3659973 .27381898V.04699707H.2579956V0C.2939911 .0029907227 .3919983 .0029907227 .43399049 .0029907227 .47698976 .0029907227 .57299807 .0029907227 .61099246 0V.04699707H.5019989V.27381898L.7369995 .61854556C.74598696 .63261416 .7539978 .63261416 .776001 .63560488 .79299929 .6375427 .8109894 .63853457 .8279877 .63853457H.848999Z"/>
<path id="font_1_83" d="M.72099307 .49064637C.72099307 .6005707 .621994 .6855469 .45599366 .6855469H.038986207V.63853457H.14698792V.04699707H.038986207V0C.07699585 .0029907227 .1749878 .0029907227 .21798706 .0029907227 .26098634 .0029907227 .35899354 .0029907227 .39698792 0V.04699707H.2889862V.30177308H.46598817C.6049957 .30177308 .72099307 .37374879 .72099307 .49064637M.56799319 .49064637C.56799319 .41970826 .56799319 .34277345 .4169922 .34277345H.2829895V.63853457H.41799928C.56799319 .63853457 .56799319 .56259158 .56799319 .49064637Z"/>
<path id="font_1_76" d="M.8600006 .63853457V.6855469C.82199099 .6826172 .7649994 .6826172 .7259979 .6826172 .6839905 .6825409 .6319885 .6825409 .59098818 .6855469V.63853457H.6159973C.6339874 .63861086 .651001 .63760378 .6689911 .63560488 .69799807 .63261416 .69898989 .63160708 .69898989 .6096039V.2046051L.30099488 .6726074C.2899933 .6845398 .2889862 .6855469 .2679901 .6855469H.038986207V.63853457H.14698792V.075912479C.14698792 .05392456 .1459961 .05291748 .117996219 .049926759 .09399414 .04699707 .09199524 .04699707 .06399536 .04699707H.038986207V0C.07699585 .0029296876 .13398743 .0029296876 .17298889 .0029296876 .21499634 .0029907227 .2669983 .0029907227 .30799867 0V.04699707H.2829895C.2649994 .046920778 .24798584 .047927858 .22999573 .049926759 .20098877 .05291748 .19999695 .05392456 .19999695 .075927738V.5989227L.69799807 .012924194C.70799258 .0009918213 .70899966 0 .72499087 0 .7519989 0 .7519989 .008987427 .7519989 .03199768V.60961917C.7519989 .63160708 .7529907 .63261416 .7809906 .63560488 .8049927 .63853457 .8069916 .63853457 .83499148 .63853457H.8600006Z"/>
<path id="font_2_51" d="M.4249878 .16331482C.4249878 .25427247 .3639984 .2962494 .32398988 .3232422 .30999757 .3332367 .3019867 .33824159 .27198792 .3602295 .33499146 .3922119 .39898683 .4402008 .39898683 .51716616 .39898683 .60813906 .31098939 .6611328 .22999573 .6611328 .13899231 .6611328 .05899048 .59513857 .05899048 .5041809 .05899048 .479187 .06498718 .436203 .10398865 .39822389 .11399841 .3882141 .1559906 .3582306 .18299866 .3392334 .13798523 .31625367 .032989503 .26127626 .032989503 .15130615 .032989503 .048355104 .1309967-.015625 .22799683-.015625 .33499146-.015625 .4249878 .061340333 .4249878 .16331482M.36499024 .51716616C.36499024 .4242096 .26098634 .37123109 .2559967 .37123109 .2559967 .37123109 .2539978 .37123109 .24598694 .37722779L.14099121 .4481964C.1329956 .4532013 .09298706 .48417665 .09298706 .53115847 .09298706 .5921478 .1559906 .63812258 .22799683 .63812258 .30699159 .63812258 .36499024 .5821533 .36499024 .51716616M.3880005 .13832093C.3880005 .06434631 .31399537 .008361816 .22999573 .008361816 .13899231 .008361816 .069992069 .073349 .069992069 .15231323 .069992069 .23127747 .1309967 .29725648 .19999695 .32824708L.32499696 .24327088C.33999635 .23228455 .3880005 .19929505 .3880005 .13832093Z"/>
<path id="font_2_43" d="M.38398744 .11817932C.38398744 .122177127 .3829956 .1251831 .37599183 .1251831 .36898805 .1251831 .36799623 .124176029 .3639984 .11117554 .33799745 .030181885 .2809906 .010177612 .23799134 .010177612 .17399597 .010177612 .09700012 .06918335 .09700012 .21717835 .09700012 .36930848 .17098999 .42437745 .22999573 .42437745 .2689972 .42437745 .32699586 .40534974 .34899903 .35029603 .32998658 .35029603 .3019867 .35029603 .3019867 .31529237 .3019867 .28729249 .32499696 .27929688 .33799745 .27929688 .34498597 .27931214 .37399293 .28230287 .37399293 .31732179 .37399293 .3883667 .30599977 .4423828 .22898865 .4423828 .12298584 .4423828 .032989503 .3443451 .032989503 .21627808 .032989503 .083221439 .1269989-.0078125 .22898865-.0078125 .35299684-.0078125 .38398744 .10722351 .38398744 .1182251V.11817932Z"/>
<path id="font_2_75" d="M.74398806 0V.025985718C.6799927 .025985718 .6759949 .02999878 .6759949 .06904602V.3043213C.6759949 .35438539 .6669922 .43847657 .5479889 .43847657 .47999574 .43847657 .43299867 .3924408 .4149933 .33836366H.4139862C.4019928 .4204712 .34298707 .43847657 .2869873 .43847657 .20799256 .43847657 .16699219 .3774109 .1519928 .33737184H.15098572V.43847657L.032989503 .4273529V.4013672C.09199524 .4013672 .100997928 .39535523 .100997928 .3473053V.06903076C.100997928 .0309906 .09700012 .025985718 .032989503 .025985718V0C.056991579 .0019989014 .100997928 .0019989014 .1269989 .0019989014 .15299988 .0019989014 .19799805 .0019989014 .22200012 0V.025985718C.1579895 .025985718 .1539917 .02999878 .1539917 .06903076V.26123048C.1539917 .35339356 .20999146 .4224701 .27999879 .4224701 .35398866 .4224701 .3619995 .35638429 .3619995 .30833436V.06904602C.3619995 .03100586 .35798646 .025985718 .2939911 .025985718V0C.31799317 .0019989014 .3619995 .0019989014 .3880005 .0019989014 .4139862 .0019989014 .45899964 .0019989014 .48298646 0V.025985718C.4189911 .025985718 .4149933 .02999878 .4149933 .06904602V.26127626C.4149933 .35339356 .47099305 .4224701 .54100039 .4224701 .61499026 .4224701 .6230011 .35638429 .6230011 .30833436V.06904602C.6230011 .03100586 .61898806 .025985718 .5549927 .025985718V0C.57899478 .0019989014 .6230011 .0019989014 .6489868 .0019989014 .6749878 .0019989014 .7200012 .0019989014 .74398806 0Z"/>
<path id="font_2_82" d="M.38398744 0V.025985718H.35398866C.2679901 .025985718 .2659912 .037002565 .2659912 .073013309V.6391907C.2659912 .66012576 .2649994 .6611328 .25099183 .6611328 .21199036 .6142578 .15299988 .5993042 .09700012 .5973053 .09399414 .5973053 .08898926 .5973053 .08799744 .5953064 .08699036 .5933075 .08699036 .5913086 .08699036 .5703125 .117996219 .5703125 .16999817 .5763092 .20999146 .600296V.073013309C.20999146 .037994386 .20799256 .025985718 .12199402 .025985718H.09199524V0L.23799134 .0019989014 .38398744 0Z"/>
<path id="font_2_57" d="M.43798829 .16992188V.1959076H.33599855V.64694216C.33599855 .66793826 .33499146 .6689453 .31698609 .6689453L.019989014 .1959076V.16992188H.27799989V.07196045C.27799989 .035980226 .27598573 .025985718 .20599365 .025985718H.18699646V0C.21899414 .0019989014 .272995 .0019989014 .30699159 .0019989014 .34098817 .0019989014 .394989 .0019989014 .4269867 0V.025985718H.4079895C.33799745 .025985718 .33599855 .035980226 .33599855 .07196045V.16992188H.43798829M.2809906 .1959076H.039993287L.2809906 .5809326V.1959076Z"/>
</defs>
<path transform="matrix(1.00003,0,0,-1.00005,183.47905,183.62238)" stroke-width="1.19553" stroke-linecap="butt" stroke-miterlimit="10" stroke-linejoin="miter" fill="none" stroke="#000000" d="M181.41948 0C181.41948 100.19649 100.19649 181.41948 0 181.41948-100.19649 181.41948-181.41948 100.19649-181.41948 0-181.41948-100.19649-100.19649-181.41948 0-181.41948 100.19649-181.41948 181.41948-100.19649 181.41948 0ZM0 0"/>
<path transform="matrix(1.00003,0,0,-1.00005,183.47905,183.62238)" stroke-width="1.19553" stroke-linecap="butt" stroke-miterlimit="10" stroke-linejoin="miter" fill="none" stroke="#000000" d="M0 0-170.08086-56.69362H170.08086Z"/>
<path transform="matrix(1.00003,0,0,-1.00005,183.47905,183.62238)" stroke-width=".79701" stroke-linecap="butt" stroke-miterlimit="10" stroke-linejoin="miter" fill="none" stroke="#000000" d="M0 0V-56.69362"/>
<path transform="matrix(1.00003,0,0,-1.00005,183.47905,183.62238)" stroke-width=".79701" stroke-linecap="butt" stroke-miterlimit="10" stroke-linejoin="miter" fill="none" stroke="#000000" d="M0-56.69362H-170.08086"/>
<path transform="matrix(1.00003,0,0,-1.00005,183.47905,183.62238)" stroke-width=".79701" stroke-linecap="butt" stroke-miterlimit="10" stroke-linejoin="miter" fill="none" stroke="#000000" d="M0-56.69362H170.08086"/>
<path transform="matrix(1.00003,0,0,-1.00005,183.47905,183.62238)" stroke-width="1.19553" stroke-linecap="butt" stroke-miterlimit="10" stroke-linejoin="miter" fill="none" stroke="#000000" d="M-8.50412-56.69362V-48.18948H0"/>
<use data-text="O" xlink:href="#font_1_80" transform="matrix(9.962899,0,0,-9.963098,179.17493,179.9932)"/>
<use data-text="X" xlink:href="#font_1_115" transform="matrix(9.962899,0,0,-9.963098,1.2155762,243.73638)"/>
<use data-text="Y" xlink:href="#font_1_117" transform="matrix(9.962899,0,0,-9.963098,357.08528,243.73638)"/>
<use data-text="P" xlink:href="#font_1_83" transform="matrix(9.962899,0,0,-9.963098,179.56394,375.40596)"/>
<use data-text="N" xlink:href="#font_1_76" transform="matrix(9.962899,0,0,-9.963098,178.99591,250.67372)"/>
<use data-text="8" xlink:href="#font_2_51" transform="matrix(20.66312,0,0,-20.663533,83.19704,190.28672)"/>
<use data-text="c" xlink:href="#font_2_43" transform="matrix(20.66312,0,0,-20.663533,98.92171,190.28672)"/>
<use data-text="m" xlink:href="#font_2_75" transform="matrix(20.66312,0,0,-20.663533,107.31093,190.28672)"/>
<use data-text="1" xlink:href="#font_2_82" transform="matrix(20.66312,0,0,-20.663533,158.70331,266.16749)"/>
<use data-text="4" xlink:href="#font_2_57" transform="matrix(20.66312,0,0,-20.663533,168.18772,266.16749)"/>
<use data-text="c" xlink:href="#font_2_43" transform="matrix(20.66312,0,0,-20.663533,183.91236,266.16749)"/>
<use data-text="m" xlink:href="#font_2_75" transform="matrix(20.66312,0,0,-20.663533,192.30158,266.16749)"/>
</svg>
