<svg xmlns="http://www.w3.org/2000/svg" xmlns:xlink="http://www.w3.org/1999/xlink" xmlns:inkscape="http://www.inkscape.org/namespaces/inkscape" version="1.1" width="461" height="344" viewBox="0 0 461 344">
<path transform="matrix(1.00008,0,0,-1.00008,258.43409,172.08948)" stroke-width=".19925" stroke-linecap="butt" stroke-miterlimit="10" stroke-linejoin="miter" fill="none" stroke="#7f807f" d="M-255.12128-170.08086H255.12128M-255.12128-141.73404H255.12128M-255.12128-113.38724H255.12128M-255.12128-85.04042H255.12128M-255.12128-56.69362H255.12128M-255.12128-28.3468H255.12128M-255.12128 0H255.12128M-255.12128 28.3468H255.12128M-255.12128 56.69362H255.12128M-255.12128 85.04042H255.12128M-255.12128 113.38724H255.12128M-255.12128 141.73404H255.12128M-255.12128 170.07089H255.12128M-255.12128-170.08086V170.08086M-226.77448-170.08086V170.08086M-198.42766-170.08086V170.08086M-170.08086-170.08086V170.08086M-141.73404-170.08086V170.08086M-113.38724-170.08086V170.08086M-85.04042-170.08086V170.08086M-56.69362-170.08086V170.08086M-28.3468-170.08086V170.08086M0-170.08086V170.08086M28.3468-170.08086V170.08086M56.69362-170.08086V170.08086M85.04042-170.08086V170.08086M113.38724-170.08086V170.08086M141.73404-170.08086V170.08086M170.08086-170.08086V170.08086M198.42766-170.08086V170.08086M226.77448-170.08086V170.08086M255.11133-170.08086V170.08086M255.12128 170.08086"/>
<path transform="matrix(1.00008,0,0,-1.00008,258.43409,172.08948)" d="M-255.12128 170.08086-198.42766 113.38724-255.12128 56.69362-85.04042 113.38724Z" fill="#ff0000" fill-opacity=".3"/>
<path transform="matrix(1.00008,0,0,-1.00008,258.43409,172.08948)" stroke-width=".79701" stroke-linecap="butt" stroke-miterlimit="10" stroke-linejoin="miter" fill="none" stroke="#ff0000" d="M-255.12128 170.08086-198.42766 113.38724-255.12128 56.69362-85.04042 113.38724Z"/>
<path transform="matrix(1.00008,0,0,-1.00008,258.43409,172.08948)" d="M-56.69362 56.69362V141.73404H-28.3468V113.38724H0Z" fill="#ff8000" fill-opacity=".3"/>
<path transform="matrix(1.00008,0,0,-1.00008,258.43409,172.08948)" stroke-width=".79701" stroke-linecap="butt" stroke-miterlimit="10" stroke-linejoin="miter" fill="none" stroke="#ff8000" d="M-56.69362 56.69362V141.73404H-28.3468V113.38724H0Z"/>
<path transform="matrix(1.00008,0,0,-1.00008,258.43409,172.08948)" d="M-198.42766 28.3468H-170.08086V56.69362H-141.73404V-28.3468Z" fill="#fff200" fill-opacity=".3"/>
<path transform="matrix(1.00008,0,0,-1.00008,258.43409,172.08948)" stroke-width=".79701" stroke-linecap="butt" stroke-miterlimit="10" stroke-linejoin="miter" fill="none" stroke="#fff200" d="M-198.42766 28.3468H-170.08086V56.69362H-141.73404V-28.3468Z"/>
<path transform="matrix(1.00008,0,0,-1.00008,258.43409,172.08948)" d="M56.69362 85.04042H141.73404L113.38724 141.73404H28.3468Z" fill="#00ff00" fill-opacity=".3"/>
<path transform="matrix(1.00008,0,0,-1.00008,258.43409,172.08948)" stroke-width=".79701" stroke-linecap="butt" stroke-miterlimit="10" stroke-linejoin="miter" fill="none" stroke="#00ff00" d="M56.69362 85.04042H141.73404L113.38724 141.73404H28.3468Z"/>
<path transform="matrix(1.00008,0,0,-1.00008,258.43409,172.08948)" d="M-113.38724 28.3468H-56.69362L-28.3468-28.3468H-85.04042Z" fill="#0000ff" fill-opacity=".3"/>
<path transform="matrix(1.00008,0,0,-1.00008,258.43409,172.08948)" stroke-width=".79701" stroke-linecap="butt" stroke-miterlimit="10" stroke-linejoin="miter" fill="none" stroke="#0000ff" d="M-113.38724 28.3468H-56.69362L-28.3468-28.3468H-85.04042Z"/>
<path transform="matrix(1.00008,0,0,-1.00008,258.43409,172.08948)" d="M-113.38724-56.69362H-28.3468L0-113.38724H-85.04042Z" fill="#bf0040" fill-opacity=".3"/>
<path transform="matrix(1.00008,0,0,-1.00008,258.43409,172.08948)" stroke-width=".79701" stroke-linecap="butt" stroke-miterlimit="10" stroke-linejoin="miter" fill="none" stroke="#bf0040" d="M-113.38724-56.69362H-28.3468L0-113.38724H-85.04042Z"/>
<path transform="matrix(1.00008,0,0,-1.00008,258.43409,172.08948)" d="M-255.12128-28.3468H-198.42766L-170.08086-56.69362H-226.77448Z" fill="#0000ff" fill-opacity=".3"/>
<path transform="matrix(1.00008,0,0,-1.00008,258.43409,172.08948)" stroke-width=".79701" stroke-linecap="butt" stroke-miterlimit="10" stroke-linejoin="miter" fill="none" stroke="#0000ff" d="M-255.12128-28.3468H-198.42766L-170.08086-56.69362H-226.77448Z"/>
<path transform="matrix(1.00008,0,0,-1.00008,258.43409,172.08948)" d="M-28.3468 56.69362 28.3468 85.04042 85.04042 56.69362 28.3468 28.3468Z" fill="#ff8000" fill-opacity=".3"/>
<path transform="matrix(1.00008,0,0,-1.00008,258.43409,172.08948)" stroke-width=".79701" stroke-linecap="butt" stroke-miterlimit="10" stroke-linejoin="miter" fill="none" stroke="#ff8000" d="M-28.3468 56.69362 28.3468 85.04042 85.04042 56.69362 28.3468 28.3468Z"/>
<path transform="matrix(1.00008,0,0,-1.00008,258.43409,172.08948)" d="M85.04042 0H141.73404L170.08086 56.69362H113.38724Z" fill="#0000ff" fill-opacity=".3"/>
<path transform="matrix(1.00008,0,0,-1.00008,258.43409,172.08948)" stroke-width=".79701" stroke-linecap="butt" stroke-miterlimit="10" stroke-linejoin="miter" fill="none" stroke="#0000ff" d="M85.04042 0H141.73404L170.08086 56.69362H113.38724Z"/>
<path transform="matrix(1.00008,0,0,-1.00008,258.43409,172.08948)" d="M0-28.3468 28.3468-56.69362 56.69362-28.3468 28.3468-113.38724Z" fill="#00ff00" fill-opacity=".3"/>
<path transform="matrix(1.00008,0,0,-1.00008,258.43409,172.08948)" stroke-width=".79701" stroke-linecap="butt" stroke-miterlimit="10" stroke-linejoin="miter" fill="none" stroke="#00ff00" d="M0-28.3468 28.3468-56.69362 56.69362-28.3468 28.3468-113.38724Z"/>
<path transform="matrix(1.00008,0,0,-1.00008,258.43409,172.08948)" d="M113.38724-28.3468 85.04042-85.04042 113.38724-141.73404 141.73404-85.04042Z" fill="#bf0040" fill-opacity=".3"/>
<path transform="matrix(1.00008,0,0,-1.00008,258.43409,172.08948)" stroke-width=".79701" stroke-linecap="butt" stroke-miterlimit="10" stroke-linejoin="miter" fill="none" stroke="#bf0040" d="M113.38724-28.3468 85.04042-85.04042 113.38724-141.73404 141.73404-85.04042Z"/>
</svg>
