<svg xmlns="http://www.w3.org/2000/svg" xmlns:xlink="http://www.w3.org/1999/xlink" xmlns:inkscape="http://www.inkscape.org/namespaces/inkscape" version="1.1" width="111" height="107" viewBox="0 0 111 107">
<defs>
<path id="font_1_83" d="M.72099307 .49064637C.72099307 .6005707 .621994 .6855469 .45599366 .6855469H.038986207V.63853457H.14698792V.04699707H.038986207V0C.07699585 .0029907227 .1749878 .0029907227 .21798706 .0029907227 .26098634 .0029907227 .35899354 .0029907227 .39698792 0V.04699707H.2889862V.30177308H.46598817C.6049957 .30177308 .72099307 .37374879 .72099307 .49064637M.56799319 .49064637C.56799319 .41970826 .56799319 .34277345 .4169922 .34277345H.2829895V.63853457H.41799928C.56799319 .63853457 .56799319 .56259158 .56799319 .49064637Z"/>
<path id="font_1_90" d="M.8049927-.008026123C.8049927-.000030517579 .8049927 .017974854 .7869873 .017974854 .7719879 .017974854 .769989 .0049743654 .7689972-.002029419 .7630005-.040023805 .70098879-.041015626 .6839905-.041015626 .6609955-.041015626 .6309967-.041015626 .59199526 .017974854 .7559967 .08224487 .798996 .23025513 .798996 .33924867 .798996 .5552521 .6539917 .6972656 .43199159 .6972656 .20298767 .6972656 .06399536 .5492554 .06399536 .33924867 .06399536 .1352539 .19999695-.0107421879 .43199159-.0107421879 .45399476-.0107421879 .4869995-.009750366 .5269928-.0017547608 .5549927-.11502075 .57499697-.19403076 .66799929-.19403076 .769989-.19371033 .8049927-.07571411 .8049927-.0077056887V-.008026123M.6519928 .340271C.6519928 .28427125 .6519928 .13526917 .55599978 .06929016 .5339966 .10227966 .49798585 .15527344 .43099977 .15527344 .37998963 .15527344 .33399964 .1212616 .33399964 .073287967 .33399964 .06729126 .33499146 .056289674 .33699037 .05128479 .21398926 .11027527 .21099854 .26226808 .21099854 .340271 .21099854 .38026429 .21099854 .4752655 .24798584 .54626467 .2999878 .6422577 .38598634 .6572571 .43099977 .6572571 .4850006 .6572571 .5629883 .6372528 .61099246 .55226138 .6489868 .48526 .6519928 .39926148 .6519928 .340271M.5139923 .045288087C.4889984 .0342865 .45899964 .029296875 .43199159 .029296875 .3769989 .029296875 .36999513 .061294557 .36999513 .073287967 .36999513 .10028076 .39898683 .119262699 .43199159 .119262699 .45999146 .119262699 .49398805 .10827637 .5139923 .045288087Z"/>
<path id="font_1_95" d="M.8580017 .09487915C.8580017 .11682129 .84399417 .11682129 .83399966 .11682129 .8129883 .11682129 .81199648 .1068573 .8109894 .09388733 .80599978 .04699707 .7769928 .024993897 .746994 .024993897 .68699648 .024993897 .6779938 .09587097 .6729889 .13778687 .67099 .14875794 .6629944 .21759033 .6619873 .22257996 .647995 .29241944 .59298709 .323349 .5499878 .3393402 .66600039 .36935426 .71699526 .43440248 .71699526 .5004425 .71699526 .6015167 .6069946 .6855469 .4189911 .6855469H.038986207V.63853457H.14698792V.04699707H.038986207V0C.07499695 .0029907227 .17298889 .0029907227 .21499634 .0029907227 .25698854 .0029907227 .35499574 .0029907227 .3909912 0V.04699707H.2829895V.32434083H.3999939C.4139862 .32434083 .45799256 .32434083 .4889984 .29042054 .5209961 .25550843 .5209961 .23654175 .5209961 .16371155 .5209961 .09786987 .5209961 .048980714 .59098818 .01499939 .6349945-.007003784 .69699099-.011001587 .73799136-.011001587 .8450012-.011001587 .8580017 .07891846 .8580017 .09487915M.56399539 .49943543C.56399539 .44340516 .56399539 .36035157 .39898683 .36035157H.2829895V.63853457H.40098573C.56199648 .63853457 .56399539 .56048586 .56399539 .49943543Z"/>
<path id="font_1_118" d="M.5799866 .3973236V.44433595C.55599978 .44232179 .526001 .44132997 .5009918 .44132997L.4099884 .44433595V.3973236C.4099884 .3973236 .45700074 .3973236 .45700074 .3853302L.45199586 .37332154 .33699037 .12713623 .20999146 .3973236H.2639923V.44433595L.13999939 .44132997 .025985718 .44433595V.3973236H.08999634L.2769928 .000045776369 .2539978-.04798889C.23199463-.09602356 .19999695-.1640625 .1289978-.1640625 .114990238-.1640625 .11299133-.16307068 .10499573-.1600647 .11399841-.1560669 .13699341-.14205933 .13699341-.10702515 .13699341-.07400513 .11299133-.049987794 .07899475-.049987794 .050994874-.049987794 .021987915-.069000247 .021987915-.10803223 .021987915-.15907288 .068984989-.20007324 .1289978-.20007324 .20599365-.20007324 .2639923-.13804627 .29100038-.08100891L.5059967 .37631227C.5130005 .39031983 .5159912 .3973236 .5799866 .3973236Z"/>
<path id="font_1_82" d="M.49398805 0V.04699707H.35398866V.6231079C.35398866 .6452179 .35398866 .65527346 .32798768 .65527346 .31698609 .65527346 .31498719 .65527346 .30599977 .6482239 .22898865 .5909424 .12599182 .5909424 .10499573 .5909424H.084991458V.5439453H.10499573C.12098694 .5439453 .17599488 .54493716 .23498535 .5639343V.04699707H.09599304V0C.13999939 .0029907227 .24598694 .0029907227 .29499818 .0029907227 .34399415 .0029907227 .44999696 .0029907227 .49398805 0Z"/>
<path id="font_1_107" d="M.5169983 .22200012H.46998597C.46699525 .20199585 .45799256 .13798523 .44400025 .1309967 .43299867 .125 .35798646 .125 .34199525 .125H.19499207C.24198914 .1639862 .2939911 .20698548 .33898927 .23999024 .45298768 .3242035 .5169983 .37124635 .5169983 .4663086 .5169983 .5812988 .41299439 .65527346 .27198792 .65527346 .15098572 .65527346 .056991579 .593277 .056991579 .50331118 .056991579 .44430543 .10499573 .42930604 .1289978 .42930604 .16099549 .42930604 .20098877 .4513092 .20098877 .50131228 .20098877 .55329897 .15899658 .5693054 .14399719 .5733032 .17298889 .5972748 .21099854 .6082611 .24699402 .6082611 .33299256 .6082611 .3789978 .54029849 .3789978 .4653015 .3789978 .39627076 .34098817 .3282013 .2709961 .25712586L.069992069 .051986696C.056991579 .039993287 .056991579 .037994386 .056991579 .017990113V0H.48599244L.5169983 .22200012Z"/>
<path id="font_1_43" d="M.47799684 .117126468C.47799684 .13113404 .46398927 .13113404 .45399476 .13113404 .43598939 .13113404 .43499757 .12913513 .42999269 .11613464 .4039917 .053131105 .35598756 .03413391 .30499269 .03413391 .1659851 .03413391 .1659851 .18112183 .1659851 .22712708 .1659851 .28312684 .1659851 .41311646 .29499818 .41311646 .32998658 .41311646 .34700013 .41011048 .3600006 .40711976 .34199525 .39111329 .33999635 .3701172 .33999635 .3611145 .33999635 .3171234 .375 .29811097 .4019928 .29811097 .43299867 .29811097 .46499635 .3191223 .46499635 .3611145 .46499635 .44711305 .34899903 .453125 .29100038 .453125 .11199951 .45314027 .037994386 .33813478 .037994386 .22213745 .037994386 .08912659 .13198853-.005859375 .28599549-.005859375 .44799806-.005859375 .47799684 .11013794 .47799684 .117126468Z"/>
<path id="font_1_75" d="M.93499758 0V.04699707H.8659973V.30613709C.8659973 .40919496 .8149872 .4501953 .71199038 .4501953 .62098696 .4501953 .56900027 .40019227 .54299929 .3541565 .522995 .44718934 .43099977 .4501953 .3929901 .4501953 .30599977 .4501953 .24899292 .40518189 .21699524 .3421631V.4501953L.04499817 .4423828V.39537049C.10699463 .39537049 .11399841 .39537049 .11399841 .3563385V.04699707H.04499817V0L.17098999 .0029907227 .29699708 0V.04699707H.22799683V.2562256C.22799683 .3653412 .31498719 .41436769 .3769989 .41436769 .41099549 .41436769 .43299867 .39437867 .43299867 .31729127V.04699707H.3639984V0L.48999024 .0029907227 .6159973 0V.04699707H.5469971V.2562256C.5469971 .3653412 .6339874 .41436769 .69599917 .41436769 .7299957 .41436769 .7519989 .39437867 .7519989 .31729127V.04699707H.68299868V0L.8089905 .0029907227 .93499758 0Z"/>
<path id="font_1_57" d="M.5419922 0V.04699707H.44499208V.15611267H.5419922V.203125H.44499208V.62423709C.44499208 .6512451 .44299317 .65625 .4149933 .65625 .3939972 .65625 .3929901 .6552429 .3809967 .6402283L.03199768 .203125V.15611267H.31999208V.04699707H.20799256V0C.24598694 .0029907227 .33699037 .0029907227 .37998963 .0029907227 .41999818 .0029907227 .5069885 .0029907227 .5419922 0M.33099366 .203125H.083999637L.33099366 .51319888V.203125Z"/>
</defs>
<path transform="matrix(1,0,0,-1,-72.654,96.424)" d="M85.04042 0H170.08086L127.56062 85.04042Z" fill="#ffb3b3"/>
<path transform="matrix(1,0,0,-1,-72.654,96.424)" stroke-width=".79701" stroke-linecap="butt" stroke-miterlimit="10" stroke-linejoin="miter" fill="none" stroke="#ff0000" d="M85.04042 0H170.08086L127.56062 85.04042Z"/>
<use data-text="P" xlink:href="#font_1_83" transform="matrix(9.9626,0,0,-9.9626,1.0360022,99.841)"/>
<use data-text="Q" xlink:href="#font_1_90" transform="matrix(9.9626,0,0,-9.9626,100.947,98.93001)"/>
<use data-text="R" xlink:href="#font_1_95" transform="matrix(9.9626,0,0,-9.9626,50.608,7.7540056)"/>
<use data-text="y" xlink:href="#font_1_118" transform="matrix(9.9626,0,0,-9.9626,51.883005,104.367008)"/>
<use data-text="1" xlink:href="#font_1_82" transform="matrix(9.9626,0,0,-9.9626,.21800137,57.137006)"/>
<use data-text="2" xlink:href="#font_1_107" transform="matrix(9.9626,0,0,-9.9626,5.946497,57.137006)"/>
<use data-text="c" xlink:href="#font_1_43" transform="matrix(9.9626,0,0,-9.9626,15.480705,57.137006)"/>
<use data-text="m" xlink:href="#font_1_75" transform="matrix(9.9626,0,0,-9.9626,20.571595,57.137006)"/>
<use data-text="1" xlink:href="#font_1_82" transform="matrix(9.9626,0,0,-9.9626,79.687007,57.142004)"/>
<use data-text="4" xlink:href="#font_1_57" transform="matrix(9.9626,0,0,-9.9626,85.4155,57.142004)"/>
<use data-text="c" xlink:href="#font_1_43" transform="matrix(9.9626,0,0,-9.9626,94.94971,57.142004)"/>
<use data-text="m" xlink:href="#font_1_75" transform="matrix(9.9626,0,0,-9.9626,100.040599,57.142004)"/>
</svg>
