<svg xmlns="http://www.w3.org/2000/svg" xmlns:xlink="http://www.w3.org/1999/xlink" xmlns:inkscape="http://www.inkscape.org/namespaces/inkscape" version="1.1" width="119" height="136" viewBox="0 0 119 136">
<defs>
<path id="font_1_4" d="M.4039917 .40527345C.37098695 .39926148 .35398866 .3712616 .35398866 .3502655 .35398866 .3312683 .36799623 .31427003 .3929901 .31427003 .41999818 .31427003 .44799806 .337265 .44799806 .37426759 .44799806 .41334535 .4119873 .4423828 .36299134 .4423828 .28799439 .4423828 .24598694 .386261 .23199463 .3672638 .21998596 .42237855 .1749878 .4423828 .13699341 .4423828 .100997928 .4423828 .07798767 .42037965 .06098938 .38526917 .041992189 .34925843 .0289917 .29226686 .0289917 .28826905 .0289917 .27926637 .035995485 .27626039 .042999269 .27626039 .053985597 .27626039 .055999757 .28126527 .06098938 .30126954 .07998657 .38026429 .100997928 .41737367 .1349945 .41737367 .16499329 .41737367 .16499329 .38526917 .16499329 .37026979 .16499329 .34925843 .15699768 .31826783 .15098572 .29226686 .14399719 .26626588 .13398743 .2232666 .12998963 .21125794L.08999634 .04725647C.08299255 .023254395 .08299255 .021255494 .08299255 .018249512 .08299255 .0052490236 .09199524-.0107421879 .11399841-.0107421879 .1459961-.0107421879 .15299988 .01625061 .1599884 .04525757 .17199707 .088256839 .17199707 .09025574 .18199158 .1312561 .21899414 .28126527 .22499085 .30526734 .22698975 .31025697 .23298645 .32226563 .2789917 .41737367 .3619995 .41737367 .3849945 .41737367 .39898683 .40930177 .4039917 .40527345Z"/>
<path id="font_2_3" d="M.70799258 .3310089C.7220001 .3310089 .7409973 .3310089 .7409973 .35202027 .7409973 .37402345 .71899417 .37402345 .70399478 .37402345H.09399414C.07899475 .37402345 .056991579 .37402345 .056991579 .35202027 .056991579 .3310089 .07699585 .3310089 .08999634 .3310089H.70799258M.70399478 .12695313C.71899417 .12695313 .7409973 .12695313 .7409973 .14894104 .7409973 .1699524 .7220001 .1699524 .70799258 .1699524H.08999634C.07699585 .1699524 .056991579 .1699524 .056991579 .14894104 .056991579 .12695313 .07899475 .12695313 .09399414 .12695313H.70399478Z"/>
<path id="font_2_1" d="M.30499269 .35195924C.397995 .38697816 .44198609 .46006776 .44198609 .5290985 .44198609 .60606387 .35699464 .6660156 .25299073 .6660156 .14898682 .6660156 .070999149 .60705569 .070999149 .5310974 .070999149 .49809266 .09298706 .47909547 .12199402 .47909547 .15098572 .47909547 .17199707 .50009158 .17199707 .5290985 .17199707 .5640869 .147995 .57910159 .11399841 .57910159 .13999939 .6210327 .20098877 .64100649 .25 .64100649 .33299256 .64100649 .34899903 .5750885 .34899903 .52809146 .34899903 .49809266 .34298707 .45005799 .31799317 .41201783 .2869873 .36695863 .2519989 .36495973 .22299195 .36296083 .19799805 .36094667 .19599915 .36094667 .18798828 .36094667 .1789856 .35995484 .17098999 .35894776 .17098999 .34794618 .17098999 .33496095 .1789856 .33496095 .19599915 .33496095H.24299622C.32998658 .33496095 .36799623 .2646637 .36799623 .16937256 .36799623 .04145813 .2999878 .0055389406 .24899292 .0055389406 .22999573 .0055389406 .1329956 .010528564 .08799744 .0843811 .12399292 .07939148 .1519928 .10437012 .1519928 .13838196 .1519928 .17137146 .1269989 .19238281 .09799194 .19238281 .07299805 .19238281 .042999269 .17736817 .042999269 .13537598 .042999269 .046447755 .13598633-.022460938 .2519989-.022460938 .3769989-.022460938 .46998597 .06741333 .46998597 .16937256 .46998597 .25663758 .40098573 .33093263 .30499269 .35195924Z"/>
<path id="font_1_1" d="M.19599915 .053985597C.19599915 .08299255 .17298889 .10798645 .14199829 .10798645 .11099243 .10798645 .08799744 .08299255 .08799744 .053985597 .08799744 .024993897 .11099243 0 .14199829 0 .17298889 0 .19599915 .024993897 .19599915 .053985597Z"/>
<path id="font_2_2" d="M.10398865 .3444519C.10398865 .32641603 .10398865 .31539918 .117996219 .31539918 .12599182 .31539918 .1289978 .31941224 .1349945 .32843019 .16499329 .3704834 .21299744 .39453126 .2649994 .39453126 .37199403 .39453126 .37199403 .24029541 .37199403 .20425415 .37199403 .17324829 .37199403 .11125183 .34399415 .06637573 .31698609 .024475098 .2749939 .0055389406 .23599243 .0055389406 .1769867 .0055389406 .10998535 .042434694 .085998538 .116256717 .08699036 .116256717 .09298706 .11425781 .099990848 .11425781 .11999512 .11425781 .14898682 .12724304 .14898682 .16325379 .14898682 .19424439 .1269989 .21224976 .099990848 .21224976 .07899475 .21224976 .050994874 .20025635 .050994874 .1602478 .050994874 .069366458 .1269989-.022460938 .23799134-.022460938 .35899354-.022460938 .46199037 .0753479 .46199037 .19924927 .46199037 .3204193 .37599183 .41952516 .2669983 .41952516 .21899414 .41952516 .16999817 .40351869 .1349945 .36747743V.56477358C.16499329 .5557709 .19599915 .55078127 .22698975 .55078127 .34999085 .55078127 .42199708 .6397705 .42199708 .652771 .42199708 .6617737 .41600038 .6657715 .41099549 .6657715 .40899659 .6657715 .40699769 .6657715 .397995 .6607666 .35099793 .6417694 .30499269 .6337738 .2630005 .6337738 .21998596 .6337738 .1749878 .6417694 .1289978 .6607666 .11898804 .6657715 .116989139 .6657715 .115997318 .6657715 .10398865 .6657715 .10398865 .655777 .10398865 .6387787V.3444519Z"/>
<path id="font_1_2" d="M.4019928 .38200379C.3639984 .38101197 .34399415 .352005 .34399415 .3270111 .34399415 .29800416 .36999513 .29101563 .38198854 .29101563 .4019928 .29101563 .43798829 .30801393 .43798829 .355011 .43798829 .40827943 .3849945 .4423828 .31599427 .4423828 .17999268 .4423828 .042999269 .30400086 .042999269 .16012573 .042999269 .06021118 .10998535-.0107421879 .21099854-.0107421879 .36099244-.0107421879 .44499208 .093185428 .44499208 .106170658 .44499208 .11216736 .43798829 .120162967 .43099977 .120162967 .42599488 .120162967 .4249878 .119155887 .41600038 .108169559 .35598756 .034225465 .2649994 .014251709 .21299744 .014251709 .15699768 .014251709 .11999512 .051223756 .11999512 .12315369 .11999512 .16612244 .13899231 .2650299 .1789856 .32901 .20199585 .3650055 .2539978 .41737367 .31698609 .41737367 .33599855 .41737367 .37799073 .41333009 .4019928 .38200379Z"/>
<path id="font_1_3" d="M.18899536 .15730286C.19999695 .20431519 .21899414 .2773285 .21998596 .28533937 .22200012 .29133607 .24699402 .33935548 .2829895 .37435914 .31199647 .4013672 .34999085 .41737367 .3889923 .41737367 .44299317 .41737367 .44299317 .36436463 .44299317 .34735108 .44299317 .33535768 .44299317 .3213501 .43099977 .27233888L.4079895 .18330384C.37599183 .054260255 .36799623 .023254395 .36799623 .018249512 .36799623 .0052490236 .3769989-.0107421879 .39898683-.0107421879 .41299439-.0107421879 .42799378-.0017547608 .43499757 .010253906 .43798829 .01625061 .44599916 .04826355 .45098878 .06826782L.47399903 .15730286C.4850006 .20431519 .5039978 .2773285 .5049896 .28533937 .5069885 .29133607 .5319977 .33935548 .56799319 .37435914 .5970001 .4013672 .6349945 .41737367 .673996 .41737367 .7279968 .41737367 .7279968 .36436463 .7279968 .34735108 .7279968 .28633119 .68099978 .16429138 .66999819 .13328552 .6579895 .10227966 .6539917 .0922699 .6539917 .073272708 .6539917 .019256592 .69499209-.0107421879 .73999026-.0107421879 .83599856-.0107421879 .875 .1322937 .875 .14329529 .875 .14828491 .871994 .1552887 .8619995 .1552887 .8509979 .1552887 .84999087 .15029907 .84599307 .13728333 .82099917 .052261354 .7789917 .014251709 .7429962 .014251709 .73599246 .014251709 .71798709 .014251709 .71798709 .04626465 .71798709 .0712738 .7279968 .09727478 .73599246 .119277957 .7559967 .17030335 .79599 .27633668 .79599 .33235169 .79599 .42137147 .7299957 .4423828 .6769867 .4423828 .58200076 .4423828 .5299988 .3713684 .5119934 .34635926 .5019989 .42938233 .43399049 .4423828 .3919983 .4423828 .29899598 .4423828 .25 .37635804 .23399353 .35536195 .22799683 .40937806 .18699646 .4423828 .13699341 .4423828 .09498596 .4423828 .07398987 .41137696 .05999756 .3843689 .042999269 .34934999 .0289917 .29234315 .0289917 .28833009 .0289917 .2793274 .035995485 .27633668 .042999269 .27633668 .053985597 .27633668 .055999757 .28134156 .06098938 .30134584 .07998657 .3803711 .100997928 .41737367 .1349945 .41737367 .16499329 .41737367 .16499329 .38536073 .16499329 .37036134 .16499329 .34934999 .15699768 .31834413 .15098572 .29234315 .14399719 .2663269 .13398743 .22331238 .12998963 .21131897L.08999634 .04725647C.08299255 .023254395 .08299255 .021255494 .08299255 .018249512 .08299255 .0052490236 .09199524-.0107421879 .11399841-.0107421879 .12799073-.0107421879 .14299011-.0017547608 .1499939 .010253906 .15299988 .01625061 .16099549 .04826355 .1659851 .06826782L.18899536 .15730286Z"/>
<path id="font_3_43" d="M.4149933 .119140628C.4149933 .12911988 .40499879 .12911988 .4019928 .12911988 .3929901 .12911988 .3909912 .12512207 .3889923 .119140628 .3600006 .026229859 .29499818 .014251709 .2579956 .014251709 .20498657 .014251709 .116989139 .0572052 .116989139 .21801758 .116989139 .38093568 .19898987 .42323304 .2519989 .42323304 .26098634 .42323304 .32398988 .42222596 .35899354 .38594056 .31799317 .38293458 .31199647 .3529358 .31199647 .3399353 .31199647 .31393434 .32998658 .2939453 .35798646 .2939453 .38398744 .2939453 .4039917 .3109436 .4039917 .34094239 .4039917 .40911866 .32798768 .4482422 .25099183 .4482422 .12599182 .4482422 .033996583 .3399353 .033996583 .21601868 .033996583 .08816528 .1329956-.0107421879 .24899292-.0107421879 .3829956-.0107421879 .4149933 .10914612 .4149933 .119140628Z"/>
<path id="font_3_86" d="M.2889862 .25C.2889862 .32798768 .27799989 .44898988 .22299195 .56199648 .16299439 .68499758 .07699585 .75 .066986087 .75 .06098938 .75 .056991579 .74598696 .056991579 .73999026 .056991579 .7369995 .056991579 .7350006 .07598877 .71699526 .17399597 .6179962 .23098755 .45899964 .23098755 .25 .23098755 .07899475 .19400025-.09700012 .069992069-.2230072 .056991579-.23500061 .056991579-.23701477 .056991579-.2400055 .056991579-.2460022 .06098938-.25 .066986087-.25 .07699585-.25 .16699219-.18200684 .22599793-.055007936 .2769928 .054992677 .2889862 .16600037 .2889862 .25Z"/>
</defs>
<path transform="matrix(1.00003,0,0,-1.00003,58.99022,77.76995)" stroke-width=".79701" stroke-linecap="butt" stroke-miterlimit="10" stroke-linejoin="miter" fill="none" stroke="#ffd2d2" d="M56.69362 0C56.69362 31.31142 31.31142 56.69362 0 56.69362-31.31142 56.69362-56.69362 31.31142-56.69362 0-56.69362-31.31142-31.31142-56.69362 0-56.69362 31.31142-56.69362 56.69362-31.31142 56.69362 0ZM0 0"/>
<path transform="matrix(1.00003,0,0,-1.00003,58.99022,77.76995)" stroke-width=".3985" stroke-linecap="butt" stroke-dasharray="2.98883,2.98883" stroke-miterlimit="10" stroke-linejoin="miter" fill="none" stroke="#df809f" d="M-56.69362 0C-56.69362-7.82784-31.31142-14.17339 0-14.17339 31.31142-14.17339 56.69362-7.82784 56.69362 0"/>
<path transform="matrix(1.00003,0,0,-1.00003,58.99022,77.76995)" stroke-width=".3985" stroke-linecap="butt" stroke-dasharray="2.98883,2.98883" stroke-miterlimit="10" stroke-linejoin="miter" fill="none" stroke="#df809f" d="M56.69362 0C56.69362 7.82784 31.31142 14.17339 0 14.17339-31.31142 14.17339-56.69362 7.82784-56.69362 0"/>
<path transform="matrix(1.00003,0,0,-1.00003,58.99022,77.76995)" d="M1.4174 0C1.4174 .78282 .78282 1.4174 0 1.4174-.78282 1.4174-1.4174 .78282-1.4174 0-1.4174-.78282-.78282-1.4174 0-1.4174 .78282-1.4174 1.4174-.78282 1.4174 0ZM0 0"/>
<use data-text="r" xlink:href="#font_1_4" transform="matrix(8.966669,0,0,-8.966669,76.683757,74.24985)"/>
<use data-text="=" xlink:href="#font_2_3" transform="matrix(8.966669,0,0,-8.966669,83.65795,74.24985)"/>
<use data-text="3" xlink:href="#font_2_1" transform="matrix(8.966669,0,0,-8.966669,93.377819,74.24985)"/>
<use data-text="." xlink:href="#font_1_1" transform="matrix(8.966669,0,0,-8.966669,97.9934,74.24985)"/>
<use data-text="5" xlink:href="#font_2_2" transform="matrix(8.966669,0,0,-8.966669,100.553478,74.24985)"/>
<use data-text="c" xlink:href="#font_1_2" transform="matrix(8.966669,0,0,-8.966669,105.16061,74.24985)"/>
<use data-text="m" xlink:href="#font_1_3" transform="matrix(8.966669,0,0,-8.966669,109.14181,74.24985)"/>
<use data-text="c" xlink:href="#font_3_43" transform="matrix(9.962899,0,0,-9.962899,69.01452,9.391899)"/>
<use data-text=")" xlink:href="#font_3_86" transform="matrix(9.962899,0,0,-9.962899,73.43804,9.391899)"/>
<path transform="matrix(1.00003,0,0,-1.00003,58.99022,77.76995)" stroke-width=".3985" stroke-linecap="butt" stroke-dasharray="2.98883,2.98883" stroke-miterlimit="10" stroke-linejoin="miter" fill="none" stroke="#000000" d="M0 0H56.69362"/>
</svg>
