<svg xmlns="http://www.w3.org/2000/svg" xmlns:xlink="http://www.w3.org/1999/xlink" xmlns:inkscape="http://www.inkscape.org/namespaces/inkscape" version="1.1" width="80" height="70" viewBox="0 0 80 70">
<defs>
<path id="font_1_1" d="M.17199707 .45387269C.14199829 .47288514 .11898804 .4998932 .11898804 .53692629 .11898804 .6019745 .18899536 .64100649 .25498963 .64100649 .33198548 .64100649 .3939972 .58695986 .3939972 .51690676 .3939972 .44685365 .33399964 .40083314 .2939911 .37780763L.17199707 .45387269M.31900025 .36180116C.36898805 .38581849 .44198609 .43585206 .44198609 .51690676 .44198609 .6109772 .34799195 .6660156 .2579956 .6660156 .15299988 .6660156 .070999149 .5909729 .070999149 .49890138 .070999149 .46087647 .084991458 .42485047 .10899353 .39582826 .12599182 .3768158 .13198853 .37280274 .18998719 .3357849 .101989749 .29374696 .042999269 .23269654 .042999269 .15063477 .042999269 .044555665 .147995-.022460938 .2559967-.022460938 .37199403-.022460938 .46998597 .059570314 .46998597 .16764832 .46998597 .26472474 .3959961 .3127594 .37098695 .32876588 .3600006 .33677674 .33099366 .35479737 .31900025 .36180116M.21699524 .31877137 .34298707 .2407074C.3659973 .22569275 .41600038 .19366455 .41600038 .1326294 .41600038 .05357361 .33599855 .0055389406 .25698854 .0055389406 .16999817 .0055389406 .09700012 .06758118 .09700012 .15063477 .09700012 .22268677 .14698792 .28274537 .21699524 .31877137Z"/>
<path id="font_2_1" d="M.4019928 .38200379C.3639984 .38101197 .34399415 .352005 .34399415 .3270111 .34399415 .29800416 .36999513 .29101563 .38198854 .29101563 .4019928 .29101563 .43798829 .30801393 .43798829 .355011 .43798829 .40827943 .3849945 .4423828 .31599427 .4423828 .17999268 .4423828 .042999269 .30400086 .042999269 .16012573 .042999269 .06021118 .10998535-.0107421879 .21099854-.0107421879 .36099244-.0107421879 .44499208 .093185428 .44499208 .106170658 .44499208 .11216736 .43798829 .120162967 .43099977 .120162967 .42599488 .120162967 .4249878 .119155887 .41600038 .108169559 .35598756 .034225465 .2649994 .014251709 .21299744 .014251709 .15699768 .014251709 .11999512 .051223756 .11999512 .12315369 .11999512 .16612244 .13899231 .2650299 .1789856 .32901 .20199585 .3650055 .2539978 .41737367 .31698609 .41737367 .33599855 .41737367 .37799073 .41333009 .4019928 .38200379Z"/>
<path id="font_2_2" d="M.18899536 .15730286C.19999695 .20431519 .21899414 .2773285 .21998596 .28533937 .22200012 .29133607 .24699402 .33935548 .2829895 .37435914 .31199647 .4013672 .34999085 .41737367 .3889923 .41737367 .44299317 .41737367 .44299317 .36436463 .44299317 .34735108 .44299317 .33535768 .44299317 .3213501 .43099977 .27233888L.4079895 .18330384C.37599183 .054260255 .36799623 .023254395 .36799623 .018249512 .36799623 .0052490236 .3769989-.0107421879 .39898683-.0107421879 .41299439-.0107421879 .42799378-.0017547608 .43499757 .010253906 .43798829 .01625061 .44599916 .04826355 .45098878 .06826782L.47399903 .15730286C.4850006 .20431519 .5039978 .2773285 .5049896 .28533937 .5069885 .29133607 .5319977 .33935548 .56799319 .37435914 .5970001 .4013672 .6349945 .41737367 .673996 .41737367 .7279968 .41737367 .7279968 .36436463 .7279968 .34735108 .7279968 .28633119 .68099978 .16429138 .66999819 .13328552 .6579895 .10227966 .6539917 .0922699 .6539917 .073272708 .6539917 .019256592 .69499209-.0107421879 .73999026-.0107421879 .83599856-.0107421879 .875 .1322937 .875 .14329529 .875 .14828491 .871994 .1552887 .8619995 .1552887 .8509979 .1552887 .84999087 .15029907 .84599307 .13728333 .82099917 .052261354 .7789917 .014251709 .7429962 .014251709 .73599246 .014251709 .71798709 .014251709 .71798709 .04626465 .71798709 .0712738 .7279968 .09727478 .73599246 .119277957 .7559967 .17030335 .79599 .27633668 .79599 .33235169 .79599 .42137147 .7299957 .4423828 .6769867 .4423828 .58200076 .4423828 .5299988 .3713684 .5119934 .34635926 .5019989 .42938233 .43399049 .4423828 .3919983 .4423828 .29899598 .4423828 .25 .37635804 .23399353 .35536195 .22799683 .40937806 .18699646 .4423828 .13699341 .4423828 .09498596 .4423828 .07398987 .41137696 .05999756 .3843689 .042999269 .34934999 .0289917 .29234315 .0289917 .28833009 .0289917 .2793274 .035995485 .27633668 .042999269 .27633668 .053985597 .27633668 .055999757 .28134156 .06098938 .30134584 .07998657 .3803711 .100997928 .41737367 .1349945 .41737367 .16499329 .41737367 .16499329 .38536073 .16499329 .37036134 .16499329 .34934999 .15699768 .31834413 .15098572 .29234315 .14399719 .2663269 .13398743 .22331238 .12998963 .21131897L.08999634 .04725647C.08299255 .023254395 .08299255 .021255494 .08299255 .018249512 .08299255 .0052490236 .09199524-.0107421879 .11399841-.0107421879 .12799073-.0107421879 .14299011-.0017547608 .1499939 .010253906 .15299988 .01625061 .16099549 .04826355 .1659851 .06826782L.18899536 .15730286Z"/>
<path id="font_3_34" d="M.66999819 .18199158C.66999819 .27198792 .58299258 .34498597 .47200013 .35699464 .57099917 .37677003 .6409912 .43974305 .6409912 .51368716 .6409912 .6016388 .54499819 .6826172 .41299439 .6826172H.040985109V.6516113H.06399536C.14099121 .6516113 .14299011 .64060977 .14299011 .6036377V.07896423C.14299011 .041992189 .14099121 .0309906 .06399536 .0309906H.040985109V0H.44099427C.57598879-.00022888184 .66999819 .088760379 .66999819 .1817627V.18199158M.54499819 .51368716C.54499819 .4367218 .47799684 .36776734 .38398744 .36776734H.22698975V.6106262C.22698975 .64460757 .22898865 .6516113 .27598573 .6516113H.4059906C.5039978 .6517639 .54499819 .573761 .54499819 .5137634V.51368716M.57099917 .18388367C.57099917 .106933597 .5109863 .0309906 .4079895 .0309906H.27598573C.22898865 .0309906 .22698975 .037994386 .22698975 .07196045V.34277345H.41600038C.5319977 .34298707 .57099917 .24499512 .57099917 .18399048V.18388367Z"/>
</defs>
<path transform="matrix(1,0,0,-1.00003,21.453003,58.692285)" stroke-width=".79701" stroke-linecap="butt" stroke-miterlimit="10" stroke-linejoin="miter" fill="none" stroke="#000000" d="M0 0V56.69362H56.69362V0ZM56.69362 56.69362"/>
<use data-text="8" xlink:href="#font_1_1" transform="matrix(8.9664,0,0,-8.966669,41.442,67.99056)"/>
<use data-text="c" xlink:href="#font_2_1" transform="matrix(8.9664,0,0,-8.966669,46.050004,67.99056)"/>
<use data-text="m" xlink:href="#font_2_2" transform="matrix(8.9664,0,0,-8.966669,50.031084,67.99056)"/>
<use data-text="8" xlink:href="#font_1_1" transform="matrix(8.9664,0,0,-8.966669,1.2170029,33.23352)"/>
<use data-text="c" xlink:href="#font_2_1" transform="matrix(8.9664,0,0,-8.966669,5.8250048,33.23352)"/>
<use data-text="m" xlink:href="#font_2_2" transform="matrix(8.9664,0,0,-8.966669,9.806084,33.23352)"/>
<use data-text="B" xlink:href="#font_3_34" transform="matrix(8.9664,0,0,-8.966669,46.536005,33.406526)"/>
</svg>
