<svg xmlns="http://www.w3.org/2000/svg" xmlns:xlink="http://www.w3.org/1999/xlink" xmlns:inkscape="http://www.inkscape.org/namespaces/inkscape" version="1.1" width="80" height="70" viewBox="0 0 80 70">
<defs>
<path id="font_1_1" d="M.0289917 .19602967V.16503906H.3019867V.07901001C.3019867 .041992189 .29899598 .0309906 .22399903 .0309906H.20199585V0C.2649994 .0029907227 .33499146 .0029907227 .34199525 .0029907227 .34700013 .0029907227 .4189911 .0029907227 .48199464 0V.0309906H.45999146C.3849945 .0309906 .38198854 .041992189 .38198854 .07901001V.16503906H.48399354V.19602967H.38198854V.64974978C.38198854 .669754 .38198854 .6767578 .36299134 .6767578 .35099793 .6767578 .34999085 .67575076 .34098817 .66174319L.0289917 .19602967M.06098938 .19602967 .30799867 .56581118V.19602967H.06098938Z"/>
<path id="font_2_1" d="M.4019928 .38200379C.3639984 .38101197 .34399415 .352005 .34399415 .3270111 .34399415 .29800416 .36999513 .29101563 .38198854 .29101563 .4019928 .29101563 .43798829 .30801393 .43798829 .355011 .43798829 .40827943 .3849945 .4423828 .31599427 .4423828 .17999268 .4423828 .042999269 .30400086 .042999269 .16012573 .042999269 .06021118 .10998535-.0107421879 .21099854-.0107421879 .36099244-.0107421879 .44499208 .093185428 .44499208 .106170658 .44499208 .11216736 .43798829 .120162967 .43099977 .120162967 .42599488 .120162967 .4249878 .119155887 .41600038 .108169559 .35598756 .034225465 .2649994 .014251709 .21299744 .014251709 .15699768 .014251709 .11999512 .051223756 .11999512 .12315369 .11999512 .16612244 .13899231 .2650299 .1789856 .32901 .20199585 .3650055 .2539978 .41737367 .31698609 .41737367 .33599855 .41737367 .37799073 .41333009 .4019928 .38200379Z"/>
<path id="font_2_2" d="M.18899536 .15730286C.19999695 .20431519 .21899414 .2773285 .21998596 .28533937 .22200012 .29133607 .24699402 .33935548 .2829895 .37435914 .31199647 .4013672 .34999085 .41737367 .3889923 .41737367 .44299317 .41737367 .44299317 .36436463 .44299317 .34735108 .44299317 .33535768 .44299317 .3213501 .43099977 .27233888L.4079895 .18330384C.37599183 .054260255 .36799623 .023254395 .36799623 .018249512 .36799623 .0052490236 .3769989-.0107421879 .39898683-.0107421879 .41299439-.0107421879 .42799378-.0017547608 .43499757 .010253906 .43798829 .01625061 .44599916 .04826355 .45098878 .06826782L.47399903 .15730286C.4850006 .20431519 .5039978 .2773285 .5049896 .28533937 .5069885 .29133607 .5319977 .33935548 .56799319 .37435914 .5970001 .4013672 .6349945 .41737367 .673996 .41737367 .7279968 .41737367 .7279968 .36436463 .7279968 .34735108 .7279968 .28633119 .68099978 .16429138 .66999819 .13328552 .6579895 .10227966 .6539917 .0922699 .6539917 .073272708 .6539917 .019256592 .69499209-.0107421879 .73999026-.0107421879 .83599856-.0107421879 .875 .1322937 .875 .14329529 .875 .14828491 .871994 .1552887 .8619995 .1552887 .8509979 .1552887 .84999087 .15029907 .84599307 .13728333 .82099917 .052261354 .7789917 .014251709 .7429962 .014251709 .73599246 .014251709 .71798709 .014251709 .71798709 .04626465 .71798709 .0712738 .7279968 .09727478 .73599246 .119277957 .7559967 .17030335 .79599 .27633668 .79599 .33235169 .79599 .42137147 .7299957 .4423828 .6769867 .4423828 .58200076 .4423828 .5299988 .3713684 .5119934 .34635926 .5019989 .42938233 .43399049 .4423828 .3919983 .4423828 .29899598 .4423828 .25 .37635804 .23399353 .35536195 .22799683 .40937806 .18699646 .4423828 .13699341 .4423828 .09498596 .4423828 .07398987 .41137696 .05999756 .3843689 .042999269 .34934999 .0289917 .29234315 .0289917 .28833009 .0289917 .2793274 .035995485 .27633668 .042999269 .27633668 .053985597 .27633668 .055999757 .28134156 .06098938 .30134584 .07998657 .3803711 .100997928 .41737367 .1349945 .41737367 .16499329 .41737367 .16499329 .38536073 .16499329 .37036134 .16499329 .34934999 .15699768 .31834413 .15098572 .29234315 .14399719 .2663269 .13398743 .22331238 .12998963 .21131897L.08999634 .04725647C.08299255 .023254395 .08299255 .021255494 .08299255 .018249512 .08299255 .0052490236 .09199524-.0107421879 .11399841-.0107421879 .12799073-.0107421879 .14299011-.0017547608 .1499939 .010253906 .15299988 .01625061 .16099549 .04826355 .1659851 .06826782L.18899536 .15730286Z"/>
<path id="font_3_27" d="M.73599246 0V.0309906H.71899417C.6569977 .0309906 .6459961 .039978029 .6359863 .06794739L.40899659 .69480898C.4039917 .70780947 .40098573 .7158203 .3849945 .7158203 .36898805 .7158203 .36698915 .70980837 .36099244 .6938019L.1459961 .09989929C.13398743 .06694031 .11099243 .03199768 .033996583 .0309906V0C.07199097 .0029907227 .09899902 .0029907227 .13598633 .0029907227L.24899292 0V.0309906C.19198609 .03199768 .1749878 .06295776 .1749878 .08192444 .1749878 .090911868 .1769867 .09590149 .1789856 .10090637L.22599793 .22973633H.4850006L.5389862 .078933719C.54299929 .06893921 .5439911 .06594849 .5439911 .060958864 .5439911 .0309906 .48799134 .0309906 .46199037 .0309906V0C.5069885 .0029907227 .5589905 .0029907227 .6049957 .0029907227L.73599246 0M.47299195 .2607422H.23699951L.35499574 .5877838 .47299195 .2607422Z"/>
</defs>
<path transform="matrix(1,0,0,-1.00003,21.453003,58.692285)" stroke-width=".79701" stroke-linecap="butt" stroke-miterlimit="10" stroke-linejoin="miter" fill="none" stroke="#000000" d="M0 0V56.69362H56.69362V0ZM56.69362 56.69362"/>
<use data-text="4" xlink:href="#font_1_1" transform="matrix(8.9664,0,0,-8.966669,41.442,67.99056)"/>
<use data-text="c" xlink:href="#font_2_1" transform="matrix(8.9664,0,0,-8.966669,46.050004,67.99056)"/>
<use data-text="m" xlink:href="#font_2_2" transform="matrix(8.9664,0,0,-8.966669,50.031084,67.99056)"/>
<use data-text="4" xlink:href="#font_1_1" transform="matrix(8.9664,0,0,-8.966669,1.2170029,33.23352)"/>
<use data-text="c" xlink:href="#font_2_1" transform="matrix(8.9664,0,0,-8.966669,5.8250048,33.23352)"/>
<use data-text="m" xlink:href="#font_2_2" transform="matrix(8.9664,0,0,-8.966669,9.806084,33.23352)"/>
<use data-text="A" xlink:href="#font_3_27" transform="matrix(8.9664,0,0,-8.966669,46.343004,33.554529)"/>
</svg>
