<svg xmlns="http://www.w3.org/2000/svg" xmlns:xlink="http://www.w3.org/1999/xlink" xmlns:inkscape="http://www.inkscape.org/namespaces/inkscape" version="1.1" width="89" height="146" viewBox="0 0 89 146">
<path transform="matrix(1.00006,0,0,-1,-26.0527,87.038)" stroke-width=".79701" stroke-linecap="butt" stroke-miterlimit="10" stroke-linejoin="miter" fill="none" stroke="#000000" d="M56.69362 85.04042 113.38724 0 28.3468-56.69362Z"/>
<path transform="matrix(1.00006,0,0,-1,-26.0527,87.038)" stroke-width=".3985" stroke-linecap="butt" stroke-miterlimit="10" stroke-linejoin="miter" fill="none" stroke="#000000" d="M87.87527 45.35506 82.20555 39.68535"/>
<path transform="matrix(1.00006,0,0,-1,-26.0527,87.038)" stroke-width=".3985" stroke-linecap="butt" stroke-miterlimit="10" stroke-linejoin="miter" fill="none" stroke="#000000" d="M62.36288-36.85092V-28.3468"/>
<path transform="matrix(1.00006,0,0,-1,-26.0527,87.038)" stroke-width=".3985" stroke-linecap="butt" stroke-miterlimit="10" stroke-linejoin="miter" fill="none" stroke="#000000" d="M70.867-22.67752V-34.01608"/>
<path transform="matrix(1.00006,0,0,-1,-26.0527,87.038)" stroke-width=".3985" stroke-linecap="butt" stroke-miterlimit="10" stroke-linejoin="miter" fill="none" stroke="#000000" d="M51.02432 28.3468H39.68535"/>
<path transform="matrix(1.00006,0,0,-1,-26.0527,87.038)" stroke-width=".3985" stroke-linecap="butt" stroke-miterlimit="10" stroke-linejoin="miter" fill="none" stroke="#000000" d="M51.02432 22.67752H39.68535"/>
<path transform="matrix(1.00006,0,0,-1,-26.0527,87.038)" stroke-width=".3985" stroke-linecap="butt" stroke-miterlimit="10" stroke-linejoin="miter" fill="none" stroke="#000000" d="M51.02432 17.00824H39.68535"/>
</svg>
