<svg xmlns="http://www.w3.org/2000/svg" xmlns:xlink="http://www.w3.org/1999/xlink" xmlns:inkscape="http://www.inkscape.org/namespaces/inkscape" version="1.1" width="323" height="380" viewBox="0 0 323 380">
<defs>
<path id="font_1_46" d="M.70700076 .33580018C.70700076 .52568057 .57199099 .6826172 .40098573 .6826172H.034988405V.6516113H.05899048C.13598633 .6516113 .13798523 .64060977 .13798523 .6046295V.07795715C.13798523 .041992189 .13598633 .0309906 .05899048 .0309906H.034988405V0H.40098573C.56900027 0 .70700076 .1479187 .70700076 .33580018M.6069946 .33580018C.6069946 .22486878 .58799746 .16490174 .5519867 .11593628 .5319977 .08895874 .47499085 .0309906 .37399293 .0309906H.272995C.22599793 .0309906 .22399903 .037994386 .22399903 .07096863V.6116333C.22399903 .64460757 .22599793 .6516113 .272995 .6516113H.37298585C.43499757 .6516113 .5039978 .6296234 .5549927 .55867007 .59799197 .49969483 .6069946 .41375733 .6069946 .33580018Z"/>
<path id="font_1_66" d="M.24699402 0V.0309906C.18099976 .0309906 .1769867 .035995485 .1769867 .075042728V.4423828L.036987306 .43066407V.3996582C.101989749 .3996582 .11099243 .3936615 .11099243 .3447113V.07595825C.11099243 .0309906 .099990848 .0309906 .032989503 .0309906V0L.14299011 .0029907227C.17799378 .0029907227 .21299744 .0009918213 .24699402 0M.19198609 .603775C.19198609 .6307678 .16899109 .6567688 .13899231 .6567688 .10499573 .6567688 .084991458 .6287689 .084991458 .603775 .084991458 .57676699 .10798645 .55078127 .13798523 .55078127 .17199707 .55078127 .19198609 .5787811 .19198609 .603775Z"/>
<path id="font_1_98" d="M.3600006 .12823487C.3600006 .18122864 .32998658 .21122742 .31799317 .22323609 .2849884 .25523377 .24598694 .26322938 .20399475 .27124024 .147995 .28224183 .08099365 .29522706 .08099365 .35324098 .08099365 .38822938 .10699463 .42922975 .19299317 .42922975 .30299378 .42922975 .30799867 .3392334 .30999757 .30822755 .31098939 .2992401 .32199098 .2992401 .32199098 .2992401 .33499146 .2992401 .33499146 .30422975 .33499146 .32322694V.4242401C.33499146 .4412384 .33499146 .4482422 .32398988 .4482422 .31900025 .4482422 .31698609 .4482422 .3039856 .43623353 .30099488 .43223573 .29100038 .42323304 .2869873 .42022706 .24899292 .4482422 .20799256 .4482422 .19299317 .4482422 .070999149 .4482422 .032989503 .38124085 .032989503 .3252411 .032989503 .29023744 .04899597 .26223756 .07598877 .24023438 .10798645 .2142334 .13598633 .2082367 .20799256 .19422913 .22999573 .19021607 .31199647 .17422486 .31199647 .10221863 .31199647 .051223756 .2769928 .011245728 .19898987 .011245728 .114990238 .011245728 .07899475 .068222049 .05999756 .1532135 .056991579 .16621399 .055999757 .17021179 .04598999 .17021179 .032989503 .17021179 .032989503 .16322327 .032989503 .1452179V.013214111C.032989503-.003753662 .032989503-.0107421879 .04399109-.0107421879 .04899597-.0107421879 .049987794-.009750366 .068984989 .009246826 .070999149 .011245728 .070999149 .013214111 .08898926 .032226564 .1329956-.009750366 .17799378-.0107421879 .19898987-.0107421879 .31399537-.0107421879 .3600006 .05621338 .3600006 .1282196V.12823487Z"/>
<path id="font_1_84" d="M.5209961 .21636963C.5209961 .34336854 .42399598 .4423828 .31199647 .4423828 .23399353 .4423828 .19198609 .39837647 .17199707 .3763733V.4423828L.027999878 .43066407V.3996582C.09899902 .3996582 .10598755 .3936615 .10598755 .34973146V-.117996219C.10598755-.16308594 .09498596-.16308594 .027999878-.16308594V-.1940918L.13999939-.19110108 .25299073-.1940918V-.16308594C.18598938-.16308594 .1749878-.16308594 .1749878-.117996219V.050186159 .059173585C.17999268 .04319763 .22200012-.0107421879 .2979889-.0107421879 .4169922-.0107421879 .5209961 .087127689 .5209961 .21594239V.21636963M.43798829 .21594239C.43798829 .09512329 .36799623 .011245728 .2939911 .011245728 .2539978 .011245728 .21598816 .031219483 .18899536 .07215881 .1749878 .09312439 .1749878 .09411621 .1749878 .114089969V.33674623C.20399475 .38838197 .25299073 .41737367 .3039856 .41737367 .3769989 .41737367 .43798829 .32937623 .43798829 .21636963V.21594239Z"/>
<path id="font_1_72" d="M.25498963 0V.0309906C.18798828 .0309906 .1769867 .0309906 .1769867 .07601929V.69433596L.032989503 .6826172V.6516113C.102996829 .6516113 .11099243 .64460757 .11099243 .5956421V.07595825C.11099243 .0309906 .099990848 .0309906 .032989503 .0309906V0L.14399719 .0029907227 .25498963 0Z"/>
<path id="font_1_28" d="M.48298646 .08912659V.14511109H.45799256V.08912659C.45799256 .03112793 .43299867 .025131226 .42199708 .025131226 .3889923 .025131226 .3849945 .070129398 .3849945 .07511902V.27508546C.3849945 .31707765 .3849945 .3560791 .34899903 .39312745 .30999757 .43223573 .2599945 .4482422 .21199036 .4482422 .12998963 .4482422 .06098938 .40115357 .06098938 .335083 .06098938 .30508424 .08099365 .28808595 .10699463 .28808595 .1349945 .28808595 .15299988 .30807496 .15299988 .33407594 .15299988 .3460846 .147995 .37908937 .101989749 .38008119 .1289978 .41519166 .17799378 .426239 .20999146 .426239 .25898744 .426239 .31599427 .38710023 .31599427 .29808045V.26107789C.2649994 .25808717 .19499207 .25508119 .13198853 .22509766 .056991579 .19110108 .03199768 .13911438 .03199768 .09512329 .03199768 .014251709 .1289978-.0107421879 .19198609-.0107421879 .2579956-.0107421879 .3039856 .029251099 .32299806 .07624817 .32699586 .036132814 .35398866-.005859375 .40098573-.005859375 .42199708-.005859375 .48298646 .008132935 .48298646 .08912659M.31599427 .14013672C.31599427 .04525757 .24398804 .011245728 .19898987 .011245728 .1499939 .011245728 .10899353 .04624939 .10899353 .09625244 .10899353 .15124512 .15098572 .23425293 .31599427 .24024964V.14013672Z"/>
<path id="font_1_43" d="M.4149933 .119140628C.4149933 .12911988 .40499879 .12911988 .4019928 .12911988 .3929901 .12911988 .3909912 .12512207 .3889923 .119140628 .3600006 .026229859 .29499818 .014251709 .2579956 .014251709 .20498657 .014251709 .116989139 .0572052 .116989139 .21801758 .116989139 .38093568 .19898987 .42323304 .2519989 .42323304 .26098634 .42323304 .32398988 .42222596 .35899354 .38594056 .31799317 .38293458 .31199647 .3529358 .31199647 .3399353 .31199647 .31393434 .32998658 .2939453 .35798646 .2939453 .38398744 .2939453 .4039917 .3109436 .4039917 .34094239 .4039917 .40911866 .32798768 .4482422 .25099183 .4482422 .12599182 .4482422 .033996583 .3399353 .033996583 .21601868 .033996583 .08816528 .1329956-.0107421879 .24899292-.0107421879 .3829956-.0107421879 .4149933 .10914612 .4149933 .119140628Z"/>
<path id="font_1_50" d="M.4149933 .11933899C.4149933 .12934876 .40699769 .13134766 .4019928 .13134766 .3929901 .13134766 .3909912 .12535095 .3889923 .11734009 .35398866 .014251709 .2639923 .014251709 .2539978 .014251709 .20399475 .014251709 .1639862 .044281007 .14099121 .08131409 .11099243 .12934876 .11099243 .19540406 .11099243 .23144531H.3899994C.4119873 .23144531 .4149933 .23144531 .4149933 .2524414 .4149933 .35131837 .36099244 .4482422 .23599243 .4482422 .11999512 .4482422 .027999878 .34532167 .027999878 .22042847 .027999878 .08631897 .1329956-.0107421879 .24798584-.0107421879 .36999513-.0107421879 .4149933 .10032654 .4149933 .11933899M.34899903 .2524414H.11199951C.117996219 .40126039 .20199585 .426239 .23599243 .426239 .33898927 .426239 .34899903 .2913971 .34899903 .2524414Z"/>
<path id="font_1_75" d="M.8129883 0V.0309906C.7609863 .0309906 .73599246 .0309906 .7350006 .061019899V.25221253C.7350006 .3383026 .7350006 .36932374 .70399478 .405365 .6899872 .42237855 .6569977 .4423828 .598999 .4423828 .5149994 .4423828 .47099305 .38233949 .45399476 .34429933 .43998719 .43138124 .3659973 .4423828 .32099916 .4423828 .24798584 .4423828 .20098877 .39935304 .17298889 .33729554V.4423828L.03199768 .43066407V.3996582C.101989749 .3996582 .10998535 .39266969 .10998535 .34370423V.07595825C.10998535 .0309906 .09899902 .0309906 .03199768 .0309906V0L.14498902 .0029907227 .25698854 0V.0309906C.18998719 .0309906 .1789856 .0309906 .1789856 .07595825V.25978089C.1789856 .36431886 .25 .42037965 .31399537 .42037965 .3769989 .42037965 .3880005 .36631776 .3880005 .30926515V.076034549C.3880005 .0309906 .3769989 .0309906 .30999757 .0309906V0L.4229889 .0029907227 .5349884 0V.0309906C.46798707 .0309906 .45700074 .0309906 .45700074 .076034549V.2602234C.45700074 .36431886 .5279999 .42037965 .59199526 .42037965 .6549988 .42037965 .66600039 .36631776 .66600039 .30926515V.076034549C.66600039 .0309906 .6549988 .0309906 .58799746 .0309906V0L.70098879 .0029907227 .8129883 0Z"/>
<path id="font_1_77" d="M.5349884 0V.0309906C.48298646 .0309906 .45799256 .0309906 .45700074 .061019899V.25221253C.45700074 .3383026 .45700074 .36932374 .42599488 .405365 .4119873 .42237855 .3789978 .4423828 .32099916 .4423828 .24798584 .4423828 .20098877 .39935304 .17298889 .33729554V.4423828L.03199768 .43066407V.3996582C.101989749 .3996582 .10998535 .39266969 .10998535 .34370423V.07595825C.10998535 .0309906 .09899902 .0309906 .03199768 .0309906V0L.14498902 .0029907227 .25698854 0V.0309906C.18998719 .0309906 .1789856 .0309906 .1789856 .07595825V.25978089C.1789856 .36431886 .25 .42037965 .31399537 .42037965 .3769989 .42037965 .3880005 .36631776 .3880005 .30926515V.076034549C.3880005 .0309906 .3769989 .0309906 .30999757 .0309906V0L.4229889 .0029907227 .5349884 0Z"/>
<path id="font_1_105" d="M.33198548 .12385559V.18066406H.30699159V.12585449C.30699159 .052108766 .2769928 .014251709 .23999024 .014251709 .17298889 .014251709 .17298889 .10491943 .17298889 .12187195V.3996582H.31599427V.43066407H.17298889V.6142578H.147995C.14698792 .5324249 .116989139 .42565919 .018997193 .42166139V.3996582H.10398865V.12408447C.10398865 .0012512207 .19699097-.0107421879 .23298645-.0107421879 .3039856-.0107421879 .33198548 .060180665 .33198548 .12408447V.12385559Z"/>
<path id="font_1_85" d="M.33099366-.2400055C.33099366-.23701477 .33099366-.23500061 .31399537-.21800232 .18899536-.0920105 .15699768 .09700012 .15699768 .25 .15699768 .42399598 .19499207 .59799197 .31799317 .72299197 .33099366 .7350006 .33099366 .7369995 .33099366 .73999026 .33099366 .746994 .32699586 .75 .32099916 .75 .31098939 .75 .22099304 .6819916 .1619873 .5549927 .11099243 .44499208 .09899902 .33399964 .09899902 .25 .09899902 .17199707 .10998535 .050994874 .16499329-.06201172 .22499085-.18501282 .31098939-.25 .32099916-.25 .32699586-.25 .33099366-.24700928 .33099366-.2400055Z"/>
<path id="font_1_86" d="M.2889862 .25C.2889862 .32798768 .27799989 .44898988 .22299195 .56199648 .16299439 .68499758 .07699585 .75 .066986087 .75 .06098938 .75 .056991579 .74598696 .056991579 .73999026 .056991579 .7369995 .056991579 .7350006 .07598877 .71699526 .17399597 .6179962 .23098755 .45899964 .23098755 .25 .23098755 .07899475 .19400025-.09700012 .069992069-.2230072 .056991579-.23500061 .056991579-.23701477 .056991579-.2400055 .056991579-.2460022 .06098938-.25 .066986087-.25 .07699585-.25 .16699219-.18200684 .22599793-.055007936 .2769928 .054992677 .2889862 .16600037 .2889862 .25Z"/>
<path id="font_2_104" d="M.7569885 .43385316 .73599246 .6748047H.06298828L.041992189 .43385316H.08898926C.09799194 .5468292 .10798645 .62779238 .2519989 .62779238H.32899476V.04699707H.17599488V0C.22999573 .0029907227 .34098817 .0029907227 .3999939 .0029907227 .45899964 .0029907227 .56999209 .0029907227 .6239929 0V.04699707H.47099305V.62779238H.5469971C.6899872 .62779238 .69999697 .54782107 .70999148 .43385316H.7569885Z"/>
<path id="font_2_66" d="M.28599549 0V.04699707H.22399903V.4501953L.049987794 .4423828V.39537049C.10899353 .39537049 .115997318 .39537049 .115997318 .3563385V.04699707H.04699707V0L.16899109 .0029907227 .28599549 0M.23799134 .60728457C.23799134 .6502838 .20298767 .6852875 .1599884 .6852875 .116989139 .6852875 .08198547 .6502838 .08198547 .60728457 .08198547 .5642853 .116989139 .5292969 .1599884 .5292969 .20298767 .5292969 .23799134 .5642853 .23799134 .60728457Z"/>
<path id="font_2_75" d="M.93499758 0V.04699707H.8659973V.30613709C.8659973 .40919496 .8149872 .4501953 .71199038 .4501953 .62098696 .4501953 .56900027 .40019227 .54299929 .3541565 .522995 .44718934 .43099977 .4501953 .3929901 .4501953 .30599977 .4501953 .24899292 .40518189 .21699524 .3421631V.4501953L.04499817 .4423828V.39537049C.10699463 .39537049 .11399841 .39537049 .11399841 .3563385V.04699707H.04499817V0L.17098999 .0029907227 .29699708 0V.04699707H.22799683V.2562256C.22799683 .3653412 .31498719 .41436769 .3769989 .41436769 .41099549 .41436769 .43299867 .39437867 .43299867 .31729127V.04699707H.3639984V0L.48999024 .0029907227 .6159973 0V.04699707H.5469971V.2562256C.5469971 .3653412 .6339874 .41436769 .69599917 .41436769 .7299957 .41436769 .7519989 .39437867 .7519989 .31729127V.04699707H.68299868V0L.8089905 .0029907227 .93499758 0Z"/>
<path id="font_2_50" d="M.49398805 .11706543C.49398805 .13504029 .47499085 .13504029 .46998597 .13504029 .45298768 .13504029 .45098878 .13005066 .44499208 .11405945 .42399598 .066101077 .36698915 .03413391 .3019867 .03413391 .16099549 .03413391 .1599884 .16700745 .1599884 .2179718H.46199037C.48399354 .2179718 .49398805 .2179718 .49398805 .2449646 .49398805 .27598573 .48799134 .34906007 .43798829 .3991089 .40098573 .43511964 .34799195 .453125 .2789917 .453125 .11898804 .453125 .03199768 .35005189 .03199768 .22497559 .03199768 .09107971 .13198853-.005859375 .29299928-.005859375 .45098878-.005859375 .49398805 .10006714 .49398805 .11706543M.39898683 .25097657H.1599884C.1619873 .29000855 .16299439 .3320465 .18399048 .36506654 .20999146 .4051056 .25 .41711427 .2789917 .41711427 .3959961 .41711427 .397995 .28599549 .39898683 .25097657Z"/>
<path id="font_2_85" d="M.38198854-.23503113C.38198854-.23002625 .3789978-.22503662 .3789978-.22503662 .34999085-.19802857 .2849884-.13702393 .24299622-.009033203 .21699524 .06997681 .20498657 .16197205 .20498657 .24998474 .20498657 .4469757 .2559967 .60398867 .3659973 .7149811 .3809967 .72998049 .38198854 .73098757 .38198854 .73599246 .38198854 .74697878 .37199403 .75 .3639984 .75 .34700013 .75 .30499269 .7129822 .2869873 .6959839 .1309967 .5409851 .10798645 .35697938 .10798645 .25097657 .10798645 .12597656 .14099121 .015975953 .18798828-.06703186 .2539978-.18203736 .34498597-.24902344 .3639984-.24902344 .37199403-.24902344 .38198854-.24603272 .38198854-.23503113Z"/>
<path id="font_2_98" d="M.4149933 .14012146C.4149933 .18312073 .394989 .21812439 .3600006 .24612427 .32099916 .27511598 .2889862 .28112794 .21099854 .29412843 .17399597 .30111695 .10899353 .31211854 .10899353 .3591156 .10899353 .42111207 .20199585 .42111207 .22099304 .42111207 .29599 .42111207 .33399964 .39212037 .33898927 .33711244 .33999635 .32211305 .34098817 .3171234 .3619995 .3171234 .38598634 .3171234 .38598634 .32211305 .38598634 .3451233V.42510987C.38598634 .4441223 .38598634 .453125 .36799623 .453125 .3639984 .453125 .3619995 .453125 .32299806 .43411256 .29699708 .44711305 .2619934 .453125 .22200012 .453125 .19198609 .453125 .037994386 .453125 .037994386 .32211305 .037994386 .28211976 .057998659 .25512696 .07798767 .23812866 .117996219 .203125 .1559906 .1971283 .23298645 .18312073 .2689972 .17712403 .34399415 .16412354 .34399415 .10513306 .34399415 .030136109 .2519989 .030136109 .22999573 .030136109 .12399292 .030136109 .09799194 .103134158 .085998538 .14613343 .08099365 .16012573 .07598877 .16012573 .06199646 .16012573 .037994386 .16012573 .037994386 .15412903 .037994386 .13113404V.022140503C.037994386 .0031280518 .037994386-.005859375 .055999757-.005859375 .06298828-.005859375 .06498718-.005859375 .085998538 .009140015L.11199951 .026138306C.1579895-.005859375 .20999146-.005859375 .22999573-.005859375 .26098634-.005859375 .4149933-.005859375 .4149933 .14013672V.14012146Z"/>
<path id="font_2_86" d="M.33799745 .24998474C.33799745 .37498475 .30499269 .48498536 .2579956 .5679779 .19198609 .6829834 .100997928 .75 .08198547 .75 .07398987 .75 .06399536 .74697878 .06399536 .73599246 .06399536 .73098757 .06399536 .72898867 .08099365 .7129822 .20698548 .5849762 .24099732 .40797425 .24099732 .25097657 .24099732 .053970338 .18998719-.103027347 .07998657-.21403504 .06498718-.22903443 .06399536-.23002625 .06399536-.23503113 .06399536-.24603272 .07398987-.24902344 .08198547-.24902344 .09899902-.24902344 .14099121-.21203614 .15899658-.19502259 .31498719-.040023805 .33799745 .14398194 .33799745 .24998474Z"/>
<path id="font_1_56" d="M.44898988 .20091248C.44898988 .31991578 .36698915 .41992188 .25898744 .41992188 .21099854 .41992188 .16799927 .4039154 .13198853 .36891175V.5641022C.1519928 .55778506 .18499756 .55078127 .21699524 .55078127 .33999635 .55078127 .4099884 .6418457 .4099884 .65493777 .4099884 .6609802 .40699769 .6660156 .3999939 .6660156 .3999939 .66607668 .39698792 .66607668 .3919983 .66308596 .37199403 .65408328 .32299806 .63378909 .2559967 .63378909 .21598816 .63409426 .16999817 .641098 .12298584 .6621094 .114990238 .6651001 .11099243 .6651001 .11099243 .6651001 .100997928 .66508486 .100997928 .657074 .100997928 .64108279V.3447113C.100997928 .3266449 .100997928 .31861878 .114990238 .31861878 .12199402 .31861878 .12399292 .32164 .12799073 .32765199 .13899231 .34371949 .17599488 .3979187 .25698854 .3979187 .30899049 .3979187 .33399964 .3517456 .34199525 .3336792 .35798646 .2965393 .3600006 .2574005 .3600006 .20721436 .3600006 .17218018 .3600006 .112197879 .33599855 .07032776 .31199647 .031448366 .2749939 .0055389406 .22898865 .0055389406 .1559906 .0055389406 .09899902 .05836487 .08198547 .1171875 .084991458 .11685181 .08799744 .115859989 .09899902 .115859989 .13198853 .115859989 .14898682 .14085388 .14898682 .16485596 .14898682 .18885803 .13198853 .21386719 .09899902 .21386719 .084991458 .21386719 .049987794 .2068634 .049987794 .16085816 .049987794 .07432556 .11898804-.022460938 .23098755-.022460938 .34700013-.022460938 .44898988 .07331848 .44898988 .20019531V.20091248Z"/>
<path id="font_1_82" d="M.4189911 0V.0309906H.3869934C.29699708 .0309906 .2939911 .041992189 .2939911 .07902527V.64012148C.2939911 .6640167 .2939911 .6660156 .2709961 .6660156 .20899964 .60227969 .12098694 .60227969 .08898926 .60227969V.57128909C.10899353 .57128909 .16799927 .57128909 .21998596 .5972748V.07902527C.21998596 .042999269 .21699524 .0309906 .1269989 .0309906H.09498596V0C.12998963 .0029907227 .21699524 .0029907227 .25698854 .0029907227 .29699708 .0029907227 .38398744 .0029907227 .4189911 0Z"/>
<path id="font_1_121" d="M.45999146 .31976319C.45999146 .39982606 .45498658 .47988893 .41999818 .5539398 .37399293 .65000918 .2919922 .6660156 .25 .6660156 .18998719 .6660156 .116989139 .64001467 .07598877 .54693606 .04399109 .47789 .038986207 .39982606 .038986207 .31976319 .038986207 .24472046 .042999269 .15464783 .083999637 .07859802 .1269989-.0024719239 .19999695-.022460938 .24899292-.022460938 .30299378-.022460938 .3789978-.0014648438 .4229889 .09359741 .45498658 .16265869 .45999146 .2407074 .45999146 .31976319M.3769989 .3317871C.3769989 .25672914 .3769989 .18867493 .3659973 .12461853 .35099793 .029556275 .2939911-.00047302247 .24899292-.00047302247 .20999146-.00047302247 .15098572 .024551392 .1329956 .12062073 .12199402 .18066406 .12199402 .2727356 .12199402 .3317871 .12199402 .39582826 .12199402 .46188355 .12998963 .5159149 .14898682 .63500979 .22399903 .64401248 .24899292 .64401248 .28199769 .64401248 .34799195 .6259918 .36698915 .52693179 .3769989 .47088624 .3769989 .39482118 .3769989 .3317871Z"/>
<path id="font_1_107" d="M.44898988 .17396546H.42399598C.4189911 .14398194 .4119873 .099990848 .4019928 .084991458 .394989 .07699585 .32899476 .07699585 .30699159 .07699585H.1269989L.23298645 .17996216C.3889923 .31803895 .44898988 .37210084 .44898988 .47216798 .44898988 .5860901 .35899354 .6660156 .23699951 .6660156 .12399292 .6660156 .049987794 .57411196 .049987794 .48516847 .049987794 .4291687 .099990848 .4291687 .102996829 .4291687 .11999512 .4291687 .15499878 .44117738 .15499878 .48217774 .15499878 .5081787 .13699341 .5341797 .101989749 .5341797 .09399414 .5341797 .09199524 .5341797 .08898926 .5331726 .11199951 .59806826 .1659851 .63500979 .22399903 .63500979 .31498719 .63500979 .35798646 .5541382 .35798646 .47216798 .35798646 .39196778 .30799867 .31297303 .25299073 .25097657L.06098938 .036987306C.049987794 .025985718 .049987794 .023986817 .049987794 0H.42099L.44898988 .17396546Z"/>
<path id="font_1_106" d="M.45700074 .17037964C.45700074 .252594 .3939972 .33088685 .2899933 .35191346 .37199403 .37893678 .42999269 .4490509 .42999269 .52809146 .42999269 .6100464 .34199525 .6660156 .24598694 .6660156 .14498902 .6660156 .068984989 .60606387 .068984989 .53009036 .068984989 .49710084 .09098816 .47808839 .11999512 .47808839 .15098572 .47808839 .17098999 .50009158 .17098999 .5290985 .17098999 .57910159 .12399292 .57910159 .10899353 .57910159 .13999939 .62802127 .20599365 .64100649 .24198914 .64100649 .2829895 .64100649 .33799745 .6190338 .33799745 .5290985 .33799745 .51708987 .33599855 .45906068 .30999757 .4149933 .27999879 .36691285 .24598694 .36390687 .22099304 .36291505 .21299744 .36190797 .18899536 .35990907 .18199158 .35990907 .17399597 .35890199 .16699219 .35791017 .16699219 .3479004 .16699219 .33691407 .17399597 .33691407 .19099427 .33691407H.23498535C.31698609 .33691407 .35398866 .2686615 .35398866 .17037964 .35398866 .034469606 .2849884 .0055389406 .24099732 .0055389406 .19799805 .0055389406 .12298584 .022491456 .08799744 .08137512 .12298584 .07637024 .1539917 .09837341 .1539917 .1363678 .1539917 .17237854 .1269989 .19238281 .09799194 .19238281 .07398987 .19238281 .041992189 .17837525 .041992189 .1343689 .041992189 .043441774 .1349945-.022460938 .24398804-.022460938 .3659973-.022460938 .45700074 .06838989 .45700074 .17037964Z"/>
<path id="font_1_57" d="M.47099305 .16503906V.19602967H.37098695V.6507721C.37098695 .6707611 .37098695 .6767578 .35499574 .6767578 .34599305 .6767578 .34298707 .6767578 .33499146 .6647644L.027999878 .19602967V.16503906H.2939911V.07800293C.2939911 .041992189 .2919922 .0309906 .21798706 .0309906H.19699097V0C.23799134 .0029907227 .2899933 .0029907227 .33198548 .0029907227 .37399293 .0029907227 .4269867 .0029907227 .46798707 0V.0309906H.44699098C.37298585 .0309906 .37098695 .041992189 .37098695 .07800293V.16503906H.47099305M.2999878 .19602967H.055999757L.2999878 .56881716V.19602967Z"/>
<path id="font_1_101" d="M.45700074 .2036438C.45700074 .33070375 .36799623 .4267578 .25698854 .4267578 .18899536 .4267578 .1519928 .37573243 .13198853 .327713V.35173036C.13198853 .6047821 .2559967 .64100649 .30699159 .64100649 .33099366 .64100649 .37298585 .634964 .394989 .6007538 .37998963 .6007538 .33999635 .6007538 .33999635 .5557556 .33999635 .524765 .3639984 .5097656 .38598634 .5097656 .4019928 .5097656 .43199159 .51875308 .43199159 .5577545 .43199159 .6178589 .3880005 .6660156 .30499269 .6660156 .1769867 .6660156 .041992189 .5367584 .041992189 .31570436 .041992189 .048553468 .1579895-.022460938 .25099183-.022460938 .3619995-.022460938 .45700074 .07156372 .45700074 .2036438M.36698915 .20463562C.36698915 .15661621 .36698915 .10658264 .34999085 .0705719 .31999208 .010528564 .27398683 .0055389406 .25099183 .0055389406 .18798828 .0055389406 .1579895 .06556702 .1519928 .080566409 .13398743 .127594 .13398743 .2076416 .13398743 .22564698 .13398743 .30369569 .1659851 .40374757 .2559967 .40374757 .27198792 .40374757 .31799317 .40374757 .34899903 .34172059 .36698915 .30470277 .36698915 .2536621 .36698915 .20463562Z"/>
<path id="font_1_100" d="M.4850006 .6435547H.24198914C.11999512 .6435547 .117996219 .6566467 .11399841 .67578127H.08898926L.055999757 .46954347H.08099365C.083999637 .48554994 .09298706 .54855349 .10598755 .5605469 .11299133 .5665436 .19099427 .5665436 .20399475 .5665436H.41099549L.29899598 .40853883C.20899964 .2735443 .17599488 .13453675 .17599488 .03253174 .17599488 .022537232 .17599488-.022460938 .22200012-.022460938 .2679901-.022460938 .2679901 .022537232 .2679901 .03253174V.08354187C.2679901 .13853455 .2709961 .19354248 .2789917 .24754334 .2829895 .27053834 .29699708 .35653688 .34098817 .41854859L.47599793 .608551C.4850006 .62054446 .4850006 .62254336 .4850006 .6435547Z"/>
<path id="font_1_51" d="M.45700074 .16764832C.45700074 .20367432 .44599916 .24871826 .4079895 .29074098 .3889923 .31176759 .37298585 .32176209 .30899049 .36180116 .3809967 .39881898 .42999269 .4508667 .42999269 .51690676 .42999269 .6089783 .34098817 .6660156 .25 .6660156 .1499939 .6660156 .068984989 .5919647 .068984989 .49890138 .068984989 .48088075 .070999149 .43585206 .11299133 .38882447 .12399292 .3768158 .16099549 .35179139 .18598938 .33477784 .12799073 .30575563 .041992189 .24971009 .041992189 .15063477 .041992189 .044555665 .14399719-.022460938 .24899292-.022460938 .3619995-.022460938 .45700074 .060577394 .45700074 .16764832M.38598634 .51690676C.38598634 .45986939 .34700013 .41183473 .2869873 .3768158L.16299439 .4568634C.116989139 .4868927 .11299133 .5209198 .11299133 .53793337 .11299133 .5989685 .17799378 .64100649 .24899292 .64100649 .32199098 .64100649 .38598634 .588974 .38598634 .51690676M.40699769 .13162232C.40699769 .05757141 .33198548 .0055389406 .25 .0055389406 .1639862 .0055389406 .09199524 .06758118 .09199524 .15063477 .09199524 .2086792 .12399292 .2727356 .20899964 .31976319L.33198548 .24171448C.3600006 .22268677 .40699769 .19267273 .40699769 .13162232Z"/>
<path id="font_1_78" d="M.45700074 .32888795C.45700074 .598114 .34199525 .6660156 .25299073 .6660156 .19799805 .6660156 .14898682 .64801028 .10598755 .6031189 .06498718 .5580902 .041992189 .5160217 .041992189 .44091798 .041992189 .3158722 .12998963 .21777344 .24198914 .21777344 .30299378 .21777344 .34399415 .25979615 .36698915 .3178711V.28582765C.36698915 .05178833 .2630005 .0055389406 .20498657 .0055389406 .18798828 .0055389406 .13398743 .007537842 .10699463 .041778566 .15098572 .041778566 .15899658 .07078552 .15899658 .08778381 .15899658 .118774417 .1349945 .13378906 .11299133 .13378906 .09700012 .13378906 .066986087 .12478638 .066986087 .08578491 .066986087 .018615723 .12098694-.022460938 .20599365-.022460938 .33499146-.022460938 .45700074 .11378479 .45700074 .32888795M.36499024 .42089845C.36499024 .33789063 .33099366 .24076844 .24299622 .24076844 .22698975 .2407074 .18099976 .2407074 .1499939 .30371095 .13198853 .34072877 .13198853 .3908081 .13198853 .43988038 .13198853 .49397279 .13198853 .5410614 .15299988 .578125 .17999268 .62805178 .21798706 .64100649 .25299073 .64100649 .29899598 .64100649 .33198548 .60710147 .34899903 .562088 .36099244 .52989199 .36499024 .46688844 .36499024 .42089845Z"/>
<path id="font_2_46" d="M.81700137 .33676148C.81700137 .55659487 .6669922 .6855469 .46899415 .6855469H.038986207V.63853457H.14698792V.04699707H.038986207V0H.46998597C.6669922 0 .81700137 .12294006 .81700137 .33676148M.66999819 .33776856C.66999819 .22885132 .6579895 .17588806 .6259918 .13092041 .5779877 .06297302 .48999024 .04699707 .42900086 .04699707H.2829895V.63853457H.42900086C.49499513 .63853457 .5779877 .6195526 .6269989 .5496063 .6619873 .49864198 .66999819 .43069459 .66999819 .33776856Z"/>
<path id="font_2_84" d="M.59999087 .22319031C.59999087 .3561859 .5089874 .4501953 .36499024 .4501953 .2899933 .4501953 .23699951 .41918946 .21398926 .40118409V.4501953L.036987306 .4423828V.39537049C.09899902 .39537049 .10598755 .39537049 .10598755 .3573761V-.14648438H.036987306V-.1934967L.16299439-.19049073 .2889862-.1934967V-.14648438H.21998596V.03945923C.2630005 .004135132 .30699159-.005859375 .34799195-.005859375 .49798585-.005859375 .59999087 .08413696 .59999087 .22312927V.22319031M.47200013 .22312927C.47200013 .08213806 .4019928 .030136109 .33699037 .030136109 .32299806 .030136109 .27598573 .030136109 .23098755 .08413696 .21998596 .09713745 .21998596 .09812927 .21998596 .117126468V.32913209C.21998596 .34814454 .22099304 .3491516 .23498535 .36314393 .2749939 .4041443 .32699586 .41015626 .34899903 .41015626 .41600038 .41015626 .47200013 .3491516 .47200013 .22314453V.22312927Z"/>
<path id="font_2_72" d="M.29299928 0V.04699707H.22399903V.69433596L.04699707 .6855469V.63853457C.10899353 .63853457 .115997318 .63853457 .115997318 .5995636V.04699707H.04699707V0L.16999817 .0029907227 .29299928 0Z"/>
<path id="font_2_28" d="M.5529938 .023986817C.5529938 .04699707 .5399933 .04699707 .5269928 .04699707 .46598817 .04798889 .46598817 .06100464 .46598817 .083999637V.29907228C.46598817 .3881073 .394989 .453125 .24598694 .453125 .18899536 .453125 .066986087 .44911195 .066986087 .36109925 .066986087 .3170929 .101989749 .29808045 .1289978 .29808045 .1599884 .29808045 .19198609 .3190918 .19198609 .36109925 .19198609 .39111329 .17298889 .40811158 .16999817 .41011048 .19799805 .41612245 .22999573 .41711427 .24198914 .41711427 .31698609 .41711427 .35198976 .3751068 .35198976 .29907228V.26506043C.2809906 .2620697 .026992798 .25306703 .026992798 .10801697 .026992798 .012130737 .15098572-.005859375 .21998596-.005859375 .2999878-.005859375 .34700013 .035125734 .36898805 .07713318 .36898805 .04598999 .36898805 0 .47299195 0H.5209961C.54100039 0 .5529938 0 .5529938 .023986817M.35198976 .13899231C.35198976 .043151857 .2599945 .030136109 .23498535 .030136109 .18399048 .030136109 .14399719 .06517029 .14399719 .10922241 .14399719 .21734619 .3019867 .23136902 .35198976 .234375V.13899231Z"/>
<path id="font_2_43" d="M.47799684 .117126468C.47799684 .13113404 .46398927 .13113404 .45399476 .13113404 .43598939 .13113404 .43499757 .12913513 .42999269 .11613464 .4039917 .053131105 .35598756 .03413391 .30499269 .03413391 .1659851 .03413391 .1659851 .18112183 .1659851 .22712708 .1659851 .28312684 .1659851 .41311646 .29499818 .41311646 .32998658 .41311646 .34700013 .41011048 .3600006 .40711976 .34199525 .39111329 .33999635 .3701172 .33999635 .3611145 .33999635 .3171234 .375 .29811097 .4019928 .29811097 .43299867 .29811097 .46499635 .3191223 .46499635 .3611145 .46499635 .44711305 .34899903 .453125 .29100038 .453125 .11199951 .45314027 .037994386 .33813478 .037994386 .22213745 .037994386 .08912659 .13198853-.005859375 .28599549-.005859375 .44799806-.005859375 .47799684 .11013794 .47799684 .117126468Z"/>
<path id="font_2_77" d="M.61499026 0V.04699707H.54599V.30613709C.54599 .41119386 .49198915 .4501953 .3919983 .4501953 .29599 .4501953 .24299622 .39318849 .21699524 .3421631V.4501953L.04499817 .4423828V.39537049C.10699463 .39537049 .11399841 .39537049 .11399841 .3563385V.04699707H.04499817V0L.17098999 .0029907227 .29699708 0V.04699707H.22799683V.2562256C.22799683 .3653412 .31399537 .41436769 .3769989 .41436769 .41099549 .41436769 .43199159 .39337159 .43199159 .31729127V.04699707H.36299134V0L.4889984 .0029907227 .61499026 0Z"/>
<path id="font_2_105" d="M.38198854 .124176029V.17721558H.33499146V.12619019C.33499146 .058151246 .30299378 .03413391 .2749939 .03413391 .21699524 .03413391 .21699524 .09817505 .21699524 .1211853V.3973236H.36299134V.44433595H.21699524V.6357422H.16999817C.16899109 .53552249 .11999512 .43632508 .020996094 .43333436V.3973236H.102996829V.123184207C.102996829 .01612854 .18998719-.005859375 .26098634-.005859375 .33699037-.005859375 .38198854 .05114746 .38198854 .124176029Z"/>
<path id="font_2_64" d="M.31799317 .17382813V.27082826H.0129852299V.17382813H.31799317Z"/>
<path id="font_2_58" d="M.8450012 .22935486V.2763672C.80999758 .2733612 .72299197 .2733612 .6839905 .2733612 .6259918 .2733612 .5329895 .2733612 .47898866 .2763672V.22935486H.6230011V.1282959C.6230011 .109298709 .6230011 .08027649 .58399966 .057266237 .55799868 .042251588 .526001 .036254884 .49398805 .036254884 .4079895 .036254884 .32199098 .06526184 .272995 .12730408 .22999573 .18232727 .21699524 .25335694 .21699524 .3443451 .21699524 .4563141 .23699951 .5142975 .27398683 .5632782 .31399537 .613266 .3909912 .6502533 .4869995 .6502533 .59399417 .6502533 .68899539 .5742798 .71099856 .4473114 .71398928 .4283142 .71499636 .4263153 .73799136 .4263153 .7639923 .4263153 .7649994 .4283142 .7649994 .4543152V.6692505C.7649994 .68826296 .7649994 .6972656 .746994 .6972656 .73799136 .6972656 .73599246 .69525149 .7279968 .68826296L.6619873 .62927249C.58898928 .68725588 .5169983 .6972656 .46499635 .6972656 .21899414 .6972656 .06399536 .55029299 .06399536 .343338 .06399536 .14431763 .20899964-.0107421879 .46699525-.0107421879 .5-.0107421879 .6029968-.008743286 .6529999 .053253175 .6839905 .026245118 .74398806 .00024414063 .7509918 .00024414063 .7649994 .00024414063 .7649994 .013244629 .7649994 .028244019V.22935486H.8450012Z"/>
<path id="font_2_96" d="M.44198609 .36819459C.44198609 .42118836 .3880005 .4501953 .33599855 .4501953 .2659912 .4501953 .22599793 .40019227 .20298767 .33718873V.4501953L.036987306 .4423828V.39537049C.09899902 .39537049 .10598755 .39537049 .10598755 .3563385V.04699707H.036987306V0L.16299439 .0029907227C.20098877 .0029907227 .2649994 .0029907227 .30099488 0V.04699707H.21398926V.22218323C.21398926 .29226686 .23899842 .41436769 .33898927 .41436769 .33898927 .41436769 .31999208 .39736939 .31999208 .36834718 .31999208 .32730104 .35198976 .3072815 .3809967 .3072815 .4099884 .3072815 .44198609 .3283081 .44198609 .36834718V.36819459Z"/>
<path id="font_2_63" d="M.61499026 0V.04699707H.54599V.30613709C.54599 .41119386 .49198915 .4501953 .3919983 .4501953 .29599 .4501953 .24499512 .3921814 .22299195 .3541565H.22200012V.69433596L.04499817 .6855469V.63853457C.10699463 .63853457 .11399841 .63853457 .11399841 .5996704V.04699707H.04499817V0L.17098999 .0029907227 .29699708 0V.04699707H.22799683V.25610353C.22799683 .36515809 .31399537 .41418458 .3769989 .41418458 .41099549 .41418458 .43199159 .39317323 .43199159 .31713868V.04699707H.36299134V0L.4889984 .0029907227 .61499026 0Z"/>
<path id="font_3_1" d="M.47599793 .609375C.4850006 .6213684 .4850006 .62338259 .4850006 .64437869H.24198914C.11999512 .64437869 .117996219 .65737918 .11399841 .67637637H.08898926L.055999757 .4702301H.08099365C.083999637 .48625184 .09298706 .5493469 .10598755 .56137087 .11299133 .5673828 .19099427 .5673828 .20399475 .5673828H.41099549C.3999939 .5513611 .32099916 .4421997 .29899598 .40914918 .20899964 .27394105 .17599488 .1347351 .17599488 .032577516 .17599488 .022567749 .17599488-.022460938 .22200012-.022460938 .2679901-.022460938 .2679901 .022567749 .2679901 .032577516V.08366394C.2679901 .13873291 .2709961 .19381714 .2789917 .24790955 .2829895 .27093507 .29699708 .35707093 .34098817 .41915895L.47599793 .609375Z"/>
<path id="font_4_2" d="M.3909912 .37405396C.36299134 .37304688 .34298707 .3510437 .34298707 .32904054 .34298707 .31503297 .35198976 .30003358 .37399293 .30003358 .3959961 .30003358 .41999818 .31703187 .41999818 .35603334 .41999818 .40124513 .3769989 .4423828 .30099488 .4423828 .16899109 .4423828 .13198853 .3400421 .13198853 .29605104 .13198853 .21820069 .20599365 .20323181 .23498535 .19725037 .2869873 .18727112 .33898927 .17628479 .33898927 .12133789 .33898927 .095336917 .31599427 .011245728 .19599915 .011245728 .18199158 .011245728 .10499573 .011245728 .08198547 .064331058 .11999512 .059326173 .14498902 .08934021 .14498902 .11734009 .14498902 .14033509 .1289978 .15234375 .10798645 .15234375 .08198547 .15234375 .051986696 .1313324 .051986696 .08633423 .051986696 .029281617 .10899353-.0107421879 .19499207-.0107421879 .35699464-.0107421879 .3959961 .1103363 .3959961 .15533448 .3959961 .19125366 .3769989 .21620178 .36499024 .22817993 .33799745 .25613404 .30899049 .26112367 .2649994 .27009584 .22898865 .27807618 .18899536 .2850647 .18899536 .33003236 .18899536 .3590393 .21299744 .42037965 .30099488 .42037965 .32598878 .42037965 .37599183 .41333009 .3909912 .37405396Z"/>
<path id="font_3_3" d="M.36698915 .31781007V.28579713C.36698915 .05178833 .2630005 .0055389406 .20498657 .0055389406 .18798828 .0055389406 .13398743 .007537842 .10699463 .041778566 .15098572 .041778566 .15899658 .07078552 .15899658 .08778381 .15899658 .118774417 .1349945 .13378906 .11299133 .13378906 .09700012 .13378906 .066986087 .12478638 .066986087 .08578491 .066986087 .018615723 .12098694-.022460938 .20599365-.022460938 .33499146-.022460938 .45700074 .11378479 .45700074 .32881166 .45700074 .5979767 .34199525 .6660156 .25299073 .6660156 .19799805 .6660156 .14898682 .64801028 .10598755 .60298159 .06498718 .5579529 .041992189 .5159302 .041992189 .44088746 .041992189 .31581117 .12998963 .21777344 .24198914 .21777344 .30299378 .21777344 .34399415 .25978089 .36698915 .31781007M.24299622 .24076844C.22698975 .24076844 .18099976 .24076844 .1499939 .3038025 .13198853 .3408203 .13198853 .39085389 .13198853 .43988038 .13198853 .49391175 .13198853 .54093936 .15299988 .5779724 .17999268 .6279907 .21798706 .64100649 .25299073 .64100649 .29899598 .64100649 .33198548 .60697939 .34899903 .5619507 .36099244 .52993777 .36499024 .4669037 .36499024 .42086793 .36499024 .3378296 .33099366 .24076844 .24299622 .24076844Z"/>
<path id="font_3_2" d="M.16299439 .4569702C.116989139 .486969 .11299133 .52098086 .11299133 .5379791 .11299133 .598999 .17799378 .64100649 .24899292 .64100649 .32199098 .64100649 .38598634 .58898928 .38598634 .51698306 .38598634 .45996095 .34700013 .4119568 .2869873 .37695313L.16299439 .4569702M.30899049 .36193849C.3809967 .3989563 .42999269 .45095826 .42999269 .51698306 .42999269 .6090088 .34098817 .6660156 .25 .6660156 .1499939 .6660156 .068984989 .59199526 .068984989 .49897767 .068984989 .4809723 .070999149 .43595887 .11299133 .38894654 .12399292 .37695313 .16099549 .35194398 .18598938 .33494569 .12799073 .30592347 .041992189 .24984741 .041992189 .15072632 .041992189 .04458618 .14399719-.022460938 .24899292-.022460938 .3619995-.022460938 .45700074 .06060791 .45700074 .16773987 .45700074 .20379639 .44599916 .24885559 .4079895 .2909088 .3889923 .31193543 .37298585 .3219452 .30899049 .36193849M.20899964 .3199463 .33198548 .24183655C.3600006 .2228241 .40699769 .19277954 .40699769 .13169861 .40699769 .05760193 .33198548 .0055389406 .25 .0055389406 .1639862 .0055389406 .09199524 .067611698 .09199524 .15072632 .09199524 .20880127 .12399292 .27288819 .20899964 .3199463Z"/>
<path id="font_4_1" d="M.08799744 .059265138C.084991458 .044265748 .07899475 .021255494 .07899475 .01625061 .07899475-.0017547608 .09298706-.0107421879 .10798645-.0107421879 .11999512-.0107421879 .13798523-.002746582 .14498902 .01725769 .1459961 .019256592 .1579895 .06626892 .1639862 .091278079L.18598938 .18130493C.19198609 .2033081 .19799805 .22531128 .20298767 .24832154 .20698548 .26531983 .21499634 .29434205 .21598816 .29833985 .23098755 .3293457 .28399659 .42037965 .3789978 .42037965 .42399598 .42037965 .43299867 .38336183 .43299867 .35035707 .43299867 .3253479 .42599488 .29733277 .41799928 .26733399L.3899994 .1512909 .36999513 .07527161C.3659973 .055267335 .35699464 .021255494 .35699464 .01625061 .35699464-.0017547608 .37098695-.0107421879 .38598634-.0107421879 .4169922-.0107421879 .4229889 .014251709 .43099977 .04626465 .44499208 .10227966 .48199464 .24832154 .4909973 .28733827 .49398805 .30033876 .5469971 .42037965 .6559906 .42037965 .69898989 .42037965 .70999148 .3863678 .70999148 .35035707 .70999148 .29333497 .66799929 .17930603 .647995 .12628174 .6389923 .10227966 .6349945 .091278079 .6349945 .0712738 .6349945 .024261475 .66999819-.0107421879 .71699526-.0107421879 .8109894-.0107421879 .84799197 .13528443 .84799197 .14329529 .84799197 .1532898 .83898928 .1532898 .83599856 .1532898 .82598879 .1532898 .82598879 .15029907 .82099917 .13528443 .80599978 .08227539 .7739868 .011245728 .71899417 .011245728 .70199587 .011245728 .69499209 .021255494 .69499209 .044265748 .69499209 .0692749 .70399478 .09327698 .71299746 .11528015 .7319946 .16729737 .7739868 .27833558 .7739868 .3353424 .7739868 .4003601 .73399356 .4423828 .6589966 .4423828 .58399966 .4423828 .5329895 .3983612 .49598695 .34535218 .49499513 .35835267 .49198915 .3923645 .46398927 .41636659 .43899537 .43737794 .40699769 .4423828 .38198854 .4423828 .2919922 .4423828 .24299622 .37835694 .22599793 .35534669 .22099304 .41236878 .1789856 .4423828 .13398743 .4423828 .08799744 .4423828 .068984989 .4033661 .05999756 .38536073 .041992189 .35035707 .0289917 .29133607 .0289917 .28833009 .0289917 .27833558 .038986207 .27833558 .040985109 .27833558 .050994874 .27833558 .051986696 .2793274 .057998659 .30133058 .07499695 .37236024 .09498596 .42037965 .1309967 .42037965 .14698792 .42037965 .1619873 .41236878 .1619873 .37435914 .1619873 .35334779 .15899658 .3423462 .1459961 .29032899L.08799744 .059265138Z"/>
</defs>
<path transform="matrix(1.00006,0,0,-1.00002,37.62236,353.47987)" stroke-width=".19925" stroke-linecap="butt" stroke-miterlimit="10" stroke-linejoin="miter" fill="none" stroke="#d9d9d9" d="M0 0H283.4681M0 2.83484H283.4681M0 5.6697H283.4681M0 8.50455H283.4681M0 11.33939H283.4681M0 14.17424H283.4681M0 17.0091H283.4681M0 19.84393H283.4681M0 22.67879H283.4681M0 25.51364H283.4681M0 28.3485H283.4681M0 31.18333H283.4681M0 34.01819H283.4681M0 36.85304H283.4681M0 39.68788H283.4681M0 42.52274H283.4681M0 45.35759H283.4681M0 48.19244H283.4681M0 51.02728H283.4681M0 53.86214H283.4681M0 56.69699H283.4681M0 59.53183H283.4681M0 62.36668H283.4681M0 65.20154H283.4681M0 68.03639H283.4681M0 70.87123H283.4681M0 73.70609H283.4681M0 76.54094H283.4681M0 79.37578H283.4681M0 82.21063H283.4681M0 85.04549H283.4681M0 87.88034H283.4681M0 90.71518H283.4681M0 93.55003H283.4681M0 96.38489H283.4681M0 99.21973H283.4681M0 102.05458H283.4681M0 104.88943H283.4681M0 107.72429H283.4681M0 110.55913H283.4681M0 113.39398H283.4681M0 116.22884H283.4681M0 119.06367H283.4681M0 121.89853H283.4681M0 124.73338H283.4681M0 127.56824H283.4681M0 130.40308H283.4681M0 133.23793H283.4681M0 136.07279H283.4681M0 138.90763H283.4681M0 141.74248H283.4681M0 144.57733H283.4681M0 147.41219H283.4681M0 150.24703H283.4681M0 153.08188H283.4681M0 155.91674H283.4681M0 158.75157H283.4681M0 161.58643H283.4681M0 164.42128H283.4681M0 167.25612H283.4681M0 170.09098H283.4681M0 172.92583H283.4681M0 175.76068H283.4681M0 178.59552H283.4681M0 181.43038H283.4681M0 184.26523H283.4681M0 187.10007H283.4681M0 189.93492H283.4681M0 192.76978H283.4681M0 195.60463H283.4681M0 198.43947H283.4681M0 201.27433H283.4681M0 204.10918H283.4681M0 206.94402H283.4681M0 209.77887H283.4681M0 212.61373H283.4681M0 215.44858H283.4681M0 218.28342H283.4681M0 221.11827H283.4681M0 223.95313H283.4681M0 226.78797H283.4681M0 229.62282H283.4681M0 232.45767H283.4681M0 235.29253H283.4681M0 238.12737H283.4681M0 240.96222H283.4681M0 243.79708H283.4681M0 246.63191H283.4681M0 249.46677H283.4681M0 252.30162H283.4681M0 255.13648H283.4681M0 257.9713H283.4681M0 260.80619H283.4681M0 263.64103H283.4681M0 266.47587H283.4681M0 269.3107H283.4681M0 272.14558H283.4681M0 274.9804H283.4681M0 277.81526H283.4681M0 280.65013H283.4681M0 283.48497H283.4681M0 286.31983H283.4681M0 289.15467H283.4681M0 291.98954H283.4681M0 294.82438H283.4681M0 297.6592H283.4681M0 300.49406H283.4681M0 303.32893H283.4681M0 306.16377H283.4681M0 308.9986H283.4681M0 311.83348H283.4681M0 314.66835H283.4681M0 317.50318H283.4681M0 320.338H283.4681M0 323.17289H283.4681M0 326.0077H283.4681M0 328.84257H283.4681M0 331.6774H283.4681M0 334.51225H283.4681M0 337.3471H283.4681M0 0V340.1617M2.83484 0V340.1617M5.6697 0V340.1617M8.50455 0V340.1617M11.33939 0V340.1617M14.17424 0V340.1617M17.0091 0V340.1617M19.84393 0V340.1617M22.67879 0V340.1617M25.51364 0V340.1617M28.3485 0V340.1617M31.18333 0V340.1617M34.01819 0V340.1617M36.85304 0V340.1617M39.68788 0V340.1617M42.52274 0V340.1617M45.35759 0V340.1617M48.19244 0V340.1617M51.02728 0V340.1617M53.86214 0V340.1617M56.69699 0V340.1617M59.53183 0V340.1617M62.36668 0V340.1617M65.20154 0V340.1617M68.03639 0V340.1617M70.87123 0V340.1617M73.70609 0V340.1617M76.54094 0V340.1617M79.37578 0V340.1617M82.21063 0V340.1617M85.04549 0V340.1617M87.88034 0V340.1617M90.71518 0V340.1617M93.55003 0V340.1617M96.38489 0V340.1617M99.21973 0V340.1617M102.05458 0V340.1617M104.88943 0V340.1617M107.72429 0V340.1617M110.55913 0V340.1617M113.39398 0V340.1617M116.22884 0V340.1617M119.06367 0V340.1617M121.89853 0V340.1617M124.73338 0V340.1617M127.56824 0V340.1617M130.40308 0V340.1617M133.23793 0V340.1617M136.07279 0V340.1617M138.90763 0V340.1617M141.74248 0V340.1617M144.57733 0V340.1617M147.41219 0V340.1617M150.24703 0V340.1617M153.08188 0V340.1617M155.91674 0V340.1617M158.75157 0V340.1617M161.58643 0V340.1617M164.42128 0V340.1617M167.25612 0V340.1617M170.09098 0V340.1617M172.92583 0V340.1617M175.76068 0V340.1617M178.59552 0V340.1617M181.43038 0V340.1617M184.26523 0V340.1617M187.10007 0V340.1617M189.93492 0V340.1617M192.76978 0V340.1617M195.60463 0V340.1617M198.43947 0V340.1617M201.27433 0V340.1617M204.10918 0V340.1617M206.94402 0V340.1617M209.77887 0V340.1617M212.61373 0V340.1617M215.44858 0V340.1617M218.28342 0V340.1617M221.11827 0V340.1617M223.95313 0V340.1617M226.78797 0V340.1617M229.62282 0V340.1617M232.45767 0V340.1617M235.29253 0V340.1617M238.12737 0V340.1617M240.96222 0V340.1617M243.79708 0V340.1617M246.63191 0V340.1617M249.46677 0V340.1617M252.30162 0V340.1617M255.13648 0V340.1617M257.9713 0V340.1617M260.80619 0V340.1617M263.64103 0V340.1617M266.47587 0V340.1617M269.3107 0V340.1617M272.14558 0V340.1617M274.9804 0V340.1617M277.81526 0V340.1617M280.65013 0V340.1617M283.4681 340.1617"/>
<path transform="matrix(1.00006,0,0,-1.00002,37.62236,353.47987)" stroke-width=".3985" stroke-linecap="butt" stroke-miterlimit="10" stroke-linejoin="miter" fill="none" stroke="#a6a6a6" d="M0 0H283.4681M0 28.3468H283.4681M0 56.69362H283.4681M0 85.04042H283.4681M0 113.38724H283.4681M0 141.73404H283.4681M0 170.08086H283.4681M0 198.42766H283.4681M0 226.77448H283.4681M0 255.12128H283.4681M0 283.4681H283.4681M0 311.8149H283.4681M0 340.15177H283.4681M0 0V340.1617M28.3468 0V340.1617M56.69362 0V340.1617M85.04042 0V340.1617M113.38724 0V340.1617M141.73404 0V340.1617M170.08086 0V340.1617M198.42766 0V340.1617M226.77448 0V340.1617M255.12128 0V340.1617M283.45814 0V340.1617M283.4681 340.1617"/>
<path transform="matrix(1.00006,0,0,-1.00002,37.62236,353.47987)" stroke-width=".79701" stroke-linecap="butt" stroke-miterlimit="10" stroke-linejoin="miter" fill="none" stroke="#000000" d="M0 0H282.67109"/>
<path transform="matrix(1.00006,0,0,-1.00002,320.70893,353.47987)" stroke-width=".79701" stroke-linecap="round" stroke-linejoin="round" fill="none" stroke="#000000" d="M-2.55046 3.11095C-2.0845 1.24435-1.04614 .36295 0 0-1.04614-.36295-2.0845-1.24435-2.55046-3.11095"/>
<path transform="matrix(1.00006,0,0,-1.00002,37.62236,353.47987)" stroke-width=".79701" stroke-linecap="butt" stroke-miterlimit="10" stroke-linejoin="miter" fill="none" stroke="#000000" d="M0 0V339.3647"/>
<path transform="matrix(0,-1.00002,-1.00006,-0,37.62236,13.709839)" stroke-width=".79701" stroke-linecap="round" stroke-linejoin="round" fill="none" stroke="#000000" d="M-2.55046 3.11095C-2.0845 1.24435-1.04614 .36295 0 0-1.04614-.36295-2.0845-1.24435-2.55046-3.11095"/>
<use data-text="D" xlink:href="#font_1_46" transform="matrix(0,-9.962799,-9.963197,-0,8.932648,278.92637)"/>
<use data-text="i" xlink:href="#font_1_66" transform="matrix(0,-9.962799,-9.963197,-0,8.932648,271.3148)"/>
<use data-text="s" xlink:href="#font_1_98" transform="matrix(0,-9.962799,-9.963197,-0,8.932648,268.5451)"/>
<use data-text="p" xlink:href="#font_1_84" transform="matrix(0,-9.962799,-9.963197,-0,8.932648,264.61979)"/>
<use data-text="l" xlink:href="#font_1_72" transform="matrix(0,-9.962799,-9.963197,-0,8.932648,259.08049)"/>
<use data-text="a" xlink:href="#font_1_28" transform="matrix(0,-9.962799,-9.963197,-0,8.932648,256.3108)"/>
<use data-text="c" xlink:href="#font_1_43" transform="matrix(0,-9.962799,-9.963197,-0,8.932648,251.32942)"/>
<use data-text="e" xlink:href="#font_1_50" transform="matrix(0,-9.962799,-9.963197,-0,8.932648,246.90593)"/>
<use data-text="m" xlink:href="#font_1_75" transform="matrix(0,-9.962799,-9.963197,-0,8.932648,242.48244)"/>
<use data-text="e" xlink:href="#font_1_50" transform="matrix(0,-9.962799,-9.963197,-0,8.932648,234.18343)"/>
<use data-text="n" xlink:href="#font_1_77" transform="matrix(0,-9.962799,-9.963197,-0,8.932648,229.75995)"/>
<use data-text="t" xlink:href="#font_1_105" transform="matrix(0,-9.962799,-9.963197,-0,8.932648,224.48964)"/>
<use data-text="(" xlink:href="#font_1_85" transform="matrix(0,-9.962799,-9.963197,-0,8.932648,217.30644)"/>
<use data-text="m" xlink:href="#font_1_75" transform="matrix(0,-9.962799,-9.963197,-0,8.932648,213.43091)"/>
<use data-text=")" xlink:href="#font_1_86" transform="matrix(0,-9.962799,-9.963197,-0,8.932648,205.1319)"/>
<use data-text="T" xlink:href="#font_2_104" transform="matrix(9.963197,0,0,-9.962799,143.59473,375.8103)"/>
<use data-text="i" xlink:href="#font_2_66" transform="matrix(9.963197,0,0,-9.962799,151.56528,375.8103)"/>
<use data-text="m" xlink:href="#font_2_75" transform="matrix(9.963197,0,0,-9.962799,154.74355,375.8103)"/>
<use data-text="e" xlink:href="#font_2_50" transform="matrix(9.963197,0,0,-9.962799,164.28829,375.8103)"/>
<use data-text="(" xlink:href="#font_2_85" transform="matrix(9.963197,0,0,-9.962799,173.3548,375.8103)"/>
<use data-text="s" xlink:href="#font_2_98" transform="matrix(9.963197,0,0,-9.962799,177.80834,375.8103)"/>
<use data-text=")" xlink:href="#font_2_86" transform="matrix(9.963197,0,0,-9.962799,182.33164,375.8103)"/>
<path transform="matrix(1.00006,0,0,-1.00002,37.62236,353.47987)" stroke-width=".3985" stroke-linecap="butt" stroke-miterlimit="10" stroke-linejoin="miter" fill="none" stroke="#000000" d="M-5.66927 14.17339H5.66927"/>
<use data-text="5" xlink:href="#font_1_56" transform="matrix(9.963197,0,0,-9.962799,28.811829,342.51466)"/>
<path transform="matrix(1.00006,0,0,-1.00002,37.62236,353.47987)" stroke-width=".3985" stroke-linecap="butt" stroke-miterlimit="10" stroke-linejoin="miter" fill="none" stroke="#000000" d="M-5.66927 28.3468H5.66927"/>
<use data-text="1" xlink:href="#font_1_82" transform="matrix(9.963197,0,0,-9.962799,23.830536,328.34037)"/>
<use data-text="0" xlink:href="#font_1_121" transform="matrix(9.963197,0,0,-9.962799,28.812134,328.34037)"/>
<path transform="matrix(1.00006,0,0,-1.00002,37.62236,353.47987)" stroke-width=".3985" stroke-linecap="butt" stroke-miterlimit="10" stroke-linejoin="miter" fill="none" stroke="#000000" d="M-5.66927 42.5202H5.66927"/>
<use data-text="1" xlink:href="#font_1_82" transform="matrix(9.963197,0,0,-9.962799,23.830536,314.16709)"/>
<use data-text="5" xlink:href="#font_1_56" transform="matrix(9.963197,0,0,-9.962799,28.812134,314.16709)"/>
<path transform="matrix(1.00006,0,0,-1.00002,37.62236,353.47987)" stroke-width=".3985" stroke-linecap="butt" stroke-miterlimit="10" stroke-linejoin="miter" fill="none" stroke="#000000" d="M-5.66927 56.69362H5.66927"/>
<use data-text="2" xlink:href="#font_1_107" transform="matrix(9.963197,0,0,-9.962799,23.830536,299.9928)"/>
<use data-text="0" xlink:href="#font_1_121" transform="matrix(9.963197,0,0,-9.962799,28.812134,299.9928)"/>
<path transform="matrix(1.00006,0,0,-1.00002,37.62236,353.47987)" stroke-width=".3985" stroke-linecap="butt" stroke-miterlimit="10" stroke-linejoin="miter" fill="none" stroke="#000000" d="M-5.66927 70.867H5.66927"/>
<use data-text="2" xlink:href="#font_1_107" transform="matrix(9.963197,0,0,-9.962799,23.830536,285.81953)"/>
<use data-text="5" xlink:href="#font_1_56" transform="matrix(9.963197,0,0,-9.962799,28.812134,285.81953)"/>
<path transform="matrix(1.00006,0,0,-1.00002,37.62236,353.47987)" stroke-width=".3985" stroke-linecap="butt" stroke-miterlimit="10" stroke-linejoin="miter" fill="none" stroke="#000000" d="M-5.66927 85.04042H5.66927"/>
<use data-text="3" xlink:href="#font_1_106" transform="matrix(9.963197,0,0,-9.962799,23.830536,271.6462)"/>
<use data-text="0" xlink:href="#font_1_121" transform="matrix(9.963197,0,0,-9.962799,28.812134,271.6462)"/>
<path transform="matrix(1.00006,0,0,-1.00002,37.62236,353.47987)" stroke-width=".3985" stroke-linecap="butt" stroke-miterlimit="10" stroke-linejoin="miter" fill="none" stroke="#000000" d="M-5.66927 99.21382H5.66927"/>
<use data-text="3" xlink:href="#font_1_106" transform="matrix(9.963197,0,0,-9.962799,23.830536,257.47193)"/>
<use data-text="5" xlink:href="#font_1_56" transform="matrix(9.963197,0,0,-9.962799,28.812134,257.47193)"/>
<path transform="matrix(1.00006,0,0,-1.00002,37.62236,353.47987)" stroke-width=".3985" stroke-linecap="butt" stroke-miterlimit="10" stroke-linejoin="miter" fill="none" stroke="#000000" d="M-5.66927 113.38724H5.66927"/>
<use data-text="4" xlink:href="#font_1_57" transform="matrix(9.963197,0,0,-9.962799,23.830536,243.35366)"/>
<use data-text="0" xlink:href="#font_1_121" transform="matrix(9.963197,0,0,-9.962799,28.812134,243.35366)"/>
<path transform="matrix(1.00006,0,0,-1.00002,37.62236,353.47987)" stroke-width=".3985" stroke-linecap="butt" stroke-miterlimit="10" stroke-linejoin="miter" fill="none" stroke="#000000" d="M-5.66927 127.56062H5.66927"/>
<use data-text="4" xlink:href="#font_1_57" transform="matrix(9.963197,0,0,-9.962799,23.830536,229.17938)"/>
<use data-text="5" xlink:href="#font_1_56" transform="matrix(9.963197,0,0,-9.962799,28.812134,229.17938)"/>
<path transform="matrix(1.00006,0,0,-1.00002,37.62236,353.47987)" stroke-width=".3985" stroke-linecap="butt" stroke-miterlimit="10" stroke-linejoin="miter" fill="none" stroke="#000000" d="M-5.66927 141.73404H5.66927"/>
<use data-text="5" xlink:href="#font_1_56" transform="matrix(9.963197,0,0,-9.962799,23.830536,214.95108)"/>
<use data-text="0" xlink:href="#font_1_121" transform="matrix(9.963197,0,0,-9.962799,28.812134,214.95108)"/>
<path transform="matrix(1.00006,0,0,-1.00002,37.62236,353.47987)" stroke-width=".3985" stroke-linecap="butt" stroke-miterlimit="10" stroke-linejoin="miter" fill="none" stroke="#000000" d="M-5.66927 155.90744H5.66927"/>
<use data-text="5" xlink:href="#font_1_56" transform="matrix(9.963197,0,0,-9.962799,23.830536,200.7778)"/>
<use data-text="5" xlink:href="#font_1_56" transform="matrix(9.963197,0,0,-9.962799,28.812134,200.7778)"/>
<path transform="matrix(1.00006,0,0,-1.00002,37.62236,353.47987)" stroke-width=".3985" stroke-linecap="butt" stroke-miterlimit="10" stroke-linejoin="miter" fill="none" stroke="#000000" d="M-5.66927 170.08086H5.66927"/>
<use data-text="6" xlink:href="#font_1_101" transform="matrix(9.963197,0,0,-9.962799,23.830536,186.60352)"/>
<use data-text="0" xlink:href="#font_1_121" transform="matrix(9.963197,0,0,-9.962799,28.812134,186.60352)"/>
<path transform="matrix(1.00006,0,0,-1.00002,37.62236,353.47987)" stroke-width=".3985" stroke-linecap="butt" stroke-miterlimit="10" stroke-linejoin="miter" fill="none" stroke="#000000" d="M-5.66927 184.25424H5.66927"/>
<use data-text="6" xlink:href="#font_1_101" transform="matrix(9.963197,0,0,-9.962799,23.830536,172.43022)"/>
<use data-text="5" xlink:href="#font_1_56" transform="matrix(9.963197,0,0,-9.962799,28.812134,172.43022)"/>
<path transform="matrix(1.00006,0,0,-1.00002,37.62236,353.47987)" stroke-width=".3985" stroke-linecap="butt" stroke-miterlimit="10" stroke-linejoin="miter" fill="none" stroke="#000000" d="M-5.66927 198.42766H5.66927"/>
<use data-text="7" xlink:href="#font_1_100" transform="matrix(9.963197,0,0,-9.962799,23.830536,158.30596)"/>
<use data-text="0" xlink:href="#font_1_121" transform="matrix(9.963197,0,0,-9.962799,28.812134,158.30596)"/>
<path transform="matrix(1.00006,0,0,-1.00002,37.62236,353.47987)" stroke-width=".3985" stroke-linecap="butt" stroke-miterlimit="10" stroke-linejoin="miter" fill="none" stroke="#000000" d="M-5.66927 212.60106H5.66927"/>
<use data-text="7" xlink:href="#font_1_100" transform="matrix(9.963197,0,0,-9.962799,23.830536,144.13266)"/>
<use data-text="5" xlink:href="#font_1_56" transform="matrix(9.963197,0,0,-9.962799,28.812134,144.13266)"/>
<path transform="matrix(1.00006,0,0,-1.00002,37.62236,353.47987)" stroke-width=".3985" stroke-linecap="butt" stroke-miterlimit="10" stroke-linejoin="miter" fill="none" stroke="#000000" d="M-5.66927 226.77448H5.66927"/>
<use data-text="8" xlink:href="#font_1_51" transform="matrix(9.963197,0,0,-9.962799,23.830536,129.9094)"/>
<use data-text="0" xlink:href="#font_1_121" transform="matrix(9.963197,0,0,-9.962799,28.812134,129.9094)"/>
<path transform="matrix(1.00006,0,0,-1.00002,37.62236,353.47987)" stroke-width=".3985" stroke-linecap="butt" stroke-miterlimit="10" stroke-linejoin="miter" fill="none" stroke="#000000" d="M-5.66927 240.94788H5.66927"/>
<use data-text="8" xlink:href="#font_1_51" transform="matrix(9.963197,0,0,-9.962799,23.830536,115.73509)"/>
<use data-text="5" xlink:href="#font_1_56" transform="matrix(9.963197,0,0,-9.962799,28.812134,115.73509)"/>
<path transform="matrix(1.00006,0,0,-1.00002,37.62236,353.47987)" stroke-width=".3985" stroke-linecap="butt" stroke-miterlimit="10" stroke-linejoin="miter" fill="none" stroke="#000000" d="M-5.66927 255.12128H5.66927"/>
<use data-text="9" xlink:href="#font_1_78" transform="matrix(9.963197,0,0,-9.962799,23.830536,101.56181)"/>
<use data-text="0" xlink:href="#font_1_121" transform="matrix(9.963197,0,0,-9.962799,28.812134,101.56181)"/>
<path transform="matrix(1.00006,0,0,-1.00002,37.62236,353.47987)" stroke-width=".3985" stroke-linecap="butt" stroke-miterlimit="10" stroke-linejoin="miter" fill="none" stroke="#000000" d="M-5.66927 269.29469H5.66927"/>
<use data-text="9" xlink:href="#font_1_78" transform="matrix(9.963197,0,0,-9.962799,23.830536,87.38751)"/>
<use data-text="5" xlink:href="#font_1_56" transform="matrix(9.963197,0,0,-9.962799,28.812134,87.38751)"/>
<path transform="matrix(1.00006,0,0,-1.00002,37.62236,353.47987)" stroke-width=".3985" stroke-linecap="butt" stroke-miterlimit="10" stroke-linejoin="miter" fill="none" stroke="#000000" d="M-5.66927 283.4681H5.66927"/>
<use data-text="1" xlink:href="#font_1_82" transform="matrix(9.963197,0,0,-9.962799,18.849236,73.21423)"/>
<use data-text="0" xlink:href="#font_1_121" transform="matrix(9.963197,0,0,-9.962799,23.830834,73.21423)"/>
<use data-text="0" xlink:href="#font_1_121" transform="matrix(9.963197,0,0,-9.962799,28.812424,73.21423)"/>
<path transform="matrix(1.00006,0,0,-1.00002,37.62236,353.47987)" stroke-width=".3985" stroke-linecap="butt" stroke-miterlimit="10" stroke-linejoin="miter" fill="none" stroke="#000000" d="M-5.66927 297.6415H5.66927"/>
<use data-text="1" xlink:href="#font_1_82" transform="matrix(9.963197,0,0,-9.962799,18.849236,59.040956)"/>
<use data-text="0" xlink:href="#font_1_121" transform="matrix(9.963197,0,0,-9.962799,23.830834,59.040956)"/>
<use data-text="5" xlink:href="#font_1_56" transform="matrix(9.963197,0,0,-9.962799,28.812424,59.040956)"/>
<path transform="matrix(1.00006,0,0,-1.00002,37.62236,353.47987)" stroke-width=".3985" stroke-linecap="butt" stroke-miterlimit="10" stroke-linejoin="miter" fill="none" stroke="#000000" d="M-5.66927 311.8149H5.66927"/>
<use data-text="1" xlink:href="#font_1_82" transform="matrix(9.963197,0,0,-9.962799,18.849236,44.86667)"/>
<use data-text="1" xlink:href="#font_1_82" transform="matrix(9.963197,0,0,-9.962799,23.830834,44.86667)"/>
<use data-text="0" xlink:href="#font_1_121" transform="matrix(9.963197,0,0,-9.962799,28.812424,44.86667)"/>
<path transform="matrix(1.00006,0,0,-1.00002,37.62236,353.47987)" stroke-width=".3985" stroke-linecap="butt" stroke-miterlimit="10" stroke-linejoin="miter" fill="none" stroke="#000000" d="M28.3468-5.66927V5.66927"/>
<use data-text="1" xlink:href="#font_1_82" transform="matrix(9.963197,0,0,-9.962799,63.47991,363.94306)"/>
<path transform="matrix(1.00006,0,0,-1.00002,37.62236,353.47987)" stroke-width=".3985" stroke-linecap="butt" stroke-miterlimit="10" stroke-linejoin="miter" fill="none" stroke="#000000" d="M56.69362-5.66927V5.66927"/>
<use data-text="2" xlink:href="#font_1_107" transform="matrix(9.963197,0,0,-9.962799,91.82861,363.94306)"/>
<path transform="matrix(1.00006,0,0,-1.00002,37.62236,353.47987)" stroke-width=".3985" stroke-linecap="butt" stroke-miterlimit="10" stroke-linejoin="miter" fill="none" stroke="#000000" d="M85.04042-5.66927V5.66927"/>
<use data-text="3" xlink:href="#font_1_106" transform="matrix(9.963197,0,0,-9.962799,120.177318,363.94306)"/>
<path transform="matrix(1.00006,0,0,-1.00002,37.62236,353.47987)" stroke-width=".3985" stroke-linecap="butt" stroke-miterlimit="10" stroke-linejoin="miter" fill="none" stroke="#000000" d="M113.38724-5.66927V5.66927"/>
<use data-text="4" xlink:href="#font_1_57" transform="matrix(9.963197,0,0,-9.962799,148.52602,364.05308)"/>
<path transform="matrix(1.00006,0,0,-1.00002,37.62236,353.47987)" stroke-width=".3985" stroke-linecap="butt" stroke-miterlimit="10" stroke-linejoin="miter" fill="none" stroke="#000000" d="M141.73404-5.66927V5.66927"/>
<use data-text="5" xlink:href="#font_1_56" transform="matrix(9.963197,0,0,-9.962799,176.8737,363.94306)"/>
<path transform="matrix(1.00006,0,0,-1.00002,37.62236,353.47987)" stroke-width=".3985" stroke-linecap="butt" stroke-miterlimit="10" stroke-linejoin="miter" fill="none" stroke="#000000" d="M170.08086-5.66927V5.66927"/>
<use data-text="6" xlink:href="#font_1_101" transform="matrix(9.963197,0,0,-9.962799,205.22241,363.94306)"/>
<path transform="matrix(1.00006,0,0,-1.00002,37.62236,353.47987)" stroke-width=".3985" stroke-linecap="butt" stroke-miterlimit="10" stroke-linejoin="miter" fill="none" stroke="#000000" d="M198.42766-5.66927V5.66927"/>
<use data-text="7" xlink:href="#font_1_100" transform="matrix(9.963197,0,0,-9.962799,233.5711,364.04307)"/>
<path transform="matrix(1.00006,0,0,-1.00002,37.62236,353.47987)" stroke-width=".3985" stroke-linecap="butt" stroke-miterlimit="10" stroke-linejoin="miter" fill="none" stroke="#000000" d="M226.77448-5.66927V5.66927"/>
<use data-text="8" xlink:href="#font_1_51" transform="matrix(9.963197,0,0,-9.962799,261.9198,363.94306)"/>
<path transform="matrix(1.00006,0,0,-1.00002,37.62236,353.47987)" stroke-width=".3985" stroke-linecap="butt" stroke-miterlimit="10" stroke-linejoin="miter" fill="none" stroke="#000000" d="M255.12128-5.66927V5.66927"/>
<use data-text="9" xlink:href="#font_1_78" transform="matrix(9.963197,0,0,-9.962799,290.2685,363.94306)"/>
<use data-text="D" xlink:href="#font_2_46" transform="matrix(9.963197,0,0,-9.962799,127.11372,7.858917)"/>
<use data-text="i" xlink:href="#font_2_66" transform="matrix(9.963197,0,0,-9.962799,135.90125,7.858917)"/>
<use data-text="s" xlink:href="#font_2_98" transform="matrix(9.963197,0,0,-9.962799,139.07953,7.858917)"/>
<use data-text="p" xlink:href="#font_2_84" transform="matrix(9.963197,0,0,-9.962799,143.60282,7.858917)"/>
<use data-text="l" xlink:href="#font_2_72" transform="matrix(9.963197,0,0,-9.962799,149.9693,7.858917)"/>
<use data-text="a" xlink:href="#font_2_28" transform="matrix(9.963197,0,0,-9.962799,153.14756,7.858917)"/>
<use data-text="c" xlink:href="#font_2_43" transform="matrix(9.963197,0,0,-9.962799,158.71698,7.858917)"/>
<use data-text="e" xlink:href="#font_2_50" transform="matrix(9.963197,0,0,-9.962799,163.80817,7.858917)"/>
<use data-text="m" xlink:href="#font_2_75" transform="matrix(9.963197,0,0,-9.962799,169.05878,7.858917)"/>
<use data-text="e" xlink:href="#font_2_50" transform="matrix(9.963197,0,0,-9.962799,178.60352,7.858917)"/>
<use data-text="n" xlink:href="#font_2_77" transform="matrix(9.963197,0,0,-9.962799,183.85413,7.858917)"/>
<use data-text="t" xlink:href="#font_2_105" transform="matrix(9.963197,0,0,-9.962799,189.91178,7.858917)"/>
<use data-text="-" xlink:href="#font_2_64" transform="matrix(9.963197,0,0,-9.962799,194.3653,7.858917)"/>
<use data-text="T" xlink:href="#font_2_104" transform="matrix(9.963197,0,0,-9.962799,198.18122,7.858917)"/>
<use data-text="i" xlink:href="#font_2_66" transform="matrix(9.963197,0,0,-9.962799,206.15177,7.858917)"/>
<use data-text="m" xlink:href="#font_2_75" transform="matrix(9.963197,0,0,-9.962799,209.33002,7.858917)"/>
<use data-text="e" xlink:href="#font_2_50" transform="matrix(9.963197,0,0,-9.962799,218.87476,7.858917)"/>
<use data-text="G" xlink:href="#font_2_58" transform="matrix(9.963197,0,0,-9.962799,227.9313,7.858917)"/>
<use data-text="r" xlink:href="#font_2_96" transform="matrix(9.963197,0,0,-9.962799,236.93805,7.858917)"/>
<use data-text="a" xlink:href="#font_2_28" transform="matrix(9.963197,0,0,-9.962799,241.66062,7.858917)"/>
<use data-text="p" xlink:href="#font_2_84" transform="matrix(9.963197,0,0,-9.962799,247.23004,7.858917)"/>
<use data-text="h" xlink:href="#font_2_63" transform="matrix(9.963197,0,0,-9.962799,253.59653,7.858917)"/>
<path transform="matrix(1.00006,0,0,-1.00002,37.62236,353.47987)" stroke-width=".79701" stroke-linecap="butt" stroke-miterlimit="10" stroke-linejoin="miter" fill="none" stroke="#0000ff" d="M0 0C0 0 20.48068 2.52281 28.3468 5.66927 36.21294 8.81572 48.82748 16.3846 56.69362 22.67752 64.55974 28.97043 77.1743 41.58499 85.04042 51.02432 92.90656 60.46365 105.5211 78.1239 113.38724 90.7097 121.25336 103.29549 133.86792 126.00177 141.73404 141.73404 149.60018 157.46631 162.21472 185.2182 170.08086 204.09694 177.94698 222.97566 198.42766 277.7988 198.42766 277.7988"/>
<path transform="matrix(1.00006,0,0,-1.00002,37.62236,353.47987)" stroke-width=".3985" stroke-linecap="butt" stroke-dasharray="2.98883,2.98883" stroke-miterlimit="10" stroke-linejoin="miter" fill="none" stroke="#000000" d="M198.42766 277.7988V-14.17339"/>
<use data-text="7" xlink:href="#font_3_1" transform="matrix(9.963197,0,0,-9.962799,231.23598,377.59434)"/>
<use data-text="s" xlink:href="#font_4_2" transform="matrix(9.963197,0,0,-9.962799,236.21729,377.59434)"/>
<path transform="matrix(1.00006,0,0,-1.00002,37.62236,353.47987)" stroke-width=".3985" stroke-linecap="butt" stroke-dasharray="2.98883,2.98883" stroke-miterlimit="10" stroke-linejoin="miter" fill="none" stroke="#000000" d="M198.42766 277.7988H-14.17339"/>
<use data-text="9" xlink:href="#font_3_3" transform="matrix(9.963197,0,0,-9.962799,1.2171784,78.885379)"/>
<use data-text="8" xlink:href="#font_3_2" transform="matrix(9.963197,0,0,-9.962799,6.1987764,78.885379)"/>
<use data-text="m" xlink:href="#font_4_1" transform="matrix(9.963197,0,0,-9.962799,11.1807789,78.885379)"/>
<path transform="matrix(1.00006,0,0,-1.00002,37.62236,353.47987)" d="M201.41649 277.7988C201.41649 279.44953 200.07837 280.78764 198.42766 280.78764 196.77695 280.78764 195.43883 279.44953 195.43883 277.7988 195.43883 276.1481 196.77695 274.80998 198.42766 274.80998 200.07837 274.80998 201.41649 276.1481 201.41649 277.7988ZM198.42766 277.7988"/>
</svg>
