<svg xmlns="http://www.w3.org/2000/svg" xmlns:xlink="http://www.w3.org/1999/xlink" xmlns:inkscape="http://www.inkscape.org/namespaces/inkscape" version="1.1" width="230" height="233" viewBox="0 0 230 233">
<defs>
<path id="font_1_83" d="M.6239929 .4967041C.6239929 .59465029 .5249939 .6826172 .3880005 .6826172H.034988405V.6516113H.05899048C.13598633 .6516113 .13798523 .64060977 .13798523 .6046295V.07795715C.13798523 .041992189 .13598633 .0309906 .05899048 .0309906H.034988405V0C.069992069 .0029907227 .14399719 .0029907227 .18199158 .0029907227 .21998596 .0029907227 .29499818 .0029907227 .32998658 0V.0309906H.30599977C.22898865 .0309906 .22698975 .041992189 .22698975 .07795715V.3157959H.3959961C.5159912 .3157959 .6239929 .39675904 .6239929 .4967041M.5209961 .4967041C.5209961 .4497223 .5209961 .34179688 .3619995 .34179688H.22399903V.6116333C.22399903 .64460757 .22599793 .6516113 .272995 .6516113H.3619995C.5209961 .6516113 .5209961 .54566958 .5209961 .4967041Z"/>
<path id="font_1_118" d="M.5079956 .3996582V.43066407C.4850006 .4286499 .45599366 .42765809 .43299867 .42765809L.34599305 .43066407V.3996582C.3769989 .39866639 .3929901 .3816681 .3929901 .35668946 .3929901 .34669496 .3919983 .34469605 .3869934 .33270265L.28599549 .08685303 .1749878 .35568238C.17098999 .36567689 .16899109 .36967469 .16899109 .3736725 .16899109 .3996582 .20599365 .3996582 .22499085 .3996582V.43066407L.115997318 .42765809C.08898926 .42765809 .04899597 .4286499 .018997193 .43066407V.3996582C.066986087 .3996582 .085998538 .3996582 .099990848 .36468507L.25-.000091552738 .22499085-.059066774C.20298767-.11407471 .1749878-.18309021 .11099243-.18309021 .10598755-.18309021 .08299255-.18309021 .06399536-.16503906 .09498596-.16104126 .102996829-.13905335 .102996829-.123046878 .102996829-.0970459 .083999637-.08103943 .06098938-.08103943 .040985109-.08103943 .018997193-.09403992 .018997193-.124053958 .018997193-.16905213 .06098938-.20507813 .11099243-.20507813 .17399597-.20507813 .21499634-.14804077 .23899842-.091049198L.4149933 .33569337C.44099427 .39865113 .49198915 .3996582 .5079956 .3996582Z"/>
<path id="font_1_96" d="M.3639984 .38137818C.3639984 .41337586 .33299256 .4423828 .2899933 .4423828 .21699524 .4423828 .18099976 .37538148 .16699219 .3323822V.4423828L.027999878 .43066407V.3996582C.09799194 .3996582 .10598755 .39266969 .10598755 .34370423V.07595825C.10598755 .0309906 .09498596 .0309906 .027999878 .0309906V0L.14199829 .0029907227C.18199158 .0029907227 .22898865 .0029907227 .2689972 0V.0309906H.24798584C.17399597 .0309906 .17199707 .04197693 .17199707 .07795715V.23181153C.17199707 .33137513 .21398926 .42037965 .2899933 .42037965 .29699708 .42037965 .29899598 .42037965 .30099488 .41937257 .2979889 .41838075 .27799989 .40637208 .27799989 .3803711 .27799989 .35237123 .29899598 .33737184 .32099916 .33737184 .33898927 .33737184 .3639984 .3493805 .3639984 .38137818Z"/>
<path id="font_1_28" d="M.48298646 .08912659V.14511109H.45799256V.08912659C.45799256 .03112793 .43299867 .025131226 .42199708 .025131226 .3889923 .025131226 .3849945 .070129398 .3849945 .07511902V.27508546C.3849945 .31707765 .3849945 .3560791 .34899903 .39312745 .30999757 .43223573 .2599945 .4482422 .21199036 .4482422 .12998963 .4482422 .06098938 .40115357 .06098938 .335083 .06098938 .30508424 .08099365 .28808595 .10699463 .28808595 .1349945 .28808595 .15299988 .30807496 .15299988 .33407594 .15299988 .3460846 .147995 .37908937 .101989749 .38008119 .1289978 .41519166 .17799378 .426239 .20999146 .426239 .25898744 .426239 .31599427 .38710023 .31599427 .29808045V.26107789C.2649994 .25808717 .19499207 .25508119 .13198853 .22509766 .056991579 .19110108 .03199768 .13911438 .03199768 .09512329 .03199768 .014251709 .1289978-.0107421879 .19198609-.0107421879 .2579956-.0107421879 .3039856 .029251099 .32299806 .07624817 .32699586 .036132814 .35398866-.005859375 .40098573-.005859375 .42199708-.005859375 .48298646 .008132935 .48298646 .08912659M.31599427 .14013672C.31599427 .04525757 .24398804 .011245728 .19898987 .011245728 .1499939 .011245728 .10899353 .04624939 .10899353 .09625244 .10899353 .15124512 .15098572 .23425293 .31599427 .24024964V.14013672Z"/>
<path id="font_1_75" d="M.8129883 0V.0309906C.7609863 .0309906 .73599246 .0309906 .7350006 .061019899V.25221253C.7350006 .3383026 .7350006 .36932374 .70399478 .405365 .6899872 .42237855 .6569977 .4423828 .598999 .4423828 .5149994 .4423828 .47099305 .38233949 .45399476 .34429933 .43998719 .43138124 .3659973 .4423828 .32099916 .4423828 .24798584 .4423828 .20098877 .39935304 .17298889 .33729554V.4423828L.03199768 .43066407V.3996582C.101989749 .3996582 .10998535 .39266969 .10998535 .34370423V.07595825C.10998535 .0309906 .09899902 .0309906 .03199768 .0309906V0L.14498902 .0029907227 .25698854 0V.0309906C.18998719 .0309906 .1789856 .0309906 .1789856 .07595825V.25978089C.1789856 .36431886 .25 .42037965 .31399537 .42037965 .3769989 .42037965 .3880005 .36631776 .3880005 .30926515V.076034549C.3880005 .0309906 .3769989 .0309906 .30999757 .0309906V0L.4229889 .0029907227 .5349884 0V.0309906C.46798707 .0309906 .45700074 .0309906 .45700074 .076034549V.2602234C.45700074 .36431886 .5279999 .42037965 .59199526 .42037965 .6549988 .42037965 .66600039 .36631776 .66600039 .30926515V.076034549C.66600039 .0309906 .6549988 .0309906 .58799746 .0309906V0L.70098879 .0029907227 .8129883 0Z"/>
<path id="font_1_66" d="M.24699402 0V.0309906C.18099976 .0309906 .1769867 .035995485 .1769867 .075042728V.4423828L.036987306 .43066407V.3996582C.101989749 .3996582 .11099243 .3936615 .11099243 .3447113V.07595825C.11099243 .0309906 .099990848 .0309906 .032989503 .0309906V0L.14299011 .0029907227C.17799378 .0029907227 .21299744 .0009918213 .24699402 0M.19198609 .603775C.19198609 .6307678 .16899109 .6567688 .13899231 .6567688 .10499573 .6567688 .084991458 .6287689 .084991458 .603775 .084991458 .57676699 .10798645 .55078127 .13798523 .55078127 .17199707 .55078127 .19198609 .5787811 .19198609 .603775Z"/>
<path id="font_1_47" d="M.5269928 0V.0309906C.45700074 .0309906 .44898988 .038009645 .44898988 .0871582V.69433596L.30499269 .6826172V.6516113C.375 .6516113 .3829956 .64463809 .3829956 .59580996V.38035584C.35398866 .41636659 .31098939 .4423828 .25698854 .4423828 .13899231 .4423828 .033996583 .3443451 .033996583 .21531677 .033996583 .088272098 .13198853-.0107421879 .24598694-.0107421879 .30999757-.0107421879 .35499574 .023254395 .37998963 .055267335V-.0107421879L.5269928 0M.37998963 .117996219C.37998963 .099990848 .37998963 .09799194 .36898805 .08099365 .33898927 .033218385 .2939911 .011245728 .25099183 .011245728 .20599365 .011245728 .16999817 .037216188 .1459961 .075164798 .11999512 .1161499 .116989139 .17320252 .116989139 .21421814 .116989139 .25125123 .11898804 .31129457 .147995 .35632325 .16899109 .38734437 .20698548 .42037965 .26098634 .42037965 .29599 .42037965 .33799745 .405365 .36898805 .3603363 .37998963 .34332276 .37998963 .34132386 .37998963 .32330323V.117996219Z"/>
<path id="font_1_72" d="M.25498963 0V.0309906C.18798828 .0309906 .1769867 .0309906 .1769867 .07601929V.69433596L.032989503 .6826172V.6516113C.102996829 .6516113 .11099243 .64460757 .11099243 .5956421V.07595825C.11099243 .0309906 .099990848 .0309906 .032989503 .0309906V0L.14399719 .0029907227 .25498963 0Z"/>
<path id="font_1_97" d="M.49899293 .18579102C.49899293 .2858429 .43299867 .36791993 .34899903 .38793946L.22099304 .4189453C.15899658 .43388368 .11999512 .48773194 .11999512 .5458069 .11999512 .61595156 .17399597 .677063 .2519989 .677063 .4189911 .677063 .44099427 .5127411 .44699098 .46777345 .44799806 .461792 .44799806 .45581056 .45899964 .45581056 .47200013 .45581056 .47200013 .46080018 .47200013 .47973634V.68107607C.47200013 .69807437 .47200013 .7050781 .46099855 .7050781 .45399476 .7050781 .45298768 .70407107 .44599916 .69207766L.41099549 .63497927C.3809967 .66404727 .33999635 .7050781 .25099183 .7050781 .13999939 .7050781 .055999757 .61694338 .055999757 .5107422 .055999757 .42790223 .10899353 .35490418 .18699646 .32788087 .19799805 .32388307 .24899292 .3118744 .31900025 .29486085 .34599305 .28785707 .37599183 .280838 .4039917 .24382019 .4249878 .2177887 .43499757 .18478394 .43499757 .1517334 .43499757 .0806427 .3849945 .008529663 .30099488 .008529663 .27198792 .008529663 .19599915 .013534546 .14299011 .06260681 .084991458 .11668396 .08198547 .18078614 .08099365 .21679688 .07998657 .22679138 .07199097 .22679138 .068984989 .22679138 .055999757 .22679138 .055999757 .2197876 .055999757 .20178223V.0015258789C.055999757-.015472412 .055999757-.022460938 .066986087-.022460938 .07398987-.022460938 .07499695-.020462037 .08198547-.009475708 .08198547-.009475708 .084991458-.0054626467 .117996219 .047592164 .14898682 .013534546 .21299744-.022460938 .3019867-.022460938 .4189911-.022460938 .49899293 .07562256 .49899293 .18579102Z"/>
<path id="font_1_105" d="M.33198548 .12385559V.18066406H.30699159V.12585449C.30699159 .052108766 .2769928 .014251709 .23999024 .014251709 .17298889 .014251709 .17298889 .10491943 .17298889 .12187195V.3996582H.31599427V.43066407H.17298889V.6142578H.147995C.14698792 .5324249 .116989139 .42565919 .018997193 .42166139V.3996582H.10398865V.12408447C.10398865 .0012512207 .19699097-.0107421879 .23298645-.0107421879 .3039856-.0107421879 .33198548 .060180665 .33198548 .12408447V.12385559Z"/>
<path id="font_1_43" d="M.4149933 .119140628C.4149933 .12911988 .40499879 .12911988 .4019928 .12911988 .3929901 .12911988 .3909912 .12512207 .3889923 .119140628 .3600006 .026229859 .29499818 .014251709 .2579956 .014251709 .20498657 .014251709 .116989139 .0572052 .116989139 .21801758 .116989139 .38093568 .19898987 .42323304 .2519989 .42323304 .26098634 .42323304 .32398988 .42222596 .35899354 .38594056 .31799317 .38293458 .31199647 .3529358 .31199647 .3399353 .31199647 .31393434 .32998658 .2939453 .35798646 .2939453 .38398744 .2939453 .4039917 .3109436 .4039917 .34094239 .4039917 .40911866 .32798768 .4482422 .25099183 .4482422 .12599182 .4482422 .033996583 .3399353 .033996583 .21601868 .033996583 .08816528 .1329956-.0107421879 .24899292-.0107421879 .3829956-.0107421879 .4149933 .10914612 .4149933 .119140628Z"/>
<path id="font_1_70" d="M.5109863 0V.0309906C.47399903 .0309906 .45199586 .0309906 .4139862 .0839386L.2869873 .26278688C.28599549 .26478578 .2809906 .2707672 .2809906 .2737732 .2809906 .277771 .35198976 .33770753 .3619995 .34570313 .4249878 .39666749 .46699525 .39865113 .48799134 .3996582V.43066407C.45899964 .42765809 .44599916 .42765809 .41799928 .42765809 .38198854 .42765809 .31999208 .42965699 .30599977 .43066407V.3996582C.32499696 .39865113 .33499146 .3876648 .33499146 .37467958 .33499146 .3547058 .32099916 .3427124 .31298829 .33570863L.17199707 .21382141V.69433596L.027999878 .6826172V.6516113C.09799194 .6516113 .10598755 .64460757 .10598755 .5956421V.07595825C.10598755 .0309906 .09498596 .0309906 .027999878 .0309906V0L.13699341 .0029907227 .24699402 0V.0309906C.17999268 .0309906 .16899109 .0309906 .16899109 .07595825V.17889405L.23298645 .23387146C.30999757 .12792969 .35198976 .07196045 .35198976 .053985597 .35198976 .034988405 .33499146 .0309906 .31599427 .0309906V0L.42399598 .0029907227C.45298768 .0029907227 .48199464 .0019989014 .5109863 0Z"/>
<path id="font_1_81" d="M.47099305 .21424866C.47099305 .34223939 .37098695 .4482422 .25 .4482422 .125 .4482422 .027999878 .3392334 .027999878 .21424866 .027999878 .085250858 .13198853-.0107421879 .24899292-.0107421879 .36999513-.0107421879 .47099305 .087249759 .47099305 .21424866M.3880005 .22224427C.3880005 .18624878 .3880005 .13224793 .3659973 .08824158 .34399415 .04324341 .2999878 .014251709 .25 .014251709 .20698548 .014251709 .16299439 .035247804 .13598633 .08125305 .11099243 .12524414 .11099243 .18624878 .11099243 .22224427 .11099243 .26124574 .11099243 .31523133 .1349945 .35923768 .1619873 .40522767 .20899964 .426239 .24899292 .426239 .29299928 .426239 .33599855 .40423585 .3619995 .36123658 .3880005 .3182373 .3880005 .26023866 .3880005 .22224427Z"/>
<path id="font_1_55" d="M.35699464 .63479617C.35699464 .6717987 .31999208 .7050781 .2669983 .7050781 .19699097 .7050781 .11199951 .65179446 .11199951 .5457611V.43066407H.032989503V.3996582H.11199951V.07595825C.11199951 .0309906 .100997928 .0309906 .033996583 .0309906V0L.147995 .0029907227C.18798828 .0029907227 .23498535 .0029907227 .2749939 0V.0309906H.2539978C.17999268 .0309906 .17799378 .04197693 .17799378 .07795715V.3996582H.2919922V.43066407H.1749878V.5467529C.1749878 .63479617 .22299195 .68307498 .2669983 .68307498 .269989 .68307498 .2849884 .68307498 .2999878 .675827 .28799439 .6717987 .269989 .6587982 .269989 .6338043 .269989 .61079409 .28599549 .5907898 .31298829 .5907898 .34199525 .5907898 .35699464 .61079409 .35699464 .63479617Z"/>
<path id="font_1_80" d="M.72099307 .3387909C.72099307 .5429535 .56999209 .7050781 .3880005 .7050781 .20899964 .7050781 .055999757 .5449524 .055999757 .3387909 .055999757 .13363648 .20999146-.022460938 .3880005-.022460938 .56999209-.022460938 .72099307 .13664246 .72099307 .3387909M.6179962 .35281373C.6179962 .08760071 .48098756 .0035247803 .3889923 .0035247803 .29299928 .0035247803 .15899658 .09159851 .15899658 .35281373 .15899658 .6120148 .30499269 .68006899 .3880005 .68006899 .47499085 .68006899 .6179962 .6090088 .6179962 .35281373Z"/>
<path id="font_1_77" d="M.5349884 0V.0309906C.48298646 .0309906 .45799256 .0309906 .45700074 .061019899V.25221253C.45700074 .3383026 .45700074 .36932374 .42599488 .405365 .4119873 .42237855 .3789978 .4423828 .32099916 .4423828 .24798584 .4423828 .20098877 .39935304 .17298889 .33729554V.4423828L.03199768 .43066407V.3996582C.101989749 .3996582 .10998535 .39266969 .10998535 .34370423V.07595825C.10998535 .0309906 .09899902 .0309906 .03199768 .0309906V0L.14498902 .0029907227 .25698854 0V.0309906C.18998719 .0309906 .1789856 .0309906 .1789856 .07595825V.25978089C.1789856 .36431886 .25 .42037965 .31399537 .42037965 .3769989 .42037965 .3880005 .36631776 .3880005 .30926515V.076034549C.3880005 .0309906 .3769989 .0309906 .30999757 .0309906V0L.4229889 .0029907227 .5349884 0Z"/>
<path id="font_1_59" d="M.4850006 .40411378C.4850006 .42111207 .47299195 .453125 .43399049 .453125 .4139862 .453125 .36999513 .44711305 .32798768 .40611268 .28599549 .43937684 .24398804 .4423828 .22200012 .4423828 .1289978 .4423828 .05999756 .37338258 .05999756 .29638673 .05999756 .25239564 .08198547 .21440125 .10699463 .19340515 .09399414 .17840576 .07598877 .14538574 .07598877 .11035156 .07598877 .07899475 .08898926 .04083252 .11999512 .020828248 .05999756 .003829956 .027999878-.039138795 .027999878-.07911682 .027999878-.15107727 .1269989-.20605469 .24899292-.20605469 .36698915-.20605469 .47099305-.15507508 .47099305-.07711792 .47099305-.042144777 .45700074 .008834839 .4059906 .036834718 .35299684 .064834598 .29499818 .064834598 .23399353 .064834598 .20899964 .064834598 .1659851 .064834598 .15899658 .065841678 .1269989 .069885257 .10598755 .101242069 .10598755 .13334656 .10598755 .13735962 .10598755 .16040039 .12298584 .18040467 .1619873 .15240479 .20298767 .14941406 .22200012 .14941406 .31498719 .14941406 .38398744 .21839905 .38398744 .2953949 .38398744 .3323822 .36799623 .36938478 .34298707 .39237977 .3789978 .42637635 .4149933 .43138124 .43299867 .43138124 .43299867 .43112184 .43998719 .43112184 .44299317 .43011476 .43199159 .42611695 .4269867 .41513063 .4269867 .40315248 .4269867 .38616944 .43998719 .37417604 .45599366 .37417604 .46598817 .37417604 .4850006 .3811798 .4850006 .4041443V.40411378M.30899049 .29626466C.30899049 .26930238 .30799867 .2373352 .29299928 .21235657 .2849884 .20037842 .2619934 .17240906 .22200012 .17240906 .1349945 .17240906 .1349945 .2722931 .1349945 .29527284 .1349945 .3222351 .13598633 .35420228 .15098572 .3791809 .15899658 .3913269 .18199158 .41937257 .22200012 .41937257 .30899049 .41937257 .30899049 .31922914 .30899049 .29618836V.29626466M.4189911-.07911682C.4189911-.13308716 .34799195-.18305969 .25-.18305969 .14898682-.18305969 .07998657-.13209534 .07998657-.07911682 .07998657-.03314209 .117996219 .003829956 .1619873 .0068359377H.22099304C.30699159 .0068359377 .4189911 .0068359377 .4189911-.07911682Z"/>
<path id="font_1_50" d="M.4149933 .11933899C.4149933 .12934876 .40699769 .13134766 .4019928 .13134766 .3929901 .13134766 .3909912 .12535095 .3889923 .11734009 .35398866 .014251709 .2639923 .014251709 .2539978 .014251709 .20399475 .014251709 .1639862 .044281007 .14099121 .08131409 .11099243 .12934876 .11099243 .19540406 .11099243 .23144531H.3899994C.4119873 .23144531 .4149933 .23144531 .4149933 .2524414 .4149933 .35131837 .36099244 .4482422 .23599243 .4482422 .11999512 .4482422 .027999878 .34532167 .027999878 .22042847 .027999878 .08631897 .1329956-.0107421879 .24798584-.0107421879 .36999513-.0107421879 .4149933 .10032654 .4149933 .11933899M.34899903 .2524414H.11199951C.117996219 .40126039 .20199585 .426239 .23599243 .426239 .33898927 .426239 .34899903 .2913971 .34899903 .2524414Z"/>
<path id="font_1_98" d="M.3600006 .12823487C.3600006 .18122864 .32998658 .21122742 .31799317 .22323609 .2849884 .25523377 .24598694 .26322938 .20399475 .27124024 .147995 .28224183 .08099365 .29522706 .08099365 .35324098 .08099365 .38822938 .10699463 .42922975 .19299317 .42922975 .30299378 .42922975 .30799867 .3392334 .30999757 .30822755 .31098939 .2992401 .32199098 .2992401 .32199098 .2992401 .33499146 .2992401 .33499146 .30422975 .33499146 .32322694V.4242401C.33499146 .4412384 .33499146 .4482422 .32398988 .4482422 .31900025 .4482422 .31698609 .4482422 .3039856 .43623353 .30099488 .43223573 .29100038 .42323304 .2869873 .42022706 .24899292 .4482422 .20799256 .4482422 .19299317 .4482422 .070999149 .4482422 .032989503 .38124085 .032989503 .3252411 .032989503 .29023744 .04899597 .26223756 .07598877 .24023438 .10798645 .2142334 .13598633 .2082367 .20799256 .19422913 .22999573 .19021607 .31199647 .17422486 .31199647 .10221863 .31199647 .051223756 .2769928 .011245728 .19898987 .011245728 .114990238 .011245728 .07899475 .068222049 .05999756 .1532135 .056991579 .16621399 .055999757 .17021179 .04598999 .17021179 .032989503 .17021179 .032989503 .16322327 .032989503 .1452179V.013214111C.032989503-.003753662 .032989503-.0107421879 .04399109-.0107421879 .04899597-.0107421879 .049987794-.009750366 .068984989 .009246826 .070999149 .011245728 .070999149 .013214111 .08898926 .032226564 .1329956-.009750366 .17799378-.0107421879 .19898987-.0107421879 .31399537-.0107421879 .3600006 .05621338 .3600006 .1282196V.12823487Z"/>
</defs>
<path transform="matrix(1,0,0,-1.00005,29.641999,183.54436)" d="M28.3468 0C28.3468 15.6557 15.6557 28.3468 0 28.3468-15.6557 28.3468-28.3468 15.6557-28.3468 0-28.3468-15.6557-15.6557-28.3468 0-28.3468 15.6557-28.3468 28.3468-15.6557 28.3468 0ZM0 0" fill="#ff8000"/>
<path transform="matrix(1,0,0,-1.00005,29.641999,183.54436)" stroke-width=".3985" stroke-linecap="butt" stroke-miterlimit="10" stroke-linejoin="miter" fill="none" stroke="#000000" d="M28.3468 0C28.3468 15.6557 15.6557 28.3468 0 28.3468-15.6557 28.3468-28.3468 15.6557-28.3468 0-28.3468-15.6557-15.6557-28.3468 0-28.3468 15.6557-28.3468 28.3468-15.6557 28.3468 0ZM0 0"/>
<path transform="matrix(1,0,0,-1.00005,29.641999,183.54436)" d="M11.9056 22.67752C11.9056 24.5561 10.38272 26.07898 8.50412 26.07898 6.62552 26.07898 5.10265 24.5561 5.10265 22.67752 5.10265 20.79892 6.62552 19.27605 8.50412 19.27605 10.38272 19.27605 11.9056 20.79892 11.9056 22.67752ZM8.50412 22.67752"/>
<path transform="matrix(1,0,0,-1.00005,29.641999,183.54436)" d="M12.27454 35.43349C10.709 38.1451 3.94447 37.17046-2.83463 33.25655-9.61375 29.34262-13.84009 23.97173-12.27454 21.26012-10.709 18.54851-3.94447 19.52315 2.83463 23.43706 9.61375 27.35098 13.84009 32.7219 12.27454 35.43349ZM0 28.3468" fill="#009900"/>
<path transform="matrix(1,0,0,-1.00005,29.641999,183.54436)" stroke-width=".3985" stroke-linecap="butt" stroke-miterlimit="10" stroke-linejoin="miter" fill="none" stroke="#000000" d="M12.27454 35.43349C10.709 38.1451 3.94447 37.17046-2.83463 33.25655-9.61375 29.34262-13.84009 23.97173-12.27454 21.26012-10.709 18.54851-3.94447 19.52315 2.83463 23.43706 9.61375 27.35098 13.84009 32.7219 12.27454 35.43349ZM0 28.3468"/>
<path transform="matrix(1,0,0,-1.00005,29.641999,183.54436)" d="M85.04042 0C85.04042 15.6557 72.34932 28.3468 56.69362 28.3468 41.0379 28.3468 28.3468 15.6557 28.3468 0 28.3468-15.6557 41.0379-28.3468 56.69362-28.3468 72.34932-28.3468 85.04042-15.6557 85.04042 0ZM56.69362 0" fill="#ff8000"/>
<path transform="matrix(1,0,0,-1.00005,29.641999,183.54436)" stroke-width=".3985" stroke-linecap="butt" stroke-miterlimit="10" stroke-linejoin="miter" fill="none" stroke="#000000" d="M85.04042 0C85.04042 15.6557 72.34932 28.3468 56.69362 28.3468 41.0379 28.3468 28.3468 15.6557 28.3468 0 28.3468-15.6557 41.0379-28.3468 56.69362-28.3468 72.34932-28.3468 85.04042-15.6557 85.04042 0ZM56.69362 0"/>
<path transform="matrix(1,0,0,-1.00005,29.641999,183.54436)" d="M68.59921 22.67752C68.59921 24.5561 67.07634 26.07898 65.19774 26.07898 63.31914 26.07898 61.79626 24.5561 61.79626 22.67752 61.79626 20.79892 63.31914 19.27605 65.19774 19.27605 67.07634 19.27605 68.59921 20.79892 68.59921 22.67752ZM65.19774 22.67752"/>
<path transform="matrix(1,0,0,-1.00005,29.641999,183.54436)" d="M68.96815 35.43349C67.40262 38.1451 60.6381 37.17046 53.85898 33.25655 47.07985 29.34262 42.85352 23.97173 44.41907 21.26012 45.9846 18.54851 52.74913 19.52315 59.52824 23.43706 66.30737 27.35098 70.5337 32.7219 68.96815 35.43349ZM56.69362 28.3468" fill="#009900"/>
<path transform="matrix(1,0,0,-1.00005,29.641999,183.54436)" stroke-width=".3985" stroke-linecap="butt" stroke-miterlimit="10" stroke-linejoin="miter" fill="none" stroke="#000000" d="M68.96815 35.43349C67.40262 38.1451 60.6381 37.17046 53.85898 33.25655 47.07985 29.34262 42.85352 23.97173 44.41907 21.26012 45.9846 18.54851 52.74913 19.52315 59.52824 23.43706 66.30737 27.35098 70.5337 32.7219 68.96815 35.43349ZM56.69362 28.3468"/>
<path transform="matrix(1,0,0,-1.00005,29.641999,183.54436)" d="M141.73404 0C141.73404 15.6557 129.04294 28.3468 113.38724 28.3468 97.73152 28.3468 85.04042 15.6557 85.04042 0 85.04042-15.6557 97.73152-28.3468 113.38724-28.3468 129.04294-28.3468 141.73404-15.6557 141.73404 0ZM113.38724 0" fill="#ff8000"/>
<path transform="matrix(1,0,0,-1.00005,29.641999,183.54436)" stroke-width=".3985" stroke-linecap="butt" stroke-miterlimit="10" stroke-linejoin="miter" fill="none" stroke="#000000" d="M141.73404 0C141.73404 15.6557 129.04294 28.3468 113.38724 28.3468 97.73152 28.3468 85.04042 15.6557 85.04042 0 85.04042-15.6557 97.73152-28.3468 113.38724-28.3468 129.04294-28.3468 141.73404-15.6557 141.73404 0ZM113.38724 0"/>
<path transform="matrix(1,0,0,-1.00005,29.641999,183.54436)" d="M125.29283 22.67752C125.29283 24.5561 123.76996 26.07898 121.89136 26.07898 120.01276 26.07898 118.48988 24.5561 118.48988 22.67752 118.48988 20.79892 120.01276 19.27605 121.89136 19.27605 123.76996 19.27605 125.29283 20.79892 125.29283 22.67752ZM121.89136 22.67752"/>
<path transform="matrix(1,0,0,-1.00005,29.641999,183.54436)" d="M125.66177 35.43349C124.09624 38.1451 117.33173 37.17046 110.5526 33.25655 103.77347 29.34262 99.54713 23.97173 101.11269 21.26012 102.67822 18.54851 109.44275 19.52315 116.22186 23.43706 123.00099 27.35098 127.22733 32.7219 125.66177 35.43349ZM113.38724 28.3468" fill="#009900"/>
<path transform="matrix(1,0,0,-1.00005,29.641999,183.54436)" stroke-width=".3985" stroke-linecap="butt" stroke-miterlimit="10" stroke-linejoin="miter" fill="none" stroke="#000000" d="M125.66177 35.43349C124.09624 38.1451 117.33173 37.17046 110.5526 33.25655 103.77347 29.34262 99.54713 23.97173 101.11269 21.26012 102.67822 18.54851 109.44275 19.52315 116.22186 23.43706 123.00099 27.35098 127.22733 32.7219 125.66177 35.43349ZM113.38724 28.3468"/>
<path transform="matrix(1,0,0,-1.00005,29.641999,183.54436)" d="M198.42766 0C198.42766 15.6557 185.73656 28.3468 170.08086 28.3468 154.42514 28.3468 141.73404 15.6557 141.73404 0 141.73404-15.6557 154.42514-28.3468 170.08086-28.3468 185.73656-28.3468 198.42766-15.6557 198.42766 0ZM170.08086 0" fill="#ff8000"/>
<path transform="matrix(1,0,0,-1.00005,29.641999,183.54436)" stroke-width=".3985" stroke-linecap="butt" stroke-miterlimit="10" stroke-linejoin="miter" fill="none" stroke="#000000" d="M198.42766 0C198.42766 15.6557 185.73656 28.3468 170.08086 28.3468 154.42514 28.3468 141.73404 15.6557 141.73404 0 141.73404-15.6557 154.42514-28.3468 170.08086-28.3468 185.73656-28.3468 198.42766-15.6557 198.42766 0ZM170.08086 0"/>
<path transform="matrix(1,0,0,-1.00005,29.641999,183.54436)" d="M181.98645 22.67752C181.98645 24.5561 180.46358 26.07898 178.58498 26.07898 176.70638 26.07898 175.1835 24.5561 175.1835 22.67752 175.1835 20.79892 176.70638 19.27605 178.58498 19.27605 180.46358 19.27605 181.98645 20.79892 181.98645 22.67752ZM178.58498 22.67752"/>
<path transform="matrix(1,0,0,-1.00005,29.641999,183.54436)" d="M182.35541 35.43349C180.78986 38.1451 174.02535 37.17046 167.24622 33.25655 160.46709 29.34262 156.24076 23.97173 157.8063 21.26012 159.37184 18.54851 166.13637 19.52315 172.91548 23.43706 179.69461 27.35098 183.92095 32.7219 182.35541 35.43349ZM170.08086 28.3468" fill="#009900"/>
<path transform="matrix(1,0,0,-1.00005,29.641999,183.54436)" stroke-width=".3985" stroke-linecap="butt" stroke-miterlimit="10" stroke-linejoin="miter" fill="none" stroke="#000000" d="M182.35541 35.43349C180.78986 38.1451 174.02535 37.17046 167.24622 33.25655 160.46709 29.34262 156.24076 23.97173 157.8063 21.26012 159.37184 18.54851 166.13637 19.52315 172.91548 23.43706 179.69461 27.35098 183.92095 32.7219 182.35541 35.43349ZM170.08086 28.3468"/>
<path transform="matrix(1,0,0,-1.00005,29.641999,183.54436)" d="M56.69362 48.18947C56.69362 63.84518 44.00252 76.53629 28.3468 76.53629 12.69109 76.53629 0 63.84518 0 48.18947 0 32.53377 12.69109 19.84267 28.3468 19.84267 44.00252 19.84267 56.69362 32.53377 56.69362 48.18947ZM28.3468 48.18947" fill="#ff8000"/>
<path transform="matrix(1,0,0,-1.00005,29.641999,183.54436)" stroke-width=".3985" stroke-linecap="butt" stroke-miterlimit="10" stroke-linejoin="miter" fill="none" stroke="#000000" d="M56.69362 48.18947C56.69362 63.84518 44.00252 76.53629 28.3468 76.53629 12.69109 76.53629 0 63.84518 0 48.18947 0 32.53377 12.69109 19.84267 28.3468 19.84267 44.00252 19.84267 56.69362 32.53377 56.69362 48.18947ZM28.3468 48.18947"/>
<path transform="matrix(1,0,0,-1.00005,29.641999,183.54436)" d="M40.2524 70.867C40.2524 72.7456 38.72952 74.26848 36.85092 74.26848 34.97232 74.26848 33.44945 72.7456 33.44945 70.867 33.44945 68.9884 34.97232 67.46553 36.85092 67.46553 38.72952 67.46553 40.2524 68.9884 40.2524 70.867ZM36.85092 70.867"/>
<path transform="matrix(1,0,0,-1.00005,29.641999,183.54436)" d="M40.62135 83.62297C39.0558 86.33458 32.29129 85.35994 25.51216 81.44601 18.73305 77.5321 14.50671 72.1612 16.07225 69.44958 17.6378 66.73799 24.40231 67.71263 31.18144 71.62654 37.96057 75.54047 42.18689 80.91136 40.62135 83.62297ZM28.3468 76.53629" fill="#009900"/>
<path transform="matrix(1,0,0,-1.00005,29.641999,183.54436)" stroke-width=".3985" stroke-linecap="butt" stroke-miterlimit="10" stroke-linejoin="miter" fill="none" stroke="#000000" d="M40.62135 83.62297C39.0558 86.33458 32.29129 85.35994 25.51216 81.44601 18.73305 77.5321 14.50671 72.1612 16.07225 69.44958 17.6378 66.73799 24.40231 67.71263 31.18144 71.62654 37.96057 75.54047 42.18689 80.91136 40.62135 83.62297ZM28.3468 76.53629"/>
<path transform="matrix(1,0,0,-1.00005,29.641999,183.54436)" d="M113.38724 48.18947C113.38724 63.84518 100.69614 76.53629 85.04042 76.53629 69.3847 76.53629 56.69362 63.84518 56.69362 48.18947 56.69362 32.53377 69.3847 19.84267 85.04042 19.84267 100.69614 19.84267 113.38724 32.53377 113.38724 48.18947ZM85.04042 48.18947" fill="#ff8000"/>
<path transform="matrix(1,0,0,-1.00005,29.641999,183.54436)" stroke-width=".3985" stroke-linecap="butt" stroke-miterlimit="10" stroke-linejoin="miter" fill="none" stroke="#000000" d="M113.38724 48.18947C113.38724 63.84518 100.69614 76.53629 85.04042 76.53629 69.3847 76.53629 56.69362 63.84518 56.69362 48.18947 56.69362 32.53377 69.3847 19.84267 85.04042 19.84267 100.69614 19.84267 113.38724 32.53377 113.38724 48.18947ZM85.04042 48.18947"/>
<path transform="matrix(1,0,0,-1.00005,29.641999,183.54436)" d="M96.94601 70.867C96.94601 72.7456 95.42314 74.26848 93.54454 74.26848 91.66594 74.26848 90.14307 72.7456 90.14307 70.867 90.14307 68.9884 91.66594 67.46553 93.54454 67.46553 95.42314 67.46553 96.94601 68.9884 96.94601 70.867ZM93.54454 70.867"/>
<path transform="matrix(1,0,0,-1.00005,29.641999,183.54436)" d="M97.31497 83.62297C95.74942 86.33458 88.98491 85.35994 82.20578 81.44601 75.42667 77.5321 71.20033 72.1612 72.76587 69.44958 74.33142 66.73799 81.09593 67.71263 87.87506 71.62654 94.65419 75.54047 98.88051 80.91136 97.31497 83.62297ZM85.04042 76.53629" fill="#009900"/>
<path transform="matrix(1,0,0,-1.00005,29.641999,183.54436)" stroke-width=".3985" stroke-linecap="butt" stroke-miterlimit="10" stroke-linejoin="miter" fill="none" stroke="#000000" d="M97.31497 83.62297C95.74942 86.33458 88.98491 85.35994 82.20578 81.44601 75.42667 77.5321 71.20033 72.1612 72.76587 69.44958 74.33142 66.73799 81.09593 67.71263 87.87506 71.62654 94.65419 75.54047 98.88051 80.91136 97.31497 83.62297ZM85.04042 76.53629"/>
<path transform="matrix(1,0,0,-1.00005,29.641999,183.54436)" d="M170.08086 48.18947C170.08086 63.84518 157.38976 76.53629 141.73404 76.53629 126.07832 76.53629 113.38724 63.84518 113.38724 48.18947 113.38724 32.53377 126.07832 19.84267 141.73404 19.84267 157.38976 19.84267 170.08086 32.53377 170.08086 48.18947ZM141.73404 48.18947" fill="#ff8000"/>
<path transform="matrix(1,0,0,-1.00005,29.641999,183.54436)" stroke-width=".3985" stroke-linecap="butt" stroke-miterlimit="10" stroke-linejoin="miter" fill="none" stroke="#000000" d="M170.08086 48.18947C170.08086 63.84518 157.38976 76.53629 141.73404 76.53629 126.07832 76.53629 113.38724 63.84518 113.38724 48.18947 113.38724 32.53377 126.07832 19.84267 141.73404 19.84267 157.38976 19.84267 170.08086 32.53377 170.08086 48.18947ZM141.73404 48.18947"/>
<path transform="matrix(1,0,0,-1.00005,29.641999,183.54436)" d="M153.63964 70.867C153.63964 72.7456 152.11676 74.26848 150.23816 74.26848 148.35956 74.26848 146.83669 72.7456 146.83669 70.867 146.83669 68.9884 148.35956 67.46553 150.23816 67.46553 152.11676 67.46553 153.63964 68.9884 153.63964 70.867ZM150.23816 70.867"/>
<path transform="matrix(1,0,0,-1.00005,29.641999,183.54436)" d="M154.00859 83.62297C152.44304 86.33458 145.67853 85.35994 138.8994 81.44601 132.12029 77.5321 127.89395 72.1612 129.45949 69.44958 131.02504 66.73799 137.78955 67.71263 144.56868 71.62654 151.34781 75.54047 155.57415 80.91136 154.00859 83.62297ZM141.73404 76.53629" fill="#009900"/>
<path transform="matrix(1,0,0,-1.00005,29.641999,183.54436)" stroke-width=".3985" stroke-linecap="butt" stroke-miterlimit="10" stroke-linejoin="miter" fill="none" stroke="#000000" d="M154.00859 83.62297C152.44304 86.33458 145.67853 85.35994 138.8994 81.44601 132.12029 77.5321 127.89395 72.1612 129.45949 69.44958 131.02504 66.73799 137.78955 67.71263 144.56868 71.62654 151.34781 75.54047 155.57415 80.91136 154.00859 83.62297ZM141.73404 76.53629"/>
<path transform="matrix(1,0,0,-1.00005,29.641999,183.54436)" d="M85.04042 96.37897C85.04042 112.03468 72.34932 124.72578 56.69362 124.72578 41.0379 124.72578 28.3468 112.03468 28.3468 96.37897 28.3468 80.72325 41.0379 68.03217 56.69362 68.03217 72.34932 68.03217 85.04042 80.72325 85.04042 96.37897ZM56.69362 96.37897" fill="#ff8000"/>
<path transform="matrix(1,0,0,-1.00005,29.641999,183.54436)" stroke-width=".3985" stroke-linecap="butt" stroke-miterlimit="10" stroke-linejoin="miter" fill="none" stroke="#000000" d="M85.04042 96.37897C85.04042 112.03468 72.34932 124.72578 56.69362 124.72578 41.0379 124.72578 28.3468 112.03468 28.3468 96.37897 28.3468 80.72325 41.0379 68.03217 56.69362 68.03217 72.34932 68.03217 85.04042 80.72325 85.04042 96.37897ZM56.69362 96.37897"/>
<path transform="matrix(1,0,0,-1.00005,29.641999,183.54436)" d="M68.59921 119.0565C68.59921 120.9351 67.07634 122.45798 65.19774 122.45798 63.31914 122.45798 61.79626 120.9351 61.79626 119.0565 61.79626 117.1779 63.31914 115.65503 65.19774 115.65503 67.07634 115.65503 68.59921 117.1779 68.59921 119.0565ZM65.19774 119.0565"/>
<path transform="matrix(1,0,0,-1.00005,29.641999,183.54436)" d="M68.96815 131.81247C67.40262 134.52408 60.6381 133.54944 53.85898 129.63552 47.07985 125.7216 42.85352 120.3507 44.41907 117.63908 45.9846 114.92747 52.74913 115.90213 59.52824 119.81604 66.30737 123.72997 70.5337 129.10086 68.96815 131.81247ZM56.69362 124.72578" fill="#009900"/>
<path transform="matrix(1,0,0,-1.00005,29.641999,183.54436)" stroke-width=".3985" stroke-linecap="butt" stroke-miterlimit="10" stroke-linejoin="miter" fill="none" stroke="#000000" d="M68.96815 131.81247C67.40262 134.52408 60.6381 133.54944 53.85898 129.63552 47.07985 125.7216 42.85352 120.3507 44.41907 117.63908 45.9846 114.92747 52.74913 115.90213 59.52824 119.81604 66.30737 123.72997 70.5337 129.10086 68.96815 131.81247ZM56.69362 124.72578"/>
<path transform="matrix(1,0,0,-1.00005,29.641999,183.54436)" d="M141.73404 96.37897C141.73404 112.03468 129.04294 124.72578 113.38724 124.72578 97.73152 124.72578 85.04042 112.03468 85.04042 96.37897 85.04042 80.72325 97.73152 68.03217 113.38724 68.03217 129.04294 68.03217 141.73404 80.72325 141.73404 96.37897ZM113.38724 96.37897" fill="#ff8000"/>
<path transform="matrix(1,0,0,-1.00005,29.641999,183.54436)" stroke-width=".3985" stroke-linecap="butt" stroke-miterlimit="10" stroke-linejoin="miter" fill="none" stroke="#000000" d="M141.73404 96.37897C141.73404 112.03468 129.04294 124.72578 113.38724 124.72578 97.73152 124.72578 85.04042 112.03468 85.04042 96.37897 85.04042 80.72325 97.73152 68.03217 113.38724 68.03217 129.04294 68.03217 141.73404 80.72325 141.73404 96.37897ZM113.38724 96.37897"/>
<path transform="matrix(1,0,0,-1.00005,29.641999,183.54436)" d="M125.29283 119.0565C125.29283 120.9351 123.76996 122.45798 121.89136 122.45798 120.01276 122.45798 118.48988 120.9351 118.48988 119.0565 118.48988 117.1779 120.01276 115.65503 121.89136 115.65503 123.76996 115.65503 125.29283 117.1779 125.29283 119.0565ZM121.89136 119.0565"/>
<path transform="matrix(1,0,0,-1.00005,29.641999,183.54436)" d="M125.66177 131.81247C124.09624 134.52408 117.33173 133.54944 110.5526 129.63552 103.77347 125.7216 99.54713 120.3507 101.11269 117.63908 102.67822 114.92747 109.44275 115.90213 116.22186 119.81604 123.00099 123.72997 127.22733 129.10086 125.66177 131.81247ZM113.38724 124.72578" fill="#009900"/>
<path transform="matrix(1,0,0,-1.00005,29.641999,183.54436)" stroke-width=".3985" stroke-linecap="butt" stroke-miterlimit="10" stroke-linejoin="miter" fill="none" stroke="#000000" d="M125.66177 131.81247C124.09624 134.52408 117.33173 133.54944 110.5526 129.63552 103.77347 125.7216 99.54713 120.3507 101.11269 117.63908 102.67822 114.92747 109.44275 115.90213 116.22186 119.81604 123.00099 123.72997 127.22733 129.10086 125.66177 131.81247ZM113.38724 124.72578"/>
<path transform="matrix(1,0,0,-1.00005,29.641999,183.54436)" d="M113.38724 144.5689C113.38724 160.22461 100.69614 172.9157 85.04042 172.9157 69.3847 172.9157 56.69362 160.22461 56.69362 144.5689 56.69362 128.91318 69.3847 116.22208 85.04042 116.22208 100.69614 116.22208 113.38724 128.91318 113.38724 144.5689ZM85.04042 144.5689" fill="#ff8000"/>
<path transform="matrix(1,0,0,-1.00005,29.641999,183.54436)" stroke-width=".3985" stroke-linecap="butt" stroke-miterlimit="10" stroke-linejoin="miter" fill="none" stroke="#000000" d="M113.38724 144.5689C113.38724 160.22461 100.69614 172.9157 85.04042 172.9157 69.3847 172.9157 56.69362 160.22461 56.69362 144.5689 56.69362 128.91318 69.3847 116.22208 85.04042 116.22208 100.69614 116.22208 113.38724 128.91318 113.38724 144.5689ZM85.04042 144.5689"/>
<path transform="matrix(1,0,0,-1.00005,29.641999,183.54436)" d="M96.94601 167.24643C96.94601 169.12503 95.42314 170.6479 93.54454 170.6479 91.66594 170.6479 90.14307 169.12503 90.14307 167.24643 90.14307 165.36783 91.66594 163.84496 93.54454 163.84496 95.42314 163.84496 96.94601 165.36783 96.94601 167.24643ZM93.54454 167.24643"/>
<path transform="matrix(1,0,0,-1.00005,29.641999,183.54436)" d="M97.31497 180.0024C95.74942 182.714 88.98491 181.73935 82.20578 177.82544 75.42667 173.91153 71.20033 168.54062 72.76587 165.82901 74.33142 163.1174 81.09593 164.09204 87.87506 168.00597 94.65419 171.91988 98.88051 177.29079 97.31497 180.0024ZM85.04042 172.9157" fill="#009900"/>
<path transform="matrix(1,0,0,-1.00005,29.641999,183.54436)" stroke-width=".3985" stroke-linecap="butt" stroke-miterlimit="10" stroke-linejoin="miter" fill="none" stroke="#000000" d="M97.31497 180.0024C95.74942 182.714 88.98491 181.73935 82.20578 177.82544 75.42667 173.91153 71.20033 168.54062 72.76587 165.82901 74.33142 163.1174 81.09593 164.09204 87.87506 168.00597 94.65419 171.91988 98.88051 177.29079 97.31497 180.0024ZM85.04042 172.9157"/>
<path transform="matrix(1,0,0,-1.00005,29.641999,183.54436)" stroke-width=".79701" stroke-linecap="butt" stroke-miterlimit="10" stroke-linejoin="miter" fill="none" stroke="#000000" d="M-28.3468-28.3468H198.42766"/>
<use data-text="P" xlink:href="#font_1_83" transform="matrix(9.9626,0,0,-9.963098,53.391,228.55261)"/>
<use data-text="y" xlink:href="#font_1_118" transform="matrix(9.9626,0,0,-9.963098,60.17553,228.55261)"/>
<use data-text="r" xlink:href="#font_1_96" transform="matrix(9.9626,0,0,-9.963098,65.43578,228.55261)"/>
<use data-text="a" xlink:href="#font_1_28" transform="matrix(9.9626,0,0,-9.963098,69.341129,228.55261)"/>
<use data-text="m" xlink:href="#font_1_75" transform="matrix(9.9626,0,0,-9.963098,74.322429,228.55261)"/>
<use data-text="i" xlink:href="#font_1_66" transform="matrix(9.9626,0,0,-9.963098,82.62127,228.55261)"/>
<use data-text="d" xlink:href="#font_1_47" transform="matrix(9.9626,0,0,-9.963098,85.39088,228.55261)"/>
<use data-text="a" xlink:href="#font_1_28" transform="matrix(9.9626,0,0,-9.963098,90.93008,228.55261)"/>
<use data-text="l" xlink:href="#font_1_72" transform="matrix(9.9626,0,0,-9.963098,95.91137,228.55261)"/>
<use data-text="S" xlink:href="#font_1_97" transform="matrix(9.9626,0,0,-9.963098,101.98856,228.55261)"/>
<use data-text="t" xlink:href="#font_1_105" transform="matrix(9.9626,0,0,-9.963098,107.52776,228.55261)"/>
<use data-text="a" xlink:href="#font_1_28" transform="matrix(9.9626,0,0,-9.963098,111.40322,228.55261)"/>
<use data-text="c" xlink:href="#font_1_43" transform="matrix(9.9626,0,0,-9.963098,116.384517,228.55261)"/>
<use data-text="k" xlink:href="#font_1_70" transform="matrix(9.9626,0,0,-9.963098,120.53892,228.55261)"/>
<use data-text="o" xlink:href="#font_1_81" transform="matrix(9.9626,0,0,-9.963098,129.10675,228.55261)"/>
<use data-text="f" xlink:href="#font_1_55" transform="matrix(9.9626,0,0,-9.963098,134.08805,228.55261)"/>
<use data-text="O" xlink:href="#font_1_80" transform="matrix(9.9626,0,0,-9.963098,140.45417,228.55261)"/>
<use data-text="r" xlink:href="#font_1_96" transform="matrix(9.9626,0,0,-9.963098,148.20505,228.55261)"/>
<use data-text="a" xlink:href="#font_1_28" transform="matrix(9.9626,0,0,-9.963098,152.11038,228.55261)"/>
<use data-text="n" xlink:href="#font_1_77" transform="matrix(9.9626,0,0,-9.963098,157.09168,228.55261)"/>
<use data-text="g" xlink:href="#font_1_59" transform="matrix(9.9626,0,0,-9.963098,162.63089,228.55261)"/>
<use data-text="e" xlink:href="#font_1_50" transform="matrix(9.9626,0,0,-9.963098,167.61219,228.55261)"/>
<use data-text="s" xlink:href="#font_1_98" transform="matrix(9.9626,0,0,-9.963098,172.03559,228.55261)"/>
</svg>
