<svg xmlns="http://www.w3.org/2000/svg" xmlns:xlink="http://www.w3.org/1999/xlink" xmlns:inkscape="http://www.inkscape.org/namespaces/inkscape" version="1.1" width="89" height="145" viewBox="0 0 89 145">
<path transform="matrix(1.00002,0,0,-1.00005,44.616518,129.36466)" stroke-width=".3985" stroke-linecap="butt" stroke-miterlimit="10" stroke-linejoin="miter" fill="none" stroke="#000000" d="M42.5202 113.38724C42.5202 121.21507 23.48355 127.56062 0 127.56062-23.48355 127.56062-42.5202 121.21507-42.5202 113.38724-42.5202 105.55939-23.48355 99.21384 0 99.21384 23.48355 99.21384 42.5202 105.55939 42.5202 113.38724ZM0 113.38724"/>
<path transform="matrix(1.00002,0,0,-1.00005,44.616518,129.36466)" stroke-width=".3985" stroke-linecap="butt" stroke-miterlimit="10" stroke-linejoin="miter" fill="none" stroke="#000000" d="M-42.5202 113.38724V0"/>
<path transform="matrix(1.00002,0,0,-1.00005,44.616518,129.36466)" stroke-width=".3985" stroke-linecap="butt" stroke-miterlimit="10" stroke-linejoin="miter" fill="none" stroke="#000000" d="M42.5202 113.38724V0"/>
<path transform="matrix(1.00002,0,0,-1.00005,44.616518,129.36466)" d="M42.5202 0C42.5202 7.82784 23.48355 14.17339 0 14.17339-23.48355 14.17339-42.5202 7.82784-42.5202 0-42.5202-7.82784-23.48355-14.17339 0-14.17339 23.48355-14.17339 42.5202-7.82784 42.5202 0ZM0 0" fill="#d9d9d9"/>
<path transform="matrix(1.00002,0,0,-1.00005,44.616518,129.36466)" stroke-width=".3985" stroke-linecap="butt" stroke-dasharray="2.98883,2.98883" stroke-miterlimit="10" stroke-linejoin="miter" fill="none" stroke="#000000" d="M42.5202 0C42.5202 7.82784 23.48355 14.17339 0 14.17339-23.48355 14.17339-42.5202 7.82784-42.5202 0-42.5202-7.82784-23.48355-14.17339 0-14.17339 23.48355-14.17339 42.5202-7.82784 42.5202 0ZM0 0"/>
</svg>
