<svg xmlns="http://www.w3.org/2000/svg" xmlns:xlink="http://www.w3.org/1999/xlink" xmlns:inkscape="http://www.inkscape.org/namespaces/inkscape" version="1.1" width="82" height="82" viewBox="0 0 82 82">
<path transform="matrix(1.00008,0,0,-1.00003,52.273668,30.146426)" d="M-28.3468-28.3468H28.3468V28.3468H-28.3468Z" fill="#d9d9d9"/>
<path transform="matrix(1.00008,0,0,-1.00003,52.273668,30.146426)" stroke-width=".3985" stroke-linecap="butt" stroke-miterlimit="10" stroke-linejoin="miter" fill="none" stroke="#000000" d="M-28.3468-28.3468H28.3468V28.3468H-28.3468Z"/>
<path transform="matrix(1.00008,0,0,-1.00003,52.273668,30.146426)" stroke-width=".3985" stroke-linecap="butt" stroke-miterlimit="10" stroke-linejoin="miter" fill="none" stroke="#000000" d="M-50.17352-50.17352H6.52008V6.52008H-50.17352Z"/>
<path transform="matrix(1.00008,0,0,-1.00003,52.273668,30.146426)" stroke-width=".3985" stroke-linecap="butt" stroke-miterlimit="10" stroke-linejoin="miter" fill="none" stroke="#000000" d="M-28.3468-28.3468-50.17352-50.17352"/>
<path transform="matrix(1.00008,0,0,-1.00003,52.273668,30.146426)" stroke-width=".3985" stroke-linecap="butt" stroke-miterlimit="10" stroke-linejoin="miter" fill="none" stroke="#000000" d="M28.3468-28.3468 6.52008-50.17352"/>
<path transform="matrix(1.00008,0,0,-1.00003,52.273668,30.146426)" stroke-width=".3985" stroke-linecap="butt" stroke-miterlimit="10" stroke-linejoin="miter" fill="none" stroke="#000000" d="M28.3468 28.3468 6.52008 6.52008"/>
</svg>
