<svg xmlns="http://www.w3.org/2000/svg" xmlns:xlink="http://www.w3.org/1999/xlink" xmlns:inkscape="http://www.inkscape.org/namespaces/inkscape" version="1.1" width="174" height="166" viewBox="0 0 174 166">
<defs>
<path id="font_1_80" d="M.798996 .33924867C.798996 .5552521 .6539917 .6972656 .43199159 .6972656 .20298767 .6972656 .06399536 .5492554 .06399536 .33924867 .06399536 .13224793 .20399475-.0107421879 .43099977-.0107421879 .6609955-.0107421879 .798996 .13424683 .798996 .33924867M.6459961 .3542633C.6459961 .28425599 .6419983 .19525147 .59999087 .12625122 .5549927 .053253175 .4850006 .03125 .43099977 .03125 .37199403 .03125 .29899598 .059249879 .2579956 .1352539 .22499085 .19725037 .21699524 .2682495 .21699524 .3542633 .21699524 .41825868 .21998596 .5032654 .2639923 .57125857 .30499269 .6322632 .37199403 .6572571 .43099977 .6572571 .49499513 .6572571 .56399539 .6292572 .60398867 .56326296 .6419983 .49925233 .6459961 .42225648 .6459961 .3542633Z"/>
</defs>
<path transform="matrix(1.00002,0,0,-1.00003,87.33537,82.879009)" stroke-width=".79701" stroke-linecap="butt" stroke-miterlimit="10" stroke-linejoin="miter" fill="none" stroke="#0000ff" d="M85.04042 0 68.79948 49.98537 26.27925 80.87897H-26.27925L-68.79948 49.98537-85.04042 0-68.79948-49.98537-26.27925-80.87897H26.27925L68.79948-49.98537Z"/>
<path transform="matrix(1.00002,0,0,-1.00003,87.33537,82.879009)" stroke-width=".79701" stroke-linecap="butt" stroke-dasharray="2.98883,2.98883" stroke-miterlimit="10" stroke-linejoin="miter" fill="none" stroke="#000000" d="M-68.79948-49.98537 0 0H-85.04042Z"/>
<path transform="matrix(1.00002,0,0,-1.00003,87.33537,82.879009)" d="M1.99255 0C1.99255 1.10046 1.10046 1.99255 0 1.99255-1.10046 1.99255-1.99255 1.10046-1.99255 0-1.99255-1.10046-1.10046-1.99255 0-1.99255 1.10046-1.99255 1.99255-1.10046 1.99255 0ZM0 0"/>
<path transform="matrix(1.00002,0,0,-1.00003,87.33537,82.879009)" stroke-width=".3985" stroke-linecap="butt" stroke-miterlimit="10" stroke-linejoin="miter" fill="none" stroke="#000000" d="M1.99255 0C1.99255 1.10046 1.10046 1.99255 0 1.99255-1.10046 1.99255-1.99255 1.10046-1.99255 0-1.99255-1.10046-1.10046-1.99255 0-1.99255 1.10046-1.99255 1.99255-1.10046 1.99255 0ZM0 0"/>
<use data-text="O" xlink:href="#font_1_80" transform="matrix(9.962799,0,0,-9.962899,83.03129,79.24989)"/>
</svg>
