<svg xmlns="http://www.w3.org/2000/svg" xmlns:xlink="http://www.w3.org/1999/xlink" xmlns:inkscape="http://www.inkscape.org/namespaces/inkscape" version="1.1" width="194" height="109" viewBox="0 0 194 109">
<defs>
<path id="font_1_34" d="M.651001 .18289185C.651001 .26983644 .56900027 .34480287 .45799256 .35679627 .5549927 .3757782 .6239929 .43974305 .6239929 .51368716 .6239929 .6006317 .5319977 .6826172 .4019928 .6826172H.035995485V.6516113H.05999756C.13699341 .6516113 .13899231 .64060977 .13899231 .6046295V.07795715C.13899231 .041992189 .13699341 .0309906 .05999756 .0309906H.035995485V0H.42799378C.5609894-.0002593994 .651001 .08874512 .651001 .18273926V.18289185M.5269928 .5136719C.5269928 .44970704 .47799684 .36573792 .36698915 .36573792H.22200012V.6116333C.22200012 .64460757 .22399903 .6516113 .2709961 .6516113H.394989C.49198915 .65174868 .5269928 .56674197 .5269928 .51374819V.5136719M.5509949 .18386841C.5509949 .1129303 .49899293 .0309906 .3959961 .0309906H.2709961C.22399903 .0309906 .22200012 .037994386 .22200012 .07095337V.34375H.4099884C.5089874 .34399415 .5509949 .25099183 .5509949 .18399048V.18386841Z"/>
<path id="font_1_42" d="M.6649933 .23271179C.6649933 .24272156 .6649933 .24972534 .6519928 .24972534 .6409912 .24972534 .6409912 .24372864 .6399994 .23371887 .6319885 .09059143 .5249939 .008529663 .41600038 .008529663 .35499574 .008529663 .15899658 .042556764 .15899658 .34080506 .15899658 .64004519 .35398866 .67407229 .4149933 .67407229 .5239868 .67407229 .61299136 .58299258 .6329956 .4368744 .6349945 .42286683 .6349945 .41986085 .6489868 .41986085 .6649933 .41986085 .6649933 .42286683 .6649933 .44387818V.68107607C.6649933 .69807437 .6649933 .7050781 .6539917 .7050781 .6499939 .7050781 .6459961 .7050781 .6380005 .69306948L.58799746 .61901858C.5509949 .6550598 .5 .7050781 .4039917 .7050781 .21699524 .7050781 .055999757 .5459595 .055999757 .34179688 .055999757 .1346283 .21798706-.022460938 .4039917-.022460938 .5669861-.022460938 .6649933 .116622928 .6649933 .23271179Z"/>
<path id="font_1_27" d="M.71699526 0V.0309906H.69898989C.6389923 .0309906 .625 .037979127 .6139984 .07095337L.397995 .6958008C.3929901 .7088165 .3909912 .7158203 .375 .7158203 .35899354 .7158203 .35598756 .70980837 .35099793 .6958008L.14399719 .09791565C.12599182 .04698181 .085998538 .03199768 .03199768 .0309906V0L.13398743 .0029907227 .24899292 0V.0309906C.19898987 .0309906 .17399597 .05596924 .17399597 .0819397 .17399597 .08493042 .1749878 .09492493 .17599488 .09692383L.22200012 .2277832H.46899415L.5219879 .07495117C.522995 .07095337 .5249939 .064956668 .5249939 .060958864 .5249939 .0309906 .46899415 .0309906 .44198609 .0309906V0C.47799684 .0029907227 .5479889 .0029907227 .58599856 .0029907227L.71699526 0M.45799256 .25878907H.23298645L.34498597 .58380129 .45799256 .25878907Z"/>
<path id="font_1_63" d="M.5349884 0V.0309906C.48298646 .0309906 .45799256 .0309906 .45700074 .061019899V.25221253C.45700074 .3383026 .45700074 .36932374 .42599488 .405365 .4119873 .42237855 .3789978 .4423828 .32099916 .4423828 .23699951 .4423828 .19299317 .38233949 .1769867 .34629823H.17599488V.69433596L.03199768 .6826172V.6516113C.101989749 .6516113 .10998535 .64463809 .10998535 .59580996V.076034549C.10998535 .0309906 .09899902 .0309906 .03199768 .0309906V0L.14498902 .0029907227 .25698854 0V.0309906C.18998719 .0309906 .1789856 .0309906 .1789856 .076034549V.2602234C.1789856 .36431886 .25 .42037965 .31399537 .42037965 .3769989 .42037965 .3880005 .36631776 .3880005 .30926515V.076034549C.3880005 .0309906 .3769989 .0309906 .30999757 .0309906V0L.4229889 .0029907227 .5349884 0Z"/>
<path id="font_1_62" d="M.71598818 0V.0309906H.69200137C.61499026 .0309906 .61299136 .041992189 .61299136 .07797241V.6046448C.61299136 .640625 .61499026 .6516113 .69200137 .6516113H.71598818V.6826172C.68099978 .6796112 .6069946 .6796112 .56900027 .6796112 .5309906 .6796112 .45599366 .6796112 .42099 .6826172V.6516113H.44499208C.5219879 .6516113 .5239868 .640625 .5239868 .6046448V.37083436H.22499085V.6046448C.22499085 .640625 .22698975 .6516113 .3039856 .6516113H.32798768V.6826172C.29299928 .6796112 .21899414 .6796112 .18099976 .6796112 .14299011 .6796112 .067993167 .6796112 .032989503 .6826172V.6516113H.056991579C.13398743 .6516113 .13598633 .640625 .13598633 .6046448V.07797241C.13598633 .041992189 .13398743 .0309906 .056991579 .0309906H.032989503V0C.067993167 .0029907227 .14199829 .0029907227 .17999268 .0029907227 .21798706 .0029907227 .29299928 .0029907227 .32798768 0V.0309906H.3039856C.22698975 .0309906 .22499085 .041992189 .22499085 .07797241V.33984376H.5239868V.07797241C.5239868 .041992189 .5219879 .0309906 .44499208 .0309906H.42099V0C.45599366 .0029907227 .5299988 .0029907227 .56799319 .0029907227 .60598757 .0029907227 .68099978 .0029907227 .71598818 0Z"/>
<path id="font_1_100" d="M.4850006 .6435547H.24198914C.11999512 .6435547 .117996219 .6566467 .11399841 .67578127H.08898926L.055999757 .46954347H.08099365C.083999637 .48554994 .09298706 .54855349 .10598755 .5605469 .11299133 .5665436 .19099427 .5665436 .20399475 .5665436H.41099549L.29899598 .40853883C.20899964 .2735443 .17599488 .13453675 .17599488 .03253174 .17599488 .022537232 .17599488-.022460938 .22200012-.022460938 .2679901-.022460938 .2679901 .022537232 .2679901 .03253174V.08354187C.2679901 .13853455 .2709961 .19354248 .2789917 .24754334 .2829895 .27053834 .29699708 .35653688 .34098817 .41854859L.47599793 .608551C.4850006 .62054446 .4850006 .62254336 .4850006 .6435547Z"/>
<path id="font_1_88" d="M.19198609 .052993776C.19198609 .08198547 .16799927 .10598755 .13899231 .10598755 .10998535 .10598755 .085998538 .08198547 .085998538 .052993776 .085998538 .023986817 .10998535 0 .13899231 0 .16799927 0 .19198609 .023986817 .19198609 .052993776Z"/>
<path id="font_1_107" d="M.44898988 .17396546H.42399598C.4189911 .14398194 .4119873 .099990848 .4019928 .084991458 .394989 .07699585 .32899476 .07699585 .30699159 .07699585H.1269989L.23298645 .17996216C.3889923 .31803895 .44898988 .37210084 .44898988 .47216798 .44898988 .5860901 .35899354 .6660156 .23699951 .6660156 .12399292 .6660156 .049987794 .57411196 .049987794 .48516847 .049987794 .4291687 .099990848 .4291687 .102996829 .4291687 .11999512 .4291687 .15499878 .44117738 .15499878 .48217774 .15499878 .5081787 .13699341 .5341797 .101989749 .5341797 .09399414 .5341797 .09199524 .5341797 .08898926 .5331726 .11199951 .59806826 .1659851 .63500979 .22399903 .63500979 .31498719 .63500979 .35798646 .5541382 .35798646 .47216798 .35798646 .39196778 .30799867 .31297303 .25299073 .25097657L.06098938 .036987306C.049987794 .025985718 .049987794 .023986817 .049987794 0H.42099L.44898988 .17396546Z"/>
<path id="font_1_43" d="M.4149933 .119140628C.4149933 .12911988 .40499879 .12911988 .4019928 .12911988 .3929901 .12911988 .3909912 .12512207 .3889923 .119140628 .3600006 .026229859 .29499818 .014251709 .2579956 .014251709 .20498657 .014251709 .116989139 .0572052 .116989139 .21801758 .116989139 .38093568 .19898987 .42323304 .2519989 .42323304 .26098634 .42323304 .32398988 .42222596 .35899354 .38594056 .31799317 .38293458 .31199647 .3529358 .31199647 .3399353 .31199647 .31393434 .32998658 .2939453 .35798646 .2939453 .38398744 .2939453 .4039917 .3109436 .4039917 .34094239 .4039917 .40911866 .32798768 .4482422 .25099183 .4482422 .12599182 .4482422 .033996583 .3399353 .033996583 .21601868 .033996583 .08816528 .1329956-.0107421879 .24899292-.0107421879 .3829956-.0107421879 .4149933 .10914612 .4149933 .119140628Z"/>
<path id="font_1_75" d="M.8129883 0V.0309906C.7609863 .0309906 .73599246 .0309906 .7350006 .061019899V.25221253C.7350006 .3383026 .7350006 .36932374 .70399478 .405365 .6899872 .42237855 .6569977 .4423828 .598999 .4423828 .5149994 .4423828 .47099305 .38233949 .45399476 .34429933 .43998719 .43138124 .3659973 .4423828 .32099916 .4423828 .24798584 .4423828 .20098877 .39935304 .17298889 .33729554V.4423828L.03199768 .43066407V.3996582C.101989749 .3996582 .10998535 .39266969 .10998535 .34370423V.07595825C.10998535 .0309906 .09899902 .0309906 .03199768 .0309906V0L.14498902 .0029907227 .25698854 0V.0309906C.18998719 .0309906 .1789856 .0309906 .1789856 .07595825V.25978089C.1789856 .36431886 .25 .42037965 .31399537 .42037965 .3769989 .42037965 .3880005 .36631776 .3880005 .30926515V.076034549C.3880005 .0309906 .3769989 .0309906 .30999757 .0309906V0L.4229889 .0029907227 .5349884 0V.0309906C.46798707 .0309906 .45700074 .0309906 .45700074 .076034549V.2602234C.45700074 .36431886 .5279999 .42037965 .59199526 .42037965 .6549988 .42037965 .66600039 .36631776 .66600039 .30926515V.076034549C.66600039 .0309906 .6549988 .0309906 .58799746 .0309906V0L.70098879 .0029907227 .8129883 0Z"/>
<path id="font_1_52" d="M.72099307 .34713746C.72099307 .36714173 .70199587 .36714173 .6879883 .36714173H.08898926C.07499695 .36714173 .055999757 .36714173 .055999757 .34713746 .055999757 .32714845 .07499695 .32714845 .08999634 .32714845H.68699648C.70199587 .32714845 .72099307 .32714845 .72099307 .34713746M.72099307 .15284729C.72099307 .17285156 .70199587 .17285156 .68699648 .17285156H.08999634C.07499695 .17285156 .055999757 .17285156 .055999757 .15284729 .055999757 .13284302 .07499695 .13284302 .08898926 .13284302H.6879883C.70199587 .13284302 .72099307 .13284302 .72099307 .15284729Z"/>
<path id="font_1_51" d="M.45700074 .16764832C.45700074 .20367432 .44599916 .24871826 .4079895 .29074098 .3889923 .31176759 .37298585 .32176209 .30899049 .36180116 .3809967 .39881898 .42999269 .4508667 .42999269 .51690676 .42999269 .6089783 .34098817 .6660156 .25 .6660156 .1499939 .6660156 .068984989 .5919647 .068984989 .49890138 .068984989 .48088075 .070999149 .43585206 .11299133 .38882447 .12399292 .3768158 .16099549 .35179139 .18598938 .33477784 .12799073 .30575563 .041992189 .24971009 .041992189 .15063477 .041992189 .044555665 .14399719-.022460938 .24899292-.022460938 .3619995-.022460938 .45700074 .060577394 .45700074 .16764832M.38598634 .51690676C.38598634 .45986939 .34700013 .41183473 .2869873 .3768158L.16299439 .4568634C.116989139 .4868927 .11299133 .5209198 .11299133 .53793337 .11299133 .5989685 .17799378 .64100649 .24899292 .64100649 .32199098 .64100649 .38598634 .588974 .38598634 .51690676M.40699769 .13162232C.40699769 .05757141 .33198548 .0055389406 .25 .0055389406 .1639862 .0055389406 .09199524 .06758118 .09199524 .15063477 .09199524 .2086792 .12399292 .2727356 .20899964 .31976319L.33198548 .24171448C.3600006 .22268677 .40699769 .19267273 .40699769 .13162232Z"/>
<path id="font_1_82" d="M.4189911 0V.0309906H.3869934C.29699708 .0309906 .2939911 .041992189 .2939911 .07902527V.64012148C.2939911 .6640167 .2939911 .6660156 .2709961 .6660156 .20899964 .60227969 .12098694 .60227969 .08898926 .60227969V.57128909C.10899353 .57128909 .16799927 .57128909 .21998596 .5972748V.07902527C.21998596 .042999269 .21699524 .0309906 .1269989 .0309906H.09498596V0C.12998963 .0029907227 .21699524 .0029907227 .25698854 .0029907227 .29699708 .0029907227 .38398744 .0029907227 .4189911 0Z"/>
<path id="font_1_567" d="M.32299806 .4099884H.30499269C.3019867 .3919983 .29699708 .3659973 .2889862 .35699464 .28399659 .35198976 .23699951 .35198976 .22099304 .35198976H.09098816L.16799927 .4139862C.27999879 .49699403 .32299806 .5289917 .32299806 .58898928 .32299806 .6569977 .2579956 .7049866 .17098999 .7049866 .08898926 .7049866 .035995485 .6499939 .035995485 .5970001 .035995485 .5629883 .07199097 .5629883 .07398987 .5629883 .085998538 .5629883 .11199951 .56999209 .11199951 .59498599 .11199951 .61099246 .09899902 .6259918 .07299805 .6259918H.06399536C.08099365 .6649933 .11999512 .68699648 .16099549 .68699648 .22698975 .68699648 .2579956 .6380005 .2579956 .58898928 .2579956 .54100039 .22200012 .49398805 .18199158 .45599366L.04399109 .32798768C.035995485 .32099916 .035995485 .31999208 .035995485 .30599977H.30299378L.32299806 .4099884Z"/>
<path id="font_2_57" d="M.46199037 .16699219V.19598389H.36099244V.6508026C.36099244 .6697998 .36099244 .6748047 .34700013 .6748047 .33898927 .6748047 .33599855 .6748047 .32798768 .6628113L.026992798 .19598389V.16699219H.2899933V.07598877C.2899933 .038986207 .28799439 .0289917 .21499634 .0289917H.19499207V0C.21798706 .0019989014 .29699708 .0019989014 .32499696 .0019989014 .35299684 .0019989014 .43299867 .0019989014 .45599366 0V.0289917H.43598939C.3639984 .0289917 .36099244 .038986207 .36099244 .07598877V.16699219H.46199037M.29499818 .19598389H.051986696L.29499818 .57284548V.19598389Z"/>
<path id="font_2_51" d="M.44799806 .1659851C.44799806 .2679901 .37599183 .31298829 .2979889 .36099244 .34799195 .38798524 .42099 .43400575 .42099 .5180054 .42099 .60502627 .33699037 .66503909 .24499512 .66503909 .1459961 .66503909 .067993167 .59202578 .067993167 .5010071 .067993167 .4670105 .07798767 .43299867 .10598755 .39898683 .116989139 .38598634 .117996219 .3849945 .18798828 .33599855 .09098816 .2908783 .040985109 .22380066 .040985109 .1506958 .040985109 .044555665 .14199829-.021484375 .24398804-.021484375 .35499574-.021484375 .44799806 .060577394 .44799806 .16572571V.1659851M.37998963 .5169983C.37998963 .45599366 .33599855 .40699769 .27799989 .375L.1619873 .45098878C.14898682 .45988465 .10899353 .48590089 .10899353 .5349426 .10899353 .59999087 .1769867 .641037 .24398804 .641037 .31599427 .641037 .37998963 .58898928 .37998963 .516922V.5169983M.4019928 .13360596C.4019928 .057556154 .32499696 .005508423 .24499512 .005508423 .1599884 .005996704 .08699036 .067993167 .08699036 .15098572 .08699036 .22898865 .14399719 .2919922 .20899964 .32199098L.32998658 .24299622C.35598756 .22599793 .4019928 .19499207 .4019928 .13398743V.13360596Z"/>
<path id="font_2_88" d="M.18399048 .04899597C.18399048 .07598877 .16099549 .09700012 .13598633 .09700012 .10699463 .09700012 .08699036 .07398987 .08699036 .04899597 .08699036 .018997193 .11199951 0 .1349945 0 .1619873 0 .18399048 .020996094 .18399048 .04899597Z"/>
<path id="font_2_101" d="M.44799806 .2036438C.44799806 .33665467 .35499574 .42578126 .25498963 .42578126 .1659851 .42578126 .1329956 .34864808 .12298584 .3206482V.34765626C.12298584 .60061648 .24598694 .640625 .2999878 .640625 .33599855 .6405945 .37199403 .62960818 .3909912 .5996094 .3789978 .59962466 .34098817 .59962466 .34098817 .55862429 .34098817 .53660586 .35598756 .51760867 .38198854 .51760867 .40699769 .51760867 .42399598 .53260806 .42399598 .56159976 .42399598 .6137543 .38598634 .66503909 .29899598 .66503909 .17298889 .66503909 .040985109 .53559878 .040985109 .31556703 .040985109 .040512086 .16099549-.021484375 .24598694-.021484375 .35499574-.021484375 .44799806 .073516849 .44799806 .20353699V.2036438M.3659973 .20452881C.3659973 .15351868 .3659973 .10852051 .34700013 .070510867 .32199098 .022506714 .28599549 .005508423 .24598694 .005508423 .18299866 .005508423 .15299988 .06150818 .14399719 .08251953 .1349945 .10852051 .125 .15753174 .125 .22753906 .125 .30664063 .16099549 .40577699 .25099183 .40577699 .30599977 .40577699 .33499146 .36872865 .34999085 .33467103 .3659973 .29762269 .3659973 .2475586 .3659973 .20452881Z"/>
<path id="font_2_234" d="M.31999208 .546875C.31999208 .6216736 .25898744 .6826172 .18399048 .6826172 .10798645 .6826172 .04798889 .6216736 .04798889 .546875 .04798889 .47206117 .10798645 .4111328 .18399048 .4111328 .25898744 .4111328 .31999208 .47206117 .31999208 .546875M.28399659 .546875C.28399659 .4920044 .23899842 .4471283 .18399048 .4471283 .12799073 .4471283 .083999637 .4920044 .083999637 .546875 .083999637 .60272219 .12799073 .64660647 .18399048 .64660647 .23899842 .64660647 .28399659 .60272219 .28399659 .546875Z"/>
</defs>
<path transform="matrix(1,0,0,-1.00002,-101.595,-15.773576)" d="M113.38724-113.38724H283.4681L184.25424-28.3468Z" fill="#e6e6ff"/>
<path transform="matrix(1,0,0,-1.00002,-101.595,-15.773576)" stroke-width=".79701" stroke-linecap="butt" stroke-miterlimit="10" stroke-linejoin="miter" fill="none" stroke="#000000" d="M113.38724-113.38724H283.4681L184.25424-28.3468Z"/>
<path transform="matrix(1,0,0,-1.00002,-101.595,-15.773576)" d="M184.25424-113.38724V-28.3468" fill="#e6e6ff"/>
<path transform="matrix(1,0,0,-1.00002,-101.595,-15.773576)" stroke-width=".79701" stroke-linecap="butt" stroke-miterlimit="10" stroke-linejoin="miter" fill="none" stroke="#000000" d="M184.25424-113.38724V-28.3468"/>
<use data-text="B" xlink:href="#font_1_34" transform="matrix(9.9626,0,0,-9.962799,1.2190037,101.01877)"/>
<use data-text="C" xlink:href="#font_1_42" transform="matrix(9.9626,0,0,-9.962799,185.393,101.01877)"/>
<use data-text="A" xlink:href="#font_1_27" transform="matrix(9.9626,0,0,-9.962799,78.923007,9.053921)"/>
<use data-text="h" xlink:href="#font_1_63" transform="matrix(9.9626,0,0,-9.962799,73.600009,72.7262)"/>
<use data-text="H" xlink:href="#font_1_62" transform="matrix(9.9626,0,0,-9.962799,78.923007,107.9409)"/>
<use data-text="7" xlink:href="#font_1_100" transform="matrix(9.9626,0,0,-9.962799,16.834002,58.352914)"/>
<use data-text="." xlink:href="#font_1_88" transform="matrix(9.9626,0,0,-9.962799,21.815302,58.352914)"/>
<use data-text="2" xlink:href="#font_1_107" transform="matrix(9.9626,0,0,-9.962799,24.584904,58.352914)"/>
<use data-text="c" xlink:href="#font_1_43" transform="matrix(9.9626,0,0,-9.962799,29.566205,58.352914)"/>
<use data-text="m" xlink:href="#font_1_75" transform="matrix(9.9626,0,0,-9.962799,33.9896,58.352914)"/>
<use data-text="A" xlink:href="#font_1_27" transform="matrix(9.9626,0,0,-9.962799,86.179,86.89948)"/>
<use data-text="=" xlink:href="#font_1_52" transform="matrix(9.9626,0,0,-9.962799,96.958538,86.89948)"/>
<use data-text="2" xlink:href="#font_1_107" transform="matrix(9.9626,0,0,-9.962799,108.026988,86.89948)"/>
<use data-text="8" xlink:href="#font_1_51" transform="matrix(9.9626,0,0,-9.962799,113.008289,86.89948)"/>
<use data-text="." xlink:href="#font_1_88" transform="matrix(9.9626,0,0,-9.962799,117.989589,86.89948)"/>
<use data-text="1" xlink:href="#font_1_82" transform="matrix(9.9626,0,0,-9.962799,120.759189,86.89948)"/>
<use data-text="c" xlink:href="#font_1_43" transform="matrix(9.9626,0,0,-9.962799,129.05805,86.89948)"/>
<use data-text="m" xlink:href="#font_1_75" transform="matrix(9.9626,0,0,-9.962799,133.48143,86.89948)"/>
<use data-text="&#x00b2;" xlink:href="#font_1_567" transform="matrix(9.9626,0,0,-9.962799,141.78028,86.89948)"/>
<path transform="matrix(1,0,0,-1.00002,-101.595,-15.773576)" stroke-width=".3985" stroke-linecap="butt" stroke-miterlimit="10" stroke-linejoin="miter" fill="none" stroke="#000000" d="M141.73404-113.38724C141.73404-105.2863 137.41072-97.79817 130.39528-93.74788"/>
<use data-text="4" xlink:href="#font_2_57" transform="matrix(11.9552,0,0,-11.95544,41.705995,95.90366)"/>
<use data-text="8" xlink:href="#font_2_51" transform="matrix(11.9552,0,0,-11.95544,47.564046,95.90366)"/>
<use data-text="." xlink:href="#font_2_88" transform="matrix(11.9552,0,0,-11.95544,53.422094,95.90366)"/>
<use data-text="6" xlink:href="#font_2_101" transform="matrix(11.9552,0,0,-11.95544,56.67391,95.90366)"/>
<use data-text="&#x00b0;" xlink:href="#font_2_234" transform="matrix(11.9552,0,0,-11.95544,62.531957,95.90366)"/>
</svg>
