<svg xmlns="http://www.w3.org/2000/svg" xmlns:xlink="http://www.w3.org/1999/xlink" xmlns:inkscape="http://www.inkscape.org/namespaces/inkscape" version="1.1" width="267" height="249" viewBox="0 0 267 249">
<defs>
<path id="font_1_113" d="M1.1640015 .63853457V.6855469C1.1369934 .6845398 1.1019898 .6825409 1.0569916 .6825409 1.0189972 .6825409 .95700076 .6825409 .92099 .6855469V.63853457C.94599917 .63853457 .99398806 .63853457 1.022995 .6275482L.8509979 .1809845 .673996 .63853457H.769989V.6855469C.7319946 .6825409 .6380005 .6825409 .59498599 .6825409 .55599978 .6825409 .47698976 .6825409 .44198609 .6855469V.63853457H.5279999L.56900027 .53263857 .43299867 .1809845 .2559967 .63853457H.35198976V.6855469C.31399537 .6825409 .21998596 .6825409 .1769867 .6825409 .13798523 .6825409 .05899048 .6825409 .023986817 .6855469V.63853457H.10998535L.34999085 .018157959C.35598756 .002166748 .3600006-.0078125 .3849945-.0078125 .4099884-.0078125 .4139862 .002166748 .41999818 .018157959L.59399417 .4677124 .7679901 .018157959C.7739868 .002166748 .7779999-.0078125 .8029938-.0078125 .8279877-.0078125 .83200076 .002166748 .83799746 .018157959L1.0690003 .614563C1.074997 .631546 1.0759888 .6335449 1.1069946 .63653567 1.1269989 .63853457 1.147995 .63853457 1.1640015 .63853457Z"/>
<path id="font_1_28" d="M.5529938 .023986817C.5529938 .04699707 .5399933 .04699707 .5269928 .04699707 .46598817 .04798889 .46598817 .06100464 .46598817 .083999637V.29907228C.46598817 .3881073 .394989 .453125 .24598694 .453125 .18899536 .453125 .066986087 .44911195 .066986087 .36109925 .066986087 .3170929 .101989749 .29808045 .1289978 .29808045 .1599884 .29808045 .19198609 .3190918 .19198609 .36109925 .19198609 .39111329 .17298889 .40811158 .16999817 .41011048 .19799805 .41612245 .22999573 .41711427 .24198914 .41711427 .31698609 .41711427 .35198976 .3751068 .35198976 .29907228V.26506043C.2809906 .2620697 .026992798 .25306703 .026992798 .10801697 .026992798 .012130737 .15098572-.005859375 .21998596-.005859375 .2999878-.005859375 .34700013 .035125734 .36898805 .07713318 .36898805 .04598999 .36898805 0 .47299195 0H.5209961C.54100039 0 .5529938 0 .5529938 .023986817M.35198976 .13899231C.35198976 .043151857 .2599945 .030136109 .23498535 .030136109 .18399048 .030136109 .14399719 .06517029 .14399719 .10922241 .14399719 .21734619 .3019867 .23136902 .35198976 .234375V.13899231Z"/>
<path id="font_1_105" d="M.38198854 .124176029V.17721558H.33499146V.12619019C.33499146 .058151246 .30299378 .03413391 .2749939 .03413391 .21699524 .03413391 .21699524 .09817505 .21699524 .1211853V.3973236H.36299134V.44433595H.21699524V.6357422H.16999817C.16899109 .53552249 .11999512 .43632508 .020996094 .43333436V.3973236H.102996829V.123184207C.102996829 .01612854 .18998719-.005859375 .26098634-.005859375 .33699037-.005859375 .38198854 .05114746 .38198854 .124176029Z"/>
<path id="font_1_50" d="M.49398805 .11706543C.49398805 .13504029 .47499085 .13504029 .46998597 .13504029 .45298768 .13504029 .45098878 .13005066 .44499208 .11405945 .42399598 .066101077 .36698915 .03413391 .3019867 .03413391 .16099549 .03413391 .1599884 .16700745 .1599884 .2179718H.46199037C.48399354 .2179718 .49398805 .2179718 .49398805 .2449646 .49398805 .27598573 .48799134 .34906007 .43798829 .3991089 .40098573 .43511964 .34799195 .453125 .2789917 .453125 .11898804 .453125 .03199768 .35005189 .03199768 .22497559 .03199768 .09107971 .13198853-.005859375 .29299928-.005859375 .45098878-.005859375 .49398805 .10006714 .49398805 .11706543M.39898683 .25097657H.1599884C.1619873 .29000855 .16299439 .3320465 .18399048 .36506654 .20999146 .4051056 .25 .41711427 .2789917 .41711427 .3959961 .41711427 .397995 .28599549 .39898683 .25097657Z"/>
<path id="font_1_96" d="M.44198609 .36819459C.44198609 .42118836 .3880005 .4501953 .33599855 .4501953 .2659912 .4501953 .22599793 .40019227 .20298767 .33718873V.4501953L.036987306 .4423828V.39537049C.09899902 .39537049 .10598755 .39537049 .10598755 .3563385V.04699707H.036987306V0L.16299439 .0029907227C.20098877 .0029907227 .2649994 .0029907227 .30099488 0V.04699707H.21398926V.22218323C.21398926 .29226686 .23899842 .41436769 .33898927 .41436769 .33898927 .41436769 .31999208 .39736939 .31999208 .36834718 .31999208 .32730104 .35198976 .3072815 .3809967 .3072815 .4099884 .3072815 .44198609 .3283081 .44198609 .36834718V.36819459Z"/>
<path id="font_1_42" d="M.7659912 .22724915C.7659912 .24725342 .7589874 .2482605 .74198916 .2482605 .72898867 .2482605 .7200012 .2482605 .71899417 .23124695 .71199038 .09724426 .59098818 .036254884 .48999024 .036254884 .4119873 .036254884 .32798768 .060256959 .27598573 .12124634 .22898865 .17825318 .21699524 .25325013 .21699524 .34326173 .21699524 .39926148 .21998596 .5072632 .2829895 .57325747 .34799195 .63926699 .43499757 .6502533 .4869995 .6502533 .59498599 .6502533 .6899872 .5742645 .71199038 .44725038 .71499636 .42825318 .71598818 .42625428 .7389984 .42625428 .7649994 .42625428 .7659912 .42825318 .7659912 .45425416V.6692505C.7659912 .68826296 .7659912 .6972656 .7480011 .6972656 .7389984 .6972656 .7369995 .69525149 .72898867 .68826296L.6629944 .6292572C.6009979 .67926028 .5339966 .6972656 .46598817 .6972656 .21699524 .6972656 .06399536 .54826357 .06399536 .34326173 .06399536 .13824463 .21699524-.0107421879 .46598817-.0107421879 .6529999-.0107421879 .7659912 .11225891 .7659912 .22724915Z"/>
<path id="font_1_81" d="M.5419922 .21812439C.5419922 .35212709 .44999696 .453125 .2869873 .453125 .12298584 .453125 .03199768 .35112 .03199768 .21812439 .03199768 .09413147 .11999512-.005859375 .2869873-.005859375 .45498658-.005859375 .5419922 .09512329 .5419922 .21812439M.4139862 .22912598C.4139862 .14213562 .4139862 .03413391 .2869873 .03413391 .1599884 .03413391 .1599884 .14213562 .1599884 .22912598 .1599884 .27412416 .1599884 .32511903 .1769867 .3591156 .19599915 .39611817 .23799134 .41711427 .2869873 .41711427 .32899476 .41711427 .37098695 .40112306 .3929901 .36611939 .4139862 .3321228 .4139862 .27713014 .4139862 .22912598Z"/>
<path id="font_1_77" d="M.61499026 0V.04699707H.54599V.30613709C.54599 .41119386 .49198915 .4501953 .3919983 .4501953 .29599 .4501953 .24299622 .39318849 .21699524 .3421631V.4501953L.04499817 .4423828V.39537049C.10699463 .39537049 .11399841 .39537049 .11399841 .3563385V.04699707H.04499817V0L.17098999 .0029907227 .29699708 0V.04699707H.22799683V.2562256C.22799683 .3653412 .31399537 .41436769 .3769989 .41436769 .41099549 .41436769 .43199159 .39337159 .43199159 .31729127V.04699707H.36299134V0L.4889984 .0029907227 .61499026 0Z"/>
<path id="font_1_98" d="M.4149933 .14012146C.4149933 .18312073 .394989 .21812439 .3600006 .24612427 .32099916 .27511598 .2889862 .28112794 .21099854 .29412843 .17399597 .30111695 .10899353 .31211854 .10899353 .3591156 .10899353 .42111207 .20199585 .42111207 .22099304 .42111207 .29599 .42111207 .33399964 .39212037 .33898927 .33711244 .33999635 .32211305 .34098817 .3171234 .3619995 .3171234 .38598634 .3171234 .38598634 .32211305 .38598634 .3451233V.42510987C.38598634 .4441223 .38598634 .453125 .36799623 .453125 .3639984 .453125 .3619995 .453125 .32299806 .43411256 .29699708 .44711305 .2619934 .453125 .22200012 .453125 .19198609 .453125 .037994386 .453125 .037994386 .32211305 .037994386 .28211976 .057998659 .25512696 .07798767 .23812866 .117996219 .203125 .1559906 .1971283 .23298645 .18312073 .2689972 .17712403 .34399415 .16412354 .34399415 .10513306 .34399415 .030136109 .2519989 .030136109 .22999573 .030136109 .12399292 .030136109 .09799194 .103134158 .085998538 .14613343 .08099365 .16012573 .07598877 .16012573 .06199646 .16012573 .037994386 .16012573 .037994386 .15412903 .037994386 .13113404V.022140503C.037994386 .0031280518 .037994386-.005859375 .055999757-.005859375 .06298828-.005859375 .06498718-.005859375 .085998538 .009140015L.11199951 .026138306C.1579895-.005859375 .20999146-.005859375 .22999573-.005859375 .26098634-.005859375 .4149933-.005859375 .4149933 .14013672V.14012146Z"/>
<path id="font_1_109" d="M.61499026 .0001373291V.0471344C.5529938 .0471344 .54599 .0471344 .54599 .086135867V.4501953L.36299134 .44218446V.39518739C.4249878 .39518739 .43199159 .39518739 .43199159 .3561859V.16514588C.43199159 .08314514 .3809967 .030136109 .30799867 .030136109 .23098755 .030136109 .22799683 .055130006 .22799683 .10914612V.4501953L.04499817 .44218446V.39518739C.10699463 .39518739 .11399841 .39518739 .11399841 .3561859V.12313843C.11399841 .01612854 .19499207-.005859375 .2939911-.005859375 .31999208-.005859375 .3919983-.005859375 .43798829 .072143558V-.005859375L.61499026 .0001373291Z"/>
<path id="font_1_75" d="M.93499758 0V.04699707H.8659973V.30613709C.8659973 .40919496 .8149872 .4501953 .71199038 .4501953 .62098696 .4501953 .56900027 .40019227 .54299929 .3541565 .522995 .44718934 .43099977 .4501953 .3929901 .4501953 .30599977 .4501953 .24899292 .40518189 .21699524 .3421631V.4501953L.04499817 .4423828V.39537049C.10699463 .39537049 .11399841 .39537049 .11399841 .3563385V.04699707H.04499817V0L.17098999 .0029907227 .29699708 0V.04699707H.22799683V.2562256C.22799683 .3653412 .31498719 .41436769 .3769989 .41436769 .41099549 .41436769 .43299867 .39437867 .43299867 .31729127V.04699707H.3639984V0L.48999024 .0029907227 .6159973 0V.04699707H.5469971V.2562256C.5469971 .3653412 .6339874 .41436769 .69599917 .41436769 .7299957 .41436769 .7519989 .39437867 .7519989 .31729127V.04699707H.68299868V0L.8089905 .0029907227 .93499758 0Z"/>
<path id="font_1_84" d="M.59999087 .22319031C.59999087 .3561859 .5089874 .4501953 .36499024 .4501953 .2899933 .4501953 .23699951 .41918946 .21398926 .40118409V.4501953L.036987306 .4423828V.39537049C.09899902 .39537049 .10598755 .39537049 .10598755 .3573761V-.14648438H.036987306V-.1934967L.16299439-.19049073 .2889862-.1934967V-.14648438H.21998596V.03945923C.2630005 .004135132 .30699159-.005859375 .34799195-.005859375 .49798585-.005859375 .59999087 .08413696 .59999087 .22312927V.22319031M.47200013 .22312927C.47200013 .08213806 .4019928 .030136109 .33699037 .030136109 .32299806 .030136109 .27598573 .030136109 .23098755 .08413696 .21998596 .09713745 .21998596 .09812927 .21998596 .117126468V.32913209C.21998596 .34814454 .22099304 .3491516 .23498535 .36314393 .2749939 .4041443 .32699586 .41015626 .34899903 .41015626 .41600038 .41015626 .47200013 .3491516 .47200013 .22314453V.22312927Z"/>
<path id="font_1_66" d="M.28599549 0V.04699707H.22399903V.4501953L.049987794 .4423828V.39537049C.10899353 .39537049 .115997318 .39537049 .115997318 .3563385V.04699707H.04699707V0L.16899109 .0029907227 .28599549 0M.23799134 .60728457C.23799134 .6502838 .20298767 .6852875 .1599884 .6852875 .116989139 .6852875 .08198547 .6502838 .08198547 .60728457 .08198547 .5642853 .116989139 .5292969 .1599884 .5292969 .20298767 .5292969 .23799134 .5642853 .23799134 .60728457Z"/>
<path id="font_1_85" d="M.38198854-.23503113C.38198854-.23002625 .3789978-.22503662 .3789978-.22503662 .34999085-.19802857 .2849884-.13702393 .24299622-.009033203 .21699524 .06997681 .20498657 .16197205 .20498657 .24998474 .20498657 .4469757 .2559967 .60398867 .3659973 .7149811 .3809967 .72998049 .38198854 .73098757 .38198854 .73599246 .38198854 .74697878 .37199403 .75 .3639984 .75 .34700013 .75 .30499269 .7129822 .2869873 .6959839 .1309967 .5409851 .10798645 .35697938 .10798645 .25097657 .10798645 .12597656 .14099121 .015975953 .18798828-.06703186 .2539978-.18203736 .34498597-.24902344 .3639984-.24902344 .37199403-.24902344 .38198854-.24603272 .38198854-.23503113Z"/>
<path id="font_1_71" d="M.6429901 .27381898H.59599307C.58799746 .2048645 .57099917 .04699707 .3919983 .04699707H.2889862V.63853457H.42399598V.6855469C.37998963 .6825409 .2709961 .6825409 .22200012 .6825409 .17799378 .6825409 .07699585 .6825409 .038986207 .6855469V.63853457H.14698792V.04699707H.038986207V0H.6119995L.6429901 .27381898Z"/>
<path id="font_1_86" d="M.33799745 .24998474C.33799745 .37498475 .30499269 .48498536 .2579956 .5679779 .19198609 .6829834 .100997928 .75 .08198547 .75 .07398987 .75 .06399536 .74697878 .06399536 .73599246 .06399536 .73098757 .06399536 .72898867 .08099365 .7129822 .20698548 .5849762 .24099732 .40797425 .24099732 .25097657 .24099732 .053970338 .18998719-.103027347 .07998657-.21403504 .06498718-.22903443 .06399536-.23002625 .06399536-.23503113 .06399536-.24603272 .07398987-.24902344 .08198547-.24902344 .09899902-.24902344 .14099121-.21203614 .15899658-.19502259 .31498719-.040023805 .33799745 .14398194 .33799745 .24998474Z"/>
<path id="font_1_54" d="M.6749878 .4391327 .6439972 .6798096H.038986207V.6328125H.14698792V.04699707H.038986207V0C.07699585 .0029907227 .17799378 .0029907227 .22200012 .0029907227 .2709961 .0029907227 .37998963 .0029907227 .42399598 0V.04699707H.2889862V.31724549H.33898927C.43499757 .31724549 .44400025 .2742157 .44400025 .20013428H.4909973V.48106385H.44400025C.44400025 .4071808 .43598939 .3642578 .33898927 .3642578H.2889862V.6328125H.42900086C.58999636 .6328125 .61299136 .5559387 .6279907 .4391327H.6749878Z"/>
<path id="font_1_91" d="M.6009979-.1934967V-.14648438H.5319977V.4501953H.4909973L.43798829 .3711853C.40299989 .42018128 .34700013 .4501953 .2869873 .4501953 .14099121 .4501953 .037994386 .36117555 .037994386 .22215271 .037994386 .08114624 .13899231-.005859375 .27799989-.005859375 .32699586-.005859375 .37199403 .008132935 .41799928 .04814148V-.14648438H.34899903V-.1934967L.47499085-.19049073 .6009979-.1934967M.42399598 .14215088C.42399598 .12414551 .42399598 .12113953 .40899659 .10014343 .36898805 .041137697 .31799317 .030136109 .28799439 .030136109 .22599793 .030136109 .1659851 .088134769 .1659851 .22116089 .1659851 .36317445 .23999024 .41018678 .2999878 .41018678 .37599183 .41018678 .42399598 .33117677 .42399598 .2811737V.14215088Z"/>
<path id="font_1_43" d="M.47799684 .117126468C.47799684 .13113404 .46398927 .13113404 .45399476 .13113404 .43598939 .13113404 .43499757 .12913513 .42999269 .11613464 .4039917 .053131105 .35598756 .03413391 .30499269 .03413391 .1659851 .03413391 .1659851 .18112183 .1659851 .22712708 .1659851 .28312684 .1659851 .41311646 .29499818 .41311646 .32998658 .41311646 .34700013 .41011048 .3600006 .40711976 .34199525 .39111329 .33999635 .3701172 .33999635 .3611145 .33999635 .3171234 .375 .29811097 .4019928 .29811097 .43299867 .29811097 .46499635 .3191223 .46499635 .3611145 .46499635 .44711305 .34899903 .453125 .29100038 .453125 .11199951 .45314027 .037994386 .33813478 .037994386 .22213745 .037994386 .08912659 .13198853-.005859375 .28599549-.005859375 .44799806-.005859375 .47799684 .11013794 .47799684 .117126468Z"/>
<path id="font_1_118" d="M.5799866 .3973236V.44433595C.55599978 .44232179 .526001 .44132997 .5009918 .44132997L.4099884 .44433595V.3973236C.4099884 .3973236 .45700074 .3973236 .45700074 .3853302L.45199586 .37332154 .33699037 .12713623 .20999146 .3973236H.2639923V.44433595L.13999939 .44132997 .025985718 .44433595V.3973236H.08999634L.2769928 .000045776369 .2539978-.04798889C.23199463-.09602356 .19999695-.1640625 .1289978-.1640625 .114990238-.1640625 .11299133-.16307068 .10499573-.1600647 .11399841-.1560669 .13699341-.14205933 .13699341-.10702515 .13699341-.07400513 .11299133-.049987794 .07899475-.049987794 .050994874-.049987794 .021987915-.069000247 .021987915-.10803223 .021987915-.15907288 .068984989-.20007324 .1289978-.20007324 .20599365-.20007324 .2639923-.13804627 .29100038-.08100891L.5059967 .37631227C.5130005 .39031983 .5159912 .3973236 .5799866 .3973236Z"/>
<path id="font_1_46" d="M.81700137 .33676148C.81700137 .55659487 .6669922 .6855469 .46899415 .6855469H.038986207V.63853457H.14698792V.04699707H.038986207V0H.46998597C.6669922 0 .81700137 .12294006 .81700137 .33676148M.66999819 .33776856C.66999819 .22885132 .6579895 .17588806 .6259918 .13092041 .5779877 .06297302 .48999024 .04699707 .42900086 .04699707H.2829895V.63853457H.42900086C.49499513 .63853457 .5779877 .6195526 .6269989 .5496063 .6619873 .49864198 .66999819 .43069459 .66999819 .33776856Z"/>
<path id="font_2_107" d="M.44898988 .17396546H.42399598C.4189911 .14398194 .4119873 .099990848 .4019928 .084991458 .394989 .07699585 .32899476 .07699585 .30699159 .07699585H.1269989L.23298645 .17996216C.3889923 .31803895 .44898988 .37210084 .44898988 .47216798 .44898988 .5860901 .35899354 .6660156 .23699951 .6660156 .12399292 .6660156 .049987794 .57411196 .049987794 .48516847 .049987794 .4291687 .099990848 .4291687 .102996829 .4291687 .11999512 .4291687 .15499878 .44117738 .15499878 .48217774 .15499878 .5081787 .13699341 .5341797 .101989749 .5341797 .09399414 .5341797 .09199524 .5341797 .08898926 .5331726 .11199951 .59806826 .1659851 .63500979 .22399903 .63500979 .31498719 .63500979 .35798646 .5541382 .35798646 .47216798 .35798646 .39196778 .30799867 .31297303 .25299073 .25097657L.06098938 .036987306C.049987794 .025985718 .049987794 .023986817 .049987794 0H.42099L.44898988 .17396546Z"/>
<path id="font_2_121" d="M.45999146 .31976319C.45999146 .39982606 .45498658 .47988893 .41999818 .5539398 .37399293 .65000918 .2919922 .6660156 .25 .6660156 .18998719 .6660156 .116989139 .64001467 .07598877 .54693606 .04399109 .47789 .038986207 .39982606 .038986207 .31976319 .038986207 .24472046 .042999269 .15464783 .083999637 .07859802 .1269989-.0024719239 .19999695-.022460938 .24899292-.022460938 .30299378-.022460938 .3789978-.0014648438 .4229889 .09359741 .45498658 .16265869 .45999146 .2407074 .45999146 .31976319M.3769989 .3317871C.3769989 .25672914 .3769989 .18867493 .3659973 .12461853 .35099793 .029556275 .2939911-.00047302247 .24899292-.00047302247 .20999146-.00047302247 .15098572 .024551392 .1329956 .12062073 .12199402 .18066406 .12199402 .2727356 .12199402 .3317871 .12199402 .39582826 .12199402 .46188355 .12998963 .5159149 .14898682 .63500979 .22399903 .64401248 .24899292 .64401248 .28199769 .64401248 .34799195 .6259918 .36698915 .52693179 .3769989 .47088624 .3769989 .39482118 .3769989 .3317871Z"/>
<path id="font_2_56" d="M.44898988 .20091248C.44898988 .31991578 .36698915 .41992188 .25898744 .41992188 .21099854 .41992188 .16799927 .4039154 .13198853 .36891175V.5641022C.1519928 .55778506 .18499756 .55078127 .21699524 .55078127 .33999635 .55078127 .4099884 .6418457 .4099884 .65493777 .4099884 .6609802 .40699769 .6660156 .3999939 .6660156 .3999939 .66607668 .39698792 .66607668 .3919983 .66308596 .37199403 .65408328 .32299806 .63378909 .2559967 .63378909 .21598816 .63409426 .16999817 .641098 .12298584 .6621094 .114990238 .6651001 .11099243 .6651001 .11099243 .6651001 .100997928 .66508486 .100997928 .657074 .100997928 .64108279V.3447113C.100997928 .3266449 .100997928 .31861878 .114990238 .31861878 .12199402 .31861878 .12399292 .32164 .12799073 .32765199 .13899231 .34371949 .17599488 .3979187 .25698854 .3979187 .30899049 .3979187 .33399964 .3517456 .34199525 .3336792 .35798646 .2965393 .3600006 .2574005 .3600006 .20721436 .3600006 .17218018 .3600006 .112197879 .33599855 .07032776 .31199647 .031448366 .2749939 .0055389406 .22898865 .0055389406 .1559906 .0055389406 .09899902 .05836487 .08198547 .1171875 .084991458 .11685181 .08799744 .115859989 .09899902 .115859989 .13198853 .115859989 .14898682 .14085388 .14898682 .16485596 .14898682 .18885803 .13198853 .21386719 .09899902 .21386719 .084991458 .21386719 .049987794 .2068634 .049987794 .16085816 .049987794 .07432556 .11898804-.022460938 .23098755-.022460938 .34700013-.022460938 .44898988 .07331848 .44898988 .20019531V.20091248Z"/>
<path id="font_2_106" d="M.45700074 .17037964C.45700074 .252594 .3939972 .33088685 .2899933 .35191346 .37199403 .37893678 .42999269 .4490509 .42999269 .52809146 .42999269 .6100464 .34199525 .6660156 .24598694 .6660156 .14498902 .6660156 .068984989 .60606387 .068984989 .53009036 .068984989 .49710084 .09098816 .47808839 .11999512 .47808839 .15098572 .47808839 .17098999 .50009158 .17098999 .5290985 .17098999 .57910159 .12399292 .57910159 .10899353 .57910159 .13999939 .62802127 .20599365 .64100649 .24198914 .64100649 .2829895 .64100649 .33799745 .6190338 .33799745 .5290985 .33799745 .51708987 .33599855 .45906068 .30999757 .4149933 .27999879 .36691285 .24598694 .36390687 .22099304 .36291505 .21299744 .36190797 .18899536 .35990907 .18199158 .35990907 .17399597 .35890199 .16699219 .35791017 .16699219 .3479004 .16699219 .33691407 .17399597 .33691407 .19099427 .33691407H.23498535C.31698609 .33691407 .35398866 .2686615 .35398866 .17037964 .35398866 .034469606 .2849884 .0055389406 .24099732 .0055389406 .19799805 .0055389406 .12298584 .022491456 .08799744 .08137512 .12298584 .07637024 .1539917 .09837341 .1539917 .1363678 .1539917 .17237854 .1269989 .19238281 .09799194 .19238281 .07398987 .19238281 .041992189 .17837525 .041992189 .1343689 .041992189 .043441774 .1349945-.022460938 .24398804-.022460938 .3659973-.022460938 .45700074 .06838989 .45700074 .17037964Z"/>
<path id="font_2_57" d="M.47099305 .16503906V.19602967H.37098695V.6507721C.37098695 .6707611 .37098695 .6767578 .35499574 .6767578 .34599305 .6767578 .34298707 .6767578 .33499146 .6647644L.027999878 .19602967V.16503906H.2939911V.07800293C.2939911 .041992189 .2919922 .0309906 .21798706 .0309906H.19699097V0C.23799134 .0029907227 .2899933 .0029907227 .33198548 .0029907227 .37399293 .0029907227 .4269867 .0029907227 .46798707 0V.0309906H.44699098C.37298585 .0309906 .37098695 .041992189 .37098695 .07800293V.16503906H.47099305M.2999878 .19602967H.055999757L.2999878 .56881716V.19602967Z"/>
<path id="font_2_82" d="M.4189911 0V.0309906H.3869934C.29699708 .0309906 .2939911 .041992189 .2939911 .07902527V.64012148C.2939911 .6640167 .2939911 .6660156 .2709961 .6660156 .20899964 .60227969 .12098694 .60227969 .08898926 .60227969V.57128909C.10899353 .57128909 .16799927 .57128909 .21998596 .5972748V.07902527C.21998596 .042999269 .21699524 .0309906 .1269989 .0309906H.09498596V0C.12998963 .0029907227 .21699524 .0029907227 .25698854 .0029907227 .29699708 .0029907227 .38398744 .0029907227 .4189911 0Z"/>
<path id="font_2_101" d="M.45700074 .2036438C.45700074 .33070375 .36799623 .4267578 .25698854 .4267578 .18899536 .4267578 .1519928 .37573243 .13198853 .327713V.35173036C.13198853 .6047821 .2559967 .64100649 .30699159 .64100649 .33099366 .64100649 .37298585 .634964 .394989 .6007538 .37998963 .6007538 .33999635 .6007538 .33999635 .5557556 .33999635 .524765 .3639984 .5097656 .38598634 .5097656 .4019928 .5097656 .43199159 .51875308 .43199159 .5577545 .43199159 .6178589 .3880005 .6660156 .30499269 .6660156 .1769867 .6660156 .041992189 .5367584 .041992189 .31570436 .041992189 .048553468 .1579895-.022460938 .25099183-.022460938 .3619995-.022460938 .45700074 .07156372 .45700074 .2036438M.36698915 .20463562C.36698915 .15661621 .36698915 .10658264 .34999085 .0705719 .31999208 .010528564 .27398683 .0055389406 .25099183 .0055389406 .18798828 .0055389406 .1579895 .06556702 .1519928 .080566409 .13398743 .127594 .13398743 .2076416 .13398743 .22564698 .13398743 .30369569 .1659851 .40374757 .2559967 .40374757 .27198792 .40374757 .31799317 .40374757 .34899903 .34172059 .36698915 .30470277 .36698915 .2536621 .36698915 .20463562Z"/>
<path id="font_1_72" d="M.29299928 0V.04699707H.22399903V.69433596L.04699707 .6855469V.63853457C.10899353 .63853457 .115997318 .63853457 .115997318 .5995636V.04699707H.04699707V0L.16999817 .0029907227 .29299928 0Z"/>
<path id="font_1_62" d="M.8600006 0V.04699707H.7519989V.63853457H.8600006V.6855469C.82199099 .6825409 .723999 .6825409 .68099978 .6825409 .6380005 .6825409 .5399933 .6825409 .5019989 .6855469V.63853457H.6100006V.3798828H.2889862V.63853457H.39698792V.6855469C.35899354 .6825409 .26098634 .6825409 .21798706 .6825409 .1749878 .6825409 .07699585 .6825409 .038986207 .6855469V.63853457H.14698792V.04699707H.038986207V0C.07699585 .0029907227 .1749878 .0029907227 .21798706 .0029907227 .26098634 .0029907227 .35899354 .0029907227 .39698792 0V.04699707H.2889862V.33287049H.6100006V.04699707H.5019989V0C.5399933 .0029907227 .6380005 .0029907227 .68099978 .0029907227 .723999 .0029907227 .82199099 .0029907227 .8600006 0Z"/>
<path id="font_1_63" d="M.61499026 0V.04699707H.54599V.30613709C.54599 .41119386 .49198915 .4501953 .3919983 .4501953 .29599 .4501953 .24499512 .3921814 .22299195 .3541565H.22200012V.69433596L.04499817 .6855469V.63853457C.10699463 .63853457 .11399841 .63853457 .11399841 .5996704V.04699707H.04499817V0L.17098999 .0029907227 .29699708 0V.04699707H.22799683V.25610353C.22799683 .36515809 .31399537 .41418458 .3769989 .41418458 .41099549 .41418458 .43199159 .39317323 .43199159 .31713868V.04699707H.36299134V0L.4889984 .0029907227 .61499026 0Z"/>
<path id="font_1_47" d="M.6009979 0V.04699707C.5389862 .04699707 .5319977 .04699707 .5319977 .086013797V.69433596L.35499574 .6855469V.63853457C.4169922 .63853457 .42399598 .63853457 .42399598 .5996704V.40518189C.37399293 .44418336 .32199098 .4501953 .2889862 .4501953 .14299011 .4501953 .037994386 .36218263 .037994386 .22116089 .037994386 .089141849 .12998963-.005859375 .27799989-.005859375 .33898927-.005859375 .3869934 .018127442 .41799928 .043136598V-.005859375L.6009979 0M.41799928 .102996829C.40499879 .08514404 .3639984 .030136109 .28799439 .030136109 .1659851 .030136109 .1659851 .15115357 .1659851 .22116089 .1659851 .26916505 .1659851 .3231659 .19198609 .36218263 .22099304 .40419007 .2679901 .41418458 .29899598 .41418458 .35598756 .41418458 .3959961 .3821869 .41799928 .35317994V.102996829Z"/>
<path id="font_1_80" d="M.798996 .33924867C.798996 .5552521 .6539917 .6972656 .43199159 .6972656 .20298767 .6972656 .06399536 .5492554 .06399536 .33924867 .06399536 .13224793 .20399475-.0107421879 .43099977-.0107421879 .6609955-.0107421879 .798996 .13424683 .798996 .33924867M.6459961 .3542633C.6459961 .28425599 .6419983 .19525147 .59999087 .12625122 .5549927 .053253175 .4850006 .03125 .43099977 .03125 .37199403 .03125 .29899598 .059249879 .2579956 .1352539 .22499085 .19725037 .21699524 .2682495 .21699524 .3542633 .21699524 .41825868 .21998596 .5032654 .2639923 .57125857 .30499269 .6322632 .37199403 .6572571 .43099977 .6572571 .49499513 .6572571 .56399539 .6292572 .60398867 .56326296 .6419983 .49925233 .6459961 .42225648 .6459961 .3542633Z"/>
<path id="font_1_112" d="M.5799866 .3973236V.44433595C.5549927 .44232179 .526001 .44132997 .5009918 .44132997L.4099884 .44433595V.3973236C.42900086 .3973236 .45799256 .39431764 .45799256 .38632203 .45799256 .38632203 .45799256 .38432313 .45298768 .37431336L.33699037 .12416077 .20999146 .3973236H.2639923V.44433595L.13999939 .44132997 .025985718 .44433595V.3973236H.08999634L.2649994 .021102906C.2769928-.00390625 .2899933-.00390625 .30299378-.00390625 .31999208-.00390625 .32998658-.00091552737 .33999635 .020095826L.5059967 .37631227C.5119934 .39031983 .5159912 .3973236 .5799866 .3973236Z"/>
<path id="font_1_74" d="M1.0509949 0V.04699707H.94299319V.63853457H1.0509949V.6855469H.8299866C.80799868 .6855469 .7969971 .6855469 .7859955 .6605377L.54599 .13192749 .30599977 .6605377C.29499818 .6855469 .28399659 .6855469 .2619934 .6855469H.039993287V.63853457H.147995V.07597351C.147995 .05392456 .14698792 .05291748 .11898804 .049926759 .09498596 .04699707 .09298706 .04699707 .06498718 .04699707H.039993287V0C.07798767 .0029296876 .1349945 .0029296876 .17399597 .0029296876 .21598816 .0029907227 .2679901 .0029907227 .30899049 0V.04699707H.28399659C.2659912 .046920778 .24899292 .047927858 .23098755 .049926759 .20199585 .05291748 .20098877 .05392456 .20098877 .075927738V.6259308H.20199585L.47399903 .024917603C.48298646 .004989624 .49499513 0 .5059967 0 .526001 0 .5339966 .01499939 .5379944 .023986817L.81700137 .63853457H.81799319V.04699707H.70999148V0C.74598696 .0029296876 .83898928 .0029296876 .8799896 .0029296876 .92099 .0029907227 1.0149994 .0029907227 1.0509949 0Z"/>
</defs>
<path transform="matrix(1.00009,0,0,-1.00005,34.543756,211.81099)" stroke-width=".19925" stroke-linecap="butt" stroke-miterlimit="10" stroke-linejoin="miter" fill="none" stroke="#d9d9d9" d="M0 0H198.42766M0 2.83484H198.42766M0 5.6697H198.42766M0 8.50455H198.42766M0 11.33939H198.42766M0 14.17424H198.42766M0 17.0091H198.42766M0 19.84393H198.42766M0 22.67879H198.42766M0 25.51364H198.42766M0 28.3485H198.42766M0 31.18333H198.42766M0 34.01819H198.42766M0 36.85304H198.42766M0 39.68788H198.42766M0 42.52274H198.42766M0 45.35759H198.42766M0 48.19244H198.42766M0 51.02728H198.42766M0 53.86214H198.42766M0 56.69699H198.42766M0 59.53183H198.42766M0 62.36668H198.42766M0 65.20154H198.42766M0 68.03639H198.42766M0 70.87123H198.42766M0 73.70609H198.42766M0 76.54094H198.42766M0 79.37578H198.42766M0 82.21063H198.42766M0 85.04549H198.42766M0 87.88034H198.42766M0 90.71518H198.42766M0 93.55003H198.42766M0 96.38489H198.42766M0 99.21973H198.42766M0 102.05458H198.42766M0 104.88943H198.42766M0 107.72429H198.42766M0 110.55913H198.42766M0 113.39398H198.42766M0 116.22884H198.42766M0 119.06367H198.42766M0 121.89853H198.42766M0 124.73338H198.42766M0 127.56824H198.42766M0 130.40308H198.42766M0 133.23793H198.42766M0 136.07279H198.42766M0 138.90763H198.42766M0 141.74248H198.42766M0 144.57733H198.42766M0 147.41219H198.42766M0 150.24703H198.42766M0 153.08188H198.42766M0 155.91674H198.42766M0 158.75157H198.42766M0 161.58643H198.42766M0 164.42128H198.42766M0 167.25612H198.42766M0 170.09098H198.42766M0 172.92583H198.42766M0 175.76068H198.42766M0 178.59552H198.42766M0 181.43038H198.42766M0 184.26523H198.42766M0 187.10007H198.42766M0 189.93492H198.42766M0 192.76978H198.42766M0 195.60463H198.42766M0 0V198.42766M2.83484 0V198.42766M5.6697 0V198.42766M8.50455 0V198.42766M11.33939 0V198.42766M14.17424 0V198.42766M17.0091 0V198.42766M19.84393 0V198.42766M22.67879 0V198.42766M25.51364 0V198.42766M28.3485 0V198.42766M31.18333 0V198.42766M34.01819 0V198.42766M36.85304 0V198.42766M39.68788 0V198.42766M42.52274 0V198.42766M45.35759 0V198.42766M48.19244 0V198.42766M51.02728 0V198.42766M53.86214 0V198.42766M56.69699 0V198.42766M59.53183 0V198.42766M62.36668 0V198.42766M65.20154 0V198.42766M68.03639 0V198.42766M70.87123 0V198.42766M73.70609 0V198.42766M76.54094 0V198.42766M79.37578 0V198.42766M82.21063 0V198.42766M85.04549 0V198.42766M87.88034 0V198.42766M90.71518 0V198.42766M93.55003 0V198.42766M96.38489 0V198.42766M99.21973 0V198.42766M102.05458 0V198.42766M104.88943 0V198.42766M107.72429 0V198.42766M110.55913 0V198.42766M113.39398 0V198.42766M116.22884 0V198.42766M119.06367 0V198.42766M121.89853 0V198.42766M124.73338 0V198.42766M127.56824 0V198.42766M130.40308 0V198.42766M133.23793 0V198.42766M136.07279 0V198.42766M138.90763 0V198.42766M141.74248 0V198.42766M144.57733 0V198.42766M147.41219 0V198.42766M150.24703 0V198.42766M153.08188 0V198.42766M155.91674 0V198.42766M158.75157 0V198.42766M161.58643 0V198.42766M164.42128 0V198.42766M167.25612 0V198.42766M170.09098 0V198.42766M172.92583 0V198.42766M175.76068 0V198.42766M178.59552 0V198.42766M181.43038 0V198.42766M184.26523 0V198.42766M187.10007 0V198.42766M189.93492 0V198.42766M192.76978 0V198.42766M195.60463 0V198.42766M198.42766 198.42766"/>
<path transform="matrix(1.00009,0,0,-1.00005,34.543756,211.81099)" stroke-width=".3985" stroke-linecap="butt" stroke-miterlimit="10" stroke-linejoin="miter" fill="none" stroke="#a6a6a6" d="M0 0H198.42766M0 28.3468H198.42766M0 56.69362H198.42766M0 85.04042H198.42766M0 113.38724H198.42766M0 141.73404H198.42766M0 170.08086H198.42766M0 198.41771H198.42766M0 0V198.42766M28.3468 0V198.42766M56.69362 0V198.42766M85.04042 0V198.42766M113.38724 0V198.42766M141.73404 0V198.42766M170.08086 0V198.42766M198.41771 0V198.42766M198.42766 198.42766"/>
<path transform="matrix(1.00009,0,0,-1.00005,34.543756,211.81099)" stroke-width=".79701" stroke-linecap="butt" stroke-miterlimit="10" stroke-linejoin="miter" fill="none" stroke="#000000" d="M0 0H197.63065"/>
<path transform="matrix(1.00009,0,0,-1.00005,232.59073,211.81099)" stroke-width=".79701" stroke-linecap="round" stroke-linejoin="round" fill="none" stroke="#000000" d="M-2.55046 3.11095C-2.0845 1.24435-1.04614 .36295 0 0-1.04614-.36295-2.0845-1.24435-2.55046-3.11095"/>
<path transform="matrix(1.00009,0,0,-1.00005,34.543756,211.81099)" stroke-width=".79701" stroke-linecap="butt" stroke-miterlimit="10" stroke-linejoin="miter" fill="none" stroke="#000000" d="M0 0V197.63065"/>
<path transform="matrix(0,-1.00005,-1.00009,-0,34.543756,13.771942)" stroke-width=".79701" stroke-linecap="round" stroke-linejoin="round" fill="none" stroke="#000000" d="M-2.55046 3.11095C-2.0845 1.24435-1.04614 .36295 0 0-1.04614-.36295-2.0845-1.24435-2.55046-3.11095"/>
<use data-text="W" xlink:href="#font_1_113" transform="matrix(9.963496,0,0,-9.963098,76.26251,245.48168)"/>
<use data-text="a" xlink:href="#font_1_28" transform="matrix(9.963496,0,0,-9.963098,87.1526,245.48168)"/>
<use data-text="t" xlink:href="#font_1_105" transform="matrix(9.963496,0,0,-9.963098,92.7222,245.48168)"/>
<use data-text="e" xlink:href="#font_1_50" transform="matrix(9.963496,0,0,-9.963098,97.17587,245.48168)"/>
<use data-text="r" xlink:href="#font_1_96" transform="matrix(9.963496,0,0,-9.963098,102.426639,245.48168)"/>
<use data-text="C" xlink:href="#font_1_42" transform="matrix(9.963496,0,0,-9.963098,110.9554,245.48168)"/>
<use data-text="o" xlink:href="#font_1_81" transform="matrix(9.963496,0,0,-9.963098,119.23506,245.48168)"/>
<use data-text="n" xlink:href="#font_1_77" transform="matrix(9.963496,0,0,-9.963098,124.964069,245.48168)"/>
<use data-text="s" xlink:href="#font_1_98" transform="matrix(9.963496,0,0,-9.963098,131.33075,245.48168)"/>
<use data-text="u" xlink:href="#font_1_109" transform="matrix(9.963496,0,0,-9.963098,135.85419,245.48168)"/>
<use data-text="m" xlink:href="#font_1_75" transform="matrix(9.963496,0,0,-9.963098,142.22086,245.48168)"/>
<use data-text="p" xlink:href="#font_1_84" transform="matrix(9.963496,0,0,-9.963098,151.77585,245.48168)"/>
<use data-text="t" xlink:href="#font_1_105" transform="matrix(9.963496,0,0,-9.963098,158.14253,245.48168)"/>
<use data-text="i" xlink:href="#font_1_66" transform="matrix(9.963496,0,0,-9.963098,162.5962,245.48168)"/>
<use data-text="o" xlink:href="#font_1_81" transform="matrix(9.963496,0,0,-9.963098,165.77457,245.48168)"/>
<use data-text="n" xlink:href="#font_1_77" transform="matrix(9.963496,0,0,-9.963098,171.50359,245.48168)"/>
<use data-text="(" xlink:href="#font_1_85" transform="matrix(9.963496,0,0,-9.963098,181.68628,245.48168)"/>
<use data-text="L" xlink:href="#font_1_71" transform="matrix(9.963496,0,0,-9.963098,186.13996,245.48168)"/>
<use data-text="i" xlink:href="#font_1_66" transform="matrix(9.963496,0,0,-9.963098,193.0347,245.48168)"/>
<use data-text="t" xlink:href="#font_1_105" transform="matrix(9.963496,0,0,-9.963098,196.21306,245.48168)"/>
<use data-text="e" xlink:href="#font_1_50" transform="matrix(9.963496,0,0,-9.963098,200.66674,245.48168)"/>
<use data-text="r" xlink:href="#font_1_96" transform="matrix(9.963496,0,0,-9.963098,205.9175,245.48168)"/>
<use data-text="s" xlink:href="#font_1_98" transform="matrix(9.963496,0,0,-9.963098,210.6402,245.48168)"/>
<use data-text=")" xlink:href="#font_1_86" transform="matrix(9.963496,0,0,-9.963098,215.16362,245.48168)"/>
<use data-text="F" xlink:href="#font_1_54" transform="matrix(0,-9.963098,-9.963496,-0,8.689438,142.78453)"/>
<use data-text="r" xlink:href="#font_1_96" transform="matrix(0,-9.963098,-9.963496,-0,8.689438,136.52771)"/>
<use data-text="e" xlink:href="#font_1_50" transform="matrix(0,-9.963098,-9.963496,-0,8.689438,131.8052)"/>
<use data-text="q" xlink:href="#font_1_91" transform="matrix(0,-9.963098,-9.963496,-0,8.689438,126.55466)"/>
<use data-text="u" xlink:href="#font_1_109" transform="matrix(0,-9.963098,-9.963496,-0,8.689438,120.50705)"/>
<use data-text="e" xlink:href="#font_1_50" transform="matrix(0,-9.963098,-9.963496,-0,8.689438,114.140628)"/>
<use data-text="n" xlink:href="#font_1_77" transform="matrix(0,-9.963098,-9.963496,-0,8.689438,108.890079)"/>
<use data-text="c" xlink:href="#font_1_43" transform="matrix(0,-9.963098,-9.963496,-0,8.689438,102.52365)"/>
<use data-text="y" xlink:href="#font_1_118" transform="matrix(0,-9.963098,-9.963496,-0,8.689438,97.432498)"/>
<use data-text="(" xlink:href="#font_1_85" transform="matrix(0,-9.963098,-9.963496,-0,8.689438,87.56903)"/>
<use data-text="D" xlink:href="#font_1_46" transform="matrix(0,-9.963098,-9.963496,-0,8.689438,83.115528)"/>
<use data-text="a" xlink:href="#font_1_28" transform="matrix(0,-9.963098,-9.963496,-0,8.689438,74.32808)"/>
<use data-text="y" xlink:href="#font_1_118" transform="matrix(0,-9.963098,-9.963496,-0,8.689438,69.06755)"/>
<use data-text="s" xlink:href="#font_1_98" transform="matrix(0,-9.963098,-9.963496,-0,8.689438,63.01996)"/>
<use data-text=")" xlink:href="#font_1_86" transform="matrix(0,-9.963098,-9.963496,-0,8.689438,58.496706)"/>
<use data-text="2" xlink:href="#font_2_107" transform="matrix(9.963496,0,0,-9.963098,57.91086,221.96649)"/>
<use data-text="0" xlink:href="#font_2_121" transform="matrix(9.963496,0,0,-9.963098,62.89261,221.96649)"/>
<use data-text="2" xlink:href="#font_2_107" transform="matrix(9.963496,0,0,-9.963098,86.26041,221.96649)"/>
<use data-text="5" xlink:href="#font_2_56" transform="matrix(9.963496,0,0,-9.963098,91.24216,221.96649)"/>
<use data-text="3" xlink:href="#font_2_106" transform="matrix(9.963496,0,0,-9.963098,114.609958,221.96649)"/>
<use data-text="0" xlink:href="#font_2_121" transform="matrix(9.963496,0,0,-9.963098,119.591709,221.96649)"/>
<use data-text="3" xlink:href="#font_2_106" transform="matrix(9.963496,0,0,-9.963098,142.9595,221.96649)"/>
<use data-text="5" xlink:href="#font_2_56" transform="matrix(9.963496,0,0,-9.963098,147.94126,221.96649)"/>
<use data-text="4" xlink:href="#font_2_57" transform="matrix(9.963496,0,0,-9.963098,171.30908,222.0765)"/>
<use data-text="0" xlink:href="#font_2_121" transform="matrix(9.963496,0,0,-9.963098,176.29084,222.0765)"/>
<use data-text="1" xlink:href="#font_2_82" transform="matrix(9.963496,0,0,-9.963098,26.041993,186.78075)"/>
<use data-text="2" xlink:href="#font_2_107" transform="matrix(9.963496,0,0,-9.963098,26.041993,158.43233)"/>
<use data-text="3" xlink:href="#font_2_106" transform="matrix(9.963496,0,0,-9.963098,26.041993,129.9749)"/>
<use data-text="4" xlink:href="#font_2_57" transform="matrix(9.963496,0,0,-9.963098,26.041993,101.7905)"/>
<use data-text="5" xlink:href="#font_2_56" transform="matrix(9.963496,0,0,-9.963098,26.041993,73.278079)"/>
<use data-text="6" xlink:href="#font_2_101" transform="matrix(9.963496,0,0,-9.963098,26.041993,44.929658)"/>
<path transform="matrix(1.00009,0,0,-1.00005,34.543756,211.81099)" d="M28.3468 0V56.69362H56.69362V0ZM56.69362 56.69362" fill="#6666ff"/>
<path transform="matrix(1.00009,0,0,-1.00005,34.543756,211.81099)" stroke-width=".3985" stroke-linecap="butt" stroke-miterlimit="10" stroke-linejoin="miter" fill="none" stroke="#000000" d="M28.3468 0V56.69362H56.69362V0ZM56.69362 56.69362"/>
<path transform="matrix(1.00009,0,0,-1.00005,34.543756,211.81099)" d="M56.69362 0V113.38724H85.04042V0ZM85.04042 113.38724" fill="#6666ff"/>
<path transform="matrix(1.00009,0,0,-1.00005,34.543756,211.81099)" stroke-width=".3985" stroke-linecap="butt" stroke-miterlimit="10" stroke-linejoin="miter" fill="none" stroke="#000000" d="M56.69362 0V113.38724H85.04042V0ZM85.04042 113.38724"/>
<path transform="matrix(1.00009,0,0,-1.00005,34.543756,211.81099)" d="M85.04042 0V170.08086H113.38724V0ZM113.38724 170.08086" fill="#6666ff"/>
<path transform="matrix(1.00009,0,0,-1.00005,34.543756,211.81099)" stroke-width=".3985" stroke-linecap="butt" stroke-miterlimit="10" stroke-linejoin="miter" fill="none" stroke="#000000" d="M85.04042 0V170.08086H113.38724V0ZM113.38724 170.08086"/>
<path transform="matrix(1.00009,0,0,-1.00005,34.543756,211.81099)" d="M113.38724 0V141.73404H141.73404V0ZM141.73404 141.73404" fill="#6666ff"/>
<path transform="matrix(1.00009,0,0,-1.00005,34.543756,211.81099)" stroke-width=".3985" stroke-linecap="butt" stroke-miterlimit="10" stroke-linejoin="miter" fill="none" stroke="#000000" d="M113.38724 0V141.73404H141.73404V0ZM141.73404 141.73404"/>
<path transform="matrix(1.00009,0,0,-1.00005,34.543756,211.81099)" d="M141.73404 0V85.04042H170.08086V0ZM170.08086 85.04042" fill="#6666ff"/>
<path transform="matrix(1.00009,0,0,-1.00005,34.543756,211.81099)" stroke-width=".3985" stroke-linecap="butt" stroke-miterlimit="10" stroke-linejoin="miter" fill="none" stroke="#000000" d="M141.73404 0V85.04042H170.08086V0ZM170.08086 85.04042"/>
<use data-text="D" xlink:href="#font_1_46" transform="matrix(9.963496,0,0,-9.963098,2.1218339,7.860794)"/>
<use data-text="a" xlink:href="#font_1_28" transform="matrix(9.963496,0,0,-9.963098,10.909637,7.860794)"/>
<use data-text="i" xlink:href="#font_1_66" transform="matrix(9.963496,0,0,-9.963098,16.479233,7.860794)"/>
<use data-text="l" xlink:href="#font_1_72" transform="matrix(9.963496,0,0,-9.963098,19.657593,7.860794)"/>
<use data-text="y" xlink:href="#font_1_118" transform="matrix(9.963496,0,0,-9.963098,22.835938,7.860794)"/>
<use data-text="H" xlink:href="#font_1_62" transform="matrix(9.963496,0,0,-9.963098,32.689836,7.860794)"/>
<use data-text="o" xlink:href="#font_1_81" transform="matrix(9.963496,0,0,-9.963098,41.656984,7.860794)"/>
<use data-text="u" xlink:href="#font_1_109" transform="matrix(9.963496,0,0,-9.963098,47.386,7.860794)"/>
<use data-text="s" xlink:href="#font_1_98" transform="matrix(9.963496,0,0,-9.963098,53.752687,7.860794)"/>
<use data-text="e" xlink:href="#font_1_50" transform="matrix(9.963496,0,0,-9.963098,58.28607,7.860794)"/>
<use data-text="h" xlink:href="#font_1_63" transform="matrix(9.963496,0,0,-9.963098,63.536836,7.860794)"/>
<use data-text="o" xlink:href="#font_1_81" transform="matrix(9.963496,0,0,-9.963098,69.90352,7.860794)"/>
<use data-text="l" xlink:href="#font_1_72" transform="matrix(9.963496,0,0,-9.963098,75.63254,7.860794)"/>
<use data-text="d" xlink:href="#font_1_47" transform="matrix(9.963496,0,0,-9.963098,78.81088,7.860794)"/>
<use data-text="W" xlink:href="#font_1_113" transform="matrix(9.963496,0,0,-9.963098,88.993579,7.860794)"/>
<use data-text="a" xlink:href="#font_1_28" transform="matrix(9.963496,0,0,-9.963098,99.89366,7.860794)"/>
<use data-text="t" xlink:href="#font_1_105" transform="matrix(9.963496,0,0,-9.963098,105.46326,7.860794)"/>
<use data-text="e" xlink:href="#font_1_50" transform="matrix(9.963496,0,0,-9.963098,109.91693,7.860794)"/>
<use data-text="r" xlink:href="#font_1_96" transform="matrix(9.963496,0,0,-9.963098,115.167697,7.860794)"/>
<use data-text="C" xlink:href="#font_1_42" transform="matrix(9.963496,0,0,-9.963098,123.69644,7.860794)"/>
<use data-text="o" xlink:href="#font_1_81" transform="matrix(9.963496,0,0,-9.963098,131.9761,7.860794)"/>
<use data-text="n" xlink:href="#font_1_77" transform="matrix(9.963496,0,0,-9.963098,137.70513,7.860794)"/>
<use data-text="s" xlink:href="#font_1_98" transform="matrix(9.963496,0,0,-9.963098,144.07178,7.860794)"/>
<use data-text="u" xlink:href="#font_1_109" transform="matrix(9.963496,0,0,-9.963098,148.59519,7.860794)"/>
<use data-text="m" xlink:href="#font_1_75" transform="matrix(9.963496,0,0,-9.963098,154.96186,7.860794)"/>
<use data-text="p" xlink:href="#font_1_84" transform="matrix(9.963496,0,0,-9.963098,164.50687,7.860794)"/>
<use data-text="t" xlink:href="#font_1_105" transform="matrix(9.963496,0,0,-9.963098,170.87354,7.860794)"/>
<use data-text="i" xlink:href="#font_1_66" transform="matrix(9.963496,0,0,-9.963098,175.32721,7.860794)"/>
<use data-text="o" xlink:href="#font_1_81" transform="matrix(9.963496,0,0,-9.963098,178.50559,7.860794)"/>
<use data-text="n" xlink:href="#font_1_77" transform="matrix(9.963496,0,0,-9.963098,184.23459,7.860794)"/>
<use data-text="O" xlink:href="#font_1_80" transform="matrix(9.963496,0,0,-9.963098,194.41727,7.860794)"/>
<use data-text="v" xlink:href="#font_1_112" transform="matrix(9.963496,0,0,-9.963098,203.02573,7.860794)"/>
<use data-text="e" xlink:href="#font_1_50" transform="matrix(9.963496,0,0,-9.963098,208.76471,7.860794)"/>
<use data-text="r" xlink:href="#font_1_96" transform="matrix(9.963496,0,0,-9.963098,214.01548,7.860794)"/>
<use data-text="a" xlink:href="#font_1_28" transform="matrix(9.963496,0,0,-9.963098,222.54425,7.860794)"/>
<use data-text="M" xlink:href="#font_1_74" transform="matrix(9.963496,0,0,-9.963098,231.92984,7.860794)"/>
<use data-text="o" xlink:href="#font_1_81" transform="matrix(9.963496,0,0,-9.963098,242.80997,7.860794)"/>
<use data-text="n" xlink:href="#font_1_77" transform="matrix(9.963496,0,0,-9.963098,248.53897,7.860794)"/>
<use data-text="t" xlink:href="#font_1_105" transform="matrix(9.963496,0,0,-9.963098,254.59677,7.860794)"/>
<use data-text="h" xlink:href="#font_1_63" transform="matrix(9.963496,0,0,-9.963098,259.05046,7.860794)"/>
</svg>
