<svg xmlns="http://www.w3.org/2000/svg" xmlns:xlink="http://www.w3.org/1999/xlink" xmlns:inkscape="http://www.inkscape.org/namespaces/inkscape" version="1.1" width="458" height="458" viewBox="0 0 458 458">
<defs>
<path id="font_1_56" d="M.4169922 .20240784C.4169922 .32240296 .33898927 .41540528 .24198914 .41540528 .19099427 .41540528 .147995 .39640809 .11399841 .3604126V.58535769C.12399292 .5813446 .16499329 .5683594 .20698548 .5683594 .2999878 .5683594 .35099793 .61834719 .37998963 .64723208 .37998963 .6551819 .37998963 .66015627 .37399293 .66015627 .37399293 .66015627 .37098695 .66015627 .36299134 .6561737 .32798768 .64126589 .2869873 .62934878 .23699951 .62934878 .20698548 .62927249 .1619873 .63327029 .11299133 .65527346 .101989749 .66015627 .09899902 .66015627 .09899902 .66015627 .09399414 .66026309 .09298706 .65927127 .09298706 .63926699V.3493805C.09298706 .33137513 .09298706 .3263855 .102996829 .3263855 .10798645 .3263855 .10998535 .3283844 .114990238 .33538819 .14698792 .3804016 .19099427 .39941407 .24099732 .39941407 .27598573 .39941407 .35099793 .37739564 .35099793 .20632935 .35099793 .1743164 .35099793 .11630249 .32099916 .0703125 .29599 .029342652 .25698854 .008361816 .21398926 .008361816 .147995 .008361816 .08099365 .05432129 .06298828 .13130188 .066986087 .13009644 .07499695 .12809754 .07899475 .12809754 .09199524 .12809754 .116989139 .13510132 .116989139 .16609192 .116989139 .19309998 .09799194 .20410156 .07899475 .20410156 .055999757 .20410156 .040985109 .190094 .040985109 .16209412 .040985109 .07521057 .10998535-.015625 .21598816-.015625 .31900025-.015625 .4169922 .07322693 .4169922 .2020874V.20240784Z"/>
<path id="font_1_43" d="M.38398744 .11817932C.38398744 .122177127 .3829956 .1251831 .37599183 .1251831 .36898805 .1251831 .36799623 .124176029 .3639984 .11117554 .33799745 .030181885 .2809906 .010177612 .23799134 .010177612 .17399597 .010177612 .09700012 .06918335 .09700012 .21717835 .09700012 .36930848 .17098999 .42437745 .22999573 .42437745 .2689972 .42437745 .32699586 .40534974 .34899903 .35029603 .32998658 .35029603 .3019867 .35029603 .3019867 .31529237 .3019867 .28729249 .32499696 .27929688 .33799745 .27929688 .34498597 .27931214 .37399293 .28230287 .37399293 .31732179 .37399293 .3883667 .30599977 .4423828 .22898865 .4423828 .12298584 .4423828 .032989503 .3443451 .032989503 .21627808 .032989503 .083221439 .1269989-.0078125 .22898865-.0078125 .35299684-.0078125 .38398744 .10722351 .38398744 .1182251V.11817932Z"/>
<path id="font_1_75" d="M.74398806 0V.025985718C.6799927 .025985718 .6759949 .02999878 .6759949 .06904602V.3043213C.6759949 .35438539 .6669922 .43847657 .5479889 .43847657 .47999574 .43847657 .43299867 .3924408 .4149933 .33836366H.4139862C.4019928 .4204712 .34298707 .43847657 .2869873 .43847657 .20799256 .43847657 .16699219 .3774109 .1519928 .33737184H.15098572V.43847657L.032989503 .4273529V.4013672C.09199524 .4013672 .100997928 .39535523 .100997928 .3473053V.06903076C.100997928 .0309906 .09700012 .025985718 .032989503 .025985718V0C.056991579 .0019989014 .100997928 .0019989014 .1269989 .0019989014 .15299988 .0019989014 .19799805 .0019989014 .22200012 0V.025985718C.1579895 .025985718 .1539917 .02999878 .1539917 .06903076V.26123048C.1539917 .35339356 .20999146 .4224701 .27999879 .4224701 .35398866 .4224701 .3619995 .35638429 .3619995 .30833436V.06904602C.3619995 .03100586 .35798646 .025985718 .2939911 .025985718V0C.31799317 .0019989014 .3619995 .0019989014 .3880005 .0019989014 .4139862 .0019989014 .45899964 .0019989014 .48298646 0V.025985718C.4189911 .025985718 .4149933 .02999878 .4149933 .06904602V.26127626C.4149933 .35339356 .47099305 .4224701 .54100039 .4224701 .61499026 .4224701 .6230011 .35638429 .6230011 .30833436V.06904602C.6230011 .03100586 .61898806 .025985718 .5549927 .025985718V0C.57899478 .0019989014 .6230011 .0019989014 .6489868 .0019989014 .6749878 .0019989014 .7200012 .0019989014 .74398806 0Z"/>
<path id="font_1_82" d="M.38398744 0V.025985718H.35398866C.2679901 .025985718 .2659912 .037002565 .2659912 .073013309V.6391907C.2659912 .66012576 .2649994 .6611328 .25099183 .6611328 .21199036 .6142578 .15299988 .5993042 .09700012 .5973053 .09399414 .5973053 .08898926 .5973053 .08799744 .5953064 .08699036 .5933075 .08699036 .5913086 .08699036 .5703125 .117996219 .5703125 .16999817 .5763092 .20999146 .600296V.073013309C.20999146 .037994386 .20799256 .025985718 .12199402 .025985718H.09199524V0L.23799134 .0019989014 .38398744 0Z"/>
<path id="font_1_101" d="M.41999818 .20526123C.41999818 .33026124 .33898927 .42126466 .23699951 .42126466 .17599488 .42126466 .1309967 .38127137 .10598755 .31126405V.34526063C.10598755 .5844116 .21798706 .63812258 .2829895 .63812258 .3039856 .63812258 .35499574 .6341553 .375 .5954132 .35899354 .5954132 .32899476 .5954132 .32899476 .56040957 .32899476 .5334015 .35099793 .52441409 .36499024 .52441409 .37399293 .52441409 .40098573 .52841189 .40098573 .56240847 .40098573 .6251221 .35099793 .6611328 .28199769 .6611328 .16299439 .6611328 .037994386 .5371704 .037994386 .31625367 .037994386 .0443573 .15098572-.015625 .23098755-.015625 .32798768-.0155181889 .41999818 .07148743 .41999818 .20549011V.20526123M.35198976 .20648194C.35198976 .15245056 .35198976 .11242676 .33099366 .072402957 .30899049 .03138733 .2769928 .008361816 .23098755 .008361816 .10798645 .008361816 .10798645 .19247437 .10798645 .22949219 .10798645 .3013916 .14199829 .40527345 .23498535 .40527345 .2519989 .40527345 .30099488 .40527345 .33399964 .3363495 .35198976 .29748536 .35198976 .256485 .35198976 .20648194Z"/>
<path id="font_1_78" d="M.41999818 .33032228C.41999818 .60417178 .30799867 .6611328 .23199463 .6611328 .1329956 .6611328 .037994386 .57421877 .037994386 .4404297 .037994386 .3163147 .11898804 .2242279 .22099304 .2242279 .30499269 .2242279 .34199525 .30229188 .35198976 .33532716V.29629518C.35198976 .07608032 .26098634 .008361816 .18598938 .008361816 .16299439 .008361816 .10699463 .011352539 .083999637 .050079347 .10998535 .046081544 .1289978 .06008911 .1289978 .08508301 .1289978 .112091068 .10699463 .12109375 .09298706 .12109375 .083999637 .121292117 .056991579 .11729431 .056991579 .08331299 .056991579 .015365601 .115997318-.015625 .18798828-.015625 .30299378-.015625 .41999818 .110305789 .41999818 .3302307V.33032228M.34999085 .41722108C.34999085 .34622193 .31799317 .24023438 .22299195 .24023438 .19599915 .24023438 .1579895 .245224 .1269989 .30522157 .10598755 .3444214 .10598755 .39042665 .10598755 .4394226 .10598755 .4983368 .10598755 .5392761 .13398743 .5832062 .147995 .60417178 .17399597 .63812258 .23199463 .63812258 .34999085 .63812258 .34999085 .45739747 .34999085 .41741944V.41722108Z"/>
</defs>
<path transform="matrix(1.00002,0,0,-1,115.88194,342.355)" stroke-width=".79701" stroke-linecap="butt" stroke-dasharray="2.98883,2.98883" stroke-miterlimit="10" stroke-linejoin="miter" fill="none" stroke="#000000" d="M0 0V226.77448H226.77448V0ZM226.77448 226.77448"/>
<path transform="matrix(1.00002,0,0,-1,115.88194,342.355)" stroke-width="1.19553" stroke-linecap="butt" stroke-miterlimit="10" stroke-linejoin="miter" fill="none" stroke="#000000" d="M0 0 113.38724-113.38724 226.77448 0"/>
<path transform="matrix(1.00002,0,0,-1,115.88194,342.355)" stroke-width="1.19553" stroke-linecap="butt" stroke-miterlimit="10" stroke-linejoin="miter" fill="none" stroke="#000000" d="M0 226.77448 113.38724 340.1617 226.77448 226.77448"/>
<path transform="matrix(1.00002,0,0,-1,115.88194,342.355)" d="M0 226.77448 113.38724 340.1617 226.77448 226.77448" fill="#bfbfbf"/>
<path transform="matrix(1.00002,0,0,-1,115.88194,342.355)" stroke-width=".79701" stroke-linecap="butt" stroke-dasharray="2.98883,2.98883" stroke-miterlimit="10" stroke-linejoin="miter" fill="none" stroke="#000000" d="M113.38724 340.1617V226.77448"/>
<path transform="matrix(1.00002,0,0,-1,115.88194,342.355)" stroke-width=".79701" stroke-linecap="butt" stroke-dasharray="2.98883,2.98883" stroke-miterlimit="10" stroke-linejoin="miter" fill="none" stroke="#000000" d="M113.38724-113.38724V0"/>
<path transform="matrix(1.00002,0,0,-1,115.88194,342.355)" stroke-width="1.19553" stroke-linecap="butt" stroke-miterlimit="10" stroke-linejoin="miter" fill="none" stroke="#000000" d="M226.77448 0H340.1617V226.77448H226.77448"/>
<path transform="matrix(1.00002,0,0,-1,115.88194,342.355)" stroke-width="1.19553" stroke-linecap="butt" stroke-miterlimit="10" stroke-linejoin="miter" fill="none" stroke="#000000" d="M0 0H-113.38724V226.77448H0"/>
<use data-text="5" xlink:href="#font_1_56" transform="matrix(20.662915,0,0,-20.6625,209.23882,55.037019)"/>
<use data-text="c" xlink:href="#font_1_43" transform="matrix(20.662915,0,0,-20.6625,224.9633,55.037019)"/>
<use data-text="m" xlink:href="#font_1_75" transform="matrix(20.662915,0,0,-20.6625,233.35245,55.037019)"/>
<use data-text="5" xlink:href="#font_1_56" transform="matrix(20.662915,0,0,-20.6625,209.23882,416.206)"/>
<use data-text="c" xlink:href="#font_1_43" transform="matrix(20.662915,0,0,-20.6625,224.9633,416.206)"/>
<use data-text="m" xlink:href="#font_1_75" transform="matrix(20.662915,0,0,-20.6625,233.35245,416.206)"/>
<use data-text="1" xlink:href="#font_1_82" transform="matrix(20.662915,0,0,-20.6625,204.49672,324.33103)"/>
<use data-text="6" xlink:href="#font_1_101" transform="matrix(20.662915,0,0,-20.6625,213.981,324.33103)"/>
<use data-text="c" xlink:href="#font_1_43" transform="matrix(20.662915,0,0,-20.6625,229.70548,324.33103)"/>
<use data-text="m" xlink:href="#font_1_75" transform="matrix(20.662915,0,0,-20.6625,238.09464,324.33103)"/>
<use data-text="1" xlink:href="#font_1_82" transform="matrix(20.662915,0,0,-20.6625,346.18055,235.63202)"/>
<use data-text="9" xlink:href="#font_1_78" transform="matrix(20.662915,0,0,-20.6625,355.66487,235.63202)"/>
<use data-text="c" xlink:href="#font_1_43" transform="matrix(20.662915,0,0,-20.6625,371.3893,235.63202)"/>
<use data-text="m" xlink:href="#font_1_75" transform="matrix(20.662915,0,0,-20.6625,379.77848,235.63202)"/>
</svg>
