<svg xmlns="http://www.w3.org/2000/svg" xmlns:xlink="http://www.w3.org/1999/xlink" xmlns:inkscape="http://www.inkscape.org/namespaces/inkscape" version="1.1" width="207" height="140" viewBox="0 0 207 140">
<path transform="matrix(1.00002,0,0,-1.00009,35.311349,86.84238)" d="M0 0H136.05814L51.02179-51.02179Z" fill="#a3c2a3"/>
<path transform="matrix(1.00002,0,0,-1.00009,35.311349,86.84238)" stroke-width=".3985" stroke-linecap="butt" stroke-miterlimit="10" stroke-linejoin="miter" fill="none" stroke="#000000" d="M0 0H136.05814L51.02179-51.02179Z"/>
<path transform="matrix(1.00002,0,0,-1.00009,35.311349,86.84238)" d="M0 0 51.02179-51.02179 68.02905 85.03632Z" fill="#85ad85"/>
<path transform="matrix(1.00002,0,0,-1.00009,35.311349,86.84238)" stroke-width=".3985" stroke-linecap="butt" stroke-miterlimit="10" stroke-linejoin="miter" fill="none" stroke="#000000" d="M0 0 51.02179-51.02179 68.02905 85.03632Z"/>
<path transform="matrix(1.00002,0,0,-1.00009,35.311349,86.84238)" d="M136.05814 0 51.02179-51.02179 68.02905 85.03632Z" fill="#527a52"/>
<path transform="matrix(1.00002,0,0,-1.00009,35.311349,86.84238)" stroke-width=".3985" stroke-linecap="butt" stroke-miterlimit="10" stroke-linejoin="miter" fill="none" stroke="#000000" d="M136.05814 0 51.02179-51.02179 68.02905 85.03632Z"/>
<path transform="matrix(1.00002,0,0,-1.00009,35.311349,86.84238)" d="M0 0H136.05814L68.02905 85.03632Z" fill="#94b894"/>
<path transform="matrix(1.00002,0,0,-1.00009,35.311349,86.84238)" stroke-width=".3985" stroke-linecap="butt" stroke-miterlimit="10" stroke-linejoin="miter" fill="none" stroke="#000000" d="M0 0H136.05814L68.02905 85.03632Z"/>
<path transform="matrix(1.00002,0,0,-1.00009,35.311349,86.84238)" stroke-width=".3985" stroke-linecap="butt" stroke-miterlimit="10" stroke-linejoin="miter" fill="none" stroke="#000000" d="M0 0-23.81113-23.81113"/>
<path transform="matrix(1.00002,0,0,-1.00009,35.311349,86.84238)" d="M-22.6156-23.81113C-22.6156-23.15086-23.15086-22.6156-23.81113-22.6156-24.47139-22.6156-25.00665-23.15086-25.00665-23.81113-25.00665-24.47139-24.47139-25.00665-23.81113-25.00665-23.15086-25.00665-22.6156-24.47139-22.6156-23.81113ZM-23.81113-23.81113"/>
<path transform="matrix(1.00002,0,0,-1.00009,35.311349,86.84238)" stroke-width=".3985" stroke-linecap="butt" stroke-miterlimit="10" stroke-linejoin="miter" fill="none" stroke="#000000" d="M-22.6156-23.81113C-22.6156-23.15086-23.15086-22.6156-23.81113-22.6156-24.47139-22.6156-25.00665-23.15086-25.00665-23.81113-25.00665-24.47139-24.47139-25.00665-23.81113-25.00665-23.15086-25.00665-22.6156-24.47139-22.6156-23.81113ZM-23.81113-23.81113"/>
<path transform="matrix(1.00002,0,0,-1.00009,35.311349,86.84238)" stroke-width=".3985" stroke-linecap="butt" stroke-miterlimit="10" stroke-linejoin="miter" fill="none" stroke="#000000" d="M136.05814 0 159.87548-23.81113"/>
<path transform="matrix(1.00002,0,0,-1.00009,35.311349,86.84238)" d="M161.071-23.81113C161.071-23.15086 160.53574-22.6156 159.87548-22.6156 159.21521-22.6156 158.67995-23.15086 158.67995-23.81113 158.67995-24.47139 159.21521-25.00665 159.87548-25.00665 160.53574-25.00665 161.071-24.47139 161.071-23.81113ZM159.87548-23.81113"/>
<path transform="matrix(1.00002,0,0,-1.00009,35.311349,86.84238)" stroke-width=".3985" stroke-linecap="butt" stroke-miterlimit="10" stroke-linejoin="miter" fill="none" stroke="#000000" d="M161.071-23.81113C161.071-23.15086 160.53574-22.6156 159.87548-22.6156 159.21521-22.6156 158.67995-23.15086 158.67995-23.81113 158.67995-24.47139 159.21521-25.00665 159.87548-25.00665 160.53574-25.00665 161.071-24.47139 161.071-23.81113ZM159.87548-23.81113"/>
<path transform="matrix(1.00002,0,0,-1.00009,35.311349,86.84238)" stroke-width=".79701" stroke-linecap="butt" stroke-miterlimit="10" stroke-linejoin="miter" fill="none" stroke="#734d26" d="M-34.01608 0H170.08042"/>
</svg>
