<svg xmlns="http://www.w3.org/2000/svg" xmlns:xlink="http://www.w3.org/1999/xlink" xmlns:inkscape="http://www.inkscape.org/namespaces/inkscape" version="1.1" width="401" height="350" viewBox="0 0 401 350">
<defs>
<path id="font_1_64" d="M.27598573 .18710327V.24511719H.010986328V.18710327H.27598573Z"/>
<path id="font_1_106" d="M.45700074 .17037964C.45700074 .252594 .3939972 .33088685 .2899933 .35191346 .37199403 .37893678 .42999269 .4490509 .42999269 .52809146 .42999269 .6100464 .34199525 .6660156 .24598694 .6660156 .14498902 .6660156 .068984989 .60606387 .068984989 .53009036 .068984989 .49710084 .09098816 .47808839 .11999512 .47808839 .15098572 .47808839 .17098999 .50009158 .17098999 .5290985 .17098999 .57910159 .12399292 .57910159 .10899353 .57910159 .13999939 .62802127 .20599365 .64100649 .24198914 .64100649 .2829895 .64100649 .33799745 .6190338 .33799745 .5290985 .33799745 .51708987 .33599855 .45906068 .30999757 .4149933 .27999879 .36691285 .24598694 .36390687 .22099304 .36291505 .21299744 .36190797 .18899536 .35990907 .18199158 .35990907 .17399597 .35890199 .16699219 .35791017 .16699219 .3479004 .16699219 .33691407 .17399597 .33691407 .19099427 .33691407H.23498535C.31698609 .33691407 .35398866 .2686615 .35398866 .17037964 .35398866 .034469606 .2849884 .0055389406 .24099732 .0055389406 .19799805 .0055389406 .12298584 .022491456 .08799744 .08137512 .12298584 .07637024 .1539917 .09837341 .1539917 .1363678 .1539917 .17237854 .1269989 .19238281 .09799194 .19238281 .07398987 .19238281 .041992189 .17837525 .041992189 .1343689 .041992189 .043441774 .1349945-.022460938 .24398804-.022460938 .3659973-.022460938 .45700074 .06838989 .45700074 .17037964Z"/>
<path id="font_1_107" d="M.44898988 .17396546H.42399598C.4189911 .14398194 .4119873 .099990848 .4019928 .084991458 .394989 .07699585 .32899476 .07699585 .30699159 .07699585H.1269989L.23298645 .17996216C.3889923 .31803895 .44898988 .37210084 .44898988 .47216798 .44898988 .5860901 .35899354 .6660156 .23699951 .6660156 .12399292 .6660156 .049987794 .57411196 .049987794 .48516847 .049987794 .4291687 .099990848 .4291687 .102996829 .4291687 .11999512 .4291687 .15499878 .44117738 .15499878 .48217774 .15499878 .5081787 .13699341 .5341797 .101989749 .5341797 .09399414 .5341797 .09199524 .5341797 .08898926 .5331726 .11199951 .59806826 .1659851 .63500979 .22399903 .63500979 .31498719 .63500979 .35798646 .5541382 .35798646 .47216798 .35798646 .39196778 .30799867 .31297303 .25299073 .25097657L.06098938 .036987306C.049987794 .025985718 .049987794 .023986817 .049987794 0H.42099L.44898988 .17396546Z"/>
<path id="font_1_82" d="M.4189911 0V.0309906H.3869934C.29699708 .0309906 .2939911 .041992189 .2939911 .07902527V.64012148C.2939911 .6640167 .2939911 .6660156 .2709961 .6660156 .20899964 .60227969 .12098694 .60227969 .08898926 .60227969V.57128909C.10899353 .57128909 .16799927 .57128909 .21998596 .5972748V.07902527C.21998596 .042999269 .21699524 .0309906 .1269989 .0309906H.09498596V0C.12998963 .0029907227 .21699524 .0029907227 .25698854 .0029907227 .29699708 .0029907227 .38398744 .0029907227 .4189911 0Z"/>
<path id="font_1_121" d="M.45999146 .31976319C.45999146 .39982606 .45498658 .47988893 .41999818 .5539398 .37399293 .65000918 .2919922 .6660156 .25 .6660156 .18998719 .6660156 .116989139 .64001467 .07598877 .54693606 .04399109 .47789 .038986207 .39982606 .038986207 .31976319 .038986207 .24472046 .042999269 .15464783 .083999637 .07859802 .1269989-.0024719239 .19999695-.022460938 .24899292-.022460938 .30299378-.022460938 .3789978-.0014648438 .4229889 .09359741 .45498658 .16265869 .45999146 .2407074 .45999146 .31976319M.3769989 .3317871C.3769989 .25672914 .3769989 .18867493 .3659973 .12461853 .35099793 .029556275 .2939911-.00047302247 .24899292-.00047302247 .20999146-.00047302247 .15098572 .024551392 .1329956 .12062073 .12199402 .18066406 .12199402 .2727356 .12199402 .3317871 .12199402 .39582826 .12199402 .46188355 .12998963 .5159149 .14898682 .63500979 .22399903 .64401248 .24899292 .64401248 .28199769 .64401248 .34799195 .6259918 .36698915 .52693179 .3769989 .47088624 .3769989 .39482118 .3769989 .3317871Z"/>
<path id="font_1_57" d="M.47099305 .16503906V.19602967H.37098695V.6507721C.37098695 .6707611 .37098695 .6767578 .35499574 .6767578 .34599305 .6767578 .34298707 .6767578 .33499146 .6647644L.027999878 .19602967V.16503906H.2939911V.07800293C.2939911 .041992189 .2919922 .0309906 .21798706 .0309906H.19699097V0C.23799134 .0029907227 .2899933 .0029907227 .33198548 .0029907227 .37399293 .0029907227 .4269867 .0029907227 .46798707 0V.0309906H.44699098C.37298585 .0309906 .37098695 .041992189 .37098695 .07800293V.16503906H.47099305M.2999878 .19602967H.055999757L.2999878 .56881716V.19602967Z"/>
<path id="font_1_56" d="M.44898988 .20091248C.44898988 .31991578 .36698915 .41992188 .25898744 .41992188 .21099854 .41992188 .16799927 .4039154 .13198853 .36891175V.5641022C.1519928 .55778506 .18499756 .55078127 .21699524 .55078127 .33999635 .55078127 .4099884 .6418457 .4099884 .65493777 .4099884 .6609802 .40699769 .6660156 .3999939 .6660156 .3999939 .66607668 .39698792 .66607668 .3919983 .66308596 .37199403 .65408328 .32299806 .63378909 .2559967 .63378909 .21598816 .63409426 .16999817 .641098 .12298584 .6621094 .114990238 .6651001 .11099243 .6651001 .11099243 .6651001 .100997928 .66508486 .100997928 .657074 .100997928 .64108279V.3447113C.100997928 .3266449 .100997928 .31861878 .114990238 .31861878 .12199402 .31861878 .12399292 .32164 .12799073 .32765199 .13899231 .34371949 .17599488 .3979187 .25698854 .3979187 .30899049 .3979187 .33399964 .3517456 .34199525 .3336792 .35798646 .2965393 .3600006 .2574005 .3600006 .20721436 .3600006 .17218018 .3600006 .112197879 .33599855 .07032776 .31199647 .031448366 .2749939 .0055389406 .22898865 .0055389406 .1559906 .0055389406 .09899902 .05836487 .08198547 .1171875 .084991458 .11685181 .08799744 .115859989 .09899902 .115859989 .13198853 .115859989 .14898682 .14085388 .14898682 .16485596 .14898682 .18885803 .13198853 .21386719 .09899902 .21386719 .084991458 .21386719 .049987794 .2068634 .049987794 .16085816 .049987794 .07432556 .11898804-.022460938 .23098755-.022460938 .34700013-.022460938 .44898988 .07331848 .44898988 .20019531V.20091248Z"/>
<path id="font_1_101" d="M.45700074 .2036438C.45700074 .33070375 .36799623 .4267578 .25698854 .4267578 .18899536 .4267578 .1519928 .37573243 .13198853 .327713V.35173036C.13198853 .6047821 .2559967 .64100649 .30699159 .64100649 .33099366 .64100649 .37298585 .634964 .394989 .6007538 .37998963 .6007538 .33999635 .6007538 .33999635 .5557556 .33999635 .524765 .3639984 .5097656 .38598634 .5097656 .4019928 .5097656 .43199159 .51875308 .43199159 .5577545 .43199159 .6178589 .3880005 .6660156 .30499269 .6660156 .1769867 .6660156 .041992189 .5367584 .041992189 .31570436 .041992189 .048553468 .1579895-.022460938 .25099183-.022460938 .3619995-.022460938 .45700074 .07156372 .45700074 .2036438M.36698915 .20463562C.36698915 .15661621 .36698915 .10658264 .34999085 .0705719 .31999208 .010528564 .27398683 .0055389406 .25099183 .0055389406 .18798828 .0055389406 .1579895 .06556702 .1519928 .080566409 .13398743 .127594 .13398743 .2076416 .13398743 .22564698 .13398743 .30369569 .1659851 .40374757 .2559967 .40374757 .27198792 .40374757 .31799317 .40374757 .34899903 .34172059 .36698915 .30470277 .36698915 .2536621 .36698915 .20463562Z"/>
<path id="font_1_100" d="M.4850006 .6435547H.24198914C.11999512 .6435547 .117996219 .6566467 .11399841 .67578127H.08898926L.055999757 .46954347H.08099365C.083999637 .48554994 .09298706 .54855349 .10598755 .5605469 .11299133 .5665436 .19099427 .5665436 .20399475 .5665436H.41099549L.29899598 .40853883C.20899964 .2735443 .17599488 .13453675 .17599488 .03253174 .17599488 .022537232 .17599488-.022460938 .22200012-.022460938 .2679901-.022460938 .2679901 .022537232 .2679901 .03253174V.08354187C.2679901 .13853455 .2709961 .19354248 .2789917 .24754334 .2829895 .27053834 .29699708 .35653688 .34098817 .41854859L.47599793 .608551C.4850006 .62054446 .4850006 .62254336 .4850006 .6435547Z"/>
<path id="font_1_51" d="M.45700074 .16764832C.45700074 .20367432 .44599916 .24871826 .4079895 .29074098 .3889923 .31176759 .37298585 .32176209 .30899049 .36180116 .3809967 .39881898 .42999269 .4508667 .42999269 .51690676 .42999269 .6089783 .34098817 .6660156 .25 .6660156 .1499939 .6660156 .068984989 .5919647 .068984989 .49890138 .068984989 .48088075 .070999149 .43585206 .11299133 .38882447 .12399292 .3768158 .16099549 .35179139 .18598938 .33477784 .12799073 .30575563 .041992189 .24971009 .041992189 .15063477 .041992189 .044555665 .14399719-.022460938 .24899292-.022460938 .3619995-.022460938 .45700074 .060577394 .45700074 .16764832M.38598634 .51690676C.38598634 .45986939 .34700013 .41183473 .2869873 .3768158L.16299439 .4568634C.116989139 .4868927 .11299133 .5209198 .11299133 .53793337 .11299133 .5989685 .17799378 .64100649 .24899292 .64100649 .32199098 .64100649 .38598634 .588974 .38598634 .51690676M.40699769 .13162232C.40699769 .05757141 .33198548 .0055389406 .25 .0055389406 .1639862 .0055389406 .09199524 .06758118 .09199524 .15063477 .09199524 .2086792 .12399292 .2727356 .20899964 .31976319L.33198548 .24171448C.3600006 .22268677 .40699769 .19267273 .40699769 .13162232Z"/>
<path id="font_1_78" d="M.45700074 .32888795C.45700074 .598114 .34199525 .6660156 .25299073 .6660156 .19799805 .6660156 .14898682 .64801028 .10598755 .6031189 .06498718 .5580902 .041992189 .5160217 .041992189 .44091798 .041992189 .3158722 .12998963 .21777344 .24198914 .21777344 .30299378 .21777344 .34399415 .25979615 .36698915 .3178711V.28582765C.36698915 .05178833 .2630005 .0055389406 .20498657 .0055389406 .18798828 .0055389406 .13398743 .007537842 .10699463 .041778566 .15098572 .041778566 .15899658 .07078552 .15899658 .08778381 .15899658 .118774417 .1349945 .13378906 .11299133 .13378906 .09700012 .13378906 .066986087 .12478638 .066986087 .08578491 .066986087 .018615723 .12098694-.022460938 .20599365-.022460938 .33499146-.022460938 .45700074 .11378479 .45700074 .32888795M.36499024 .42089845C.36499024 .33789063 .33099366 .24076844 .24299622 .24076844 .22698975 .2407074 .18099976 .2407074 .1499939 .30371095 .13198853 .34072877 .13198853 .3908081 .13198853 .43988038 .13198853 .49397279 .13198853 .5410614 .15299988 .578125 .17999268 .62805178 .21798706 .64100649 .25299073 .64100649 .29899598 .64100649 .33198548 .60710147 .34899903 .562088 .36099244 .52989199 .36499024 .46688844 .36499024 .42089845Z"/>
<path id="font_2_1" d="M.33399964 .30233766C.33999635 .32835389 .36299134 .42037965 .43299867 .42037965 .43798829 .42037965 .46199037 .42037965 .48298646 .40734864 .45498658 .402359 .43499757 .37734986 .43499757 .35334779 .43499757 .33735658 .44599916 .31835938 .47299195 .31835938 .49499513 .31835938 .5269928 .3363495 .5269928 .37635804 .5269928 .42837525 .46798707 .4423828 .43399049 .4423828 .37599183 .4423828 .34098817 .38935853 .32899476 .36634828 .3039856 .43237306 .25 .4423828 .22099304 .4423828 .116989139 .4423828 .05999756 .3133545 .05999756 .28834535 .05999756 .27833558 .069992069 .27833558 .07199097 .27833558 .07998657 .27833558 .08299255 .28033448 .084991458 .28933717 .11898804 .39535523 .18499756 .42037965 .21899414 .42037965 .23799134 .42037965 .272995 .4113617 .272995 .35334779 .272995 .32235719 .2559967 .25532533 .21899414 .11528015 .20298767 .053268434 .16799927 .011245728 .12399292 .011245728 .117996219 .011245728 .09498596 .011245728 .07398987 .024276734 .09899902 .029266358 .12098694 .05027771 .12098694 .07827759 .12098694 .105270389 .09899902 .11328125 .083999637 .11328125 .053985597 .11328125 .0289917 .08728027 .0289917 .055267335 .0289917 .009246826 .07899475-.0107421879 .12298584-.0107421879 .18899536-.0107421879 .22499085 .059280397 .22799683 .0652771 .23999024 .028274537 .27598573-.0107421879 .33599855-.0107421879 .43899537-.0107421879 .49598695 .118270877 .49598695 .14328003 .49598695 .1532898 .4869995 .1532898 .48399354 .1532898 .47499085 .1532898 .47299195 .14929199 .47099305 .14228821 .43798829 .03527832 .36999513 .011245728 .33799745 .011245728 .29899598 .011245728 .2829895 .043273927 .2829895 .07727051 .2829895 .09927368 .2889862 .121276859 .2999878 .16529846L.33399964 .30233766Z"/>
<path id="font_2_2" d="M.48599244 .38136292C.48999024 .39537049 .48999024 .39736939 .48999024 .40437318 .48999024 .42237855 .47599793 .43138124 .46099855 .43138124 .45098878 .43138124 .43499757 .42536927 .42599488 .41036988 .42399598 .405365 .41600038 .37435914 .4119873 .35635377 .40499879 .33035279 .397995 .30334474 .3919983 .27633668L.34700013 .09628296C.34298707 .08126831 .2999878 .011245728 .23399353 .011245728 .18299866 .011245728 .17199707 .055267335 .17199707 .0922699 .17199707 .1382904 .18899536 .20030213 .22299195 .28833009 .23899842 .3293457 .24299622 .3403473 .24299622 .36035157 .24299622 .405365 .21099854 .4423828 .16099549 .4423828 .06599426 .4423828 .0289917 .29733277 .0289917 .28833009 .0289917 .27833558 .038986207 .27833558 .040985109 .27833558 .050994874 .27833558 .051986696 .28033448 .056991579 .29634095 .083999637 .3903656 .12399292 .42037965 .1579895 .42037965 .1659851 .42037965 .18299866 .42037965 .18299866 .3883667 .18299866 .36335755 .17298889 .3373413 .1659851 .31834413 .12599182 .21231079 .10798645 .1552887 .10798645 .10827637 .10798645 .019256592 .17098999-.0107421879 .22999573-.0107421879 .2689972-.0107421879 .30299378 .0062561037 .33099366 .03425598 .31799317-.017745972 .30599977-.06674194 .2659912-.11973572 .23999024-.15385437 .20199585-.18309021 .1559906-.18309021 .14199829-.18309021 .09700012-.18005371 .07998657-.14074707 .09599304-.14074707 .10899353-.14074707 .12298584-.1287384 .1329956-.11973572 .14299011-.10673523 .14299011-.08773804 .14299011-.056747438 .115997318-.052734376 .10598755-.052734376 .08299255-.052734376 .049987794-.068740848 .049987794-.11773682 .049987794-.16796875 .09399414-.20507813 .1559906-.20507813 .25898744-.20507813 .3619995-.11373901 .3899994-.00074768069L.48599244 .38136292Z"/>
<path id="font_3_1" d="M.48999024 .67318728C.47898866 .7001953 .46398927 .7001953 .44599916 .7001953 .42799378 .7001953 .41299439 .7001953 .4019928 .67318728L.14898682 .072021488C.14199829 .055999757 .14199829 .055007936 .116989139 .052001954 .099990848 .049987794 .08099365 .04899597 .06399536 .04899597H.042999269V0C.09899902 .0019989014 .11199951 .0029907227 .16499329 .0029907227 .20399475 .0029907227 .23599243 .0029907227 .2979889 0V.04899597C.2709961 .04899597 .23699951 .04899597 .20899964 .060012819L.2639923 .1921997H.54100039L.6009979 .04899597H.5069885V0C.5419922 .0029907227 .6429901 .0029907227 .6839905 .0029907227 .7259979 .0029907227 .8109894 .0029907227 .848999 0V.04899597H.7519989L.48999024 .67318728M.40299989 .52119448 .519989 .24121094H.2849884L.40299989 .52119448Z"/>
<path id="font_4_1" d="M.34098817-.23803711C.34098817-.23303223 .33799745-.23002625 .33198548-.22303772 .20298767-.105026248 .1639862 .07498169 .1639862 .24996948 .1639862 .40498353 .19400025 .59298709 .33499146 .72698977 .33898927 .73098757 .34098817 .73399356 .34098817 .7389984 .34098817 .74598696 .33599855 .75 .32899476 .75 .31698609 .75 .22698975 .6779785 .17298889 .568985 .125 .47297669 .100997928 .36997987 .100997928 .25097657 .100997928 .17897034 .10998535 .064971927 .16499329-.053024293 .22399903-.17602539 .31698609-.24902344 .32899476-.24902344 .33599855-.24902344 .34098817-.24502564 .34098817-.23803711Z"/>
<path id="font_4_4" d="M.3039856 .6392822C.3039856 .6642761 .30299378 .666275 .27799989 .666275 .21598816 .60227969 .12399292 .60227969 .09298706 .60227969V.57128909C.11199951 .57128909 .17298889 .57128909 .22698975 .5972748V.08001709C.22698975 .042999269 .22399903 .0309906 .1309967 .0309906H.09899902V0C.1349945 .0029907227 .22399903 .0029907227 .2649994 .0029907227 .30599977 .0029907227 .3959961 .0029907227 .43199159 0V.0309906H.3999939C.30699159 .0309906 .3039856 .042999269 .3039856 .08001709V.6392822Z"/>
<path id="font_5_1" d="M.18199158 .015991211C.18199158-.017044068 .18199158-.09921265 .10798645-.17036438 .101989749-.17636109 .101989749-.17736817 .101989749-.18136597 .101989749-.18836975 .10899353-.19335938 .114990238-.19335938 .12599182-.19335938 .20698548-.115249637 .20698548 .0019989014 .20698548 .06399536 .18499756 .10798645 .14199829 .10798645 .10798645 .10798645 .08799744 .08198547 .08799744 .053985597 .08799744 .025985718 .10798645 0 .14199829 0 .15699768 0 .17199707 .004989624 .18199158 .015991211Z"/>
<path id="font_4_5" d="M.30499269 .35195924C.397995 .38697816 .44198609 .46006776 .44198609 .5290985 .44198609 .60606387 .35699464 .6660156 .25299073 .6660156 .14898682 .6660156 .070999149 .60705569 .070999149 .5310974 .070999149 .49809266 .09298706 .47909547 .12199402 .47909547 .15098572 .47909547 .17199707 .50009158 .17199707 .5290985 .17199707 .5640869 .147995 .57910159 .11399841 .57910159 .13999939 .6210327 .20098877 .64100649 .25 .64100649 .33299256 .64100649 .34899903 .5750885 .34899903 .52809146 .34899903 .49809266 .34298707 .45005799 .31799317 .41201783 .2869873 .36695863 .2519989 .36495973 .22299195 .36296083 .19799805 .36094667 .19599915 .36094667 .18798828 .36094667 .1789856 .35995484 .17098999 .35894776 .17098999 .34794618 .17098999 .33496095 .1789856 .33496095 .19599915 .33496095H.24299622C.32998658 .33496095 .36799623 .2646637 .36799623 .16937256 .36799623 .04145813 .2999878 .0055389406 .24899292 .0055389406 .22999573 .0055389406 .1329956 .010528564 .08799744 .0843811 .12399292 .07939148 .1519928 .10437012 .1519928 .13838196 .1519928 .17137146 .1269989 .19238281 .09799194 .19238281 .07299805 .19238281 .042999269 .17736817 .042999269 .13537598 .042999269 .046447755 .13598633-.022460938 .2519989-.022460938 .3769989-.022460938 .46998597 .06741333 .46998597 .16937256 .46998597 .25663758 .40098573 .33093263 .30499269 .35195924Z"/>
<path id="font_4_2" d="M.2979889 .25097657C.2979889 .3329773 .28599549 .4429779 .23399353 .5539856 .1749878 .6769867 .08198547 .75 .069992069 .75 .05999756 .75 .057998659 .74198916 .057998659 .7389984 .057998659 .73399356 .05999756 .73098757 .066986087 .72398379 .125 .6719818 .23498535 .5359802 .23498535 .25097657 .23498535 .10797119 .20899964-.091033939 .06399536-.22602844 .06199646-.22903443 .057998659-.23303223 .057998659-.23803711 .057998659-.24102783 .05999756-.24902344 .069992069-.24902344 .08198547-.24902344 .17199707-.17703247 .22599793-.06802368 .27398683 .02796936 .2979889 .13098145 .2979889 .25097657Z"/>
<path id="font_3_2" d="M.1499939 .63653567V.04899597H.041992189V0H.5169983C.6879883 0 .7739868 .088974 .7739868 .18595886 .7739868 .2729187 .69999697 .3439026 .5669861 .35890199 .6769867 .37789918 .7409973 .43981935 .7409973 .51371768 .7409973 .60557559 .651001 .6855469 .48599244 .6855469H.041992189V.63653567H.1499939M.2829895 .37690736V.63653567H.47299195C.59199526 .63653567 .59599307 .5336914 .59599307 .51371768 .59599307 .44081117 .5469971 .37690736 .44699098 .37690736H.2829895M.2829895 .04899597V.33691407H.4850006C.5009918 .33691407 .55400088 .33691407 .58799746 .29692079 .61698916 .2609253 .6230011 .21994019 .6230011 .18795777 .6230011 .11897278 .58299258 .04899597 .47499085 .04899597H.2829895Z"/>
<path id="font_4_3" d="M.47299195 .31976319C.47299195 .38682557 .46998597 .47288514 .43499757 .5479431 .3909912 .64201357 .31498719 .6660156 .25698854 .6660156 .19699097 .6660156 .12098694 .64201357 .07699585 .5459442 .04499817 .47688294 .039993287 .39582826 .039993287 .31976319 .039993287 .25471498 .041992189 .15765381 .084991458 .07858276 .13198853-.0064697267 .20999146-.022460938 .2559967-.022460938 .32099916-.022460938 .394989 .0055389406 .43699647 .097595218 .46699525 .1646576 .47299195 .23971558 .47299195 .31976319M.25698854 .002532959C.22698975 .002532959 .15499878 .016540528 .13598633 .12962342 .12599182 .18867493 .12599182 .2747345 .12599182 .33177186 .12599182 .39982606 .12599182 .47888185 .13798523 .53393557 .1579895 .6230011 .22200012 .64100649 .2559967 .64100649 .2939911 .64100649 .35699464 .62098696 .37599183 .5279236 .3869934 .47288514 .3869934 .39482118 .3869934 .33177186 .3869934 .2697296 .3869934 .18566895 .3769989 .12661743 .35598756 .012542725 .28199769 .002532959 .25698854 .002532959Z"/>
<path id="font_3_3" d="M.7879944 .6692352C.7879944 .6872406 .7879944 .6982422 .7679901 .6982422 .7579956 .6982422 .7559967 .696228 .746994 .6882324L.68099978 .63023379C.6239929 .676239 .5509949 .6982422 .47799684 .6982422 .21998596 .6982422 .06599426 .5462494 .06599426 .34326173 .06599426 .14526367 .21398926-.01171875 .47898866-.01171875 .6669922-.01171875 .7879944 .10827637 .7879944 .22825623 .7879944 .2502594 .7779999 .2502594 .7619934 .2502594 .7509918 .2502594 .73799136 .2502594 .7369995 .23426819 .72898867 .089263919 .59599307 .03727722 .5009918 .03727722 .44699098 .03727722 .34999085 .04827881 .2829895 .12226868 .22999573 .18226624 .22299195 .2752533 .22299195 .34326173 .22299195 .46324159 .24699402 .52323916 .28799439 .5692444 .33499146 .62223818 .41600038 .64923098 .49899293 .64923098 .58699038 .64923098 .7029877 .5962372 .72898867 .43725587 .73098757 .42425538 .7429962 .42425538 .7579956 .42425538 .7849884 .42425538 .7879944 .42625428 .7879944 .45324708V.6692352Z"/>
<path id="font_4_6" d="M.0289917 .19602967V.16503906H.3019867V.07901001C.3019867 .041992189 .29899598 .0309906 .22399903 .0309906H.20199585V0C.2649994 .0029907227 .33499146 .0029907227 .34199525 .0029907227 .34700013 .0029907227 .4189911 .0029907227 .48199464 0V.0309906H.45999146C.3849945 .0309906 .38198854 .041992189 .38198854 .07901001V.16503906H.48399354V.19602967H.38198854V.64974978C.38198854 .669754 .38198854 .6767578 .36299134 .6767578 .35099793 .6767578 .34999085 .67575076 .34098817 .66174319L.0289917 .19602967M.06098938 .19602967 .30799867 .56581118V.19602967H.06098938Z"/>
<path id="font_6_1" d="M.31399537 .47006227C.32099916 .48506166 .32299806 .49606324 .32299806 .50205996 .32299806 .53305056 .29499818 .5590515 .2619934 .5590515 .22200012 .5590515 .20999146 .5240631 .20599365 .51005557L.06599426 .08206177C.06399536 .076049808 .06098938 .0680542 .06098938 .0640564 .06098938 .047058107 .100997928 .0390625 .101989749 .0390625 .11099243 .0390625 .114990238 .048049928 .11898804 .05606079L.31399537 .47006227Z"/>
<path id="font_4_7" d="M.10398865 .3444519C.10398865 .32641603 .10398865 .31539918 .117996219 .31539918 .12599182 .31539918 .1289978 .31941224 .1349945 .32843019 .16499329 .3704834 .21299744 .39453126 .2649994 .39453126 .37199403 .39453126 .37199403 .24029541 .37199403 .20425415 .37199403 .17324829 .37199403 .11125183 .34399415 .06637573 .31698609 .024475098 .2749939 .0055389406 .23599243 .0055389406 .1769867 .0055389406 .10998535 .042434694 .085998538 .116256717 .08699036 .116256717 .09298706 .11425781 .099990848 .11425781 .11999512 .11425781 .14898682 .12724304 .14898682 .16325379 .14898682 .19424439 .1269989 .21224976 .099990848 .21224976 .07899475 .21224976 .050994874 .20025635 .050994874 .1602478 .050994874 .069366458 .1269989-.022460938 .23799134-.022460938 .35899354-.022460938 .46199037 .0753479 .46199037 .19924927 .46199037 .3204193 .37599183 .41952516 .2669983 .41952516 .21899414 .41952516 .16999817 .40351869 .1349945 .36747743V.56477358C.16499329 .5557709 .19599915 .55078127 .22698975 .55078127 .34999085 .55078127 .42199708 .6397705 .42199708 .652771 .42199708 .6617737 .41600038 .6657715 .41099549 .6657715 .40899659 .6657715 .40699769 .6657715 .397995 .6607666 .35099793 .6417694 .30499269 .6337738 .2630005 .6337738 .21998596 .6337738 .1749878 .6417694 .1289978 .6607666 .11898804 .6657715 .116989139 .6657715 .115997318 .6657715 .10398865 .6657715 .10398865 .655777 .10398865 .6387787V.3444519Z"/>
<path id="font_4_8" d="M.13398743 .33073426C.13398743 .43276979 .14498902 .4897766 .17199707 .54177859 .19198609 .58277896 .24099732 .64100649 .31498719 .64100649 .33499146 .64100649 .3809967 .63697817 .4039917 .6007843 .36698915 .6007843 .35099793 .5817871 .35099793 .55477908 .35099793 .5287781 .36898805 .50878909 .39698792 .50878909 .4249878 .50878909 .44400025 .5267792 .44400025 .55677798 .44400025 .612854 .4039917 .6660156 .31298829 .6660156 .18399048 .6660156 .042999269 .53878787 .042999269 .3157196 .042999269 .044555665 .16499329-.022460938 .25898744-.022460938 .36999513-.022460938 .46998597 .0705719 .46998597 .20265198 .46998597 .32972718 .37799073 .42578126 .2649994 .42578126 .20498657 .42578126 .1619873 .39076234 .13398743 .33073426M.2579956 .0055389406C.20098877 .0055389406 .16799927 .05256653 .1559906 .08157349 .13699341 .12660218 .13598633 .20965576 .13598633 .22566223 .13598633 .29270936 .16699219 .4007721 .2630005 .4007721 .2789917 .4007721 .32798768 .4007721 .3600006 .33872987 .3789978 .30070497 .3789978 .25167848 .3789978 .20365906 .3789978 .15562439 .3789978 .1065979 .3600006 .06956482 .32899476 .012542725 .2849884 .0055389406 .2579956 .0055389406Z"/>
<path id="font_4_9" d="M.48999024 .60954287C.49899293 .62054446 .49899293 .62254336 .49899293 .6435547H.25C.12399292 .6435547 .12098694 .6565399 .117996219 .67555239H.08999634L.056991579 .46655274H.084991458C.08898926 .48954774 .09700012 .5455475 .10998535 .55755618 .116989139 .56355288 .19599915 .56355288 .20999146 .56355288H.41999818L.32398988 .4325409C.19400025 .25354005 .18199158 .090530399 .18199158 .03353882 .18199158 .022537232 .18199158-.022460938 .22799683-.022460938 .2749939-.022460938 .2749939 .021530152 .2749939 .03453064V.08352661C.2749939 .23054505 .29699708 .34654237 .34999085 .41854859L.48999024 .60954287Z"/>
<path id="font_4_10" d="M.17199707 .45387269C.14199829 .47288514 .11898804 .4998932 .11898804 .53692629 .11898804 .6019745 .18899536 .64100649 .25498963 .64100649 .33198548 .64100649 .3939972 .58695986 .3939972 .51690676 .3939972 .44685365 .33399964 .40083314 .2939911 .37780763L.17199707 .45387269M.31900025 .36180116C.36898805 .38581849 .44198609 .43585206 .44198609 .51690676 .44198609 .6109772 .34799195 .6660156 .2579956 .6660156 .15299988 .6660156 .070999149 .5909729 .070999149 .49890138 .070999149 .46087647 .084991458 .42485047 .10899353 .39582826 .12599182 .3768158 .13198853 .37280274 .18998719 .3357849 .101989749 .29374696 .042999269 .23269654 .042999269 .15063477 .042999269 .044555665 .147995-.022460938 .2559967-.022460938 .37199403-.022460938 .46998597 .059570314 .46998597 .16764832 .46998597 .26472474 .3959961 .3127594 .37098695 .32876588 .3600006 .33677674 .33099366 .35479737 .31900025 .36180116M.21699524 .31877137 .34298707 .2407074C.3659973 .22569275 .41600038 .19366455 .41600038 .1326294 .41600038 .05357361 .33599855 .0055389406 .25698854 .0055389406 .16999817 .0055389406 .09700012 .06758118 .09700012 .15063477 .09700012 .22268677 .14698792 .28274537 .21699524 .31877137Z"/>
</defs>
<path transform="matrix(1.00005,0,0,-1.00002,115.48781,260.15495)" stroke-width=".19925" stroke-linecap="butt" stroke-miterlimit="10" stroke-linejoin="miter" fill="none" stroke="#d9d9d9" d="M-113.38724-82.21063H283.4681M-113.38724-79.37578H283.4681M-113.38724-76.54094H283.4681M-113.38724-73.70609H283.4681M-113.38724-70.87123H283.4681M-113.38724-68.03639H283.4681M-113.38724-65.20154H283.4681M-113.38724-62.36668H283.4681M-113.38724-59.53183H283.4681M-113.38724-56.69699H283.4681M-113.38724-53.86214H283.4681M-113.38724-51.02728H283.4681M-113.38724-48.19244H283.4681M-113.38724-45.35759H283.4681M-113.38724-42.52274H283.4681M-113.38724-39.68788H283.4681M-113.38724-36.85304H283.4681M-113.38724-34.01819H283.4681M-113.38724-31.18333H283.4681M-113.38724-28.3485H283.4681M-113.38724-25.51364H283.4681M-113.38724-22.67879H283.4681M-113.38724-19.84393H283.4681M-113.38724-17.0091H283.4681M-113.38724-14.17424H283.4681M-113.38724-11.33939H283.4681M-113.38724-8.50455H283.4681M-113.38724-5.6697H283.4681M-113.38724-2.83484H283.4681M-113.38724 0H283.4681M-113.38724 2.83484H283.4681M-113.38724 5.6697H283.4681M-113.38724 8.50455H283.4681M-113.38724 11.33939H283.4681M-113.38724 14.17424H283.4681M-113.38724 17.0091H283.4681M-113.38724 19.84393H283.4681M-113.38724 22.67879H283.4681M-113.38724 25.51364H283.4681M-113.38724 28.3485H283.4681M-113.38724 31.18333H283.4681M-113.38724 34.01819H283.4681M-113.38724 36.85304H283.4681M-113.38724 39.68788H283.4681M-113.38724 42.52274H283.4681M-113.38724 45.35759H283.4681M-113.38724 48.19244H283.4681M-113.38724 51.02728H283.4681M-113.38724 53.86214H283.4681M-113.38724 56.69699H283.4681M-113.38724 59.53183H283.4681M-113.38724 62.36668H283.4681M-113.38724 65.20154H283.4681M-113.38724 68.03639H283.4681M-113.38724 70.87123H283.4681M-113.38724 73.70609H283.4681M-113.38724 76.54094H283.4681M-113.38724 79.37578H283.4681M-113.38724 82.21063H283.4681M-113.38724 85.04549H283.4681M-113.38724 87.88034H283.4681M-113.38724 90.71518H283.4681M-113.38724 93.55003H283.4681M-113.38724 96.38489H283.4681M-113.38724 99.21973H283.4681M-113.38724 102.05458H283.4681M-113.38724 104.88943H283.4681M-113.38724 107.72429H283.4681M-113.38724 110.55913H283.4681M-113.38724 113.39398H283.4681M-113.38724 116.22884H283.4681M-113.38724 119.06367H283.4681M-113.38724 121.89853H283.4681M-113.38724 124.73338H283.4681M-113.38724 127.56824H283.4681M-113.38724 130.40308H283.4681M-113.38724 133.23793H283.4681M-113.38724 136.07279H283.4681M-113.38724 138.90763H283.4681M-113.38724 141.74248H283.4681M-113.38724 144.57733H283.4681M-113.38724 147.41219H283.4681M-113.38724 150.24703H283.4681M-113.38724 153.08188H283.4681M-113.38724 155.91674H283.4681M-113.38724 158.75157H283.4681M-113.38724 161.58643H283.4681M-113.38724 164.42128H283.4681M-113.38724 167.25612H283.4681M-113.38724 170.09098H283.4681M-113.38724 172.92583H283.4681M-113.38724 175.76068H283.4681M-113.38724 178.59552H283.4681M-113.38724 181.43038H283.4681M-113.38724 184.26523H283.4681M-113.38724 187.10007H283.4681M-113.38724 189.93492H283.4681M-113.38724 192.76978H283.4681M-113.38724 195.60463H283.4681M-113.38724 198.43947H283.4681M-113.38724 201.27433H283.4681M-113.38724 204.10918H283.4681M-113.38724 206.94402H283.4681M-113.38724 209.77887H283.4681M-113.38724 212.61373H283.4681M-113.38724 215.44858H283.4681M-113.38724 218.28342H283.4681M-113.38724 221.11827H283.4681M-113.38724 223.95313H283.4681M-113.38724 226.78797H283.4681M-113.38724 229.62282H283.4681M-113.38724 232.45767H283.4681M-113.38724 235.29253H283.4681M-113.38724 238.12737H283.4681M-113.38724 240.96222H283.4681M-113.38724 243.79708H283.4681M-113.38724 246.63191H283.4681M-113.38724 249.46677H283.4681M-113.38724 252.30162H283.4681M-110.55913-85.04042V255.12128M-107.72429-85.04042V255.12128M-104.88943-85.04042V255.12128M-102.05458-85.04042V255.12128M-99.21973-85.04042V255.12128M-96.38489-85.04042V255.12128M-93.55003-85.04042V255.12128M-90.71518-85.04042V255.12128M-87.88034-85.04042V255.12128M-85.04549-85.04042V255.12128M-82.21063-85.04042V255.12128M-79.37578-85.04042V255.12128M-76.54094-85.04042V255.12128M-73.70609-85.04042V255.12128M-70.87123-85.04042V255.12128M-68.03639-85.04042V255.12128M-65.20154-85.04042V255.12128M-62.36668-85.04042V255.12128M-59.53183-85.04042V255.12128M-56.69699-85.04042V255.12128M-53.86214-85.04042V255.12128M-51.02728-85.04042V255.12128M-48.19244-85.04042V255.12128M-45.35759-85.04042V255.12128M-42.52274-85.04042V255.12128M-39.68788-85.04042V255.12128M-36.85304-85.04042V255.12128M-34.01819-85.04042V255.12128M-31.18333-85.04042V255.12128M-28.3485-85.04042V255.12128M-25.51364-85.04042V255.12128M-22.67879-85.04042V255.12128M-19.84393-85.04042V255.12128M-17.0091-85.04042V255.12128M-14.17424-85.04042V255.12128M-11.33939-85.04042V255.12128M-8.50455-85.04042V255.12128M-5.6697-85.04042V255.12128M-2.83484-85.04042V255.12128M0-85.04042V255.12128M2.83484-85.04042V255.12128M5.6697-85.04042V255.12128M8.50455-85.04042V255.12128M11.33939-85.04042V255.12128M14.17424-85.04042V255.12128M17.0091-85.04042V255.12128M19.84393-85.04042V255.12128M22.67879-85.04042V255.12128M25.51364-85.04042V255.12128M28.3485-85.04042V255.12128M31.18333-85.04042V255.12128M34.01819-85.04042V255.12128M36.85304-85.04042V255.12128M39.68788-85.04042V255.12128M42.52274-85.04042V255.12128M45.35759-85.04042V255.12128M48.19244-85.04042V255.12128M51.02728-85.04042V255.12128M53.86214-85.04042V255.12128M56.69699-85.04042V255.12128M59.53183-85.04042V255.12128M62.36668-85.04042V255.12128M65.20154-85.04042V255.12128M68.03639-85.04042V255.12128M70.87123-85.04042V255.12128M73.70609-85.04042V255.12128M76.54094-85.04042V255.12128M79.37578-85.04042V255.12128M82.21063-85.04042V255.12128M85.04549-85.04042V255.12128M87.88034-85.04042V255.12128M90.71518-85.04042V255.12128M93.55003-85.04042V255.12128M96.38489-85.04042V255.12128M99.21973-85.04042V255.12128M102.05458-85.04042V255.12128M104.88943-85.04042V255.12128M107.72429-85.04042V255.12128M110.55913-85.04042V255.12128M113.39398-85.04042V255.12128M116.22884-85.04042V255.12128M119.06367-85.04042V255.12128M121.89853-85.04042V255.12128M124.73338-85.04042V255.12128M127.56824-85.04042V255.12128M130.40308-85.04042V255.12128M133.23793-85.04042V255.12128M136.07279-85.04042V255.12128M138.90763-85.04042V255.12128M141.74248-85.04042V255.12128M144.57733-85.04042V255.12128M147.41219-85.04042V255.12128M150.24703-85.04042V255.12128M153.08188-85.04042V255.12128M155.91674-85.04042V255.12128M158.75157-85.04042V255.12128M161.58643-85.04042V255.12128M164.42128-85.04042V255.12128M167.25612-85.04042V255.12128M170.09098-85.04042V255.12128M172.92583-85.04042V255.12128M175.76068-85.04042V255.12128M178.59552-85.04042V255.12128M181.43038-85.04042V255.12128M184.26523-85.04042V255.12128M187.10007-85.04042V255.12128M189.93492-85.04042V255.12128M192.76978-85.04042V255.12128M195.60463-85.04042V255.12128M198.43947-85.04042V255.12128M201.27433-85.04042V255.12128M204.10918-85.04042V255.12128M206.94402-85.04042V255.12128M209.77887-85.04042V255.12128M212.61373-85.04042V255.12128M215.44858-85.04042V255.12128M218.28342-85.04042V255.12128M221.11827-85.04042V255.12128M223.95313-85.04042V255.12128M226.78797-85.04042V255.12128M229.62282-85.04042V255.12128M232.45767-85.04042V255.12128M235.29253-85.04042V255.12128M238.12737-85.04042V255.12128M240.96222-85.04042V255.12128M243.79708-85.04042V255.12128M246.63191-85.04042V255.12128M249.46677-85.04042V255.12128M252.30162-85.04042V255.12128M255.13648-85.04042V255.12128M257.9713-85.04042V255.12128M260.80619-85.04042V255.12128M263.64103-85.04042V255.12128M266.47587-85.04042V255.12128M269.3107-85.04042V255.12128M272.14558-85.04042V255.12128M274.9804-85.04042V255.12128M277.81526-85.04042V255.12128M280.65013-85.04042V255.12128M283.4681 255.12128"/>
<path transform="matrix(1.00005,0,0,-1.00002,115.48781,260.15495)" stroke-width=".3985" stroke-linecap="butt" stroke-miterlimit="10" stroke-linejoin="miter" fill="none" stroke="#a6a6a6" d="M-113.38724-85.04042H283.4681M-113.38724-56.69362H283.4681M-113.38724-28.3468H283.4681M-113.38724 0H283.4681M-113.38724 28.3468H283.4681M-113.38724 56.69362H283.4681M-113.38724 85.04042H283.4681M-113.38724 113.38724H283.4681M-113.38724 141.73404H283.4681M-113.38724 170.08086H283.4681M-113.38724 198.42766H283.4681M-113.38724 226.77448H283.4681M-113.38724 255.11133H283.4681M-113.38724-85.04042V255.12128M-85.04042-85.04042V255.12128M-56.69362-85.04042V255.12128M-28.3468-85.04042V255.12128M0-85.04042V255.12128M28.3468-85.04042V255.12128M56.69362-85.04042V255.12128M85.04042-85.04042V255.12128M113.38724-85.04042V255.12128M141.73404-85.04042V255.12128M170.08086-85.04042V255.12128M198.42766-85.04042V255.12128M226.77448-85.04042V255.12128M255.12128-85.04042V255.12128M283.45814-85.04042V255.12128M283.4681 255.12128"/>
<path transform="matrix(1.00005,0,0,-1.00002,115.48781,260.15495)" stroke-width=".79701" stroke-linecap="butt" stroke-miterlimit="10" stroke-linejoin="miter" fill="none" stroke="#000000" d="M-85.04042 5.66927V-5.66927"/>
<use data-text="-" xlink:href="#font_1_64" transform="matrix(9.963098,0,0,-9.962799,26.29335,276.17927)"/>
<use data-text="3" xlink:href="#font_1_106" transform="matrix(9.963098,0,0,-9.962799,29.611069,276.17927)"/>
<path transform="matrix(1.00005,0,0,-1.00002,115.48781,260.15495)" stroke-width=".79701" stroke-linecap="butt" stroke-miterlimit="10" stroke-linejoin="miter" fill="none" stroke="#000000" d="M-56.69362 5.66927V-5.66927"/>
<use data-text="-" xlink:href="#font_1_64" transform="matrix(9.963098,0,0,-9.962799,54.64177,276.17927)"/>
<use data-text="2" xlink:href="#font_1_107" transform="matrix(9.963098,0,0,-9.962799,57.959489,276.17927)"/>
<path transform="matrix(1.00005,0,0,-1.00002,115.48781,260.15495)" stroke-width=".79701" stroke-linecap="butt" stroke-miterlimit="10" stroke-linejoin="miter" fill="none" stroke="#000000" d="M-28.3468 5.66927V-5.66927"/>
<use data-text="-" xlink:href="#font_1_64" transform="matrix(9.963098,0,0,-9.962799,82.99019,276.17927)"/>
<use data-text="1" xlink:href="#font_1_82" transform="matrix(9.963098,0,0,-9.962799,86.30791,276.17927)"/>
<path transform="matrix(1.00005,0,0,-1.00002,115.48781,260.15495)" stroke-width=".79701" stroke-linecap="butt" stroke-miterlimit="10" stroke-linejoin="miter" fill="none" stroke="#000000" d="M0 5.66927V-5.66927"/>
<use data-text="0" xlink:href="#font_1_121" transform="matrix(9.963098,0,0,-9.962799,112.99668,276.17927)"/>
<path transform="matrix(1.00005,0,0,-1.00002,115.48781,260.15495)" stroke-width=".79701" stroke-linecap="butt" stroke-miterlimit="10" stroke-linejoin="miter" fill="none" stroke="#000000" d="M28.3468 5.66927V-5.66927"/>
<use data-text="1" xlink:href="#font_1_82" transform="matrix(9.963098,0,0,-9.962799,141.3451,276.17927)"/>
<path transform="matrix(1.00005,0,0,-1.00002,115.48781,260.15495)" stroke-width=".79701" stroke-linecap="butt" stroke-miterlimit="10" stroke-linejoin="miter" fill="none" stroke="#000000" d="M56.69362 5.66927V-5.66927"/>
<use data-text="2" xlink:href="#font_1_107" transform="matrix(9.963098,0,0,-9.962799,169.69351,276.17927)"/>
<path transform="matrix(1.00005,0,0,-1.00002,115.48781,260.15495)" stroke-width=".79701" stroke-linecap="butt" stroke-miterlimit="10" stroke-linejoin="miter" fill="none" stroke="#000000" d="M85.04042 5.66927V-5.66927"/>
<use data-text="3" xlink:href="#font_1_106" transform="matrix(9.963098,0,0,-9.962799,198.04193,276.17927)"/>
<path transform="matrix(1.00005,0,0,-1.00002,115.48781,260.15495)" stroke-width=".79701" stroke-linecap="butt" stroke-miterlimit="10" stroke-linejoin="miter" fill="none" stroke="#000000" d="M113.38724 5.66927V-5.66927"/>
<use data-text="4" xlink:href="#font_1_57" transform="matrix(9.963098,0,0,-9.962799,226.39035,276.28828)"/>
<path transform="matrix(1.00005,0,0,-1.00002,115.48781,260.15495)" stroke-width=".79701" stroke-linecap="butt" stroke-miterlimit="10" stroke-linejoin="miter" fill="none" stroke="#000000" d="M141.73404 5.66927V-5.66927"/>
<use data-text="5" xlink:href="#font_1_56" transform="matrix(9.963098,0,0,-9.962799,254.73777,276.17927)"/>
<path transform="matrix(1.00005,0,0,-1.00002,115.48781,260.15495)" stroke-width=".79701" stroke-linecap="butt" stroke-miterlimit="10" stroke-linejoin="miter" fill="none" stroke="#000000" d="M170.08086 5.66927V-5.66927"/>
<use data-text="6" xlink:href="#font_1_101" transform="matrix(9.963098,0,0,-9.962799,283.08619,276.17927)"/>
<path transform="matrix(1.00005,0,0,-1.00002,115.48781,260.15495)" stroke-width=".79701" stroke-linecap="butt" stroke-miterlimit="10" stroke-linejoin="miter" fill="none" stroke="#000000" d="M198.42766 5.66927V-5.66927"/>
<use data-text="7" xlink:href="#font_1_100" transform="matrix(9.963098,0,0,-9.962799,311.43458,276.27827)"/>
<path transform="matrix(1.00005,0,0,-1.00002,115.48781,260.15495)" stroke-width=".79701" stroke-linecap="butt" stroke-miterlimit="10" stroke-linejoin="miter" fill="none" stroke="#000000" d="M226.77448 5.66927V-5.66927"/>
<use data-text="8" xlink:href="#font_1_51" transform="matrix(9.963098,0,0,-9.962799,339.78303,276.17927)"/>
<path transform="matrix(1.00005,0,0,-1.00002,115.48781,260.15495)" stroke-width=".79701" stroke-linecap="butt" stroke-miterlimit="10" stroke-linejoin="miter" fill="none" stroke="#000000" d="M255.12128 5.66927V-5.66927"/>
<use data-text="9" xlink:href="#font_1_78" transform="matrix(9.963098,0,0,-9.962799,368.1314,276.17927)"/>
<path transform="matrix(1.00005,0,0,-1.00002,115.48781,260.15495)" stroke-width=".79701" stroke-linecap="butt" stroke-miterlimit="10" stroke-linejoin="miter" fill="none" stroke="#000000" d="M-98.41681 0H268.49769"/>
<path transform="matrix(-1.00005,-0,0,1.00002,16.667572,260.15495)" stroke-width=".79701" stroke-linecap="round" stroke-linejoin="round" fill="none" stroke="#000000" d="M-2.55046 3.11095C-2.0845 1.24435-1.04614 .36295 0 0-1.04614-.36295-2.0845-1.24435-2.55046-3.11095"/>
<path transform="matrix(1.00005,0,0,-1.00002,384.3974,260.15495)" stroke-width=".79701" stroke-linecap="round" stroke-linejoin="round" fill="none" stroke="#000000" d="M-2.55046 3.11095C-2.0845 1.24435-1.04614 .36295 0 0-1.04614-.36295-2.0845-1.24435-2.55046-3.11095"/>
<use data-text="x" xlink:href="#font_2_1" transform="matrix(9.963098,0,0,-9.962799,381.9491,268.1641)"/>
<path transform="matrix(1.00005,0,0,-1.00002,115.48781,260.15495)" stroke-width=".79701" stroke-linecap="butt" stroke-miterlimit="10" stroke-linejoin="miter" fill="none" stroke="#000000" d="M5.66927-85.04042H-5.66927"/>
<use data-text="-" xlink:href="#font_1_64" transform="matrix(9.963098,0,0,-9.962799,97.79993,348.40473)"/>
<use data-text="3" xlink:href="#font_1_106" transform="matrix(9.963098,0,0,-9.962799,101.117649,348.40473)"/>
<path transform="matrix(1.00005,0,0,-1.00002,115.48781,260.15495)" stroke-width=".79701" stroke-linecap="butt" stroke-miterlimit="10" stroke-linejoin="miter" fill="none" stroke="#000000" d="M5.66927-56.69362H-5.66927"/>
<use data-text="-" xlink:href="#font_1_64" transform="matrix(9.963098,0,0,-9.962799,97.79993,320.16716)"/>
<use data-text="2" xlink:href="#font_1_107" transform="matrix(9.963098,0,0,-9.962799,101.117649,320.16716)"/>
<path transform="matrix(1.00005,0,0,-1.00002,115.48781,260.15495)" stroke-width=".79701" stroke-linecap="butt" stroke-miterlimit="10" stroke-linejoin="miter" fill="none" stroke="#000000" d="M5.66927-28.3468H-5.66927"/>
<use data-text="-" xlink:href="#font_1_64" transform="matrix(9.963098,0,0,-9.962799,97.79993,291.81959)"/>
<use data-text="1" xlink:href="#font_1_82" transform="matrix(9.963098,0,0,-9.962799,101.117649,291.81959)"/>
<path transform="matrix(1.00005,0,0,-1.00002,115.48781,260.15495)" stroke-width=".79701" stroke-linecap="butt" stroke-miterlimit="10" stroke-linejoin="miter" fill="none" stroke="#000000" d="M5.66927 28.3468H-5.66927"/>
<use data-text="1" xlink:href="#font_1_82" transform="matrix(9.963098,0,0,-9.962799,101.11709,235.12545)"/>
<path transform="matrix(1.00005,0,0,-1.00002,115.48781,260.15495)" stroke-width=".79701" stroke-linecap="butt" stroke-miterlimit="10" stroke-linejoin="miter" fill="none" stroke="#000000" d="M5.66927 56.69362H-5.66927"/>
<use data-text="2" xlink:href="#font_1_107" transform="matrix(9.963098,0,0,-9.962799,101.11709,206.77787)"/>
<path transform="matrix(1.00005,0,0,-1.00002,115.48781,260.15495)" stroke-width=".79701" stroke-linecap="butt" stroke-miterlimit="10" stroke-linejoin="miter" fill="none" stroke="#000000" d="M5.66927 85.04042H-5.66927"/>
<use data-text="3" xlink:href="#font_1_106" transform="matrix(9.963098,0,0,-9.962799,101.11709,178.32129)"/>
<path transform="matrix(1.00005,0,0,-1.00002,115.48781,260.15495)" stroke-width=".79701" stroke-linecap="butt" stroke-miterlimit="10" stroke-linejoin="miter" fill="none" stroke="#000000" d="M5.66927 113.38724H-5.66927"/>
<use data-text="4" xlink:href="#font_1_57" transform="matrix(9.963098,0,0,-9.962799,101.11709,150.13773)"/>
<path transform="matrix(1.00005,0,0,-1.00002,115.48781,260.15495)" stroke-width=".79701" stroke-linecap="butt" stroke-miterlimit="10" stroke-linejoin="miter" fill="none" stroke="#000000" d="M5.66927 141.73404H-5.66927"/>
<use data-text="5" xlink:href="#font_1_56" transform="matrix(9.963098,0,0,-9.962799,101.11709,121.62616)"/>
<path transform="matrix(1.00005,0,0,-1.00002,115.48781,260.15495)" stroke-width=".79701" stroke-linecap="butt" stroke-miterlimit="10" stroke-linejoin="miter" fill="none" stroke="#000000" d="M5.66927 170.08086H-5.66927"/>
<use data-text="6" xlink:href="#font_1_101" transform="matrix(9.963098,0,0,-9.962799,101.11709,93.278598)"/>
<path transform="matrix(1.00005,0,0,-1.00002,115.48781,260.15495)" stroke-width=".79701" stroke-linecap="butt" stroke-miterlimit="10" stroke-linejoin="miter" fill="none" stroke="#000000" d="M5.66927 198.42766H-5.66927"/>
<use data-text="7" xlink:href="#font_1_100" transform="matrix(9.963098,0,0,-9.962799,101.11709,64.98103)"/>
<path transform="matrix(1.00005,0,0,-1.00002,115.48781,260.15495)" stroke-width=".79701" stroke-linecap="butt" stroke-miterlimit="10" stroke-linejoin="miter" fill="none" stroke="#000000" d="M5.66927 226.77448H-5.66927"/>
<use data-text="8" xlink:href="#font_1_51" transform="matrix(9.963098,0,0,-9.962799,101.11709,36.584474)"/>
<path transform="matrix(1.00005,0,0,-1.00002,115.48781,260.15495)" stroke-width=".79701" stroke-linecap="butt" stroke-miterlimit="10" stroke-linejoin="miter" fill="none" stroke="#000000" d="M0-84.24341V254.32427"/>
<path transform="matrix(0,1.00002,1.00005,0,115.48781,344.79856)" stroke-width=".79701" stroke-linecap="round" stroke-linejoin="round" fill="none" stroke="#000000" d="M-2.55046 3.11095C-2.0845 1.24435-1.04614 .36295 0 0-1.04614-.36295-2.0845-1.24435-2.55046-3.11095"/>
<path transform="matrix(0,-1.00002,-1.00005,-0,115.48781,5.427063)" stroke-width=".79701" stroke-linecap="round" stroke-linejoin="round" fill="none" stroke="#000000" d="M-2.55046 3.11095C-2.0845 1.24435-1.04614 .36295 0 0-1.04614-.36295-2.0845-1.24435-2.55046-3.11095"/>
<use data-text="y" xlink:href="#font_2_2" transform="matrix(9.963098,0,0,-9.962799,106.52636,6.2048494)"/>
<use data-text="A" xlink:href="#font_3_1" transform="matrix(0,-8.966579,-8.966848,-0,138.07395,189.35556)"/>
<use data-text="(" xlink:href="#font_4_1" transform="matrix(0,-8.966579,-8.966848,-0,138.07395,181.34941)"/>
<use data-text="1" xlink:href="#font_4_4" transform="matrix(0,-8.966579,-8.966848,-0,138.07395,177.77175)"/>
<use data-text="," xlink:href="#font_5_1" transform="matrix(0,-8.966579,-8.966848,-0,138.07395,173.15825)"/>
<use data-text="3" xlink:href="#font_4_5" transform="matrix(0,-8.966579,-8.966848,-0,138.07395,169.06217)"/>
<use data-text=")" xlink:href="#font_4_2" transform="matrix(0,-8.966579,-8.966848,-0,138.07395,164.46231)"/>
<use data-text="B" xlink:href="#font_3_2" transform="matrix(8.966848,0,0,-8.966579,168.99248,262.39698)"/>
<use data-text="(" xlink:href="#font_4_1" transform="matrix(8.966848,0,0,-8.966579,176.53186,262.39698)"/>
<use data-text="3" xlink:href="#font_4_5" transform="matrix(8.966848,0,0,-8.966579,180.10964,262.39698)"/>
<use data-text="," xlink:href="#font_5_1" transform="matrix(8.966848,0,0,-8.966579,184.72428,262.39698)"/>
<use data-text="0" xlink:href="#font_4_3" transform="matrix(8.966848,0,0,-8.966579,188.82047,262.39698)"/>
<use data-text=")" xlink:href="#font_4_2" transform="matrix(8.966848,0,0,-8.966579,193.42046,262.39698)"/>
<use data-text="C" xlink:href="#font_3_3" transform="matrix(8.966848,0,0,-8.966579,214.80878,141.00354)"/>
<use data-text="(" xlink:href="#font_4_1" transform="matrix(8.966848,0,0,-8.966579,222.47214,141.00354)"/>
<use data-text="4" xlink:href="#font_4_6" transform="matrix(8.966848,0,0,-8.966579,226.04993,141.00354)"/>
<use data-text="," xlink:href="#font_5_1" transform="matrix(8.966848,0,0,-8.966579,230.66355,141.00354)"/>
<use data-text="4" xlink:href="#font_4_6" transform="matrix(8.966848,0,0,-8.966579,234.75974,141.00354)"/>
<use data-text=")" xlink:href="#font_4_2" transform="matrix(8.966848,0,0,-8.966579,239.35974,141.00354)"/>
<path transform="matrix(1.00005,0,0,-1.00002,115.48781,260.15495)" stroke-width="1.19553" stroke-linecap="butt" stroke-miterlimit="10" stroke-linejoin="miter" fill="none" stroke="#000000" d="M28.3468 85.04042 85.04042 0 113.38724 113.38724Z"/>
<use data-text="A" xlink:href="#font_3_1" transform="matrix(8.966848,0,0,-8.966579,222.53815,92.51459)"/>
<use data-text="&#x2032;" xlink:href="#font_6_1" transform="matrix(5.9778988,0,0,-5.97772,230.54456,88.705509)"/>
<use data-text="(" xlink:href="#font_4_1" transform="matrix(8.966848,0,0,-8.966579,233.2287,92.51459)"/>
<use data-text="5" xlink:href="#font_4_7" transform="matrix(8.966848,0,0,-8.966579,236.80646,92.51459)"/>
<use data-text="," xlink:href="#font_5_1" transform="matrix(8.966848,0,0,-8.966579,241.4201,92.51459)"/>
<use data-text="6" xlink:href="#font_4_8" transform="matrix(8.966848,0,0,-8.966579,245.5163,92.51459)"/>
<use data-text=")" xlink:href="#font_4_2" transform="matrix(8.966848,0,0,-8.966579,250.11627,92.51459)"/>
<use data-text="B" xlink:href="#font_3_2" transform="matrix(8.966848,0,0,-8.966579,317.4449,177.55728)"/>
<use data-text="&#x2032;" xlink:href="#font_6_1" transform="matrix(5.9778988,0,0,-5.97772,324.98429,173.7482)"/>
<use data-text="(" xlink:href="#font_4_1" transform="matrix(8.966848,0,0,-8.966579,327.66944,177.55728)"/>
<use data-text="7" xlink:href="#font_4_9" transform="matrix(8.966848,0,0,-8.966579,331.2472,177.55728)"/>
<use data-text="," xlink:href="#font_5_1" transform="matrix(8.966848,0,0,-8.966579,335.8608,177.55728)"/>
<use data-text="3" xlink:href="#font_4_5" transform="matrix(8.966848,0,0,-8.966579,339.95704,177.55728)"/>
<use data-text=")" xlink:href="#font_4_2" transform="matrix(8.966848,0,0,-8.966579,344.557,177.55728)"/>
<use data-text="C" xlink:href="#font_3_3" transform="matrix(8.966848,0,0,-8.966579,326.85939,55.961854)"/>
<use data-text="&#x2032;" xlink:href="#font_6_1" transform="matrix(5.9778988,0,0,-5.97772,334.52275,52.15277)"/>
<use data-text="(" xlink:href="#font_4_1" transform="matrix(8.966848,0,0,-8.966579,337.20689,55.961854)"/>
<use data-text="8" xlink:href="#font_4_10" transform="matrix(8.966848,0,0,-8.966579,340.78468,55.961854)"/>
<use data-text="," xlink:href="#font_5_1" transform="matrix(8.966848,0,0,-8.966579,345.3983,55.961854)"/>
<use data-text="7" xlink:href="#font_4_9" transform="matrix(8.966848,0,0,-8.966579,349.49449,55.961854)"/>
<use data-text=")" xlink:href="#font_4_2" transform="matrix(8.966848,0,0,-8.966579,354.09449,55.961854)"/>
<path transform="matrix(1.00005,0,0,-1.00002,115.48781,260.15495)" stroke-width="1.19553" stroke-linecap="butt" stroke-miterlimit="10" stroke-linejoin="miter" fill="none" stroke="#000000" d="M141.73404 170.08086 198.42766 85.04042 226.77448 198.42766Z"/>
<path transform="matrix(1.00005,0,0,-1.00002,115.48781,260.15495)" stroke-width=".3985" stroke-linecap="butt" stroke-dasharray="2.98883,2.98883" stroke-miterlimit="10" stroke-linejoin="miter" fill="none" stroke="#000000" d="M28.3468 85.04042 141.73404 170.08086"/>
<path transform="matrix(1.00005,0,0,-1.00002,115.48781,260.15495)" stroke-width=".3985" stroke-linecap="butt" stroke-dasharray="2.98883,2.98883" stroke-miterlimit="10" stroke-linejoin="miter" fill="none" stroke="#000000" d="M85.04042 0 198.42766 85.04042"/>
<path transform="matrix(1.00005,0,0,-1.00002,115.48781,260.15495)" stroke-width=".3985" stroke-linecap="butt" stroke-dasharray="2.98883,2.98883" stroke-miterlimit="10" stroke-linejoin="miter" fill="none" stroke="#000000" d="M113.38724 113.38724 226.77448 198.42766"/>
<path transform="matrix(1.00005,0,0,-1.00002,115.48781,260.15495)" stroke-width=".3985" stroke-linecap="butt" stroke-dasharray="2.98883,2.98883" stroke-miterlimit="10" stroke-linejoin="miter" fill="none" stroke="#000000" d="M85.04042 0 134.24234 36.90132"/>
<path transform="matrix(.8000099,-.60000208,-.60002,-.799986,249.73685,223.25287)" d="M8.54343 0C7.49426 .25244 2.88243 1.68295 0 3.23967V-3.23967C2.88243-1.68295 7.49426-.25244 8.54343 0Z"/>
<path transform="matrix(.8000099,-.60000208,-.60002,-.799986,249.73685,223.25287)" stroke-width=".3985" stroke-linecap="butt" stroke-miterlimit="10" stroke-linejoin="miter" fill="none" stroke="#000000" d="M8.54343 0C7.49426 .25244 2.88243 1.68295 0 3.23967V-3.23967C2.88243-1.68295 7.49426-.25244 8.54343 0Z"/>
<path transform="matrix(1.00005,0,0,-1.00002,115.48781,260.15495)" stroke-width=".3985" stroke-linecap="butt" stroke-dasharray="2.98883,2.98883" stroke-miterlimit="10" stroke-linejoin="miter" fill="none" stroke="#000000" d="M113.38724 113.38724 148.35587 139.03104"/>
<path transform="matrix(.8064103,-.59135189,-.59136959,-.8063862,263.85108,121.12114)" d="M8.54343 0C7.49426 .25244 2.88243 1.68295 0 3.23967V-3.23967C2.88243-1.68295 7.49426-.25244 8.54343 0Z"/>
<path transform="matrix(.8064103,-.59135189,-.59136959,-.8063862,263.85108,121.12114)" stroke-width=".3985" stroke-linecap="butt" stroke-miterlimit="10" stroke-linejoin="miter" fill="none" stroke="#000000" d="M8.54343 0C7.49426 .25244 2.88243 1.68295 0 3.23967V-3.23967C2.88243-1.68295 7.49426-.25244 8.54343 0Z"/>
<path transform="matrix(1.00005,0,0,-1.00002,115.48781,260.15495)" stroke-width=".3985" stroke-linecap="butt" stroke-dasharray="2.98883,2.98883" stroke-miterlimit="10" stroke-linejoin="miter" fill="none" stroke="#000000" d="M28.3468 85.04042 77.54872 121.94176"/>
<path transform="matrix(.8000099,-.60000208,-.60002,-.799986,193.0404,138.21074)" d="M8.54343 0C7.49426 .25244 2.88243 1.68295 0 3.23967V-3.23967C2.88243-1.68295 7.49426-.25244 8.54343 0Z"/>
<path transform="matrix(.8000099,-.60000208,-.60002,-.799986,193.0404,138.21074)" stroke-width=".3985" stroke-linecap="butt" stroke-miterlimit="10" stroke-linejoin="miter" fill="none" stroke="#000000" d="M8.54343 0C7.49426 .25244 2.88243 1.68295 0 3.23967V-3.23967C2.88243-1.68295 7.49426-.25244 8.54343 0Z"/>
</svg>
