<svg xmlns="http://www.w3.org/2000/svg" xmlns:xlink="http://www.w3.org/1999/xlink" xmlns:inkscape="http://www.inkscape.org/namespaces/inkscape" version="1.1" width="344" height="344" viewBox="0 0 344 344">
<defs>
<path id="font_1_1" d="M.33399964 .30233766C.33999635 .32835389 .36299134 .42037965 .43299867 .42037965 .43798829 .42037965 .46199037 .42037965 .48298646 .40734864 .45498658 .402359 .43499757 .37734986 .43499757 .35334779 .43499757 .33735658 .44599916 .31835938 .47299195 .31835938 .49499513 .31835938 .5269928 .3363495 .5269928 .37635804 .5269928 .42837525 .46798707 .4423828 .43399049 .4423828 .37599183 .4423828 .34098817 .38935853 .32899476 .36634828 .3039856 .43237306 .25 .4423828 .22099304 .4423828 .116989139 .4423828 .05999756 .3133545 .05999756 .28834535 .05999756 .27833558 .069992069 .27833558 .07199097 .27833558 .07998657 .27833558 .08299255 .28033448 .084991458 .28933717 .11898804 .39535523 .18499756 .42037965 .21899414 .42037965 .23799134 .42037965 .272995 .4113617 .272995 .35334779 .272995 .32235719 .2559967 .25532533 .21899414 .11528015 .20298767 .053268434 .16799927 .011245728 .12399292 .011245728 .117996219 .011245728 .09498596 .011245728 .07398987 .024276734 .09899902 .029266358 .12098694 .05027771 .12098694 .07827759 .12098694 .105270389 .09899902 .11328125 .083999637 .11328125 .053985597 .11328125 .0289917 .08728027 .0289917 .055267335 .0289917 .009246826 .07899475-.0107421879 .12298584-.0107421879 .18899536-.0107421879 .22499085 .059280397 .22799683 .0652771 .23999024 .028274537 .27598573-.0107421879 .33599855-.0107421879 .43899537-.0107421879 .49598695 .118270877 .49598695 .14328003 .49598695 .1532898 .4869995 .1532898 .48399354 .1532898 .47499085 .1532898 .47299195 .14929199 .47099305 .14228821 .43798829 .03527832 .36999513 .011245728 .33799745 .011245728 .29899598 .011245728 .2829895 .043273927 .2829895 .07727051 .2829895 .09927368 .2889862 .121276859 .2999878 .16529846L.33399964 .30233766Z"/>
<path id="font_1_2" d="M.48599244 .38136292C.48999024 .39537049 .48999024 .39736939 .48999024 .40437318 .48999024 .42237855 .47599793 .43138124 .46099855 .43138124 .45098878 .43138124 .43499757 .42536927 .42599488 .41036988 .42399598 .405365 .41600038 .37435914 .4119873 .35635377 .40499879 .33035279 .397995 .30334474 .3919983 .27633668L.34700013 .09628296C.34298707 .08126831 .2999878 .011245728 .23399353 .011245728 .18299866 .011245728 .17199707 .055267335 .17199707 .0922699 .17199707 .1382904 .18899536 .20030213 .22299195 .28833009 .23899842 .3293457 .24299622 .3403473 .24299622 .36035157 .24299622 .405365 .21099854 .4423828 .16099549 .4423828 .06599426 .4423828 .0289917 .29733277 .0289917 .28833009 .0289917 .27833558 .038986207 .27833558 .040985109 .27833558 .050994874 .27833558 .051986696 .28033448 .056991579 .29634095 .083999637 .3903656 .12399292 .42037965 .1579895 .42037965 .1659851 .42037965 .18299866 .42037965 .18299866 .3883667 .18299866 .36335755 .17298889 .3373413 .1659851 .31834413 .12599182 .21231079 .10798645 .1552887 .10798645 .10827637 .10798645 .019256592 .17098999-.0107421879 .22999573-.0107421879 .2689972-.0107421879 .30299378 .0062561037 .33099366 .03425598 .31799317-.017745972 .30599977-.06674194 .2659912-.11973572 .23999024-.15385437 .20199585-.18309021 .1559906-.18309021 .14199829-.18309021 .09700012-.18005371 .07998657-.14074707 .09599304-.14074707 .10899353-.14074707 .12298584-.1287384 .1329956-.11973572 .14299011-.10673523 .14299011-.08773804 .14299011-.056747438 .115997318-.052734376 .10598755-.052734376 .08299255-.052734376 .049987794-.068740848 .049987794-.11773682 .049987794-.16796875 .09399414-.20507813 .1559906-.20507813 .25898744-.20507813 .3619995-.11373901 .3899994-.00074768069L.48599244 .38136292Z"/>
<path id="font_2_64" d="M.27598573 .18710327V.24511719H.010986328V.18710327H.27598573Z"/>
<path id="font_2_56" d="M.44898988 .20091248C.44898988 .31991578 .36698915 .41992188 .25898744 .41992188 .21099854 .41992188 .16799927 .4039154 .13198853 .36891175V.5641022C.1519928 .55778506 .18499756 .55078127 .21699524 .55078127 .33999635 .55078127 .4099884 .6418457 .4099884 .65493777 .4099884 .6609802 .40699769 .6660156 .3999939 .6660156 .3999939 .66607668 .39698792 .66607668 .3919983 .66308596 .37199403 .65408328 .32299806 .63378909 .2559967 .63378909 .21598816 .63409426 .16999817 .641098 .12298584 .6621094 .114990238 .6651001 .11099243 .6651001 .11099243 .6651001 .100997928 .66508486 .100997928 .657074 .100997928 .64108279V.3447113C.100997928 .3266449 .100997928 .31861878 .114990238 .31861878 .12199402 .31861878 .12399292 .32164 .12799073 .32765199 .13899231 .34371949 .17599488 .3979187 .25698854 .3979187 .30899049 .3979187 .33399964 .3517456 .34199525 .3336792 .35798646 .2965393 .3600006 .2574005 .3600006 .20721436 .3600006 .17218018 .3600006 .112197879 .33599855 .07032776 .31199647 .031448366 .2749939 .0055389406 .22898865 .0055389406 .1559906 .0055389406 .09899902 .05836487 .08198547 .1171875 .084991458 .11685181 .08799744 .115859989 .09899902 .115859989 .13198853 .115859989 .14898682 .14085388 .14898682 .16485596 .14898682 .18885803 .13198853 .21386719 .09899902 .21386719 .084991458 .21386719 .049987794 .2068634 .049987794 .16085816 .049987794 .07432556 .11898804-.022460938 .23098755-.022460938 .34700013-.022460938 .44898988 .07331848 .44898988 .20019531V.20091248Z"/>
<path id="font_2_57" d="M.47099305 .16503906V.19602967H.37098695V.6507721C.37098695 .6707611 .37098695 .6767578 .35499574 .6767578 .34599305 .6767578 .34298707 .6767578 .33499146 .6647644L.027999878 .19602967V.16503906H.2939911V.07800293C.2939911 .041992189 .2919922 .0309906 .21798706 .0309906H.19699097V0C.23799134 .0029907227 .2899933 .0029907227 .33198548 .0029907227 .37399293 .0029907227 .4269867 .0029907227 .46798707 0V.0309906H.44699098C.37298585 .0309906 .37098695 .041992189 .37098695 .07800293V.16503906H.47099305M.2999878 .19602967H.055999757L.2999878 .56881716V.19602967Z"/>
<path id="font_2_106" d="M.45700074 .17037964C.45700074 .252594 .3939972 .33088685 .2899933 .35191346 .37199403 .37893678 .42999269 .4490509 .42999269 .52809146 .42999269 .6100464 .34199525 .6660156 .24598694 .6660156 .14498902 .6660156 .068984989 .60606387 .068984989 .53009036 .068984989 .49710084 .09098816 .47808839 .11999512 .47808839 .15098572 .47808839 .17098999 .50009158 .17098999 .5290985 .17098999 .57910159 .12399292 .57910159 .10899353 .57910159 .13999939 .62802127 .20599365 .64100649 .24198914 .64100649 .2829895 .64100649 .33799745 .6190338 .33799745 .5290985 .33799745 .51708987 .33599855 .45906068 .30999757 .4149933 .27999879 .36691285 .24598694 .36390687 .22099304 .36291505 .21299744 .36190797 .18899536 .35990907 .18199158 .35990907 .17399597 .35890199 .16699219 .35791017 .16699219 .3479004 .16699219 .33691407 .17399597 .33691407 .19099427 .33691407H.23498535C.31698609 .33691407 .35398866 .2686615 .35398866 .17037964 .35398866 .034469606 .2849884 .0055389406 .24099732 .0055389406 .19799805 .0055389406 .12298584 .022491456 .08799744 .08137512 .12298584 .07637024 .1539917 .09837341 .1539917 .1363678 .1539917 .17237854 .1269989 .19238281 .09799194 .19238281 .07398987 .19238281 .041992189 .17837525 .041992189 .1343689 .041992189 .043441774 .1349945-.022460938 .24398804-.022460938 .3659973-.022460938 .45700074 .06838989 .45700074 .17037964Z"/>
<path id="font_2_107" d="M.44898988 .17396546H.42399598C.4189911 .14398194 .4119873 .099990848 .4019928 .084991458 .394989 .07699585 .32899476 .07699585 .30699159 .07699585H.1269989L.23298645 .17996216C.3889923 .31803895 .44898988 .37210084 .44898988 .47216798 .44898988 .5860901 .35899354 .6660156 .23699951 .6660156 .12399292 .6660156 .049987794 .57411196 .049987794 .48516847 .049987794 .4291687 .099990848 .4291687 .102996829 .4291687 .11999512 .4291687 .15499878 .44117738 .15499878 .48217774 .15499878 .5081787 .13699341 .5341797 .101989749 .5341797 .09399414 .5341797 .09199524 .5341797 .08898926 .5331726 .11199951 .59806826 .1659851 .63500979 .22399903 .63500979 .31498719 .63500979 .35798646 .5541382 .35798646 .47216798 .35798646 .39196778 .30799867 .31297303 .25299073 .25097657L.06098938 .036987306C.049987794 .025985718 .049987794 .023986817 .049987794 0H.42099L.44898988 .17396546Z"/>
<path id="font_2_82" d="M.4189911 0V.0309906H.3869934C.29699708 .0309906 .2939911 .041992189 .2939911 .07902527V.64012148C.2939911 .6640167 .2939911 .6660156 .2709961 .6660156 .20899964 .60227969 .12098694 .60227969 .08898926 .60227969V.57128909C.10899353 .57128909 .16799927 .57128909 .21998596 .5972748V.07902527C.21998596 .042999269 .21699524 .0309906 .1269989 .0309906H.09498596V0C.12998963 .0029907227 .21699524 .0029907227 .25698854 .0029907227 .29699708 .0029907227 .38398744 .0029907227 .4189911 0Z"/>
<path id="font_2_121" d="M.45999146 .31976319C.45999146 .39982606 .45498658 .47988893 .41999818 .5539398 .37399293 .65000918 .2919922 .6660156 .25 .6660156 .18998719 .6660156 .116989139 .64001467 .07598877 .54693606 .04399109 .47789 .038986207 .39982606 .038986207 .31976319 .038986207 .24472046 .042999269 .15464783 .083999637 .07859802 .1269989-.0024719239 .19999695-.022460938 .24899292-.022460938 .30299378-.022460938 .3789978-.0014648438 .4229889 .09359741 .45498658 .16265869 .45999146 .2407074 .45999146 .31976319M.3769989 .3317871C.3769989 .25672914 .3769989 .18867493 .3659973 .12461853 .35099793 .029556275 .2939911-.00047302247 .24899292-.00047302247 .20999146-.00047302247 .15098572 .024551392 .1329956 .12062073 .12199402 .18066406 .12199402 .2727356 .12199402 .3317871 .12199402 .39582826 .12199402 .46188355 .12998963 .5159149 .14898682 .63500979 .22399903 .64401248 .24899292 .64401248 .28199769 .64401248 .34799195 .6259918 .36698915 .52693179 .3769989 .47088624 .3769989 .39482118 .3769989 .3317871Z"/>
<path id="font_3_1" d="M.48999024 .67318728C.47898866 .7001953 .46398927 .7001953 .44599916 .7001953 .42799378 .7001953 .41299439 .7001953 .4019928 .67318728L.14898682 .072021488C.14199829 .055999757 .14199829 .055007936 .116989139 .052001954 .099990848 .049987794 .08099365 .04899597 .06399536 .04899597H.042999269V0C.09899902 .0019989014 .11199951 .0029907227 .16499329 .0029907227 .20399475 .0029907227 .23599243 .0029907227 .2979889 0V.04899597C.2709961 .04899597 .23699951 .04899597 .20899964 .060012819L.2639923 .1921997H.54100039L.6009979 .04899597H.5069885V0C.5419922 .0029907227 .6429901 .0029907227 .6839905 .0029907227 .7259979 .0029907227 .8109894 .0029907227 .848999 0V.04899597H.7519989L.48999024 .67318728M.40299989 .52119448 .519989 .24121094H.2849884L.40299989 .52119448Z"/>
<path id="font_3_2" d="M.1499939 .63653567V.04899597H.041992189V0H.5169983C.6879883 0 .7739868 .088974 .7739868 .18595886 .7739868 .2729187 .69999697 .3439026 .5669861 .35890199 .6769867 .37789918 .7409973 .43981935 .7409973 .51371768 .7409973 .60557559 .651001 .6855469 .48599244 .6855469H.041992189V.63653567H.1499939M.2829895 .37690736V.63653567H.47299195C.59199526 .63653567 .59599307 .5336914 .59599307 .51371768 .59599307 .44081117 .5469971 .37690736 .44699098 .37690736H.2829895M.2829895 .04899597V.33691407H.4850006C.5009918 .33691407 .55400088 .33691407 .58799746 .29692079 .61698916 .2609253 .6230011 .21994019 .6230011 .18795777 .6230011 .11897278 .58299258 .04899597 .47499085 .04899597H.2829895Z"/>
<path id="font_3_3" d="M.7879944 .6692352C.7879944 .6872406 .7879944 .6982422 .7679901 .6982422 .7579956 .6982422 .7559967 .696228 .746994 .6882324L.68099978 .63023379C.6239929 .676239 .5509949 .6982422 .47799684 .6982422 .21998596 .6982422 .06599426 .5462494 .06599426 .34326173 .06599426 .14526367 .21398926-.01171875 .47898866-.01171875 .6669922-.01171875 .7879944 .10827637 .7879944 .22825623 .7879944 .2502594 .7779999 .2502594 .7619934 .2502594 .7509918 .2502594 .73799136 .2502594 .7369995 .23426819 .72898867 .089263919 .59599307 .03727722 .5009918 .03727722 .44699098 .03727722 .34999085 .04827881 .2829895 .12226868 .22999573 .18226624 .22299195 .2752533 .22299195 .34326173 .22299195 .46324159 .24699402 .52323916 .28799439 .5692444 .33499146 .62223818 .41600038 .64923098 .49899293 .64923098 .58699038 .64923098 .7029877 .5962372 .72898867 .43725587 .73098757 .42425538 .7429962 .42425538 .7579956 .42425538 .7849884 .42425538 .7879944 .42625428 .7879944 .45324708V.6692352Z"/>
<path id="font_3_4" d="M.1499939 .63653567V.04899597H.041992189V0H.48399354C.68299868 0 .83999636 .12094116 .83999636 .33776856 .83999636 .5496063 .69299319 .6855469 .48298646 .6855469H.041992189V.63653567H.1499939M.2889862 .04899597V.63653567H.44099427C.519989 .63653567 .59399417 .611557 .6380005 .55659487 .6819916 .50064089 .68899539 .42970277 .68899539 .33776856 .68899539 .24084473 .68899539 .04899597 .44198609 .04899597H.2889862Z"/>
<path id="font_4_1" d="M.31399537 .47006227C.32099916 .48506166 .32299806 .49606324 .32299806 .50205996 .32299806 .53305056 .29499818 .5590515 .2619934 .5590515 .22200012 .5590515 .20999146 .5240631 .20599365 .51005557L.06599426 .08206177C.06399536 .076049808 .06098938 .0680542 .06098938 .0640564 .06098938 .047058107 .100997928 .0390625 .101989749 .0390625 .11099243 .0390625 .114990238 .048049928 .11898804 .05606079L.31399537 .47006227Z"/>
</defs>
<path transform="matrix(1.00006,0,0,-1.00005,172.18518,171.88478)" stroke-width=".19925" stroke-linecap="butt" stroke-miterlimit="10" stroke-linejoin="miter" fill="none" stroke="#d9d9d9" d="M-170.08086-167.25612H170.08086M-170.08086-164.42128H170.08086M-170.08086-161.58643H170.08086M-170.08086-158.75157H170.08086M-170.08086-155.91674H170.08086M-170.08086-153.08188H170.08086M-170.08086-150.24703H170.08086M-170.08086-147.41219H170.08086M-170.08086-144.57733H170.08086M-170.08086-141.74248H170.08086M-170.08086-138.90763H170.08086M-170.08086-136.07279H170.08086M-170.08086-133.23793H170.08086M-170.08086-130.40308H170.08086M-170.08086-127.56824H170.08086M-170.08086-124.73338H170.08086M-170.08086-121.89853H170.08086M-170.08086-119.06367H170.08086M-170.08086-116.22884H170.08086M-170.08086-113.39398H170.08086M-170.08086-110.55913H170.08086M-170.08086-107.72429H170.08086M-170.08086-104.88943H170.08086M-170.08086-102.05458H170.08086M-170.08086-99.21973H170.08086M-170.08086-96.38489H170.08086M-170.08086-93.55003H170.08086M-170.08086-90.71518H170.08086M-170.08086-87.88034H170.08086M-170.08086-85.04549H170.08086M-170.08086-82.21063H170.08086M-170.08086-79.37578H170.08086M-170.08086-76.54094H170.08086M-170.08086-73.70609H170.08086M-170.08086-70.87123H170.08086M-170.08086-68.03639H170.08086M-170.08086-65.20154H170.08086M-170.08086-62.36668H170.08086M-170.08086-59.53183H170.08086M-170.08086-56.69699H170.08086M-170.08086-53.86214H170.08086M-170.08086-51.02728H170.08086M-170.08086-48.19244H170.08086M-170.08086-45.35759H170.08086M-170.08086-42.52274H170.08086M-170.08086-39.68788H170.08086M-170.08086-36.85304H170.08086M-170.08086-34.01819H170.08086M-170.08086-31.18333H170.08086M-170.08086-28.3485H170.08086M-170.08086-25.51364H170.08086M-170.08086-22.67879H170.08086M-170.08086-19.84393H170.08086M-170.08086-17.0091H170.08086M-170.08086-14.17424H170.08086M-170.08086-11.33939H170.08086M-170.08086-8.50455H170.08086M-170.08086-5.6697H170.08086M-170.08086-2.83484H170.08086M-170.08086 0H170.08086M-170.08086 2.83484H170.08086M-170.08086 5.6697H170.08086M-170.08086 8.50455H170.08086M-170.08086 11.33939H170.08086M-170.08086 14.17424H170.08086M-170.08086 17.0091H170.08086M-170.08086 19.84393H170.08086M-170.08086 22.67879H170.08086M-170.08086 25.51364H170.08086M-170.08086 28.3485H170.08086M-170.08086 31.18333H170.08086M-170.08086 34.01819H170.08086M-170.08086 36.85304H170.08086M-170.08086 39.68788H170.08086M-170.08086 42.52274H170.08086M-170.08086 45.35759H170.08086M-170.08086 48.19244H170.08086M-170.08086 51.02728H170.08086M-170.08086 53.86214H170.08086M-170.08086 56.69699H170.08086M-170.08086 59.53183H170.08086M-170.08086 62.36668H170.08086M-170.08086 65.20154H170.08086M-170.08086 68.03639H170.08086M-170.08086 70.87123H170.08086M-170.08086 73.70609H170.08086M-170.08086 76.54094H170.08086M-170.08086 79.37578H170.08086M-170.08086 82.21063H170.08086M-170.08086 85.04549H170.08086M-170.08086 87.88034H170.08086M-170.08086 90.71518H170.08086M-170.08086 93.55003H170.08086M-170.08086 96.38489H170.08086M-170.08086 99.21973H170.08086M-170.08086 102.05458H170.08086M-170.08086 104.88943H170.08086M-170.08086 107.72429H170.08086M-170.08086 110.55913H170.08086M-170.08086 113.39398H170.08086M-170.08086 116.22884H170.08086M-170.08086 119.06367H170.08086M-170.08086 121.89853H170.08086M-170.08086 124.73338H170.08086M-170.08086 127.56824H170.08086M-170.08086 130.40308H170.08086M-170.08086 133.23793H170.08086M-170.08086 136.07279H170.08086M-170.08086 138.90763H170.08086M-170.08086 141.74248H170.08086M-170.08086 144.57733H170.08086M-170.08086 147.41219H170.08086M-170.08086 150.24703H170.08086M-170.08086 153.08188H170.08086M-170.08086 155.91674H170.08086M-170.08086 158.75157H170.08086M-170.08086 161.58643H170.08086M-170.08086 164.42128H170.08086M-170.08086 167.25612H170.08086M-167.25612-170.08086V170.08086M-164.42128-170.08086V170.08086M-161.58643-170.08086V170.08086M-158.75157-170.08086V170.08086M-155.91674-170.08086V170.08086M-153.08188-170.08086V170.08086M-150.24703-170.08086V170.08086M-147.41219-170.08086V170.08086M-144.57733-170.08086V170.08086M-141.74248-170.08086V170.08086M-138.90763-170.08086V170.08086M-136.07279-170.08086V170.08086M-133.23793-170.08086V170.08086M-130.40308-170.08086V170.08086M-127.56824-170.08086V170.08086M-124.73338-170.08086V170.08086M-121.89853-170.08086V170.08086M-119.06367-170.08086V170.08086M-116.22884-170.08086V170.08086M-113.39398-170.08086V170.08086M-110.55913-170.08086V170.08086M-107.72429-170.08086V170.08086M-104.88943-170.08086V170.08086M-102.05458-170.08086V170.08086M-99.21973-170.08086V170.08086M-96.38489-170.08086V170.08086M-93.55003-170.08086V170.08086M-90.71518-170.08086V170.08086M-87.88034-170.08086V170.08086M-85.04549-170.08086V170.08086M-82.21063-170.08086V170.08086M-79.37578-170.08086V170.08086M-76.54094-170.08086V170.08086M-73.70609-170.08086V170.08086M-70.87123-170.08086V170.08086M-68.03639-170.08086V170.08086M-65.20154-170.08086V170.08086M-62.36668-170.08086V170.08086M-59.53183-170.08086V170.08086M-56.69699-170.08086V170.08086M-53.86214-170.08086V170.08086M-51.02728-170.08086V170.08086M-48.19244-170.08086V170.08086M-45.35759-170.08086V170.08086M-42.52274-170.08086V170.08086M-39.68788-170.08086V170.08086M-36.85304-170.08086V170.08086M-34.01819-170.08086V170.08086M-31.18333-170.08086V170.08086M-28.3485-170.08086V170.08086M-25.51364-170.08086V170.08086M-22.67879-170.08086V170.08086M-19.84393-170.08086V170.08086M-17.0091-170.08086V170.08086M-14.17424-170.08086V170.08086M-11.33939-170.08086V170.08086M-8.50455-170.08086V170.08086M-5.6697-170.08086V170.08086M-2.83484-170.08086V170.08086M0-170.08086V170.08086M2.83484-170.08086V170.08086M5.6697-170.08086V170.08086M8.50455-170.08086V170.08086M11.33939-170.08086V170.08086M14.17424-170.08086V170.08086M17.0091-170.08086V170.08086M19.84393-170.08086V170.08086M22.67879-170.08086V170.08086M25.51364-170.08086V170.08086M28.3485-170.08086V170.08086M31.18333-170.08086V170.08086M34.01819-170.08086V170.08086M36.85304-170.08086V170.08086M39.68788-170.08086V170.08086M42.52274-170.08086V170.08086M45.35759-170.08086V170.08086M48.19244-170.08086V170.08086M51.02728-170.08086V170.08086M53.86214-170.08086V170.08086M56.69699-170.08086V170.08086M59.53183-170.08086V170.08086M62.36668-170.08086V170.08086M65.20154-170.08086V170.08086M68.03639-170.08086V170.08086M70.87123-170.08086V170.08086M73.70609-170.08086V170.08086M76.54094-170.08086V170.08086M79.37578-170.08086V170.08086M82.21063-170.08086V170.08086M85.04549-170.08086V170.08086M87.88034-170.08086V170.08086M90.71518-170.08086V170.08086M93.55003-170.08086V170.08086M96.38489-170.08086V170.08086M99.21973-170.08086V170.08086M102.05458-170.08086V170.08086M104.88943-170.08086V170.08086M107.72429-170.08086V170.08086M110.55913-170.08086V170.08086M113.39398-170.08086V170.08086M116.22884-170.08086V170.08086M119.06367-170.08086V170.08086M121.89853-170.08086V170.08086M124.73338-170.08086V170.08086M127.56824-170.08086V170.08086M130.40308-170.08086V170.08086M133.23793-170.08086V170.08086M136.07279-170.08086V170.08086M138.90763-170.08086V170.08086M141.74248-170.08086V170.08086M144.57733-170.08086V170.08086M147.41219-170.08086V170.08086M150.24703-170.08086V170.08086M153.08188-170.08086V170.08086M155.91674-170.08086V170.08086M158.75157-170.08086V170.08086M161.58643-170.08086V170.08086M164.42128-170.08086V170.08086M167.25612-170.08086V170.08086M170.08086 170.08086"/>
<path transform="matrix(1.00006,0,0,-1.00005,172.18518,171.88478)" stroke-width=".3985" stroke-linecap="butt" stroke-miterlimit="10" stroke-linejoin="miter" fill="none" stroke="#a6a6a6" d="M-170.08086-170.08086H170.08086M-170.08086-141.73404H170.08086M-170.08086-113.38724H170.08086M-170.08086-85.04042H170.08086M-170.08086-56.69362H170.08086M-170.08086-28.3468H170.08086M-170.08086 0H170.08086M-170.08086 28.3468H170.08086M-170.08086 56.69362H170.08086M-170.08086 85.04042H170.08086M-170.08086 113.38724H170.08086M-170.08086 141.73404H170.08086M-170.08086 170.07089H170.08086M-170.08086-170.08086V170.08086M-141.73404-170.08086V170.08086M-113.38724-170.08086V170.08086M-85.04042-170.08086V170.08086M-56.69362-170.08086V170.08086M-28.3468-170.08086V170.08086M0-170.08086V170.08086M28.3468-170.08086V170.08086M56.69362-170.08086V170.08086M85.04042-170.08086V170.08086M113.38724-170.08086V170.08086M141.73404-170.08086V170.08086M170.07089-170.08086V170.08086M170.08086 170.08086"/>
<path transform="matrix(1.00006,0,0,-1.00005,172.18518,171.88478)" stroke-width=".79701" stroke-linecap="butt" stroke-miterlimit="10" stroke-linejoin="miter" fill="none" stroke="#000000" d="M-155.11043 0H155.11043"/>
<path transform="matrix(-1.00006,-0,0,1.00005,16.666916,171.88478)" stroke-width=".79701" stroke-linecap="round" stroke-linejoin="round" fill="none" stroke="#000000" d="M-2.55046 3.11095C-2.0845 1.24435-1.04614 .36295 0 0-1.04614-.36295-2.0845-1.24435-2.55046-3.11095"/>
<path transform="matrix(1.00006,0,0,-1.00005,327.70344,171.88478)" stroke-width=".79701" stroke-linecap="round" stroke-linejoin="round" fill="none" stroke="#000000" d="M-2.55046 3.11095C-2.0845 1.24435-1.04614 .36295 0 0-1.04614-.36295-2.0845-1.24435-2.55046-3.11095"/>
<use data-text="x" xlink:href="#font_1_1" transform="matrix(9.963197,0,0,-9.963098,325.25434,179.89418)"/>
<path transform="matrix(1.00006,0,0,-1.00005,172.18518,171.88478)" stroke-width=".79701" stroke-linecap="butt" stroke-miterlimit="10" stroke-linejoin="miter" fill="none" stroke="#000000" d="M0-155.11043V155.11043"/>
<path transform="matrix(0,1.00005,1.00006,0,172.18518,327.4015)" stroke-width=".79701" stroke-linecap="round" stroke-linejoin="round" fill="none" stroke="#000000" d="M-2.55046 3.11095C-2.0845 1.24435-1.04614 .36295 0 0-1.04614-.36295-2.0845-1.24435-2.55046-3.11095"/>
<path transform="matrix(0,-1.00005,-1.00006,-0,172.18518,16.368073)" stroke-width=".79701" stroke-linecap="round" stroke-linejoin="round" fill="none" stroke="#000000" d="M-2.55046 3.11095C-2.0845 1.24435-1.04614 .36295 0 0-1.04614-.36295-2.0845-1.24435-2.55046-3.11095"/>
<use data-text="y" xlink:href="#font_1_2" transform="matrix(9.963197,0,0,-9.963098,163.22364,17.146042)"/>
<path transform="matrix(1.00006,0,0,-1.00005,172.18518,171.88478)" stroke-width=".79701" stroke-linecap="butt" stroke-miterlimit="10" stroke-linejoin="miter" fill="none" stroke="#000000" d="M-141.73404 5.66927V-5.66927"/>
<use data-text="-" xlink:href="#font_2_64" transform="matrix(9.963197,0,0,-9.963098,26.292435,187.90958)"/>
<use data-text="5" xlink:href="#font_2_56" transform="matrix(9.963197,0,0,-9.963098,29.610184,187.90958)"/>
<path transform="matrix(1.00006,0,0,-1.00005,172.18518,171.88478)" stroke-width=".79701" stroke-linecap="butt" stroke-miterlimit="10" stroke-linejoin="miter" fill="none" stroke="#000000" d="M-113.38724 5.66927V-5.66927"/>
<use data-text="-" xlink:href="#font_2_64" transform="matrix(9.963197,0,0,-9.963098,54.64113,188.01859)"/>
<use data-text="4" xlink:href="#font_2_57" transform="matrix(9.963197,0,0,-9.963098,57.958879,188.01859)"/>
<path transform="matrix(1.00006,0,0,-1.00005,172.18518,171.88478)" stroke-width=".79701" stroke-linecap="butt" stroke-miterlimit="10" stroke-linejoin="miter" fill="none" stroke="#000000" d="M-85.04042 5.66927V-5.66927"/>
<use data-text="-" xlink:href="#font_2_64" transform="matrix(9.963197,0,0,-9.963098,82.98984,187.90958)"/>
<use data-text="3" xlink:href="#font_2_106" transform="matrix(9.963197,0,0,-9.963098,86.30759,187.90958)"/>
<path transform="matrix(1.00006,0,0,-1.00005,172.18518,171.88478)" stroke-width=".79701" stroke-linecap="butt" stroke-miterlimit="10" stroke-linejoin="miter" fill="none" stroke="#000000" d="M-56.69362 5.66927V-5.66927"/>
<use data-text="-" xlink:href="#font_2_64" transform="matrix(9.963197,0,0,-9.963098,111.33853,187.90958)"/>
<use data-text="2" xlink:href="#font_2_107" transform="matrix(9.963197,0,0,-9.963098,114.65628,187.90958)"/>
<path transform="matrix(1.00006,0,0,-1.00005,172.18518,171.88478)" stroke-width=".79701" stroke-linecap="butt" stroke-miterlimit="10" stroke-linejoin="miter" fill="none" stroke="#000000" d="M-28.3468 5.66927V-5.66927"/>
<use data-text="-" xlink:href="#font_2_64" transform="matrix(9.963197,0,0,-9.963098,139.68723,187.90958)"/>
<use data-text="1" xlink:href="#font_2_82" transform="matrix(9.963197,0,0,-9.963098,143.00498,187.90958)"/>
<path transform="matrix(1.00006,0,0,-1.00005,172.18518,171.88478)" stroke-width=".79701" stroke-linecap="butt" stroke-miterlimit="10" stroke-linejoin="miter" fill="none" stroke="#000000" d="M0 5.66927V-5.66927"/>
<use data-text="0" xlink:href="#font_2_121" transform="matrix(9.963197,0,0,-9.963098,169.69403,187.90958)"/>
<path transform="matrix(1.00006,0,0,-1.00005,172.18518,171.88478)" stroke-width=".79701" stroke-linecap="butt" stroke-miterlimit="10" stroke-linejoin="miter" fill="none" stroke="#000000" d="M28.3468 5.66927V-5.66927"/>
<use data-text="1" xlink:href="#font_2_82" transform="matrix(9.963197,0,0,-9.963098,198.04273,187.90958)"/>
<path transform="matrix(1.00006,0,0,-1.00005,172.18518,171.88478)" stroke-width=".79701" stroke-linecap="butt" stroke-miterlimit="10" stroke-linejoin="miter" fill="none" stroke="#000000" d="M56.69362 5.66927V-5.66927"/>
<use data-text="2" xlink:href="#font_2_107" transform="matrix(9.963197,0,0,-9.963098,226.39144,187.90958)"/>
<path transform="matrix(1.00006,0,0,-1.00005,172.18518,171.88478)" stroke-width=".79701" stroke-linecap="butt" stroke-miterlimit="10" stroke-linejoin="miter" fill="none" stroke="#000000" d="M85.04042 5.66927V-5.66927"/>
<use data-text="3" xlink:href="#font_2_106" transform="matrix(9.963197,0,0,-9.963098,254.74015,187.90958)"/>
<path transform="matrix(1.00006,0,0,-1.00005,172.18518,171.88478)" stroke-width=".79701" stroke-linecap="butt" stroke-miterlimit="10" stroke-linejoin="miter" fill="none" stroke="#000000" d="M113.38724 5.66927V-5.66927"/>
<use data-text="4" xlink:href="#font_2_57" transform="matrix(9.963197,0,0,-9.963098,283.08885,188.01859)"/>
<path transform="matrix(1.00006,0,0,-1.00005,172.18518,171.88478)" stroke-width=".79701" stroke-linecap="butt" stroke-miterlimit="10" stroke-linejoin="miter" fill="none" stroke="#000000" d="M141.73404 5.66927V-5.66927"/>
<use data-text="5" xlink:href="#font_2_56" transform="matrix(9.963197,0,0,-9.963098,311.43653,187.90958)"/>
<path transform="matrix(1.00006,0,0,-1.00005,172.18518,171.88478)" stroke-width=".79701" stroke-linecap="butt" stroke-miterlimit="10" stroke-linejoin="miter" fill="none" stroke="#000000" d="M5.66927-141.73404H-5.66927"/>
<use data-text="-" xlink:href="#font_2_64" transform="matrix(9.963197,0,0,-9.963098,154.49712,316.834)"/>
<use data-text="5" xlink:href="#font_2_56" transform="matrix(9.963197,0,0,-9.963098,157.81487,316.834)"/>
<path transform="matrix(1.00006,0,0,-1.00005,172.18518,171.88478)" stroke-width=".79701" stroke-linecap="butt" stroke-miterlimit="10" stroke-linejoin="miter" fill="none" stroke="#000000" d="M5.66927-113.38724H-5.66927"/>
<use data-text="-" xlink:href="#font_2_64" transform="matrix(9.963197,0,0,-9.963098,154.49712,288.6506)"/>
<use data-text="4" xlink:href="#font_2_57" transform="matrix(9.963197,0,0,-9.963098,157.81487,288.6506)"/>
<path transform="matrix(1.00006,0,0,-1.00005,172.18518,171.88478)" stroke-width=".79701" stroke-linecap="butt" stroke-miterlimit="10" stroke-linejoin="miter" fill="none" stroke="#000000" d="M5.66927-85.04042H-5.66927"/>
<use data-text="-" xlink:href="#font_2_64" transform="matrix(9.963197,0,0,-9.963098,154.49712,260.1372)"/>
<use data-text="3" xlink:href="#font_2_106" transform="matrix(9.963197,0,0,-9.963098,157.81487,260.1372)"/>
<path transform="matrix(1.00006,0,0,-1.00005,172.18518,171.88478)" stroke-width=".79701" stroke-linecap="butt" stroke-miterlimit="10" stroke-linejoin="miter" fill="none" stroke="#000000" d="M5.66927-56.69362H-5.66927"/>
<use data-text="-" xlink:href="#font_2_64" transform="matrix(9.963197,0,0,-9.963098,154.49712,231.89878)"/>
<use data-text="2" xlink:href="#font_2_107" transform="matrix(9.963197,0,0,-9.963098,157.81487,231.89878)"/>
<path transform="matrix(1.00006,0,0,-1.00005,172.18518,171.88478)" stroke-width=".79701" stroke-linecap="butt" stroke-miterlimit="10" stroke-linejoin="miter" fill="none" stroke="#000000" d="M5.66927-28.3468H-5.66927"/>
<use data-text="-" xlink:href="#font_2_64" transform="matrix(9.963197,0,0,-9.963098,154.49712,203.55036)"/>
<use data-text="1" xlink:href="#font_2_82" transform="matrix(9.963197,0,0,-9.963098,157.81487,203.55036)"/>
<path transform="matrix(1.00006,0,0,-1.00005,172.18518,171.88478)" stroke-width=".79701" stroke-linecap="butt" stroke-miterlimit="10" stroke-linejoin="miter" fill="none" stroke="#000000" d="M5.66927 28.3468H-5.66927"/>
<use data-text="1" xlink:href="#font_2_82" transform="matrix(9.963197,0,0,-9.963098,157.81432,146.85454)"/>
<path transform="matrix(1.00006,0,0,-1.00005,172.18518,171.88478)" stroke-width=".79701" stroke-linecap="butt" stroke-miterlimit="10" stroke-linejoin="miter" fill="none" stroke="#000000" d="M5.66927 56.69362H-5.66927"/>
<use data-text="2" xlink:href="#font_2_107" transform="matrix(9.963197,0,0,-9.963098,157.81432,118.50612)"/>
<path transform="matrix(1.00006,0,0,-1.00005,172.18518,171.88478)" stroke-width=".79701" stroke-linecap="butt" stroke-miterlimit="10" stroke-linejoin="miter" fill="none" stroke="#000000" d="M5.66927 85.04042H-5.66927"/>
<use data-text="3" xlink:href="#font_2_106" transform="matrix(9.963197,0,0,-9.963098,157.81432,90.04869)"/>
<path transform="matrix(1.00006,0,0,-1.00005,172.18518,171.88478)" stroke-width=".79701" stroke-linecap="butt" stroke-miterlimit="10" stroke-linejoin="miter" fill="none" stroke="#000000" d="M5.66927 113.38724H-5.66927"/>
<use data-text="4" xlink:href="#font_2_57" transform="matrix(9.963197,0,0,-9.963098,157.81432,61.86429)"/>
<path transform="matrix(1.00006,0,0,-1.00005,172.18518,171.88478)" stroke-width=".79701" stroke-linecap="butt" stroke-miterlimit="10" stroke-linejoin="miter" fill="none" stroke="#000000" d="M5.66927 141.73404H-5.66927"/>
<use data-text="5" xlink:href="#font_2_56" transform="matrix(9.963197,0,0,-9.963098,157.81432,33.351869)"/>
<use data-text="A" xlink:href="#font_3_1" transform="matrix(8.966938,0,0,-8.966848,54.788148,54.971948)"/>
<use data-text="B" xlink:href="#font_3_2" transform="matrix(8.966938,0,0,-8.966848,19.382019,124.86043)"/>
<use data-text="C" xlink:href="#font_3_3" transform="matrix(8.966938,0,0,-8.966848,90.65929,153.20885)"/>
<use data-text="D" xlink:href="#font_3_4" transform="matrix(8.966938,0,0,-8.966848,111.42354,83.32036)"/>
<path transform="matrix(1.00006,0,0,-1.00005,172.18518,171.88478)" stroke-width="1.19553" stroke-linecap="butt" stroke-miterlimit="10" stroke-linejoin="miter" fill="none" stroke="#000000" d="M-113.38724 113.38724-141.73404 56.69362-85.04042 28.3468-56.69362 85.04042Z"/>
<use data-text="A" xlink:href="#font_3_1" transform="matrix(8.966938,0,0,-8.966848,223.53626,54.971948)"/>
<use data-text="&#x2032;" xlink:href="#font_4_1" transform="matrix(5.9779589,0,0,-5.9778988,231.54273,51.162759)"/>
<use data-text="B" xlink:href="#font_3_2" transform="matrix(8.966938,0,0,-8.966848,186.78907,125.838489)"/>
<use data-text="&#x2032;" xlink:href="#font_4_1" transform="matrix(5.9779589,0,0,-5.9778988,194.32849,122.0293)"/>
<use data-text="C" xlink:href="#font_3_3" transform="matrix(8.966938,0,0,-8.966848,260.7505,154.18689)"/>
<use data-text="&#x2032;" xlink:href="#font_4_1" transform="matrix(5.9779589,0,0,-5.9778988,268.41297,150.37772)"/>
<use data-text="D" xlink:href="#font_3_4" transform="matrix(8.966938,0,0,-8.966848,289.09919,90.405719)"/>
<use data-text="&#x2032;" xlink:href="#font_4_1" transform="matrix(5.9779589,0,0,-5.9778988,297.22868,86.59653)"/>
<path transform="matrix(1.00006,0,0,-1.00005,172.18518,171.88478)" stroke-width="1.19553" stroke-linecap="butt" stroke-miterlimit="10" stroke-linejoin="miter" fill="none" stroke="#000000" d="M56.69362 113.38724 28.3468 56.69362 85.04042 28.3468 113.38724 85.04042Z"/>
<path transform="matrix(1.00006,0,0,-1.00005,172.18518,171.88478)" stroke-width=".3985" stroke-linecap="butt" stroke-dasharray="2.98883,2.98883" stroke-miterlimit="10" stroke-linejoin="miter" fill="none" stroke="#000000" d="M-113.38724 113.38724H56.69362"/>
<path transform="matrix(1.00006,0,0,-1.00005,172.18518,171.88478)" stroke-width=".3985" stroke-linecap="butt" stroke-dasharray="2.98883,2.98883" stroke-miterlimit="10" stroke-linejoin="miter" fill="none" stroke="#000000" d="M-141.73404 56.69362H28.3468"/>
<path transform="matrix(1.00006,0,0,-1.00005,172.18518,171.88478)" stroke-width=".3985" stroke-linecap="butt" stroke-dasharray="2.98883,2.98883" stroke-miterlimit="10" stroke-linejoin="miter" fill="none" stroke="#000000" d="M-85.04042 28.3468H85.04042"/>
<path transform="matrix(1.00006,0,0,-1.00005,172.18518,171.88478)" stroke-width=".3985" stroke-linecap="butt" stroke-dasharray="2.98883,2.98883" stroke-miterlimit="10" stroke-linejoin="miter" fill="none" stroke="#000000" d="M-56.69362 85.04042H113.38724"/>
<path transform="matrix(1.00006,0,0,-1.00005,172.18518,171.88478)" stroke-width=".3985" stroke-linecap="butt" stroke-dasharray="2.98883,2.98883" stroke-miterlimit="10" stroke-linejoin="miter" fill="none" stroke="#000000" d="M-113.38724 113.38724H-35.3207"/>
<path transform="matrix(1.00006,0,0,-1.00005,136.86237,58.491884)" d="M6.15236 0C5.39682 .18257 2.07571 1.21715 0 2.34303V-2.34303C2.07571-1.21715 5.39682-.18257 6.15236 0Z"/>
<path transform="matrix(1.00006,0,0,-1.00005,136.86237,58.491884)" stroke-width=".3985" stroke-linecap="butt" stroke-miterlimit="10" stroke-linejoin="miter" fill="none" stroke="#000000" d="M6.15236 0C5.39682 .18257 2.07571 1.21715 0 2.34303V-2.34303C2.07571-1.21715 5.39682-.18257 6.15236 0Z"/>
<path transform="matrix(1.00006,0,0,-1.00005,172.18518,171.88478)" stroke-width=".3985" stroke-linecap="butt" stroke-dasharray="2.98883,2.98883" stroke-miterlimit="10" stroke-linejoin="miter" fill="none" stroke="#000000" d="M-141.73404 56.69362H-35.3207"/>
<path transform="matrix(1.00006,0,0,-1.00005,136.86237,115.18833)" d="M6.15236 0C5.39682 .18257 2.07571 1.21715 0 2.34303V-2.34303C2.07571-1.21715 5.39682-.18257 6.15236 0Z"/>
<path transform="matrix(1.00006,0,0,-1.00005,136.86237,115.18833)" stroke-width=".3985" stroke-linecap="butt" stroke-miterlimit="10" stroke-linejoin="miter" fill="none" stroke="#000000" d="M6.15236 0C5.39682 .18257 2.07571 1.21715 0 2.34303V-2.34303C2.07571-1.21715 5.39682-.18257 6.15236 0Z"/>
<path transform="matrix(1.00006,0,0,-1.00005,172.18518,171.88478)" stroke-width=".3985" stroke-linecap="butt" stroke-dasharray="2.98883,2.98883" stroke-miterlimit="10" stroke-linejoin="miter" fill="none" stroke="#000000" d="M-85.04042 28.3468H-6.97389"/>
<path transform="matrix(1.00006,0,0,-1.00005,165.21088,143.53656)" d="M6.15236 0C5.39682 .18257 2.07571 1.21715 0 2.34303V-2.34303C2.07571-1.21715 5.39682-.18257 6.15236 0Z"/>
<path transform="matrix(1.00006,0,0,-1.00005,165.21088,143.53656)" stroke-width=".3985" stroke-linecap="butt" stroke-miterlimit="10" stroke-linejoin="miter" fill="none" stroke="#000000" d="M6.15236 0C5.39682 .18257 2.07571 1.21715 0 2.34303V-2.34303C2.07571-1.21715 5.39682-.18257 6.15236 0Z"/>
<path transform="matrix(1.00006,0,0,-1.00005,172.18518,171.88478)" stroke-width=".3985" stroke-linecap="butt" stroke-dasharray="2.98883,2.98883" stroke-miterlimit="10" stroke-linejoin="miter" fill="none" stroke="#000000" d="M-56.69362 85.04042H21.37291"/>
<path transform="matrix(1.00006,0,0,-1.00005,193.55937,86.84011)" d="M6.15236 0C5.39682 .18257 2.07571 1.21715 0 2.34303V-2.34303C2.07571-1.21715 5.39682-.18257 6.15236 0Z"/>
<path transform="matrix(1.00006,0,0,-1.00005,193.55937,86.84011)" stroke-width=".3985" stroke-linecap="butt" stroke-miterlimit="10" stroke-linejoin="miter" fill="none" stroke="#000000" d="M6.15236 0C5.39682 .18257 2.07571 1.21715 0 2.34303V-2.34303C2.07571-1.21715 5.39682-.18257 6.15236 0Z"/>
</svg>
