<svg xmlns="http://www.w3.org/2000/svg" xmlns:xlink="http://www.w3.org/1999/xlink" xmlns:inkscape="http://www.inkscape.org/namespaces/inkscape" version="1.1" width="96" height="129" viewBox="0 0 96 129">
<defs>
<path id="font_1_34" d="M.69200137 .18299866C.69200137 .2639923 .61499026 .34298707 .48999024 .35699464 .598999 .379776 .6619873 .44573976 .6619873 .51368716 .6619873 .6026306 .56199648 .6826172 .42799378 .6826172H.04798889V.6496124H.069992069C.14698792 .6496124 .14898682 .63861086 .14898682 .6016388V.080963138C.14898682 .04399109 .14698792 .032989503 .069992069 .032989503H.04798889V0H.45599366C.59399417-.00018310547 .69200137 .08781433 .69200137 .18281555V.18299866M.5649872 .5137024C.5649872 .445755 .5049896 .3688202 .3909912 .3688202H.23399353V.6086426C.23399353 .64260867 .23599243 .6496124 .28199769 .6496124H.42099C.519989 .6498108 .5649872 .57281497 .5649872 .5138092V.5137024M.59098818 .18389893C.59098818 .10295105 .5239868 .032989503 .42199708 .032989503H.28199769C.23599243 .032989503 .23399353 .039993287 .23399353 .07397461V.3408203H.43699647C.5339966 .34098817 .59098818 .2630005 .59098818 .18399048V.18389893Z"/>
<path id="font_1_67" d="M.48799134 .6496124V.6826172C.43699647 .6796112 .40899659 .6796112 .35299684 .6796112 .30899049 .6796112 .23298645 .6796112 .19198609 .6826172V.6496124H.22599793C.31999208 .6496124 .32299806 .63760378 .32299806 .6006012V.14859009C.32299806 .05657959 .2689972 .006515503 .21598816 .006515503 .17298889 .006515503 .1269989 .026535035 .10398865 .05758667 .13198853 .05859375 .1619873 .07559204 .1619873 .113586429 .1619873 .14859009 .1349945 .1685791 .10699463 .1685791 .085998538 .1685791 .051986696 .15458679 .051986696 .111587528 .051986696 .03755188 .125-.021484375 .21899414-.021484375 .31098939-.021484375 .4119873 .03855896 .4119873 .14859009V.60461428C.4119873 .6496124 .42399598 .6496124 .48799134 .6496124Z"/>
<path id="font_1_97" d="M.5299988 .18458557C.5299988 .2716217 .47299195 .36065675 .37098695 .38467408L.23298645 .416687C.16899109 .4316864 .12199402 .4827118 .12199402 .5437927 .12199402 .61094668 .17999268 .6740875 .2669983 .6740875 .43998719 .6740875 .46299745 .51171877 .46798707 .4737091 .46998597 .46270753 .47099305 .45570375 .48399354 .45570375 .5 .45570375 .5 .46270753 .5 .4817047V.6781006C.5 .6940918 .5 .70410159 .4869995 .70410159 .47898866 .70410159 .47698976 .7010956 .46998597 .690094L.43499757 .6340027C.3849945 .6890869 .32099916 .70410159 .2659912 .70410159 .14698792 .70410159 .05899048 .61395266 .05899048 .51171877 .05899048 .43569947 .101989749 .39367677 .12098694 .3746643 .15699768 .33865357 .18998719 .3306427 .2979889 .30563355 .38398744 .28562928 .39898683 .2826233 .43199159 .24760437 .44198609 .23660279 .46699525 .20259094 .46699525 .15356446 .46699525 .08453369 .4139862 .011505127 .31999208 .011505127 .20999146 .011505127 .09599304 .06452942 .08999634 .20359802 .08898926 .21960449 .08898926 .22660828 .07499695 .22660828 .05899048 .22660828 .05899048 .21859741 .05899048 .19958496V.004501343C.05899048-.011489868 .05899048-.021484375 .07199097-.021484375 .07998657-.021484375 .08099365-.019485474 .08799744-.009490967 .09199524-.0034942628 .09599304 .005508423 .12399292 .047531129 .18699646-.0084991459 .26098634-.021484375 .32099916-.021484375 .44599916-.021484375 .5299988 .07752991 .5299988 .18458557Z"/>
<path id="font_2_1" d="M.397995 .63591006C.397995 .6660156 .394989 .6660156 .3619995 .6660156 .29100038 .6016083 .17999268 .6016083 .1599884 .6016083H.14299011V.5576172H.1599884C.18299866 .5576172 .24798584 .5606079 .30599977 .58561709V.08596802C.30599977 .054977418 .30599977 .04399109 .19999695 .04399109H.1499939V0C.20498657 .0039978029 .2939911 .0039978029 .35198976 .0039978029 .4099884 .0039978029 .49899293 .0039978029 .55400088 0V.04399109H.5039978C.397995 .04399109 .397995 .054977418 .397995 .08596802V.63591006Z"/>
<path id="font_2_3" d="M.32998658 .3310547C.42199708 .3310547 .48298646 .2737732 .48298646 .17437744 .48298646 .07237244 .41999818 .01852417 .33099366 .01852417 .31999208 .01852417 .20098877 .01852417 .1499939 .070373538 .19099427 .07637024 .20298767 .1073761 .20298767 .13137818 .20298767 .16838074 .1749878 .19238281 .14199829 .19238281 .10998535 .19238281 .07998657 .17137146 .07998657 .12937927 .07998657 .025512696 .19799805-.022460938 .33399964-.022460938 .49798585-.022460938 .59999087 .07637024 .59999087 .17337036 .59999087 .25567628 .5269928 .3260193 .41299439 .35205079 .5329895 .3909912 .5649872 .46684266 .5649872 .5228424 .5649872 .60491946 .46299745 .6660156 .33699037 .6660156 .21398926 .6660156 .114990238 .61395266 .114990238 .5238342 .114990238 .47683717 .15299988 .46484376 .17199707 .46484376 .20098877 .46484376 .22898865 .48583985 .22898865 .5218353 .22898865 .5448303 .21699524 .5728302 .18099976 .57884219 .22399903 .625 .31298829 .628006 .33399964 .628006 .40699769 .628006 .45899964 .5908661 .45899964 .5228424 .45899964 .46484376 .42099 .37402345 .31599427 .368042 .28799439 .3670349 .28399659 .3660431 .2579956 .365036 .24699402 .3640442 .23599243 .36305238 .23599243 .34805299 .23599243 .3310547 .24598694 .3310547 .2639923 .3310547H.32998658Z"/>
<path id="font_1_27" d="M.7589874 0V.032989503H.74198916C.67900088 .032989503 .6689911 .04197693 .6569977 .07392883L.4229889 .69184878C.41799928 .7048645 .4149933 .7138672 .397995 .7138672 .37998963 .7138672 .3769989 .7058563 .37199403 .69184878L.14898682 .102890018C.13899231 .075927738 .117996219 .032989503 .035995485 .032989503V0C.067993167 .0029907227 .12098694 .0029907227 .13899231 .0029907227 .17098999 .0029907227 .20098877 .0029907227 .25 0V.032989503C.20599365 .033996583 .17999268 .053955079 .17999268 .08291626 .17999268 .089904788 .17999268 .09190369 .18499756 .103897098L.23199463 .22871399H.5039978L.55999758 .08091736C.5649872 .06893921 .5649872 .062942508 .5649872 .062942508 .5649872 .032989503 .5130005 .032989503 .4850006 .032989503V0L.6269989 .0029907227C.68299868 .0029907227 .70098879 .0029907227 .7589874 0M.4909973 .26171876H.24398804L.36799623 .5888214 .4909973 .26171876Z"/>
<path id="font_1_42" d="M.70700076 .23370362C.70700076 .24371338 .70700076 .25273133 .69099429 .25273133 .6799927 .25273133 .6769867 .24772644 .6759949 .23771668 .66799929 .08357239 .5439911 .011505127 .43798829 .011505127 .35299684 .011505127 .16299439 .06355286 .16299439 .34179688 .16299439 .6110382 .34298707 .6710968 .43798829 .6710968 .5319977 .6710968 .647995 .6040344 .673996 .43188478 .6749878 .4238739 .6759949 .41687013 .6899872 .41687013 .70700076 .41687013 .70700076 .4238739 .70700076 .4429016V.6781006C.70700076 .6940918 .70700076 .70410159 .69400027 .70410159 .68699648 .70410159 .6859894 .7030945 .6769867 .690094L.6259918 .6160431C.58999636 .65509036 .5239868 .70410159 .42799378 .70410159 .22698975 .70410159 .05899048 .542984 .05899048 .34179688 .05899048 .13961792 .22599793-.021484375 .42900086-.021484375 .5970001-.021484375 .70700076 .11160278 .70700076 .23370362Z"/>
<path id="font_1_63" d="M.56199648 0V.032989503C.49798585 .032989503 .48599244 .032989503 .48599244 .07814026V.30371095C.48599244 .38746644 .44799806 .44140626 .34298707 .44140626 .25498963 .44140626 .20899964 .3854828 .19099427 .3535614H.18998719V.69433596L.040985109 .6826172V.6496124C.10899353 .6496124 .116989139 .64263918 .116989139 .5938263V.07814026C.116989139 .032989503 .10499573 .032989503 .040985109 .032989503V0C.083999637 .0029907227 .12799073 .0029907227 .15499878 .0029907227 .18399048 .0029907227 .22599793 .0029907227 .2689972 0V.032989503C.20498657 .032989503 .19299317 .032989503 .19299317 .07814026V.2597046C.19299317 .36453248 .272995 .4133911 .33399964 .4133911 .394989 .4133911 .4099884 .37051393 .4099884 .30769349V.07814026C.4099884 .032989503 .397995 .032989503 .33399964 .032989503V0C.3769989 .0029907227 .42099 .0029907227 .44799806 .0029907227 .47698976 .0029907227 .5189972 .0029907227 .56199648 0Z"/>
<path id="font_2_2" d="M.58898928 .19296265H.5469971C.5439911 .17396546 .5339966 .11198425 .5179901 .101989749 .5099945 .09599304 .42599488 .09599304 .41099549 .09599304H.21499634C.2809906 .14497376 .35499574 .20095825 .4149933 .24093628 .5049896 .30291749 .58898928 .36090089 .58898928 .46687318 .58898928 .59495547 .46798707 .6660156 .32499696 .6660156 .18998719 .6660156 .09098816 .58795168 .09098816 .48986817 .09098816 .4378662 .1349945 .42886354 .14898682 .42886354 .17599488 .42886354 .20799256 .4468689 .20799256 .48786927 .20799256 .52386477 .18199158 .543869 .15098572 .546875 .1789856 .59194949 .23699951 .6220093 .3039856 .6220093 .40098573 .6220093 .48199464 .5639038 .48199464 .4658661 .48199464 .3818817 .42399598 .31791688 .34700013 .2529297L.102996829 .04598999C.09298706 .036987306 .09199524 .036987306 .09098816 .02999878V0H.55599978L.58898928 .19296265Z"/>
</defs>
<path transform="matrix(1.00003,0,0,-1.00009,5.1135866,64.66747)" stroke-width=".79701" stroke-linecap="butt" stroke-miterlimit="10" stroke-linejoin="miter" fill="none" stroke="#000000" d="M2.81807 0C2.81807 1.55638 1.55638 2.81807 0 2.81807-1.55638 2.81807-2.81807 1.55638-2.81807 0-2.81807-1.55638-1.55638-2.81807 0-2.81807 1.55638-2.81807 2.81807-1.55638 2.81807 0ZM0 0"/>
<path transform="matrix(1.00003,0,0,-1.00009,5.1135866,64.66747)" stroke-width=".3985" stroke-linecap="butt" stroke-miterlimit="10" stroke-linejoin="miter" fill="none" stroke="#000000" d="M40.88321-46.77246C40.88321-42.97993 37.80882-39.90555 34.0163-39.90555 30.22375-39.90555 27.14937-42.97993 27.14937-46.77246 27.14937-50.565 30.22375-53.63939 34.0163-53.63939 37.80882-53.63939 40.88321-50.565 40.88321-46.77246ZM34.0163-46.77246"/>
<use data-text="B" xlink:href="#font_1_34" transform="matrix(7.9703395,0,0,-7.970817,36.13352,114.165927)"/>
<path transform="matrix(1.00003,0,0,-1.00009,5.1135866,64.66747)" stroke-width=".79701" stroke-linecap="butt" stroke-miterlimit="10" stroke-linejoin="miter" fill="none" stroke="#000000" d="M1.89525-2.60602 29.86076-41.05846"/>
<path transform="matrix(1.00003,0,0,-1.00009,5.1135866,64.66747)" stroke-width=".79701" stroke-linecap="butt" stroke-miterlimit="10" stroke-linejoin="miter" fill="none" stroke="#000000" d="M88.53731-55.98529C88.53731-52.48856 85.70271-49.65398 82.20598-49.65398 78.70926-49.65398 75.87466-52.48856 75.87466-55.98529 75.87466-59.48203 78.70926-62.3166 82.20598-62.3166 85.70271-62.3166 88.53731-59.48203 88.53731-55.98529ZM82.20598-55.98529"/>
<use data-text="J" xlink:href="#font_1_67" transform="matrix(7.9703395,0,0,-7.970817,85.14599,123.295749)"/>
<path transform="matrix(1.00003,0,0,-1.00009,5.1135866,64.66747)" stroke-width=".79701" stroke-linecap="butt" stroke-miterlimit="10" stroke-linejoin="miter" fill="none" stroke="#000000" d="M40.9594-48.10188 75.79097-54.76099"/>
<path transform="matrix(1.00003,0,0,-1.00009,5.1135866,64.66747)" stroke-width=".79701" stroke-linecap="butt" stroke-miterlimit="10" stroke-linejoin="miter" fill="none" stroke="#000000" d="M88.74892-37.55957C88.74892-33.94597 85.81958-31.01663 82.20598-31.01663 78.59238-31.01663 75.66306-33.94597 75.66306-37.55957 75.66306-41.17317 78.59238-44.1025 82.20598-44.1025 85.81958-44.1025 88.74892-41.17317 88.74892-37.55957ZM82.20598-37.55957"/>
<use data-text="S" xlink:href="#font_1_97" transform="matrix(7.9703395,0,0,-7.970817,84.970989,104.952098)"/>
<path transform="matrix(1.00003,0,0,-1.00009,5.1135866,64.66747)" stroke-width=".79701" stroke-linecap="butt" stroke-miterlimit="10" stroke-linejoin="miter" fill="none" stroke="#000000" d="M40.9593-45.44295 75.58316-38.82361"/>
<use data-text="1" xlink:href="#font_2_1" transform="matrix(4.9814498,0,0,-4.981748,19.297013,92.10394)"/>
<path transform="matrix(1.00003,0,0,-1.00009,-68.01461,45.103715)" stroke-width=".3387" stroke-linecap="butt" stroke-miterlimit="10" stroke-linejoin="miter" fill="none" stroke="#000000" d="M87.309-47.929H90.699"/>
<use data-text="3" xlink:href="#font_2_3" transform="matrix(4.9814498,0,0,-4.981748,19.297013,97.181407)"/>
<path transform="matrix(1.00003,0,0,-1.00009,5.1135866,64.66747)" stroke-width=".3985" stroke-linecap="butt" stroke-miterlimit="10" stroke-linejoin="miter" fill="none" stroke="#000000" d="M41.08655 .00003C41.08655 3.90488 37.92113 7.0703 34.0163 7.0703 30.11145 7.0703 26.94603 3.90488 26.94603 .00003 26.94603-3.90479 30.11145-7.0702 34.0163-7.0702 37.92113-7.0702 41.08655-3.90479 41.08655 .00003ZM34.0163 .00003"/>
<use data-text="A" xlink:href="#font_1_27" transform="matrix(7.9703395,0,0,-7.970817,35.95851,67.512729)"/>
<path transform="matrix(1.00003,0,0,-1.00009,5.1135866,64.66747)" stroke-width=".79701" stroke-linecap="butt" stroke-miterlimit="10" stroke-linejoin="miter" fill="none" stroke="#000000" d="M3.21986 .00002 26.74756 .00003"/>
<path transform="matrix(1.00003,0,0,-1.00009,5.1135866,64.66747)" stroke-width=".79701" stroke-linecap="butt" stroke-miterlimit="10" stroke-linejoin="miter" fill="none" stroke="#000000" d="M88.53731-9.21277C88.53731-5.71605 85.70271-2.88145 82.20598-2.88145 78.70926-2.88145 75.87466-5.71605 75.87466-9.21277 75.87466-12.7095 78.70926-15.5441 82.20598-15.5441 85.70271-15.5441 88.53731-12.7095 88.53731-9.21277ZM82.20598-9.21277"/>
<use data-text="J" xlink:href="#font_1_67" transform="matrix(7.9703395,0,0,-7.970817,85.14599,76.51954)"/>
<path transform="matrix(1.00003,0,0,-1.00009,5.1135866,64.66747)" stroke-width=".79701" stroke-linecap="butt" stroke-miterlimit="10" stroke-linejoin="miter" fill="none" stroke="#000000" d="M41.1591-1.36754 75.79097-7.98845"/>
<path transform="matrix(1.00003,0,0,-1.00009,5.1135866,64.66747)" stroke-width=".79701" stroke-linecap="butt" stroke-miterlimit="10" stroke-linejoin="miter" fill="none" stroke="#000000" d="M88.74892 9.21294C88.74892 12.82654 85.81958 15.75587 82.20598 15.75587 78.59238 15.75587 75.66306 12.82654 75.66306 9.21294 75.66306 5.59933 78.59238 2.67001 82.20598 2.67001 85.81958 2.67001 88.74892 5.59933 88.74892 9.21294ZM82.20598 9.21294"/>
<use data-text="S" xlink:href="#font_1_97" transform="matrix(7.9703395,0,0,-7.970817,84.970989,58.175889)"/>
<path transform="matrix(1.00003,0,0,-1.00009,5.1135866,64.66747)" stroke-width=".79701" stroke-linecap="butt" stroke-miterlimit="10" stroke-linejoin="miter" fill="none" stroke="#000000" d="M41.159 1.36775 75.58316 7.9489"/>
<use data-text="1" xlink:href="#font_2_1" transform="matrix(4.9814498,0,0,-4.981748,18.402985,57.1978)"/>
<path transform="matrix(1.00003,0,0,-1.00009,-68.90864,10.197571)" stroke-width=".3387" stroke-linecap="butt" stroke-miterlimit="10" stroke-linejoin="miter" fill="none" stroke="#000000" d="M87.309-47.929H90.699"/>
<use data-text="3" xlink:href="#font_2_3" transform="matrix(4.9814498,0,0,-4.981748,18.402985,62.27526)"/>
<path transform="matrix(1.00003,0,0,-1.00009,5.1135866,64.66747)" stroke-width=".3985" stroke-linecap="butt" stroke-miterlimit="10" stroke-linejoin="miter" fill="none" stroke="#000000" d="M42.86894 46.77254C42.86894 51.66179 38.90553 55.6252 34.0163 55.6252 29.12704 55.6252 25.16364 51.66179 25.16364 46.77254 25.16364 41.8833 29.12704 37.91988 34.0163 37.91988 38.90553 37.91988 42.86894 41.8833 42.86894 46.77254ZM34.0163 46.77254"/>
<use data-text="C" xlink:href="#font_1_42" transform="matrix(7.9703395,0,0,-7.970817,33.722448,20.61251)"/>
<use data-text="h" xlink:href="#font_1_63" transform="matrix(7.9703395,0,0,-7.970817,39.835699,20.61251)"/>
<path transform="matrix(1.00003,0,0,-1.00009,5.1135866,64.66747)" stroke-width=".79701" stroke-linecap="butt" stroke-miterlimit="10" stroke-linejoin="miter" fill="none" stroke="#000000" d="M1.89525 2.60602 28.69298 39.45277"/>
<path transform="matrix(1.00003,0,0,-1.00009,5.1135866,64.66747)" stroke-width=".79701" stroke-linecap="butt" stroke-miterlimit="10" stroke-linejoin="miter" fill="none" stroke="#000000" d="M88.53731 37.55972C88.53731 41.05644 85.70271 43.89104 82.20598 43.89104 78.70926 43.89104 75.87466 41.05644 75.87466 37.55972 75.87466 34.06299 78.70926 31.2284 82.20598 31.2284 85.70271 31.2284 88.53731 34.06299 88.53731 37.55972ZM82.20598 37.55972"/>
<use data-text="J" xlink:href="#font_1_67" transform="matrix(7.9703395,0,0,-7.970817,85.14599,29.742329)"/>
<path transform="matrix(1.00003,0,0,-1.00009,5.1135866,64.66747)" stroke-width=".79701" stroke-linecap="butt" stroke-miterlimit="10" stroke-linejoin="miter" fill="none" stroke="#000000" d="M42.90955 45.07022 75.79097 38.78403"/>
<path transform="matrix(1.00003,0,0,-1.00009,5.1135866,64.66747)" stroke-width=".79701" stroke-linecap="butt" stroke-miterlimit="10" stroke-linejoin="miter" fill="none" stroke="#000000" d="M88.74892 55.98544C88.74892 59.59904 85.81958 62.52838 82.20598 62.52838 78.59238 62.52838 75.66306 59.59904 75.66306 55.98544 75.66306 52.37184 78.59238 49.4425 82.20598 49.4425 85.81958 49.4425 88.74892 52.37184 88.74892 55.98544ZM82.20598 55.98544"/>
<use data-text="S" xlink:href="#font_1_97" transform="matrix(7.9703395,0,0,-7.970817,84.970989,11.398678)"/>
<path transform="matrix(1.00003,0,0,-1.00009,5.1135866,64.66747)" stroke-width=".79701" stroke-linecap="butt" stroke-miterlimit="10" stroke-linejoin="miter" fill="none" stroke="#000000" d="M42.90941 48.47498 75.58316 54.7214"/>
<use data-text="1" xlink:href="#font_2_1" transform="matrix(4.9814498,0,0,-4.981748,18.713997,36.16691)"/>
<path transform="matrix(1.00003,0,0,-1.00009,-68.597629,-10.833321)" stroke-width=".3387" stroke-linecap="butt" stroke-miterlimit="10" stroke-linejoin="miter" fill="none" stroke="#000000" d="M87.309-47.929H90.699"/>
<use data-text="3" xlink:href="#font_2_3" transform="matrix(4.9814498,0,0,-4.981748,18.713997,41.24437)"/>
<use data-text="1" xlink:href="#font_2_1" transform="matrix(4.9814498,0,0,-4.981748,61.788293,121.49759)"/>
<path transform="matrix(1.00003,0,0,-1.00009,-25.52333,74.49736)" stroke-width=".3387" stroke-linecap="butt" stroke-miterlimit="10" stroke-linejoin="miter" fill="none" stroke="#000000" d="M87.309-47.929H90.699"/>
<use data-text="2" xlink:href="#font_2_2" transform="matrix(4.9814498,0,0,-4.981748,61.788293,126.57505)"/>
<use data-text="1" xlink:href="#font_2_1" transform="matrix(4.9814498,0,0,-4.981748,61.684289,99.53161)"/>
<path transform="matrix(1.00003,0,0,-1.00009,-25.627335,52.53138)" stroke-width=".3387" stroke-linecap="butt" stroke-miterlimit="10" stroke-linejoin="miter" fill="none" stroke="#000000" d="M87.309-47.929H90.699"/>
<use data-text="2" xlink:href="#font_2_2" transform="matrix(4.9814498,0,0,-4.981748,61.684289,104.60907)"/>
<use data-text="1" xlink:href="#font_2_1" transform="matrix(4.9814498,0,0,-4.981748,61.888296,74.74638)"/>
<path transform="matrix(1.00003,0,0,-1.00009,-25.423329,27.746151)" stroke-width=".3387" stroke-linecap="butt" stroke-miterlimit="10" stroke-linejoin="miter" fill="none" stroke="#000000" d="M87.309-47.929H90.699"/>
<use data-text="2" xlink:href="#font_2_2" transform="matrix(4.9814498,0,0,-4.981748,61.888296,79.82384)"/>
<use data-text="1" xlink:href="#font_2_1" transform="matrix(4.9814498,0,0,-4.981748,61.78429,52.741399)"/>
<path transform="matrix(1.00003,0,0,-1.00009,-25.527333,5.741169)" stroke-width=".3387" stroke-linecap="butt" stroke-miterlimit="10" stroke-linejoin="miter" fill="none" stroke="#000000" d="M87.309-47.929H90.699"/>
<use data-text="2" xlink:href="#font_2_2" transform="matrix(4.9814498,0,0,-4.981748,61.78429,57.81886)"/>
<use data-text="1" xlink:href="#font_2_1" transform="matrix(4.9814498,0,0,-4.981748,62.76332,28.142182)"/>
<path transform="matrix(1.00003,0,0,-1.00009,-24.548302,-18.858048)" stroke-width=".3387" stroke-linecap="butt" stroke-miterlimit="10" stroke-linejoin="miter" fill="none" stroke="#000000" d="M87.309-47.929H90.699"/>
<use data-text="2" xlink:href="#font_2_2" transform="matrix(4.9814498,0,0,-4.981748,62.76332,33.219644)"/>
<use data-text="1" xlink:href="#font_2_1" transform="matrix(4.9814498,0,0,-4.981748,62.660318,5.803173)"/>
<path transform="matrix(1.00003,0,0,-1.00009,-24.651307,-41.197057)" stroke-width=".3387" stroke-linecap="butt" stroke-miterlimit="10" stroke-linejoin="miter" fill="none" stroke="#000000" d="M87.309-47.929H90.699"/>
<use data-text="2" xlink:href="#font_2_2" transform="matrix(4.9814498,0,0,-4.981748,62.660318,10.880634)"/>
</svg>
