<svg xmlns="http://www.w3.org/2000/svg" xmlns:xlink="http://www.w3.org/1999/xlink" xmlns:inkscape="http://www.inkscape.org/namespaces/inkscape" version="1.1" width="169" height="258" viewBox="0 0 169 258">
<defs>
<path id="font_1_97" d="M.4889984 .18367005C.4889984 .24472046 .46598817 .28974916 .43899537 .32278443 .4019928 .36782838 .35699464 .37882997 .31799317 .38883973L.20799256 .41687013C.15699768 .42988587 .11199951 .47991944 .11199951 .54397585 .11199951 .6140442 .16799927 .6770935 .24598694 .6770935 .4099884 .6770935 .43199159 .5149536 .43798829 .47192384 .43998719 .4598999 .43998719 .4559021 .44999696 .4559021 .46099855 .4559021 .46099855 .46090699 .46099855 .4789276V.6810913C.46099855 .6990967 .46099855 .70410159 .45098878 .70410159 .44799806 .70410159 .44400025 .70410159 .43699647 .6911011L.4039917 .63005068C.35598756 .6920929 .2899933 .70410159 .24598694 .70410159 .1349945 .70410159 .053985597 .615036 .053985597 .5129547 .053985597 .4649048 .070999149 .42086793 .10798645 .38084413 .14299011 .34179688 .17799378 .3327942 .24899292 .31477357 .28399659 .30677796 .33898927 .29275514 .35299684 .28675843 .3999939 .2637329 .43099977 .20968628 .43099977 .15364075 .43099977 .078567508 .37799073 .007507324 .29499818 .007507324 .25 .007507324 .18798828 .01852417 .13899231 .061553956 .08099365 .113601688 .07699585 .18566895 .07598877 .21868897 .07499695 .22669983 .06498718 .22669983 .06498718 .22669983 .053985597 .22669983 .053985597 .22169495 .053985597 .20367432V.0015106201C.053985597-.016494751 .053985597-.021484375 .06399536-.021484375 .069992069-.021484375 .070999149-.019485474 .07798767-.0074920656L.11099243 .05255127C.14698792 .012512207 .20999146-.021484375 .29599-.021484375 .4079895-.021484375 .4889984 .07356262 .4889984 .18367005Z"/>
<path id="font_1_105" d="M.32598878 .124069217V.1809845H.3039856V.12606812C.3039856 .0541687 .2749939 .01222229 .23599243 .01222229 .16799927 .01222229 .16799927 .10508728 .16799927 .12207031V.4016571H.30899049V.43066407H.16799927V.6142578H.1459961C.14498902 .52046206 .10899353 .4246521 .017990113 .42166139V.4016571H.102996829V.124069217C.102996829 .01322937 .1769867-.009765625 .22999573-.009765625 .29299928-.009765625 .32598878 .0521698 .32598878 .124069217Z"/>
<path id="font_1_28" d="M.47399903 .08912659V.14515686H.45199586V.08912659C.45199586 .03211975 .42799378 .024108887 .4139862 .024108887 .37599183 .024108887 .37599183 .07713318 .37599183 .09213257V.26719667C.37599183 .3211975 .37599183 .36120606 .33198548 .40023805 .29699708 .43226625 .2519989 .44628907 .20799256 .44628907 .12599182 .44628907 .06298828 .39222718 .06298828 .32720948 .06298828 .2982025 .08198547 .2842102 .10499573 .2842102 .1289978 .2842102 .1459961 .3012085 .1459961 .32521058 .1459961 .36621095 .10998535 .36621095 .09498596 .36621095 .117996219 .4082489 .1659851 .42625428 .20599365 .42625428 .2519989 .42625428 .31098939 .38822938 .31098939 .2982025V.25819398C.10998535 .255188 .033996583 .17115784 .033996583 .09413147 .033996583 .0152282719 .12599182-.009765625 .18699646-.009765625 .25299073-.009765625 .2979889 .030227662 .31698609 .07823181 .32099916 .03111267 .35198976-.0048828127 .394989-.0048828127 .41600038-.0048828127 .47399903 .009109497 .47399903 .089141849V.08912659M.31098939 .14117432C.31098939 .043121339 .23799134 .010116577 .19499207 .010116577 .1459961 .010116577 .10499573 .04612732 .10499573 .09414673 .10499573 .22621155 .2749939 .23822022 .31098939 .24023438V.14117432Z"/>
<path id="font_1_96" d="M.35299684 .38339234C.35299684 .4133911 .32598878 .44140626 .2829895 .44140626 .19799805 .44140626 .16899109 .34939576 .16299439 .33039857H.1619873V.44140626L.027999878 .4303589V.4013672C.09599304 .4013672 .10398865 .39434815 .10398865 .3453064V.074035648C.10398865 .0289917 .09298706 .0289917 .027999878 .0289917V0C.055999757 .0019989014 .11099243 .0019989014 .14099121 .0019989014 .16799927 .0019989014 .23899842 .0019989014 .2619934 0V.0289917H.24198914C.16899109 .02973938 .16699219 .040740968 .16699219 .07673645V.23374939C.16699219 .3307495 .20698548 .42173768 .28399659 .42173768 .2919922 .42173768 .2939911 .42173768 .2979889 .42074586 .2899933 .41674806 .27398683 .41073609 .27398683 .3837433 .27398683 .35473634 .29699708 .34375 .31298829 .34375 .33299256 .34375 .35299684 .35673524 .35299684 .3837433V.38339234Z"/>
<path id="font_1_62" d="M.69200137 0V.0289917H.6719971C.59999087 .0289917 .5970001 .038986207 .5970001 .07595825V.6066437C.5970001 .6436157 .59999087 .6536102 .6719971 .6536102H.69200137V.6826172C.66799929 .680603 .58599856 .680603 .5569916 .680603 .5269928 .680603 .44499208 .680603 .42099 .6826172V.6536102H.44099427C.5130005 .6536102 .5159912 .6436157 .5159912 .6066437V.369812H.21699524V.6066437C.21699524 .6436157 .21998596 .6536102 .2919922 .6536102H.31199647V.6826172C.28799439 .680603 .20599365 .680603 .1769867 .680603 .14698792 .680603 .06498718 .680603 .040985109 .6826172V.6536102H.06098938C.1329956 .6536102 .13598633 .6436157 .13598633 .6066437V.07595825C.13598633 .038986207 .1329956 .0289917 .06098938 .0289917H.040985109V0C.06498718 .0019989014 .14698792 .0019989014 .17599488 .0019989014 .20599365 .0019989014 .28799439 .0019989014 .31199647 0V.0289917H.2919922C.21998596 .0289917 .21699524 .038986207 .21699524 .07595825V.3408203H.5159912V.07595825C.5159912 .038986207 .5130005 .0289917 .44099427 .0289917H.42099V0C.44499208 .0019989014 .5269928 .0019989014 .55599978 .0019989014 .58599856 .0019989014 .66799929 .0019989014 .69200137 0Z"/>
<path id="font_1_104" d="M.67099 .45480348 .6529999 .6777344H.052993776L.034988405 .45480348H.056991579C.070999149 .6127472 .07998657 .6487274 .23799134 .6487274 .2559967 .6487274 .28399659 .6487274 .2919922 .6467285 .31199647 .64372256 .31298829 .6317291 .31298829 .6087494V.07696533C.31298829 .04298401 .31298829 .0289917 .21499634 .0289917H.1789856V0C.21099854 .0019989014 .31399537 .0019989014 .35299684 .0019989014 .3919983 .0019989014 .49598695 .0019989014 .5279999 0V.0289917H.49198915C.3939972 .0289917 .3939972 .04298401 .3939972 .07696533V.6087494C.3939972 .633728 .3959961 .6427307 .4119873 .6467285 .41999818 .6487274 .44898988 .6487274 .46798707 .6487274 .6259918 .6487274 .6349945 .6127472 .6489868 .45480348H.67099Z"/>
<path id="font_2_1" d="M.31399537 .63708499C.31399537 .664032 .31199647 .66503909 .2849884 .66503909 .24398804 .6251831 .19099427 .6013489 .09599304 .6013489V.5683594C.12298584 .5683594 .1769867 .5683594 .23498535 .5953522V.08203125C.23498535 .04499817 .23199463 .032989503 .13699341 .032989503H.101989749V0C.14299011 .0029907227 .22898865 .0029907227 .27398683 .0029907227 .31900025 .0029907227 .4059906 .0029907227 .44699098 0V.032989503H.4119873C.31698609 .032989503 .31399537 .04499817 .31399537 .08203125V.63708499Z"/>
<path id="font_2_2" d="M.28199769 .20405579C.2979889 .21907044 .33999635 .2520752 .35598756 .26608277 .41799928 .32312013 .47698976 .3781433 .47698976 .46917726 .47698976 .588089 .3769989 .66503909 .2519989 .66503909 .13198853 .66503909 .052993776 .57411196 .052993776 .48516847 .052993776 .4361725 .09199524 .4291687 .10598755 .4291687 .1269989 .4291687 .1579895 .4441681 .1579895 .48217774 .1579895 .5341797 .10798645 .5341797 .09599304 .5341797 .125 .6070709 .19198609 .6320343 .24099732 .6320343 .33399964 .6320343 .38198854 .55314639 .38198854 .46917726 .38198854 .36514283 .30899049 .28910829 .19099427 .16804505L.06498718 .037994386C.052993776 .026992798 .052993776 .024993897 .052993776 0H.44799806L.47698976 .17904663H.44599916C.44299317 .1590271 .43499757 .10900879 .4229889 .08999634 .4169922 .08198547 .34098817 .08198547 .32499696 .08198547H.14698792L.28199769 .20405579Z"/>
</defs>
<path transform="matrix(1.00008,0,0,-1.00005,19.879075,128.62563)" stroke-width=".79701" stroke-linecap="butt" stroke-miterlimit="10" stroke-linejoin="miter" fill="none" stroke="#000000" d="M17.58176 0C17.58176 9.71024 9.71024 17.58176 0 17.58176-9.71024 17.58176-17.58176 9.71024-17.58176 0-17.58176-9.71024-9.71024-17.58176 0-17.58176 9.71024-17.58176 17.58176-9.71024 17.58176 0ZM0 0"/>
<use data-text="S" xlink:href="#font_1_97" transform="matrix(11.956157,0,0,-11.955797,6.865036,132.70883)"/>
<use data-text="t" xlink:href="#font_1_105" transform="matrix(11.956157,0,0,-11.955797,13.369186,132.70883)"/>
<use data-text="a" xlink:href="#font_1_28" transform="matrix(11.956157,0,0,-11.955797,17.924485,132.70883)"/>
<use data-text="r" xlink:href="#font_1_96" transform="matrix(11.956157,0,0,-11.955797,23.782998,132.70883)"/>
<use data-text="t" xlink:href="#font_1_105" transform="matrix(11.956157,0,0,-11.955797,28.338295,132.70883)"/>
<path transform="matrix(1.00008,0,0,-1.00005,19.879075,128.62563)" stroke-width=".3985" stroke-linecap="butt" stroke-miterlimit="10" stroke-linejoin="miter" fill="none" stroke="#000000" d="M66.90085-56.69362C66.90085-51.05626 62.33098-46.48639 56.69363-46.48639 51.05627-46.48639 46.4864-51.05626 46.4864-56.69362 46.4864-62.33096 51.05627-66.90083 56.69363-66.90083 62.33098-66.90083 66.90085-62.33096 66.90085-56.69362ZM56.69363-56.69362"/>
<use data-text="H" xlink:href="#font_1_62" transform="matrix(11.956157,0,0,-11.955797,72.189258,189.40467)"/>
<path transform="matrix(1.00008,0,0,-1.00005,19.879075,128.62563)" stroke-width=".79701" stroke-linecap="butt" stroke-miterlimit="10" stroke-linejoin="miter" fill="none" stroke="#000000" d="M12.71397-12.71397 49.33514-49.33513"/>
<path transform="matrix(1.00008,0,0,-1.00005,19.879075,128.62563)" stroke-width=".79701" stroke-linecap="butt" stroke-miterlimit="10" stroke-linejoin="miter" fill="none" stroke="#000000" d="M127.0761-113.38724C127.0761-105.82701 120.94748-99.6984 113.38727-99.6984 105.82704-99.6984 99.69843-105.82701 99.69843-113.38724 99.69843-120.94745 105.82704-127.07607 113.38727-127.07607 120.94748-127.07607 127.0761-120.94745 127.0761-113.38724ZM113.38727-113.38724"/>
<use data-text="H" xlink:href="#font_1_62" transform="matrix(11.956157,0,0,-11.955797,124.49944,246.1015)"/>
<use data-text="H" xlink:href="#font_1_62" transform="matrix(11.956157,0,0,-11.955797,133.27527,246.1015)"/>
<path transform="matrix(1.00008,0,0,-1.00005,19.879075,128.62563)" stroke-width=".79701" stroke-linecap="butt" stroke-miterlimit="10" stroke-linejoin="miter" fill="none" stroke="#000000" d="M64.05211-64.0521 103.56691-103.56688"/>
<path transform="matrix(1.00008,0,0,-1.00005,19.879075,128.62563)" stroke-width=".79701" stroke-linecap="butt" stroke-miterlimit="10" stroke-linejoin="miter" fill="none" stroke="#000000" d="M129.78478 .04254C129.78478 7.53319 123.71257 13.60538 116.22192 13.60538 108.7313 13.60538 102.65909 7.53319 102.65909 .04254 102.65909-7.44807 108.7313-13.52028 116.22192-13.52028 123.71257-13.52028 129.78478-7.44807 129.78478 .04254ZM116.22192 .04254"/>
<use data-text="H" xlink:href="#font_1_62" transform="matrix(11.956157,0,0,-11.955797,127.49568,132.66584)"/>
<use data-text="T" xlink:href="#font_1_104" transform="matrix(11.956157,0,0,-11.955797,136.2715,132.66584)"/>
<path transform="matrix(1.00008,0,0,-1.00005,19.879075,128.62563)" stroke-width=".79701" stroke-linecap="butt" stroke-miterlimit="10" stroke-linejoin="miter" fill="none" stroke="#000000" d="M64.2263-49.51425 106.2603-9.45184"/>
<use data-text="1" xlink:href="#font_2_1" transform="matrix(7.9707376,0,0,-7.970498,48.788385,147.43457)"/>
<path transform="matrix(1.00008,0,0,-1.00005,-53.29178,39.504175)" stroke-width=".4782" stroke-linecap="butt" stroke-miterlimit="10" stroke-linejoin="miter" fill="none" stroke="#000000" d="M102.072-109.643H106.306"/>
<use data-text="2" xlink:href="#font_2_2" transform="matrix(7.9707376,0,0,-7.970498,48.788385,156.265)"/>
<path transform="matrix(1.00008,0,0,-1.00005,19.879075,128.62563)" stroke-width=".3985" stroke-linecap="butt" stroke-miterlimit="10" stroke-linejoin="miter" fill="none" stroke="#000000" d="M66.78677 56.69366C66.78677 62.268 62.26797 66.7868 56.69363 66.7868 51.11928 66.7868 46.60048 62.268 46.60048 56.69366 46.60048 51.11931 51.11928 46.60051 56.69363 46.60051 62.26797 46.60051 66.78677 51.11931 66.78677 56.69366ZM56.69363 56.69366"/>
<use data-text="T" xlink:href="#font_1_104" transform="matrix(11.956157,0,0,-11.955797,72.350269,75.981998)"/>
<path transform="matrix(1.00008,0,0,-1.00005,19.879075,128.62563)" stroke-width=".79701" stroke-linecap="butt" stroke-miterlimit="10" stroke-linejoin="miter" fill="none" stroke="#000000" d="M12.71397 12.71397 49.4158 49.41583"/>
<path transform="matrix(1.00008,0,0,-1.00005,19.879075,128.62563)" stroke-width=".79701" stroke-linecap="butt" stroke-miterlimit="10" stroke-linejoin="miter" fill="none" stroke="#000000" d="M146.79286 25.51216C146.79286 33.0028 140.72066 39.07501 133.23003 39.07501 125.73938 39.07501 119.66719 33.0028 119.66719 25.51216 119.66719 18.02153 125.73938 11.94933 133.23003 11.94933 140.72066 11.94933 146.79286 18.02153 146.79286 25.51216ZM133.23003 25.51216"/>
<use data-text="T" xlink:href="#font_1_104" transform="matrix(11.956157,0,0,-11.955797,144.50504,107.19556)"/>
<use data-text="H" xlink:href="#font_1_62" transform="matrix(11.956157,0,0,-11.955797,152.95804,107.19556)"/>
<path transform="matrix(1.00008,0,0,-1.00005,19.879075,128.62563)" stroke-width=".79701" stroke-linecap="butt" stroke-miterlimit="10" stroke-linejoin="miter" fill="none" stroke="#000000" d="M66.22495 52.81062 120.48557 30.70424"/>
<path transform="matrix(1.00008,0,0,-1.00005,19.879075,128.62563)" stroke-width=".79701" stroke-linecap="butt" stroke-miterlimit="10" stroke-linejoin="miter" fill="none" stroke="#000000" d="M126.82265 113.38733C126.82265 120.80757 120.80751 126.82271 113.38727 126.82271 105.96701 126.82271 99.95187 120.80757 99.95187 113.38733 99.95187 105.96707 105.96701 99.95193 113.38727 99.95193 120.80751 99.95193 126.82265 105.96707 126.82265 113.38733ZM113.38727 113.38733"/>
<use data-text="T" xlink:href="#font_1_104" transform="matrix(11.956157,0,0,-11.955797,124.822467,19.286164)"/>
<use data-text="T" xlink:href="#font_1_104" transform="matrix(11.956157,0,0,-11.955797,133.27545,19.286164)"/>
<path transform="matrix(1.00008,0,0,-1.00005,19.879075,128.62563)" stroke-width=".79701" stroke-linecap="butt" stroke-miterlimit="10" stroke-linejoin="miter" fill="none" stroke="#000000" d="M63.97145 63.97148 103.74611 103.74617"/>
<use data-text="1" xlink:href="#font_2_1" transform="matrix(7.9707376,0,0,-7.970498,48.828386,106.0835)"/>
<path transform="matrix(1.00008,0,0,-1.00005,-53.251779,-1.8468914)" stroke-width=".4782" stroke-linecap="butt" stroke-miterlimit="10" stroke-linejoin="miter" fill="none" stroke="#000000" d="M102.072-109.643H106.306"/>
<use data-text="2" xlink:href="#font_2_2" transform="matrix(7.9707376,0,0,-7.970498,48.828386,114.91393)"/>
<use data-text="1" xlink:href="#font_2_1" transform="matrix(7.9707376,0,0,-7.970498,101.57761,200.42122)"/>
<path transform="matrix(1.00008,0,0,-1.00005,-.50255587,92.49082)" stroke-width=".4782" stroke-linecap="butt" stroke-miterlimit="10" stroke-linejoin="miter" fill="none" stroke="#000000" d="M102.072-109.643H106.306"/>
<use data-text="2" xlink:href="#font_2_2" transform="matrix(7.9707376,0,0,-7.970498,101.57761,209.25165)"/>
<use data-text="1" xlink:href="#font_2_1" transform="matrix(7.9707376,0,0,-7.970498,103.01172,166.43552)"/>
<path transform="matrix(1.00008,0,0,-1.00005,.9315567,58.505125)" stroke-width=".4782" stroke-linecap="butt" stroke-miterlimit="10" stroke-linejoin="miter" fill="none" stroke="#000000" d="M102.072-109.643H106.306"/>
<use data-text="2" xlink:href="#font_2_2" transform="matrix(7.9707376,0,0,-7.970498,103.01172,175.26595)"/>
<use data-text="1" xlink:href="#font_2_1" transform="matrix(7.9707376,0,0,-7.970498,111.12437,74.847949)"/>
<path transform="matrix(1.00008,0,0,-1.00005,9.044205,-33.08245)" stroke-width=".4782" stroke-linecap="butt" stroke-miterlimit="10" stroke-linejoin="miter" fill="none" stroke="#000000" d="M102.072-109.643H106.306"/>
<use data-text="2" xlink:href="#font_2_2" transform="matrix(7.9707376,0,0,-7.970498,111.12437,83.678379)"/>
<use data-text="1" xlink:href="#font_2_1" transform="matrix(7.9707376,0,0,-7.970498,101.6266,53.087854)"/>
<path transform="matrix(1.00008,0,0,-1.00005,-.45355989,-54.842546)" stroke-width=".4782" stroke-linecap="butt" stroke-miterlimit="10" stroke-linejoin="miter" fill="none" stroke="#000000" d="M102.072-109.643H106.306"/>
<use data-text="2" xlink:href="#font_2_2" transform="matrix(7.9707376,0,0,-7.970498,101.6266,61.91828)"/>
</svg>
