<svg xmlns="http://www.w3.org/2000/svg" xmlns:xlink="http://www.w3.org/1999/xlink" xmlns:inkscape="http://www.inkscape.org/namespaces/inkscape" version="1.1" width="125" height="127" viewBox="0 0 125 127">
<defs>
<path id="font_1_62" d="M.7509918 0V.032989503H.72898867C.6519928 .032989503 .6499939 .04399109 .6499939 .08097839V.60165408C.6499939 .63861086 .6519928 .6496124 .72898867 .6496124H.7509918V.6826172L.60398867 .6796112 .45700074 .6826172V.6496124H.47898866C.55599978 .6496124 .55799868 .63861086 .55799868 .60165408V.3718567H.23699951V.60165408C.23699951 .63861086 .23899842 .6496124 .31599427 .6496124H.33799745V.6826172L.19099427 .6796112 .04399109 .6826172V.6496124H.06599426C.14299011 .6496124 .14498902 .63861086 .14498902 .60165408V.08097839C.14498902 .04399109 .14299011 .032989503 .06599426 .032989503H.04399109V0L.19099427 .0029907227 .33799745 0V.032989503H.31599427C.23899842 .032989503 .23699951 .04399109 .23699951 .08097839V.3388672H.55799868V.08097839C.55799868 .04399109 .55599978 .032989503 .47898866 .032989503H.45700074V0L.60398867 .0029907227 .7509918 0Z"/>
<path id="font_1_104" d="M.7279968 .44877626 .70799258 .67578127H.057998659L.037994386 .44877626H.068984989C.08299255 .61776736 .10598755 .6427765 .25898744 .6427765 .27799989 .6427765 .30899049 .6427765 .31698609 .6407776 .33599855 .6367798 .33699037 .6267853 .33699037 .6017914V.081970218C.33699037 .04698181 .33699037 .032989503 .23298645 .032989503H.19499207V0C.23199463 .0029907227 .33999635 .0029907227 .3829956 .0029907227 .42599488 .0029907227 .5339966 .0029907227 .57099917 0V.032989503H.5329895C.42900086 .032989503 .42900086 .04698181 .42900086 .081970218V.6017914C.42900086 .6247864 .42900086 .6367798 .44999696 .6407776 .45899964 .6427765 .48799134 .6427765 .5069885 .6427765 .6599884 .6427765 .68299868 .61776736 .69699099 .44877626H.7279968Z"/>
<path id="font_2_1" d="M.397995 .63591006C.397995 .6660156 .394989 .6660156 .3619995 .6660156 .29100038 .6016083 .17999268 .6016083 .1599884 .6016083H.14299011V.5576172H.1599884C.18299866 .5576172 .24798584 .5606079 .30599977 .58561709V.08596802C.30599977 .054977418 .30599977 .04399109 .19999695 .04399109H.1499939V0C.20498657 .0039978029 .2939911 .0039978029 .35198976 .0039978029 .4099884 .0039978029 .49899293 .0039978029 .55400088 0V.04399109H.5039978C.397995 .04399109 .397995 .054977418 .397995 .08596802V.63591006Z"/>
<path id="font_2_2" d="M.58898928 .19296265H.5469971C.5439911 .17396546 .5339966 .11198425 .5179901 .101989749 .5099945 .09599304 .42599488 .09599304 .41099549 .09599304H.21499634C.2809906 .14497376 .35499574 .20095825 .4149933 .24093628 .5049896 .30291749 .58898928 .36090089 .58898928 .46687318 .58898928 .59495547 .46798707 .6660156 .32499696 .6660156 .18998719 .6660156 .09098816 .58795168 .09098816 .48986817 .09098816 .4378662 .1349945 .42886354 .14898682 .42886354 .17599488 .42886354 .20799256 .4468689 .20799256 .48786927 .20799256 .52386477 .18199158 .543869 .15098572 .546875 .1789856 .59194949 .23699951 .6220093 .3039856 .6220093 .40098573 .6220093 .48199464 .5639038 .48199464 .4658661 .48199464 .3818817 .42399598 .31791688 .34700013 .2529297L.102996829 .04598999C.09298706 .036987306 .09199524 .036987306 .09098816 .02999878V0H.55599978L.58898928 .19296265Z"/>
</defs>
<path transform="matrix(1,0,0,-1.00003,5.112999,63.43943)" stroke-width=".79701" stroke-linecap="butt" stroke-miterlimit="10" stroke-linejoin="miter" fill="none" stroke="#000000" d="M2.81807 0C2.81807 1.55638 1.55638 2.81807 0 2.81807-1.55638 2.81807-2.81807 1.55638-2.81807 0-2.81807-1.55638-1.55638-2.81807 0-2.81807 1.55638-2.81807 2.81807-1.55638 2.81807 0ZM0 0"/>
<path transform="matrix(1,0,0,-1.00003,5.112999,63.43943)" stroke-width=".3985" stroke-linecap="butt" stroke-miterlimit="10" stroke-linejoin="miter" fill="none" stroke="#000000" d="M61.42128-37.41785C61.42128-33.5544 58.2894-30.42252 54.42593-30.42252 50.56247-30.42252 47.43059-33.5544 47.43059-37.41785 47.43059-41.28131 50.56247-44.4132 54.42593-44.4132 58.2894-44.4132 61.42128-41.28131 61.42128-37.41785ZM54.42593-37.41785"/>
<use data-text="H" xlink:href="#font_1_62" transform="matrix(7.9701,0,0,-7.9703395,56.367,103.580638)"/>
<path transform="matrix(1,0,0,-1.00003,5.112999,63.43943)" stroke-width=".79701" stroke-linecap="butt" stroke-miterlimit="10" stroke-linejoin="miter" fill="none" stroke="#000000" d="M2.65942-1.82835 48.49858-33.34285"/>
<path transform="matrix(1,0,0,-1.00003,5.112999,63.43943)" stroke-width=".79701" stroke-linecap="butt" stroke-miterlimit="10" stroke-linejoin="miter" fill="none" stroke="#000000" d="M118.33208-52.15817C118.33208-46.92235 114.0877-42.67798 108.85187-42.67798 103.61604-42.67798 99.37167-46.92235 99.37167-52.15817 99.37167-57.39401 103.61604-61.63838 108.85187-61.63838 114.0877-61.63838 118.33208-57.39401 118.33208-52.15817ZM108.85187-52.15817"/>
<use data-text="H" xlink:href="#font_1_62" transform="matrix(7.9701,0,0,-7.9703395,107.736,118.321079)"/>
<use data-text="T" xlink:href="#font_1_104" transform="matrix(7.9701,0,0,-7.9703395,114.0802,118.321079)"/>
<path transform="matrix(1,0,0,-1.00003,5.112999,63.43943)" stroke-width=".79701" stroke-linecap="butt" stroke-miterlimit="10" stroke-linejoin="miter" fill="none" stroke="#000000" d="M61.37811-39.30531 99.51064-49.63312"/>
<use data-text="1" xlink:href="#font_2_1" transform="matrix(4.9813,0,0,-4.9814498,83.863,113.51193)"/>
<path transform="matrix(1,0,0,-1.00003,-3.4459992,68.74658)" stroke-width=".3387" stroke-linecap="butt" stroke-miterlimit="10" stroke-linejoin="miter" fill="none" stroke="#000000" d="M87.309-45.697H90.699"/>
<use data-text="2" xlink:href="#font_2_2" transform="matrix(4.9813,0,0,-4.9814498,83.863,118.58908)"/>
<path transform="matrix(1,0,0,-1.00003,5.112999,63.43943)" stroke-width=".79701" stroke-linecap="butt" stroke-miterlimit="10" stroke-linejoin="miter" fill="none" stroke="#000000" d="M118.4223-22.67743C118.4223-17.39175 114.13754-13.10698 108.85187-13.10698 103.56621-13.10698 99.28143-17.39175 99.28143-22.67743 99.28143-27.96309 103.56621-32.24786 108.85187-32.24786 114.13754-32.24786 118.4223-27.96309 118.4223-22.67743ZM108.85187-22.67743"/>
<use data-text="H" xlink:href="#font_1_62" transform="matrix(7.9701,0,0,-7.9703395,107.621,88.839199)"/>
<use data-text="H" xlink:href="#font_1_62" transform="matrix(7.9701,0,0,-7.9703395,113.9652,88.839199)"/>
<path transform="matrix(1,0,0,-1.00003,5.112999,63.43943)" stroke-width=".79701" stroke-linecap="butt" stroke-miterlimit="10" stroke-linejoin="miter" fill="none" stroke="#000000" d="M61.37811-35.53032 99.42369-25.22617"/>
<use data-text="1" xlink:href="#font_2_1" transform="matrix(4.9813,0,0,-4.9814498,83.819,86.35011)"/>
<path transform="matrix(1,0,0,-1.00003,-3.4899979,41.58477)" stroke-width=".3387" stroke-linecap="butt" stroke-miterlimit="10" stroke-linejoin="miter" fill="none" stroke="#000000" d="M87.309-45.697H90.699"/>
<use data-text="2" xlink:href="#font_2_2" transform="matrix(4.9813,0,0,-4.9814498,83.819,91.42726)"/>
<use data-text="1" xlink:href="#font_2_1" transform="matrix(4.9813,0,0,-4.9814498,28.996998,86.62712)"/>
<path transform="matrix(1,0,0,-1.00003,-58.312,41.86178)" stroke-width=".3387" stroke-linecap="butt" stroke-miterlimit="10" stroke-linejoin="miter" fill="none" stroke="#000000" d="M87.309-45.697H90.699"/>
<use data-text="2" xlink:href="#font_2_2" transform="matrix(4.9813,0,0,-4.9814498,28.996998,91.70427)"/>
<path transform="matrix(1,0,0,-1.00003,5.112999,63.43943)" stroke-width=".3985" stroke-linecap="butt" stroke-miterlimit="10" stroke-linejoin="miter" fill="none" stroke="#000000" d="M61.30112 37.41795C61.30112 41.21506 58.22304 44.29315 54.42593 44.29315 50.62883 44.29315 47.55075 41.21506 47.55075 37.41795 47.55075 33.62085 50.62883 30.54277 54.42593 30.54277 58.22304 30.54277 61.30112 33.62085 61.30112 37.41795ZM54.42593 37.41795"/>
<use data-text="T" xlink:href="#font_1_104" transform="matrix(7.9701,0,0,-7.9703395,56.482,28.71439)"/>
<path transform="matrix(1,0,0,-1.00003,5.112999,63.43943)" stroke-width=".79701" stroke-linecap="butt" stroke-miterlimit="10" stroke-linejoin="miter" fill="none" stroke="#000000" d="M2.65942 1.82835 48.59755 33.41101"/>
<path transform="matrix(1,0,0,-1.00003,5.112999,63.43943)" stroke-width=".79701" stroke-linecap="butt" stroke-miterlimit="10" stroke-linejoin="miter" fill="none" stroke="#000000" d="M118.19878 22.67763C118.19878 27.83984 114.01408 32.02454 108.85187 32.02454 103.68967 32.02454 99.50497 27.83984 99.50497 22.67763 99.50497 17.51543 103.68967 13.33073 108.85187 13.33073 114.01408 13.33073 118.19878 17.51543 118.19878 22.67763ZM108.85187 22.67763"/>
<use data-text="T" xlink:href="#font_1_104" transform="matrix(7.9701,0,0,-7.9703395,107.852,43.45483)"/>
<use data-text="T" xlink:href="#font_1_104" transform="matrix(7.9701,0,0,-7.9703395,113.965068,43.45483)"/>
<path transform="matrix(1,0,0,-1.00003,5.112999,63.43943)" stroke-width=".79701" stroke-linecap="butt" stroke-miterlimit="10" stroke-linejoin="miter" fill="none" stroke="#000000" d="M61.26218 35.5619 99.6393 25.16791"/>
<use data-text="1" xlink:href="#font_2_1" transform="matrix(4.9813,0,0,-4.9814498,83.868999,38.675683)"/>
<path transform="matrix(1,0,0,-1.00003,-3.4400025,-6.0896627)" stroke-width=".3387" stroke-linecap="butt" stroke-miterlimit="10" stroke-linejoin="miter" fill="none" stroke="#000000" d="M87.309-45.697H90.699"/>
<use data-text="2" xlink:href="#font_2_2" transform="matrix(4.9813,0,0,-4.9814498,83.868999,43.75283)"/>
<path transform="matrix(1,0,0,-1.00003,5.112999,63.43943)" stroke-width=".79701" stroke-linecap="butt" stroke-miterlimit="10" stroke-linejoin="miter" fill="none" stroke="#000000" d="M118.33208 52.15839C118.33208 57.39423 114.0877 61.63858 108.85187 61.63858 103.61604 61.63858 99.37167 57.39423 99.37167 52.15839 99.37167 46.92256 103.61604 42.67819 108.85187 42.67819 114.0877 42.67819 118.33208 46.92256 118.33208 52.15839ZM108.85187 52.15839"/>
<use data-text="T" xlink:href="#font_1_104" transform="matrix(7.9701,0,0,-7.9703395,107.736,14.000946)"/>
<use data-text="H" xlink:href="#font_1_62" transform="matrix(7.9701,0,0,-7.9703395,113.84907,14.000946)"/>
<path transform="matrix(1,0,0,-1.00003,5.112999,63.43943)" stroke-width=".79701" stroke-linecap="butt" stroke-miterlimit="10" stroke-linejoin="miter" fill="none" stroke="#000000" d="M61.26218 39.27402 99.51079 49.63318"/>
<use data-text="1" xlink:href="#font_2_1" transform="matrix(4.9813,0,0,-4.9814498,83.805,11.515869)"/>
<path transform="matrix(1,0,0,-1.00003,-3.5039979,-33.249479)" stroke-width=".3387" stroke-linecap="butt" stroke-miterlimit="10" stroke-linejoin="miter" fill="none" stroke="#000000" d="M87.309-45.697H90.699"/>
<use data-text="2" xlink:href="#font_2_2" transform="matrix(4.9813,0,0,-4.9814498,83.805,16.593018)"/>
<use data-text="1" xlink:href="#font_2_1" transform="matrix(4.9813,0,0,-4.9814498,29.046998,38.350679)"/>
<path transform="matrix(1,0,0,-1.00003,-58.262,-6.414671)" stroke-width=".3387" stroke-linecap="butt" stroke-miterlimit="10" stroke-linejoin="miter" fill="none" stroke="#000000" d="M87.309-45.697H90.699"/>
<use data-text="2" xlink:href="#font_2_2" transform="matrix(4.9813,0,0,-4.9814498,29.046998,43.427827)"/>
</svg>
