<svg xmlns="http://www.w3.org/2000/svg" xmlns:xlink="http://www.w3.org/1999/xlink" xmlns:inkscape="http://www.inkscape.org/namespaces/inkscape" version="1.1" width="404" height="184" viewBox="0 0 404 184">
<defs>
<path id="font_1_83" d="M.58099368 .49969483C.58099368 .59465029 .4889984 .6826172 .35798646 .6826172H.051986696V.6566162C.12098694 .6566162 .13198853 .6566162 .13198853 .6116333V.07096863C.13198853 .025985718 .12098694 .025985718 .051986696 .025985718V0C.08099365 .0019989014 .13398743 .0019989014 .16499329 .0019989014 .19599915 .0019989014 .24899292 .0019989014 .27799989 0V.025985718C.20899964 .025985718 .19799805 .025985718 .19799805 .07096863V.32078553H.35798646C.4869995 .32078553 .58099368 .40475465 .58099368 .49969483M.5049896 .49969483C.5049896 .40875245 .46099855 .34179688 .33898927 .34179688H.19599915V.61763C.19599915 .6516113 .19799805 .6566162 .23799134 .6566162H.33898927C.46798707 .6566162 .5049896 .58265689 .5049896 .49969483Z"/>
<path id="font_1_90" d="M.6779938-.010635376C.6779938-.00062561038 .6779938 .006378174 .67099 .006378174 .66600039 .006378174 .6649933-.0026397706 .6649933-.0026397706 .6579895-.09840393 .60398867-.11834717 .57199099-.11834717 .5130005-.11834717 .49198915-.06549072 .47299195 .009384155 .59199526 .06037903 .6729889 .19033814 .6729889 .3403015 .6729889 .5452423 .526001 .69921877 .3600006 .69921877 .18998719 .69921877 .04598999 .5432434 .04598999 .3403015 .04598999 .14035034 .18998719-.015625 .3600006-.015625 .3829956-.015625 .4149933-.012634277 .45298768 .00036621095 .46998597-.12133789 .48098756-.19433594 .5669861-.19433594 .6729889-.19474793 .6779938-.038757326 .6779938-.0107421879V-.010635376M.598999 .34039308C.598999 .17149353 .5319977 .077301029 .46499635 .03425598 .44999696 .08532715 .42599488 .14550781 .36099244 .14550781 .31298829 .14550781 .28599549 .103393558 .28599549 .06524658 .28599549 .042251588 .29499818 .023254395 .30599977 .010253906 .20199585 .04324341 .11999512 .15449524 .11999512 .34039308 .11999512 .5782623 .25099183 .6812134 .35899354 .6812134 .47099305 .6812134 .598999 .5742645 .598999 .34039308M.44898988 .025253296C.40899659 .0043640139 .3769989 .0023651124 .3600006 .0023651124 .31498719 .002243042 .3019867 .04324341 .3019867 .06524658 .3019867 .09637451 .32299806 .12950135 .36099244 .12950135 .4249878 .12937927 .44099427 .072387699 .44898988 .025390625V.025253296Z"/>
<path id="font_1_95" d="M.6819916 .08427429C.6819916 .090286258 .6819916 .09727478 .6729889 .09727478 .6649933 .09727478 .6639862 .091278079 .6639862 .08728027 .6589966 .021987915 .6299896 0 .598999 0 .5439911 0 .5379944 .06323242 .5319977 .12428284 .5289917 .14527893 .5269928 .16027832 .5249939 .1822815 .5189972 .23210144 .5109863 .30500794 .3919983 .3409729 .4869995 .3599701 .5669861 .42388917 .5669861 .50379946 .5669861 .59768679 .46099855 .6826172 .32099916 .6826172H.051986696V.6566162C.12098694 .6566162 .13198853 .6566162 .13198853 .6116638V.07128906C.13198853 .025985718 .12098694 .025985718 .051986696 .025985718V0C.08099365 .0019989014 .1329956 .0019989014 .1639862 .0019989014 .19499207 .0019989014 .24699402 .0019989014 .27598573 0V.025985718C.20698548 .025985718 .19599915 .025985718 .19599915 .07128906V.33398438H.31298829C.36999513 .33398438 .4019928 .31100465 .41600038 .2980194 .45599366 .25907899 .45599366 .23210144 .45599366 .16419983 .45599366 .09727478 .45599366 .06323242 .48599244 .029006958 .5239868-.011627197 .57499697-.015625 .5970001-.015625 .67099-.016021729 .6819916 .066970828 .6819916 .083969119V.08427429M.4909973 .50379946C.4909973 .37495423 .3849945 .3499756 .30999757 .3499756H.19599915V.6176605C.19599915 .6516113 .19799805 .6566162 .23799134 .6566162H.31098939C.3939972 .6566162 .4909973 .6276398 .4909973 .50379946Z"/>
<path id="font_1_106" d="M.4249878 .17337036C.4249878 .27037049 .34498597 .34036256 .25 .35136415 .32598878 .3673706 .39898683 .43536378 .39898683 .5263672 .39898683 .6042328 .31999208 .6611328 .22999573 .6611328 .13899231 .6611328 .05899048 .6052246 .05899048 .5253601 .05899048 .4903717 .084991458 .484375 .09799194 .484375 .11898804 .484375 .13699341 .49736024 .13699341 .5233612 .13699341 .5493622 .11898804 .5623627 .09799194 .5623627 .09399414 .5625458 .08898926 .5625458 .084991458 .5605469 .11399841 .62654116 .19299317 .63853457 .22799683 .63853457 .2630005 .63853457 .32899476 .62153628 .32899476 .5255127 .32899476 .4974823 .32499696 .44744874 .29100038 .40341188 .26098634 .36436463 .22698975 .36236573 .19400025 .359375 .18899536 .359375 .1659851 .35736085 .1619873 .35736085 .15499878 .35598756 .15098572 .35499574 .15098572 .34799195 .15098572 .34136964 .1519928 .34036256 .17199707 .34036256H.22099304C.30999757 .34036256 .34899903 .2633667 .34899903 .17434693 .34899903 .054367067 .2849884 .008361816 .22698975 .008361816 .17399597 .008361816 .08799744 .034362794 .06098938 .11135864 .06599426 .10934448 .070999149 .10934448 .07598877 .10934448 .099990848 .10935974 .117996219 .12536621 .117996219 .15136719 .117996219 .18035889 .09599304 .19335938 .07598877 .19335938 .05899048 .19335938 .032989503 .18534851 .032989503 .1483612 .032989503 .056365968 .12298584-.015625 .22898865-.015625 .33999635-.015625 .4249878 .07136536 .4249878 .1733551V.17337036Z"/>
<path id="font_1_43" d="M.38398744 .11817932C.38398744 .122177127 .3829956 .1251831 .37599183 .1251831 .36898805 .1251831 .36799623 .124176029 .3639984 .11117554 .33799745 .030181885 .2809906 .010177612 .23799134 .010177612 .17399597 .010177612 .09700012 .06918335 .09700012 .21717835 .09700012 .36930848 .17098999 .42437745 .22999573 .42437745 .2689972 .42437745 .32699586 .40534974 .34899903 .35029603 .32998658 .35029603 .3019867 .35029603 .3019867 .31529237 .3019867 .28729249 .32499696 .27929688 .33799745 .27929688 .34498597 .27931214 .37399293 .28230287 .37399293 .31732179 .37399293 .3883667 .30599977 .4423828 .22898865 .4423828 .12298584 .4423828 .032989503 .3443451 .032989503 .21627808 .032989503 .083221439 .1269989-.0078125 .22898865-.0078125 .35299684-.0078125 .38398744 .10722351 .38398744 .1182251V.11817932Z"/>
<path id="font_1_75" d="M.74398806 0V.025985718C.6799927 .025985718 .6759949 .02999878 .6759949 .06904602V.3043213C.6759949 .35438539 .6669922 .43847657 .5479889 .43847657 .47999574 .43847657 .43299867 .3924408 .4149933 .33836366H.4139862C.4019928 .4204712 .34298707 .43847657 .2869873 .43847657 .20799256 .43847657 .16699219 .3774109 .1519928 .33737184H.15098572V.43847657L.032989503 .4273529V.4013672C.09199524 .4013672 .100997928 .39535523 .100997928 .3473053V.06903076C.100997928 .0309906 .09700012 .025985718 .032989503 .025985718V0C.056991579 .0019989014 .100997928 .0019989014 .1269989 .0019989014 .15299988 .0019989014 .19799805 .0019989014 .22200012 0V.025985718C.1579895 .025985718 .1539917 .02999878 .1539917 .06903076V.26123048C.1539917 .35339356 .20999146 .4224701 .27999879 .4224701 .35398866 .4224701 .3619995 .35638429 .3619995 .30833436V.06904602C.3619995 .03100586 .35798646 .025985718 .2939911 .025985718V0C.31799317 .0019989014 .3619995 .0019989014 .3880005 .0019989014 .4139862 .0019989014 .45899964 .0019989014 .48298646 0V.025985718C.4189911 .025985718 .4149933 .02999878 .4149933 .06904602V.26127626C.4149933 .35339356 .47099305 .4224701 .54100039 .4224701 .61499026 .4224701 .6230011 .35638429 .6230011 .30833436V.06904602C.6230011 .03100586 .61898806 .025985718 .5549927 .025985718V0C.57899478 .0019989014 .6230011 .0019989014 .6489868 .0019989014 .6749878 .0019989014 .7200012 .0019989014 .74398806 0Z"/>
<path id="font_1_57" d="M.43798829 .16992188V.1959076H.33599855V.64694216C.33599855 .66793826 .33499146 .6689453 .31698609 .6689453L.019989014 .1959076V.16992188H.27799989V.07196045C.27799989 .035980226 .27598573 .025985718 .20599365 .025985718H.18699646V0C.21899414 .0019989014 .272995 .0019989014 .30699159 .0019989014 .34098817 .0019989014 .394989 .0019989014 .4269867 0V.025985718H.4079895C.33799745 .025985718 .33599855 .035980226 .33599855 .07196045V.16992188H.43798829M.2809906 .1959076H.039993287L.2809906 .5809326V.1959076Z"/>
<path id="font_2_1" d="M.44299317 .50320437C.44299317 .6051483 .41099549 .70410159 .32899476 .70410159 .18899536 .70410159 .039993287 .41127015 .039993287 .19126892 .039993287 .14524842 .049987794-.009765625 .15499878-.009765625 .29100038-.009765625 .44299317 .27627564 .44299317 .50320437M.13999939 .3623047C.15499878 .42126466 .17599488 .50520327 .21598816 .5761566 .24899292 .63612368 .28399659 .6840973 .32798768 .6840973 .36099244 .6840973 .3829956 .6561127 .3829956 .56018069 .3829956 .52420046 .37998963 .4742279 .35099793 .3623047H.13999939M.34399415 .33229066C.31900025 .23426819 .2979889 .17126465 .2619934 .10824585 .23298645 .057235719 .19799805 .010223389 .1559906 .010223389 .125 .010223389 .099990848 .034225465 .099990848 .133255 .099990848 .1982727 .115997318 .26628114 .13198853 .33229066H.34399415Z"/>
<path id="font_3_1" d="M.44400025 .24998474C.44400025 .357193 .35499574 .44429017 .25 .44429017 .14199829 .44429017 .054992677 .3551941 .054992677 .24998474 .054992677 .14378357 .14199829 .05569458 .25 .05569458 .35499574 .05569458 .44400025 .14279175 .44400025 .24998474M.25 .095703128C.16299439 .095703128 .09498596 .16583252 .09498596 .24998474 .09498596 .33415223 .1639862 .40429688 .25 .40429688 .33299256 .40429688 .4039917 .33615113 .4039917 .24998474 .4039917 .16383362 .33299256 .095703128 .25 .095703128Z"/>
</defs>
<path transform="matrix(1.00003,0,0,-1.00008,44.80391,161.29685)" d="M0 141.73404V0H340.1617Z" fill="#00aeef"/>
<path transform="matrix(1.00003,0,0,-1.00008,44.80391,161.29685)" stroke-width="1.19553" stroke-linecap="butt" stroke-miterlimit="10" stroke-linejoin="miter" fill="none" stroke="#000000" d="M0 141.73404V0H340.1617Z"/>
<path transform="matrix(1.00003,0,0,-1.00008,44.80391,161.29685)" stroke-width="1.19553" stroke-linecap="butt" stroke-miterlimit="10" stroke-linejoin="miter" fill="none" stroke="#000000" d="M14.17339 0V14.17339H0"/>
<use data-text="P" xlink:href="#font_1_83" transform="matrix(20.66312,0,0,-20.664155,28.307412,16.031235)"/>
<use data-text="Q" xlink:href="#font_1_90" transform="matrix(20.66312,0,0,-20.664155,26.406357,179.26128)"/>
<use data-text="R" xlink:href="#font_1_95" transform="matrix(20.66312,0,0,-20.664155,388.49623,178.93025)"/>
<use data-text="3" xlink:href="#font_1_106" transform="matrix(20.66312,0,0,-20.664155,1.2176056,97.08871)"/>
<use data-text="c" xlink:href="#font_1_43" transform="matrix(20.66312,0,0,-20.664155,16.921555,97.08871)"/>
<use data-text="m" xlink:href="#font_1_75" transform="matrix(20.66312,0,0,-20.664155,25.310791,97.08871)"/>
<use data-text="4" xlink:href="#font_1_57" transform="matrix(20.66312,0,0,-20.664155,194.85642,178.64124)"/>
<use data-text="c" xlink:href="#font_1_43" transform="matrix(20.66312,0,0,-20.664155,210.56037,178.64124)"/>
<use data-text="m" xlink:href="#font_1_75" transform="matrix(20.66312,0,0,-20.664155,218.9496,178.64124)"/>
<path transform="matrix(1.00003,0,0,-1.00008,44.80391,161.29685)" stroke-width=".3985" stroke-linecap="butt" stroke-miterlimit="10" stroke-linejoin="miter" fill="none" stroke="#000000" d="M331.6576 0C331.6576 1.24129 331.3853 2.46912 330.8608 3.59401"/>
<use data-text="&#x03b8;" xlink:href="#font_2_1" transform="matrix(20.66312,0,0,-20.664155,335.44563,162.15792)"/>
<use data-text="&#x25e6;" xlink:href="#font_3_1" transform="matrix(14.346631,0,0,-14.347347,345.4359,154.65932)"/>
</svg>
