<svg xmlns="http://www.w3.org/2000/svg" xmlns:xlink="http://www.w3.org/1999/xlink" xmlns:inkscape="http://www.inkscape.org/namespaces/inkscape" version="1.1" width="287" height="287" viewBox="0 0 287 287">
<defs>
<path id="font_1_34" d="M.7529907 .18592835C.7529907 .28189088 .6669922 .3488617 .5479889 .35786439 .6559906 .37686158 .72099307 .43678285 .72099307 .51368716 .72099307 .60557559 .6339874 .6855469 .47299195 .6855469H.038986207V.63853457H.14698792V.04699707H.038986207V0H.5029907C.6689911 0 .7529907 .08796692 .7529907 .18592835M.57899478 .51368716C.57899478 .43678285 .5309906 .37486268 .43399049 .37486268H.27799989V.63853457H.45999146C.5609894 .63853457 .57899478 .55963137 .57899478 .51368716M.60598757 .18693543C.60598757 .17492676 .60598757 .04699707 .46199037 .04699707H.27799989V.3388672H.47200013C.49198915 .3388672 .5389862 .3388672 .57299807 .29588319 .60598757 .253891 .60598757 .19792176 .60598757 .18693543Z"/>
<path id="font_1_28" d="M.5529938 .023986817C.5529938 .04699707 .5399933 .04699707 .5269928 .04699707 .46598817 .04798889 .46598817 .06100464 .46598817 .083999637V.29907228C.46598817 .3881073 .394989 .453125 .24598694 .453125 .18899536 .453125 .066986087 .44911195 .066986087 .36109925 .066986087 .3170929 .101989749 .29808045 .1289978 .29808045 .1599884 .29808045 .19198609 .3190918 .19198609 .36109925 .19198609 .39111329 .17298889 .40811158 .16999817 .41011048 .19799805 .41612245 .22999573 .41711427 .24198914 .41711427 .31698609 .41711427 .35198976 .3751068 .35198976 .29907228V.26506043C.2809906 .2620697 .026992798 .25306703 .026992798 .10801697 .026992798 .012130737 .15098572-.005859375 .21998596-.005859375 .2999878-.005859375 .34700013 .035125734 .36898805 .07713318 .36898805 .04598999 .36898805 0 .47299195 0H.5209961C.54100039 0 .5529938 0 .5529938 .023986817M.35198976 .13899231C.35198976 .043151857 .2599945 .030136109 .23498535 .030136109 .18399048 .030136109 .14399719 .06517029 .14399719 .10922241 .14399719 .21734619 .3019867 .23136902 .35198976 .234375V.13899231Z"/>
<path id="font_1_98" d="M.4149933 .14012146C.4149933 .18312073 .394989 .21812439 .3600006 .24612427 .32099916 .27511598 .2889862 .28112794 .21099854 .29412843 .17399597 .30111695 .10899353 .31211854 .10899353 .3591156 .10899353 .42111207 .20199585 .42111207 .22099304 .42111207 .29599 .42111207 .33399964 .39212037 .33898927 .33711244 .33999635 .32211305 .34098817 .3171234 .3619995 .3171234 .38598634 .3171234 .38598634 .32211305 .38598634 .3451233V.42510987C.38598634 .4441223 .38598634 .453125 .36799623 .453125 .3639984 .453125 .3619995 .453125 .32299806 .43411256 .29699708 .44711305 .2619934 .453125 .22200012 .453125 .19198609 .453125 .037994386 .453125 .037994386 .32211305 .037994386 .28211976 .057998659 .25512696 .07798767 .23812866 .117996219 .203125 .1559906 .1971283 .23298645 .18312073 .2689972 .17712403 .34399415 .16412354 .34399415 .10513306 .34399415 .030136109 .2519989 .030136109 .22999573 .030136109 .12399292 .030136109 .09799194 .103134158 .085998538 .14613343 .08099365 .16012573 .07598877 .16012573 .06199646 .16012573 .037994386 .16012573 .037994386 .15412903 .037994386 .13113404V.022140503C.037994386 .0031280518 .037994386-.005859375 .055999757-.005859375 .06298828-.005859375 .06498718-.005859375 .085998538 .009140015L.11199951 .026138306C.1579895-.005859375 .20999146-.005859375 .22999573-.005859375 .26098634-.005859375 .4149933-.005859375 .4149933 .14013672V.14012146Z"/>
<path id="font_1_50" d="M.49398805 .11706543C.49398805 .13504029 .47499085 .13504029 .46998597 .13504029 .45298768 .13504029 .45098878 .13005066 .44499208 .11405945 .42399598 .066101077 .36698915 .03413391 .3019867 .03413391 .16099549 .03413391 .1599884 .16700745 .1599884 .2179718H.46199037C.48399354 .2179718 .49398805 .2179718 .49398805 .2449646 .49398805 .27598573 .48799134 .34906007 .43798829 .3991089 .40098573 .43511964 .34799195 .453125 .2789917 .453125 .11898804 .453125 .03199768 .35005189 .03199768 .22497559 .03199768 .09107971 .13198853-.005859375 .29299928-.005859375 .45098878-.005859375 .49398805 .10006714 .49398805 .11706543M.39898683 .25097657H.1599884C.1619873 .29000855 .16299439 .3320465 .18399048 .36506654 .20999146 .4051056 .25 .41711427 .2789917 .41711427 .3959961 .41711427 .397995 .28599549 .39898683 .25097657Z"/>
<path id="font_1_54" d="M.6749878 .4391327 .6439972 .6798096H.038986207V.6328125H.14698792V.04699707H.038986207V0C.07699585 .0029907227 .17799378 .0029907227 .22200012 .0029907227 .2709961 .0029907227 .37998963 .0029907227 .42399598 0V.04699707H.2889862V.31724549H.33898927C.43499757 .31724549 .44400025 .2742157 .44400025 .20013428H.4909973V.48106385H.44400025C.44400025 .4071808 .43598939 .3642578 .33898927 .3642578H.2889862V.6328125H.42900086C.58999636 .6328125 .61299136 .5559387 .6279907 .4391327H.6749878Z"/>
<path id="font_1_43" d="M.47799684 .117126468C.47799684 .13113404 .46398927 .13113404 .45399476 .13113404 .43598939 .13113404 .43499757 .12913513 .42999269 .11613464 .4039917 .053131105 .35598756 .03413391 .30499269 .03413391 .1659851 .03413391 .1659851 .18112183 .1659851 .22712708 .1659851 .28312684 .1659851 .41311646 .29499818 .41311646 .32998658 .41311646 .34700013 .41011048 .3600006 .40711976 .34199525 .39111329 .33999635 .3701172 .33999635 .3611145 .33999635 .3171234 .375 .29811097 .4019928 .29811097 .43299867 .29811097 .46499635 .3191223 .46499635 .3611145 .46499635 .44711305 .34899903 .453125 .29100038 .453125 .11199951 .45314027 .037994386 .33813478 .037994386 .22213745 .037994386 .08912659 .13198853-.005859375 .28599549-.005859375 .44799806-.005859375 .47799684 .11013794 .47799684 .117126468Z"/>
</defs>
<path transform="matrix(1.00008,0,0,-1.00006,87.14244,200.23705)" d="M0 0H113.38724V113.38724H0Z" fill="#ffa500"/>
<path transform="matrix(1.00008,0,0,-1.00006,87.14244,200.23705)" stroke-width=".3985" stroke-linecap="butt" stroke-miterlimit="10" stroke-linejoin="miter" fill="none" stroke="#000000" d="M0 0H113.38724V113.38724H0Z"/>
<path transform="matrix(1.00008,0,0,-1.00006,87.14244,200.23705)" d="M0 0 56.69362-85.04042 113.38724 0Z" fill="#87cefa"/>
<path transform="matrix(1.00008,0,0,-1.00006,87.14244,200.23705)" d="M113.38724 0 198.42766 56.69362 113.38724 113.38724Z" fill="#87cefa"/>
<path transform="matrix(1.00008,0,0,-1.00006,87.14244,200.23705)" d="M0 113.38724 56.69362 198.42766 113.38724 113.38724Z" fill="#87cefa"/>
<path transform="matrix(1.00008,0,0,-1.00006,87.14244,200.23705)" d="M0 0-85.04042 56.69362 0 113.38724Z" fill="#87cefa"/>
<path transform="matrix(1.00008,0,0,-1.00006,87.14244,200.23705)" stroke-width=".3985" stroke-linecap="butt" stroke-miterlimit="10" stroke-linejoin="miter" fill="none" stroke="#000000" d="M0 0 56.69362-85.04042 113.38724 0Z"/>
<path transform="matrix(1.00008,0,0,-1.00006,87.14244,200.23705)" stroke-width=".3985" stroke-linecap="butt" stroke-miterlimit="10" stroke-linejoin="miter" fill="none" stroke="#000000" d="M113.38724 0 198.42766 56.69362 113.38724 113.38724Z"/>
<path transform="matrix(1.00008,0,0,-1.00006,87.14244,200.23705)" stroke-width=".3985" stroke-linecap="butt" stroke-miterlimit="10" stroke-linejoin="miter" fill="none" stroke="#000000" d="M0 113.38724 56.69362 198.42766 113.38724 113.38724Z"/>
<path transform="matrix(1.00008,0,0,-1.00006,87.14244,200.23705)" stroke-width=".3985" stroke-linecap="butt" stroke-miterlimit="10" stroke-linejoin="miter" fill="none" stroke="#000000" d="M0 0-85.04042 56.69362 0 113.38724Z"/>
<use data-text="B" xlink:href="#font_1_34" transform="matrix(9.963397,0,0,-9.963197,132.09404,146.92786)"/>
<use data-text="a" xlink:href="#font_1_28" transform="matrix(9.963397,0,0,-9.963197,140.2441,146.92786)"/>
<use data-text="s" xlink:href="#font_1_98" transform="matrix(9.963397,0,0,-9.963197,145.81363,146.92786)"/>
<use data-text="e" xlink:href="#font_1_50" transform="matrix(9.963397,0,0,-9.963197,150.33702,146.92786)"/>
<use data-text="F" xlink:href="#font_1_54" transform="matrix(9.963397,0,0,-9.963197,132.75609,246.1178)"/>
<use data-text="a" xlink:href="#font_1_28" transform="matrix(9.963397,0,0,-9.963197,139.02307,246.1178)"/>
<use data-text="c" xlink:href="#font_1_43" transform="matrix(9.963397,0,0,-9.963197,144.5926,246.1178)"/>
<use data-text="e" xlink:href="#font_1_50" transform="matrix(9.963397,0,0,-9.963197,149.68392,246.1178)"/>
<use data-text="F" xlink:href="#font_1_54" transform="matrix(9.963397,0,0,-9.963197,231.97803,146.89786)"/>
<use data-text="a" xlink:href="#font_1_28" transform="matrix(9.963397,0,0,-9.963197,238.24501,146.89786)"/>
<use data-text="c" xlink:href="#font_1_43" transform="matrix(9.963397,0,0,-9.963197,243.81455,146.89786)"/>
<use data-text="e" xlink:href="#font_1_50" transform="matrix(9.963397,0,0,-9.963197,248.90586,146.89786)"/>
<use data-text="F" xlink:href="#font_1_54" transform="matrix(9.963397,0,0,-9.963197,33.53415,146.89786)"/>
<use data-text="a" xlink:href="#font_1_28" transform="matrix(9.963397,0,0,-9.963197,39.801134,146.89786)"/>
<use data-text="c" xlink:href="#font_1_43" transform="matrix(9.963397,0,0,-9.963197,45.370668,146.89786)"/>
<use data-text="e" xlink:href="#font_1_50" transform="matrix(9.963397,0,0,-9.963197,50.461977,146.89786)"/>
<use data-text="F" xlink:href="#font_1_54" transform="matrix(9.963397,0,0,-9.963197,132.75609,76.026599)"/>
<use data-text="a" xlink:href="#font_1_28" transform="matrix(9.963397,0,0,-9.963197,139.02307,76.026599)"/>
<use data-text="c" xlink:href="#font_1_43" transform="matrix(9.963397,0,0,-9.963197,144.5926,76.026599)"/>
<use data-text="e" xlink:href="#font_1_50" transform="matrix(9.963397,0,0,-9.963197,149.68392,76.026599)"/>
</svg>
