<svg xmlns="http://www.w3.org/2000/svg" xmlns:xlink="http://www.w3.org/1999/xlink" xmlns:inkscape="http://www.inkscape.org/namespaces/inkscape" version="1.1" width="153" height="109" viewBox="0 0 153 109">
<defs>
<path id="font_1_83" d="M.72099307 .49064637C.72099307 .6005707 .621994 .6855469 .45599366 .6855469H.038986207V.63853457H.14698792V.04699707H.038986207V0C.07699585 .0029907227 .1749878 .0029907227 .21798706 .0029907227 .26098634 .0029907227 .35899354 .0029907227 .39698792 0V.04699707H.2889862V.30177308H.46598817C.6049957 .30177308 .72099307 .37374879 .72099307 .49064637M.56799319 .49064637C.56799319 .41970826 .56799319 .34277345 .4169922 .34277345H.2829895V.63853457H.41799928C.56799319 .63853457 .56799319 .56259158 .56799319 .49064637Z"/>
<path id="font_1_90" d="M.8049927-.008026123C.8049927-.000030517579 .8049927 .017974854 .7869873 .017974854 .7719879 .017974854 .769989 .0049743654 .7689972-.002029419 .7630005-.040023805 .70098879-.041015626 .6839905-.041015626 .6609955-.041015626 .6309967-.041015626 .59199526 .017974854 .7559967 .08224487 .798996 .23025513 .798996 .33924867 .798996 .5552521 .6539917 .6972656 .43199159 .6972656 .20298767 .6972656 .06399536 .5492554 .06399536 .33924867 .06399536 .1352539 .19999695-.0107421879 .43199159-.0107421879 .45399476-.0107421879 .4869995-.009750366 .5269928-.0017547608 .5549927-.11502075 .57499697-.19403076 .66799929-.19403076 .769989-.19371033 .8049927-.07571411 .8049927-.0077056887V-.008026123M.6519928 .340271C.6519928 .28427125 .6519928 .13526917 .55599978 .06929016 .5339966 .10227966 .49798585 .15527344 .43099977 .15527344 .37998963 .15527344 .33399964 .1212616 .33399964 .073287967 .33399964 .06729126 .33499146 .056289674 .33699037 .05128479 .21398926 .11027527 .21099854 .26226808 .21099854 .340271 .21099854 .38026429 .21099854 .4752655 .24798584 .54626467 .2999878 .6422577 .38598634 .6572571 .43099977 .6572571 .4850006 .6572571 .5629883 .6372528 .61099246 .55226138 .6489868 .48526 .6519928 .39926148 .6519928 .340271M.5139923 .045288087C.4889984 .0342865 .45899964 .029296875 .43199159 .029296875 .3769989 .029296875 .36999513 .061294557 .36999513 .073287967 .36999513 .10028076 .39898683 .119262699 .43199159 .119262699 .45999146 .119262699 .49398805 .10827637 .5139923 .045288087Z"/>
<path id="font_1_95" d="M.8580017 .09487915C.8580017 .11682129 .84399417 .11682129 .83399966 .11682129 .8129883 .11682129 .81199648 .1068573 .8109894 .09388733 .80599978 .04699707 .7769928 .024993897 .746994 .024993897 .68699648 .024993897 .6779938 .09587097 .6729889 .13778687 .67099 .14875794 .6629944 .21759033 .6619873 .22257996 .647995 .29241944 .59298709 .323349 .5499878 .3393402 .66600039 .36935426 .71699526 .43440248 .71699526 .5004425 .71699526 .6015167 .6069946 .6855469 .4189911 .6855469H.038986207V.63853457H.14698792V.04699707H.038986207V0C.07499695 .0029907227 .17298889 .0029907227 .21499634 .0029907227 .25698854 .0029907227 .35499574 .0029907227 .3909912 0V.04699707H.2829895V.32434083H.3999939C.4139862 .32434083 .45799256 .32434083 .4889984 .29042054 .5209961 .25550843 .5209961 .23654175 .5209961 .16371155 .5209961 .09786987 .5209961 .048980714 .59098818 .01499939 .6349945-.007003784 .69699099-.011001587 .73799136-.011001587 .8450012-.011001587 .8580017 .07891846 .8580017 .09487915M.56399539 .49943543C.56399539 .44340516 .56399539 .36035157 .39898683 .36035157H.2829895V.63853457H.40098573C.56199648 .63853457 .56399539 .56048586 .56399539 .49943543Z"/>
<path id="font_2_106" d="M.45700074 .17037964C.45700074 .252594 .3939972 .33088685 .2899933 .35191346 .37199403 .37893678 .42999269 .4490509 .42999269 .52809146 .42999269 .6100464 .34199525 .6660156 .24598694 .6660156 .14498902 .6660156 .068984989 .60606387 .068984989 .53009036 .068984989 .49710084 .09098816 .47808839 .11999512 .47808839 .15098572 .47808839 .17098999 .50009158 .17098999 .5290985 .17098999 .57910159 .12399292 .57910159 .10899353 .57910159 .13999939 .62802127 .20599365 .64100649 .24198914 .64100649 .2829895 .64100649 .33799745 .6190338 .33799745 .5290985 .33799745 .51708987 .33599855 .45906068 .30999757 .4149933 .27999879 .36691285 .24598694 .36390687 .22099304 .36291505 .21299744 .36190797 .18899536 .35990907 .18199158 .35990907 .17399597 .35890199 .16699219 .35791017 .16699219 .3479004 .16699219 .33691407 .17399597 .33691407 .19099427 .33691407H.23498535C.31698609 .33691407 .35398866 .2686615 .35398866 .17037964 .35398866 .034469606 .2849884 .0055389406 .24099732 .0055389406 .19799805 .0055389406 .12298584 .022491456 .08799744 .08137512 .12298584 .07637024 .1539917 .09837341 .1539917 .1363678 .1539917 .17237854 .1269989 .19238281 .09799194 .19238281 .07398987 .19238281 .041992189 .17837525 .041992189 .1343689 .041992189 .043441774 .1349945-.022460938 .24398804-.022460938 .3659973-.022460938 .45700074 .06838989 .45700074 .17037964Z"/>
<path id="font_2_43" d="M.4149933 .119140628C.4149933 .12911988 .40499879 .12911988 .4019928 .12911988 .3929901 .12911988 .3909912 .12512207 .3889923 .119140628 .3600006 .026229859 .29499818 .014251709 .2579956 .014251709 .20498657 .014251709 .116989139 .0572052 .116989139 .21801758 .116989139 .38093568 .19898987 .42323304 .2519989 .42323304 .26098634 .42323304 .32398988 .42222596 .35899354 .38594056 .31799317 .38293458 .31199647 .3529358 .31199647 .3399353 .31199647 .31393434 .32998658 .2939453 .35798646 .2939453 .38398744 .2939453 .4039917 .3109436 .4039917 .34094239 .4039917 .40911866 .32798768 .4482422 .25099183 .4482422 .12599182 .4482422 .033996583 .3399353 .033996583 .21601868 .033996583 .08816528 .1329956-.0107421879 .24899292-.0107421879 .3829956-.0107421879 .4149933 .10914612 .4149933 .119140628Z"/>
<path id="font_2_75" d="M.8129883 0V.0309906C.7609863 .0309906 .73599246 .0309906 .7350006 .061019899V.25221253C.7350006 .3383026 .7350006 .36932374 .70399478 .405365 .6899872 .42237855 .6569977 .4423828 .598999 .4423828 .5149994 .4423828 .47099305 .38233949 .45399476 .34429933 .43998719 .43138124 .3659973 .4423828 .32099916 .4423828 .24798584 .4423828 .20098877 .39935304 .17298889 .33729554V.4423828L.03199768 .43066407V.3996582C.101989749 .3996582 .10998535 .39266969 .10998535 .34370423V.07595825C.10998535 .0309906 .09899902 .0309906 .03199768 .0309906V0L.14498902 .0029907227 .25698854 0V.0309906C.18998719 .0309906 .1789856 .0309906 .1789856 .07595825V.25978089C.1789856 .36431886 .25 .42037965 .31399537 .42037965 .3769989 .42037965 .3880005 .36631776 .3880005 .30926515V.076034549C.3880005 .0309906 .3769989 .0309906 .30999757 .0309906V0L.4229889 .0029907227 .5349884 0V.0309906C.46798707 .0309906 .45700074 .0309906 .45700074 .076034549V.2602234C.45700074 .36431886 .5279999 .42037965 .59199526 .42037965 .6549988 .42037965 .66600039 .36631776 .66600039 .30926515V.076034549C.66600039 .0309906 .6549988 .0309906 .58799746 .0309906V0L.70098879 .0029907227 .8129883 0Z"/>
<path id="font_2_57" d="M.47099305 .16503906V.19602967H.37098695V.6507721C.37098695 .6707611 .37098695 .6767578 .35499574 .6767578 .34599305 .6767578 .34298707 .6767578 .33499146 .6647644L.027999878 .19602967V.16503906H.2939911V.07800293C.2939911 .041992189 .2919922 .0309906 .21798706 .0309906H.19699097V0C.23799134 .0029907227 .2899933 .0029907227 .33198548 .0029907227 .37399293 .0029907227 .4269867 .0029907227 .46798707 0V.0309906H.44699098C.37298585 .0309906 .37098695 .041992189 .37098695 .07800293V.16503906H.47099305M.2999878 .19602967H.055999757L.2999878 .56881716V.19602967Z"/>
<path id="font_3_1" d="M.45498658 .5001831C.45498658 .56614688 .43699647 .7050781 .33499146 .7050781 .19599915 .7050781 .041992189 .42323304 .041992189 .19425965 .041992189 .100250247 .070999149-.0107421879 .1619873-.0107421879 .30299378-.0107421879 .45498658 .27627564 .45498658 .5001831M.147995 .36328126C.16499329 .42723084 .18499756 .5071869 .22499085 .57814028 .2519989 .6271057 .2889862 .68307498 .33399964 .68307498 .3829956 .68307498 .3889923 .6191101 .3889923 .56214907 .3889923 .5131836 .3809967 .46220399 .35699464 .36328126H.147995M.34799195 .3312683C.33699037 .28527833 .31599427 .2002716 .27799989 .12826538 .24299622 .060256959 .20498657 .011245728 .1619873 .011245728 .1289978 .011245728 .10798645 .040252687 .10798645 .133255 .10798645 .17526245 .11399841 .23326111 .13999939 .3312683H.34799195Z"/>
</defs>
<path transform="matrix(1.00005,0,0,-1.00002,25.759537,96.31569)" d="M0 0H116.22208L0 87.87527Z" fill="#ffffff"/>
<path transform="matrix(1.00005,0,0,-1.00002,25.759537,96.31569)" stroke-width="1.19553" stroke-linecap="butt" stroke-miterlimit="10" stroke-linejoin="miter" fill="none" stroke="#000000" d="M0 0H116.22208L0 87.87527Z"/>
<use data-text="P" xlink:href="#font_1_83" transform="matrix(9.963098,0,0,-9.962799,21.844346,7.7539217)"/>
<use data-text="Q" xlink:href="#font_1_90" transform="matrix(9.963098,0,0,-9.962799,13.630928,98.82174)"/>
<use data-text="R" xlink:href="#font_1_95" transform="matrix(9.963098,0,0,-9.962799,142.67237,99.67776)"/>
<use data-text="3" xlink:href="#font_2_106" transform="matrix(9.963098,0,0,-9.962799,1.217308,57.002904)"/>
<use data-text="c" xlink:href="#font_2_43" transform="matrix(9.963098,0,0,-9.962799,9.516563,57.002904)"/>
<use data-text="m" xlink:href="#font_2_75" transform="matrix(9.963098,0,0,-9.962799,13.940178,57.002904)"/>
<use data-text="4" xlink:href="#font_2_57" transform="matrix(9.963098,0,0,-9.962799,71.94484,106.580898)"/>
<use data-text="c" xlink:href="#font_2_43" transform="matrix(9.963098,0,0,-9.962799,80.244098,106.580898)"/>
<use data-text="m" xlink:href="#font_2_75" transform="matrix(9.963098,0,0,-9.962799,84.66771,106.580898)"/>
<path transform="matrix(1.00005,0,0,-1.00002,25.759537,96.31569)" stroke-width=".3985" stroke-linecap="butt" stroke-miterlimit="10" stroke-linejoin="miter" fill="none" stroke="#000000" d="M0 0H8.50412V8.50412H0Z"/>
<path transform="matrix(1.00005,0,0,-1.00002,25.759537,96.31569)" stroke-width=".79701" stroke-linecap="butt" stroke-miterlimit="10" stroke-linejoin="miter" fill="none" stroke="#000000" d="M113.38724 0C112.84355 3.08353 109.90315 5.14243 106.81961 4.59874 104.11041 4.12105 102.13477 1.76654 102.13477-.98442"/>
<use data-text="&#x03b8;" xlink:href="#font_3_1" transform="matrix(9.963098,0,0,-9.962799,114.32396,94.105648)"/>
</svg>
