<svg xmlns="http://www.w3.org/2000/svg" xmlns:xlink="http://www.w3.org/1999/xlink" xmlns:inkscape="http://www.inkscape.org/namespaces/inkscape" version="1.1" width="137" height="101" viewBox="0 0 137 101">
<defs>
<path id="font_1_46" d="M.70700076 .33580018C.70700076 .52568057 .57199099 .6826172 .40098573 .6826172H.034988405V.6516113H.05899048C.13598633 .6516113 .13798523 .64060977 .13798523 .6046295V.07795715C.13798523 .041992189 .13598633 .0309906 .05899048 .0309906H.034988405V0H.40098573C.56900027 0 .70700076 .1479187 .70700076 .33580018M.6069946 .33580018C.6069946 .22486878 .58799746 .16490174 .5519867 .11593628 .5319977 .08895874 .47499085 .0309906 .37399293 .0309906H.272995C.22599793 .0309906 .22399903 .037994386 .22399903 .07096863V.6116333C.22399903 .64460757 .22599793 .6516113 .272995 .6516113H.37298585C.43499757 .6516113 .5039978 .6296234 .5549927 .55867007 .59799197 .49969483 .6069946 .41375733 .6069946 .33580018Z"/>
<path id="font_1_49" d="M.6519928 .2579193H.6269989C.60198977 .10397339 .57899478 .0309906 .40699769 .0309906H.27398683C.22698975 .0309906 .22499085 .037994386 .22499085 .07098389V.33789063H.31498719C.4119873 .33789063 .4229889 .30589295 .4229889 .220932H.44799806V.48606874H.4229889C.4229889 .39994813 .4119873 .36888124 .31498719 .36888124H.22499085V.6087799C.22499085 .6416931 .22698975 .64868167 .27398683 .64868167H.40299989C.55599978 .64868167 .58299258 .59381106 .598999 .45507813H.6239929L.59599307 .6796875H.032989503V.64868167H.056991579C.13398743 .64868167 .13598633 .6377106 .13598633 .6017914V.07797241C.13598633 .041992189 .13398743 .0309906 .056991579 .0309906H.032989503V0H.6100006L.6519928 .2579193Z"/>
<path id="font_1_54" d="M.6100006 .45477296 .58200076 .6796875H.032989503V.64868167H.056991579C.13398743 .64868167 .13598633 .63768008 .13598633 .6016998V.07797241C.13598633 .041992189 .13398743 .0309906 .056991579 .0309906H.032989503V0C.067993167 .0029907227 .1459961 .0029907227 .18499756 .0029907227 .22599793 .0029907227 .31698609 .0029907227 .35299684 0V.0309906H.31999208C.22499085 .031188965 .22499085 .044189454 .22499085 .079193118V.3251953H.31098939C.40699769 .3251953 .4169922 .29318238 .4169922 .20819092H.44198609V.4731903H.4169922C.4169922 .38919068 .40699769 .3561859 .31098939 .3561859H.22499085V.6091919C.22499085 .64167788 .22698975 .64868167 .27398683 .64868167H.3939972C.5439911 .64868167 .56900027 .5926819 .58499148 .4546814L.6100006 .45477296Z"/>
<path id="font_2_1" d="M.47698976 .23631287C.47698976 .39337159 .38398744 .4423828 .30999757 .4423828 .17298889 .4423828 .040985109 .29933167 .040985109 .15829468 .040985109 .06526184 .100997928-.0107421879 .20298767-.0107421879 .2659912-.0107421879 .33799745 .012252808 .4139862 .073272708 .4269867 .020248414 .45999146-.0107421879 .5049896-.0107421879 .55799868-.0107421879 .58898928 .044265748 .58898928 .060272218 .58898928 .06726074 .58299258 .07026672 .57699587 .07026672 .56999209 .07026672 .5669861 .06726074 .56399539 .060272218 .54599 .011245728 .5099945 .011245728 .5079956 .011245728 .47698976 .011245728 .47698976 .089279178 .47698976 .11328125 .47698976 .1342926 .47698976 .1362915 .4869995 .14828491 .58099368 .2663269 .60198977 .38235475 .60198977 .38336183 .60198977 .38536073 .6009979 .39337159 .58999636 .39337159 .5799866 .39337159 .5799866 .3903656 .57499697 .37236024 .5569916 .30934144 .5239868 .23332215 .47698976 .17430115V.23631287M.4099884 .09927368C.32199098 .022247315 .24499512 .011245728 .20498657 .011245728 .14498902 .011245728 .114990238 .056259157 .114990238 .120285037 .114990238 .16929627 .14099121 .2773285 .17298889 .32833863 .21998596 .4013672 .27398683 .42037965 .30899049 .42037965 .4079895 .42037965 .4079895 .28933717 .4079895 .21130371 .4079895 .17430115 .4079895 .11628723 .4099884 .09927368Z"/>
</defs>
<path transform="matrix(1.00008,0,0,-1.00006,12.3497929,96.261058)" d="M0 85.04042H113.38724V0Z" fill="#ffbfbf"/>
<path transform="matrix(1.00008,0,0,-1.00006,12.3497929,96.261058)" stroke-width="1.19553" stroke-linecap="butt" stroke-miterlimit="10" stroke-linejoin="miter" fill="none" stroke="#0000ff" d="M0 85.04042H113.38724V0Z"/>
<path transform="matrix(1.00008,0,0,-1.00006,12.3497929,96.261058)" stroke-width="1.19553" stroke-linecap="butt" stroke-miterlimit="10" stroke-linejoin="miter" fill="none" stroke="#0000ff" d="M104.8831 85.04042V76.5363H113.38724"/>
<use data-text="D" xlink:href="#font_1_46" transform="matrix(9.963397,0,0,-9.963197,1.2179031,14.618156)" fill="#0000ff"/>
<use data-text="E" xlink:href="#font_1_49" transform="matrix(9.963397,0,0,-9.963197,122.35359,7.6957476)" fill="#0000ff"/>
<use data-text="F" xlink:href="#font_1_54" transform="matrix(9.963397,0,0,-9.963197,129.26615,99.648258)" fill="#0000ff"/>
<path transform="matrix(1.00008,0,0,-1.00006,12.3497929,96.261058)" stroke-width=".3985" stroke-linecap="butt" stroke-miterlimit="10" stroke-linejoin="miter" fill="none" stroke="#0000ff" d="M8.50412 85.04042C8.50412 83.0413 7.79935 81.10538 6.51445 79.57405"/>
<use data-text="&#x03b1;" xlink:href="#font_2_1" transform="matrix(9.963397,0,0,-9.963197,27.208985,19.030426)" fill="#0000ff"/>
</svg>
