<svg xmlns="http://www.w3.org/2000/svg" xmlns:xlink="http://www.w3.org/1999/xlink" xmlns:inkscape="http://www.inkscape.org/namespaces/inkscape" version="1.1" width="403" height="171" viewBox="0 0 403 171">
<defs>
<path id="font_1_1" d="M.44299317 .50320437C.44299317 .6051483 .41099549 .70410159 .32899476 .70410159 .18899536 .70410159 .039993287 .41127015 .039993287 .19126892 .039993287 .14524842 .049987794-.009765625 .15499878-.009765625 .29100038-.009765625 .44299317 .27627564 .44299317 .50320437M.13999939 .3623047C.15499878 .42126466 .17599488 .50520327 .21598816 .5761566 .24899292 .63612368 .28399659 .6840973 .32798768 .6840973 .36099244 .6840973 .3829956 .6561127 .3829956 .56018069 .3829956 .52420046 .37998963 .4742279 .35099793 .3623047H.13999939M.34399415 .33229066C.31900025 .23426819 .2979889 .17126465 .2619934 .10824585 .23298645 .057235719 .19799805 .010223389 .1559906 .010223389 .125 .010223389 .099990848 .034225465 .099990848 .133255 .099990848 .1982727 .115997318 .26628114 .13198853 .33229066H.34399415Z"/>
<path id="font_2_74" d="M.79599 0V.025985718C.72698977 .025985718 .71598818 .025985718 .71598818 .07096863V.6116333C.71598818 .6566162 .72698977 .6566162 .79599 .6566162V.6826172H.6689911C.647995 .6826172 .6469879 .6816101 .6409912 .6666107L.4249878 .080963138 .20899964 .6666107C.20298767 .6816101 .20199585 .6826172 .18099976 .6826172H.052993776V.6566162C.12199402 .6566162 .1329956 .6566162 .1329956 .6116333V.09794617C.1329956 .07296753 .1329956 .025985718 .052993776 .025985718V0C.07598877 .0019989014 .117996219 .0019989014 .14299011 .0019989014 .16799927 .0019989014 .20999146 .0019989014 .23298645 0V.025985718C.15299988 .025985718 .15299988 .07296753 .15299988 .09794617V.65260317H.1539917L.3889923 .015991211C.3929901 .005996704 .394989 0 .40299989 0 .41099549 0 .41299439 .005996704 .4169922 .015991211L.6539917 .65760806H.6549988V.07096863C.6549988 .025985718 .6439972 .025985718 .57499697 .025985718V0C.60198977 .0019989014 .6559906 .0019989014 .68499758 .0019989014 .71398928 .0019989014 .7689972 .0019989014 .79599 0Z"/>
<path id="font_2_76" d="M.6409912 .6566162V.6826172C.6179962 .680603 .57598879 .680603 .5509949 .680603 .526001 .680603 .48399354 .680603 .46099855 .6826172V.6566162C.54100039 .6566162 .54100039 .6096344 .54100039 .58465579V.12193298L.20498657 .6706085C.19799805 .6816101 .19699097 .6826172 .17799378 .6826172H.050994874V.6566162H.069992069C.10998535 .6566162 .12799073 .6516113 .1309967 .65060427V.09794617C.1309967 .07296753 .1309967 .025985718 .050994874 .025985718V0C.07398987 .0019989014 .115997318 .0019989014 .14099121 .0019989014 .1659851 .0019989014 .20799256 .0019989014 .23098755 0V.025985718C.15098572 .025985718 .15098572 .07296753 .15098572 .09794617V.6366272C.1579895 .6306305 .1579895 .6286316 .16499329 .6186371L.5359955 .011993408C.54299929 0 .54599 0 .5509949 0 .5609894 0 .5609894 .0029907227 .5609894 .021987915V.58465579C.5609894 .6096344 .5609894 .6566162 .6409912 .6566162Z"/>
<path id="font_2_80" d="M.6729889 .34028626C.6729889 .5452423 .526001 .69921877 .3600006 .69921877 .18998719 .69921877 .04598999 .5432434 .04598999 .34028626 .04598999 .1373291 .19198609-.015625 .35899354-.015625 .5299988-.015625 .6729889 .14033509 .6729889 .34028626M.5970001 .35328675C.5970001 .112335208 .46998597 .0023651124 .3600006 .0023651124 .24598694 .0023651124 .12199402 .11633301 .12199402 .35328675 .12199402 .5892334 .2579956 .6812134 .35899354 .6812134 .46499635 .6812134 .5970001 .5862274 .5970001 .35328675Z"/>
<path id="font_2_56" d="M.4169922 .20240784C.4169922 .32240296 .33898927 .41540528 .24198914 .41540528 .19099427 .41540528 .147995 .39640809 .11399841 .3604126V.58535769C.12399292 .5813446 .16499329 .5683594 .20698548 .5683594 .2999878 .5683594 .35099793 .61834719 .37998963 .64723208 .37998963 .6551819 .37998963 .66015627 .37399293 .66015627 .37399293 .66015627 .37098695 .66015627 .36299134 .6561737 .32798768 .64126589 .2869873 .62934878 .23699951 .62934878 .20698548 .62927249 .1619873 .63327029 .11299133 .65527346 .101989749 .66015627 .09899902 .66015627 .09899902 .66015627 .09399414 .66026309 .09298706 .65927127 .09298706 .63926699V.3493805C.09298706 .33137513 .09298706 .3263855 .102996829 .3263855 .10798645 .3263855 .10998535 .3283844 .114990238 .33538819 .14698792 .3804016 .19099427 .39941407 .24099732 .39941407 .27598573 .39941407 .35099793 .37739564 .35099793 .20632935 .35099793 .1743164 .35099793 .11630249 .32099916 .0703125 .29599 .029342652 .25698854 .008361816 .21398926 .008361816 .147995 .008361816 .08099365 .05432129 .06298828 .13130188 .066986087 .13009644 .07499695 .12809754 .07899475 .12809754 .09199524 .12809754 .116989139 .13510132 .116989139 .16609192 .116989139 .19309998 .09799194 .20410156 .07899475 .20410156 .055999757 .20410156 .040985109 .190094 .040985109 .16209412 .040985109 .07521057 .10998535-.015625 .21598816-.015625 .31900025-.015625 .4169922 .07322693 .4169922 .2020874V.20240784Z"/>
<path id="font_2_43" d="M.38398744 .11817932C.38398744 .122177127 .3829956 .1251831 .37599183 .1251831 .36898805 .1251831 .36799623 .124176029 .3639984 .11117554 .33799745 .030181885 .2809906 .010177612 .23799134 .010177612 .17399597 .010177612 .09700012 .06918335 .09700012 .21717835 .09700012 .36930848 .17098999 .42437745 .22999573 .42437745 .2689972 .42437745 .32699586 .40534974 .34899903 .35029603 .32998658 .35029603 .3019867 .35029603 .3019867 .31529237 .3019867 .28729249 .32499696 .27929688 .33799745 .27929688 .34498597 .27931214 .37399293 .28230287 .37399293 .31732179 .37399293 .3883667 .30599977 .4423828 .22898865 .4423828 .12298584 .4423828 .032989503 .3443451 .032989503 .21627808 .032989503 .083221439 .1269989-.0078125 .22898865-.0078125 .35299684-.0078125 .38398744 .10722351 .38398744 .1182251V.11817932Z"/>
<path id="font_2_75" d="M.74398806 0V.025985718C.6799927 .025985718 .6759949 .02999878 .6759949 .06904602V.3043213C.6759949 .35438539 .6669922 .43847657 .5479889 .43847657 .47999574 .43847657 .43299867 .3924408 .4149933 .33836366H.4139862C.4019928 .4204712 .34298707 .43847657 .2869873 .43847657 .20799256 .43847657 .16699219 .3774109 .1519928 .33737184H.15098572V.43847657L.032989503 .4273529V.4013672C.09199524 .4013672 .100997928 .39535523 .100997928 .3473053V.06903076C.100997928 .0309906 .09700012 .025985718 .032989503 .025985718V0C.056991579 .0019989014 .100997928 .0019989014 .1269989 .0019989014 .15299988 .0019989014 .19799805 .0019989014 .22200012 0V.025985718C.1579895 .025985718 .1539917 .02999878 .1539917 .06903076V.26123048C.1539917 .35339356 .20999146 .4224701 .27999879 .4224701 .35398866 .4224701 .3619995 .35638429 .3619995 .30833436V.06904602C.3619995 .03100586 .35798646 .025985718 .2939911 .025985718V0C.31799317 .0019989014 .3619995 .0019989014 .3880005 .0019989014 .4139862 .0019989014 .45899964 .0019989014 .48298646 0V.025985718C.4189911 .025985718 .4149933 .02999878 .4149933 .06904602V.26127626C.4149933 .35339356 .47099305 .4224701 .54100039 .4224701 .61499026 .4224701 .6230011 .35638429 .6230011 .30833436V.06904602C.6230011 .03100586 .61898806 .025985718 .5549927 .025985718V0C.57899478 .0019989014 .6230011 .0019989014 .6489868 .0019989014 .6749878 .0019989014 .7200012 .0019989014 .74398806 0Z"/>
<path id="font_2_82" d="M.38398744 0V.025985718H.35398866C.2679901 .025985718 .2659912 .037002565 .2659912 .073013309V.6391907C.2659912 .66012576 .2649994 .6611328 .25099183 .6611328 .21199036 .6142578 .15299988 .5993042 .09700012 .5973053 .09399414 .5973053 .08898926 .5973053 .08799744 .5953064 .08699036 .5933075 .08699036 .5913086 .08699036 .5703125 .117996219 .5703125 .16999817 .5763092 .20999146 .600296V.073013309C.20999146 .037994386 .20799256 .025985718 .12199402 .025985718H.09199524V0L.23799134 .0019989014 .38398744 0Z"/>
<path id="font_2_107" d="M.4169922 .15492249H.39898683C.3889923 .083969119 .3809967 .07197571 .3769989 .06599426 .37199403 .057998659 .2999878 .057998659 .28599549 .057998659H.09399414L.2849884 .24986267C.34599305 .30781556 .4169922 .37576295 .4169922 .47473146 .4169922 .59298709 .32299806 .6611328 .21798706 .6611328 .10798645 .6611328 .040985109 .5639038 .040985109 .47373963 .040985109 .43473817 .069992069 .42973329 .08198547 .42973329 .09199524 .42973329 .12199402 .43572999 .12199402 .47073365 .12199402 .5017395 .09599304 .5107422 .08198547 .5107422 .07598877 .5107422 .069992069 .5097351 .06599426 .5077362 .084991458 .59298709 .14299011 .63513186 .20399475 .63513186 .29100038 .63513186 .34799195 .5659027 .34799195 .47473146 .34799195 .38775636 .29699708 .31282044 .23999024 .24786377L.040985109 .022994996V0H.3929901L.4169922 .15492249Z"/>
</defs>
<path transform="matrix(1.00003,0,0,-1.00008,43.80391,150.72002)" d="M0 141.73404V0H340.1617Z" fill="#fff200"/>
<path transform="matrix(1.00003,0,0,-1.00008,43.80391,150.72002)" stroke-width="1.19553" stroke-linecap="butt" stroke-miterlimit="10" stroke-linejoin="miter" fill="none" stroke="#000000" d="M0 141.73404V0H340.1617Z"/>
<path transform="matrix(1.00003,0,0,-1.00008,43.80391,150.72002)" stroke-width="1.19553" stroke-linecap="butt" stroke-miterlimit="10" stroke-linejoin="miter" fill="none" stroke="#000000" d="M8.50412 0V8.50412H0"/>
<path transform="matrix(1.00003,0,0,-1.00008,43.80391,150.72002)" stroke-width="1.19553" stroke-linecap="butt" stroke-miterlimit="10" stroke-linejoin="miter" fill="none" stroke="#000000" d="M311.8149 0C311.8149 3.48221 312.73234 6.90569 314.47328 9.92133"/>
<use data-text="&#x03b8;" xlink:href="#font_1_1" transform="matrix(20.66312,0,0,-20.664155,342.11787,149.38991)"/>
<use data-text="M" xlink:href="#font_2_74" transform="matrix(20.66312,0,0,-20.664155,22.720276,16.03125)"/>
<use data-text="N" xlink:href="#font_2_76" transform="matrix(20.66312,0,0,-20.664155,25.96437,168.35343)"/>
<use data-text="O" xlink:href="#font_2_80" transform="matrix(20.66312,0,0,-20.664155,387.49623,168.68445)"/>
<use data-text="5" xlink:href="#font_2_56" transform="matrix(20.66312,0,0,-20.664155,.21760559,86.500888)"/>
<use data-text="c" xlink:href="#font_2_43" transform="matrix(20.66312,0,0,-20.664155,15.921555,86.500888)"/>
<use data-text="m" xlink:href="#font_2_75" transform="matrix(20.66312,0,0,-20.664155,24.310791,86.500888)"/>
<use data-text="1" xlink:href="#font_2_82" transform="matrix(20.66312,0,0,-20.664155,189.11428,167.89939)"/>
<use data-text="2" xlink:href="#font_2_107" transform="matrix(20.66312,0,0,-20.664155,198.59864,167.89939)"/>
<use data-text="c" xlink:href="#font_2_43" transform="matrix(20.66312,0,0,-20.664155,214.3026,167.89939)"/>
<use data-text="m" xlink:href="#font_2_75" transform="matrix(20.66312,0,0,-20.664155,222.69184,167.89939)"/>
</svg>
