<svg xmlns="http://www.w3.org/2000/svg" xmlns:xlink="http://www.w3.org/1999/xlink" xmlns:inkscape="http://www.inkscape.org/namespaces/inkscape" version="1.1" width="376" height="214" viewBox="0 0 376 214">
<defs>
<path id="font_1_2" d="M.16999817 .1111145C.1349945 .05203247 .100997928 .03199768 .052993776 .0289917 .041992189 .027999878 .033996583 .027999878 .033996583 .009994507 .033996583 .0039978029 .038986207 0 .04598999 0 .06399536 0 .10899353 .0019989014 .1269989 .0019989014 .1559906 .0019989014 .18798828 0 .21598816 0 .22200012 0 .23399353 0 .23399353 .018997193 .23399353 .027999878 .22599793 .0289917 .21998596 .0289917 .19699097 .0309906 .17799378 .039001466 .17799378 .06304932 .17799378 .07707214 .18399048 .08808899 .19699097 .11012268L.272995 .23632813H.5279999C.5289917 .22731018 .5289917 .21929932 .5299988 .21028137 .5329895 .18423462 .54499819 .080078128 .54499819 .061050416 .54499819 .0309906 .49398805 .0289917 .47799684 .0289917 .46699525 .0289917 .45599366 .0289917 .45599366 .010986328 .45599366 0 .46499635 0 .47099305 0 .48799134 0 .5079956 .0019989014 .5249939 .0019989014H.58200076C.6429901 .0019989014 .68699648 0 .6879883 0 .69499209 0 .70599368 0 .70599368 .018997193 .70599368 .0289917 .69699099 .0289917 .6819916 .0289917 .6269989 .0289917 .6259918 .038009645 .6230011 .0680542L.56199648 .691864C.55999758 .711853 .55599978 .7138672 .54499819 .7138672 .5349884 .7138672 .5289917 .711853 .519989 .69685366L.16999817 .1111145M.2899933 .26531983 .4909973 .6009674 .5249939 .26531983H.2899933Z"/>
<path id="font_1_3" d="M.3659973 .614624C.375 .6516113 .3789978 .6536102 .41799928 .6536102H.5479889C.6609955 .6536102 .6609955 .5576477 .6609955 .548645 .6609955 .46768189 .5799866 .36471559 .44799806 .36471559H.3039856L.3659973 .614624M.5349884 .35671998C.6439972 .37670899 .7429962 .4526825 .7429962 .5446472 .7429962 .6226196 .673996 .6826172 .5609894 .6826172H.23999024C.22099304 .6826172 .21199036 .6826172 .21199036 .66360476 .21199036 .6536102 .22099304 .6536102 .23599243 .6536102 .29699708 .6536102 .29699708 .6456146 .29699708 .63461306 .29699708 .63261416 .29699708 .62661746 .29299928 .61161807L.1579895 .07395935C.14898682 .038986207 .14698792 .0289917 .07699585 .0289917 .057998659 .0289917 .04798889 .0289917 .04798889 .010986328 .04798889 0 .053985597 0 .07398987 0H.4169922C.56999209 0 .6879883 .11592102 .6879883 .2168274 .6879883 .2987671 .6159973 .34872438 .5349884 .35671998M.3929901 .0289917H.2579956C.24398804 .0289917 .24198914 .0289917 .23599243 .02999878 .22499085 .0309906 .22399903 .032989503 .22399903 .040985109 .22399903 .047973634 .22599793 .053970338 .22799683 .06295776L.2979889 .34472657H.48599244C.60398867 .34472657 .60398867 .2348175 .60398867 .2268219 .60398867 .13090515 .5169983 .0289917 .3929901 .0289917Z"/>
<path id="font_1_4" d="M.746994 .6950989C.746994 .70410159 .73999026 .70410159 .73799136 .70410159 .73599246 .70410159 .7319946 .70410159 .723999 .6940918L.6549988 .6100311C.6199951 .6700897 .5649872 .70410159 .48999024 .70410159 .27398683 .70410159 .049987794 .48492433 .049987794 .24972534 .049987794 .08258057 .16699219-.021484375 .31298829-.021484375 .3929901-.021484375 .46299745 .012512207 .5209961 .061553956 .60798647 .13461304 .6339874 .23170471 .6339874 .23971558 .6339874 .24871826 .6259918 .24871826 .6230011 .24871826 .6139984 .24871826 .61299136 .24272156 .61099246 .2387085 .5649872 .08258057 .42999269 .007507324 .32998658 .007507324 .22399903 .007507324 .13198853 .07556152 .13198853 .21769715 .13198853 .24972534 .14199829 .4238739 .25498963 .5549927 .30999757 .6190491 .4039917 .6750946 .49899293 .6750946 .60899356 .6750946 .6579895 .5840149 .6579895 .48191834 .6579895 .4559021 .6549988 .43388368 .6549988 .42988587 .6549988 .42086793 .6649933 .42086793 .66799929 .42086793 .67900088 .42086793 .6799927 .421875 .6839905 .43989564L.746994 .6950989Z"/>
<path id="font_2_62" d="M.6409912 0V.025985718C.57199099 .025985718 .5609894 .025985718 .5609894 .07096863V.6116333C.5609894 .6566162 .57199099 .6566162 .6409912 .6566162V.6826172C.6119995 .680603 .5589905 .680603 .5279999 .680603 .49699403 .680603 .44400025 .680603 .4149933 .6826172V.6566162C.48399354 .6566162 .49499513 .6566162 .49499513 .6116333V.3677826H.19699097V.6116333C.19699097 .6566162 .20799256 .6566162 .2769928 .6566162V.6826172C.24798584 .680603 .19499207 .680603 .1639862 .680603 .1329956 .680603 .07998657 .680603 .050994874 .6826172V.6566162C.11999512 .6566162 .1309967 .6566162 .1309967 .6116333V.07096863C.1309967 .025985718 .11999512 .025985718 .050994874 .025985718V0C.07998657 .0019989014 .1329956 .0019989014 .1639862 .0019989014 .19499207 .0019989014 .24798584 .0019989014 .2769928 0V.025985718C.20799256 .025985718 .19699097 .025985718 .19699097 .07096863V.34179688H.49499513V.07096863C.49499513 .025985718 .48399354 .025985718 .4149933 .025985718V0C.44400025 .0019989014 .49699403 .0019989014 .5279999 .0019989014 .5589905 .0019989014 .6119995 .0019989014 .6409912 0Z"/>
<path id="font_2_118" d="M.47399903 .40368653V.4296875L.41099549 .42767335C.3899994 .42767335 .35699464 .42767335 .33699037 .4296875V.40368653C.375 .40068055 .37599183 .37269593 .37599183 .36470033 .37599183 .3547058 .37399293 .34970094 .36898805 .33770753L.2599945 .0677948 .14099121 .35969544C.13598633 .37168885 .13598633 .37968446 .13598633 .37968446 .13598633 .40168763 .15899658 .40368653 .18299866 .40368653V.4296875C.15899658 .42767335 .115997318 .42767335 .09098816 .42767335 .06399536 .42767335 .03199768 .42767335 .009994507 .4296875V.40368653C.06399536 .40368653 .069992069 .39868165 .08299255 .36669923L.23199463-.00018310547C.18699646-.1181488 .16099549-.18713379 .09799194-.18713379 .08699036-.18713379 .06199646-.18412781 .04399109-.1661377 .066986087-.1641388 .07699585-.15014649 .07699585-.1331482 .07699585-.1161499 .06498718-.10116577 .04499817-.10116577 .022994996-.10116577 .011993408-.1161499 .011993408-.13415528 .011993408-.1741333 .052993776-.203125 .09799194-.203125 .1559906-.203125 .19198609-.1471405 .21199036-.09716797L.3899994 .34170533C.4149933 .40267945 .45999146 .40368653 .47399903 .40368653Z"/>
<path id="font_2_84" d="M.47698976 .2162323C.47698976 .34222413 .3899994 .43847657 .2869873 .43847657 .22698975 .43847657 .17799378 .4053955 .1499939 .36523438V.43847657L.0309906 .4273529V.4013672C.08999634 .4013672 .09899902 .39533998 .09899902 .347229V-.12591553C.09899902-.16395569 .09498596-.16894531 .0309906-.16894531V-.19494629C.054992677-.19294739 .09899902-.19294739 .125-.19294739 .15098572-.19294739 .19599915-.19294739 .21998596-.19494629V-.16894531C.1559906-.16894531 .1519928-.16494751 .1519928-.12591553V.061187746C.18099976 .019180298 .22299195-.0078125 .27598573-.0078125 .37599183-.0078125 .47698976 .08018494 .47698976 .21620178V.2162323M.41299439 .21520996C.41299439 .10119629 .34899903 .008178711 .269989 .008178711 .23399353 .008178711 .19499207 .025177002 .16499329 .07218933 .1519928 .094192508 .1519928 .10018921 .1519928 .11619568V.31422425C.1519928 .32821656 .1519928 .3492279 .19099427 .38630677 .19599915 .3904724 .22999573 .4204712 .27999879 .4204712 .35299684 .4204712 .41299439 .32946778 .41299439 .21546936V.21520996Z"/>
<path id="font_2_81" d="M.43099977 .21427918C.43099977 .34233094 .33799745 .4423828 .22898865 .4423828 .11999512 .4423828 .026992798 .34233094 .026992798 .21427918 .026992798 .08821106 .11999512-.0078125 .22898865-.0078125 .33799745-.0078125 .43099977 .08821106 .43099977 .21427918M.36698915 .22227478C.36698915 .18325806 .36499024 .12322998 .33799745 .07521057 .30999757 .029190064 .2669983 .010177612 .22898865 .010177612 .18199158 .010177612 .14199829 .03819275 .11898804 .07720947 .09399414 .12223816 .09098816 .17825318 .09098816 .22227478 .09098816 .2642975 .09298706 .3163147 .11898804 .36134339 .13899231 .3943634 .17799378 .42637635 .22898865 .42637635 .27398683 .42637635 .31199647 .4013672 .33599855 .36634828 .36698915 .31932069 .36698915 .2532959 .36698915 .22227478Z"/>
<path id="font_2_105" d="M.30699159 .1240387V.18096924H.2889862V.12503052C.2889862 .056121828 .2619934 .010177612 .21998596 .010177612 .19099427 .010177612 .15098572 .030151368 .15098572 .121032718V.40368653H.29100038V.4296875H.15098572V.6142578H.1329956C.1309967 .51148989 .09599304 .42167665 .010986328 .41967774V.40368653H.09799194V.123031619C.09799194 .10406494 .09799194-.0078125 .21398926-.0078125 .272995-.0078125 .30699159 .050125123 .30699159 .1240387Z"/>
<path id="font_2_50" d="M.3849945 .25134278C.3849945 .35336305 .33099366 .4423828 .21699524 .4423828 .11099243 .4423828 .026992798 .34135438 .026992798 .21833802 .026992798 .08824158 .12199402-.0078125 .22799683-.0078125 .33999635-.0078125 .38398744 .09825134 .38398744 .119262699 .38398744 .12626648 .37599183 .12626648 .37599183 .12626648 .36898805 .12626648 .36799623 .12426758 .3639984 .11225891 .34199525 .044204713 .2869873 .010177612 .23498535 .010177612 .19198609 .010177612 .14898682 .034194948 .12199402 .07823181 .09098816 .12927246 .09098816 .18830872 .09098816 .23535156H.3809967C.3849945 .23934937 .3849945 .24134827 .3849945 .25134278M.33099366 .25035096H.09199524C.09899902 .3943634 .17599488 .42637635 .21598816 .42637635 .28399659 .42637635 .32998658 .36236573 .33099366 .25035096Z"/>
<path id="font_2_77" d="M.48298646 0V.025985718C.4189911 .025985718 .4149933 .02999878 .4149933 .06904602V.3043213C.4149933 .35539247 .40499879 .43847657 .2869873 .43847657 .20799256 .43847657 .16699219 .3774109 .1519928 .33737184H.15098572V.43847657L.032989503 .4273529V.4013672C.09199524 .4013672 .100997928 .39535523 .100997928 .3473053V.06903076C.100997928 .0309906 .09700012 .025985718 .032989503 .025985718V0C.056991579 .0019989014 .100997928 .0019989014 .1269989 .0019989014 .15299988 .0019989014 .19799805 .0019989014 .22200012 0V.025985718C.1579895 .025985718 .1539917 .02999878 .1539917 .06903076V.26123048C.1539917 .35339356 .20999146 .4224701 .27999879 .4224701 .35398866 .4224701 .3619995 .35638429 .3619995 .30833436V.06904602C.3619995 .03100586 .35798646 .025985718 .2939911 .025985718V0C.31799317 .0019989014 .3619995 .0019989014 .3880005 .0019989014 .4139862 .0019989014 .45899964 .0019989014 .48298646 0Z"/>
<path id="font_2_109" d="M.48298646 .00018310547V.026184082C.42399598 .026184082 .4149933 .032180787 .4149933 .080215457V.43847657L.2939911 .42747499V.401474C.35299684 .401474 .3619995 .39546205 .3619995 .34742738V.1652832C.3619995 .081222537 .31698609 .008178711 .24299622 .008178711 .16099549 .008178711 .1539917 .0572052 .1539917 .10923767V.43847657L.032989503 .42747499V.401474C.07299805 .401474 .099990848 .401474 .100997928 .36143495V.16929627C.100997928 .10223389 .100997928 .0592041 .1269989 .031188965 .13999939 .018173218 .16499329-.0078125 .23699951-.0078125 .32199098-.0078125 .35499574 .064208988 .36299134 .08522034H.3639984V-.0078125L.48298646 .00018310547Z"/>
<path id="font_2_98" d="M.33299256 .12454224C.33299256 .17553711 .30599977 .20254517 .29299928 .21453858 .2630005 .24554444 .22799683 .25253297 .18598938 .26054383 .1309967 .27253724 .06098938 .2865448 .06098938 .3474884 .06098938 .37345887 .07499695 .42837525 .17599488 .42837525 .2829895 .42837525 .2889862 .32852174 .29100038 .2965393 .2919922 .29153443 .29699708 .2905426 .2999878 .2905426 .30899049 .2905426 .30899049 .29353334 .30899049 .31054688V.42237855C.30899049 .44039918 .30799867 .44140626 .3019867 .44140626 .2979889 .44140626 .29699708 .44039918 .2849884 .42539979 .28199769 .42140199 .272995 .4113922 .269989 .4073944 .23799134 .44137574 .19299317 .4423828 .17599488 .4423828 .06498718 .4423828 .024993897 .38427735 .024993897 .32617188 .024993897 .23616028 .1269989 .21516419 .1559906 .20916748 .21899414 .19616699 .24099732 .19216919 .2619934 .17416382 .2749939 .16217041 .29699708 .14016724 .29699708 .10417175 .29699708 .062179567 .272995 .008178711 .18099976 .008178711 .09399414 .008178711 .06298828 .07417297 .04499817 .16217041 .041992189 .17599488 .041992189 .1769867 .033996583 .1769867 .025985718 .1769867 .024993897 .17599488 .024993897 .1559906V.011993408C.024993897-.006011963 .025985718-.007003784 .03199768-.007003784 .036987306-.007003784 .037994386-.006011963 .042999269 .0019989014L.069992069 .045181276C.08999634 .018173218 .125-.0078125 .18099976-.0078125 .27999879-.0078125 .33299256 .046173097 .33299256 .124176029V.12454224Z"/>
<path id="font_2_66" d="M.21398926 0V.025985718C.15499878 .025985718 .15299988 .03199768 .15299988 .06803894V.43847657L.037994386 .4273529V.4013672C.09399414 .4013672 .101989749 .39535523 .101989749 .3473053V.06903076C.101989749 .0309906 .09799194 .025985718 .033996583 .025985718V0C.057998659 .0019989014 .100997928 .0019989014 .12599182 .0019989014 .1499939 .0019989014 .19099427 .0019989014 .21398926 0M.16499329 .60446169C.16499329 .62846377 .1459961 .64546206 .125 .64546206 .100997928 .64546206 .083999637 .62646487 .083999637 .60446169 .083999637 .58047488 .102996829 .56347659 .12399292 .56347659 .147995 .56347659 .16499329 .58247378 .16499329 .60446169Z"/>
<path id="font_2_28" d="M.44898988 .08898926V.14498902H.43099977V.08799744C.43099977 .026992798 .4039917 .018997193 .3909912 .018997193 .34999085 .018997193 .34999085 .070999149 .34999085 .114990238V.25898744C.34999085 .32499696 .34999085 .3600006 .30799867 .39898683 .2709961 .43199159 .22799683 .44198609 .19400025 .44198609 .114990238 .44198609 .057998659 .37998963 .057998659 .31399537 .057998659 .2769928 .08799744 .2749939 .09399414 .2749939 .10699463 .2749939 .12998963 .2829895 .12998963 .31098939 .12998963 .33599855 .11099243 .34700013 .09399414 .34700013 .08999634 .34700013 .084991458 .34599305 .08198547 .34498597 .102996829 .4079895 .15699768 .42599488 .19198609 .42599488 .24198914 .42599488 .29699708 .38198854 .29699708 .2979889V.2539978C.23799134 .2519989 .16699219 .24398804 .11099243 .21398926 .04798889 .1789856 .02999878 .1289978 .02999878 .09098816 .02999878 .01399231 .11999512-.008010864 .17298889-.008010864 .22799683-.008010864 .2789917 .022994996 .30099488 .07998657 .30299378 .035995485 .33099366-.0040130617 .375-.0040130617 .3959961-.0040130617 .44898988 .009994507 .44898988 .08898926M.29699708 .13899231C.29699708 .051986696 .23498535 .0079956059 .17999268 .0079956059 .12998963 .0079956059 .09098816 .04499817 .09098816 .09098816 .09098816 .12098694 .10398865 .17399597 .1619873 .20599365 .20999146 .23298645 .2649994 .23699951 .29699708 .23899842V.13899231Z"/>
<path id="font_2_47" d="M.47898866 0V.025985718C.41999818 .025985718 .41099549 .03201294 .41099549 .080078128V.69433596L.2919922 .6826172V.6566162C.35099793 .6566162 .3600006 .65063479 .3600006 .602829V.36943055C.35598756 .37443543 .31498719 .43847657 .23399353 .43847657 .13198853 .43847657 .032989503 .3474121 .032989503 .21533203 .032989503 .084228519 .12599182-.0078125 .22399903-.0078125 .30899049-.0078125 .35299684 .05821228 .35798646 .065216068V-.0078125L.47898866 0M.35798646 .12007141C.35798646 .09007263 .33999635 .063064578 .31698609 .04307556 .2829895 .013183594 .24899292 .008178711 .22999573 .008178711 .20098877 .008178711 .09700012 .02319336 .09700012 .21432495 .09700012 .41046144 .21299744 .4224701 .23899842 .4224701 .2849884 .4224701 .32199098 .39645387 .34498597 .36042787 .35798646 .3394165 .35798646 .33641053 .35798646 .31840516V.12007141Z"/>
<path id="font_2_68" d="M.18199158-.05470276V.43847657L.056991579 .42747499V.401474C.12298584 .401474 .1309967 .3944702 .1309967 .3464508V-.05871582C.1309967-.10871887 .12199402-.18713379 .06298828-.18713379 .055999757-.18713379 .0289917-.18612671 .0069885256-.17201233 .01399231-.17100525 .038986207-.16394043 .038986207-.13572693 .038986207-.11672974 .025985718-.099731449 .0029907227-.099731449-.019012452-.099731449-.03300476-.114730838-.03300476-.13671875-.03300476-.17704773 .010986328-.203125 .06199646-.203125 .1309967-.203125 .18199158-.13975525 .18199158-.05470276M.18199158 .60446169C.18199158 .62846377 .16299439 .64546206 .14199829 .64546206 .117996219 .64546206 .100997928 .62646487 .100997928 .60446169 .100997928 .58047488 .11999512 .56347659 .14099121 .56347659 .16499329 .56347659 .18199158 .58247378 .18199158 .60446169Z"/>
<path id="font_2_43" d="M.38398744 .11817932C.38398744 .122177127 .3829956 .1251831 .37599183 .1251831 .36898805 .1251831 .36799623 .124176029 .3639984 .11117554 .33799745 .030181885 .2809906 .010177612 .23799134 .010177612 .17399597 .010177612 .09700012 .06918335 .09700012 .21717835 .09700012 .36930848 .17098999 .42437745 .22999573 .42437745 .2689972 .42437745 .32699586 .40534974 .34899903 .35029603 .32998658 .35029603 .3019867 .35029603 .3019867 .31529237 .3019867 .28729249 .32499696 .27929688 .33799745 .27929688 .34498597 .27931214 .37399293 .28230287 .37399293 .31732179 .37399293 .3883667 .30599977 .4423828 .22898865 .4423828 .12298584 .4423828 .032989503 .3443451 .032989503 .21627808 .032989503 .083221439 .1269989-.0078125 .22898865-.0078125 .35299684-.0078125 .38398744 .10722351 .38398744 .1182251V.11817932Z"/>
<path id="font_1_1" d="M.44299317 .50320437C.44299317 .6051483 .41099549 .70410159 .32899476 .70410159 .18899536 .70410159 .039993287 .41127015 .039993287 .19126892 .039993287 .14524842 .049987794-.009765625 .15499878-.009765625 .29100038-.009765625 .44299317 .27627564 .44299317 .50320437M.13999939 .3623047C.15499878 .42126466 .17599488 .50520327 .21598816 .5761566 .24899292 .63612368 .28399659 .6840973 .32798768 .6840973 .36099244 .6840973 .3829956 .6561127 .3829956 .56018069 .3829956 .52420046 .37998963 .4742279 .35099793 .3623047H.13999939M.34399415 .33229066C.31900025 .23426819 .2979889 .17126465 .2619934 .10824585 .23298645 .057235719 .19799805 .010223389 .1559906 .010223389 .125 .010223389 .099990848 .034225465 .099990848 .133255 .099990848 .1982727 .115997318 .26628114 .13198853 .33229066H.34399415Z"/>
</defs>
<path transform="matrix(1.00005,0,0,-1.00006,19.30326,190.04863)" d="M0 0H283.4681V170.08086Z" fill="#fff200"/>
<path transform="matrix(1.00005,0,0,-1.00006,19.30326,190.04863)" stroke-width="1.19553" stroke-linecap="butt" stroke-miterlimit="10" stroke-linejoin="miter" fill="none" stroke="#000000" d="M0 0H283.4681V170.08086Z"/>
<use data-text="A" xlink:href="#font_1_2" transform="matrix(20.663533,0,0,-20.66374,.21730805,197.10906)"/>
<use data-text="B" xlink:href="#font_1_3" transform="matrix(20.663533,0,0,-20.66374,306.70359,208.0877)"/>
<use data-text="C" xlink:href="#font_1_4" transform="matrix(20.663533,0,0,-20.66374,306.70359,16.0392)"/>
<path transform="matrix(1.00005,0,0,-1.00006,19.30326,190.04863)" stroke-width=".3985" stroke-linecap="butt" stroke-miterlimit="10" stroke-linejoin="miter" fill="none" stroke="#000000" d="M283.4681 0H260.791V22.6771H283.4681"/>
<path transform="matrix(1.00005,0,0,-1.00006,19.30326,190.04863)" stroke-width=".3985" stroke-linecap="butt" stroke-miterlimit="10" stroke-linejoin="miter" fill="none" stroke="#000000" d="M150.44448 124.18475"/>
<use data-text="H" xlink:href="#font_2_62" transform="matrix(20.663533,0,0,-20.66374,121.24735,70.81548)"/>
<use data-text="y" xlink:href="#font_2_118" transform="matrix(20.663533,0,0,-20.66374,135.56719,70.81548)"/>
<use data-text="p" xlink:href="#font_2_84" transform="matrix(20.663533,0,0,-20.66374,145.58899,70.81548)"/>
<use data-text="o" xlink:href="#font_2_81" transform="matrix(20.663533,0,0,-20.66374,156.68532,70.81548)"/>
<use data-text="t" xlink:href="#font_2_105" transform="matrix(20.663533,0,0,-20.66374,166.16988,70.81548)"/>
<use data-text="e" xlink:href="#font_2_50" transform="matrix(20.663533,0,0,-20.66374,173.48477,70.81548)"/>
<use data-text="n" xlink:href="#font_2_77" transform="matrix(20.663533,0,0,-20.66374,181.87416,70.81548)"/>
<use data-text="u" xlink:href="#font_2_109" transform="matrix(20.663533,0,0,-20.66374,191.91664,70.81548)"/>
<use data-text="s" xlink:href="#font_2_98" transform="matrix(20.663533,0,0,-20.66374,202.47571,70.81548)"/>
<use data-text="e" xlink:href="#font_2_50" transform="matrix(20.663533,0,0,-20.66374,209.8939,70.81548)"/>
<use data-text="o" xlink:href="#font_2_81" transform="matrix(20.663533,0,0,-20.66374,306.3056,109.65281)" fill="#ff0000"/>
<use data-text="p" xlink:href="#font_2_84" transform="matrix(20.663533,0,0,-20.66374,315.79017,109.65281)" fill="#ff0000"/>
<use data-text="p" xlink:href="#font_2_84" transform="matrix(20.663533,0,0,-20.66374,326.34925,109.65281)" fill="#ff0000"/>
<use data-text="o" xlink:href="#font_2_81" transform="matrix(20.663533,0,0,-20.66374,337.44557,109.65281)" fill="#ff0000"/>
<use data-text="s" xlink:href="#font_2_98" transform="matrix(20.663533,0,0,-20.66374,346.9301,109.65281)" fill="#ff0000"/>
<use data-text="i" xlink:href="#font_2_66" transform="matrix(20.663533,0,0,-20.66374,354.34834,109.65281)" fill="#ff0000"/>
<use data-text="t" xlink:href="#font_2_105" transform="matrix(20.663533,0,0,-20.66374,359.51423,109.65281)" fill="#ff0000"/>
<use data-text="e" xlink:href="#font_2_50" transform="matrix(20.663533,0,0,-20.66374,366.8291,109.65281)" fill="#ff0000"/>
<use data-text="a" xlink:href="#font_2_28" transform="matrix(20.663533,0,0,-20.66374,126.370609,207.9097)" fill="#0000ff"/>
<use data-text="d" xlink:href="#font_2_47" transform="matrix(20.663533,0,0,-20.66374,135.85517,207.9097)" fill="#0000ff"/>
<use data-text="j" xlink:href="#font_2_68" transform="matrix(20.663533,0,0,-20.66374,146.41425,207.9097)" fill="#0000ff"/>
<use data-text="a" xlink:href="#font_2_28" transform="matrix(20.663533,0,0,-20.66374,152.11737,207.9097)" fill="#0000ff"/>
<use data-text="c" xlink:href="#font_2_43" transform="matrix(20.663533,0,0,-20.66374,161.60193,207.9097)" fill="#0000ff"/>
<use data-text="e" xlink:href="#font_2_50" transform="matrix(20.663533,0,0,-20.66374,169.99134,207.9097)" fill="#0000ff"/>
<use data-text="n" xlink:href="#font_2_77" transform="matrix(20.663533,0,0,-20.66374,178.38074,207.9097)" fill="#0000ff"/>
<use data-text="t" xlink:href="#font_2_105" transform="matrix(20.663533,0,0,-20.66374,188.42322,207.9097)" fill="#0000ff"/>
<path transform="matrix(1.00005,0,0,-1.00006,19.30326,190.04863)" stroke-width=".3985" stroke-linecap="butt" stroke-miterlimit="10" stroke-linejoin="miter" fill="none" stroke="#000000" d="M45.35504 0C45.35504 7.9594 43.25807 15.78458 39.27872 22.67752"/>
<use data-text="&#x03b8;" xlink:href="#font_1_1" transform="matrix(20.663533,0,0,-20.66374,68.1807,185.88439)"/>
</svg>
