<svg xmlns="http://www.w3.org/2000/svg" xmlns:xlink="http://www.w3.org/1999/xlink" xmlns:inkscape="http://www.inkscape.org/namespaces/inkscape" version="1.1" width="421" height="137" viewBox="0 0 421 137">
<defs>
<path id="font_1_117" d="M.73799136 .6516113V.6826172C.70700076 .680603 .6669922 .6796112 .6399994 .6796112L.5249939 .6826172V.6516113C.56599429 .6516113 .58200076 .63261416 .58200076 .6126251 .58200076 .6016388 .57598879 .5886383 .57199099 .5826416L.40699769 .31481935 .22599793 .6096344C.21899414 .6196289 .21899414 .6216278 .21899414 .62661746 .21899414 .6476135 .24398804 .6516113 .2889862 .6516113V.6826172C.25299073 .6796112 .17999268 .6796112 .14099121 .6796112L.010986328 .6826172V.6516113H.0289917C.09700012 .6516113 .10499573 .64060977 .12098694 .614624L.33099366 .2728424V.07795715C.33099366 .041992189 .32899476 .0309906 .2519989 .0309906H.22799683V0C.2639923 .0029907227 .33499146 .0029907227 .37399293 .0029907227 .41299439 .0029907227 .48399354 .0029907227 .519989 0V.0309906H.49699403C.41999818 .0309906 .4169922 .040985109 .4169922 .079956058V.2728424L.6100006 .5866394C.6469879 .6476135 .70599368 .6516113 .73799136 .6516113Z"/>
<path id="font_1_119" d="M.55999758 .2668457H.5349884C.5269928 .12792969 .5079956 .033996583 .32299806 .033996583H.15899658L.5469971 .6476135C.55400088 .6586151 .55400088 .65960696 .55400088 .6666107 .55400088 .6826172 .5479889 .6826172 .5279999 .6826172H.07998657L.068984989 .45773316H.09399414C.100997928 .57066348 .1309967 .6516113 .29499818 .6516113H.45199586L.06298828 .036987306C.055999757 .025985718 .055999757 .024993897 .055999757 .016998291 .055999757 0 .06098938 0 .08198547 0H.54299929L.55999758 .2668457Z"/>
<path id="font_1_115" d="M.7259979 0V.0309906H.70700076C.6549988 .0309906 .6339874 .035995485 .61299136 .066970828L.4019928 .3857727 .5389862 .5866394C.5609894 .6186218 .59498599 .65060427 .6839905 .6516113V.6826172L.57299807 .6796112C.5329895 .6796112 .4850006 .6796112 .44499208 .6826172V.6516113C.4850006 .65060427 .5069885 .62861636 .5069885 .6056366 .5069885 .5956421 .5049896 .5936432 .49798585 .5826416L.38398744 .41375733 .25498963 .6066284C.25299073 .6096344 .24798584 .61763 .24798584 .6216278 .24798584 .6336212 .269989 .65060427 .31298829 .6516113V.6826172C.27799989 .6796112 .20498657 .6796112 .16699219 .6796112L.036987306 .6826172V.6516113H.055999757C.11099243 .6516113 .12998963 .64460757 .14898682 .6166229L.33299256 .33880616 .16899109 .096954349C.15499878 .07696533 .125 .0309906 .023986817 .0309906V0L.1349945 .0029907227C.17199707 .0029907227 .22698975 .0029907227 .2630005 0V.0309906C.21699524 .03199768 .19999695 .05897522 .19999695 .07696533 .19999695 .08595276 .20298767 .08995056 .20999146 .10095215L.35198976 .31082154 .5099945 .07196045C.5119934 .06796265 .5149994 .063964847 .5149994 .06097412 .5149994 .048980714 .49299623 .03199768 .44999696 .0309906V0C.4850006 .0029907227 .55799868 .0029907227 .59599307 .0029907227L.7259979 0Z"/>
<path id="font_1_82" d="M.4189911 0V.0309906H.3869934C.29699708 .0309906 .2939911 .041992189 .2939911 .07902527V.64012148C.2939911 .6640167 .2939911 .6660156 .2709961 .6660156 .20899964 .60227969 .12098694 .60227969 .08898926 .60227969V.57128909C.10899353 .57128909 .16799927 .57128909 .21998596 .5972748V.07902527C.21998596 .042999269 .21699524 .0309906 .1269989 .0309906H.09498596V0C.12998963 .0029907227 .21699524 .0029907227 .25698854 .0029907227 .29699708 .0029907227 .38398744 .0029907227 .4189911 0Z"/>
<path id="font_1_101" d="M.45700074 .2036438C.45700074 .33070375 .36799623 .4267578 .25698854 .4267578 .18899536 .4267578 .1519928 .37573243 .13198853 .327713V.35173036C.13198853 .6047821 .2559967 .64100649 .30699159 .64100649 .33099366 .64100649 .37298585 .634964 .394989 .6007538 .37998963 .6007538 .33999635 .6007538 .33999635 .5557556 .33999635 .524765 .3639984 .5097656 .38598634 .5097656 .4019928 .5097656 .43199159 .51875308 .43199159 .5577545 .43199159 .6178589 .3880005 .6660156 .30499269 .6660156 .1769867 .6660156 .041992189 .5367584 .041992189 .31570436 .041992189 .048553468 .1579895-.022460938 .25099183-.022460938 .3619995-.022460938 .45700074 .07156372 .45700074 .2036438M.36698915 .20463562C.36698915 .15661621 .36698915 .10658264 .34999085 .0705719 .31999208 .010528564 .27398683 .0055389406 .25099183 .0055389406 .18798828 .0055389406 .1579895 .06556702 .1519928 .080566409 .13398743 .127594 .13398743 .2076416 .13398743 .22564698 .13398743 .30369569 .1659851 .40374757 .2559967 .40374757 .27198792 .40374757 .31799317 .40374757 .34899903 .34172059 .36698915 .30470277 .36698915 .2536621 .36698915 .20463562Z"/>
<path id="font_1_43" d="M.4149933 .119140628C.4149933 .12911988 .40499879 .12911988 .4019928 .12911988 .3929901 .12911988 .3909912 .12512207 .3889923 .119140628 .3600006 .026229859 .29499818 .014251709 .2579956 .014251709 .20498657 .014251709 .116989139 .0572052 .116989139 .21801758 .116989139 .38093568 .19898987 .42323304 .2519989 .42323304 .26098634 .42323304 .32398988 .42222596 .35899354 .38594056 .31799317 .38293458 .31199647 .3529358 .31199647 .3399353 .31199647 .31393434 .32998658 .2939453 .35798646 .2939453 .38398744 .2939453 .4039917 .3109436 .4039917 .34094239 .4039917 .40911866 .32798768 .4482422 .25099183 .4482422 .12599182 .4482422 .033996583 .3399353 .033996583 .21601868 .033996583 .08816528 .1329956-.0107421879 .24899292-.0107421879 .3829956-.0107421879 .4149933 .10914612 .4149933 .119140628Z"/>
<path id="font_1_75" d="M.8129883 0V.0309906C.7609863 .0309906 .73599246 .0309906 .7350006 .061019899V.25221253C.7350006 .3383026 .7350006 .36932374 .70399478 .405365 .6899872 .42237855 .6569977 .4423828 .598999 .4423828 .5149994 .4423828 .47099305 .38233949 .45399476 .34429933 .43998719 .43138124 .3659973 .4423828 .32099916 .4423828 .24798584 .4423828 .20098877 .39935304 .17298889 .33729554V.4423828L.03199768 .43066407V.3996582C.101989749 .3996582 .10998535 .39266969 .10998535 .34370423V.07595825C.10998535 .0309906 .09899902 .0309906 .03199768 .0309906V0L.14498902 .0029907227 .25698854 0V.0309906C.18998719 .0309906 .1789856 .0309906 .1789856 .07595825V.25978089C.1789856 .36431886 .25 .42037965 .31399537 .42037965 .3769989 .42037965 .3880005 .36631776 .3880005 .30926515V.076034549C.3880005 .0309906 .3769989 .0309906 .30999757 .0309906V0L.4229889 .0029907227 .5349884 0V.0309906C.46798707 .0309906 .45700074 .0309906 .45700074 .076034549V.2602234C.45700074 .36431886 .5279999 .42037965 .59199526 .42037965 .6549988 .42037965 .66600039 .36631776 .66600039 .30926515V.076034549C.66600039 .0309906 .6549988 .0309906 .58799746 .0309906V0L.70098879 .0029907227 .8129883 0Z"/>
<path id="font_1_107" d="M.44898988 .17396546H.42399598C.4189911 .14398194 .4119873 .099990848 .4019928 .084991458 .394989 .07699585 .32899476 .07699585 .30699159 .07699585H.1269989L.23298645 .17996216C.3889923 .31803895 .44898988 .37210084 .44898988 .47216798 .44898988 .5860901 .35899354 .6660156 .23699951 .6660156 .12399292 .6660156 .049987794 .57411196 .049987794 .48516847 .049987794 .4291687 .099990848 .4291687 .102996829 .4291687 .11999512 .4291687 .15499878 .44117738 .15499878 .48217774 .15499878 .5081787 .13699341 .5341797 .101989749 .5341797 .09399414 .5341797 .09199524 .5341797 .08898926 .5331726 .11199951 .59806826 .1659851 .63500979 .22399903 .63500979 .31498719 .63500979 .35798646 .5541382 .35798646 .47216798 .35798646 .39196778 .30799867 .31297303 .25299073 .25097657L.06098938 .036987306C.049987794 .025985718 .049987794 .023986817 .049987794 0H.42099L.44898988 .17396546Z"/>
<path id="font_1_57" d="M.47099305 .16503906V.19602967H.37098695V.6507721C.37098695 .6707611 .37098695 .6767578 .35499574 .6767578 .34599305 .6767578 .34298707 .6767578 .33499146 .6647644L.027999878 .19602967V.16503906H.2939911V.07800293C.2939911 .041992189 .2919922 .0309906 .21798706 .0309906H.19699097V0C.23799134 .0029907227 .2899933 .0029907227 .33198548 .0029907227 .37399293 .0029907227 .4269867 .0029907227 .46798707 0V.0309906H.44699098C.37298585 .0309906 .37098695 .041992189 .37098695 .07800293V.16503906H.47099305M.2999878 .19602967H.055999757L.2999878 .56881716V.19602967Z"/>
<path id="font_2_4" d="M.48999024 .60954287C.49899293 .62054446 .49899293 .62254336 .49899293 .6435547H.25C.12399292 .6435547 .12098694 .6565399 .117996219 .67555239H.08999634L.056991579 .46655274H.084991458C.08898926 .48954774 .09700012 .5455475 .10998535 .55755618 .116989139 .56355288 .19599915 .56355288 .20999146 .56355288H.41999818L.32398988 .4325409C.19400025 .25354005 .18199158 .090530399 .18199158 .03353882 .18199158 .022537232 .18199158-.022460938 .22799683-.022460938 .2749939-.022460938 .2749939 .021530152 .2749939 .03453064V.08352661C.2749939 .23054505 .29699708 .34654237 .34999085 .41854859L.48999024 .60954287Z"/>
<path id="font_2_2" d="M.46199037 .17704773H.43399049C.43199159 .16404724 .42399598 .10501099 .41099549 .08900452 .40499879 .07998657 .33599855 .07998657 .31599427 .07998657H.13798523L.23699951 .17404175C.40098573 .3161316 .46199037 .36915589 .46199037 .4711914 .46199037 .5860901 .36698915 .6660156 .24398804 .6660156 .1289978 .6660156 .050994874 .575119 .050994874 .4841919 .050994874 .43418885 .09399414 .42919923 .102996829 .42919923 .125 .42919923 .15499878 .44519044 .15499878 .48120118 .15499878 .51119998 .13398743 .5332031 .102996829 .5332031 .09799194 .5332031 .09498596 .5332031 .09098816 .53219607 .114990238 .6030731 .1789856 .63500979 .23298645 .63500979 .33499146 .63500979 .36999513 .5401764 .36999513 .4711914 .36999513 .36915589 .29299928 .28611756 .24499512 .23408509L.06199646 .035995485C.050994874 .024993897 .050994874 .022994996 .050994874 0H.43399049L.46199037 .17704773Z"/>
<path id="font_3_1" d="M.54499819 .25C.54499819 .3768463 .44299317 .47679139 .31900025 .47679139 .19499207 .47679139 .09298706 .3758545 .09298706 .25 .09298706 .12313843 .19499207 .02319336 .31900025 .02319336 .44299317 .02319336 .54499819 .12413025 .54499819 .25M.31900025 .07519531C.22299195 .07519531 .14498902 .15209961 .14498902 .25 .14498902 .34788514 .22299195 .4248047 .31900025 .4248047 .4149933 .4248047 .49299623 .34788514 .49299623 .25 .49299623 .15209961 .4149933 .07519531 .31900025 .07519531Z"/>
<path id="font_2_3" d="M.13398743 .33073426C.13398743 .43276979 .14498902 .4897766 .17199707 .54177859 .19198609 .58277896 .24099732 .64100649 .31498719 .64100649 .33499146 .64100649 .3809967 .63697817 .4039917 .6007843 .36698915 .6007843 .35099793 .5817871 .35099793 .55477908 .35099793 .5287781 .36898805 .50878909 .39698792 .50878909 .4249878 .50878909 .44400025 .5267792 .44400025 .55677798 .44400025 .612854 .4039917 .6660156 .31298829 .6660156 .18399048 .6660156 .042999269 .53878787 .042999269 .3157196 .042999269 .044555665 .16499329-.022460938 .25898744-.022460938 .36999513-.022460938 .46998597 .0705719 .46998597 .20265198 .46998597 .32972718 .37799073 .42578126 .2649994 .42578126 .20498657 .42578126 .1619873 .39076234 .13398743 .33073426M.2579956 .0055389406C.20098877 .0055389406 .16799927 .05256653 .1559906 .08157349 .13699341 .12660218 .13598633 .20965576 .13598633 .22566223 .13598633 .29270936 .16699219 .4007721 .2630005 .4007721 .2789917 .4007721 .32798768 .4007721 .3600006 .33872987 .3789978 .30070497 .3789978 .25167848 .3789978 .20365906 .3789978 .15562439 .3789978 .1065979 .3600006 .06956482 .32899476 .012542725 .2849884 .0055389406 .2579956 .0055389406Z"/>
<path id="font_2_1" d="M.3039856 .6392822C.3039856 .6642761 .30299378 .666275 .27799989 .666275 .21598816 .60227969 .12399292 .60227969 .09298706 .60227969V.57128909C.11199951 .57128909 .17298889 .57128909 .22698975 .5972748V.08001709C.22698975 .042999269 .22399903 .0309906 .1309967 .0309906H.09899902V0C.1349945 .0029907227 .22399903 .0029907227 .2649994 .0029907227 .30599977 .0029907227 .3959961 .0029907227 .43199159 0V.0309906H.3999939C.30699159 .0309906 .3039856 .042999269 .3039856 .08001709V.6392822Z"/>
<path id="font_1_83" d="M.6239929 .4967041C.6239929 .59465029 .5249939 .6826172 .3880005 .6826172H.034988405V.6516113H.05899048C.13598633 .6516113 .13798523 .64060977 .13798523 .6046295V.07795715C.13798523 .041992189 .13598633 .0309906 .05899048 .0309906H.034988405V0C.069992069 .0029907227 .14399719 .0029907227 .18199158 .0029907227 .21998596 .0029907227 .29499818 .0029907227 .32998658 0V.0309906H.30599977C.22898865 .0309906 .22698975 .041992189 .22698975 .07795715V.3157959H.3959961C.5159912 .3157959 .6239929 .39675904 .6239929 .4967041M.5209961 .4967041C.5209961 .4497223 .5209961 .34179688 .3619995 .34179688H.22399903V.6116333C.22399903 .64460757 .22599793 .6516113 .272995 .6516113H.3619995C.5209961 .6516113 .5209961 .54566958 .5209961 .4967041Z"/>
<path id="font_1_90" d="M.72698977-.010345459C.72698977-.00033569337 .72698977 .010650635 .71598818 .010650635 .70700076 .010650635 .70599368 .0026550294 .7049866-.0073394777 .69898989-.061340333 .6569977-.09133911 .6139984-.09133911 .5669861-.09133911 .5419922-.05734253 .5179901 .006652832 .6359863 .059570314 .72099307 .1876831 .72099307 .3387909 .72099307 .5429535 .56999209 .7050781 .3880005 .7050781 .20899964 .7050781 .055999757 .54496768 .055999757 .3387909 .055999757 .13664246 .20698548-.022460938 .3889923-.022460938 .41999818-.022460938 .45498658-.016464234 .48399354-.007461548 .49899293-.1023407 .5130005-.19433594 .60598757-.19433594 .70799258-.1945343 .72698977-.061538698 .72698977-.010528564V-.010345459M.62098696 .33866883C.62098696 .2605896 .60899356 .11946106 .5029907 .04147339 .48098756 .097457889 .44898988 .14746094 .3899994 .14746094 .33898927 .14746094 .30799867 .10446167 .30799867 .06347656 .30799867 .036468507 .32099916 .017471314 .32199098 .015472412 .2679901 .035461427 .1559906 .10845947 .1559906 .33866883 .1559906 .59898379 .29599 .68006899 .3880005 .68006899 .4850006 .6794586 .62098696 .5934601 .62098696 .3384552V.33866883M.47698976 .025497437C.44299317 .0065307619 .41099549 .002532959 .3889923 .002532959 .33799745 .002532959 .32998658 .048461915 .32998658 .06347656 .32998658 .09246826 .35099793 .12545777 .3899994 .12545777 .44400025 .12545777 .46598817 .083465579 .47698976 .025497437Z"/>
<path id="font_1_95" d="M.7319946 .08753967C.7319946 .09353638 .7319946 .104537967 .71899417 .104537967 .70799258 .104537967 .70799258 .09555054 .70700076 .08854675 .70098879 .017532349 .66600039-.00047302247 .6409912-.00047302247 .59199526-.00047302247 .58399966 .05053711 .56999209 .14355469L.5569916 .22355652C.5389862 .28756715 .48999024 .3205719 .43499757 .3395691 .5319977 .36357118 .6100006 .4245758 .6100006 .502594 .6100006 .5986023 .49598695 .6826172 .34899903 .6826172H.034988405V.6516113H.05899048C.13598633 .6516113 .13798523 .64060977 .13798523 .604599V.077545169C.13798523 .04197693 .13598633 .0309906 .05899048 .0309906H.034988405V0C.070999149 .0029907227 .14199829 .0029907227 .18099976 .0029907227 .21998596 .0029907227 .29100038 .0029907227 .32699586 0V.0309906H.30299378C.22599793 .0309906 .22399903 .04197693 .22399903 .077926639V.3305359H.33898927C.35499574 .3305359 .39698792 .3305359 .43199159 .29658509 .46998597 .26063539 .46998597 .22969055 .46998597 .16279602 .46998597 .09788513 .46998597 .05795288 .5109863 .019989014 .5519867-.016464234 .6069946-.022460938 .6369934-.022460938 .71499636-.022460938 .7319946 .059524537 .7319946 .087524417V.08753967M.5069885 .5025635C.5069885 .43354798 .48298646 .35253907 .33499146 .35253907H.22399903V.6116028C.22399903 .6345978 .22399903 .64660647 .24598694 .6496124 .2559967 .6516113 .2849884 .6516113 .30499269 .6516113 .394989 .6516113 .5069885 .6476135 .5069885 .5025635Z"/>
<path id="font_1_121" d="M.45999146 .31976319C.45999146 .39982606 .45498658 .47988893 .41999818 .5539398 .37399293 .65000918 .2919922 .6660156 .25 .6660156 .18998719 .6660156 .116989139 .64001467 .07598877 .54693606 .04399109 .47789 .038986207 .39982606 .038986207 .31976319 .038986207 .24472046 .042999269 .15464783 .083999637 .07859802 .1269989-.0024719239 .19999695-.022460938 .24899292-.022460938 .30299378-.022460938 .3789978-.0014648438 .4229889 .09359741 .45498658 .16265869 .45999146 .2407074 .45999146 .31976319M.3769989 .3317871C.3769989 .25672914 .3769989 .18867493 .3659973 .12461853 .35099793 .029556275 .2939911-.00047302247 .24899292-.00047302247 .20999146-.00047302247 .15098572 .024551392 .1329956 .12062073 .12199402 .18066406 .12199402 .2727356 .12199402 .3317871 .12199402 .39582826 .12199402 .46188355 .12998963 .5159149 .14898682 .63500979 .22399903 .64401248 .24899292 .64401248 .28199769 .64401248 .34799195 .6259918 .36698915 .52693179 .3769989 .47088624 .3769989 .39482118 .3769989 .3317871Z"/>
</defs>
<path transform="matrix(1.00005,0,0,-1.00003,12.209854,124.853389)" d="M0 0H141.73404L56.69362 99.21382Z" fill="#b3b3ff"/>
<path transform="matrix(1.00005,0,0,-1.00003,12.209854,124.853389)" stroke-width=".79701" stroke-linecap="butt" stroke-miterlimit="10" stroke-linejoin="miter" fill="none" stroke="#0000ff" d="M0 0H141.73404L56.69362 99.21382Z"/>
<use data-text="Y" xlink:href="#font_1_117" transform="matrix(9.963098,0,0,-9.962899,1.217308,128.2555)"/>
<use data-text="Z" xlink:href="#font_1_119" transform="matrix(9.963098,0,0,-9.962899,157.4711,128.2555)"/>
<use data-text="X" xlink:href="#font_1_115" transform="matrix(9.963098,0,0,-9.962899,65.1705,22.116295)"/>
<use data-text="1" xlink:href="#font_1_82" transform="matrix(9.963098,0,0,-9.962899,70.07875,135.0087)"/>
<use data-text="6" xlink:href="#font_1_101" transform="matrix(9.963098,0,0,-9.962899,75.0603,135.0087)"/>
<use data-text="c" xlink:href="#font_1_43" transform="matrix(9.963098,0,0,-9.962899,83.349597,135.0087)"/>
<use data-text="m" xlink:href="#font_1_75" transform="matrix(9.963098,0,0,-9.962899,87.77321,135.0087)"/>
<use data-text="1" xlink:href="#font_1_82" transform="matrix(9.963098,0,0,-9.962899,11.033798,71.42078)"/>
<use data-text="2" xlink:href="#font_1_107" transform="matrix(9.963098,0,0,-9.962899,16.01535,71.42078)"/>
<use data-text="c" xlink:href="#font_1_43" transform="matrix(9.963098,0,0,-9.962899,24.30465,71.42078)"/>
<use data-text="m" xlink:href="#font_1_75" transform="matrix(9.963098,0,0,-9.962899,28.728264,71.42078)"/>
<use data-text="1" xlink:href="#font_1_82" transform="matrix(9.963098,0,0,-9.962899,114.94899,71.475788)"/>
<use data-text="4" xlink:href="#font_1_57" transform="matrix(9.963098,0,0,-9.962899,119.93054,71.475788)"/>
<use data-text="c" xlink:href="#font_1_43" transform="matrix(9.963098,0,0,-9.962899,128.21985,71.475788)"/>
<use data-text="m" xlink:href="#font_1_75" transform="matrix(9.963098,0,0,-9.962899,132.64347,71.475788)"/>
<path transform="matrix(1.00005,0,0,-1.00003,12.209854,124.853389)" stroke-width=".79701" stroke-linecap="butt" stroke-miterlimit="10" stroke-linejoin="miter" fill="none" stroke="#000000" d="M22.67752 0C22.67752 7.95941 18.50244 15.33887 11.67993 19.43832"/>
<use data-text="7" xlink:href="#font_2_4" transform="matrix(8.966848,0,0,-8.966669,39.461217,119.67923)"/>
<use data-text="2" xlink:href="#font_2_2" transform="matrix(8.966848,0,0,-8.966669,44.061216,119.67923)"/>
<use data-text="&#x25e6;" xlink:href="#font_3_1" transform="matrix(5.9778988,0,0,-5.97778,48.676679,115.87012)"/>
<path transform="matrix(1.00005,0,0,-1.00003,12.209854,124.853389)" stroke-width=".79701" stroke-linecap="butt" stroke-miterlimit="10" stroke-linejoin="miter" fill="none" stroke="#000000" d="M119.0565 0C119.0565 6.56386 121.90222 12.80873 126.85606 17.11507"/>
<use data-text="6" xlink:href="#font_2_3" transform="matrix(8.966848,0,0,-8.966669,113.1669,119.67923)"/>
<use data-text="1" xlink:href="#font_2_1" transform="matrix(8.966848,0,0,-8.966669,117.7669,119.67923)"/>
<use data-text="&#x25e6;" xlink:href="#font_3_1" transform="matrix(5.9778988,0,0,-5.97778,122.38236,115.87012)"/>
<path transform="matrix(1.00005,0,0,-1.00003,12.209854,124.853389)" d="M226.77448 0H396.85533L311.8149 113.38724Z" fill="#ffb3b3"/>
<path transform="matrix(1.00005,0,0,-1.00003,12.209854,124.853389)" stroke-width=".79701" stroke-linecap="butt" stroke-miterlimit="10" stroke-linejoin="miter" fill="none" stroke="#ff0000" d="M226.77448 0H396.85533L311.8149 113.38724Z"/>
<use data-text="P" xlink:href="#font_1_83" transform="matrix(9.963098,0,0,-9.962899,228.69068,128.2555)"/>
<use data-text="Q" xlink:href="#font_1_90" transform="matrix(9.963098,0,0,-9.962899,412.60487,127.39846)"/>
<use data-text="R" xlink:href="#font_1_95" transform="matrix(9.963098,0,0,-9.962899,320.3742,7.7238695)"/>
<use data-text="4" xlink:href="#font_1_57" transform="matrix(9.963098,0,0,-9.962899,311.03779,135.1187)"/>
<use data-text="0" xlink:href="#font_1_121" transform="matrix(9.963098,0,0,-9.962899,316.01933,135.1187)"/>
<use data-text="c" xlink:href="#font_1_43" transform="matrix(9.963098,0,0,-9.962899,324.30863,135.1187)"/>
<use data-text="m" xlink:href="#font_1_75" transform="matrix(9.963098,0,0,-9.962899,328.73225,135.1187)"/>
</svg>
