<svg xmlns="http://www.w3.org/2000/svg" xmlns:xlink="http://www.w3.org/1999/xlink" xmlns:inkscape="http://www.inkscape.org/namespaces/inkscape" version="1.1" width="164" height="225" viewBox="0 0 164 225">
<defs>
<path id="font_1_2" d="M.08799744 .059265138C.084991458 .044265748 .07899475 .021255494 .07899475 .01625061 .07899475-.0017547608 .09298706-.0107421879 .10798645-.0107421879 .11999512-.0107421879 .13798523-.002746582 .14498902 .01725769 .14698792 .021255494 .18099976 .15730286 .18499756 .17530823 .19299317 .20831299 .21099854 .27833558 .21699524 .30534364 .22099304 .31835938 .24899292 .36535646 .272995 .38734437 .2809906 .39434815 .30999757 .42037965 .35299684 .42037965 .3789978 .42037965 .3939972 .4083557 .394989 .4083557 .36499024 .40335084 .34298707 .37934876 .34298707 .35334779 .34298707 .33735658 .35398866 .31835938 .3809967 .31835938 .4079895 .31835938 .43598939 .34135438 .43598939 .37734986 .43598939 .41235353 .4039917 .4423828 .35299684 .4423828 .28799439 .4423828 .24398804 .39335633 .22499085 .36535646 .21699524 .4103546 .18099976 .4423828 .13398743 .4423828 .08799744 .4423828 .068984989 .40335084 .05999756 .38534547 .041992189 .35134889 .0289917 .29133607 .0289917 .28834535 .0289917 .27833558 .038986207 .27833558 .040985109 .27833558 .050994874 .27833558 .051986696 .27934266 .057998659 .30134584 .07499695 .37234498 .09498596 .42037965 .1309967 .42037965 .147995 .42037965 .1619873 .41235353 .1619873 .37435914 .1619873 .35334779 .15899658 .3423462 .1459961 .29034425L.08799744 .059265138Z"/>
<path id="font_1_1" d="M.2869873 .68333438C.2869873 .6843262 .2869873 .69433596 .27398683 .69433596 .25099183 .69433596 .17799378 .6863251 .1519928 .6843262 .14399719 .68333438 .1329956 .6823273 .1329956 .6643219 .1329956 .6523285 .14199829 .6523285 .15699768 .6523285 .20498657 .6523285 .20698548 .6453247 .20698548 .6353302L.20399475 .6153412 .05899048 .039260866C.054992677 .025253296 .054992677 .023254395 .054992677 .01725769 .054992677-.0057525637 .07499695-.0107421879 .083999637-.0107421879 .099990848-.0107421879 .115997318 .0012512207 .12098694 .015258789L.13999939 .091278079 .1619873 .18130493C.16799927 .2033081 .17399597 .22531128 .1789856 .24832154 .18099976 .25431825 .18899536 .28733827 .18998719 .29333497 .19299317 .30233766 .22399903 .35835267 .2579956 .38536073 .27999879 .4013672 .31098939 .42037965 .35398866 .42037965 .39698792 .42037965 .4079895 .3863678 .4079895 .35035707 .4079895 .29634095 .36999513 .18730164 .34599305 .12628174 .33799745 .103271488 .33299256 .091278079 .33299256 .0712738 .33299256 .024261475 .36799623-.0107421879 .4149933-.0107421879 .5089874-.0107421879 .54599 .13528443 .54599 .14329529 .54599 .1532898 .5369873 .1532898 .5339966 .1532898 .5239868 .1532898 .5239868 .15029907 .5189972 .13528443 .5039978 .08227539 .47200013 .011245728 .4169922 .011245728 .3999939 .011245728 .3929901 .021255494 .3929901 .044265748 .3929901 .0692749 .4019928 .09327698 .41099549 .11528015 .4269867 .15829468 .47200013 .2773285 .47200013 .3353424 .47200013 .4003601 .43199159 .4423828 .35699464 .4423828 .2939911 .4423828 .24598694 .41137696 .20899964 .36535646L.2869873 .68333438Z"/>
<path id="font_2_1" d="M.33499146 .63612368C.33499146 .6630554 .33299256 .6640625 .30499269 .6640625 .24099732 .6014404 .1499939 .6004486 .10899353 .6004486V.5644531C.1329956 .5644531 .19898987 .5644531 .2539978 .592453V.08203125C.2539978 .04899597 .2539978 .035995485 .1539917 .035995485H.115997318V0C.13398743 .0009918213 .25698854 .0039978029 .2939911 .0039978029 .32499696 .0039978029 .45098878 .0009918213 .47299195 0V.035995485H.43499757C.33499146 .035995485 .33499146 .04899597 .33499146 .08203125V.63612368Z"/>
<path id="font_2_2" d="M.5049896 .18203736H.47099305C.46798707 .16001892 .45799256 .100997928 .44499208 .09098816 .43699647 .084991458 .3600006 .084991458 .34599305 .084991458H.1619873C.2669983 .17803955 .3019867 .20603943 .3619995 .25306703 .43598939 .312088 .5049896 .374115 .5049896 .46914674 .5049896 .5900879 .39898683 .6640625 .2709961 .6640625 .14698792 .6640625 .06298828 .57710269 .06298828 .4851532 .06298828 .43414308 .10598755 .42915345 .115997318 .42915345 .13999939 .42915345 .16899109 .44615174 .16899109 .48214723 .16899109 .5001526 .1619873 .53515627 .10998535 .53515627 .14099121 .6060791 .20899964 .62805178 .2559967 .62805178 .35598756 .62805178 .4079895 .5501404 .4079895 .46914674 .4079895 .38212586 .34599305 .3130951 .31399537 .27708436L.07299805 .038986207C.06298828 .02999878 .06298828 .027999878 .06298828 0H.47499085L.5049896 .18203736Z"/>
</defs>
<g>
<path transform="matrix(1.00008,0,0,-1.00006,105.826038,87.04326)" d="M56.69362 0C56.69362 0 55.81499 10.73972 54.76103 14.67253 53.70708 18.60535 51.13327 24.8189 49.09737 28.34506 47.06146 31.87125 42.9667 37.20752 40.08762 40.08675 37.20851 42.96597 31.87297 47.06061 28.3468 49.09651 24.82063 51.13243 18.60635 53.7062 14.6734 54.76016 10.74045 55.81412 4.0723 56.69264 .00084 56.69275-4.0706 56.69286-10.738 55.81474-14.6708 54.76103-18.60362 53.70732-24.81792 51.1339-28.34421 49.09824-31.87048 47.06256-37.20665 42.96832-40.08588 40.08934-42.9651 37.21036-47.05963 31.8747-49.09564 28.34853-51.13167 24.82234-53.70609 18.60806-54.76016 14.67513-55.81424 10.7422-56.69252 4.07404-56.69275 .00258-56.69298-4.06886-55.8155-10.73615-54.7619-14.66908-53.7083-18.60202-51.13477-24.81694-49.0991-28.34334-47.06343-31.86974-42.96918-37.20567-40.0902-40.085-37.21121-42.96434-31.87555-47.05951-28.34938-49.09564-24.82323-51.13179-18.60881-53.70609-14.676-54.76016-10.74318-55.81424-4.07576-56.69252-.0043-56.69275 4.06712-56.69298 10.73515-55.8155 14.66821-54.7619 18.60127-53.7083 24.8162-51.13464 28.34247-49.0991 31.86874-47.06355 37.20395-42.96992 40.08328-40.09106 42.9626-37.2122 47.05852-31.8763 49.09479-28.35025 51.13104-24.82422 53.7051-18.61055 54.7593-14.67773 55.81349-10.74492 56.69275-.00517 56.69275-.00517" fill="#9cdcf9" fill-opacity=".75"/>
<path transform="matrix(1.00008,0,0,-1.00006,105.826038,87.04326)" stroke-width=".79701" stroke-linecap="butt" stroke-miterlimit="10" stroke-linejoin="miter" fill="none" stroke="#000000" stroke-opacity=".75" d="M56.69362 0C56.69362 0 55.81499 10.73972 54.76103 14.67253 53.70708 18.60535 51.13327 24.8189 49.09737 28.34506 47.06146 31.87125 42.9667 37.20752 40.08762 40.08675 37.20851 42.96597 31.87297 47.06061 28.3468 49.09651 24.82063 51.13243 18.60635 53.7062 14.6734 54.76016 10.74045 55.81412 4.0723 56.69264 .00084 56.69275-4.0706 56.69286-10.738 55.81474-14.6708 54.76103-18.60362 53.70732-24.81792 51.1339-28.34421 49.09824-31.87048 47.06256-37.20665 42.96832-40.08588 40.08934-42.9651 37.21036-47.05963 31.8747-49.09564 28.34853-51.13167 24.82234-53.70609 18.60806-54.76016 14.67513-55.81424 10.7422-56.69252 4.07404-56.69275 .00258-56.69298-4.06886-55.8155-10.73615-54.7619-14.66908-53.7083-18.60202-51.13477-24.81694-49.0991-28.34334-47.06343-31.86974-42.96918-37.20567-40.0902-40.085-37.21121-42.96434-31.87555-47.05951-28.34938-49.09564-24.82323-51.13179-18.60881-53.70609-14.676-54.76016-10.74318-55.81424-4.07576-56.69252-.0043-56.69275 4.06712-56.69298 10.73515-55.8155 14.66821-54.7619 18.60127-53.7083 24.8162-51.13464 28.34247-49.0991 31.86874-47.06355 37.20395-42.96992 40.08328-40.09106 42.9626-37.2122 47.05852-31.8763 49.09479-28.35025 51.13104-24.82422 53.7051-18.61055 54.7593-14.67773 55.81349-10.74492 56.69275-.00517 56.69275-.00517"/>
</g>
<path transform="matrix(1.00008,0,0,-1.00006,105.826038,87.04326)" stroke-width=".79701" stroke-linecap="butt" stroke-dasharray="2.98883,2.98883" stroke-miterlimit="10" stroke-linejoin="miter" fill="none" stroke="#ff0000" d="M0 56.69275C0 56.69275-5.36331 56.47371-7.39897 56.2057-9.43465 55.9377-12.68848 55.29239-14.67168 54.76103-16.65489 54.22968-19.7956 53.16171-21.69263 52.376-23.58965 51.5903-26.566 50.1247-28.34421 49.09824-30.1224 48.07176-32.8796 46.22772-34.50873 44.97787-36.13786 43.72803-38.63391 41.54216-40.08588 40.0902-41.53784 38.63823-43.72346 36.14207-44.97356 34.51306-46.22365 32.88405-48.06894 30.12747-49.09564 28.34938-50.12236 26.5713-51.58759 23.59473-52.37341 21.69781-53.15923 19.80092-54.22769 16.66083-54.7593 14.67773-55.2909 12.69463-55.93658 9.44069-56.20483 7.40503-56.4731 5.36935-56.69252 2.0591-56.69275 .00604-56.69298-2.047-56.47423-5.35652-56.20657-7.39206-55.9389-9.42761-55.29485-12.68143-54.76361-14.66475-54.23238-16.64807-53.16331-19.78943-52.37775-21.68657-51.59216-23.58372-50.12793-26.55981-49.1017-28.33813-48.07547-30.11647-46.23106-32.87428-44.98134-34.50354-43.73161-36.1328-41.54613-38.6286-40.09453-40.08069-38.64291-41.53279-36.14787-43.7189-34.5191-44.96922-32.89034-46.21954-30.1334-48.06523-28.35545-49.09218-26.57748-50.11914-23.60165-51.58466-21.70474-52.37082-19.80782-53.157-16.66687-54.2266-14.68378-54.75844-12.7007-55.29027-9.44751-55.9356-7.41196-56.20396-5.37642-56.47235-.01295-56.69275-.01295-56.69275"/>
<path transform="matrix(1.00008,0,0,-1.00006,105.826038,87.04326)" d="M0 56.69362-.01123 56.69275C-.01123 56.69275-5.37456 56.47235-7.41023 56.20396-9.44589 55.9356-12.69983 55.29015-14.6829 54.75844-16.666 54.22672-19.80621 53.15775-21.703 52.37169-23.59981 51.58565-26.57564 50.11989-28.35371 49.09305-30.1318 48.06622-32.88936 46.22115-34.51825 44.97096-36.14714 43.72076-38.64206 41.5345-40.09366 40.08241-41.54527 38.63031-43.73074 36.13452-44.98047 34.50528-46.2302 32.87604-48.07448 30.11832-49.10083 28.33987-50.12718 26.56142-51.59216 23.58458-52.37775 21.68744-53.16331 19.7903-54.23152 16.64981-54.76274 14.66649-55.29398 12.68315-55.93878 9.42847-56.20657 7.39293-56.47435 5.35738-56.69286 2.04863-56.69275-.0043-56.69264-2.05727-56.47383-5.36765-56.2057-7.4033-55.93758-9.43898-55.29176-12.6928-54.76016-14.676-54.22856-16.6592-53.1602-19.79993-52.37427-21.69696-51.58835-23.59398-50.12236-26.57031-49.09564-28.34853-48.06894-30.12672-46.2244-32.88417-44.97443-34.51306-43.72446-36.14195-41.53859-38.63675-40.08675-40.08847-38.63489-41.5402-36.13948-43.7262-34.51045-44.97615-32.88144-46.2261-30.12415-48.07089-28.34593-49.09737-26.56773-50.12384-23.59138-51.58846-21.69435-52.37427-19.79733-53.1601-16.6566-54.22943-14.6734-54.76103-12.6902-55.29263-9.43637-55.9377-7.40071-56.2057-5.36505-56.47371-.00171-56.69275-.00171-56.69275L-43.65344-100.34706-65.47984-122.17259C-65.47984-122.17259-70.75792-121.86906-72.69044-121.49803-74.62296-121.127-77.6294-120.2343-79.40816-119.49837-81.1869-118.76244-83.91605-117.28229-85.51054-116.19392-87.10503-115.10558-89.51724-113.07607-90.9002-111.65424-92.28317-110.2324-94.33014-107.6774-95.47809-105.94638-96.62604-104.21536-98.28078-101.1888-99.17384-99.17816-100.0669-97.16751-101.29172-93.71106-101.91467-91.45505-102.53764-89.19905-103.32164-85.38104-103.66379-82.9184-104.00594-80.45575-104.32515-76.33339-104.38072-73.70601-104.43631-71.07863-104.29639-66.72878-104.06447-63.98204-103.83255-61.23529-103.22478-56.72878-102.7092-53.90938-102.19362-51.09-101.13869-46.50531-100.34853-43.66182-99.55835-40.81834-98.06555-36.23468-97.01411-33.41547-95.96266-30.59624-94.06499-26.08957-92.77034-23.34283-91.4757-20.59608-89.19902-16.24638-87.68317-13.61884-86.16731-10.9913-83.55617-6.8684-81.84512-4.40527-80.13408-1.94214-77.22807 1.87727-75.3511 4.13377-73.47414 6.39027-70.32782 9.8468-68.31712 11.8581-66.30641 13.8694-62.96947 16.8982-60.85931 18.62988-58.74918 20.36157-55.28197 22.9168-53.10869 24.33896-50.9354 25.76111-47.39513 27.79117-45.19571 28.87985-42.99628 29.96855-39.44456 31.44888-37.25673 32.18549-35.0689 32.92207-31.56624 33.81686-29.42719 34.18874-27.28815 34.56061-21.84001 34.86569-21.84001 34.86569L0 56.69362" fill="#d2d2d2" fill-opacity=".5"/>
<path transform="matrix(1.00008,0,0,-1.00006,105.826038,87.04326)" d="M0-56.69362-.01123-56.69275C-.01123-56.69275 5.35184-56.4751 7.38773-56.20744 9.42363-55.93977 12.67859-55.29472 14.66217-54.76361 16.64574-54.2325 19.78659-53.16505 21.68398-52.37947 23.58136-51.5939 26.55872-50.12817 28.33728-49.1017 30.11586-48.07523 32.8733-46.23119 34.50267-44.98134 36.13203-43.73149 38.62837-41.5454 40.08069-40.09366 41.53302-38.64194 43.71977-36.14714 44.9701-34.51825 46.22041-32.88936 48.06511-30.13205 49.09218-28.35371 50.11926-26.5754 51.58638-23.59831 52.37256-21.7013 53.15872-19.80426 54.22684-16.6644 54.75844-14.6812 55.29002-12.698 55.9356-9.44365 56.20396-7.40762 56.47235-5.37161 56.6924-2.06021 56.69275-.00691 56.6931 2.04637 56.47435 5.35542 56.20657 7.39119 55.93878 9.42697 55.29398 12.68205 54.76274 14.66562 54.23152 16.64919 53.16331 19.79005 52.37775 21.68744 51.59216 23.58482 50.1273 26.56216 49.10083 28.34074 48.07437 30.11931 46.22957 32.8769 44.9796 34.50615 43.72964 36.13539 41.54378 38.63107 40.09193 40.08328 38.64008 41.53548 36.14467 43.72237 34.51566 44.97269 32.88664 46.223 30.12944 48.06795 28.35112 49.09479 26.5728 50.12161 23.59596 51.58748 21.69868 52.37341 19.80142 53.15933 16.66019 54.22758 14.67686 54.7593 12.69354 55.29102 9.4401 55.93745 7.40417 56.2057 5.36827 56.47395 .00345 56.69275 .00345 56.69275L-21.82672 34.86688-21.83827 34.86569C-21.83827 34.86569-16.559 34.56424-14.62614 34.19354-12.6933 33.82285-9.68666 32.92946-7.90758 32.19386-6.1285 31.45827-3.39859 29.97986-1.80365 28.89185-.2087 27.80382 2.20435 25.77379 3.58772 24.35213 4.9711 22.93048 7.01862 20.37648 8.1668 18.64546 9.31499 16.91444 10.96967 13.88669 11.86308 11.87605 12.7565 9.8654 13.98277 6.41014 14.60597 4.15413 15.22919 1.89813 16.01234-1.92072 16.35477-4.38368 16.69719-6.84665 17.01817-10.9699 17.07399-13.59726 17.1298-16.22464 16.98909-20.57332 16.75716-23.32005 16.52524-26.06679 15.9179-30.57404 15.40242-33.3939 14.88696-36.21378 13.83212-40.80003 13.04196-43.64386 12.25182-46.48767 10.7591-51.07066 9.70755-53.89021 8.656-56.70978 6.75801-61.218 5.46312-63.96526 4.16821-66.7125 1.89081-71.06255 .37476-73.69043-1.1413-76.3183-3.75241-80.44191-5.46362-82.90521-7.17484-85.36852-10.08128-89.18776-11.95851-91.44427-13.83572-93.70078-16.9824-97.15727-18.99335-99.16856-21.00427-101.17986-24.34163-104.2087-26.45201-105.94037-28.5624-107.67206-32.02988-110.2273-34.20354-111.64944-36.37718-113.07161-39.91837-115.1018-42.11821-116.19032-44.31805-117.27885-47.87056-118.75835-50.05861-119.49478-52.24664-120.2312-55.74896-121.1265-57.88814-121.49803-60.02731-121.86957-65.4764-122.17259-65.4764-122.17259L0-56.69362" fill="#9cdcf9" fill-opacity=".5"/>
<path transform="matrix(1.00008,0,0,-1.00006,105.826038,87.04326)" stroke-width=".79701" stroke-linecap="butt" stroke-miterlimit="10" stroke-linejoin="miter" fill="none" stroke="#000000" d="M13.04016-43.65344C13.04016-43.65344 16.29628-28.77899 16.75644-23.33205 17.21658-17.8851 17.03496-9.27939 16.35663-4.39566 15.67828 .48805 13.63794 7.87877 11.86734 11.86647 10.09674 15.85419 6.3376 21.52525 3.59525 24.34496 .85289 27.16467-4.3705 30.72935-7.89767 32.18907-11.42485 33.6488-17.75478 34.86555-21.82619 34.86569-25.8976 34.86584-32.90308 33.64966-37.24158 32.19028-41.58006 30.73088-48.78508 27.16673-53.0951 24.34735-57.40509 21.52795-64.31752 15.85745-68.30515 11.87007-72.29276 7.8827-78.44148 .49283-81.83507-4.39088-85.22865-9.27461-90.19553-17.88135-92.76376-23.32845-95.332-28.77554-98.77748-38.01091-100.3452-43.64986-101.91292-49.2888-103.60231-58.52295-104.06285-63.97003-104.52339-69.41713-104.34259-78.02475-103.66458-82.90881-102.98657-87.79288-100.9466-95.18309-99.17615-99.17096-97.4057-103.15884-93.64664-108.83061-90.90439-111.65065-88.16214-114.47069-82.9388-118.03607-79.4118-119.49597-75.8848-120.95586-69.55553-122.17227-65.48416-122.17259-61.4128-122.17291-54.40694-120.9576-50.06824-119.49837-45.72955-118.03914-38.52382-114.47466-34.21385-111.65544-29.9039-108.83621-22.99269-103.16656-19.005-99.17935-15.01732-95.19215-8.86713-87.80196-5.47334-82.9184-2.07956-78.03484 2.88669-69.42897 5.455-63.98204 8.0233-58.53511 13.03731-43.66061 13.03731-43.66061"/>
<path transform="matrix(1.00008,0,0,-1.00006,105.826038,87.04326)" stroke-width=".3985" stroke-linecap="butt" stroke-miterlimit="10" stroke-linejoin="miter" fill="none" stroke="#00aeef" d="M56.69362 0 13.04016-43.65344"/>
<path transform="matrix(1.00008,0,0,-1.00006,105.826038,87.04326)" stroke-width=".3985" stroke-linecap="butt" stroke-miterlimit="10" stroke-linejoin="miter" fill="none" stroke="#00aeef" d="M56.62093 2.83224 14.05789-39.73079"/>
<path transform="matrix(1.00008,0,0,-1.00006,105.826038,87.04326)" stroke-width=".3985" stroke-linecap="butt" stroke-miterlimit="10" stroke-linejoin="miter" fill="none" stroke="#00aeef" d="M56.40727 5.65845 14.9323-35.81651"/>
<path transform="matrix(1.00008,0,0,-1.00006,105.826038,87.04326)" stroke-width=".3985" stroke-linecap="butt" stroke-miterlimit="10" stroke-linejoin="miter" fill="none" stroke="#00aeef" d="M56.05344 8.47168 15.66154-31.92021"/>
<path transform="matrix(1.00008,0,0,-1.00006,105.826038,87.04326)" stroke-width=".3985" stroke-linecap="butt" stroke-miterlimit="10" stroke-linejoin="miter" fill="none" stroke="#00aeef" d="M55.56035 11.2624 16.24287-28.05504"/>
<path transform="matrix(1.00008,0,0,-1.00006,105.826038,87.04326)" stroke-width=".3985" stroke-linecap="butt" stroke-miterlimit="10" stroke-linejoin="miter" fill="none" stroke="#00aeef" d="M54.92885 14.02545 16.67514-24.22824"/>
<path transform="matrix(1.00008,0,0,-1.00006,105.826038,87.04326)" stroke-width=".3985" stroke-linecap="butt" stroke-miterlimit="10" stroke-linejoin="miter" fill="none" stroke="#00aeef" d="M54.15892 16.7539 16.95564-20.44936"/>
<path transform="matrix(1.00008,0,0,-1.00006,105.826038,87.04326)" stroke-width=".3985" stroke-linecap="butt" stroke-miterlimit="10" stroke-linejoin="miter" fill="none" stroke="#00aeef" d="M53.25493 19.44084 17.0861-16.72797"/>
<path transform="matrix(1.00008,0,0,-1.00006,105.826038,87.04326)" stroke-width=".3985" stroke-linecap="butt" stroke-miterlimit="10" stroke-linejoin="miter" fill="none" stroke="#00aeef" d="M52.21597 22.07758 17.06229-13.0761"/>
<path transform="matrix(1.00008,0,0,-1.00006,105.826038,87.04326)" stroke-width=".3985" stroke-linecap="butt" stroke-miterlimit="10" stroke-linejoin="miter" fill="none" stroke="#00aeef" d="M51.04639 24.65984 16.88684-9.4997"/>
<path transform="matrix(1.00008,0,0,-1.00006,105.826038,87.04326)" stroke-width=".3985" stroke-linecap="butt" stroke-miterlimit="10" stroke-linejoin="miter" fill="none" stroke="#00aeef" d="M49.7505 27.17981 16.56113-6.00955"/>
<path transform="matrix(1.00008,0,0,-1.00006,105.826038,87.04326)" stroke-width=".3985" stroke-linecap="butt" stroke-miterlimit="10" stroke-linejoin="miter" fill="none" stroke="#00aeef" d="M48.32918 29.63316 16.08434-2.61166"/>
<path transform="matrix(1.00008,0,0,-1.00006,105.826038,87.04326)" stroke-width=".3985" stroke-linecap="butt" stroke-miterlimit="10" stroke-linejoin="miter" fill="none" stroke="#00aeef" d="M46.78763 32.01126 15.45834 .68196"/>
<path transform="matrix(1.00008,0,0,-1.00006,105.826038,87.04326)" stroke-width=".3985" stroke-linecap="butt" stroke-miterlimit="10" stroke-linejoin="miter" fill="none" stroke="#00aeef" d="M45.12927 34.30977 14.68489 3.86539"/>
<path transform="matrix(1.00008,0,0,-1.00006,105.826038,87.04326)" stroke-width=".3985" stroke-linecap="butt" stroke-miterlimit="10" stroke-linejoin="miter" fill="none" stroke="#00aeef" d="M43.35844 36.52348 13.76636 6.9314"/>
<path transform="matrix(1.00008,0,0,-1.00006,105.826038,87.04326)" stroke-width=".3985" stroke-linecap="butt" stroke-miterlimit="10" stroke-linejoin="miter" fill="none" stroke="#00aeef" d="M41.47865 38.64552 12.70352 9.87039"/>
<path transform="matrix(1.00008,0,0,-1.00006,105.826038,87.04326)" stroke-width=".3985" stroke-linecap="butt" stroke-miterlimit="10" stroke-linejoin="miter" fill="none" stroke="#00aeef" d="M39.49504 40.6698 11.49924 12.674"/>
<path transform="matrix(1.00008,0,0,-1.00006,105.826038,87.04326)" stroke-width=".3985" stroke-linecap="butt" stroke-miterlimit="10" stroke-linejoin="miter" fill="none" stroke="#00aeef" d="M37.4128 42.59286 10.15736 15.33743"/>
<path transform="matrix(1.00008,0,0,-1.00006,105.826038,87.04326)" stroke-width=".3985" stroke-linecap="butt" stroke-miterlimit="10" stroke-linejoin="miter" fill="none" stroke="#00aeef" d="M35.23627 44.40953 8.68025 17.85352"/>
<path transform="matrix(1.00008,0,0,-1.00006,105.826038,87.04326)" stroke-width=".3985" stroke-linecap="butt" stroke-miterlimit="10" stroke-linejoin="miter" fill="none" stroke="#00aeef" d="M32.97322 46.11458 7.07364 20.21501"/>
<path transform="matrix(1.00008,0,0,-1.00006,105.826038,87.04326)" stroke-width=".3985" stroke-linecap="butt" stroke-miterlimit="10" stroke-linejoin="miter" fill="none" stroke="#00aeef" d="M30.62714 47.70546 5.34003 22.41835"/>
<path transform="matrix(1.00008,0,0,-1.00006,105.826038,87.04326)" stroke-width=".3985" stroke-linecap="butt" stroke-miterlimit="10" stroke-linejoin="miter" fill="none" stroke="#00aeef" d="M28.20493 49.17696 3.48433 24.45638"/>
<path transform="matrix(1.00008,0,0,-1.00006,105.826038,87.04326)" stroke-width=".3985" stroke-linecap="butt" stroke-miterlimit="10" stroke-linejoin="miter" fill="none" stroke="#00aeef" d="M25.71176 50.52647 1.51074 26.32544"/>
<path transform="matrix(1.00008,0,0,-1.00006,105.826038,87.04326)" stroke-width=".3985" stroke-linecap="butt" stroke-miterlimit="10" stroke-linejoin="miter" fill="none" stroke="#00aeef" d="M23.15375 51.74797-.577 28.01721"/>
<path transform="matrix(1.00008,0,0,-1.00006,105.826038,87.04326)" stroke-width=".3985" stroke-linecap="butt" stroke-miterlimit="10" stroke-linejoin="miter" fill="none" stroke="#00aeef" d="M20.53777 52.83969-2.77267 29.52924"/>
<path transform="matrix(1.00008,0,0,-1.00006,105.826038,87.04326)" stroke-width=".3985" stroke-linecap="butt" stroke-miterlimit="10" stroke-linejoin="miter" fill="none" stroke="#00aeef" d="M17.87073 53.79993-5.07004 30.85916"/>
<path transform="matrix(1.00008,0,0,-1.00006,105.826038,87.04326)" stroke-width=".3985" stroke-linecap="butt" stroke-miterlimit="10" stroke-linejoin="miter" fill="none" stroke="#00aeef" d="M15.15958 54.6252-7.46346 32.00217"/>
<path transform="matrix(1.00008,0,0,-1.00006,105.826038,87.04326)" stroke-width=".3985" stroke-linecap="butt" stroke-miterlimit="10" stroke-linejoin="miter" fill="none" stroke="#00aeef" d="M12.41037 55.31554-9.94687 32.95828"/>
<path transform="matrix(1.00008,0,0,-1.00006,105.826038,87.04326)" stroke-width=".3985" stroke-linecap="butt" stroke-miterlimit="10" stroke-linejoin="miter" fill="none" stroke="#00aeef" d="M9.63 55.86746-12.51476 33.72267"/>
<path transform="matrix(1.00008,0,0,-1.00006,105.826038,87.04326)" stroke-width=".3985" stroke-linecap="butt" stroke-miterlimit="10" stroke-linejoin="miter" fill="none" stroke="#00aeef" d="M6.82544 56.27924-15.1608 34.29298"/>
<path transform="matrix(1.00008,0,0,-1.00006,105.826038,87.04326)" stroke-width=".3985" stroke-linecap="butt" stroke-miterlimit="10" stroke-linejoin="miter" fill="none" stroke="#00aeef" d="M4.00443 56.55087-17.87723 34.6692"/>
<path transform="matrix(1.00008,0,0,-1.00006,105.826038,87.04326)" stroke-width=".3985" stroke-linecap="butt" stroke-miterlimit="10" stroke-linejoin="miter" fill="none" stroke="#00aeef" d="M1.17302 56.6789-20.65935 34.84651"/>
<path transform="matrix(1.00008,0,0,-1.00006,105.826038,87.04326)" stroke-width=".3985" stroke-linecap="butt" stroke-miterlimit="10" stroke-linejoin="miter" fill="none" stroke="#00aeef" d="M-1.66006 56.66592-23.49745 34.82855"/>
<path transform="matrix(1.00008,0,0,-1.00006,105.826038,87.04326)" stroke-width=".3985" stroke-linecap="butt" stroke-miterlimit="10" stroke-linejoin="miter" fill="none" stroke="#00aeef" d="M-4.4906 56.5128-26.38692 34.61649"/>
<path transform="matrix(1.00008,0,0,-1.00006,105.826038,87.04326)" stroke-width=".3985" stroke-linecap="butt" stroke-miterlimit="10" stroke-linejoin="miter" fill="none" stroke="#00aeef" d="M-7.30988 56.2178-29.31978 34.20792"/>
<path transform="matrix(1.00008,0,0,-1.00006,105.826038,87.04326)" stroke-width=".3985" stroke-linecap="butt" stroke-miterlimit="10" stroke-linejoin="miter" fill="none" stroke="#00aeef" d="M-10.10927 55.78268-32.28668 33.60526"/>
<path transform="matrix(1.00008,0,0,-1.00006,105.826038,87.04326)" stroke-width=".3985" stroke-linecap="butt" stroke-miterlimit="10" stroke-linejoin="miter" fill="none" stroke="#00aeef" d="M-12.8853 55.20741-35.2842 32.8085"/>
<path transform="matrix(1.00008,0,0,-1.00006,105.826038,87.04326)" stroke-width=".3985" stroke-linecap="butt" stroke-miterlimit="10" stroke-linejoin="miter" fill="none" stroke="#00aeef" d="M-15.62932 54.49545-38.3023 31.82246"/>
<path transform="matrix(1.00008,0,0,-1.00006,105.826038,87.04326)" stroke-width=".3985" stroke-linecap="butt" stroke-miterlimit="10" stroke-linejoin="miter" fill="none" stroke="#00aeef" d="M-18.33353 53.64594-41.33357 30.64589"/>
<path transform="matrix(1.00008,0,0,-1.00006,105.826038,87.04326)" stroke-width=".3985" stroke-linecap="butt" stroke-miterlimit="10" stroke-linejoin="miter" fill="none" stroke="#00aeef" d="M-20.99191 52.66148-44.37099 29.28242"/>
<path transform="matrix(1.00008,0,0,-1.00006,105.826038,87.04326)" stroke-width=".3985" stroke-linecap="butt" stroke-miterlimit="10" stroke-linejoin="miter" fill="none" stroke="#00aeef" d="M-23.59752 51.54553-47.40622 27.73683"/>
<path transform="matrix(1.00008,0,0,-1.00006,105.826038,87.04326)" stroke-width=".3985" stroke-linecap="butt" stroke-miterlimit="10" stroke-linejoin="miter" fill="none" stroke="#00aeef" d="M-26.1443 50.30156-50.43193 26.01393"/>
<path transform="matrix(1.00008,0,0,-1.00006,105.826038,87.04326)" stroke-width=".3985" stroke-linecap="butt" stroke-miterlimit="10" stroke-linejoin="miter" fill="none" stroke="#00aeef" d="M-28.62622 48.93213-53.44106 24.1173"/>
<path transform="matrix(1.00008,0,0,-1.00006,105.826038,87.04326)" stroke-width=".3985" stroke-linecap="butt" stroke-miterlimit="10" stroke-linejoin="miter" fill="none" stroke="#00aeef" d="M-31.03632 47.44075-56.42534 22.05173"/>
<path transform="matrix(1.00008,0,0,-1.00006,105.826038,87.04326)" stroke-width=".3985" stroke-linecap="butt" stroke-miterlimit="10" stroke-linejoin="miter" fill="none" stroke="#00aeef" d="M-33.36943 45.83084-59.37825 19.82202"/>
<path transform="matrix(1.00008,0,0,-1.00006,105.826038,87.04326)" stroke-width=".3985" stroke-linecap="butt" stroke-miterlimit="10" stroke-linejoin="miter" fill="none" stroke="#00aeef" d="M-35.61775 44.10588-62.29068 17.43297"/>
<path transform="matrix(1.00008,0,0,-1.00006,105.826038,87.04326)" stroke-width=".3985" stroke-linecap="butt" stroke-miterlimit="10" stroke-linejoin="miter" fill="none" stroke="#00aeef" d="M-37.77785 42.26932-65.15784 14.88934"/>
<path transform="matrix(1.00008,0,0,-1.00006,105.826038,87.04326)" stroke-width=".3985" stroke-linecap="butt" stroke-miterlimit="10" stroke-linejoin="miter" fill="none" stroke="#00aeef" d="M-39.8428 40.3281-67.97015 12.20073"/>
<path transform="matrix(1.00008,0,0,-1.00006,105.826038,87.04326)" stroke-width=".3985" stroke-linecap="butt" stroke-miterlimit="10" stroke-linejoin="miter" fill="none" stroke="#00aeef" d="M-41.80824 38.28653-70.72159 9.37318"/>
<path transform="matrix(1.00008,0,0,-1.00006,105.826038,87.04326)" stroke-width=".3985" stroke-linecap="butt" stroke-miterlimit="10" stroke-linejoin="miter" fill="none" stroke="#00aeef" d="M-43.66988 36.14804-73.40651 6.4114"/>
<path transform="matrix(1.00008,0,0,-1.00006,105.826038,87.04326)" stroke-width=".3985" stroke-linecap="butt" stroke-miterlimit="10" stroke-linejoin="miter" fill="none" stroke="#00aeef" d="M-45.42253 33.92049-76.01677 3.32625"/>
<path transform="matrix(1.00008,0,0,-1.00006,105.826038,87.04326)" stroke-width=".3985" stroke-linecap="butt" stroke-miterlimit="10" stroke-linejoin="miter" fill="none" stroke="#00aeef" d="M-47.06184 31.60812-78.54634 .12364"/>
<path transform="matrix(1.00008,0,0,-1.00006,105.826038,87.04326)" stroke-width=".3985" stroke-linecap="butt" stroke-miterlimit="10" stroke-linejoin="miter" fill="none" stroke="#00aeef" d="M-48.58266 29.21706-80.9877-3.18797"/>
<path transform="matrix(1.00008,0,0,-1.00006,105.826038,87.04326)" stroke-width=".3985" stroke-linecap="butt" stroke-miterlimit="10" stroke-linejoin="miter" fill="none" stroke="#00aeef" d="M-49.98235 26.7516-83.33656-6.6026"/>
<path transform="matrix(1.00008,0,0,-1.00006,105.826038,87.04326)" stroke-width=".3985" stroke-linecap="butt" stroke-miterlimit="10" stroke-linejoin="miter" fill="none" stroke="#00aeef" d="M-51.2566 24.22038-85.58534-10.10834"/>
<path transform="matrix(1.00008,0,0,-1.00006,105.826038,87.04326)" stroke-width=".3985" stroke-linecap="butt" stroke-miterlimit="10" stroke-linejoin="miter" fill="none" stroke="#00aeef" d="M-52.40282 21.62776-87.72969-13.6991"/>
<path transform="matrix(1.00008,0,0,-1.00006,105.826038,87.04326)" stroke-width=".3985" stroke-linecap="butt" stroke-miterlimit="10" stroke-linejoin="miter" fill="none" stroke="#00aeef" d="M-53.41843 18.98149-89.7641-17.36418"/>
<path transform="matrix(1.00008,0,0,-1.00006,105.826038,87.04326)" stroke-width=".3985" stroke-linecap="butt" stroke-miterlimit="10" stroke-linejoin="miter" fill="none" stroke="#00aeef" d="M-54.29994 16.28677-91.68306-21.09634"/>
<path transform="matrix(1.00008,0,0,-1.00006,105.826038,87.04326)" stroke-width=".3985" stroke-linecap="butt" stroke-miterlimit="10" stroke-linejoin="miter" fill="none" stroke="#00aeef" d="M-55.04736 13.55313-93.48291-24.88242"/>
<path transform="matrix(1.00008,0,0,-1.00006,105.826038,87.04326)" stroke-width=".3985" stroke-linecap="butt" stroke-miterlimit="10" stroke-linejoin="miter" fill="none" stroke="#00aeef" d="M-55.65724 10.78488-95.15857-28.71643"/>
<path transform="matrix(1.00008,0,0,-1.00006,105.826038,87.04326)" stroke-width=".3985" stroke-linecap="butt" stroke-miterlimit="10" stroke-linejoin="miter" fill="none" stroke="#00aeef" d="M-56.12613 7.98897-96.70386-32.58875"/>
<path transform="matrix(1.00008,0,0,-1.00006,105.826038,87.04326)" stroke-width=".3985" stroke-linecap="butt" stroke-miterlimit="10" stroke-linejoin="miter" fill="none" stroke="#00aeef" d="M-56.45398 5.174-98.11546-36.48746"/>
<path transform="matrix(1.00008,0,0,-1.00006,105.826038,87.04326)" stroke-width=".3985" stroke-linecap="butt" stroke-miterlimit="10" stroke-linejoin="miter" fill="none" stroke="#00aeef" d="M-56.6417 2.3452-99.39224-40.40533"/>
<path transform="matrix(1.00008,0,0,-1.00006,105.826038,87.04326)" stroke-width=".3985" stroke-linecap="butt" stroke-miterlimit="10" stroke-linejoin="miter" fill="none" stroke="#00aeef" d="M-56.68929-.48701-100.53023-44.32797"/>
<path transform="matrix(1.00008,0,0,-1.00006,105.826038,87.04326)" stroke-width=".3985" stroke-linecap="butt" stroke-miterlimit="10" stroke-linejoin="miter" fill="none" stroke="#00aeef" d="M-56.59325-3.32014-101.52495-48.25185"/>
<path transform="matrix(1.00008,0,0,-1.00006,105.826038,87.04326)" stroke-width=".3985" stroke-linecap="butt" stroke-miterlimit="10" stroke-linejoin="miter" fill="none" stroke="#00aeef" d="M-56.35709-6.14462-102.37617-52.16371"/>
<path transform="matrix(1.00008,0,0,-1.00006,105.826038,87.04326)" stroke-width=".3985" stroke-linecap="butt" stroke-miterlimit="10" stroke-linejoin="miter" fill="none" stroke="#00aeef" d="M-55.9799-8.95265-103.08008-56.05281"/>
<path transform="matrix(1.00008,0,0,-1.00006,105.826038,87.04326)" stroke-width=".3985" stroke-linecap="butt" stroke-miterlimit="10" stroke-linejoin="miter" fill="none" stroke="#00aeef" d="M-55.4626-11.7408-103.6362-59.9144"/>
<path transform="matrix(1.00008,0,0,-1.00006,105.826038,87.04326)" stroke-width=".3985" stroke-linecap="butt" stroke-miterlimit="10" stroke-linejoin="miter" fill="none" stroke="#00aeef" d="M-54.80602-14.4978-104.04105-63.73283"/>
<path transform="matrix(1.00008,0,0,-1.00006,105.826038,87.04326)" stroke-width=".3985" stroke-linecap="butt" stroke-miterlimit="10" stroke-linejoin="miter" fill="none" stroke="#00aeef" d="M-54.01273-17.21931-104.29552-67.5021"/>
<path transform="matrix(1.00008,0,0,-1.00006,105.826038,87.04326)" stroke-width=".3985" stroke-linecap="butt" stroke-miterlimit="10" stroke-linejoin="miter" fill="none" stroke="#00aeef" d="M-53.08365-19.89674-104.39722-71.21031"/>
<path transform="matrix(1.00008,0,0,-1.00006,105.826038,87.04326)" stroke-width=".3985" stroke-linecap="butt" stroke-miterlimit="10" stroke-linejoin="miter" fill="none" stroke="#00aeef" d="M-52.02306-22.5257-104.34879-74.85141"/>
<path transform="matrix(1.00008,0,0,-1.00006,105.826038,87.04326)" stroke-width=".3985" stroke-linecap="butt" stroke-miterlimit="10" stroke-linejoin="miter" fill="none" stroke="#00aeef" d="M-50.83185-25.09756-104.14772-78.41344"/>
<path transform="matrix(1.00008,0,0,-1.00006,105.826038,87.04326)" stroke-width=".3985" stroke-linecap="butt" stroke-miterlimit="10" stroke-linejoin="miter" fill="none" stroke="#00aeef" d="M-49.51521-27.60802-103.79759-81.89041"/>
<path transform="matrix(1.00008,0,0,-1.00006,105.826038,87.04326)" stroke-width=".3985" stroke-linecap="butt" stroke-miterlimit="10" stroke-linejoin="miter" fill="none" stroke="#00aeef" d="M-48.07399-30.0484-103.2959-85.27032"/>
<path transform="matrix(1.00008,0,0,-1.00006,105.826038,87.04326)" stroke-width=".3985" stroke-linecap="butt" stroke-miterlimit="10" stroke-linejoin="miter" fill="none" stroke="#00aeef" d="M-46.51079-32.41264-102.64293-88.54478"/>
<path transform="matrix(1.00008,0,0,-1.00006,105.826038,87.04326)" stroke-width=".3985" stroke-linecap="butt" stroke-miterlimit="10" stroke-linejoin="miter" fill="none" stroke="#00aeef" d="M-44.83253-34.69646-101.84393-91.70784"/>
<path transform="matrix(1.00008,0,0,-1.00006,105.826038,87.04326)" stroke-width=".3985" stroke-linecap="butt" stroke-miterlimit="10" stroke-linejoin="miter" fill="none" stroke="#00aeef" d="M-43.04184-36.89462-100.8995-94.75229"/>
<path transform="matrix(1.00008,0,0,-1.00006,105.826038,87.04326)" stroke-width=".3985" stroke-linecap="butt" stroke-miterlimit="10" stroke-linejoin="miter" fill="none" stroke="#00aeef" d="M-41.14386-38.99934-99.81183-97.66733"/>
<path transform="matrix(1.00008,0,0,-1.00006,105.826038,87.04326)" stroke-width=".3985" stroke-linecap="butt" stroke-miterlimit="10" stroke-linejoin="miter" fill="none" stroke="#00aeef" d="M-39.14381-41.00717-98.5848-100.44817"/>
<path transform="matrix(1.00008,0,0,-1.00006,105.826038,87.04326)" stroke-width=".3985" stroke-linecap="butt" stroke-miterlimit="10" stroke-linejoin="miter" fill="none" stroke="#00aeef" d="M-37.04599-42.9138-97.22102-103.08884"/>
<path transform="matrix(1.00008,0,0,-1.00006,105.826038,87.04326)" stroke-width=".3985" stroke-linecap="butt" stroke-miterlimit="10" stroke-linejoin="miter" fill="none" stroke="#00aeef" d="M-34.85475-44.71144-95.72186-105.57855"/>
<path transform="matrix(1.00008,0,0,-1.00006,105.826038,87.04326)" stroke-width=".3985" stroke-linecap="butt" stroke-miterlimit="10" stroke-linejoin="miter" fill="none" stroke="#00aeef" d="M-32.57614-46.39746-94.09236-107.91368"/>
<path transform="matrix(1.00008,0,0,-1.00006,105.826038,87.04326)" stroke-width=".3985" stroke-linecap="butt" stroke-miterlimit="10" stroke-linejoin="miter" fill="none" stroke="#00aeef" d="M-30.21622-47.96759-92.33693-110.0883"/>
<path transform="matrix(1.00008,0,0,-1.00006,105.826038,87.04326)" stroke-width=".3985" stroke-linecap="butt" stroke-miterlimit="10" stroke-linejoin="miter" fill="none" stroke="#00aeef" d="M-27.78017-49.4166-90.45872-112.09515"/>
<path transform="matrix(1.00008,0,0,-1.00006,105.826038,87.04326)" stroke-width=".3985" stroke-linecap="butt" stroke-miterlimit="10" stroke-linejoin="miter" fill="none" stroke="#00aeef" d="M-25.2749-50.74448-88.46469-113.93427"/>
<path transform="matrix(1.00008,0,0,-1.00006,105.826038,87.04326)" stroke-width=".3985" stroke-linecap="butt" stroke-miterlimit="10" stroke-linejoin="miter" fill="none" stroke="#00aeef" d="M-22.70737-51.94434-86.3591-115.59607"/>
<path transform="matrix(1.00008,0,0,-1.00006,105.826038,87.04326)" stroke-width=".3985" stroke-linecap="butt" stroke-miterlimit="10" stroke-linejoin="miter" fill="none" stroke="#00aeef" d="M-20.08272-53.01443-84.14644-117.07816"/>
<path transform="matrix(1.00008,0,0,-1.00006,105.826038,87.04326)" stroke-width=".3985" stroke-linecap="butt" stroke-miterlimit="10" stroke-linejoin="miter" fill="none" stroke="#00aeef" d="M-17.40791-53.95305-81.833-118.37811"/>
<path transform="matrix(1.00008,0,0,-1.00006,105.826038,87.04326)" stroke-width=".3985" stroke-linecap="butt" stroke-miterlimit="10" stroke-linejoin="miter" fill="none" stroke="#00aeef" d="M-14.68985-54.75583-79.424-119.48997"/>
<path transform="matrix(1.00008,0,0,-1.00006,105.826038,87.04326)" stroke-width=".3985" stroke-linecap="butt" stroke-miterlimit="10" stroke-linejoin="miter" fill="none" stroke="#00aeef" d="M-11.93459-55.42108-76.92484-120.41133"/>
<path transform="matrix(1.00008,0,0,-1.00006,105.826038,87.04326)" stroke-width=".3985" stroke-linecap="butt" stroke-miterlimit="10" stroke-linejoin="miter" fill="none" stroke="#00aeef" d="M-9.1499-55.9479-74.34299-121.141"/>
<path transform="matrix(1.00008,0,0,-1.00006,105.826038,87.04326)" stroke-width=".3985" stroke-linecap="butt" stroke-miterlimit="10" stroke-linejoin="miter" fill="none" stroke="#00aeef" d="M-6.34186-56.3346-71.68382-121.67656"/>
<path transform="matrix(1.00008,0,0,-1.00006,105.826038,87.04326)" stroke-width=".3985" stroke-linecap="butt" stroke-miterlimit="10" stroke-linejoin="miter" fill="none" stroke="#00aeef" d="M-3.51738-56.58115-68.95425-122.01802"/>
<path transform="matrix(1.00008,0,0,-1.00006,105.826038,87.04326)" stroke-width=".3985" stroke-linecap="butt" stroke-miterlimit="10" stroke-linejoin="miter" fill="none" stroke="#00aeef" d="M-.68599-56.68755-66.16383-122.16539"/>
<path transform="matrix(1.00008,0,0,-1.00006,105.826038,87.04326)" stroke-width=".3985" stroke-linecap="butt" stroke-miterlimit="10" stroke-linejoin="miter" fill="none" stroke="#00aeef" d="M2.14711-56.65034-63.3164-122.11386"/>
<path transform="matrix(1.00008,0,0,-1.00006,105.826038,87.04326)" stroke-width=".3985" stroke-linecap="butt" stroke-miterlimit="10" stroke-linejoin="miter" fill="none" stroke="#00aeef" d="M4.97678-56.47302-60.41846-121.86827"/>
<path transform="matrix(1.00008,0,0,-1.00006,105.826038,87.04326)" stroke-width=".3985" stroke-linecap="butt" stroke-miterlimit="10" stroke-linejoin="miter" fill="none" stroke="#00aeef" d="M7.79259-56.15294-57.47942-121.42496"/>
<path transform="matrix(1.00008,0,0,-1.00006,105.826038,87.04326)" stroke-width=".3985" stroke-linecap="butt" stroke-miterlimit="10" stroke-linejoin="miter" fill="none" stroke="#00aeef" d="M10.58939-55.69357-54.50577-120.78876"/>
<path transform="matrix(1.00008,0,0,-1.00006,105.826038,87.04326)" stroke-width=".3985" stroke-linecap="butt" stroke-miterlimit="10" stroke-linejoin="miter" fill="none" stroke="#00aeef" d="M13.35936-55.09407-51.50499-119.95844"/>
<path transform="matrix(1.00008,0,0,-1.00006,105.826038,87.04326)" stroke-width=".3985" stroke-linecap="butt" stroke-miterlimit="10" stroke-linejoin="miter" fill="none" stroke="#00aeef" d="M16.09645-54.35704-48.48413-118.93764"/>
<path transform="matrix(1.00008,0,0,-1.00006,105.826038,87.04326)" stroke-width=".3985" stroke-linecap="butt" stroke-miterlimit="10" stroke-linejoin="miter" fill="none" stroke="#00aeef" d="M18.79462-53.48503-45.45026-117.72993"/>
<path transform="matrix(1.00008,0,0,-1.00006,105.826038,87.04326)" stroke-width=".3985" stroke-linecap="butt" stroke-miterlimit="10" stroke-linejoin="miter" fill="none" stroke="#00aeef" d="M21.4435-52.47896-42.41405-116.3365"/>
<path transform="matrix(1.00008,0,0,-1.00006,105.826038,87.04326)" stroke-width=".3985" stroke-linecap="butt" stroke-miterlimit="10" stroke-linejoin="miter" fill="none" stroke="#00aeef" d="M24.04045-51.34224-39.37947-114.76218"/>
<path transform="matrix(1.00008,0,0,-1.00006,105.826038,87.04326)" stroke-width=".3985" stroke-linecap="butt" stroke-miterlimit="10" stroke-linejoin="miter" fill="none" stroke="#00aeef" d="M26.57599-50.07663-36.35667-113.00931"/>
<path transform="matrix(1.00008,0,0,-1.00006,105.826038,87.04326)" stroke-width=".3985" stroke-linecap="butt" stroke-miterlimit="10" stroke-linejoin="miter" fill="none" stroke="#00aeef" d="M29.04665-48.68387-33.34982-111.08035"/>
<path transform="matrix(1.00008,0,0,-1.00006,105.826038,87.04326)" stroke-width=".3985" stroke-linecap="butt" stroke-miterlimit="10" stroke-linejoin="miter" fill="none" stroke="#00aeef" d="M31.4429-47.17172-30.37138-108.98602"/>
<path transform="matrix(1.00008,0,0,-1.00006,105.826038,87.04326)" stroke-width=".3985" stroke-linecap="butt" stroke-miterlimit="10" stroke-linejoin="miter" fill="none" stroke="#00aeef" d="M33.76218-45.54105-27.42432-106.72755"/>
<path transform="matrix(1.00008,0,0,-1.00006,105.826038,87.04326)" stroke-width=".3985" stroke-linecap="butt" stroke-miterlimit="10" stroke-linejoin="miter" fill="none" stroke="#00aeef" d="M35.9958-43.79619-24.51894-104.31094"/>
<path transform="matrix(1.00008,0,0,-1.00006,105.826038,87.04326)" stroke-width=".3985" stroke-linecap="butt" stroke-miterlimit="10" stroke-linejoin="miter" fill="none" stroke="#00aeef" d="M38.13947-41.94232-21.66153-101.74333"/>
<path transform="matrix(1.00008,0,0,-1.00006,105.826038,87.04326)" stroke-width=".3985" stroke-linecap="butt" stroke-miterlimit="10" stroke-linejoin="miter" fill="none" stroke="#00aeef" d="M40.18883-39.98466-18.85849-99.03198"/>
<path transform="matrix(1.00008,0,0,-1.00006,105.826038,87.04326)" stroke-width=".3985" stroke-linecap="butt" stroke-miterlimit="10" stroke-linejoin="miter" fill="none" stroke="#00aeef" d="M42.13698-37.92665-16.11801-96.18164"/>
<path transform="matrix(1.00008,0,0,-1.00006,105.826038,87.04326)" stroke-width=".3985" stroke-linecap="butt" stroke-miterlimit="10" stroke-linejoin="miter" fill="none" stroke="#00aeef" d="M43.98044-35.7726-13.44525-93.1983"/>
<path transform="matrix(1.00008,0,0,-1.00006,105.826038,87.04326)" stroke-width=".3985" stroke-linecap="butt" stroke-miterlimit="10" stroke-linejoin="miter" fill="none" stroke="#00aeef" d="M45.7132-33.5286-10.84857-90.09036"/>
<path transform="matrix(1.00008,0,0,-1.00006,105.826038,87.04326)" stroke-width=".3985" stroke-linecap="butt" stroke-miterlimit="10" stroke-linejoin="miter" fill="none" stroke="#00aeef" d="M47.33089-31.20242-8.33531-86.86862"/>
<path transform="matrix(1.00008,0,0,-1.00006,105.826038,87.04326)" stroke-width=".3985" stroke-linecap="butt" stroke-miterlimit="10" stroke-linejoin="miter" fill="none" stroke="#00aeef" d="M48.83179-28.7975-5.90852-83.53783"/>
<path transform="matrix(1.00008,0,0,-1.00006,105.826038,87.04326)" stroke-width=".3985" stroke-linecap="butt" stroke-miterlimit="10" stroke-linejoin="miter" fill="none" stroke="#00aeef" d="M50.20987-26.31992-3.5766-80.10638"/>
<path transform="matrix(1.00008,0,0,-1.00006,105.826038,87.04326)" stroke-width=".3985" stroke-linecap="butt" stroke-miterlimit="10" stroke-linejoin="miter" fill="none" stroke="#00aeef" d="M51.46336-23.77834-1.3446-76.58632"/>
<path transform="matrix(1.00008,0,0,-1.00006,105.826038,87.04326)" stroke-width=".3985" stroke-linecap="butt" stroke-miterlimit="10" stroke-linejoin="miter" fill="none" stroke="#00aeef" d="M52.58795-21.17618 .78178-72.98235"/>
<path transform="matrix(1.00008,0,0,-1.00006,105.826038,87.04326)" stroke-width=".3985" stroke-linecap="butt" stroke-miterlimit="10" stroke-linejoin="miter" fill="none" stroke="#00aeef" d="M53.58107-18.52213 2.7967-69.3065"/>
<path transform="matrix(1.00008,0,0,-1.00006,105.826038,87.04326)" stroke-width=".3985" stroke-linecap="butt" stroke-miterlimit="10" stroke-linejoin="miter" fill="none" stroke="#00aeef" d="M54.43835-15.81963 4.69444-65.56354"/>
<path transform="matrix(1.00008,0,0,-1.00006,105.826038,87.04326)" stroke-width=".3985" stroke-linecap="butt" stroke-miterlimit="10" stroke-linejoin="miter" fill="none" stroke="#00aeef" d="M55.16156-13.0782 6.47307-61.7667"/>
<path transform="matrix(1.00008,0,0,-1.00006,105.826038,87.04326)" stroke-width=".3985" stroke-linecap="butt" stroke-miterlimit="10" stroke-linejoin="miter" fill="none" stroke="#00aeef" d="M55.74635-10.30478 8.12561-57.9255"/>
<path transform="matrix(1.00008,0,0,-1.00006,105.826038,87.04326)" stroke-width=".3985" stroke-linecap="butt" stroke-miterlimit="10" stroke-linejoin="miter" fill="none" stroke="#00aeef" d="M56.19185-7.50711 9.64821-54.05077"/>
<path transform="matrix(1.00008,0,0,-1.00006,105.826038,87.04326)" stroke-width=".3985" stroke-linecap="butt" stroke-miterlimit="10" stroke-linejoin="miter" fill="none" stroke="#00aeef" d="M56.49637-4.68869 11.0378-50.14726"/>
<path transform="matrix(1.00008,0,0,-1.00006,105.826038,87.04326)" stroke-width=".3985" stroke-linecap="butt" stroke-miterlimit="10" stroke-linejoin="miter" fill="none" stroke="#00aeef" d="M56.66074-1.85815 12.29189-46.227"/>
<path transform="matrix(1.00008,0,0,-1.00006,105.826038,87.04326)" d="M13.04016-43.65344C13.04016-43.65344 16.29628-28.77899 16.75644-23.33205 17.21658-17.8851 17.03496-9.27939 16.35663-4.39566 15.67828 .48805 13.63794 7.87877 11.86734 11.86647 10.09674 15.85419 6.3376 21.52525 3.59525 24.34496 .85289 27.16467-4.3705 30.72935-7.89767 32.18907-11.42485 33.6488-17.75478 34.86555-21.82619 34.86569-25.8976 34.86584-32.90308 33.64966-37.24158 32.19028-41.58006 30.73088-48.78508 27.16673-53.0951 24.34735-57.40509 21.52795-64.31752 15.85745-68.30515 11.87007-72.29276 7.8827-78.44148 .49283-81.83507-4.39088-85.22865-9.27461-90.19553-17.88135-92.76376-23.32845-95.332-28.77554-98.77748-38.01091-100.3452-43.64986-101.91292-49.2888-103.60231-58.52295-104.06285-63.97003-104.52339-69.41713-104.34259-78.02475-103.66458-82.90881-102.98657-87.79288-100.9466-95.18309-99.17615-99.17096-97.4057-103.15884-93.64664-108.83061-90.90439-111.65065-88.16214-114.47069-82.9388-118.03607-79.4118-119.49597-75.8848-120.95586-69.55553-122.17227-65.48416-122.17259-61.4128-122.17291-54.40694-120.9576-50.06824-119.49837-45.72955-118.03914-38.52382-114.47466-34.21385-111.65544-29.9039-108.83621-22.99269-103.16656-19.005-99.17935-15.01732-95.19215-8.86713-87.80196-5.47334-82.9184-2.07956-78.03484 2.88669-69.42897 5.455-63.98204 8.0233-58.53511 13.03731-43.66061 13.03731-43.66061" fill="#9cdcf9" fill-opacity=".75"/>
<path transform="matrix(1.00008,0,0,-1.00006,105.826038,87.04326)" stroke-width=".79701" stroke-linecap="butt" stroke-miterlimit="10" stroke-linejoin="miter" fill="none" stroke="#ff0000" d="M13.04016-43.65344C13.04016-43.65344 16.29628-28.77899 16.75644-23.33205 17.21658-17.8851 17.03496-9.27939 16.35663-4.39566 15.67828 .48805 13.63794 7.87877 11.86734 11.86647 10.09674 15.85419 6.3376 21.52525 3.59525 24.34496 .85289 27.16467-4.3705 30.72935-7.89767 32.18907-11.42485 33.6488-17.75478 34.86555-21.82619 34.86569-25.8976 34.86584-32.90308 33.64966-37.24158 32.19028-41.58006 30.73088-48.78508 27.16673-53.0951 24.34735-57.40509 21.52795-64.31752 15.85745-68.30515 11.87007-72.29276 7.8827-78.44148 .49283-81.83507-4.39088-85.22865-9.27461-90.19553-17.88135-92.76376-23.32845-95.332-28.77554-98.77748-38.01091-100.3452-43.64986-101.91292-49.2888-103.60231-58.52295-104.06285-63.97003-104.52339-69.41713-104.34259-78.02475-103.66458-82.90881-102.98657-87.79288-100.9466-95.18309-99.17615-99.17096-97.4057-103.15884-93.64664-108.83061-90.90439-111.65065-88.16214-114.47069-82.9388-118.03607-79.4118-119.49597-75.8848-120.95586-69.55553-122.17227-65.48416-122.17259-61.4128-122.17291-54.40694-120.9576-50.06824-119.49837-45.72955-118.03914-38.52382-114.47466-34.21385-111.65544-29.9039-108.83621-22.99269-103.16656-19.005-99.17935-15.01732-95.19215-8.86713-87.80196-5.47334-82.9184-2.07956-78.03484 2.88669-69.42897 5.455-63.98204 8.0233-58.53511 13.03731-43.66061 13.03731-43.66061"/>
<path transform="matrix(1.00008,0,0,-1.00006,105.826038,87.04326)" stroke-width=".79701" stroke-linecap="butt" stroke-miterlimit="10" stroke-linejoin="miter" fill="none" stroke="#ff0000" d="M0-56.69275C0-56.69275 5.36256-56.47359 7.39812-56.2057 9.43365-55.93782 12.68748-55.29326 14.6708-54.7619 16.65414-54.23055 19.79547-53.16183 21.69263-52.376 23.58977-51.59018 26.56612-50.12482 28.34421-49.09824 30.12228-48.07164 32.87885-46.22687 34.50786-44.97702 36.13687-43.72717 38.63292-41.54192 40.085-40.0902 41.53711-38.63846 43.72346-36.14282 44.97356-34.51393 46.22365-32.88504 48.06807-30.12822 49.09479-28.35025 50.12149-26.5723 51.58736-23.59657 52.37341-21.69955 53.15945-19.80254 54.22856-16.66093 54.76016-14.67773 55.29176-12.69452 55.9367-9.44156 56.20483-7.4059 56.47298-5.37022 56.69252-2.0591 56.69275-.00604 56.69298 2.047 56.47423 5.35565 56.20657 7.39119 55.9389 9.42674 55.29472 12.6813 54.76361 14.66475 54.2325 16.6482 53.16406 19.78943 52.3786 21.68657 51.59315 23.58372 50.1289 26.55981 49.10257 28.33813 48.07622 30.11647 46.23106 32.87428 44.98134 34.50354 43.73161 36.1328 41.547 38.6286 40.0954 40.08069 38.64378 41.53279 36.14787 43.7189 34.5191 44.96922 32.89034 46.21954 30.13414 48.06523 28.35631 49.09218 26.57846 50.11914 23.60263 51.58478 21.70561 52.37082 19.80858 53.15688 16.66699 54.22572 14.68378 54.75757 12.70058 55.2894 9.44751 55.93547 7.41196 56.20396 5.37642 56.47247 .01295 56.69275 .01295 56.69275"/>
<path transform="matrix(1.00008,0,0,-1.00006,105.826038,87.04326)" stroke-width=".3985" stroke-linecap="butt" stroke-dasharray="2.98883,2.98883" stroke-miterlimit="10" stroke-linejoin="miter" fill="none" stroke="#000000" d="M10.91336 10.91336-65.48018-65.48018"/>
<path transform="matrix(1.00008,0,0,-1.00006,105.826038,87.04326)" stroke-width=".79701" stroke-linecap="butt" stroke-miterlimit="10" stroke-linejoin="miter" fill="none" stroke="#000000" d="M-54.5668-54.5668V2.1268"/>
<path transform="matrix(1.00008,0,0,-1.00006,105.826038,87.04326)" d="M-60.27315-31.68532H-48.860494V-20.75469H-60.27315Z" fill="#ffffff"/>
<use data-text="r" xlink:href="#font_1_2" transform="matrix(9.963397,0,0,-9.963197,48.868486,115.40996)"/>
<path transform="matrix(1.00008,0,0,-1.00006,105.826038,87.04326)" stroke-width=".79701" stroke-linecap="butt" stroke-miterlimit="10" stroke-linejoin="miter" fill="none" stroke="#000000" d="M0 70.867-21.82672 49.04028"/>
<path transform="matrix(1.00008,0,0,-1.00006,105.826038,87.04326)" d="M-19.3387 52.42659H-2.487999V67.48071H-19.3387Z" fill="#ffffff"/>
<use data-text="h" xlink:href="#font_1_1" transform="matrix(9.963397,0,0,-9.963197,89.806758,29.797825)"/>
<use data-text="1" xlink:href="#font_2_1" transform="matrix(6.974358,0,0,-6.9742186,95.54722,31.29292)"/>
<path transform="matrix(1.00008,0,0,-1.00006,105.826038,87.04326)" stroke-width=".79701" stroke-linecap="butt" stroke-miterlimit="10" stroke-linejoin="miter" fill="none" stroke="#000000" d="M0-70.867-65.48018-136.34719"/>
<path transform="matrix(1.00008,0,0,-1.00006,105.826038,87.04326)" d="M-41.16544-111.13416H-24.31474V-96.08004H-41.16544Z" fill="#ffffff"/>
<use data-text="h" xlink:href="#font_1_1" transform="matrix(9.963397,0,0,-9.963197,67.978008,193.36864)"/>
<use data-text="2" xlink:href="#font_2_2" transform="matrix(6.974358,0,0,-6.9742186,73.71847,194.86374)"/>
<path transform="matrix(1.00008,0,0,-1.00006,105.826038,87.04326)" stroke-width=".79701" stroke-linecap="butt" stroke-miterlimit="10" stroke-linejoin="miter" fill="none" stroke="#000000" d="M0 85.04042-43.65344 41.38696"/>
<path transform="matrix(1.00008,0,0,-1.00006,105.826038,87.04326)" d="M-28.01735 56.43384H-15.636109V69.99355H-28.01735Z" fill="#ffffff"/>
<use data-text="h" xlink:href="#font_1_1" transform="matrix(9.963397,0,0,-9.963197,81.12706,27.285676)"/>
</svg>
