<svg xmlns="http://www.w3.org/2000/svg" xmlns:xlink="http://www.w3.org/1999/xlink" xmlns:inkscape="http://www.inkscape.org/namespaces/inkscape" version="1.1" width="151" height="256" viewBox="0 0 151 256">
<defs>
<path id="font_1_56" d="M.43998719 .2004242C.43998719 .3194275 .3600006 .4184265 .25498963 .4184265 .19799805 .4184265 .1539917 .39343263 .12799073 .36543275V.5722656C.17098999 .558609 .20599365 .5576172 .21699524 .5576172 .32998658 .5576172 .4019928 .6404724 .4019928 .65423586 .4019928 .65815737 .3999939 .66308596 .3939972 .66308596 .3939972 .6638031 .3899994 .6638031 .3809967 .6598053 .32499696 .6358032 .2769928 .6328125 .25099183 .6328125 .18499756 .6322632 .13798523 .6522522 .11898804 .66026309 .11199951 .66308596 .10899353 .66308596 .10899353 .66308596 .100997928 .66308596 .100997928 .65708926 .100997928 .6411133V.34443666C.100997928 .32644654 .100997928 .32044984 .11299133 .32044984 .117996219 .32044984 .11898804 .32144166 .1289978 .33345033 .15699768 .37443543 .20399475 .3984375 .2539978 .3984375 .30699159 .3984375 .33299256 .34944154 .34098817 .33244325 .35798646 .29345704 .35899354 .24446106 .35899354 .20648194 .35899354 .16848755 .35899354 .11149597 .33099366 .06651306 .30899049 .030426026 .269989 .005508423 .22599793 .005508423 .1599884 .005508423 .09498596 .050354005 .07699585 .12310791 .08198547 .12110901 .08799744 .12011719 .09298706 .12011719 .10998535 .12011719 .13699341 .1301117 .13699341 .16410828 .13699341 .19210816 .117996219 .20811463 .09298706 .20811463 .07499695 .20811463 .04899597 .19911194 .04899597 .16011048 .04899597 .07527161 .116989139-.021484375 .22799683-.021484375 .34098817-.021484375 .43998719 .073272708 .43998719 .20010376V.2004242Z"/>
<path id="font_1_121" d="M.44799806 .31976319C.44799806 .40283204 .44299317 .48388673 .40699769 .5599518 .3659973 .64302065 .2939911 .66503909 .24499512 .66503909 .18699646 .66503909 .115997318 .6360016 .07899475 .552948 .050994874 .48989869 .040985109 .42785646 .040985109 .31976319 .040985109 .22268677 .04798889 .14964295 .083999637 .07858276 .12298584 .002532959 .19198609-.021484375 .24398804-.021484375 .33099366-.021484375 .3809967 .030548096 .4099884 .08859253 .44599916 .16365052 .44799806 .26171876 .44799806 .31976319M.37199403 .33177186C.37199403 .26472474 .37199403 .18867493 .36099244 .12762451 .34199525 .017532349 .2789917-.0014801025 .24398804-.0014801025 .21199036-.0014801025 .14698792 .016540528 .12799073 .12562561 .116989139 .18566895 .116989139 .26171876 .116989139 .33177186 .116989139 .41383363 .116989139 .48789979 .1329956 .54693606 .1499939 .6139984 .20098877 .64501956 .24398804 .64501956 .28199769 .64501956 .33999635 .621994 .35899354 .53593447 .37199403 .47888185 .37199403 .39982606 .37199403 .33177186Z"/>
<path id="font_1_43" d="M.4059906 .1191864C.4059906 .12817383 .39898683 .12817383 .3959961 .12817383 .3869934 .12817383 .38598634 .1251831 .3829956 .1131897 .36099244 .04222107 .30699159 .01222229 .25299073 .01222229 .19198609 .01222229 .11099243 .065200809 .11099243 .21713257 .11099243 .3831482 .19599915 .4242859 .24598694 .4242859 .28399659 .4242859 .33898927 .40924073 .3619995 .3701172 .34999085 .3701172 .31298829 .3701172 .31298829 .32911683 .31298829 .30511476 .32998658 .28811646 .35398866 .28811646 .3769989 .28811646 .3959961 .30210877 .3959961 .33111573 .3959961 .39819337 .32598878 .44628907 .24499512 .44628907 .12799073 .44628907 .034988405 .34210206 .034988405 .21614075 .034988405 .0881958 .1309967-.009765625 .24398804-.009765625 .37599183-.009765625 .4059906 .110183719 .4059906 .1191864Z"/>
<path id="font_1_75" d="M.79299929 0V.0289917C.7429962 .0289917 .71798709 .0289917 .71699526 .059051515V.24342346C.71699526 .3365631 .71699526 .36450196 .69400027 .39640809 .6649933 .4353943 .6179962 .44140626 .58399966 .44140626 .5009918 .44140626 .45899964 .38145448 .44299317 .3425598 .42900086 .41940309 .375 .44140626 .31199647 .44140626 .21499634 .44140626 .1769867 .35850526 .16899109 .338562H.16799927V.44140626L.03199768 .4303589V.4013672C.099990848 .4013672 .10798645 .39437867 .10798645 .34553529V.07408142C.10798645 .0289917 .09700012 .0289917 .03199768 .0289917V0C.057998659 .0019989014 .11199951 .0019989014 .13999939 .0019989014 .16899109 .0019989014 .22299195 .0019989014 .24899292 0V.0289917C.18499756 .0289917 .17298889 .0289917 .17298889 .07408142V.26046754C.17298889 .36547853 .24198914 .4213562 .3039856 .4213562 .3659973 .4213562 .37998963 .37045289 .37998963 .3095703V.07408142C.37998963 .0289917 .36898805 .0289917 .3039856 .0289917V0C.32998658 .0019989014 .38398744 .0019989014 .4119873 .0019989014 .44099427 .0019989014 .49499513 .0019989014 .5209961 0V.0289917C.45700074 .0289917 .44499208 .0289917 .44499208 .07408142V.26046754C.44499208 .36547853 .5139923 .4213562 .57598879 .4213562 .6380005 .4213562 .6519928 .37045289 .6519928 .3095703V.07408142C.6519928 .0289917 .6409912 .0289917 .57598879 .0289917V0C.60198977 .0019989014 .6559906 .0019989014 .6839905 .0019989014 .71299746 .0019989014 .7669983 .0019989014 .79299929 0Z"/>
<path id="font_1_57" d="M.46199037 .16699219V.19598389H.36099244V.6508026C.36099244 .6697998 .36099244 .6748047 .34700013 .6748047 .33898927 .6748047 .33599855 .6748047 .32798768 .6628113L.026992798 .19598389V.16699219H.2899933V.07598877C.2899933 .038986207 .28799439 .0289917 .21499634 .0289917H.19499207V0C.21798706 .0019989014 .29699708 .0019989014 .32499696 .0019989014 .35299684 .0019989014 .43299867 .0019989014 .45599366 0V.0289917H.43598939C.3639984 .0289917 .36099244 .038986207 .36099244 .07598877V.16699219H.46199037M.29499818 .19598389H.051986696L.29499818 .57284548V.19598389Z"/>
<path id="font_1_106" d="M.44799806 .17103577C.44799806 .263031 .37399293 .33503724 .27799989 .35203553 .36499024 .37702943 .42099 .45002748 .42099 .5280304 .42099 .60702517 .33898927 .66503909 .24198914 .66503909 .14199829 .66503909 .067993167 .6040344 .067993167 .5310364 .067993167 .49121095 .09899902 .48321534 .11399841 .48321534 .1349945 .48321534 .15899658 .49821473 .15899658 .5282135 .15899658 .5602112 .1349945 .57421877 .11299133 .57421877 .10699463 .57421877 .10499573 .57421877 .101989749 .57321169 .13999939 .641037 .23399353 .641037 .23899842 .641037 .27198792 .641037 .33699037 .6260681 .33699037 .5282135 .33699037 .5092163 .33399964 .453125 .30499269 .41001893 .2749939 .3658905 .24099732 .36288453 .21398926 .36187745L.18399048 .35888673C.16699219 .35787965 .16299439 .35688783 .16299439 .34788514 .16299439 .33789063 .16799927 .33789063 .18598938 .33789063H.23199463C.31698609 .33789063 .35499574 .267807 .35499574 .17172241 .35499574 .04058838 .2869873 .005508423 .23799134 .005508423 .18998719 .005508423 .10798645 .028564454 .07899475 .09472656 .11099243 .08955383 .13999939 .107543949 .13999939 .14355469 .13999939 .17271424 .11898804 .1927185 .09098816 .1927185 .066986087 .1927185 .040985109 .1787262 .040985109 .14071656 .040985109 .051620485 .12998963-.021484375 .24099732-.021484375 .3600006-.021453858 .44799806 .06954956 .44799806 .17054749V.17103577Z"/>
</defs>
<path transform="matrix(1,0,0,-1.00006,58.789,228.58374)" d="M-56.69362 0V141.73404H56.69362V0ZM56.69362 141.73404" fill="#b3b3ff"/>
<path transform="matrix(1,0,0,-1.00006,58.789,228.58374)" d="M56.69363 141.73404C56.69363 149.56189 31.31142 155.90744 0 155.90744-31.31142 155.90744-56.69363 149.56189-56.69363 141.73404-56.69363 133.90619-31.31142 127.56064 0 127.56064 31.31142 127.56064 56.69363 133.90619 56.69363 141.73404ZM0 141.73404" fill="#b3b3ff"/>
<path transform="matrix(1,0,0,-1.00006,58.789,228.58374)" stroke-width=".3985" stroke-linecap="butt" stroke-miterlimit="10" stroke-linejoin="miter" fill="none" stroke="#000000" d="M56.69363 141.73404C56.69363 149.56189 31.31142 155.90744 0 155.90744-31.31142 155.90744-56.69363 149.56189-56.69363 141.73404-56.69363 133.90619-31.31142 127.56064 0 127.56064 31.31142 127.56064 56.69363 133.90619 56.69363 141.73404ZM0 141.73404"/>
<path transform="matrix(1,0,0,-1.00006,58.789,228.58374)" d="M56.69363 0C56.69363 7.82784 31.31142 14.17339 0 14.17339-31.31142 14.17339-56.69363 7.82784-56.69363 0-56.69363-7.82784-31.31142-14.17339 0-14.17339 31.31142-14.17339 56.69363-7.82784 56.69363 0ZM0 0" fill="#b3b3ff"/>
<path transform="matrix(1,0,0,-1.00006,58.789,228.58374)" stroke-width=".3985" stroke-linecap="butt" stroke-dasharray="2.98883,2.98883" stroke-miterlimit="10" stroke-linejoin="miter" fill="none" stroke="#000000" d="M56.69363 0C56.69363 7.82784 31.31142 14.17339 0 14.17339-31.31142 14.17339-56.69363 7.82784-56.69363 0-56.69363-7.82784-31.31142-14.17339 0-14.17339 31.31142-14.17339 56.69363-7.82784 56.69363 0ZM0 0"/>
<path transform="matrix(1,0,0,-1.00006,58.789,228.58374)" stroke-width=".3985" stroke-linecap="butt" stroke-dasharray="2.98883,2.98883" stroke-miterlimit="10" stroke-linejoin="miter" fill="none" stroke="#000000" d="M56.69363 0C56.69363 7.82784 31.31142 14.17339 0 14.17339-31.31142 14.17339-56.69363 7.82784-56.69363 0-56.69363-7.82784-31.31142-14.17339 0-14.17339 31.31142-14.17339 56.69363-7.82784 56.69363 0ZM0 0"/>
<path transform="matrix(1,0,0,-1.00006,58.789,228.58374)" d="M-56.69362 0V141.73404" fill="#b3b3ff"/>
<path transform="matrix(1,0,0,-1.00006,58.789,228.58374)" d="M56.69362 0V141.73404" fill="#b3b3ff"/>
<path transform="matrix(1,0,0,-1.00006,58.789,228.58374)" stroke-width=".3985" stroke-linecap="butt" stroke-miterlimit="10" stroke-linejoin="miter" fill="none" stroke="#000000" d="M56.69363 141.73404C56.69363 149.56189 31.31142 155.90744 0 155.90744-31.31142 155.90744-56.69363 149.56189-56.69363 141.73404-56.69363 133.90619-31.31142 127.56064 0 127.56064 31.31142 127.56064 56.69363 133.90619 56.69363 141.73404ZM0 141.73404"/>
<path transform="matrix(1,0,0,-1.00006,58.789,228.58374)" stroke-width=".3985" stroke-linecap="butt" stroke-miterlimit="10" stroke-linejoin="miter" fill="none" stroke="#000000" d="M-56.69362 141.73404 0 226.77448"/>
<path transform="matrix(1,0,0,-1.00006,58.789,228.58374)" stroke-width=".3985" stroke-linecap="butt" stroke-miterlimit="10" stroke-linejoin="miter" fill="none" stroke="#000000" d="M56.69362 141.73404 0 226.77448"/>
<path transform="matrix(1,0,0,-1.00006,58.789,228.58374)" stroke-width=".3985" stroke-linecap="butt" stroke-dasharray="2.98883,2.98883" stroke-miterlimit="10" stroke-linejoin="miter" fill="none" stroke="#000000" d="M0 226.77448V141.73404"/>
<path transform="matrix(1,0,0,-1.00006,58.789,228.58374)" stroke-width=".3985" stroke-linecap="butt" stroke-dasharray="2.98883,2.98883" stroke-miterlimit="10" stroke-linejoin="miter" fill="none" stroke="#000000" d="M0 141.73404H56.69362"/>
<path transform="matrix(1,0,0,-1.00006,58.789,228.58374)" stroke-width=".3985" stroke-linecap="butt" stroke-dasharray="2.98883,2.98883" stroke-miterlimit="10" stroke-linejoin="miter" fill="none" stroke="#000000" d="M0 0H56.69362"/>
<use data-text="5" xlink:href="#font_1_56" transform="matrix(11.9552,0,0,-11.955917,119.002,161.56272)"/>
<use data-text="0" xlink:href="#font_1_121" transform="matrix(11.9552,0,0,-11.955917,124.86005,161.56272)"/>
<use data-text="c" xlink:href="#font_1_43" transform="matrix(11.9552,0,0,-11.955917,134.60353,161.56272)"/>
<use data-text="m" xlink:href="#font_1_75" transform="matrix(11.9552,0,0,-11.955917,139.80405,161.56272)"/>
<use data-text="4" xlink:href="#font_1_57" transform="matrix(11.9552,0,0,-11.955917,71.851,254.34828)"/>
<use data-text="0" xlink:href="#font_1_121" transform="matrix(11.9552,0,0,-11.955917,77.709049,254.34828)"/>
<use data-text="c" xlink:href="#font_1_43" transform="matrix(11.9552,0,0,-11.955917,87.45253,254.34828)"/>
<use data-text="m" xlink:href="#font_1_75" transform="matrix(11.9552,0,0,-11.955917,92.653049,254.34828)"/>
<use data-text="3" xlink:href="#font_1_106" transform="matrix(11.9552,0,0,-11.955917,24.699006,48.167924)"/>
<use data-text="0" xlink:href="#font_1_121" transform="matrix(11.9552,0,0,-11.955917,30.557053,48.167924)"/>
<use data-text="c" xlink:href="#font_1_43" transform="matrix(11.9552,0,0,-11.955917,40.300539,48.167924)"/>
<use data-text="m" xlink:href="#font_1_75" transform="matrix(11.9552,0,0,-11.955917,45.501054,48.167924)"/>
</svg>
