<svg xmlns="http://www.w3.org/2000/svg" xmlns:xlink="http://www.w3.org/1999/xlink" xmlns:inkscape="http://www.inkscape.org/namespaces/inkscape" version="1.1" width="384" height="286" viewBox="0 0 384 286">
<defs>
<path id="font_1_1" d="M.49198915 .40434266C.45498658 .39733888 .44400025 .3653412 .44400025 .3503418 .44400025 .33132936 .45799256 .31433106 .48298646 .31433106 .5109863 .31433106 .5379944 .33833314 .5379944 .3733368 .5379944 .41937257 .48799134 .4423828 .44099427 .4423828 .3809967 .4423828 .34599305 .38934327 .33399964 .3683319 .31498719 .41737367 .2709961 .4423828 .22299195 .4423828 .115997318 .4423828 .057998659 .31433106 .057998659 .28833009 .057998659 .2793274 .06498718 .2763214 .07199097 .2763214 .08099365 .2763214 .083999637 .2813263 .085998538 .287323 .116989139 .38633729 .18299866 .41737367 .22099304 .41737367 .25 .41737367 .27598573 .3983307 .27598573 .35133363 .27598573 .31533814 .23298645 .15530396 .21998596 .107284549 .21199036 .076293949 .18199158 .014251709 .1269989 .014251709 .10699463 .014251709 .085998538 .021270752 .07598877 .027282715 .102996829 .032287599 .12298584 .055282594 .12298584 .08128357 .12298584 .106292728 .10398865 .11729431 .084991458 .11729431 .055999757 .11729431 .02999878 .092285159 .02999878 .058288576 .02999878 .009246826 .083999637-.0107421879 .12599182-.0107421879 .18399048-.0107421879 .21798706 .03729248 .23298645 .06428528 .2579956-.0017547608 .31698609-.0107421879 .34399415-.0107421879 .45199586-.0107421879 .5089874 .11929321 .5089874 .14329529 .5089874 .14830017 .5059967 .15530396 .49598695 .15530396 .4850006 .15530396 .48399354 .1512909 .47898866 .1362915 .45700074 .06428528 .39898683 .014251709 .34700013 .014251709 .31799317 .014251709 .29100038 .032287599 .29100038 .08029175 .29100038 .10229492 .30499269 .15730286 .31399537 .1953125 .31799317 .21331787 .34498597 .32133485 .34700013 .32833863 .35899354 .3643341 .3889923 .41737367 .43998719 .41737367 .45799256 .41737367 .47698976 .41436769 .49198915 .40434266Z"/>
<path id="font_1_2" d="M.5019989 .38536073C.5029907 .3903656 .5049896 .39637757 .5049896 .40237428 .5049896 .41537477 .49598695 .43138124 .47399903 .43138124 .46099855 .43138124 .44299317 .42337037 .43499757 .40437318 .43399049 .40037538 .42399598 .35935975 .41799928 .33735658L.36799623 .13728333C.3600006 .10827637 .3600006 .106277469 .35798646 .09727478 .35699464 .09327698 .31498719 .014251709 .24299622 .014251709 .18099976 .014251709 .18099976 .07727051 .18099976 .09628296 .18099976 .14129639 .19400025 .19030762 .23699951 .30233766 .24499512 .3253479 .25099183 .33935548 .25099183 .35835267 .25099183 .40737916 .21398926 .4423828 .16499329 .4423828 .068984989 .4423828 .0289917 .30033876 .0289917 .28833009 .0289917 .2793274 .035995485 .27633668 .042999269 .27633668 .053985597 .27633668 .054992677 .28233338 .05899048 .29533387 .07998657 .3693695 .11999512 .41737367 .1619873 .41737367 .18598938 .41737367 .18598938 .39837647 .18598938 .3843689 .18598938 .36735536 .18199158 .34934999 .17298889 .3253479 .12599182 .2013092 .11299133 .15930176 .11299133 .11128235 .11299133 .00024414063 .20298767-.0107421879 .23999024-.0107421879 .2889862-.0107421879 .32398988 .01524353 .34199525 .0332489 .32899476-.017745972 .31799317-.0627594 .2789917-.11276245 .24899292-.15286255 .20899964-.18008423 .16499329-.18008423 .13699341-.18008423 .10398865-.16999817 .08999634-.14176941 .14299011-.14176941 .1499939-.09776306 .1499939-.087768558 .1499939-.06576538 .13398743-.051757814 .11199951-.051757814 .08799744-.051757814 .055999757-.07077026 .055999757-.116760257 .055999757-.16899109 .101989749-.20507813 .16499329-.20507813 .2669983-.20507813 .37599183-.117767337 .40499879-.00074768069L.5019989 .38536073Z"/>
<path id="font_2_82" d="M.4189911 0V.0309906H.3869934C.29699708 .0309906 .2939911 .041992189 .2939911 .07902527V.64012148C.2939911 .6640167 .2939911 .6660156 .2709961 .6660156 .20899964 .60227969 .12098694 .60227969 .08898926 .60227969V.57128909C.10899353 .57128909 .16799927 .57128909 .21998596 .5972748V.07902527C.21998596 .042999269 .21699524 .0309906 .1269989 .0309906H.09498596V0C.12998963 .0029907227 .21699524 .0029907227 .25698854 .0029907227 .29699708 .0029907227 .38398744 .0029907227 .4189911 0Z"/>
<path id="font_2_121" d="M.45999146 .31976319C.45999146 .39982606 .45498658 .47988893 .41999818 .5539398 .37399293 .65000918 .2919922 .6660156 .25 .6660156 .18998719 .6660156 .116989139 .64001467 .07598877 .54693606 .04399109 .47789 .038986207 .39982606 .038986207 .31976319 .038986207 .24472046 .042999269 .15464783 .083999637 .07859802 .1269989-.0024719239 .19999695-.022460938 .24899292-.022460938 .30299378-.022460938 .3789978-.0014648438 .4229889 .09359741 .45498658 .16265869 .45999146 .2407074 .45999146 .31976319M.3769989 .3317871C.3769989 .25672914 .3769989 .18867493 .3659973 .12461853 .35099793 .029556275 .2939911-.00047302247 .24899292-.00047302247 .20999146-.00047302247 .15098572 .024551392 .1329956 .12062073 .12199402 .18066406 .12199402 .2727356 .12199402 .3317871 .12199402 .39582826 .12199402 .46188355 .12998963 .5159149 .14898682 .63500979 .22399903 .64401248 .24899292 .64401248 .28199769 .64401248 .34799195 .6259918 .36698915 .52693179 .3769989 .47088624 .3769989 .39482118 .3769989 .3317871Z"/>
<path id="font_2_107" d="M.44898988 .17396546H.42399598C.4189911 .14398194 .4119873 .099990848 .4019928 .084991458 .394989 .07699585 .32899476 .07699585 .30699159 .07699585H.1269989L.23298645 .17996216C.3889923 .31803895 .44898988 .37210084 .44898988 .47216798 .44898988 .5860901 .35899354 .6660156 .23699951 .6660156 .12399292 .6660156 .049987794 .57411196 .049987794 .48516847 .049987794 .4291687 .099990848 .4291687 .102996829 .4291687 .11999512 .4291687 .15499878 .44117738 .15499878 .48217774 .15499878 .5081787 .13699341 .5341797 .101989749 .5341797 .09399414 .5341797 .09199524 .5341797 .08898926 .5331726 .11199951 .59806826 .1659851 .63500979 .22399903 .63500979 .31498719 .63500979 .35798646 .5541382 .35798646 .47216798 .35798646 .39196778 .30799867 .31297303 .25299073 .25097657L.06098938 .036987306C.049987794 .025985718 .049987794 .023986817 .049987794 0H.42099L.44898988 .17396546Z"/>
<path id="font_2_106" d="M.45700074 .17037964C.45700074 .252594 .3939972 .33088685 .2899933 .35191346 .37199403 .37893678 .42999269 .4490509 .42999269 .52809146 .42999269 .6100464 .34199525 .6660156 .24598694 .6660156 .14498902 .6660156 .068984989 .60606387 .068984989 .53009036 .068984989 .49710084 .09098816 .47808839 .11999512 .47808839 .15098572 .47808839 .17098999 .50009158 .17098999 .5290985 .17098999 .57910159 .12399292 .57910159 .10899353 .57910159 .13999939 .62802127 .20599365 .64100649 .24198914 .64100649 .2829895 .64100649 .33799745 .6190338 .33799745 .5290985 .33799745 .51708987 .33599855 .45906068 .30999757 .4149933 .27999879 .36691285 .24598694 .36390687 .22099304 .36291505 .21299744 .36190797 .18899536 .35990907 .18199158 .35990907 .17399597 .35890199 .16699219 .35791017 .16699219 .3479004 .16699219 .33691407 .17399597 .33691407 .19099427 .33691407H.23498535C.31698609 .33691407 .35398866 .2686615 .35398866 .17037964 .35398866 .034469606 .2849884 .0055389406 .24099732 .0055389406 .19799805 .0055389406 .12298584 .022491456 .08799744 .08137512 .12298584 .07637024 .1539917 .09837341 .1539917 .1363678 .1539917 .17237854 .1269989 .19238281 .09799194 .19238281 .07398987 .19238281 .041992189 .17837525 .041992189 .1343689 .041992189 .043441774 .1349945-.022460938 .24398804-.022460938 .3659973-.022460938 .45700074 .06838989 .45700074 .17037964Z"/>
<path id="font_2_57" d="M.47099305 .16503906V.19602967H.37098695V.6507721C.37098695 .6707611 .37098695 .6767578 .35499574 .6767578 .34599305 .6767578 .34298707 .6767578 .33499146 .6647644L.027999878 .19602967V.16503906H.2939911V.07800293C.2939911 .041992189 .2919922 .0309906 .21798706 .0309906H.19699097V0C.23799134 .0029907227 .2899933 .0029907227 .33198548 .0029907227 .37399293 .0029907227 .4269867 .0029907227 .46798707 0V.0309906H.44699098C.37298585 .0309906 .37098695 .041992189 .37098695 .07800293V.16503906H.47099305M.2999878 .19602967H.055999757L.2999878 .56881716V.19602967Z"/>
<path id="font_2_56" d="M.44898988 .20091248C.44898988 .31991578 .36698915 .41992188 .25898744 .41992188 .21099854 .41992188 .16799927 .4039154 .13198853 .36891175V.5641022C.1519928 .55778506 .18499756 .55078127 .21699524 .55078127 .33999635 .55078127 .4099884 .6418457 .4099884 .65493777 .4099884 .6609802 .40699769 .6660156 .3999939 .6660156 .3999939 .66607668 .39698792 .66607668 .3919983 .66308596 .37199403 .65408328 .32299806 .63378909 .2559967 .63378909 .21598816 .63409426 .16999817 .641098 .12298584 .6621094 .114990238 .6651001 .11099243 .6651001 .11099243 .6651001 .100997928 .66508486 .100997928 .657074 .100997928 .64108279V.3447113C.100997928 .3266449 .100997928 .31861878 .114990238 .31861878 .12199402 .31861878 .12399292 .32164 .12799073 .32765199 .13899231 .34371949 .17599488 .3979187 .25698854 .3979187 .30899049 .3979187 .33399964 .3517456 .34199525 .3336792 .35798646 .2965393 .3600006 .2574005 .3600006 .20721436 .3600006 .17218018 .3600006 .112197879 .33599855 .07032776 .31199647 .031448366 .2749939 .0055389406 .22898865 .0055389406 .1559906 .0055389406 .09899902 .05836487 .08198547 .1171875 .084991458 .11685181 .08799744 .115859989 .09899902 .115859989 .13198853 .115859989 .14898682 .14085388 .14898682 .16485596 .14898682 .18885803 .13198853 .21386719 .09899902 .21386719 .084991458 .21386719 .049987794 .2068634 .049987794 .16085816 .049987794 .07432556 .11898804-.022460938 .23098755-.022460938 .34700013-.022460938 .44898988 .07331848 .44898988 .20019531V.20091248Z"/>
<path id="font_2_101" d="M.45700074 .2036438C.45700074 .33070375 .36799623 .4267578 .25698854 .4267578 .18899536 .4267578 .1519928 .37573243 .13198853 .327713V.35173036C.13198853 .6047821 .2559967 .64100649 .30699159 .64100649 .33099366 .64100649 .37298585 .634964 .394989 .6007538 .37998963 .6007538 .33999635 .6007538 .33999635 .5557556 .33999635 .524765 .3639984 .5097656 .38598634 .5097656 .4019928 .5097656 .43199159 .51875308 .43199159 .5577545 .43199159 .6178589 .3880005 .6660156 .30499269 .6660156 .1769867 .6660156 .041992189 .5367584 .041992189 .31570436 .041992189 .048553468 .1579895-.022460938 .25099183-.022460938 .3619995-.022460938 .45700074 .07156372 .45700074 .2036438M.36698915 .20463562C.36698915 .15661621 .36698915 .10658264 .34999085 .0705719 .31999208 .010528564 .27398683 .0055389406 .25099183 .0055389406 .18798828 .0055389406 .1579895 .06556702 .1519928 .080566409 .13398743 .127594 .13398743 .2076416 .13398743 .22564698 .13398743 .30369569 .1659851 .40374757 .2559967 .40374757 .27198792 .40374757 .31799317 .40374757 .34899903 .34172059 .36698915 .30470277 .36698915 .2536621 .36698915 .20463562Z"/>
<path id="font_2_100" d="M.4850006 .6435547H.24198914C.11999512 .6435547 .117996219 .6566467 .11399841 .67578127H.08898926L.055999757 .46954347H.08099365C.083999637 .48554994 .09298706 .54855349 .10598755 .5605469 .11299133 .5665436 .19099427 .5665436 .20399475 .5665436H.41099549L.29899598 .40853883C.20899964 .2735443 .17599488 .13453675 .17599488 .03253174 .17599488 .022537232 .17599488-.022460938 .22200012-.022460938 .2679901-.022460938 .2679901 .022537232 .2679901 .03253174V.08354187C.2679901 .13853455 .2709961 .19354248 .2789917 .24754334 .2829895 .27053834 .29699708 .35653688 .34098817 .41854859L.47599793 .608551C.4850006 .62054446 .4850006 .62254336 .4850006 .6435547Z"/>
<path id="font_2_51" d="M.45700074 .16764832C.45700074 .20367432 .44599916 .24871826 .4079895 .29074098 .3889923 .31176759 .37298585 .32176209 .30899049 .36180116 .3809967 .39881898 .42999269 .4508667 .42999269 .51690676 .42999269 .6089783 .34098817 .6660156 .25 .6660156 .1499939 .6660156 .068984989 .5919647 .068984989 .49890138 .068984989 .48088075 .070999149 .43585206 .11299133 .38882447 .12399292 .3768158 .16099549 .35179139 .18598938 .33477784 .12799073 .30575563 .041992189 .24971009 .041992189 .15063477 .041992189 .044555665 .14399719-.022460938 .24899292-.022460938 .3619995-.022460938 .45700074 .060577394 .45700074 .16764832M.38598634 .51690676C.38598634 .45986939 .34700013 .41183473 .2869873 .3768158L.16299439 .4568634C.116989139 .4868927 .11299133 .5209198 .11299133 .53793337 .11299133 .5989685 .17799378 .64100649 .24899292 .64100649 .32199098 .64100649 .38598634 .588974 .38598634 .51690676M.40699769 .13162232C.40699769 .05757141 .33198548 .0055389406 .25 .0055389406 .1639862 .0055389406 .09199524 .06758118 .09199524 .15063477 .09199524 .2086792 .12399292 .2727356 .20899964 .31976319L.33198548 .24171448C.3600006 .22268677 .40699769 .19267273 .40699769 .13162232Z"/>
<path id="font_2_78" d="M.45700074 .32888795C.45700074 .598114 .34199525 .6660156 .25299073 .6660156 .19799805 .6660156 .14898682 .64801028 .10598755 .6031189 .06498718 .5580902 .041992189 .5160217 .041992189 .44091798 .041992189 .3158722 .12998963 .21777344 .24198914 .21777344 .30299378 .21777344 .34399415 .25979615 .36698915 .3178711V.28582765C.36698915 .05178833 .2630005 .0055389406 .20498657 .0055389406 .18798828 .0055389406 .13398743 .007537842 .10699463 .041778566 .15098572 .041778566 .15899658 .07078552 .15899658 .08778381 .15899658 .118774417 .1349945 .13378906 .11299133 .13378906 .09700012 .13378906 .066986087 .12478638 .066986087 .08578491 .066986087 .018615723 .12098694-.022460938 .20599365-.022460938 .33499146-.022460938 .45700074 .11378479 .45700074 .32888795M.36499024 .42089845C.36499024 .33789063 .33099366 .24076844 .24299622 .24076844 .22698975 .2407074 .18099976 .2407074 .1499939 .30371095 .13198853 .34072877 .13198853 .3908081 .13198853 .43988038 .13198853 .49397279 .13198853 .5410614 .15299988 .578125 .17999268 .62805178 .21798706 .64100649 .25299073 .64100649 .29899598 .64100649 .33198548 .60710147 .34899903 .562088 .36099244 .52989199 .36499024 .46688844 .36499024 .42089845Z"/>
<path id="font_3_121" d="M.47299195 .31976319C.47299195 .38682557 .46998597 .47288514 .43499757 .5479431 .3909912 .64201357 .31498719 .6660156 .25698854 .6660156 .19699097 .6660156 .12098694 .64201357 .07699585 .5459442 .04499817 .47688294 .039993287 .39582826 .039993287 .31976319 .039993287 .25471498 .041992189 .15765381 .084991458 .07858276 .13198853-.0064697267 .20999146-.022460938 .2559967-.022460938 .32099916-.022460938 .394989 .0055389406 .43699647 .097595218 .46699525 .1646576 .47299195 .23971558 .47299195 .31976319M.3869934 .33177186C.3869934 .2697296 .3869934 .18566895 .3769989 .12661743 .35598756 .012542725 .28199769 .002532959 .25698854 .002532959 .22698975 .002532959 .15499878 .016540528 .13598633 .12962342 .12599182 .18867493 .12599182 .2747345 .12599182 .33177186 .12599182 .39982606 .12599182 .47888185 .13798523 .53393557 .1579895 .6230011 .22200012 .64100649 .2559967 .64100649 .2939911 .64100649 .35699464 .62098696 .37599183 .5279236 .3869934 .47288514 .3869934 .39482118 .3869934 .33177186Z"/>
<path id="font_3_82" d="M.43199159 0V.0309906H.3999939C.30699159 .0309906 .3039856 .042999269 .3039856 .08001709V.63912966C.3039856 .6640167 .30299378 .6660156 .27799989 .6660156 .21598816 .60227969 .12399292 .60227969 .09298706 .60227969V.57128909C.11199951 .57128909 .17298889 .57128909 .22698975 .5972748V.08001709C.22698975 .042999269 .22399903 .0309906 .1309967 .0309906H.09899902V0C.1349945 .0029907227 .22399903 .0029907227 .2649994 .0029907227 .30599977 .0029907227 .3959961 .0029907227 .43199159 0Z"/>
<path id="font_3_107" d="M.46199037 .17704773H.43399049C.43199159 .16404724 .42399598 .10501099 .41099549 .08900452 .40499879 .07998657 .33599855 .07998657 .31599427 .07998657H.13798523L.23699951 .17404175C.40098573 .3161316 .46199037 .36915589 .46199037 .4711914 .46199037 .5860901 .36698915 .6660156 .24398804 .6660156 .1289978 .6660156 .050994874 .575119 .050994874 .4841919 .050994874 .43418885 .09399414 .42919923 .102996829 .42919923 .125 .42919923 .15499878 .44519044 .15499878 .48120118 .15499878 .51119998 .13398743 .5332031 .102996829 .5332031 .09799194 .5332031 .09498596 .5332031 .09098816 .53219607 .114990238 .6030731 .1789856 .63500979 .23298645 .63500979 .33499146 .63500979 .36999513 .5401764 .36999513 .4711914 .36999513 .36915589 .29299928 .28611756 .24499512 .23408509L.06199646 .035995485C.050994874 .024993897 .050994874 .022994996 .050994874 0H.43399049L.46199037 .17704773Z"/>
<path id="font_3_106" d="M.46998597 .17008972C.46998597 .25709535 .40098573 .33110047 .30499269 .35209657 .397995 .38710023 .44198609 .46009828 .44198609 .5290985 .44198609 .60606387 .35699464 .6660156 .25299073 .6660156 .14898682 .6660156 .070999149 .60705569 .070999149 .5310974 .070999149 .49809266 .09298706 .47909547 .12199402 .47909547 .15098572 .47909547 .17199707 .50009158 .17199707 .5290985 .17199707 .5640869 .147995 .57910159 .11399841 .57910159 .13999939 .6210327 .20098877 .64100649 .25 .64100649 .33299256 .64100649 .34899903 .5750885 .34899903 .52809146 .34899903 .49809266 .34298707 .45005799 .31799317 .41201783 .2869873 .36695863 .2519989 .36495973 .22299195 .36296083 .19799805 .36094667 .19599915 .36094667 .18798828 .36094667 .1789856 .35995484 .17098999 .35894776 .17098999 .34794618 .17098999 .33496095 .1789856 .33496095 .19599915 .33496095H.24299622C.32998658 .33496095 .36799623 .2646637 .36799623 .16937256 .36799623 .04145813 .2999878 .0055389406 .24899292 .0055389406 .22999573 .0055389406 .1329956 .010528564 .08799744 .0843811 .12399292 .07939148 .1519928 .10437012 .1519928 .13838196 .1519928 .17137146 .1269989 .19238281 .09799194 .19238281 .07299805 .19238281 .042999269 .17736817 .042999269 .13537598 .042999269 .046447755 .13598633-.022460938 .2519989-.022460938 .3769989-.022460938 .46998597 .06741333 .46998597 .16937256V.17008972Z"/>
<path id="font_3_57" d="M.48399354 .16503906V.19602967H.38198854V.649765C.38198854 .669754 .38198854 .6767578 .36299134 .6767578 .35099793 .6767578 .34999085 .67575076 .34098817 .6617584L.0289917 .19602967V.16503906H.3019867V.07901001C.3019867 .041992189 .29899598 .0309906 .22399903 .0309906H.20199585V0C.2649994 .0029907227 .33499146 .0029907227 .34199525 .0029907227 .34700013 .0029907227 .4189911 .0029907227 .48199464 0V.0309906H.45999146C.3849945 .0309906 .38198854 .041992189 .38198854 .07901001V.16503906H.48399354M.30799867 .19602967H.06098938L.30799867 .56581118V.19602967Z"/>
<path id="font_3_56" d="M.46199037 .19992066C.46199037 .3209076 .37599183 .41992188 .2669983 .41992188 .21899414 .41992188 .16999817 .4039154 .1349945 .36791993V.5647888C.16499329 .55578616 .19599915 .55078127 .22698975 .55078127 .34999085 .55078127 .42199708 .63983157 .42199708 .6529236 .42199708 .6619873 .41600038 .6660156 .41099549 .6660156 .41099549 .6660156 .40699769 .6660156 .397995 .6609802 .35099793 .6418457 .30499269 .63378909 .2630005 .63378909 .21998596 .63378909 .1749878 .6418457 .1289978 .6609802 .11898804 .6660156 .115997318 .6660156 .115997318 .6660156 .10398865 .6660156 .10398865 .6559448 .10398865 .63882449V.34490968C.10398865 .32699586 .10398865 .31599427 .117996219 .31599427 .12599182 .31562806 .1289978 .3196411 .1349945 .32867433 .16499329 .37083436 .21299744 .39491273 .2649994 .39491273 .37199403 .39491273 .37199403 .24035645 .37199403 .20422364 .37199403 .17321778 .37199403 .11122131 .34399415 .06636047 .31698609 .024475098 .2749939 .0055389406 .23599243 .0055389406 .1769867 .0055389406 .10998535 .042419435 .085998538 .11621094 .085998538 .116882327 .09298706 .11488342 .099990848 .11488342 .11999512 .11488342 .14898682 .12788391 .14898682 .1638794 .14898682 .19488526 .1269989 .21289063 .099990848 .21289063 .07899475 .21289063 .050994874 .20088196 .050994874 .16088867 .050994874 .069732669 .1269989-.022460938 .23799134-.022460938 .35899354-.02279663 .46199037 .07521057 .46199037 .19921875V.19992066Z"/>
<path id="font_3_101" d="M.46998597 .20277405C.46998597 .32977296 .37799073 .42578126 .2649994 .42578126 .20498657 .42578126 .1619873 .3907776 .13398743 .33078004 .13398743 .43276979 .14498902 .4897766 .17199707 .54177859 .19198609 .58277896 .24099732 .64100649 .31498719 .64100649 .33499146 .64100649 .3809967 .63697817 .4039917 .6007843 .36698915 .6007843 .35099793 .5817871 .35099793 .55477908 .35099793 .5287781 .36898805 .50878909 .39698792 .50878909 .4249878 .50878909 .44400025 .5267792 .44400025 .55677798 .44400025 .61299136 .4039917 .6660156 .31298829 .6660156 .18399048 .6660156 .042999269 .5389252 .042999269 .31576539 .042999269 .044555665 .16499329-.022460938 .25898744-.022460938 .36999513-.022460938 .46998597 .07052612 .46998597 .2025299V.20277405M.3789978 .20353699C.3789978 .15553284 .3789978 .106536868 .3600006 .0695343 .32899476 .012527466 .2849884 .0055389406 .2579956 .0055389406 .20098877 .0055389406 .16799927 .05253601 .1559906 .08152771 .13699341 .12652588 .13598633 .20953369 .13598633 .2255249 .13598633 .2927704 .16699219 .4007721 .2630005 .4007721 .2789917 .4007721 .32798768 .4007721 .3600006 .33877564 .3789978 .300766 .3789978 .25177003 .3789978 .20376587V.20353699Z"/>
<path id="font_3_100" d="M.49899293 .6435547H.25C.12399292 .6435547 .12098694 .6566467 .117996219 .67578127H.08999634L.056991579 .46655274H.084991458C.08898926 .48954774 .09700012 .5455475 .10998535 .55755618 .116989139 .56355288 .19599915 .56355288 .20999146 .56355288H.41999818L.32398988 .4325409C.19400025 .25354005 .18199158 .090530399 .18199158 .03353882 .18199158 .022537232 .18199158-.022460938 .22799683-.022460938 .2749939-.022460938 .2749939 .021530152 .2749939 .03453064V.08354187C.2749939 .23054505 .29699708 .34654237 .34999085 .41854859L.48999024 .60954287C.49899293 .62054446 .49899293 .62254336 .49899293 .6435547Z"/>
<path id="font_3_51" d="M.46998597 .16764832C.46998597 .26472474 .3959961 .3127594 .37098695 .32876588 .3600006 .33677674 .33099366 .35479737 .31900025 .36180116 .36898805 .38581849 .44198609 .43585206 .44198609 .51690676 .44198609 .6109772 .34799195 .6660156 .2579956 .6660156 .15299988 .6660156 .070999149 .5909729 .070999149 .49890138 .070999149 .46087647 .084991458 .42485047 .10899353 .39582826 .12599182 .3768158 .13198853 .37280274 .18998719 .3357849 .101989749 .29374696 .042999269 .23269654 .042999269 .15063477 .042999269 .044555665 .147995-.022460938 .2559967-.022460938 .37199403-.022460938 .46998597 .059570314 .46998597 .16764832M.3939972 .51690676C.3939972 .44685365 .33399964 .40083314 .2939911 .37780763L.17199707 .45387269C.14199829 .47288514 .11898804 .4998932 .11898804 .53692629 .11898804 .6019745 .18899536 .64100649 .25498963 .64100649 .33198548 .64100649 .3939972 .58695986 .3939972 .51690676M.41600038 .1326294C.41600038 .05357361 .33599855 .0055389406 .25698854 .0055389406 .16999817 .0055389406 .09700012 .06758118 .09700012 .15063477 .09700012 .22268677 .14698792 .28274537 .21699524 .31877137L.34298707 .2407074C.3659973 .22569275 .41600038 .19366455 .41600038 .1326294Z"/>
<path id="font_2_97" d="M.49899293 .18579102C.49899293 .2858429 .43299867 .36791993 .34899903 .38793946L.22099304 .4189453C.15899658 .43388368 .11999512 .48773194 .11999512 .5458069 .11999512 .61595156 .17399597 .677063 .2519989 .677063 .4189911 .677063 .44099427 .5127411 .44699098 .46777345 .44799806 .461792 .44799806 .45581056 .45899964 .45581056 .47200013 .45581056 .47200013 .46080018 .47200013 .47973634V.68107607C.47200013 .69807437 .47200013 .7050781 .46099855 .7050781 .45399476 .7050781 .45298768 .70407107 .44599916 .69207766L.41099549 .63497927C.3809967 .66404727 .33999635 .7050781 .25099183 .7050781 .13999939 .7050781 .055999757 .61694338 .055999757 .5107422 .055999757 .42790223 .10899353 .35490418 .18699646 .32788087 .19799805 .32388307 .24899292 .3118744 .31900025 .29486085 .34599305 .28785707 .37599183 .280838 .4039917 .24382019 .4249878 .2177887 .43499757 .18478394 .43499757 .1517334 .43499757 .0806427 .3849945 .008529663 .30099488 .008529663 .27198792 .008529663 .19599915 .013534546 .14299011 .06260681 .084991458 .11668396 .08198547 .18078614 .08099365 .21679688 .07998657 .22679138 .07199097 .22679138 .068984989 .22679138 .055999757 .22679138 .055999757 .2197876 .055999757 .20178223V.0015258789C.055999757-.015472412 .055999757-.022460938 .066986087-.022460938 .07398987-.022460938 .07499695-.020462037 .08198547-.009475708 .08198547-.009475708 .084991458-.0054626467 .117996219 .047592164 .14898682 .013534546 .21299744-.022460938 .3019867-.022460938 .4189911-.022460938 .49899293 .07562256 .49899293 .18579102Z"/>
<path id="font_2_84" d="M.5209961 .21636963C.5209961 .34336854 .42399598 .4423828 .31199647 .4423828 .23399353 .4423828 .19198609 .39837647 .17199707 .3763733V.4423828L.027999878 .43066407V.3996582C.09899902 .3996582 .10598755 .3936615 .10598755 .34973146V-.117996219C.10598755-.16308594 .09498596-.16308594 .027999878-.16308594V-.1940918L.13999939-.19110108 .25299073-.1940918V-.16308594C.18598938-.16308594 .1749878-.16308594 .1749878-.117996219V.050186159 .059173585C.17999268 .04319763 .22200012-.0107421879 .2979889-.0107421879 .4169922-.0107421879 .5209961 .087127689 .5209961 .21594239V.21636963M.43798829 .21594239C.43798829 .09512329 .36799623 .011245728 .2939911 .011245728 .2539978 .011245728 .21598816 .031219483 .18899536 .07215881 .1749878 .09312439 .1749878 .09411621 .1749878 .114089969V.33674623C.20399475 .38838197 .25299073 .41737367 .3039856 .41737367 .3769989 .41737367 .43798829 .32937623 .43798829 .21636963V.21594239Z"/>
<path id="font_2_50" d="M.4149933 .11933899C.4149933 .12934876 .40699769 .13134766 .4019928 .13134766 .3929901 .13134766 .3909912 .12535095 .3889923 .11734009 .35398866 .014251709 .2639923 .014251709 .2539978 .014251709 .20399475 .014251709 .1639862 .044281007 .14099121 .08131409 .11099243 .12934876 .11099243 .19540406 .11099243 .23144531H.3899994C.4119873 .23144531 .4149933 .23144531 .4149933 .2524414 .4149933 .35131837 .36099244 .4482422 .23599243 .4482422 .11999512 .4482422 .027999878 .34532167 .027999878 .22042847 .027999878 .08631897 .1329956-.0107421879 .24798584-.0107421879 .36999513-.0107421879 .4149933 .10032654 .4149933 .11933899M.34899903 .2524414H.11199951C.117996219 .40126039 .20199585 .426239 .23599243 .426239 .33898927 .426239 .34899903 .2913971 .34899903 .2524414Z"/>
<path id="font_2_47" d="M.5269928 0V.0309906C.45700074 .0309906 .44898988 .038009645 .44898988 .0871582V.69433596L.30499269 .6826172V.6516113C.375 .6516113 .3829956 .64463809 .3829956 .59580996V.38035584C.35398866 .41636659 .31098939 .4423828 .25698854 .4423828 .13899231 .4423828 .033996583 .3443451 .033996583 .21531677 .033996583 .088272098 .13198853-.0107421879 .24598694-.0107421879 .30999757-.0107421879 .35499574 .023254395 .37998963 .055267335V-.0107421879L.5269928 0M.37998963 .117996219C.37998963 .099990848 .37998963 .09799194 .36898805 .08099365 .33898927 .033218385 .2939911 .011245728 .25099183 .011245728 .20599365 .011245728 .16999817 .037216188 .1459961 .075164798 .11999512 .1161499 .116989139 .17320252 .116989139 .21421814 .116989139 .25125123 .11898804 .31129457 .147995 .35632325 .16899109 .38734437 .20698548 .42037965 .26098634 .42037965 .29599 .42037965 .33799745 .405365 .36898805 .3603363 .37998963 .34332276 .37998963 .34132386 .37998963 .32330323V.117996219Z"/>
<path id="font_2_85" d="M.33099366-.2400055C.33099366-.23701477 .33099366-.23500061 .31399537-.21800232 .18899536-.0920105 .15699768 .09700012 .15699768 .25 .15699768 .42399598 .19499207 .59799197 .31799317 .72299197 .33099366 .7350006 .33099366 .7369995 .33099366 .73999026 .33099366 .746994 .32699586 .75 .32099916 .75 .31098939 .75 .22099304 .6819916 .1619873 .5549927 .11099243 .44499208 .09899902 .33399964 .09899902 .25 .09899902 .17199707 .10998535 .050994874 .16499329-.06201172 .22499085-.18501282 .31098939-.25 .32099916-.25 .32699586-.25 .33099366-.24700928 .33099366-.2400055Z"/>
<path id="font_2_70" d="M.5109863 0V.0309906C.47399903 .0309906 .45199586 .0309906 .4139862 .0839386L.2869873 .26278688C.28599549 .26478578 .2809906 .2707672 .2809906 .2737732 .2809906 .277771 .35198976 .33770753 .3619995 .34570313 .4249878 .39666749 .46699525 .39865113 .48799134 .3996582V.43066407C.45899964 .42765809 .44599916 .42765809 .41799928 .42765809 .38198854 .42765809 .31999208 .42965699 .30599977 .43066407V.3996582C.32499696 .39865113 .33499146 .3876648 .33499146 .37467958 .33499146 .3547058 .32099916 .3427124 .31298829 .33570863L.17199707 .21382141V.69433596L.027999878 .6826172V.6516113C.09799194 .6516113 .10598755 .64460757 .10598755 .5956421V.07595825C.10598755 .0309906 .09498596 .0309906 .027999878 .0309906V0L.13699341 .0029907227 .24699402 0V.0309906C.17999268 .0309906 .16899109 .0309906 .16899109 .07595825V.17889405L.23298645 .23387146C.30999757 .12792969 .35198976 .07196045 .35198976 .053985597 .35198976 .034988405 .33499146 .0309906 .31599427 .0309906V0L.42399598 .0029907227C.45298768 .0029907227 .48199464 .0019989014 .5109863 0Z"/>
<path id="font_2_75" d="M.8129883 0V.0309906C.7609863 .0309906 .73599246 .0309906 .7350006 .061019899V.25221253C.7350006 .3383026 .7350006 .36932374 .70399478 .405365 .6899872 .42237855 .6569977 .4423828 .598999 .4423828 .5149994 .4423828 .47099305 .38233949 .45399476 .34429933 .43998719 .43138124 .3659973 .4423828 .32099916 .4423828 .24798584 .4423828 .20098877 .39935304 .17298889 .33729554V.4423828L.03199768 .43066407V.3996582C.101989749 .3996582 .10998535 .39266969 .10998535 .34370423V.07595825C.10998535 .0309906 .09899902 .0309906 .03199768 .0309906V0L.14498902 .0029907227 .25698854 0V.0309906C.18998719 .0309906 .1789856 .0309906 .1789856 .07595825V.25978089C.1789856 .36431886 .25 .42037965 .31399537 .42037965 .3769989 .42037965 .3880005 .36631776 .3880005 .30926515V.076034549C.3880005 .0309906 .3769989 .0309906 .30999757 .0309906V0L.4229889 .0029907227 .5349884 0V.0309906C.46798707 .0309906 .45700074 .0309906 .45700074 .076034549V.2602234C.45700074 .36431886 .5279999 .42037965 .59199526 .42037965 .6549988 .42037965 .66600039 .36631776 .66600039 .30926515V.076034549C.66600039 .0309906 .6549988 .0309906 .58799746 .0309906V0L.70098879 .0029907227 .8129883 0Z"/>
<path id="font_2_102" d="M.44299317 .7299957C.44299317 .7409973 .43399049 .75 .4229889 .75 .40899659 .75 .40499879 .73999026 .4019928 .7299957L.06098938-.21200562C.055999757-.2250061 .055999757-.23001099 .055999757-.23001099 .055999757-.24101258 .06498718-.25 .07598877-.25 .08999634-.25 .09399414-.2400055 .09700012-.23001099L.43798829 .71199038C.44299317 .72499087 .44299317 .7299957 .44299317 .7299957Z"/>
<path id="font_2_63" d="M.5349884 0V.0309906C.48298646 .0309906 .45799256 .0309906 .45700074 .061019899V.25221253C.45700074 .3383026 .45700074 .36932374 .42599488 .405365 .4119873 .42237855 .3789978 .4423828 .32099916 .4423828 .23699951 .4423828 .19299317 .38233949 .1769867 .34629823H.17599488V.69433596L.03199768 .6826172V.6516113C.101989749 .6516113 .10998535 .64463809 .10998535 .59580996V.076034549C.10998535 .0309906 .09899902 .0309906 .03199768 .0309906V0L.14498902 .0029907227 .25698854 0V.0309906C.18998719 .0309906 .1789856 .0309906 .1789856 .076034549V.2602234C.1789856 .36431886 .25 .42037965 .31399537 .42037965 .3769989 .42037965 .3880005 .36631776 .3880005 .30926515V.076034549C.3880005 .0309906 .3769989 .0309906 .30999757 .0309906V0L.4229889 .0029907227 .5349884 0Z"/>
<path id="font_2_86" d="M.2889862 .25C.2889862 .32798768 .27799989 .44898988 .22299195 .56199648 .16299439 .68499758 .07699585 .75 .066986087 .75 .06098938 .75 .056991579 .74598696 .056991579 .73999026 .056991579 .7369995 .056991579 .7350006 .07598877 .71699526 .17399597 .6179962 .23098755 .45899964 .23098755 .25 .23098755 .07899475 .19400025-.09700012 .069992069-.2230072 .056991579-.23500061 .056991579-.23701477 .056991579-.2400055 .056991579-.2460022 .06098938-.25 .066986087-.25 .07699585-.25 .16699219-.18200684 .22599793-.055007936 .2769928 .054992677 .2889862 .16600037 .2889862 .25Z"/>
<path id="font_2_54" d="M.6100006 .45477296 .58200076 .6796875H.032989503V.64868167H.056991579C.13398743 .64868167 .13598633 .63768008 .13598633 .6016998V.07797241C.13598633 .041992189 .13398743 .0309906 .056991579 .0309906H.032989503V0C.067993167 .0029907227 .1459961 .0029907227 .18499756 .0029907227 .22599793 .0029907227 .31698609 .0029907227 .35299684 0V.0309906H.31999208C.22499085 .031188965 .22499085 .044189454 .22499085 .079193118V.3251953H.31098939C.40699769 .3251953 .4169922 .29318238 .4169922 .20819092H.44198609V.4731903H.4169922C.4169922 .38919068 .40699769 .3561859 .31098939 .3561859H.22499085V.6091919C.22499085 .64167788 .22698975 .64868167 .27398683 .64868167H.3939972C.5439911 .64868167 .56900027 .5926819 .58499148 .4546814L.6100006 .45477296Z"/>
<path id="font_2_96" d="M.3639984 .38137818C.3639984 .41337586 .33299256 .4423828 .2899933 .4423828 .21699524 .4423828 .18099976 .37538148 .16699219 .3323822V.4423828L.027999878 .43066407V.3996582C.09799194 .3996582 .10598755 .39266969 .10598755 .34370423V.07595825C.10598755 .0309906 .09498596 .0309906 .027999878 .0309906V0L.14199829 .0029907227C.18199158 .0029907227 .22898865 .0029907227 .2689972 0V.0309906H.24798584C.17399597 .0309906 .17199707 .04197693 .17199707 .07795715V.23181153C.17199707 .33137513 .21398926 .42037965 .2899933 .42037965 .29699708 .42037965 .29899598 .42037965 .30099488 .41937257 .2979889 .41838075 .27799989 .40637208 .27799989 .3803711 .27799989 .35237123 .29899598 .33737184 .32099916 .33737184 .33898927 .33737184 .3639984 .3493805 .3639984 .38137818Z"/>
<path id="font_2_91" d="M.5269928-.1940918V-.16308594C.45999146-.16308594 .44898988-.16308594 .44898988-.117996219V.4423828H.4269867L.3889923 .35136415C.37599183 .379364 .33499146 .4423828 .25498963 .4423828 .13899231 .4423828 .033996583 .34535218 .033996583 .21531677 .033996583 .090270999 .1309967-.0107421879 .24699402-.0107421879 .31698609-.0107421879 .35798646 .03225708 .37998963 .061264039V-.117996219C.37998963-.16308594 .36898805-.16308594 .3019867-.16308594V-.1940918L.4139862-.19110108 .5269928-.1940918M.3829956 .1362915C.3829956 .104278568 .36499024 .07626343 .34298707 .052261354 .32998658 .038253786 .2979889 .011245728 .25099183 .011245728 .17799378 .011245728 .116989139 .10028076 .116989139 .21531677 .116989139 .3343506 .18699646 .41737367 .26098634 .41737367 .34098817 .41737367 .3829956 .33035279 .3829956 .2773285V.1362915Z"/>
<path id="font_2_109" d="M.5349884 0V.0309906C.46499635 .0309906 .45700074 .037994386 .45700074 .08705139V.4423828L.30999757 .43066407V.3996582C.37998963 .3996582 .3880005 .39266969 .3880005 .34373475V.16601563C.3880005 .07910156 .33999635 .011245728 .2669983 .011245728 .18299866 .011245728 .1789856 .058135988 .1789856 .11009216V.4423828L.03199768 .43066407V.3996582C.10998535 .3996582 .10998535 .39666749 .10998535 .3078003V.15802002C.10998535 .080093387 .10998535-.0107421879 .2619934-.0107421879 .31799317-.0107421879 .3619995 .017242432 .3909912 .07910156V-.0107421879L.5349884 0Z"/>
<path id="font_2_77" d="M.5349884 0V.0309906C.48298646 .0309906 .45799256 .0309906 .45700074 .061019899V.25221253C.45700074 .3383026 .45700074 .36932374 .42599488 .405365 .4119873 .42237855 .3789978 .4423828 .32099916 .4423828 .24798584 .4423828 .20098877 .39935304 .17298889 .33729554V.4423828L.03199768 .43066407V.3996582C.101989749 .3996582 .10998535 .39266969 .10998535 .34370423V.07595825C.10998535 .0309906 .09899902 .0309906 .03199768 .0309906V0L.14498902 .0029907227 .25698854 0V.0309906C.18998719 .0309906 .1789856 .0309906 .1789856 .07595825V.25978089C.1789856 .36431886 .25 .42037965 .31399537 .42037965 .3769989 .42037965 .3880005 .36631776 .3880005 .30926515V.076034549C.3880005 .0309906 .3769989 .0309906 .30999757 .0309906V0L.4229889 .0029907227 .5349884 0Z"/>
<path id="font_2_43" d="M.4149933 .119140628C.4149933 .12911988 .40499879 .12911988 .4019928 .12911988 .3929901 .12911988 .3909912 .12512207 .3889923 .119140628 .3600006 .026229859 .29499818 .014251709 .2579956 .014251709 .20498657 .014251709 .116989139 .0572052 .116989139 .21801758 .116989139 .38093568 .19898987 .42323304 .2519989 .42323304 .26098634 .42323304 .32398988 .42222596 .35899354 .38594056 .31799317 .38293458 .31199647 .3529358 .31199647 .3399353 .31199647 .31393434 .32998658 .2939453 .35798646 .2939453 .38398744 .2939453 .4039917 .3109436 .4039917 .34094239 .4039917 .40911866 .32798768 .4482422 .25099183 .4482422 .12599182 .4482422 .033996583 .3399353 .033996583 .21601868 .033996583 .08816528 .1329956-.0107421879 .24899292-.0107421879 .3829956-.0107421879 .4149933 .10914612 .4149933 .119140628Z"/>
<path id="font_2_118" d="M.5079956 .3996582V.43066407C.4850006 .4286499 .45599366 .42765809 .43299867 .42765809L.34599305 .43066407V.3996582C.3769989 .39866639 .3929901 .3816681 .3929901 .35668946 .3929901 .34669496 .3919983 .34469605 .3869934 .33270265L.28599549 .08685303 .1749878 .35568238C.17098999 .36567689 .16899109 .36967469 .16899109 .3736725 .16899109 .3996582 .20599365 .3996582 .22499085 .3996582V.43066407L.115997318 .42765809C.08898926 .42765809 .04899597 .4286499 .018997193 .43066407V.3996582C.066986087 .3996582 .085998538 .3996582 .099990848 .36468507L.25-.000091552738 .22499085-.059066774C.20298767-.11407471 .1749878-.18309021 .11099243-.18309021 .10598755-.18309021 .08299255-.18309021 .06399536-.16503906 .09498596-.16104126 .102996829-.13905335 .102996829-.123046878 .102996829-.0970459 .083999637-.08103943 .06098938-.08103943 .040985109-.08103943 .018997193-.09403992 .018997193-.124053958 .018997193-.16905213 .06098938-.20507813 .11099243-.20507813 .17399597-.20507813 .21499634-.14804077 .23899842-.091049198L.4149933 .33569337C.44099427 .39865113 .49198915 .3996582 .5079956 .3996582Z"/>
<path id="font_4_62" d="M.84098818 0V.042999269H.7350006V.64253237H.84098818V.6855469C.81199648 .6835327 .7049866 .6835327 .6689911 .6835327 .6329956 .6835327 .526001 .6835327 .49699403 .6855469V.64253237H.6029968V.3779297H.27598573V.64253237H.38198854V.6855469C.35299684 .6835327 .24598694 .6835327 .20999146 .6835327 .17399597 .6835327 .066986087 .6835327 .037994386 .6855469V.64253237H.14399719V.042999269H.037994386V0C.066986087 .0019989014 .17399597 .0019989014 .20999146 .0019989014 .24598694 .0019989014 .35299684 .0019989014 .38198854 0V.042999269H.27598573V.33491517H.6029968V.042999269H.49699403V0C.526001 .0019989014 .6329956 .0019989014 .6689911 .0019989014 .7049866 .0019989014 .81199648 .0019989014 .84098818 0Z"/>
<path id="font_4_66" d="M.2789917 0V.042999269H.21699524V.4501953L.04699707 .4423828V.3993683C.10598755 .3993683 .11299133 .3993683 .11299133 .3603363V.042999269H.04399109V0C.066986087 .0019989014 .13598633 .0019989014 .16299439 .0019989014 .19099427 .0019989014 .25498963 .0019989014 .2789917 0M.22898865 .6081238C.22898865 .64912417 .19499207 .68013 .15699768 .68013 .115997318 .68013 .083999637 .64712527 .083999637 .6081238 .083999637 .5671234 .117996219 .5361328 .1559906 .5361328 .19699097 .5361328 .22898865 .5691223 .22898865 .6081238Z"/>
<path id="font_4_98" d="M.40499879 .13912964C.40499879 .18711853 .3789978 .22012329 .35899354 .23812866 .31799317 .27212525 .28399659 .27812196 .22999573 .28811646 .1659851 .29911805 .10598755 .31011964 .10598755 .35812379 .10598755 .42311097 .19499207 .42311097 .21598816 .42311097 .32699586 .42311097 .33299256 .3531189 .33499146 .328125 .33599855 .3151245 .34399415 .3151245 .35598756 .3151245 .3769989 .3151245 .3769989 .31811524 .3769989 .34111024V.42712403C.3769989 .44612123 .3769989 .453125 .3619995 .453125 .35598756 .453125 .35398866 .453125 .33898927 .4441223 .33499146 .44111634 .32398988 .43411256 .31900025 .43112184 .29100038 .44711305 .2539978 .453125 .21798706 .453125 .18798828 .453125 .037994386 .453125 .037994386 .32312013 .037994386 .21812439 .1619873 .19612122 .19299317 .19113159 .21998596 .18612671 .25299073 .18013 .25698854 .18013 .29699708 .17112732 .33699037 .14613343 .33699037 .10412598 .33699037 .027130127 .24598694 .027130127 .22499085 .027130127 .17399597 .027130127 .11099243 .043136598 .08299255 .14012146 .07699585 .16012573 .07598877 .16113281 .05899048 .16113281 .037994386 .16113281 .037994386 .15812683 .037994386 .13513184V.020126343C.037994386 .0011291504 .037994386-.005859375 .052993776-.005859375 .05999756-.005859375 .06199646-.005859375 .08198547 .010131836L.10798645 .029129029C.15299988-.005859375 .20698548-.005859375 .22499085-.005859375 .27999879-.005859375 .40499879 .006134033 .40499879 .13912964Z"/>
<path id="font_4_105" d="M.37399293 .124176029V.17721558H.33198548V.1251831C.33198548 .059143068 .3019867 .030136109 .2709961 .030136109 .21099854 .030136109 .21099854 .09716797 .21099854 .12017822V.4013214H.35499574V.44433595H.21099854V.6357422H.16899109C.16799927 .53652957 .11999512 .43733216 .020996094 .43432618V.4013214H.101989749V.123184207C.101989749 .01713562 .18399048-.005859375 .2559967-.005859375 .32998658-.005859375 .37399293 .05014038 .37399293 .124176029Z"/>
<path id="font_4_81" d="M.5299988 .21913147C.5299988 .35412599 .43798829 .453125 .2809906 .453125 .117996219 .453125 .0309906 .3491211 .0309906 .21913147 .0309906 .088134769 .12298584-.005859375 .27999879-.005859375 .44299317-.005859375 .5299988 .09312439 .5299988 .21913147M.4099884 .22912598C.4099884 .14613343 .4099884 .030136109 .2809906 .030136109 .15098572 .030136109 .15098572 .14712525 .15098572 .22912598 .15098572 .27612306 .15098572 .3261261 .16999817 .36212159 .19198609 .40211488 .23699951 .42012025 .27999879 .42012025 .33699037 .42012025 .37298585 .39311219 .3899994 .3651123 .4099884 .32911683 .4099884 .27713014 .4099884 .22912598Z"/>
<path id="font_4_59" d="M.54499819 .40003968C.54499819 .42404176 .5269928 .4560547 .4850006 .4560547 .44198609 .4560547 .40098573 .43504334 .37998963 .41705323 .33898927 .44119264 .2999878 .4501953 .24899292 .4501953 .11099243 .4501953 .055999757 .3731842 .055999757 .30319215 .055999757 .27218629 .06599426 .23118592 .10798645 .19718933 .09098816 .17819214 .07299805 .14318848 .07299805 .10719299 .07299805 .064193729 .09599304 .027191163 .116989139 .011184692 .09298706 .0052490236 .0309906-.01776123 .0309906-.0748291 .0309906-.13391114 .09599304-.20095825 .27999879-.20095825 .44599916-.20095825 .5299988-.14692688 .5299988-.07182312 .5299988 .01625061 .47200013 .04525757 .44699098 .057250978 .39898683 .08125305 .33499146 .08125305 .24699402 .08125305 .22200012 .08125305 .17799378 .08125305 .17298889 .08224487 .12998963 .08924866 .117996219 .12724304 .117996219 .14624024 .117996219 .15423584 .11898804 .16923523 .12998963 .18223572 .17799378 .15625 .23399353 .15625 .24899292 .15625 .3869934 .15625 .44198609 .23320008 .44198609 .30314637 .44198609 .35411073 .41299439 .39007569 .40098573 .4000702 .42999269 .41604615 .45399476 .42004396 .47099305 .42204286 .46798707 .41705323 .46499635 .41305543 .46499635 .4000702 .46499635 .37908937 .47898866 .36009217 .5049896 .36009217 .5309906 .36009217 .54499819 .37908937 .54499819 .4000702V.40003968M.33599855 .30314637C.33599855 .2571869 .33599855 .18824768 .24899292 .18824768 .1619873 .18812561 .1619873 .25715638 .1619873 .30316163 .1619873 .34916688 .1619873 .41818238 .24899292 .41818238 .33599855 .41818238 .33599855 .34916688 .33599855 .30316163V.30314637M.44799806-.075927738C.44799806-.1109314 .41299439-.16894531 .2809906-.16894531 .14898682-.16874695 .11299133-.11274719 .11299133-.07475281 .11299133-.0107421879 .17599488-.0107421879 .19099427-.0107421879H.30499269C.37799073-.0107421879 .44799806-.023742676 .44799806-.07574463V-.075927738Z"/>
<path id="font_4_96" d="M.4269867 .3711853C.4269867 .42218019 .375 .4501953 .32699586 .4501953 .24798584 .4501953 .21398926 .38119508 .19999695 .33918763H.19898987V.4501953L.034988405 .4423828V.3993683C.09700012 .3993683 .10398865 .3993683 .10398865 .3603363V.042999269H.034988405V0C.057998659 .0019989014 .1329956 .0019989014 .16099549 .0019989014 .18998719 .0019989014 .2709961 .0019989014 .29499818 0V.042999269H.20799256V.22518921C.20799256 .25819398 .21499634 .41719056 .33198548 .41719056 .31799317 .40618897 .31098939 .38919068 .31098939 .3711853 .31098939 .33018495 .34399415 .31318666 .36898805 .31318666 .3939972 .31318666 .4269867 .33018495 .4269867 .3711853Z"/>
<path id="font_4_28" d="M.54100039 .022140503C.54100039 .043136598 .5319977 .043136598 .5179901 .043136598 .45498658 .044128419 .45498658 .060134889 .45498658 .08312988V.29911805C.45498658 .39111329 .38198854 .453125 .24099732 .453125 .18499756 .453125 .066986087 .44812013 .066986087 .36412049 .066986087 .32211305 .09899902 .30412293 .12599182 .30412293 .1559906 .30412293 .18499756 .32511903 .18499756 .3631134 .18499756 .3821106 .17799378 .40011598 .16099549 .41111756 .19400025 .42012025 .21798706 .42012025 .23699951 .42012025 .30499269 .42012025 .34599305 .3821106 .34599305 .30012513V.26011659C.18798828 .26011659 .0289917 .21612549 .0289917 .10513306 .0289917 .014129639 .14498902-.005859375 .21398926-.005859375 .29100038-.005859375 .33999635 .036132814 .3600006 .0801239 .3600006 .042999269 .3600006 0 .46099855 0H.5119934C.5329895 0 .54100039 0 .54100039 .021987915V.022140503M.34599305 .13899231C.34599305 .04499817 .2619934 .026992798 .22999573 .026992798 .18099976 .026992798 .13999939 .05999756 .13999939 .10598755 .13999939 .19699097 .24798584 .22799683 .34599305 .23298645V.13899231Z"/>
<path id="font_4_75" d="M.9129944 0V.042999269H.84399417V.30636598C.84399417 .39823915 .8049927 .4501953 .69299319 .4501953 .59199526 .4501953 .54499819 .38227845 .5289917 .3503723 .5130005 .43518067 .44499208 .4501953 .3809967 .4501953 .2849884 .4501953 .23298645 .38827516 .21199036 .3403778H.21099854V.4501953L.041992189 .4423828V.3993683C.10398865 .3993683 .11099243 .3993683 .11099243 .36035157V.042999269H.041992189V0C.06498718 .0019989014 .13699341 .0019989014 .16499329 .0019989014 .19299317 .0019989014 .2659912 .0019989014 .2889862 0V.042999269H.21998596V.25627137C.21998596 .36532594 .30099488 .41719056 .3639984 .41719056 .40098573 .41719056 .4229889 .3952484 .4229889 .3173828V.042999269H.35398866V0C.3769989 .0019989014 .44898988 .0019989014 .47698976 .0019989014 .5049896 .0019989014 .5779877 .0019989014 .6009979 0V.042999269H.5319977V.25628663C.5319977 .36532594 .61299136 .41719056 .6759949 .41719056 .71299746 .41719056 .7350006 .3952484 .7350006 .3173828V.042999269H.66600039V0C.68899539 .0019989014 .7609863 .0019989014 .78900149 .0019989014 .81700137 .0019989014 .8899994 .0019989014 .9129944 0Z"/>
<path id="font_4_55" d="M.42199708 .617218C.42199708 .65818789 .38598634 .7001953 .31498719 .7001953 .22399903 .7001953 .11299133 .66218569 .11299133 .54626467V.44433595H.038986207V.4013214H.11299133V.042999269H.04399109V0C.066986087 .0019989014 .14199829 .0019989014 .16999817 .0019989014 .19898987 .0019989014 .27999879 .0019989014 .3039856 0V.042999269H.21699524V.4013214H.33099366V.44433595H.21199036V.54725649C.21199036 .65119937 .27799989 .66719058 .31098939 .66719058 .32199098 .66719058 .32398988 .6661835 .32998658 .6641846 .31498719 .65419009 .30599977 .63720706 .30599977 .6162262 .30599977 .57624819 .33799745 .55825808 .3639984 .55825808 .38598634 .55825808 .42199708 .5732422 .42199708 .617218Z"/>
<path id="font_4_111" d="M.82499697 .64253237V.6855469C.7939911 .6835327 .7220001 .6835327 .71398928 .6835327 .6859894 .6835327 .61499026 .6835327 .59199526 .6855469V.64253237C.6139984 .64253237 .651001 .64253237 .67900088 .6315613L.673996 .61756899 .46899415 .15003968 .25299073 .64253237H.34599305V.6855469C.31399537 .6835327 .21798706 .6835327 .17999268 .6835327 .147995 .6835327 .04899597 .6835327 .023986817 .6855469V.64253237H.11399841L.3899994 .012176514C.39898683-.007797241 .4079895-.0087890629 .42399598-.0087890629 .43998719-.0087890629 .44999696-.0087890629 .45899964 .012176514L.723999 .6195679C.7299957 .6325531 .73399356 .64253237 .80799868 .64253237H.82499697Z"/>
<path id="font_4_50" d="M.48098756 .11706543C.48098756 .13206482 .46598817 .13206482 .45999146 .13206482 .44400025 .13206482 .44299317 .12905884 .43699647 .11607361 .41099549 .051116945 .34498597 .030136109 .29699708 .030136109 .1519928 .030136109 .15098572 .16503906 .15098572 .22099304H.45199586C.47499085 .22099304 .48098756 .22099304 .48098756 .24598694 .48098756 .27601625 .47399903 .35105897 .42799378 .3981018 .38598634 .4401245 .32998658 .453125 .27198792 .453125 .115997318 .453125 .0309906 .35105897 .0309906 .22499085 .0309906 .08509827 .13398743-.005859375 .2849884-.005859375 .43598939-.005859375 .48098756 .1000824 .48098756 .11706543M.3889923 .25H.15098572C.15299988 .29101563 .1539917 .3300476 .1749878 .3660736 .19400025 .3981018 .22898865 .42012025 .27198792 .42012025 .3789978 .42012025 .3880005 .30003358 .3889923 .25Z"/>
<path id="font_4_63" d="M.59999087 0V.042999269H.5309906V.30659486C.5309906 .4012909 .48999024 .4501953 .37998963 .4501953 .2789917 .4501953 .22999573 .37942506 .21598816 .34960938H.21499634V.69433596L.041992189 .6855469V.64253237C.10398865 .64253237 .11099243 .64253237 .11099243 .6036682V.042999269H.041992189V0C.06498718 .0019989014 .13699341 .0019989014 .16499329 .0019989014 .19299317 .0019989014 .2659912 .0019989014 .2889862 0V.042999269H.21998596V.25610353C.21998596 .36416627 .2999878 .41719056 .3639984 .41719056 .40098573 .41719056 .42199708 .39317323 .42199708 .31713868V.042999269H.35299684V0C.37599183 .0019989014 .44799806 .0019989014 .47599793 .0019989014 .5039978 .0019989014 .57699587 .0019989014 .59999087 0Z"/>
<path id="font_4_43" d="M.46798707 .117126468C.46798707 .12913513 .45700074 .12913513 .44699098 .12913513 .43099977 .12913513 .42999269 .12812805 .4249878 .11613464 .41799928 .09713745 .3909912 .030136109 .29899598 .030136109 .1579895 .030136109 .1579895 .1821289 .1579895 .22712708 .1579895 .28611756 .15899658 .41711427 .2899933 .41711427 .29699708 .41711427 .35598756 .41511537 .35598756 .41011048 .35598756 .41011048 .35499574 .40811158 .35299684 .40711976 .34999085 .40411378 .33699037 .38911439 .33699037 .36412049 .33699037 .32211305 .37098695 .30511476 .3959961 .30511476 .4169922 .30511476 .45498658 .31811524 .45498658 .3651123 .45498658 .44711305 .33999635 .453125 .28599549 .453125 .10798645 .453125 .037994386 .33711244 .037994386 .22212219 .037994386 .086135867 .1329956-.005859375 .27999879-.005859375 .43699647-.005859375 .46798707 .11012268 .46798707 .117126468Z"/>
<path id="font_4_72" d="M.28599549 0V.042999269H.21699524V.69433596L.04399109 .6855469V.64253237C.10598755 .64253237 .11299133 .64253237 .11299133 .6035614V.042999269H.04399109V0C.066986087 .0019989014 .13798523 .0019989014 .16499329 .0019989014 .19198609 .0019989014 .2630005 .0019989014 .28599549 0Z"/>
<path id="font_4_97" d="M.56199648 .20014954C.56199648 .2942047 .5 .38433839 .3909912 .40937806L.2539978 .4404297C.15499878 .4624176 .1519928 .5343628 .1519928 .5483551 .1519928 .59928897 .18499756 .65823367 .28199769 .65823367 .3789978 .65823367 .46598817 .61128237 .4869995 .48042298 .48999024 .45942689 .48999024 .4584198 .5089874 .4584198 .5299988 .4584198 .5299988 .46142579 .5299988 .48442079V.6722412C.5299988 .6912384 .5299988 .6982422 .5149994 .6982422 .5079956 .6982422 .5049896 .6972351 .49598695 .6872406L.45298768 .6382599C.42799378 .6592407 .37799073 .6982422 .2809906 .6982422 .13798523 .6982422 .06199646 .6082916 .06199646 .4994049 .06199646 .43241883 .09799194 .38534547 .11199951 .37132264 .1639862 .31924439 .19198609 .31323243 .29599 .2902069 .3959961 .26817323 .4079895 .26617433 .42999269 .2451477 .44299317 .23214722 .47200013 .20414734 .47200013 .15318299 .47200013 .11021423 .45098878 .031280519 .33898927 .031280519 .25099183 .031280519 .11199951 .06124878 .10398865 .20713806 .102996829 .22514344 .102996829 .22813416 .08299255 .22813416 .06199646 .22813416 .06199646 .22514344 .06199646 .20214844V.014266968C.06199646-.0047302248 .06199646-.01171875 .07699585-.01171875 .083999637-.01171875 .084991458-.010726929 .09498596-.0017242432 .10598755 .009277344 .114990238 .022277832 .13999939 .04725647 .19799805 .0012664795 .27999879-.01171875 .33999635-.01171875 .49598695-.01171875 .56199648 .09422302 .56199648 .20014954Z"/>
<path id="font_4_84" d="M.58599856 .22319031C.58599856 .3611908 .49299623 .4501953 .35798646 .4501953 .29899598 .4501953 .24798584 .43019105 .20799256 .39819337V.4501953L.034988405 .4423828V.3993683C.09700012 .3993683 .10398865 .3993683 .10398865 .36035157V-.15039063H.034988405V-.19340515C.057998659-.19139099 .12998963-.19139099 .1579895-.19139099 .18598938-.19139099 .25898744-.19139099 .28199769-.19340515V-.15039063H.21299744V.041137697C.23799134 .019134522 .28199769-.005859375 .34199525-.005859375 .47898866-.005859375 .58599856 .0771637 .58599856 .2232666V.22319031M.46598817 .2232666C.46598817 .07817078 .3939972 .027130127 .32998658 .027130127 .2869873 .027130127 .24398804 .04914856 .21299744 .09617615V.3503418C.25 .39819337 .30299378 .41418458 .34199525 .41418458 .40699769 .41418458 .46598817 .3551941 .46598817 .22319031V.2232666Z"/>
<path id="font_4_47" d="M.58898928 0V.042999269C.5269928 .042999269 .519989 .042999269 .519989 .08201599V.69433596L.34700013 .6855469V.64253237C.40899659 .64253237 .41600038 .64253237 .41600038 .6036682V.40219117C.3939972 .42118836 .34999085 .4501953 .2809906 .4501953 .13899231 .4501953 .037994386 .36218263 .037994386 .22215271 .037994386 .07914734 .13699341-.005859375 .269989-.005859375 .32499696-.005859375 .37199403 .013137817 .41099549 .046142579V-.005859375L.58898928 0M.41099549 .100997928C.36898805 .040130617 .31799317 .027130127 .28199769 .027130127 .1579895 .027130127 .1579895 .15414429 .1579895 .22015381 .1579895 .26716615 .1579895 .3171692 .17999268 .35517884 .21099854 .4111786 .269989 .41719056 .29299928 .41719056 .33399964 .41719056 .37799073 .39918519 .41099549 .35517884V.100997928Z"/>
</defs>
<path transform="matrix(1.00005,0,0,-1.00003,33.973947,251.1962)" stroke-width=".19925" stroke-linecap="butt" stroke-miterlimit="10" stroke-linejoin="miter" fill="none" stroke="#d9d9d9" d="M0 0H340.1617M0 2.83484H340.1617M0 5.6697H340.1617M0 8.50455H340.1617M0 11.33939H340.1617M0 14.17424H340.1617M0 17.0091H340.1617M0 19.84393H340.1617M0 22.67879H340.1617M0 25.51364H340.1617M0 28.3485H340.1617M0 31.18333H340.1617M0 34.01819H340.1617M0 36.85304H340.1617M0 39.68788H340.1617M0 42.52274H340.1617M0 45.35759H340.1617M0 48.19244H340.1617M0 51.02728H340.1617M0 53.86214H340.1617M0 56.69699H340.1617M0 59.53183H340.1617M0 62.36668H340.1617M0 65.20154H340.1617M0 68.03639H340.1617M0 70.87123H340.1617M0 73.70609H340.1617M0 76.54094H340.1617M0 79.37578H340.1617M0 82.21063H340.1617M0 85.04549H340.1617M0 87.88034H340.1617M0 90.71518H340.1617M0 93.55003H340.1617M0 96.38489H340.1617M0 99.21973H340.1617M0 102.05458H340.1617M0 104.88943H340.1617M0 107.72429H340.1617M0 110.55913H340.1617M0 113.39398H340.1617M0 116.22884H340.1617M0 119.06367H340.1617M0 121.89853H340.1617M0 124.73338H340.1617M0 127.56824H340.1617M0 130.40308H340.1617M0 133.23793H340.1617M0 136.07279H340.1617M0 138.90763H340.1617M0 141.74248H340.1617M0 144.57733H340.1617M0 147.41219H340.1617M0 150.24703H340.1617M0 153.08188H340.1617M0 155.91674H340.1617M0 158.75157H340.1617M0 161.58643H340.1617M0 164.42128H340.1617M0 167.25612H340.1617M0 170.09098H340.1617M0 172.92583H340.1617M0 175.76068H340.1617M0 178.59552H340.1617M0 181.43038H340.1617M0 184.26523H340.1617M0 187.10007H340.1617M0 189.93492H340.1617M0 192.76978H340.1617M0 195.60463H340.1617M0 198.43947H340.1617M0 201.27433H340.1617M0 204.10918H340.1617M0 206.94402H340.1617M0 209.77887H340.1617M0 212.61373H340.1617M0 215.44858H340.1617M0 218.28342H340.1617M0 221.11827H340.1617M0 223.95313H340.1617M0 0V226.77448M2.83484 0V226.77448M5.6697 0V226.77448M8.50455 0V226.77448M11.33939 0V226.77448M14.17424 0V226.77448M17.0091 0V226.77448M19.84393 0V226.77448M22.67879 0V226.77448M25.51364 0V226.77448M28.3485 0V226.77448M31.18333 0V226.77448M34.01819 0V226.77448M36.85304 0V226.77448M39.68788 0V226.77448M42.52274 0V226.77448M45.35759 0V226.77448M48.19244 0V226.77448M51.02728 0V226.77448M53.86214 0V226.77448M56.69699 0V226.77448M59.53183 0V226.77448M62.36668 0V226.77448M65.20154 0V226.77448M68.03639 0V226.77448M70.87123 0V226.77448M73.70609 0V226.77448M76.54094 0V226.77448M79.37578 0V226.77448M82.21063 0V226.77448M85.04549 0V226.77448M87.88034 0V226.77448M90.71518 0V226.77448M93.55003 0V226.77448M96.38489 0V226.77448M99.21973 0V226.77448M102.05458 0V226.77448M104.88943 0V226.77448M107.72429 0V226.77448M110.55913 0V226.77448M113.39398 0V226.77448M116.22884 0V226.77448M119.06367 0V226.77448M121.89853 0V226.77448M124.73338 0V226.77448M127.56824 0V226.77448M130.40308 0V226.77448M133.23793 0V226.77448M136.07279 0V226.77448M138.90763 0V226.77448M141.74248 0V226.77448M144.57733 0V226.77448M147.41219 0V226.77448M150.24703 0V226.77448M153.08188 0V226.77448M155.91674 0V226.77448M158.75157 0V226.77448M161.58643 0V226.77448M164.42128 0V226.77448M167.25612 0V226.77448M170.09098 0V226.77448M172.92583 0V226.77448M175.76068 0V226.77448M178.59552 0V226.77448M181.43038 0V226.77448M184.26523 0V226.77448M187.10007 0V226.77448M189.93492 0V226.77448M192.76978 0V226.77448M195.60463 0V226.77448M198.43947 0V226.77448M201.27433 0V226.77448M204.10918 0V226.77448M206.94402 0V226.77448M209.77887 0V226.77448M212.61373 0V226.77448M215.44858 0V226.77448M218.28342 0V226.77448M221.11827 0V226.77448M223.95313 0V226.77448M226.78797 0V226.77448M229.62282 0V226.77448M232.45767 0V226.77448M235.29253 0V226.77448M238.12737 0V226.77448M240.96222 0V226.77448M243.79708 0V226.77448M246.63191 0V226.77448M249.46677 0V226.77448M252.30162 0V226.77448M255.13648 0V226.77448M257.9713 0V226.77448M260.80619 0V226.77448M263.64103 0V226.77448M266.47587 0V226.77448M269.3107 0V226.77448M272.14558 0V226.77448M274.9804 0V226.77448M277.81526 0V226.77448M280.65013 0V226.77448M283.48497 0V226.77448M286.31983 0V226.77448M289.15467 0V226.77448M291.98954 0V226.77448M294.82438 0V226.77448M297.6592 0V226.77448M300.49406 0V226.77448M303.32893 0V226.77448M306.16377 0V226.77448M308.9986 0V226.77448M311.83348 0V226.77448M314.66835 0V226.77448M317.50318 0V226.77448M320.338 0V226.77448M323.17289 0V226.77448M326.0077 0V226.77448M328.84257 0V226.77448M331.6774 0V226.77448M334.51225 0V226.77448M337.3471 0V226.77448M340.1617 226.77448"/>
<path transform="matrix(1.00005,0,0,-1.00003,33.973947,251.1962)" stroke-width=".3985" stroke-linecap="butt" stroke-miterlimit="10" stroke-linejoin="miter" fill="none" stroke="#a6a6a6" d="M0 0H340.1617M0 28.3468H340.1617M0 56.69362H340.1617M0 85.04042H340.1617M0 113.38724H340.1617M0 141.73404H340.1617M0 170.08086H340.1617M0 198.42766H340.1617M0 226.76451H340.1617M0 0V226.77448M28.3468 0V226.77448M56.69362 0V226.77448M85.04042 0V226.77448M113.38724 0V226.77448M141.73404 0V226.77448M170.08086 0V226.77448M198.42766 0V226.77448M226.77448 0V226.77448M255.12128 0V226.77448M283.4681 0V226.77448M311.8149 0V226.77448M340.15177 0V226.77448M340.1617 226.77448"/>
<path transform="matrix(1.00005,0,0,-1.00003,33.973947,251.1962)" stroke-width=".79701" stroke-linecap="butt" stroke-miterlimit="10" stroke-linejoin="miter" fill="none" stroke="#000000" d="M0 0H339.45436"/>
<path transform="matrix(1.00005,0,0,-1.00003,373.44526,251.1962)" stroke-width=".6376" stroke-linecap="round" stroke-linejoin="round" fill="none" stroke="#000000" d="M-1.55415 2.0722C-1.42464 1.29512 0 .1295 .38852 0 0-.1295-1.42464-1.29512-1.55415-2.0722"/>
<use data-text="x" xlink:href="#font_1_1" transform="matrix(8.966848,0,0,-8.966669,377.87214,253.12625)"/>
<path transform="matrix(1.00005,0,0,-1.00003,33.973947,251.1962)" stroke-width=".79701" stroke-linecap="butt" stroke-miterlimit="10" stroke-linejoin="miter" fill="none" stroke="#000000" d="M0 0V240.24051"/>
<path transform="matrix(0,-1.00003,-1.00005,-0,33.973947,10.948471)" stroke-width=".6376" stroke-linecap="round" stroke-linejoin="round" fill="none" stroke="#000000" d="M-1.55415 2.0722C-1.42464 1.29512 0 .1295 .38852 0 0-.1295-1.42464-1.29512-1.55415-2.0722"/>
<use data-text="y" xlink:href="#font_1_2" transform="matrix(8.966848,0,0,-8.966669,31.543824,4.7787935)"/>
<use data-text="1" xlink:href="#font_2_82" transform="matrix(9.963098,0,0,-9.962899,57.34011,261.3515)"/>
<use data-text="0" xlink:href="#font_2_121" transform="matrix(9.963098,0,0,-9.962899,62.321664,261.3515)"/>
<use data-text="2" xlink:href="#font_2_107" transform="matrix(9.963098,0,0,-9.962899,85.68853,261.3515)"/>
<use data-text="0" xlink:href="#font_2_121" transform="matrix(9.963098,0,0,-9.962899,90.67008,261.3515)"/>
<use data-text="3" xlink:href="#font_2_106" transform="matrix(9.963098,0,0,-9.962899,114.03694,261.3515)"/>
<use data-text="0" xlink:href="#font_2_121" transform="matrix(9.963098,0,0,-9.962899,119.01849,261.3515)"/>
<use data-text="4" xlink:href="#font_2_57" transform="matrix(9.963098,0,0,-9.962899,142.38536,261.46153)"/>
<use data-text="0" xlink:href="#font_2_121" transform="matrix(9.963098,0,0,-9.962899,147.36692,261.46153)"/>
<use data-text="5" xlink:href="#font_2_56" transform="matrix(9.963098,0,0,-9.962899,170.7338,261.3515)"/>
<use data-text="0" xlink:href="#font_2_121" transform="matrix(9.963098,0,0,-9.962899,175.71533,261.3515)"/>
<use data-text="6" xlink:href="#font_2_101" transform="matrix(9.963098,0,0,-9.962899,199.08118,261.3515)"/>
<use data-text="0" xlink:href="#font_2_121" transform="matrix(9.963098,0,0,-9.962899,204.06275,261.3515)"/>
<use data-text="7" xlink:href="#font_2_100" transform="matrix(9.963098,0,0,-9.962899,227.4296,261.4515)"/>
<use data-text="0" xlink:href="#font_2_121" transform="matrix(9.963098,0,0,-9.962899,232.41117,261.4515)"/>
<use data-text="8" xlink:href="#font_2_51" transform="matrix(9.963098,0,0,-9.962899,255.77802,261.3515)"/>
<use data-text="0" xlink:href="#font_2_121" transform="matrix(9.963098,0,0,-9.962899,260.75959,261.3515)"/>
<use data-text="9" xlink:href="#font_2_78" transform="matrix(9.963098,0,0,-9.962899,284.12644,261.3515)"/>
<use data-text="0" xlink:href="#font_2_121" transform="matrix(9.963098,0,0,-9.962899,289.108,261.3515)"/>
<use data-text="1" xlink:href="#font_2_82" transform="matrix(9.963098,0,0,-9.962899,309.98374,261.3515)"/>
<use data-text="0" xlink:href="#font_2_121" transform="matrix(9.963098,0,0,-9.962899,314.9653,261.3515)"/>
<use data-text="0" xlink:href="#font_2_121" transform="matrix(9.963098,0,0,-9.962899,319.94685,261.3515)"/>
<use data-text="0" xlink:href="#font_3_121" transform="matrix(8.966848,0,0,-8.966669,25.844536,254.08329)"/>
<use data-text="1" xlink:href="#font_3_82" transform="matrix(8.966848,0,0,-8.966669,25.844536,225.83444)"/>
<use data-text="2" xlink:href="#font_3_107" transform="matrix(8.966848,0,0,-8.966669,25.844536,197.48659)"/>
<use data-text="3" xlink:href="#font_3_106" transform="matrix(8.966848,0,0,-8.966669,25.844536,169.04074)"/>
<use data-text="4" xlink:href="#font_3_57" transform="matrix(8.966848,0,0,-8.966669,25.844536,140.84088)"/>
<use data-text="5" xlink:href="#font_3_56" transform="matrix(8.966848,0,0,-8.966669,25.844536,112.34503)"/>
<use data-text="6" xlink:href="#font_3_101" transform="matrix(8.966848,0,0,-8.966669,25.844536,83.99718)"/>
<use data-text="7" xlink:href="#font_3_100" transform="matrix(8.966848,0,0,-8.966669,25.844536,55.69432)"/>
<use data-text="8" xlink:href="#font_3_51" transform="matrix(8.966848,0,0,-8.966669,25.844536,27.302475)"/>
<path transform="matrix(1.00005,0,0,-1.00003,33.973947,251.1962)" d="M155.90744 0V56.69362H170.08086V0" fill="#0000ff"/>
<path transform="matrix(1.00005,0,0,-1.00003,33.973947,251.1962)" stroke-width=".79701" stroke-linecap="butt" stroke-miterlimit="10" stroke-linejoin="miter" fill="none" stroke="#000000" d="M155.90744 0V56.69362H170.08086V0"/>
<path transform="matrix(1.00005,0,0,-1.00003,33.973947,251.1962)" d="M170.08086 0V85.04042H184.25424V0" fill="#0000ff"/>
<path transform="matrix(1.00005,0,0,-1.00003,33.973947,251.1962)" stroke-width=".79701" stroke-linecap="butt" stroke-miterlimit="10" stroke-linejoin="miter" fill="none" stroke="#000000" d="M170.08086 0V85.04042H184.25424V0"/>
<path transform="matrix(1.00005,0,0,-1.00003,33.973947,251.1962)" d="M184.25424 0V170.08086H198.42766V0" fill="#0000ff"/>
<path transform="matrix(1.00005,0,0,-1.00003,33.973947,251.1962)" stroke-width=".79701" stroke-linecap="butt" stroke-miterlimit="10" stroke-linejoin="miter" fill="none" stroke="#000000" d="M184.25424 0V170.08086H198.42766V0"/>
<path transform="matrix(1.00005,0,0,-1.00003,33.973947,251.1962)" d="M198.42766 0V141.73404H212.60106V0" fill="#0000ff"/>
<path transform="matrix(1.00005,0,0,-1.00003,33.973947,251.1962)" stroke-width=".79701" stroke-linecap="butt" stroke-miterlimit="10" stroke-linejoin="miter" fill="none" stroke="#000000" d="M198.42766 0V141.73404H212.60106V0"/>
<path transform="matrix(1.00005,0,0,-1.00003,33.973947,251.1962)" d="M212.60106 0V113.38724H226.77448V0" fill="#0000ff"/>
<path transform="matrix(1.00005,0,0,-1.00003,33.973947,251.1962)" stroke-width=".79701" stroke-linecap="butt" stroke-miterlimit="10" stroke-linejoin="miter" fill="none" stroke="#000000" d="M212.60106 0V113.38724H226.77448V0"/>
<path transform="matrix(1.00005,0,0,-1.00003,33.973947,251.1962)" d="M226.77448 0V141.73404H240.94788V0" fill="#0000ff"/>
<path transform="matrix(1.00005,0,0,-1.00003,33.973947,251.1962)" stroke-width=".79701" stroke-linecap="butt" stroke-miterlimit="10" stroke-linejoin="miter" fill="none" stroke="#000000" d="M226.77448 0V141.73404H240.94788V0"/>
<path transform="matrix(1.00005,0,0,-1.00003,33.973947,251.1962)" d="M240.94788 0V170.08086H255.12128V0" fill="#0000ff"/>
<path transform="matrix(1.00005,0,0,-1.00003,33.973947,251.1962)" stroke-width=".79701" stroke-linecap="butt" stroke-miterlimit="10" stroke-linejoin="miter" fill="none" stroke="#000000" d="M240.94788 0V170.08086H255.12128V0"/>
<path transform="matrix(1.00005,0,0,-1.00003,33.973947,251.1962)" d="M255.12128 0V198.42766H269.29469V0" fill="#0000ff"/>
<path transform="matrix(1.00005,0,0,-1.00003,33.973947,251.1962)" stroke-width=".79701" stroke-linecap="butt" stroke-miterlimit="10" stroke-linejoin="miter" fill="none" stroke="#000000" d="M255.12128 0V198.42766H269.29469V0"/>
<path transform="matrix(1.00005,0,0,-1.00003,33.973947,251.1962)" d="M269.29469 0V28.3468H283.4681V0" fill="#0000ff"/>
<path transform="matrix(1.00005,0,0,-1.00003,33.973947,251.1962)" stroke-width=".79701" stroke-linecap="butt" stroke-miterlimit="10" stroke-linejoin="miter" fill="none" stroke="#000000" d="M269.29469 0V28.3468H283.4681V0"/>
<use data-text="S" xlink:href="#font_2_97" transform="matrix(9.963098,0,0,-9.962899,131.0928,282.03514)"/>
<use data-text="p" xlink:href="#font_2_84" transform="matrix(9.963098,0,0,-9.962899,136.63228,282.03514)"/>
<use data-text="e" xlink:href="#font_2_50" transform="matrix(9.963098,0,0,-9.962899,142.45073,282.03514)"/>
<use data-text="e" xlink:href="#font_2_50" transform="matrix(9.963098,0,0,-9.962899,146.87435,282.03514)"/>
<use data-text="d" xlink:href="#font_2_47" transform="matrix(9.963098,0,0,-9.962899,151.29798,282.03514)"/>
<use data-text="(" xlink:href="#font_2_85" transform="matrix(9.963098,0,0,-9.962899,160.15517,282.03514)"/>
<use data-text="k" xlink:href="#font_2_70" transform="matrix(9.963098,0,0,-9.962899,164.0308,282.03514)"/>
<use data-text="m" xlink:href="#font_2_75" transform="matrix(9.963098,0,0,-9.962899,169.29132,282.03514)"/>
<use data-text="/" xlink:href="#font_2_102" transform="matrix(9.963098,0,0,-9.962899,177.59059,282.03514)"/>
<use data-text="h" xlink:href="#font_2_63" transform="matrix(9.963098,0,0,-9.962899,182.57213,282.03514)"/>
<use data-text=")" xlink:href="#font_2_86" transform="matrix(9.963098,0,0,-9.962899,188.1116,282.03514)"/>
<use data-text="F" xlink:href="#font_2_54" transform="matrix(0,-9.962899,-9.963098,-0,7.9916536,160.03347)"/>
<use data-text="r" xlink:href="#font_2_96" transform="matrix(0,-9.962899,-9.963098,-0,7.9916536,154.34464)"/>
<use data-text="e" xlink:href="#font_2_50" transform="matrix(0,-9.962899,-9.963098,-0,7.9916536,150.4392)"/>
<use data-text="q" xlink:href="#font_2_91" transform="matrix(0,-9.962899,-9.963098,-0,7.9916536,146.01566)"/>
<use data-text="u" xlink:href="#font_2_109" transform="matrix(0,-9.962899,-9.963098,-0,7.9916536,140.75525)"/>
<use data-text="e" xlink:href="#font_2_50" transform="matrix(0,-9.962899,-9.963098,-0,7.9916536,135.21588)"/>
<use data-text="n" xlink:href="#font_2_77" transform="matrix(0,-9.962899,-9.963098,-0,7.9916536,130.79235)"/>
<use data-text="c" xlink:href="#font_2_43" transform="matrix(0,-9.962899,-9.963098,-0,7.9916536,125.252979)"/>
<use data-text="y" xlink:href="#font_2_118" transform="matrix(0,-9.962899,-9.963098,-0,7.9916536,120.82945)"/>
<use data-text="H" xlink:href="#font_4_62" transform="matrix(14.346916,0,0,-14.346631,131.35782,18.0112)"/>
<use data-text="i" xlink:href="#font_4_66" transform="matrix(14.346916,0,0,-14.346631,143.9831,18.0112)"/>
<use data-text="s" xlink:href="#font_4_98" transform="matrix(14.346916,0,0,-14.346631,148.47367,18.0112)"/>
<use data-text="t" xlink:href="#font_4_105" transform="matrix(14.346916,0,0,-14.346631,154.8437,18.0112)"/>
<use data-text="o" xlink:href="#font_4_81" transform="matrix(14.346916,0,0,-14.346631,161.12766,18.0112)"/>
<use data-text="g" xlink:href="#font_4_59" transform="matrix(14.346916,0,0,-14.346631,169.20496,18.0112)"/>
<use data-text="r" xlink:href="#font_4_96" transform="matrix(14.346916,0,0,-14.346631,177.28227,18.0112)"/>
<use data-text="a" xlink:href="#font_4_28" transform="matrix(14.346916,0,0,-14.346631,183.88185,18.0112)"/>
<use data-text="m" xlink:href="#font_4_75" transform="matrix(14.346916,0,0,-14.346631,191.72962,18.0112)"/>
<use data-text="o" xlink:href="#font_4_81" transform="matrix(14.346916,0,0,-14.346631,210.56713,18.0112)"/>
<use data-text="f" xlink:href="#font_4_55" transform="matrix(14.346916,0,0,-14.346631,218.64443,18.0112)"/>
<use data-text="V" xlink:href="#font_4_111" transform="matrix(14.346916,0,0,-14.346631,228.95986,18.0112)"/>
<use data-text="e" xlink:href="#font_4_50" transform="matrix(14.346916,0,0,-14.346631,239.82047,18.0112)"/>
<use data-text="h" xlink:href="#font_4_63" transform="matrix(14.346916,0,0,-14.346631,247.18045,18.0112)"/>
<use data-text="i" xlink:href="#font_4_66" transform="matrix(14.346916,0,0,-14.346631,256.14729,18.0112)"/>
<use data-text="c" xlink:href="#font_4_43" transform="matrix(14.346916,0,0,-14.346631,260.63786,18.0112)"/>
<use data-text="l" xlink:href="#font_4_72" transform="matrix(14.346916,0,0,-14.346631,267.81129,18.0112)"/>
<use data-text="e" xlink:href="#font_4_50" transform="matrix(14.346916,0,0,-14.346631,272.30189,18.0112)"/>
<use data-text="S" xlink:href="#font_4_97" transform="matrix(14.346916,0,0,-14.346631,285.0276,18.0112)"/>
<use data-text="p" xlink:href="#font_4_84" transform="matrix(14.346916,0,0,-14.346631,293.9944,18.0112)"/>
<use data-text="e" xlink:href="#font_4_50" transform="matrix(14.346916,0,0,-14.346631,303.40596,18.0112)"/>
<use data-text="e" xlink:href="#font_4_50" transform="matrix(14.346916,0,0,-14.346631,310.76594,18.0112)"/>
<use data-text="d" xlink:href="#font_4_47" transform="matrix(14.346916,0,0,-14.346631,318.12586,18.0112)"/>
<use data-text="s" xlink:href="#font_4_98" transform="matrix(14.346916,0,0,-14.346631,327.0927,18.0112)"/>
</svg>
