<svg xmlns="http://www.w3.org/2000/svg" xmlns:xlink="http://www.w3.org/1999/xlink" xmlns:inkscape="http://www.inkscape.org/namespaces/inkscape" version="1.1" width="228" height="184" viewBox="0 0 228 184">
<defs>
<path id="font_1_57" d="M.47099305 .16503906V.19602967H.37098695V.6507721C.37098695 .6707611 .37098695 .6767578 .35499574 .6767578 .34599305 .6767578 .34298707 .6767578 .33499146 .6647644L.027999878 .19602967V.16503906H.2939911V.07800293C.2939911 .041992189 .2919922 .0309906 .21798706 .0309906H.19699097V0C.23799134 .0029907227 .2899933 .0029907227 .33198548 .0029907227 .37399293 .0029907227 .4269867 .0029907227 .46798707 0V.0309906H.44699098C.37298585 .0309906 .37098695 .041992189 .37098695 .07800293V.16503906H.47099305M.2999878 .19602967H.055999757L.2999878 .56881716V.19602967Z"/>
<path id="font_1_121" d="M.45999146 .31976319C.45999146 .39982606 .45498658 .47988893 .41999818 .5539398 .37399293 .65000918 .2919922 .6660156 .25 .6660156 .18998719 .6660156 .116989139 .64001467 .07598877 .54693606 .04399109 .47789 .038986207 .39982606 .038986207 .31976319 .038986207 .24472046 .042999269 .15464783 .083999637 .07859802 .1269989-.0024719239 .19999695-.022460938 .24899292-.022460938 .30299378-.022460938 .3789978-.0014648438 .4229889 .09359741 .45498658 .16265869 .45999146 .2407074 .45999146 .31976319M.3769989 .3317871C.3769989 .25672914 .3769989 .18867493 .3659973 .12461853 .35099793 .029556275 .2939911-.00047302247 .24899292-.00047302247 .20999146-.00047302247 .15098572 .024551392 .1329956 .12062073 .12199402 .18066406 .12199402 .2727356 .12199402 .3317871 .12199402 .39582826 .12199402 .46188355 .12998963 .5159149 .14898682 .63500979 .22399903 .64401248 .24899292 .64401248 .28199769 .64401248 .34799195 .6259918 .36698915 .52693179 .3769989 .47088624 .3769989 .39482118 .3769989 .3317871Z"/>
<path id="font_1_56" d="M.44898988 .20091248C.44898988 .31991578 .36698915 .41992188 .25898744 .41992188 .21099854 .41992188 .16799927 .4039154 .13198853 .36891175V.5641022C.1519928 .55778506 .18499756 .55078127 .21699524 .55078127 .33999635 .55078127 .4099884 .6418457 .4099884 .65493777 .4099884 .6609802 .40699769 .6660156 .3999939 .6660156 .3999939 .66607668 .39698792 .66607668 .3919983 .66308596 .37199403 .65408328 .32299806 .63378909 .2559967 .63378909 .21598816 .63409426 .16999817 .641098 .12298584 .6621094 .114990238 .6651001 .11099243 .6651001 .11099243 .6651001 .100997928 .66508486 .100997928 .657074 .100997928 .64108279V.3447113C.100997928 .3266449 .100997928 .31861878 .114990238 .31861878 .12199402 .31861878 .12399292 .32164 .12799073 .32765199 .13899231 .34371949 .17599488 .3979187 .25698854 .3979187 .30899049 .3979187 .33399964 .3517456 .34199525 .3336792 .35798646 .2965393 .3600006 .2574005 .3600006 .20721436 .3600006 .17218018 .3600006 .112197879 .33599855 .07032776 .31199647 .031448366 .2749939 .0055389406 .22898865 .0055389406 .1559906 .0055389406 .09899902 .05836487 .08198547 .1171875 .084991458 .11685181 .08799744 .115859989 .09899902 .115859989 .13198853 .115859989 .14898682 .14085388 .14898682 .16485596 .14898682 .18885803 .13198853 .21386719 .09899902 .21386719 .084991458 .21386719 .049987794 .2068634 .049987794 .16085816 .049987794 .07432556 .11898804-.022460938 .23098755-.022460938 .34700013-.022460938 .44898988 .07331848 .44898988 .20019531V.20091248Z"/>
<path id="font_1_101" d="M.45700074 .2036438C.45700074 .33070375 .36799623 .4267578 .25698854 .4267578 .18899536 .4267578 .1519928 .37573243 .13198853 .327713V.35173036C.13198853 .6047821 .2559967 .64100649 .30699159 .64100649 .33099366 .64100649 .37298585 .634964 .394989 .6007538 .37998963 .6007538 .33999635 .6007538 .33999635 .5557556 .33999635 .524765 .3639984 .5097656 .38598634 .5097656 .4019928 .5097656 .43199159 .51875308 .43199159 .5577545 .43199159 .6178589 .3880005 .6660156 .30499269 .6660156 .1769867 .6660156 .041992189 .5367584 .041992189 .31570436 .041992189 .048553468 .1579895-.022460938 .25099183-.022460938 .3619995-.022460938 .45700074 .07156372 .45700074 .2036438M.36698915 .20463562C.36698915 .15661621 .36698915 .10658264 .34999085 .0705719 .31999208 .010528564 .27398683 .0055389406 .25099183 .0055389406 .18798828 .0055389406 .1579895 .06556702 .1519928 .080566409 .13398743 .127594 .13398743 .2076416 .13398743 .22564698 .13398743 .30369569 .1659851 .40374757 .2559967 .40374757 .27198792 .40374757 .31799317 .40374757 .34899903 .34172059 .36698915 .30470277 .36698915 .2536621 .36698915 .20463562Z"/>
<path id="font_1_51" d="M.45700074 .16764832C.45700074 .20367432 .44599916 .24871826 .4079895 .29074098 .3889923 .31176759 .37298585 .32176209 .30899049 .36180116 .3809967 .39881898 .42999269 .4508667 .42999269 .51690676 .42999269 .6089783 .34098817 .6660156 .25 .6660156 .1499939 .6660156 .068984989 .5919647 .068984989 .49890138 .068984989 .48088075 .070999149 .43585206 .11299133 .38882447 .12399292 .3768158 .16099549 .35179139 .18598938 .33477784 .12799073 .30575563 .041992189 .24971009 .041992189 .15063477 .041992189 .044555665 .14399719-.022460938 .24899292-.022460938 .3619995-.022460938 .45700074 .060577394 .45700074 .16764832M.38598634 .51690676C.38598634 .45986939 .34700013 .41183473 .2869873 .3768158L.16299439 .4568634C.116989139 .4868927 .11299133 .5209198 .11299133 .53793337 .11299133 .5989685 .17799378 .64100649 .24899292 .64100649 .32199098 .64100649 .38598634 .588974 .38598634 .51690676M.40699769 .13162232C.40699769 .05757141 .33198548 .0055389406 .25 .0055389406 .1639862 .0055389406 .09199524 .06758118 .09199524 .15063477 .09199524 .2086792 .12399292 .2727356 .20899964 .31976319L.33198548 .24171448C.3600006 .22268677 .40699769 .19267273 .40699769 .13162232Z"/>
<path id="font_1_78" d="M.45700074 .32888795C.45700074 .598114 .34199525 .6660156 .25299073 .6660156 .19799805 .6660156 .14898682 .64801028 .10598755 .6031189 .06498718 .5580902 .041992189 .5160217 .041992189 .44091798 .041992189 .3158722 .12998963 .21777344 .24198914 .21777344 .30299378 .21777344 .34399415 .25979615 .36698915 .3178711V.28582765C.36698915 .05178833 .2630005 .0055389406 .20498657 .0055389406 .18798828 .0055389406 .13398743 .007537842 .10699463 .041778566 .15098572 .041778566 .15899658 .07078552 .15899658 .08778381 .15899658 .118774417 .1349945 .13378906 .11299133 .13378906 .09700012 .13378906 .066986087 .12478638 .066986087 .08578491 .066986087 .018615723 .12098694-.022460938 .20599365-.022460938 .33499146-.022460938 .45700074 .11378479 .45700074 .32888795M.36499024 .42089845C.36499024 .33789063 .33099366 .24076844 .24299622 .24076844 .22698975 .2407074 .18099976 .2407074 .1499939 .30371095 .13198853 .34072877 .13198853 .3908081 .13198853 .43988038 .13198853 .49397279 .13198853 .5410614 .15299988 .578125 .17999268 .62805178 .21798706 .64100649 .25299073 .64100649 .29899598 .64100649 .33198548 .60710147 .34899903 .562088 .36099244 .52989199 .36499024 .46688844 .36499024 .42089845Z"/>
<path id="font_2_121" d="M.47299195 .31976319C.47299195 .38682557 .46998597 .47288514 .43499757 .5479431 .3909912 .64201357 .31498719 .6660156 .25698854 .6660156 .19699097 .6660156 .12098694 .64201357 .07699585 .5459442 .04499817 .47688294 .039993287 .39582826 .039993287 .31976319 .039993287 .25471498 .041992189 .15765381 .084991458 .07858276 .13198853-.0064697267 .20999146-.022460938 .2559967-.022460938 .32099916-.022460938 .394989 .0055389406 .43699647 .097595218 .46699525 .1646576 .47299195 .23971558 .47299195 .31976319M.3869934 .33177186C.3869934 .2697296 .3869934 .18566895 .3769989 .12661743 .35598756 .012542725 .28199769 .002532959 .25698854 .002532959 .22698975 .002532959 .15499878 .016540528 .13598633 .12962342 .12599182 .18867493 .12599182 .2747345 .12599182 .33177186 .12599182 .39982606 .12599182 .47888185 .13798523 .53393557 .1579895 .6230011 .22200012 .64100649 .2559967 .64100649 .2939911 .64100649 .35699464 .62098696 .37599183 .5279236 .3869934 .47288514 .3869934 .39482118 .3869934 .33177186Z"/>
<path id="font_2_82" d="M.43199159 0V.0309906H.3999939C.30699159 .0309906 .3039856 .042999269 .3039856 .08001709V.63912966C.3039856 .6640167 .30299378 .6660156 .27799989 .6660156 .21598816 .60227969 .12399292 .60227969 .09298706 .60227969V.57128909C.11199951 .57128909 .17298889 .57128909 .22698975 .5972748V.08001709C.22698975 .042999269 .22399903 .0309906 .1309967 .0309906H.09899902V0C.1349945 .0029907227 .22399903 .0029907227 .2649994 .0029907227 .30599977 .0029907227 .3959961 .0029907227 .43199159 0Z"/>
<path id="font_2_88" d="M.19599915 .053985597C.19599915 .08299255 .17199707 .10798645 .14199829 .10798645 .11199951 .10798645 .08799744 .08299255 .08799744 .053985597 .08799744 .023986817 .11199951 0 .14199829 0 .17199707 0 .19599915 .023986817 .19599915 .053985597Z"/>
<path id="font_2_107" d="M.46199037 .17704773H.43399049C.43199159 .16404724 .42399598 .10501099 .41099549 .08900452 .40499879 .07998657 .33599855 .07998657 .31599427 .07998657H.13798523L.23699951 .17404175C.40098573 .3161316 .46199037 .36915589 .46199037 .4711914 .46199037 .5860901 .36698915 .6660156 .24398804 .6660156 .1289978 .6660156 .050994874 .575119 .050994874 .4841919 .050994874 .43418885 .09399414 .42919923 .102996829 .42919923 .125 .42919923 .15499878 .44519044 .15499878 .48120118 .15499878 .51119998 .13398743 .5332031 .102996829 .5332031 .09799194 .5332031 .09498596 .5332031 .09098816 .53219607 .114990238 .6030731 .1789856 .63500979 .23298645 .63500979 .33499146 .63500979 .36999513 .5401764 .36999513 .4711914 .36999513 .36915589 .29299928 .28611756 .24499512 .23408509L.06199646 .035995485C.050994874 .024993897 .050994874 .022994996 .050994874 0H.43399049L.46199037 .17704773Z"/>
<path id="font_2_106" d="M.46998597 .17008972C.46998597 .25709535 .40098573 .33110047 .30499269 .35209657 .397995 .38710023 .44198609 .46009828 .44198609 .5290985 .44198609 .60606387 .35699464 .6660156 .25299073 .6660156 .14898682 .6660156 .070999149 .60705569 .070999149 .5310974 .070999149 .49809266 .09298706 .47909547 .12199402 .47909547 .15098572 .47909547 .17199707 .50009158 .17199707 .5290985 .17199707 .5640869 .147995 .57910159 .11399841 .57910159 .13999939 .6210327 .20098877 .64100649 .25 .64100649 .33299256 .64100649 .34899903 .5750885 .34899903 .52809146 .34899903 .49809266 .34298707 .45005799 .31799317 .41201783 .2869873 .36695863 .2519989 .36495973 .22299195 .36296083 .19799805 .36094667 .19599915 .36094667 .18798828 .36094667 .1789856 .35995484 .17098999 .35894776 .17098999 .34794618 .17098999 .33496095 .1789856 .33496095 .19599915 .33496095H.24299622C.32998658 .33496095 .36799623 .2646637 .36799623 .16937256 .36799623 .04145813 .2999878 .0055389406 .24899292 .0055389406 .22999573 .0055389406 .1329956 .010528564 .08799744 .0843811 .12399292 .07939148 .1519928 .10437012 .1519928 .13838196 .1519928 .17137146 .1269989 .19238281 .09799194 .19238281 .07299805 .19238281 .042999269 .17736817 .042999269 .13537598 .042999269 .046447755 .13598633-.022460938 .2519989-.022460938 .3769989-.022460938 .46998597 .06741333 .46998597 .16937256V.17008972Z"/>
<path id="font_2_57" d="M.48399354 .16503906V.19602967H.38198854V.649765C.38198854 .669754 .38198854 .6767578 .36299134 .6767578 .35099793 .6767578 .34999085 .67575076 .34098817 .6617584L.0289917 .19602967V.16503906H.3019867V.07901001C.3019867 .041992189 .29899598 .0309906 .22399903 .0309906H.20199585V0C.2649994 .0029907227 .33499146 .0029907227 .34199525 .0029907227 .34700013 .0029907227 .4189911 .0029907227 .48199464 0V.0309906H.45999146C.3849945 .0309906 .38198854 .041992189 .38198854 .07901001V.16503906H.48399354M.30799867 .19602967H.06098938L.30799867 .56581118V.19602967Z"/>
<path id="font_2_56" d="M.46199037 .19992066C.46199037 .3209076 .37599183 .41992188 .2669983 .41992188 .21899414 .41992188 .16999817 .4039154 .1349945 .36791993V.5647888C.16499329 .55578616 .19599915 .55078127 .22698975 .55078127 .34999085 .55078127 .42199708 .63983157 .42199708 .6529236 .42199708 .6619873 .41600038 .6660156 .41099549 .6660156 .41099549 .6660156 .40699769 .6660156 .397995 .6609802 .35099793 .6418457 .30499269 .63378909 .2630005 .63378909 .21998596 .63378909 .1749878 .6418457 .1289978 .6609802 .11898804 .6660156 .115997318 .6660156 .115997318 .6660156 .10398865 .6660156 .10398865 .6559448 .10398865 .63882449V.34490968C.10398865 .32699586 .10398865 .31599427 .117996219 .31599427 .12599182 .31562806 .1289978 .3196411 .1349945 .32867433 .16499329 .37083436 .21299744 .39491273 .2649994 .39491273 .37199403 .39491273 .37199403 .24035645 .37199403 .20422364 .37199403 .17321778 .37199403 .11122131 .34399415 .06636047 .31698609 .024475098 .2749939 .0055389406 .23599243 .0055389406 .1769867 .0055389406 .10998535 .042419435 .085998538 .11621094 .085998538 .116882327 .09298706 .11488342 .099990848 .11488342 .11999512 .11488342 .14898682 .12788391 .14898682 .1638794 .14898682 .19488526 .1269989 .21289063 .099990848 .21289063 .07899475 .21289063 .050994874 .20088196 .050994874 .16088867 .050994874 .069732669 .1269989-.022460938 .23799134-.022460938 .35899354-.02279663 .46199037 .07521057 .46199037 .19921875V.19992066Z"/>
<path id="font_3_113" d="M1.1640015 .63853457V.6855469C1.1369934 .6845398 1.1019898 .6825409 1.0569916 .6825409 1.0189972 .6825409 .95700076 .6825409 .92099 .6855469V.63853457C.94599917 .63853457 .99398806 .63853457 1.022995 .6275482L.8509979 .1809845 .673996 .63853457H.769989V.6855469C.7319946 .6825409 .6380005 .6825409 .59498599 .6825409 .55599978 .6825409 .47698976 .6825409 .44198609 .6855469V.63853457H.5279999L.56900027 .53263857 .43299867 .1809845 .2559967 .63853457H.35198976V.6855469C.31399537 .6825409 .21998596 .6825409 .1769867 .6825409 .13798523 .6825409 .05899048 .6825409 .023986817 .6855469V.63853457H.10998535L.34999085 .018157959C.35598756 .002166748 .3600006-.0078125 .3849945-.0078125 .4099884-.0078125 .4139862 .002166748 .41999818 .018157959L.59399417 .4677124 .7679901 .018157959C.7739868 .002166748 .7779999-.0078125 .8029938-.0078125 .8279877-.0078125 .83200076 .002166748 .83799746 .018157959L1.0690003 .614563C1.074997 .631546 1.0759888 .6335449 1.1069946 .63653567 1.1269989 .63853457 1.147995 .63853457 1.1640015 .63853457Z"/>
<path id="font_3_50" d="M.49398805 .11706543C.49398805 .13504029 .47499085 .13504029 .46998597 .13504029 .45298768 .13504029 .45098878 .13005066 .44499208 .11405945 .42399598 .066101077 .36698915 .03413391 .3019867 .03413391 .16099549 .03413391 .1599884 .16700745 .1599884 .2179718H.46199037C.48399354 .2179718 .49398805 .2179718 .49398805 .2449646 .49398805 .27598573 .48799134 .34906007 .43798829 .3991089 .40098573 .43511964 .34799195 .453125 .2789917 .453125 .11898804 .453125 .03199768 .35005189 .03199768 .22497559 .03199768 .09107971 .13198853-.005859375 .29299928-.005859375 .45098878-.005859375 .49398805 .10006714 .49398805 .11706543M.39898683 .25097657H.1599884C.1619873 .29000855 .16299439 .3320465 .18399048 .36506654 .20999146 .4051056 .25 .41711427 .2789917 .41711427 .3959961 .41711427 .397995 .28599549 .39898683 .25097657Z"/>
<path id="font_3_66" d="M.28599549 0V.04699707H.22399903V.4501953L.049987794 .4423828V.39537049C.10899353 .39537049 .115997318 .39537049 .115997318 .3563385V.04699707H.04699707V0L.16899109 .0029907227 .28599549 0M.23799134 .60728457C.23799134 .6502838 .20298767 .6852875 .1599884 .6852875 .116989139 .6852875 .08198547 .6502838 .08198547 .60728457 .08198547 .5642853 .116989139 .5292969 .1599884 .5292969 .20298767 .5292969 .23799134 .5642853 .23799134 .60728457Z"/>
<path id="font_3_59" d="M.55799868 .3970642C.55799868 .42007447 .54100039 .45507813 .49499513 .45507813 .47999574 .45507813 .43299867 .45207215 .3889923 .41706849 .37098695 .42918397 .32899476 .4501953 .25498963 .4501953 .11099243 .4501953 .055999757 .37243653 .055999757 .3024292 .055999757 .26127626 .07598877 .22012329 .10798645 .19703675 .07998657 .16191101 .07398987 .12878418 .07398987 .10771179 .07398987 .0927124 .07798767 .04371643 .117996219 .01171875 .10499573 .008712769 .03199768-.012252808 .03199768-.075164798 .03199768-.12609864 .08699036-.2010498 .2869873-.2010498 .46398927-.2010498 .5419922-.14207459 .5419922-.07217407 .5419922-.04222107 .5339966 .020706177 .46699525 .054718019 .41099549 .08300781 .35099793 .08300781 .25498963 .08300781 .22898865 .08300781 .18299866 .08300781 .17799378 .083984378 .13398743 .0909729 .12298584 .12898255 .12298584 .14697266 .12298584 .15698242 .1269989 .17198181 .1329956 .17997742 .1789856 .15629578 .22999573 .15429688 .25498963 .15429688 .39898683 .15429688 .45399476 .23234558 .45399476 .3024292 .45399476 .34942628 .42900086 .38243104 .4139862 .3984375 .44400025 .4144287 .46499635 .4164276 .47599793 .4174347 .47399903 .4124298 .47200013 .40342713 .47200013 .39743043 .47200013 .37219239 .4889984 .354187 .5149994 .354187 .54100039 .354187 .55799868 .3731842 .55799868 .39718629V.3970642M.34298707 .30221559C.34298707 .25724793 .34298707 .19029236 .25498963 .19029236 .16699219 .19021607 .16699219 .25733949 .16699219 .3024292 .16699219 .34742738 .16699219 .41418458 .25498963 .41418458 .34298707 .41418458 .34298707 .34742738 .34298707 .3024292V.30221559M.45599366-.07501221C.45599366-.11102295 .4169922-.16503906 .2869873-.16503906 .16699219-.16503906 .117996219-.11903381 .117996219-.073013309 .117996219-.013000488 .18099976-.013000488 .19499207-.013000488H.31199647C.34298707-.013000488 .45599366-.013000488 .45599366-.07501221Z"/>
<path id="font_3_63" d="M.61499026 0V.04699707H.54599V.30613709C.54599 .41119386 .49198915 .4501953 .3919983 .4501953 .29599 .4501953 .24499512 .3921814 .22299195 .3541565H.22200012V.69433596L.04499817 .6855469V.63853457C.10699463 .63853457 .11399841 .63853457 .11399841 .5996704V.04699707H.04499817V0L.17098999 .0029907227 .29699708 0V.04699707H.22799683V.25610353C.22799683 .36515809 .31399537 .41418458 .3769989 .41418458 .41099549 .41418458 .43199159 .39317323 .43199159 .31713868V.04699707H.36299134V0L.4889984 .0029907227 .61499026 0Z"/>
<path id="font_3_105" d="M.38198854 .124176029V.17721558H.33499146V.12619019C.33499146 .058151246 .30299378 .03413391 .2749939 .03413391 .21699524 .03413391 .21699524 .09817505 .21699524 .1211853V.3973236H.36299134V.44433595H.21699524V.6357422H.16999817C.16899109 .53552249 .11999512 .43632508 .020996094 .43333436V.3973236H.102996829V.123184207C.102996829 .01612854 .18998719-.005859375 .26098634-.005859375 .33699037-.005859375 .38198854 .05114746 .38198854 .124176029Z"/>
<path id="font_3_85" d="M.38198854-.23503113C.38198854-.23002625 .3789978-.22503662 .3789978-.22503662 .34999085-.19802857 .2849884-.13702393 .24299622-.009033203 .21699524 .06997681 .20498657 .16197205 .20498657 .24998474 .20498657 .4469757 .2559967 .60398867 .3659973 .7149811 .3809967 .72998049 .38198854 .73098757 .38198854 .73599246 .38198854 .74697878 .37199403 .75 .3639984 .75 .34700013 .75 .30499269 .7129822 .2869873 .6959839 .1309967 .5409851 .10798645 .35697938 .10798645 .25097657 .10798645 .12597656 .14099121 .015975953 .18798828-.06703186 .2539978-.18203736 .34498597-.24902344 .3639984-.24902344 .37199403-.24902344 .38198854-.24603272 .38198854-.23503113Z"/>
<path id="font_3_70" d="M.58699038 0V.04699707H.56999209C.5269928 .04699707 .5239868 .050994874 .5109863 .0670166L.34199525 .2782135 .47200013 .37930299C.48599244 .39031983 .49499513 .3973236 .56199648 .3973236V.44433595C.5349884 .44140626 .5099945 .44140626 .48399354 .44140626L.36898805 .44433595V.3973236C.3919983 .3973999 .394989 .39439393 .40299989 .38639833L.21398926 .23739624V.69433596L.036987306 .6855469V.63853457C.09899902 .63853457 .10598755 .63853457 .10598755 .5995636V.04699707H.036987306V0L.15699768 .0029907227 .27799989 0V.04699707H.20899964V.17388916C.23799134 .19688416 .24598694 .2028656 .2659912 .21685791L.36698915 .09095764C.37599183 .07896423 .3919983 .05899048 .3919983 .055984498 .3919983 .04699707 .37399293 .04699707 .36099244 .04699707V0C.3909912 .0019989014 .47799684 .0029907227 .48298646 .0029907227 .5189972 .0029907227 .5529938 .0019989014 .58699038 0Z"/>
<path id="font_3_86" d="M.33799745 .24998474C.33799745 .37498475 .30499269 .48498536 .2579956 .5679779 .19198609 .6829834 .100997928 .75 .08198547 .75 .07398987 .75 .06399536 .74697878 .06399536 .73599246 .06399536 .73098757 .06399536 .72898867 .08099365 .7129822 .20698548 .5849762 .24099732 .40797425 .24099732 .25097657 .24099732 .053970338 .18998719-.103027347 .07998657-.21403504 .06498718-.22903443 .06399536-.23002625 .06399536-.23503113 .06399536-.24603272 .07398987-.24902344 .08198547-.24902344 .09899902-.24902344 .14099121-.21203614 .15899658-.19502259 .31498719-.040023805 .33799745 .14398194 .33799745 .24998474Z"/>
<path id="font_3_54" d="M.6749878 .4391327 .6439972 .6798096H.038986207V.6328125H.14698792V.04699707H.038986207V0C.07699585 .0029907227 .17799378 .0029907227 .22200012 .0029907227 .2709961 .0029907227 .37998963 .0029907227 .42399598 0V.04699707H.2889862V.31724549H.33898927C.43499757 .31724549 .44400025 .2742157 .44400025 .20013428H.4909973V.48106385H.44400025C.44400025 .4071808 .43598939 .3642578 .33898927 .3642578H.2889862V.6328125H.42900086C.58999636 .6328125 .61299136 .5559387 .6279907 .4391327H.6749878Z"/>
<path id="font_3_96" d="M.44198609 .36819459C.44198609 .42118836 .3880005 .4501953 .33599855 .4501953 .2659912 .4501953 .22599793 .40019227 .20298767 .33718873V.4501953L.036987306 .4423828V.39537049C.09899902 .39537049 .10598755 .39537049 .10598755 .3563385V.04699707H.036987306V0L.16299439 .0029907227C.20098877 .0029907227 .2649994 .0029907227 .30099488 0V.04699707H.21398926V.22218323C.21398926 .29226686 .23899842 .41436769 .33898927 .41436769 .33898927 .41436769 .31999208 .39736939 .31999208 .36834718 .31999208 .32730104 .35198976 .3072815 .3809967 .3072815 .4099884 .3072815 .44198609 .3283081 .44198609 .36834718V.36819459Z"/>
<path id="font_3_91" d="M.6009979-.1934967V-.14648438H.5319977V.4501953H.4909973L.43798829 .3711853C.40299989 .42018128 .34700013 .4501953 .2869873 .4501953 .14099121 .4501953 .037994386 .36117555 .037994386 .22215271 .037994386 .08114624 .13899231-.005859375 .27799989-.005859375 .32699586-.005859375 .37199403 .008132935 .41799928 .04814148V-.14648438H.34899903V-.1934967L.47499085-.19049073 .6009979-.1934967M.42399598 .14215088C.42399598 .12414551 .42399598 .12113953 .40899659 .10014343 .36898805 .041137697 .31799317 .030136109 .28799439 .030136109 .22599793 .030136109 .1659851 .088134769 .1659851 .22116089 .1659851 .36317445 .23999024 .41018678 .2999878 .41018678 .37599183 .41018678 .42399598 .33117677 .42399598 .2811737V.14215088Z"/>
<path id="font_3_109" d="M.61499026 .0001373291V.0471344C.5529938 .0471344 .54599 .0471344 .54599 .086135867V.4501953L.36299134 .44218446V.39518739C.4249878 .39518739 .43199159 .39518739 .43199159 .3561859V.16514588C.43199159 .08314514 .3809967 .030136109 .30799867 .030136109 .23098755 .030136109 .22799683 .055130006 .22799683 .10914612V.4501953L.04499817 .44218446V.39518739C.10699463 .39518739 .11399841 .39518739 .11399841 .3561859V.12313843C.11399841 .01612854 .19499207-.005859375 .2939911-.005859375 .31999208-.005859375 .3919983-.005859375 .43798829 .072143558V-.005859375L.61499026 .0001373291Z"/>
<path id="font_3_77" d="M.61499026 0V.04699707H.54599V.30613709C.54599 .41119386 .49198915 .4501953 .3919983 .4501953 .29599 .4501953 .24299622 .39318849 .21699524 .3421631V.4501953L.04499817 .4423828V.39537049C.10699463 .39537049 .11399841 .39537049 .11399841 .3563385V.04699707H.04499817V0L.17098999 .0029907227 .29699708 0V.04699707H.22799683V.2562256C.22799683 .3653412 .31399537 .41436769 .3769989 .41436769 .41099549 .41436769 .43199159 .39337159 .43199159 .31729127V.04699707H.36299134V0L.4889984 .0029907227 .61499026 0Z"/>
<path id="font_3_43" d="M.47799684 .117126468C.47799684 .13113404 .46398927 .13113404 .45399476 .13113404 .43598939 .13113404 .43499757 .12913513 .42999269 .11613464 .4039917 .053131105 .35598756 .03413391 .30499269 .03413391 .1659851 .03413391 .1659851 .18112183 .1659851 .22712708 .1659851 .28312684 .1659851 .41311646 .29499818 .41311646 .32998658 .41311646 .34700013 .41011048 .3600006 .40711976 .34199525 .39111329 .33999635 .3701172 .33999635 .3611145 .33999635 .3171234 .375 .29811097 .4019928 .29811097 .43299867 .29811097 .46499635 .3191223 .46499635 .3611145 .46499635 .44711305 .34899903 .453125 .29100038 .453125 .11199951 .45314027 .037994386 .33813478 .037994386 .22213745 .037994386 .08912659 .13198853-.005859375 .28599549-.005859375 .44799806-.005859375 .47799684 .11013794 .47799684 .117126468Z"/>
<path id="font_3_118" d="M.5799866 .3973236V.44433595C.55599978 .44232179 .526001 .44132997 .5009918 .44132997L.4099884 .44433595V.3973236C.4099884 .3973236 .45700074 .3973236 .45700074 .3853302L.45199586 .37332154 .33699037 .12713623 .20999146 .3973236H.2639923V.44433595L.13999939 .44132997 .025985718 .44433595V.3973236H.08999634L.2769928 .000045776369 .2539978-.04798889C.23199463-.09602356 .19999695-.1640625 .1289978-.1640625 .114990238-.1640625 .11299133-.16307068 .10499573-.1600647 .11399841-.1560669 .13699341-.14205933 .13699341-.10702515 .13699341-.07400513 .11299133-.049987794 .07899475-.049987794 .050994874-.049987794 .021987915-.069000247 .021987915-.10803223 .021987915-.15907288 .068984989-.20007324 .1289978-.20007324 .20599365-.20007324 .2639923-.13804627 .29100038-.08100891L.5059967 .37631227C.5130005 .39031983 .5159912 .3973236 .5799866 .3973236Z"/>
<path id="font_3_46" d="M.81700137 .33676148C.81700137 .55659487 .6669922 .6855469 .46899415 .6855469H.038986207V.63853457H.14698792V.04699707H.038986207V0H.46998597C.6669922 0 .81700137 .12294006 .81700137 .33676148M.66999819 .33776856C.66999819 .22885132 .6579895 .17588806 .6259918 .13092041 .5779877 .06297302 .48999024 .04699707 .42900086 .04699707H.2829895V.63853457H.42900086C.49499513 .63853457 .5779877 .6195526 .6269989 .5496063 .6619873 .49864198 .66999819 .43069459 .66999819 .33776856Z"/>
<path id="font_3_98" d="M.4149933 .14012146C.4149933 .18312073 .394989 .21812439 .3600006 .24612427 .32099916 .27511598 .2889862 .28112794 .21099854 .29412843 .17399597 .30111695 .10899353 .31211854 .10899353 .3591156 .10899353 .42111207 .20199585 .42111207 .22099304 .42111207 .29599 .42111207 .33399964 .39212037 .33898927 .33711244 .33999635 .32211305 .34098817 .3171234 .3619995 .3171234 .38598634 .3171234 .38598634 .32211305 .38598634 .3451233V.42510987C.38598634 .4441223 .38598634 .453125 .36799623 .453125 .3639984 .453125 .3619995 .453125 .32299806 .43411256 .29699708 .44711305 .2619934 .453125 .22200012 .453125 .19198609 .453125 .037994386 .453125 .037994386 .32211305 .037994386 .28211976 .057998659 .25512696 .07798767 .23812866 .117996219 .203125 .1559906 .1971283 .23298645 .18312073 .2689972 .17712403 .34399415 .16412354 .34399415 .10513306 .34399415 .030136109 .2519989 .030136109 .22999573 .030136109 .12399292 .030136109 .09799194 .103134158 .085998538 .14613343 .08099365 .16012573 .07598877 .16012573 .06199646 .16012573 .037994386 .16012573 .037994386 .15412903 .037994386 .13113404V.022140503C.037994386 .0031280518 .037994386-.005859375 .055999757-.005859375 .06298828-.005859375 .06498718-.005859375 .085998538 .009140015L.11199951 .026138306C.1579895-.005859375 .20999146-.005859375 .22999573-.005859375 .26098634-.005859375 .4149933-.005859375 .4149933 .14013672V.14012146Z"/>
<path id="font_3_62" d="M.8600006 0V.04699707H.7519989V.63853457H.8600006V.6855469C.82199099 .6825409 .723999 .6825409 .68099978 .6825409 .6380005 .6825409 .5399933 .6825409 .5019989 .6855469V.63853457H.6100006V.3798828H.2889862V.63853457H.39698792V.6855469C.35899354 .6825409 .26098634 .6825409 .21798706 .6825409 .1749878 .6825409 .07699585 .6825409 .038986207 .6855469V.63853457H.14698792V.04699707H.038986207V0C.07699585 .0029907227 .1749878 .0029907227 .21798706 .0029907227 .26098634 .0029907227 .35899354 .0029907227 .39698792 0V.04699707H.2889862V.33287049H.6100006V.04699707H.5019989V0C.5399933 .0029907227 .6380005 .0029907227 .68099978 .0029907227 .723999 .0029907227 .82199099 .0029907227 .8600006 0Z"/>
<path id="font_3_81" d="M.5419922 .21812439C.5419922 .35212709 .44999696 .453125 .2869873 .453125 .12298584 .453125 .03199768 .35112 .03199768 .21812439 .03199768 .09413147 .11999512-.005859375 .2869873-.005859375 .45498658-.005859375 .5419922 .09512329 .5419922 .21812439M.4139862 .22912598C.4139862 .14213562 .4139862 .03413391 .2869873 .03413391 .1599884 .03413391 .1599884 .14213562 .1599884 .22912598 .1599884 .27412416 .1599884 .32511903 .1769867 .3591156 .19599915 .39611817 .23799134 .41711427 .2869873 .41711427 .32899476 .41711427 .37098695 .40112306 .3929901 .36611939 .4139862 .3321228 .4139862 .27713014 .4139862 .22912598Z"/>
<path id="font_3_28" d="M.5529938 .023986817C.5529938 .04699707 .5399933 .04699707 .5269928 .04699707 .46598817 .04798889 .46598817 .06100464 .46598817 .083999637V.29907228C.46598817 .3881073 .394989 .453125 .24598694 .453125 .18899536 .453125 .066986087 .44911195 .066986087 .36109925 .066986087 .3170929 .101989749 .29808045 .1289978 .29808045 .1599884 .29808045 .19198609 .3190918 .19198609 .36109925 .19198609 .39111329 .17298889 .40811158 .16999817 .41011048 .19799805 .41612245 .22999573 .41711427 .24198914 .41711427 .31698609 .41711427 .35198976 .3751068 .35198976 .29907228V.26506043C.2809906 .2620697 .026992798 .25306703 .026992798 .10801697 .026992798 .012130737 .15098572-.005859375 .21998596-.005859375 .2999878-.005859375 .34700013 .035125734 .36898805 .07713318 .36898805 .04598999 .36898805 0 .47299195 0H.5209961C.54100039 0 .5529938 0 .5529938 .023986817M.35198976 .13899231C.35198976 .043151857 .2599945 .030136109 .23498535 .030136109 .18399048 .030136109 .14399719 .06517029 .14399719 .10922241 .14399719 .21734619 .3019867 .23136902 .35198976 .234375V.13899231Z"/>
<path id="font_3_75" d="M.93499758 0V.04699707H.8659973V.30613709C.8659973 .40919496 .8149872 .4501953 .71199038 .4501953 .62098696 .4501953 .56900027 .40019227 .54299929 .3541565 .522995 .44718934 .43099977 .4501953 .3929901 .4501953 .30599977 .4501953 .24899292 .40518189 .21699524 .3421631V.4501953L.04499817 .4423828V.39537049C.10699463 .39537049 .11399841 .39537049 .11399841 .3563385V.04699707H.04499817V0L.17098999 .0029907227 .29699708 0V.04699707H.22799683V.2562256C.22799683 .3653412 .31498719 .41436769 .3769989 .41436769 .41099549 .41436769 .43299867 .39437867 .43299867 .31729127V.04699707H.3639984V0L.48999024 .0029907227 .6159973 0V.04699707H.5469971V.2562256C.5469971 .3653412 .6339874 .41436769 .69599917 .41436769 .7299957 .41436769 .7519989 .39437867 .7519989 .31729127V.04699707H.68299868V0L.8089905 .0029907227 .93499758 0Z"/>
<path id="font_3_47" d="M.6009979 0V.04699707C.5389862 .04699707 .5319977 .04699707 .5319977 .086013797V.69433596L.35499574 .6855469V.63853457C.4169922 .63853457 .42399598 .63853457 .42399598 .5996704V.40518189C.37399293 .44418336 .32199098 .4501953 .2889862 .4501953 .14299011 .4501953 .037994386 .36218263 .037994386 .22116089 .037994386 .089141849 .12998963-.005859375 .27799989-.005859375 .33898927-.005859375 .3869934 .018127442 .41799928 .043136598V-.005859375L.6009979 0M.41799928 .102996829C.40499879 .08514404 .3639984 .030136109 .28799439 .030136109 .1659851 .030136109 .1659851 .15115357 .1659851 .22116089 .1659851 .26916505 .1659851 .3231659 .19198609 .36218263 .22099304 .40419007 .2679901 .41418458 .29899598 .41418458 .35598756 .41418458 .3959961 .3821869 .41799928 .35317994V.102996829Z"/>
<path id="font_3_83" d="M.72099307 .49064637C.72099307 .6005707 .621994 .6855469 .45599366 .6855469H.038986207V.63853457H.14698792V.04699707H.038986207V0C.07699585 .0029907227 .1749878 .0029907227 .21798706 .0029907227 .26098634 .0029907227 .35899354 .0029907227 .39698792 0V.04699707H.2889862V.30177308H.46598817C.6049957 .30177308 .72099307 .37374879 .72099307 .49064637M.56799319 .49064637C.56799319 .41970826 .56799319 .34277345 .4169922 .34277345H.2829895V.63853457H.41799928C.56799319 .63853457 .56799319 .56259158 .56799319 .49064637Z"/>
<path id="font_3_72" d="M.29299928 0V.04699707H.22399903V.69433596L.04699707 .6855469V.63853457C.10899353 .63853457 .115997318 .63853457 .115997318 .5995636V.04699707H.04699707V0L.16999817 .0029907227 .29299928 0Z"/>
</defs>
<path transform="matrix(1.00002,0,0,-1.00002,28.308266,155.09186)" stroke-width=".19925" stroke-linecap="butt" stroke-miterlimit="10" stroke-linejoin="miter" fill="none" stroke="#d9d9d9" d="M0 0H198.42766M0 2.83484H198.42766M0 5.6697H198.42766M0 8.50455H198.42766M0 11.33939H198.42766M0 14.17424H198.42766M0 17.0091H198.42766M0 19.84393H198.42766M0 22.67879H198.42766M0 25.51364H198.42766M0 28.3485H198.42766M0 31.18333H198.42766M0 34.01819H198.42766M0 36.85304H198.42766M0 39.68788H198.42766M0 42.52274H198.42766M0 45.35759H198.42766M0 48.19244H198.42766M0 51.02728H198.42766M0 53.86214H198.42766M0 56.69699H198.42766M0 59.53183H198.42766M0 62.36668H198.42766M0 65.20154H198.42766M0 68.03639H198.42766M0 70.87123H198.42766M0 73.70609H198.42766M0 76.54094H198.42766M0 79.37578H198.42766M0 82.21063H198.42766M0 85.04549H198.42766M0 87.88034H198.42766M0 90.71518H198.42766M0 93.55003H198.42766M0 96.38489H198.42766M0 99.21973H198.42766M0 102.05458H198.42766M0 104.88943H198.42766M0 107.72429H198.42766M0 110.55913H198.42766M0 113.39398H198.42766M0 116.22884H198.42766M0 119.06367H198.42766M0 121.89853H198.42766M0 124.73338H198.42766M0 127.56824H198.42766M0 130.40308H198.42766M0 133.23793H198.42766M0 136.07279H198.42766M0 138.90763H198.42766M0 141.73253H198.42766M0 0V141.73404M2.83484 0V141.73404M5.6697 0V141.73404M8.50455 0V141.73404M11.33939 0V141.73404M14.17424 0V141.73404M17.0091 0V141.73404M19.84393 0V141.73404M22.67879 0V141.73404M25.51364 0V141.73404M28.3485 0V141.73404M31.18333 0V141.73404M34.01819 0V141.73404M36.85304 0V141.73404M39.68788 0V141.73404M42.52274 0V141.73404M45.35759 0V141.73404M48.19244 0V141.73404M51.02728 0V141.73404M53.86214 0V141.73404M56.69699 0V141.73404M59.53183 0V141.73404M62.36668 0V141.73404M65.20154 0V141.73404M68.03639 0V141.73404M70.87123 0V141.73404M73.70609 0V141.73404M76.54094 0V141.73404M79.37578 0V141.73404M82.21063 0V141.73404M85.04549 0V141.73404M87.88034 0V141.73404M90.71518 0V141.73404M93.55003 0V141.73404M96.38489 0V141.73404M99.21973 0V141.73404M102.05458 0V141.73404M104.88943 0V141.73404M107.72429 0V141.73404M110.55913 0V141.73404M113.39398 0V141.73404M116.22884 0V141.73404M119.06367 0V141.73404M121.89853 0V141.73404M124.73338 0V141.73404M127.56824 0V141.73404M130.40308 0V141.73404M133.23793 0V141.73404M136.07279 0V141.73404M138.90763 0V141.73404M141.74248 0V141.73404M144.57733 0V141.73404M147.41219 0V141.73404M150.24703 0V141.73404M153.08188 0V141.73404M155.91674 0V141.73404M158.75157 0V141.73404M161.58643 0V141.73404M164.42128 0V141.73404M167.25612 0V141.73404M170.09098 0V141.73404M172.92583 0V141.73404M175.76068 0V141.73404M178.59552 0V141.73404M181.43038 0V141.73404M184.26523 0V141.73404M187.10007 0V141.73404M189.93492 0V141.73404M192.76978 0V141.73404M195.60463 0V141.73404M198.42766 141.73404"/>
<path transform="matrix(1.00002,0,0,-1.00002,28.308266,155.09186)" stroke-width=".3985" stroke-linecap="butt" stroke-miterlimit="10" stroke-linejoin="miter" fill="none" stroke="#a6a6a6" d="M0 0H198.42766M0 28.3468H198.42766M0 56.69362H198.42766M0 85.04042H198.42766M0 113.38724H198.42766M0 141.72409H198.42766M0 0V141.73404M28.3468 0V141.73404M56.69362 0V141.73404M85.04042 0V141.73404M113.38724 0V141.73404M141.73404 0V141.73404M170.08086 0V141.73404M198.41771 0V141.73404M198.42766 141.73404"/>
<path transform="matrix(1.00002,0,0,-1.00002,28.308266,155.09186)" stroke-width=".79701" stroke-linecap="butt" stroke-miterlimit="10" stroke-linejoin="miter" fill="none" stroke="#000000" d="M0 0H197.63065"/>
<path transform="matrix(1.00002,0,0,-1.00002,226.3414,155.09186)" stroke-width=".79701" stroke-linecap="round" stroke-linejoin="round" fill="none" stroke="#000000" d="M-2.55046 3.11095C-2.0845 1.24435-1.04614 .36295 0 0-1.04614-.36295-2.0845-1.24435-2.55046-3.11095"/>
<path transform="matrix(1.00002,0,0,-1.00002,28.308266,155.09186)" stroke-width=".79701" stroke-linecap="butt" stroke-miterlimit="10" stroke-linejoin="miter" fill="none" stroke="#000000" d="M0 0V140.93703"/>
<path transform="matrix(0,-1.00002,-1.00002,-0,28.308266,13.753479)" stroke-width=".79701" stroke-linecap="round" stroke-linejoin="round" fill="none" stroke="#000000" d="M-2.55046 3.11095C-2.0845 1.24435-1.04614 .36295 0 0-1.04614-.36295-2.0845-1.24435-2.55046-3.11095"/>
<use data-text="4" xlink:href="#font_1_57" transform="matrix(9.962799,0,0,-9.962799,51.673734,165.35706)"/>
<use data-text="0" xlink:href="#font_1_121" transform="matrix(9.962799,0,0,-9.962799,56.65514,165.35706)"/>
<use data-text="5" xlink:href="#font_1_56" transform="matrix(9.962799,0,0,-9.962799,80.0213,165.24706)"/>
<use data-text="0" xlink:href="#font_1_121" transform="matrix(9.962799,0,0,-9.962799,85.00271,165.24706)"/>
<use data-text="5" xlink:href="#font_1_56" transform="matrix(9.962799,0,0,-9.962799,108.368869,165.24706)"/>
<use data-text="5" xlink:href="#font_1_56" transform="matrix(9.962799,0,0,-9.962799,113.35027,165.24706)"/>
<use data-text="6" xlink:href="#font_1_101" transform="matrix(9.962799,0,0,-9.962799,136.71643,165.24706)"/>
<use data-text="5" xlink:href="#font_1_56" transform="matrix(9.962799,0,0,-9.962799,141.69785,165.24706)"/>
<use data-text="8" xlink:href="#font_1_51" transform="matrix(9.962799,0,0,-9.962799,165.064,165.24706)"/>
<use data-text="0" xlink:href="#font_1_121" transform="matrix(9.962799,0,0,-9.962799,170.04541,165.24706)"/>
<use data-text="9" xlink:href="#font_1_78" transform="matrix(9.962799,0,0,-9.962799,193.41059,165.24706)"/>
<use data-text="0" xlink:href="#font_1_121" transform="matrix(9.962799,0,0,-9.962799,198.39199,165.24706)"/>
<use data-text="0" xlink:href="#font_2_121" transform="matrix(8.966579,0,0,-8.966579,20.1791,157.97891)"/>
<use data-text="1" xlink:href="#font_2_82" transform="matrix(8.966579,0,0,-8.966579,13.005959,129.63135)"/>
<use data-text="." xlink:href="#font_2_88" transform="matrix(8.966579,0,0,-8.966579,17.614785,129.63135)"/>
<use data-text="0" xlink:href="#font_2_121" transform="matrix(8.966579,0,0,-8.966579,20.179223,129.63135)"/>
<use data-text="2" xlink:href="#font_2_107" transform="matrix(8.966579,0,0,-8.966579,13.005959,101.28478)"/>
<use data-text="." xlink:href="#font_2_88" transform="matrix(8.966579,0,0,-8.966579,17.614785,101.28478)"/>
<use data-text="0" xlink:href="#font_2_121" transform="matrix(8.966579,0,0,-8.966579,20.179223,101.28478)"/>
<use data-text="3" xlink:href="#font_2_106" transform="matrix(8.966579,0,0,-8.966579,13.005959,72.93721)"/>
<use data-text="." xlink:href="#font_2_88" transform="matrix(8.966579,0,0,-8.966579,17.614785,72.93721)"/>
<use data-text="0" xlink:href="#font_2_121" transform="matrix(8.966579,0,0,-8.966579,20.179223,72.93721)"/>
<use data-text="4" xlink:href="#font_2_57" transform="matrix(8.966579,0,0,-8.966579,13.005959,44.63865)"/>
<use data-text="." xlink:href="#font_2_88" transform="matrix(8.966579,0,0,-8.966579,17.614785,44.63865)"/>
<use data-text="0" xlink:href="#font_2_121" transform="matrix(8.966579,0,0,-8.966579,20.179223,44.63865)"/>
<use data-text="5" xlink:href="#font_2_56" transform="matrix(8.966579,0,0,-8.966579,13.005959,16.24208)"/>
<use data-text="." xlink:href="#font_2_88" transform="matrix(8.966579,0,0,-8.966579,17.614785,16.24208)"/>
<use data-text="0" xlink:href="#font_2_121" transform="matrix(8.966579,0,0,-8.966579,20.179223,16.24208)"/>
<path transform="matrix(1.00002,0,0,-1.00002,28.308266,155.09186)" d="M28.3468 0V22.67752H56.69362V0ZM56.69362 22.67752" fill="#6666ff"/>
<path transform="matrix(1.00002,0,0,-1.00002,28.308266,155.09186)" stroke-width=".79701" stroke-linecap="butt" stroke-miterlimit="10" stroke-linejoin="miter" fill="none" stroke="#000000" d="M28.3468 0V22.67752H56.69362V0ZM56.69362 22.67752"/>
<path transform="matrix(1.00002,0,0,-1.00002,28.308266,155.09186)" d="M56.69362 0V68.03217H70.867V0ZM70.867 68.03217" fill="#6666ff"/>
<path transform="matrix(1.00002,0,0,-1.00002,28.308266,155.09186)" stroke-width=".79701" stroke-linecap="butt" stroke-miterlimit="10" stroke-linejoin="miter" fill="none" stroke="#000000" d="M56.69362 0V68.03217H70.867V0ZM70.867 68.03217"/>
<path transform="matrix(1.00002,0,0,-1.00002,28.308266,155.09186)" d="M70.867 0V42.5202H113.38724V0ZM113.38724 42.5202" fill="#6666ff"/>
<path transform="matrix(1.00002,0,0,-1.00002,28.308266,155.09186)" stroke-width=".79701" stroke-linecap="butt" stroke-miterlimit="10" stroke-linejoin="miter" fill="none" stroke="#000000" d="M70.867 0V42.5202H113.38724V0ZM113.38724 42.5202"/>
<path transform="matrix(1.00002,0,0,-1.00002,28.308266,155.09186)" d="M113.38724 0V18.9923H155.90744V0ZM155.90744 18.9923" fill="#6666ff"/>
<path transform="matrix(1.00002,0,0,-1.00002,28.308266,155.09186)" stroke-width=".79701" stroke-linecap="butt" stroke-miterlimit="10" stroke-linejoin="miter" fill="none" stroke="#000000" d="M113.38724 0V18.9923H155.90744V0ZM155.90744 18.9923"/>
<path transform="matrix(1.00002,0,0,-1.00002,28.308266,155.09186)" d="M155.90744 0V14.17339H170.08086V0ZM170.08086 14.17339" fill="#6666ff"/>
<path transform="matrix(1.00002,0,0,-1.00002,28.308266,155.09186)" stroke-width=".79701" stroke-linecap="butt" stroke-miterlimit="10" stroke-linejoin="miter" fill="none" stroke="#000000" d="M155.90744 0V14.17339H170.08086V0ZM170.08086 14.17339"/>
<path transform="matrix(1.00002,0,0,-1.00002,28.308266,155.09186)" stroke-width=".79701" stroke-linecap="butt" stroke-miterlimit="10" stroke-linejoin="miter" fill="none" stroke="#000000" d="M21.2601 0 42.5202 22.67752 63.7803 68.03217 92.1271 42.5202 134.64734 18.9923 162.99414 14.17339 177.16754 0"/>
<path transform="matrix(1.00002,0,0,-1.00002,28.308266,155.09186)" d="M44.51276 22.67752C44.51276 23.77798 43.62067 24.67007 42.5202 24.67007 41.41972 24.67007 40.52765 23.77798 40.52765 22.67752 40.52765 21.57704 41.41972 20.68497 42.5202 20.68497 43.62067 20.68497 44.51276 21.57704 44.51276 22.67752ZM42.5202 22.67752"/>
<path transform="matrix(1.00002,0,0,-1.00002,28.308266,155.09186)" d="M65.77286 68.03217C65.77286 69.13263 64.88077 70.02472 63.7803 70.02472 62.67982 70.02472 61.78775 69.13263 61.78775 68.03217 61.78775 66.93169 62.67982 66.03961 63.7803 66.03961 64.88077 66.03961 65.77286 66.93169 65.77286 68.03217ZM63.7803 68.03217"/>
<path transform="matrix(1.00002,0,0,-1.00002,28.308266,155.09186)" d="M94.11966 42.5202C94.11966 43.62067 93.22758 44.51276 92.1271 44.51276 91.02664 44.51276 90.13455 43.62067 90.13455 42.5202 90.13455 41.41972 91.02664 40.52765 92.1271 40.52765 93.22758 40.52765 94.11966 41.41972 94.11966 42.5202ZM92.1271 42.5202"/>
<path transform="matrix(1.00002,0,0,-1.00002,28.308266,155.09186)" d="M136.6399 18.9923C136.6399 20.09277 135.7478 20.98485 134.64734 20.98485 133.54686 20.98485 132.65479 20.09277 132.65479 18.9923 132.65479 17.89183 133.54686 16.99974 134.64734 16.99974 135.7478 16.99974 136.6399 17.89183 136.6399 18.9923ZM134.64734 18.9923"/>
<path transform="matrix(1.00002,0,0,-1.00002,28.308266,155.09186)" d="M164.9867 14.17339C164.9867 15.27386 164.09462 16.16594 162.99414 16.16594 161.89368 16.16594 161.00159 15.27386 161.00159 14.17339 161.00159 13.07292 161.89368 12.18083 162.99414 12.18083 164.09462 12.18083 164.9867 13.07292 164.9867 14.17339ZM162.99414 14.17339"/>
<use data-text="W" xlink:href="#font_3_113" transform="matrix(9.962799,0,0,-9.962799,97.500659,180.25736)"/>
<use data-text="e" xlink:href="#font_3_50" transform="matrix(9.962799,0,0,-9.962799,108.39,180.25736)"/>
<use data-text="i" xlink:href="#font_3_66" transform="matrix(9.962799,0,0,-9.962799,113.6404,180.25736)"/>
<use data-text="g" xlink:href="#font_3_59" transform="matrix(9.962799,0,0,-9.962799,116.818538,180.25736)"/>
<use data-text="h" xlink:href="#font_3_63" transform="matrix(9.962799,0,0,-9.962799,122.54716,180.25736)"/>
<use data-text="t" xlink:href="#font_3_105" transform="matrix(9.962799,0,0,-9.962799,128.59458,180.25736)"/>
<use data-text="(" xlink:href="#font_3_85" transform="matrix(9.962799,0,0,-9.962799,136.85373,180.25736)"/>
<use data-text="k" xlink:href="#font_3_70" transform="matrix(9.962799,0,0,-9.962799,141.3071,180.25736)"/>
<use data-text="g" xlink:href="#font_3_59" transform="matrix(9.962799,0,0,-9.962799,147.35453,180.25736)"/>
<use data-text=")" xlink:href="#font_3_86" transform="matrix(9.962799,0,0,-9.962799,153.08313,180.25736)"/>
<use data-text="F" xlink:href="#font_3_54" transform="matrix(0,-9.962799,-9.962799,-0,8.050858,130.9744)"/>
<use data-text="r" xlink:href="#font_3_96" transform="matrix(0,-9.962799,-9.962799,-0,8.050858,124.71775)"/>
<use data-text="e" xlink:href="#font_3_50" transform="matrix(0,-9.962799,-9.962799,-0,8.050858,119.995388)"/>
<use data-text="q" xlink:href="#font_3_91" transform="matrix(0,-9.962799,-9.962799,-0,8.050858,114.74498)"/>
<use data-text="u" xlink:href="#font_3_109" transform="matrix(0,-9.962799,-9.962799,-0,8.050858,108.697559)"/>
<use data-text="e" xlink:href="#font_3_50" transform="matrix(0,-9.962799,-9.962799,-0,8.050858,102.33133)"/>
<use data-text="n" xlink:href="#font_3_77" transform="matrix(0,-9.962799,-9.962799,-0,8.050858,97.08093)"/>
<use data-text="c" xlink:href="#font_3_43" transform="matrix(0,-9.962799,-9.962799,-0,8.050858,90.71469)"/>
<use data-text="y" xlink:href="#font_3_118" transform="matrix(0,-9.962799,-9.962799,-0,8.050858,85.6237)"/>
<use data-text="D" xlink:href="#font_3_46" transform="matrix(0,-9.962799,-9.962799,-0,8.050858,75.77049)"/>
<use data-text="e" xlink:href="#font_3_50" transform="matrix(0,-9.962799,-9.962799,-0,8.050858,66.98329)"/>
<use data-text="n" xlink:href="#font_3_77" transform="matrix(0,-9.962799,-9.962799,-0,8.050858,61.732896)"/>
<use data-text="s" xlink:href="#font_3_98" transform="matrix(0,-9.962799,-9.962799,-0,8.050858,55.36667)"/>
<use data-text="i" xlink:href="#font_3_66" transform="matrix(0,-9.962799,-9.962799,-0,8.050858,50.84355)"/>
<use data-text="t" xlink:href="#font_3_105" transform="matrix(0,-9.962799,-9.962799,-0,8.050858,47.66542)"/>
<use data-text="y" xlink:href="#font_3_118" transform="matrix(0,-9.962799,-9.962799,-0,8.050858,43.520906)"/>
<use data-text="H" xlink:href="#font_3_62" transform="matrix(9.962799,0,0,-9.962799,40.59751,7.8329164)"/>
<use data-text="i" xlink:href="#font_3_66" transform="matrix(9.962799,0,0,-9.962799,49.564035,7.8329164)"/>
<use data-text="s" xlink:href="#font_3_98" transform="matrix(9.962799,0,0,-9.962799,52.742166,7.8329164)"/>
<use data-text="t" xlink:href="#font_3_105" transform="matrix(9.962799,0,0,-9.962799,57.26529,7.8329164)"/>
<use data-text="o" xlink:href="#font_3_81" transform="matrix(9.962799,0,0,-9.962799,61.718645,7.8329164)"/>
<use data-text="g" xlink:href="#font_3_59" transform="matrix(9.962799,0,0,-9.962799,67.447269,7.8329164)"/>
<use data-text="r" xlink:href="#font_3_96" transform="matrix(9.962799,0,0,-9.962799,73.17587,7.8329164)"/>
<use data-text="a" xlink:href="#font_3_28" transform="matrix(9.962799,0,0,-9.962799,77.898258,7.8329164)"/>
<use data-text="m" xlink:href="#font_3_75" transform="matrix(9.962799,0,0,-9.962799,83.46745,7.8329164)"/>
<use data-text="a" xlink:href="#font_3_28" transform="matrix(9.962799,0,0,-9.962799,96.81761,7.8329164)"/>
<use data-text="n" xlink:href="#font_3_77" transform="matrix(9.962799,0,0,-9.962799,102.38681,7.8329164)"/>
<use data-text="d" xlink:href="#font_3_47" transform="matrix(9.962799,0,0,-9.962799,108.75304,7.8329164)"/>
<use data-text="F" xlink:href="#font_3_54" transform="matrix(9.962799,0,0,-9.962799,118.93503,7.8329164)"/>
<use data-text="r" xlink:href="#font_3_96" transform="matrix(9.962799,0,0,-9.962799,125.20163,7.8329164)"/>
<use data-text="e" xlink:href="#font_3_50" transform="matrix(9.962799,0,0,-9.962799,129.924,7.8329164)"/>
<use data-text="q" xlink:href="#font_3_91" transform="matrix(9.962799,0,0,-9.962799,135.1744,7.8329164)"/>
<use data-text="u" xlink:href="#font_3_109" transform="matrix(9.962799,0,0,-9.962799,141.22182,7.8329164)"/>
<use data-text="e" xlink:href="#font_3_50" transform="matrix(9.962799,0,0,-9.962799,147.58805,7.8329164)"/>
<use data-text="n" xlink:href="#font_3_77" transform="matrix(9.962799,0,0,-9.962799,152.83844,7.8329164)"/>
<use data-text="c" xlink:href="#font_3_43" transform="matrix(9.962799,0,0,-9.962799,159.20467,7.8329164)"/>
<use data-text="y" xlink:href="#font_3_118" transform="matrix(9.962799,0,0,-9.962799,164.29566,7.8329164)"/>
<use data-text="P" xlink:href="#font_3_83" transform="matrix(9.962799,0,0,-9.962799,174.14887,7.8329164)"/>
<use data-text="o" xlink:href="#font_3_81" transform="matrix(9.962799,0,0,-9.962799,181.68074,7.8329164)"/>
<use data-text="l" xlink:href="#font_3_72" transform="matrix(9.962799,0,0,-9.962799,187.3994,7.8329164)"/>
<use data-text="y" xlink:href="#font_3_118" transform="matrix(9.962799,0,0,-9.962799,190.57753,7.8329164)"/>
<use data-text="g" xlink:href="#font_3_59" transform="matrix(9.962799,0,0,-9.962799,196.62496,7.8329164)"/>
<use data-text="o" xlink:href="#font_3_81" transform="matrix(9.962799,0,0,-9.962799,202.35356,7.8329164)"/>
<use data-text="n" xlink:href="#font_3_77" transform="matrix(9.962799,0,0,-9.962799,208.08214,7.8329164)"/>
</svg>
