<svg xmlns="http://www.w3.org/2000/svg" xmlns:xlink="http://www.w3.org/1999/xlink" xmlns:inkscape="http://www.inkscape.org/namespaces/inkscape" version="1.1" width="153" height="181" viewBox="0 0 153 181">
<defs>
<path id="font_1_62" d="M.7509918 0V.032989503H.72898867C.6519928 .032989503 .6499939 .04399109 .6499939 .08097839V.60165408C.6499939 .63861086 .6519928 .6496124 .72898867 .6496124H.7509918V.6826172L.60398867 .6796112 .45700074 .6826172V.6496124H.47898866C.55599978 .6496124 .55799868 .63861086 .55799868 .60165408V.3718567H.23699951V.60165408C.23699951 .63861086 .23899842 .6496124 .31599427 .6496124H.33799745V.6826172L.19099427 .6796112 .04399109 .6826172V.6496124H.06599426C.14299011 .6496124 .14498902 .63861086 .14498902 .60165408V.08097839C.14498902 .04399109 .14299011 .032989503 .06599426 .032989503H.04399109V0L.19099427 .0029907227 .33799745 0V.032989503H.31599427C.23899842 .032989503 .23699951 .04399109 .23699951 .08097839V.3388672H.55799868V.08097839C.55799868 .04399109 .55599978 .032989503 .47898866 .032989503H.45700074V0L.60398867 .0029907227 .7509918 0Z"/>
<path id="font_1_104" d="M.7279968 .44877626 .70799258 .67578127H.057998659L.037994386 .44877626H.068984989C.08299255 .61776736 .10598755 .6427765 .25898744 .6427765 .27799989 .6427765 .30899049 .6427765 .31698609 .6407776 .33599855 .6367798 .33699037 .6267853 .33699037 .6017914V.081970218C.33699037 .04698181 .33699037 .032989503 .23298645 .032989503H.19499207V0C.23199463 .0029907227 .33999635 .0029907227 .3829956 .0029907227 .42599488 .0029907227 .5339966 .0029907227 .57099917 0V.032989503H.5329895C.42900086 .032989503 .42900086 .04698181 .42900086 .081970218V.6017914C.42900086 .6247864 .42900086 .6367798 .44999696 .6407776 .45899964 .6427765 .48799134 .6427765 .5069885 .6427765 .6599884 .6427765 .68299868 .61776736 .69699099 .44877626H.7279968Z"/>
<path id="font_2_1" d="M.397995 .63591006C.397995 .6660156 .394989 .6660156 .3619995 .6660156 .29100038 .6016083 .17999268 .6016083 .1599884 .6016083H.14299011V.5576172H.1599884C.18299866 .5576172 .24798584 .5606079 .30599977 .58561709V.08596802C.30599977 .054977418 .30599977 .04399109 .19999695 .04399109H.1499939V0C.20498657 .0039978029 .2939911 .0039978029 .35198976 .0039978029 .4099884 .0039978029 .49899293 .0039978029 .55400088 0V.04399109H.5039978C.397995 .04399109 .397995 .054977418 .397995 .08596802V.63591006Z"/>
<path id="font_2_2" d="M.58898928 .19296265H.5469971C.5439911 .17396546 .5339966 .11198425 .5179901 .101989749 .5099945 .09599304 .42599488 .09599304 .41099549 .09599304H.21499634C.2809906 .14497376 .35499574 .20095825 .4149933 .24093628 .5049896 .30291749 .58898928 .36090089 .58898928 .46687318 .58898928 .59495547 .46798707 .6660156 .32499696 .6660156 .18998719 .6660156 .09098816 .58795168 .09098816 .48986817 .09098816 .4378662 .1349945 .42886354 .14898682 .42886354 .17599488 .42886354 .20799256 .4468689 .20799256 .48786927 .20799256 .52386477 .18199158 .543869 .15098572 .546875 .1789856 .59194949 .23699951 .6220093 .3039856 .6220093 .40098573 .6220093 .48199464 .5639038 .48199464 .4658661 .48199464 .3818817 .42399598 .31791688 .34700013 .2529297L.102996829 .04598999C.09298706 .036987306 .09199524 .036987306 .09098816 .02999878V0H.55599978L.58898928 .19296265Z"/>
</defs>
<path transform="matrix(1,0,0,-1,5.112999,90.649)" stroke-width=".79701" stroke-linecap="butt" stroke-miterlimit="10" stroke-linejoin="miter" fill="none" stroke="#000000" d="M2.81807 0C2.81807 1.55638 1.55638 2.81807 0 2.81807-1.55638 2.81807-2.81807 1.55638-2.81807 0-2.81807-1.55638-1.55638-2.81807 0-2.81807 1.55638-2.81807 2.81807-1.55638 2.81807 0ZM0 0"/>
<path transform="matrix(1,0,0,-1,5.112999,90.649)" stroke-width=".3985" stroke-linecap="butt" stroke-miterlimit="10" stroke-linejoin="miter" fill="none" stroke="#000000" d="M75.0275-51.02408C75.0275-47.16061 71.89561-44.02873 68.03217-44.02873 64.1687-44.02873 61.03682-47.16061 61.03682-51.02408 61.03682-54.88754 64.1687-58.01942 68.03217-58.01942 71.89561-58.01942 75.0275-54.88754 75.0275-51.02408ZM68.03217-51.02408"/>
<use data-text="H" xlink:href="#font_1_62" transform="matrix(7.9701,0,0,-7.9701,69.973,144.395)"/>
<path transform="matrix(1,0,0,-1,5.112999,90.649)" stroke-width=".79701" stroke-linecap="butt" stroke-miterlimit="10" stroke-linejoin="miter" fill="none" stroke="#000000" d="M2.58453-1.93845 62.2777-46.70818"/>
<path transform="matrix(1,0,0,-1,5.112999,90.649)" stroke-width=".79701" stroke-linecap="butt" stroke-miterlimit="10" stroke-linejoin="miter" fill="none" stroke="#000000" d="M145.54453-79.37064C145.54453-74.1348 141.30016-69.89044 136.06433-69.89044 130.82849-69.89044 126.58414-74.1348 126.58414-79.37064 126.58414-84.60646 130.82849-88.85083 136.06433-88.85083 141.30016-88.85083 145.54453-84.60646 145.54453-79.37064ZM136.06433-79.37064"/>
<use data-text="H" xlink:href="#font_1_62" transform="matrix(7.9701,0,0,-7.9701,134.949,172.741)"/>
<use data-text="T" xlink:href="#font_1_104" transform="matrix(7.9701,0,0,-7.9701,141.2932,172.741)"/>
<path transform="matrix(1,0,0,-1,5.112999,90.649)" stroke-width=".79701" stroke-linecap="butt" stroke-miterlimit="10" stroke-linejoin="miter" fill="none" stroke="#000000" d="M74.68347-53.79965 127.13129-75.65309"/>
<use data-text="1" xlink:href="#font_2_1" transform="matrix(4.9813,0,0,-4.9813,104.326,160.97699)"/>
<path transform="matrix(1,0,0,-1,17.016999,89.005)" stroke-width=".3387" stroke-linecap="butt" stroke-miterlimit="10" stroke-linejoin="miter" fill="none" stroke="#000000" d="M87.309-72.906H90.699"/>
<use data-text="2" xlink:href="#font_2_2" transform="matrix(4.9813,0,0,-4.9813,104.326,166.055)"/>
<path transform="matrix(1,0,0,-1,5.112999,90.649)" stroke-width=".79701" stroke-linecap="butt" stroke-miterlimit="10" stroke-linejoin="miter" fill="none" stroke="#000000" d="M145.63477-22.67743C145.63477-17.39175 141.34999-13.10698 136.06433-13.10698 130.77866-13.10698 126.4939-17.39175 126.4939-22.67743 126.4939-27.96309 130.77866-32.24786 136.06433-32.24786 141.34999-32.24786 145.63477-27.96309 145.63477-22.67743ZM136.06433-22.67743"/>
<use data-text="H" xlink:href="#font_1_62" transform="matrix(7.9701,0,0,-7.9701,134.83301,116.048007)"/>
<use data-text="H" xlink:href="#font_1_62" transform="matrix(7.9701,0,0,-7.9701,141.1772,116.048007)"/>
<path transform="matrix(1,0,0,-1,5.112999,90.649)" stroke-width=".79701" stroke-linecap="butt" stroke-miterlimit="10" stroke-linejoin="miter" fill="none" stroke="#000000" d="M74.68347-48.24828 127.04803-26.42958"/>
<use data-text="1" xlink:href="#font_2_1" transform="matrix(4.9813,0,0,-4.9813,104.284,120.519)"/>
<path transform="matrix(1,0,0,-1,16.974999,48.547)" stroke-width=".3387" stroke-linecap="butt" stroke-miterlimit="10" stroke-linejoin="miter" fill="none" stroke="#000000" d="M87.309-72.906H90.699"/>
<use data-text="2" xlink:href="#font_2_2" transform="matrix(4.9813,0,0,-4.9813,104.284,125.597)"/>
<use data-text="1" xlink:href="#font_2_1" transform="matrix(4.9813,0,0,-4.9813,35.85,120.574008)"/>
<path transform="matrix(1,0,0,-1,-51.459,48.602)" stroke-width=".3387" stroke-linecap="butt" stroke-miterlimit="10" stroke-linejoin="miter" fill="none" stroke="#000000" d="M87.309-72.906H90.699"/>
<use data-text="2" xlink:href="#font_2_2" transform="matrix(4.9813,0,0,-4.9813,35.85,125.65201)"/>
<path transform="matrix(1,0,0,-1,5.112999,90.649)" stroke-width=".3985" stroke-linecap="butt" stroke-miterlimit="10" stroke-linejoin="miter" fill="none" stroke="#000000" d="M74.90735 51.02419C74.90735 54.82129 71.82927 57.89937 68.03217 57.89937 64.23506 57.89937 61.15697 54.82129 61.15697 51.02419 61.15697 47.22708 64.23506 44.149 68.03217 44.149 71.82927 44.149 74.90735 47.22708 74.90735 51.02419ZM68.03217 51.02419"/>
<use data-text="T" xlink:href="#font_1_104" transform="matrix(7.9701,0,0,-7.9701,70.089,42.319)"/>
<path transform="matrix(1,0,0,-1,5.112999,90.649)" stroke-width=".79701" stroke-linecap="butt" stroke-miterlimit="10" stroke-linejoin="miter" fill="none" stroke="#000000" d="M2.58453 1.93843 62.3738 46.78033"/>
<path transform="matrix(1,0,0,-1,5.112999,90.649)" stroke-width=".79701" stroke-linecap="butt" stroke-miterlimit="10" stroke-linejoin="miter" fill="none" stroke="#000000" d="M145.41124 22.67763C145.41124 27.83984 141.22653 32.02454 136.06433 32.02454 130.90212 32.02454 126.71742 27.83984 126.71742 22.67763 126.71742 17.51543 130.90212 13.33073 136.06433 13.33073 141.22653 13.33073 145.41124 17.51543 145.41124 22.67763ZM136.06433 22.67763"/>
<use data-text="T" xlink:href="#font_1_104" transform="matrix(7.9701,0,0,-7.9701,135.064,70.665)"/>
<use data-text="T" xlink:href="#font_1_104" transform="matrix(7.9701,0,0,-7.9701,141.17707,70.665)"/>
<path transform="matrix(1,0,0,-1,5.112999,90.649)" stroke-width=".79701" stroke-linecap="butt" stroke-miterlimit="10" stroke-linejoin="miter" fill="none" stroke="#000000" d="M74.57259 48.2948 127.2543 26.34392"/>
<use data-text="1" xlink:href="#font_2_1" transform="matrix(4.9813,0,0,-4.9813,104.332,58.931)"/>
<path transform="matrix(1,0,0,-1,17.023003,-13.041)" stroke-width=".3387" stroke-linecap="butt" stroke-miterlimit="10" stroke-linejoin="miter" fill="none" stroke="#000000" d="M87.309-72.906H90.699"/>
<use data-text="2" xlink:href="#font_2_2" transform="matrix(4.9813,0,0,-4.9813,104.332,64.009)"/>
<path transform="matrix(1,0,0,-1,5.112999,90.649)" stroke-width=".79701" stroke-linecap="butt" stroke-miterlimit="10" stroke-linejoin="miter" fill="none" stroke="#000000" d="M145.54453 79.37085C145.54453 84.60667 141.30016 88.85104 136.06433 88.85104 130.82849 88.85104 126.58414 84.60667 126.58414 79.37085 126.58414 74.13501 130.82849 69.89064 136.06433 69.89064 141.30016 69.89064 145.54453 74.13501 145.54453 79.37085ZM136.06433 79.37085"/>
<use data-text="T" xlink:href="#font_1_104" transform="matrix(7.9701,0,0,-7.9701,134.949,14)"/>
<use data-text="H" xlink:href="#font_1_62" transform="matrix(7.9701,0,0,-7.9701,141.06208,14)"/>
<path transform="matrix(1,0,0,-1,5.112999,90.649)" stroke-width=".79701" stroke-linecap="butt" stroke-miterlimit="10" stroke-linejoin="miter" fill="none" stroke="#000000" d="M74.57259 53.75372 127.13129 75.65335"/>
<use data-text="1" xlink:href="#font_2_1" transform="matrix(4.9813,0,0,-4.9813,104.27,18.476998)"/>
<path transform="matrix(1,0,0,-1,16.960999,-53.495004)" stroke-width=".3387" stroke-linecap="butt" stroke-miterlimit="10" stroke-linejoin="miter" fill="none" stroke="#000000" d="M87.309-72.906H90.699"/>
<use data-text="2" xlink:href="#font_2_2" transform="matrix(4.9813,0,0,-4.9813,104.27,23.555)"/>
<use data-text="1" xlink:href="#font_2_1" transform="matrix(4.9813,0,0,-4.9813,35.898,58.821)"/>
<path transform="matrix(1,0,0,-1,-51.411,-13.150999)" stroke-width=".3387" stroke-linecap="butt" stroke-miterlimit="10" stroke-linejoin="miter" fill="none" stroke="#000000" d="M87.309-72.906H90.699"/>
<use data-text="2" xlink:href="#font_2_2" transform="matrix(4.9813,0,0,-4.9813,35.898,63.899003)"/>
</svg>
