<svg xmlns="http://www.w3.org/2000/svg" xmlns:xlink="http://www.w3.org/1999/xlink" xmlns:inkscape="http://www.inkscape.org/namespaces/inkscape" version="1.1" width="96" height="192" viewBox="0 0 96 192">
<defs>
<path id="font_1_34" d="M.69200137 .18299866C.69200137 .2639923 .61499026 .34298707 .48999024 .35699464 .598999 .379776 .6619873 .44573976 .6619873 .51368716 .6619873 .6026306 .56199648 .6826172 .42799378 .6826172H.04798889V.6496124H.069992069C.14698792 .6496124 .14898682 .63861086 .14898682 .6016388V.080963138C.14898682 .04399109 .14698792 .032989503 .069992069 .032989503H.04798889V0H.45599366C.59399417-.00018310547 .69200137 .08781433 .69200137 .18281555V.18299866M.5649872 .5137024C.5649872 .445755 .5049896 .3688202 .3909912 .3688202H.23399353V.6086426C.23399353 .64260867 .23599243 .6496124 .28199769 .6496124H.42099C.519989 .6498108 .5649872 .57281497 .5649872 .5138092V.5137024M.59098818 .18389893C.59098818 .10295105 .5239868 .032989503 .42199708 .032989503H.28199769C.23599243 .032989503 .23399353 .039993287 .23399353 .07397461V.3408203H.43699647C.5339966 .34098817 .59098818 .2630005 .59098818 .18399048V.18389893Z"/>
<path id="font_1_67" d="M.48799134 .6496124V.6826172C.43699647 .6796112 .40899659 .6796112 .35299684 .6796112 .30899049 .6796112 .23298645 .6796112 .19198609 .6826172V.6496124H.22599793C.31999208 .6496124 .32299806 .63760378 .32299806 .6006012V.14859009C.32299806 .05657959 .2689972 .006515503 .21598816 .006515503 .17298889 .006515503 .1269989 .026535035 .10398865 .05758667 .13198853 .05859375 .1619873 .07559204 .1619873 .113586429 .1619873 .14859009 .1349945 .1685791 .10699463 .1685791 .085998538 .1685791 .051986696 .15458679 .051986696 .111587528 .051986696 .03755188 .125-.021484375 .21899414-.021484375 .31098939-.021484375 .4119873 .03855896 .4119873 .14859009V.60461428C.4119873 .6496124 .42399598 .6496124 .48799134 .6496124Z"/>
<path id="font_1_97" d="M.5299988 .18458557C.5299988 .2716217 .47299195 .36065675 .37098695 .38467408L.23298645 .416687C.16899109 .4316864 .12199402 .4827118 .12199402 .5437927 .12199402 .61094668 .17999268 .6740875 .2669983 .6740875 .43998719 .6740875 .46299745 .51171877 .46798707 .4737091 .46998597 .46270753 .47099305 .45570375 .48399354 .45570375 .5 .45570375 .5 .46270753 .5 .4817047V.6781006C.5 .6940918 .5 .70410159 .4869995 .70410159 .47898866 .70410159 .47698976 .7010956 .46998597 .690094L.43499757 .6340027C.3849945 .6890869 .32099916 .70410159 .2659912 .70410159 .14698792 .70410159 .05899048 .61395266 .05899048 .51171877 .05899048 .43569947 .101989749 .39367677 .12098694 .3746643 .15699768 .33865357 .18998719 .3306427 .2979889 .30563355 .38398744 .28562928 .39898683 .2826233 .43199159 .24760437 .44198609 .23660279 .46699525 .20259094 .46699525 .15356446 .46699525 .08453369 .4139862 .011505127 .31999208 .011505127 .20999146 .011505127 .09599304 .06452942 .08999634 .20359802 .08898926 .21960449 .08898926 .22660828 .07499695 .22660828 .05899048 .22660828 .05899048 .21859741 .05899048 .19958496V.004501343C.05899048-.011489868 .05899048-.021484375 .07199097-.021484375 .07998657-.021484375 .08099365-.019485474 .08799744-.009490967 .09199524-.0034942628 .09599304 .005508423 .12399292 .047531129 .18699646-.0084991459 .26098634-.021484375 .32099916-.021484375 .44599916-.021484375 .5299988 .07752991 .5299988 .18458557Z"/>
<path id="font_2_1" d="M.397995 .63591006C.397995 .6660156 .394989 .6660156 .3619995 .6660156 .29100038 .6016083 .17999268 .6016083 .1599884 .6016083H.14299011V.5576172H.1599884C.18299866 .5576172 .24798584 .5606079 .30599977 .58561709V.08596802C.30599977 .054977418 .30599977 .04399109 .19999695 .04399109H.1499939V0C.20498657 .0039978029 .2939911 .0039978029 .35198976 .0039978029 .4099884 .0039978029 .49899293 .0039978029 .55400088 0V.04399109H.5039978C.397995 .04399109 .397995 .054977418 .397995 .08596802V.63591006Z"/>
<path id="font_2_3" d="M.32998658 .3310547C.42199708 .3310547 .48298646 .2737732 .48298646 .17437744 .48298646 .07237244 .41999818 .01852417 .33099366 .01852417 .31999208 .01852417 .20098877 .01852417 .1499939 .070373538 .19099427 .07637024 .20298767 .1073761 .20298767 .13137818 .20298767 .16838074 .1749878 .19238281 .14199829 .19238281 .10998535 .19238281 .07998657 .17137146 .07998657 .12937927 .07998657 .025512696 .19799805-.022460938 .33399964-.022460938 .49798585-.022460938 .59999087 .07637024 .59999087 .17337036 .59999087 .25567628 .5269928 .3260193 .41299439 .35205079 .5329895 .3909912 .5649872 .46684266 .5649872 .5228424 .5649872 .60491946 .46299745 .6660156 .33699037 .6660156 .21398926 .6660156 .114990238 .61395266 .114990238 .5238342 .114990238 .47683717 .15299988 .46484376 .17199707 .46484376 .20098877 .46484376 .22898865 .48583985 .22898865 .5218353 .22898865 .5448303 .21699524 .5728302 .18099976 .57884219 .22399903 .625 .31298829 .628006 .33399964 .628006 .40699769 .628006 .45899964 .5908661 .45899964 .5228424 .45899964 .46484376 .42099 .37402345 .31599427 .368042 .28799439 .3670349 .28399659 .3660431 .2579956 .365036 .24699402 .3640442 .23599243 .36305238 .23599243 .34805299 .23599243 .3310547 .24598694 .3310547 .2639923 .3310547H.32998658Z"/>
<path id="font_1_27" d="M.7589874 0V.032989503H.74198916C.67900088 .032989503 .6689911 .04197693 .6569977 .07392883L.4229889 .69184878C.41799928 .7048645 .4149933 .7138672 .397995 .7138672 .37998963 .7138672 .3769989 .7058563 .37199403 .69184878L.14898682 .102890018C.13899231 .075927738 .117996219 .032989503 .035995485 .032989503V0C.067993167 .0029907227 .12098694 .0029907227 .13899231 .0029907227 .17098999 .0029907227 .20098877 .0029907227 .25 0V.032989503C.20599365 .033996583 .17999268 .053955079 .17999268 .08291626 .17999268 .089904788 .17999268 .09190369 .18499756 .103897098L.23199463 .22871399H.5039978L.55999758 .08091736C.5649872 .06893921 .5649872 .062942508 .5649872 .062942508 .5649872 .032989503 .5130005 .032989503 .4850006 .032989503V0L.6269989 .0029907227C.68299868 .0029907227 .70098879 .0029907227 .7589874 0M.4909973 .26171876H.24398804L.36799623 .5888214 .4909973 .26171876Z"/>
<path id="font_1_42" d="M.70700076 .23370362C.70700076 .24371338 .70700076 .25273133 .69099429 .25273133 .6799927 .25273133 .6769867 .24772644 .6759949 .23771668 .66799929 .08357239 .5439911 .011505127 .43798829 .011505127 .35299684 .011505127 .16299439 .06355286 .16299439 .34179688 .16299439 .6110382 .34298707 .6710968 .43798829 .6710968 .5319977 .6710968 .647995 .6040344 .673996 .43188478 .6749878 .4238739 .6759949 .41687013 .6899872 .41687013 .70700076 .41687013 .70700076 .4238739 .70700076 .4429016V.6781006C.70700076 .6940918 .70700076 .70410159 .69400027 .70410159 .68699648 .70410159 .6859894 .7030945 .6769867 .690094L.6259918 .6160431C.58999636 .65509036 .5239868 .70410159 .42799378 .70410159 .22698975 .70410159 .05899048 .542984 .05899048 .34179688 .05899048 .13961792 .22599793-.021484375 .42900086-.021484375 .5970001-.021484375 .70700076 .11160278 .70700076 .23370362Z"/>
<path id="font_1_63" d="M.56199648 0V.032989503C.49798585 .032989503 .48599244 .032989503 .48599244 .07814026V.30371095C.48599244 .38746644 .44799806 .44140626 .34298707 .44140626 .25498963 .44140626 .20899964 .3854828 .19099427 .3535614H.18998719V.69433596L.040985109 .6826172V.6496124C.10899353 .6496124 .116989139 .64263918 .116989139 .5938263V.07814026C.116989139 .032989503 .10499573 .032989503 .040985109 .032989503V0C.083999637 .0029907227 .12799073 .0029907227 .15499878 .0029907227 .18399048 .0029907227 .22599793 .0029907227 .2689972 0V.032989503C.20498657 .032989503 .19299317 .032989503 .19299317 .07814026V.2597046C.19299317 .36453248 .272995 .4133911 .33399964 .4133911 .394989 .4133911 .4099884 .37051393 .4099884 .30769349V.07814026C.4099884 .032989503 .397995 .032989503 .33399964 .032989503V0C.3769989 .0029907227 .42099 .0029907227 .44799806 .0029907227 .47698976 .0029907227 .5189972 .0029907227 .56199648 0Z"/>
<path id="font_2_2" d="M.58898928 .19296265H.5469971C.5439911 .17396546 .5339966 .11198425 .5179901 .101989749 .5099945 .09599304 .42599488 .09599304 .41099549 .09599304H.21499634C.2809906 .14497376 .35499574 .20095825 .4149933 .24093628 .5049896 .30291749 .58898928 .36090089 .58898928 .46687318 .58898928 .59495547 .46798707 .6660156 .32499696 .6660156 .18998719 .6660156 .09098816 .58795168 .09098816 .48986817 .09098816 .4378662 .1349945 .42886354 .14898682 .42886354 .17599488 .42886354 .20799256 .4468689 .20799256 .48786927 .20799256 .52386477 .18199158 .543869 .15098572 .546875 .1789856 .59194949 .23699951 .6220093 .3039856 .6220093 .40098573 .6220093 .48199464 .5639038 .48199464 .4658661 .48199464 .3818817 .42399598 .31791688 .34700013 .2529297L.102996829 .04598999C.09298706 .036987306 .09199524 .036987306 .09098816 .02999878V0H.55599978L.58898928 .19296265Z"/>
</defs>
<path transform="matrix(1.00005,0,0,-1.00005,5.113304,96.22)" stroke-width=".79701" stroke-linecap="butt" stroke-miterlimit="10" stroke-linejoin="miter" fill="none" stroke="#000000" d="M2.81807 0C2.81807 1.55638 1.55638 2.81807 0 2.81807-1.55638 2.81807-2.81807 1.55638-2.81807 0-2.81807-1.55638-1.55638-2.81807 0-2.81807 1.55638-2.81807 2.81807-1.55638 2.81807 0ZM0 0"/>
<path transform="matrix(1.00005,0,0,-1.00005,5.113304,96.22)" stroke-width=".3985" stroke-linecap="butt" stroke-miterlimit="10" stroke-linejoin="miter" fill="none" stroke="#000000" d="M40.88344-68.0322C40.88344-64.23965 37.80905-61.16527 34.01651-61.16527 30.22398-61.16527 27.1496-64.23965 27.1496-68.0322 27.1496-71.82472 30.22398-74.89911 34.01651-74.89911 37.80905-74.89911 40.88344-71.82472 40.88344-68.0322ZM34.01651-68.0322"/>
<use data-text="B" xlink:href="#font_1_34" transform="matrix(7.970498,0,0,-7.970498,36.134855,166.97754)"/>
<path transform="matrix(1.00005,0,0,-1.00005,5.113304,96.22)" stroke-width=".79701" stroke-linecap="butt" stroke-miterlimit="10" stroke-linejoin="miter" fill="none" stroke="#000000" d="M1.43846-2.87682 30.85669-61.71245"/>
<path transform="matrix(1.00005,0,0,-1.00005,5.113304,96.22)" stroke-width=".79701" stroke-linecap="butt" stroke-miterlimit="10" stroke-linejoin="miter" fill="none" stroke="#000000" d="M88.53777-87.8749C88.53777-84.37816 85.70317-81.54358 82.20644-81.54358 78.70972-81.54358 75.87512-84.37816 75.87512-87.8749 75.87512-91.37163 78.70972-94.2062 82.20644-94.2062 85.70317-94.2062 88.53777-91.37163 88.53777-87.8749ZM82.20644-87.8749"/>
<use data-text="J" xlink:href="#font_1_67" transform="matrix(7.970498,0,0,-7.970498,85.1483,186.73752)"/>
<path transform="matrix(1.00005,0,0,-1.00005,5.113304,96.22)" stroke-width=".79701" stroke-linecap="butt" stroke-miterlimit="10" stroke-linejoin="miter" fill="none" stroke="#000000" d="M40.55002-70.72243 76.16814-85.38857"/>
<path transform="matrix(1.00005,0,0,-1.00005,5.113304,96.22)" stroke-width=".79701" stroke-linecap="butt" stroke-miterlimit="10" stroke-linejoin="miter" fill="none" stroke="#000000" d="M88.74937-48.18948C88.74937-44.57588 85.82004-41.64656 82.20644-41.64656 78.59283-41.64656 75.66351-44.57588 75.66351-48.18948 75.66351-51.80309 78.59283-54.73242 82.20644-54.73242 85.82004-54.73242 88.74937-51.80309 88.74937-48.18948ZM82.20644-48.18948"/>
<use data-text="S" xlink:href="#font_1_97" transform="matrix(7.970498,0,0,-7.970498,84.9723,147.13355)"/>
<path transform="matrix(1.00005,0,0,-1.00005,5.113304,96.22)" stroke-width=".79701" stroke-linecap="butt" stroke-miterlimit="10" stroke-linejoin="miter" fill="none" stroke="#000000" d="M40.55002-65.34195 75.97246-50.75636"/>
<use data-text="1" xlink:href="#font_2_1" transform="matrix(4.981549,0,0,-4.981549,19.567025,134.1169)"/>
<path transform="matrix(1.00005,0,0,-1.00005,-67.74634,56.566026)" stroke-width=".3387" stroke-linecap="butt" stroke-miterlimit="10" stroke-linejoin="miter" fill="none" stroke="#000000" d="M87.309-78.481H90.699"/>
<use data-text="3" xlink:href="#font_2_3" transform="matrix(4.981549,0,0,-4.981549,19.567025,139.19516)"/>
<path transform="matrix(1.00005,0,0,-1.00005,5.113304,96.22)" stroke-width=".3985" stroke-linecap="butt" stroke-miterlimit="10" stroke-linejoin="miter" fill="none" stroke="#000000" d="M41.08678 0C41.08678 3.90483 37.92136 7.07025 34.01651 7.07025 30.11168 7.07025 26.94626 3.90483 26.94626 0 26.94626-3.90483 30.11168-7.07025 34.01651-7.07025 37.92136-7.07025 41.08678-3.90483 41.08678 0ZM34.01651 0"/>
<use data-text="A" xlink:href="#font_1_27" transform="matrix(7.970498,0,0,-7.970498,35.958848,99.06514)"/>
<path transform="matrix(1.00005,0,0,-1.00005,5.113304,96.22)" stroke-width=".79701" stroke-linecap="butt" stroke-miterlimit="10" stroke-linejoin="miter" fill="none" stroke="#000000" d="M3.21658 0H26.747"/>
<path transform="matrix(1.00005,0,0,-1.00005,5.113304,96.22)" stroke-width=".79701" stroke-linecap="butt" stroke-miterlimit="10" stroke-linejoin="miter" fill="none" stroke="#000000" d="M88.53777-19.8427C88.53777-16.34596 85.70317-13.51137 82.20644-13.51137 78.70972-13.51137 75.87512-16.34596 75.87512-19.8427 75.87512-23.33942 78.70972-26.17401 82.20644-26.17401 85.70317-26.17401 88.53777-23.33942 88.53777-19.8427ZM82.20644-19.8427"/>
<use data-text="J" xlink:href="#font_1_67" transform="matrix(7.970498,0,0,-7.970498,85.1483,118.702129)"/>
<path transform="matrix(1.00005,0,0,-1.00005,5.113304,96.22)" stroke-width=".79701" stroke-linecap="butt" stroke-miterlimit="10" stroke-linejoin="miter" fill="none" stroke="#000000" d="M40.73804-2.76764 76.16814-17.35637"/>
<path transform="matrix(1.00005,0,0,-1.00005,5.113304,96.22)" stroke-width=".79701" stroke-linecap="butt" stroke-miterlimit="10" stroke-linejoin="miter" fill="none" stroke="#000000" d="M88.74937 19.8427C88.74937 23.4563 85.82004 26.38562 82.20644 26.38562 78.59283 26.38562 75.66351 23.4563 75.66351 19.8427 75.66351 16.2291 78.59283 13.29976 82.20644 13.29976 85.82004 13.29976 88.74937 16.2291 88.74937 19.8427ZM82.20644 19.8427"/>
<use data-text="S" xlink:href="#font_1_97" transform="matrix(7.970498,0,0,-7.970498,84.9723,79.098148)"/>
<path transform="matrix(1.00005,0,0,-1.00005,5.113304,96.22)" stroke-width=".79701" stroke-linecap="butt" stroke-miterlimit="10" stroke-linejoin="miter" fill="none" stroke="#000000" d="M40.73804 2.76764 75.97246 17.27579"/>
<use data-text="1" xlink:href="#font_2_1" transform="matrix(4.981549,0,0,-4.981549,18.40097,88.74963)"/>
<path transform="matrix(1.00005,0,0,-1.00005,-68.91239,11.198758)" stroke-width=".3387" stroke-linecap="butt" stroke-miterlimit="10" stroke-linejoin="miter" fill="none" stroke="#000000" d="M87.309-78.481H90.699"/>
<use data-text="3" xlink:href="#font_2_3" transform="matrix(4.981549,0,0,-4.981549,18.40097,93.82789)"/>
<path transform="matrix(1.00005,0,0,-1.00005,5.113304,96.22)" stroke-width=".3985" stroke-linecap="butt" stroke-miterlimit="10" stroke-linejoin="miter" fill="none" stroke="#000000" d="M42.86917 68.0322C42.86917 72.92143 38.90576 76.88484 34.01651 76.88484 29.12727 76.88484 25.16386 72.92143 25.16386 68.0322 25.16386 63.14294 29.12727 59.17953 34.01651 59.17953 38.90576 59.17953 42.86917 63.14294 42.86917 68.0322ZM34.01651 68.0322"/>
<use data-text="C" xlink:href="#font_1_42" transform="matrix(7.970498,0,0,-7.970498,33.723733,30.906739)"/>
<use data-text="h" xlink:href="#font_1_63" transform="matrix(7.970498,0,0,-7.970498,39.837106,30.906739)"/>
<path transform="matrix(1.00005,0,0,-1.00005,5.113304,96.22)" stroke-width=".79701" stroke-linecap="butt" stroke-miterlimit="10" stroke-linejoin="miter" fill="none" stroke="#000000" d="M1.43846 2.87682 29.96875 59.9365"/>
<path transform="matrix(1.00005,0,0,-1.00005,5.113304,96.22)" stroke-width=".79701" stroke-linecap="butt" stroke-miterlimit="10" stroke-linejoin="miter" fill="none" stroke="#000000" d="M88.53777 48.18948C88.53777 51.68622 85.70317 54.52081 82.20644 54.52081 78.70972 54.52081 75.87512 51.68622 75.87512 48.18948 75.87512 44.69276 78.70972 41.85817 82.20644 41.85817 85.70317 41.85817 88.53777 44.69276 88.53777 48.18948ZM82.20644 48.18948"/>
<use data-text="J" xlink:href="#font_1_67" transform="matrix(7.970498,0,0,-7.970498,85.1483,50.66673)"/>
<path transform="matrix(1.00005,0,0,-1.00005,5.113304,96.22)" stroke-width=".79701" stroke-linecap="butt" stroke-miterlimit="10" stroke-linejoin="miter" fill="none" stroke="#000000" d="M42.3861 64.58594 76.16814 50.67581"/>
<path transform="matrix(1.00005,0,0,-1.00005,5.113304,96.22)" stroke-width=".79701" stroke-linecap="butt" stroke-miterlimit="10" stroke-linejoin="miter" fill="none" stroke="#000000" d="M88.74937 87.8749C88.74937 91.4885 85.82004 94.41782 82.20644 94.41782 78.59283 94.41782 75.66351 91.4885 75.66351 87.8749 75.66351 84.26129 78.59283 81.33195 82.20644 81.33195 85.82004 81.33195 88.74937 84.26129 88.74937 87.8749ZM82.20644 87.8749"/>
<use data-text="S" xlink:href="#font_1_97" transform="matrix(7.970498,0,0,-7.970498,84.9723,11.062752)"/>
<path transform="matrix(1.00005,0,0,-1.00005,5.113304,96.22)" stroke-width=".79701" stroke-linecap="butt" stroke-miterlimit="10" stroke-linejoin="miter" fill="none" stroke="#000000" d="M42.3861 71.47845 75.97246 85.308"/>
<use data-text="1" xlink:href="#font_2_1" transform="matrix(4.981549,0,0,-4.981549,19.123002,57.34206)"/>
<path transform="matrix(1.00005,0,0,-1.00005,-68.19036,-20.208813)" stroke-width=".3387" stroke-linecap="butt" stroke-miterlimit="10" stroke-linejoin="miter" fill="none" stroke="#000000" d="M87.309-78.481H90.699"/>
<use data-text="3" xlink:href="#font_2_3" transform="matrix(4.981549,0,0,-4.981549,19.123002,62.420316)"/>
<use data-text="1" xlink:href="#font_2_1" transform="matrix(4.981549,0,0,-4.981549,61.780134,179.68119)"/>
<path transform="matrix(1.00005,0,0,-1.00005,-25.53323,102.1303)" stroke-width=".3387" stroke-linecap="butt" stroke-miterlimit="10" stroke-linejoin="miter" fill="none" stroke="#000000" d="M87.309-78.481H90.699"/>
<use data-text="2" xlink:href="#font_2_2" transform="matrix(4.981549,0,0,-4.981549,61.780134,184.75943)"/>
<use data-text="1" xlink:href="#font_2_1" transform="matrix(4.981549,0,0,-4.981549,61.68313,147.00154)"/>
<path transform="matrix(1.00005,0,0,-1.00005,-25.630234,69.45067)" stroke-width=".3387" stroke-linecap="butt" stroke-miterlimit="10" stroke-linejoin="miter" fill="none" stroke="#000000" d="M87.309-78.481H90.699"/>
<use data-text="2" xlink:href="#font_2_2" transform="matrix(4.981549,0,0,-4.981549,61.68313,152.0798)"/>
<use data-text="1" xlink:href="#font_2_1" transform="matrix(4.981549,0,0,-4.981549,61.87414,111.68378)"/>
<path transform="matrix(1.00005,0,0,-1.00005,-25.43922,34.132905)" stroke-width=".3387" stroke-linecap="butt" stroke-miterlimit="10" stroke-linejoin="miter" fill="none" stroke="#000000" d="M87.309-78.481H90.699"/>
<use data-text="2" xlink:href="#font_2_2" transform="matrix(4.981549,0,0,-4.981549,61.87414,116.76203)"/>
<use data-text="1" xlink:href="#font_2_1" transform="matrix(4.981549,0,0,-4.981549,61.777135,78.92714)"/>
<path transform="matrix(1.00005,0,0,-1.00005,-25.536229,1.3762674)" stroke-width=".3387" stroke-linecap="butt" stroke-miterlimit="10" stroke-linejoin="miter" fill="none" stroke="#000000" d="M87.309-78.481H90.699"/>
<use data-text="2" xlink:href="#font_2_2" transform="matrix(4.981549,0,0,-4.981549,61.777135,84.005397)"/>
<use data-text="1" xlink:href="#font_2_1" transform="matrix(4.981549,0,0,-4.981549,62.69818,43.987398)"/>
<path transform="matrix(1.00005,0,0,-1.00005,-24.615181,-33.563478)" stroke-width=".3387" stroke-linecap="butt" stroke-miterlimit="10" stroke-linejoin="miter" fill="none" stroke="#000000" d="M87.309-78.481H90.699"/>
<use data-text="2" xlink:href="#font_2_2" transform="matrix(4.981549,0,0,-4.981549,62.69818,49.06565)"/>
<use data-text="1" xlink:href="#font_2_1" transform="matrix(4.981549,0,0,-4.981549,62.601179,10.551727)"/>
<path transform="matrix(1.00005,0,0,-1.00005,-24.712185,-66.999149)" stroke-width=".3387" stroke-linecap="butt" stroke-miterlimit="10" stroke-linejoin="miter" fill="none" stroke="#000000" d="M87.309-78.481H90.699"/>
<use data-text="2" xlink:href="#font_2_2" transform="matrix(4.981549,0,0,-4.981549,62.601179,15.629982)"/>
</svg>
