<svg xmlns="http://www.w3.org/2000/svg" xmlns:xlink="http://www.w3.org/1999/xlink" xmlns:inkscape="http://www.inkscape.org/namespaces/inkscape" version="1.1" width="237" height="244" viewBox="0 0 237 244">
<defs>
<path id="font_1_113" d="M1.2890015 .62953189V.6855469C1.2519989 .6825409 1.2159882 .6815338 1.1790009 .6815338L1.0319977 .6855469V.62953189H1.0499878C1.0569916 .62953189 1.1299896 .62953189 1.1299896 .6215515 1.1299896 .61854556 1.1269989 .6125641 1.1259918 .6095581L.94299319 .16706848 .7509918 .62953189H.84298709V.6855469C.7899933 .6815338 .71598818 .6815338 .6619873 .6815338L.5079956 .6855469V.62953189H.59498599L.6269989 .55262759 .46699525 .16706848 .27598573 .62953189H.36698915V.6855469L.18699646 .6815338 .032989503 .6855469V.62953189H.11999512L.37399293 .017242432C.38398744-.0057373049 .3889923-.01171875 .4229889-.01171875 .45199586-.01171875 .46099855-.010726929 .47299195 .017242432L.6609955 .47071839 .84799197 .017242432C.8600006-.01171875 .875-.01171875 .8989868-.01171875 .9319916-.01171875 .9379883-.006729126 .94799807 .017242432L1.1940003 .611557C1.2009888 .62953189 1.2159882 .62953189 1.2659912 .62953189H1.2890015Z"/>
<path id="font_1_28" d="M.61898806 .028137207C.61898806 .056137086 .60398867 .056137086 .58299258 .056137086 .522995 .056137086 .522995 .06413269 .522995 .087127689V.29512025C.522995 .37712098 .45700074 .453125 .2769928 .453125 .21899414 .453125 .07899475 .453125 .07899475 .35412599 .07899475 .31011964 .11099243 .28411866 .147995 .28411866 .19198609 .28411866 .21798706 .3151245 .21798706 .3531189 .21798706 .37512208 .20899964 .39012147 .20599365 .39311219 .20399475 .39611817 .20298767 .40011598 .20298767 .40011598 .20298767 .40512086 .2669983 .40711976 .27398683 .40711976 .34399415 .40711976 .3959961 .37911988 .3959961 .29412843V.26712037C.34700013 .26712037 .035995485 .26312257 .035995485 .11512756 .035995485 .022140503 .1459961-.005859375 .24598694-.005859375 .35198976-.005859375 .39898683 .042129518 .41600038 .06813049 .41600038 .025131226 .44299317 .0001373291 .5249939 .0001373291H.58399966C.6029968 .0001373291 .61898806 .0001373291 .61898806 .028137207M.3959961 .13713074C.3959961 .11613464 .3959961 .087127689 .35699464 .06312561 .31900025 .040130617 .27198792 .040130617 .2659912 .040130617 .20999146 .040130617 .1619873 .071136478 .1619873 .11613464 .1619873 .19812012 .29599 .22512818 .3959961 .2281189V.13713074Z"/>
<path id="font_1_105" d="M.42900086 .121170047V.17320252H.3659973V.1251831C.3659973 .056137086 .32398988 .045135499 .3039856 .045135499 .24598694 .045135499 .24499512 .09416199 .24499512 .121170047V.38832093H.4079895V.44433595H.24499512V.6357422H.18199158C.18099976 .5425415 .13398743 .43733216 .027999878 .43432618V.38832093H.117996219V.121170047C.117996219 .022140503 .19898987-.005859375 .28599549-.005859375 .36499024-.005859375 .42900086 .040130617 .42900086 .121170047Z"/>
<path id="font_1_50" d="M.5509949 .11407471C.5509949 .13606262 .5289917 .13606262 .5189972 .13606262 .5009918 .13606262 .49598695 .13505554 .48799134 .11907959 .45199586 .045135499 .36099244 .045135499 .34399415 .045135499 .18598938 .045135499 .18099976 .16203308 .1789856 .20800781H.5159912C.5369873 .20800781 .5509949 .20800781 .5509949 .23800659 .5509949 .2669983 .5439911 .34199525 .49598695 .39100648 .44198609 .44511415 .36799623 .453125 .31298829 .453125 .12799073 .453125 .039993287 .3431244 .039993287 .22512818 .039993287 .10612488 .13198853-.005859375 .32998658-.005859375 .3659973-.005859375 .42399598-.0018615723 .47399903 .025131226 .5329895 .055999757 .5509949 .104003909 .5509949 .11399841V.11407471M.45199586 .25H.1789856C.17999268 .28903199 .18499756 .40711976 .31399537 .40711976 .44299317 .40711976 .44999696 .2930298 .45199586 .25Z"/>
<path id="font_1_96" d="M.49499513 .3611908C.49499513 .41618348 .43899537 .4501953 .3769989 .4501953 .30499269 .45028688 .25698854 .4022827 .22999573 .34028626H.22898865V.4501953L.054992677 .4423828V.3863678C.11399841 .3863678 .12199402 .3863678 .12199402 .34733583V.055999757H.054992677V0C.05899048 0 .13598633 .0039978029 .18299866 .0039978029L.32598878 0V.055999757H.24198914V.21017456C.24198914 .30029298 .2829895 .399292 .37298585 .40429688 .37298585 .40429688 .35899354 .3862915 .35899354 .36128236 .35899354 .32229615 .3869934 .29328919 .4269867 .29328919 .46699525 .29328919 .49499513 .32229615 .49499513 .36128236V.3611908Z"/>
<path id="font_1_42" d="M.8549957 .22825623C.8549957 .25326539 .84399417 .25326539 .82299807 .25326539 .8089905 .25326539 .79299929 .25326539 .7919922 .23626709 .7829895 .08326721 .6299896 .044281007 .54299929 .044281007 .46099855 .044281007 .36898805 .06427002 .30899049 .1232605 .2519989 .18026734 .23799134 .2642517 .23799134 .34324647 .23799134 .43824769 .2579956 .52523806 .32598878 .5782318 .394989 .6312256 .47898866 .6422272 .54100039 .6422272 .66999819 .6422272 .7619934 .55422976 .7819977 .4502411 .7869873 .4232483 .7869873 .4212494 .81599429 .4212494H.82299807C.85198977 .4212494 .8549957 .4242401 .8549957 .45324708V.66622927C.8549957 .6862335 .8549957 .6982422 .83200076 .6982422 .81999209 .6982422 .81799319 .6972351 .80799868 .6882324L.7409973 .63023379C.6419983 .6982422 .5469971 .6982422 .5169983 .6982422 .22698975 .6982422 .07499695 .53523257 .07499695 .34324647 .07499695 .15426636 .22299195-.01171875 .5179901-.01171875 .723999-.01171875 .8549957 .104263309 .8549957 .22825623Z"/>
<path id="font_1_81" d="M.60598757 .21812439C.60598757 .3371277 .5189972 .453125 .32299806 .453125 .125 .453125 .039993287 .3361206 .039993287 .21812439 .039993287 .101135257 .1289978-.005859375 .32299806-.005859375 .5179901-.005859375 .60598757 .102127078 .60598757 .21812439M.46699525 .2301178C.46699525 .14413452 .46699525 .045135499 .32299806 .045135499 .1789856 .045135499 .1789856 .14413452 .1789856 .2301178 .1789856 .31011964 .1789856 .40711976 .32299806 .40711976 .46699525 .40711976 .46699525 .31011964 .46699525 .2301178Z"/>
<path id="font_1_77" d="M.67900088 0V.055999757H.6119995V.30078126C.6119995 .42419435 .5329895 .4501953 .44099427 .4501953 .31999208 .4501953 .2639923 .37800599 .24499512 .34577943V.4501953L.06399536 .4423828V.3863678C.12298584 .3863678 .1309967 .3863678 .1309967 .34677125V.055999757H.06399536V0C.06399536 0 .1459961 .0039978029 .19400025 .0039978029 .24299622 .0039978029 .32499696 0 .32499696 0V.055999757H.2579956V.24882508C.2579956 .36515809 .3619995 .40419007 .42199708 .40419007 .46598817 .40419007 .4850006 .3811798 .4850006 .3091278V.055999757H.41799928V0C.41799928 0 .5 .0039978029 .5479889 .0039978029 .5970001 .0039978029 .67900088 0 .67900088 0Z"/>
<path id="font_1_98" d="M.46398927 .14213562C.46398927 .18812561 .43998719 .22012329 .4169922 .23912049 .36999513 .27812196 .32699586 .28512574 .24398804 .29812623 .18699646 .3071289 .12799073 .31611634 .12799073 .35612489 .12799073 .41212464 .22799683 .41212464 .24899292 .41212464 .3619995 .41212464 .3659973 .36611939 .36898805 .3421173 .37098695 .3221283 .3769989 .32011415 .3999939 .32011415 .42900086 .32011415 .43199159 .32312013 .43199159 .35212709V.42111207C.43199159 .44111634 .43199159 .453125 .4079895 .453125 .40098573 .453125 .397995 .453125 .38198854 .44511415 .37998963 .4441223 .36698915 .43811036 .36299134 .43811036 .36299134 .43811036 .3600006 .43811036 .35598756 .4401245 .31498719 .453125 .272995 .453125 .2519989 .453125 .22299195 .453125 .1619873 .453125 .11199951 .42611695 .054992677 .39411927 .04699707 .3421173 .04699707 .3191223 .04699707 .2111206 .1789856 .19113159 .24899292 .18013 .30999757 .17112732 .3829956 .16012573 .3829956 .10812378 .3829956 .040130617 .28399659 .040130617 .2599945 .040130617 .16499329 .040130617 .12998963 .08312988 .11099243 .13713074 .10499573 .15412903 .10398865 .15612793 .07899475 .15612793 .049987794 .15612793 .04699707 .15312195 .04699707 .12413025V.026138306C.04699707 .006134033 .04699707-.005859375 .069992069-.005859375 .07899475-.005859375 .08099365-.005859375 .101989749 .0071258547 .10798645 .010131836 .12399292 .019134522 .12998963 .023132325 .18199158-.005859375 .23599243-.005859375 .25898744-.005859375 .2919922-.005859375 .46398927-.005859375 .46398927 .14213562Z"/>
<path id="font_1_109" d="M.67900088 .0001373291V.056137086C.6199951 .056137086 .6119995 .056137086 .6119995 .09513855V.4501953L.41799928 .44218446V.3861847C.47698976 .3861847 .4850006 .3861847 .4850006 .34718324V.16215515C.4850006 .07913208 .42099 .040130617 .34498597 .040130617 .25898744 .040130617 .2579956 .06213379 .2579956 .11013794V.4501953L.06399536 .44218446V.3861847C.12298584 .3861847 .1309967 .3861847 .1309967 .34718324V.12113953C.1309967 .005126953 .24198914-.005859375 .32798768-.005859375 .36099244-.005859375 .43499757-.005859375 .49198915 .06513977V-.005859375L.67900088 .0001373291Z"/>
<path id="font_1_75" d="M1.0349884 0V.055999757H.96798709V.30078126C.96798709 .42619325 .8849945 .4501953 .7969971 .4501953 .70098879 .4501953 .6399994 .40518189 .6069946 .35583497 .58200076 .44319154 .49598695 .4501953 .44198609 .4501953 .32199098 .4501953 .2649994 .38002015 .24499512 .34577943V.4501953L.06399536 .4423828V.3863678C.12298584 .3863678 .1309967 .3863678 .1309967 .34677125V.055999757H.06399536V0C.06399536 0 .1459961 .0039978029 .19400025 .0039978029 .24299622 .0039978029 .32499696 0 .32499696 0V.055999757H.2579956V.24882508C.2579956 .36715699 .36499024 .40419007 .42199708 .40419007 .46699525 .40419007 .48599244 .38217164 .48599244 .308136V.055999757H.4189911V0C.4189911 0 .5009918 .0039978029 .548996 .0039978029 .59799197 .0039978029 .6799927 0 .6799927 0V.055999757H.61299136V.24909973C.61299136 .36715699 .7200012 .40419007 .7769928 .40419007 .82199099 .40419007 .84098818 .38217164 .84098818 .308136V.055999757H.7739868V0C.7739868 0 .85598757 .0039978029 .9039917 .0039978029 .9529877 .0039978029 1.0349884 0 1.0349884 0Z"/>
<path id="font_1_84" d="M.66999819 .22319031C.66999819 .3441925 .58299258 .4501953 .41299439 .4501953 .36099244 .4501953 .2999878 .44018556 .24198914 .40419007V.4501953L.054992677 .4423828V.3863678C.07199097 .3863678 .09199524 .3863678 .10499573 .3843689 .12199402 .38137818 .12199402 .37036134 .12199402 .35134889V-.13769531H.054992677V-.19371033C.054992677-.19371033 .13699341-.18969727 .18499756-.18969727 .23399353-.18969727 .31599427-.19371033 .31599427-.19371033V-.13769531H.24899292V.037139894C.27398683 .020126343 .32299806-.005859375 .3929901-.005859375 .5649872-.005859375 .66999819 .091171268 .66999819 .2232666V.22319031M.5309906 .2232666C.5309906 .093170169 .45599366 .040130617 .37998963 .040130617 .3039856 .040130617 .26098634 .094177249 .24899292 .11117554V.32032777C.24899292 .33940126 .25 .34040834 .2639923 .3534088 .31199647 .395401 .37098695 .39941407 .3919983 .39941407 .47698976 .39941407 .5309906 .33140565 .5309906 .22340393V.2232666Z"/>
<path id="font_1_66" d="M.31498719 0V.055999757H.2539978V.4501953L.069992069 .4423828V.3863678C.1269989 .3863678 .13398743 .3863678 .13398743 .34733583V.055999757H.066986087V0C.066986087 0 .147995 .0039978029 .19299317 .0039978029 .23399353 .0039978029 .27398683 .0029907227 .31498719 0M.2639923 .602478C.2639923 .6484833 .22698975 .68447878 .18199158 .68447878 .13598633 .68447878 .099990848 .6464844 .099990848 .60346987 .099990848 .55747988 .13699341 .5214844 .18199158 .5214844 .22799683 .5214844 .2639923 .55947878 .2639923 .602478Z"/>
<path id="font_1_85" d="M.42900086-.23103333C.42900086-.22303772 .42599488-.22003174 .4099884-.20703125 .30799867-.11903381 .23298645 .037979127 .23298645 .24998474 .23298645 .38897706 .2659912 .58699038 .4189911 .7149811 .42399598 .7189789 .42900086 .72299197 .42900086 .73197939 .42900086 .75 .4099884 .75 .4059906 .75 .3849945 .75 .32798768 .7039795 .30699159 .6839905 .20999146 .5879822 .12199402 .4519806 .12199402 .25097657 .12199402 .082977298 .18399048-.062026979 .30699159-.18302918 .32798768-.20303345 .38398744-.24902344 .4059906-.24902344 .4099884-.24902344 .42900086-.24902344 .42900086-.23103333Z"/>
<path id="font_1_71" d="M.71499636 .26882936H.6519928C.6409912 .17990113 .60899356 .055999757 .43299867 .055999757H.31498719V.62953189H.44898988V.6855469C.42599488 .6835327 .37298585 .6825409 .34899903 .6825409L.24198914 .6815338C.17999268 .6815338 .11199951 .6815338 .056991579 .6855469V.62953189H.1639862V.055999757H.056991579V0H.68099978L.71499636 .26882936Z"/>
<path id="font_1_86" d="M.38198854 .24998474C.38198854 .417984 .31999208 .5629883 .19699097 .6839905 .17599488 .7039795 .11999512 .75 .09799194 .75 .09399414 .75 .07499695 .75 .07499695 .73197939 .07499695 .72398379 .07798767 .7209778 .09399414 .70799258 .19599915 .61997988 .2709961 .46298219 .2709961 .25097657 .2709961 .111968997 .23799134-.08602905 .084991458-.21403504 .07998657-.21803284 .07499695-.22203064 .07499695-.23103333 .07499695-.24902344 .09399414-.24902344 .09799194-.24902344 .11898804-.24902344 .17599488-.20303345 .19699097-.18302918 .2939911-.087020877 .38198854 .048980714 .38198854 .24998474Z"/>
<path id="font_2_54" d="M.71699526 .4371338 .6839905 .6799164H.04699707V.6279297H.15499878V.051986696H.04699707V0C.084991458 .0029907227 .19198609 .0029907227 .23599243 .0029907227 .27999879 .0029907227 .4019928 .0029907227 .43899537 0V.051986696H.3039856V.31420899H.3600006C.45599366 .31420899 .46798707 .27416993 .46798707 .19911194H.5239868V.4810791H.46798707C.46798707 .40615846 .45599366 .36621095 .3600006 .36621095H.3039856V.6279297H.45700074C.6069946 .6279297 .6439972 .5669861 .6609955 .4371338H.71699526Z"/>
<path id="font_2_96" d="M.47099305 .36416627C.47099305 .41915895 .4149933 .45117188 .35699464 .45117188 .27198792 .45117188 .23098755 .38116456 .21598816 .34317018L.21499634 .344162V.45117188L.04598999 .44335938V.39135743C.10499573 .39135743 .11199951 .39135743 .11199951 .35231019V.051986696H.04598999V0C.10398865 .0029907227 .11399841 .0029907227 .17399597 .0029907227L.30999757 0V.051986696H.22799683V.2141571C.22799683 .2932434 .25898744 .4063568 .35499574 .40934754 .35499574 .40916444 .33898927 .39216615 .33898927 .36416627 .33898927 .3241577 .36799623 .29815675 .40499879 .29815675 .44198609 .29815675 .47099305 .3251648 .47099305 .36416627Z"/>
<path id="font_2_50" d="M.526001 .11508179C.526001 .13604737 .5049896 .13604737 .49798585 .13604737 .48098756 .13604737 .47698976 .13404846 .46899415 .11706543 .43699647 .04714966 .35198976 .040161134 .32398988 .040161134 .17599488 .040161134 .17098999 .15603638 .16899109 .2119751H.49198915C.5130005 .2119751 .526001 .2119751 .526001 .2409668 .526001 .28399659 .5159912 .35003663 .46598817 .3990631 .4099884 .45507813 .31999208 .45507813 .29699708 .45507813 .11898804 .45507813 .033996583 .34402467 .033996583 .2259674 .033996583 .09609985 .13398743-.0068359377 .31199647-.0068359377 .48799134-.0068359377 .526001 .10108948 .526001 .11508179M.42799378 .25097657H.16899109C.16999817 .29100038 .17399597 .41307069 .2979889 .41307069 .42199708 .41307069 .4269867 .2899933 .42799378 .25097657Z"/>
<path id="font_2_91" d="M.6339874-.19360352V-.14160156H.56799319V.45117188H.5179901L.46899415 .37316896C.4249878 .42315675 .375 .45117188 .30599977 .45117188 .14299011 .45117188 .040985109 .3541565 .040985109 .22215271 .040985109 .0871582 .14199829-.0068359377 .29699708-.0068359377 .31498719-.0068359377 .3809967-.0068359377 .44599916 .046157838V-.14160156H.37998963V-.19360352C.43399049-.1906128 .46899415-.1906128 .5069885-.1906128 .54599-.1906128 .5799866-.1906128 .6339874-.19360352M.45199586 .15016175C.45199586 .13215637 .45199586 .12815857 .43598939 .105163577 .3929901 .04714966 .33999635 .03515625 .30699159 .03515625 .23498535 .03515625 .17599488 .09715271 .17599488 .22116089 .17599488 .3541565 .25 .40415956 .31900025 .40415956 .40098573 .4039917 .45199586 .32598878 .45199586 .2749939V.15016175Z"/>
<path id="font_2_109" d="M.6499939 .00015258789V.05215454C.59098818 .05215454 .58399966 .05215454 .58399966 .091033939V.45117188L.3959961 .443161V.39115907C.45498658 .39115907 .46199037 .39115907 .46199037 .35214234V.1620636C.46199037 .08604431 .40899659 .03515625 .32798768 .03515625 .24699402 .03515625 .24398804 .05809021 .24398804 .10903931V.45117188L.055999757 .443161V.39115907C.114990238 .39115907 .12199402 .39115907 .12199402 .35214234V.123046878C.12199402 .011154175 .21598816-.0068359377 .31399537-.0068359377 .34700013-.0068359377 .4139862-.0068359377 .46798707 .06303406V-.0068359377L.6499939 .00015258789Z"/>
<path id="font_2_77" d="M.6499939 0V.051986696H.58399966V.3034973C.58399966 .4251709 .5079956 .45117188 .4189911 .45117188 .2979889 .45117188 .24398804 .3715973 .23199463 .34959413H.23098755V.45117188L.055999757 .44335938V.39135743C.114990238 .39135743 .12199402 .39135743 .12199402 .35231019V.051986696H.055999757V0C.10998535 .0029907227 .14498902 .0029907227 .18299866 .0029907227 .22200012 .0029907227 .2559967 .0029907227 .30999757 0V.051986696H.24398804V.25320436C.24398804 .36413575 .33999635 .40916444 .4039917 .40916444 .43899537 .40916444 .46199037 .39215089 .46199037 .31411744V.051986696H.3959961V0C.44999696 .0029907227 .4850006 .0029907227 .522995 .0029907227 .56199648 .0029907227 .59599307 .0029907227 .6499939 0Z"/>
<path id="font_2_43" d="M.5089874 .11520386C.5089874 .13320923 .49299623 .13320923 .48098756 .13320923 .46199037 .13320923 .45899964 .13320923 .45199586 .11520386 .42399598 .04916382 .35699464 .040161134 .32499696 .040161134 .17599488 .040161134 .17599488 .1832428 .17599488 .22625733 .17599488 .28630067 .1789856 .4080658 .31298829 .4080658 .31999208 .4080658 .37599183 .40615846 .37599183 .40234376 .37599183 .40234376 .375 .39933778 .37199403 .3963318 .3639984 .38433839 .3600006 .369339 .3600006 .35533143 .3600006 .31530763 .3909912 .28829957 .4269867 .28829957 .46499635 .28829957 .49499513 .3143158 .49499513 .3563385 .49499513 .45507813 .34999085 .45507813 .30899049 .45507813 .116989139 .45507813 .040985109 .33532716 .040985109 .22225952 .040985109 .09819031 .1309967-.0068359377 .30499269-.0068359377 .34999085-.0068359377 .3999939 .001159668 .44099427 .026153565 .49398805 .059173585 .5089874 .109191898 .5089874 .11520386Z"/>
<path id="font_2_118" d="M.6159973 .39233399V.44433595C.5779877 .44132997 .57598879 .44132997 .5329895 .44132997 .526001 .44132997 .47299195 .44132997 .44299317 .44433595V.39233399C.44299317 .39233399 .48399354 .39233399 .48399354 .38232423 .48399354 .37931825 .48098756 .37330628 .47898866 .36930848L.35699464 .12808228 .22299195 .39233399H.269989V.44433595C.21199036 .44132997 .19099427 .44132997 .14698792 .44132997 .12399292 .44132997 .069992069 .44132997 .02999878 .44433595V.39233399H.09298706L.29100038-.000030517579C.25-.085113529 .24198914-.09512329 .23498535-.10513306 .19699097-.1541748 .1539917-.15917969 .13798523-.15917969 .1289978-.15917969 .125-.1581726 .11999512-.1561737 .13999939-.14416504 .14898682-.12414551 .14898682-.102127078 .14898682-.062088014 .11898804-.04006958 .08699036-.04006958 .053985597-.04006958 .023986817-.062088014 .023986817-.103134158 .023986817-.1561737 .07299805-.20117188 .13699341-.20117188 .23399353-.20117188 .2939911-.11714172 .30799867-.09011841L.54299929 .37130738C.5519867 .38832093 .55400088 .39233399 .6159973 .39233399Z"/>
<path id="font_2_85" d="M.40699769-.23200989C.40699769-.2250061 .4039917-.22200012 .3919983-.21200562 .2649994-.09700012 .21998596 .07798767 .21998596 .25 .21998596 .42099 .2630005 .59599307 .3899994 .70899966 .4059906 .723999 .40699769 .72499087 .40699769 .7319946 .40699769 .74198916 .40098573 .75 .38598634 .75 .36698915 .75 .31399537 .70500186 .2939911 .6859894 .16899109 .56199648 .11399841 .4099884 .11399841 .25 .11399841 .16099549 .13198853 .039993287 .20599365-.07800293 .2689972-.17800904 .3639984-.25 .38598634-.25 .40098573-.25 .40699769-.2420044 .40699769-.23200989Z"/>
<path id="font_2_46" d="M.86898806 .33677674C.86898806 .5536041 .71199038 .6855469 .5 .6855469H.04699707V.6335449H.15499878V.051986696H.04699707V0H.5009918C.71398928 0 .86898806 .12792969 .86898806 .33677674M.71499636 .33877564C.71499636 .2418518 .71499636 .051986696 .45899964 .051986696H.2979889V.6335449H.45799256C.71499636 .6335449 .71499636 .43469239 .71499636 .33877564Z"/>
<path id="font_2_28" d="M.58898928 .025985718C.58898928 .051986696 .57299807 .051986696 .5589905 .051986696 .49699403 .051986696 .49699403 .06199646 .49699403 .085006717V.29605104C.49699403 .38606263 .4249878 .45507813 .2619934 .45507813 .21299744 .45507813 .069992069 .45507813 .069992069 .35606385 .069992069 .31204225 .10398865 .28804017 .13699341 .28804017 .1769867 .28804017 .20498657 .31704713 .20498657 .35505677 .20498657 .3870697 .18399048 .4060669 .18399048 .4060669 .19198609 .4080658 .22099304 .41307069 .2599945 .41307069 .33999635 .41307069 .375 .36906434 .375 .29704286V.2680359C.22499085 .26704408 .02999878 .23402405 .02999878 .11199951 .02999878 .027160645 .12599182-.0068359377 .23498535-.0068359377 .33799745-.0068359377 .3809967 .04815674 .3939972 .06816101 .3939972 .037994386 .40499879 0 .5019989 0H.5549927C.57398989 0 .58898928 0 .58898928 .025985718M.375 .13699341C.375 .03515625 .25498963 .03515625 .25099183 .03515625 .19898987 .03515625 .1519928 .066207889 .1519928 .11427307 .1519928 .1843872 .24499512 .22746277 .375 .23046875V.13699341Z"/>
<path id="font_2_98" d="M.44099427 .14112854C.44099427 .18511963 .42099 .21511841 .397995 .2361145 .35398866 .2770996 .3019867 .2850952 .2639923 .29110719 .17298889 .3060913 .117996219 .315094 .117996219 .35908509 .117996219 .41807557 .21499634 .41807557 .23599243 .41807557 .34799195 .41807557 .35299684 .36408998 .35499574 .3360901 .35699464 .32009889 .37098695 .32009889 .3829956 .32009889 .4099884 .32009889 .41099549 .3270874 .41099549 .35108949V.42407228C.41099549 .44306947 .41099549 .45507813 .3889923 .45507813 .3809967 .45507813 .37799073 .45507813 .34399415 .43806459 .3019867 .45507813 .25498963 .45507813 .23799134 .45507813 .20399475 .45507813 .040985109 .45507813 .040985109 .3210907 .040985109 .2761078 .066986087 .24711609 .09199524 .2281189 .13198853 .20011902 .1749878 .19311524 .23999024 .1821289 .2899933 .1741333 .3639984 .16212464 .3639984 .10714722 .3639984 .03715515 .27598573 .03515625 .24499512 .03515625 .14299011 .03515625 .11399841 .09214783 .09799194 .13912964 .09298706 .15612793 .09098816 .15812683 .068984989 .15812683 .040985109 .15812683 .040985109 .15013123 .040985109 .12713623V.024154664C.040985109 .0051574709 .040985109-.0068359377 .06298828-.0068359377 .07199097-.0068359377 .07398987-.0068359377 .09498596 .006149292L.12098694 .023162842C.17098999-.0068359377 .22399903-.0068359377 .24499512-.0068359377 .27598573-.0068359377 .44099427-.0068359377 .44099427 .14112854Z"/>
<path id="font_2_86" d="M.36099244 .25C.36099244 .33898927 .34298707 .45999146 .2689972 .5779877 .20599365 .6779938 .11099243 .75 .08898926 .75 .07199097 .75 .067993167 .7389984 .067993167 .7319946 .067993167 .72499087 .07199097 .72099307 .08299255 .71199038 .20999146 .5970001 .25498963 .42199708 .25498963 .25 .25498963 .07899475 .21199036-.0960083 .084991458-.2090149 .07299805-.22000122 .067993167-.22401428 .067993167-.23200989 .067993167-.23901367 .07199097-.25 .08898926-.25 .10798645-.25 .16099549-.20500183 .18099976-.18600464 .30599977-.06201172 .36099244 .08999634 .36099244 .25Z"/>
<path id="font_3_107" d="M.44898988 .17396546H.42399598C.4189911 .14398194 .4119873 .099990848 .4019928 .084991458 .394989 .07699585 .32899476 .07699585 .30699159 .07699585H.1269989L.23298645 .17996216C.3889923 .31803895 .44898988 .37210084 .44898988 .47216798 .44898988 .5860901 .35899354 .6660156 .23699951 .6660156 .12399292 .6660156 .049987794 .57411196 .049987794 .48516847 .049987794 .4291687 .099990848 .4291687 .102996829 .4291687 .11999512 .4291687 .15499878 .44117738 .15499878 .48217774 .15499878 .5081787 .13699341 .5341797 .101989749 .5341797 .09399414 .5341797 .09199524 .5341797 .08898926 .5331726 .11199951 .59806826 .1659851 .63500979 .22399903 .63500979 .31498719 .63500979 .35798646 .5541382 .35798646 .47216798 .35798646 .39196778 .30799867 .31297303 .25299073 .25097657L.06098938 .036987306C.049987794 .025985718 .049987794 .023986817 .049987794 0H.42099L.44898988 .17396546Z"/>
<path id="font_3_121" d="M.45999146 .31976319C.45999146 .39982606 .45498658 .47988893 .41999818 .5539398 .37399293 .65000918 .2919922 .6660156 .25 .6660156 .18998719 .6660156 .116989139 .64001467 .07598877 .54693606 .04399109 .47789 .038986207 .39982606 .038986207 .31976319 .038986207 .24472046 .042999269 .15464783 .083999637 .07859802 .1269989-.0024719239 .19999695-.022460938 .24899292-.022460938 .30299378-.022460938 .3789978-.0014648438 .4229889 .09359741 .45498658 .16265869 .45999146 .2407074 .45999146 .31976319M.3769989 .3317871C.3769989 .25672914 .3769989 .18867493 .3659973 .12461853 .35099793 .029556275 .2939911-.00047302247 .24899292-.00047302247 .20999146-.00047302247 .15098572 .024551392 .1329956 .12062073 .12199402 .18066406 .12199402 .2727356 .12199402 .3317871 .12199402 .39582826 .12199402 .46188355 .12998963 .5159149 .14898682 .63500979 .22399903 .64401248 .24899292 .64401248 .28199769 .64401248 .34799195 .6259918 .36698915 .52693179 .3769989 .47088624 .3769989 .39482118 .3769989 .3317871Z"/>
<path id="font_3_56" d="M.44898988 .20091248C.44898988 .31991578 .36698915 .41992188 .25898744 .41992188 .21099854 .41992188 .16799927 .4039154 .13198853 .36891175V.5641022C.1519928 .55778506 .18499756 .55078127 .21699524 .55078127 .33999635 .55078127 .4099884 .6418457 .4099884 .65493777 .4099884 .6609802 .40699769 .6660156 .3999939 .6660156 .3999939 .66607668 .39698792 .66607668 .3919983 .66308596 .37199403 .65408328 .32299806 .63378909 .2559967 .63378909 .21598816 .63409426 .16999817 .641098 .12298584 .6621094 .114990238 .6651001 .11099243 .6651001 .11099243 .6651001 .100997928 .66508486 .100997928 .657074 .100997928 .64108279V.3447113C.100997928 .3266449 .100997928 .31861878 .114990238 .31861878 .12199402 .31861878 .12399292 .32164 .12799073 .32765199 .13899231 .34371949 .17599488 .3979187 .25698854 .3979187 .30899049 .3979187 .33399964 .3517456 .34199525 .3336792 .35798646 .2965393 .3600006 .2574005 .3600006 .20721436 .3600006 .17218018 .3600006 .112197879 .33599855 .07032776 .31199647 .031448366 .2749939 .0055389406 .22898865 .0055389406 .1559906 .0055389406 .09899902 .05836487 .08198547 .1171875 .084991458 .11685181 .08799744 .115859989 .09899902 .115859989 .13198853 .115859989 .14898682 .14085388 .14898682 .16485596 .14898682 .18885803 .13198853 .21386719 .09899902 .21386719 .084991458 .21386719 .049987794 .2068634 .049987794 .16085816 .049987794 .07432556 .11898804-.022460938 .23098755-.022460938 .34700013-.022460938 .44898988 .07331848 .44898988 .20019531V.20091248Z"/>
<path id="font_3_106" d="M.45700074 .17037964C.45700074 .252594 .3939972 .33088685 .2899933 .35191346 .37199403 .37893678 .42999269 .4490509 .42999269 .52809146 .42999269 .6100464 .34199525 .6660156 .24598694 .6660156 .14498902 .6660156 .068984989 .60606387 .068984989 .53009036 .068984989 .49710084 .09098816 .47808839 .11999512 .47808839 .15098572 .47808839 .17098999 .50009158 .17098999 .5290985 .17098999 .57910159 .12399292 .57910159 .10899353 .57910159 .13999939 .62802127 .20599365 .64100649 .24198914 .64100649 .2829895 .64100649 .33799745 .6190338 .33799745 .5290985 .33799745 .51708987 .33599855 .45906068 .30999757 .4149933 .27999879 .36691285 .24598694 .36390687 .22099304 .36291505 .21299744 .36190797 .18899536 .35990907 .18199158 .35990907 .17399597 .35890199 .16699219 .35791017 .16699219 .3479004 .16699219 .33691407 .17399597 .33691407 .19099427 .33691407H.23498535C.31698609 .33691407 .35398866 .2686615 .35398866 .17037964 .35398866 .034469606 .2849884 .0055389406 .24099732 .0055389406 .19799805 .0055389406 .12298584 .022491456 .08799744 .08137512 .12298584 .07637024 .1539917 .09837341 .1539917 .1363678 .1539917 .17237854 .1269989 .19238281 .09799194 .19238281 .07398987 .19238281 .041992189 .17837525 .041992189 .1343689 .041992189 .043441774 .1349945-.022460938 .24398804-.022460938 .3659973-.022460938 .45700074 .06838989 .45700074 .17037964Z"/>
<path id="font_3_57" d="M.47099305 .16503906V.19602967H.37098695V.6507721C.37098695 .6707611 .37098695 .6767578 .35499574 .6767578 .34599305 .6767578 .34298707 .6767578 .33499146 .6647644L.027999878 .19602967V.16503906H.2939911V.07800293C.2939911 .041992189 .2919922 .0309906 .21798706 .0309906H.19699097V0C.23799134 .0029907227 .2899933 .0029907227 .33198548 .0029907227 .37399293 .0029907227 .4269867 .0029907227 .46798707 0V.0309906H.44699098C.37298585 .0309906 .37098695 .041992189 .37098695 .07800293V.16503906H.47099305M.2999878 .19602967H.055999757L.2999878 .56881716V.19602967Z"/>
<path id="font_3_82" d="M.4189911 0V.0309906H.3869934C.29699708 .0309906 .2939911 .041992189 .2939911 .07902527V.64012148C.2939911 .6640167 .2939911 .6660156 .2709961 .6660156 .20899964 .60227969 .12098694 .60227969 .08898926 .60227969V.57128909C.10899353 .57128909 .16799927 .57128909 .21998596 .5972748V.07902527C.21998596 .042999269 .21699524 .0309906 .1269989 .0309906H.09498596V0C.12998963 .0029907227 .21699524 .0029907227 .25698854 .0029907227 .29699708 .0029907227 .38398744 .0029907227 .4189911 0Z"/>
<path id="font_3_101" d="M.45700074 .2036438C.45700074 .33070375 .36799623 .4267578 .25698854 .4267578 .18899536 .4267578 .1519928 .37573243 .13198853 .327713V.35173036C.13198853 .6047821 .2559967 .64100649 .30699159 .64100649 .33099366 .64100649 .37298585 .634964 .394989 .6007538 .37998963 .6007538 .33999635 .6007538 .33999635 .5557556 .33999635 .524765 .3639984 .5097656 .38598634 .5097656 .4019928 .5097656 .43199159 .51875308 .43199159 .5577545 .43199159 .6178589 .3880005 .6660156 .30499269 .6660156 .1769867 .6660156 .041992189 .5367584 .041992189 .31570436 .041992189 .048553468 .1579895-.022460938 .25099183-.022460938 .3619995-.022460938 .45700074 .07156372 .45700074 .2036438M.36698915 .20463562C.36698915 .15661621 .36698915 .10658264 .34999085 .0705719 .31999208 .010528564 .27398683 .0055389406 .25099183 .0055389406 .18798828 .0055389406 .1579895 .06556702 .1519928 .080566409 .13398743 .127594 .13398743 .2076416 .13398743 .22564698 .13398743 .30369569 .1659851 .40374757 .2559967 .40374757 .27198792 .40374757 .31799317 .40374757 .34899903 .34172059 .36698915 .30470277 .36698915 .2536621 .36698915 .20463562Z"/>
<path id="font_1_46" d="M.9089966 .33776856C.9089966 .54660037 .7529907 .6855469 .5249939 .6855469H.056991579V.62953189H.1639862V.055999757H.056991579V0H.526001C.74598696 0 .9089966 .12693787 .9089966 .33776856M.7529907 .33776856C.7529907 .24784851 .7529907 .055999757 .48399354 .055999757H.30799867V.62953189H.48298646C.7529907 .62953189 .7529907 .42869569 .7529907 .33776856Z"/>
<path id="font_1_72" d="M.32099916 0V.055999757H.2539978V.69433596L.066986087 .6855469V.62953189C.12599182 .62953189 .13398743 .62953189 .13398743 .5905762V.055999757H.066986087V0C.069992069 0 .147995 .0039978029 .19400025 .0039978029 .24299622 .0039978029 .31799317 0 .32099916 0Z"/>
<path id="font_1_118" d="M.6459961 .38832093V.44433595C.6179962 .44232179 .58999636 .44032289 .56199648 .44032289 .5319977 .44032289 .49299623 .44132997 .46299745 .44433595V.38832093C.4869995 .38832093 .4909973 .3873291 .5059967 .38232423L.3769989 .1300354 .23899842 .38832093H.2849884V.44433595C.28199769 .44433595 .20098877 .44032289 .1539917 .44032289 .10899353 .44032289 .038986207 .44433595 .035995485 .44433595V.38832093H.101989749L.30899049-.00012207031C.30299378-.013137817 .272995-.07116699 .269989-.076156619 .23699951-.13616944 .18299866-.15420532 .147995-.15420532 .13899231-.15420532 .13699341-.15420532 .1329956-.15319824 .1499939-.14115906 .15899658-.122161868 .15899658-.10015869 .15899658-.057159425 .1269989-.03515625 .09399414-.03515625 .06098938-.03515625 .0289917-.057159425 .0289917-.10015869 .0289917-.15620423 .08099365-.20019531 .14698792-.20019531 .22099304-.20019531 .29899598-.15820313 .34399415-.07116699L.57099917 .36930848C.57899478 .38331605 .5799866 .38432313 .6009979 .3873291 .61299136 .38832093 .6419983 .38832093 .6459961 .38832093Z"/>
<path id="font_1_62" d="M.94400027 0V.055999757H.83699038V.62953189H.94400027V.6855469C.92099 .6835327 .7779999 .6815338 .7619934 .6815338 .73999026 .6815338 .6009979 .6835327 .57899478 .6855469V.62953189H.6859894V.38476563H.31498719V.62953189H.42199708V.6855469C.39898683 .6835327 .2559967 .6815338 .23999024 .6815338 .21798706 .6815338 .07899475 .6835327 .056991579 .6855469V.62953189H.1639862V.055999757H.056991579V0C.07998657 .0019989014 .22299195 .0039978029 .23899842 .0039978029 .26098634 .0039978029 .3999939 .0019989014 .42199708 0V.055999757H.31498719V.3287506H.6859894V.055999757H.57899478V0C.60198977 .0019989014 .7449951 .0039978029 .7609863 .0039978029 .7829895 .0039978029 .9219971 .0019989014 .94400027 0Z"/>
<path id="font_1_63" d="M.67900088 0V.055999757H.6119995V.3011322C.6119995 .42419435 .5329895 .4501953 .44099427 .4501953 .32998658 .4501953 .27398683 .3901825 .25099183 .3561554V.69433596L.06399536 .6855469V.62953189C.12298584 .62953189 .1309967 .62953189 .1309967 .590683V.055999757H.06399536V0C.06399536 0 .1459961 .0039978029 .19400025 .0039978029 .24299622 .0039978029 .32499696 0 .32499696 0V.055999757H.2579956V.24909973C.2579956 .36515809 .3619995 .40419007 .42199708 .40419007 .46598817 .40419007 .4850006 .3811798 .4850006 .3091278V.055999757H.41799928V0C.41799928 0 .5 .0039978029 .5479889 .0039978029 .5970001 .0039978029 .67900088 0 .67900088 0Z"/>
<path id="font_1_47" d="M.6619873 0V.055999757C.6029968 .055999757 .59498599 .055999757 .59498599 .09501648V.69433596L.4079895 .6855469V.62953189C.46699525 .62953189 .47499085 .62953189 .47499085 .59065249V.40820313C.41299439 .44618226 .35699464 .4501953 .32398988 .4501953 .14498902 .4501953 .04699707 .34817506 .04699707 .22116089 .04699707 .09713745 .13999939-.005859375 .31098939-.005859375 .375-.005859375 .42799378 .014129639 .46798707 .042129518V-.005859375L.6619873 0M.46798707 .115997318C.44499208 .08314514 .3959961 .040130617 .32299806 .040130617 .18598938 .040130617 .18598938 .16015625 .18598938 .21916199 .18598938 .2811737 .18598938 .40419007 .33599855 .40419007 .41999818 .40419007 .46499635 .3481903 .46798707 .3441925V.115997318Z"/>
<path id="font_1_80" d="M.8919983 .33926393C.8919983 .5352478 .7529907 .6982422 .48399354 .6982422 .20899964 .6982422 .07499695 .53125 .07499695 .33926393 .07499695 .14526367 .21499634-.01171875 .48298646-.01171875 .7569885-.01171875 .8919983 .14926148 .8919983 .33926393M.72898867 .3542633C.72898867 .27825929 .7200012 .20227051 .68099978 .14027405 .6349945 .0692749 .5569916 .041275026 .48298646 .041275026 .42099 .041275026 .33999635 .06227112 .28799439 .13726807 .24198914 .20526123 .23799134 .29925538 .23799134 .3542633 .23799134 .4212494 .24398804 .50224307 .2939911 .5662384 .33599855 .61824038 .40499879 .64723208 .48298646 .64723208 .72898867 .64723208 .72898867 .4152527 .72898867 .3542633Z"/>
<path id="font_1_112" d="M.6459961 .38832093V.44433595C.61499026 .44232179 .59399417 .44032289 .56199648 .44032289 .5319977 .44032289 .49299623 .44132997 .46299745 .44433595V.38832093C.4889984 .38832093 .49499513 .38632203 .5069885 .38232423L.37298585 .11920166 .23599243 .38832093H.2829895V.44433595L.15299988 .44032289C.11399841 .44032289 .07499695 .44132997 .035995485 .44433595V.38832093H.100997928L.28799439 .022140503C.30099488-.0038604737 .31098939-.005859375 .34098817-.005859375 .37098695-.005859375 .37998963-.0038604737 .3939972 .022140503L.57299807 .37132264C.5799866 .38432313 .58099368 .3853302 .60198977 .3873291 .6139984 .38832093 .6389923 .38832093 .6459961 .38832093Z"/>
<path id="font_1_74" d="M1.151001 0V.055999757H1.0439911V.62953189H1.151001V.6855469H.92099C.9019928 .6855469 .8839874 .6855469 .87098696 .6585388L.6069946 .124938968 .34298707 .65753176C.32899476 .6855469 .31399537 .6855469 .29299928 .6855469H.06298828V.62953189H.16999817V.08097839C.16999817 .06498718 .16899109 .0639801 .16699219 .0619812 .1579895 .055999757 .10798645 .055999757 .09599304 .055999757H.06298828V0L.20498657 .0039978029 .34700013 0V.055999757H.31399537C.29899598 .055999757 .2789917 .056991579 .2639923 .0579834 .24099732 .0599823 .23999024 .06098938 .23999024 .08097839V.6125488H.24099732L.5309906 .027999878C.5379944 .01399231 .5469971 0 .57299807 0 .58200076 0 .60198977 0 .61499026 .026992798L.9119873 .62654116H.9129944V.055999757H.80599978V0L.97898867 .0039978029 1.151001 0Z"/>
</defs>
<path transform="matrix(1.00005,0,0,-1.00002,33.550928,209.13095)" stroke-width=".19925" stroke-linecap="butt" stroke-miterlimit="10" stroke-linejoin="miter" fill="none" stroke="#d9d9d9" d="M0 0H198.42766M0 2.83484H198.42766M0 5.6697H198.42766M0 8.50455H198.42766M0 11.33939H198.42766M0 14.17424H198.42766M0 17.0091H198.42766M0 19.84393H198.42766M0 22.67879H198.42766M0 25.51364H198.42766M0 28.3485H198.42766M0 31.18333H198.42766M0 34.01819H198.42766M0 36.85304H198.42766M0 39.68788H198.42766M0 42.52274H198.42766M0 45.35759H198.42766M0 48.19244H198.42766M0 51.02728H198.42766M0 53.86214H198.42766M0 56.69699H198.42766M0 59.53183H198.42766M0 62.36668H198.42766M0 65.20154H198.42766M0 68.03639H198.42766M0 70.87123H198.42766M0 73.70609H198.42766M0 76.54094H198.42766M0 79.37578H198.42766M0 82.21063H198.42766M0 85.04549H198.42766M0 87.88034H198.42766M0 90.71518H198.42766M0 93.55003H198.42766M0 96.38489H198.42766M0 99.21973H198.42766M0 102.05458H198.42766M0 104.88943H198.42766M0 107.72429H198.42766M0 110.55913H198.42766M0 113.39398H198.42766M0 116.22884H198.42766M0 119.06367H198.42766M0 121.89853H198.42766M0 124.73338H198.42766M0 127.56824H198.42766M0 130.40308H198.42766M0 133.23793H198.42766M0 136.07279H198.42766M0 138.90763H198.42766M0 141.74248H198.42766M0 144.57733H198.42766M0 147.41219H198.42766M0 150.24703H198.42766M0 153.08188H198.42766M0 155.91674H198.42766M0 158.75157H198.42766M0 161.58643H198.42766M0 164.42128H198.42766M0 167.25612H198.42766M0 170.09098H198.42766M0 172.92583H198.42766M0 175.76068H198.42766M0 178.59552H198.42766M0 181.43038H198.42766M0 184.26523H198.42766M0 187.10007H198.42766M0 189.93492H198.42766M0 192.76978H198.42766M0 195.60463H198.42766M0 0V198.42766M2.83484 0V198.42766M5.6697 0V198.42766M8.50455 0V198.42766M11.33939 0V198.42766M14.17424 0V198.42766M17.0091 0V198.42766M19.84393 0V198.42766M22.67879 0V198.42766M25.51364 0V198.42766M28.3485 0V198.42766M31.18333 0V198.42766M34.01819 0V198.42766M36.85304 0V198.42766M39.68788 0V198.42766M42.52274 0V198.42766M45.35759 0V198.42766M48.19244 0V198.42766M51.02728 0V198.42766M53.86214 0V198.42766M56.69699 0V198.42766M59.53183 0V198.42766M62.36668 0V198.42766M65.20154 0V198.42766M68.03639 0V198.42766M70.87123 0V198.42766M73.70609 0V198.42766M76.54094 0V198.42766M79.37578 0V198.42766M82.21063 0V198.42766M85.04549 0V198.42766M87.88034 0V198.42766M90.71518 0V198.42766M93.55003 0V198.42766M96.38489 0V198.42766M99.21973 0V198.42766M102.05458 0V198.42766M104.88943 0V198.42766M107.72429 0V198.42766M110.55913 0V198.42766M113.39398 0V198.42766M116.22884 0V198.42766M119.06367 0V198.42766M121.89853 0V198.42766M124.73338 0V198.42766M127.56824 0V198.42766M130.40308 0V198.42766M133.23793 0V198.42766M136.07279 0V198.42766M138.90763 0V198.42766M141.74248 0V198.42766M144.57733 0V198.42766M147.41219 0V198.42766M150.24703 0V198.42766M153.08188 0V198.42766M155.91674 0V198.42766M158.75157 0V198.42766M161.58643 0V198.42766M164.42128 0V198.42766M167.25612 0V198.42766M170.09098 0V198.42766M172.92583 0V198.42766M175.76068 0V198.42766M178.59552 0V198.42766M181.43038 0V198.42766M184.26523 0V198.42766M187.10007 0V198.42766M189.93492 0V198.42766M192.76978 0V198.42766M195.60463 0V198.42766M198.42766 198.42766"/>
<path transform="matrix(1.00005,0,0,-1.00002,33.550928,209.13095)" stroke-width=".3985" stroke-linecap="butt" stroke-miterlimit="10" stroke-linejoin="miter" fill="none" stroke="#a6a6a6" d="M0 0H198.42766M0 28.3468H198.42766M0 56.69362H198.42766M0 85.04042H198.42766M0 113.38724H198.42766M0 141.73404H198.42766M0 170.08086H198.42766M0 198.41771H198.42766M0 0V198.42766M28.3468 0V198.42766M56.69362 0V198.42766M85.04042 0V198.42766M113.38724 0V198.42766M141.73404 0V198.42766M170.08086 0V198.42766M198.41771 0V198.42766M198.42766 198.42766"/>
<path transform="matrix(1.00005,0,0,-1.00002,33.550928,209.13095)" stroke-width=".79701" stroke-linecap="butt" stroke-miterlimit="10" stroke-linejoin="miter" fill="none" stroke="#000000" d="M0 0H197.63065"/>
<path transform="matrix(1.00005,0,0,-1.00002,231.58997,209.13095)" stroke-width=".79701" stroke-linecap="round" stroke-linejoin="round" fill="none" stroke="#000000" d="M-2.55046 3.11095C-2.0845 1.24435-1.04614 .36295 0 0-1.04614-.36295-2.0845-1.24435-2.55046-3.11095"/>
<path transform="matrix(1.00005,0,0,-1.00002,33.550928,209.13095)" stroke-width=".79701" stroke-linecap="butt" stroke-miterlimit="10" stroke-linejoin="miter" fill="none" stroke="#000000" d="M0 0V197.63065"/>
<path transform="matrix(0,-1.00002,-1.00005,-0,33.550928,11.097824)" stroke-width=".79701" stroke-linecap="round" stroke-linejoin="round" fill="none" stroke="#000000" d="M-2.55046 3.11095C-2.0845 1.24435-1.04614 .36295 0 0-1.04614-.36295-2.0845-1.24435-2.55046-3.11095"/>
<use data-text="W" xlink:href="#font_1_113" transform="matrix(6.9741489,0,0,-6.97394,90.504779,240.55957)"/>
<use data-text="a" xlink:href="#font_1_28" transform="matrix(6.9741489,0,0,-6.97394,98.98535,240.55957)"/>
<use data-text="t" xlink:href="#font_1_105" transform="matrix(6.9741489,0,0,-6.97394,103.372089,240.55957)"/>
<use data-text="e" xlink:href="#font_1_50" transform="matrix(6.9741489,0,0,-6.97394,106.89404,240.55957)"/>
<use data-text="r" xlink:href="#font_1_96" transform="matrix(6.9741489,0,0,-6.97394,111.022739,240.55957)"/>
<use data-text="C" xlink:href="#font_1_42" transform="matrix(6.9741489,0,0,-6.97394,117.77371,240.55957)"/>
<use data-text="o" xlink:href="#font_1_81" transform="matrix(6.9741489,0,0,-6.97394,124.26666,240.55957)"/>
<use data-text="n" xlink:href="#font_1_77" transform="matrix(6.9741489,0,0,-6.97394,128.77893,240.55957)"/>
<use data-text="s" xlink:href="#font_1_98" transform="matrix(6.9741489,0,0,-6.97394,133.78638,240.55957)"/>
<use data-text="u" xlink:href="#font_1_109" transform="matrix(6.9741489,0,0,-6.97394,137.35713,240.55957)"/>
<use data-text="m" xlink:href="#font_1_75" transform="matrix(6.9741489,0,0,-6.97394,142.36458,240.55957)"/>
<use data-text="p" xlink:href="#font_1_84" transform="matrix(6.9741489,0,0,-6.97394,149.84784,240.55957)"/>
<use data-text="t" xlink:href="#font_1_105" transform="matrix(6.9741489,0,0,-6.97394,154.85529,240.55957)"/>
<use data-text="i" xlink:href="#font_1_66" transform="matrix(6.9741489,0,0,-6.97394,158.37723,240.55957)"/>
<use data-text="o" xlink:href="#font_1_81" transform="matrix(6.9741489,0,0,-6.97394,160.90886,240.55957)"/>
<use data-text="n" xlink:href="#font_1_77" transform="matrix(6.9741489,0,0,-6.97394,165.42113,240.55957)"/>
<use data-text="(" xlink:href="#font_1_85" transform="matrix(6.9741489,0,0,-6.97394,173.45536,240.55957)"/>
<use data-text="L" xlink:href="#font_1_71" transform="matrix(6.9741489,0,0,-6.97394,176.9773,240.55957)"/>
<use data-text="i" xlink:href="#font_1_66" transform="matrix(6.9741489,0,0,-6.97394,182.36832,240.55957)"/>
<use data-text="t" xlink:href="#font_1_105" transform="matrix(6.9741489,0,0,-6.97394,184.89994,240.55957)"/>
<use data-text="e" xlink:href="#font_1_50" transform="matrix(6.9741489,0,0,-6.97394,188.42189,240.55957)"/>
<use data-text="r" xlink:href="#font_1_96" transform="matrix(6.9741489,0,0,-6.97394,192.55059,240.55957)"/>
<use data-text="s" xlink:href="#font_1_98" transform="matrix(6.9741489,0,0,-6.97394,196.28176,240.55957)"/>
<use data-text=")" xlink:href="#font_1_86" transform="matrix(6.9741489,0,0,-6.97394,199.85253,240.55957)"/>
<use data-text="F" xlink:href="#font_2_54" transform="matrix(0,-7.9702599,-7.970498,-0,7.1956179,133.54042)"/>
<use data-text="r" xlink:href="#font_2_96" transform="matrix(0,-7.9702599,-7.970498,-0,7.1956179,128.22426)"/>
<use data-text="e" xlink:href="#font_2_50" transform="matrix(0,-7.9702599,-7.970498,-0,7.1956179,124.19131)"/>
<use data-text="q" xlink:href="#font_2_91" transform="matrix(0,-7.9702599,-7.970498,-0,7.1956179,119.719989)"/>
<use data-text="u" xlink:href="#font_2_109" transform="matrix(0,-7.9702599,-7.970498,-0,7.1956179,114.56322)"/>
<use data-text="e" xlink:href="#font_2_50" transform="matrix(0,-7.9702599,-7.970498,-0,7.1956179,109.13547)"/>
<use data-text="n" xlink:href="#font_2_77" transform="matrix(0,-7.9702599,-7.970498,-0,7.1956179,104.66417)"/>
<use data-text="c" xlink:href="#font_2_43" transform="matrix(0,-7.9702599,-7.970498,-0,7.1956179,99.236408)"/>
<use data-text="y" xlink:href="#font_2_118" transform="matrix(0,-7.9702599,-7.970498,-0,7.1956179,94.90059)"/>
<use data-text="(" xlink:href="#font_2_85" transform="matrix(0,-7.9702599,-7.970498,-0,7.1956179,86.49992)"/>
<use data-text="D" xlink:href="#font_2_46" transform="matrix(0,-7.9702599,-7.970498,-0,7.1956179,82.706089)"/>
<use data-text="a" xlink:href="#font_2_28" transform="matrix(0,-7.9702599,-7.970498,-0,7.1956179,75.22998)"/>
<use data-text="y" xlink:href="#font_2_118" transform="matrix(0,-7.9702599,-7.970498,-0,7.1956179,70.74272)"/>
<use data-text="s" xlink:href="#font_2_98" transform="matrix(0,-7.9702599,-7.970498,-0,7.1956179,65.58595)"/>
<use data-text=")" xlink:href="#font_2_86" transform="matrix(0,-7.9702599,-7.970498,-0,7.1956179,61.736314)"/>
<use data-text="2" xlink:href="#font_3_107" transform="matrix(9.963098,0,0,-9.962799,56.91709,219.28615)"/>
<use data-text="0" xlink:href="#font_3_121" transform="matrix(9.963098,0,0,-9.962799,61.898645,219.28615)"/>
<use data-text="2" xlink:href="#font_3_107" transform="matrix(9.963098,0,0,-9.962799,85.26551,219.28615)"/>
<use data-text="5" xlink:href="#font_3_56" transform="matrix(9.963098,0,0,-9.962799,90.24706,219.28615)"/>
<use data-text="3" xlink:href="#font_3_106" transform="matrix(9.963098,0,0,-9.962799,113.61392,219.28615)"/>
<use data-text="0" xlink:href="#font_3_121" transform="matrix(9.963098,0,0,-9.962799,118.595478,219.28615)"/>
<use data-text="3" xlink:href="#font_3_106" transform="matrix(9.963098,0,0,-9.962799,141.96234,219.28615)"/>
<use data-text="5" xlink:href="#font_3_56" transform="matrix(9.963098,0,0,-9.962799,146.9439,219.28615)"/>
<use data-text="4" xlink:href="#font_3_57" transform="matrix(9.963098,0,0,-9.962799,170.31076,219.39615)"/>
<use data-text="0" xlink:href="#font_3_121" transform="matrix(9.963098,0,0,-9.962799,175.29233,219.39615)"/>
<use data-text="1" xlink:href="#font_3_82" transform="matrix(9.963098,0,0,-9.962799,25.0495,184.10146)"/>
<use data-text="2" xlink:href="#font_3_107" transform="matrix(9.963098,0,0,-9.962799,25.0495,155.75388)"/>
<use data-text="3" xlink:href="#font_3_106" transform="matrix(9.963098,0,0,-9.962799,25.0495,127.29731)"/>
<use data-text="4" xlink:href="#font_3_57" transform="matrix(9.963098,0,0,-9.962799,25.0495,99.11375)"/>
<use data-text="5" xlink:href="#font_3_56" transform="matrix(9.963098,0,0,-9.962799,25.0495,70.60217)"/>
<use data-text="6" xlink:href="#font_3_101" transform="matrix(9.963098,0,0,-9.962799,25.0495,42.25461)"/>
<path transform="matrix(1.00005,0,0,-1.00002,33.550928,209.13095)" d="M28.3468 0V56.69362H56.69362V0ZM56.69362 56.69362" fill="#6666ff"/>
<path transform="matrix(1.00005,0,0,-1.00002,33.550928,209.13095)" stroke-width=".3985" stroke-linecap="butt" stroke-miterlimit="10" stroke-linejoin="miter" fill="none" stroke="#000000" d="M28.3468 0V56.69362H56.69362V0ZM56.69362 56.69362"/>
<path transform="matrix(1.00005,0,0,-1.00002,33.550928,209.13095)" d="M56.69362 0V113.38724H85.04042V0ZM85.04042 113.38724" fill="#6666ff"/>
<path transform="matrix(1.00005,0,0,-1.00002,33.550928,209.13095)" stroke-width=".3985" stroke-linecap="butt" stroke-miterlimit="10" stroke-linejoin="miter" fill="none" stroke="#000000" d="M56.69362 0V113.38724H85.04042V0ZM85.04042 113.38724"/>
<path transform="matrix(1.00005,0,0,-1.00002,33.550928,209.13095)" d="M85.04042 0V170.08086H113.38724V0ZM113.38724 170.08086" fill="#6666ff"/>
<path transform="matrix(1.00005,0,0,-1.00002,33.550928,209.13095)" stroke-width=".3985" stroke-linecap="butt" stroke-miterlimit="10" stroke-linejoin="miter" fill="none" stroke="#000000" d="M85.04042 0V170.08086H113.38724V0ZM113.38724 170.08086"/>
<path transform="matrix(1.00005,0,0,-1.00002,33.550928,209.13095)" d="M113.38724 0V141.73404H141.73404V0ZM141.73404 141.73404" fill="#6666ff"/>
<path transform="matrix(1.00005,0,0,-1.00002,33.550928,209.13095)" stroke-width=".3985" stroke-linecap="butt" stroke-miterlimit="10" stroke-linejoin="miter" fill="none" stroke="#000000" d="M113.38724 0V141.73404H141.73404V0ZM141.73404 141.73404"/>
<path transform="matrix(1.00005,0,0,-1.00002,33.550928,209.13095)" d="M141.73404 0V85.04042H170.08086V0ZM170.08086 85.04042" fill="#6666ff"/>
<path transform="matrix(1.00005,0,0,-1.00002,33.550928,209.13095)" stroke-width=".3985" stroke-linecap="butt" stroke-miterlimit="10" stroke-linejoin="miter" fill="none" stroke="#000000" d="M141.73404 0V85.04042H170.08086V0ZM170.08086 85.04042"/>
<use data-text="D" xlink:href="#font_1_46" transform="matrix(6.9741489,0,0,-6.97394,29.169709,5.7848818)"/>
<use data-text="a" xlink:href="#font_1_28" transform="matrix(6.9741489,0,0,-6.97394,36.039247,5.7848818)"/>
<use data-text="i" xlink:href="#font_1_66" transform="matrix(6.9741489,0,0,-6.97394,40.425989,5.7848818)"/>
<use data-text="l" xlink:href="#font_1_72" transform="matrix(6.9741489,0,0,-6.97394,42.957605,5.7848818)"/>
<use data-text="y" xlink:href="#font_1_118" transform="matrix(6.9741489,0,0,-6.97394,45.48922,5.7848818)"/>
<use data-text="H" xlink:href="#font_1_62" transform="matrix(6.9741489,0,0,-6.97394,53.272378,5.7848818)"/>
<use data-text="o" xlink:href="#font_1_81" transform="matrix(6.9741489,0,0,-6.97394,60.260477,5.7848818)"/>
<use data-text="u" xlink:href="#font_1_109" transform="matrix(6.9741489,0,0,-6.97394,64.77276,5.7848818)"/>
<use data-text="s" xlink:href="#font_1_98" transform="matrix(6.9741489,0,0,-6.97394,69.78019,5.7848818)"/>
<use data-text="e" xlink:href="#font_1_50" transform="matrix(6.9741489,0,0,-6.97394,73.35096,5.7848818)"/>
<use data-text="h" xlink:href="#font_1_63" transform="matrix(6.9741489,0,0,-6.97394,77.47965,5.7848818)"/>
<use data-text="o" xlink:href="#font_1_81" transform="matrix(6.9741489,0,0,-6.97394,82.4871,5.7848818)"/>
<use data-text="l" xlink:href="#font_1_72" transform="matrix(6.9741489,0,0,-6.97394,86.99937,5.7848818)"/>
<use data-text="d" xlink:href="#font_1_47" transform="matrix(6.9741489,0,0,-6.97394,89.531,5.7848818)"/>
<use data-text="W" xlink:href="#font_1_113" transform="matrix(6.9741489,0,0,-6.97394,97.56521,5.7848818)"/>
<use data-text="a" xlink:href="#font_1_28" transform="matrix(6.9741489,0,0,-6.97394,106.05274,5.7848818)"/>
<use data-text="t" xlink:href="#font_1_105" transform="matrix(6.9741489,0,0,-6.97394,110.439479,5.7848818)"/>
<use data-text="e" xlink:href="#font_1_50" transform="matrix(6.9741489,0,0,-6.97394,113.96143,5.7848818)"/>
<use data-text="r" xlink:href="#font_1_96" transform="matrix(6.9741489,0,0,-6.97394,118.090129,5.7848818)"/>
<use data-text="C" xlink:href="#font_1_42" transform="matrix(6.9741489,0,0,-6.97394,124.8411,5.7848818)"/>
<use data-text="o" xlink:href="#font_1_81" transform="matrix(6.9741489,0,0,-6.97394,131.33405,5.7848818)"/>
<use data-text="n" xlink:href="#font_1_77" transform="matrix(6.9741489,0,0,-6.97394,135.84632,5.7848818)"/>
<use data-text="s" xlink:href="#font_1_98" transform="matrix(6.9741489,0,0,-6.97394,140.85376,5.7848818)"/>
<use data-text="u" xlink:href="#font_1_109" transform="matrix(6.9741489,0,0,-6.97394,144.42453,5.7848818)"/>
<use data-text="m" xlink:href="#font_1_75" transform="matrix(6.9741489,0,0,-6.97394,149.43198,5.7848818)"/>
<use data-text="p" xlink:href="#font_1_84" transform="matrix(6.9741489,0,0,-6.97394,156.91522,5.7848818)"/>
<use data-text="t" xlink:href="#font_1_105" transform="matrix(6.9741489,0,0,-6.97394,161.92267,5.7848818)"/>
<use data-text="i" xlink:href="#font_1_66" transform="matrix(6.9741489,0,0,-6.97394,165.44461,5.7848818)"/>
<use data-text="o" xlink:href="#font_1_81" transform="matrix(6.9741489,0,0,-6.97394,167.97623,5.7848818)"/>
<use data-text="n" xlink:href="#font_1_77" transform="matrix(6.9741489,0,0,-6.97394,172.48853,5.7848818)"/>
<use data-text="O" xlink:href="#font_1_80" transform="matrix(6.9741489,0,0,-6.97394,180.52277,5.7848818)"/>
<use data-text="v" xlink:href="#font_1_112" transform="matrix(6.9741489,0,0,-6.97394,187.27375,5.7848818)"/>
<use data-text="e" xlink:href="#font_1_50" transform="matrix(6.9741489,0,0,-6.97394,191.79297,5.7848818)"/>
<use data-text="r" xlink:href="#font_1_96" transform="matrix(6.9741489,0,0,-6.97394,195.92166,5.7848818)"/>
<use data-text="a" xlink:href="#font_1_28" transform="matrix(6.9741489,0,0,-6.97394,202.67264,5.7848818)"/>
<use data-text="M" xlink:href="#font_1_74" transform="matrix(6.9741489,0,0,-6.97394,210.08618,5.7848818)"/>
<use data-text="o" xlink:href="#font_1_81" transform="matrix(6.9741489,0,0,-6.97394,218.55979,5.7848818)"/>
<use data-text="n" xlink:href="#font_1_77" transform="matrix(6.9741489,0,0,-6.97394,223.07205,5.7848818)"/>
<use data-text="t" xlink:href="#font_1_105" transform="matrix(6.9741489,0,0,-6.97394,227.84238,5.7848818)"/>
<use data-text="h" xlink:href="#font_1_63" transform="matrix(6.9741489,0,0,-6.97394,231.36432,5.7848818)"/>
</svg>
