<svg xmlns="http://www.w3.org/2000/svg" xmlns:xlink="http://www.w3.org/1999/xlink" xmlns:inkscape="http://www.inkscape.org/namespaces/inkscape" version="1.1" width="207" height="86" viewBox="0 0 207 86">
<defs>
<path id="font_1_62" d="M.7509918 0V.032989503H.72898867C.6519928 .032989503 .6499939 .04399109 .6499939 .08097839V.60165408C.6499939 .63861086 .6519928 .6496124 .72898867 .6496124H.7509918V.6826172L.60398867 .6796112 .45700074 .6826172V.6496124H.47898866C.55599978 .6496124 .55799868 .63861086 .55799868 .60165408V.3718567H.23699951V.60165408C.23699951 .63861086 .23899842 .6496124 .31599427 .6496124H.33799745V.6826172L.19099427 .6796112 .04399109 .6826172V.6496124H.06599426C.14299011 .6496124 .14498902 .63861086 .14498902 .60165408V.08097839C.14498902 .04399109 .14299011 .032989503 .06599426 .032989503H.04399109V0L.19099427 .0029907227 .33799745 0V.032989503H.31599427C.23899842 .032989503 .23699951 .04399109 .23699951 .08097839V.3388672H.55799868V.08097839C.55799868 .04399109 .55599978 .032989503 .47898866 .032989503H.45700074V0L.60398867 .0029907227 .7509918 0Z"/>
<path id="font_1_104" d="M.7279968 .44877626 .70799258 .67578127H.057998659L.037994386 .44877626H.068984989C.08299255 .61776736 .10598755 .6427765 .25898744 .6427765 .27799989 .6427765 .30899049 .6427765 .31698609 .6407776 .33599855 .6367798 .33699037 .6267853 .33699037 .6017914V.081970218C.33699037 .04698181 .33699037 .032989503 .23298645 .032989503H.19499207V0C.23199463 .0029907227 .33999635 .0029907227 .3829956 .0029907227 .42599488 .0029907227 .5339966 .0029907227 .57099917 0V.032989503H.5329895C.42900086 .032989503 .42900086 .04698181 .42900086 .081970218V.6017914C.42900086 .6247864 .42900086 .6367798 .44999696 .6407776 .45899964 .6427765 .48799134 .6427765 .5069885 .6427765 .6599884 .6427765 .68299868 .61776736 .69699099 .44877626H.7279968Z"/>
<path id="font_2_1" d="M.397995 .63591006C.397995 .6660156 .394989 .6660156 .3619995 .6660156 .29100038 .6016083 .17999268 .6016083 .1599884 .6016083H.14299011V.5576172H.1599884C.18299866 .5576172 .24798584 .5606079 .30599977 .58561709V.08596802C.30599977 .054977418 .30599977 .04399109 .19999695 .04399109H.1499939V0C.20498657 .0039978029 .2939911 .0039978029 .35198976 .0039978029 .4099884 .0039978029 .49899293 .0039978029 .55400088 0V.04399109H.5039978C.397995 .04399109 .397995 .054977418 .397995 .08596802V.63591006Z"/>
<path id="font_2_2" d="M.58898928 .19296265H.5469971C.5439911 .17396546 .5339966 .11198425 .5179901 .101989749 .5099945 .09599304 .42599488 .09599304 .41099549 .09599304H.21499634C.2809906 .14497376 .35499574 .20095825 .4149933 .24093628 .5049896 .30291749 .58898928 .36090089 .58898928 .46687318 .58898928 .59495547 .46798707 .6660156 .32499696 .6660156 .18998719 .6660156 .09098816 .58795168 .09098816 .48986817 .09098816 .4378662 .1349945 .42886354 .14898682 .42886354 .17599488 .42886354 .20799256 .4468689 .20799256 .48786927 .20799256 .52386477 .18199158 .543869 .15098572 .546875 .1789856 .59194949 .23699951 .6220093 .3039856 .6220093 .40098573 .6220093 .48199464 .5639038 .48199464 .4658661 .48199464 .3818817 .42399598 .31791688 .34700013 .2529297L.102996829 .04598999C.09298706 .036987306 .09199524 .036987306 .09098816 .02999878V0H.55599978L.58898928 .19296265Z"/>
</defs>
<path transform="matrix(1.00002,0,0,-1.00009,5.1127245,42.698495)" stroke-width=".79701" stroke-linecap="butt" stroke-miterlimit="10" stroke-linejoin="miter" fill="none" stroke="#000000" d="M2.81807 0C2.81807 1.55638 1.55638 2.81807 0 2.81807-1.55638 2.81807-2.81807 1.55638-2.81807 0-2.81807-1.55638-1.55638-2.81807 0-2.81807 1.55638-2.81807 2.81807-1.55638 2.81807 0ZM0 0"/>
<path transform="matrix(1.00002,0,0,-1.00009,5.1127245,42.698495)" stroke-width=".3985" stroke-linecap="butt" stroke-miterlimit="10" stroke-linejoin="miter" fill="none" stroke="#000000" d="M102.23999-27.21292C102.23999-23.34946 99.10811-20.21758 95.24464-20.21758 91.38118-20.21758 88.2493-23.34946 88.2493-27.21292 88.2493-31.07639 91.38118-34.20825 95.24464-34.20825 99.10811-34.20825 102.23999-31.07639 102.23999-27.21292ZM95.24464-27.21292"/>
<use data-text="H" xlink:href="#font_1_62" transform="matrix(7.9702599,0,0,-7.970817,97.18757,72.636188)"/>
<path transform="matrix(1.00002,0,0,-1.00009,5.1127245,42.698495)" stroke-width=".79701" stroke-linecap="butt" stroke-miterlimit="10" stroke-linejoin="miter" fill="none" stroke="#000000" d="M3.10867-.88818 88.32837-25.23692"/>
<path transform="matrix(1.00002,0,0,-1.00009,5.1127245,42.698495)" stroke-width=".79701" stroke-linecap="butt" stroke-miterlimit="10" stroke-linejoin="miter" fill="none" stroke="#000000" d="M199.9695-31.7483C199.9695-26.51247 195.72513-22.26811 190.48929-22.26811 185.25347-22.26811 181.0091-26.51247 181.0091-31.7483 181.0091-36.98415 185.25347-41.2285 190.48929-41.2285 195.72513-41.2285 199.9695-36.98415 199.9695-31.7483ZM190.48929-31.7483"/>
<use data-text="H" xlink:href="#font_1_62" transform="matrix(7.9702599,0,0,-7.970817,189.37741,77.17159)"/>
<use data-text="T" xlink:href="#font_1_104" transform="matrix(7.9702599,0,0,-7.970817,195.72174,77.17159)"/>
<path transform="matrix(1.00002,0,0,-1.00009,5.1127245,42.698495)" stroke-width=".79701" stroke-linecap="butt" stroke-miterlimit="10" stroke-linejoin="miter" fill="none" stroke="#000000" d="M102.44606-27.56012 180.82306-31.29243"/>
<use data-text="1" xlink:href="#font_2_1" transform="matrix(4.9813997,0,0,-4.981748,145.05553,77.72965)"/>
<path transform="matrix(1.00002,0,0,-1.00009,57.74478,52.7024)" stroke-width=".3387" stroke-linecap="butt" stroke-miterlimit="10" stroke-linejoin="miter" fill="none" stroke="#000000" d="M87.309-25.959H90.699"/>
<use data-text="2" xlink:href="#font_2_2" transform="matrix(4.9813997,0,0,-4.981748,145.05553,82.808109)"/>
<path transform="matrix(1.00002,0,0,-1.00009,5.1127245,42.698495)" stroke-width=".79701" stroke-linecap="butt" stroke-miterlimit="10" stroke-linejoin="miter" fill="none" stroke="#000000" d="M200.05974-22.67744C200.05974-17.39177 195.77497-13.107 190.48929-13.107 185.20363-13.107 180.91886-17.39177 180.91886-22.67744 180.91886-27.9631 185.20363-32.24788 190.48929-32.24788 195.77497-32.24788 200.05974-27.9631 200.05974-22.67744ZM190.48929-22.67744"/>
<use data-text="H" xlink:href="#font_1_62" transform="matrix(7.9702599,0,0,-7.970817,189.26142,68.09978)"/>
<use data-text="H" xlink:href="#font_1_62" transform="matrix(7.9702599,0,0,-7.970817,195.60575,68.09978)"/>
<path transform="matrix(1.00002,0,0,-1.00009,5.1127245,42.698495)" stroke-width=".79701" stroke-linecap="butt" stroke-miterlimit="10" stroke-linejoin="miter" fill="none" stroke="#000000" d="M102.44606-26.8657 180.73294-23.13759"/>
<use data-text="1" xlink:href="#font_2_1" transform="matrix(4.9813997,0,0,-4.981748,145.01053,60.23307)"/>
<path transform="matrix(1.00002,0,0,-1.00009,57.699785,35.20582)" stroke-width=".3387" stroke-linecap="butt" stroke-miterlimit="10" stroke-linejoin="miter" fill="none" stroke="#000000" d="M87.309-25.959H90.699"/>
<use data-text="2" xlink:href="#font_2_2" transform="matrix(4.9813997,0,0,-4.981748,145.01053,65.31152)"/>
<use data-text="1" xlink:href="#font_2_1" transform="matrix(4.9813997,0,0,-4.981748,49.137605,61.364175)"/>
<path transform="matrix(1.00002,0,0,-1.00009,-38.17314,36.33692)" stroke-width=".3387" stroke-linecap="butt" stroke-miterlimit="10" stroke-linejoin="miter" fill="none" stroke="#000000" d="M87.309-25.959H90.699"/>
<use data-text="2" xlink:href="#font_2_2" transform="matrix(4.9813997,0,0,-4.981748,49.137605,66.44263)"/>
<path transform="matrix(1.00002,0,0,-1.00009,5.1127245,42.698495)" stroke-width=".3985" stroke-linecap="butt" stroke-miterlimit="10" stroke-linejoin="miter" fill="none" stroke="#000000" d="M102.11983 27.21301C102.11983 31.01012 99.04175 34.0882 95.24464 34.0882 91.44754 34.0882 88.36946 31.01012 88.36946 27.21301 88.36946 23.41591 91.44754 20.33783 95.24464 20.33783 99.04175 20.33783 102.11983 23.41591 102.11983 27.21301ZM95.24464 27.21301"/>
<use data-text="T" xlink:href="#font_1_104" transform="matrix(7.9702599,0,0,-7.970817,97.302577,18.177289)"/>
<path transform="matrix(1.00002,0,0,-1.00009,5.1127245,42.698495)" stroke-width=".79701" stroke-linecap="butt" stroke-miterlimit="10" stroke-linejoin="miter" fill="none" stroke="#000000" d="M3.10867 .88817 88.44385 25.26996"/>
<path transform="matrix(1.00002,0,0,-1.00009,5.1127245,42.698495)" stroke-width=".79701" stroke-linecap="butt" stroke-miterlimit="10" stroke-linejoin="miter" fill="none" stroke="#000000" d="M199.8362 22.67761C199.8362 27.83983 195.6515 32.02452 190.48929 32.02452 185.32709 32.02452 181.1424 27.83983 181.1424 22.67761 181.1424 17.51541 185.32709 13.33072 190.48929 13.33072 195.6515 13.33072 199.8362 17.51541 199.8362 22.67761ZM190.48929 22.67761"/>
<use data-text="T" xlink:href="#font_1_104" transform="matrix(7.9702599,0,0,-7.970817,189.49243,22.712697)"/>
<use data-text="T" xlink:href="#font_1_104" transform="matrix(7.9702599,0,0,-7.970817,195.60562,22.712697)"/>
<path transform="matrix(1.00002,0,0,-1.00009,5.1127245,42.698495)" stroke-width=".79701" stroke-linecap="butt" stroke-miterlimit="10" stroke-linejoin="miter" fill="none" stroke="#000000" d="M102.32607 26.87157 180.95615 23.12718"/>
<use data-text="1" xlink:href="#font_2_1" transform="matrix(4.9813997,0,0,-4.981748,145.06153,23.298748)"/>
<path transform="matrix(1.00002,0,0,-1.00009,57.75078,-1.7285042)" stroke-width=".3387" stroke-linecap="butt" stroke-miterlimit="10" stroke-linejoin="miter" fill="none" stroke="#000000" d="M87.309-25.959H90.699"/>
<use data-text="2" xlink:href="#font_2_2" transform="matrix(4.9813997,0,0,-4.981748,145.06153,28.377205)"/>
<path transform="matrix(1.00002,0,0,-1.00009,5.1127245,42.698495)" stroke-width=".79701" stroke-linecap="butt" stroke-miterlimit="10" stroke-linejoin="miter" fill="none" stroke="#000000" d="M199.9695 31.74849C199.9695 36.98433 195.72513 41.22868 190.48929 41.22868 185.25347 41.22868 181.0091 36.98433 181.0091 31.74849 181.0091 26.51265 185.25347 22.2683 190.48929 22.2683 195.72513 22.2683 199.9695 26.51265 199.9695 31.74849ZM190.48929 31.74849"/>
<use data-text="T" xlink:href="#font_1_104" transform="matrix(7.9702599,0,0,-7.970817,189.37741,13.66888)"/>
<use data-text="H" xlink:href="#font_1_62" transform="matrix(7.9702599,0,0,-7.970817,195.4906,13.66888)"/>
<path transform="matrix(1.00002,0,0,-1.00009,5.1127245,42.698495)" stroke-width=".79701" stroke-linecap="butt" stroke-miterlimit="10" stroke-linejoin="miter" fill="none" stroke="#000000" d="M102.32607 27.55446 180.82306 31.29262"/>
<use data-text="1" xlink:href="#font_2_1" transform="matrix(4.9813997,0,0,-4.981748,144.99553,5.803175)"/>
<path transform="matrix(1.00002,0,0,-1.00009,57.684785,-19.224078)" stroke-width=".3387" stroke-linecap="butt" stroke-miterlimit="10" stroke-linejoin="miter" fill="none" stroke="#000000" d="M87.309-25.959H90.699"/>
<use data-text="2" xlink:href="#font_2_2" transform="matrix(4.9813997,0,0,-4.981748,144.99553,10.881632)"/>
<use data-text="1" xlink:href="#font_2_1" transform="matrix(4.9813997,0,0,-4.981748,49.195608,22.148646)"/>
<path transform="matrix(1.00002,0,0,-1.00009,-38.11514,-2.8786069)" stroke-width=".3387" stroke-linecap="butt" stroke-miterlimit="10" stroke-linejoin="miter" fill="none" stroke="#000000" d="M87.309-25.959H90.699"/>
<use data-text="2" xlink:href="#font_2_2" transform="matrix(4.9813997,0,0,-4.981748,49.195608,27.227103)"/>
</svg>
