<svg xmlns="http://www.w3.org/2000/svg" xmlns:xlink="http://www.w3.org/1999/xlink" xmlns:inkscape="http://www.inkscape.org/namespaces/inkscape" version="1.1" width="344" height="344" viewBox="0 0 344 344">
<defs>
<path id="font_1_1" d="M.49198915 .40434266C.45498658 .39733888 .44400025 .3653412 .44400025 .3503418 .44400025 .33132936 .45799256 .31433106 .48298646 .31433106 .5109863 .31433106 .5379944 .33833314 .5379944 .3733368 .5379944 .41937257 .48799134 .4423828 .44099427 .4423828 .3809967 .4423828 .34599305 .38934327 .33399964 .3683319 .31498719 .41737367 .2709961 .4423828 .22299195 .4423828 .115997318 .4423828 .057998659 .31433106 .057998659 .28833009 .057998659 .2793274 .06498718 .2763214 .07199097 .2763214 .08099365 .2763214 .083999637 .2813263 .085998538 .287323 .116989139 .38633729 .18299866 .41737367 .22099304 .41737367 .25 .41737367 .27598573 .3983307 .27598573 .35133363 .27598573 .31533814 .23298645 .15530396 .21998596 .107284549 .21199036 .076293949 .18199158 .014251709 .1269989 .014251709 .10699463 .014251709 .085998538 .021270752 .07598877 .027282715 .102996829 .032287599 .12298584 .055282594 .12298584 .08128357 .12298584 .106292728 .10398865 .11729431 .084991458 .11729431 .055999757 .11729431 .02999878 .092285159 .02999878 .058288576 .02999878 .009246826 .083999637-.0107421879 .12599182-.0107421879 .18399048-.0107421879 .21798706 .03729248 .23298645 .06428528 .2579956-.0017547608 .31698609-.0107421879 .34399415-.0107421879 .45199586-.0107421879 .5089874 .11929321 .5089874 .14329529 .5089874 .14830017 .5059967 .15530396 .49598695 .15530396 .4850006 .15530396 .48399354 .1512909 .47898866 .1362915 .45700074 .06428528 .39898683 .014251709 .34700013 .014251709 .31799317 .014251709 .29100038 .032287599 .29100038 .08029175 .29100038 .10229492 .30499269 .15730286 .31399537 .1953125 .31799317 .21331787 .34498597 .32133485 .34700013 .32833863 .35899354 .3643341 .3889923 .41737367 .43998719 .41737367 .45799256 .41737367 .47698976 .41436769 .49198915 .40434266Z"/>
<path id="font_1_2" d="M.5019989 .38536073C.5029907 .3903656 .5049896 .39637757 .5049896 .40237428 .5049896 .41537477 .49598695 .43138124 .47399903 .43138124 .46099855 .43138124 .44299317 .42337037 .43499757 .40437318 .43399049 .40037538 .42399598 .35935975 .41799928 .33735658L.36799623 .13728333C.3600006 .10827637 .3600006 .106277469 .35798646 .09727478 .35699464 .09327698 .31498719 .014251709 .24299622 .014251709 .18099976 .014251709 .18099976 .07727051 .18099976 .09628296 .18099976 .14129639 .19400025 .19030762 .23699951 .30233766 .24499512 .3253479 .25099183 .33935548 .25099183 .35835267 .25099183 .40737916 .21398926 .4423828 .16499329 .4423828 .068984989 .4423828 .0289917 .30033876 .0289917 .28833009 .0289917 .2793274 .035995485 .27633668 .042999269 .27633668 .053985597 .27633668 .054992677 .28233338 .05899048 .29533387 .07998657 .3693695 .11999512 .41737367 .1619873 .41737367 .18598938 .41737367 .18598938 .39837647 .18598938 .3843689 .18598938 .36735536 .18199158 .34934999 .17298889 .3253479 .12599182 .2013092 .11299133 .15930176 .11299133 .11128235 .11299133 .00024414063 .20298767-.0107421879 .23999024-.0107421879 .2889862-.0107421879 .32398988 .01524353 .34199525 .0332489 .32899476-.017745972 .31799317-.0627594 .2789917-.11276245 .24899292-.15286255 .20899964-.18008423 .16499329-.18008423 .13699341-.18008423 .10398865-.16999817 .08999634-.14176941 .14299011-.14176941 .1499939-.09776306 .1499939-.087768558 .1499939-.06576538 .13398743-.051757814 .11199951-.051757814 .08799744-.051757814 .055999757-.07077026 .055999757-.116760257 .055999757-.16899109 .101989749-.20507813 .16499329-.20507813 .2669983-.20507813 .37599183-.117767337 .40499879-.00074768069L.5019989 .38536073Z"/>
<path id="font_2_64" d="M.2849884 .1850586V.24707031H.010986328V.1850586H.2849884Z"/>
<path id="font_2_56" d="M.46199037 .19992066C.46199037 .3209076 .37599183 .41992188 .2669983 .41992188 .21899414 .41992188 .16999817 .4039154 .1349945 .36791993V.5647888C.16499329 .55578616 .19599915 .55078127 .22698975 .55078127 .34999085 .55078127 .42199708 .63983157 .42199708 .6529236 .42199708 .6619873 .41600038 .6660156 .41099549 .6660156 .41099549 .6660156 .40699769 .6660156 .397995 .6609802 .35099793 .6418457 .30499269 .63378909 .2630005 .63378909 .21998596 .63378909 .1749878 .6418457 .1289978 .6609802 .11898804 .6660156 .115997318 .6660156 .115997318 .6660156 .10398865 .6660156 .10398865 .6559448 .10398865 .63882449V.34490968C.10398865 .32699586 .10398865 .31599427 .117996219 .31599427 .12599182 .31562806 .1289978 .3196411 .1349945 .32867433 .16499329 .37083436 .21299744 .39491273 .2649994 .39491273 .37199403 .39491273 .37199403 .24035645 .37199403 .20422364 .37199403 .17321778 .37199403 .11122131 .34399415 .06636047 .31698609 .024475098 .2749939 .0055389406 .23599243 .0055389406 .1769867 .0055389406 .10998535 .042419435 .085998538 .11621094 .085998538 .116882327 .09298706 .11488342 .099990848 .11488342 .11999512 .11488342 .14898682 .12788391 .14898682 .1638794 .14898682 .19488526 .1269989 .21289063 .099990848 .21289063 .07899475 .21289063 .050994874 .20088196 .050994874 .16088867 .050994874 .069732669 .1269989-.022460938 .23799134-.022460938 .35899354-.02279663 .46199037 .07521057 .46199037 .19921875V.19992066Z"/>
<path id="font_2_57" d="M.48399354 .16503906V.19602967H.38198854V.649765C.38198854 .669754 .38198854 .6767578 .36299134 .6767578 .35099793 .6767578 .34999085 .67575076 .34098817 .6617584L.0289917 .19602967V.16503906H.3019867V.07901001C.3019867 .041992189 .29899598 .0309906 .22399903 .0309906H.20199585V0C.2649994 .0029907227 .33499146 .0029907227 .34199525 .0029907227 .34700013 .0029907227 .4189911 .0029907227 .48199464 0V.0309906H.45999146C.3849945 .0309906 .38198854 .041992189 .38198854 .07901001V.16503906H.48399354M.30799867 .19602967H.06098938L.30799867 .56581118V.19602967Z"/>
<path id="font_2_106" d="M.46998597 .17008972C.46998597 .25709535 .40098573 .33110047 .30499269 .35209657 .397995 .38710023 .44198609 .46009828 .44198609 .5290985 .44198609 .60606387 .35699464 .6660156 .25299073 .6660156 .14898682 .6660156 .070999149 .60705569 .070999149 .5310974 .070999149 .49809266 .09298706 .47909547 .12199402 .47909547 .15098572 .47909547 .17199707 .50009158 .17199707 .5290985 .17199707 .5640869 .147995 .57910159 .11399841 .57910159 .13999939 .6210327 .20098877 .64100649 .25 .64100649 .33299256 .64100649 .34899903 .5750885 .34899903 .52809146 .34899903 .49809266 .34298707 .45005799 .31799317 .41201783 .2869873 .36695863 .2519989 .36495973 .22299195 .36296083 .19799805 .36094667 .19599915 .36094667 .18798828 .36094667 .1789856 .35995484 .17098999 .35894776 .17098999 .34794618 .17098999 .33496095 .1789856 .33496095 .19599915 .33496095H.24299622C.32998658 .33496095 .36799623 .2646637 .36799623 .16937256 .36799623 .04145813 .2999878 .0055389406 .24899292 .0055389406 .22999573 .0055389406 .1329956 .010528564 .08799744 .0843811 .12399292 .07939148 .1519928 .10437012 .1519928 .13838196 .1519928 .17137146 .1269989 .19238281 .09799194 .19238281 .07299805 .19238281 .042999269 .17736817 .042999269 .13537598 .042999269 .046447755 .13598633-.022460938 .2519989-.022460938 .3769989-.022460938 .46998597 .06741333 .46998597 .16937256V.17008972Z"/>
<path id="font_2_107" d="M.46199037 .17704773H.43399049C.43199159 .16404724 .42399598 .10501099 .41099549 .08900452 .40499879 .07998657 .33599855 .07998657 .31599427 .07998657H.13798523L.23699951 .17404175C.40098573 .3161316 .46199037 .36915589 .46199037 .4711914 .46199037 .5860901 .36698915 .6660156 .24398804 .6660156 .1289978 .6660156 .050994874 .575119 .050994874 .4841919 .050994874 .43418885 .09399414 .42919923 .102996829 .42919923 .125 .42919923 .15499878 .44519044 .15499878 .48120118 .15499878 .51119998 .13398743 .5332031 .102996829 .5332031 .09799194 .5332031 .09498596 .5332031 .09098816 .53219607 .114990238 .6030731 .1789856 .63500979 .23298645 .63500979 .33499146 .63500979 .36999513 .5401764 .36999513 .4711914 .36999513 .36915589 .29299928 .28611756 .24499512 .23408509L.06199646 .035995485C.050994874 .024993897 .050994874 .022994996 .050994874 0H.43399049L.46199037 .17704773Z"/>
<path id="font_2_82" d="M.43199159 0V.0309906H.3999939C.30699159 .0309906 .3039856 .042999269 .3039856 .08001709V.63912966C.3039856 .6640167 .30299378 .6660156 .27799989 .6660156 .21598816 .60227969 .12399292 .60227969 .09298706 .60227969V.57128909C.11199951 .57128909 .17298889 .57128909 .22698975 .5972748V.08001709C.22698975 .042999269 .22399903 .0309906 .1309967 .0309906H.09899902V0C.1349945 .0029907227 .22399903 .0029907227 .2649994 .0029907227 .30599977 .0029907227 .3959961 .0029907227 .43199159 0Z"/>
<path id="font_3_121" d="M.45999146 .31976319C.45999146 .39982606 .45498658 .47988893 .41999818 .5539398 .37399293 .65000918 .2919922 .6660156 .25 .6660156 .18998719 .6660156 .116989139 .64001467 .07598877 .54693606 .04399109 .47789 .038986207 .39982606 .038986207 .31976319 .038986207 .24472046 .042999269 .15464783 .083999637 .07859802 .1269989-.0024719239 .19999695-.022460938 .24899292-.022460938 .30299378-.022460938 .3789978-.0014648438 .4229889 .09359741 .45498658 .16265869 .45999146 .2407074 .45999146 .31976319M.3769989 .3317871C.3769989 .25672914 .3769989 .18867493 .3659973 .12461853 .35099793 .029556275 .2939911-.00047302247 .24899292-.00047302247 .20999146-.00047302247 .15098572 .024551392 .1329956 .12062073 .12199402 .18066406 .12199402 .2727356 .12199402 .3317871 .12199402 .39582826 .12199402 .46188355 .12998963 .5159149 .14898682 .63500979 .22399903 .64401248 .24899292 .64401248 .28199769 .64401248 .34799195 .6259918 .36698915 .52693179 .3769989 .47088624 .3769989 .39482118 .3769989 .3317871Z"/>
</defs>
<path transform="matrix(1.00006,0,0,-1.00005,172.18518,171.88478)" stroke-width=".19925" stroke-linecap="butt" stroke-miterlimit="10" stroke-linejoin="miter" fill="none" stroke="#d9d9d9" d="M-170.08086-167.25612H170.08086M-170.08086-164.42128H170.08086M-170.08086-161.58643H170.08086M-170.08086-158.75157H170.08086M-170.08086-155.91674H170.08086M-170.08086-153.08188H170.08086M-170.08086-150.24703H170.08086M-170.08086-147.41219H170.08086M-170.08086-144.57733H170.08086M-170.08086-141.74248H170.08086M-170.08086-138.90763H170.08086M-170.08086-136.07279H170.08086M-170.08086-133.23793H170.08086M-170.08086-130.40308H170.08086M-170.08086-127.56824H170.08086M-170.08086-124.73338H170.08086M-170.08086-121.89853H170.08086M-170.08086-119.06367H170.08086M-170.08086-116.22884H170.08086M-170.08086-113.39398H170.08086M-170.08086-110.55913H170.08086M-170.08086-107.72429H170.08086M-170.08086-104.88943H170.08086M-170.08086-102.05458H170.08086M-170.08086-99.21973H170.08086M-170.08086-96.38489H170.08086M-170.08086-93.55003H170.08086M-170.08086-90.71518H170.08086M-170.08086-87.88034H170.08086M-170.08086-85.04549H170.08086M-170.08086-82.21063H170.08086M-170.08086-79.37578H170.08086M-170.08086-76.54094H170.08086M-170.08086-73.70609H170.08086M-170.08086-70.87123H170.08086M-170.08086-68.03639H170.08086M-170.08086-65.20154H170.08086M-170.08086-62.36668H170.08086M-170.08086-59.53183H170.08086M-170.08086-56.69699H170.08086M-170.08086-53.86214H170.08086M-170.08086-51.02728H170.08086M-170.08086-48.19244H170.08086M-170.08086-45.35759H170.08086M-170.08086-42.52274H170.08086M-170.08086-39.68788H170.08086M-170.08086-36.85304H170.08086M-170.08086-34.01819H170.08086M-170.08086-31.18333H170.08086M-170.08086-28.3485H170.08086M-170.08086-25.51364H170.08086M-170.08086-22.67879H170.08086M-170.08086-19.84393H170.08086M-170.08086-17.0091H170.08086M-170.08086-14.17424H170.08086M-170.08086-11.33939H170.08086M-170.08086-8.50455H170.08086M-170.08086-5.6697H170.08086M-170.08086-2.83484H170.08086M-170.08086 0H170.08086M-170.08086 2.83484H170.08086M-170.08086 5.6697H170.08086M-170.08086 8.50455H170.08086M-170.08086 11.33939H170.08086M-170.08086 14.17424H170.08086M-170.08086 17.0091H170.08086M-170.08086 19.84393H170.08086M-170.08086 22.67879H170.08086M-170.08086 25.51364H170.08086M-170.08086 28.3485H170.08086M-170.08086 31.18333H170.08086M-170.08086 34.01819H170.08086M-170.08086 36.85304H170.08086M-170.08086 39.68788H170.08086M-170.08086 42.52274H170.08086M-170.08086 45.35759H170.08086M-170.08086 48.19244H170.08086M-170.08086 51.02728H170.08086M-170.08086 53.86214H170.08086M-170.08086 56.69699H170.08086M-170.08086 59.53183H170.08086M-170.08086 62.36668H170.08086M-170.08086 65.20154H170.08086M-170.08086 68.03639H170.08086M-170.08086 70.87123H170.08086M-170.08086 73.70609H170.08086M-170.08086 76.54094H170.08086M-170.08086 79.37578H170.08086M-170.08086 82.21063H170.08086M-170.08086 85.04549H170.08086M-170.08086 87.88034H170.08086M-170.08086 90.71518H170.08086M-170.08086 93.55003H170.08086M-170.08086 96.38489H170.08086M-170.08086 99.21973H170.08086M-170.08086 102.05458H170.08086M-170.08086 104.88943H170.08086M-170.08086 107.72429H170.08086M-170.08086 110.55913H170.08086M-170.08086 113.39398H170.08086M-170.08086 116.22884H170.08086M-170.08086 119.06367H170.08086M-170.08086 121.89853H170.08086M-170.08086 124.73338H170.08086M-170.08086 127.56824H170.08086M-170.08086 130.40308H170.08086M-170.08086 133.23793H170.08086M-170.08086 136.07279H170.08086M-170.08086 138.90763H170.08086M-170.08086 141.74248H170.08086M-170.08086 144.57733H170.08086M-170.08086 147.41219H170.08086M-170.08086 150.24703H170.08086M-170.08086 153.08188H170.08086M-170.08086 155.91674H170.08086M-170.08086 158.75157H170.08086M-170.08086 161.58643H170.08086M-170.08086 164.42128H170.08086M-170.08086 167.25612H170.08086M-167.25612-170.08086V170.08086M-164.42128-170.08086V170.08086M-161.58643-170.08086V170.08086M-158.75157-170.08086V170.08086M-155.91674-170.08086V170.08086M-153.08188-170.08086V170.08086M-150.24703-170.08086V170.08086M-147.41219-170.08086V170.08086M-144.57733-170.08086V170.08086M-141.74248-170.08086V170.08086M-138.90763-170.08086V170.08086M-136.07279-170.08086V170.08086M-133.23793-170.08086V170.08086M-130.40308-170.08086V170.08086M-127.56824-170.08086V170.08086M-124.73338-170.08086V170.08086M-121.89853-170.08086V170.08086M-119.06367-170.08086V170.08086M-116.22884-170.08086V170.08086M-113.39398-170.08086V170.08086M-110.55913-170.08086V170.08086M-107.72429-170.08086V170.08086M-104.88943-170.08086V170.08086M-102.05458-170.08086V170.08086M-99.21973-170.08086V170.08086M-96.38489-170.08086V170.08086M-93.55003-170.08086V170.08086M-90.71518-170.08086V170.08086M-87.88034-170.08086V170.08086M-85.04549-170.08086V170.08086M-82.21063-170.08086V170.08086M-79.37578-170.08086V170.08086M-76.54094-170.08086V170.08086M-73.70609-170.08086V170.08086M-70.87123-170.08086V170.08086M-68.03639-170.08086V170.08086M-65.20154-170.08086V170.08086M-62.36668-170.08086V170.08086M-59.53183-170.08086V170.08086M-56.69699-170.08086V170.08086M-53.86214-170.08086V170.08086M-51.02728-170.08086V170.08086M-48.19244-170.08086V170.08086M-45.35759-170.08086V170.08086M-42.52274-170.08086V170.08086M-39.68788-170.08086V170.08086M-36.85304-170.08086V170.08086M-34.01819-170.08086V170.08086M-31.18333-170.08086V170.08086M-28.3485-170.08086V170.08086M-25.51364-170.08086V170.08086M-22.67879-170.08086V170.08086M-19.84393-170.08086V170.08086M-17.0091-170.08086V170.08086M-14.17424-170.08086V170.08086M-11.33939-170.08086V170.08086M-8.50455-170.08086V170.08086M-5.6697-170.08086V170.08086M-2.83484-170.08086V170.08086M0-170.08086V170.08086M2.83484-170.08086V170.08086M5.6697-170.08086V170.08086M8.50455-170.08086V170.08086M11.33939-170.08086V170.08086M14.17424-170.08086V170.08086M17.0091-170.08086V170.08086M19.84393-170.08086V170.08086M22.67879-170.08086V170.08086M25.51364-170.08086V170.08086M28.3485-170.08086V170.08086M31.18333-170.08086V170.08086M34.01819-170.08086V170.08086M36.85304-170.08086V170.08086M39.68788-170.08086V170.08086M42.52274-170.08086V170.08086M45.35759-170.08086V170.08086M48.19244-170.08086V170.08086M51.02728-170.08086V170.08086M53.86214-170.08086V170.08086M56.69699-170.08086V170.08086M59.53183-170.08086V170.08086M62.36668-170.08086V170.08086M65.20154-170.08086V170.08086M68.03639-170.08086V170.08086M70.87123-170.08086V170.08086M73.70609-170.08086V170.08086M76.54094-170.08086V170.08086M79.37578-170.08086V170.08086M82.21063-170.08086V170.08086M85.04549-170.08086V170.08086M87.88034-170.08086V170.08086M90.71518-170.08086V170.08086M93.55003-170.08086V170.08086M96.38489-170.08086V170.08086M99.21973-170.08086V170.08086M102.05458-170.08086V170.08086M104.88943-170.08086V170.08086M107.72429-170.08086V170.08086M110.55913-170.08086V170.08086M113.39398-170.08086V170.08086M116.22884-170.08086V170.08086M119.06367-170.08086V170.08086M121.89853-170.08086V170.08086M124.73338-170.08086V170.08086M127.56824-170.08086V170.08086M130.40308-170.08086V170.08086M133.23793-170.08086V170.08086M136.07279-170.08086V170.08086M138.90763-170.08086V170.08086M141.74248-170.08086V170.08086M144.57733-170.08086V170.08086M147.41219-170.08086V170.08086M150.24703-170.08086V170.08086M153.08188-170.08086V170.08086M155.91674-170.08086V170.08086M158.75157-170.08086V170.08086M161.58643-170.08086V170.08086M164.42128-170.08086V170.08086M167.25612-170.08086V170.08086M170.08086 170.08086"/>
<path transform="matrix(1.00006,0,0,-1.00005,172.18518,171.88478)" stroke-width=".3985" stroke-linecap="butt" stroke-miterlimit="10" stroke-linejoin="miter" fill="none" stroke="#a6a6a6" d="M-170.08086-170.08086H170.08086M-170.08086-141.73404H170.08086M-170.08086-113.38724H170.08086M-170.08086-85.04042H170.08086M-170.08086-56.69362H170.08086M-170.08086-28.3468H170.08086M-170.08086 0H170.08086M-170.08086 28.3468H170.08086M-170.08086 56.69362H170.08086M-170.08086 85.04042H170.08086M-170.08086 113.38724H170.08086M-170.08086 141.73404H170.08086M-170.08086 170.07089H170.08086M-170.08086-170.08086V170.08086M-141.73404-170.08086V170.08086M-113.38724-170.08086V170.08086M-85.04042-170.08086V170.08086M-56.69362-170.08086V170.08086M-28.3468-170.08086V170.08086M0-170.08086V170.08086M28.3468-170.08086V170.08086M56.69362-170.08086V170.08086M85.04042-170.08086V170.08086M113.38724-170.08086V170.08086M141.73404-170.08086V170.08086M170.07089-170.08086V170.08086M170.08086 170.08086"/>
<path transform="matrix(1.00006,0,0,-1.00005,172.18518,171.88478)" stroke-width=".79701" stroke-linecap="butt" stroke-miterlimit="10" stroke-linejoin="miter" fill="none" stroke="#000000" d="M-155.11043 0H155.11043"/>
<path transform="matrix(-1.00006,-0,0,1.00005,16.666916,171.88478)" stroke-width=".79701" stroke-linecap="round" stroke-linejoin="round" fill="none" stroke="#000000" d="M-2.55046 3.11095C-2.0845 1.24435-1.04614 .36295 0 0-1.04614-.36295-2.0845-1.24435-2.55046-3.11095"/>
<path transform="matrix(1.00006,0,0,-1.00005,327.70344,171.88478)" stroke-width=".79701" stroke-linecap="round" stroke-linejoin="round" fill="none" stroke="#000000" d="M-2.55046 3.11095C-2.0845 1.24435-1.04614 .36295 0 0-1.04614-.36295-2.0845-1.24435-2.55046-3.11095"/>
<use data-text="x" xlink:href="#font_1_1" transform="matrix(8.966938,0,0,-8.966848,331.82176,173.81488)"/>
<path transform="matrix(1.00006,0,0,-1.00005,172.18518,171.88478)" stroke-width=".79701" stroke-linecap="butt" stroke-miterlimit="10" stroke-linejoin="miter" fill="none" stroke="#000000" d="M0-155.11043V155.11043"/>
<path transform="matrix(0,1.00005,1.00006,0,172.18518,327.4015)" stroke-width=".79701" stroke-linecap="round" stroke-linejoin="round" fill="none" stroke="#000000" d="M-2.55046 3.11095C-2.0845 1.24435-1.04614 .36295 0 0-1.04614-.36295-2.0845-1.24435-2.55046-3.11095"/>
<path transform="matrix(0,-1.00005,-1.00006,-0,172.18518,16.368073)" stroke-width=".79701" stroke-linecap="round" stroke-linejoin="round" fill="none" stroke="#000000" d="M-2.55046 3.11095C-2.0845 1.24435-1.04614 .36295 0 0-1.04614-.36295-2.0845-1.24435-2.55046-3.11095"/>
<use data-text="y" xlink:href="#font_1_2" transform="matrix(8.966938,0,0,-8.966848,169.75504,10.506729)"/>
<path transform="matrix(1.00006,0,0,-1.00005,172.18518,171.88478)" stroke-width=".3985" stroke-linecap="butt" stroke-miterlimit="10" stroke-linejoin="miter" fill="none" stroke="#000000" d="M-141.73404 5.66927V-5.66927"/>
<use data-text="-" xlink:href="#font_2_64" transform="matrix(8.966938,0,0,-8.966848,26.600449,187.04654)"/>
<use data-text="5" xlink:href="#font_2_56" transform="matrix(8.966938,0,0,-8.966848,29.676102,187.04654)"/>
<path transform="matrix(1.00006,0,0,-1.00005,172.18518,171.88478)" stroke-width=".3985" stroke-linecap="butt" stroke-miterlimit="10" stroke-linejoin="miter" fill="none" stroke="#000000" d="M-113.38724 5.66927V-5.66927"/>
<use data-text="-" xlink:href="#font_2_64" transform="matrix(8.966938,0,0,-8.966848,54.949159,187.14455)"/>
<use data-text="4" xlink:href="#font_2_57" transform="matrix(8.966938,0,0,-8.966848,58.02481,187.14455)"/>
<path transform="matrix(1.00006,0,0,-1.00005,172.18518,171.88478)" stroke-width=".3985" stroke-linecap="butt" stroke-miterlimit="10" stroke-linejoin="miter" fill="none" stroke="#000000" d="M-85.04042 5.66927V-5.66927"/>
<use data-text="-" xlink:href="#font_2_64" transform="matrix(8.966938,0,0,-8.966848,83.296848,187.04654)"/>
<use data-text="3" xlink:href="#font_2_106" transform="matrix(8.966938,0,0,-8.966848,86.3725,187.04654)"/>
<path transform="matrix(1.00006,0,0,-1.00005,172.18518,171.88478)" stroke-width=".3985" stroke-linecap="butt" stroke-miterlimit="10" stroke-linejoin="miter" fill="none" stroke="#000000" d="M-56.69362 5.66927V-5.66927"/>
<use data-text="-" xlink:href="#font_2_64" transform="matrix(8.966938,0,0,-8.966848,111.64555,187.04654)"/>
<use data-text="2" xlink:href="#font_2_107" transform="matrix(8.966938,0,0,-8.966848,114.72121,187.04654)"/>
<path transform="matrix(1.00006,0,0,-1.00005,172.18518,171.88478)" stroke-width=".3985" stroke-linecap="butt" stroke-miterlimit="10" stroke-linejoin="miter" fill="none" stroke="#000000" d="M-28.3468 5.66927V-5.66927"/>
<use data-text="-" xlink:href="#font_2_64" transform="matrix(8.966938,0,0,-8.966848,139.99425,187.04654)"/>
<use data-text="1" xlink:href="#font_2_82" transform="matrix(8.966938,0,0,-8.966848,143.0699,187.04654)"/>
<path transform="matrix(1.00006,0,0,-1.00005,172.18518,171.88478)" stroke-width=".3985" stroke-linecap="butt" stroke-miterlimit="10" stroke-linejoin="miter" fill="none" stroke="#000000" d="M28.3468 5.66927V-5.66927"/>
<use data-text="1" xlink:href="#font_2_82" transform="matrix(8.966938,0,0,-8.966848,198.22875,187.04654)"/>
<path transform="matrix(1.00006,0,0,-1.00005,172.18518,171.88478)" stroke-width=".3985" stroke-linecap="butt" stroke-miterlimit="10" stroke-linejoin="miter" fill="none" stroke="#000000" d="M56.69362 5.66927V-5.66927"/>
<use data-text="2" xlink:href="#font_2_107" transform="matrix(8.966938,0,0,-8.966848,226.57744,187.04654)"/>
<path transform="matrix(1.00006,0,0,-1.00005,172.18518,171.88478)" stroke-width=".3985" stroke-linecap="butt" stroke-miterlimit="10" stroke-linejoin="miter" fill="none" stroke="#000000" d="M85.04042 5.66927V-5.66927"/>
<use data-text="3" xlink:href="#font_2_106" transform="matrix(8.966938,0,0,-8.966848,254.92615,187.04654)"/>
<path transform="matrix(1.00006,0,0,-1.00005,172.18518,171.88478)" stroke-width=".3985" stroke-linecap="butt" stroke-miterlimit="10" stroke-linejoin="miter" fill="none" stroke="#000000" d="M113.38724 5.66927V-5.66927"/>
<use data-text="4" xlink:href="#font_2_57" transform="matrix(8.966938,0,0,-8.966848,283.27485,187.14455)"/>
<path transform="matrix(1.00006,0,0,-1.00005,172.18518,171.88478)" stroke-width=".3985" stroke-linecap="butt" stroke-miterlimit="10" stroke-linejoin="miter" fill="none" stroke="#000000" d="M141.73404 5.66927V-5.66927"/>
<use data-text="5" xlink:href="#font_2_56" transform="matrix(8.966938,0,0,-8.966848,311.62355,187.04654)"/>
<path transform="matrix(1.00006,0,0,-1.00005,172.18518,171.88478)" stroke-width=".3985" stroke-linecap="butt" stroke-miterlimit="10" stroke-linejoin="miter" fill="none" stroke="#000000" d="M5.66927-141.73404H-5.66927"/>
<use data-text="-" xlink:href="#font_2_64" transform="matrix(8.966938,0,0,-8.966848,155.31118,316.513)"/>
<use data-text="5" xlink:href="#font_2_56" transform="matrix(8.966938,0,0,-8.966848,158.38683,316.513)"/>
<path transform="matrix(1.00006,0,0,-1.00005,172.18518,171.88478)" stroke-width=".3985" stroke-linecap="butt" stroke-miterlimit="10" stroke-linejoin="miter" fill="none" stroke="#000000" d="M5.66927-113.38724H-5.66927"/>
<use data-text="-" xlink:href="#font_2_64" transform="matrix(8.966938,0,0,-8.966848,155.31118,288.3126)"/>
<use data-text="4" xlink:href="#font_2_57" transform="matrix(8.966938,0,0,-8.966848,158.38683,288.3126)"/>
<path transform="matrix(1.00006,0,0,-1.00005,172.18518,171.88478)" stroke-width=".3985" stroke-linecap="butt" stroke-miterlimit="10" stroke-linejoin="miter" fill="none" stroke="#000000" d="M5.66927-85.04042H-5.66927"/>
<use data-text="-" xlink:href="#font_2_64" transform="matrix(8.966938,0,0,-8.966848,155.31118,259.81718)"/>
<use data-text="3" xlink:href="#font_2_106" transform="matrix(8.966938,0,0,-8.966848,158.38683,259.81718)"/>
<path transform="matrix(1.00006,0,0,-1.00005,172.18518,171.88478)" stroke-width=".3985" stroke-linecap="butt" stroke-miterlimit="10" stroke-linejoin="miter" fill="none" stroke="#000000" d="M5.66927-56.69362H-5.66927"/>
<use data-text="-" xlink:href="#font_2_64" transform="matrix(8.966938,0,0,-8.966848,155.31118,231.56676)"/>
<use data-text="2" xlink:href="#font_2_107" transform="matrix(8.966938,0,0,-8.966848,158.38683,231.56676)"/>
<path transform="matrix(1.00006,0,0,-1.00005,172.18518,171.88478)" stroke-width=".3985" stroke-linecap="butt" stroke-miterlimit="10" stroke-linejoin="miter" fill="none" stroke="#000000" d="M5.66927-28.3468H-5.66927"/>
<use data-text="-" xlink:href="#font_2_64" transform="matrix(8.966938,0,0,-8.966848,155.31118,203.21935)"/>
<use data-text="1" xlink:href="#font_2_82" transform="matrix(8.966938,0,0,-8.966848,158.38683,203.21935)"/>
<path transform="matrix(1.00006,0,0,-1.00005,172.18518,171.88478)" stroke-width=".3985" stroke-linecap="butt" stroke-miterlimit="10" stroke-linejoin="miter" fill="none" stroke="#000000" d="M5.66927 28.3468H-5.66927"/>
<use data-text="1" xlink:href="#font_2_82" transform="matrix(8.966938,0,0,-8.966848,158.38636,146.52252)"/>
<path transform="matrix(1.00006,0,0,-1.00005,172.18518,171.88478)" stroke-width=".3985" stroke-linecap="butt" stroke-miterlimit="10" stroke-linejoin="miter" fill="none" stroke="#000000" d="M5.66927 56.69362H-5.66927"/>
<use data-text="2" xlink:href="#font_2_107" transform="matrix(8.966938,0,0,-8.966848,158.38636,118.1741)"/>
<path transform="matrix(1.00006,0,0,-1.00005,172.18518,171.88478)" stroke-width=".3985" stroke-linecap="butt" stroke-miterlimit="10" stroke-linejoin="miter" fill="none" stroke="#000000" d="M5.66927 85.04042H-5.66927"/>
<use data-text="3" xlink:href="#font_2_106" transform="matrix(8.966938,0,0,-8.966848,158.38636,89.72768)"/>
<path transform="matrix(1.00006,0,0,-1.00005,172.18518,171.88478)" stroke-width=".3985" stroke-linecap="butt" stroke-miterlimit="10" stroke-linejoin="miter" fill="none" stroke="#000000" d="M5.66927 113.38724H-5.66927"/>
<use data-text="4" xlink:href="#font_2_57" transform="matrix(8.966938,0,0,-8.966848,158.38636,61.527276)"/>
<path transform="matrix(1.00006,0,0,-1.00005,172.18518,171.88478)" stroke-width=".3985" stroke-linecap="butt" stroke-miterlimit="10" stroke-linejoin="miter" fill="none" stroke="#000000" d="M5.66927 141.73404H-5.66927"/>
<use data-text="5" xlink:href="#font_2_56" transform="matrix(8.966938,0,0,-8.966848,158.38636,33.030839)"/>
<use data-text="0" xlink:href="#font_3_121" transform="matrix(9.963197,0,0,-9.963098,164.02469,187.70957)"/>
</svg>
