<svg xmlns="http://www.w3.org/2000/svg" xmlns:xlink="http://www.w3.org/1999/xlink" xmlns:inkscape="http://www.inkscape.org/namespaces/inkscape" version="1.1" width="190" height="133" viewBox="0 0 190 133">
<path transform="matrix(1.00003,0,0,-1.00005,45.949815,87.04155)" stroke-width=".79701" stroke-linecap="butt" stroke-miterlimit="10" stroke-linejoin="miter" fill="none" stroke="#000000" d="M0 0H141.73404V85.04042H0Z"/>
<path transform="matrix(1.00003,0,0,-1.00005,45.949815,87.04155)" stroke-width=".79701" stroke-linecap="butt" stroke-miterlimit="10" stroke-linejoin="miter" fill="none" stroke="#000000" d="M-43.65344-43.65344H98.08058V41.38696H-43.65344Z"/>
<path transform="matrix(1.00003,0,0,-1.00005,45.949815,87.04155)" stroke-width=".79701" stroke-linecap="butt" stroke-miterlimit="10" stroke-linejoin="miter" fill="none" stroke="#000000" d="M0 0-43.65344-43.65344"/>
<path transform="matrix(1.00003,0,0,-1.00005,45.949815,87.04155)" stroke-width=".79701" stroke-linecap="butt" stroke-miterlimit="10" stroke-linejoin="miter" fill="none" stroke="#000000" d="M141.73404 0 98.08058-43.65344"/>
<path transform="matrix(1.00003,0,0,-1.00005,45.949815,87.04155)" stroke-width=".79701" stroke-linecap="butt" stroke-miterlimit="10" stroke-linejoin="miter" fill="none" stroke="#000000" d="M141.73404 85.04042 98.08058 41.38696"/>
<path transform="matrix(1.00003,0,0,-1.00005,45.949815,87.04155)" stroke-width=".79701" stroke-linecap="butt" stroke-miterlimit="10" stroke-linejoin="miter" fill="none" stroke="#000000" d="M0 85.04042-43.65344 41.38696"/>
<path transform="matrix(1.00003,0,0,-1.00005,45.949815,87.04155)" stroke-width=".3985" stroke-linecap="butt" stroke-dasharray="2.98883,2.98883" stroke-miterlimit="10" stroke-linejoin="miter" fill="none" stroke="#000000" d="M99.21382 42.5202C99.21382 58.17592 86.52272 70.867 70.867 70.867 55.2113 70.867 42.5202 58.17592 42.5202 42.5202 42.5202 26.86449 55.2113 14.17339 70.867 14.17339 86.52272 14.17339 99.21382 26.86449 99.21382 42.5202ZM70.867 42.5202"/>
<path transform="matrix(1.00003,0,0,-1.00005,45.949815,87.04155)" stroke-width=".79701" stroke-linecap="butt" stroke-miterlimit="10" stroke-linejoin="miter" fill="none" stroke="#000000" d="M55.56036-1.13324C55.56036 14.52246 42.86926 27.21356 27.21356 27.21356 11.55785 27.21356-1.13324 14.52246-1.13324-1.13324-1.13324-16.78896 11.55785-29.48004 27.21356-29.48004 42.86926-29.48004 55.56036-16.78896 55.56036-1.13324ZM27.21356-1.13324"/>
<path transform="matrix(1.00003,0,0,-1.00005,45.949815,87.04155)" stroke-width=".79701" stroke-linecap="butt" stroke-miterlimit="10" stroke-linejoin="miter" fill="none" stroke="#000000" d="M42.5202 42.5202-1.13324-1.13324"/>
<path transform="matrix(1.00003,0,0,-1.00005,45.949815,87.04155)" stroke-width=".79701" stroke-linecap="butt" stroke-miterlimit="10" stroke-linejoin="miter" fill="none" stroke="#000000" d="M99.21382 42.5202 55.56036-1.13324"/>
</svg>
