<svg xmlns="http://www.w3.org/2000/svg" xmlns:xlink="http://www.w3.org/1999/xlink" xmlns:inkscape="http://www.inkscape.org/namespaces/inkscape" version="1.1" width="85" height="68" viewBox="0 0 85 68">
<defs>
<path id="font_1_62" d="M.7509918 0V.032989503H.72898867C.6519928 .032989503 .6499939 .04399109 .6499939 .08097839V.60165408C.6499939 .63861086 .6519928 .6496124 .72898867 .6496124H.7509918V.6826172L.60398867 .6796112 .45700074 .6826172V.6496124H.47898866C.55599978 .6496124 .55799868 .63861086 .55799868 .60165408V.3718567H.23699951V.60165408C.23699951 .63861086 .23899842 .6496124 .31599427 .6496124H.33799745V.6826172L.19099427 .6796112 .04399109 .6826172V.6496124H.06599426C.14299011 .6496124 .14498902 .63861086 .14498902 .60165408V.08097839C.14498902 .04399109 .14299011 .032989503 .06599426 .032989503H.04399109V0L.19099427 .0029907227 .33799745 0V.032989503H.31599427C.23899842 .032989503 .23699951 .04399109 .23699951 .08097839V.3388672H.55799868V.08097839C.55799868 .04399109 .55599978 .032989503 .47898866 .032989503H.45700074V0L.60398867 .0029907227 .7509918 0Z"/>
<path id="font_1_104" d="M.7279968 .44877626 .70799258 .67578127H.057998659L.037994386 .44877626H.068984989C.08299255 .61776736 .10598755 .6427765 .25898744 .6427765 .27799989 .6427765 .30899049 .6427765 .31698609 .6407776 .33599855 .6367798 .33699037 .6267853 .33699037 .6017914V.081970218C.33699037 .04698181 .33699037 .032989503 .23298645 .032989503H.19499207V0C.23199463 .0029907227 .33999635 .0029907227 .3829956 .0029907227 .42599488 .0029907227 .5339966 .0029907227 .57099917 0V.032989503H.5329895C.42900086 .032989503 .42900086 .04698181 .42900086 .081970218V.6017914C.42900086 .6247864 .42900086 .6367798 .44999696 .6407776 .45899964 .6427765 .48799134 .6427765 .5069885 .6427765 .6599884 .6427765 .68299868 .61776736 .69699099 .44877626H.7279968Z"/>
<path id="font_2_1" d="M.397995 .63591006C.397995 .6660156 .394989 .6660156 .3619995 .6660156 .29100038 .6016083 .17999268 .6016083 .1599884 .6016083H.14299011V.5576172H.1599884C.18299866 .5576172 .24798584 .5606079 .30599977 .58561709V.08596802C.30599977 .054977418 .30599977 .04399109 .19999695 .04399109H.1499939V0C.20498657 .0039978029 .2939911 .0039978029 .35198976 .0039978029 .4099884 .0039978029 .49899293 .0039978029 .55400088 0V.04399109H.5039978C.397995 .04399109 .397995 .054977418 .397995 .08596802V.63591006Z"/>
<path id="font_2_2" d="M.58898928 .19296265H.5469971C.5439911 .17396546 .5339966 .11198425 .5179901 .101989749 .5099945 .09599304 .42599488 .09599304 .41099549 .09599304H.21499634C.2809906 .14497376 .35499574 .20095825 .4149933 .24093628 .5049896 .30291749 .58898928 .36090089 .58898928 .46687318 .58898928 .59495547 .46798707 .6660156 .32499696 .6660156 .18998719 .6660156 .09098816 .58795168 .09098816 .48986817 .09098816 .4378662 .1349945 .42886354 .14898682 .42886354 .17599488 .42886354 .20799256 .4468689 .20799256 .48786927 .20799256 .52386477 .18199158 .543869 .15098572 .546875 .1789856 .59194949 .23699951 .6220093 .3039856 .6220093 .40098573 .6220093 .48199464 .5639038 .48199464 .4658661 .48199464 .3818817 .42399598 .31791688 .34700013 .2529297L.102996829 .04598999C.09298706 .036987306 .09199524 .036987306 .09098816 .02999878V0H.55599978L.58898928 .19296265Z"/>
</defs>
<path transform="matrix(1.00005,0,0,-1.00009,5.113304,33.825605)" stroke-width=".79701" stroke-linecap="butt" stroke-miterlimit="10" stroke-linejoin="miter" fill="none" stroke="#000000" d="M2.81807 0C2.81807 1.55638 1.55638 2.81807 0 2.81807-1.55638 2.81807-2.81807 1.55638-2.81807 0-2.81807-1.55638-1.55638-2.81807 0-2.81807 1.55638-2.81807 2.81807-1.55638 2.81807 0ZM0 0"/>
<path transform="matrix(1.00005,0,0,-1.00009,5.113304,33.825605)" stroke-width=".3985" stroke-linecap="butt" stroke-miterlimit="10" stroke-linejoin="miter" fill="none" stroke="#000000" d="M41.01138-17.00798C41.01138-13.14452 37.8795-10.01263 34.01605-10.01263 30.15259-10.01263 27.0207-13.14452 27.0207-17.00798 27.0207-20.87144 30.15259-24.00333 34.01605-24.00333 37.8795-24.00333 41.01138-20.87144 41.01138-17.00798ZM34.01605-17.00798"/>
<use data-text="H" xlink:href="#font_1_62" transform="matrix(7.970498,0,0,-7.970817,35.958848,53.55738)"/>
<path transform="matrix(1.00005,0,0,-1.00009,5.113304,33.825605)" stroke-width=".79701" stroke-linecap="butt" stroke-miterlimit="10" stroke-linejoin="miter" fill="none" stroke="#000000" d="M2.8822-1.44109 27.5826-13.79132"/>
<path transform="matrix(1.00005,0,0,-1.00009,5.113304,33.825605)" stroke-width=".79701" stroke-linecap="butt" stroke-miterlimit="10" stroke-linejoin="miter" fill="none" stroke="#000000" d="M77.5123-11.33844C77.5123-6.1026 73.26793-1.85823 68.0321-1.85823 62.79626-1.85823 58.5519-6.1026 58.5519-11.33844 58.5519-16.57426 62.79626-20.81863 68.0321-20.81863 73.26793-20.81863 77.5123-16.57426 77.5123-11.33844ZM68.0321-11.33844"/>
<use data-text="H" xlink:href="#font_1_62" transform="matrix(7.970498,0,0,-7.970817,66.91939,47.88687)"/>
<use data-text="T" xlink:href="#font_1_104" transform="matrix(7.970498,0,0,-7.970817,73.2639,47.88687)"/>
<path transform="matrix(1.00005,0,0,-1.00009,5.113304,33.825605)" stroke-width=".79701" stroke-linecap="butt" stroke-miterlimit="10" stroke-linejoin="miter" fill="none" stroke="#000000" d="M41.1173-15.83006 58.48665-12.93442"/>
<use data-text="1" xlink:href="#font_2_1" transform="matrix(4.981549,0,0,-4.981748,53.222707,53.8114)"/>
<path transform="matrix(1.00005,0,0,-1.00009,-34.090658,38.658037)" stroke-width=".3387" stroke-linecap="butt" stroke-miterlimit="10" stroke-linejoin="miter" fill="none" stroke="#000000" d="M87.309-16.086H90.699"/>
<use data-text="2" xlink:href="#font_2_2" transform="matrix(4.981549,0,0,-4.981748,53.222707,58.889856)"/>
<path transform="matrix(1.00005,0,0,-1.00009,5.113304,33.825605)" stroke-width=".79701" stroke-linecap="butt" stroke-miterlimit="10" stroke-linejoin="miter" fill="none" stroke="#000000" d="M77.60254-22.67744C77.60254-17.39177 73.31776-13.107 68.0321-13.107 62.74643-13.107 58.46167-17.39177 58.46167-22.67744 58.46167-27.9631 62.74643-32.24788 68.0321-32.24788 73.31776-32.24788 77.60254-27.9631 77.60254-22.67744ZM68.0321-22.67744"/>
<use data-text="H" xlink:href="#font_1_62" transform="matrix(7.970498,0,0,-7.970817,66.80438,59.22689)"/>
<use data-text="H" xlink:href="#font_1_62" transform="matrix(7.970498,0,0,-7.970817,73.148899,59.22689)"/>
<path transform="matrix(1.00005,0,0,-1.00009,5.113304,33.825605)" stroke-width=".79701" stroke-linecap="butt" stroke-miterlimit="10" stroke-linejoin="miter" fill="none" stroke="#000000" d="M41.1173-18.1859 58.39767-21.06657"/>
<use data-text="1" xlink:href="#font_2_1" transform="matrix(4.981549,0,0,-4.981748,53.178709,45.984697)"/>
<path transform="matrix(1.00005,0,0,-1.00009,-34.134656,30.831334)" stroke-width=".3387" stroke-linecap="butt" stroke-miterlimit="10" stroke-linejoin="miter" fill="none" stroke="#000000" d="M87.309-16.086H90.699"/>
<use data-text="2" xlink:href="#font_2_2" transform="matrix(4.981549,0,0,-4.981748,53.178709,51.063158)"/>
<use data-text="1" xlink:href="#font_2_1" transform="matrix(4.981549,0,0,-4.981748,18.651978,47.044794)"/>
<path transform="matrix(1.00005,0,0,-1.00009,-68.661388,31.89143)" stroke-width=".3387" stroke-linecap="butt" stroke-miterlimit="10" stroke-linejoin="miter" fill="none" stroke="#000000" d="M87.309-16.086H90.699"/>
<use data-text="2" xlink:href="#font_2_2" transform="matrix(4.981549,0,0,-4.981748,18.651978,52.123254)"/>
<path transform="matrix(1.00005,0,0,-1.00009,5.113304,33.825605)" stroke-width=".3985" stroke-linecap="butt" stroke-miterlimit="10" stroke-linejoin="miter" fill="none" stroke="#000000" d="M40.89124 17.00807C40.89124 20.80518 37.81316 23.88326 34.01605 23.88326 30.21895 23.88326 27.14085 20.80518 27.14085 17.00807 27.14085 13.21097 30.21895 10.13289 34.01605 10.13289 37.81316 10.13289 40.89124 13.21097 40.89124 17.00807ZM34.01605 17.00807"/>
<use data-text="T" xlink:href="#font_1_104" transform="matrix(7.970498,0,0,-7.970817,36.073854,19.510315)"/>
<path transform="matrix(1.00005,0,0,-1.00009,5.113304,33.825605)" stroke-width=".79701" stroke-linecap="butt" stroke-miterlimit="10" stroke-linejoin="miter" fill="none" stroke="#000000" d="M2.8822 1.4411 27.69005 13.84515"/>
<path transform="matrix(1.00005,0,0,-1.00009,5.113304,33.825605)" stroke-width=".79701" stroke-linecap="butt" stroke-miterlimit="10" stroke-linejoin="miter" fill="none" stroke="#000000" d="M77.379 22.67761C77.379 27.83983 73.1943 32.02452 68.0321 32.02452 62.86989 32.02452 58.6852 27.83983 58.6852 22.67761 58.6852 17.51541 62.86989 13.33072 68.0321 13.33072 73.1943 13.33072 77.379 17.51541 77.379 22.67761ZM68.0321 22.67761"/>
<use data-text="T" xlink:href="#font_1_104" transform="matrix(7.970498,0,0,-7.970817,67.0354,13.839806)"/>
<use data-text="T" xlink:href="#font_1_104" transform="matrix(7.970498,0,0,-7.970817,73.14877,13.839806)"/>
<path transform="matrix(1.00005,0,0,-1.00009,5.113304,33.825605)" stroke-width=".79701" stroke-linecap="butt" stroke-miterlimit="10" stroke-linejoin="miter" fill="none" stroke="#000000" d="M40.99876 18.1664 58.61812 21.10356"/>
<use data-text="1" xlink:href="#font_2_1" transform="matrix(4.981549,0,0,-4.981748,53.229707,19.79134)"/>
<path transform="matrix(1.00005,0,0,-1.00009,-34.083658,4.6379768)" stroke-width=".3387" stroke-linecap="butt" stroke-miterlimit="10" stroke-linejoin="miter" fill="none" stroke="#000000" d="M87.309-16.086H90.699"/>
<use data-text="2" xlink:href="#font_2_2" transform="matrix(4.981549,0,0,-4.981748,53.229707,24.869797)"/>
<path transform="matrix(1.00005,0,0,-1.00009,5.113304,33.825605)" stroke-width=".79701" stroke-linecap="butt" stroke-miterlimit="10" stroke-linejoin="miter" fill="none" stroke="#000000" d="M77.5123 11.33862C77.5123 16.57445 73.26793 20.81882 68.0321 20.81882 62.79626 20.81882 58.5519 16.57445 58.5519 11.33862 58.5519 6.10278 62.79626 1.85841 68.0321 1.85841 73.26793 1.85841 77.5123 6.10278 77.5123 11.33862ZM68.0321 11.33862"/>
<use data-text="T" xlink:href="#font_1_104" transform="matrix(7.970498,0,0,-7.970817,66.91939,25.207829)"/>
<use data-text="H" xlink:href="#font_1_62" transform="matrix(7.970498,0,0,-7.970817,73.03276,25.207829)"/>
<path transform="matrix(1.00005,0,0,-1.00009,5.113304,33.825605)" stroke-width=".79701" stroke-linecap="butt" stroke-miterlimit="10" stroke-linejoin="miter" fill="none" stroke="#000000" d="M40.99876 15.84984 58.48665 12.9346"/>
<use data-text="1" xlink:href="#font_2_1" transform="matrix(4.981549,0,0,-4.981748,53.163705,11.962637)"/>
<path transform="matrix(1.00005,0,0,-1.00009,-34.14966,-3.1907273)" stroke-width=".3387" stroke-linecap="butt" stroke-miterlimit="10" stroke-linejoin="miter" fill="none" stroke="#000000" d="M87.309-16.086H90.699"/>
<use data-text="2" xlink:href="#font_2_2" transform="matrix(4.981549,0,0,-4.981748,53.163705,17.041094)"/>
<use data-text="1" xlink:href="#font_2_1" transform="matrix(4.981549,0,0,-4.981748,18.705986,18.712243)"/>
<path transform="matrix(1.00005,0,0,-1.00009,-68.607379,3.558879)" stroke-width=".3387" stroke-linecap="butt" stroke-miterlimit="10" stroke-linejoin="miter" fill="none" stroke="#000000" d="M87.309-16.086H90.699"/>
<use data-text="2" xlink:href="#font_2_2" transform="matrix(4.981549,0,0,-4.981748,18.705986,23.790699)"/>
</svg>
