<svg xmlns="http://www.w3.org/2000/svg" xmlns:xlink="http://www.w3.org/1999/xlink" xmlns:inkscape="http://www.inkscape.org/namespaces/inkscape" version="1.1" width="145" height="102" viewBox="0 0 145 102">
<defs>
<path id="font_1_82" d="M.4099884 0V.0289917H.3789978C.29100038 .0289917 .28799439 .041000368 .28799439 .07701111V.6411133C.28799439 .664032 .28799439 .66503909 .2679901 .66503909 .24398804 .63812258 .19400025 .6012573 .09098816 .6012573V.5722656C.11399841 .5722656 .1639862 .5722656 .21899414 .59825137V.07701111C.21899414 .041000368 .21598816 .0289917 .12799073 .0289917H.09700012V0C.12399292 .0019989014 .22099304 .0019989014 .2539978 .0019989014 .2869873 .0019989014 .3829956 .0019989014 .4099884 0Z"/>
<path id="font_1_57" d="M.46199037 .16699219V.19598389H.36099244V.6508026C.36099244 .6697998 .36099244 .6748047 .34700013 .6748047 .33898927 .6748047 .33599855 .6748047 .32798768 .6628113L.026992798 .19598389V.16699219H.2899933V.07598877C.2899933 .038986207 .28799439 .0289917 .21499634 .0289917H.19499207V0C.21798706 .0019989014 .29699708 .0019989014 .32499696 .0019989014 .35299684 .0019989014 .43299867 .0019989014 .45599366 0V.0289917H.43598939C.3639984 .0289917 .36099244 .038986207 .36099244 .07598877V.16699219H.46199037M.29499818 .19598389H.051986696L.29499818 .57284548V.19598389Z"/>
<path id="font_1_43" d="M.4059906 .1191864C.4059906 .12817383 .39898683 .12817383 .3959961 .12817383 .3869934 .12817383 .38598634 .1251831 .3829956 .1131897 .36099244 .04222107 .30699159 .01222229 .25299073 .01222229 .19198609 .01222229 .11099243 .065200809 .11099243 .21713257 .11099243 .3831482 .19599915 .4242859 .24598694 .4242859 .28399659 .4242859 .33898927 .40924073 .3619995 .3701172 .34999085 .3701172 .31298829 .3701172 .31298829 .32911683 .31298829 .30511476 .32998658 .28811646 .35398866 .28811646 .3769989 .28811646 .3959961 .30210877 .3959961 .33111573 .3959961 .39819337 .32598878 .44628907 .24499512 .44628907 .12799073 .44628907 .034988405 .34210206 .034988405 .21614075 .034988405 .0881958 .1309967-.009765625 .24398804-.009765625 .37599183-.009765625 .4059906 .110183719 .4059906 .1191864Z"/>
<path id="font_1_75" d="M.79299929 0V.0289917C.7429962 .0289917 .71798709 .0289917 .71699526 .059051515V.24342346C.71699526 .3365631 .71699526 .36450196 .69400027 .39640809 .6649933 .4353943 .6179962 .44140626 .58399966 .44140626 .5009918 .44140626 .45899964 .38145448 .44299317 .3425598 .42900086 .41940309 .375 .44140626 .31199647 .44140626 .21499634 .44140626 .1769867 .35850526 .16899109 .338562H.16799927V.44140626L.03199768 .4303589V.4013672C.099990848 .4013672 .10798645 .39437867 .10798645 .34553529V.07408142C.10798645 .0289917 .09700012 .0289917 .03199768 .0289917V0C.057998659 .0019989014 .11199951 .0019989014 .13999939 .0019989014 .16899109 .0019989014 .22299195 .0019989014 .24899292 0V.0289917C.18499756 .0289917 .17298889 .0289917 .17298889 .07408142V.26046754C.17298889 .36547853 .24198914 .4213562 .3039856 .4213562 .3659973 .4213562 .37998963 .37045289 .37998963 .3095703V.07408142C.37998963 .0289917 .36898805 .0289917 .3039856 .0289917V0C.32998658 .0019989014 .38398744 .0019989014 .4119873 .0019989014 .44099427 .0019989014 .49499513 .0019989014 .5209961 0V.0289917C.45700074 .0289917 .44499208 .0289917 .44499208 .07408142V.26046754C.44499208 .36547853 .5139923 .4213562 .57598879 .4213562 .6380005 .4213562 .6519928 .37045289 .6519928 .3095703V.07408142C.6519928 .0289917 .6409912 .0289917 .57598879 .0289917V0C.60198977 .0019989014 .6559906 .0019989014 .6839905 .0019989014 .71299746 .0019989014 .7669983 .0019989014 .79299929 0Z"/>
<path id="font_1_106" d="M.44799806 .17103577C.44799806 .263031 .37399293 .33503724 .27799989 .35203553 .36499024 .37702943 .42099 .45002748 .42099 .5280304 .42099 .60702517 .33898927 .66503909 .24198914 .66503909 .14199829 .66503909 .067993167 .6040344 .067993167 .5310364 .067993167 .49121095 .09899902 .48321534 .11399841 .48321534 .1349945 .48321534 .15899658 .49821473 .15899658 .5282135 .15899658 .5602112 .1349945 .57421877 .11299133 .57421877 .10699463 .57421877 .10499573 .57421877 .101989749 .57321169 .13999939 .641037 .23399353 .641037 .23899842 .641037 .27198792 .641037 .33699037 .6260681 .33699037 .5282135 .33699037 .5092163 .33399964 .453125 .30499269 .41001893 .2749939 .3658905 .24099732 .36288453 .21398926 .36187745L.18399048 .35888673C.16699219 .35787965 .16299439 .35688783 .16299439 .34788514 .16299439 .33789063 .16799927 .33789063 .18598938 .33789063H.23199463C.31698609 .33789063 .35499574 .267807 .35499574 .17172241 .35499574 .04058838 .2869873 .005508423 .23799134 .005508423 .18998719 .005508423 .10798645 .028564454 .07899475 .09472656 .11099243 .08955383 .13999939 .107543949 .13999939 .14355469 .13999939 .17271424 .11898804 .1927185 .09098816 .1927185 .066986087 .1927185 .040985109 .1787262 .040985109 .14071656 .040985109 .051620485 .12998963-.021484375 .24099732-.021484375 .3600006-.021453858 .44799806 .06954956 .44799806 .17054749V.17103577Z"/>
</defs>
<path transform="matrix(1,0,0,-1.00006,67.575,30.14785)" d="M-28.3468-28.3468H28.3468V28.3468H-28.3468Z" fill="#90caf9"/>
<path transform="matrix(1,0,0,-1.00006,67.575,30.14785)" d="M-50.17352-50.17352H6.52008V6.52008H-50.17352Z" fill="#90caf9"/>
<path transform="matrix(1,0,0,-1.00006,67.575,30.14785)" d="M-28.3468-28.3468-50.17352-50.17352V6.52008L-28.3468 28.3468Z" fill="#90caf9" fill-opacity=".7"/>
<path transform="matrix(1,0,0,-1.00006,67.575,30.14785)" d="M28.3468-28.3468 6.52008-50.17352V6.52008L28.3468 28.3468Z" fill="#90caf9" fill-opacity=".7"/>
<path transform="matrix(1,0,0,-1.00006,67.575,30.14785)" stroke-width=".3985" stroke-linecap="butt" stroke-miterlimit="10" stroke-linejoin="miter" fill="none" stroke="#000000" d="M-28.3468-28.3468H28.3468V28.3468H-28.3468Z"/>
<path transform="matrix(1,0,0,-1.00006,67.575,30.14785)" stroke-width=".3985" stroke-linecap="butt" stroke-miterlimit="10" stroke-linejoin="miter" fill="none" stroke="#000000" d="M-50.17352-50.17352H6.52008V6.52008H-50.17352Z"/>
<path transform="matrix(1,0,0,-1.00006,67.575,30.14785)" stroke-width=".3985" stroke-linecap="butt" stroke-miterlimit="10" stroke-linejoin="miter" fill="none" stroke="#000000" d="M-28.3468-28.3468-50.17352-50.17352"/>
<path transform="matrix(1,0,0,-1.00006,67.575,30.14785)" stroke-width=".3985" stroke-linecap="butt" stroke-miterlimit="10" stroke-linejoin="miter" fill="none" stroke="#000000" d="M28.3468-28.3468 6.52008-50.17352"/>
<path transform="matrix(1,0,0,-1.00006,67.575,30.14785)" stroke-width=".3985" stroke-linecap="butt" stroke-miterlimit="10" stroke-linejoin="miter" fill="none" stroke="#000000" d="M28.3468 28.3468 6.52008 6.52008"/>
<path transform="matrix(1,0,0,-1.00006,67.575,30.14785)" stroke-width=".3985" stroke-linecap="butt" stroke-miterlimit="10" stroke-linejoin="miter" fill="none" stroke="#000000" d="M-28.3468 28.3468-50.17352 6.52008"/>
<path transform="matrix(1,0,0,-1.00006,67.575,30.14785)" d="M-50.17352-50.17352-65.48018-65.48018 6.52008-50.17352Z" fill="#ffb74d"/>
<path transform="matrix(1,0,0,-1.00006,67.575,30.14785)" d="M-50.17352 6.52008-65.48018-65.48018 6.52008 6.52008Z" fill="#ffb74d" fill-opacity=".7"/>
<path transform="matrix(1,0,0,-1.00006,67.575,30.14785)" d="M-50.17352-50.17352-65.48018-65.48018-50.17352 6.52008Z" fill="#ffb74d" fill-opacity=".7"/>
<path transform="matrix(1,0,0,-1.00006,67.575,30.14785)" d="M6.52008-50.17352-65.48018-65.48018 6.52008 6.52008Z" fill="#ffb74d" fill-opacity=".7"/>
<path transform="matrix(1,0,0,-1.00006,67.575,30.14785)" stroke-width=".3985" stroke-linecap="butt" stroke-miterlimit="10" stroke-linejoin="miter" fill="none" stroke="#000000" d="M-50.17352-50.17352-65.48018-65.48018 6.52008-50.17352"/>
<path transform="matrix(1,0,0,-1.00006,67.575,30.14785)" stroke-width=".3985" stroke-linecap="butt" stroke-miterlimit="10" stroke-linejoin="miter" fill="none" stroke="#000000" d="M-50.17352 6.52008-65.48018-65.48018 6.52008 6.52008"/>
<path transform="matrix(1,0,0,-1.00006,67.575,30.14785)" stroke-width=".3985" stroke-linecap="butt" stroke-dasharray="2.98883,2.98883" stroke-miterlimit="10" stroke-linejoin="miter" fill="none" stroke="#000000" d="M-65.48018-65.48018-21.82672-21.82672"/>
<path transform="matrix(1,0,0,-1.00006,67.575,30.14785)" stroke-width=".3985" stroke-linecap="butt" stroke-miterlimit="10" stroke-linejoin="miter" fill="none" stroke="#000000" d="M42.5202-27.9483V27.9483"/>
<path transform="matrix(0,1.00006,1,0,110.0952,58.29709)" stroke-width=".3985" stroke-linecap="round" stroke-linejoin="round" fill="none" stroke="#000000" d="M-2.07224 2.39104C-1.69365 .95639-.84999 .27895 0 0-.84999-.27895-1.69365-.95639-2.07224-2.39104"/>
<path transform="matrix(0,-1.00006,-1,-0,110.0952,1.9986115)" stroke-width=".3985" stroke-linecap="round" stroke-linejoin="round" fill="none" stroke="#000000" d="M-2.07224 2.39104C-1.69365 .95639-.84999 .27895 0 0-.84999-.27895-1.69365-.95639-2.07224-2.39104"/>
<use data-text="1" xlink:href="#font_1_82" transform="matrix(11.9552,0,0,-11.955917,113.615,34.12309)"/>
<use data-text="4" xlink:href="#font_1_57" transform="matrix(11.9552,0,0,-11.955917,119.473049,34.12309)"/>
<use data-text="c" xlink:href="#font_1_43" transform="matrix(11.9552,0,0,-11.955917,129.22849,34.12309)"/>
<use data-text="m" xlink:href="#font_1_75" transform="matrix(11.9552,0,0,-11.955917,134.42902,34.12309)"/>
<path transform="matrix(1,0,0,-1.00006,67.575,30.14785)" stroke-width=".3985" stroke-linecap="butt" stroke-miterlimit="10" stroke-linejoin="miter" fill="none" stroke="#000000" d="M31.32506 17.15166-55.41827-69.59167"/>
<path transform="matrix(.7071,-.70714238,-.7071,-.70714238,99.04094,12.854273)" stroke-width=".3985" stroke-linecap="round" stroke-linejoin="round" fill="none" stroke="#000000" d="M-2.07224 2.39104C-1.69365 .95639-.84999 .27895 0 0-.84999-.27895-1.69365-.95639-2.07224-2.39104"/>
<path transform="matrix(-.7071,.70714238,.7071,.70714238,12.015839,99.88459)" stroke-width=".3985" stroke-linecap="round" stroke-linejoin="round" fill="none" stroke="#000000" d="M-2.07224 2.39104C-1.69365 .95639-.84999 .27895 0 0-.84999-.27895-1.69365-.95639-2.07224-2.39104"/>
<use data-text="3" xlink:href="#font_1_106" transform="matrix(11.9552,0,0,-11.955917,53.591997,71.34632)"/>
<use data-text="3" xlink:href="#font_1_106" transform="matrix(11.9552,0,0,-11.955917,59.450044,71.34632)"/>
<use data-text="c" xlink:href="#font_1_43" transform="matrix(11.9552,0,0,-11.955917,69.20549,71.34632)"/>
<use data-text="m" xlink:href="#font_1_75" transform="matrix(11.9552,0,0,-11.955917,74.406009,71.34632)"/>
</svg>
