<svg xmlns="http://www.w3.org/2000/svg" xmlns:xlink="http://www.w3.org/1999/xlink" xmlns:inkscape="http://www.inkscape.org/namespaces/inkscape" version="1.1" width="262" height="331" viewBox="0 0 262 331">
<defs>
<path id="font_1_76" d="M.8809967 .63653567V.6855469C.81599429 .6826172 .7879944 .6826172 .7449951 .6826172 .70098879 .6825409 .673996 .6825409 .60798647 .6855469V.63653567H.6339874C.6609955 .63661196 .6629944 .63661196 .68699648 .63360598 .71499636 .63061526 .71598818 .62960818 .71598818 .607605V.20561219L.30699159 .6726074C.29599 .6855469 .2939911 .6855469 .272995 .6855469H.041992189V.63653567H.1499939V.07791138C.1499939 .055923463 .14898682 .05491638 .12098694 .05192566 .09700012 .04899597 .09498596 .04899597 .067993167 .04899597H.041992189V0C.10699463 .0029296876 .1349945 .0029296876 .17799378 .0029296876 .22200012 .0029907227 .24899292 .0029907227 .31498719 0V.04899597H.2889862C.2619934 .048919679 .2599945 .048919679 .23599243 .05192566 .20799256 .05491638 .20698548 .055923463 .20698548 .077926639V.592926L.71499636 .012924194C.7259979 0 .7299957 0 .74398806 0 .772995 0 .772995 .010986328 .772995 .032989503V.60762026C.772995 .62960818 .7739868 .63061526 .8019867 .63360598 .82598879 .63653567 .8279877 .63653567 .8549957 .63653567H.8809967Z"/>
<path id="font_1_109" d="M.6299896 0V.04899597C.56999209 .04899597 .56199648 .04899597 .56199648 .088012699V.4501953L.3769989 .4423828V.39337159C.43699647 .39337159 .44499208 .39337159 .44499208 .35437013V.16433716C.44499208 .08433533 .3929901 .03413391 .31599427 .03413391 .23899842 .03413391 .23498535 .056259157 .23498535 .10932922V.4501953L.049987794 .4423828V.39337159C.10998535 .39337159 .117996219 .39337159 .117996219 .35437013V.12333679C.117996219 .014129639 .20399475-.005859375 .30099488-.005859375 .33198548-.005859375 .3999939-.005859375 .45098878 .06933594V-.005859375L.6299896 0Z"/>
<path id="font_1_75" d="M.95899966-.0002746582V.048721315H.8909912V.30471803C.8909912 .42271424 .81999209 .4497223 .7319946 .4497223 .6279907 .4497223 .57699587 .38671876 .55799868 .3557129 .5359955 .4457245 .44799806 .4497223 .4039917 .4497223 .27999879 .4497223 .23098755 .35972596 .22399903 .34472657H.22299195V.4497223L.049987794 .44172669V.39271546C.10998535 .39271546 .117996219 .39271546 .117996219 .353714V.048721315H.049987794V-.0002746582L.17599488 .0027160645 .30299378-.0002746582V.048721315H.23498535V.25372315C.23498535 .36471559 .32699586 .40971376 .3869934 .40971376 .4249878 .40971376 .44599916 .38972474 .44599916 .3137207V.048721315H.37799073V-.0002746582L.5039978 .0027160645 .6309967-.0002746582V.048721315H.5629883V.25372315C.5629883 .36471559 .6549988 .40971376 .71499636 .40971376 .7529907 .40971376 .7739868 .38972474 .7739868 .3137207V.048721315H.70599368V-.0002746582L.83200076 .0027160645 .95899966-.0002746582Z"/>
<path id="font_1_35" d="M.61698916 .22207642C.61698916 .35716249 .519989 .4501953 .37199403 .4501953 .2919922 .4501953 .23899842 .41618348 .21998596 .4021759V.69433596L.040985109 .6863251V.6373291C.100997928 .6373291 .10899353 .6373291 .10899353 .5982971V0H.1599884L.20698548 .056991579C.23899842 .025131226 .28799439-.005859375 .35899354-.005859375 .5149994-.005859375 .61698916 .088134769 .61698916 .22216797V.22207642M.48399354 .22416687C.48399354 .18215943 .48399354 .13014221 .46299745 .09414673 .42999269 .038131715 .36898805 .03413391 .34899903 .03413391 .2869873 .03413391 .24699402 .072143558 .22599793 .104141239V.34617616C.25099183 .3781891 .29899598 .41018678 .3600006 .41018678 .48399354 .41018678 .48399354 .2901764 .48399354 .22416687Z"/>
<path id="font_1_50" d="M.5089874 .11605835C.5089874 .13604737 .4889984 .13604737 .48298646 .13604737 .46499635 .13604737 .46299745 .13005066 .45700074 .11605835 .43399049 .06410217 .37298585 .037139894 .30999757 .037139894 .16799927 .037139894 .1659851 .16601563 .1659851 .21496582H.47599793C.49699403 .21496582 .5089874 .21496582 .5089874 .2429657 .5089874 .26498414 .5069885 .35305787 .44198609 .4071045 .39698792 .4441223 .33699037 .453125 .28799439 .453125 .116989139 .453125 .032989503 .345047 .032989503 .22497559 .032989503 .09408569 .13198853-.005859375 .3019867-.005859375 .46699525-.005859375 .5089874 .1000824 .5089874 .11605835M.41099549 .25097657H.1659851C.16799927 .29701234 .17298889 .41311646 .28799439 .41311646 .40499879 .41311646 .40899659 .29100038 .41099549 .25097657Z"/>
<path id="font_1_96" d="M.45498658 .36618043C.45498658 .41719056 .40299989 .4501953 .34399415 .4501953 .27398683 .4501953 .23098755 .39918519 .20899964 .34118653H.20799256V.4501953L.040985109 .4423828V.39337159C.100997928 .39337159 .10899353 .39337159 .10899353 .3543396V.04899597H.040985109V0L.16899109 .0029907227C.19400025 .0029907227 .2519989 .0029907227 .30499269 0V.04899597H.21998596V.21818543C.21998596 .29125978 .24699402 .40737916 .34399415 .41036988 .33299256 .39898683 .32798768 .38198854 .32798768 .3659973 .32798768 .32199098 .36299134 .3019867 .3909912 .3019867 .4229889 .3019867 .45498658 .32398988 .45498658 .3659973V.36618043Z"/>
<path id="font_1_81" d="M.55799868 .21812439C.55799868 .3491211 .46598817 .453125 .29599 .453125 .11999512 .453125 .032989503 .3441162 .032989503 .21812439 .032989503 .09413147 .12298584-.005859375 .29499818-.005859375 .47399903-.005859375 .55799868 .09913635 .55799868 .21812439M.4249878 .22912598C.4249878 .14312744 .4249878 .037139894 .29599 .037139894 .1659851 .037139894 .1659851 .14213562 .1659851 .22912598 .1659851 .3131256 .1659851 .41311646 .29499818 .41311646 .4249878 .41311646 .4249878 .3131256 .4249878 .22912598Z"/>
<path id="font_1_55" d="M.45098878 .6111908C.45098878 .65615847 .4119873 .70014956 .33399964 .70014956 .22898865 .70014956 .12098694 .65515139 .12098694 .5432434V.44433595H.04399109V.3953247H.12098694V.04899597H.052993776V0L.18099976 .0029907227C.20599365 .0029907227 .2639923 .0029907227 .31698609 0V.04899597H.23199463V.3953247H.35099793V.44433595H.22599793V.5432434C.22599793 .65216067 .3039856 .66015627 .32899476 .66015627 .33198548 .66015627 .34199525 .65815737 .34199525 .65815737 .34199525 .65815737 .34199525 .65615847 .33999635 .65415957 .32899476 .6411438 .32398988 .6271515 .32398988 .611145 .32398988 .56915286 .35798646 .54714968 .3869934 .54714968 .41999818 .54714968 .45098878 .57115176 .45098878 .611145V.6111908Z"/>
<path id="font_1_54" d="M.69400027 .43711854 .6629944 .67985537H.041992189V.6308594H.1499939V.04899597H.041992189V0C.07699585 .0029907227 .18598938 .0029907227 .22799683 .0029907227 .2749939 .0029907227 .3889923 .0029907227 .42999269 0V.04899597H.29499818V.31622315H.34899903C.44599916 .31622315 .45498658 .27319337 .45498658 .1991272H.5059967V.48205567H.45498658C.45498658 .4081726 .44599916 .36523438 .34899903 .36523438H.29499818V.6308594H.44198609C.6029968 .6308594 .6279907 .555954 .6429901 .43711854H.69400027Z"/>
<path id="font_1_66" d="M.2919922 0V.04899597H.23098755V.4501953L.054992677 .4423828V.39337159C.11299133 .39337159 .11999512 .39337159 .11999512 .3543396V.04899597H.051986696V0C.11898804 .0019989014 .13198853 .0029907227 .17399597 .0029907227 .22299195 .0029907227 .23599243 .0019989014 .2919922 0M.24198914 .6053314C.24198914 .65234377 .20399475 .68434146 .1639862 .68434146 .12199402 .68434146 .085998538 .6503296 .085998538 .6063385 .085998538 .55934146 .12399292 .52734377 .1639862 .52734377 .20599365 .52734377 .24198914 .56134036 .24198914 .6053314Z"/>
<path id="font_1_105" d="M.3929901 .123184207V.1762085H.34199525V.12617493C.34199525 .055145265 .30599977 .037139894 .2809906 .037139894 .22299195 .037139894 .22299195 .09716797 .22299195 .1211853V.3953247H.37399293V.44433595H.22299195V.6357422H.17199707C.17098999 .5415344 .12399292 .43832398 .021987915 .43533326V.3953247H.10598755V.123184207C.10598755 .009140015 .20498657-.005859375 .2669983-.005859375 .34498597-.005859375 .3929901 .05014038 .3929901 .123184207Z"/>
<path id="font_1_98" d="M.4269867 .14027405C.4269867 .19128418 .397995 .22328186 .37998963 .23828125 .33499146 .27627564 .30299378 .28128053 .22399903 .294281 .17599488 .3022766 .11299133 .31228639 .11299133 .35728456 .11299133 .41711427 .20599365 .41711427 .22799683 .41711427 .33999635 .41711427 .34399415 .35827638 .34599305 .33128358 .34700013 .3173828 .36099244 .3173828 .37098695 .3173828 .3959961 .3173828 .39698792 .32237245 .39698792 .3463745V.42411805C.39698792 .4421234 .39698792 .453125 .3769989 .453125 .36698915 .453125 .35099793 .44511415 .33299256 .43511964 .30099488 .44911195 .2619934 .453125 .22898865 .453125 .19799805 .4532776 .038986207 .4532776 .038986207 .32128907 .038986207 .2162323 .16999817 .19421387 .20498657 .18821717 .2869873 .1742096 .35299684 .16320801 .35299684 .106170658 .35299684 .03413391 .25898744 .03413391 .23699951 .03413391 .18598938 .03413391 .12098694 .0471344 .09199524 .13919068 .08699036 .15620423 .085998538 .15919495 .06498718 .15919495 .038986207 .15919495 .038986207 .15319824 .038986207 .12918091V.023132325C.038986207 .005126953 .038986207-.005859375 .05899048-.005859375 .06599426-.005859375 .067993167-.005859375 .08999634 .008132935L.116989139 .025131226C.1639862-.005859375 .21699524-.005859375 .23699951-.005859375 .2669983-.005859375 .4269867-.005859375 .4269867 .1401825V.14027405Z"/>
<path id="font_1_97" d="M.58999636 .20326233C.58999636 .31129457 .5089874 .39413453 .4139862 .4141388L.2689972 .44514466C.16799927 .46714784 .16499329 .5341797 .16499329 .54818728 .16499329 .59521487 .19599915 .65322878 .29699708 .65322878 .45498658 .65322878 .49398805 .5451813 .5049896 .4791565 .5079956 .46315003 .5079956 .45814515 .5309906 .45814515 .55599978 .45814515 .5569916 .46315003 .5569916 .48716737V.6692352C.5569916 .6872406 .5569916 .6982422 .5369873 .6982422 .5279999 .6982422 .5269928 .6972351 .5149994 .6862335L.47099305 .64323428C.4149933 .6872406 .34999085 .6982422 .29599 .6982422 .13598633 .6982422 .06599426 .59721377 .06599426 .49716188 .06599426 .42514039 .10699463 .37913514 .115997318 .36914063 .17098999 .31428529 .20399475 .30729676 .30799867 .2853546 .32398988 .2823639 .33999635 .27937318 .35499574 .27539063 .4139862 .26338197 .43099977 .26037599 .46398927 .2263794 .46499635 .22436524 .4909973 .1972351 .4909973 .15322876 .4909973 .13323975 .4850006 .03727722 .35598756 .03727722 .29599 .03727722 .125 .04826355 .116989139 .20426941 .115997318 .22236634 .115997318 .2283783 .09199524 .2283783 .06599426 .2283783 .06599426 .22236634 .06599426 .19824219V.01727295C.06599426-.0007324219 .06599426-.01171875 .085998538-.01171875 .09399414-.011932373 .09599304-.011932373 .10499573-.0029296876 .11099243 .0010681152 .1329956 .026062012 .1519928 .04206848 .21299744-.0017242432 .3019867-.01171875 .35699464-.01171875 .526001-.01171875 .58999636 .10028076 .58999636 .20327759V.20326233Z"/>
<path id="font_1_72" d="M.29899598 0V.04899597H.23098755V.69433596L.051986696 .6855469V.63653567C.11199951 .63653567 .11999512 .63653567 .11999512 .5975647V.04899597H.051986696V0L.1749878 .0029907227 .29899598 0Z"/>
<path id="font_1_47" d="M.61499026 0V.04899597C.5549927 .04899597 .5469971 .04899597 .5469971 .088012699V.69433596L.36799623 .6855469V.63653567C.42799378 .63653567 .43598939 .63653567 .43598939 .5976715V.40518189C.3919983 .43719483 .34498597 .4501953 .29699708 .4501953 .13398743 .4501953 .038986207 .35118104 .038986207 .22216797 .038986207 .089141849 .1329956-.005859375 .2849884-.005859375 .34799195-.005859375 .397995 .018127442 .42999269 .044128419V-.005859375L.61499026 0M.42999269 .10899353C.4079895 .074142459 .3600006 .03413391 .29599 .03413391 .17199707 .03413391 .17199707 .15414429 .17199707 .22015381 .17199707 .27816773 .17298889 .32118226 .19898987 .3581848 .22499085 .39819337 .272995 .41018678 .30799867 .41018678 .35798646 .41018678 .39898683 .3881836 .42999269 .34918214V.10899353Z"/>
<path id="font_1_91" d="M.6159973-.19354248V-.14453125H.5479889V.4501953H.5029907L.45199586 .37217713C.4119873 .42118836 .3619995 .4501953 .29599 .4501953 .13899231 .4501953 .038986207 .35517884 .038986207 .22216797 .038986207 .089141849 .1349945-.005859375 .28599549-.005859375 .33898927-.005859375 .3909912 .013137817 .43099977 .0491333V-.14453125H.36299134V-.19354248L.4889984-.1905365 .6159973-.19354248M.43699647 .14814759C.43699647 .12915039 .43699647 .12814331 .4249878 .10914612 .3889923 .054138185 .33898927 .03413391 .29699708 .03413391 .22999573 .03413391 .17199707 .09414673 .17199707 .22116089 .17199707 .25315858 .1749878 .3061676 .20399475 .35017396 .24099732 .40518189 .29599 .4071808 .30799867 .4071808 .3889923 .4071808 .43699647 .32717896 .43699647 .27816773V.14814759Z"/>
<path id="font_1_77" d="M.6299896-.0002746582V.048721315H.56199648V.30471803C.56199648 .4237213 .48999024 .4497223 .40299989 .4497223 .27999879 .4497223 .23098755 .35972596 .22399903 .34472657H.22299195V.4497223L.049987794 .44172669V.39271546C.10998535 .39271546 .117996219 .39271546 .117996219 .353714V.048721315H.049987794V-.0002746582L.17599488 .0027160645 .30299378-.0002746582V.048721315H.23498535V.25372315C.23498535 .36572267 .32699586 .40971376 .3869934 .40971376 .4249878 .40971376 .44499208 .38871766 .44499208 .3137207V.048721315H.3769989V-.0002746582L.5029907 .0027160645 .6299896-.0002746582Z"/>
<path id="font_1_43" d="M.49198915 .11613464C.49198915 .13212586 .47698976 .13212586 .46598817 .13212586 .44599916 .13212586 .44599916 .13113404 .43798829 .11312866 .41799928 .06512451 .37298585 .037139894 .31399537 .037139894 .17199707 .037139894 .17199707 .18112183 .17199707 .22612 .17199707 .28611756 .17298889 .41011048 .3039856 .41011048 .31098939 .41011048 .36499024 .40911866 .36499024 .40411378L.3619995 .39912416C.35299684 .38812257 .34899903 .3721161 .34899903 .35812379 .34899903 .3171234 .37998963 .29312135 .4139862 .29312135 .44499208 .29312135 .47898866 .31411744 .47898866 .3591156 .47898866 .453125 .33898927 .453125 .2999878 .453125 .10798645 .453125 .038986207 .33111573 .038986207 .22212219 .038986207 .09613037 .1289978-.005859375 .29499818-.005859375 .33198548-.005859375 .3809967 .0001373291 .4229889 .026138306 .47999574 .06098938 .49198915 .11299133 .49198915 .115997318V.11613464Z"/>
<path id="font_1_118" d="M.59599307 .3953247V.44433595C.56799319 .44132997 .54299929 .44132997 .5149994 .44132997 .4850006 .44132997 .45399476 .44232179 .4249878 .44433595V.3953247C.4249878 .3953247 .46899415 .3953247 .46899415 .38331605 .46899415 .38331605 .46899415 .38131715 .46398927 .37130738L.34498597 .12709046 .21499634 .3953247H.2659912V.44433595L.14299011 .44132997C.10699463 .44132997 .08699036 .44132997 .027999878 .44433595V.3953247H.09098816L.2829895-.000015258789C.24798584-.082092288 .20999146-.16015625 .1329956-.16015625 .1269989-.16015625 .12098694-.16015625 .11399841-.15716553 .1309967-.14814759 .14299011-.13014221 .14299011-.1051178 .14299011-.06707764 .114990238-.045059205 .08299255-.045059205 .050994874-.045059205 .022994996-.06707764 .022994996-.1051178 .022994996-.15916443 .07299805-.2001648 .13198853-.2001648 .20999146-.2001648 .27198792-.14215088 .30299378-.0770874L.5219879 .37330628C.5289917 .38832093 .5329895 .3953247 .59599307 .3953247Z"/>
<path id="font_1_85" d="M.3929901-.23400879C.3929901-.22801209 .3899994-.2250061 .37799073-.2130127 .24699402-.0900116 .21099854 .08799744 .21099854 .25 .21099854 .4169922 .25 .59098818 .37399293 .71099856 .3919983 .7279968 .3929901 .72898867 .3929901 .7350006 .3929901 .746994 .38198854 .75 .37298585 .75 .35198976 .75 .29899598 .69999697 .28799439 .68899539 .18798828 .5950012 .10998535 .43998719 .10998535 .25 .10998535 .008987427 .23199463-.13800049 .28399659-.18701172 .2919922-.19400025 .35099793-.25 .37298585-.25 .3769989-.25 .3929901-.25 .3929901-.23400879Z"/>
<path id="font_1_46" d="M.83999636 .33776856C.83999636 .5496063 .69299319 .6855469 .48298646 .6855469H.041992189V.63653567H.1499939V.04899597H.041992189V0H.48399354C.68299868 0 .83999636 .12094116 .83999636 .33776856M.68899539 .33776856C.68899539 .24084473 .68899539 .04899597 .44198609 .04899597H.2889862V.63653567H.44099427C.519989 .63653567 .59399417 .611557 .6380005 .55659487 .6819916 .50064089 .68899539 .42970277 .68899539 .33776856Z"/>
<path id="font_1_28" d="M.56900027 .025131226C.56900027 .0491333 .5529938 .0491333 .54299929 .0491333 .47898866 .050125123 .47898866 .060134889 .47898866 .08413696V.29812623C.47898866 .38612367 .40699769 .453125 .25299073 .453125 .19599915 .453125 .067993167 .45111085 .067993167 .3591156 .067993167 .31411744 .101989749 .29312135 .1329956 .29312135 .16699219 .29312135 .19799805 .3171234 .19799805 .35812379 .19799805 .38711549 .18099976 .40411378 .17799378 .40711976 .18798828 .40911866 .21199036 .41311646 .24899292 .41311646 .32099916 .41311646 .3619995 .37712098 .3619995 .29812623V.26612855C.19599915 .26612855 .027999878 .22312927 .027999878 .11213684 .027999878 .013137817 .15299988-.005859375 .22499085-.005859375 .30099488-.005859375 .35299684 .027130127 .37998963 .0741272 .37998963 .04798889 .37998963 0 .4869995 0H.5359955C.5549927 0 .56900027 0 .56900027 .024993897V.025131226M.3619995 .13899231C.3619995 .033996583 .24598694 .033996583 .24198914 .033996583 .19099427 .033996583 .14898682 .066986087 .14898682 .11199951 .14898682 .14498902 .16699219 .22299195 .3619995 .23199463V.13899231Z"/>
<path id="font_1_86" d="M.34899903 .25C.34899903 .4909973 .22698975 .6380005 .1749878 .68699648 .16699219 .69400027 .10798645 .75 .085998538 .75 .07899475 .75 .06599426 .7480011 .06599426 .73399356 .06599426 .7279968 .069992069 .723999 .07998657 .71398928 .20199585 .59599307 .24798584 .43699647 .24798584 .25 .24798584 .08299255 .20899964-.09100342 .084991458-.2110138 .066986087-.22801209 .06599426-.2290039 .06599426-.23400879 .06599426-.2480011 .07798767-.25 .085998538-.25 .10699463-.25 .1599884-.2000122 .17098999-.18901062 .2709961-.09500122 .34899903 .05999756 .34899903 .25Z"/>
<path id="font_2_82" d="M.4189911 0V.0309906H.3869934C.29699708 .0309906 .2939911 .041992189 .2939911 .07902527V.64012148C.2939911 .6640167 .2939911 .6660156 .2709961 .6660156 .20899964 .60227969 .12098694 .60227969 .08898926 .60227969V.57128909C.10899353 .57128909 .16799927 .57128909 .21998596 .5972748V.07902527C.21998596 .042999269 .21699524 .0309906 .1269989 .0309906H.09498596V0C.12998963 .0029907227 .21699524 .0029907227 .25698854 .0029907227 .29699708 .0029907227 .38398744 .0029907227 .4189911 0Z"/>
<path id="font_2_121" d="M.45999146 .31976319C.45999146 .39982606 .45498658 .47988893 .41999818 .5539398 .37399293 .65000918 .2919922 .6660156 .25 .6660156 .18998719 .6660156 .116989139 .64001467 .07598877 .54693606 .04399109 .47789 .038986207 .39982606 .038986207 .31976319 .038986207 .24472046 .042999269 .15464783 .083999637 .07859802 .1269989-.0024719239 .19999695-.022460938 .24899292-.022460938 .30299378-.022460938 .3789978-.0014648438 .4229889 .09359741 .45498658 .16265869 .45999146 .2407074 .45999146 .31976319M.3769989 .3317871C.3769989 .25672914 .3769989 .18867493 .3659973 .12461853 .35099793 .029556275 .2939911-.00047302247 .24899292-.00047302247 .20999146-.00047302247 .15098572 .024551392 .1329956 .12062073 .12199402 .18066406 .12199402 .2727356 .12199402 .3317871 .12199402 .39582826 .12199402 .46188355 .12998963 .5159149 .14898682 .63500979 .22399903 .64401248 .24899292 .64401248 .28199769 .64401248 .34799195 .6259918 .36698915 .52693179 .3769989 .47088624 .3769989 .39482118 .3769989 .3317871Z"/>
<path id="font_2_107" d="M.44898988 .17396546H.42399598C.4189911 .14398194 .4119873 .099990848 .4019928 .084991458 .394989 .07699585 .32899476 .07699585 .30699159 .07699585H.1269989L.23298645 .17996216C.3889923 .31803895 .44898988 .37210084 .44898988 .47216798 .44898988 .5860901 .35899354 .6660156 .23699951 .6660156 .12399292 .6660156 .049987794 .57411196 .049987794 .48516847 .049987794 .4291687 .099990848 .4291687 .102996829 .4291687 .11999512 .4291687 .15499878 .44117738 .15499878 .48217774 .15499878 .5081787 .13699341 .5341797 .101989749 .5341797 .09399414 .5341797 .09199524 .5341797 .08898926 .5331726 .11199951 .59806826 .1659851 .63500979 .22399903 .63500979 .31498719 .63500979 .35798646 .5541382 .35798646 .47216798 .35798646 .39196778 .30799867 .31297303 .25299073 .25097657L.06098938 .036987306C.049987794 .025985718 .049987794 .023986817 .049987794 0H.42099L.44898988 .17396546Z"/>
<path id="font_2_106" d="M.45700074 .17037964C.45700074 .252594 .3939972 .33088685 .2899933 .35191346 .37199403 .37893678 .42999269 .4490509 .42999269 .52809146 .42999269 .6100464 .34199525 .6660156 .24598694 .6660156 .14498902 .6660156 .068984989 .60606387 .068984989 .53009036 .068984989 .49710084 .09098816 .47808839 .11999512 .47808839 .15098572 .47808839 .17098999 .50009158 .17098999 .5290985 .17098999 .57910159 .12399292 .57910159 .10899353 .57910159 .13999939 .62802127 .20599365 .64100649 .24198914 .64100649 .2829895 .64100649 .33799745 .6190338 .33799745 .5290985 .33799745 .51708987 .33599855 .45906068 .30999757 .4149933 .27999879 .36691285 .24598694 .36390687 .22099304 .36291505 .21299744 .36190797 .18899536 .35990907 .18199158 .35990907 .17399597 .35890199 .16699219 .35791017 .16699219 .3479004 .16699219 .33691407 .17399597 .33691407 .19099427 .33691407H.23498535C.31698609 .33691407 .35398866 .2686615 .35398866 .17037964 .35398866 .034469606 .2849884 .0055389406 .24099732 .0055389406 .19799805 .0055389406 .12298584 .022491456 .08799744 .08137512 .12298584 .07637024 .1539917 .09837341 .1539917 .1363678 .1539917 .17237854 .1269989 .19238281 .09799194 .19238281 .07398987 .19238281 .041992189 .17837525 .041992189 .1343689 .041992189 .043441774 .1349945-.022460938 .24398804-.022460938 .3659973-.022460938 .45700074 .06838989 .45700074 .17037964Z"/>
<path id="font_2_57" d="M.47099305 .16503906V.19602967H.37098695V.6507721C.37098695 .6707611 .37098695 .6767578 .35499574 .6767578 .34599305 .6767578 .34298707 .6767578 .33499146 .6647644L.027999878 .19602967V.16503906H.2939911V.07800293C.2939911 .041992189 .2919922 .0309906 .21798706 .0309906H.19699097V0C.23799134 .0029907227 .2899933 .0029907227 .33198548 .0029907227 .37399293 .0029907227 .4269867 .0029907227 .46798707 0V.0309906H.44699098C.37298585 .0309906 .37098695 .041992189 .37098695 .07800293V.16503906H.47099305M.2999878 .19602967H.055999757L.2999878 .56881716V.19602967Z"/>
<path id="font_2_56" d="M.44898988 .20091248C.44898988 .31991578 .36698915 .41992188 .25898744 .41992188 .21099854 .41992188 .16799927 .4039154 .13198853 .36891175V.5641022C.1519928 .55778506 .18499756 .55078127 .21699524 .55078127 .33999635 .55078127 .4099884 .6418457 .4099884 .65493777 .4099884 .6609802 .40699769 .6660156 .3999939 .6660156 .3999939 .66607668 .39698792 .66607668 .3919983 .66308596 .37199403 .65408328 .32299806 .63378909 .2559967 .63378909 .21598816 .63409426 .16999817 .641098 .12298584 .6621094 .114990238 .6651001 .11099243 .6651001 .11099243 .6651001 .100997928 .66508486 .100997928 .657074 .100997928 .64108279V.3447113C.100997928 .3266449 .100997928 .31861878 .114990238 .31861878 .12199402 .31861878 .12399292 .32164 .12799073 .32765199 .13899231 .34371949 .17599488 .3979187 .25698854 .3979187 .30899049 .3979187 .33399964 .3517456 .34199525 .3336792 .35798646 .2965393 .3600006 .2574005 .3600006 .20721436 .3600006 .17218018 .3600006 .112197879 .33599855 .07032776 .31199647 .031448366 .2749939 .0055389406 .22898865 .0055389406 .1559906 .0055389406 .09899902 .05836487 .08198547 .1171875 .084991458 .11685181 .08799744 .115859989 .09899902 .115859989 .13198853 .115859989 .14898682 .14085388 .14898682 .16485596 .14898682 .18885803 .13198853 .21386719 .09899902 .21386719 .084991458 .21386719 .049987794 .2068634 .049987794 .16085816 .049987794 .07432556 .11898804-.022460938 .23098755-.022460938 .34700013-.022460938 .44898988 .07331848 .44898988 .20019531V.20091248Z"/>
<path id="font_2_101" d="M.45700074 .2036438C.45700074 .33070375 .36799623 .4267578 .25698854 .4267578 .18899536 .4267578 .1519928 .37573243 .13198853 .327713V.35173036C.13198853 .6047821 .2559967 .64100649 .30699159 .64100649 .33099366 .64100649 .37298585 .634964 .394989 .6007538 .37998963 .6007538 .33999635 .6007538 .33999635 .5557556 .33999635 .524765 .3639984 .5097656 .38598634 .5097656 .4019928 .5097656 .43199159 .51875308 .43199159 .5577545 .43199159 .6178589 .3880005 .6660156 .30499269 .6660156 .1769867 .6660156 .041992189 .5367584 .041992189 .31570436 .041992189 .048553468 .1579895-.022460938 .25099183-.022460938 .3619995-.022460938 .45700074 .07156372 .45700074 .2036438M.36698915 .20463562C.36698915 .15661621 .36698915 .10658264 .34999085 .0705719 .31999208 .010528564 .27398683 .0055389406 .25099183 .0055389406 .18798828 .0055389406 .1579895 .06556702 .1519928 .080566409 .13398743 .127594 .13398743 .2076416 .13398743 .22564698 .13398743 .30369569 .1659851 .40374757 .2559967 .40374757 .27198792 .40374757 .31799317 .40374757 .34899903 .34172059 .36698915 .30470277 .36698915 .2536621 .36698915 .20463562Z"/>
<path id="font_2_100" d="M.4850006 .6435547H.24198914C.11999512 .6435547 .117996219 .6566467 .11399841 .67578127H.08898926L.055999757 .46954347H.08099365C.083999637 .48554994 .09298706 .54855349 .10598755 .5605469 .11299133 .5665436 .19099427 .5665436 .20399475 .5665436H.41099549L.29899598 .40853883C.20899964 .2735443 .17599488 .13453675 .17599488 .03253174 .17599488 .022537232 .17599488-.022460938 .22200012-.022460938 .2679901-.022460938 .2679901 .022537232 .2679901 .03253174V.08354187C.2679901 .13853455 .2709961 .19354248 .2789917 .24754334 .2829895 .27053834 .29699708 .35653688 .34098817 .41854859L.47599793 .608551C.4850006 .62054446 .4850006 .62254336 .4850006 .6435547Z"/>
<path id="font_2_78" d="M.45700074 .32888795C.45700074 .598114 .34199525 .6660156 .25299073 .6660156 .19799805 .6660156 .14898682 .64801028 .10598755 .6031189 .06498718 .5580902 .041992189 .5160217 .041992189 .44091798 .041992189 .3158722 .12998963 .21777344 .24198914 .21777344 .30299378 .21777344 .34399415 .25979615 .36698915 .3178711V.28582765C.36698915 .05178833 .2630005 .0055389406 .20498657 .0055389406 .18798828 .0055389406 .13398743 .007537842 .10699463 .041778566 .15098572 .041778566 .15899658 .07078552 .15899658 .08778381 .15899658 .118774417 .1349945 .13378906 .11299133 .13378906 .09700012 .13378906 .066986087 .12478638 .066986087 .08578491 .066986087 .018615723 .12098694-.022460938 .20599365-.022460938 .33499146-.022460938 .45700074 .11378479 .45700074 .32888795M.36499024 .42089845C.36499024 .33789063 .33099366 .24076844 .24299622 .24076844 .22698975 .2407074 .18099976 .2407074 .1499939 .30371095 .13198853 .34072877 .13198853 .3908081 .13198853 .43988038 .13198853 .49397279 .13198853 .5410614 .15299988 .578125 .17999268 .62805178 .21798706 .64100649 .25299073 .64100649 .29899598 .64100649 .33198548 .60710147 .34899903 .562088 .36099244 .52989199 .36499024 .46688844 .36499024 .42089845Z"/>
<path id="font_1_62" d="M.8809967 0V.04899597H.772995V.63653567H.8809967V.6855469C.84599307 .6825409 .74198916 .6825409 .70098879 .6825409 .6599884 .6825409 .5549927 .6825409 .519989 .6855469V.63653567H.6279907V.38085938H.29499818V.63653567H.40299989V.6855469C.36799623 .6825409 .2639923 .6825409 .22299195 .6825409 .18199158 .6825409 .07699585 .6825409 .041992189 .6855469V.63653567H.1499939V.04899597H.041992189V0C.07699585 .0029907227 .18099976 .0029907227 .22200012 .0029907227 .2630005 .0029907227 .36799623 .0029907227 .40299989 0V.04899597H.29499818V.33184815H.6279907V.04899597H.519989V0C.5549927 .0029907227 .6589966 .0029907227 .69999697 .0029907227 .7409973 .0029907227 .84599307 .0029907227 .8809967 0Z"/>
<path id="font_1_59" d="M.57499697 .39517213C.57499697 .42118836 .5549927 .45619203 .5089874 .45619203 .45999146 .45619203 .41799928 .43218995 .39898683 .41818238 .35699464 .44319154 .31098939 .4501953 .2630005 .4501953 .10998535 .4501953 .057998659 .36715699 .057998659 .30212403 .057998659 .24708557 .09199524 .21107483 .10998535 .19606018 .08898926 .17304993 .07699585 .13902283 .07699585 .10900879 .07699585 .06599426 .09799194 .031967164 .11898804 .012954712 .042999269-.008056641 .032989503-.051071168 .032989503-.0730896 .032989503-.13311768 .101989749-.20114136 .29499818-.20114136 .46998597-.2010498 .55799868-.14604187 .55799868-.0700531 .55799868-.03504944 .54499819 .026947022 .47599793 .05895996 .41799928 .08496094 .36499024 .08496094 .2659912 .08496094H.21598816C.18399048 .08496094 .16999817 .08496094 .15299988 .09802246 .13798523 .111083988 .12998963 .12817383 .12998963 .14828491 .12998963 .1683197 .13798523 .17930603 .13798523 .17930603 .1749878 .16030884 .21899414 .15332031 .2630005 .15332031 .41600038 .15332031 .46798707 .23631287 .46798707 .3013153 .46798707 .34231568 .44898988 .37532044 .42799378 .39631654 .45498658 .41018678 .47499085 .41218568 .48799134 .41418458 .4869995 .41018678 .4850006 .40419007 .4850006 .39419557 .4850006 .36721803 .5059967 .3492279 .5299988 .3492279 .5519867 .3492279 .57499697 .36521913 .57499697 .39520265V.39517213M.35299684 .3022461C.35299684 .25727845 .35299684 .1933136 .2630005 .1933136 .17298889 .1933136 .17298889 .25727845 .17298889 .30125428 .17298889 .34622193 .17298889 .41018678 .2630005 .41018678 .35299684 .41018678 .35299684 .34622193 .35299684 .3022461M.46899415-.07408142C.46899415-.10610962 .43199159-.16113281 .29599-.16113281 .1639862-.16113281 .12199402-.1111145 .12199402-.07208252 .12199402-.014053345 .18598938-.014053345 .20098877-.014053345H.32199098C.35299684-.014007568 .46899415-.014007568 .46899415-.07400513V-.07408142Z"/>
</defs>
<path transform="matrix(1.0001,0,0,-1.00002,34.050905,296.98869)" stroke-width=".19925" stroke-linecap="butt" stroke-miterlimit="10" stroke-linejoin="miter" fill="none" stroke="#d9d9d9" d="M0 0H226.77448M0 2.83484H226.77448M0 5.6697H226.77448M0 8.50455H226.77448M0 11.33939H226.77448M0 14.17424H226.77448M0 17.0091H226.77448M0 19.84393H226.77448M0 22.67879H226.77448M0 25.51364H226.77448M0 28.3485H226.77448M0 31.18333H226.77448M0 34.01819H226.77448M0 36.85304H226.77448M0 39.68788H226.77448M0 42.52274H226.77448M0 45.35759H226.77448M0 48.19244H226.77448M0 51.02728H226.77448M0 53.86214H226.77448M0 56.69699H226.77448M0 59.53183H226.77448M0 62.36668H226.77448M0 65.20154H226.77448M0 68.03639H226.77448M0 70.87123H226.77448M0 73.70609H226.77448M0 76.54094H226.77448M0 79.37578H226.77448M0 82.21063H226.77448M0 85.04549H226.77448M0 87.88034H226.77448M0 90.71518H226.77448M0 93.55003H226.77448M0 96.38489H226.77448M0 99.21973H226.77448M0 102.05458H226.77448M0 104.88943H226.77448M0 107.72429H226.77448M0 110.55913H226.77448M0 113.39398H226.77448M0 116.22884H226.77448M0 119.06367H226.77448M0 121.89853H226.77448M0 124.73338H226.77448M0 127.56824H226.77448M0 130.40308H226.77448M0 133.23793H226.77448M0 136.07279H226.77448M0 138.90763H226.77448M0 141.74248H226.77448M0 144.57733H226.77448M0 147.41219H226.77448M0 150.24703H226.77448M0 153.08188H226.77448M0 155.91674H226.77448M0 158.75157H226.77448M0 161.58643H226.77448M0 164.42128H226.77448M0 167.25612H226.77448M0 170.09098H226.77448M0 172.92583H226.77448M0 175.76068H226.77448M0 178.59552H226.77448M0 181.43038H226.77448M0 184.26523H226.77448M0 187.10007H226.77448M0 189.93492H226.77448M0 192.76978H226.77448M0 195.60463H226.77448M0 198.43947H226.77448M0 201.27433H226.77448M0 204.10918H226.77448M0 206.94402H226.77448M0 209.77887H226.77448M0 212.61373H226.77448M0 215.44858H226.77448M0 218.28342H226.77448M0 221.11827H226.77448M0 223.95313H226.77448M0 226.78797H226.77448M0 229.62282H226.77448M0 232.45767H226.77448M0 235.29253H226.77448M0 238.12737H226.77448M0 240.96222H226.77448M0 243.79708H226.77448M0 246.63191H226.77448M0 249.46677H226.77448M0 252.30162H226.77448M0 255.13648H226.77448M0 257.9713H226.77448M0 260.80619H226.77448M0 263.64103H226.77448M0 266.47587H226.77448M0 269.3107H226.77448M0 272.14558H226.77448M0 274.9804H226.77448M0 277.81526H226.77448M0 280.65013H226.77448M0 0V283.4681M2.83484 0V283.4681M5.6697 0V283.4681M8.50455 0V283.4681M11.33939 0V283.4681M14.17424 0V283.4681M17.0091 0V283.4681M19.84393 0V283.4681M22.67879 0V283.4681M25.51364 0V283.4681M28.3485 0V283.4681M31.18333 0V283.4681M34.01819 0V283.4681M36.85304 0V283.4681M39.68788 0V283.4681M42.52274 0V283.4681M45.35759 0V283.4681M48.19244 0V283.4681M51.02728 0V283.4681M53.86214 0V283.4681M56.69699 0V283.4681M59.53183 0V283.4681M62.36668 0V283.4681M65.20154 0V283.4681M68.03639 0V283.4681M70.87123 0V283.4681M73.70609 0V283.4681M76.54094 0V283.4681M79.37578 0V283.4681M82.21063 0V283.4681M85.04549 0V283.4681M87.88034 0V283.4681M90.71518 0V283.4681M93.55003 0V283.4681M96.38489 0V283.4681M99.21973 0V283.4681M102.05458 0V283.4681M104.88943 0V283.4681M107.72429 0V283.4681M110.55913 0V283.4681M113.39398 0V283.4681M116.22884 0V283.4681M119.06367 0V283.4681M121.89853 0V283.4681M124.73338 0V283.4681M127.56824 0V283.4681M130.40308 0V283.4681M133.23793 0V283.4681M136.07279 0V283.4681M138.90763 0V283.4681M141.74248 0V283.4681M144.57733 0V283.4681M147.41219 0V283.4681M150.24703 0V283.4681M153.08188 0V283.4681M155.91674 0V283.4681M158.75157 0V283.4681M161.58643 0V283.4681M164.42128 0V283.4681M167.25612 0V283.4681M170.09098 0V283.4681M172.92583 0V283.4681M175.76068 0V283.4681M178.59552 0V283.4681M181.43038 0V283.4681M184.26523 0V283.4681M187.10007 0V283.4681M189.93492 0V283.4681M192.76978 0V283.4681M195.60463 0V283.4681M198.43947 0V283.4681M201.27433 0V283.4681M204.10918 0V283.4681M206.94402 0V283.4681M209.77887 0V283.4681M212.61373 0V283.4681M215.44858 0V283.4681M218.28342 0V283.4681M221.11827 0V283.4681M223.95313 0V283.4681M226.77448 283.4681"/>
<path transform="matrix(1.0001,0,0,-1.00002,34.050905,296.98869)" stroke-width=".3985" stroke-linecap="butt" stroke-miterlimit="10" stroke-linejoin="miter" fill="none" stroke="#a6a6a6" d="M0 0H226.77448M0 28.3468H226.77448M0 56.69362H226.77448M0 85.04042H226.77448M0 113.38724H226.77448M0 141.73404H226.77448M0 170.08086H226.77448M0 198.42766H226.77448M0 226.77448H226.77448M0 255.12128H226.77448M0 283.45814H226.77448M0 0V283.4681M28.3468 0V283.4681M56.69362 0V283.4681M85.04042 0V283.4681M113.38724 0V283.4681M141.73404 0V283.4681M170.08086 0V283.4681M198.42766 0V283.4681M226.76451 0V283.4681M226.77448 283.4681"/>
<path transform="matrix(1.0001,0,0,-1.00002,34.050905,296.98869)" stroke-width=".79701" stroke-linecap="butt" stroke-miterlimit="10" stroke-linejoin="miter" fill="none" stroke="#000000" d="M0 0H225.97747"/>
<path transform="matrix(1.0001,0,0,-1.00002,260.44953,296.98869)" stroke-width=".79701" stroke-linecap="round" stroke-linejoin="round" fill="none" stroke="#000000" d="M-2.55046 3.11095C-2.0845 1.24435-1.04614 .36295 0 0-1.04614-.36295-2.0845-1.24435-2.55046-3.11095"/>
<path transform="matrix(1.0001,0,0,-1.00002,34.050905,296.98869)" stroke-width=".79701" stroke-linecap="butt" stroke-miterlimit="10" stroke-linejoin="miter" fill="none" stroke="#000000" d="M0 0V282.67109"/>
<path transform="matrix(0,-1.00002,-1.0001,-0,34.050905,13.913422)" stroke-width=".79701" stroke-linecap="round" stroke-linejoin="round" fill="none" stroke="#000000" d="M-2.55046 3.11095C-2.0845 1.24435-1.04614 .36295 0 0-1.04614-.36295-2.0845-1.24435-2.55046-3.11095"/>
<use data-text="N" xlink:href="#font_1_76" transform="matrix(8.967297,0,0,-8.966579,123.46584,329.46333)"/>
<use data-text="u" xlink:href="#font_1_109" transform="matrix(8.967297,0,0,-8.966579,131.75162,329.46333)"/>
<use data-text="m" xlink:href="#font_1_75" transform="matrix(8.967297,0,0,-8.966579,137.64315,329.46333)"/>
<use data-text="b" xlink:href="#font_1_35" transform="matrix(8.967297,0,0,-8.966579,146.18897,329.46333)"/>
<use data-text="e" xlink:href="#font_1_50" transform="matrix(8.967297,0,0,-8.966579,152.36745,329.46333)"/>
<use data-text="r" xlink:href="#font_1_96" transform="matrix(8.967297,0,0,-8.966579,157.2367,329.46333)"/>
<use data-text="o" xlink:href="#font_1_81" transform="matrix(8.967297,0,0,-8.966579,165.14585,329.46333)"/>
<use data-text="f" xlink:href="#font_1_55" transform="matrix(8.967297,0,0,-8.966579,170.45449,329.46333)"/>
<use data-text="F" xlink:href="#font_1_54" transform="matrix(8.967297,0,0,-8.966579,177.23377,329.46333)"/>
<use data-text="r" xlink:href="#font_1_96" transform="matrix(8.967297,0,0,-8.966579,183.02664,329.46333)"/>
<use data-text="u" xlink:href="#font_1_109" transform="matrix(8.967297,0,0,-8.966579,187.40268,329.46333)"/>
<use data-text="i" xlink:href="#font_1_66" transform="matrix(8.967297,0,0,-8.966579,193.2942,329.46333)"/>
<use data-text="t" xlink:href="#font_1_105" transform="matrix(8.967297,0,0,-8.966579,196.24445,329.46333)"/>
<use data-text="s" xlink:href="#font_1_98" transform="matrix(8.967297,0,0,-8.966579,200.3694,329.46333)"/>
<use data-text="S" xlink:href="#font_1_97" transform="matrix(8.967297,0,0,-8.966579,208.08127,329.46333)"/>
<use data-text="o" xlink:href="#font_1_81" transform="matrix(8.967297,0,0,-8.966579,213.9728,329.46333)"/>
<use data-text="l" xlink:href="#font_1_72" transform="matrix(8.967297,0,0,-8.966579,219.28142,329.46333)"/>
<use data-text="d" xlink:href="#font_1_47" transform="matrix(8.967297,0,0,-8.966579,222.23168,329.46333)"/>
<use data-text="F" xlink:href="#font_1_54" transform="matrix(0,-8.966579,-8.967297,-0,7.943329,182.16239)"/>
<use data-text="r" xlink:href="#font_1_96" transform="matrix(0,-8.966579,-8.967297,-0,7.943329,176.37894)"/>
<use data-text="e" xlink:href="#font_1_50" transform="matrix(0,-8.966579,-8.967297,-0,7.943329,172.00324)"/>
<use data-text="q" xlink:href="#font_1_91" transform="matrix(0,-8.966579,-8.967297,-0,7.943329,167.13439)"/>
<use data-text="u" xlink:href="#font_1_109" transform="matrix(0,-8.966579,-8.967297,-0,7.943329,161.53028)"/>
<use data-text="e" xlink:href="#font_1_50" transform="matrix(0,-8.966579,-8.967297,-0,7.943329,155.63922)"/>
<use data-text="n" xlink:href="#font_1_77" transform="matrix(0,-8.966579,-8.967297,-0,7.943329,150.77037)"/>
<use data-text="c" xlink:href="#font_1_43" transform="matrix(0,-8.966579,-8.967297,-0,7.943329,144.87932)"/>
<use data-text="y" xlink:href="#font_1_118" transform="matrix(0,-8.966579,-8.967297,-0,7.943329,140.1629)"/>
<use data-text="(" xlink:href="#font_1_85" transform="matrix(0,-8.966579,-8.967297,-0,7.943329,131.03493)"/>
<use data-text="D" xlink:href="#font_1_46" transform="matrix(0,-8.966579,-8.967297,-0,7.943329,126.91029)"/>
<use data-text="a" xlink:href="#font_1_28" transform="matrix(0,-8.966579,-8.967297,-0,7.943329,118.77762)"/>
<use data-text="y" xlink:href="#font_1_118" transform="matrix(0,-8.966579,-8.967297,-0,7.943329,113.90875)"/>
<use data-text="s" xlink:href="#font_1_98" transform="matrix(0,-8.966579,-8.967297,-0,7.943329,108.30464)"/>
<use data-text=")" xlink:href="#font_1_86" transform="matrix(0,-8.966579,-8.967297,-0,7.943329,104.11725)"/>
<use data-text="1" xlink:href="#font_2_82" transform="matrix(9.963596,0,0,-9.962799,57.41824,315.64805)"/>
<use data-text="0" xlink:href="#font_2_121" transform="matrix(9.963596,0,0,-9.962799,62.400037,315.64805)"/>
<use data-text="2" xlink:href="#font_2_107" transform="matrix(9.963596,0,0,-9.962799,85.76808,315.64805)"/>
<use data-text="0" xlink:href="#font_2_121" transform="matrix(9.963596,0,0,-9.962799,90.74988,315.64805)"/>
<use data-text="3" xlink:href="#font_2_106" transform="matrix(9.963596,0,0,-9.962799,114.11791,315.64805)"/>
<use data-text="0" xlink:href="#font_2_121" transform="matrix(9.963596,0,0,-9.962799,119.09971,315.64805)"/>
<use data-text="4" xlink:href="#font_2_57" transform="matrix(9.963596,0,0,-9.962799,142.46775,315.75807)"/>
<use data-text="0" xlink:href="#font_2_121" transform="matrix(9.963596,0,0,-9.962799,147.44954,315.75807)"/>
<use data-text="5" xlink:href="#font_2_56" transform="matrix(9.963596,0,0,-9.962799,170.81758,315.64805)"/>
<use data-text="0" xlink:href="#font_2_121" transform="matrix(9.963596,0,0,-9.962799,175.79938,315.64805)"/>
<use data-text="6" xlink:href="#font_2_101" transform="matrix(9.963596,0,0,-9.962799,199.16641,315.64805)"/>
<use data-text="0" xlink:href="#font_2_121" transform="matrix(9.963596,0,0,-9.962799,204.14821,315.64805)"/>
<use data-text="7" xlink:href="#font_2_100" transform="matrix(9.963596,0,0,-9.962799,227.51625,315.74806)"/>
<use data-text="0" xlink:href="#font_2_121" transform="matrix(9.963596,0,0,-9.962799,232.49805,315.74806)"/>
<use data-text="0" xlink:href="#font_2_121" transform="matrix(9.963596,0,0,-9.962799,17.044205,300.19676)"/>
<use data-text="3" xlink:href="#font_2_106" transform="matrix(9.963596,0,0,-9.962799,17.044205,243.5016)"/>
<use data-text="6" xlink:href="#font_2_101" transform="matrix(9.963596,0,0,-9.962799,17.044205,186.80747)"/>
<use data-text="9" xlink:href="#font_2_78" transform="matrix(9.963596,0,0,-9.962799,17.044205,130.11234)"/>
<use data-text="1" xlink:href="#font_2_82" transform="matrix(9.963596,0,0,-9.962799,12.061707,73.52721)"/>
<use data-text="2" xlink:href="#font_2_107" transform="matrix(9.963596,0,0,-9.962799,17.043503,73.52721)"/>
<use data-text="1" xlink:href="#font_2_82" transform="matrix(9.963596,0,0,-9.962799,12.061707,16.723053)"/>
<use data-text="5" xlink:href="#font_2_56" transform="matrix(9.963596,0,0,-9.962799,17.043503,16.723053)"/>
<path transform="matrix(1.0001,0,0,-1.00002,34.050905,296.98869)" d="M28.3468 0V56.69362H56.69362V0ZM56.69362 56.69362" fill="#6666ff"/>
<path transform="matrix(1.0001,0,0,-1.00002,34.050905,296.98869)" stroke-width=".3985" stroke-linecap="butt" stroke-miterlimit="10" stroke-linejoin="miter" fill="none" stroke="#000000" d="M28.3468 0V56.69362H56.69362V0ZM56.69362 56.69362"/>
<path transform="matrix(1.0001,0,0,-1.00002,34.050905,296.98869)" d="M56.69362 0V132.37953H85.04042V0ZM85.04042 132.37953" fill="#6666ff"/>
<path transform="matrix(1.0001,0,0,-1.00002,34.050905,296.98869)" stroke-width=".3985" stroke-linecap="butt" stroke-miterlimit="10" stroke-linejoin="miter" fill="none" stroke="#000000" d="M56.69362 0V132.37953H85.04042V0ZM85.04042 132.37953"/>
<path transform="matrix(1.0001,0,0,-1.00002,34.050905,296.98869)" d="M85.04042 0V226.77448H113.38724V0ZM113.38724 226.77448" fill="#6666ff"/>
<path transform="matrix(1.0001,0,0,-1.00002,34.050905,296.98869)" stroke-width=".3985" stroke-linecap="butt" stroke-miterlimit="10" stroke-linejoin="miter" fill="none" stroke="#000000" d="M85.04042 0V226.77448H113.38724V0ZM113.38724 226.77448"/>
<path transform="matrix(1.0001,0,0,-1.00002,34.050905,296.98869)" d="M113.38724 0V283.4681H141.73404V0ZM141.73404 283.4681" fill="#6666ff"/>
<path transform="matrix(1.0001,0,0,-1.00002,34.050905,296.98869)" stroke-width=".3985" stroke-linecap="butt" stroke-miterlimit="10" stroke-linejoin="miter" fill="none" stroke="#000000" d="M113.38724 0V283.4681H141.73404V0ZM141.73404 283.4681"/>
<path transform="matrix(1.0001,0,0,-1.00002,34.050905,296.98869)" d="M141.73404 0V151.08853H170.08086V0ZM170.08086 151.08853" fill="#6666ff"/>
<path transform="matrix(1.0001,0,0,-1.00002,34.050905,296.98869)" stroke-width=".3985" stroke-linecap="butt" stroke-miterlimit="10" stroke-linejoin="miter" fill="none" stroke="#000000" d="M141.73404 0V151.08853H170.08086V0ZM170.08086 151.08853"/>
<path transform="matrix(1.0001,0,0,-1.00002,34.050905,296.98869)" d="M170.08086 0V94.39491H198.42766V0ZM198.42766 94.39491" fill="#6666ff"/>
<path transform="matrix(1.0001,0,0,-1.00002,34.050905,296.98869)" stroke-width=".3985" stroke-linecap="butt" stroke-miterlimit="10" stroke-linejoin="miter" fill="none" stroke="#000000" d="M170.08086 0V94.39491H198.42766V0ZM198.42766 94.39491"/>
<use data-text="H" xlink:href="#font_1_62" transform="matrix(8.967297,0,0,-8.966579,63.034807,8.192871)"/>
<use data-text="i" xlink:href="#font_1_66" transform="matrix(8.967297,0,0,-8.966579,71.32059,8.192871)"/>
<use data-text="s" xlink:href="#font_1_98" transform="matrix(8.967297,0,0,-8.966579,74.270839,8.192871)"/>
<use data-text="t" xlink:href="#font_1_105" transform="matrix(8.967297,0,0,-8.966579,78.45855,8.192871)"/>
<use data-text="o" xlink:href="#font_1_81" transform="matrix(8.967297,0,0,-8.966579,82.5835,8.192871)"/>
<use data-text="g" xlink:href="#font_1_59" transform="matrix(8.967297,0,0,-8.966579,87.89214,8.192871)"/>
<use data-text="r" xlink:href="#font_1_96" transform="matrix(8.967297,0,0,-8.966579,93.20078,8.192871)"/>
<use data-text="a" xlink:href="#font_1_28" transform="matrix(8.967297,0,0,-8.966579,97.576839,8.192871)"/>
<use data-text="m" xlink:href="#font_1_75" transform="matrix(8.967297,0,0,-8.966579,102.733028,8.192871)"/>
<use data-text="o" xlink:href="#font_1_81" transform="matrix(8.967297,0,0,-8.966579,115.09893,8.192871)"/>
<use data-text="f" xlink:href="#font_1_55" transform="matrix(8.967297,0,0,-8.966579,120.407558,8.192871)"/>
<use data-text="N" xlink:href="#font_1_76" transform="matrix(8.967297,0,0,-8.966579,127.18684,8.192871)"/>
<use data-text="u" xlink:href="#font_1_109" transform="matrix(8.967297,0,0,-8.966579,135.47263,8.192871)"/>
<use data-text="m" xlink:href="#font_1_75" transform="matrix(8.967297,0,0,-8.966579,141.36414,8.192871)"/>
<use data-text="b" xlink:href="#font_1_35" transform="matrix(8.967297,0,0,-8.966579,149.91895,8.192871)"/>
<use data-text="e" xlink:href="#font_1_50" transform="matrix(8.967297,0,0,-8.966579,156.09741,8.192871)"/>
<use data-text="r" xlink:href="#font_1_96" transform="matrix(8.967297,0,0,-8.966579,160.96665,8.192871)"/>
<use data-text="o" xlink:href="#font_1_81" transform="matrix(8.967297,0,0,-8.966579,168.87583,8.192871)"/>
<use data-text="f" xlink:href="#font_1_55" transform="matrix(8.967297,0,0,-8.966579,174.18445,8.192871)"/>
<use data-text="F" xlink:href="#font_1_54" transform="matrix(8.967297,0,0,-8.966579,180.96372,8.192871)"/>
<use data-text="r" xlink:href="#font_1_96" transform="matrix(8.967297,0,0,-8.966579,186.75659,8.192871)"/>
<use data-text="u" xlink:href="#font_1_109" transform="matrix(8.967297,0,0,-8.966579,191.13266,8.192871)"/>
<use data-text="i" xlink:href="#font_1_66" transform="matrix(8.967297,0,0,-8.966579,197.02417,8.192871)"/>
<use data-text="t" xlink:href="#font_1_105" transform="matrix(8.967297,0,0,-8.966579,199.97443,8.192871)"/>
<use data-text="s" xlink:href="#font_1_98" transform="matrix(8.967297,0,0,-8.966579,204.09937,8.192871)"/>
<use data-text="S" xlink:href="#font_1_97" transform="matrix(8.967297,0,0,-8.966579,211.81128,8.192871)"/>
<use data-text="o" xlink:href="#font_1_81" transform="matrix(8.967297,0,0,-8.966579,217.71176,8.192871)"/>
<use data-text="l" xlink:href="#font_1_72" transform="matrix(8.967297,0,0,-8.966579,223.02039,8.192871)"/>
<use data-text="d" xlink:href="#font_1_47" transform="matrix(8.967297,0,0,-8.966579,225.97064,8.192871)"/>
</svg>
