<svg xmlns="http://www.w3.org/2000/svg" xmlns:xlink="http://www.w3.org/1999/xlink" xmlns:inkscape="http://www.inkscape.org/namespaces/inkscape" version="1.1" width="319" height="326" viewBox="0 0 319 326">
<defs>
<path id="font_1_57" d="M.47099305 .16503906V.19602967H.37098695V.6507721C.37098695 .6707611 .37098695 .6767578 .35499574 .6767578 .34599305 .6767578 .34298707 .6767578 .33499146 .6647644L.027999878 .19602967V.16503906H.2939911V.07800293C.2939911 .041992189 .2919922 .0309906 .21798706 .0309906H.19699097V0C.23799134 .0029907227 .2899933 .0029907227 .33198548 .0029907227 .37399293 .0029907227 .4269867 .0029907227 .46798707 0V.0309906H.44699098C.37298585 .0309906 .37098695 .041992189 .37098695 .07800293V.16503906H.47099305M.2999878 .19602967H.055999757L.2999878 .56881716V.19602967Z"/>
<path id="font_1_121" d="M.45999146 .31976319C.45999146 .39982606 .45498658 .47988893 .41999818 .5539398 .37399293 .65000918 .2919922 .6660156 .25 .6660156 .18998719 .6660156 .116989139 .64001467 .07598877 .54693606 .04399109 .47789 .038986207 .39982606 .038986207 .31976319 .038986207 .24472046 .042999269 .15464783 .083999637 .07859802 .1269989-.0024719239 .19999695-.022460938 .24899292-.022460938 .30299378-.022460938 .3789978-.0014648438 .4229889 .09359741 .45498658 .16265869 .45999146 .2407074 .45999146 .31976319M.3769989 .3317871C.3769989 .25672914 .3769989 .18867493 .3659973 .12461853 .35099793 .029556275 .2939911-.00047302247 .24899292-.00047302247 .20999146-.00047302247 .15098572 .024551392 .1329956 .12062073 .12199402 .18066406 .12199402 .2727356 .12199402 .3317871 .12199402 .39582826 .12199402 .46188355 .12998963 .5159149 .14898682 .63500979 .22399903 .64401248 .24899292 .64401248 .28199769 .64401248 .34799195 .6259918 .36698915 .52693179 .3769989 .47088624 .3769989 .39482118 .3769989 .3317871Z"/>
<path id="font_1_56" d="M.44898988 .20091248C.44898988 .31991578 .36698915 .41992188 .25898744 .41992188 .21099854 .41992188 .16799927 .4039154 .13198853 .36891175V.5641022C.1519928 .55778506 .18499756 .55078127 .21699524 .55078127 .33999635 .55078127 .4099884 .6418457 .4099884 .65493777 .4099884 .6609802 .40699769 .6660156 .3999939 .6660156 .3999939 .66607668 .39698792 .66607668 .3919983 .66308596 .37199403 .65408328 .32299806 .63378909 .2559967 .63378909 .21598816 .63409426 .16999817 .641098 .12298584 .6621094 .114990238 .6651001 .11099243 .6651001 .11099243 .6651001 .100997928 .66508486 .100997928 .657074 .100997928 .64108279V.3447113C.100997928 .3266449 .100997928 .31861878 .114990238 .31861878 .12199402 .31861878 .12399292 .32164 .12799073 .32765199 .13899231 .34371949 .17599488 .3979187 .25698854 .3979187 .30899049 .3979187 .33399964 .3517456 .34199525 .3336792 .35798646 .2965393 .3600006 .2574005 .3600006 .20721436 .3600006 .17218018 .3600006 .112197879 .33599855 .07032776 .31199647 .031448366 .2749939 .0055389406 .22898865 .0055389406 .1559906 .0055389406 .09899902 .05836487 .08198547 .1171875 .084991458 .11685181 .08799744 .115859989 .09899902 .115859989 .13198853 .115859989 .14898682 .14085388 .14898682 .16485596 .14898682 .18885803 .13198853 .21386719 .09899902 .21386719 .084991458 .21386719 .049987794 .2068634 .049987794 .16085816 .049987794 .07432556 .11898804-.022460938 .23098755-.022460938 .34700013-.022460938 .44898988 .07331848 .44898988 .20019531V.20091248Z"/>
<path id="font_1_100" d="M.4850006 .6435547H.24198914C.11999512 .6435547 .117996219 .6566467 .11399841 .67578127H.08898926L.055999757 .46954347H.08099365C.083999637 .48554994 .09298706 .54855349 .10598755 .5605469 .11299133 .5665436 .19099427 .5665436 .20399475 .5665436H.41099549L.29899598 .40853883C.20899964 .2735443 .17599488 .13453675 .17599488 .03253174 .17599488 .022537232 .17599488-.022460938 .22200012-.022460938 .2679901-.022460938 .2679901 .022537232 .2679901 .03253174V.08354187C.2679901 .13853455 .2709961 .19354248 .2789917 .24754334 .2829895 .27053834 .29699708 .35653688 .34098817 .41854859L.47599793 .608551C.4850006 .62054446 .4850006 .62254336 .4850006 .6435547Z"/>
<path id="font_1_51" d="M.45700074 .16764832C.45700074 .20367432 .44599916 .24871826 .4079895 .29074098 .3889923 .31176759 .37298585 .32176209 .30899049 .36180116 .3809967 .39881898 .42999269 .4508667 .42999269 .51690676 .42999269 .6089783 .34098817 .6660156 .25 .6660156 .1499939 .6660156 .068984989 .5919647 .068984989 .49890138 .068984989 .48088075 .070999149 .43585206 .11299133 .38882447 .12399292 .3768158 .16099549 .35179139 .18598938 .33477784 .12799073 .30575563 .041992189 .24971009 .041992189 .15063477 .041992189 .044555665 .14399719-.022460938 .24899292-.022460938 .3619995-.022460938 .45700074 .060577394 .45700074 .16764832M.38598634 .51690676C.38598634 .45986939 .34700013 .41183473 .2869873 .3768158L.16299439 .4568634C.116989139 .4868927 .11299133 .5209198 .11299133 .53793337 .11299133 .5989685 .17799378 .64100649 .24899292 .64100649 .32199098 .64100649 .38598634 .588974 .38598634 .51690676M.40699769 .13162232C.40699769 .05757141 .33198548 .0055389406 .25 .0055389406 .1639862 .0055389406 .09199524 .06758118 .09199524 .15063477 .09199524 .2086792 .12399292 .2727356 .20899964 .31976319L.33198548 .24171448C.3600006 .22268677 .40699769 .19267273 .40699769 .13162232Z"/>
<path id="font_1_78" d="M.45700074 .32888795C.45700074 .598114 .34199525 .6660156 .25299073 .6660156 .19799805 .6660156 .14898682 .64801028 .10598755 .6031189 .06498718 .5580902 .041992189 .5160217 .041992189 .44091798 .041992189 .3158722 .12998963 .21777344 .24198914 .21777344 .30299378 .21777344 .34399415 .25979615 .36698915 .3178711V.28582765C.36698915 .05178833 .2630005 .0055389406 .20498657 .0055389406 .18798828 .0055389406 .13398743 .007537842 .10699463 .041778566 .15098572 .041778566 .15899658 .07078552 .15899658 .08778381 .15899658 .118774417 .1349945 .13378906 .11299133 .13378906 .09700012 .13378906 .066986087 .12478638 .066986087 .08578491 .066986087 .018615723 .12098694-.022460938 .20599365-.022460938 .33499146-.022460938 .45700074 .11378479 .45700074 .32888795M.36499024 .42089845C.36499024 .33789063 .33099366 .24076844 .24299622 .24076844 .22698975 .2407074 .18099976 .2407074 .1499939 .30371095 .13198853 .34072877 .13198853 .3908081 .13198853 .43988038 .13198853 .49397279 .13198853 .5410614 .15299988 .578125 .17999268 .62805178 .21798706 .64100649 .25299073 .64100649 .29899598 .64100649 .33198548 .60710147 .34899903 .562088 .36099244 .52989199 .36499024 .46688844 .36499024 .42089845Z"/>
<path id="font_2_1" d="M.47299195 .31976319C.47299195 .38682557 .46998597 .47288514 .43499757 .5479431 .3909912 .64201357 .31498719 .6660156 .25698854 .6660156 .19699097 .6660156 .12098694 .64201357 .07699585 .5459442 .04499817 .47688294 .039993287 .39582826 .039993287 .31976319 .039993287 .25471498 .041992189 .15765381 .084991458 .07858276 .13198853-.0064697267 .20999146-.022460938 .2559967-.022460938 .32099916-.022460938 .394989 .0055389406 .43699647 .097595218 .46699525 .1646576 .47299195 .23971558 .47299195 .31976319M.25698854 .002532959C.22698975 .002532959 .15499878 .016540528 .13598633 .12962342 .12599182 .18867493 .12599182 .2747345 .12599182 .33177186 .12599182 .39982606 .12599182 .47888185 .13798523 .53393557 .1579895 .6230011 .22200012 .64100649 .2559967 .64100649 .2939911 .64100649 .35699464 .62098696 .37599183 .5279236 .3869934 .47288514 .3869934 .39482118 .3869934 .33177186 .3869934 .2697296 .3869934 .18566895 .3769989 .12661743 .35598756 .012542725 .28199769 .002532959 .25698854 .002532959Z"/>
<path id="font_3_1" d="M.19599915 .053985597C.19599915 .08299255 .17298889 .10798645 .14199829 .10798645 .11099243 .10798645 .08799744 .08299255 .08799744 .053985597 .08799744 .024993897 .11099243 0 .14199829 0 .17298889 0 .19599915 .024993897 .19599915 .053985597Z"/>
<path id="font_2_4" d="M.0289917 .19602967V.16503906H.3019867V.07901001C.3019867 .041992189 .29899598 .0309906 .22399903 .0309906H.20199585V0C.2649994 .0029907227 .33499146 .0029907227 .34199525 .0029907227 .34700013 .0029907227 .4189911 .0029907227 .48199464 0V.0309906H.45999146C.3849945 .0309906 .38198854 .041992189 .38198854 .07901001V.16503906H.48399354V.19602967H.38198854V.64974978C.38198854 .669754 .38198854 .6767578 .36299134 .6767578 .35099793 .6767578 .34999085 .67575076 .34098817 .66174319L.0289917 .19602967M.06098938 .19602967 .30799867 .56581118V.19602967H.06098938Z"/>
<path id="font_2_6" d="M.17199707 .45387269C.14199829 .47288514 .11898804 .4998932 .11898804 .53692629 .11898804 .6019745 .18899536 .64100649 .25498963 .64100649 .33198548 .64100649 .3939972 .58695986 .3939972 .51690676 .3939972 .44685365 .33399964 .40083314 .2939911 .37780763L.17199707 .45387269M.31900025 .36180116C.36898805 .38581849 .44198609 .43585206 .44198609 .51690676 .44198609 .6109772 .34799195 .6660156 .2579956 .6660156 .15299988 .6660156 .070999149 .5909729 .070999149 .49890138 .070999149 .46087647 .084991458 .42485047 .10899353 .39582826 .12599182 .3768158 .13198853 .37280274 .18998719 .3357849 .101989749 .29374696 .042999269 .23269654 .042999269 .15063477 .042999269 .044555665 .147995-.022460938 .2559967-.022460938 .37199403-.022460938 .46998597 .059570314 .46998597 .16764832 .46998597 .26472474 .3959961 .3127594 .37098695 .32876588 .3600006 .33677674 .33099366 .35479737 .31900025 .36180116M.21699524 .31877137 .34298707 .2407074C.3659973 .22569275 .41600038 .19366455 .41600038 .1326294 .41600038 .05357361 .33599855 .0055389406 .25698854 .0055389406 .16999817 .0055389406 .09700012 .06758118 .09700012 .15063477 .09700012 .22268677 .14698792 .28274537 .21699524 .31877137Z"/>
<path id="font_2_2" d="M.3039856 .6392822C.3039856 .6642761 .30299378 .666275 .27799989 .666275 .21598816 .60227969 .12399292 .60227969 .09298706 .60227969V.57128909C.11199951 .57128909 .17298889 .57128909 .22698975 .5972748V.08001709C.22698975 .042999269 .22399903 .0309906 .1309967 .0309906H.09899902V0C.1349945 .0029907227 .22399903 .0029907227 .2649994 .0029907227 .30599977 .0029907227 .3959961 .0029907227 .43199159 0V.0309906H.3999939C.30699159 .0309906 .3039856 .042999269 .3039856 .08001709V.6392822Z"/>
<path id="font_2_3" d="M.46199037 .17704773H.43399049C.43199159 .16404724 .42399598 .10501099 .41099549 .08900452 .40499879 .07998657 .33599855 .07998657 .31599427 .07998657H.13798523L.23699951 .17404175C.40098573 .3161316 .46199037 .36915589 .46199037 .4711914 .46199037 .5860901 .36698915 .6660156 .24398804 .6660156 .1289978 .6660156 .050994874 .575119 .050994874 .4841919 .050994874 .43418885 .09399414 .42919923 .102996829 .42919923 .125 .42919923 .15499878 .44519044 .15499878 .48120118 .15499878 .51119998 .13398743 .5332031 .102996829 .5332031 .09799194 .5332031 .09498596 .5332031 .09098816 .53219607 .114990238 .6030731 .1789856 .63500979 .23298645 .63500979 .33499146 .63500979 .36999513 .5401764 .36999513 .4711914 .36999513 .36915589 .29299928 .28611756 .24499512 .23408509L.06199646 .035995485C.050994874 .024993897 .050994874 .022994996 .050994874 0H.43399049L.46199037 .17704773Z"/>
<path id="font_2_5" d="M.13398743 .33073426C.13398743 .43276979 .14498902 .4897766 .17199707 .54177859 .19198609 .58277896 .24099732 .64100649 .31498719 .64100649 .33499146 .64100649 .3809967 .63697817 .4039917 .6007843 .36698915 .6007843 .35099793 .5817871 .35099793 .55477908 .35099793 .5287781 .36898805 .50878909 .39698792 .50878909 .4249878 .50878909 .44400025 .5267792 .44400025 .55677798 .44400025 .612854 .4039917 .6660156 .31298829 .6660156 .18399048 .6660156 .042999269 .53878787 .042999269 .3157196 .042999269 .044555665 .16499329-.022460938 .25898744-.022460938 .36999513-.022460938 .46998597 .0705719 .46998597 .20265198 .46998597 .32972718 .37799073 .42578126 .2649994 .42578126 .20498657 .42578126 .1619873 .39076234 .13398743 .33073426M.2579956 .0055389406C.20098877 .0055389406 .16799927 .05256653 .1559906 .08157349 .13699341 .12660218 .13598633 .20965576 .13598633 .22566223 .13598633 .29270936 .16699219 .4007721 .2630005 .4007721 .2789917 .4007721 .32798768 .4007721 .3600006 .33872987 .3789978 .30070497 .3789978 .25167848 .3789978 .20365906 .3789978 .15562439 .3789978 .1065979 .3600006 .06956482 .32899476 .012542725 .2849884 .0055389406 .2579956 .0055389406Z"/>
<path id="font_1_49" d="M.6519928 .2579193H.6269989C.60198977 .10397339 .57899478 .0309906 .40699769 .0309906H.27398683C.22698975 .0309906 .22499085 .037994386 .22499085 .07098389V.33789063H.31498719C.4119873 .33789063 .4229889 .30589295 .4229889 .220932H.44799806V.48606874H.4229889C.4229889 .39994813 .4119873 .36888124 .31498719 .36888124H.22499085V.6087799C.22499085 .6416931 .22698975 .64868167 .27398683 .64868167H.40299989C.55599978 .64868167 .58299258 .59381106 .598999 .45507813H.6239929L.59599307 .6796875H.032989503V.64868167H.056991579C.13398743 .64868167 .13598633 .6377106 .13598633 .6017914V.07797241C.13598633 .041992189 .13398743 .0309906 .056991579 .0309906H.032989503V0H.6100006L.6519928 .2579193Z"/>
<path id="font_1_116" d="M.5159912 0V.0309906C.46199037 .03125 .44400025 .0332489 .42099 .0622406L.2869873 .23493958C.31698609 .27287293 .35499574 .3217926 .3789978 .3477478 .4099884 .38368226 .45098878 .39866639 .49798585 .3996582V.43066407C.47200013 .4286499 .44198609 .42765809 .41600038 .42765809 .38598634 .42765809 .33299256 .42965699 .31999208 .43066407V.3996582C.34098817 .3973999 .34899903 .3843994 .34899903 .3684082 .34899903 .35240174 .33898927 .33940126 .33399964 .33340455L.27198792 .2554016 .19400025 .35639955C.18499756 .3664093 .18499756 .3684082 .18499756 .3744049 .18499756 .3894043 .19999695 .39840699 .21998596 .39941407V.43066407L.11199951 .42765809C.09098816 .42765809 .04399109 .4286499 .016998291 .43066407V.3996582C.08699036 .3996582 .08799744 .39865113 .1349945 .3387146L.23399353 .20982361C.18699646 .14988709 .18699646 .14788819 .13999939 .09094238 .09199524 .032989503 .032989503 .0309906 .011993408 .0309906V0C.037994386 .0019989014 .068984989 .0029907227 .09498596 .0029907227L.18998719 0V.0309906C.16799927 .034240724 .16099549 .04724121 .16099549 .0622406 .16099549 .084243778 .18998719 .117248538 .25099183 .1892395L.32699586 .08924866C.33499146 .07824707 .34799195 .0622406 .34799195 .056243898 .34799195 .04724121 .33898927 .03224182 .31199647 .03125V0L.41999818 .0029907227C.44699098 .0029907227 .48599244 .0019989014 .5159912 0Z"/>
<path id="font_1_28" d="M.48298646 .08912659V.14511109H.45799256V.08912659C.45799256 .03112793 .43299867 .025131226 .42199708 .025131226 .3889923 .025131226 .3849945 .070129398 .3849945 .07511902V.27508546C.3849945 .31707765 .3849945 .3560791 .34899903 .39312745 .30999757 .43223573 .2599945 .4482422 .21199036 .4482422 .12998963 .4482422 .06098938 .40115357 .06098938 .335083 .06098938 .30508424 .08099365 .28808595 .10699463 .28808595 .1349945 .28808595 .15299988 .30807496 .15299988 .33407594 .15299988 .3460846 .147995 .37908937 .101989749 .38008119 .1289978 .41519166 .17799378 .426239 .20999146 .426239 .25898744 .426239 .31599427 .38710023 .31599427 .29808045V.26107789C.2649994 .25808717 .19499207 .25508119 .13198853 .22509766 .056991579 .19110108 .03199768 .13911438 .03199768 .09512329 .03199768 .014251709 .1289978-.0107421879 .19198609-.0107421879 .2579956-.0107421879 .3039856 .029251099 .32299806 .07624817 .32699586 .036132814 .35398866-.005859375 .40098573-.005859375 .42199708-.005859375 .48298646 .008132935 .48298646 .08912659M.31599427 .14013672C.31599427 .04525757 .24398804 .011245728 .19898987 .011245728 .1499939 .011245728 .10899353 .04624939 .10899353 .09625244 .10899353 .15124512 .15098572 .23425293 .31599427 .24024964V.14013672Z"/>
<path id="font_1_75" d="M.8129883 0V.0309906C.7609863 .0309906 .73599246 .0309906 .7350006 .061019899V.25221253C.7350006 .3383026 .7350006 .36932374 .70399478 .405365 .6899872 .42237855 .6569977 .4423828 .598999 .4423828 .5149994 .4423828 .47099305 .38233949 .45399476 .34429933 .43998719 .43138124 .3659973 .4423828 .32099916 .4423828 .24798584 .4423828 .20098877 .39935304 .17298889 .33729554V.4423828L.03199768 .43066407V.3996582C.101989749 .3996582 .10998535 .39266969 .10998535 .34370423V.07595825C.10998535 .0309906 .09899902 .0309906 .03199768 .0309906V0L.14498902 .0029907227 .25698854 0V.0309906C.18998719 .0309906 .1789856 .0309906 .1789856 .07595825V.25978089C.1789856 .36431886 .25 .42037965 .31399537 .42037965 .3769989 .42037965 .3880005 .36631776 .3880005 .30926515V.076034549C.3880005 .0309906 .3769989 .0309906 .30999757 .0309906V0L.4229889 .0029907227 .5349884 0V.0309906C.46798707 .0309906 .45700074 .0309906 .45700074 .076034549V.2602234C.45700074 .36431886 .5279999 .42037965 .59199526 .42037965 .6549988 .42037965 .66600039 .36631776 .66600039 .30926515V.076034549C.66600039 .0309906 .6549988 .0309906 .58799746 .0309906V0L.70098879 .0029907227 .8129883 0Z"/>
<path id="font_1_97" d="M.49899293 .18579102C.49899293 .2858429 .43299867 .36791993 .34899903 .38793946L.22099304 .4189453C.15899658 .43388368 .11999512 .48773194 .11999512 .5458069 .11999512 .61595156 .17399597 .677063 .2519989 .677063 .4189911 .677063 .44099427 .5127411 .44699098 .46777345 .44799806 .461792 .44799806 .45581056 .45899964 .45581056 .47200013 .45581056 .47200013 .46080018 .47200013 .47973634V.68107607C.47200013 .69807437 .47200013 .7050781 .46099855 .7050781 .45399476 .7050781 .45298768 .70407107 .44599916 .69207766L.41099549 .63497927C.3809967 .66404727 .33999635 .7050781 .25099183 .7050781 .13999939 .7050781 .055999757 .61694338 .055999757 .5107422 .055999757 .42790223 .10899353 .35490418 .18699646 .32788087 .19799805 .32388307 .24899292 .3118744 .31900025 .29486085 .34599305 .28785707 .37599183 .280838 .4039917 .24382019 .4249878 .2177887 .43499757 .18478394 .43499757 .1517334 .43499757 .0806427 .3849945 .008529663 .30099488 .008529663 .27198792 .008529663 .19599915 .013534546 .14299011 .06260681 .084991458 .11668396 .08198547 .18078614 .08099365 .21679688 .07998657 .22679138 .07199097 .22679138 .068984989 .22679138 .055999757 .22679138 .055999757 .2197876 .055999757 .20178223V.0015258789C.055999757-.015472412 .055999757-.022460938 .066986087-.022460938 .07398987-.022460938 .07499695-.020462037 .08198547-.009475708 .08198547-.009475708 .084991458-.0054626467 .117996219 .047592164 .14898682 .013534546 .21299744-.022460938 .3019867-.022460938 .4189911-.022460938 .49899293 .07562256 .49899293 .18579102Z"/>
<path id="font_1_43" d="M.4149933 .119140628C.4149933 .12911988 .40499879 .12911988 .4019928 .12911988 .3929901 .12911988 .3909912 .12512207 .3889923 .119140628 .3600006 .026229859 .29499818 .014251709 .2579956 .014251709 .20498657 .014251709 .116989139 .0572052 .116989139 .21801758 .116989139 .38093568 .19898987 .42323304 .2519989 .42323304 .26098634 .42323304 .32398988 .42222596 .35899354 .38594056 .31799317 .38293458 .31199647 .3529358 .31199647 .3399353 .31199647 .31393434 .32998658 .2939453 .35798646 .2939453 .38398744 .2939453 .4039917 .3109436 .4039917 .34094239 .4039917 .40911866 .32798768 .4482422 .25099183 .4482422 .12599182 .4482422 .033996583 .3399353 .033996583 .21601868 .033996583 .08816528 .1329956-.0107421879 .24899292-.0107421879 .3829956-.0107421879 .4149933 .10914612 .4149933 .119140628Z"/>
<path id="font_1_81" d="M.47099305 .21424866C.47099305 .34223939 .37098695 .4482422 .25 .4482422 .125 .4482422 .027999878 .3392334 .027999878 .21424866 .027999878 .085250858 .13198853-.0107421879 .24899292-.0107421879 .36999513-.0107421879 .47099305 .087249759 .47099305 .21424866M.3880005 .22224427C.3880005 .18624878 .3880005 .13224793 .3659973 .08824158 .34399415 .04324341 .2999878 .014251709 .25 .014251709 .20698548 .014251709 .16299439 .035247804 .13598633 .08125305 .11099243 .12524414 .11099243 .18624878 .11099243 .22224427 .11099243 .26124574 .11099243 .31523133 .1349945 .35923768 .1619873 .40522767 .20899964 .426239 .24899292 .426239 .29299928 .426239 .33599855 .40423585 .3619995 .36123658 .3880005 .3182373 .3880005 .26023866 .3880005 .22224427Z"/>
<path id="font_1_96" d="M.3639984 .38137818C.3639984 .41337586 .33299256 .4423828 .2899933 .4423828 .21699524 .4423828 .18099976 .37538148 .16699219 .3323822V.4423828L.027999878 .43066407V.3996582C.09799194 .3996582 .10598755 .39266969 .10598755 .34370423V.07595825C.10598755 .0309906 .09498596 .0309906 .027999878 .0309906V0L.14199829 .0029907227C.18199158 .0029907227 .22898865 .0029907227 .2689972 0V.0309906H.24798584C.17399597 .0309906 .17199707 .04197693 .17199707 .07795715V.23181153C.17199707 .33137513 .21398926 .42037965 .2899933 .42037965 .29699708 .42037965 .29899598 .42037965 .30099488 .41937257 .2979889 .41838075 .27799989 .40637208 .27799989 .3803711 .27799989 .35237123 .29899598 .33737184 .32099916 .33737184 .33898927 .33737184 .3639984 .3493805 .3639984 .38137818Z"/>
<path id="font_1_50" d="M.4149933 .11933899C.4149933 .12934876 .40699769 .13134766 .4019928 .13134766 .3929901 .13134766 .3909912 .12535095 .3889923 .11734009 .35398866 .014251709 .2639923 .014251709 .2539978 .014251709 .20399475 .014251709 .1639862 .044281007 .14099121 .08131409 .11099243 .12934876 .11099243 .19540406 .11099243 .23144531H.3899994C.4119873 .23144531 .4149933 .23144531 .4149933 .2524414 .4149933 .35131837 .36099244 .4482422 .23599243 .4482422 .11999512 .4482422 .027999878 .34532167 .027999878 .22042847 .027999878 .08631897 .1329956-.0107421879 .24798584-.0107421879 .36999513-.0107421879 .4149933 .10032654 .4149933 .11933899M.34899903 .2524414H.11199951C.117996219 .40126039 .20199585 .426239 .23599243 .426239 .33898927 .426239 .34899903 .2913971 .34899903 .2524414Z"/>
<path id="font_1_98" d="M.3600006 .12823487C.3600006 .18122864 .32998658 .21122742 .31799317 .22323609 .2849884 .25523377 .24598694 .26322938 .20399475 .27124024 .147995 .28224183 .08099365 .29522706 .08099365 .35324098 .08099365 .38822938 .10699463 .42922975 .19299317 .42922975 .30299378 .42922975 .30799867 .3392334 .30999757 .30822755 .31098939 .2992401 .32199098 .2992401 .32199098 .2992401 .33499146 .2992401 .33499146 .30422975 .33499146 .32322694V.4242401C.33499146 .4412384 .33499146 .4482422 .32398988 .4482422 .31900025 .4482422 .31698609 .4482422 .3039856 .43623353 .30099488 .43223573 .29100038 .42323304 .2869873 .42022706 .24899292 .4482422 .20799256 .4482422 .19299317 .4482422 .070999149 .4482422 .032989503 .38124085 .032989503 .3252411 .032989503 .29023744 .04899597 .26223756 .07598877 .24023438 .10798645 .2142334 .13598633 .2082367 .20799256 .19422913 .22999573 .19021607 .31199647 .17422486 .31199647 .10221863 .31199647 .051223756 .2769928 .011245728 .19898987 .011245728 .114990238 .011245728 .07899475 .068222049 .05999756 .1532135 .056991579 .16621399 .055999757 .17021179 .04598999 .17021179 .032989503 .17021179 .032989503 .16322327 .032989503 .1452179V.013214111C.032989503-.003753662 .032989503-.0107421879 .04399109-.0107421879 .04899597-.0107421879 .049987794-.009750366 .068984989 .009246826 .070999149 .011245728 .070999149 .013214111 .08898926 .032226564 .1329956-.009750366 .17799378-.0107421879 .19898987-.0107421879 .31399537-.0107421879 .3600006 .05621338 .3600006 .1282196V.12823487Z"/>
<path id="font_1_54" d="M.6100006 .45477296 .58200076 .6796875H.032989503V.64868167H.056991579C.13398743 .64868167 .13598633 .63768008 .13598633 .6016998V.07797241C.13598633 .041992189 .13398743 .0309906 .056991579 .0309906H.032989503V0C.067993167 .0029907227 .1459961 .0029907227 .18499756 .0029907227 .22599793 .0029907227 .31698609 .0029907227 .35299684 0V.0309906H.31999208C.22499085 .031188965 .22499085 .044189454 .22499085 .079193118V.3251953H.31098939C.40699769 .3251953 .4169922 .29318238 .4169922 .20819092H.44198609V.4731903H.4169922C.4169922 .38919068 .40699769 .3561859 .31098939 .3561859H.22499085V.6091919C.22499085 .64167788 .22698975 .64868167 .27398683 .64868167H.3939972C.5439911 .64868167 .56900027 .5926819 .58499148 .4546814L.6100006 .45477296Z"/>
<path id="font_1_91" d="M.5269928-.1940918V-.16308594C.45999146-.16308594 .44898988-.16308594 .44898988-.117996219V.4423828H.4269867L.3889923 .35136415C.37599183 .379364 .33499146 .4423828 .25498963 .4423828 .13899231 .4423828 .033996583 .34535218 .033996583 .21531677 .033996583 .090270999 .1309967-.0107421879 .24699402-.0107421879 .31698609-.0107421879 .35798646 .03225708 .37998963 .061264039V-.117996219C.37998963-.16308594 .36898805-.16308594 .3019867-.16308594V-.1940918L.4139862-.19110108 .5269928-.1940918M.3829956 .1362915C.3829956 .104278568 .36499024 .07626343 .34298707 .052261354 .32998658 .038253786 .2979889 .011245728 .25099183 .011245728 .17799378 .011245728 .116989139 .10028076 .116989139 .21531677 .116989139 .3343506 .18699646 .41737367 .26098634 .41737367 .34098817 .41737367 .3829956 .33035279 .3829956 .2773285V.1362915Z"/>
<path id="font_1_109" d="M.5349884 0V.0309906C.46499635 .0309906 .45700074 .037994386 .45700074 .08705139V.4423828L.30999757 .43066407V.3996582C.37998963 .3996582 .3880005 .39266969 .3880005 .34373475V.16601563C.3880005 .07910156 .33999635 .011245728 .2669983 .011245728 .18299866 .011245728 .1789856 .058135988 .1789856 .11009216V.4423828L.03199768 .43066407V.3996582C.10998535 .3996582 .10998535 .39666749 .10998535 .3078003V.15802002C.10998535 .080093387 .10998535-.0107421879 .2619934-.0107421879 .31799317-.0107421879 .3619995 .017242432 .3909912 .07910156V-.0107421879L.5349884 0Z"/>
<path id="font_1_77" d="M.5349884 0V.0309906C.48298646 .0309906 .45799256 .0309906 .45700074 .061019899V.25221253C.45700074 .3383026 .45700074 .36932374 .42599488 .405365 .4119873 .42237855 .3789978 .4423828 .32099916 .4423828 .24798584 .4423828 .20098877 .39935304 .17298889 .33729554V.4423828L.03199768 .43066407V.3996582C.101989749 .3996582 .10998535 .39266969 .10998535 .34370423V.07595825C.10998535 .0309906 .09899902 .0309906 .03199768 .0309906V0L.14498902 .0029907227 .25698854 0V.0309906C.18998719 .0309906 .1789856 .0309906 .1789856 .07595825V.25978089C.1789856 .36431886 .25 .42037965 .31399537 .42037965 .3769989 .42037965 .3880005 .36631776 .3880005 .30926515V.076034549C.3880005 .0309906 .3769989 .0309906 .30999757 .0309906V0L.4229889 .0029907227 .5349884 0Z"/>
<path id="font_1_118" d="M.5079956 .3996582V.43066407C.4850006 .4286499 .45599366 .42765809 .43299867 .42765809L.34599305 .43066407V.3996582C.3769989 .39866639 .3929901 .3816681 .3929901 .35668946 .3929901 .34669496 .3919983 .34469605 .3869934 .33270265L.28599549 .08685303 .1749878 .35568238C.17098999 .36567689 .16899109 .36967469 .16899109 .3736725 .16899109 .3996582 .20599365 .3996582 .22499085 .3996582V.43066407L.115997318 .42765809C.08898926 .42765809 .04899597 .4286499 .018997193 .43066407V.3996582C.066986087 .3996582 .085998538 .3996582 .099990848 .36468507L.25-.000091552738 .22499085-.059066774C.20298767-.11407471 .1749878-.18309021 .11099243-.18309021 .10598755-.18309021 .08299255-.18309021 .06399536-.16503906 .09498596-.16104126 .102996829-.13905335 .102996829-.123046878 .102996829-.0970459 .083999637-.08103943 .06098938-.08103943 .040985109-.08103943 .018997193-.09403992 .018997193-.124053958 .018997193-.16905213 .06098938-.20507813 .11099243-.20507813 .17399597-.20507813 .21499634-.14804077 .23899842-.091049198L.4149933 .33569337C.44099427 .39865113 .49198915 .3996582 .5079956 .3996582Z"/>
<path id="font_1_46" d="M.70700076 .33580018C.70700076 .52568057 .57199099 .6826172 .40098573 .6826172H.034988405V.6516113H.05899048C.13598633 .6516113 .13798523 .64060977 .13798523 .6046295V.07795715C.13798523 .041992189 .13598633 .0309906 .05899048 .0309906H.034988405V0H.40098573C.56900027 0 .70700076 .1479187 .70700076 .33580018M.6069946 .33580018C.6069946 .22486878 .58799746 .16490174 .5519867 .11593628 .5319977 .08895874 .47499085 .0309906 .37399293 .0309906H.272995C.22599793 .0309906 .22399903 .037994386 .22399903 .07096863V.6116333C.22399903 .64460757 .22599793 .6516113 .272995 .6516113H.37298585C.43499757 .6516113 .5039978 .6296234 .5549927 .55867007 .59799197 .49969483 .6069946 .41375733 .6069946 .33580018Z"/>
<path id="font_1_66" d="M.24699402 0V.0309906C.18099976 .0309906 .1769867 .035995485 .1769867 .075042728V.4423828L.036987306 .43066407V.3996582C.101989749 .3996582 .11099243 .3936615 .11099243 .3447113V.07595825C.11099243 .0309906 .099990848 .0309906 .032989503 .0309906V0L.14299011 .0029907227C.17799378 .0029907227 .21299744 .0009918213 .24699402 0M.19198609 .603775C.19198609 .6307678 .16899109 .6567688 .13899231 .6567688 .10499573 .6567688 .084991458 .6287689 .084991458 .603775 .084991458 .57676699 .10798645 .55078127 .13798523 .55078127 .17199707 .55078127 .19198609 .5787811 .19198609 .603775Z"/>
<path id="font_1_105" d="M.33198548 .12385559V.18066406H.30699159V.12585449C.30699159 .052108766 .2769928 .014251709 .23999024 .014251709 .17298889 .014251709 .17298889 .10491943 .17298889 .12187195V.3996582H.31599427V.43066407H.17298889V.6142578H.147995C.14698792 .5324249 .116989139 .42565919 .018997193 .42166139V.3996582H.10398865V.12408447C.10398865 .0012512207 .19699097-.0107421879 .23298645-.0107421879 .3039856-.0107421879 .33198548 .060180665 .33198548 .12408447V.12385559Z"/>
<path id="font_4_46" d="M.798996 .33677674C.798996 .56259158 .6469879 .6855469 .45899964 .6855469H.037994386V.64253237H.14399719V.042999269H.037994386V0H.45899964C.651001 0 .798996 .122924808 .798996 .33677674M.6629944 .33776856C.6629944 .22085572 .647995 .16889954 .61299136 .12193298 .5779877 .07597351 .5109863 .042999269 .42099 .042999269H.2709961V.64253237H.42099C.5079956 .64253237 .5779877 .6085663 .61499026 .5566101 .6439972 .51564028 .6629944 .4666748 .6629944 .33776856Z"/>
<path id="font_4_66" d="M.2789917 0V.042999269H.21699524V.4501953L.04699707 .4423828V.3993683C.10598755 .3993683 .11299133 .3993683 .11299133 .3603363V.042999269H.04399109V0C.066986087 .0019989014 .13598633 .0019989014 .16299439 .0019989014 .19099427 .0019989014 .25498963 .0019989014 .2789917 0M.22898865 .6081238C.22898865 .64912417 .19499207 .68013 .15699768 .68013 .115997318 .68013 .083999637 .64712527 .083999637 .6081238 .083999637 .5671234 .117996219 .5361328 .1559906 .5361328 .19699097 .5361328 .22898865 .5691223 .22898865 .6081238Z"/>
<path id="font_4_98" d="M.40499879 .13912964C.40499879 .18711853 .3789978 .22012329 .35899354 .23812866 .31799317 .27212525 .28399659 .27812196 .22999573 .28811646 .1659851 .29911805 .10598755 .31011964 .10598755 .35812379 .10598755 .42311097 .19499207 .42311097 .21598816 .42311097 .32699586 .42311097 .33299256 .3531189 .33499146 .328125 .33599855 .3151245 .34399415 .3151245 .35598756 .3151245 .3769989 .3151245 .3769989 .31811524 .3769989 .34111024V.42712403C.3769989 .44612123 .3769989 .453125 .3619995 .453125 .35598756 .453125 .35398866 .453125 .33898927 .4441223 .33499146 .44111634 .32398988 .43411256 .31900025 .43112184 .29100038 .44711305 .2539978 .453125 .21798706 .453125 .18798828 .453125 .037994386 .453125 .037994386 .32312013 .037994386 .21812439 .1619873 .19612122 .19299317 .19113159 .21998596 .18612671 .25299073 .18013 .25698854 .18013 .29699708 .17112732 .33699037 .14613343 .33699037 .10412598 .33699037 .027130127 .24598694 .027130127 .22499085 .027130127 .17399597 .027130127 .11099243 .043136598 .08299255 .14012146 .07699585 .16012573 .07598877 .16113281 .05899048 .16113281 .037994386 .16113281 .037994386 .15812683 .037994386 .13513184V.020126343C.037994386 .0011291504 .037994386-.005859375 .052993776-.005859375 .05999756-.005859375 .06199646-.005859375 .08198547 .010131836L.10798645 .029129029C.15299988-.005859375 .20698548-.005859375 .22499085-.005859375 .27999879-.005859375 .40499879 .006134033 .40499879 .13912964Z"/>
<path id="font_4_105" d="M.37399293 .124176029V.17721558H.33198548V.1251831C.33198548 .059143068 .3019867 .030136109 .2709961 .030136109 .21099854 .030136109 .21099854 .09716797 .21099854 .12017822V.4013214H.35499574V.44433595H.21099854V.6357422H.16899109C.16799927 .53652957 .11999512 .43733216 .020996094 .43432618V.4013214H.101989749V.123184207C.101989749 .01713562 .18399048-.005859375 .2559967-.005859375 .32998658-.005859375 .37399293 .05014038 .37399293 .124176029Z"/>
<path id="font_4_96" d="M.4269867 .3711853C.4269867 .42218019 .375 .4501953 .32699586 .4501953 .24798584 .4501953 .21398926 .38119508 .19999695 .33918763H.19898987V.4501953L.034988405 .4423828V.3993683C.09700012 .3993683 .10398865 .3993683 .10398865 .3603363V.042999269H.034988405V0C.057998659 .0019989014 .1329956 .0019989014 .16099549 .0019989014 .18998719 .0019989014 .2709961 .0019989014 .29499818 0V.042999269H.20799256V.22518921C.20799256 .25819398 .21499634 .41719056 .33198548 .41719056 .31799317 .40618897 .31098939 .38919068 .31098939 .3711853 .31098939 .33018495 .34399415 .31318666 .36898805 .31318666 .3939972 .31318666 .4269867 .33018495 .4269867 .3711853Z"/>
<path id="font_4_35" d="M.58599856 .22319031C.58599856 .36018373 .49198915 .4501953 .35499574 .4501953 .29599 .4501953 .24899292 .43118287 .20799256 .39918519V.69433596L.034988405 .6863251V.6433258C.09700012 .6433258 .10398865 .6433258 .10398865 .6042938V.0001373291H.1459961C.16299439 .019134522 .17999268 .038131715 .19599915 .058135988 .24699402 .005126953 .3019867-.005859375 .34199525-.005859375 .47999574-.005859375 .58599856 .07814026 .58599856 .22315979V.22319031M.46598817 .22416687C.46598817 .17915344 .46598817 .12214661 .44198609 .08514404 .41099549 .037139894 .3639984 .027130127 .33198548 .027130127 .2639923 .027130127 .22698975 .07513428 .21299744 .09713745V.35118104C.24798584 .39918519 .2999878 .41719056 .34199525 .41719056 .46598817 .41719056 .46598817 .29019166 .46598817 .22418213V.22416687Z"/>
<path id="font_4_109" d="M.59999087 0V.042999269C.5379944 .042999269 .5309906 .042999269 .5309906 .08201599V.4501953L.35299684 .4423828V.3993683C.4149933 .3993683 .42199708 .3993683 .42199708 .36035157V.16423035C.42199708 .08818054 .3769989 .027130127 .29899598 .027130127 .22399903 .027130127 .21998596 .05215454 .21998596 .10719299V.4501953L.041992189 .4423828V.3993683C.10398865 .3993683 .11099243 .3993683 .11099243 .36035157V.12319946C.11099243 .023132325 .17799378-.005859375 .2849884-.005859375 .30899049-.005859375 .3829956-.005859375 .42599488 .075164798H.4269867V-.005859375L.59999087 0Z"/>
<path id="font_4_81" d="M.5299988 .21913147C.5299988 .35412599 .43798829 .453125 .2809906 .453125 .117996219 .453125 .0309906 .3491211 .0309906 .21913147 .0309906 .088134769 .12298584-.005859375 .27999879-.005859375 .44299317-.005859375 .5299988 .09312439 .5299988 .21913147M.4099884 .22912598C.4099884 .14613343 .4099884 .030136109 .2809906 .030136109 .15098572 .030136109 .15098572 .14712525 .15098572 .22912598 .15098572 .27612306 .15098572 .3261261 .16999817 .36212159 .19198609 .40211488 .23699951 .42012025 .27999879 .42012025 .33699037 .42012025 .37298585 .39311219 .3899994 .3651123 .4099884 .32911683 .4099884 .27713014 .4099884 .22912598Z"/>
<path id="font_4_77" d="M.59999087 0V.042999269H.5309906V.30613709C.5309906 .40118409 .48999024 .4501953 .37998963 .4501953 .30799867 .4501953 .24598694 .41519166 .21199036 .34014894H.21099854V.4501953L.041992189 .4423828V.3993683C.10398865 .3993683 .11099243 .3993683 .11099243 .36035157V.042999269H.041992189V0C.06498718 .0019989014 .13699341 .0019989014 .16499329 .0019989014 .19299317 .0019989014 .2659912 .0019989014 .2889862 0V.042999269H.21998596V.25627137C.21998596 .3643341 .2999878 .41719056 .3639984 .41719056 .40098573 .41719056 .42199708 .3932495 .42199708 .31733705V.042999269H.35299684V0C.37599183 .0019989014 .44799806 .0019989014 .47599793 .0019989014 .5039978 .0019989014 .57699587 .0019989014 .59999087 0Z"/>
<path id="font_4_55" d="M.42199708 .617218C.42199708 .65818789 .38598634 .7001953 .31498719 .7001953 .22399903 .7001953 .11299133 .66218569 .11299133 .54626467V.44433595H.038986207V.4013214H.11299133V.042999269H.04399109V0C.066986087 .0019989014 .14199829 .0019989014 .16999817 .0019989014 .19898987 .0019989014 .27999879 .0019989014 .3039856 0V.042999269H.21699524V.4013214H.33099366V.44433595H.21199036V.54725649C.21199036 .65119937 .27799989 .66719058 .31098939 .66719058 .32199098 .66719058 .32398988 .6661835 .32998658 .6641846 .31498719 .65419009 .30599977 .63720706 .30599977 .6162262 .30599977 .57624819 .33799745 .55825808 .3639984 .55825808 .38598634 .55825808 .42199708 .5732422 .42199708 .617218Z"/>
<path id="font_4_49" d="M.70599368 .269989H.6639862C.6429901 .12098694 .60598757 .042999269 .43199159 .042999269H.27598573V.33198548H.33499146C.43099977 .33198548 .44099427 .29100038 .44099427 .21499634H.48298646V.4918518H.44099427C.44099427 .4169464 .43099977 .375 .33499146 .375H.27598573V.6376953H.43199159C.58499148 .6376953 .6179962 .5727234 .6329956 .44378663H.6749878L.6459961 .6806946H.037994386V.6376953H.14399719V.042999269H.037994386V0H.6629944L.70599368 .269989Z"/>
<path id="font_4_116" d="M.57598879 0V.042999269H.5059967L.33699037 .24717713 .45298768 .38031007C.46398927 .3933258 .47299195 .4013214 .55599978 .4013214V.44433595L.46398927 .44232179C.43499757 .44232179 .3919983 .44232179 .3639984 .44433595V.4013214C.3829956 .4013214 .4039917 .3963318 .4039917 .38931275 .4039917 .38931275 .39898683 .38031007 .39698792 .37831117L.30999757 .2802124 .21099854 .4013214H.25299073V.44433595C.22999573 .44232179 .1619873 .44232179 .1349945 .44232179 .10499573 .44232179 .050994874 .44232179 .022994996 .44433595V.4013214H.09399414L.25 .21115113 .11999512 .06401062C.10798645 .05000305 .100997928 .042999269 .017990113 .042999269V0L.11099243 .0019989014C.13999939 .0019989014 .18199158 .0019989014 .20999146 0V.042999269C.19099427 .042999269 .16999817 .04800415 .16999817 .055007936 .16999817 .055007936 .16999817 .057006837 .1769867 .0650177L.2769928 .17811585 .3880005 .042999269H.34599305V0C.36999513 .0019989014 .43699647 .0019989014 .46499635 .0019989014 .49499513 .0019989014 .5479889 .0019989014 .57598879 0Z"/>
<path id="font_4_28" d="M.54100039 .022140503C.54100039 .043136598 .5319977 .043136598 .5179901 .043136598 .45498658 .044128419 .45498658 .060134889 .45498658 .08312988V.29911805C.45498658 .39111329 .38198854 .453125 .24099732 .453125 .18499756 .453125 .066986087 .44812013 .066986087 .36412049 .066986087 .32211305 .09899902 .30412293 .12599182 .30412293 .1559906 .30412293 .18499756 .32511903 .18499756 .3631134 .18499756 .3821106 .17799378 .40011598 .16099549 .41111756 .19400025 .42012025 .21798706 .42012025 .23699951 .42012025 .30499269 .42012025 .34599305 .3821106 .34599305 .30012513V.26011659C.18798828 .26011659 .0289917 .21612549 .0289917 .10513306 .0289917 .014129639 .14498902-.005859375 .21398926-.005859375 .29100038-.005859375 .33999635 .036132814 .3600006 .0801239 .3600006 .042999269 .3600006 0 .46099855 0H.5119934C.5329895 0 .54100039 0 .54100039 .021987915V.022140503M.34599305 .13899231C.34599305 .04499817 .2619934 .026992798 .22999573 .026992798 .18099976 .026992798 .13999939 .05999756 .13999939 .10598755 .13999939 .19699097 .24798584 .22799683 .34599305 .23298645V.13899231Z"/>
<path id="font_4_75" d="M.9129944 0V.042999269H.84399417V.30636598C.84399417 .39823915 .8049927 .4501953 .69299319 .4501953 .59199526 .4501953 .54499819 .38227845 .5289917 .3503723 .5130005 .43518067 .44499208 .4501953 .3809967 .4501953 .2849884 .4501953 .23298645 .38827516 .21199036 .3403778H.21099854V.4501953L.041992189 .4423828V.3993683C.10398865 .3993683 .11099243 .3993683 .11099243 .36035157V.042999269H.041992189V0C.06498718 .0019989014 .13699341 .0019989014 .16499329 .0019989014 .19299317 .0019989014 .2659912 .0019989014 .2889862 0V.042999269H.21998596V.25627137C.21998596 .36532594 .30099488 .41719056 .3639984 .41719056 .40098573 .41719056 .4229889 .3952484 .4229889 .3173828V.042999269H.35398866V0C.3769989 .0019989014 .44898988 .0019989014 .47698976 .0019989014 .5049896 .0019989014 .5779877 .0019989014 .6009979 0V.042999269H.5319977V.25628663C.5319977 .36532594 .61299136 .41719056 .6759949 .41719056 .71299746 .41719056 .7350006 .3952484 .7350006 .3173828V.042999269H.66600039V0C.68899539 .0019989014 .7609863 .0019989014 .78900149 .0019989014 .81700137 .0019989014 .8899994 .0019989014 .9129944 0Z"/>
<path id="font_4_97" d="M.56199648 .20014954C.56199648 .2942047 .5 .38433839 .3909912 .40937806L.2539978 .4404297C.15499878 .4624176 .1519928 .5343628 .1519928 .5483551 .1519928 .59928897 .18499756 .65823367 .28199769 .65823367 .3789978 .65823367 .46598817 .61128237 .4869995 .48042298 .48999024 .45942689 .48999024 .4584198 .5089874 .4584198 .5299988 .4584198 .5299988 .46142579 .5299988 .48442079V.6722412C.5299988 .6912384 .5299988 .6982422 .5149994 .6982422 .5079956 .6982422 .5049896 .6972351 .49598695 .6872406L.45298768 .6382599C.42799378 .6592407 .37799073 .6982422 .2809906 .6982422 .13798523 .6982422 .06199646 .6082916 .06199646 .4994049 .06199646 .43241883 .09799194 .38534547 .11199951 .37132264 .1639862 .31924439 .19198609 .31323243 .29599 .2902069 .3959961 .26817323 .4079895 .26617433 .42999269 .2451477 .44299317 .23214722 .47200013 .20414734 .47200013 .15318299 .47200013 .11021423 .45098878 .031280519 .33898927 .031280519 .25099183 .031280519 .11199951 .06124878 .10398865 .20713806 .102996829 .22514344 .102996829 .22813416 .08299255 .22813416 .06199646 .22813416 .06199646 .22514344 .06199646 .20214844V.014266968C.06199646-.0047302248 .06199646-.01171875 .07699585-.01171875 .083999637-.01171875 .084991458-.010726929 .09498596-.0017242432 .10598755 .009277344 .114990238 .022277832 .13999939 .04725647 .19799805 .0012664795 .27999879-.01171875 .33999635-.01171875 .49598695-.01171875 .56199648 .09422302 .56199648 .20014954Z"/>
<path id="font_4_43" d="M.46798707 .117126468C.46798707 .12913513 .45700074 .12913513 .44699098 .12913513 .43099977 .12913513 .42999269 .12812805 .4249878 .11613464 .41799928 .09713745 .3909912 .030136109 .29899598 .030136109 .1579895 .030136109 .1579895 .1821289 .1579895 .22712708 .1579895 .28611756 .15899658 .41711427 .2899933 .41711427 .29699708 .41711427 .35598756 .41511537 .35598756 .41011048 .35598756 .41011048 .35499574 .40811158 .35299684 .40711976 .34999085 .40411378 .33699037 .38911439 .33699037 .36412049 .33699037 .32211305 .37098695 .30511476 .3959961 .30511476 .4169922 .30511476 .45498658 .31811524 .45498658 .3651123 .45498658 .44711305 .33999635 .453125 .28599549 .453125 .10798645 .453125 .037994386 .33711244 .037994386 .22212219 .037994386 .086135867 .1329956-.005859375 .27999879-.005859375 .43699647-.005859375 .46798707 .11012268 .46798707 .117126468Z"/>
<path id="font_4_50" d="M.48098756 .11706543C.48098756 .13206482 .46598817 .13206482 .45999146 .13206482 .44400025 .13206482 .44299317 .12905884 .43699647 .11607361 .41099549 .051116945 .34498597 .030136109 .29699708 .030136109 .1519928 .030136109 .15098572 .16503906 .15098572 .22099304H.45199586C.47499085 .22099304 .48098756 .22099304 .48098756 .24598694 .48098756 .27601625 .47399903 .35105897 .42799378 .3981018 .38598634 .4401245 .32998658 .453125 .27198792 .453125 .115997318 .453125 .0309906 .35105897 .0309906 .22499085 .0309906 .08509827 .13398743-.005859375 .2849884-.005859375 .43598939-.005859375 .48098756 .1000824 .48098756 .11706543M.3889923 .25H.15098572C.15299988 .29101563 .1539917 .3300476 .1749878 .3660736 .19400025 .3981018 .22898865 .42012025 .27198792 .42012025 .3789978 .42012025 .3880005 .30003358 .3889923 .25Z"/>
</defs>
<path transform="matrix(1,0,0,-1.00002,33.987,299.12373)" stroke-width=".19925" stroke-linecap="butt" stroke-miterlimit="10" stroke-linejoin="miter" fill="none" stroke="#d9d9d9" d="M0 0H283.4681M0 2.83484H283.4681M0 5.6697H283.4681M0 8.50455H283.4681M0 11.33939H283.4681M0 14.17424H283.4681M0 17.0091H283.4681M0 19.84393H283.4681M0 22.67879H283.4681M0 25.51364H283.4681M0 28.3485H283.4681M0 31.18333H283.4681M0 34.01819H283.4681M0 36.85304H283.4681M0 39.68788H283.4681M0 42.52274H283.4681M0 45.35759H283.4681M0 48.19244H283.4681M0 51.02728H283.4681M0 53.86214H283.4681M0 56.69699H283.4681M0 59.53183H283.4681M0 62.36668H283.4681M0 65.20154H283.4681M0 68.03639H283.4681M0 70.87123H283.4681M0 73.70609H283.4681M0 76.54094H283.4681M0 79.37578H283.4681M0 82.21063H283.4681M0 85.04549H283.4681M0 87.88034H283.4681M0 90.71518H283.4681M0 93.55003H283.4681M0 96.38489H283.4681M0 99.21973H283.4681M0 102.05458H283.4681M0 104.88943H283.4681M0 107.72429H283.4681M0 110.55913H283.4681M0 113.39398H283.4681M0 116.22884H283.4681M0 119.06367H283.4681M0 121.89853H283.4681M0 124.73338H283.4681M0 127.56824H283.4681M0 130.40308H283.4681M0 133.23793H283.4681M0 136.07279H283.4681M0 138.90763H283.4681M0 141.74248H283.4681M0 144.57733H283.4681M0 147.41219H283.4681M0 150.24703H283.4681M0 153.08188H283.4681M0 155.91674H283.4681M0 158.75157H283.4681M0 161.58643H283.4681M0 164.42128H283.4681M0 167.25612H283.4681M0 170.09098H283.4681M0 172.92583H283.4681M0 175.76068H283.4681M0 178.59552H283.4681M0 181.43038H283.4681M0 184.26523H283.4681M0 187.10007H283.4681M0 189.93492H283.4681M0 192.76978H283.4681M0 195.60463H283.4681M0 198.43947H283.4681M0 201.27433H283.4681M0 204.10918H283.4681M0 206.94402H283.4681M0 209.77887H283.4681M0 212.61373H283.4681M0 215.44858H283.4681M0 218.28342H283.4681M0 221.11827H283.4681M0 223.95313H283.4681M0 226.78797H283.4681M0 229.62282H283.4681M0 232.45767H283.4681M0 235.29253H283.4681M0 238.12737H283.4681M0 240.96222H283.4681M0 243.79708H283.4681M0 246.63191H283.4681M0 249.46677H283.4681M0 252.30162H283.4681M0 255.13648H283.4681M0 257.9713H283.4681M0 260.80619H283.4681M0 263.64103H283.4681M0 266.47587H283.4681M0 269.3107H283.4681M0 272.14558H283.4681M0 274.9804H283.4681M0 277.81526H283.4681M0 280.65013H283.4681M0 0V283.4681M2.83484 0V283.4681M5.6697 0V283.4681M8.50455 0V283.4681M11.33939 0V283.4681M14.17424 0V283.4681M17.0091 0V283.4681M19.84393 0V283.4681M22.67879 0V283.4681M25.51364 0V283.4681M28.3485 0V283.4681M31.18333 0V283.4681M34.01819 0V283.4681M36.85304 0V283.4681M39.68788 0V283.4681M42.52274 0V283.4681M45.35759 0V283.4681M48.19244 0V283.4681M51.02728 0V283.4681M53.86214 0V283.4681M56.69699 0V283.4681M59.53183 0V283.4681M62.36668 0V283.4681M65.20154 0V283.4681M68.03639 0V283.4681M70.87123 0V283.4681M73.70609 0V283.4681M76.54094 0V283.4681M79.37578 0V283.4681M82.21063 0V283.4681M85.04549 0V283.4681M87.88034 0V283.4681M90.71518 0V283.4681M93.55003 0V283.4681M96.38489 0V283.4681M99.21973 0V283.4681M102.05458 0V283.4681M104.88943 0V283.4681M107.72429 0V283.4681M110.55913 0V283.4681M113.39398 0V283.4681M116.22884 0V283.4681M119.06367 0V283.4681M121.89853 0V283.4681M124.73338 0V283.4681M127.56824 0V283.4681M130.40308 0V283.4681M133.23793 0V283.4681M136.07279 0V283.4681M138.90763 0V283.4681M141.74248 0V283.4681M144.57733 0V283.4681M147.41219 0V283.4681M150.24703 0V283.4681M153.08188 0V283.4681M155.91674 0V283.4681M158.75157 0V283.4681M161.58643 0V283.4681M164.42128 0V283.4681M167.25612 0V283.4681M170.09098 0V283.4681M172.92583 0V283.4681M175.76068 0V283.4681M178.59552 0V283.4681M181.43038 0V283.4681M184.26523 0V283.4681M187.10007 0V283.4681M189.93492 0V283.4681M192.76978 0V283.4681M195.60463 0V283.4681M198.43947 0V283.4681M201.27433 0V283.4681M204.10918 0V283.4681M206.94402 0V283.4681M209.77887 0V283.4681M212.61373 0V283.4681M215.44858 0V283.4681M218.28342 0V283.4681M221.11827 0V283.4681M223.95313 0V283.4681M226.78797 0V283.4681M229.62282 0V283.4681M232.45767 0V283.4681M235.29253 0V283.4681M238.12737 0V283.4681M240.96222 0V283.4681M243.79708 0V283.4681M246.63191 0V283.4681M249.46677 0V283.4681M252.30162 0V283.4681M255.13648 0V283.4681M257.9713 0V283.4681M260.80619 0V283.4681M263.64103 0V283.4681M266.47587 0V283.4681M269.3107 0V283.4681M272.14558 0V283.4681M274.9804 0V283.4681M277.81526 0V283.4681M280.65013 0V283.4681M283.4681 283.4681"/>
<path transform="matrix(1,0,0,-1.00002,33.987,299.12373)" stroke-width=".3985" stroke-linecap="butt" stroke-miterlimit="10" stroke-linejoin="miter" fill="none" stroke="#a6a6a6" d="M0 0H283.4681M0 28.3468H283.4681M0 56.69362H283.4681M0 85.04042H283.4681M0 113.38724H283.4681M0 141.73404H283.4681M0 170.08086H283.4681M0 198.42766H283.4681M0 226.77448H283.4681M0 255.12128H283.4681M0 283.45814H283.4681M0 0V283.4681M28.3468 0V283.4681M56.69362 0V283.4681M85.04042 0V283.4681M113.38724 0V283.4681M141.73404 0V283.4681M170.08086 0V283.4681M198.42766 0V283.4681M226.77448 0V283.4681M255.12128 0V283.4681M283.45814 0V283.4681M283.4681 283.4681"/>
<path transform="matrix(1,0,0,-1.00002,33.987,299.12373)" stroke-width=".79701" stroke-linecap="butt" stroke-miterlimit="10" stroke-linejoin="miter" fill="none" stroke="#000000" d="M0 0H282.67109"/>
<path transform="matrix(1,0,0,-1.00002,317.05659,299.12373)" stroke-width=".79701" stroke-linecap="round" stroke-linejoin="round" fill="none" stroke="#000000" d="M-2.55046 3.11095C-2.0845 1.24435-1.04614 .36295 0 0-1.04614-.36295-2.0845-1.24435-2.55046-3.11095"/>
<path transform="matrix(1,0,0,-1.00002,33.987,299.12373)" stroke-width=".79701" stroke-linecap="butt" stroke-miterlimit="10" stroke-linejoin="miter" fill="none" stroke="#000000" d="M0 0V282.67109"/>
<path transform="matrix(0,-1.00002,-1,-0,33.987,16.048462)" stroke-width=".79701" stroke-linecap="round" stroke-linejoin="round" fill="none" stroke="#000000" d="M-2.55046 3.11095C-2.0845 1.24435-1.04614 .36295 0 0-1.04614-.36295-2.0845-1.24435-2.55046-3.11095"/>
<use data-text="4" xlink:href="#font_1_57" transform="matrix(9.9626,0,0,-9.962799,57.351999,309.38893)"/>
<use data-text="0" xlink:href="#font_1_121" transform="matrix(9.9626,0,0,-9.962799,62.333299,309.38893)"/>
<use data-text="5" xlink:href="#font_1_56" transform="matrix(9.9626,0,0,-9.962799,99.873,309.27894)"/>
<use data-text="5" xlink:href="#font_1_56" transform="matrix(9.9626,0,0,-9.962799,104.8543,309.27894)"/>
<use data-text="7" xlink:href="#font_1_100" transform="matrix(9.9626,0,0,-9.962799,142.393,309.37895)"/>
<use data-text="0" xlink:href="#font_1_121" transform="matrix(9.9626,0,0,-9.962799,147.3743,309.37895)"/>
<use data-text="8" xlink:href="#font_1_51" transform="matrix(9.9626,0,0,-9.962799,199.086,309.27894)"/>
<use data-text="5" xlink:href="#font_1_56" transform="matrix(9.9626,0,0,-9.962799,204.06729,309.27894)"/>
<use data-text="9" xlink:href="#font_1_78" transform="matrix(9.9626,0,0,-9.962799,269.953,309.27894)"/>
<use data-text="5" xlink:href="#font_1_56" transform="matrix(9.9626,0,0,-9.962799,274.9343,309.27894)"/>
<use data-text="0" xlink:href="#font_2_1" transform="matrix(8.9664,0,0,-8.966579,25.859002,302.0128)"/>
<use data-text="0" xlink:href="#font_2_1" transform="matrix(8.9664,0,0,-8.966579,18.692002,245.31864)"/>
<use data-text="." xlink:href="#font_3_1" transform="matrix(8.9664,0,0,-8.966579,23.300004,245.31864)"/>
<use data-text="4" xlink:href="#font_2_4" transform="matrix(8.9664,0,0,-8.966579,25.86,245.31864)"/>
<use data-text="0" xlink:href="#font_2_1" transform="matrix(8.9664,0,0,-8.966579,18.692002,188.6235)"/>
<use data-text="." xlink:href="#font_3_1" transform="matrix(8.9664,0,0,-8.966579,23.300004,188.6235)"/>
<use data-text="8" xlink:href="#font_2_6" transform="matrix(8.9664,0,0,-8.966579,25.86,188.6235)"/>
<use data-text="1" xlink:href="#font_2_2" transform="matrix(8.9664,0,0,-8.966579,18.692002,131.92838)"/>
<use data-text="." xlink:href="#font_3_1" transform="matrix(8.9664,0,0,-8.966579,23.300004,131.92838)"/>
<use data-text="2" xlink:href="#font_2_3" transform="matrix(8.9664,0,0,-8.966579,25.86,131.92838)"/>
<use data-text="1" xlink:href="#font_2_2" transform="matrix(8.9664,0,0,-8.966579,18.692002,75.23424)"/>
<use data-text="." xlink:href="#font_3_1" transform="matrix(8.9664,0,0,-8.966579,23.300004,75.23424)"/>
<use data-text="6" xlink:href="#font_2_5" transform="matrix(8.9664,0,0,-8.966579,25.86,75.23424)"/>
<use data-text="2" xlink:href="#font_2_3" transform="matrix(8.9664,0,0,-8.966579,25.859002,18.539093)"/>
<path transform="matrix(1,0,0,-1.00002,33.987,299.12373)" d="M28.3468 0V226.77448H70.867V0ZM70.867 226.77448" fill="#6666ff"/>
<path transform="matrix(1,0,0,-1.00002,33.987,299.12373)" stroke-width=".79701" stroke-linecap="butt" stroke-miterlimit="10" stroke-linejoin="miter" fill="none" stroke="#000000" d="M28.3468 0V226.77448H70.867V0ZM70.867 226.77448"/>
<path transform="matrix(1,0,0,-1.00002,33.987,299.12373)" d="M70.867 0V170.08086H113.38724V0ZM113.38724 170.08086" fill="#6666ff"/>
<path transform="matrix(1,0,0,-1.00002,33.987,299.12373)" stroke-width=".79701" stroke-linecap="butt" stroke-miterlimit="10" stroke-linejoin="miter" fill="none" stroke="#000000" d="M70.867 0V170.08086H113.38724V0ZM113.38724 170.08086"/>
<path transform="matrix(1,0,0,-1.00002,33.987,299.12373)" d="M113.38724 0V141.73404H170.08086V0ZM170.08086 141.73404" fill="#6666ff"/>
<path transform="matrix(1,0,0,-1.00002,33.987,299.12373)" stroke-width=".79701" stroke-linecap="butt" stroke-miterlimit="10" stroke-linejoin="miter" fill="none" stroke="#000000" d="M113.38724 0V141.73404H170.08086V0ZM170.08086 141.73404"/>
<path transform="matrix(1,0,0,-1.00002,33.987,299.12373)" d="M170.08086 0V85.04042H240.94788V0ZM240.94788 85.04042" fill="#6666ff"/>
<path transform="matrix(1,0,0,-1.00002,33.987,299.12373)" stroke-width=".79701" stroke-linecap="butt" stroke-miterlimit="10" stroke-linejoin="miter" fill="none" stroke="#000000" d="M170.08086 0V85.04042H240.94788V0ZM240.94788 85.04042"/>
<path transform="matrix(1,0,0,-1.00002,33.987,299.12373)" stroke-width=".79701" stroke-linecap="butt" stroke-miterlimit="10" stroke-linejoin="miter" fill="none" stroke="#000000" d="M14.17339 0 49.6069 226.77448 92.1271 170.08086 141.73404 141.73404 205.51436 85.04042 255.12128 0"/>
<path transform="matrix(1,0,0,-1.00002,33.987,299.12373)" d="M52.59573 226.77448C52.59573 228.42517 51.25761 229.7633 49.6069 229.7633 47.95619 229.7633 46.61807 228.42517 46.61807 226.77448 46.61807 225.12377 47.95619 223.78565 49.6069 223.78565 51.25761 223.78565 52.59573 225.12377 52.59573 226.77448ZM49.6069 226.77448"/>
<path transform="matrix(1,0,0,-1.00002,33.987,299.12373)" d="M95.11594 170.08086C95.11594 171.73155 93.77782 173.06969 92.1271 173.06969 90.47641 173.06969 89.13828 171.73155 89.13828 170.08086 89.13828 168.43015 90.47641 167.09203 92.1271 167.09203 93.77782 167.09203 95.11594 168.43015 95.11594 170.08086ZM92.1271 170.08086"/>
<path transform="matrix(1,0,0,-1.00002,33.987,299.12373)" d="M144.72287 141.73404C144.72287 143.38475 143.38475 144.72287 141.73404 144.72287 140.08333 144.72287 138.74521 143.38475 138.74521 141.73404 138.74521 140.08333 140.08333 138.74521 141.73404 138.74521 143.38475 138.74521 144.72287 140.08333 144.72287 141.73404ZM141.73404 141.73404"/>
<path transform="matrix(1,0,0,-1.00002,33.987,299.12373)" d="M208.50319 85.04042C208.50319 86.69113 207.16506 88.02925 205.51436 88.02925 203.86365 88.02925 202.52553 86.69113 202.52553 85.04042 202.52553 83.38971 203.86365 82.05159 205.51436 82.05159 207.16506 82.05159 208.50319 83.38971 208.50319 85.04042ZM205.51436 85.04042"/>
<use data-text="E" xlink:href="#font_1_49" transform="matrix(9.9626,0,0,-9.962799,147.8,323.84123)"/>
<use data-text="x" xlink:href="#font_1_116" transform="matrix(9.9626,0,0,-9.962799,154.58454,323.84123)"/>
<use data-text="a" xlink:href="#font_1_28" transform="matrix(9.9626,0,0,-9.962799,159.84479,323.84123)"/>
<use data-text="m" xlink:href="#font_1_75" transform="matrix(9.9626,0,0,-9.962799,164.82608,323.84123)"/>
<use data-text="S" xlink:href="#font_1_97" transform="matrix(9.9626,0,0,-9.962799,176.44248,323.84123)"/>
<use data-text="c" xlink:href="#font_1_43" transform="matrix(9.9626,0,0,-9.962799,181.98168,323.84123)"/>
<use data-text="o" xlink:href="#font_1_81" transform="matrix(9.9626,0,0,-9.962799,186.40508,323.84123)"/>
<use data-text="r" xlink:href="#font_1_96" transform="matrix(9.9626,0,0,-9.962799,191.38637,323.84123)"/>
<use data-text="e" xlink:href="#font_1_50" transform="matrix(9.9626,0,0,-9.962799,195.2917,323.84123)"/>
<use data-text="s" xlink:href="#font_1_98" transform="matrix(9.9626,0,0,-9.962799,199.7151,323.84123)"/>
<use data-text="F" xlink:href="#font_1_54" transform="matrix(0,-9.962799,-9.9626,-0,8.020996,197.83667)"/>
<use data-text="r" xlink:href="#font_1_96" transform="matrix(0,-9.962799,-9.9626,-0,8.020996,192.14792)"/>
<use data-text="e" xlink:href="#font_1_50" transform="matrix(0,-9.962799,-9.9626,-0,8.020996,188.2425)"/>
<use data-text="q" xlink:href="#font_1_91" transform="matrix(0,-9.962799,-9.9626,-0,8.020996,183.819)"/>
<use data-text="u" xlink:href="#font_1_109" transform="matrix(0,-9.962799,-9.9626,-0,8.020996,178.55866)"/>
<use data-text="e" xlink:href="#font_1_50" transform="matrix(0,-9.962799,-9.9626,-0,8.020996,173.01934)"/>
<use data-text="n" xlink:href="#font_1_77" transform="matrix(0,-9.962799,-9.9626,-0,8.020996,168.59584)"/>
<use data-text="c" xlink:href="#font_1_43" transform="matrix(0,-9.962799,-9.9626,-0,8.020996,163.05654)"/>
<use data-text="y" xlink:href="#font_1_118" transform="matrix(0,-9.962799,-9.9626,-0,8.020996,158.63304)"/>
<use data-text="D" xlink:href="#font_1_46" transform="matrix(0,-9.962799,-9.9626,-0,8.020996,150.06504)"/>
<use data-text="e" xlink:href="#font_1_50" transform="matrix(0,-9.962799,-9.9626,-0,8.020996,142.45346)"/>
<use data-text="n" xlink:href="#font_1_77" transform="matrix(0,-9.962799,-9.9626,-0,8.020996,138.02997)"/>
<use data-text="s" xlink:href="#font_1_98" transform="matrix(0,-9.962799,-9.9626,-0,8.020996,132.49066)"/>
<use data-text="i" xlink:href="#font_1_66" transform="matrix(0,-9.962799,-9.9626,-0,8.020996,128.56533)"/>
<use data-text="t" xlink:href="#font_1_105" transform="matrix(0,-9.962799,-9.9626,-0,8.020996,125.795658)"/>
<use data-text="y" xlink:href="#font_1_118" transform="matrix(0,-9.962799,-9.9626,-0,8.020996,122.18913)"/>
<use data-text="D" xlink:href="#font_4_46" transform="matrix(14.3462,0,0,-14.346487,75.49,11.957977)"/>
<use data-text="i" xlink:href="#font_4_66" transform="matrix(14.3462,0,0,-14.346487,87.85642,11.957977)"/>
<use data-text="s" xlink:href="#font_4_98" transform="matrix(14.3462,0,0,-14.346487,92.34678,11.957977)"/>
<use data-text="t" xlink:href="#font_4_105" transform="matrix(14.3462,0,0,-14.346487,98.7165,11.957977)"/>
<use data-text="r" xlink:href="#font_4_96" transform="matrix(14.3462,0,0,-14.346487,105.00013,11.957977)"/>
<use data-text="i" xlink:href="#font_4_66" transform="matrix(14.3462,0,0,-14.346487,111.59939,11.957977)"/>
<use data-text="b" xlink:href="#font_4_35" transform="matrix(14.3462,0,0,-14.346487,116.089748,11.957977)"/>
<use data-text="u" xlink:href="#font_4_109" transform="matrix(14.3462,0,0,-14.346487,125.056118,11.957977)"/>
<use data-text="t" xlink:href="#font_4_105" transform="matrix(14.3462,0,0,-14.346487,134.02249,11.957977)"/>
<use data-text="i" xlink:href="#font_4_66" transform="matrix(14.3462,0,0,-14.346487,140.30612,11.957977)"/>
<use data-text="o" xlink:href="#font_4_81" transform="matrix(14.3462,0,0,-14.346487,144.79648,11.957977)"/>
<use data-text="n" xlink:href="#font_4_77" transform="matrix(14.3462,0,0,-14.346487,152.87339,11.957977)"/>
<use data-text="o" xlink:href="#font_4_81" transform="matrix(14.3462,0,0,-14.346487,167.21958,11.957977)"/>
<use data-text="f" xlink:href="#font_4_55" transform="matrix(14.3462,0,0,-14.346487,175.29648,11.957977)"/>
<use data-text="E" xlink:href="#font_4_49" transform="matrix(14.3462,0,0,-14.346487,185.61139,11.957977)"/>
<use data-text="x" xlink:href="#font_4_116" transform="matrix(14.3462,0,0,-14.346487,196.19889,11.957977)"/>
<use data-text="a" xlink:href="#font_4_28" transform="matrix(14.3462,0,0,-14.346487,204.72052,11.957977)"/>
<use data-text="m" xlink:href="#font_4_75" transform="matrix(14.3462,0,0,-14.346487,212.56787,11.957977)"/>
<use data-text="S" xlink:href="#font_4_97" transform="matrix(14.3462,0,0,-14.346487,231.40442,11.957977)"/>
<use data-text="c" xlink:href="#font_4_43" transform="matrix(14.3462,0,0,-14.346487,240.37079,11.957977)"/>
<use data-text="o" xlink:href="#font_4_81" transform="matrix(14.3462,0,0,-14.346487,247.54389,11.957977)"/>
<use data-text="r" xlink:href="#font_4_96" transform="matrix(14.3462,0,0,-14.346487,255.62079,11.957977)"/>
<use data-text="e" xlink:href="#font_4_50" transform="matrix(14.3462,0,0,-14.346487,262.22004,11.957977)"/>
<use data-text="s" xlink:href="#font_4_98" transform="matrix(14.3462,0,0,-14.346487,269.57963,11.957977)"/>
</svg>
