<svg xmlns="http://www.w3.org/2000/svg" xmlns:xlink="http://www.w3.org/1999/xlink" xmlns:inkscape="http://www.inkscape.org/namespaces/inkscape" version="1.1" width="75" height="146" viewBox="0 0 75 146">
<path transform="matrix(1.00005,0,0,-1,30.643578,143.731)" stroke-width=".79701" stroke-linecap="butt" stroke-miterlimit="10" stroke-linejoin="miter" fill="none" stroke="#000000" d="M-28.3468 19.84267 0 0 42.5202 19.84267"/>
<path transform="matrix(1.00005,0,0,-1,30.643578,143.731)" stroke-width=".79701" stroke-linecap="butt" stroke-dasharray="2.98883,2.98883" stroke-miterlimit="10" stroke-linejoin="miter" fill="none" stroke="#000000" d="M42.5202 19.84267 11.33855 42.5202-28.3468 19.84267"/>
<path transform="matrix(1.00005,0,0,-1,30.643578,143.731)" stroke-width=".79701" stroke-linecap="butt" stroke-miterlimit="10" stroke-linejoin="miter" fill="none" stroke="#000000" d="M0 141.73404-28.3468 19.84267"/>
<path transform="matrix(1.00005,0,0,-1,30.643578,143.731)" stroke-width=".79701" stroke-linecap="butt" stroke-miterlimit="10" stroke-linejoin="miter" fill="none" stroke="#000000" d="M0 141.73404V0"/>
<path transform="matrix(1.00005,0,0,-1,30.643578,143.731)" stroke-width=".79701" stroke-linecap="butt" stroke-miterlimit="10" stroke-linejoin="miter" fill="none" stroke="#000000" d="M0 141.73404 42.5202 19.84267"/>
<path transform="matrix(1.00005,0,0,-1,30.643578,143.731)" stroke-width=".79701" stroke-linecap="butt" stroke-dasharray="2.98883,2.98883" stroke-miterlimit="10" stroke-linejoin="miter" fill="none" stroke="#000000" d="M0 141.73404 11.33855 42.5202"/>
<path transform="matrix(1.00005,0,0,-1,30.643578,143.731)" d="M0 141.73404 28.3468 31.18166-14.17339 11.33855Z" fill="#fff200" fill-opacity=".3"/>
<path transform="matrix(1.00005,0,0,-1,30.643578,143.731)" d="M-28.3468 19.84267 0 0 42.5202 19.84267 11.33855 42.5202Z" fill="#00aeef" fill-opacity=".3"/>
</svg>
