<svg xmlns="http://www.w3.org/2000/svg" xmlns:xlink="http://www.w3.org/1999/xlink" xmlns:inkscape="http://www.inkscape.org/namespaces/inkscape" version="1.1" width="158" height="190" viewBox="0 0 158 190">
<defs>
<path id="font_1_34" d="M.69200137 .18299866C.69200137 .2639923 .61499026 .34298707 .48999024 .35699464 .598999 .379776 .6619873 .44573976 .6619873 .51368716 .6619873 .6026306 .56199648 .6826172 .42799378 .6826172H.04798889V.6496124H.069992069C.14698792 .6496124 .14898682 .63861086 .14898682 .6016388V.080963138C.14898682 .04399109 .14698792 .032989503 .069992069 .032989503H.04798889V0H.45599366C.59399417-.00018310547 .69200137 .08781433 .69200137 .18281555V.18299866M.5649872 .5137024C.5649872 .445755 .5049896 .3688202 .3909912 .3688202H.23399353V.6086426C.23399353 .64260867 .23599243 .6496124 .28199769 .6496124H.42099C.519989 .6498108 .5649872 .57281497 .5649872 .5138092V.5137024M.59098818 .18389893C.59098818 .10295105 .5239868 .032989503 .42199708 .032989503H.28199769C.23599243 .032989503 .23399353 .039993287 .23399353 .07397461V.3408203H.43699647C.5339966 .34098817 .59098818 .2630005 .59098818 .18399048V.18389893Z"/>
<path id="font_2_1" d="M.397995 .63591006C.397995 .6660156 .394989 .6660156 .3619995 .6660156 .29100038 .6016083 .17999268 .6016083 .1599884 .6016083H.14299011V.5576172H.1599884C.18299866 .5576172 .24798584 .5606079 .30599977 .58561709V.08596802C.30599977 .054977418 .30599977 .04399109 .19999695 .04399109H.1499939V0C.20498657 .0039978029 .2939911 .0039978029 .35198976 .0039978029 .4099884 .0039978029 .49899293 .0039978029 .55400088 0V.04399109H.5039978C.397995 .04399109 .397995 .054977418 .397995 .08596802V.63591006Z"/>
<path id="font_2_4" d="M.61698916 .1630249V.20703125H.49198915V.64675906C.49198915 .67074587 .4909973 .6767578 .46499635 .6767578 .44499208 .6767578 .44400025 .67575076 .43299867 .66174319L.06298828 .20703125V.1630249H.3959961V.085006717C.3959961 .054000856 .3959961 .04399109 .30899049 .04399109H.27398683V0C.32099916 .0019989014 .38598634 .0039978029 .44400025 .0039978029 .5019989 .0039978029 .56599429 .0019989014 .6139984 0V.04399109H.57899478C.49198915 .04399109 .49198915 .054000856 .49198915 .085006717V.1630249H.61698916M.4039917 .5688019V.20703125H.10998535L.4039917 .5688019Z"/>
<path id="font_1_95" d="M.7779999 .09051514C.7779999 .0965271 .7779999 .10952759 .7619934 .10952759 .7480011 .10952759 .7480011 .098526 .746994 .09152222 .74198916 .028518677 .70700076 .006515503 .67900088 .006515503 .625 .006515503 .61898806 .052520753 .6009979 .17953491 .59399417 .23654175 .58399966 .30555726 .47399903 .33955384 .5519867 .3595581 .647995 .41656495 .647995 .50257876 .647995 .601593 .5209961 .6826172 .37199403 .6826172H.04598999V.6496124H.067993167C.14498902 .6496124 .14698792 .63861086 .14698792 .601593V.08052063C.14698792 .04397583 .14498902 .032989503 .067993167 .032989503H.04598999V0L.19099427 .0029907227 .33699037 0V.032989503H.31498719C.23799134 .032989503 .23599243 .04397583 .23599243 .0809021V.3274536H.3619995C.43598939 .3274536 .46899415 .29052735 .47599793 .282547 .5049896 .2505951 .5049896 .23162842 .5049896 .16375733 .5049896 .100875858 .5049896 .05795288 .5469971 .020996094 .58999636-.016494751 .6459961-.021484375 .6749878-.021484375 .7579956-.021484375 .7779999 .0605011 .7779999 .09049988V.09051514M.5439911 .50253298C.5439911 .3914795 .46398927 .35546876 .35899354 .35546876H.23599243V.6085968C.23599243 .6345978 .23699951 .6456146 .26098634 .64860537 .269989 .6496124 .3019867 .6496124 .32199098 .6496124 .4119873 .6496124 .5439911 .6496124 .5439911 .50253298Z"/>
<path id="font_2_3" d="M.32998658 .3310547C.42199708 .3310547 .48298646 .2737732 .48298646 .17437744 .48298646 .07237244 .41999818 .01852417 .33099366 .01852417 .31999208 .01852417 .20098877 .01852417 .1499939 .070373538 .19099427 .07637024 .20298767 .1073761 .20298767 .13137818 .20298767 .16838074 .1749878 .19238281 .14199829 .19238281 .10998535 .19238281 .07998657 .17137146 .07998657 .12937927 .07998657 .025512696 .19799805-.022460938 .33399964-.022460938 .49798585-.022460938 .59999087 .07637024 .59999087 .17337036 .59999087 .25567628 .5269928 .3260193 .41299439 .35205079 .5329895 .3909912 .5649872 .46684266 .5649872 .5228424 .5649872 .60491946 .46299745 .6660156 .33699037 .6660156 .21398926 .6660156 .114990238 .61395266 .114990238 .5238342 .114990238 .47683717 .15299988 .46484376 .17199707 .46484376 .20098877 .46484376 .22898865 .48583985 .22898865 .5218353 .22898865 .5448303 .21699524 .5728302 .18099976 .57884219 .22399903 .625 .31298829 .628006 .33399964 .628006 .40699769 .628006 .45899964 .5908661 .45899964 .5228424 .45899964 .46484376 .42099 .37402345 .31599427 .368042 .28799439 .3670349 .28399659 .3660431 .2579956 .365036 .24699402 .3640442 .23599243 .36305238 .23599243 .34805299 .23599243 .3310547 .24598694 .3310547 .2639923 .3310547H.32998658Z"/>
<path id="font_2_2" d="M.58898928 .19296265H.5469971C.5439911 .17396546 .5339966 .11198425 .5179901 .101989749 .5099945 .09599304 .42599488 .09599304 .41099549 .09599304H.21499634C.2809906 .14497376 .35499574 .20095825 .4149933 .24093628 .5049896 .30291749 .58898928 .36090089 .58898928 .46687318 .58898928 .59495547 .46798707 .6660156 .32499696 .6660156 .18998719 .6660156 .09098816 .58795168 .09098816 .48986817 .09098816 .4378662 .1349945 .42886354 .14898682 .42886354 .17599488 .42886354 .20799256 .4468689 .20799256 .48786927 .20799256 .52386477 .18199158 .543869 .15098572 .546875 .1789856 .59194949 .23699951 .6220093 .3039856 .6220093 .40098573 .6220093 .48199464 .5639038 .48199464 .4658661 .48199464 .3818817 .42399598 .31791688 .34700013 .2529297L.102996829 .04598999C.09298706 .036987306 .09199524 .036987306 .09098816 .02999878V0H.55599978L.58898928 .19296265Z"/>
<path id="font_2_5" d="M.19599915 .55078127C.24899292 .53778079 .2939911 .53778079 .30499269 .53778079 .37298585 .53778079 .4229889 .55778506 .44898988 .57177737 .47299195 .583786 .54100039 .6267853 .54100039 .64878848 .54100039 .66378787 .5299988 .66578677 .5269928 .66578677 .5249939 .66578677 .522995 .66578677 .5119934 .66078189 .47399903 .6477814 .4119873 .63378909 .34599305 .63378909 .2889862 .63378909 .23399353 .64378359 .18099976 .66178897 .16999817 .66578677 .16799927 .66578677 .1659851 .66578677 .1519928 .66578677 .1519928 .6537781 .1519928 .63778689V.33763124C.1519928 .32061769 .1519928 .30760194 .17098999 .30760194 .18199158 .30760194 .18299866 .30960084 .19198609 .32061769 .22999573 .36468507 .2829895 .38671876 .35099793 .38671876 .40899659 .38671876 .44099427 .35266114 .45498658 .33163453 .47799684 .2975769 .48298646 .2525177 .48298646 .20446778 .48298646 .16246033 .47898866 .10646057 .43998719 .067489627 .394989 .021530152 .33799745 .01852417 .31599427 .01852417 .25099183 .01852417 .17799378 .04650879 .14698792 .10546875 .18899536 .10845947 .20298767 .13845825 .20298767 .1614685 .20298767 .19346619 .1789856 .21746826 .14698792 .21746826 .125 .21746826 .09098816 .20446778 .09098816 .15846253 .09098816 .0605011 .18699646-.022460938 .31799317-.022460938 .46699525-.022460938 .58898928 .07748413 .58898928 .20146179 .58898928 .3146057 .49198915 .41970826 .35299684 .41970826 .2899933 .41970826 .23899842 .40371705 .19599915 .37068177V.55078127Z"/>
</defs>
<path transform="matrix(1.00005,0,0,-1.00006,5.113304,94.81672)" stroke-width=".79701" stroke-linecap="butt" stroke-miterlimit="10" stroke-linejoin="miter" fill="none" stroke="#000000" d="M2.81807 0C2.81807 1.55638 1.55638 2.81807 0 2.81807-1.55638 2.81807-2.81807 1.55638-2.81807 0-2.81807-1.55638-1.55638-2.81807 0-2.81807 1.55638-2.81807 2.81807-1.55638 2.81807 0ZM0 0"/>
<path transform="matrix(1.00005,0,0,-1.00006,5.113304,94.81672)" stroke-width=".3985" stroke-linecap="butt" stroke-miterlimit="10" stroke-linejoin="miter" fill="none" stroke="#000000" d="M77.73393-53.1502C77.73393-49.35768 74.65953-46.2833 70.867-46.2833 67.07448-46.2833 64.00009-49.35768 64.00009-53.1502 64.00009-56.94275 67.07448-60.01714 70.867-60.01714 74.65953-60.01714 77.73393-56.94275 77.73393-53.1502ZM70.867-53.1502"/>
<use data-text="B" xlink:href="#font_1_34" transform="matrix(7.970498,0,0,-7.9705779,72.986698,150.69208)"/>
<path transform="matrix(1.00005,0,0,-1.00006,5.113304,94.81672)" stroke-width=".79701" stroke-linecap="butt" stroke-miterlimit="10" stroke-linejoin="miter" fill="none" stroke="#000000" d="M2.55856-1.91899 65.21306-48.9097"/>
<path transform="matrix(1.00005,0,0,-1.00006,5.113304,94.81672)" stroke-width=".79701" stroke-linecap="butt" stroke-miterlimit="10" stroke-linejoin="miter" fill="none" stroke="#000000" d="M150.98487-83.6229C150.98487-78.51375 146.84319-74.37207 141.73403-74.37207 136.62487-74.37207 132.4832-78.51375 132.4832-83.6229 132.4832-88.73206 136.62487-92.87373 141.73403-92.87373 146.84319-92.87373 150.98487-88.73206 150.98487-83.6229ZM141.73403-83.6229"/>
<use data-text="B" xlink:href="#font_1_34" transform="matrix(7.970498,0,0,-7.9705779,140.86008,181.1669)"/>
<use data-text="B" xlink:href="#font_1_34" transform="matrix(7.970498,0,0,-7.9705779,146.8539,181.1669)"/>
<path transform="matrix(1.00005,0,0,-1.00006,5.113304,94.81672)" stroke-width=".79701" stroke-linecap="butt" stroke-miterlimit="10" stroke-linejoin="miter" fill="none" stroke="#000000" d="M77.3446-55.9302 133.05124-79.88403"/>
<use data-text="1" xlink:href="#font_2_1" transform="matrix(4.981549,0,0,-4.9815986,108.621479,168.32913)"/>
<path transform="matrix(1.00005,0,0,-1.00006,21.308114,92.180568)" stroke-width=".3387" stroke-linecap="butt" stroke-miterlimit="10" stroke-linejoin="miter" fill="none" stroke="#000000" d="M87.309-77.078H90.699"/>
<use data-text="4" xlink:href="#font_2_4" transform="matrix(4.981549,0,0,-4.9815986,108.621479,173.40744)"/>
<path transform="matrix(1.00005,0,0,-1.00006,5.113304,94.81672)" stroke-width=".79701" stroke-linecap="butt" stroke-miterlimit="10" stroke-linejoin="miter" fill="none" stroke="#000000" d="M151.12326-22.67741C151.12326-17.49182 146.91962-13.28818 141.73403-13.28818 136.54843-13.28818 132.3448-17.49182 132.3448-22.67741 132.3448-27.863 136.54843-32.06664 141.73403-32.06664 146.91962-32.06664 151.12326-27.863 151.12326-22.67741ZM141.73403-22.67741"/>
<use data-text="B" xlink:href="#font_1_34" transform="matrix(7.970498,0,0,-7.9705779,140.74109,120.13424)"/>
<use data-text="R" xlink:href="#font_1_95" transform="matrix(7.970498,0,0,-7.9705779,146.7349,120.13424)"/>
<path transform="matrix(1.00005,0,0,-1.00006,5.113304,94.81672)" stroke-width=".79701" stroke-linecap="butt" stroke-miterlimit="10" stroke-linejoin="miter" fill="none" stroke="#000000" d="M77.3446-50.37021 132.92407-26.47095"/>
<use data-text="3" xlink:href="#font_2_3" transform="matrix(4.981549,0,0,-4.9815986,108.55847,125.76958)"/>
<path transform="matrix(1.00005,0,0,-1.00006,21.24511,49.621019)" stroke-width=".3387" stroke-linecap="butt" stroke-miterlimit="10" stroke-linejoin="miter" fill="none" stroke="#000000" d="M87.309-77.078H90.699"/>
<use data-text="4" xlink:href="#font_2_4" transform="matrix(4.981549,0,0,-4.9815986,108.55847,130.84789)"/>
<use data-text="2" xlink:href="#font_2_2" transform="matrix(4.981549,0,0,-4.9815986,37.305917,125.83358)"/>
<path transform="matrix(1.00005,0,0,-1.00006,-50.007448,49.68502)" stroke-width=".3387" stroke-linecap="butt" stroke-miterlimit="10" stroke-linejoin="miter" fill="none" stroke="#000000" d="M87.309-77.078H90.699"/>
<use data-text="5" xlink:href="#font_2_5" transform="matrix(4.981549,0,0,-4.9815986,37.305917,130.9119)"/>
<path transform="matrix(1.00005,0,0,-1.00006,5.113304,94.81672)" stroke-width=".3985" stroke-linecap="butt" stroke-miterlimit="10" stroke-linejoin="miter" fill="none" stroke="#000000" d="M77.86089 53.15033C77.86089 57.01299 74.72966 60.14421 70.867 60.14421 67.00435 60.14421 63.87312 57.01299 63.87312 53.15033 63.87312 49.28767 67.00435 46.15645 70.867 46.15645 74.72966 46.15645 77.86089 49.28767 77.86089 53.15033ZM70.867 53.15033"/>
<use data-text="R" xlink:href="#font_1_95" transform="matrix(7.970498,0,0,-7.9705779,72.86769,44.30169)"/>
<path transform="matrix(1.00005,0,0,-1.00006,5.113304,94.81672)" stroke-width=".79701" stroke-linecap="butt" stroke-miterlimit="10" stroke-linejoin="miter" fill="none" stroke="#000000" d="M2.55856 1.91899 65.11147 48.83363"/>
<path transform="matrix(1.00005,0,0,-1.00006,5.113304,94.81672)" stroke-width=".79701" stroke-linecap="butt" stroke-miterlimit="10" stroke-linejoin="miter" fill="none" stroke="#000000" d="M151.2619 22.67764C151.2619 27.93982 146.99619 32.20552 141.73403 32.20552 136.47187 32.20552 132.20616 27.93982 132.20616 22.67764 132.20616 17.41548 136.47187 13.14978 141.73403 13.14978 146.99619 13.14978 151.2619 17.41548 151.2619 22.67764ZM141.73403 22.67764"/>
<use data-text="R" xlink:href="#font_1_95" transform="matrix(7.970498,0,0,-7.9705779,140.6211,74.77551)"/>
<use data-text="R" xlink:href="#font_1_95" transform="matrix(7.970498,0,0,-7.9705779,146.85402,74.77551)"/>
<path transform="matrix(1.00005,0,0,-1.00006,5.113304,94.81672)" stroke-width=".79701" stroke-linecap="butt" stroke-miterlimit="10" stroke-linejoin="miter" fill="none" stroke="#000000" d="M77.46127 50.32018 132.7967 26.526"/>
<use data-text="2" xlink:href="#font_2_2" transform="matrix(4.981549,0,0,-4.9815986,108.55247,61.99175)"/>
<path transform="matrix(1.00005,0,0,-1.00006,21.239106,-14.156811)" stroke-width=".3387" stroke-linecap="butt" stroke-miterlimit="10" stroke-linejoin="miter" fill="none" stroke="#000000" d="M87.309-77.078H90.699"/>
<use data-text="4" xlink:href="#font_2_4" transform="matrix(4.981549,0,0,-4.9815986,108.55247,67.07005)"/>
<path transform="matrix(1.00005,0,0,-1.00006,5.113304,94.81672)" stroke-width=".79701" stroke-linecap="butt" stroke-miterlimit="10" stroke-linejoin="miter" fill="none" stroke="#000000" d="M151.12326 83.62314C151.12326 88.80873 146.91962 93.01237 141.73403 93.01237 136.54843 93.01237 132.3448 88.80873 132.3448 83.62314 132.3448 78.43755 136.54843 74.23392 141.73403 74.23392 146.91962 74.23392 151.12326 78.43755 151.12326 83.62314ZM141.73403 83.62314"/>
<use data-text="B" xlink:href="#font_1_34" transform="matrix(7.970498,0,0,-7.9705779,140.74109,13.826866)"/>
<use data-text="R" xlink:href="#font_1_95" transform="matrix(7.970498,0,0,-7.9705779,146.7349,13.826866)"/>
<path transform="matrix(1.00005,0,0,-1.00006,5.113304,94.81672)" stroke-width=".79701" stroke-linecap="butt" stroke-miterlimit="10" stroke-linejoin="miter" fill="none" stroke="#000000" d="M77.46127 55.98045 132.92407 79.82959"/>
<use data-text="2" xlink:href="#font_2_2" transform="matrix(4.981549,0,0,-4.9815986,108.61648,19.437203)"/>
<path transform="matrix(1.00005,0,0,-1.00006,21.303116,-56.711359)" stroke-width=".3387" stroke-linecap="butt" stroke-miterlimit="10" stroke-linejoin="miter" fill="none" stroke="#000000" d="M87.309-77.078H90.699"/>
<use data-text="4" xlink:href="#font_2_4" transform="matrix(4.981549,0,0,-4.9815986,108.61648,24.51551)"/>
<use data-text="3" xlink:href="#font_2_3" transform="matrix(4.981549,0,0,-4.9815986,37.25491,61.96875)"/>
<path transform="matrix(1.00005,0,0,-1.00006,-50.058454,-14.17981)" stroke-width=".3387" stroke-linecap="butt" stroke-miterlimit="10" stroke-linejoin="miter" fill="none" stroke="#000000" d="M87.309-77.078H90.699"/>
<use data-text="5" xlink:href="#font_2_5" transform="matrix(4.981549,0,0,-4.9815986,37.25491,67.04706)"/>
</svg>
