<svg xmlns="http://www.w3.org/2000/svg" xmlns:xlink="http://www.w3.org/1999/xlink" xmlns:inkscape="http://www.inkscape.org/namespaces/inkscape" version="1.1" width="146" height="146" viewBox="0 0 146 146">
<defs>
<path id="font_1_62" d="M.71598818 0V.0309906H.69200137C.61499026 .0309906 .61299136 .041992189 .61299136 .07797241V.6046448C.61299136 .640625 .61499026 .6516113 .69200137 .6516113H.71598818V.6826172C.68099978 .6796112 .6069946 .6796112 .56900027 .6796112 .5309906 .6796112 .45599366 .6796112 .42099 .6826172V.6516113H.44499208C.5219879 .6516113 .5239868 .640625 .5239868 .6046448V.37083436H.22499085V.6046448C.22499085 .640625 .22698975 .6516113 .3039856 .6516113H.32798768V.6826172C.29299928 .6796112 .21899414 .6796112 .18099976 .6796112 .14299011 .6796112 .067993167 .6796112 .032989503 .6826172V.6516113H.056991579C.13398743 .6516113 .13598633 .640625 .13598633 .6046448V.07797241C.13598633 .041992189 .13398743 .0309906 .056991579 .0309906H.032989503V0C.067993167 .0029907227 .14199829 .0029907227 .17999268 .0029907227 .21798706 .0029907227 .29299928 .0029907227 .32798768 0V.0309906H.3039856C.22698975 .0309906 .22499085 .041992189 .22499085 .07797241V.33984376H.5239868V.07797241C.5239868 .041992189 .5219879 .0309906 .44499208 .0309906H.42099V0C.45599366 .0029907227 .5299988 .0029907227 .56799319 .0029907227 .60598757 .0029907227 .68099978 .0029907227 .71598818 0Z"/>
</defs>
<path transform="matrix(1.00002,0,0,-1.00002,30.642235,144.01557)" stroke-width=".79701" stroke-linecap="butt" stroke-miterlimit="10" stroke-linejoin="miter" fill="none" stroke="#0000ff" d="M-28.3468 0H56.69362L113.38724 28.3468"/>
<path transform="matrix(1.00002,0,0,-1.00002,30.642235,144.01557)" stroke-width=".79701" stroke-linecap="butt" stroke-dasharray="2.98883,2.98883" stroke-miterlimit="10" stroke-linejoin="miter" fill="none" stroke="#0000ff" d="M-28.3468 0 28.3468 28.3468H113.38724"/>
<path transform="matrix(1.00002,0,0,-1.00002,30.642235,144.01557)" stroke-width=".79701" stroke-linecap="butt" stroke-miterlimit="10" stroke-linejoin="miter" fill="none" stroke="#0000ff" d="M43.08727 142.01735-28.3468 0"/>
<path transform="matrix(1.00002,0,0,-1.00002,30.642235,144.01557)" stroke-width=".79701" stroke-linecap="butt" stroke-dasharray="2.98883,2.98883" stroke-miterlimit="10" stroke-linejoin="miter" fill="none" stroke="#0000ff" d="M43.08727 142.01735 28.3468 28.3468"/>
<path transform="matrix(1.00002,0,0,-1.00002,30.642235,144.01557)" stroke-width=".79701" stroke-linecap="butt" stroke-miterlimit="10" stroke-linejoin="miter" fill="none" stroke="#0000ff" d="M43.08727 142.01735 113.38724 28.3468"/>
<path transform="matrix(1.00002,0,0,-1.00002,30.642235,144.01557)" stroke-width=".79701" stroke-linecap="butt" stroke-miterlimit="10" stroke-linejoin="miter" fill="none" stroke="#0000ff" d="M43.08727 142.01735 56.69362 0"/>
<path transform="matrix(1.00002,0,0,-1.00002,30.642235,144.01557)" stroke-width=".79701" stroke-linecap="butt" stroke-miterlimit="10" stroke-linejoin="miter" fill="none" stroke="#0000ff" d="M0 56.69362H51.02432L85.04042 73.70186"/>
<path transform="matrix(1.00002,0,0,-1.00002,30.642235,144.01557)" stroke-width=".79701" stroke-linecap="butt" stroke-dasharray="2.98883,2.98883" stroke-miterlimit="10" stroke-linejoin="miter" fill="none" stroke="#0000ff" d="M85.04042 73.70186 34.01608 70.867 0 56.69362"/>
<path transform="matrix(1.00002,0,0,-1.00002,30.642235,144.01557)" stroke-width=".79701" stroke-linecap="butt" stroke-dasharray="2.98883,2.98883" stroke-miterlimit="10" stroke-linejoin="miter" fill="none" stroke="#ff0000" d="M43.08727 142.01735 39.68535 14.17339H85.04042"/>
<use data-text="H" xlink:href="#font_1_62" transform="matrix(9.962799,0,0,-9.962799,69.42702,104.89678)"/>
<path transform="matrix(1.00002,0,0,-1.00002,30.642235,144.01557)" d="M-28.3468 0 28.3468 28.3468H113.38724L56.69362 0Z" fill="#ff0000" fill-opacity=".5"/>
<path transform="matrix(1.00002,0,0,-1.00002,30.642235,144.01557)" d="M43.08727 142.01735 28.3468 28.3468-28.3468 0Z" fill="#00aeef" fill-opacity=".5"/>
<path transform="matrix(1.00002,0,0,-1.00002,30.642235,144.01557)" d="M43.08727 142.01735 28.3468 28.3468H113.38724Z" fill="#bf8040" fill-opacity=".5"/>
<path transform="matrix(1.00002,0,0,-1.00002,30.642235,144.01557)" d="M43.08727 142.01735 113.38724 28.3468 56.69362 0Z" fill="#ff8000" fill-opacity=".5"/>
</svg>
