<svg xmlns="http://www.w3.org/2000/svg" xmlns:xlink="http://www.w3.org/1999/xlink" xmlns:inkscape="http://www.inkscape.org/namespaces/inkscape" version="1.1" width="435" height="327" viewBox="0 0 435 327">
<defs>
<path id="font_1_57" d="M.47099305 .16503906V.19602967H.37098695V.6507721C.37098695 .6707611 .37098695 .6767578 .35499574 .6767578 .34599305 .6767578 .34298707 .6767578 .33499146 .6647644L.027999878 .19602967V.16503906H.2939911V.07800293C.2939911 .041992189 .2919922 .0309906 .21798706 .0309906H.19699097V0C.23799134 .0029907227 .2899933 .0029907227 .33198548 .0029907227 .37399293 .0029907227 .4269867 .0029907227 .46798707 0V.0309906H.44699098C.37298585 .0309906 .37098695 .041992189 .37098695 .07800293V.16503906H.47099305M.2999878 .19602967H.055999757L.2999878 .56881716V.19602967Z"/>
<path id="font_1_121" d="M.45999146 .31976319C.45999146 .39982606 .45498658 .47988893 .41999818 .5539398 .37399293 .65000918 .2919922 .6660156 .25 .6660156 .18998719 .6660156 .116989139 .64001467 .07598877 .54693606 .04399109 .47789 .038986207 .39982606 .038986207 .31976319 .038986207 .24472046 .042999269 .15464783 .083999637 .07859802 .1269989-.0024719239 .19999695-.022460938 .24899292-.022460938 .30299378-.022460938 .3789978-.0014648438 .4229889 .09359741 .45498658 .16265869 .45999146 .2407074 .45999146 .31976319M.3769989 .3317871C.3769989 .25672914 .3769989 .18867493 .3659973 .12461853 .35099793 .029556275 .2939911-.00047302247 .24899292-.00047302247 .20999146-.00047302247 .15098572 .024551392 .1329956 .12062073 .12199402 .18066406 .12199402 .2727356 .12199402 .3317871 .12199402 .39582826 .12199402 .46188355 .12998963 .5159149 .14898682 .63500979 .22399903 .64401248 .24899292 .64401248 .28199769 .64401248 .34799195 .6259918 .36698915 .52693179 .3769989 .47088624 .3769989 .39482118 .3769989 .3317871Z"/>
<path id="font_1_56" d="M.44898988 .20091248C.44898988 .31991578 .36698915 .41992188 .25898744 .41992188 .21099854 .41992188 .16799927 .4039154 .13198853 .36891175V.5641022C.1519928 .55778506 .18499756 .55078127 .21699524 .55078127 .33999635 .55078127 .4099884 .6418457 .4099884 .65493777 .4099884 .6609802 .40699769 .6660156 .3999939 .6660156 .3999939 .66607668 .39698792 .66607668 .3919983 .66308596 .37199403 .65408328 .32299806 .63378909 .2559967 .63378909 .21598816 .63409426 .16999817 .641098 .12298584 .6621094 .114990238 .6651001 .11099243 .6651001 .11099243 .6651001 .100997928 .66508486 .100997928 .657074 .100997928 .64108279V.3447113C.100997928 .3266449 .100997928 .31861878 .114990238 .31861878 .12199402 .31861878 .12399292 .32164 .12799073 .32765199 .13899231 .34371949 .17599488 .3979187 .25698854 .3979187 .30899049 .3979187 .33399964 .3517456 .34199525 .3336792 .35798646 .2965393 .3600006 .2574005 .3600006 .20721436 .3600006 .17218018 .3600006 .112197879 .33599855 .07032776 .31199647 .031448366 .2749939 .0055389406 .22898865 .0055389406 .1559906 .0055389406 .09899902 .05836487 .08198547 .1171875 .084991458 .11685181 .08799744 .115859989 .09899902 .115859989 .13198853 .115859989 .14898682 .14085388 .14898682 .16485596 .14898682 .18885803 .13198853 .21386719 .09899902 .21386719 .084991458 .21386719 .049987794 .2068634 .049987794 .16085816 .049987794 .07432556 .11898804-.022460938 .23098755-.022460938 .34700013-.022460938 .44898988 .07331848 .44898988 .20019531V.20091248Z"/>
<path id="font_1_100" d="M.4850006 .6435547H.24198914C.11999512 .6435547 .117996219 .6566467 .11399841 .67578127H.08898926L.055999757 .46954347H.08099365C.083999637 .48554994 .09298706 .54855349 .10598755 .5605469 .11299133 .5665436 .19099427 .5665436 .20399475 .5665436H.41099549L.29899598 .40853883C.20899964 .2735443 .17599488 .13453675 .17599488 .03253174 .17599488 .022537232 .17599488-.022460938 .22200012-.022460938 .2679901-.022460938 .2679901 .022537232 .2679901 .03253174V.08354187C.2679901 .13853455 .2709961 .19354248 .2789917 .24754334 .2829895 .27053834 .29699708 .35653688 .34098817 .41854859L.47599793 .608551C.4850006 .62054446 .4850006 .62254336 .4850006 .6435547Z"/>
<path id="font_1_51" d="M.45700074 .16764832C.45700074 .20367432 .44599916 .24871826 .4079895 .29074098 .3889923 .31176759 .37298585 .32176209 .30899049 .36180116 .3809967 .39881898 .42999269 .4508667 .42999269 .51690676 .42999269 .6089783 .34098817 .6660156 .25 .6660156 .1499939 .6660156 .068984989 .5919647 .068984989 .49890138 .068984989 .48088075 .070999149 .43585206 .11299133 .38882447 .12399292 .3768158 .16099549 .35179139 .18598938 .33477784 .12799073 .30575563 .041992189 .24971009 .041992189 .15063477 .041992189 .044555665 .14399719-.022460938 .24899292-.022460938 .3619995-.022460938 .45700074 .060577394 .45700074 .16764832M.38598634 .51690676C.38598634 .45986939 .34700013 .41183473 .2869873 .3768158L.16299439 .4568634C.116989139 .4868927 .11299133 .5209198 .11299133 .53793337 .11299133 .5989685 .17799378 .64100649 .24899292 .64100649 .32199098 .64100649 .38598634 .588974 .38598634 .51690676M.40699769 .13162232C.40699769 .05757141 .33198548 .0055389406 .25 .0055389406 .1639862 .0055389406 .09199524 .06758118 .09199524 .15063477 .09199524 .2086792 .12399292 .2727356 .20899964 .31976319L.33198548 .24171448C.3600006 .22268677 .40699769 .19267273 .40699769 .13162232Z"/>
<path id="font_1_78" d="M.45700074 .32888795C.45700074 .598114 .34199525 .6660156 .25299073 .6660156 .19799805 .6660156 .14898682 .64801028 .10598755 .6031189 .06498718 .5580902 .041992189 .5160217 .041992189 .44091798 .041992189 .3158722 .12998963 .21777344 .24198914 .21777344 .30299378 .21777344 .34399415 .25979615 .36698915 .3178711V.28582765C.36698915 .05178833 .2630005 .0055389406 .20498657 .0055389406 .18798828 .0055389406 .13398743 .007537842 .10699463 .041778566 .15098572 .041778566 .15899658 .07078552 .15899658 .08778381 .15899658 .118774417 .1349945 .13378906 .11299133 .13378906 .09700012 .13378906 .066986087 .12478638 .066986087 .08578491 .066986087 .018615723 .12098694-.022460938 .20599365-.022460938 .33499146-.022460938 .45700074 .11378479 .45700074 .32888795M.36499024 .42089845C.36499024 .33789063 .33099366 .24076844 .24299622 .24076844 .22698975 .2407074 .18099976 .2407074 .1499939 .30371095 .13198853 .34072877 .13198853 .3908081 .13198853 .43988038 .13198853 .49397279 .13198853 .5410614 .15299988 .578125 .17999268 .62805178 .21798706 .64100649 .25299073 .64100649 .29899598 .64100649 .33198548 .60710147 .34899903 .562088 .36099244 .52989199 .36499024 .46688844 .36499024 .42089845Z"/>
<path id="font_2_1" d="M.47299195 .31976319C.47299195 .38682557 .46998597 .47288514 .43499757 .5479431 .3909912 .64201357 .31498719 .6660156 .25698854 .6660156 .19699097 .6660156 .12098694 .64201357 .07699585 .5459442 .04499817 .47688294 .039993287 .39582826 .039993287 .31976319 .039993287 .25471498 .041992189 .15765381 .084991458 .07858276 .13198853-.0064697267 .20999146-.022460938 .2559967-.022460938 .32099916-.022460938 .394989 .0055389406 .43699647 .097595218 .46699525 .1646576 .47299195 .23971558 .47299195 .31976319M.25698854 .002532959C.22698975 .002532959 .15499878 .016540528 .13598633 .12962342 .12599182 .18867493 .12599182 .2747345 .12599182 .33177186 .12599182 .39982606 .12599182 .47888185 .13798523 .53393557 .1579895 .6230011 .22200012 .64100649 .2559967 .64100649 .2939911 .64100649 .35699464 .62098696 .37599183 .5279236 .3869934 .47288514 .3869934 .39482118 .3869934 .33177186 .3869934 .2697296 .3869934 .18566895 .3769989 .12661743 .35598756 .012542725 .28199769 .002532959 .25698854 .002532959Z"/>
<path id="font_3_1" d="M.19599915 .053985597C.19599915 .08299255 .17298889 .10798645 .14199829 .10798645 .11099243 .10798645 .08799744 .08299255 .08799744 .053985597 .08799744 .024993897 .11099243 0 .14199829 0 .17298889 0 .19599915 .024993897 .19599915 .053985597Z"/>
<path id="font_2_4" d="M.0289917 .19602967V.16503906H.3019867V.07901001C.3019867 .041992189 .29899598 .0309906 .22399903 .0309906H.20199585V0C.2649994 .0029907227 .33499146 .0029907227 .34199525 .0029907227 .34700013 .0029907227 .4189911 .0029907227 .48199464 0V.0309906H.45999146C.3849945 .0309906 .38198854 .041992189 .38198854 .07901001V.16503906H.48399354V.19602967H.38198854V.64974978C.38198854 .669754 .38198854 .6767578 .36299134 .6767578 .35099793 .6767578 .34999085 .67575076 .34098817 .66174319L.0289917 .19602967M.06098938 .19602967 .30799867 .56581118V.19602967H.06098938Z"/>
<path id="font_2_6" d="M.17199707 .45387269C.14199829 .47288514 .11898804 .4998932 .11898804 .53692629 .11898804 .6019745 .18899536 .64100649 .25498963 .64100649 .33198548 .64100649 .3939972 .58695986 .3939972 .51690676 .3939972 .44685365 .33399964 .40083314 .2939911 .37780763L.17199707 .45387269M.31900025 .36180116C.36898805 .38581849 .44198609 .43585206 .44198609 .51690676 .44198609 .6109772 .34799195 .6660156 .2579956 .6660156 .15299988 .6660156 .070999149 .5909729 .070999149 .49890138 .070999149 .46087647 .084991458 .42485047 .10899353 .39582826 .12599182 .3768158 .13198853 .37280274 .18998719 .3357849 .101989749 .29374696 .042999269 .23269654 .042999269 .15063477 .042999269 .044555665 .147995-.022460938 .2559967-.022460938 .37199403-.022460938 .46998597 .059570314 .46998597 .16764832 .46998597 .26472474 .3959961 .3127594 .37098695 .32876588 .3600006 .33677674 .33099366 .35479737 .31900025 .36180116M.21699524 .31877137 .34298707 .2407074C.3659973 .22569275 .41600038 .19366455 .41600038 .1326294 .41600038 .05357361 .33599855 .0055389406 .25698854 .0055389406 .16999817 .0055389406 .09700012 .06758118 .09700012 .15063477 .09700012 .22268677 .14698792 .28274537 .21699524 .31877137Z"/>
<path id="font_2_2" d="M.3039856 .6392822C.3039856 .6642761 .30299378 .666275 .27799989 .666275 .21598816 .60227969 .12399292 .60227969 .09298706 .60227969V.57128909C.11199951 .57128909 .17298889 .57128909 .22698975 .5972748V.08001709C.22698975 .042999269 .22399903 .0309906 .1309967 .0309906H.09899902V0C.1349945 .0029907227 .22399903 .0029907227 .2649994 .0029907227 .30599977 .0029907227 .3959961 .0029907227 .43199159 0V.0309906H.3999939C.30699159 .0309906 .3039856 .042999269 .3039856 .08001709V.6392822Z"/>
<path id="font_2_3" d="M.46199037 .17704773H.43399049C.43199159 .16404724 .42399598 .10501099 .41099549 .08900452 .40499879 .07998657 .33599855 .07998657 .31599427 .07998657H.13798523L.23699951 .17404175C.40098573 .3161316 .46199037 .36915589 .46199037 .4711914 .46199037 .5860901 .36698915 .6660156 .24398804 .6660156 .1289978 .6660156 .050994874 .575119 .050994874 .4841919 .050994874 .43418885 .09399414 .42919923 .102996829 .42919923 .125 .42919923 .15499878 .44519044 .15499878 .48120118 .15499878 .51119998 .13398743 .5332031 .102996829 .5332031 .09799194 .5332031 .09498596 .5332031 .09098816 .53219607 .114990238 .6030731 .1789856 .63500979 .23298645 .63500979 .33499146 .63500979 .36999513 .5401764 .36999513 .4711914 .36999513 .36915589 .29299928 .28611756 .24499512 .23408509L.06199646 .035995485C.050994874 .024993897 .050994874 .022994996 .050994874 0H.43399049L.46199037 .17704773Z"/>
<path id="font_2_5" d="M.13398743 .33073426C.13398743 .43276979 .14498902 .4897766 .17199707 .54177859 .19198609 .58277896 .24099732 .64100649 .31498719 .64100649 .33499146 .64100649 .3809967 .63697817 .4039917 .6007843 .36698915 .6007843 .35099793 .5817871 .35099793 .55477908 .35099793 .5287781 .36898805 .50878909 .39698792 .50878909 .4249878 .50878909 .44400025 .5267792 .44400025 .55677798 .44400025 .612854 .4039917 .6660156 .31298829 .6660156 .18399048 .6660156 .042999269 .53878787 .042999269 .3157196 .042999269 .044555665 .16499329-.022460938 .25898744-.022460938 .36999513-.022460938 .46998597 .0705719 .46998597 .20265198 .46998597 .32972718 .37799073 .42578126 .2649994 .42578126 .20498657 .42578126 .1619873 .39076234 .13398743 .33073426M.2579956 .0055389406C.20098877 .0055389406 .16799927 .05256653 .1559906 .08157349 .13699341 .12660218 .13598633 .20965576 .13598633 .22566223 .13598633 .29270936 .16699219 .4007721 .2630005 .4007721 .2789917 .4007721 .32798768 .4007721 .3600006 .33872987 .3789978 .30070497 .3789978 .25167848 .3789978 .20365906 .3789978 .15562439 .3789978 .1065979 .3600006 .06956482 .32899476 .012542725 .2849884 .0055389406 .2579956 .0055389406Z"/>
<path id="font_4_49" d="M.72299197 .27397157H.6759949C.6539917 .13598633 .6259918 .04699707 .44099427 .04699707H.2889862V.32896424H.34399415C.43998719 .32896424 .44999696 .28596498 .44999696 .2119751H.49699403V.4928894H.44999696C.44999696 .4189453 .44099427 .37597657 .34399415 .37597657H.2889862V.6328125H.44099427C.60198977 .6328125 .6279907 .5598297 .6439972 .43885804H.69099429L.6599884 .6798096H.038986207V.6328125H.14698792V.04699707H.038986207V0H.6769867L.72299197 .27397157Z"/>
<path id="font_4_116" d="M.58499148 0V.04699707H.5139923L.34599305 .2461853 .46299745 .37631227C.47599793 .39031983 .48199464 .3973236 .5649872 .3973236V.44433595L.47299195 .44132997 .36999513 .44433595V.3973236C.38398744 .3973236 .3959961 .3953247 .4079895 .38832093 .4039917 .38230897 .4039917 .38031007 .3999939 .37631227L.31599427 .2822113 .21798706 .3973236H.2579956V.44433595L.13699341 .44132997 .026992798 .44433595V.3973236H.09799194L.2539978 .21315003 .12298584 .06600952C.10598755 .04699707 .069992069 .04699707 .021987915 .04699707V0L.11399841 .0029907227 .21699524 0V.04699707C.19898987 .04699707 .17999268 .052001954 .17999268 .057998659 .17999268 .057998659 .17999268 .05999756 .18699646 .06800842L.28399659 .17712403 .3939972 .04699707H.35499574V0L.47499085 .0029907227 .58499148 0Z"/>
<path id="font_4_28" d="M.5529938 .023986817C.5529938 .04699707 .5399933 .04699707 .5269928 .04699707 .46598817 .04798889 .46598817 .06100464 .46598817 .083999637V.29907228C.46598817 .3881073 .394989 .453125 .24598694 .453125 .18899536 .453125 .066986087 .44911195 .066986087 .36109925 .066986087 .3170929 .101989749 .29808045 .1289978 .29808045 .1599884 .29808045 .19198609 .3190918 .19198609 .36109925 .19198609 .39111329 .17298889 .40811158 .16999817 .41011048 .19799805 .41612245 .22999573 .41711427 .24198914 .41711427 .31698609 .41711427 .35198976 .3751068 .35198976 .29907228V.26506043C.2809906 .2620697 .026992798 .25306703 .026992798 .10801697 .026992798 .012130737 .15098572-.005859375 .21998596-.005859375 .2999878-.005859375 .34700013 .035125734 .36898805 .07713318 .36898805 .04598999 .36898805 0 .47299195 0H.5209961C.54100039 0 .5529938 0 .5529938 .023986817M.35198976 .13899231C.35198976 .043151857 .2599945 .030136109 .23498535 .030136109 .18399048 .030136109 .14399719 .06517029 .14399719 .10922241 .14399719 .21734619 .3019867 .23136902 .35198976 .234375V.13899231Z"/>
<path id="font_4_75" d="M.93499758 0V.04699707H.8659973V.30613709C.8659973 .40919496 .8149872 .4501953 .71199038 .4501953 .62098696 .4501953 .56900027 .40019227 .54299929 .3541565 .522995 .44718934 .43099977 .4501953 .3929901 .4501953 .30599977 .4501953 .24899292 .40518189 .21699524 .3421631V.4501953L.04499817 .4423828V.39537049C.10699463 .39537049 .11399841 .39537049 .11399841 .3563385V.04699707H.04499817V0L.17098999 .0029907227 .29699708 0V.04699707H.22799683V.2562256C.22799683 .3653412 .31498719 .41436769 .3769989 .41436769 .41099549 .41436769 .43299867 .39437867 .43299867 .31729127V.04699707H.3639984V0L.48999024 .0029907227 .6159973 0V.04699707H.5469971V.2562256C.5469971 .3653412 .6339874 .41436769 .69599917 .41436769 .7299957 .41436769 .7519989 .39437867 .7519989 .31729127V.04699707H.68299868V0L.8089905 .0029907227 .93499758 0Z"/>
<path id="font_4_97" d="M.57398989 .20323181C.57398989 .31422425 .49299623 .39523316 .4019928 .41423036L.25698854 .4452362C.21699524 .4542389 .16099549 .48823548 .16099549 .5492401 .16099549 .59225466 .18899536 .6542511 .2889862 .6542511 .36898805 .6542511 .46998597 .6202545 .49299623 .48423768 .49699403 .4602356 .49699403 .4582367 .5179901 .4582367 .5419922 .4582367 .5419922 .46324159 .5419922 .48623658V.6692505C.5419922 .68826296 .5419922 .6972656 .5239868 .6972656 .5159912 .6972656 .5149994 .69625857 .5039978 .68626406L.45899964 .6422577C.40098573 .68826296 .33599855 .6972656 .28799439 .6972656 .13598633 .6972656 .06399536 .6012573 .06399536 .49624635 .06399536 .4312439 .09700012 .38523866 .117996219 .36323548 .16699219 .31422425 .20098877 .30723573 .30999757 .28323365 .397995 .2642212 .4149933 .26123048 .43699647 .24023438 .45199586 .22523499 .47698976 .19923401 .47698976 .15324402 .47698976 .10523987 .45098878 .036254884 .34700013 .036254884 .2709961 .036254884 .11898804 .056243898 .11099243 .20523072 .10998535 .22322083 .10998535 .22822571 .08799744 .22822571 .06399536 .22822571 .06399536 .222229 .06399536 .19923401V.01725769C.06399536-.0017547608 .06399536-.0107421879 .08198547-.0107421879 .09098816-.0107421879 .09298706-.008743286 .100997928-.0017547608L.14698792 .04425049C.21299744-.0047454836 .30599977-.0107421879 .34700013-.0107421879 .5119934-.0107421879 .57398989 .102249149 .57398989 .20323181Z"/>
<path id="font_4_43" d="M.47799684 .117126468C.47799684 .13113404 .46398927 .13113404 .45399476 .13113404 .43598939 .13113404 .43499757 .12913513 .42999269 .11613464 .4039917 .053131105 .35598756 .03413391 .30499269 .03413391 .1659851 .03413391 .1659851 .18112183 .1659851 .22712708 .1659851 .28312684 .1659851 .41311646 .29499818 .41311646 .32998658 .41311646 .34700013 .41011048 .3600006 .40711976 .34199525 .39111329 .33999635 .3701172 .33999635 .3611145 .33999635 .3171234 .375 .29811097 .4019928 .29811097 .43299867 .29811097 .46499635 .3191223 .46499635 .3611145 .46499635 .44711305 .34899903 .453125 .29100038 .453125 .11199951 .45314027 .037994386 .33813478 .037994386 .22213745 .037994386 .08912659 .13198853-.005859375 .28599549-.005859375 .44799806-.005859375 .47799684 .11013794 .47799684 .117126468Z"/>
<path id="font_4_81" d="M.5419922 .21812439C.5419922 .35212709 .44999696 .453125 .2869873 .453125 .12298584 .453125 .03199768 .35112 .03199768 .21812439 .03199768 .09413147 .11999512-.005859375 .2869873-.005859375 .45498658-.005859375 .5419922 .09512329 .5419922 .21812439M.4139862 .22912598C.4139862 .14213562 .4139862 .03413391 .2869873 .03413391 .1599884 .03413391 .1599884 .14213562 .1599884 .22912598 .1599884 .27412416 .1599884 .32511903 .1769867 .3591156 .19599915 .39611817 .23799134 .41711427 .2869873 .41711427 .32899476 .41711427 .37098695 .40112306 .3929901 .36611939 .4139862 .3321228 .4139862 .27713014 .4139862 .22912598Z"/>
<path id="font_4_96" d="M.44198609 .36819459C.44198609 .42118836 .3880005 .4501953 .33599855 .4501953 .2659912 .4501953 .22599793 .40019227 .20298767 .33718873V.4501953L.036987306 .4423828V.39537049C.09899902 .39537049 .10598755 .39537049 .10598755 .3563385V.04699707H.036987306V0L.16299439 .0029907227C.20098877 .0029907227 .2649994 .0029907227 .30099488 0V.04699707H.21398926V.22218323C.21398926 .29226686 .23899842 .41436769 .33898927 .41436769 .33898927 .41436769 .31999208 .39736939 .31999208 .36834718 .31999208 .32730104 .35198976 .3072815 .3809967 .3072815 .4099884 .3072815 .44198609 .3283081 .44198609 .36834718V.36819459Z"/>
<path id="font_4_50" d="M.49398805 .11706543C.49398805 .13504029 .47499085 .13504029 .46998597 .13504029 .45298768 .13504029 .45098878 .13005066 .44499208 .11405945 .42399598 .066101077 .36698915 .03413391 .3019867 .03413391 .16099549 .03413391 .1599884 .16700745 .1599884 .2179718H.46199037C.48399354 .2179718 .49398805 .2179718 .49398805 .2449646 .49398805 .27598573 .48799134 .34906007 .43798829 .3991089 .40098573 .43511964 .34799195 .453125 .2789917 .453125 .11898804 .453125 .03199768 .35005189 .03199768 .22497559 .03199768 .09107971 .13198853-.005859375 .29299928-.005859375 .45098878-.005859375 .49398805 .10006714 .49398805 .11706543M.39898683 .25097657H.1599884C.1619873 .29000855 .16299439 .3320465 .18399048 .36506654 .20999146 .4051056 .25 .41711427 .2789917 .41711427 .3959961 .41711427 .397995 .28599549 .39898683 .25097657Z"/>
<path id="font_4_98" d="M.4149933 .14012146C.4149933 .18312073 .394989 .21812439 .3600006 .24612427 .32099916 .27511598 .2889862 .28112794 .21099854 .29412843 .17399597 .30111695 .10899353 .31211854 .10899353 .3591156 .10899353 .42111207 .20199585 .42111207 .22099304 .42111207 .29599 .42111207 .33399964 .39212037 .33898927 .33711244 .33999635 .32211305 .34098817 .3171234 .3619995 .3171234 .38598634 .3171234 .38598634 .32211305 .38598634 .3451233V.42510987C.38598634 .4441223 .38598634 .453125 .36799623 .453125 .3639984 .453125 .3619995 .453125 .32299806 .43411256 .29699708 .44711305 .2619934 .453125 .22200012 .453125 .19198609 .453125 .037994386 .453125 .037994386 .32211305 .037994386 .28211976 .057998659 .25512696 .07798767 .23812866 .117996219 .203125 .1559906 .1971283 .23298645 .18312073 .2689972 .17712403 .34399415 .16412354 .34399415 .10513306 .34399415 .030136109 .2519989 .030136109 .22999573 .030136109 .12399292 .030136109 .09799194 .103134158 .085998538 .14613343 .08099365 .16012573 .07598877 .16012573 .06199646 .16012573 .037994386 .16012573 .037994386 .15412903 .037994386 .13113404V.022140503C.037994386 .0031280518 .037994386-.005859375 .055999757-.005859375 .06298828-.005859375 .06498718-.005859375 .085998538 .009140015L.11199951 .026138306C.1579895-.005859375 .20999146-.005859375 .22999573-.005859375 .26098634-.005859375 .4149933-.005859375 .4149933 .14013672V.14012146Z"/>
<path id="font_4_54" d="M.6749878 .4391327 .6439972 .6798096H.038986207V.6328125H.14698792V.04699707H.038986207V0C.07699585 .0029907227 .17799378 .0029907227 .22200012 .0029907227 .2709961 .0029907227 .37998963 .0029907227 .42399598 0V.04699707H.2889862V.31724549H.33898927C.43499757 .31724549 .44400025 .2742157 .44400025 .20013428H.4909973V.48106385H.44400025C.44400025 .4071808 .43598939 .3642578 .33898927 .3642578H.2889862V.6328125H.42900086C.58999636 .6328125 .61299136 .5559387 .6279907 .4391327H.6749878Z"/>
<path id="font_4_91" d="M.6009979-.1934967V-.14648438H.5319977V.4501953H.4909973L.43798829 .3711853C.40299989 .42018128 .34700013 .4501953 .2869873 .4501953 .14099121 .4501953 .037994386 .36117555 .037994386 .22215271 .037994386 .08114624 .13899231-.005859375 .27799989-.005859375 .32699586-.005859375 .37199403 .008132935 .41799928 .04814148V-.14648438H.34899903V-.1934967L.47499085-.19049073 .6009979-.1934967M.42399598 .14215088C.42399598 .12414551 .42399598 .12113953 .40899659 .10014343 .36898805 .041137697 .31799317 .030136109 .28799439 .030136109 .22599793 .030136109 .1659851 .088134769 .1659851 .22116089 .1659851 .36317445 .23999024 .41018678 .2999878 .41018678 .37599183 .41018678 .42399598 .33117677 .42399598 .2811737V.14215088Z"/>
<path id="font_4_109" d="M.61499026 .0001373291V.0471344C.5529938 .0471344 .54599 .0471344 .54599 .086135867V.4501953L.36299134 .44218446V.39518739C.4249878 .39518739 .43199159 .39518739 .43199159 .3561859V.16514588C.43199159 .08314514 .3809967 .030136109 .30799867 .030136109 .23098755 .030136109 .22799683 .055130006 .22799683 .10914612V.4501953L.04499817 .44218446V.39518739C.10699463 .39518739 .11399841 .39518739 .11399841 .3561859V.12313843C.11399841 .01612854 .19499207-.005859375 .2939911-.005859375 .31999208-.005859375 .3919983-.005859375 .43798829 .072143558V-.005859375L.61499026 .0001373291Z"/>
<path id="font_4_77" d="M.61499026 0V.04699707H.54599V.30613709C.54599 .41119386 .49198915 .4501953 .3919983 .4501953 .29599 .4501953 .24299622 .39318849 .21699524 .3421631V.4501953L.04499817 .4423828V.39537049C.10699463 .39537049 .11399841 .39537049 .11399841 .3563385V.04699707H.04499817V0L.17098999 .0029907227 .29699708 0V.04699707H.22799683V.2562256C.22799683 .3653412 .31399537 .41436769 .3769989 .41436769 .41099549 .41436769 .43199159 .39337159 .43199159 .31729127V.04699707H.36299134V0L.4889984 .0029907227 .61499026 0Z"/>
<path id="font_4_118" d="M.5799866 .3973236V.44433595C.55599978 .44232179 .526001 .44132997 .5009918 .44132997L.4099884 .44433595V.3973236C.4099884 .3973236 .45700074 .3973236 .45700074 .3853302L.45199586 .37332154 .33699037 .12713623 .20999146 .3973236H.2639923V.44433595L.13999939 .44132997 .025985718 .44433595V.3973236H.08999634L.2769928 .000045776369 .2539978-.04798889C.23199463-.09602356 .19999695-.1640625 .1289978-.1640625 .114990238-.1640625 .11299133-.16307068 .10499573-.1600647 .11399841-.1560669 .13699341-.14205933 .13699341-.10702515 .13699341-.07400513 .11299133-.049987794 .07899475-.049987794 .050994874-.049987794 .021987915-.069000247 .021987915-.10803223 .021987915-.15907288 .068984989-.20007324 .1289978-.20007324 .20599365-.20007324 .2639923-.13804627 .29100038-.08100891L.5059967 .37631227C.5130005 .39031983 .5159912 .3973236 .5799866 .3973236Z"/>
<path id="font_4_46" d="M.81700137 .33676148C.81700137 .55659487 .6669922 .6855469 .46899415 .6855469H.038986207V.63853457H.14698792V.04699707H.038986207V0H.46998597C.6669922 0 .81700137 .12294006 .81700137 .33676148M.66999819 .33776856C.66999819 .22885132 .6579895 .17588806 .6259918 .13092041 .5779877 .06297302 .48999024 .04699707 .42900086 .04699707H.2829895V.63853457H.42900086C.49499513 .63853457 .5779877 .6195526 .6269989 .5496063 .6619873 .49864198 .66999819 .43069459 .66999819 .33776856Z"/>
<path id="font_4_66" d="M.28599549 0V.04699707H.22399903V.4501953L.049987794 .4423828V.39537049C.10899353 .39537049 .115997318 .39537049 .115997318 .3563385V.04699707H.04699707V0L.16899109 .0029907227 .28599549 0M.23799134 .60728457C.23799134 .6502838 .20298767 .6852875 .1599884 .6852875 .116989139 .6852875 .08198547 .6502838 .08198547 .60728457 .08198547 .5642853 .116989139 .5292969 .1599884 .5292969 .20298767 .5292969 .23799134 .5642853 .23799134 .60728457Z"/>
<path id="font_4_105" d="M.38198854 .124176029V.17721558H.33499146V.12619019C.33499146 .058151246 .30299378 .03413391 .2749939 .03413391 .21699524 .03413391 .21699524 .09817505 .21699524 .1211853V.3973236H.36299134V.44433595H.21699524V.6357422H.16999817C.16899109 .53552249 .11999512 .43632508 .020996094 .43333436V.3973236H.102996829V.123184207C.102996829 .01612854 .18998719-.005859375 .26098634-.005859375 .33699037-.005859375 .38198854 .05114746 .38198854 .124176029Z"/>
<path id="font_5_49" d="M.70599368 .269989H.6639862C.6429901 .12098694 .60598757 .042999269 .43199159 .042999269H.27598573V.33198548H.33499146C.43099977 .33198548 .44099427 .29100038 .44099427 .21499634H.48298646V.4918518H.44099427C.44099427 .4169464 .43099977 .375 .33499146 .375H.27598573V.6376953H.43199159C.58499148 .6376953 .6179962 .5727234 .6329956 .44378663H.6749878L.6459961 .6806946H.037994386V.6376953H.14399719V.042999269H.037994386V0H.6629944L.70599368 .269989Z"/>
<path id="font_5_116" d="M.57598879 0V.042999269H.5059967L.33699037 .24717713 .45298768 .38031007C.46398927 .3933258 .47299195 .4013214 .55599978 .4013214V.44433595L.46398927 .44232179C.43499757 .44232179 .3919983 .44232179 .3639984 .44433595V.4013214C.3829956 .4013214 .4039917 .3963318 .4039917 .38931275 .4039917 .38931275 .39898683 .38031007 .39698792 .37831117L.30999757 .2802124 .21099854 .4013214H.25299073V.44433595C.22999573 .44232179 .1619873 .44232179 .1349945 .44232179 .10499573 .44232179 .050994874 .44232179 .022994996 .44433595V.4013214H.09399414L.25 .21115113 .11999512 .06401062C.10798645 .05000305 .100997928 .042999269 .017990113 .042999269V0L.11099243 .0019989014C.13999939 .0019989014 .18199158 .0019989014 .20999146 0V.042999269C.19099427 .042999269 .16999817 .04800415 .16999817 .055007936 .16999817 .055007936 .16999817 .057006837 .1769867 .0650177L.2769928 .17811585 .3880005 .042999269H.34599305V0C.36999513 .0019989014 .43699647 .0019989014 .46499635 .0019989014 .49499513 .0019989014 .5479889 .0019989014 .57598879 0Z"/>
<path id="font_5_28" d="M.54100039 .022140503C.54100039 .043136598 .5319977 .043136598 .5179901 .043136598 .45498658 .044128419 .45498658 .060134889 .45498658 .08312988V.29911805C.45498658 .39111329 .38198854 .453125 .24099732 .453125 .18499756 .453125 .066986087 .44812013 .066986087 .36412049 .066986087 .32211305 .09899902 .30412293 .12599182 .30412293 .1559906 .30412293 .18499756 .32511903 .18499756 .3631134 .18499756 .3821106 .17799378 .40011598 .16099549 .41111756 .19400025 .42012025 .21798706 .42012025 .23699951 .42012025 .30499269 .42012025 .34599305 .3821106 .34599305 .30012513V.26011659C.18798828 .26011659 .0289917 .21612549 .0289917 .10513306 .0289917 .014129639 .14498902-.005859375 .21398926-.005859375 .29100038-.005859375 .33999635 .036132814 .3600006 .0801239 .3600006 .042999269 .3600006 0 .46099855 0H.5119934C.5329895 0 .54100039 0 .54100039 .021987915V.022140503M.34599305 .13899231C.34599305 .04499817 .2619934 .026992798 .22999573 .026992798 .18099976 .026992798 .13999939 .05999756 .13999939 .10598755 .13999939 .19699097 .24798584 .22799683 .34599305 .23298645V.13899231Z"/>
<path id="font_5_75" d="M.9129944 0V.042999269H.84399417V.30636598C.84399417 .39823915 .8049927 .4501953 .69299319 .4501953 .59199526 .4501953 .54499819 .38227845 .5289917 .3503723 .5130005 .43518067 .44499208 .4501953 .3809967 .4501953 .2849884 .4501953 .23298645 .38827516 .21199036 .3403778H.21099854V.4501953L.041992189 .4423828V.3993683C.10398865 .3993683 .11099243 .3993683 .11099243 .36035157V.042999269H.041992189V0C.06498718 .0019989014 .13699341 .0019989014 .16499329 .0019989014 .19299317 .0019989014 .2659912 .0019989014 .2889862 0V.042999269H.21998596V.25627137C.21998596 .36532594 .30099488 .41719056 .3639984 .41719056 .40098573 .41719056 .4229889 .3952484 .4229889 .3173828V.042999269H.35398866V0C.3769989 .0019989014 .44898988 .0019989014 .47698976 .0019989014 .5049896 .0019989014 .5779877 .0019989014 .6009979 0V.042999269H.5319977V.25628663C.5319977 .36532594 .61299136 .41719056 .6759949 .41719056 .71299746 .41719056 .7350006 .3952484 .7350006 .3173828V.042999269H.66600039V0C.68899539 .0019989014 .7609863 .0019989014 .78900149 .0019989014 .81700137 .0019989014 .8899994 .0019989014 .9129944 0Z"/>
<path id="font_5_97" d="M.56199648 .20014954C.56199648 .2942047 .5 .38433839 .3909912 .40937806L.2539978 .4404297C.15499878 .4624176 .1519928 .5343628 .1519928 .5483551 .1519928 .59928897 .18499756 .65823367 .28199769 .65823367 .3789978 .65823367 .46598817 .61128237 .4869995 .48042298 .48999024 .45942689 .48999024 .4584198 .5089874 .4584198 .5299988 .4584198 .5299988 .46142579 .5299988 .48442079V.6722412C.5299988 .6912384 .5299988 .6982422 .5149994 .6982422 .5079956 .6982422 .5049896 .6972351 .49598695 .6872406L.45298768 .6382599C.42799378 .6592407 .37799073 .6982422 .2809906 .6982422 .13798523 .6982422 .06199646 .6082916 .06199646 .4994049 .06199646 .43241883 .09799194 .38534547 .11199951 .37132264 .1639862 .31924439 .19198609 .31323243 .29599 .2902069 .3959961 .26817323 .4079895 .26617433 .42999269 .2451477 .44299317 .23214722 .47200013 .20414734 .47200013 .15318299 .47200013 .11021423 .45098878 .031280519 .33898927 .031280519 .25099183 .031280519 .11199951 .06124878 .10398865 .20713806 .102996829 .22514344 .102996829 .22813416 .08299255 .22813416 .06199646 .22813416 .06199646 .22514344 .06199646 .20214844V.014266968C.06199646-.0047302248 .06199646-.01171875 .07699585-.01171875 .083999637-.01171875 .084991458-.010726929 .09498596-.0017242432 .10598755 .009277344 .114990238 .022277832 .13999939 .04725647 .19799805 .0012664795 .27999879-.01171875 .33999635-.01171875 .49598695-.01171875 .56199648 .09422302 .56199648 .20014954Z"/>
<path id="font_5_43" d="M.46798707 .117126468C.46798707 .12913513 .45700074 .12913513 .44699098 .12913513 .43099977 .12913513 .42999269 .12812805 .4249878 .11613464 .41799928 .09713745 .3909912 .030136109 .29899598 .030136109 .1579895 .030136109 .1579895 .1821289 .1579895 .22712708 .1579895 .28611756 .15899658 .41711427 .2899933 .41711427 .29699708 .41711427 .35598756 .41511537 .35598756 .41011048 .35598756 .41011048 .35499574 .40811158 .35299684 .40711976 .34999085 .40411378 .33699037 .38911439 .33699037 .36412049 .33699037 .32211305 .37098695 .30511476 .3959961 .30511476 .4169922 .30511476 .45498658 .31811524 .45498658 .3651123 .45498658 .44711305 .33999635 .453125 .28599549 .453125 .10798645 .453125 .037994386 .33711244 .037994386 .22212219 .037994386 .086135867 .1329956-.005859375 .27999879-.005859375 .43699647-.005859375 .46798707 .11012268 .46798707 .117126468Z"/>
<path id="font_5_81" d="M.5299988 .21913147C.5299988 .35412599 .43798829 .453125 .2809906 .453125 .117996219 .453125 .0309906 .3491211 .0309906 .21913147 .0309906 .088134769 .12298584-.005859375 .27999879-.005859375 .44299317-.005859375 .5299988 .09312439 .5299988 .21913147M.4099884 .22912598C.4099884 .14613343 .4099884 .030136109 .2809906 .030136109 .15098572 .030136109 .15098572 .14712525 .15098572 .22912598 .15098572 .27612306 .15098572 .3261261 .16999817 .36212159 .19198609 .40211488 .23699951 .42012025 .27999879 .42012025 .33699037 .42012025 .37298585 .39311219 .3899994 .3651123 .4099884 .32911683 .4099884 .27713014 .4099884 .22912598Z"/>
<path id="font_5_96" d="M.4269867 .3711853C.4269867 .42218019 .375 .4501953 .32699586 .4501953 .24798584 .4501953 .21398926 .38119508 .19999695 .33918763H.19898987V.4501953L.034988405 .4423828V.3993683C.09700012 .3993683 .10398865 .3993683 .10398865 .3603363V.042999269H.034988405V0C.057998659 .0019989014 .1329956 .0019989014 .16099549 .0019989014 .18998719 .0019989014 .2709961 .0019989014 .29499818 0V.042999269H.20799256V.22518921C.20799256 .25819398 .21499634 .41719056 .33198548 .41719056 .31799317 .40618897 .31098939 .38919068 .31098939 .3711853 .31098939 .33018495 .34399415 .31318666 .36898805 .31318666 .3939972 .31318666 .4269867 .33018495 .4269867 .3711853Z"/>
<path id="font_5_50" d="M.48098756 .11706543C.48098756 .13206482 .46598817 .13206482 .45999146 .13206482 .44400025 .13206482 .44299317 .12905884 .43699647 .11607361 .41099549 .051116945 .34498597 .030136109 .29699708 .030136109 .1519928 .030136109 .15098572 .16503906 .15098572 .22099304H.45199586C.47499085 .22099304 .48098756 .22099304 .48098756 .24598694 .48098756 .27601625 .47399903 .35105897 .42799378 .3981018 .38598634 .4401245 .32998658 .453125 .27198792 .453125 .115997318 .453125 .0309906 .35105897 .0309906 .22499085 .0309906 .08509827 .13398743-.005859375 .2849884-.005859375 .43598939-.005859375 .48098756 .1000824 .48098756 .11706543M.3889923 .25H.15098572C.15299988 .29101563 .1539917 .3300476 .1749878 .3660736 .19400025 .3981018 .22898865 .42012025 .27198792 .42012025 .3789978 .42012025 .3880005 .30003358 .3889923 .25Z"/>
<path id="font_5_46" d="M.798996 .33677674C.798996 .56259158 .6469879 .6855469 .45899964 .6855469H.037994386V.64253237H.14399719V.042999269H.037994386V0H.45899964C.651001 0 .798996 .122924808 .798996 .33677674M.6629944 .33776856C.6629944 .22085572 .647995 .16889954 .61299136 .12193298 .5779877 .07597351 .5109863 .042999269 .42099 .042999269H.2709961V.64253237H.42099C.5079956 .64253237 .5779877 .6085663 .61499026 .5566101 .6439972 .51564028 .6629944 .4666748 .6629944 .33776856Z"/>
<path id="font_5_66" d="M.2789917 0V.042999269H.21699524V.4501953L.04699707 .4423828V.3993683C.10598755 .3993683 .11299133 .3993683 .11299133 .3603363V.042999269H.04399109V0C.066986087 .0019989014 .13598633 .0019989014 .16299439 .0019989014 .19099427 .0019989014 .25498963 .0019989014 .2789917 0M.22898865 .6081238C.22898865 .64912417 .19499207 .68013 .15699768 .68013 .115997318 .68013 .083999637 .64712527 .083999637 .6081238 .083999637 .5671234 .117996219 .5361328 .1559906 .5361328 .19699097 .5361328 .22898865 .5691223 .22898865 .6081238Z"/>
<path id="font_5_98" d="M.40499879 .13912964C.40499879 .18711853 .3789978 .22012329 .35899354 .23812866 .31799317 .27212525 .28399659 .27812196 .22999573 .28811646 .1659851 .29911805 .10598755 .31011964 .10598755 .35812379 .10598755 .42311097 .19499207 .42311097 .21598816 .42311097 .32699586 .42311097 .33299256 .3531189 .33499146 .328125 .33599855 .3151245 .34399415 .3151245 .35598756 .3151245 .3769989 .3151245 .3769989 .31811524 .3769989 .34111024V.42712403C.3769989 .44612123 .3769989 .453125 .3619995 .453125 .35598756 .453125 .35398866 .453125 .33898927 .4441223 .33499146 .44111634 .32398988 .43411256 .31900025 .43112184 .29100038 .44711305 .2539978 .453125 .21798706 .453125 .18798828 .453125 .037994386 .453125 .037994386 .32312013 .037994386 .21812439 .1619873 .19612122 .19299317 .19113159 .21998596 .18612671 .25299073 .18013 .25698854 .18013 .29699708 .17112732 .33699037 .14613343 .33699037 .10412598 .33699037 .027130127 .24598694 .027130127 .22499085 .027130127 .17399597 .027130127 .11099243 .043136598 .08299255 .14012146 .07699585 .16012573 .07598877 .16113281 .05899048 .16113281 .037994386 .16113281 .037994386 .15812683 .037994386 .13513184V.020126343C.037994386 .0011291504 .037994386-.005859375 .052993776-.005859375 .05999756-.005859375 .06199646-.005859375 .08198547 .010131836L.10798645 .029129029C.15299988-.005859375 .20698548-.005859375 .22499085-.005859375 .27999879-.005859375 .40499879 .006134033 .40499879 .13912964Z"/>
<path id="font_5_105" d="M.37399293 .124176029V.17721558H.33198548V.1251831C.33198548 .059143068 .3019867 .030136109 .2709961 .030136109 .21099854 .030136109 .21099854 .09716797 .21099854 .12017822V.4013214H.35499574V.44433595H.21099854V.6357422H.16899109C.16799927 .53652957 .11999512 .43733216 .020996094 .43432618V.4013214H.101989749V.123184207C.101989749 .01713562 .18399048-.005859375 .2559967-.005859375 .32998658-.005859375 .37399293 .05014038 .37399293 .124176029Z"/>
<path id="font_5_35" d="M.58599856 .22319031C.58599856 .36018373 .49198915 .4501953 .35499574 .4501953 .29599 .4501953 .24899292 .43118287 .20799256 .39918519V.69433596L.034988405 .6863251V.6433258C.09700012 .6433258 .10398865 .6433258 .10398865 .6042938V.0001373291H.1459961C.16299439 .019134522 .17999268 .038131715 .19599915 .058135988 .24699402 .005126953 .3019867-.005859375 .34199525-.005859375 .47999574-.005859375 .58599856 .07814026 .58599856 .22315979V.22319031M.46598817 .22416687C.46598817 .17915344 .46598817 .12214661 .44198609 .08514404 .41099549 .037139894 .3639984 .027130127 .33198548 .027130127 .2639923 .027130127 .22698975 .07513428 .21299744 .09713745V.35118104C.24798584 .39918519 .2999878 .41719056 .34199525 .41719056 .46598817 .41719056 .46598817 .29019166 .46598817 .22418213V.22416687Z"/>
<path id="font_5_109" d="M.59999087 0V.042999269C.5379944 .042999269 .5309906 .042999269 .5309906 .08201599V.4501953L.35299684 .4423828V.3993683C.4149933 .3993683 .42199708 .3993683 .42199708 .36035157V.16423035C.42199708 .08818054 .3769989 .027130127 .29899598 .027130127 .22399903 .027130127 .21998596 .05215454 .21998596 .10719299V.4501953L.041992189 .4423828V.3993683C.10398865 .3993683 .11099243 .3993683 .11099243 .36035157V.12319946C.11099243 .023132325 .17799378-.005859375 .2849884-.005859375 .30899049-.005859375 .3829956-.005859375 .42599488 .075164798H.4269867V-.005859375L.59999087 0Z"/>
<path id="font_5_77" d="M.59999087 0V.042999269H.5309906V.30613709C.5309906 .40118409 .48999024 .4501953 .37998963 .4501953 .30799867 .4501953 .24598694 .41519166 .21199036 .34014894H.21099854V.4501953L.041992189 .4423828V.3993683C.10398865 .3993683 .11099243 .3993683 .11099243 .36035157V.042999269H.041992189V0C.06498718 .0019989014 .13699341 .0019989014 .16499329 .0019989014 .19299317 .0019989014 .2659912 .0019989014 .2889862 0V.042999269H.21998596V.25627137C.21998596 .3643341 .2999878 .41719056 .3639984 .41719056 .40098573 .41719056 .42199708 .3932495 .42199708 .31733705V.042999269H.35299684V0C.37599183 .0019989014 .44799806 .0019989014 .47599793 .0019989014 .5039978 .0019989014 .57699587 .0019989014 .59999087 0Z"/>
<path id="font_5_44" d="M.22799683 .3723297C.22799683 .41333009 .19499207 .44433595 .1559906 .44433595 .116989139 .44433595 .083999637 .41333009 .083999637 .3723297 .083999637 .33132936 .116989139 .3003235 .1559906 .3003235 .19499207 .3003235 .22799683 .33132936 .22799683 .3723297M.22799683 .07199097C.22799683 .11299133 .19499207 .14399719 .1559906 .14399719 .116989139 .14399719 .083999637 .11299133 .083999637 .07199097 .083999637 .0309906 .116989139 0 .1559906 0 .19499207 0 .22799683 .0309906 .22799683 .07199097Z"/>
<path id="font_5_62" d="M.84098818 0V.042999269H.7350006V.64253237H.84098818V.6855469C.81199648 .6835327 .7049866 .6835327 .6689911 .6835327 .6329956 .6835327 .526001 .6835327 .49699403 .6855469V.64253237H.6029968V.3779297H.27598573V.64253237H.38198854V.6855469C.35299684 .6835327 .24598694 .6835327 .20999146 .6835327 .17399597 .6835327 .066986087 .6835327 .037994386 .6855469V.64253237H.14399719V.042999269H.037994386V0C.066986087 .0019989014 .17399597 .0019989014 .20999146 .0019989014 .24598694 .0019989014 .35299684 .0019989014 .38198854 0V.042999269H.27598573V.33491517H.6029968V.042999269H.49699403V0C.526001 .0019989014 .6329956 .0019989014 .6689911 .0019989014 .7049866 .0019989014 .81199648 .0019989014 .84098818 0Z"/>
<path id="font_5_59" d="M.54499819 .40003968C.54499819 .42404176 .5269928 .4560547 .4850006 .4560547 .44198609 .4560547 .40098573 .43504334 .37998963 .41705323 .33898927 .44119264 .2999878 .4501953 .24899292 .4501953 .11099243 .4501953 .055999757 .3731842 .055999757 .30319215 .055999757 .27218629 .06599426 .23118592 .10798645 .19718933 .09098816 .17819214 .07299805 .14318848 .07299805 .10719299 .07299805 .064193729 .09599304 .027191163 .116989139 .011184692 .09298706 .0052490236 .0309906-.01776123 .0309906-.0748291 .0309906-.13391114 .09599304-.20095825 .27999879-.20095825 .44599916-.20095825 .5299988-.14692688 .5299988-.07182312 .5299988 .01625061 .47200013 .04525757 .44699098 .057250978 .39898683 .08125305 .33499146 .08125305 .24699402 .08125305 .22200012 .08125305 .17799378 .08125305 .17298889 .08224487 .12998963 .08924866 .117996219 .12724304 .117996219 .14624024 .117996219 .15423584 .11898804 .16923523 .12998963 .18223572 .17799378 .15625 .23399353 .15625 .24899292 .15625 .3869934 .15625 .44198609 .23320008 .44198609 .30314637 .44198609 .35411073 .41299439 .39007569 .40098573 .4000702 .42999269 .41604615 .45399476 .42004396 .47099305 .42204286 .46798707 .41705323 .46499635 .41305543 .46499635 .4000702 .46499635 .37908937 .47898866 .36009217 .5049896 .36009217 .5309906 .36009217 .54499819 .37908937 .54499819 .4000702V.40003968M.33599855 .30314637C.33599855 .2571869 .33599855 .18824768 .24899292 .18824768 .1619873 .18812561 .1619873 .25715638 .1619873 .30316163 .1619873 .34916688 .1619873 .41818238 .24899292 .41818238 .33599855 .41818238 .33599855 .34916688 .33599855 .30316163V.30314637M.44799806-.075927738C.44799806-.1109314 .41299439-.16894531 .2809906-.16894531 .14898682-.16874695 .11299133-.11274719 .11299133-.07475281 .11299133-.0107421879 .17599488-.0107421879 .19099427-.0107421879H.30499269C.37799073-.0107421879 .44799806-.023742676 .44799806-.07574463V-.075927738Z"/>
<path id="font_5_47" d="M.58898928 0V.042999269C.5269928 .042999269 .519989 .042999269 .519989 .08201599V.69433596L.34700013 .6855469V.64253237C.40899659 .64253237 .41600038 .64253237 .41600038 .6036682V.40219117C.3939972 .42118836 .34999085 .4501953 .2809906 .4501953 .13899231 .4501953 .037994386 .36218263 .037994386 .22215271 .037994386 .07914734 .13699341-.005859375 .269989-.005859375 .32499696-.005859375 .37199403 .013137817 .41099549 .046142579V-.005859375L.58898928 0M.41099549 .100997928C.36898805 .040130617 .31799317 .027130127 .28199769 .027130127 .1579895 .027130127 .1579895 .15414429 .1579895 .22015381 .1579895 .26716615 .1579895 .3171692 .17999268 .35517884 .21099854 .4111786 .269989 .41719056 .29299928 .41719056 .33399964 .41719056 .37799073 .39918519 .41099549 .35517884V.100997928Z"/>
<path id="font_5_54" d="M.6589966 .4441223 .6299896 .6806946H.037994386V.6376953H.14399719V.042999269H.037994386V0C.066986087 .0019989014 .18099976 .0019989014 .21798706 .0019989014L.40899659 0V.042999269H.27598573V.31929017H.33099366C.4269867 .31929017 .43499757 .2752533 .43499757 .2021637H.47698976V.47903443H.43499757C.43499757 .40620423 .4269867 .3623047 .33099366 .3623047H.27598573V.6376953H.4189911C.5779877 .6376953 .6029968 .56484988 .61698916 .4441223H.6589966Z"/>
<path id="font_5_91" d="M.58898928-.19340515V-.15039063H.519989V.4501953H.48298646L.42999269 .36717225C.394989 .41818238 .34599305 .4501953 .27999879 .4501953 .14199829 .4501953 .037994386 .36418153 .037994386 .22215271 .037994386 .07914734 .13798523-.005859375 .269989-.005859375 .30799867-.005859375 .35899354 .0021362305 .41099549 .051132204V-.15039063H.34199525V-.19340515C.36499024-.19139099 .43699647-.19139099 .46499635-.19139099 .49299623-.19139099 .56599429-.19139099 .58898928-.19340515M.41600038 .119140628C.37399293 .040130617 .31498719 .027130127 .28199769 .027130127 .21798706 .027130127 .1579895 .086135867 .1579895 .22116089 .1579895 .36717225 .23399353 .41418458 .29299928 .41418458 .37098695 .41418458 .41600038 .33317567 .41600038 .2871704V.119140628Z"/>
<path id="font_5_118" d="M.56900027 .4013214V.44433595C.5349884 .44232179 .5309906 .44232179 .48999024 .44232179L.4039917 .44433595V.4013214C.4039917 .4013214 .45199586 .4013214 .45199586 .38832093 .45199586 .38531495 .44898988 .37931825 .44799806 .37631227L.33099366 .124176029 .20298767 .4013214H.2579956V.44433595C.23399353 .44232179 .1659851 .44232179 .13798523 .44232179 .10899353 .44232179 .049987794 .44232179 .023986817 .44433595V.4013214H.08799744L.272995 .000091552738C.2679901-.0119018559 .2539978-.040924074 .24899292-.05293274 .22799683-.097961429 .19599915-.16699219 .12599182-.16699219 .12199402-.16699219 .10998535-.16699219 .09899902-.16099549 .100997928-.1599884 .1309967-.147995 .1309967-.10997009 .1309967-.07695007 .10699463-.05593872 .07699585-.05593872 .04598999-.05593872 .021987915-.07695007 .021987915-.110961917 .021987915-.1579895 .06599426-.19999695 .12599182-.19999695 .20799256-.19999695 .2619934-.12597656 .28199769-.081954959L.49499513 .37931825C.5009918 .3933258 .5049896 .4013214 .56900027 .4013214Z"/>
<path id="font_5_83" d="M.70599368 .49264527C.70599368 .6005707 .61099246 .6855469 .44599916 .6855469H.037994386V.64253237H.14399719V.042999269H.037994386V0C.066986087 .0019989014 .17399597 .0019989014 .20999146 .0019989014 .24598694 .0019989014 .35299684 .0019989014 .38198854 0V.042999269H.27598573V.3047638H.44599916C.61299136 .3047638 .70599368 .38972474 .70599368 .49264527M.5649872 .49264527C.5649872 .42669679 .5649872 .34277345 .4099884 .34277345H.2709961V.64253237H.4099884C.5649872 .64253237 .5649872 .5606079 .5649872 .49264527Z"/>
<path id="font_5_72" d="M.28599549 0V.042999269H.21699524V.69433596L.04399109 .6855469V.64253237C.10598755 .64253237 .11299133 .64253237 .11299133 .6035614V.042999269H.04399109V0C.066986087 .0019989014 .13798523 .0019989014 .16499329 .0019989014 .19198609 .0019989014 .2630005 .0019989014 .28599549 0Z"/>
</defs>
<path transform="matrix(1.00003,0,0,-1.00003,75.569828,300.81068)" stroke-width=".19925" stroke-linecap="butt" stroke-miterlimit="10" stroke-linejoin="miter" fill="none" stroke="#d9d9d9" d="M0 0H283.4681M0 2.83484H283.4681M0 5.6697H283.4681M0 8.50455H283.4681M0 11.33939H283.4681M0 14.17424H283.4681M0 17.0091H283.4681M0 19.84393H283.4681M0 22.67879H283.4681M0 25.51364H283.4681M0 28.3485H283.4681M0 31.18333H283.4681M0 34.01819H283.4681M0 36.85304H283.4681M0 39.68788H283.4681M0 42.52274H283.4681M0 45.35759H283.4681M0 48.19244H283.4681M0 51.02728H283.4681M0 53.86214H283.4681M0 56.69699H283.4681M0 59.53183H283.4681M0 62.36668H283.4681M0 65.20154H283.4681M0 68.03639H283.4681M0 70.87123H283.4681M0 73.70609H283.4681M0 76.54094H283.4681M0 79.37578H283.4681M0 82.21063H283.4681M0 85.04549H283.4681M0 87.88034H283.4681M0 90.71518H283.4681M0 93.55003H283.4681M0 96.38489H283.4681M0 99.21973H283.4681M0 102.05458H283.4681M0 104.88943H283.4681M0 107.72429H283.4681M0 110.55913H283.4681M0 113.39398H283.4681M0 116.22884H283.4681M0 119.06367H283.4681M0 121.89853H283.4681M0 124.73338H283.4681M0 127.56824H283.4681M0 130.40308H283.4681M0 133.23793H283.4681M0 136.07279H283.4681M0 138.90763H283.4681M0 141.74248H283.4681M0 144.57733H283.4681M0 147.41219H283.4681M0 150.24703H283.4681M0 153.08188H283.4681M0 155.91674H283.4681M0 158.75157H283.4681M0 161.58643H283.4681M0 164.42128H283.4681M0 167.25612H283.4681M0 170.09098H283.4681M0 172.92583H283.4681M0 175.76068H283.4681M0 178.59552H283.4681M0 181.43038H283.4681M0 184.26523H283.4681M0 187.10007H283.4681M0 189.93492H283.4681M0 192.76978H283.4681M0 195.60463H283.4681M0 198.43947H283.4681M0 201.27433H283.4681M0 204.10918H283.4681M0 206.94402H283.4681M0 209.77887H283.4681M0 212.61373H283.4681M0 215.44858H283.4681M0 218.28342H283.4681M0 221.11827H283.4681M0 223.95313H283.4681M0 226.78797H283.4681M0 229.62282H283.4681M0 232.45767H283.4681M0 235.29253H283.4681M0 238.12737H283.4681M0 240.96222H283.4681M0 243.79708H283.4681M0 246.63191H283.4681M0 249.46677H283.4681M0 252.30162H283.4681M0 255.13648H283.4681M0 257.9713H283.4681M0 260.80619H283.4681M0 263.64103H283.4681M0 266.47587H283.4681M0 269.3107H283.4681M0 272.14558H283.4681M0 274.9804H283.4681M0 277.81526H283.4681M0 280.65013H283.4681M0 0V283.4681M2.83484 0V283.4681M5.6697 0V283.4681M8.50455 0V283.4681M11.33939 0V283.4681M14.17424 0V283.4681M17.0091 0V283.4681M19.84393 0V283.4681M22.67879 0V283.4681M25.51364 0V283.4681M28.3485 0V283.4681M31.18333 0V283.4681M34.01819 0V283.4681M36.85304 0V283.4681M39.68788 0V283.4681M42.52274 0V283.4681M45.35759 0V283.4681M48.19244 0V283.4681M51.02728 0V283.4681M53.86214 0V283.4681M56.69699 0V283.4681M59.53183 0V283.4681M62.36668 0V283.4681M65.20154 0V283.4681M68.03639 0V283.4681M70.87123 0V283.4681M73.70609 0V283.4681M76.54094 0V283.4681M79.37578 0V283.4681M82.21063 0V283.4681M85.04549 0V283.4681M87.88034 0V283.4681M90.71518 0V283.4681M93.55003 0V283.4681M96.38489 0V283.4681M99.21973 0V283.4681M102.05458 0V283.4681M104.88943 0V283.4681M107.72429 0V283.4681M110.55913 0V283.4681M113.39398 0V283.4681M116.22884 0V283.4681M119.06367 0V283.4681M121.89853 0V283.4681M124.73338 0V283.4681M127.56824 0V283.4681M130.40308 0V283.4681M133.23793 0V283.4681M136.07279 0V283.4681M138.90763 0V283.4681M141.74248 0V283.4681M144.57733 0V283.4681M147.41219 0V283.4681M150.24703 0V283.4681M153.08188 0V283.4681M155.91674 0V283.4681M158.75157 0V283.4681M161.58643 0V283.4681M164.42128 0V283.4681M167.25612 0V283.4681M170.09098 0V283.4681M172.92583 0V283.4681M175.76068 0V283.4681M178.59552 0V283.4681M181.43038 0V283.4681M184.26523 0V283.4681M187.10007 0V283.4681M189.93492 0V283.4681M192.76978 0V283.4681M195.60463 0V283.4681M198.43947 0V283.4681M201.27433 0V283.4681M204.10918 0V283.4681M206.94402 0V283.4681M209.77887 0V283.4681M212.61373 0V283.4681M215.44858 0V283.4681M218.28342 0V283.4681M221.11827 0V283.4681M223.95313 0V283.4681M226.78797 0V283.4681M229.62282 0V283.4681M232.45767 0V283.4681M235.29253 0V283.4681M238.12737 0V283.4681M240.96222 0V283.4681M243.79708 0V283.4681M246.63191 0V283.4681M249.46677 0V283.4681M252.30162 0V283.4681M255.13648 0V283.4681M257.9713 0V283.4681M260.80619 0V283.4681M263.64103 0V283.4681M266.47587 0V283.4681M269.3107 0V283.4681M272.14558 0V283.4681M274.9804 0V283.4681M277.81526 0V283.4681M280.65013 0V283.4681M283.4681 283.4681"/>
<path transform="matrix(1.00003,0,0,-1.00003,75.569828,300.81068)" stroke-width=".3985" stroke-linecap="butt" stroke-miterlimit="10" stroke-linejoin="miter" fill="none" stroke="#a6a6a6" d="M0 0H283.4681M0 28.3468H283.4681M0 56.69362H283.4681M0 85.04042H283.4681M0 113.38724H283.4681M0 141.73404H283.4681M0 170.08086H283.4681M0 198.42766H283.4681M0 226.77448H283.4681M0 255.12128H283.4681M0 283.45814H283.4681M0 0V283.4681M28.3468 0V283.4681M56.69362 0V283.4681M85.04042 0V283.4681M113.38724 0V283.4681M141.73404 0V283.4681M170.08086 0V283.4681M198.42766 0V283.4681M226.77448 0V283.4681M255.12128 0V283.4681M283.45814 0V283.4681M283.4681 283.4681"/>
<path transform="matrix(1.00003,0,0,-1.00003,75.569828,300.81068)" stroke-width=".79701" stroke-linecap="butt" stroke-miterlimit="10" stroke-linejoin="miter" fill="none" stroke="#000000" d="M0 0H282.76075"/>
<path transform="matrix(1.00003,0,0,-1.00003,358.33906,300.81068)" stroke-width=".6376" stroke-linecap="round" stroke-linejoin="round" fill="none" stroke="#000000" d="M-1.55415 2.0722C-1.42464 1.29512 0 .1295 .38852 0 0-.1295-1.42464-1.29512-1.55415-2.0722"/>
<path transform="matrix(1.00003,0,0,-1.00003,75.569828,300.81068)" stroke-width=".79701" stroke-linecap="butt" stroke-miterlimit="10" stroke-linejoin="miter" fill="none" stroke="#000000" d="M0 0V282.76075"/>
<path transform="matrix(0,-1.00003,-1.00003,-0,75.569828,18.041443)" stroke-width=".6376" stroke-linecap="round" stroke-linejoin="round" fill="none" stroke="#000000" d="M-1.55415 2.0722C-1.42464 1.29512 0 .1295 .38852 0 0-.1295-1.42464-1.29512-1.55415-2.0722"/>
<use data-text="4" xlink:href="#font_1_57" transform="matrix(9.962899,0,0,-9.962899,98.935527,311.076)"/>
<use data-text="0" xlink:href="#font_1_121" transform="matrix(9.962899,0,0,-9.962899,103.91697,311.076)"/>
<use data-text="5" xlink:href="#font_1_56" transform="matrix(9.962899,0,0,-9.962899,141.4578,310.96598)"/>
<use data-text="5" xlink:href="#font_1_56" transform="matrix(9.962899,0,0,-9.962899,146.43924,310.96598)"/>
<use data-text="7" xlink:href="#font_1_100" transform="matrix(9.962899,0,0,-9.962899,183.97908,311.06599)"/>
<use data-text="0" xlink:href="#font_1_121" transform="matrix(9.962899,0,0,-9.962899,188.96053,311.06599)"/>
<use data-text="8" xlink:href="#font_1_51" transform="matrix(9.962899,0,0,-9.962899,240.67378,310.96598)"/>
<use data-text="5" xlink:href="#font_1_56" transform="matrix(9.962899,0,0,-9.962899,245.65523,310.96598)"/>
<use data-text="9" xlink:href="#font_1_78" transform="matrix(9.962899,0,0,-9.962899,311.5429,310.96598)"/>
<use data-text="5" xlink:href="#font_1_56" transform="matrix(9.962899,0,0,-9.962899,316.52436,310.96598)"/>
<use data-text="0" xlink:href="#font_2_1" transform="matrix(8.966669,0,0,-8.966669,67.44158,303.69978)"/>
<use data-text="0" xlink:href="#font_2_1" transform="matrix(8.966669,0,0,-8.966669,60.27437,247.00505)"/>
<use data-text="." xlink:href="#font_3_1" transform="matrix(8.966669,0,0,-8.966669,64.88251,247.00505)"/>
<use data-text="4" xlink:href="#font_2_4" transform="matrix(8.966669,0,0,-8.966669,67.44258,247.00505)"/>
<use data-text="0" xlink:href="#font_2_1" transform="matrix(8.966669,0,0,-8.966669,60.27437,190.30936)"/>
<use data-text="." xlink:href="#font_3_1" transform="matrix(8.966669,0,0,-8.966669,64.88251,190.30936)"/>
<use data-text="8" xlink:href="#font_2_6" transform="matrix(8.966669,0,0,-8.966669,67.44258,190.30936)"/>
<use data-text="1" xlink:href="#font_2_2" transform="matrix(8.966669,0,0,-8.966669,60.27437,133.61365)"/>
<use data-text="." xlink:href="#font_3_1" transform="matrix(8.966669,0,0,-8.966669,64.88251,133.61365)"/>
<use data-text="2" xlink:href="#font_2_3" transform="matrix(8.966669,0,0,-8.966669,67.44258,133.61365)"/>
<use data-text="1" xlink:href="#font_2_2" transform="matrix(8.966669,0,0,-8.966669,60.27437,76.918949)"/>
<use data-text="." xlink:href="#font_3_1" transform="matrix(8.966669,0,0,-8.966669,64.88251,76.918949)"/>
<use data-text="6" xlink:href="#font_2_5" transform="matrix(8.966669,0,0,-8.966669,67.44258,76.918949)"/>
<use data-text="2" xlink:href="#font_2_3" transform="matrix(8.966669,0,0,-8.966669,67.44158,20.223237)"/>
<path transform="matrix(1.00003,0,0,-1.00003,75.569828,300.81068)" d="M28.3468 0V226.77448H70.867V0ZM70.867 226.77448" fill="#6666ff"/>
<path transform="matrix(1.00003,0,0,-1.00003,75.569828,300.81068)" stroke-width=".79701" stroke-linecap="butt" stroke-miterlimit="10" stroke-linejoin="miter" fill="none" stroke="#000000" d="M28.3468 0V226.77448H70.867V0ZM70.867 226.77448"/>
<path transform="matrix(1.00003,0,0,-1.00003,75.569828,300.81068)" d="M70.867 0V170.08086H113.38724V0ZM113.38724 170.08086" fill="#6666ff"/>
<path transform="matrix(1.00003,0,0,-1.00003,75.569828,300.81068)" stroke-width=".79701" stroke-linecap="butt" stroke-miterlimit="10" stroke-linejoin="miter" fill="none" stroke="#000000" d="M70.867 0V170.08086H113.38724V0ZM113.38724 170.08086"/>
<path transform="matrix(1.00003,0,0,-1.00003,75.569828,300.81068)" d="M113.38724 0V141.73404H170.08086V0ZM170.08086 141.73404" fill="#6666ff"/>
<path transform="matrix(1.00003,0,0,-1.00003,75.569828,300.81068)" stroke-width=".79701" stroke-linecap="butt" stroke-miterlimit="10" stroke-linejoin="miter" fill="none" stroke="#000000" d="M113.38724 0V141.73404H170.08086V0ZM170.08086 141.73404"/>
<path transform="matrix(1.00003,0,0,-1.00003,75.569828,300.81068)" d="M170.08086 0V85.04042H240.94788V0ZM240.94788 85.04042" fill="#6666ff"/>
<path transform="matrix(1.00003,0,0,-1.00003,75.569828,300.81068)" stroke-width=".79701" stroke-linecap="butt" stroke-miterlimit="10" stroke-linejoin="miter" fill="none" stroke="#000000" d="M170.08086 0V85.04042H240.94788V0ZM240.94788 85.04042"/>
<path transform="matrix(1.00003,0,0,-1.00003,75.569828,300.81068)" stroke-width=".79701" stroke-linecap="butt" stroke-miterlimit="10" stroke-linejoin="miter" fill="none" stroke="#000000" d="M14.17339 0 49.6069 226.77448 92.1271 170.08086 141.73404 141.73404 205.51436 85.04042 255.12128 0"/>
<path transform="matrix(1.00003,0,0,-1.00003,75.569828,300.81068)" d="M52.59573 226.77448C52.59573 228.42517 51.25761 229.7633 49.6069 229.7633 47.95619 229.7633 46.61807 228.42517 46.61807 226.77448 46.61807 225.12377 47.95619 223.78565 49.6069 223.78565 51.25761 223.78565 52.59573 225.12377 52.59573 226.77448ZM49.6069 226.77448"/>
<path transform="matrix(1.00003,0,0,-1.00003,75.569828,300.81068)" d="M95.11594 170.08086C95.11594 171.73155 93.77782 173.06969 92.1271 173.06969 90.47641 173.06969 89.13828 171.73155 89.13828 170.08086 89.13828 168.43015 90.47641 167.09203 92.1271 167.09203 93.77782 167.09203 95.11594 168.43015 95.11594 170.08086ZM92.1271 170.08086"/>
<path transform="matrix(1.00003,0,0,-1.00003,75.569828,300.81068)" d="M144.72287 141.73404C144.72287 143.38475 143.38475 144.72287 141.73404 144.72287 140.08333 144.72287 138.74521 143.38475 138.74521 141.73404 138.74521 140.08333 140.08333 138.74521 141.73404 138.74521 143.38475 138.74521 144.72287 140.08333 144.72287 141.73404ZM141.73404 141.73404"/>
<path transform="matrix(1.00003,0,0,-1.00003,75.569828,300.81068)" d="M208.50319 85.04042C208.50319 86.69113 207.16506 88.02925 205.51436 88.02925 203.86365 88.02925 202.52553 86.69113 202.52553 85.04042 202.52553 83.38971 203.86365 82.05159 205.51436 82.05159 207.16506 82.05159 208.50319 83.38971 208.50319 85.04042ZM205.51436 85.04042"/>
<use data-text="E" xlink:href="#font_4_49" transform="matrix(9.962899,0,0,-9.962899,185.21213,325.44844)"/>
<use data-text="x" xlink:href="#font_4_116" transform="matrix(9.962899,0,0,-9.962899,192.74408,325.44844)"/>
<use data-text="a" xlink:href="#font_4_28" transform="matrix(9.962899,0,0,-9.962899,198.79157,325.44844)"/>
<use data-text="m" xlink:href="#font_4_75" transform="matrix(9.962899,0,0,-9.962899,204.36081,325.44844)"/>
<use data-text="S" xlink:href="#font_4_97" transform="matrix(9.962899,0,0,-9.962899,217.72107,325.44844)"/>
<use data-text="c" xlink:href="#font_4_43" transform="matrix(9.962899,0,0,-9.962899,224.08737,325.44844)"/>
<use data-text="o" xlink:href="#font_4_81" transform="matrix(9.962899,0,0,-9.962899,229.1784,325.44844)"/>
<use data-text="r" xlink:href="#font_4_96" transform="matrix(9.962899,0,0,-9.962899,234.90708,325.44844)"/>
<use data-text="e" xlink:href="#font_4_50" transform="matrix(9.962899,0,0,-9.962899,239.62949,325.44844)"/>
<use data-text="s" xlink:href="#font_4_98" transform="matrix(9.962899,0,0,-9.962899,244.87995,325.44844)"/>
<use data-text="F" xlink:href="#font_4_54" transform="matrix(0,-9.962899,-9.962899,-0,49.643037,205.82482)"/>
<use data-text="r" xlink:href="#font_4_96" transform="matrix(0,-9.962899,-9.962899,-0,49.643037,199.55815)"/>
<use data-text="e" xlink:href="#font_4_50" transform="matrix(0,-9.962899,-9.962899,-0,49.643037,194.83573)"/>
<use data-text="q" xlink:href="#font_4_91" transform="matrix(0,-9.962899,-9.962899,-0,49.643037,189.58528)"/>
<use data-text="u" xlink:href="#font_4_109" transform="matrix(0,-9.962899,-9.962899,-0,49.643037,183.5378)"/>
<use data-text="e" xlink:href="#font_4_50" transform="matrix(0,-9.962899,-9.962899,-0,49.643037,177.1715)"/>
<use data-text="n" xlink:href="#font_4_77" transform="matrix(0,-9.962899,-9.962899,-0,49.643037,171.92105)"/>
<use data-text="c" xlink:href="#font_4_43" transform="matrix(0,-9.962899,-9.962899,-0,49.643037,165.55477)"/>
<use data-text="y" xlink:href="#font_4_118" transform="matrix(0,-9.962899,-9.962899,-0,49.643037,160.46373)"/>
<use data-text="D" xlink:href="#font_4_46" transform="matrix(0,-9.962899,-9.962899,-0,49.643037,150.61042)"/>
<use data-text="e" xlink:href="#font_4_50" transform="matrix(0,-9.962899,-9.962899,-0,49.643037,141.82314)"/>
<use data-text="n" xlink:href="#font_4_77" transform="matrix(0,-9.962899,-9.962899,-0,49.643037,136.5727)"/>
<use data-text="s" xlink:href="#font_4_98" transform="matrix(0,-9.962899,-9.962899,-0,49.643037,130.20639)"/>
<use data-text="i" xlink:href="#font_4_66" transform="matrix(0,-9.962899,-9.962899,-0,49.643037,125.68323)"/>
<use data-text="t" xlink:href="#font_4_105" transform="matrix(0,-9.962899,-9.962899,-0,49.643037,122.505069)"/>
<use data-text="y" xlink:href="#font_4_118" transform="matrix(0,-9.962899,-9.962899,-0,49.643037,118.360507)"/>
<use data-text="E" xlink:href="#font_5_49" transform="matrix(14.346631,0,0,-14.346631,1.2165985,10.929962)"/>
<use data-text="x" xlink:href="#font_5_116" transform="matrix(14.346631,0,0,-14.346631,11.804413,10.929962)"/>
<use data-text="a" xlink:href="#font_5_28" transform="matrix(14.346631,0,0,-14.346631,20.32631,10.929962)"/>
<use data-text="m" xlink:href="#font_5_75" transform="matrix(14.346631,0,0,-14.346631,28.173905,10.929962)"/>
<use data-text="S" xlink:href="#font_5_97" transform="matrix(14.346631,0,0,-14.346631,47.011034,10.929962)"/>
<use data-text="c" xlink:href="#font_5_43" transform="matrix(14.346631,0,0,-14.346631,55.977678,10.929962)"/>
<use data-text="o" xlink:href="#font_5_81" transform="matrix(14.346631,0,0,-14.346631,63.150987,10.929962)"/>
<use data-text="r" xlink:href="#font_5_96" transform="matrix(14.346631,0,0,-14.346631,71.228137,10.929962)"/>
<use data-text="e" xlink:href="#font_5_50" transform="matrix(14.346631,0,0,-14.346631,77.82759,10.929962)"/>
<use data-text="D" xlink:href="#font_5_46" transform="matrix(14.346631,0,0,-14.346631,90.5674,10.929962)"/>
<use data-text="i" xlink:href="#font_5_66" transform="matrix(14.346631,0,0,-14.346631,102.934207,10.929962)"/>
<use data-text="s" xlink:href="#font_5_98" transform="matrix(14.346631,0,0,-14.346631,107.42471,10.929962)"/>
<use data-text="t" xlink:href="#font_5_105" transform="matrix(14.346631,0,0,-14.346631,113.79462,10.929962)"/>
<use data-text="r" xlink:href="#font_5_96" transform="matrix(14.346631,0,0,-14.346631,120.07843,10.929962)"/>
<use data-text="i" xlink:href="#font_5_66" transform="matrix(14.346631,0,0,-14.346631,126.67789,10.929962)"/>
<use data-text="b" xlink:href="#font_5_35" transform="matrix(14.346631,0,0,-14.346631,131.16837,10.929962)"/>
<use data-text="u" xlink:href="#font_5_109" transform="matrix(14.346631,0,0,-14.346631,140.13501,10.929962)"/>
<use data-text="t" xlink:href="#font_5_105" transform="matrix(14.346631,0,0,-14.346631,149.10166,10.929962)"/>
<use data-text="i" xlink:href="#font_5_66" transform="matrix(14.346631,0,0,-14.346631,155.38547,10.929962)"/>
<use data-text="o" xlink:href="#font_5_81" transform="matrix(14.346631,0,0,-14.346631,159.87595,10.929962)"/>
<use data-text="n" xlink:href="#font_5_77" transform="matrix(14.346631,0,0,-14.346631,167.9531,10.929962)"/>
<use data-text=":" xlink:href="#font_5_44" transform="matrix(14.346631,0,0,-14.346631,176.91974,10.929962)"/>
<use data-text="H" xlink:href="#font_5_62" transform="matrix(14.346631,0,0,-14.346631,188.58353,10.929962)"/>
<use data-text="i" xlink:href="#font_5_66" transform="matrix(14.346631,0,0,-14.346631,201.20859,10.929962)"/>
<use data-text="s" xlink:href="#font_5_98" transform="matrix(14.346631,0,0,-14.346631,205.69907,10.929962)"/>
<use data-text="t" xlink:href="#font_5_105" transform="matrix(14.346631,0,0,-14.346631,212.069,10.929962)"/>
<use data-text="o" xlink:href="#font_5_81" transform="matrix(14.346631,0,0,-14.346631,218.35282,10.929962)"/>
<use data-text="g" xlink:href="#font_5_59" transform="matrix(14.346631,0,0,-14.346631,226.42996,10.929962)"/>
<use data-text="r" xlink:href="#font_5_96" transform="matrix(14.346631,0,0,-14.346631,234.50711,10.929962)"/>
<use data-text="a" xlink:href="#font_5_28" transform="matrix(14.346631,0,0,-14.346631,241.10654,10.929962)"/>
<use data-text="m" xlink:href="#font_5_75" transform="matrix(14.346631,0,0,-14.346631,248.95417,10.929962)"/>
<use data-text="a" xlink:href="#font_5_28" transform="matrix(14.346631,0,0,-14.346631,267.79127,10.929962)"/>
<use data-text="n" xlink:href="#font_5_77" transform="matrix(14.346631,0,0,-14.346631,275.6389,10.929962)"/>
<use data-text="d" xlink:href="#font_5_47" transform="matrix(14.346631,0,0,-14.346631,284.60554,10.929962)"/>
<use data-text="F" xlink:href="#font_5_54" transform="matrix(14.346631,0,0,-14.346631,298.95216,10.929962)"/>
<use data-text="r" xlink:href="#font_5_96" transform="matrix(14.346631,0,0,-14.346631,307.761,10.929962)"/>
<use data-text="e" xlink:href="#font_5_50" transform="matrix(14.346631,0,0,-14.346631,314.3604,10.929962)"/>
<use data-text="q" xlink:href="#font_5_91" transform="matrix(14.346631,0,0,-14.346631,321.72026,10.929962)"/>
<use data-text="u" xlink:href="#font_5_109" transform="matrix(14.346631,0,0,-14.346631,330.24214,10.929962)"/>
<use data-text="e" xlink:href="#font_5_50" transform="matrix(14.346631,0,0,-14.346631,339.20878,10.929962)"/>
<use data-text="n" xlink:href="#font_5_77" transform="matrix(14.346631,0,0,-14.346631,346.56858,10.929962)"/>
<use data-text="c" xlink:href="#font_5_43" transform="matrix(14.346631,0,0,-14.346631,355.53523,10.929962)"/>
<use data-text="y" xlink:href="#font_5_118" transform="matrix(14.346631,0,0,-14.346631,362.70857,10.929962)"/>
<use data-text="P" xlink:href="#font_5_83" transform="matrix(14.346631,0,0,-14.346631,376.59614,10.929962)"/>
<use data-text="o" xlink:href="#font_5_81" transform="matrix(14.346631,0,0,-14.346631,387.1983,10.929962)"/>
<use data-text="l" xlink:href="#font_5_72" transform="matrix(14.346631,0,0,-14.346631,395.27546,10.929962)"/>
<use data-text="y" xlink:href="#font_5_118" transform="matrix(14.346631,0,0,-14.346631,399.76594,10.929962)"/>
<use data-text="g" xlink:href="#font_5_59" transform="matrix(14.346631,0,0,-14.346631,408.28785,10.929962)"/>
<use data-text="o" xlink:href="#font_5_81" transform="matrix(14.346631,0,0,-14.346631,416.365,10.929962)"/>
<use data-text="n" xlink:href="#font_5_77" transform="matrix(14.346631,0,0,-14.346631,424.44215,10.929962)"/>
</svg>
