<svg xmlns="http://www.w3.org/2000/svg" xmlns:xlink="http://www.w3.org/1999/xlink" xmlns:inkscape="http://www.inkscape.org/namespaces/inkscape" version="1.1" width="122" height="93" viewBox="0 0 122 93">
<path transform="matrix(1,0,0,-1.00005,35.035005,58.69313)" d="M0 0H85.04042L42.5202 56.69362Z" fill="#d9d9d9"/>
<path transform="matrix(1,0,0,-1.00005,35.035005,58.69313)" stroke-width=".79701" stroke-linecap="butt" stroke-miterlimit="10" stroke-linejoin="miter" fill="none" stroke="#000000" d="M0 0H85.04042L42.5202 56.69362Z"/>
<path transform="matrix(1,0,0,-1.00005,35.035005,58.69313)" stroke-width=".79701" stroke-linecap="butt" stroke-miterlimit="10" stroke-linejoin="miter" fill="none" stroke="#000000" d="M0 0-32.74008-32.74008"/>
<path transform="matrix(1,0,0,-1.00005,35.035005,58.69313)" stroke-width=".79701" stroke-linecap="butt" stroke-miterlimit="10" stroke-linejoin="miter" fill="none" stroke="#000000" d="M85.04042 0 52.30034-32.74008"/>
<path transform="matrix(1,0,0,-1.00005,35.035005,58.69313)" stroke-width=".79701" stroke-linecap="butt" stroke-miterlimit="10" stroke-linejoin="miter" fill="none" stroke="#000000" d="M42.5202 56.69362 9.7801 23.95352"/>
<path transform="matrix(1,0,0,-1.00005,35.035005,58.69313)" stroke-width=".79701" stroke-linecap="butt" stroke-miterlimit="10" stroke-linejoin="miter" fill="none" stroke="#000000" d="M-32.74008-32.74008H52.30034L9.7801 23.95352Z"/>
<path transform="matrix(1,0,0,-1.00005,35.035005,58.69313)" stroke-width=".3985" stroke-linecap="butt" stroke-dasharray="2.98883,2.98883" stroke-miterlimit="10" stroke-linejoin="miter" fill="none" stroke="#000000" d="M-32.74008-32.74008 9.7801 23.95352"/>
<path transform="matrix(1,0,0,-1.00005,35.035005,58.69313)" stroke-width=".3985" stroke-linecap="butt" stroke-dasharray="2.98883,2.98883" stroke-miterlimit="10" stroke-linejoin="miter" fill="none" stroke="#000000" d="M-32.74008-32.74008H52.30034"/>
<path transform="matrix(1,0,0,-1.00005,35.035005,58.69313)" stroke-width=".3985" stroke-linecap="butt" stroke-dasharray="2.98883,2.98883" stroke-miterlimit="10" stroke-linejoin="miter" fill="none" stroke="#000000" d="M52.30034-32.74008 9.7801 23.95352"/>
</svg>
