<svg xmlns="http://www.w3.org/2000/svg" xmlns:xlink="http://www.w3.org/1999/xlink" xmlns:inkscape="http://www.inkscape.org/namespaces/inkscape" version="1.1" width="215" height="90" viewBox="0 0 215 90">
<defs>
<path id="font_1_34" d="M.69200137 .18299866C.69200137 .2639923 .61499026 .34298707 .48999024 .35699464 .598999 .379776 .6619873 .44573976 .6619873 .51368716 .6619873 .6026306 .56199648 .6826172 .42799378 .6826172H.04798889V.6496124H.069992069C.14698792 .6496124 .14898682 .63861086 .14898682 .6016388V.080963138C.14898682 .04399109 .14698792 .032989503 .069992069 .032989503H.04798889V0H.45599366C.59399417-.00018310547 .69200137 .08781433 .69200137 .18281555V.18299866M.5649872 .5137024C.5649872 .445755 .5049896 .3688202 .3909912 .3688202H.23399353V.6086426C.23399353 .64260867 .23599243 .6496124 .28199769 .6496124H.42099C.519989 .6498108 .5649872 .57281497 .5649872 .5138092V.5137024M.59098818 .18389893C.59098818 .10295105 .5239868 .032989503 .42199708 .032989503H.28199769C.23599243 .032989503 .23399353 .039993287 .23399353 .07397461V.3408203H.43699647C.5339966 .34098817 .59098818 .2630005 .59098818 .18399048V.18389893Z"/>
<path id="font_2_1" d="M.397995 .63591006C.397995 .6660156 .394989 .6660156 .3619995 .6660156 .29100038 .6016083 .17999268 .6016083 .1599884 .6016083H.14299011V.5576172H.1599884C.18299866 .5576172 .24798584 .5606079 .30599977 .58561709V.08596802C.30599977 .054977418 .30599977 .04399109 .19999695 .04399109H.1499939V0C.20498657 .0039978029 .2939911 .0039978029 .35198976 .0039978029 .4099884 .0039978029 .49899293 .0039978029 .55400088 0V.04399109H.5039978C.397995 .04399109 .397995 .054977418 .397995 .08596802V.63591006Z"/>
<path id="font_2_4" d="M.61698916 .1630249V.20703125H.49198915V.64675906C.49198915 .67074587 .4909973 .6767578 .46499635 .6767578 .44499208 .6767578 .44400025 .67575076 .43299867 .66174319L.06298828 .20703125V.1630249H.3959961V.085006717C.3959961 .054000856 .3959961 .04399109 .30899049 .04399109H.27398683V0C.32099916 .0019989014 .38598634 .0039978029 .44400025 .0039978029 .5019989 .0039978029 .56599429 .0019989014 .6139984 0V.04399109H.57899478C.49198915 .04399109 .49198915 .054000856 .49198915 .085006717V.1630249H.61698916M.4039917 .5688019V.20703125H.10998535L.4039917 .5688019Z"/>
<path id="font_1_95" d="M.7779999 .09051514C.7779999 .0965271 .7779999 .10952759 .7619934 .10952759 .7480011 .10952759 .7480011 .098526 .746994 .09152222 .74198916 .028518677 .70700076 .006515503 .67900088 .006515503 .625 .006515503 .61898806 .052520753 .6009979 .17953491 .59399417 .23654175 .58399966 .30555726 .47399903 .33955384 .5519867 .3595581 .647995 .41656495 .647995 .50257876 .647995 .601593 .5209961 .6826172 .37199403 .6826172H.04598999V.6496124H.067993167C.14498902 .6496124 .14698792 .63861086 .14698792 .601593V.08052063C.14698792 .04397583 .14498902 .032989503 .067993167 .032989503H.04598999V0L.19099427 .0029907227 .33699037 0V.032989503H.31498719C.23799134 .032989503 .23599243 .04397583 .23599243 .0809021V.3274536H.3619995C.43598939 .3274536 .46899415 .29052735 .47599793 .282547 .5049896 .2505951 .5049896 .23162842 .5049896 .16375733 .5049896 .100875858 .5049896 .05795288 .5469971 .020996094 .58999636-.016494751 .6459961-.021484375 .6749878-.021484375 .7579956-.021484375 .7779999 .0605011 .7779999 .09049988V.09051514M.5439911 .50253298C.5439911 .3914795 .46398927 .35546876 .35899354 .35546876H.23599243V.6085968C.23599243 .6345978 .23699951 .6456146 .26098634 .64860537 .269989 .6496124 .3019867 .6496124 .32199098 .6496124 .4119873 .6496124 .5439911 .6496124 .5439911 .50253298Z"/>
<path id="font_2_3" d="M.32998658 .3310547C.42199708 .3310547 .48298646 .2737732 .48298646 .17437744 .48298646 .07237244 .41999818 .01852417 .33099366 .01852417 .31999208 .01852417 .20098877 .01852417 .1499939 .070373538 .19099427 .07637024 .20298767 .1073761 .20298767 .13137818 .20298767 .16838074 .1749878 .19238281 .14199829 .19238281 .10998535 .19238281 .07998657 .17137146 .07998657 .12937927 .07998657 .025512696 .19799805-.022460938 .33399964-.022460938 .49798585-.022460938 .59999087 .07637024 .59999087 .17337036 .59999087 .25567628 .5269928 .3260193 .41299439 .35205079 .5329895 .3909912 .5649872 .46684266 .5649872 .5228424 .5649872 .60491946 .46299745 .6660156 .33699037 .6660156 .21398926 .6660156 .114990238 .61395266 .114990238 .5238342 .114990238 .47683717 .15299988 .46484376 .17199707 .46484376 .20098877 .46484376 .22898865 .48583985 .22898865 .5218353 .22898865 .5448303 .21699524 .5728302 .18099976 .57884219 .22399903 .625 .31298829 .628006 .33399964 .628006 .40699769 .628006 .45899964 .5908661 .45899964 .5228424 .45899964 .46484376 .42099 .37402345 .31599427 .368042 .28799439 .3670349 .28399659 .3660431 .2579956 .365036 .24699402 .3640442 .23599243 .36305238 .23599243 .34805299 .23599243 .3310547 .24598694 .3310547 .2639923 .3310547H.32998658Z"/>
<path id="font_2_2" d="M.58898928 .19296265H.5469971C.5439911 .17396546 .5339966 .11198425 .5179901 .101989749 .5099945 .09599304 .42599488 .09599304 .41099549 .09599304H.21499634C.2809906 .14497376 .35499574 .20095825 .4149933 .24093628 .5049896 .30291749 .58898928 .36090089 .58898928 .46687318 .58898928 .59495547 .46798707 .6660156 .32499696 .6660156 .18998719 .6660156 .09098816 .58795168 .09098816 .48986817 .09098816 .4378662 .1349945 .42886354 .14898682 .42886354 .17599488 .42886354 .20799256 .4468689 .20799256 .48786927 .20799256 .52386477 .18199158 .543869 .15098572 .546875 .1789856 .59194949 .23699951 .6220093 .3039856 .6220093 .40098573 .6220093 .48199464 .5639038 .48199464 .4658661 .48199464 .3818817 .42399598 .31791688 .34700013 .2529297L.102996829 .04598999C.09298706 .036987306 .09199524 .036987306 .09098816 .02999878V0H.55599978L.58898928 .19296265Z"/>
<path id="font_2_5" d="M.19599915 .55078127C.24899292 .53778079 .2939911 .53778079 .30499269 .53778079 .37298585 .53778079 .4229889 .55778506 .44898988 .57177737 .47299195 .583786 .54100039 .6267853 .54100039 .64878848 .54100039 .66378787 .5299988 .66578677 .5269928 .66578677 .5249939 .66578677 .522995 .66578677 .5119934 .66078189 .47399903 .6477814 .4119873 .63378909 .34599305 .63378909 .2889862 .63378909 .23399353 .64378359 .18099976 .66178897 .16999817 .66578677 .16799927 .66578677 .1659851 .66578677 .1519928 .66578677 .1519928 .6537781 .1519928 .63778689V.33763124C.1519928 .32061769 .1519928 .30760194 .17098999 .30760194 .18199158 .30760194 .18299866 .30960084 .19198609 .32061769 .22999573 .36468507 .2829895 .38671876 .35099793 .38671876 .40899659 .38671876 .44099427 .35266114 .45498658 .33163453 .47799684 .2975769 .48298646 .2525177 .48298646 .20446778 .48298646 .16246033 .47898866 .10646057 .43998719 .067489627 .394989 .021530152 .33799745 .01852417 .31599427 .01852417 .25099183 .01852417 .17799378 .04650879 .14698792 .10546875 .18899536 .10845947 .20298767 .13845825 .20298767 .1614685 .20298767 .19346619 .1789856 .21746826 .14698792 .21746826 .125 .21746826 .09098816 .20446778 .09098816 .15846253 .09098816 .0605011 .18699646-.022460938 .31799317-.022460938 .46699525-.022460938 .58898928 .07748413 .58898928 .20146179 .58898928 .3146057 .49198915 .41970826 .35299684 .41970826 .2899933 .41970826 .23899842 .40371705 .19599915 .37068177V.55078127Z"/>
</defs>
<path transform="matrix(1.00003,0,0,-1.00008,5.1135866,45.38835)" stroke-width=".79701" stroke-linecap="butt" stroke-miterlimit="10" stroke-linejoin="miter" fill="none" stroke="#000000" d="M2.81807 0C2.81807 1.55638 1.55638 2.81807 0 2.81807-1.55638 2.81807-2.81807 1.55638-2.81807 0-2.81807-1.55638-1.55638-2.81807 0-2.81807 1.55638-2.81807 2.81807-1.55638 2.81807 0ZM0 0"/>
<path transform="matrix(1.00003,0,0,-1.00008,5.1135866,45.38835)" stroke-width=".3985" stroke-linecap="butt" stroke-miterlimit="10" stroke-linejoin="miter" fill="none" stroke="#000000" d="M106.08034-28.34686C106.08034-24.55434 103.00595-21.47995 99.21342-21.47995 95.4209-21.47995 92.34651-24.55434 92.34651-28.34686 92.34651-32.13939 95.4209-35.21378 99.21342-35.21378 103.00595-35.21378 106.08034-32.13939 106.08034-28.34686ZM99.21342-28.34686"/>
<use data-text="B" xlink:href="#font_1_34" transform="matrix(7.9703395,0,0,-7.9707376,101.33348,76.45984)"/>
<path transform="matrix(1.00003,0,0,-1.00008,5.1135866,45.38835)" stroke-width=".79701" stroke-linecap="butt" stroke-miterlimit="10" stroke-linejoin="miter" fill="none" stroke="#000000" d="M3.09413-.88403 92.41951-26.40579"/>
<path transform="matrix(1.00003,0,0,-1.00008,5.1135866,45.38835)" stroke-width=".79701" stroke-linecap="butt" stroke-miterlimit="10" stroke-linejoin="miter" fill="none" stroke="#000000" d="M207.67769-34.0162C207.67769-28.90704 203.53601-24.76537 198.42685-24.76537 193.3177-24.76537 189.17603-28.90704 189.17603-34.0162 189.17603-39.12535 193.3177-43.26703 198.42685-43.26703 203.53601-43.26703 207.67769-39.12535 207.67769-34.0162ZM198.42685-34.0162"/>
<use data-text="B" xlink:href="#font_1_34" transform="matrix(7.9703395,0,0,-7.9707376,197.55237,82.12929)"/>
<use data-text="B" xlink:href="#font_1_34" transform="matrix(7.9703395,0,0,-7.9707376,203.54607,82.12929)"/>
<path transform="matrix(1.00003,0,0,-1.00008,5.1135866,45.38835)" stroke-width=".79701" stroke-linecap="butt" stroke-miterlimit="10" stroke-linejoin="miter" fill="none" stroke="#000000" d="M106.26912-28.75021 188.99279-33.47769"/>
<use data-text="1" xlink:href="#font_2_1" transform="matrix(4.9814498,0,0,-4.9816987,151.05399,82.10629)"/>
<path transform="matrix(1.00003,0,0,-1.00008,63.742357,55.390153)" stroke-width=".3387" stroke-linecap="butt" stroke-miterlimit="10" stroke-linejoin="miter" fill="none" stroke="#000000" d="M87.309-27.648H90.699"/>
<use data-text="4" xlink:href="#font_2_4" transform="matrix(4.9814498,0,0,-4.9816987,151.05399,87.18469)"/>
<path transform="matrix(1.00003,0,0,-1.00008,5.1135866,45.38835)" stroke-width=".79701" stroke-linecap="butt" stroke-miterlimit="10" stroke-linejoin="miter" fill="none" stroke="#000000" d="M207.81609-22.67743C207.81609-17.49184 203.61244-13.2882 198.42685-13.2882 193.24126-13.2882 189.03763-17.49184 189.03763-22.67743 189.03763-27.86302 193.24126-32.06665 198.42685-32.06665 203.61244-32.06665 207.81609-27.86302 207.81609-22.67743ZM198.42685-22.67743"/>
<use data-text="B" xlink:href="#font_1_34" transform="matrix(7.9703395,0,0,-7.9707376,197.43337,70.706378)"/>
<use data-text="R" xlink:href="#font_1_95" transform="matrix(7.9703395,0,0,-7.9707376,203.42707,70.706378)"/>
<path transform="matrix(1.00003,0,0,-1.00008,5.1135866,45.38835)" stroke-width=".79701" stroke-linecap="butt" stroke-miterlimit="10" stroke-linejoin="miter" fill="none" stroke="#000000" d="M106.26912-27.94348 188.85463-23.22375"/>
<use data-text="3" xlink:href="#font_2_3" transform="matrix(4.9814498,0,0,-4.9816987,150.98499,63.5038)"/>
<path transform="matrix(1.00003,0,0,-1.00008,63.673357,36.787664)" stroke-width=".3387" stroke-linecap="butt" stroke-miterlimit="10" stroke-linejoin="miter" fill="none" stroke="#000000" d="M87.309-27.648H90.699"/>
<use data-text="4" xlink:href="#font_2_4" transform="matrix(4.9814498,0,0,-4.9816987,150.98499,68.58221)"/>
<use data-text="2" xlink:href="#font_2_2" transform="matrix(4.9814498,0,0,-4.9816987,51.17697,64.635898)"/>
<path transform="matrix(1.00003,0,0,-1.00008,-36.13465,37.919755)" stroke-width=".3387" stroke-linecap="butt" stroke-miterlimit="10" stroke-linejoin="miter" fill="none" stroke="#000000" d="M87.309-27.648H90.699"/>
<use data-text="5" xlink:href="#font_2_5" transform="matrix(4.9814498,0,0,-4.9816987,51.17697,69.714298)"/>
<path transform="matrix(1.00003,0,0,-1.00008,5.1135866,45.38835)" stroke-width=".3985" stroke-linecap="butt" stroke-miterlimit="10" stroke-linejoin="miter" fill="none" stroke="#000000" d="M106.2073 28.34697C106.2073 32.20963 103.07608 35.34085 99.21342 35.34085 95.35077 35.34085 92.21954 32.20963 92.21954 28.34697 92.21954 24.48431 95.35077 21.35309 99.21342 21.35309 103.07608 21.35309 106.2073 24.48431 106.2073 28.34697ZM99.21342 28.34697"/>
<use data-text="R" xlink:href="#font_1_95" transform="matrix(7.9703395,0,0,-7.9707376,101.21347,19.677296)"/>
<path transform="matrix(1.00003,0,0,-1.00008,5.1135866,45.38835)" stroke-width=".79701" stroke-linecap="butt" stroke-miterlimit="10" stroke-linejoin="miter" fill="none" stroke="#000000" d="M3.09413 .88403 92.29744 26.37106"/>
<path transform="matrix(1.00003,0,0,-1.00008,5.1135866,45.38835)" stroke-width=".79701" stroke-linecap="butt" stroke-miterlimit="10" stroke-linejoin="miter" fill="none" stroke="#000000" d="M207.95473 22.67763C207.95473 27.9398 203.68903 32.2055 198.42685 32.2055 193.16469 32.2055 188.89899 27.9398 188.89899 22.67763 188.89899 17.41547 193.16469 13.14977 198.42685 13.14977 203.68903 13.14977 207.95473 17.41547 207.95473 22.67763ZM198.42685 22.67763"/>
<use data-text="R" xlink:href="#font_1_95" transform="matrix(7.9703395,0,0,-7.9707376,197.31336,25.34775)"/>
<use data-text="R" xlink:href="#font_1_95" transform="matrix(7.9703395,0,0,-7.9707376,203.54618,25.34775)"/>
<path transform="matrix(1.00003,0,0,-1.00008,5.1135866,45.38835)" stroke-width=".79701" stroke-linecap="butt" stroke-miterlimit="10" stroke-linejoin="miter" fill="none" stroke="#000000" d="M106.39587 27.9364 188.71622 23.23195"/>
<use data-text="2" xlink:href="#font_2_2" transform="matrix(4.9814498,0,0,-4.9816987,150.97898,25.402752)"/>
<path transform="matrix(1.00003,0,0,-1.00008,63.667345,-1.313385)" stroke-width=".3387" stroke-linecap="butt" stroke-miterlimit="10" stroke-linejoin="miter" fill="none" stroke="#000000" d="M87.309-27.648H90.699"/>
<use data-text="4" xlink:href="#font_2_4" transform="matrix(4.9814498,0,0,-4.9816987,150.97898,30.481158)"/>
<path transform="matrix(1.00003,0,0,-1.00008,5.1135866,45.38835)" stroke-width=".79701" stroke-linecap="butt" stroke-miterlimit="10" stroke-linejoin="miter" fill="none" stroke="#000000" d="M207.81609 34.0164C207.81609 39.202 203.61244 43.40564 198.42685 43.40564 193.24126 43.40564 189.03763 39.202 189.03763 34.0164 189.03763 28.83081 193.24126 24.62718 198.42685 24.62718 203.61244 24.62718 207.81609 28.83081 207.81609 34.0164ZM198.42685 34.0164"/>
<use data-text="B" xlink:href="#font_1_34" transform="matrix(7.9703395,0,0,-7.9707376,197.43337,14.007841)"/>
<use data-text="R" xlink:href="#font_1_95" transform="matrix(7.9703395,0,0,-7.9707376,203.42707,14.007841)"/>
<path transform="matrix(1.00003,0,0,-1.00008,5.1135866,45.38835)" stroke-width=".79701" stroke-linecap="butt" stroke-miterlimit="10" stroke-linejoin="miter" fill="none" stroke="#000000" d="M106.39587 28.75754 188.85463 33.47"/>
<use data-text="2" xlink:href="#font_2_2" transform="matrix(4.9814498,0,0,-4.9816987,151.04898,6.802265)"/>
<path transform="matrix(1.00003,0,0,-1.00008,63.73735,-19.913872)" stroke-width=".3387" stroke-linecap="butt" stroke-miterlimit="10" stroke-linejoin="miter" fill="none" stroke="#000000" d="M87.309-27.648H90.699"/>
<use data-text="4" xlink:href="#font_2_4" transform="matrix(4.9814498,0,0,-4.9816987,151.04898,11.880671)"/>
<use data-text="3" xlink:href="#font_2_3" transform="matrix(4.9814498,0,0,-4.9816987,51.11597,24.289664)"/>
<path transform="matrix(1.00003,0,0,-1.00008,-36.195653,-2.4264737)" stroke-width=".3387" stroke-linecap="butt" stroke-miterlimit="10" stroke-linejoin="miter" fill="none" stroke="#000000" d="M87.309-27.648H90.699"/>
<use data-text="5" xlink:href="#font_2_5" transform="matrix(4.9814498,0,0,-4.9816987,51.11597,29.368069)"/>
</svg>
