<svg xmlns="http://www.w3.org/2000/svg" xmlns:xlink="http://www.w3.org/1999/xlink" xmlns:inkscape="http://www.inkscape.org/namespaces/inkscape" version="1.1" width="394" height="202" viewBox="0 0 394 202">
<defs>
<path id="font_1_82" d="M.4189911 0V.0309906H.3869934C.29699708 .0309906 .2939911 .041992189 .2939911 .07902527V.64012148C.2939911 .6640167 .2939911 .6660156 .2709961 .6660156 .20899964 .60227969 .12098694 .60227969 .08898926 .60227969V.57128909C.10899353 .57128909 .16799927 .57128909 .21998596 .5972748V.07902527C.21998596 .042999269 .21699524 .0309906 .1269989 .0309906H.09498596V0C.12998963 .0029907227 .21699524 .0029907227 .25698854 .0029907227 .29699708 .0029907227 .38398744 .0029907227 .4189911 0Z"/>
<path id="font_1_121" d="M.45999146 .31976319C.45999146 .39982606 .45498658 .47988893 .41999818 .5539398 .37399293 .65000918 .2919922 .6660156 .25 .6660156 .18998719 .6660156 .116989139 .64001467 .07598877 .54693606 .04399109 .47789 .038986207 .39982606 .038986207 .31976319 .038986207 .24472046 .042999269 .15464783 .083999637 .07859802 .1269989-.0024719239 .19999695-.022460938 .24899292-.022460938 .30299378-.022460938 .3789978-.0014648438 .4229889 .09359741 .45498658 .16265869 .45999146 .2407074 .45999146 .31976319M.3769989 .3317871C.3769989 .25672914 .3769989 .18867493 .3659973 .12461853 .35099793 .029556275 .2939911-.00047302247 .24899292-.00047302247 .20999146-.00047302247 .15098572 .024551392 .1329956 .12062073 .12199402 .18066406 .12199402 .2727356 .12199402 .3317871 .12199402 .39582826 .12199402 .46188355 .12998963 .5159149 .14898682 .63500979 .22399903 .64401248 .24899292 .64401248 .28199769 .64401248 .34799195 .6259918 .36698915 .52693179 .3769989 .47088624 .3769989 .39482118 .3769989 .3317871Z"/>
<path id="font_1_56" d="M.44898988 .20091248C.44898988 .31991578 .36698915 .41992188 .25898744 .41992188 .21099854 .41992188 .16799927 .4039154 .13198853 .36891175V.5641022C.1519928 .55778506 .18499756 .55078127 .21699524 .55078127 .33999635 .55078127 .4099884 .6418457 .4099884 .65493777 .4099884 .6609802 .40699769 .6660156 .3999939 .6660156 .3999939 .66607668 .39698792 .66607668 .3919983 .66308596 .37199403 .65408328 .32299806 .63378909 .2559967 .63378909 .21598816 .63409426 .16999817 .641098 .12298584 .6621094 .114990238 .6651001 .11099243 .6651001 .11099243 .6651001 .100997928 .66508486 .100997928 .657074 .100997928 .64108279V.3447113C.100997928 .3266449 .100997928 .31861878 .114990238 .31861878 .12199402 .31861878 .12399292 .32164 .12799073 .32765199 .13899231 .34371949 .17599488 .3979187 .25698854 .3979187 .30899049 .3979187 .33399964 .3517456 .34199525 .3336792 .35798646 .2965393 .3600006 .2574005 .3600006 .20721436 .3600006 .17218018 .3600006 .112197879 .33599855 .07032776 .31199647 .031448366 .2749939 .0055389406 .22898865 .0055389406 .1559906 .0055389406 .09899902 .05836487 .08198547 .1171875 .084991458 .11685181 .08799744 .115859989 .09899902 .115859989 .13198853 .115859989 .14898682 .14085388 .14898682 .16485596 .14898682 .18885803 .13198853 .21386719 .09899902 .21386719 .084991458 .21386719 .049987794 .2068634 .049987794 .16085816 .049987794 .07432556 .11898804-.022460938 .23098755-.022460938 .34700013-.022460938 .44898988 .07331848 .44898988 .20019531V.20091248Z"/>
<path id="font_1_107" d="M.44898988 .17396546H.42399598C.4189911 .14398194 .4119873 .099990848 .4019928 .084991458 .394989 .07699585 .32899476 .07699585 .30699159 .07699585H.1269989L.23298645 .17996216C.3889923 .31803895 .44898988 .37210084 .44898988 .47216798 .44898988 .5860901 .35899354 .6660156 .23699951 .6660156 .12399292 .6660156 .049987794 .57411196 .049987794 .48516847 .049987794 .4291687 .099990848 .4291687 .102996829 .4291687 .11999512 .4291687 .15499878 .44117738 .15499878 .48217774 .15499878 .5081787 .13699341 .5341797 .101989749 .5341797 .09399414 .5341797 .09199524 .5341797 .08898926 .5331726 .11199951 .59806826 .1659851 .63500979 .22399903 .63500979 .31498719 .63500979 .35798646 .5541382 .35798646 .47216798 .35798646 .39196778 .30799867 .31297303 .25299073 .25097657L.06098938 .036987306C.049987794 .025985718 .049987794 .023986817 .049987794 0H.42099L.44898988 .17396546Z"/>
<path id="font_1_106" d="M.45700074 .17037964C.45700074 .252594 .3939972 .33088685 .2899933 .35191346 .37199403 .37893678 .42999269 .4490509 .42999269 .52809146 .42999269 .6100464 .34199525 .6660156 .24598694 .6660156 .14498902 .6660156 .068984989 .60606387 .068984989 .53009036 .068984989 .49710084 .09098816 .47808839 .11999512 .47808839 .15098572 .47808839 .17098999 .50009158 .17098999 .5290985 .17098999 .57910159 .12399292 .57910159 .10899353 .57910159 .13999939 .62802127 .20599365 .64100649 .24198914 .64100649 .2829895 .64100649 .33799745 .6190338 .33799745 .5290985 .33799745 .51708987 .33599855 .45906068 .30999757 .4149933 .27999879 .36691285 .24598694 .36390687 .22099304 .36291505 .21299744 .36190797 .18899536 .35990907 .18199158 .35990907 .17399597 .35890199 .16699219 .35791017 .16699219 .3479004 .16699219 .33691407 .17399597 .33691407 .19099427 .33691407H.23498535C.31698609 .33691407 .35398866 .2686615 .35398866 .17037964 .35398866 .034469606 .2849884 .0055389406 .24099732 .0055389406 .19799805 .0055389406 .12298584 .022491456 .08799744 .08137512 .12298584 .07637024 .1539917 .09837341 .1539917 .1363678 .1539917 .17237854 .1269989 .19238281 .09799194 .19238281 .07398987 .19238281 .041992189 .17837525 .041992189 .1343689 .041992189 .043441774 .1349945-.022460938 .24398804-.022460938 .3659973-.022460938 .45700074 .06838989 .45700074 .17037964Z"/>
<path id="font_1_57" d="M.47099305 .16503906V.19602967H.37098695V.6507721C.37098695 .6707611 .37098695 .6767578 .35499574 .6767578 .34599305 .6767578 .34298707 .6767578 .33499146 .6647644L.027999878 .19602967V.16503906H.2939911V.07800293C.2939911 .041992189 .2919922 .0309906 .21798706 .0309906H.19699097V0C.23799134 .0029907227 .2899933 .0029907227 .33198548 .0029907227 .37399293 .0029907227 .4269867 .0029907227 .46798707 0V.0309906H.44699098C.37298585 .0309906 .37098695 .041992189 .37098695 .07800293V.16503906H.47099305M.2999878 .19602967H.055999757L.2999878 .56881716V.19602967Z"/>
<path id="font_2_121" d="M.47299195 .31976319C.47299195 .38682557 .46998597 .47288514 .43499757 .5479431 .3909912 .64201357 .31498719 .6660156 .25698854 .6660156 .19699097 .6660156 .12098694 .64201357 .07699585 .5459442 .04499817 .47688294 .039993287 .39582826 .039993287 .31976319 .039993287 .25471498 .041992189 .15765381 .084991458 .07858276 .13198853-.0064697267 .20999146-.022460938 .2559967-.022460938 .32099916-.022460938 .394989 .0055389406 .43699647 .097595218 .46699525 .1646576 .47299195 .23971558 .47299195 .31976319M.3869934 .33177186C.3869934 .2697296 .3869934 .18566895 .3769989 .12661743 .35598756 .012542725 .28199769 .002532959 .25698854 .002532959 .22698975 .002532959 .15499878 .016540528 .13598633 .12962342 .12599182 .18867493 .12599182 .2747345 .12599182 .33177186 .12599182 .39982606 .12599182 .47888185 .13798523 .53393557 .1579895 .6230011 .22200012 .64100649 .2559967 .64100649 .2939911 .64100649 .35699464 .62098696 .37599183 .5279236 .3869934 .47288514 .3869934 .39482118 .3869934 .33177186Z"/>
<path id="font_2_88" d="M.19599915 .053985597C.19599915 .08299255 .17199707 .10798645 .14199829 .10798645 .11199951 .10798645 .08799744 .08299255 .08799744 .053985597 .08799744 .023986817 .11199951 0 .14199829 0 .17199707 0 .19599915 .023986817 .19599915 .053985597Z"/>
<path id="font_2_107" d="M.46199037 .17704773H.43399049C.43199159 .16404724 .42399598 .10501099 .41099549 .08900452 .40499879 .07998657 .33599855 .07998657 .31599427 .07998657H.13798523L.23699951 .17404175C.40098573 .3161316 .46199037 .36915589 .46199037 .4711914 .46199037 .5860901 .36698915 .6660156 .24398804 .6660156 .1289978 .6660156 .050994874 .575119 .050994874 .4841919 .050994874 .43418885 .09399414 .42919923 .102996829 .42919923 .125 .42919923 .15499878 .44519044 .15499878 .48120118 .15499878 .51119998 .13398743 .5332031 .102996829 .5332031 .09799194 .5332031 .09498596 .5332031 .09098816 .53219607 .114990238 .6030731 .1789856 .63500979 .23298645 .63500979 .33499146 .63500979 .36999513 .5401764 .36999513 .4711914 .36999513 .36915589 .29299928 .28611756 .24499512 .23408509L.06199646 .035995485C.050994874 .024993897 .050994874 .022994996 .050994874 0H.43399049L.46199037 .17704773Z"/>
<path id="font_2_57" d="M.48399354 .16503906V.19602967H.38198854V.649765C.38198854 .669754 .38198854 .6767578 .36299134 .6767578 .35099793 .6767578 .34999085 .67575076 .34098817 .6617584L.0289917 .19602967V.16503906H.3019867V.07901001C.3019867 .041992189 .29899598 .0309906 .22399903 .0309906H.20199585V0C.2649994 .0029907227 .33499146 .0029907227 .34199525 .0029907227 .34700013 .0029907227 .4189911 .0029907227 .48199464 0V.0309906H.45999146C.3849945 .0309906 .38198854 .041992189 .38198854 .07901001V.16503906H.48399354M.30799867 .19602967H.06098938L.30799867 .56581118V.19602967Z"/>
<path id="font_2_101" d="M.46998597 .20277405C.46998597 .32977296 .37799073 .42578126 .2649994 .42578126 .20498657 .42578126 .1619873 .3907776 .13398743 .33078004 .13398743 .43276979 .14498902 .4897766 .17199707 .54177859 .19198609 .58277896 .24099732 .64100649 .31498719 .64100649 .33499146 .64100649 .3809967 .63697817 .4039917 .6007843 .36698915 .6007843 .35099793 .5817871 .35099793 .55477908 .35099793 .5287781 .36898805 .50878909 .39698792 .50878909 .4249878 .50878909 .44400025 .5267792 .44400025 .55677798 .44400025 .61299136 .4039917 .6660156 .31298829 .6660156 .18399048 .6660156 .042999269 .5389252 .042999269 .31576539 .042999269 .044555665 .16499329-.022460938 .25898744-.022460938 .36999513-.022460938 .46998597 .07052612 .46998597 .2025299V.20277405M.3789978 .20353699C.3789978 .15553284 .3789978 .106536868 .3600006 .0695343 .32899476 .012527466 .2849884 .0055389406 .2579956 .0055389406 .20098877 .0055389406 .16799927 .05253601 .1559906 .08152771 .13699341 .12652588 .13598633 .20953369 .13598633 .2255249 .13598633 .2927704 .16699219 .4007721 .2630005 .4007721 .2789917 .4007721 .32798768 .4007721 .3600006 .33877564 .3789978 .300766 .3789978 .25177003 .3789978 .20376587V.20353699Z"/>
<path id="font_2_51" d="M.46998597 .16764832C.46998597 .26472474 .3959961 .3127594 .37098695 .32876588 .3600006 .33677674 .33099366 .35479737 .31900025 .36180116 .36898805 .38581849 .44198609 .43585206 .44198609 .51690676 .44198609 .6109772 .34799195 .6660156 .2579956 .6660156 .15299988 .6660156 .070999149 .5909729 .070999149 .49890138 .070999149 .46087647 .084991458 .42485047 .10899353 .39582826 .12599182 .3768158 .13198853 .37280274 .18998719 .3357849 .101989749 .29374696 .042999269 .23269654 .042999269 .15063477 .042999269 .044555665 .147995-.022460938 .2559967-.022460938 .37199403-.022460938 .46998597 .059570314 .46998597 .16764832M.3939972 .51690676C.3939972 .44685365 .33399964 .40083314 .2939911 .37780763L.17199707 .45387269C.14199829 .47288514 .11898804 .4998932 .11898804 .53692629 .11898804 .6019745 .18899536 .64100649 .25498963 .64100649 .33198548 .64100649 .3939972 .58695986 .3939972 .51690676M.41600038 .1326294C.41600038 .05357361 .33599855 .0055389406 .25698854 .0055389406 .16999817 .0055389406 .09700012 .06758118 .09700012 .15063477 .09700012 .22268677 .14698792 .28274537 .21699524 .31877137L.34298707 .2407074C.3659973 .22569275 .41600038 .19366455 .41600038 .1326294Z"/>
<path id="font_2_82" d="M.43199159 0V.0309906H.3999939C.30699159 .0309906 .3039856 .042999269 .3039856 .08001709V.63912966C.3039856 .6640167 .30299378 .6660156 .27799989 .6660156 .21598816 .60227969 .12399292 .60227969 .09298706 .60227969V.57128909C.11199951 .57128909 .17298889 .57128909 .22698975 .5972748V.08001709C.22698975 .042999269 .22399903 .0309906 .1309967 .0309906H.09899902V0C.1349945 .0029907227 .22399903 .0029907227 .2649994 .0029907227 .30599977 .0029907227 .3959961 .0029907227 .43199159 0Z"/>
<path id="font_3_97" d="M.57398989 .20323181C.57398989 .31422425 .49299623 .39523316 .4019928 .41423036L.25698854 .4452362C.21699524 .4542389 .16099549 .48823548 .16099549 .5492401 .16099549 .59225466 .18899536 .6542511 .2889862 .6542511 .36898805 .6542511 .46998597 .6202545 .49299623 .48423768 .49699403 .4602356 .49699403 .4582367 .5179901 .4582367 .5419922 .4582367 .5419922 .46324159 .5419922 .48623658V.6692505C.5419922 .68826296 .5419922 .6972656 .5239868 .6972656 .5159912 .6972656 .5149994 .69625857 .5039978 .68626406L.45899964 .6422577C.40098573 .68826296 .33599855 .6972656 .28799439 .6972656 .13598633 .6972656 .06399536 .6012573 .06399536 .49624635 .06399536 .4312439 .09700012 .38523866 .117996219 .36323548 .16699219 .31422425 .20098877 .30723573 .30999757 .28323365 .397995 .2642212 .4149933 .26123048 .43699647 .24023438 .45199586 .22523499 .47698976 .19923401 .47698976 .15324402 .47698976 .10523987 .45098878 .036254884 .34700013 .036254884 .2709961 .036254884 .11898804 .056243898 .11099243 .20523072 .10998535 .22322083 .10998535 .22822571 .08799744 .22822571 .06399536 .22822571 .06399536 .222229 .06399536 .19923401V.01725769C.06399536-.0017547608 .06399536-.0107421879 .08198547-.0107421879 .09098816-.0107421879 .09298706-.008743286 .100997928-.0017547608L.14698792 .04425049C.21299744-.0047454836 .30599977-.0107421879 .34700013-.0107421879 .5119934-.0107421879 .57398989 .102249149 .57398989 .20323181Z"/>
<path id="font_3_28" d="M.5529938 .023986817C.5529938 .04699707 .5399933 .04699707 .5269928 .04699707 .46598817 .04798889 .46598817 .06100464 .46598817 .083999637V.29907228C.46598817 .3881073 .394989 .453125 .24598694 .453125 .18899536 .453125 .066986087 .44911195 .066986087 .36109925 .066986087 .3170929 .101989749 .29808045 .1289978 .29808045 .1599884 .29808045 .19198609 .3190918 .19198609 .36109925 .19198609 .39111329 .17298889 .40811158 .16999817 .41011048 .19799805 .41612245 .22999573 .41711427 .24198914 .41711427 .31698609 .41711427 .35198976 .3751068 .35198976 .29907228V.26506043C.2809906 .2620697 .026992798 .25306703 .026992798 .10801697 .026992798 .012130737 .15098572-.005859375 .21998596-.005859375 .2999878-.005859375 .34700013 .035125734 .36898805 .07713318 .36898805 .04598999 .36898805 0 .47299195 0H.5209961C.54100039 0 .5529938 0 .5529938 .023986817M.35198976 .13899231C.35198976 .043151857 .2599945 .030136109 .23498535 .030136109 .18399048 .030136109 .14399719 .06517029 .14399719 .10922241 .14399719 .21734619 .3019867 .23136902 .35198976 .234375V.13899231Z"/>
<path id="font_3_72" d="M.29299928 0V.04699707H.22399903V.69433596L.04699707 .6855469V.63853457C.10899353 .63853457 .115997318 .63853457 .115997318 .5995636V.04699707H.04699707V0L.16999817 .0029907227 .29299928 0Z"/>
<path id="font_3_96" d="M.44198609 .36819459C.44198609 .42118836 .3880005 .4501953 .33599855 .4501953 .2659912 .4501953 .22599793 .40019227 .20298767 .33718873V.4501953L.036987306 .4423828V.39537049C.09899902 .39537049 .10598755 .39537049 .10598755 .3563385V.04699707H.036987306V0L.16299439 .0029907227C.20098877 .0029907227 .2649994 .0029907227 .30099488 0V.04699707H.21398926V.22218323C.21398926 .29226686 .23899842 .41436769 .33898927 .41436769 .33898927 .41436769 .31999208 .39736939 .31999208 .36834718 .31999208 .32730104 .35198976 .3072815 .3809967 .3072815 .4099884 .3072815 .44198609 .3283081 .44198609 .36834718V.36819459Z"/>
<path id="font_3_118" d="M.5799866 .3973236V.44433595C.55599978 .44232179 .526001 .44132997 .5009918 .44132997L.4099884 .44433595V.3973236C.4099884 .3973236 .45700074 .3973236 .45700074 .3853302L.45199586 .37332154 .33699037 .12713623 .20999146 .3973236H.2639923V.44433595L.13999939 .44132997 .025985718 .44433595V.3973236H.08999634L.2769928 .000045776369 .2539978-.04798889C.23199463-.09602356 .19999695-.1640625 .1289978-.1640625 .114990238-.1640625 .11299133-.16307068 .10499573-.1600647 .11399841-.1560669 .13699341-.14205933 .13699341-.10702515 .13699341-.07400513 .11299133-.049987794 .07899475-.049987794 .050994874-.049987794 .021987915-.069000247 .021987915-.10803223 .021987915-.15907288 .068984989-.20007324 .1289978-.20007324 .20599365-.20007324 .2639923-.13804627 .29100038-.08100891L.5059967 .37631227C.5130005 .39031983 .5159912 .3973236 .5799866 .3973236Z"/>
<path id="font_3_85" d="M.38198854-.23503113C.38198854-.23002625 .3789978-.22503662 .3789978-.22503662 .34999085-.19802857 .2849884-.13702393 .24299622-.009033203 .21699524 .06997681 .20498657 .16197205 .20498657 .24998474 .20498657 .4469757 .2559967 .60398867 .3659973 .7149811 .3809967 .72998049 .38198854 .73098757 .38198854 .73599246 .38198854 .74697878 .37199403 .75 .3639984 .75 .34700013 .75 .30499269 .7129822 .2869873 .6959839 .1309967 .5409851 .10798645 .35697938 .10798645 .25097657 .10798645 .12597656 .14099121 .015975953 .18798828-.06703186 .2539978-.18203736 .34498597-.24902344 .3639984-.24902344 .37199403-.24902344 .38198854-.24603272 .38198854-.23503113Z"/>
<path id="font_3_69" d="M.85198977 0V.04699707H.82299807C.769989 .04699707 .7669983 .050994874 .7549896 .066970828L.4850006 .42070008 .72499087 .62054446C.746994 .63853457 .78900149 .63853457 .81900027 .63853457H.83599856V.6855469C.79599 .6825409 .7389984 .6825409 .73399356 .6825409 .69599917 .6825409 .6239929 .6825409 .58799746 .6855469V.63853457C.6009979 .63853457 .62098696 .63853457 .6459961 .6335449 .6619873 .6295471 .6499939 .63053897 .6589966 .6275482L.2889862 .31878663V.63853457H.39698792V.6855469C.35899354 .6825409 .26098634 .6825409 .21798706 .6825409 .1749878 .6825409 .07699585 .6825409 .038986207 .6855469V.63853457H.14698792V.04699707H.038986207V0C.07699585 .0029907227 .1749878 .0029907227 .21798706 .0029907227 .26098634 .0029907227 .35899354 .0029907227 .39698792 0V.04699707H.2889862V.25683595L.3889923 .33976747 .59498599 .06896973C.59999087 .06297302 .59999087 .06097412 .6029968 .054992677 .58499148 .04699707 .5649872 .04699707 .5299988 .04699707V0C.57099917 .0029907227 .6609955 .0029907227 .70599368 .0029907227 .74598696 .0029907227 .8149872 .0029907227 .85198977 0Z"/>
<path id="font_3_63" d="M.61499026 0V.04699707H.54599V.30613709C.54599 .41119386 .49198915 .4501953 .3919983 .4501953 .29599 .4501953 .24499512 .3921814 .22299195 .3541565H.22200012V.69433596L.04499817 .6855469V.63853457C.10699463 .63853457 .11399841 .63853457 .11399841 .5996704V.04699707H.04499817V0L.17098999 .0029907227 .29699708 0V.04699707H.22799683V.25610353C.22799683 .36515809 .31399537 .41418458 .3769989 .41418458 .41099549 .41418458 .43199159 .39317323 .43199159 .31713868V.04699707H.36299134V0L.4889984 .0029907227 .61499026 0Z"/>
<path id="font_3_86" d="M.33799745 .24998474C.33799745 .37498475 .30499269 .48498536 .2579956 .5679779 .19198609 .6829834 .100997928 .75 .08198547 .75 .07398987 .75 .06399536 .74697878 .06399536 .73599246 .06399536 .73098757 .06399536 .72898867 .08099365 .7129822 .20698548 .5849762 .24099732 .40797425 .24099732 .25097657 .24099732 .053970338 .18998719-.103027347 .07998657-.21403504 .06498718-.22903443 .06399536-.23002625 .06399536-.23503113 .06399536-.24603272 .07398987-.24902344 .08198547-.24902344 .09899902-.24902344 .14099121-.21203614 .15899658-.19502259 .31498719-.040023805 .33799745 .14398194 .33799745 .24998474Z"/>
<path id="font_3_54" d="M.6749878 .4391327 .6439972 .6798096H.038986207V.6328125H.14698792V.04699707H.038986207V0C.07699585 .0029907227 .17799378 .0029907227 .22200012 .0029907227 .2709961 .0029907227 .37998963 .0029907227 .42399598 0V.04699707H.2889862V.31724549H.33898927C.43499757 .31724549 .44400025 .2742157 .44400025 .20013428H.4909973V.48106385H.44400025C.44400025 .4071808 .43598939 .3642578 .33898927 .3642578H.2889862V.6328125H.42900086C.58999636 .6328125 .61299136 .5559387 .6279907 .4391327H.6749878Z"/>
<path id="font_3_50" d="M.49398805 .11706543C.49398805 .13504029 .47499085 .13504029 .46998597 .13504029 .45298768 .13504029 .45098878 .13005066 .44499208 .11405945 .42399598 .066101077 .36698915 .03413391 .3019867 .03413391 .16099549 .03413391 .1599884 .16700745 .1599884 .2179718H.46199037C.48399354 .2179718 .49398805 .2179718 .49398805 .2449646 .49398805 .27598573 .48799134 .34906007 .43798829 .3991089 .40098573 .43511964 .34799195 .453125 .2789917 .453125 .11898804 .453125 .03199768 .35005189 .03199768 .22497559 .03199768 .09107971 .13198853-.005859375 .29299928-.005859375 .45098878-.005859375 .49398805 .10006714 .49398805 .11706543M.39898683 .25097657H.1599884C.1619873 .29000855 .16299439 .3320465 .18399048 .36506654 .20999146 .4051056 .25 .41711427 .2789917 .41711427 .3959961 .41711427 .397995 .28599549 .39898683 .25097657Z"/>
<path id="font_3_91" d="M.6009979-.1934967V-.14648438H.5319977V.4501953H.4909973L.43798829 .3711853C.40299989 .42018128 .34700013 .4501953 .2869873 .4501953 .14099121 .4501953 .037994386 .36117555 .037994386 .22215271 .037994386 .08114624 .13899231-.005859375 .27799989-.005859375 .32699586-.005859375 .37199403 .008132935 .41799928 .04814148V-.14648438H.34899903V-.1934967L.47499085-.19049073 .6009979-.1934967M.42399598 .14215088C.42399598 .12414551 .42399598 .12113953 .40899659 .10014343 .36898805 .041137697 .31799317 .030136109 .28799439 .030136109 .22599793 .030136109 .1659851 .088134769 .1659851 .22116089 .1659851 .36317445 .23999024 .41018678 .2999878 .41018678 .37599183 .41018678 .42399598 .33117677 .42399598 .2811737V.14215088Z"/>
<path id="font_3_109" d="M.61499026 .0001373291V.0471344C.5529938 .0471344 .54599 .0471344 .54599 .086135867V.4501953L.36299134 .44218446V.39518739C.4249878 .39518739 .43199159 .39518739 .43199159 .3561859V.16514588C.43199159 .08314514 .3809967 .030136109 .30799867 .030136109 .23098755 .030136109 .22799683 .055130006 .22799683 .10914612V.4501953L.04499817 .44218446V.39518739C.10699463 .39518739 .11399841 .39518739 .11399841 .3561859V.12313843C.11399841 .01612854 .19499207-.005859375 .2939911-.005859375 .31999208-.005859375 .3919983-.005859375 .43798829 .072143558V-.005859375L.61499026 .0001373291Z"/>
<path id="font_3_77" d="M.61499026 0V.04699707H.54599V.30613709C.54599 .41119386 .49198915 .4501953 .3919983 .4501953 .29599 .4501953 .24299622 .39318849 .21699524 .3421631V.4501953L.04499817 .4423828V.39537049C.10699463 .39537049 .11399841 .39537049 .11399841 .3563385V.04699707H.04499817V0L.17098999 .0029907227 .29699708 0V.04699707H.22799683V.2562256C.22799683 .3653412 .31399537 .41436769 .3769989 .41436769 .41099549 .41436769 .43199159 .39337159 .43199159 .31729127V.04699707H.36299134V0L.4889984 .0029907227 .61499026 0Z"/>
<path id="font_3_43" d="M.47799684 .117126468C.47799684 .13113404 .46398927 .13113404 .45399476 .13113404 .43598939 .13113404 .43499757 .12913513 .42999269 .11613464 .4039917 .053131105 .35598756 .03413391 .30499269 .03413391 .1659851 .03413391 .1659851 .18112183 .1659851 .22712708 .1659851 .28312684 .1659851 .41311646 .29499818 .41311646 .32998658 .41311646 .34700013 .41011048 .3600006 .40711976 .34199525 .39111329 .33999635 .3701172 .33999635 .3611145 .33999635 .3171234 .375 .29811097 .4019928 .29811097 .43299867 .29811097 .46499635 .3191223 .46499635 .3611145 .46499635 .44711305 .34899903 .453125 .29100038 .453125 .11199951 .45314027 .037994386 .33813478 .037994386 .22213745 .037994386 .08912659 .13198853-.005859375 .28599549-.005859375 .44799806-.005859375 .47799684 .11013794 .47799684 .117126468Z"/>
<path id="font_3_46" d="M.81700137 .33676148C.81700137 .55659487 .6669922 .6855469 .46899415 .6855469H.038986207V.63853457H.14698792V.04699707H.038986207V0H.46998597C.6669922 0 .81700137 .12294006 .81700137 .33676148M.66999819 .33776856C.66999819 .22885132 .6579895 .17588806 .6259918 .13092041 .5779877 .06297302 .48999024 .04699707 .42900086 .04699707H.2829895V.63853457H.42900086C.49499513 .63853457 .5779877 .6195526 .6269989 .5496063 .6619873 .49864198 .66999819 .43069459 .66999819 .33776856Z"/>
<path id="font_3_98" d="M.4149933 .14012146C.4149933 .18312073 .394989 .21812439 .3600006 .24612427 .32099916 .27511598 .2889862 .28112794 .21099854 .29412843 .17399597 .30111695 .10899353 .31211854 .10899353 .3591156 .10899353 .42111207 .20199585 .42111207 .22099304 .42111207 .29599 .42111207 .33399964 .39212037 .33898927 .33711244 .33999635 .32211305 .34098817 .3171234 .3619995 .3171234 .38598634 .3171234 .38598634 .32211305 .38598634 .3451233V.42510987C.38598634 .4441223 .38598634 .453125 .36799623 .453125 .3639984 .453125 .3619995 .453125 .32299806 .43411256 .29699708 .44711305 .2619934 .453125 .22200012 .453125 .19198609 .453125 .037994386 .453125 .037994386 .32211305 .037994386 .28211976 .057998659 .25512696 .07798767 .23812866 .117996219 .203125 .1559906 .1971283 .23298645 .18312073 .2689972 .17712403 .34399415 .16412354 .34399415 .10513306 .34399415 .030136109 .2519989 .030136109 .22999573 .030136109 .12399292 .030136109 .09799194 .103134158 .085998538 .14613343 .08099365 .16012573 .07598877 .16012573 .06199646 .16012573 .037994386 .16012573 .037994386 .15412903 .037994386 .13113404V.022140503C.037994386 .0031280518 .037994386-.005859375 .055999757-.005859375 .06298828-.005859375 .06498718-.005859375 .085998538 .009140015L.11199951 .026138306C.1579895-.005859375 .20999146-.005859375 .22999573-.005859375 .26098634-.005859375 .4149933-.005859375 .4149933 .14013672V.14012146Z"/>
<path id="font_3_66" d="M.28599549 0V.04699707H.22399903V.4501953L.049987794 .4423828V.39537049C.10899353 .39537049 .115997318 .39537049 .115997318 .3563385V.04699707H.04699707V0L.16899109 .0029907227 .28599549 0M.23799134 .60728457C.23799134 .6502838 .20298767 .6852875 .1599884 .6852875 .116989139 .6852875 .08198547 .6502838 .08198547 .60728457 .08198547 .5642853 .116989139 .5292969 .1599884 .5292969 .20298767 .5292969 .23799134 .5642853 .23799134 .60728457Z"/>
<path id="font_3_105" d="M.38198854 .124176029V.17721558H.33499146V.12619019C.33499146 .058151246 .30299378 .03413391 .2749939 .03413391 .21699524 .03413391 .21699524 .09817505 .21699524 .1211853V.3973236H.36299134V.44433595H.21699524V.6357422H.16999817C.16899109 .53552249 .11999512 .43632508 .020996094 .43333436V.3973236H.102996829V.123184207C.102996829 .01612854 .18998719-.005859375 .26098634-.005859375 .33699037-.005859375 .38198854 .05114746 .38198854 .124176029Z"/>
<path id="font_4_97" d="M.56199648 .20014954C.56199648 .2942047 .5 .38433839 .3909912 .40937806L.2539978 .4404297C.15499878 .4624176 .1519928 .5343628 .1519928 .5483551 .1519928 .59928897 .18499756 .65823367 .28199769 .65823367 .3789978 .65823367 .46598817 .61128237 .4869995 .48042298 .48999024 .45942689 .48999024 .4584198 .5089874 .4584198 .5299988 .4584198 .5299988 .46142579 .5299988 .48442079V.6722412C.5299988 .6912384 .5299988 .6982422 .5149994 .6982422 .5079956 .6982422 .5049896 .6972351 .49598695 .6872406L.45298768 .6382599C.42799378 .6592407 .37799073 .6982422 .2809906 .6982422 .13798523 .6982422 .06199646 .6082916 .06199646 .4994049 .06199646 .43241883 .09799194 .38534547 .11199951 .37132264 .1639862 .31924439 .19198609 .31323243 .29599 .2902069 .3959961 .26817323 .4079895 .26617433 .42999269 .2451477 .44299317 .23214722 .47200013 .20414734 .47200013 .15318299 .47200013 .11021423 .45098878 .031280519 .33898927 .031280519 .25099183 .031280519 .11199951 .06124878 .10398865 .20713806 .102996829 .22514344 .102996829 .22813416 .08299255 .22813416 .06199646 .22813416 .06199646 .22514344 .06199646 .20214844V.014266968C.06199646-.0047302248 .06199646-.01171875 .07699585-.01171875 .083999637-.01171875 .084991458-.010726929 .09498596-.0017242432 .10598755 .009277344 .114990238 .022277832 .13999939 .04725647 .19799805 .0012664795 .27999879-.01171875 .33999635-.01171875 .49598695-.01171875 .56199648 .09422302 .56199648 .20014954Z"/>
<path id="font_4_28" d="M.54100039 .022140503C.54100039 .043136598 .5319977 .043136598 .5179901 .043136598 .45498658 .044128419 .45498658 .060134889 .45498658 .08312988V.29911805C.45498658 .39111329 .38198854 .453125 .24099732 .453125 .18499756 .453125 .066986087 .44812013 .066986087 .36412049 .066986087 .32211305 .09899902 .30412293 .12599182 .30412293 .1559906 .30412293 .18499756 .32511903 .18499756 .3631134 .18499756 .3821106 .17799378 .40011598 .16099549 .41111756 .19400025 .42012025 .21798706 .42012025 .23699951 .42012025 .30499269 .42012025 .34599305 .3821106 .34599305 .30012513V.26011659C.18798828 .26011659 .0289917 .21612549 .0289917 .10513306 .0289917 .014129639 .14498902-.005859375 .21398926-.005859375 .29100038-.005859375 .33999635 .036132814 .3600006 .0801239 .3600006 .042999269 .3600006 0 .46099855 0H.5119934C.5329895 0 .54100039 0 .54100039 .021987915V.022140503M.34599305 .13899231C.34599305 .04499817 .2619934 .026992798 .22999573 .026992798 .18099976 .026992798 .13999939 .05999756 .13999939 .10598755 .13999939 .19699097 .24798584 .22799683 .34599305 .23298645V.13899231Z"/>
<path id="font_4_72" d="M.28599549 0V.042999269H.21699524V.69433596L.04399109 .6855469V.64253237C.10598755 .64253237 .11299133 .64253237 .11299133 .6035614V.042999269H.04399109V0C.066986087 .0019989014 .13798523 .0019989014 .16499329 .0019989014 .19198609 .0019989014 .2630005 .0019989014 .28599549 0Z"/>
<path id="font_4_96" d="M.4269867 .3711853C.4269867 .42218019 .375 .4501953 .32699586 .4501953 .24798584 .4501953 .21398926 .38119508 .19999695 .33918763H.19898987V.4501953L.034988405 .4423828V.3993683C.09700012 .3993683 .10398865 .3993683 .10398865 .3603363V.042999269H.034988405V0C.057998659 .0019989014 .1329956 .0019989014 .16099549 .0019989014 .18998719 .0019989014 .2709961 .0019989014 .29499818 0V.042999269H.20799256V.22518921C.20799256 .25819398 .21499634 .41719056 .33198548 .41719056 .31799317 .40618897 .31098939 .38919068 .31098939 .3711853 .31098939 .33018495 .34399415 .31318666 .36898805 .31318666 .3939972 .31318666 .4269867 .33018495 .4269867 .3711853Z"/>
<path id="font_4_118" d="M.56900027 .4013214V.44433595C.5349884 .44232179 .5309906 .44232179 .48999024 .44232179L.4039917 .44433595V.4013214C.4039917 .4013214 .45199586 .4013214 .45199586 .38832093 .45199586 .38531495 .44898988 .37931825 .44799806 .37631227L.33099366 .124176029 .20298767 .4013214H.2579956V.44433595C.23399353 .44232179 .1659851 .44232179 .13798523 .44232179 .10899353 .44232179 .049987794 .44232179 .023986817 .44433595V.4013214H.08799744L.272995 .000091552738C.2679901-.0119018559 .2539978-.040924074 .24899292-.05293274 .22799683-.097961429 .19599915-.16699219 .12599182-.16699219 .12199402-.16699219 .10998535-.16699219 .09899902-.16099549 .100997928-.1599884 .1309967-.147995 .1309967-.10997009 .1309967-.07695007 .10699463-.05593872 .07699585-.05593872 .04598999-.05593872 .021987915-.07695007 .021987915-.110961917 .021987915-.1579895 .06599426-.19999695 .12599182-.19999695 .20799256-.19999695 .2619934-.12597656 .28199769-.081954959L.49499513 .37931825C.5009918 .3933258 .5049896 .4013214 .56900027 .4013214Z"/>
<path id="font_4_46" d="M.798996 .33677674C.798996 .56259158 .6469879 .6855469 .45899964 .6855469H.037994386V.64253237H.14399719V.042999269H.037994386V0H.45899964C.651001 0 .798996 .122924808 .798996 .33677674M.6629944 .33776856C.6629944 .22085572 .647995 .16889954 .61299136 .12193298 .5779877 .07597351 .5109863 .042999269 .42099 .042999269H.2709961V.64253237H.42099C.5079956 .64253237 .5779877 .6085663 .61499026 .5566101 .6439972 .51564028 .6629944 .4666748 .6629944 .33776856Z"/>
<path id="font_4_66" d="M.2789917 0V.042999269H.21699524V.4501953L.04699707 .4423828V.3993683C.10598755 .3993683 .11299133 .3993683 .11299133 .3603363V.042999269H.04399109V0C.066986087 .0019989014 .13598633 .0019989014 .16299439 .0019989014 .19099427 .0019989014 .25498963 .0019989014 .2789917 0M.22898865 .6081238C.22898865 .64912417 .19499207 .68013 .15699768 .68013 .115997318 .68013 .083999637 .64712527 .083999637 .6081238 .083999637 .5671234 .117996219 .5361328 .1559906 .5361328 .19699097 .5361328 .22898865 .5691223 .22898865 .6081238Z"/>
<path id="font_4_98" d="M.40499879 .13912964C.40499879 .18711853 .3789978 .22012329 .35899354 .23812866 .31799317 .27212525 .28399659 .27812196 .22999573 .28811646 .1659851 .29911805 .10598755 .31011964 .10598755 .35812379 .10598755 .42311097 .19499207 .42311097 .21598816 .42311097 .32699586 .42311097 .33299256 .3531189 .33499146 .328125 .33599855 .3151245 .34399415 .3151245 .35598756 .3151245 .3769989 .3151245 .3769989 .31811524 .3769989 .34111024V.42712403C.3769989 .44612123 .3769989 .453125 .3619995 .453125 .35598756 .453125 .35398866 .453125 .33898927 .4441223 .33499146 .44111634 .32398988 .43411256 .31900025 .43112184 .29100038 .44711305 .2539978 .453125 .21798706 .453125 .18798828 .453125 .037994386 .453125 .037994386 .32312013 .037994386 .21812439 .1619873 .19612122 .19299317 .19113159 .21998596 .18612671 .25299073 .18013 .25698854 .18013 .29699708 .17112732 .33699037 .14613343 .33699037 .10412598 .33699037 .027130127 .24598694 .027130127 .22499085 .027130127 .17399597 .027130127 .11099243 .043136598 .08299255 .14012146 .07699585 .16012573 .07598877 .16113281 .05899048 .16113281 .037994386 .16113281 .037994386 .15812683 .037994386 .13513184V.020126343C.037994386 .0011291504 .037994386-.005859375 .052993776-.005859375 .05999756-.005859375 .06199646-.005859375 .08198547 .010131836L.10798645 .029129029C.15299988-.005859375 .20698548-.005859375 .22499085-.005859375 .27999879-.005859375 .40499879 .006134033 .40499879 .13912964Z"/>
<path id="font_4_105" d="M.37399293 .124176029V.17721558H.33198548V.1251831C.33198548 .059143068 .3019867 .030136109 .2709961 .030136109 .21099854 .030136109 .21099854 .09716797 .21099854 .12017822V.4013214H.35499574V.44433595H.21099854V.6357422H.16899109C.16799927 .53652957 .11999512 .43733216 .020996094 .43432618V.4013214H.101989749V.123184207C.101989749 .01713562 .18399048-.005859375 .2559967-.005859375 .32998658-.005859375 .37399293 .05014038 .37399293 .124176029Z"/>
<path id="font_4_35" d="M.58599856 .22319031C.58599856 .36018373 .49198915 .4501953 .35499574 .4501953 .29599 .4501953 .24899292 .43118287 .20799256 .39918519V.69433596L.034988405 .6863251V.6433258C.09700012 .6433258 .10398865 .6433258 .10398865 .6042938V.0001373291H.1459961C.16299439 .019134522 .17999268 .038131715 .19599915 .058135988 .24699402 .005126953 .3019867-.005859375 .34199525-.005859375 .47999574-.005859375 .58599856 .07814026 .58599856 .22315979V.22319031M.46598817 .22416687C.46598817 .17915344 .46598817 .12214661 .44198609 .08514404 .41099549 .037139894 .3639984 .027130127 .33198548 .027130127 .2639923 .027130127 .22698975 .07513428 .21299744 .09713745V.35118104C.24798584 .39918519 .2999878 .41719056 .34199525 .41719056 .46598817 .41719056 .46598817 .29019166 .46598817 .22418213V.22416687Z"/>
<path id="font_4_109" d="M.59999087 0V.042999269C.5379944 .042999269 .5309906 .042999269 .5309906 .08201599V.4501953L.35299684 .4423828V.3993683C.4149933 .3993683 .42199708 .3993683 .42199708 .36035157V.16423035C.42199708 .08818054 .3769989 .027130127 .29899598 .027130127 .22399903 .027130127 .21998596 .05215454 .21998596 .10719299V.4501953L.041992189 .4423828V.3993683C.10398865 .3993683 .11099243 .3993683 .11099243 .36035157V.12319946C.11099243 .023132325 .17799378-.005859375 .2849884-.005859375 .30899049-.005859375 .3829956-.005859375 .42599488 .075164798H.4269867V-.005859375L.59999087 0Z"/>
<path id="font_4_81" d="M.5299988 .21913147C.5299988 .35412599 .43798829 .453125 .2809906 .453125 .117996219 .453125 .0309906 .3491211 .0309906 .21913147 .0309906 .088134769 .12298584-.005859375 .27999879-.005859375 .44299317-.005859375 .5299988 .09312439 .5299988 .21913147M.4099884 .22912598C.4099884 .14613343 .4099884 .030136109 .2809906 .030136109 .15098572 .030136109 .15098572 .14712525 .15098572 .22912598 .15098572 .27612306 .15098572 .3261261 .16999817 .36212159 .19198609 .40211488 .23699951 .42012025 .27999879 .42012025 .33699037 .42012025 .37298585 .39311219 .3899994 .3651123 .4099884 .32911683 .4099884 .27713014 .4099884 .22912598Z"/>
<path id="font_4_77" d="M.59999087 0V.042999269H.5309906V.30613709C.5309906 .40118409 .48999024 .4501953 .37998963 .4501953 .30799867 .4501953 .24598694 .41519166 .21199036 .34014894H.21099854V.4501953L.041992189 .4423828V.3993683C.10398865 .3993683 .11099243 .3993683 .11099243 .36035157V.042999269H.041992189V0C.06498718 .0019989014 .13699341 .0019989014 .16499329 .0019989014 .19299317 .0019989014 .2659912 .0019989014 .2889862 0V.042999269H.21998596V.25627137C.21998596 .3643341 .2999878 .41719056 .3639984 .41719056 .40098573 .41719056 .42199708 .3932495 .42199708 .31733705V.042999269H.35299684V0C.37599183 .0019989014 .44799806 .0019989014 .47599793 .0019989014 .5039978 .0019989014 .57699587 .0019989014 .59999087 0Z"/>
<path id="font_4_44" d="M.22799683 .3723297C.22799683 .41333009 .19499207 .44433595 .1559906 .44433595 .116989139 .44433595 .083999637 .41333009 .083999637 .3723297 .083999637 .33132936 .116989139 .3003235 .1559906 .3003235 .19499207 .3003235 .22799683 .33132936 .22799683 .3723297M.22799683 .07199097C.22799683 .11299133 .19499207 .14399719 .1559906 .14399719 .116989139 .14399719 .083999637 .11299133 .083999637 .07199097 .083999637 .0309906 .116989139 0 .1559906 0 .19499207 0 .22799683 .0309906 .22799683 .07199097Z"/>
<path id="font_4_62" d="M.84098818 0V.042999269H.7350006V.64253237H.84098818V.6855469C.81199648 .6835327 .7049866 .6835327 .6689911 .6835327 .6329956 .6835327 .526001 .6835327 .49699403 .6855469V.64253237H.6029968V.3779297H.27598573V.64253237H.38198854V.6855469C.35299684 .6835327 .24598694 .6835327 .20999146 .6835327 .17399597 .6835327 .066986087 .6835327 .037994386 .6855469V.64253237H.14399719V.042999269H.037994386V0C.066986087 .0019989014 .17399597 .0019989014 .20999146 .0019989014 .24598694 .0019989014 .35299684 .0019989014 .38198854 0V.042999269H.27598573V.33491517H.6029968V.042999269H.49699403V0C.526001 .0019989014 .6329956 .0019989014 .6689911 .0019989014 .7049866 .0019989014 .81199648 .0019989014 .84098818 0Z"/>
<path id="font_4_59" d="M.54499819 .40003968C.54499819 .42404176 .5269928 .4560547 .4850006 .4560547 .44198609 .4560547 .40098573 .43504334 .37998963 .41705323 .33898927 .44119264 .2999878 .4501953 .24899292 .4501953 .11099243 .4501953 .055999757 .3731842 .055999757 .30319215 .055999757 .27218629 .06599426 .23118592 .10798645 .19718933 .09098816 .17819214 .07299805 .14318848 .07299805 .10719299 .07299805 .064193729 .09599304 .027191163 .116989139 .011184692 .09298706 .0052490236 .0309906-.01776123 .0309906-.0748291 .0309906-.13391114 .09599304-.20095825 .27999879-.20095825 .44599916-.20095825 .5299988-.14692688 .5299988-.07182312 .5299988 .01625061 .47200013 .04525757 .44699098 .057250978 .39898683 .08125305 .33499146 .08125305 .24699402 .08125305 .22200012 .08125305 .17799378 .08125305 .17298889 .08224487 .12998963 .08924866 .117996219 .12724304 .117996219 .14624024 .117996219 .15423584 .11898804 .16923523 .12998963 .18223572 .17799378 .15625 .23399353 .15625 .24899292 .15625 .3869934 .15625 .44198609 .23320008 .44198609 .30314637 .44198609 .35411073 .41299439 .39007569 .40098573 .4000702 .42999269 .41604615 .45399476 .42004396 .47099305 .42204286 .46798707 .41705323 .46499635 .41305543 .46499635 .4000702 .46499635 .37908937 .47898866 .36009217 .5049896 .36009217 .5309906 .36009217 .54499819 .37908937 .54499819 .4000702V.40003968M.33599855 .30314637C.33599855 .2571869 .33599855 .18824768 .24899292 .18824768 .1619873 .18812561 .1619873 .25715638 .1619873 .30316163 .1619873 .34916688 .1619873 .41818238 .24899292 .41818238 .33599855 .41818238 .33599855 .34916688 .33599855 .30316163V.30314637M.44799806-.075927738C.44799806-.1109314 .41299439-.16894531 .2809906-.16894531 .14898682-.16874695 .11299133-.11274719 .11299133-.07475281 .11299133-.0107421879 .17599488-.0107421879 .19099427-.0107421879H.30499269C.37799073-.0107421879 .44799806-.023742676 .44799806-.07574463V-.075927738Z"/>
<path id="font_4_75" d="M.9129944 0V.042999269H.84399417V.30636598C.84399417 .39823915 .8049927 .4501953 .69299319 .4501953 .59199526 .4501953 .54499819 .38227845 .5289917 .3503723 .5130005 .43518067 .44499208 .4501953 .3809967 .4501953 .2849884 .4501953 .23298645 .38827516 .21199036 .3403778H.21099854V.4501953L.041992189 .4423828V.3993683C.10398865 .3993683 .11099243 .3993683 .11099243 .36035157V.042999269H.041992189V0C.06498718 .0019989014 .13699341 .0019989014 .16499329 .0019989014 .19299317 .0019989014 .2659912 .0019989014 .2889862 0V.042999269H.21998596V.25627137C.21998596 .36532594 .30099488 .41719056 .3639984 .41719056 .40098573 .41719056 .4229889 .3952484 .4229889 .3173828V.042999269H.35398866V0C.3769989 .0019989014 .44898988 .0019989014 .47698976 .0019989014 .5049896 .0019989014 .5779877 .0019989014 .6009979 0V.042999269H.5319977V.25628663C.5319977 .36532594 .61299136 .41719056 .6759949 .41719056 .71299746 .41719056 .7350006 .3952484 .7350006 .3173828V.042999269H.66600039V0C.68899539 .0019989014 .7609863 .0019989014 .78900149 .0019989014 .81700137 .0019989014 .8899994 .0019989014 .9129944 0Z"/>
<path id="font_4_47" d="M.58898928 0V.042999269C.5269928 .042999269 .519989 .042999269 .519989 .08201599V.69433596L.34700013 .6855469V.64253237C.40899659 .64253237 .41600038 .64253237 .41600038 .6036682V.40219117C.3939972 .42118836 .34999085 .4501953 .2809906 .4501953 .13899231 .4501953 .037994386 .36218263 .037994386 .22215271 .037994386 .07914734 .13699341-.005859375 .269989-.005859375 .32499696-.005859375 .37199403 .013137817 .41099549 .046142579V-.005859375L.58898928 0M.41099549 .100997928C.36898805 .040130617 .31799317 .027130127 .28199769 .027130127 .1579895 .027130127 .1579895 .15414429 .1579895 .22015381 .1579895 .26716615 .1579895 .3171692 .17999268 .35517884 .21099854 .4111786 .269989 .41719056 .29299928 .41719056 .33399964 .41719056 .37799073 .39918519 .41099549 .35517884V.100997928Z"/>
<path id="font_4_54" d="M.6589966 .4441223 .6299896 .6806946H.037994386V.6376953H.14399719V.042999269H.037994386V0C.066986087 .0019989014 .18099976 .0019989014 .21798706 .0019989014L.40899659 0V.042999269H.27598573V.31929017H.33099366C.4269867 .31929017 .43499757 .2752533 .43499757 .2021637H.47698976V.47903443H.43499757C.43499757 .40620423 .4269867 .3623047 .33099366 .3623047H.27598573V.6376953H.4189911C.5779877 .6376953 .6029968 .56484988 .61698916 .4441223H.6589966Z"/>
<path id="font_4_50" d="M.48098756 .11706543C.48098756 .13206482 .46598817 .13206482 .45999146 .13206482 .44400025 .13206482 .44299317 .12905884 .43699647 .11607361 .41099549 .051116945 .34498597 .030136109 .29699708 .030136109 .1519928 .030136109 .15098572 .16503906 .15098572 .22099304H.45199586C.47499085 .22099304 .48098756 .22099304 .48098756 .24598694 .48098756 .27601625 .47399903 .35105897 .42799378 .3981018 .38598634 .4401245 .32998658 .453125 .27198792 .453125 .115997318 .453125 .0309906 .35105897 .0309906 .22499085 .0309906 .08509827 .13398743-.005859375 .2849884-.005859375 .43598939-.005859375 .48098756 .1000824 .48098756 .11706543M.3889923 .25H.15098572C.15299988 .29101563 .1539917 .3300476 .1749878 .3660736 .19400025 .3981018 .22898865 .42012025 .27198792 .42012025 .3789978 .42012025 .3880005 .30003358 .3889923 .25Z"/>
<path id="font_4_91" d="M.58898928-.19340515V-.15039063H.519989V.4501953H.48298646L.42999269 .36717225C.394989 .41818238 .34599305 .4501953 .27999879 .4501953 .14199829 .4501953 .037994386 .36418153 .037994386 .22215271 .037994386 .07914734 .13798523-.005859375 .269989-.005859375 .30799867-.005859375 .35899354 .0021362305 .41099549 .051132204V-.15039063H.34199525V-.19340515C.36499024-.19139099 .43699647-.19139099 .46499635-.19139099 .49299623-.19139099 .56599429-.19139099 .58898928-.19340515M.41600038 .119140628C.37399293 .040130617 .31498719 .027130127 .28199769 .027130127 .21798706 .027130127 .1579895 .086135867 .1579895 .22116089 .1579895 .36717225 .23399353 .41418458 .29299928 .41418458 .37098695 .41418458 .41600038 .33317567 .41600038 .2871704V.119140628Z"/>
<path id="font_4_43" d="M.46798707 .117126468C.46798707 .12913513 .45700074 .12913513 .44699098 .12913513 .43099977 .12913513 .42999269 .12812805 .4249878 .11613464 .41799928 .09713745 .3909912 .030136109 .29899598 .030136109 .1579895 .030136109 .1579895 .1821289 .1579895 .22712708 .1579895 .28611756 .15899658 .41711427 .2899933 .41711427 .29699708 .41711427 .35598756 .41511537 .35598756 .41011048 .35598756 .41011048 .35499574 .40811158 .35299684 .40711976 .34999085 .40411378 .33699037 .38911439 .33699037 .36412049 .33699037 .32211305 .37098695 .30511476 .3959961 .30511476 .4169922 .30511476 .45498658 .31811524 .45498658 .3651123 .45498658 .44711305 .33999635 .453125 .28599549 .453125 .10798645 .453125 .037994386 .33711244 .037994386 .22212219 .037994386 .086135867 .1329956-.005859375 .27999879-.005859375 .43699647-.005859375 .46798707 .11012268 .46798707 .117126468Z"/>
<path id="font_4_83" d="M.70599368 .49264527C.70599368 .6005707 .61099246 .6855469 .44599916 .6855469H.037994386V.64253237H.14399719V.042999269H.037994386V0C.066986087 .0019989014 .17399597 .0019989014 .20999146 .0019989014 .24598694 .0019989014 .35299684 .0019989014 .38198854 0V.042999269H.27598573V.3047638H.44599916C.61299136 .3047638 .70599368 .38972474 .70599368 .49264527M.5649872 .49264527C.5649872 .42669679 .5649872 .34277345 .4099884 .34277345H.2709961V.64253237H.4099884C.5649872 .64253237 .5649872 .5606079 .5649872 .49264527Z"/>
</defs>
<path transform="matrix(1.00003,0,0,-1.00003,54.721223,164.74359)" stroke-width=".19925" stroke-linecap="butt" stroke-miterlimit="10" stroke-linejoin="miter" fill="none" stroke="#d9d9d9" d="M0 0H283.4681M0 14.17339H283.4681M0 28.34679H283.4681M0 42.52019H283.4681M0 56.69359H283.4681M0 70.86697H283.4681M0 85.04037H283.4681M0 99.21378H283.4681M0 113.38718H283.4681M0 127.56056H283.4681M0 141.73397H283.4681M0 0V141.73404M14.17339 0V141.73404M28.34679 0V141.73404M42.52019 0V141.73404M56.69359 0V141.73404M70.86697 0V141.73404M85.04037 0V141.73404M99.21378 0V141.73404M113.38718 0V141.73404M127.56056 0V141.73404M141.73397 0V141.73404M155.90737 0V141.73404M170.08077 0V141.73404M184.25415 0V141.73404M198.42755 0V141.73404M212.60095 0V141.73404M226.77436 0V141.73404M240.94776 0V141.73404M255.12114 0V141.73404M269.29454 0V141.73404M283.46794 0V141.73404M283.4681 141.73404"/>
<path transform="matrix(1.00003,0,0,-1.00003,54.721223,164.74359)" stroke-width=".3985" stroke-linecap="butt" stroke-miterlimit="10" stroke-linejoin="miter" fill="none" stroke="#a6a6a6" d="M0 0H283.4681M0 28.3468H283.4681M0 56.69362H283.4681M0 85.04042H283.4681M0 113.38724H283.4681M0 141.72409H283.4681M0 0V141.73404M28.3468 0V141.73404M56.69362 0V141.73404M85.04042 0V141.73404M113.38724 0V141.73404M141.73404 0V141.73404M170.08086 0V141.73404M198.42766 0V141.73404M226.77448 0V141.73404M255.12128 0V141.73404M283.45814 0V141.73404M283.4681 141.73404"/>
<path transform="matrix(1.00003,0,0,-1.00003,54.721223,164.74359)" stroke-width=".79701" stroke-linecap="butt" stroke-miterlimit="10" stroke-linejoin="miter" fill="none" stroke="#000000" d="M0 0H282.76075"/>
<path transform="matrix(1.00003,0,0,-1.00003,337.49046,164.74359)" stroke-width=".6376" stroke-linecap="round" stroke-linejoin="round" fill="none" stroke="#000000" d="M-1.55415 2.0722C-1.42464 1.29512 0 .1295 .38852 0 0-.1295-1.42464-1.29512-1.55415-2.0722"/>
<path transform="matrix(1.00003,0,0,-1.00003,54.721223,164.74359)" stroke-width=".79701" stroke-linecap="butt" stroke-miterlimit="10" stroke-linejoin="miter" fill="none" stroke="#000000" d="M0 0V141.02667"/>
<path transform="matrix(0,-1.00003,-1.00003,-0,54.721223,23.712677)" stroke-width=".6376" stroke-linecap="round" stroke-linejoin="round" fill="none" stroke="#000000" d="M-1.55415 2.0722C-1.42464 1.29512 0 .1295 .38852 0 0-.1295-1.42464-1.29512-1.55415-2.0722"/>
<use data-text="1" xlink:href="#font_1_82" transform="matrix(9.962899,0,0,-9.962899,73.105777,174.8989)"/>
<use data-text="0" xlink:href="#font_1_121" transform="matrix(9.962899,0,0,-9.962899,78.08722,174.8989)"/>
<use data-text="0" xlink:href="#font_1_121" transform="matrix(9.962899,0,0,-9.962899,83.068668,174.8989)"/>
<use data-text="0" xlink:href="#font_1_121" transform="matrix(9.962899,0,0,-9.962899,88.050098,174.8989)"/>
<use data-text="1" xlink:href="#font_1_82" transform="matrix(9.962899,0,0,-9.962899,101.45363,174.8989)"/>
<use data-text="5" xlink:href="#font_1_56" transform="matrix(9.962899,0,0,-9.962899,106.435077,174.8989)"/>
<use data-text="0" xlink:href="#font_1_121" transform="matrix(9.962899,0,0,-9.962899,111.41652,174.8989)"/>
<use data-text="0" xlink:href="#font_1_121" transform="matrix(9.962899,0,0,-9.962899,116.39795,174.8989)"/>
<use data-text="2" xlink:href="#font_1_107" transform="matrix(9.962899,0,0,-9.962899,129.80149,174.8989)"/>
<use data-text="0" xlink:href="#font_1_121" transform="matrix(9.962899,0,0,-9.962899,134.78293,174.8989)"/>
<use data-text="0" xlink:href="#font_1_121" transform="matrix(9.962899,0,0,-9.962899,139.76438,174.8989)"/>
<use data-text="0" xlink:href="#font_1_121" transform="matrix(9.962899,0,0,-9.962899,144.7458,174.8989)"/>
<use data-text="2" xlink:href="#font_1_107" transform="matrix(9.962899,0,0,-9.962899,158.14833,174.8989)"/>
<use data-text="5" xlink:href="#font_1_56" transform="matrix(9.962899,0,0,-9.962899,163.12978,174.8989)"/>
<use data-text="0" xlink:href="#font_1_121" transform="matrix(9.962899,0,0,-9.962899,168.11122,174.8989)"/>
<use data-text="0" xlink:href="#font_1_121" transform="matrix(9.962899,0,0,-9.962899,173.09265,174.8989)"/>
<use data-text="3" xlink:href="#font_1_106" transform="matrix(9.962899,0,0,-9.962899,186.49617,174.8989)"/>
<use data-text="0" xlink:href="#font_1_121" transform="matrix(9.962899,0,0,-9.962899,191.47762,174.8989)"/>
<use data-text="0" xlink:href="#font_1_121" transform="matrix(9.962899,0,0,-9.962899,196.45906,174.8989)"/>
<use data-text="0" xlink:href="#font_1_121" transform="matrix(9.962899,0,0,-9.962899,201.44049,174.8989)"/>
<use data-text="4" xlink:href="#font_1_57" transform="matrix(9.962899,0,0,-9.962899,243.19188,175.0089)"/>
<use data-text="0" xlink:href="#font_1_121" transform="matrix(9.962899,0,0,-9.962899,248.17333,175.0089)"/>
<use data-text="0" xlink:href="#font_1_121" transform="matrix(9.962899,0,0,-9.962899,253.15477,175.0089)"/>
<use data-text="0" xlink:href="#font_1_121" transform="matrix(9.962899,0,0,-9.962899,258.1362,175.0089)"/>
<use data-text="5" xlink:href="#font_1_56" transform="matrix(9.962899,0,0,-9.962899,299.88758,174.8989)"/>
<use data-text="0" xlink:href="#font_1_121" transform="matrix(9.962899,0,0,-9.962899,304.86903,174.8989)"/>
<use data-text="0" xlink:href="#font_1_121" transform="matrix(9.962899,0,0,-9.962899,309.85047,174.8989)"/>
<use data-text="0" xlink:href="#font_1_121" transform="matrix(9.962899,0,0,-9.962899,314.8319,174.8989)"/>
<use data-text="0" xlink:href="#font_2_121" transform="matrix(8.966669,0,0,-8.966669,46.59198,167.63068)"/>
<use data-text="0" xlink:href="#font_2_121" transform="matrix(8.966669,0,0,-8.966669,34.809625,139.27683)"/>
<use data-text="." xlink:href="#font_2_88" transform="matrix(8.966669,0,0,-8.966669,39.418497,139.27683)"/>
<use data-text="0" xlink:href="#font_2_121" transform="matrix(8.966669,0,0,-8.966669,41.982965,139.27683)"/>
<use data-text="2" xlink:href="#font_2_107" transform="matrix(8.966669,0,0,-8.966669,46.591836,139.27683)"/>
<use data-text="0" xlink:href="#font_2_121" transform="matrix(8.966669,0,0,-8.966669,34.809625,110.99397)"/>
<use data-text="." xlink:href="#font_2_88" transform="matrix(8.966669,0,0,-8.966669,39.418497,110.99397)"/>
<use data-text="0" xlink:href="#font_2_121" transform="matrix(8.966669,0,0,-8.966669,41.982965,110.99397)"/>
<use data-text="4" xlink:href="#font_2_57" transform="matrix(8.966669,0,0,-8.966669,46.591836,110.99397)"/>
<use data-text="0" xlink:href="#font_2_121" transform="matrix(8.966669,0,0,-8.966669,34.809625,82.591129)"/>
<use data-text="." xlink:href="#font_2_88" transform="matrix(8.966669,0,0,-8.966669,39.418497,82.591129)"/>
<use data-text="0" xlink:href="#font_2_121" transform="matrix(8.966669,0,0,-8.966669,41.982965,82.591129)"/>
<use data-text="6" xlink:href="#font_2_101" transform="matrix(8.966669,0,0,-8.966669,46.591836,82.591129)"/>
<use data-text="0" xlink:href="#font_2_121" transform="matrix(8.966669,0,0,-8.966669,34.809625,54.237276)"/>
<use data-text="." xlink:href="#font_2_88" transform="matrix(8.966669,0,0,-8.966669,39.418497,54.237276)"/>
<use data-text="0" xlink:href="#font_2_121" transform="matrix(8.966669,0,0,-8.966669,41.982965,54.237276)"/>
<use data-text="8" xlink:href="#font_2_51" transform="matrix(8.966669,0,0,-8.966669,46.591836,54.237276)"/>
<use data-text="0" xlink:href="#font_2_121" transform="matrix(8.966669,0,0,-8.966669,34.809625,25.88443)"/>
<use data-text="." xlink:href="#font_2_88" transform="matrix(8.966669,0,0,-8.966669,39.418497,25.88443)"/>
<use data-text="1" xlink:href="#font_2_82" transform="matrix(8.966669,0,0,-8.966669,41.982965,25.88443)"/>
<use data-text="0" xlink:href="#font_2_121" transform="matrix(8.966669,0,0,-8.966669,46.591836,25.88443)"/>
<path transform="matrix(1.00003,0,0,-1.00003,54.721223,164.74359)" d="M28.3468 0V119.05606H56.69362V0ZM56.69362 119.05606" fill="#6666ff"/>
<path transform="matrix(1.00003,0,0,-1.00003,54.721223,164.74359)" stroke-width=".79701" stroke-linecap="butt" stroke-miterlimit="10" stroke-linejoin="miter" fill="none" stroke="#000000" d="M28.3468 0V119.05606H56.69362V0ZM56.69362 119.05606"/>
<path transform="matrix(1.00003,0,0,-1.00003,54.721223,164.74359)" d="M56.69362 0V99.2242H85.04042V0ZM85.04042 99.2242" fill="#6666ff"/>
<path transform="matrix(1.00003,0,0,-1.00003,54.721223,164.74359)" stroke-width=".79701" stroke-linecap="butt" stroke-miterlimit="10" stroke-linejoin="miter" fill="none" stroke="#000000" d="M56.69362 0V99.2242H85.04042V0ZM85.04042 99.2242"/>
<path transform="matrix(1.00003,0,0,-1.00003,54.721223,164.74359)" d="M85.04042 0V56.6841H113.38724V0ZM113.38724 56.6841" fill="#6666ff"/>
<path transform="matrix(1.00003,0,0,-1.00003,54.721223,164.74359)" stroke-width=".79701" stroke-linecap="butt" stroke-miterlimit="10" stroke-linejoin="miter" fill="none" stroke="#000000" d="M85.04042 0V56.6841H113.38724V0ZM113.38724 56.6841"/>
<path transform="matrix(1.00003,0,0,-1.00003,54.721223,164.74359)" d="M113.38724 0V42.51846H141.73404V0ZM141.73404 42.51846" fill="#6666ff"/>
<path transform="matrix(1.00003,0,0,-1.00003,54.721223,164.74359)" stroke-width=".79701" stroke-linecap="butt" stroke-miterlimit="10" stroke-linejoin="miter" fill="none" stroke="#000000" d="M113.38724 0V42.51846H141.73404V0ZM141.73404 42.51846"/>
<path transform="matrix(1.00003,0,0,-1.00003,54.721223,164.74359)" d="M141.73404 0V25.51971H198.42766V0ZM198.42766 25.51971" fill="#6666ff"/>
<path transform="matrix(1.00003,0,0,-1.00003,54.721223,164.74359)" stroke-width=".79701" stroke-linecap="butt" stroke-miterlimit="10" stroke-linejoin="miter" fill="none" stroke="#000000" d="M141.73404 0V25.51971H198.42766V0ZM198.42766 25.51971"/>
<path transform="matrix(1.00003,0,0,-1.00003,54.721223,164.74359)" d="M198.42766 0V14.1656H255.12128V0ZM255.12128 14.1656" fill="#6666ff"/>
<path transform="matrix(1.00003,0,0,-1.00003,54.721223,164.74359)" stroke-width=".79701" stroke-linecap="butt" stroke-miterlimit="10" stroke-linejoin="miter" fill="none" stroke="#000000" d="M198.42766 0V14.1656H255.12128V0ZM255.12128 14.1656"/>
<path transform="matrix(1.00003,0,0,-1.00003,54.721223,164.74359)" stroke-width=".79701" stroke-linecap="butt" stroke-miterlimit="10" stroke-linejoin="miter" fill="none" stroke="#000000" d="M14.17339 0 42.5202 119.05606 70.867 99.2242 99.21382 56.6841 127.56062 42.51846 170.08086 25.51971 226.77448 14.1656 269.29469 0"/>
<path transform="matrix(1.00003,0,0,-1.00003,54.721223,164.74359)" d="M45.50903 119.05606C45.50903 120.70677 44.17091 122.04489 42.5202 122.04489 40.86949 122.04489 39.53137 120.70677 39.53137 119.05606 39.53137 117.40536 40.86949 116.06723 42.5202 116.06723 44.17091 116.06723 45.50903 117.40536 45.50903 119.05606ZM42.5202 119.05606"/>
<path transform="matrix(1.00003,0,0,-1.00003,54.721223,164.74359)" d="M73.85583 99.2242C73.85583 100.87491 72.51772 102.21303 70.867 102.21303 69.21631 102.21303 67.87817 100.87491 67.87817 99.2242 67.87817 97.5735 69.21631 96.23537 70.867 96.23537 72.51772 96.23537 73.85583 97.5735 73.85583 99.2242ZM70.867 99.2242"/>
<path transform="matrix(1.00003,0,0,-1.00003,54.721223,164.74359)" d="M102.20265 56.6841C102.20265 58.33481 100.86453 59.67293 99.21382 59.67293 97.56311 59.67293 96.22499 58.33481 96.22499 56.6841 96.22499 55.03339 97.56311 53.69527 99.21382 53.69527 100.86453 53.69527 102.20265 55.03339 102.20265 56.6841ZM99.21382 56.6841"/>
<path transform="matrix(1.00003,0,0,-1.00003,54.721223,164.74359)" d="M130.54946 42.51846C130.54946 44.16917 129.21134 45.5073 127.56062 45.5073 125.90993 45.5073 124.5718 44.16917 124.5718 42.51846 124.5718 40.86775 125.90993 39.52963 127.56062 39.52963 129.21134 39.52963 130.54946 40.86775 130.54946 42.51846ZM127.56062 42.51846"/>
<path transform="matrix(1.00003,0,0,-1.00003,54.721223,164.74359)" d="M173.06969 25.51971C173.06969 27.17043 171.73155 28.50854 170.08086 28.50854 168.43015 28.50854 167.09203 27.17043 167.09203 25.51971 167.09203 23.86902 168.43015 22.53088 170.08086 22.53088 171.73155 22.53088 173.06969 23.86902 173.06969 25.51971ZM170.08086 25.51971"/>
<path transform="matrix(1.00003,0,0,-1.00003,54.721223,164.74359)" d="M229.7633 14.1656C229.7633 15.81631 228.42517 17.15443 226.77448 17.15443 225.12377 17.15443 223.78565 15.81631 223.78565 14.1656 223.78565 12.5149 225.12377 11.17677 226.77448 11.17677 228.42517 11.17677 229.7633 12.5149 229.7633 14.1656ZM226.77448 14.1656"/>
<use data-text="S" xlink:href="#font_3_97" transform="matrix(9.962899,0,0,-9.962899,163.51648,198.4136)"/>
<use data-text="a" xlink:href="#font_3_28" transform="matrix(9.962899,0,0,-9.962899,169.88278,198.4136)"/>
<use data-text="l" xlink:href="#font_3_72" transform="matrix(9.962899,0,0,-9.962899,175.45206,198.4136)"/>
<use data-text="a" xlink:href="#font_3_28" transform="matrix(9.962899,0,0,-9.962899,178.63022,198.4136)"/>
<use data-text="r" xlink:href="#font_3_96" transform="matrix(9.962899,0,0,-9.962899,184.19947,198.4136)"/>
<use data-text="y" xlink:href="#font_3_118" transform="matrix(9.962899,0,0,-9.962899,188.92188,198.4136)"/>
<use data-text="(" xlink:href="#font_3_85" transform="matrix(9.962899,0,0,-9.962899,198.78516,198.4136)"/>
<use data-text="K" xlink:href="#font_3_69" transform="matrix(9.962899,0,0,-9.962899,203.23856,198.4136)"/>
<use data-text="S" xlink:href="#font_3_97" transform="matrix(9.962899,0,0,-9.962899,212.21515,198.4136)"/>
<use data-text="h" xlink:href="#font_3_63" transform="matrix(9.962899,0,0,-9.962899,218.58142,198.4136)"/>
<use data-text=")" xlink:href="#font_3_86" transform="matrix(9.962899,0,0,-9.962899,224.94773,198.4136)"/>
<use data-text="F" xlink:href="#font_3_54" transform="matrix(0,-9.962899,-9.962899,-0,28.794449,140.62688)"/>
<use data-text="r" xlink:href="#font_3_96" transform="matrix(0,-9.962899,-9.962899,-0,28.794449,134.36022)"/>
<use data-text="e" xlink:href="#font_3_50" transform="matrix(0,-9.962899,-9.962899,-0,28.794449,129.63779)"/>
<use data-text="q" xlink:href="#font_3_91" transform="matrix(0,-9.962899,-9.962899,-0,28.794449,124.387348)"/>
<use data-text="u" xlink:href="#font_3_109" transform="matrix(0,-9.962899,-9.962899,-0,28.794449,118.33986)"/>
<use data-text="e" xlink:href="#font_3_50" transform="matrix(0,-9.962899,-9.962899,-0,28.794449,111.97357)"/>
<use data-text="n" xlink:href="#font_3_77" transform="matrix(0,-9.962899,-9.962899,-0,28.794449,106.723117)"/>
<use data-text="c" xlink:href="#font_3_43" transform="matrix(0,-9.962899,-9.962899,-0,28.794449,100.35683)"/>
<use data-text="y" xlink:href="#font_3_118" transform="matrix(0,-9.962899,-9.962899,-0,28.794449,95.26578)"/>
<use data-text="D" xlink:href="#font_3_46" transform="matrix(0,-9.962899,-9.962899,-0,28.794449,85.41246)"/>
<use data-text="e" xlink:href="#font_3_50" transform="matrix(0,-9.962899,-9.962899,-0,28.794449,76.62518)"/>
<use data-text="n" xlink:href="#font_3_77" transform="matrix(0,-9.962899,-9.962899,-0,28.794449,71.37474)"/>
<use data-text="s" xlink:href="#font_3_98" transform="matrix(0,-9.962899,-9.962899,-0,28.794449,65.00844)"/>
<use data-text="i" xlink:href="#font_3_66" transform="matrix(0,-9.962899,-9.962899,-0,28.794449,60.485277)"/>
<use data-text="t" xlink:href="#font_3_105" transform="matrix(0,-9.962899,-9.962899,-0,28.794449,57.307115)"/>
<use data-text="y" xlink:href="#font_3_118" transform="matrix(0,-9.962899,-9.962899,-0,28.794449,53.16255)"/>
<use data-text="S" xlink:href="#font_4_97" transform="matrix(14.346631,0,0,-14.346631,.21658325,10.931961)"/>
<use data-text="a" xlink:href="#font_4_28" transform="matrix(14.346631,0,0,-14.346631,9.183228,10.931961)"/>
<use data-text="l" xlink:href="#font_4_72" transform="matrix(14.346631,0,0,-14.346631,17.030823,10.931961)"/>
<use data-text="a" xlink:href="#font_4_28" transform="matrix(14.346631,0,0,-14.346631,21.521317,10.931961)"/>
<use data-text="r" xlink:href="#font_4_96" transform="matrix(14.346631,0,0,-14.346631,29.368912,10.931961)"/>
<use data-text="y" xlink:href="#font_4_118" transform="matrix(14.346631,0,0,-14.346631,35.96837,10.931961)"/>
<use data-text="D" xlink:href="#font_4_46" transform="matrix(14.346631,0,0,-14.346631,49.870256,10.931961)"/>
<use data-text="i" xlink:href="#font_4_66" transform="matrix(14.346631,0,0,-14.346631,62.237047,10.931961)"/>
<use data-text="s" xlink:href="#font_4_98" transform="matrix(14.346631,0,0,-14.346631,66.72754,10.931961)"/>
<use data-text="t" xlink:href="#font_4_105" transform="matrix(14.346631,0,0,-14.346631,73.09746,10.931961)"/>
<use data-text="r" xlink:href="#font_4_96" transform="matrix(14.346631,0,0,-14.346631,79.38127,10.931961)"/>
<use data-text="i" xlink:href="#font_4_66" transform="matrix(14.346631,0,0,-14.346631,85.98073,10.931961)"/>
<use data-text="b" xlink:href="#font_4_35" transform="matrix(14.346631,0,0,-14.346631,90.47122,10.931961)"/>
<use data-text="u" xlink:href="#font_4_109" transform="matrix(14.346631,0,0,-14.346631,99.43785,10.931961)"/>
<use data-text="t" xlink:href="#font_4_105" transform="matrix(14.346631,0,0,-14.346631,108.404499,10.931961)"/>
<use data-text="i" xlink:href="#font_4_66" transform="matrix(14.346631,0,0,-14.346631,114.68831,10.931961)"/>
<use data-text="o" xlink:href="#font_4_81" transform="matrix(14.346631,0,0,-14.346631,119.17882,10.931961)"/>
<use data-text="n" xlink:href="#font_4_77" transform="matrix(14.346631,0,0,-14.346631,127.25597,10.931961)"/>
<use data-text=":" xlink:href="#font_4_44" transform="matrix(14.346631,0,0,-14.346631,136.22258,10.931961)"/>
<use data-text="H" xlink:href="#font_4_62" transform="matrix(14.346631,0,0,-14.346631,147.8864,10.931961)"/>
<use data-text="i" xlink:href="#font_4_66" transform="matrix(14.346631,0,0,-14.346631,160.51143,10.931961)"/>
<use data-text="s" xlink:href="#font_4_98" transform="matrix(14.346631,0,0,-14.346631,165.00194,10.931961)"/>
<use data-text="t" xlink:href="#font_4_105" transform="matrix(14.346631,0,0,-14.346631,171.37184,10.931961)"/>
<use data-text="o" xlink:href="#font_4_81" transform="matrix(14.346631,0,0,-14.346631,177.65566,10.931961)"/>
<use data-text="g" xlink:href="#font_4_59" transform="matrix(14.346631,0,0,-14.346631,185.7328,10.931961)"/>
<use data-text="r" xlink:href="#font_4_96" transform="matrix(14.346631,0,0,-14.346631,193.80995,10.931961)"/>
<use data-text="a" xlink:href="#font_4_28" transform="matrix(14.346631,0,0,-14.346631,200.40941,10.931961)"/>
<use data-text="m" xlink:href="#font_4_75" transform="matrix(14.346631,0,0,-14.346631,208.257,10.931961)"/>
<use data-text="a" xlink:href="#font_4_28" transform="matrix(14.346631,0,0,-14.346631,227.09413,10.931961)"/>
<use data-text="n" xlink:href="#font_4_77" transform="matrix(14.346631,0,0,-14.346631,234.94176,10.931961)"/>
<use data-text="d" xlink:href="#font_4_47" transform="matrix(14.346631,0,0,-14.346631,243.90837,10.931961)"/>
<use data-text="F" xlink:href="#font_4_54" transform="matrix(14.346631,0,0,-14.346631,258.255,10.931961)"/>
<use data-text="r" xlink:href="#font_4_96" transform="matrix(14.346631,0,0,-14.346631,267.06385,10.931961)"/>
<use data-text="e" xlink:href="#font_4_50" transform="matrix(14.346631,0,0,-14.346631,273.66328,10.931961)"/>
<use data-text="q" xlink:href="#font_4_91" transform="matrix(14.346631,0,0,-14.346631,281.02308,10.931961)"/>
<use data-text="u" xlink:href="#font_4_109" transform="matrix(14.346631,0,0,-14.346631,289.54499,10.931961)"/>
<use data-text="e" xlink:href="#font_4_50" transform="matrix(14.346631,0,0,-14.346631,298.5116,10.931961)"/>
<use data-text="n" xlink:href="#font_4_77" transform="matrix(14.346631,0,0,-14.346631,305.8714,10.931961)"/>
<use data-text="c" xlink:href="#font_4_43" transform="matrix(14.346631,0,0,-14.346631,314.83808,10.931961)"/>
<use data-text="y" xlink:href="#font_4_118" transform="matrix(14.346631,0,0,-14.346631,322.01136,10.931961)"/>
<use data-text="P" xlink:href="#font_4_83" transform="matrix(14.346631,0,0,-14.346631,335.89894,10.931961)"/>
<use data-text="o" xlink:href="#font_4_81" transform="matrix(14.346631,0,0,-14.346631,346.50105,10.931961)"/>
<use data-text="l" xlink:href="#font_4_72" transform="matrix(14.346631,0,0,-14.346631,354.5782,10.931961)"/>
<use data-text="y" xlink:href="#font_4_118" transform="matrix(14.346631,0,0,-14.346631,359.06874,10.931961)"/>
<use data-text="g" xlink:href="#font_4_59" transform="matrix(14.346631,0,0,-14.346631,367.59059,10.931961)"/>
<use data-text="o" xlink:href="#font_4_81" transform="matrix(14.346631,0,0,-14.346631,375.66773,10.931961)"/>
<use data-text="n" xlink:href="#font_4_77" transform="matrix(14.346631,0,0,-14.346631,383.74488,10.931961)"/>
</svg>
