<svg xmlns="http://www.w3.org/2000/svg" xmlns:xlink="http://www.w3.org/1999/xlink" xmlns:inkscape="http://www.inkscape.org/namespaces/inkscape" version="1.1" width="125" height="168" viewBox="0 0 125 168">
<defs>
<path id="font_1_62" d="M.7509918 0V.032989503H.72898867C.6519928 .032989503 .6499939 .04399109 .6499939 .08097839V.60165408C.6499939 .63861086 .6519928 .6496124 .72898867 .6496124H.7509918V.6826172L.60398867 .6796112 .45700074 .6826172V.6496124H.47898866C.55599978 .6496124 .55799868 .63861086 .55799868 .60165408V.3718567H.23699951V.60165408C.23699951 .63861086 .23899842 .6496124 .31599427 .6496124H.33799745V.6826172L.19099427 .6796112 .04399109 .6826172V.6496124H.06599426C.14299011 .6496124 .14498902 .63861086 .14498902 .60165408V.08097839C.14498902 .04399109 .14299011 .032989503 .06599426 .032989503H.04399109V0L.19099427 .0029907227 .33799745 0V.032989503H.31599427C.23899842 .032989503 .23699951 .04399109 .23699951 .08097839V.3388672H.55799868V.08097839C.55799868 .04399109 .55599978 .032989503 .47898866 .032989503H.45700074V0L.60398867 .0029907227 .7509918 0Z"/>
<path id="font_1_104" d="M.7279968 .44877626 .70799258 .67578127H.057998659L.037994386 .44877626H.068984989C.08299255 .61776736 .10598755 .6427765 .25898744 .6427765 .27799989 .6427765 .30899049 .6427765 .31698609 .6407776 .33599855 .6367798 .33699037 .6267853 .33699037 .6017914V.081970218C.33699037 .04698181 .33699037 .032989503 .23298645 .032989503H.19499207V0C.23199463 .0029907227 .33999635 .0029907227 .3829956 .0029907227 .42599488 .0029907227 .5339966 .0029907227 .57099917 0V.032989503H.5329895C.42900086 .032989503 .42900086 .04698181 .42900086 .081970218V.6017914C.42900086 .6247864 .42900086 .6367798 .44999696 .6407776 .45899964 .6427765 .48799134 .6427765 .5069885 .6427765 .6599884 .6427765 .68299868 .61776736 .69699099 .44877626H.7279968Z"/>
<path id="font_2_1" d="M.397995 .63591006C.397995 .6660156 .394989 .6660156 .3619995 .6660156 .29100038 .6016083 .17999268 .6016083 .1599884 .6016083H.14299011V.5576172H.1599884C.18299866 .5576172 .24798584 .5606079 .30599977 .58561709V.08596802C.30599977 .054977418 .30599977 .04399109 .19999695 .04399109H.1499939V0C.20498657 .0039978029 .2939911 .0039978029 .35198976 .0039978029 .4099884 .0039978029 .49899293 .0039978029 .55400088 0V.04399109H.5039978C.397995 .04399109 .397995 .054977418 .397995 .08596802V.63591006Z"/>
<path id="font_2_2" d="M.58898928 .19296265H.5469971C.5439911 .17396546 .5339966 .11198425 .5179901 .101989749 .5099945 .09599304 .42599488 .09599304 .41099549 .09599304H.21499634C.2809906 .14497376 .35499574 .20095825 .4149933 .24093628 .5049896 .30291749 .58898928 .36090089 .58898928 .46687318 .58898928 .59495547 .46798707 .6660156 .32499696 .6660156 .18998719 .6660156 .09098816 .58795168 .09098816 .48986817 .09098816 .4378662 .1349945 .42886354 .14898682 .42886354 .17599488 .42886354 .20799256 .4468689 .20799256 .48786927 .20799256 .52386477 .18199158 .543869 .15098572 .546875 .1789856 .59194949 .23699951 .6220093 .3039856 .6220093 .40098573 .6220093 .48199464 .5639038 .48199464 .4658661 .48199464 .3818817 .42399598 .31791688 .34700013 .2529297L.102996829 .04598999C.09298706 .036987306 .09199524 .036987306 .09098816 .02999878V0H.55599978L.58898928 .19296265Z"/>
</defs>
<path transform="matrix(1,0,0,-1.00008,5.112999,83.851428)" stroke-width=".79701" stroke-linecap="butt" stroke-miterlimit="10" stroke-linejoin="miter" fill="none" stroke="#000000" d="M2.81807 0C2.81807 1.55638 1.55638 2.81807 0 2.81807-1.55638 2.81807-2.81807 1.55638-2.81807 0-2.81807-1.55638-1.55638-2.81807 0-2.81807 1.55638-2.81807 2.81807-1.55638 2.81807 0ZM0 0"/>
<path transform="matrix(1,0,0,-1.00008,5.112999,83.851428)" stroke-width=".3985" stroke-linecap="butt" stroke-miterlimit="10" stroke-linejoin="miter" fill="none" stroke="#000000" d="M61.42128-47.62231C61.42128-43.75885 58.2894-40.62697 54.42593-40.62697 50.56247-40.62697 47.43059-43.75885 47.43059-47.62231 47.43059-51.48578 50.56247-54.61766 54.42593-54.61766 58.2894-54.61766 61.42128-51.48578 61.42128-47.62231ZM54.42593-47.62231"/>
<use data-text="H" xlink:href="#font_1_62" transform="matrix(7.9701,0,0,-7.9707376,56.367,134.19947)"/>
<path transform="matrix(1,0,0,-1.00008,5.112999,83.851428)" stroke-width=".79701" stroke-linecap="butt" stroke-miterlimit="10" stroke-linejoin="miter" fill="none" stroke="#000000" d="M2.42961-2.12593 49.0125-42.88577"/>
<path transform="matrix(1,0,0,-1.00008,5.112999,83.851428)" stroke-width=".79701" stroke-linecap="butt" stroke-miterlimit="10" stroke-linejoin="miter" fill="none" stroke="#000000" d="M118.33208-72.56711C118.33208-67.33127 114.0877-63.08691 108.85187-63.08691 103.61604-63.08691 99.37167-67.33127 99.37167-72.56711 99.37167-77.80295 103.61604-82.0473 108.85187-82.0473 114.0877-82.0473 118.33208-77.80295 118.33208-72.56711ZM108.85187-72.56711"/>
<use data-text="H" xlink:href="#font_1_62" transform="matrix(7.9701,0,0,-7.9707376,107.736,159.14646)"/>
<use data-text="T" xlink:href="#font_1_104" transform="matrix(7.9701,0,0,-7.9707376,114.0802,159.14646)"/>
<path transform="matrix(1,0,0,-1.00008,5.112999,83.851428)" stroke-width=".79701" stroke-linecap="butt" stroke-miterlimit="10" stroke-linejoin="miter" fill="none" stroke="#000000" d="M60.97409-50.62804 100.05437-68.53963"/>
<use data-text="1" xlink:href="#font_2_1" transform="matrix(4.9813,0,0,-4.9816987,83.933,149.04163)"/>
<path transform="matrix(1,0,0,-1.00008,-3.3759995,83.85542)" stroke-width=".3387" stroke-linecap="butt" stroke-miterlimit="10" stroke-linejoin="miter" fill="none" stroke="#000000" d="M87.309-66.115H90.699"/>
<use data-text="2" xlink:href="#font_2_2" transform="matrix(4.9813,0,0,-4.9816987,83.933,154.12006)"/>
<path transform="matrix(1,0,0,-1.00008,5.112999,83.851428)" stroke-width=".79701" stroke-linecap="butt" stroke-miterlimit="10" stroke-linejoin="miter" fill="none" stroke="#000000" d="M118.4223-22.67754C118.4223-17.39186 114.13754-13.10709 108.85187-13.10709 103.56621-13.10709 99.28143-17.39186 99.28143-22.67754 99.28143-27.9632 103.56621-32.24797 108.85187-32.24797 114.13754-32.24797 118.4223-27.9632 118.4223-22.67754ZM108.85187-22.67754"/>
<use data-text="H" xlink:href="#font_1_62" transform="matrix(7.9701,0,0,-7.9707376,107.621,109.25246)"/>
<use data-text="H" xlink:href="#font_1_62" transform="matrix(7.9701,0,0,-7.9707376,113.9652,109.25246)"/>
<path transform="matrix(1,0,0,-1.00008,5.112999,83.851428)" stroke-width=".79701" stroke-linecap="butt" stroke-miterlimit="10" stroke-linejoin="miter" fill="none" stroke="#000000" d="M60.97409-44.61655 99.97235-26.74258"/>
<use data-text="1" xlink:href="#font_2_1" transform="matrix(4.9813,0,0,-4.9816987,83.892,112.06468)"/>
<path transform="matrix(1,0,0,-1.00008,-3.4169999,46.87847)" stroke-width=".3387" stroke-linecap="butt" stroke-miterlimit="10" stroke-linejoin="miter" fill="none" stroke="#000000" d="M87.309-66.115H90.699"/>
<use data-text="2" xlink:href="#font_2_2" transform="matrix(4.9813,0,0,-4.9816987,83.892,117.1431)"/>
<use data-text="1" xlink:href="#font_2_1" transform="matrix(4.9813,0,0,-4.9816987,29.139,111.96067)"/>
<path transform="matrix(1,0,0,-1.00008,-58.17,46.77446)" stroke-width=".3387" stroke-linecap="butt" stroke-miterlimit="10" stroke-linejoin="miter" fill="none" stroke="#000000" d="M87.309-66.115H90.699"/>
<use data-text="2" xlink:href="#font_2_2" transform="matrix(4.9813,0,0,-4.9816987,29.139,117.039089)"/>
<path transform="matrix(1,0,0,-1.00008,5.112999,83.851428)" stroke-width=".3985" stroke-linecap="butt" stroke-miterlimit="10" stroke-linejoin="miter" fill="none" stroke="#000000" d="M61.30112 47.62231C61.30112 51.41942 58.22304 54.4975 54.42593 54.4975 50.62883 54.4975 47.55075 51.41942 47.55075 47.62231 47.55075 43.82521 50.62883 40.74713 54.42593 40.74713 58.22304 40.74713 61.30112 43.82521 61.30112 47.62231ZM54.42593 47.62231"/>
<use data-text="T" xlink:href="#font_1_104" transform="matrix(7.9701,0,0,-7.9707376,56.482,38.91983)"/>
<path transform="matrix(1,0,0,-1.00008,5.112999,83.851428)" stroke-width=".79701" stroke-linecap="butt" stroke-miterlimit="10" stroke-linejoin="miter" fill="none" stroke="#000000" d="M2.42961 2.12593 49.1029 42.96487"/>
<path transform="matrix(1,0,0,-1.00008,5.112999,83.851428)" stroke-width=".79701" stroke-linecap="butt" stroke-miterlimit="10" stroke-linejoin="miter" fill="none" stroke="#000000" d="M118.19878 22.67754C118.19878 27.83974 114.01408 32.02443 108.85187 32.02443 103.68967 32.02443 99.50497 27.83974 99.50497 22.67754 99.50497 17.51532 103.68967 13.33063 108.85187 13.33063 114.01408 13.33063 118.19878 17.51532 118.19878 22.67754ZM108.85187 22.67754"/>
<use data-text="T" xlink:href="#font_1_104" transform="matrix(7.9701,0,0,-7.9707376,107.852,63.86583)"/>
<use data-text="T" xlink:href="#font_1_104" transform="matrix(7.9701,0,0,-7.9707376,113.965068,63.86583)"/>
<path transform="matrix(1,0,0,-1.00008,5.112999,83.851428)" stroke-width=".79701" stroke-linecap="butt" stroke-miterlimit="10" stroke-linejoin="miter" fill="none" stroke="#000000" d="M60.8649 44.66661 100.17554 26.64948"/>
<use data-text="1" xlink:href="#font_2_1" transform="matrix(4.9813,0,0,-4.9816987,83.938999,53.793024)"/>
<path transform="matrix(1,0,0,-1.00008,-3.3700028,-11.39319)" stroke-width=".3387" stroke-linecap="butt" stroke-miterlimit="10" stroke-linejoin="miter" fill="none" stroke="#000000" d="M87.309-66.115H90.699"/>
<use data-text="2" xlink:href="#font_2_2" transform="matrix(4.9813,0,0,-4.9816987,83.938999,58.871438)"/>
<path transform="matrix(1,0,0,-1.00008,5.112999,83.851428)" stroke-width=".79701" stroke-linecap="butt" stroke-miterlimit="10" stroke-linejoin="miter" fill="none" stroke="#000000" d="M118.33208 72.56711C118.33208 77.80295 114.0877 82.0473 108.85187 82.0473 103.61604 82.0473 99.37167 77.80295 99.37167 72.56711 99.37167 67.33127 103.61604 63.08691 108.85187 63.08691 114.0877 63.08691 118.33208 67.33127 118.33208 72.56711ZM108.85187 72.56711"/>
<use data-text="T" xlink:href="#font_1_104" transform="matrix(7.9701,0,0,-7.9707376,107.736,14.000839)"/>
<use data-text="H" xlink:href="#font_1_62" transform="matrix(7.9701,0,0,-7.9707376,113.84907,14.000839)"/>
<path transform="matrix(1,0,0,-1.00008,5.112999,83.851428)" stroke-width=".79701" stroke-linecap="butt" stroke-miterlimit="10" stroke-linejoin="miter" fill="none" stroke="#000000" d="M60.8649 50.57797 100.05437 68.53963"/>
<use data-text="1" xlink:href="#font_2_1" transform="matrix(4.9813,0,0,-4.9816987,83.878,16.819062)"/>
<path transform="matrix(1,0,0,-1.00008,-3.4309998,-48.36715)" stroke-width=".3387" stroke-linecap="butt" stroke-miterlimit="10" stroke-linejoin="miter" fill="none" stroke="#000000" d="M87.309-66.115H90.699"/>
<use data-text="2" xlink:href="#font_2_2" transform="matrix(4.9813,0,0,-4.9816987,83.878,21.897477)"/>
<use data-text="1" xlink:href="#font_2_1" transform="matrix(4.9813,0,0,-4.9816987,29.184998,53.835023)"/>
<path transform="matrix(1,0,0,-1.00008,-58.124,-11.351187)" stroke-width=".3387" stroke-linecap="butt" stroke-miterlimit="10" stroke-linejoin="miter" fill="none" stroke="#000000" d="M87.309-66.115H90.699"/>
<use data-text="2" xlink:href="#font_2_2" transform="matrix(4.9813,0,0,-4.9816987,29.184998,58.913438)"/>
</svg>
