<svg xmlns="http://www.w3.org/2000/svg" xmlns:xlink="http://www.w3.org/1999/xlink" xmlns:inkscape="http://www.inkscape.org/namespaces/inkscape" version="1.1" width="263" height="363" viewBox="0 0 263 363">
<defs>
<path id="font_1_46" d="M.81700137 .33676148C.81700137 .55659487 .6669922 .6855469 .46899415 .6855469H.038986207V.63853457H.14698792V.04699707H.038986207V0H.46998597C.6669922 0 .81700137 .12294006 .81700137 .33676148M.66999819 .33776856C.66999819 .22885132 .6579895 .17588806 .6259918 .13092041 .5779877 .06297302 .48999024 .04699707 .42900086 .04699707H.2829895V.63853457H.42900086C.49499513 .63853457 .5779877 .6195526 .6269989 .5496063 .6619873 .49864198 .66999819 .43069459 .66999819 .33776856Z"/>
<path id="font_1_66" d="M.28599549 0V.04699707H.22399903V.4501953L.049987794 .4423828V.39537049C.10899353 .39537049 .115997318 .39537049 .115997318 .3563385V.04699707H.04699707V0L.16899109 .0029907227 .28599549 0M.23799134 .60728457C.23799134 .6502838 .20298767 .6852875 .1599884 .6852875 .116989139 .6852875 .08198547 .6502838 .08198547 .60728457 .08198547 .5642853 .116989139 .5292969 .1599884 .5292969 .20298767 .5292969 .23799134 .5642853 .23799134 .60728457Z"/>
<path id="font_1_98" d="M.4149933 .14012146C.4149933 .18312073 .394989 .21812439 .3600006 .24612427 .32099916 .27511598 .2889862 .28112794 .21099854 .29412843 .17399597 .30111695 .10899353 .31211854 .10899353 .3591156 .10899353 .42111207 .20199585 .42111207 .22099304 .42111207 .29599 .42111207 .33399964 .39212037 .33898927 .33711244 .33999635 .32211305 .34098817 .3171234 .3619995 .3171234 .38598634 .3171234 .38598634 .32211305 .38598634 .3451233V.42510987C.38598634 .4441223 .38598634 .453125 .36799623 .453125 .3639984 .453125 .3619995 .453125 .32299806 .43411256 .29699708 .44711305 .2619934 .453125 .22200012 .453125 .19198609 .453125 .037994386 .453125 .037994386 .32211305 .037994386 .28211976 .057998659 .25512696 .07798767 .23812866 .117996219 .203125 .1559906 .1971283 .23298645 .18312073 .2689972 .17712403 .34399415 .16412354 .34399415 .10513306 .34399415 .030136109 .2519989 .030136109 .22999573 .030136109 .12399292 .030136109 .09799194 .103134158 .085998538 .14613343 .08099365 .16012573 .07598877 .16012573 .06199646 .16012573 .037994386 .16012573 .037994386 .15412903 .037994386 .13113404V.022140503C.037994386 .0031280518 .037994386-.005859375 .055999757-.005859375 .06298828-.005859375 .06498718-.005859375 .085998538 .009140015L.11199951 .026138306C.1579895-.005859375 .20999146-.005859375 .22999573-.005859375 .26098634-.005859375 .4149933-.005859375 .4149933 .14013672V.14012146Z"/>
<path id="font_1_105" d="M.38198854 .124176029V.17721558H.33499146V.12619019C.33499146 .058151246 .30299378 .03413391 .2749939 .03413391 .21699524 .03413391 .21699524 .09817505 .21699524 .1211853V.3973236H.36299134V.44433595H.21699524V.6357422H.16999817C.16899109 .53552249 .11999512 .43632508 .020996094 .43333436V.3973236H.102996829V.123184207C.102996829 .01612854 .18998719-.005859375 .26098634-.005859375 .33699037-.005859375 .38198854 .05114746 .38198854 .124176029Z"/>
<path id="font_1_28" d="M.5529938 .023986817C.5529938 .04699707 .5399933 .04699707 .5269928 .04699707 .46598817 .04798889 .46598817 .06100464 .46598817 .083999637V.29907228C.46598817 .3881073 .394989 .453125 .24598694 .453125 .18899536 .453125 .066986087 .44911195 .066986087 .36109925 .066986087 .3170929 .101989749 .29808045 .1289978 .29808045 .1599884 .29808045 .19198609 .3190918 .19198609 .36109925 .19198609 .39111329 .17298889 .40811158 .16999817 .41011048 .19799805 .41612245 .22999573 .41711427 .24198914 .41711427 .31698609 .41711427 .35198976 .3751068 .35198976 .29907228V.26506043C.2809906 .2620697 .026992798 .25306703 .026992798 .10801697 .026992798 .012130737 .15098572-.005859375 .21998596-.005859375 .2999878-.005859375 .34700013 .035125734 .36898805 .07713318 .36898805 .04598999 .36898805 0 .47299195 0H.5209961C.54100039 0 .5529938 0 .5529938 .023986817M.35198976 .13899231C.35198976 .043151857 .2599945 .030136109 .23498535 .030136109 .18399048 .030136109 .14399719 .06517029 .14399719 .10922241 .14399719 .21734619 .3019867 .23136902 .35198976 .234375V.13899231Z"/>
<path id="font_1_77" d="M.61499026 0V.04699707H.54599V.30613709C.54599 .41119386 .49198915 .4501953 .3919983 .4501953 .29599 .4501953 .24299622 .39318849 .21699524 .3421631V.4501953L.04499817 .4423828V.39537049C.10699463 .39537049 .11399841 .39537049 .11399841 .3563385V.04699707H.04499817V0L.17098999 .0029907227 .29699708 0V.04699707H.22799683V.2562256C.22799683 .3653412 .31399537 .41436769 .3769989 .41436769 .41099549 .41436769 .43199159 .39337159 .43199159 .31729127V.04699707H.36299134V0L.4889984 .0029907227 .61499026 0Z"/>
<path id="font_1_43" d="M.47799684 .117126468C.47799684 .13113404 .46398927 .13113404 .45399476 .13113404 .43598939 .13113404 .43499757 .12913513 .42999269 .11613464 .4039917 .053131105 .35598756 .03413391 .30499269 .03413391 .1659851 .03413391 .1659851 .18112183 .1659851 .22712708 .1659851 .28312684 .1659851 .41311646 .29499818 .41311646 .32998658 .41311646 .34700013 .41011048 .3600006 .40711976 .34199525 .39111329 .33999635 .3701172 .33999635 .3611145 .33999635 .3171234 .375 .29811097 .4019928 .29811097 .43299867 .29811097 .46499635 .3191223 .46499635 .3611145 .46499635 .44711305 .34899903 .453125 .29100038 .453125 .11199951 .45314027 .037994386 .33813478 .037994386 .22213745 .037994386 .08912659 .13198853-.005859375 .28599549-.005859375 .44799806-.005859375 .47799684 .11013794 .47799684 .117126468Z"/>
<path id="font_1_50" d="M.49398805 .11706543C.49398805 .13504029 .47499085 .13504029 .46998597 .13504029 .45298768 .13504029 .45098878 .13005066 .44499208 .11405945 .42399598 .066101077 .36698915 .03413391 .3019867 .03413391 .16099549 .03413391 .1599884 .16700745 .1599884 .2179718H.46199037C.48399354 .2179718 .49398805 .2179718 .49398805 .2449646 .49398805 .27598573 .48799134 .34906007 .43798829 .3991089 .40098573 .43511964 .34799195 .453125 .2789917 .453125 .11898804 .453125 .03199768 .35005189 .03199768 .22497559 .03199768 .09107971 .13198853-.005859375 .29299928-.005859375 .45098878-.005859375 .49398805 .10006714 .49398805 .11706543M.39898683 .25097657H.1599884C.1619873 .29000855 .16299439 .3320465 .18399048 .36506654 .20999146 .4051056 .25 .41711427 .2789917 .41711427 .3959961 .41711427 .397995 .28599549 .39898683 .25097657Z"/>
<path id="font_1_104" d="M.7569885 .43385316 .73599246 .6748047H.06298828L.041992189 .43385316H.08898926C.09799194 .5468292 .10798645 .62779238 .2519989 .62779238H.32899476V.04699707H.17599488V0C.22999573 .0029907227 .34098817 .0029907227 .3999939 .0029907227 .45899964 .0029907227 .56999209 .0029907227 .6239929 0V.04699707H.47099305V.62779238H.5469971C.6899872 .62779238 .69999697 .54782107 .70999148 .43385316H.7569885Z"/>
<path id="font_1_96" d="M.44198609 .36819459C.44198609 .42118836 .3880005 .4501953 .33599855 .4501953 .2659912 .4501953 .22599793 .40019227 .20298767 .33718873V.4501953L.036987306 .4423828V.39537049C.09899902 .39537049 .10598755 .39537049 .10598755 .3563385V.04699707H.036987306V0L.16299439 .0029907227C.20098877 .0029907227 .2649994 .0029907227 .30099488 0V.04699707H.21398926V.22218323C.21398926 .29226686 .23899842 .41436769 .33898927 .41436769 .33898927 .41436769 .31999208 .39736939 .31999208 .36834718 .31999208 .32730104 .35198976 .3072815 .3809967 .3072815 .4099884 .3072815 .44198609 .3283081 .44198609 .36834718V.36819459Z"/>
<path id="font_1_112" d="M.5799866 .3973236V.44433595C.5549927 .44232179 .526001 .44132997 .5009918 .44132997L.4099884 .44433595V.3973236C.42900086 .3973236 .45799256 .39431764 .45799256 .38632203 .45799256 .38632203 .45799256 .38432313 .45298768 .37431336L.33699037 .12416077 .20999146 .3973236H.2639923V.44433595L.13999939 .44132997 .025985718 .44433595V.3973236H.08999634L.2649994 .021102906C.2769928-.00390625 .2899933-.00390625 .30299378-.00390625 .31999208-.00390625 .32998658-.00091552737 .33999635 .020095826L.5059967 .37631227C.5119934 .39031983 .5159912 .3973236 .5799866 .3973236Z"/>
<path id="font_1_72" d="M.29299928 0V.04699707H.22399903V.69433596L.04699707 .6855469V.63853457C.10899353 .63853457 .115997318 .63853457 .115997318 .5995636V.04699707H.04699707V0L.16999817 .0029907227 .29299928 0Z"/>
<path id="font_1_47" d="M.6009979 0V.04699707C.5389862 .04699707 .5319977 .04699707 .5319977 .086013797V.69433596L.35499574 .6855469V.63853457C.4169922 .63853457 .42399598 .63853457 .42399598 .5996704V.40518189C.37399293 .44418336 .32199098 .4501953 .2889862 .4501953 .14299011 .4501953 .037994386 .36218263 .037994386 .22116089 .037994386 .089141849 .12998963-.005859375 .27799989-.005859375 .33898927-.005859375 .3869934 .018127442 .41799928 .043136598V-.005859375L.6009979 0M.41799928 .102996829C.40499879 .08514404 .3639984 .030136109 .28799439 .030136109 .1659851 .030136109 .1659851 .15115357 .1659851 .22116089 .1659851 .26916505 .1659851 .3231659 .19198609 .36218263 .22099304 .40419007 .2679901 .41418458 .29899598 .41418458 .35598756 .41418458 .3959961 .3821869 .41799928 .35317994V.102996829Z"/>
<path id="font_1_85" d="M.38198854-.23503113C.38198854-.23002625 .3789978-.22503662 .3789978-.22503662 .34999085-.19802857 .2849884-.13702393 .24299622-.009033203 .21699524 .06997681 .20498657 .16197205 .20498657 .24998474 .20498657 .4469757 .2559967 .60398867 .3659973 .7149811 .3809967 .72998049 .38198854 .73098757 .38198854 .73599246 .38198854 .74697878 .37199403 .75 .3639984 .75 .34700013 .75 .30499269 .7129822 .2869873 .6959839 .1309967 .5409851 .10798645 .35697938 .10798645 .25097657 .10798645 .12597656 .14099121 .015975953 .18798828-.06703186 .2539978-.18203736 .34498597-.24902344 .3639984-.24902344 .37199403-.24902344 .38198854-.24603272 .38198854-.23503113Z"/>
<path id="font_1_70" d="M.58699038 0V.04699707H.56999209C.5269928 .04699707 .5239868 .050994874 .5109863 .0670166L.34199525 .2782135 .47200013 .37930299C.48599244 .39031983 .49499513 .3973236 .56199648 .3973236V.44433595C.5349884 .44140626 .5099945 .44140626 .48399354 .44140626L.36898805 .44433595V.3973236C.3919983 .3973999 .394989 .39439393 .40299989 .38639833L.21398926 .23739624V.69433596L.036987306 .6855469V.63853457C.09899902 .63853457 .10598755 .63853457 .10598755 .5995636V.04699707H.036987306V0L.15699768 .0029907227 .27799989 0V.04699707H.20899964V.17388916C.23799134 .19688416 .24598694 .2028656 .2659912 .21685791L.36698915 .09095764C.37599183 .07896423 .3919983 .05899048 .3919983 .055984498 .3919983 .04699707 .37399293 .04699707 .36099244 .04699707V0C.3909912 .0019989014 .47799684 .0029907227 .48298646 .0029907227 .5189972 .0029907227 .5529938 .0019989014 .58699038 0Z"/>
<path id="font_1_75" d="M.93499758 0V.04699707H.8659973V.30613709C.8659973 .40919496 .8149872 .4501953 .71199038 .4501953 .62098696 .4501953 .56900027 .40019227 .54299929 .3541565 .522995 .44718934 .43099977 .4501953 .3929901 .4501953 .30599977 .4501953 .24899292 .40518189 .21699524 .3421631V.4501953L.04499817 .4423828V.39537049C.10699463 .39537049 .11399841 .39537049 .11399841 .3563385V.04699707H.04499817V0L.17098999 .0029907227 .29699708 0V.04699707H.22799683V.2562256C.22799683 .3653412 .31498719 .41436769 .3769989 .41436769 .41099549 .41436769 .43299867 .39437867 .43299867 .31729127V.04699707H.3639984V0L.48999024 .0029907227 .6159973 0V.04699707H.5469971V.2562256C.5469971 .3653412 .6339874 .41436769 .69599917 .41436769 .7299957 .41436769 .7519989 .39437867 .7519989 .31729127V.04699707H.68299868V0L.8089905 .0029907227 .93499758 0Z"/>
<path id="font_1_86" d="M.33799745 .24998474C.33799745 .37498475 .30499269 .48498536 .2579956 .5679779 .19198609 .6829834 .100997928 .75 .08198547 .75 .07398987 .75 .06399536 .74697878 .06399536 .73599246 .06399536 .73098757 .06399536 .72898867 .08099365 .7129822 .20698548 .5849762 .24099732 .40797425 .24099732 .25097657 .24099732 .053970338 .18998719-.103027347 .07998657-.21403504 .06498718-.22903443 .06399536-.23002625 .06399536-.23503113 .06399536-.24603272 .07398987-.24902344 .08198547-.24902344 .09899902-.24902344 .14099121-.21203614 .15899658-.19502259 .31498719-.040023805 .33799745 .14398194 .33799745 .24998474Z"/>
<path id="font_1_54" d="M.6749878 .4391327 .6439972 .6798096H.038986207V.6328125H.14698792V.04699707H.038986207V0C.07699585 .0029907227 .17799378 .0029907227 .22200012 .0029907227 .2709961 .0029907227 .37998963 .0029907227 .42399598 0V.04699707H.2889862V.31724549H.33898927C.43499757 .31724549 .44400025 .2742157 .44400025 .20013428H.4909973V.48106385H.44400025C.44400025 .4071808 .43598939 .3642578 .33898927 .3642578H.2889862V.6328125H.42900086C.58999636 .6328125 .61299136 .5559387 .6279907 .4391327H.6749878Z"/>
<path id="font_1_91" d="M.6009979-.1934967V-.14648438H.5319977V.4501953H.4909973L.43798829 .3711853C.40299989 .42018128 .34700013 .4501953 .2869873 .4501953 .14099121 .4501953 .037994386 .36117555 .037994386 .22215271 .037994386 .08114624 .13899231-.005859375 .27799989-.005859375 .32699586-.005859375 .37199403 .008132935 .41799928 .04814148V-.14648438H.34899903V-.1934967L.47499085-.19049073 .6009979-.1934967M.42399598 .14215088C.42399598 .12414551 .42399598 .12113953 .40899659 .10014343 .36898805 .041137697 .31799317 .030136109 .28799439 .030136109 .22599793 .030136109 .1659851 .088134769 .1659851 .22116089 .1659851 .36317445 .23999024 .41018678 .2999878 .41018678 .37599183 .41018678 .42399598 .33117677 .42399598 .2811737V.14215088Z"/>
<path id="font_1_109" d="M.61499026 .0001373291V.0471344C.5529938 .0471344 .54599 .0471344 .54599 .086135867V.4501953L.36299134 .44218446V.39518739C.4249878 .39518739 .43199159 .39518739 .43199159 .3561859V.16514588C.43199159 .08314514 .3809967 .030136109 .30799867 .030136109 .23098755 .030136109 .22799683 .055130006 .22799683 .10914612V.4501953L.04499817 .44218446V.39518739C.10699463 .39518739 .11399841 .39518739 .11399841 .3561859V.12313843C.11399841 .01612854 .19499207-.005859375 .2939911-.005859375 .31999208-.005859375 .3919983-.005859375 .43798829 .072143558V-.005859375L.61499026 .0001373291Z"/>
<path id="font_1_118" d="M.5799866 .3973236V.44433595C.55599978 .44232179 .526001 .44132997 .5009918 .44132997L.4099884 .44433595V.3973236C.4099884 .3973236 .45700074 .3973236 .45700074 .3853302L.45199586 .37332154 .33699037 .12713623 .20999146 .3973236H.2639923V.44433595L.13999939 .44132997 .025985718 .44433595V.3973236H.08999634L.2769928 .000045776369 .2539978-.04798889C.23199463-.09602356 .19999695-.1640625 .1289978-.1640625 .114990238-.1640625 .11299133-.16307068 .10499573-.1600647 .11399841-.1560669 .13699341-.14205933 .13699341-.10702515 .13699341-.07400513 .11299133-.049987794 .07899475-.049987794 .050994874-.049987794 .021987915-.069000247 .021987915-.10803223 .021987915-.15907288 .068984989-.20007324 .1289978-.20007324 .20599365-.20007324 .2639923-.13804627 .29100038-.08100891L.5059967 .37631227C.5130005 .39031983 .5159912 .3973236 .5799866 .3973236Z"/>
<path id="font_1_111" d="M.84199526 .63853457V.6855469L.72898867 .6825409C.68899539 .6825409 .6369934 .6825409 .59799197 .6855469V.63853457C.6069946 .63853457 .6859894 .63853457 .6859894 .62654116 .6859894 .6225586 .68299868 .6175537 .6819916 .614563L.47999574 .16001892 .2669983 .63853457H.36099244V.6855469C.32299806 .6825409 .22698975 .6825409 .18399048 .6825409 .14498902 .6825409 .06098938 .6825409 .025985718 .6855469V.63853457H.117996219L.3939972 .018157959C.4019928 .00016784668 .4059906-.0078125 .43399049-.0078125 .44999696-.0078125 .46299745-.0078125 .47399903 .016159058L.73999026 .6165619C.74598696 .6295471 .75 .63853457 .82299807 .63853457H.84199526Z"/>
<path id="font_1_63" d="M.61499026 0V.04699707H.54599V.30613709C.54599 .41119386 .49198915 .4501953 .3919983 .4501953 .29599 .4501953 .24499512 .3921814 .22299195 .3541565H.22200012V.69433596L.04499817 .6855469V.63853457C.10699463 .63853457 .11399841 .63853457 .11399841 .5996704V.04699707H.04499817V0L.17098999 .0029907227 .29699708 0V.04699707H.22799683V.25610353C.22799683 .36515809 .31399537 .41418458 .3769989 .41418458 .41099549 .41418458 .43199159 .39317323 .43199159 .31713868V.04699707H.36299134V0L.4889984 .0029907227 .61499026 0Z"/>
<path id="font_2_78" d="M.45700074 .32888795C.45700074 .598114 .34199525 .6660156 .25299073 .6660156 .19799805 .6660156 .14898682 .64801028 .10598755 .6031189 .06498718 .5580902 .041992189 .5160217 .041992189 .44091798 .041992189 .3158722 .12998963 .21777344 .24198914 .21777344 .30299378 .21777344 .34399415 .25979615 .36698915 .3178711V.28582765C.36698915 .05178833 .2630005 .0055389406 .20498657 .0055389406 .18798828 .0055389406 .13398743 .007537842 .10699463 .041778566 .15098572 .041778566 .15899658 .07078552 .15899658 .08778381 .15899658 .118774417 .1349945 .13378906 .11299133 .13378906 .09700012 .13378906 .066986087 .12478638 .066986087 .08578491 .066986087 .018615723 .12098694-.022460938 .20599365-.022460938 .33499146-.022460938 .45700074 .11378479 .45700074 .32888795M.36499024 .42089845C.36499024 .33789063 .33099366 .24076844 .24299622 .24076844 .22698975 .2407074 .18099976 .2407074 .1499939 .30371095 .13198853 .34072877 .13198853 .3908081 .13198853 .43988038 .13198853 .49397279 .13198853 .5410614 .15299988 .578125 .17999268 .62805178 .21798706 .64100649 .25299073 .64100649 .29899598 .64100649 .33198548 .60710147 .34899903 .562088 .36099244 .52989199 .36499024 .46688844 .36499024 .42089845Z"/>
<path id="font_2_121" d="M.45999146 .31976319C.45999146 .39982606 .45498658 .47988893 .41999818 .5539398 .37399293 .65000918 .2919922 .6660156 .25 .6660156 .18998719 .6660156 .116989139 .64001467 .07598877 .54693606 .04399109 .47789 .038986207 .39982606 .038986207 .31976319 .038986207 .24472046 .042999269 .15464783 .083999637 .07859802 .1269989-.0024719239 .19999695-.022460938 .24899292-.022460938 .30299378-.022460938 .3789978-.0014648438 .4229889 .09359741 .45498658 .16265869 .45999146 .2407074 .45999146 .31976319M.3769989 .3317871C.3769989 .25672914 .3769989 .18867493 .3659973 .12461853 .35099793 .029556275 .2939911-.00047302247 .24899292-.00047302247 .20999146-.00047302247 .15098572 .024551392 .1329956 .12062073 .12199402 .18066406 .12199402 .2727356 .12199402 .3317871 .12199402 .39582826 .12199402 .46188355 .12998963 .5159149 .14898682 .63500979 .22399903 .64401248 .24899292 .64401248 .28199769 .64401248 .34799195 .6259918 .36698915 .52693179 .3769989 .47088624 .3769989 .39482118 .3769989 .3317871Z"/>
<path id="font_2_82" d="M.4189911 0V.0309906H.3869934C.29699708 .0309906 .2939911 .041992189 .2939911 .07902527V.64012148C.2939911 .6640167 .2939911 .6660156 .2709961 .6660156 .20899964 .60227969 .12098694 .60227969 .08898926 .60227969V.57128909C.10899353 .57128909 .16799927 .57128909 .21998596 .5972748V.07902527C.21998596 .042999269 .21699524 .0309906 .1269989 .0309906H.09498596V0C.12998963 .0029907227 .21699524 .0029907227 .25698854 .0029907227 .29699708 .0029907227 .38398744 .0029907227 .4189911 0Z"/>
<path id="font_2_106" d="M.45700074 .17037964C.45700074 .252594 .3939972 .33088685 .2899933 .35191346 .37199403 .37893678 .42999269 .4490509 .42999269 .52809146 .42999269 .6100464 .34199525 .6660156 .24598694 .6660156 .14498902 .6660156 .068984989 .60606387 .068984989 .53009036 .068984989 .49710084 .09098816 .47808839 .11999512 .47808839 .15098572 .47808839 .17098999 .50009158 .17098999 .5290985 .17098999 .57910159 .12399292 .57910159 .10899353 .57910159 .13999939 .62802127 .20599365 .64100649 .24198914 .64100649 .2829895 .64100649 .33799745 .6190338 .33799745 .5290985 .33799745 .51708987 .33599855 .45906068 .30999757 .4149933 .27999879 .36691285 .24598694 .36390687 .22099304 .36291505 .21299744 .36190797 .18899536 .35990907 .18199158 .35990907 .17399597 .35890199 .16699219 .35791017 .16699219 .3479004 .16699219 .33691407 .17399597 .33691407 .19099427 .33691407H.23498535C.31698609 .33691407 .35398866 .2686615 .35398866 .17037964 .35398866 .034469606 .2849884 .0055389406 .24099732 .0055389406 .19799805 .0055389406 .12298584 .022491456 .08799744 .08137512 .12298584 .07637024 .1539917 .09837341 .1539917 .1363678 .1539917 .17237854 .1269989 .19238281 .09799194 .19238281 .07398987 .19238281 .041992189 .17837525 .041992189 .1343689 .041992189 .043441774 .1349945-.022460938 .24398804-.022460938 .3659973-.022460938 .45700074 .06838989 .45700074 .17037964Z"/>
<path id="font_2_56" d="M.44898988 .20091248C.44898988 .31991578 .36698915 .41992188 .25898744 .41992188 .21099854 .41992188 .16799927 .4039154 .13198853 .36891175V.5641022C.1519928 .55778506 .18499756 .55078127 .21699524 .55078127 .33999635 .55078127 .4099884 .6418457 .4099884 .65493777 .4099884 .6609802 .40699769 .6660156 .3999939 .6660156 .3999939 .66607668 .39698792 .66607668 .3919983 .66308596 .37199403 .65408328 .32299806 .63378909 .2559967 .63378909 .21598816 .63409426 .16999817 .641098 .12298584 .6621094 .114990238 .6651001 .11099243 .6651001 .11099243 .6651001 .100997928 .66508486 .100997928 .657074 .100997928 .64108279V.3447113C.100997928 .3266449 .100997928 .31861878 .114990238 .31861878 .12199402 .31861878 .12399292 .32164 .12799073 .32765199 .13899231 .34371949 .17599488 .3979187 .25698854 .3979187 .30899049 .3979187 .33399964 .3517456 .34199525 .3336792 .35798646 .2965393 .3600006 .2574005 .3600006 .20721436 .3600006 .17218018 .3600006 .112197879 .33599855 .07032776 .31199647 .031448366 .2749939 .0055389406 .22898865 .0055389406 .1559906 .0055389406 .09899902 .05836487 .08198547 .1171875 .084991458 .11685181 .08799744 .115859989 .09899902 .115859989 .13198853 .115859989 .14898682 .14085388 .14898682 .16485596 .14898682 .18885803 .13198853 .21386719 .09899902 .21386719 .084991458 .21386719 .049987794 .2068634 .049987794 .16085816 .049987794 .07432556 .11898804-.022460938 .23098755-.022460938 .34700013-.022460938 .44898988 .07331848 .44898988 .20019531V.20091248Z"/>
<path id="font_2_100" d="M.4850006 .6435547H.24198914C.11999512 .6435547 .117996219 .6566467 .11399841 .67578127H.08898926L.055999757 .46954347H.08099365C.083999637 .48554994 .09298706 .54855349 .10598755 .5605469 .11299133 .5665436 .19099427 .5665436 .20399475 .5665436H.41099549L.29899598 .40853883C.20899964 .2735443 .17599488 .13453675 .17599488 .03253174 .17599488 .022537232 .17599488-.022460938 .22200012-.022460938 .2679901-.022460938 .2679901 .022537232 .2679901 .03253174V.08354187C.2679901 .13853455 .2709961 .19354248 .2789917 .24754334 .2829895 .27053834 .29699708 .35653688 .34098817 .41854859L.47599793 .608551C.4850006 .62054446 .4850006 .62254336 .4850006 .6435547Z"/>
<path id="font_2_107" d="M.44898988 .17396546H.42399598C.4189911 .14398194 .4119873 .099990848 .4019928 .084991458 .394989 .07699585 .32899476 .07699585 .30699159 .07699585H.1269989L.23298645 .17996216C.3889923 .31803895 .44898988 .37210084 .44898988 .47216798 .44898988 .5860901 .35899354 .6660156 .23699951 .6660156 .12399292 .6660156 .049987794 .57411196 .049987794 .48516847 .049987794 .4291687 .099990848 .4291687 .102996829 .4291687 .11999512 .4291687 .15499878 .44117738 .15499878 .48217774 .15499878 .5081787 .13699341 .5341797 .101989749 .5341797 .09399414 .5341797 .09199524 .5341797 .08898926 .5331726 .11199951 .59806826 .1659851 .63500979 .22399903 .63500979 .31498719 .63500979 .35798646 .5541382 .35798646 .47216798 .35798646 .39196778 .30799867 .31297303 .25299073 .25097657L.06098938 .036987306C.049987794 .025985718 .049987794 .023986817 .049987794 0H.42099L.44898988 .17396546Z"/>
<path id="font_2_101" d="M.45700074 .2036438C.45700074 .33070375 .36799623 .4267578 .25698854 .4267578 .18899536 .4267578 .1519928 .37573243 .13198853 .327713V.35173036C.13198853 .6047821 .2559967 .64100649 .30699159 .64100649 .33099366 .64100649 .37298585 .634964 .394989 .6007538 .37998963 .6007538 .33999635 .6007538 .33999635 .5557556 .33999635 .524765 .3639984 .5097656 .38598634 .5097656 .4019928 .5097656 .43199159 .51875308 .43199159 .5577545 .43199159 .6178589 .3880005 .6660156 .30499269 .6660156 .1769867 .6660156 .041992189 .5367584 .041992189 .31570436 .041992189 .048553468 .1579895-.022460938 .25099183-.022460938 .3619995-.022460938 .45700074 .07156372 .45700074 .2036438M.36698915 .20463562C.36698915 .15661621 .36698915 .10658264 .34999085 .0705719 .31999208 .010528564 .27398683 .0055389406 .25099183 .0055389406 .18798828 .0055389406 .1579895 .06556702 .1519928 .080566409 .13398743 .127594 .13398743 .2076416 .13398743 .22564698 .13398743 .30369569 .1659851 .40374757 .2559967 .40374757 .27198792 .40374757 .31799317 .40374757 .34899903 .34172059 .36698915 .30470277 .36698915 .2536621 .36698915 .20463562Z"/>
<path id="font_1_83" d="M.72099307 .49064637C.72099307 .6005707 .621994 .6855469 .45599366 .6855469H.038986207V.63853457H.14698792V.04699707H.038986207V0C.07699585 .0029907227 .1749878 .0029907227 .21798706 .0029907227 .26098634 .0029907227 .35899354 .0029907227 .39698792 0V.04699707H.2889862V.30177308H.46598817C.6049957 .30177308 .72099307 .37374879 .72099307 .49064637M.56799319 .49064637C.56799319 .41970826 .56799319 .34277345 .4169922 .34277345H.2829895V.63853457H.41799928C.56799319 .63853457 .56799319 .56259158 .56799319 .49064637Z"/>
<path id="font_1_81" d="M.5419922 .21812439C.5419922 .35212709 .44999696 .453125 .2869873 .453125 .12298584 .453125 .03199768 .35112 .03199768 .21812439 .03199768 .09413147 .11999512-.005859375 .2869873-.005859375 .45498658-.005859375 .5419922 .09512329 .5419922 .21812439M.4139862 .22912598C.4139862 .14213562 .4139862 .03413391 .2869873 .03413391 .1599884 .03413391 .1599884 .14213562 .1599884 .22912598 .1599884 .27412416 .1599884 .32511903 .1769867 .3591156 .19599915 .39611817 .23799134 .41711427 .2869873 .41711427 .32899476 .41711427 .37098695 .40112306 .3929901 .36611939 .4139862 .3321228 .4139862 .27713014 .4139862 .22912598Z"/>
<path id="font_1_59" d="M.55799868 .3970642C.55799868 .42007447 .54100039 .45507813 .49499513 .45507813 .47999574 .45507813 .43299867 .45207215 .3889923 .41706849 .37098695 .42918397 .32899476 .4501953 .25498963 .4501953 .11099243 .4501953 .055999757 .37243653 .055999757 .3024292 .055999757 .26127626 .07598877 .22012329 .10798645 .19703675 .07998657 .16191101 .07398987 .12878418 .07398987 .10771179 .07398987 .0927124 .07798767 .04371643 .117996219 .01171875 .10499573 .008712769 .03199768-.012252808 .03199768-.075164798 .03199768-.12609864 .08699036-.2010498 .2869873-.2010498 .46398927-.2010498 .5419922-.14207459 .5419922-.07217407 .5419922-.04222107 .5339966 .020706177 .46699525 .054718019 .41099549 .08300781 .35099793 .08300781 .25498963 .08300781 .22898865 .08300781 .18299866 .08300781 .17799378 .083984378 .13398743 .0909729 .12298584 .12898255 .12298584 .14697266 .12298584 .15698242 .1269989 .17198181 .1329956 .17997742 .1789856 .15629578 .22999573 .15429688 .25498963 .15429688 .39898683 .15429688 .45399476 .23234558 .45399476 .3024292 .45399476 .34942628 .42900086 .38243104 .4139862 .3984375 .44400025 .4144287 .46499635 .4164276 .47599793 .4174347 .47399903 .4124298 .47200013 .40342713 .47200013 .39743043 .47200013 .37219239 .4889984 .354187 .5149994 .354187 .54100039 .354187 .55799868 .3731842 .55799868 .39718629V.3970642M.34298707 .30221559C.34298707 .25724793 .34298707 .19029236 .25498963 .19029236 .16699219 .19021607 .16699219 .25733949 .16699219 .3024292 .16699219 .34742738 .16699219 .41418458 .25498963 .41418458 .34298707 .41418458 .34298707 .34742738 .34298707 .3024292V.30221559M.45599366-.07501221C.45599366-.11102295 .4169922-.16503906 .2869873-.16503906 .16699219-.16503906 .117996219-.11903381 .117996219-.073013309 .117996219-.013000488 .18099976-.013000488 .19499207-.013000488H.31199647C.34298707-.013000488 .45599366-.013000488 .45599366-.07501221Z"/>
<path id="font_1_55" d="M.43699647 .6132202C.43699647 .65519717 .40098573 .7001953 .32299806 .7001953 .22499085 .7001953 .116989139 .65818789 .116989139 .54525759V.44433595H.041992189V.3973236H.116989139V.04699707H.04798889V0L.17399597 .0029907227C.21199036 .0029907227 .27598573 .0029907227 .31199647 0V.04699707H.22499085V.3973236H.33999635V.44433595H.21899414V.54525759C.21899414 .65519717 .29499818 .6641846 .31999208 .6641846 .32499696 .6641846 .32998658 .6641846 .33699037 .66218569 .32199098 .65119937 .31399537 .63220217 .31399537 .6132202 .31399537 .57025149 .34899903 .5512543 .375 .5512543 .40499879 .5512543 .43699647 .57225039 .43699647 .6132202Z"/>
</defs>
<path transform="matrix(1.00009,0,0,-1,34.543756,325.227)" stroke-width=".19925" stroke-linecap="butt" stroke-miterlimit="10" stroke-linejoin="miter" fill="none" stroke="#d9d9d9" d="M0 0H226.77448M0 2.83484H226.77448M0 5.6697H226.77448M0 8.50455H226.77448M0 11.33939H226.77448M0 14.17424H226.77448M0 17.0091H226.77448M0 19.84393H226.77448M0 22.67879H226.77448M0 25.51364H226.77448M0 28.3485H226.77448M0 31.18333H226.77448M0 34.01819H226.77448M0 36.85304H226.77448M0 39.68788H226.77448M0 42.52274H226.77448M0 45.35759H226.77448M0 48.19244H226.77448M0 51.02728H226.77448M0 53.86214H226.77448M0 56.69699H226.77448M0 59.53183H226.77448M0 62.36668H226.77448M0 65.20154H226.77448M0 68.03639H226.77448M0 70.87123H226.77448M0 73.70609H226.77448M0 76.54094H226.77448M0 79.37578H226.77448M0 82.21063H226.77448M0 85.04549H226.77448M0 87.88034H226.77448M0 90.71518H226.77448M0 93.55003H226.77448M0 96.38489H226.77448M0 99.21973H226.77448M0 102.05458H226.77448M0 104.88943H226.77448M0 107.72429H226.77448M0 110.55913H226.77448M0 113.39398H226.77448M0 116.22884H226.77448M0 119.06367H226.77448M0 121.89853H226.77448M0 124.73338H226.77448M0 127.56824H226.77448M0 130.40308H226.77448M0 133.23793H226.77448M0 136.07279H226.77448M0 138.90763H226.77448M0 141.74248H226.77448M0 144.57733H226.77448M0 147.41219H226.77448M0 150.24703H226.77448M0 153.08188H226.77448M0 155.91674H226.77448M0 158.75157H226.77448M0 161.58643H226.77448M0 164.42128H226.77448M0 167.25612H226.77448M0 170.09098H226.77448M0 172.92583H226.77448M0 175.76068H226.77448M0 178.59552H226.77448M0 181.43038H226.77448M0 184.26523H226.77448M0 187.10007H226.77448M0 189.93492H226.77448M0 192.76978H226.77448M0 195.60463H226.77448M0 198.43947H226.77448M0 201.27433H226.77448M0 204.10918H226.77448M0 206.94402H226.77448M0 209.77887H226.77448M0 212.61373H226.77448M0 215.44858H226.77448M0 218.28342H226.77448M0 221.11827H226.77448M0 223.95313H226.77448M0 226.78797H226.77448M0 229.62282H226.77448M0 232.45767H226.77448M0 235.29253H226.77448M0 238.12737H226.77448M0 240.96222H226.77448M0 243.79708H226.77448M0 246.63191H226.77448M0 249.46677H226.77448M0 252.30162H226.77448M0 255.13648H226.77448M0 257.9713H226.77448M0 260.80619H226.77448M0 263.64103H226.77448M0 266.47587H226.77448M0 269.3107H226.77448M0 272.14558H226.77448M0 274.9804H226.77448M0 277.81526H226.77448M0 280.65013H226.77448M0 283.48497H226.77448M0 286.31983H226.77448M0 289.15467H226.77448M0 291.98954H226.77448M0 294.82438H226.77448M0 297.6592H226.77448M0 300.49406H226.77448M0 303.32893H226.77448M0 306.16377H226.77448M0 308.9986H226.77448M0 0V311.8149M2.83484 0V311.8149M5.6697 0V311.8149M8.50455 0V311.8149M11.33939 0V311.8149M14.17424 0V311.8149M17.0091 0V311.8149M19.84393 0V311.8149M22.67879 0V311.8149M25.51364 0V311.8149M28.3485 0V311.8149M31.18333 0V311.8149M34.01819 0V311.8149M36.85304 0V311.8149M39.68788 0V311.8149M42.52274 0V311.8149M45.35759 0V311.8149M48.19244 0V311.8149M51.02728 0V311.8149M53.86214 0V311.8149M56.69699 0V311.8149M59.53183 0V311.8149M62.36668 0V311.8149M65.20154 0V311.8149M68.03639 0V311.8149M70.87123 0V311.8149M73.70609 0V311.8149M76.54094 0V311.8149M79.37578 0V311.8149M82.21063 0V311.8149M85.04549 0V311.8149M87.88034 0V311.8149M90.71518 0V311.8149M93.55003 0V311.8149M96.38489 0V311.8149M99.21973 0V311.8149M102.05458 0V311.8149M104.88943 0V311.8149M107.72429 0V311.8149M110.55913 0V311.8149M113.39398 0V311.8149M116.22884 0V311.8149M119.06367 0V311.8149M121.89853 0V311.8149M124.73338 0V311.8149M127.56824 0V311.8149M130.40308 0V311.8149M133.23793 0V311.8149M136.07279 0V311.8149M138.90763 0V311.8149M141.74248 0V311.8149M144.57733 0V311.8149M147.41219 0V311.8149M150.24703 0V311.8149M153.08188 0V311.8149M155.91674 0V311.8149M158.75157 0V311.8149M161.58643 0V311.8149M164.42128 0V311.8149M167.25612 0V311.8149M170.09098 0V311.8149M172.92583 0V311.8149M175.76068 0V311.8149M178.59552 0V311.8149M181.43038 0V311.8149M184.26523 0V311.8149M187.10007 0V311.8149M189.93492 0V311.8149M192.76978 0V311.8149M195.60463 0V311.8149M198.43947 0V311.8149M201.27433 0V311.8149M204.10918 0V311.8149M206.94402 0V311.8149M209.77887 0V311.8149M212.61373 0V311.8149M215.44858 0V311.8149M218.28342 0V311.8149M221.11827 0V311.8149M223.95313 0V311.8149M226.77448 311.8149"/>
<path transform="matrix(1.00009,0,0,-1,34.543756,325.227)" stroke-width=".3985" stroke-linecap="butt" stroke-miterlimit="10" stroke-linejoin="miter" fill="none" stroke="#a6a6a6" d="M0 0H226.77448M0 28.3468H226.77448M0 56.69362H226.77448M0 85.04042H226.77448M0 113.38724H226.77448M0 141.73404H226.77448M0 170.08086H226.77448M0 198.42766H226.77448M0 226.77448H226.77448M0 255.12128H226.77448M0 283.4681H226.77448M0 311.80497H226.77448M0 0V311.8149M28.3468 0V311.8149M56.69362 0V311.8149M85.04042 0V311.8149M113.38724 0V311.8149M141.73404 0V311.8149M170.08086 0V311.8149M198.42766 0V311.8149M226.76451 0V311.8149M226.77448 311.8149"/>
<path transform="matrix(1.00009,0,0,-1,34.543756,325.227)" stroke-width=".79701" stroke-linecap="butt" stroke-miterlimit="10" stroke-linejoin="miter" fill="none" stroke="#000000" d="M0 0H226.06711"/>
<path transform="matrix(1.00009,0,0,-1,260.6312,325.227)" stroke-width=".6376" stroke-linecap="round" stroke-linejoin="round" fill="none" stroke="#000000" d="M-1.55415 2.0722C-1.42464 1.29512 0 .1295 .38852 0 0-.1295-1.42464-1.29512-1.55415-2.0722"/>
<path transform="matrix(1.00009,0,0,-1,34.543756,325.227)" stroke-width=".79701" stroke-linecap="butt" stroke-miterlimit="10" stroke-linejoin="miter" fill="none" stroke="#000000" d="M0 0V311.10755"/>
<path transform="matrix(0,-1,-1.00009,-0,34.543756,14.119446)" stroke-width=".6376" stroke-linecap="round" stroke-linejoin="round" fill="none" stroke="#000000" d="M-1.55415 2.0722C-1.42464 1.29512 0 .1295 .38852 0 0-.1295-1.42464-1.29512-1.55415-2.0722"/>
<use data-text="D" xlink:href="#font_1_46" transform="matrix(9.963496,0,0,-9.9626,115.64206,358.896)"/>
<use data-text="i" xlink:href="#font_1_66" transform="matrix(9.963496,0,0,-9.9626,124.42986,358.896)"/>
<use data-text="s" xlink:href="#font_1_98" transform="matrix(9.963496,0,0,-9.9626,127.60822,358.896)"/>
<use data-text="t" xlink:href="#font_1_105" transform="matrix(9.963496,0,0,-9.9626,132.13166,358.896)"/>
<use data-text="a" xlink:href="#font_1_28" transform="matrix(9.963496,0,0,-9.9626,136.58533,358.896)"/>
<use data-text="n" xlink:href="#font_1_77" transform="matrix(9.963496,0,0,-9.9626,142.1549,358.896)"/>
<use data-text="c" xlink:href="#font_1_43" transform="matrix(9.963496,0,0,-9.9626,148.5216,358.896)"/>
<use data-text="e" xlink:href="#font_1_50" transform="matrix(9.963496,0,0,-9.9626,153.61295,358.896)"/>
<use data-text="T" xlink:href="#font_1_104" transform="matrix(9.963496,0,0,-9.9626,162.67975,358.896)"/>
<use data-text="r" xlink:href="#font_1_96" transform="matrix(9.963496,0,0,-9.9626,169.70401,358.896)"/>
<use data-text="a" xlink:href="#font_1_28" transform="matrix(9.963496,0,0,-9.9626,174.4267,358.896)"/>
<use data-text="v" xlink:href="#font_1_112" transform="matrix(9.963496,0,0,-9.9626,179.67746,358.896)"/>
<use data-text="e" xlink:href="#font_1_50" transform="matrix(9.963496,0,0,-9.9626,185.4065,358.896)"/>
<use data-text="l" xlink:href="#font_1_72" transform="matrix(9.963496,0,0,-9.9626,190.65726,358.896)"/>
<use data-text="l" xlink:href="#font_1_72" transform="matrix(9.963496,0,0,-9.9626,193.8356,358.896)"/>
<use data-text="e" xlink:href="#font_1_50" transform="matrix(9.963496,0,0,-9.9626,197.01395,358.896)"/>
<use data-text="d" xlink:href="#font_1_47" transform="matrix(9.963496,0,0,-9.9626,202.26471,358.896)"/>
<use data-text="(" xlink:href="#font_1_85" transform="matrix(9.963496,0,0,-9.9626,212.43744,358.896)"/>
<use data-text="k" xlink:href="#font_1_70" transform="matrix(9.963496,0,0,-9.9626,216.89112,358.896)"/>
<use data-text="m" xlink:href="#font_1_75" transform="matrix(9.963496,0,0,-9.9626,222.93897,358.896)"/>
<use data-text=")" xlink:href="#font_1_86" transform="matrix(9.963496,0,0,-9.9626,232.48401,358.896)"/>
<use data-text="F" xlink:href="#font_1_54" transform="matrix(0,-9.9626,-9.963496,-0,8.689423,221.64899)"/>
<use data-text="r" xlink:href="#font_1_96" transform="matrix(0,-9.9626,-9.963496,-0,8.689423,215.39249)"/>
<use data-text="e" xlink:href="#font_1_50" transform="matrix(0,-9.9626,-9.963496,-0,8.689423,210.67021)"/>
<use data-text="q" xlink:href="#font_1_91" transform="matrix(0,-9.9626,-9.963496,-0,8.689423,205.41992)"/>
<use data-text="u" xlink:href="#font_1_109" transform="matrix(0,-9.9626,-9.963496,-0,8.689423,199.37262)"/>
<use data-text="e" xlink:href="#font_1_50" transform="matrix(0,-9.9626,-9.963496,-0,8.689423,193.00652)"/>
<use data-text="n" xlink:href="#font_1_77" transform="matrix(0,-9.9626,-9.963496,-0,8.689423,187.75623)"/>
<use data-text="c" xlink:href="#font_1_43" transform="matrix(0,-9.9626,-9.963496,-0,8.689423,181.39012)"/>
<use data-text="y" xlink:href="#font_1_118" transform="matrix(0,-9.9626,-9.963496,-0,8.689423,176.29923)"/>
<use data-text="(" xlink:href="#font_1_85" transform="matrix(0,-9.9626,-9.963496,-0,8.689423,166.43625)"/>
<use data-text="V" xlink:href="#font_1_111" transform="matrix(0,-9.9626,-9.963496,-0,8.689423,161.98297)"/>
<use data-text="e" xlink:href="#font_1_50" transform="matrix(0,-9.9626,-9.963496,-0,8.689423,154.27191)"/>
<use data-text="h" xlink:href="#font_1_63" transform="matrix(0,-9.9626,-9.963496,-0,8.689423,149.02162)"/>
<use data-text="i" xlink:href="#font_1_66" transform="matrix(0,-9.9626,-9.963496,-0,8.689423,142.65552)"/>
<use data-text="c" xlink:href="#font_1_43" transform="matrix(0,-9.9626,-9.963496,-0,8.689423,139.47745)"/>
<use data-text="l" xlink:href="#font_1_72" transform="matrix(0,-9.9626,-9.963496,-0,8.689423,134.38657)"/>
<use data-text="e" xlink:href="#font_1_50" transform="matrix(0,-9.9626,-9.963496,-0,8.689423,131.2085)"/>
<use data-text="s" xlink:href="#font_1_98" transform="matrix(0,-9.9626,-9.963496,-0,8.689423,125.958209)"/>
<use data-text=")" xlink:href="#font_1_86" transform="matrix(0,-9.9626,-9.963496,-0,8.689423,121.43518)"/>
<use data-text="9" xlink:href="#font_2_78" transform="matrix(9.963496,0,0,-9.9626,57.91086,343.886)"/>
<use data-text="0" xlink:href="#font_2_121" transform="matrix(9.963496,0,0,-9.9626,62.89261,343.886)"/>
<use data-text="1" xlink:href="#font_2_82" transform="matrix(9.963496,0,0,-9.9626,83.77019,343.886)"/>
<use data-text="1" xlink:href="#font_2_82" transform="matrix(9.963496,0,0,-9.9626,88.75194,343.886)"/>
<use data-text="0" xlink:href="#font_2_121" transform="matrix(9.963496,0,0,-9.9626,93.73367,343.886)"/>
<use data-text="1" xlink:href="#font_2_82" transform="matrix(9.963496,0,0,-9.9626,112.11874,343.886)"/>
<use data-text="3" xlink:href="#font_2_106" transform="matrix(9.963496,0,0,-9.9626,117.10049,343.886)"/>
<use data-text="0" xlink:href="#font_2_121" transform="matrix(9.963496,0,0,-9.9626,122.08223,343.886)"/>
<use data-text="1" xlink:href="#font_2_82" transform="matrix(9.963496,0,0,-9.9626,140.46829,343.886)"/>
<use data-text="5" xlink:href="#font_2_56" transform="matrix(9.963496,0,0,-9.9626,145.45005,343.886)"/>
<use data-text="0" xlink:href="#font_2_121" transform="matrix(9.963496,0,0,-9.9626,150.43178,343.886)"/>
<use data-text="1" xlink:href="#font_2_82" transform="matrix(9.963496,0,0,-9.9626,168.81784,343.986)"/>
<use data-text="7" xlink:href="#font_2_100" transform="matrix(9.963496,0,0,-9.9626,173.79959,343.986)"/>
<use data-text="0" xlink:href="#font_2_121" transform="matrix(9.963496,0,0,-9.9626,178.78133,343.986)"/>
<use data-text="1" xlink:href="#font_2_82" transform="matrix(9.963496,0,0,-9.9626,197.16739,343.886)"/>
<use data-text="9" xlink:href="#font_2_78" transform="matrix(9.963496,0,0,-9.9626,202.14914,343.886)"/>
<use data-text="0" xlink:href="#font_2_121" transform="matrix(9.963496,0,0,-9.9626,207.13088,343.886)"/>
<use data-text="2" xlink:href="#font_2_107" transform="matrix(9.963496,0,0,-9.9626,225.51694,343.886)"/>
<use data-text="1" xlink:href="#font_2_82" transform="matrix(9.963496,0,0,-9.9626,230.49869,343.886)"/>
<use data-text="0" xlink:href="#font_2_121" transform="matrix(9.963496,0,0,-9.9626,235.48043,343.886)"/>
<use data-text="0" xlink:href="#font_2_121" transform="matrix(9.963496,0,0,-9.9626,17.537224,328.435)"/>
<use data-text="3" xlink:href="#font_2_106" transform="matrix(9.963496,0,0,-9.9626,17.537224,271.741)"/>
<use data-text="6" xlink:href="#font_2_101" transform="matrix(9.963496,0,0,-9.9626,17.537224,215.04799)"/>
<use data-text="9" xlink:href="#font_2_78" transform="matrix(9.963496,0,0,-9.9626,17.537224,158.35399)"/>
<use data-text="1" xlink:href="#font_2_82" transform="matrix(9.963496,0,0,-9.9626,12.554771,101.76999)"/>
<use data-text="2" xlink:href="#font_2_107" transform="matrix(9.963496,0,0,-9.9626,17.536522,101.76999)"/>
<use data-text="1" xlink:href="#font_2_82" transform="matrix(9.963496,0,0,-9.9626,12.554771,44.96698)"/>
<use data-text="5" xlink:href="#font_2_56" transform="matrix(9.963496,0,0,-9.9626,17.536522,44.96698)"/>
<path transform="matrix(1.00009,0,0,-1,34.543756,325.227)" stroke-width=".79701" stroke-linecap="butt" stroke-miterlimit="10" stroke-linejoin="miter" fill="none" stroke="#0000ff" d="M28.3468 0 56.69362 75.68591 85.04042 170.08086 113.38724 264.47578 141.73404 207.78215 170.08086 113.38724 198.42766 0"/>
<path transform="matrix(1.00009,0,0,-1,34.543756,325.227)" d="M59.68245 75.68591C59.68245 77.33662 58.34431 78.67474 56.69362 78.67474 55.04291 78.67474 53.70479 77.33662 53.70479 75.68591 53.70479 74.0352 55.04291 72.69708 56.69362 72.69708 58.34431 72.69708 59.68245 74.0352 59.68245 75.68591ZM56.69362 75.68591" fill="#0000ff"/>
<path transform="matrix(1.00009,0,0,-1,34.543756,325.227)" d="M88.02925 170.08086C88.02925 171.73155 86.69113 173.06969 85.04042 173.06969 83.38971 173.06969 82.05159 171.73155 82.05159 170.08086 82.05159 168.43015 83.38971 167.09203 85.04042 167.09203 86.69113 167.09203 88.02925 168.43015 88.02925 170.08086ZM85.04042 170.08086" fill="#0000ff"/>
<path transform="matrix(1.00009,0,0,-1,34.543756,325.227)" d="M116.37607 264.47578C116.37607 266.12648 115.03793 267.4646 113.38724 267.4646 111.73653 267.4646 110.3984 266.12648 110.3984 264.47578 110.3984 262.82508 111.73653 261.48695 113.38724 261.48695 115.03793 261.48695 116.37607 262.82508 116.37607 264.47578ZM113.38724 264.47578" fill="#0000ff"/>
<path transform="matrix(1.00009,0,0,-1,34.543756,325.227)" d="M144.72287 207.78215C144.72287 209.43286 143.38475 210.77098 141.73404 210.77098 140.08333 210.77098 138.74521 209.43286 138.74521 207.78215 138.74521 206.13144 140.08333 204.79332 141.73404 204.79332 143.38475 204.79332 144.72287 206.13144 144.72287 207.78215ZM141.73404 207.78215" fill="#0000ff"/>
<path transform="matrix(1.00009,0,0,-1,34.543756,325.227)" d="M173.06969 113.38724C173.06969 115.03793 171.73155 116.37607 170.08086 116.37607 168.43015 116.37607 167.09203 115.03793 167.09203 113.38724 167.09203 111.73653 168.43015 110.3984 170.08086 110.3984 171.73155 110.3984 173.06969 111.73653 173.06969 113.38724ZM170.08086 113.38724" fill="#0000ff"/>
<use data-text="F" xlink:href="#font_1_54" transform="matrix(9.963496,0,0,-9.9626,46.854867,7.889984)"/>
<use data-text="r" xlink:href="#font_1_96" transform="matrix(9.963496,0,0,-9.9626,53.11194,7.889984)"/>
<use data-text="e" xlink:href="#font_1_50" transform="matrix(9.963496,0,0,-9.9626,57.83464,7.889984)"/>
<use data-text="q" xlink:href="#font_1_91" transform="matrix(9.963496,0,0,-9.9626,63.085405,7.889984)"/>
<use data-text="u" xlink:href="#font_1_109" transform="matrix(9.963496,0,0,-9.9626,69.13324,7.889984)"/>
<use data-text="e" xlink:href="#font_1_50" transform="matrix(9.963496,0,0,-9.9626,75.49992,7.889984)"/>
<use data-text="n" xlink:href="#font_1_77" transform="matrix(9.963496,0,0,-9.9626,80.75069,7.889984)"/>
<use data-text="c" xlink:href="#font_1_43" transform="matrix(9.963496,0,0,-9.9626,87.11737,7.889984)"/>
<use data-text="y" xlink:href="#font_1_118" transform="matrix(9.963496,0,0,-9.9626,92.208728,7.889984)"/>
<use data-text="P" xlink:href="#font_1_83" transform="matrix(9.963496,0,0,-9.9626,102.072589,7.889984)"/>
<use data-text="o" xlink:href="#font_1_81" transform="matrix(9.963496,0,0,-9.9626,109.59502,7.889984)"/>
<use data-text="l" xlink:href="#font_1_72" transform="matrix(9.963496,0,0,-9.9626,115.324039,7.889984)"/>
<use data-text="y" xlink:href="#font_1_118" transform="matrix(9.963496,0,0,-9.9626,118.502399,7.889984)"/>
<use data-text="g" xlink:href="#font_1_59" transform="matrix(9.963496,0,0,-9.9626,124.55023,7.889984)"/>
<use data-text="o" xlink:href="#font_1_81" transform="matrix(9.963496,0,0,-9.9626,130.27925,7.889984)"/>
<use data-text="n" xlink:href="#font_1_77" transform="matrix(9.963496,0,0,-9.9626,136.00827,7.889984)"/>
<use data-text="o" xlink:href="#font_1_81" transform="matrix(9.963496,0,0,-9.9626,146.181,7.889984)"/>
<use data-text="f" xlink:href="#font_1_55" transform="matrix(9.963496,0,0,-9.9626,151.91002,7.889984)"/>
<use data-text="D" xlink:href="#font_1_46" transform="matrix(9.963496,0,0,-9.9626,159.22322,7.889984)"/>
<use data-text="i" xlink:href="#font_1_66" transform="matrix(9.963496,0,0,-9.9626,168.01103,7.889984)"/>
<use data-text="s" xlink:href="#font_1_98" transform="matrix(9.963496,0,0,-9.9626,171.18938,7.889984)"/>
<use data-text="t" xlink:href="#font_1_105" transform="matrix(9.963496,0,0,-9.9626,175.71282,7.889984)"/>
<use data-text="a" xlink:href="#font_1_28" transform="matrix(9.963496,0,0,-9.9626,180.16649,7.889984)"/>
<use data-text="n" xlink:href="#font_1_77" transform="matrix(9.963496,0,0,-9.9626,185.73609,7.889984)"/>
<use data-text="c" xlink:href="#font_1_43" transform="matrix(9.963496,0,0,-9.9626,192.10276,7.889984)"/>
<use data-text="e" xlink:href="#font_1_50" transform="matrix(9.963496,0,0,-9.9626,197.19409,7.889984)"/>
<use data-text="T" xlink:href="#font_1_104" transform="matrix(9.963496,0,0,-9.9626,206.2609,7.889984)"/>
<use data-text="r" xlink:href="#font_1_96" transform="matrix(9.963496,0,0,-9.9626,213.28516,7.889984)"/>
<use data-text="a" xlink:href="#font_1_28" transform="matrix(9.963496,0,0,-9.9626,218.00785,7.889984)"/>
<use data-text="v" xlink:href="#font_1_112" transform="matrix(9.963496,0,0,-9.9626,223.2586,7.889984)"/>
<use data-text="e" xlink:href="#font_1_50" transform="matrix(9.963496,0,0,-9.9626,228.98761,7.889984)"/>
<use data-text="l" xlink:href="#font_1_72" transform="matrix(9.963496,0,0,-9.9626,234.23838,7.889984)"/>
<use data-text="e" xlink:href="#font_1_50" transform="matrix(9.963496,0,0,-9.9626,237.41675,7.889984)"/>
<use data-text="d" xlink:href="#font_1_47" transform="matrix(9.963496,0,0,-9.9626,242.66751,7.889984)"/>
</svg>
