<svg xmlns="http://www.w3.org/2000/svg" xmlns:xlink="http://www.w3.org/1999/xlink" xmlns:inkscape="http://www.inkscape.org/namespaces/inkscape" version="1.1" width="80" height="68" viewBox="0 0 80 68">
<defs>
<path id="font_1_62" d="M.7509918 0V.032989503H.72898867C.6519928 .032989503 .6499939 .04399109 .6499939 .08097839V.60165408C.6499939 .63861086 .6519928 .6496124 .72898867 .6496124H.7509918V.6826172L.60398867 .6796112 .45700074 .6826172V.6496124H.47898866C.55599978 .6496124 .55799868 .63861086 .55799868 .60165408V.3718567H.23699951V.60165408C.23699951 .63861086 .23899842 .6496124 .31599427 .6496124H.33799745V.6826172L.19099427 .6796112 .04399109 .6826172V.6496124H.06599426C.14299011 .6496124 .14498902 .63861086 .14498902 .60165408V.08097839C.14498902 .04399109 .14299011 .032989503 .06599426 .032989503H.04399109V0L.19099427 .0029907227 .33799745 0V.032989503H.31599427C.23899842 .032989503 .23699951 .04399109 .23699951 .08097839V.3388672H.55799868V.08097839C.55799868 .04399109 .55599978 .032989503 .47898866 .032989503H.45700074V0L.60398867 .0029907227 .7509918 0Z"/>
<path id="font_1_104" d="M.7279968 .44877626 .70799258 .67578127H.057998659L.037994386 .44877626H.068984989C.08299255 .61776736 .10598755 .6427765 .25898744 .6427765 .27799989 .6427765 .30899049 .6427765 .31698609 .6407776 .33599855 .6367798 .33699037 .6267853 .33699037 .6017914V.081970218C.33699037 .04698181 .33699037 .032989503 .23298645 .032989503H.19499207V0C.23199463 .0029907227 .33999635 .0029907227 .3829956 .0029907227 .42599488 .0029907227 .5339966 .0029907227 .57099917 0V.032989503H.5329895C.42900086 .032989503 .42900086 .04698181 .42900086 .081970218V.6017914C.42900086 .6247864 .42900086 .6367798 .44999696 .6407776 .45899964 .6427765 .48799134 .6427765 .5069885 .6427765 .6599884 .6427765 .68299868 .61776736 .69699099 .44877626H.7279968Z"/>
<path id="font_2_1" d="M.397995 .63591006C.397995 .6660156 .394989 .6660156 .3619995 .6660156 .29100038 .6016083 .17999268 .6016083 .1599884 .6016083H.14299011V.5576172H.1599884C.18299866 .5576172 .24798584 .5606079 .30599977 .58561709V.08596802C.30599977 .054977418 .30599977 .04399109 .19999695 .04399109H.1499939V0C.20498657 .0039978029 .2939911 .0039978029 .35198976 .0039978029 .4099884 .0039978029 .49899293 .0039978029 .55400088 0V.04399109H.5039978C.397995 .04399109 .397995 .054977418 .397995 .08596802V.63591006Z"/>
<path id="font_2_2" d="M.58898928 .19296265H.5469971C.5439911 .17396546 .5339966 .11198425 .5179901 .101989749 .5099945 .09599304 .42599488 .09599304 .41099549 .09599304H.21499634C.2809906 .14497376 .35499574 .20095825 .4149933 .24093628 .5049896 .30291749 .58898928 .36090089 .58898928 .46687318 .58898928 .59495547 .46798707 .6660156 .32499696 .6660156 .18998719 .6660156 .09098816 .58795168 .09098816 .48986817 .09098816 .4378662 .1349945 .42886354 .14898682 .42886354 .17599488 .42886354 .20799256 .4468689 .20799256 .48786927 .20799256 .52386477 .18199158 .543869 .15098572 .546875 .1789856 .59194949 .23699951 .6220093 .3039856 .6220093 .40098573 .6220093 .48199464 .5639038 .48199464 .4658661 .48199464 .3818817 .42399598 .31791688 .34700013 .2529297L.102996829 .04598999C.09298706 .036987306 .09199524 .036987306 .09098816 .02999878V0H.55599978L.58898928 .19296265Z"/>
</defs>
<path transform="matrix(1.00006,0,0,-1,5.113167,33.711999)" stroke-width=".79701" stroke-linecap="butt" stroke-miterlimit="10" stroke-linejoin="miter" fill="none" stroke="#000000" d="M2.81807 0C2.81807 1.55638 1.55638 2.81807 0 2.81807-1.55638 2.81807-2.81807 1.55638-2.81807 0-2.81807-1.55638-1.55638-2.81807 0-2.81807 1.55638-2.81807 2.81807-1.55638 2.81807 0ZM0 0"/>
<path transform="matrix(1.00006,0,0,-1,5.113167,33.711999)" stroke-width=".3985" stroke-linecap="butt" stroke-miterlimit="10" stroke-linejoin="miter" fill="none" stroke="#000000" d="M38.74374-21.82704C38.74374-17.96358 35.61186-14.8317 31.7484-14.8317 27.88493-14.8317 24.75305-17.96358 24.75305-21.82704 24.75305-25.6905 27.88493-28.82239 31.7484-28.82239 35.61186-28.82239 38.74374-25.6905 38.74374-21.82704ZM31.7484-21.82704"/>
<use data-text="H" xlink:href="#font_1_62" transform="matrix(7.9705779,0,0,-7.9701,33.69088,58.260995)"/>
<path transform="matrix(1.00006,0,0,-1,5.113167,33.711999)" stroke-width=".79701" stroke-linecap="butt" stroke-miterlimit="10" stroke-linejoin="miter" fill="none" stroke="#000000" d="M2.65398-1.82458 25.82074-17.75182"/>
<path transform="matrix(1.00006,0,0,-1,5.113167,33.711999)" stroke-width=".79701" stroke-linecap="butt" stroke-miterlimit="10" stroke-linejoin="miter" fill="none" stroke="#000000" d="M72.977-20.97655C72.977-15.7407 68.73264-11.49635 63.4968-11.49635 58.26097-11.49635 54.0166-15.7407 54.0166-20.97655 54.0166-26.21239 58.26097-30.45674 63.4968-30.45674 68.73264-30.45674 72.977-26.21239 72.977-20.97655ZM63.4968-20.97655"/>
<use data-text="H" xlink:href="#font_1_62" transform="matrix(7.9705779,0,0,-7.9701,62.3846,57.409997)"/>
<use data-text="T" xlink:href="#font_1_104" transform="matrix(7.9705779,0,0,-7.9701,68.72919,57.409997)"/>
<path transform="matrix(1.00006,0,0,-1,5.113167,33.711999)" stroke-width=".79701" stroke-linecap="butt" stroke-miterlimit="10" stroke-linejoin="miter" fill="none" stroke="#000000" d="M38.943-21.63834 53.82251-21.23918"/>
<use data-text="1" xlink:href="#font_2_1" transform="matrix(4.9815986,0,0,-4.9813,49.803846,60.750997)"/>
<path transform="matrix(1.00006,0,0,-1,-37.510389,43.716997)" stroke-width=".3387" stroke-linecap="butt" stroke-miterlimit="10" stroke-linejoin="miter" fill="none" stroke="#000000" d="M87.309-17.968H90.699"/>
<use data-text="2" xlink:href="#font_2_2" transform="matrix(4.9815986,0,0,-4.9813,49.803846,65.828998)"/>
<path transform="matrix(1.00006,0,0,-1,5.113167,33.711999)" stroke-width=".79701" stroke-linecap="butt" stroke-miterlimit="10" stroke-linejoin="miter" fill="none" stroke="#000000" d="M73.06723-22.67747C73.06723-17.3918 68.78247-13.10703 63.4968-13.10703 58.21114-13.10703 53.92636-17.3918 53.92636-22.67747 53.92636-27.96313 58.21114-32.24791 63.4968-32.24791 68.78247-32.24791 73.06723-27.96313 73.06723-22.67747ZM63.4968-22.67747"/>
<use data-text="H" xlink:href="#font_1_62" transform="matrix(7.9705779,0,0,-7.9701,62.269594,59.111)"/>
<use data-text="H" xlink:href="#font_1_62" transform="matrix(7.9705779,0,0,-7.9701,68.614177,59.111)"/>
<path transform="matrix(1.00006,0,0,-1,5.113167,33.711999)" stroke-width=".79701" stroke-linecap="butt" stroke-miterlimit="10" stroke-linejoin="miter" fill="none" stroke="#000000" d="M38.943-22.01572 53.73232-22.41237"/>
<use data-text="1" xlink:href="#font_2_1" transform="matrix(4.9815986,0,0,-4.9813,49.75884,48.456)"/>
<path transform="matrix(1.00006,0,0,-1,-37.555395,31.421999)" stroke-width=".3387" stroke-linecap="butt" stroke-miterlimit="10" stroke-linejoin="miter" fill="none" stroke="#000000" d="M87.309-17.968H90.699"/>
<use data-text="2" xlink:href="#font_2_2" transform="matrix(4.9815986,0,0,-4.9813,49.75884,53.533998)"/>
<use data-text="1" xlink:href="#font_2_1" transform="matrix(4.9815986,0,0,-4.9813,17.656914,49.100999)"/>
<path transform="matrix(1.00006,0,0,-1,-69.65732,32.066999)" stroke-width=".3387" stroke-linecap="butt" stroke-miterlimit="10" stroke-linejoin="miter" fill="none" stroke="#000000" d="M87.309-17.968H90.699"/>
<use data-text="2" xlink:href="#font_2_2" transform="matrix(4.9815986,0,0,-4.9813,17.656914,54.178998)"/>
<path transform="matrix(1.00006,0,0,-1,5.113167,33.711999)" stroke-width=".3985" stroke-linecap="butt" stroke-miterlimit="10" stroke-linejoin="miter" fill="none" stroke="#000000" d="M38.62358 21.8271C38.62358 25.6242 35.5455 28.70229 31.7484 28.70229 27.9513 28.70229 24.87321 25.6242 24.87321 21.8271 24.87321 18.03 27.9513 14.95192 31.7484 14.95192 35.5455 14.95192 38.62358 18.03 38.62358 21.8271ZM31.7484 21.8271"/>
<use data-text="T" xlink:href="#font_1_104" transform="matrix(7.9705779,0,0,-7.9701,33.806886,14.578999)"/>
<path transform="matrix(1.00006,0,0,-1,5.113167,33.711999)" stroke-width=".79701" stroke-linecap="butt" stroke-miterlimit="10" stroke-linejoin="miter" fill="none" stroke="#000000" d="M2.65398 1.82458 25.91974 17.81993"/>
<path transform="matrix(1.00006,0,0,-1,5.113167,33.711999)" stroke-width=".79701" stroke-linecap="butt" stroke-miterlimit="10" stroke-linejoin="miter" fill="none" stroke="#000000" d="M72.8437 22.67758C72.8437 27.8398 68.65901 32.02449 63.4968 32.02449 58.3346 32.02449 54.1499 27.8398 54.1499 22.67758 54.1499 17.51538 58.3346 13.33069 63.4968 13.33069 68.65901 13.33069 72.8437 17.51538 72.8437 22.67758ZM63.4968 22.67758"/>
<use data-text="T" xlink:href="#font_1_104" transform="matrix(7.9705779,0,0,-7.9701,62.500608,13.727999)"/>
<use data-text="T" xlink:href="#font_1_104" transform="matrix(7.9705779,0,0,-7.9701,68.614048,13.727999)"/>
<path transform="matrix(1.00006,0,0,-1,5.113167,33.711999)" stroke-width=".79701" stroke-linecap="butt" stroke-miterlimit="10" stroke-linejoin="miter" fill="none" stroke="#000000" d="M38.82288 22.01259 53.95573 22.41852"/>
<use data-text="1" xlink:href="#font_2_1" transform="matrix(4.9815986,0,0,-4.9813,49.810846,17.096999)"/>
<path transform="matrix(1.00006,0,0,-1,-37.503389,.06299782)" stroke-width=".3387" stroke-linecap="butt" stroke-miterlimit="10" stroke-linejoin="miter" fill="none" stroke="#000000" d="M87.309-17.968H90.699"/>
<use data-text="2" xlink:href="#font_2_2" transform="matrix(4.9815986,0,0,-4.9813,49.810846,22.174998)"/>
<path transform="matrix(1.00006,0,0,-1,5.113167,33.711999)" stroke-width=".79701" stroke-linecap="butt" stroke-miterlimit="10" stroke-linejoin="miter" fill="none" stroke="#000000" d="M72.977 20.97667C72.977 26.21251 68.73264 30.45686 63.4968 30.45686 58.26097 30.45686 54.0166 26.21251 54.0166 20.97667 54.0166 15.74083 58.26097 11.49648 63.4968 11.49648 68.73264 11.49648 72.977 15.74083 72.977 20.97667ZM63.4968 20.97667"/>
<use data-text="T" xlink:href="#font_1_104" transform="matrix(7.9705779,0,0,-7.9701,62.3846,15.456999)"/>
<use data-text="H" xlink:href="#font_1_62" transform="matrix(7.9705779,0,0,-7.9701,68.49803,15.456999)"/>
<path transform="matrix(1.00006,0,0,-1,5.113167,33.711999)" stroke-width=".79701" stroke-linecap="butt" stroke-miterlimit="10" stroke-linejoin="miter" fill="none" stroke="#000000" d="M38.82288 21.64162 53.82251 21.23932"/>
<use data-text="1" xlink:href="#font_2_1" transform="matrix(4.9815986,0,0,-4.9813,49.74384,4.801998)"/>
<path transform="matrix(1.00006,0,0,-1,-37.570394,-12.232002)" stroke-width=".3387" stroke-linecap="butt" stroke-miterlimit="10" stroke-linejoin="miter" fill="none" stroke="#000000" d="M87.309-17.968H90.699"/>
<use data-text="2" xlink:href="#font_2_2" transform="matrix(4.9815986,0,0,-4.9813,49.74384,9.879997)"/>
<use data-text="1" xlink:href="#font_2_1" transform="matrix(4.9815986,0,0,-4.9813,17.705918,16.419999)"/>
<path transform="matrix(1.00006,0,0,-1,-69.608318,-.6140022)" stroke-width=".3387" stroke-linecap="butt" stroke-miterlimit="10" stroke-linejoin="miter" fill="none" stroke="#000000" d="M87.309-17.968H90.699"/>
<use data-text="2" xlink:href="#font_2_2" transform="matrix(4.9815986,0,0,-4.9813,17.705918,21.497998)"/>
</svg>
