<svg xmlns="http://www.w3.org/2000/svg" xmlns:xlink="http://www.w3.org/1999/xlink" xmlns:inkscape="http://www.inkscape.org/namespaces/inkscape" version="1.1" width="294" height="127" viewBox="0 0 294 127">
<defs>
<path id="font_1_1" d="M.49198915 .40434266C.45498658 .39733888 .44400025 .3653412 .44400025 .3503418 .44400025 .33132936 .45799256 .31433106 .48298646 .31433106 .5109863 .31433106 .5379944 .33833314 .5379944 .3733368 .5379944 .41937257 .48799134 .4423828 .44099427 .4423828 .3809967 .4423828 .34599305 .38934327 .33399964 .3683319 .31498719 .41737367 .2709961 .4423828 .22299195 .4423828 .115997318 .4423828 .057998659 .31433106 .057998659 .28833009 .057998659 .2793274 .06498718 .2763214 .07199097 .2763214 .08099365 .2763214 .083999637 .2813263 .085998538 .287323 .116989139 .38633729 .18299866 .41737367 .22099304 .41737367 .25 .41737367 .27598573 .3983307 .27598573 .35133363 .27598573 .31533814 .23298645 .15530396 .21998596 .107284549 .21199036 .076293949 .18199158 .014251709 .1269989 .014251709 .10699463 .014251709 .085998538 .021270752 .07598877 .027282715 .102996829 .032287599 .12298584 .055282594 .12298584 .08128357 .12298584 .106292728 .10398865 .11729431 .084991458 .11729431 .055999757 .11729431 .02999878 .092285159 .02999878 .058288576 .02999878 .009246826 .083999637-.0107421879 .12599182-.0107421879 .18399048-.0107421879 .21798706 .03729248 .23298645 .06428528 .2579956-.0017547608 .31698609-.0107421879 .34399415-.0107421879 .45199586-.0107421879 .5089874 .11929321 .5089874 .14329529 .5089874 .14830017 .5059967 .15530396 .49598695 .15530396 .4850006 .15530396 .48399354 .1512909 .47898866 .1362915 .45700074 .06428528 .39898683 .014251709 .34700013 .014251709 .31799317 .014251709 .29100038 .032287599 .29100038 .08029175 .29100038 .10229492 .30499269 .15730286 .31399537 .1953125 .31799317 .21331787 .34498597 .32133485 .34700013 .32833863 .35899354 .3643341 .3889923 .41737367 .43998719 .41737367 .45799256 .41737367 .47698976 .41436769 .49198915 .40434266Z"/>
<path id="font_1_2" d="M.5019989 .38536073C.5029907 .3903656 .5049896 .39637757 .5049896 .40237428 .5049896 .41537477 .49598695 .43138124 .47399903 .43138124 .46099855 .43138124 .44299317 .42337037 .43499757 .40437318 .43399049 .40037538 .42399598 .35935975 .41799928 .33735658L.36799623 .13728333C.3600006 .10827637 .3600006 .106277469 .35798646 .09727478 .35699464 .09327698 .31498719 .014251709 .24299622 .014251709 .18099976 .014251709 .18099976 .07727051 .18099976 .09628296 .18099976 .14129639 .19400025 .19030762 .23699951 .30233766 .24499512 .3253479 .25099183 .33935548 .25099183 .35835267 .25099183 .40737916 .21398926 .4423828 .16499329 .4423828 .068984989 .4423828 .0289917 .30033876 .0289917 .28833009 .0289917 .2793274 .035995485 .27633668 .042999269 .27633668 .053985597 .27633668 .054992677 .28233338 .05899048 .29533387 .07998657 .3693695 .11999512 .41737367 .1619873 .41737367 .18598938 .41737367 .18598938 .39837647 .18598938 .3843689 .18598938 .36735536 .18199158 .34934999 .17298889 .3253479 .12599182 .2013092 .11299133 .15930176 .11299133 .11128235 .11299133 .00024414063 .20298767-.0107421879 .23999024-.0107421879 .2889862-.0107421879 .32398988 .01524353 .34199525 .0332489 .32899476-.017745972 .31799317-.0627594 .2789917-.11276245 .24899292-.15286255 .20899964-.18008423 .16499329-.18008423 .13699341-.18008423 .10398865-.16999817 .08999634-.14176941 .14299011-.14176941 .1499939-.09776306 .1499939-.087768558 .1499939-.06576538 .13398743-.051757814 .11199951-.051757814 .08799744-.051757814 .055999757-.07077026 .055999757-.116760257 .055999757-.16899109 .101989749-.20507813 .16499329-.20507813 .2669983-.20507813 .37599183-.117767337 .40499879-.00074768069L.5019989 .38536073Z"/>
<path id="font_2_82" d="M.43199159 0V.0309906H.3999939C.30699159 .0309906 .3039856 .042999269 .3039856 .08001709V.63912966C.3039856 .6640167 .30299378 .6660156 .27799989 .6660156 .21598816 .60227969 .12399292 .60227969 .09298706 .60227969V.57128909C.11199951 .57128909 .17298889 .57128909 .22698975 .5972748V.08001709C.22698975 .042999269 .22399903 .0309906 .1309967 .0309906H.09899902V0C.1349945 .0029907227 .22399903 .0029907227 .2649994 .0029907227 .30599977 .0029907227 .3959961 .0029907227 .43199159 0Z"/>
<path id="font_2_107" d="M.46199037 .17704773H.43399049C.43199159 .16404724 .42399598 .10501099 .41099549 .08900452 .40499879 .07998657 .33599855 .07998657 .31599427 .07998657H.13798523L.23699951 .17404175C.40098573 .3161316 .46199037 .36915589 .46199037 .4711914 .46199037 .5860901 .36698915 .6660156 .24398804 .6660156 .1289978 .6660156 .050994874 .575119 .050994874 .4841919 .050994874 .43418885 .09399414 .42919923 .102996829 .42919923 .125 .42919923 .15499878 .44519044 .15499878 .48120118 .15499878 .51119998 .13398743 .5332031 .102996829 .5332031 .09799194 .5332031 .09498596 .5332031 .09098816 .53219607 .114990238 .6030731 .1789856 .63500979 .23298645 .63500979 .33499146 .63500979 .36999513 .5401764 .36999513 .4711914 .36999513 .36915589 .29299928 .28611756 .24499512 .23408509L.06199646 .035995485C.050994874 .024993897 .050994874 .022994996 .050994874 0H.43399049L.46199037 .17704773Z"/>
<path id="font_2_106" d="M.46998597 .17008972C.46998597 .25709535 .40098573 .33110047 .30499269 .35209657 .397995 .38710023 .44198609 .46009828 .44198609 .5290985 .44198609 .60606387 .35699464 .6660156 .25299073 .6660156 .14898682 .6660156 .070999149 .60705569 .070999149 .5310974 .070999149 .49809266 .09298706 .47909547 .12199402 .47909547 .15098572 .47909547 .17199707 .50009158 .17199707 .5290985 .17199707 .5640869 .147995 .57910159 .11399841 .57910159 .13999939 .6210327 .20098877 .64100649 .25 .64100649 .33299256 .64100649 .34899903 .5750885 .34899903 .52809146 .34899903 .49809266 .34298707 .45005799 .31799317 .41201783 .2869873 .36695863 .2519989 .36495973 .22299195 .36296083 .19799805 .36094667 .19599915 .36094667 .18798828 .36094667 .1789856 .35995484 .17098999 .35894776 .17098999 .34794618 .17098999 .33496095 .1789856 .33496095 .19599915 .33496095H.24299622C.32998658 .33496095 .36799623 .2646637 .36799623 .16937256 .36799623 .04145813 .2999878 .0055389406 .24899292 .0055389406 .22999573 .0055389406 .1329956 .010528564 .08799744 .0843811 .12399292 .07939148 .1519928 .10437012 .1519928 .13838196 .1519928 .17137146 .1269989 .19238281 .09799194 .19238281 .07299805 .19238281 .042999269 .17736817 .042999269 .13537598 .042999269 .046447755 .13598633-.022460938 .2519989-.022460938 .3769989-.022460938 .46998597 .06741333 .46998597 .16937256V.17008972Z"/>
<path id="font_2_57" d="M.48399354 .16503906V.19602967H.38198854V.649765C.38198854 .669754 .38198854 .6767578 .36299134 .6767578 .35099793 .6767578 .34999085 .67575076 .34098817 .6617584L.0289917 .19602967V.16503906H.3019867V.07901001C.3019867 .041992189 .29899598 .0309906 .22399903 .0309906H.20199585V0C.2649994 .0029907227 .33499146 .0029907227 .34199525 .0029907227 .34700013 .0029907227 .4189911 .0029907227 .48199464 0V.0309906H.45999146C.3849945 .0309906 .38198854 .041992189 .38198854 .07901001V.16503906H.48399354M.30799867 .19602967H.06098938L.30799867 .56581118V.19602967Z"/>
<path id="font_2_56" d="M.46199037 .19992066C.46199037 .3209076 .37599183 .41992188 .2669983 .41992188 .21899414 .41992188 .16999817 .4039154 .1349945 .36791993V.5647888C.16499329 .55578616 .19599915 .55078127 .22698975 .55078127 .34999085 .55078127 .42199708 .63983157 .42199708 .6529236 .42199708 .6619873 .41600038 .6660156 .41099549 .6660156 .41099549 .6660156 .40699769 .6660156 .397995 .6609802 .35099793 .6418457 .30499269 .63378909 .2630005 .63378909 .21998596 .63378909 .1749878 .6418457 .1289978 .6609802 .11898804 .6660156 .115997318 .6660156 .115997318 .6660156 .10398865 .6660156 .10398865 .6559448 .10398865 .63882449V.34490968C.10398865 .32699586 .10398865 .31599427 .117996219 .31599427 .12599182 .31562806 .1289978 .3196411 .1349945 .32867433 .16499329 .37083436 .21299744 .39491273 .2649994 .39491273 .37199403 .39491273 .37199403 .24035645 .37199403 .20422364 .37199403 .17321778 .37199403 .11122131 .34399415 .06636047 .31698609 .024475098 .2749939 .0055389406 .23599243 .0055389406 .1769867 .0055389406 .10998535 .042419435 .085998538 .11621094 .085998538 .116882327 .09298706 .11488342 .099990848 .11488342 .11999512 .11488342 .14898682 .12788391 .14898682 .1638794 .14898682 .19488526 .1269989 .21289063 .099990848 .21289063 .07899475 .21289063 .050994874 .20088196 .050994874 .16088867 .050994874 .069732669 .1269989-.022460938 .23799134-.022460938 .35899354-.02279663 .46199037 .07521057 .46199037 .19921875V.19992066Z"/>
<path id="font_2_101" d="M.46998597 .20277405C.46998597 .32977296 .37799073 .42578126 .2649994 .42578126 .20498657 .42578126 .1619873 .3907776 .13398743 .33078004 .13398743 .43276979 .14498902 .4897766 .17199707 .54177859 .19198609 .58277896 .24099732 .64100649 .31498719 .64100649 .33499146 .64100649 .3809967 .63697817 .4039917 .6007843 .36698915 .6007843 .35099793 .5817871 .35099793 .55477908 .35099793 .5287781 .36898805 .50878909 .39698792 .50878909 .4249878 .50878909 .44400025 .5267792 .44400025 .55677798 .44400025 .61299136 .4039917 .6660156 .31298829 .6660156 .18399048 .6660156 .042999269 .5389252 .042999269 .31576539 .042999269 .044555665 .16499329-.022460938 .25898744-.022460938 .36999513-.022460938 .46998597 .07052612 .46998597 .2025299V.20277405M.3789978 .20353699C.3789978 .15553284 .3789978 .106536868 .3600006 .0695343 .32899476 .012527466 .2849884 .0055389406 .2579956 .0055389406 .20098877 .0055389406 .16799927 .05253601 .1559906 .08152771 .13699341 .12652588 .13598633 .20953369 .13598633 .2255249 .13598633 .2927704 .16699219 .4007721 .2630005 .4007721 .2789917 .4007721 .32798768 .4007721 .3600006 .33877564 .3789978 .300766 .3789978 .25177003 .3789978 .20376587V.20353699Z"/>
<path id="font_2_100" d="M.49899293 .6435547H.25C.12399292 .6435547 .12098694 .6566467 .117996219 .67578127H.08999634L.056991579 .46655274H.084991458C.08898926 .48954774 .09700012 .5455475 .10998535 .55755618 .116989139 .56355288 .19599915 .56355288 .20999146 .56355288H.41999818L.32398988 .4325409C.19400025 .25354005 .18199158 .090530399 .18199158 .03353882 .18199158 .022537232 .18199158-.022460938 .22799683-.022460938 .2749939-.022460938 .2749939 .021530152 .2749939 .03453064V.08354187C.2749939 .23054505 .29699708 .34654237 .34999085 .41854859L.48999024 .60954287C.49899293 .62054446 .49899293 .62254336 .49899293 .6435547Z"/>
<path id="font_2_51" d="M.46998597 .16764832C.46998597 .26472474 .3959961 .3127594 .37098695 .32876588 .3600006 .33677674 .33099366 .35479737 .31900025 .36180116 .36898805 .38581849 .44198609 .43585206 .44198609 .51690676 .44198609 .6109772 .34799195 .6660156 .2579956 .6660156 .15299988 .6660156 .070999149 .5909729 .070999149 .49890138 .070999149 .46087647 .084991458 .42485047 .10899353 .39582826 .12599182 .3768158 .13198853 .37280274 .18998719 .3357849 .101989749 .29374696 .042999269 .23269654 .042999269 .15063477 .042999269 .044555665 .147995-.022460938 .2559967-.022460938 .37199403-.022460938 .46998597 .059570314 .46998597 .16764832M.3939972 .51690676C.3939972 .44685365 .33399964 .40083314 .2939911 .37780763L.17199707 .45387269C.14199829 .47288514 .11898804 .4998932 .11898804 .53692629 .11898804 .6019745 .18899536 .64100649 .25498963 .64100649 .33198548 .64100649 .3939972 .58695986 .3939972 .51690676M.41600038 .1326294C.41600038 .05357361 .33599855 .0055389406 .25698854 .0055389406 .16999817 .0055389406 .09700012 .06758118 .09700012 .15063477 .09700012 .22268677 .14698792 .28274537 .21699524 .31877137L.34298707 .2407074C.3659973 .22569275 .41600038 .19366455 .41600038 .1326294Z"/>
<path id="font_2_78" d="M.46998597 .3287964C.46998597 .5999756 .34999085 .6660156 .2599945 .6660156 .14498902 .6660156 .042999269 .5729675 .042999269 .44187928 .042999269 .31478883 .1349945 .21875 .24798584 .21875 .32099916 .21875 .36099244 .27175904 .3789978 .31478883V.2927704C.3789978 .04875183 .2679901 .0055389406 .21099854 .0055389406 .18798828 .0055389406 .13699341 .009552002 .11099243 .042755128H.114990238C.12298584 .040740968 .1619873 .04875183 .1619873 .088760379 .1619873 .11476135 .14399719 .13476563 .115997318 .13476563 .08799744 .13476563 .068984989 .116760257 .068984989 .086761478 .068984989 .020629883 .12199402-.022460938 .21199036-.022460938 .34098817-.022460938 .46998597 .10975647 .46998597 .32888795V.3287964M.3769989 .42089845C.3769989 .34788514 .34399415 .2437439 .25 .2437439 .23399353 .2437439 .18499756 .2437439 .15299988 .30584718 .13398743 .34388734 .13398743 .3928833 .13398743 .4409027 .13398743 .48892213 .13398743 .5389557 .15499878 .5769806 .18499756 .628006 .22399903 .64100649 .2599945 .64100649 .32798768 .64100649 .35499574 .5719757 .35899354 .56196597 .37298585 .5249481 .3769989 .46391297 .3769989 .42089845Z"/>
<path id="font_3_121" d="M.45999146 .31976319C.45999146 .39982606 .45498658 .47988893 .41999818 .5539398 .37399293 .65000918 .2919922 .6660156 .25 .6660156 .18998719 .6660156 .116989139 .64001467 .07598877 .54693606 .04399109 .47789 .038986207 .39982606 .038986207 .31976319 .038986207 .24472046 .042999269 .15464783 .083999637 .07859802 .1269989-.0024719239 .19999695-.022460938 .24899292-.022460938 .30299378-.022460938 .3789978-.0014648438 .4229889 .09359741 .45498658 .16265869 .45999146 .2407074 .45999146 .31976319M.3769989 .3317871C.3769989 .25672914 .3769989 .18867493 .3659973 .12461853 .35099793 .029556275 .2939911-.00047302247 .24899292-.00047302247 .20999146-.00047302247 .15098572 .024551392 .1329956 .12062073 .12199402 .18066406 .12199402 .2727356 .12199402 .3317871 .12199402 .39582826 .12199402 .46188355 .12998963 .5159149 .14898682 .63500979 .22399903 .64401248 .24899292 .64401248 .28199769 .64401248 .34799195 .6259918 .36698915 .52693179 .3769989 .47088624 .3769989 .39482118 .3769989 .3317871Z"/>
<path id="font_4_1" d="M.48399354 .2983551C.48399354 .38616944 .4119873 .453125 .2579956 .453125 .20098877 .453125 .07299805 .45111085 .07299805 .3592224 .07299805 .3143158 .10699463 .29336549 .13798523 .29336549 .17199707 .29336549 .20298767 .31730653 .20298767 .3582306 .20298767 .3871765 .18598938 .40412904 .18299866 .407135 .19299317 .40911866 .21699524 .41311646 .2539978 .41311646 .32598878 .41311646 .36698915 .377182 .36698915 .2983551V.26641847C.20098877 .26641847 .032989503 .22340393 .032989503 .11224365 .032989503 .013137817 .1579895-.005859375 .22999573-.005859375 .30599977-.005859375 .35798646 .027130127 .3849945 .07418823 .3849945 .04815674 .3849945 .0001373291 .49198915 .0001373291H.54100039C.55999758 .0001373291 .57398989 .0001373291 .57398989 .025131226 .57398989 .04914856 .55799868 .04914856 .5479889 .04914856 .48399354 .05015564 .48399354 .060165407 .48399354 .084198V.2983551M.36698915 .13928223C.36698915 .03413391 .25099183 .03413391 .24699402 .03413391 .19599915 .03413391 .1539917 .06718445 .1539917 .11224365 .1539917 .14529419 .17199707 .22340393 .36698915 .23242188V.13928223Z"/>
<path id="font_4_2" d="M.21998596 .69433596 .040985109 .6863251V.6373291C.100997928 .6373291 .10899353 .6373291 .10899353 .5982971V.0001373291H.1599884L.20698548 .057144166C.23899842 .025131226 .28799439-.005859375 .35899354-.005859375 .5149994-.005859375 .61698916 .088134769 .61698916 .22216797 .61698916 .35717774 .519989 .4501953 .37199403 .4501953 .2919922 .4501953 .23899842 .41618348 .21998596 .40219117V.69433596M.22599793 .34617616C.25099183 .3781891 .29899598 .41018678 .3600006 .41018678 .48399354 .41018678 .48399354 .2901764 .48399354 .22416687 .48399354 .18215943 .48399354 .13014221 .46299745 .09414673 .42999269 .038131715 .36898805 .03413391 .34899903 .03413391 .2869873 .03413391 .24699402 .072143558 .22599793 .104141239V.34617616Z"/>
<path id="font_2_27" d="M.73599246 0V.0309906H.71899417C.6569977 .0309906 .6459961 .039978029 .6359863 .06794739L.40899659 .69480898C.4039917 .70780947 .40098573 .7158203 .3849945 .7158203 .36898805 .7158203 .36698915 .70980837 .36099244 .6938019L.1459961 .09989929C.13398743 .06694031 .11099243 .03199768 .033996583 .0309906V0C.07199097 .0029907227 .09899902 .0029907227 .13598633 .0029907227L.24899292 0V.0309906C.19198609 .03199768 .1749878 .06295776 .1749878 .08192444 .1749878 .090911868 .1769867 .09590149 .1789856 .10090637L.22599793 .22973633H.4850006L.5389862 .078933719C.54299929 .06893921 .5439911 .06594849 .5439911 .060958864 .5439911 .0309906 .48799134 .0309906 .46199037 .0309906V0C.5069885 .0029907227 .5589905 .0029907227 .6049957 .0029907227L.73599246 0M.47299195 .2607422H.23699951L.35499574 .5877838 .47299195 .2607422Z"/>
<path id="font_2_34" d="M.66999819 .18199158C.66999819 .27198792 .58299258 .34498597 .47200013 .35699464 .57099917 .37677003 .6409912 .43974305 .6409912 .51368716 .6409912 .6016388 .54499819 .6826172 .41299439 .6826172H.040985109V.6516113H.06399536C.14099121 .6516113 .14299011 .64060977 .14299011 .6036377V.07896423C.14299011 .041992189 .14099121 .0309906 .06399536 .0309906H.040985109V0H.44099427C.57598879-.00022888184 .66999819 .088760379 .66999819 .1817627V.18199158M.54499819 .51368716C.54499819 .4367218 .47799684 .36776734 .38398744 .36776734H.22698975V.6106262C.22698975 .64460757 .22898865 .6516113 .27598573 .6516113H.4059906C.5039978 .6517639 .54499819 .573761 .54499819 .5137634V.51368716M.57099917 .18388367C.57099917 .106933597 .5109863 .0309906 .4079895 .0309906H.27598573C.22898865 .0309906 .22698975 .037994386 .22698975 .07196045V.34277345H.41600038C.5319977 .34298707 .57099917 .24499512 .57099917 .18399048V.18388367Z"/>
<path id="font_2_80" d="M.7409973 .3387909C.7409973 .54296877 .58599856 .7050781 .39898683 .7050781 .21199036 .7050781 .056991579 .54196169 .056991579 .3387909 .056991579 .13563538 .21299744-.022460938 .39898683-.022460938 .58499148-.022460938 .7409973 .13563538 .7409973 .3387909M.6389923 .35380555C.6389923 .09559631 .5 .007537842 .39898683 .007537842 .2979889 .007537842 .15899658 .09559631 .15899658 .35380555 .15899658 .5980072 .3019867 .677063 .39898683 .677063 .49598695 .677063 .6389923 .5980072 .6389923 .35380555Z"/>
</defs>
<path transform="matrix(1.00009,0,0,-1.00006,15.016998,109.462848)" stroke-width=".19925" stroke-linecap="butt" stroke-miterlimit="10" stroke-linejoin="miter" fill="none" stroke="#d9d9d9" d="M0 0H255.12128M0 2.83484H255.12128M0 5.6697H255.12128M0 8.50455H255.12128M0 11.33939H255.12128M0 14.17424H255.12128M0 17.0091H255.12128M0 19.84393H255.12128M0 22.67879H255.12128M0 25.51364H255.12128M0 28.3485H255.12128M0 31.18333H255.12128M0 34.01819H255.12128M0 36.85304H255.12128M0 39.68788H255.12128M0 42.52274H255.12128M0 45.35759H255.12128M0 48.19244H255.12128M0 51.02728H255.12128M0 53.86214H255.12128M0 56.69699H255.12128M0 59.53183H255.12128M0 62.36668H255.12128M0 65.20154H255.12128M0 68.03639H255.12128M0 70.87123H255.12128M0 73.70609H255.12128M0 76.54094H255.12128M0 79.37578H255.12128M0 82.21063H255.12128M0 85.03552H255.12128M0 0V85.04042M2.83484 0V85.04042M5.6697 0V85.04042M8.50455 0V85.04042M11.33939 0V85.04042M14.17424 0V85.04042M17.0091 0V85.04042M19.84393 0V85.04042M22.67879 0V85.04042M25.51364 0V85.04042M28.3485 0V85.04042M31.18333 0V85.04042M34.01819 0V85.04042M36.85304 0V85.04042M39.68788 0V85.04042M42.52274 0V85.04042M45.35759 0V85.04042M48.19244 0V85.04042M51.02728 0V85.04042M53.86214 0V85.04042M56.69699 0V85.04042M59.53183 0V85.04042M62.36668 0V85.04042M65.20154 0V85.04042M68.03639 0V85.04042M70.87123 0V85.04042M73.70609 0V85.04042M76.54094 0V85.04042M79.37578 0V85.04042M82.21063 0V85.04042M85.04549 0V85.04042M87.88034 0V85.04042M90.71518 0V85.04042M93.55003 0V85.04042M96.38489 0V85.04042M99.21973 0V85.04042M102.05458 0V85.04042M104.88943 0V85.04042M107.72429 0V85.04042M110.55913 0V85.04042M113.39398 0V85.04042M116.22884 0V85.04042M119.06367 0V85.04042M121.89853 0V85.04042M124.73338 0V85.04042M127.56824 0V85.04042M130.40308 0V85.04042M133.23793 0V85.04042M136.07279 0V85.04042M138.90763 0V85.04042M141.74248 0V85.04042M144.57733 0V85.04042M147.41219 0V85.04042M150.24703 0V85.04042M153.08188 0V85.04042M155.91674 0V85.04042M158.75157 0V85.04042M161.58643 0V85.04042M164.42128 0V85.04042M167.25612 0V85.04042M170.09098 0V85.04042M172.92583 0V85.04042M175.76068 0V85.04042M178.59552 0V85.04042M181.43038 0V85.04042M184.26523 0V85.04042M187.10007 0V85.04042M189.93492 0V85.04042M192.76978 0V85.04042M195.60463 0V85.04042M198.43947 0V85.04042M201.27433 0V85.04042M204.10918 0V85.04042M206.94402 0V85.04042M209.77887 0V85.04042M212.61373 0V85.04042M215.44858 0V85.04042M218.28342 0V85.04042M221.11827 0V85.04042M223.95313 0V85.04042M226.78797 0V85.04042M229.62282 0V85.04042M232.45767 0V85.04042M235.29253 0V85.04042M238.12737 0V85.04042M240.96222 0V85.04042M243.79708 0V85.04042M246.63191 0V85.04042M249.46677 0V85.04042M252.30162 0V85.04042M255.12128 85.04042"/>
<path transform="matrix(1.00009,0,0,-1.00006,15.016998,109.462848)" stroke-width=".3985" stroke-linecap="butt" stroke-miterlimit="10" stroke-linejoin="miter" fill="none" stroke="#a6a6a6" d="M0 0H255.12128M0 28.3468H255.12128M0 56.69362H255.12128M0 85.03047H255.12128M0 0V85.04042M28.3468 0V85.04042M56.69362 0V85.04042M85.04042 0V85.04042M113.38724 0V85.04042M141.73404 0V85.04042M170.08086 0V85.04042M198.42766 0V85.04042M226.77448 0V85.04042M255.11133 0V85.04042M255.12128 85.04042"/>
<path transform="matrix(1.00009,0,0,-1.00006,15.016998,109.462848)" stroke-width=".79701" stroke-linecap="butt" stroke-miterlimit="10" stroke-linejoin="miter" fill="none" stroke="#000000" d="M0 0H268.49769"/>
<path transform="matrix(1.00009,0,0,-1.00006,283.93739,109.462848)" stroke-width=".79701" stroke-linecap="round" stroke-linejoin="round" fill="none" stroke="#000000" d="M-2.55046 3.11095C-2.0845 1.24435-1.04614 .36295 0 0-1.04614-.36295-2.0845-1.24435-2.55046-3.11095"/>
<use data-text="x" xlink:href="#font_1_1" transform="matrix(8.967207,0,0,-8.966938,288.05558,111.39296)"/>
<path transform="matrix(1.00009,0,0,-1.00006,15.016998,109.462848)" stroke-width=".79701" stroke-linecap="butt" stroke-miterlimit="10" stroke-linejoin="miter" fill="none" stroke="#000000" d="M0 0V98.41681"/>
<path transform="matrix(0,-1.00006,-1.00009,-0,15.016998,10.641617)" stroke-width=".79701" stroke-linecap="round" stroke-linejoin="round" fill="none" stroke="#000000" d="M-2.55046 3.11095C-2.0845 1.24435-1.04614 .36295 0 0-1.04614-.36295-2.0845-1.24435-2.55046-3.11095"/>
<use data-text="y" xlink:href="#font_1_2" transform="matrix(8.967207,0,0,-8.966938,12.586777,4.7805635)"/>
<path transform="matrix(1.00009,0,0,-1.00006,15.016998,109.462848)" stroke-width=".3985" stroke-linecap="butt" stroke-miterlimit="10" stroke-linejoin="miter" fill="none" stroke="#000000" d="M28.3468 5.66927V-5.66927"/>
<use data-text="1" xlink:href="#font_2_82" transform="matrix(8.967207,0,0,-8.966938,41.06134,124.624759)"/>
<path transform="matrix(1.00009,0,0,-1.00006,15.016998,109.462848)" stroke-width=".3985" stroke-linecap="butt" stroke-miterlimit="10" stroke-linejoin="miter" fill="none" stroke="#000000" d="M56.69362 5.66927V-5.66927"/>
<use data-text="2" xlink:href="#font_2_107" transform="matrix(8.967207,0,0,-8.966938,69.41089,124.624759)"/>
<path transform="matrix(1.00009,0,0,-1.00006,15.016998,109.462848)" stroke-width=".3985" stroke-linecap="butt" stroke-miterlimit="10" stroke-linejoin="miter" fill="none" stroke="#000000" d="M85.04042 5.66927V-5.66927"/>
<use data-text="3" xlink:href="#font_2_106" transform="matrix(8.967207,0,0,-8.966938,97.760448,124.624759)"/>
<path transform="matrix(1.00009,0,0,-1.00006,15.016998,109.462848)" stroke-width=".3985" stroke-linecap="butt" stroke-miterlimit="10" stroke-linejoin="miter" fill="none" stroke="#000000" d="M113.38724 5.66927V-5.66927"/>
<use data-text="4" xlink:href="#font_2_57" transform="matrix(8.967207,0,0,-8.966938,126.10999,124.72276)"/>
<path transform="matrix(1.00009,0,0,-1.00006,15.016998,109.462848)" stroke-width=".3985" stroke-linecap="butt" stroke-miterlimit="10" stroke-linejoin="miter" fill="none" stroke="#000000" d="M141.73404 5.66927V-5.66927"/>
<use data-text="5" xlink:href="#font_2_56" transform="matrix(8.967207,0,0,-8.966938,154.45954,124.624759)"/>
<path transform="matrix(1.00009,0,0,-1.00006,15.016998,109.462848)" stroke-width=".3985" stroke-linecap="butt" stroke-miterlimit="10" stroke-linejoin="miter" fill="none" stroke="#000000" d="M170.08086 5.66927V-5.66927"/>
<use data-text="6" xlink:href="#font_2_101" transform="matrix(8.967207,0,0,-8.966938,182.8081,124.624759)"/>
<path transform="matrix(1.00009,0,0,-1.00006,15.016998,109.462848)" stroke-width=".3985" stroke-linecap="butt" stroke-miterlimit="10" stroke-linejoin="miter" fill="none" stroke="#000000" d="M198.42766 5.66927V-5.66927"/>
<use data-text="7" xlink:href="#font_2_100" transform="matrix(8.967207,0,0,-8.966938,211.15766,124.71376)"/>
<path transform="matrix(1.00009,0,0,-1.00006,15.016998,109.462848)" stroke-width=".3985" stroke-linecap="butt" stroke-miterlimit="10" stroke-linejoin="miter" fill="none" stroke="#000000" d="M226.77448 5.66927V-5.66927"/>
<use data-text="8" xlink:href="#font_2_51" transform="matrix(8.967207,0,0,-8.966938,239.5072,124.624759)"/>
<path transform="matrix(1.00009,0,0,-1.00006,15.016998,109.462848)" stroke-width=".3985" stroke-linecap="butt" stroke-miterlimit="10" stroke-linejoin="miter" fill="none" stroke="#000000" d="M255.12128 5.66927V-5.66927"/>
<use data-text="9" xlink:href="#font_2_78" transform="matrix(8.967207,0,0,-8.966938,267.85676,124.624759)"/>
<path transform="matrix(1.00009,0,0,-1.00006,15.016998,109.462848)" stroke-width=".3985" stroke-linecap="butt" stroke-miterlimit="10" stroke-linejoin="miter" fill="none" stroke="#000000" d="M5.66927 28.3468H-5.66927"/>
<use data-text="1" xlink:href="#font_2_82" transform="matrix(8.967207,0,0,-8.966938,1.2177582,84.10033)"/>
<path transform="matrix(1.00009,0,0,-1.00006,15.016998,109.462848)" stroke-width=".3985" stroke-linecap="butt" stroke-miterlimit="10" stroke-linejoin="miter" fill="none" stroke="#000000" d="M5.66927 56.69362H-5.66927"/>
<use data-text="2" xlink:href="#font_2_107" transform="matrix(8.967207,0,0,-8.966938,1.2177582,55.751626)"/>
<path transform="matrix(1.00009,0,0,-1.00006,15.016998,109.462848)" stroke-width=".3985" stroke-linecap="butt" stroke-miterlimit="10" stroke-linejoin="miter" fill="none" stroke="#000000" d="M5.66927 85.04042H-5.66927"/>
<use data-text="3" xlink:href="#font_2_106" transform="matrix(8.967207,0,0,-8.966938,1.2177582,27.304917)"/>
<use data-text="0" xlink:href="#font_3_121" transform="matrix(9.963496,0,0,-9.963197,6.856262,125.287799)"/>
<path transform="matrix(1.00009,0,0,-1.00006,15.016998,109.462848)" stroke-width=".3985" stroke-linecap="butt" stroke-miterlimit="10" stroke-linejoin="miter" fill="none" stroke="#000000" d="M36.85092 55.55992 34.01591 49.88914"/>
<path transform="matrix(.44718025,-.89445367,-.8944805,-.44716684,49.03596,59.570726)" d="M6.15236 0C5.39682 .18257 2.07571 1.21715 0 2.34303V-2.34303C2.07571-1.21715 5.39682-.18257 6.15236 0Z"/>
<path transform="matrix(.44718025,-.89445367,-.8944805,-.44716684,49.03596,59.570726)" stroke-width=".3985" stroke-linecap="butt" stroke-miterlimit="10" stroke-linejoin="miter" fill="none" stroke="#000000" d="M6.15236 0C5.39682 .18257 2.07571 1.21715 0 2.34303V-2.34303C2.07571-1.21715 5.39682-.18257 6.15236 0Z"/>
<path transform="matrix(1.00009,0,0,-1.00006,15.016998,109.462848)" stroke-width=".3985" stroke-linecap="butt" stroke-miterlimit="10" stroke-linejoin="miter" fill="none" stroke="#000000" d="M68.03217 13.60632 62.61157 12.52182"/>
<path transform="matrix(.9805983,-.19621177,-.19621766,-.98056879,77.6342,96.94028)" d="M6.15236 0C5.39682 .18257 2.07571 1.21715 0 2.34303V-2.34303C2.07571-1.21715 5.39682-.18257 6.15236 0Z"/>
<path transform="matrix(.9805983,-.19621177,-.19621766,-.98056879,77.6342,96.94028)" stroke-width=".3985" stroke-linecap="butt" stroke-miterlimit="10" stroke-linejoin="miter" fill="none" stroke="#000000" d="M6.15236 0C5.39682 .18257 2.07571 1.21715 0 2.34303V-2.34303C2.07571-1.21715 5.39682-.18257 6.15236 0Z"/>
<path transform="matrix(1.00009,0,0,-1.00006,15.016998,109.462848)" stroke-width=".79701" stroke-linecap="butt" stroke-miterlimit="10" stroke-linejoin="miter" fill="none" stroke="#000000" d="M0 0 56.69362 85.04042"/>
<use data-text="a" xlink:href="#font_4_1" transform="matrix(8.967207,0,0,-8.966938,34.488756,68.93242)"/>
<path transform="matrix(1.00009,0,0,-1.00006,15.016998,109.462848)" stroke-width=".79701" stroke-linecap="butt" stroke-miterlimit="10" stroke-linejoin="miter" fill="none" stroke="#000000" d="M0 0 141.73404 28.3468"/>
<use data-text="b" xlink:href="#font_4_2" transform="matrix(8.967207,0,0,-8.966938,82.94311,105.23459)"/>
<path transform="matrix(1.00009,0,0,-1.00006,15.016998,109.462848)" stroke-width=".79701" stroke-linecap="butt" stroke-miterlimit="10" stroke-linejoin="miter" fill="none" stroke="#000000" d="M56.69362 85.04042 141.73404 28.3468"/>
<use data-text="A" xlink:href="#font_2_27" transform="matrix(8.967207,0,0,-8.966938,61.28216,20.897538)"/>
<use data-text="B" xlink:href="#font_2_34" transform="matrix(8.967207,0,0,-8.966938,160.28408,84.17633)"/>
<use data-text="O" xlink:href="#font_2_80" transform="matrix(8.967207,0,0,-8.966938,4.332039,122.1396)"/>
</svg>
