<svg xmlns="http://www.w3.org/2000/svg" xmlns:xlink="http://www.w3.org/1999/xlink" xmlns:inkscape="http://www.inkscape.org/namespaces/inkscape" version="1.1" width="188" height="195" viewBox="0 0 188 195">
<defs>
<path id="font_1_80" d="M.72099307 .3387909C.72099307 .5429535 .56999209 .7050781 .3880005 .7050781 .20899964 .7050781 .055999757 .5449524 .055999757 .3387909 .055999757 .13363648 .20999146-.022460938 .3880005-.022460938 .56999209-.022460938 .72099307 .13664246 .72099307 .3387909M.6179962 .35281373C.6179962 .08760071 .48098756 .0035247803 .3889923 .0035247803 .29299928 .0035247803 .15899658 .09159851 .15899658 .35281373 .15899658 .6120148 .30499269 .68006899 .3880005 .68006899 .47499085 .68006899 .6179962 .6090088 .6179962 .35281373Z"/>
<path id="font_1_42" d="M.6649933 .23271179C.6649933 .24272156 .6649933 .24972534 .6519928 .24972534 .6409912 .24972534 .6409912 .24372864 .6399994 .23371887 .6319885 .09059143 .5249939 .008529663 .41600038 .008529663 .35499574 .008529663 .15899658 .042556764 .15899658 .34080506 .15899658 .64004519 .35398866 .67407229 .4149933 .67407229 .5239868 .67407229 .61299136 .58299258 .6329956 .4368744 .6349945 .42286683 .6349945 .41986085 .6489868 .41986085 .6649933 .41986085 .6649933 .42286683 .6649933 .44387818V.68107607C.6649933 .69807437 .6649933 .7050781 .6539917 .7050781 .6499939 .7050781 .6459961 .7050781 .6380005 .69306948L.58799746 .61901858C.5509949 .6550598 .5 .7050781 .4039917 .7050781 .21699524 .7050781 .055999757 .5459595 .055999757 .34179688 .055999757 .1346283 .21798706-.022460938 .4039917-.022460938 .5669861-.022460938 .6649933 .116622928 .6649933 .23271179Z"/>
<path id="font_1_502" d="M.20599365 .58932498C.20599365 .6493225 .18199158 .69433596 .13899231 .69433596 .10398865 .69433596 .085998538 .6673279 .085998538 .6413269 .085998538 .6153259 .102996829 .58833315 .13899231 .58833315 .15899658 .58833315 .17298889 .59832766 .1789856 .60432437 .17999268 .60632327 .18199158 .6073303 .18199158 .6073303 .18199158 .6073303 .18399048 .59332278 .18399048 .58932498 .18399048 .5573578 .1769867 .4854126 .11399841 .42347718 .101989749 .41148377 .101989749 .40948487 .101989749 .40649415 .101989749 .39949037 .10699463 .3955078 .11199951 .3955078 .12298584 .3955078 .20599365 .47143556 .20599365 .58932498Z"/>
<path id="font_1_27" d="M.71699526 0V.0309906H.69898989C.6389923 .0309906 .625 .037979127 .6139984 .07095337L.397995 .6958008C.3929901 .7088165 .3909912 .7158203 .375 .7158203 .35899354 .7158203 .35598756 .70980837 .35099793 .6958008L.14399719 .09791565C.12599182 .04698181 .085998538 .03199768 .03199768 .0309906V0L.13398743 .0029907227 .24899292 0V.0309906C.19898987 .0309906 .17399597 .05596924 .17399597 .0819397 .17399597 .08493042 .1749878 .09492493 .17599488 .09692383L.22200012 .2277832H.46899415L.5219879 .07495117C.522995 .07095337 .5249939 .064956668 .5249939 .060958864 .5249939 .0309906 .46899415 .0309906 .44198609 .0309906V0C.47799684 .0029907227 .5479889 .0029907227 .58599856 .0029907227L.71699526 0M.45799256 .25878907H.23298645L.34498597 .58380129 .45799256 .25878907Z"/>
<path id="font_1_34" d="M.651001 .18289185C.651001 .26983644 .56900027 .34480287 .45799256 .35679627 .5549927 .3757782 .6239929 .43974305 .6239929 .51368716 .6239929 .6006317 .5319977 .6826172 .4019928 .6826172H.035995485V.6516113H.05999756C.13699341 .6516113 .13899231 .64060977 .13899231 .6046295V.07795715C.13899231 .041992189 .13699341 .0309906 .05999756 .0309906H.035995485V0H.42799378C.5609894-.0002593994 .651001 .08874512 .651001 .18273926V.18289185M.5269928 .5136719C.5269928 .44970704 .47799684 .36573792 .36698915 .36573792H.22200012V.6116333C.22200012 .64460757 .22399903 .6516113 .2709961 .6516113H.394989C.49198915 .65174868 .5269928 .56674197 .5269928 .51374819V.5136719M.5509949 .18386841C.5509949 .1129303 .49899293 .0309906 .3959961 .0309906H.2709961C.22399903 .0309906 .22200012 .037994386 .22200012 .07095337V.34375H.4099884C.5089874 .34399415 .5509949 .25099183 .5509949 .18399048V.18386841Z"/>
</defs>
<path transform="matrix(1.00005,0,0,-1.00002,12.488869,182.6544)" stroke-width=".79701" stroke-linecap="butt" stroke-miterlimit="10" stroke-linejoin="miter" fill="none" stroke="#0000ff" d="M85.04042 0 62.36288 31.18166 70.867 85.04042Z"/>
<path transform="matrix(1.00005,0,0,-1.00002,12.488869,182.6544)" stroke-width=".79701" stroke-linecap="butt" stroke-miterlimit="10" stroke-linejoin="miter" fill="none" stroke="#00aeef" d="M170.08086 0 124.72578 62.36288 141.73404 170.08086Z"/>
<path transform="matrix(1.00005,0,0,-1.00002,12.488869,182.6544)" stroke-width=".79701" stroke-linecap="butt" stroke-dasharray="2.98883,2.98883" stroke-miterlimit="10" stroke-linejoin="miter" fill="none" stroke="#000000" d="M0 0 62.36288 31.18166 124.72578 62.36288"/>
<path transform="matrix(1.00005,0,0,-1.00002,12.488869,182.6544)" stroke-width=".79701" stroke-linecap="butt" stroke-dasharray="2.98883,2.98883" stroke-miterlimit="10" stroke-linejoin="miter" fill="none" stroke="#000000" d="M0 0 70.867 85.04042 141.73404 170.08086"/>
<path transform="matrix(1.00005,0,0,-1.00002,12.488869,182.6544)" d="M85.04042 0 62.36288 31.18166 70.867 85.04042Z" fill="#8080ff" fill-opacity=".6"/>
<path transform="matrix(1.00005,0,0,-1.00002,12.488869,182.6544)" d="M170.08086 0 124.72578 62.36288 141.73404 170.08086Z" fill="#6dcff6" fill-opacity=".6"/>
<use data-text="O" xlink:href="#font_1_80" transform="matrix(9.963098,0,0,-9.962799,1.217308,178.91533)"/>
<use data-text="C" xlink:href="#font_1_42" transform="matrix(9.963098,0,0,-9.962799,93.936939,193.19861)"/>
<use data-text="C" xlink:href="#font_1_42" transform="matrix(9.963098,0,0,-9.962799,177.5961,193.19861)"/>
<use data-text="&#x2019;" xlink:href="#font_1_502" transform="matrix(9.963098,0,0,-9.962799,184.78946,193.19861)"/>
<use data-text="A" xlink:href="#font_1_27" transform="matrix(9.963098,0,0,-9.962799,79.623218,94.092639)"/>
<use data-text="A" xlink:href="#font_1_27" transform="matrix(9.963098,0,0,-9.962799,149.1087,9.049927)"/>
<use data-text="&#x2019;" xlink:href="#font_1_502" transform="matrix(9.963098,0,0,-9.962799,156.58103,9.049927)"/>
<use data-text="B" xlink:href="#font_1_34" transform="matrix(9.963098,0,0,-9.962799,64.28046,154.87485)"/>
<use data-text="B" xlink:href="#font_1_34" transform="matrix(9.963098,0,0,-9.962799,140.74127,123.74722)"/>
<use data-text="&#x2019;" xlink:href="#font_1_502" transform="matrix(9.963098,0,0,-9.962799,147.79515,123.74722)"/>
</svg>
