<svg xmlns="http://www.w3.org/2000/svg" xmlns:xlink="http://www.w3.org/1999/xlink" xmlns:inkscape="http://www.inkscape.org/namespaces/inkscape" version="1.1" width="314" height="220" viewBox="0 0 314 220">
<defs>
<path id="font_1_95" d="M.8829956 .09687805C.8829956 .11882019 .8679962 .12080383 .8569946 .12080383 .83399966 .12080383 .83299258 .10684204 .83200076 .09687805 .82699587 .04798889 .79599 .027999878 .7679901 .027999878 .70799258 .027999878 .69999697 .087890628 .6879883 .17367554 .6769867 .2474823 .66999819 .30134584 .57099917 .3383026 .6559906 .3623047 .73799136 .41534425 .73799136 .49942018 .73799136 .60450747 .6199951 .6855469 .43099977 .6855469H.041992189V.63653567H.1499939V.04899597H.041992189V0C.07798767 .0029907227 .17799378 .0029907227 .21899414 .0029907227 .2599945 .0029907227 .36099244 .0029907227 .39698792 0V.04899597H.2889862V.32229615H.4119873C.45298768 .32229615 .47999574 .31332398 .5089874 .2834015 .5369873 .25546266 .5369873 .23153687 .5369873 .16470337 .5369873 .10185242 .5369873 .054977418 .5970001 .019989014 .6409912-.005004883 .70399478-.012008667 .7589874-.012008667 .8659973-.012008667 .8829956 .074920658 .8829956 .09687805M.58099368 .49942018C.58099368 .44236756 .57899478 .3623047 .41299439 .3623047H.2889862V.63653567H.4149933C.5779877 .63653567 .58099368 .5594635 .58099368 .49942018Z"/>
<path id="font_1_28" d="M.56900027 .025131226C.56900027 .0491333 .5529938 .0491333 .54299929 .0491333 .47898866 .050125123 .47898866 .060134889 .47898866 .08413696V.29812623C.47898866 .38612367 .40699769 .453125 .25299073 .453125 .19599915 .453125 .067993167 .45111085 .067993167 .3591156 .067993167 .31411744 .101989749 .29312135 .1329956 .29312135 .16699219 .29312135 .19799805 .3171234 .19799805 .35812379 .19799805 .38711549 .18099976 .40411378 .17799378 .40711976 .18798828 .40911866 .21199036 .41311646 .24899292 .41311646 .32099916 .41311646 .3619995 .37712098 .3619995 .29812623V.26612855C.19599915 .26612855 .027999878 .22312927 .027999878 .11213684 .027999878 .013137817 .15299988-.005859375 .22499085-.005859375 .30099488-.005859375 .35299684 .027130127 .37998963 .0741272 .37998963 .04798889 .37998963 0 .4869995 0H.5359955C.5549927 0 .56900027 0 .56900027 .024993897V.025131226M.3619995 .13899231C.3619995 .033996583 .24598694 .033996583 .24198914 .033996583 .19099427 .033996583 .14898682 .066986087 .14898682 .11199951 .14898682 .14498902 .16699219 .22299195 .3619995 .23199463V.13899231Z"/>
<path id="font_1_66" d="M.2919922 0V.04899597H.23098755V.4501953L.054992677 .4423828V.39337159C.11299133 .39337159 .11999512 .39337159 .11999512 .3543396V.04899597H.051986696V0C.11898804 .0019989014 .13198853 .0029907227 .17399597 .0029907227 .22299195 .0029907227 .23599243 .0019989014 .2919922 0M.24198914 .6053314C.24198914 .65234377 .20399475 .68434146 .1639862 .68434146 .12199402 .68434146 .085998538 .6503296 .085998538 .6063385 .085998538 .55934146 .12399292 .52734377 .1639862 .52734377 .20599365 .52734377 .24198914 .56134036 .24198914 .6053314Z"/>
<path id="font_1_77" d="M.6299896-.0002746582V.048721315H.56199648V.30471803C.56199648 .4237213 .48999024 .4497223 .40299989 .4497223 .27999879 .4497223 .23098755 .35972596 .22399903 .34472657H.22299195V.4497223L.049987794 .44172669V.39271546C.10998535 .39271546 .117996219 .39271546 .117996219 .353714V.048721315H.049987794V-.0002746582L.17599488 .0027160645 .30299378-.0002746582V.048721315H.23498535V.25372315C.23498535 .36572267 .32699586 .40971376 .3869934 .40971376 .4249878 .40971376 .44499208 .38871766 .44499208 .3137207V.048721315H.3769989V-.0002746582L.5029907 .0027160645 .6299896-.0002746582Z"/>
<path id="font_1_55" d="M.45098878 .6111908C.45098878 .65615847 .4119873 .70014956 .33399964 .70014956 .22898865 .70014956 .12098694 .65515139 .12098694 .5432434V.44433595H.04399109V.3953247H.12098694V.04899597H.052993776V0L.18099976 .0029907227C.20599365 .0029907227 .2639923 .0029907227 .31698609 0V.04899597H.23199463V.3953247H.35099793V.44433595H.22599793V.5432434C.22599793 .65216067 .3039856 .66015627 .32899476 .66015627 .33198548 .66015627 .34199525 .65815737 .34199525 .65815737 .34199525 .65815737 .34199525 .65615847 .33999635 .65415957 .32899476 .6411438 .32398988 .6271515 .32398988 .611145 .32398988 .56915286 .35798646 .54714968 .3869934 .54714968 .41999818 .54714968 .45098878 .57115176 .45098878 .611145V.6111908Z"/>
<path id="font_1_72" d="M.29899598 0V.04899597H.23098755V.69433596L.051986696 .6855469V.63653567C.11199951 .63653567 .11999512 .63653567 .11999512 .5975647V.04899597H.051986696V0L.1749878 .0029907227 .29899598 0Z"/>
<path id="font_1_85" d="M.3929901-.23400879C.3929901-.22801209 .3899994-.2250061 .37799073-.2130127 .24699402-.0900116 .21099854 .08799744 .21099854 .25 .21099854 .4169922 .25 .59098818 .37399293 .71099856 .3919983 .7279968 .3929901 .72898867 .3929901 .7350006 .3929901 .746994 .38198854 .75 .37298585 .75 .35198976 .75 .29899598 .69999697 .28799439 .68899539 .18798828 .5950012 .10998535 .43998719 .10998535 .25 .10998535 .008987427 .23199463-.13800049 .28399659-.18701172 .2919922-.19400025 .35099793-.25 .37298585-.25 .3769989-.25 .3929901-.25 .3929901-.23400879Z"/>
<path id="font_1_75" d="M.95899966-.0002746582V.048721315H.8909912V.30471803C.8909912 .42271424 .81999209 .4497223 .7319946 .4497223 .6279907 .4497223 .57699587 .38671876 .55799868 .3557129 .5359955 .4457245 .44799806 .4497223 .4039917 .4497223 .27999879 .4497223 .23098755 .35972596 .22399903 .34472657H.22299195V.4497223L.049987794 .44172669V.39271546C.10998535 .39271546 .117996219 .39271546 .117996219 .353714V.048721315H.049987794V-.0002746582L.17599488 .0027160645 .30299378-.0002746582V.048721315H.23498535V.25372315C.23498535 .36471559 .32699586 .40971376 .3869934 .40971376 .4249878 .40971376 .44599916 .38972474 .44599916 .3137207V.048721315H.37799073V-.0002746582L.5039978 .0027160645 .6309967-.0002746582V.048721315H.5629883V.25372315C.5629883 .36471559 .6549988 .40971376 .71499636 .40971376 .7529907 .40971376 .7739868 .38972474 .7739868 .3137207V.048721315H.70599368V-.0002746582L.83200076 .0027160645 .95899966-.0002746582Z"/>
<path id="font_1_86" d="M.34899903 .25C.34899903 .4909973 .22698975 .6380005 .1749878 .68699648 .16699219 .69400027 .10798645 .75 .085998538 .75 .07899475 .75 .06599426 .7480011 .06599426 .73399356 .06599426 .7279968 .069992069 .723999 .07998657 .71398928 .20199585 .59599307 .24798584 .43699647 .24798584 .25 .24798584 .08299255 .20899964-.09100342 .084991458-.2110138 .066986087-.22801209 .06599426-.2290039 .06599426-.23400879 .06599426-.2480011 .07798767-.25 .085998538-.25 .10699463-.25 .1599884-.2000122 .17098999-.18901062 .2709961-.09500122 .34899903 .05999756 .34899903 .25Z"/>
<path id="font_1_54" d="M.69400027 .43711854 .6629944 .67985537H.041992189V.6308594H.1499939V.04899597H.041992189V0C.07699585 .0029907227 .18598938 .0029907227 .22799683 .0029907227 .2749939 .0029907227 .3889923 .0029907227 .42999269 0V.04899597H.29499818V.31622315H.34899903C.44599916 .31622315 .45498658 .27319337 .45498658 .1991272H.5059967V.48205567H.45498658C.45498658 .4081726 .44599916 .36523438 .34899903 .36523438H.29499818V.6308594H.44198609C.6029968 .6308594 .6279907 .555954 .6429901 .43711854H.69400027Z"/>
<path id="font_1_96" d="M.45498658 .36618043C.45498658 .41719056 .40299989 .4501953 .34399415 .4501953 .27398683 .4501953 .23098755 .39918519 .20899964 .34118653H.20799256V.4501953L.040985109 .4423828V.39337159C.100997928 .39337159 .10899353 .39337159 .10899353 .3543396V.04899597H.040985109V0L.16899109 .0029907227C.19400025 .0029907227 .2519989 .0029907227 .30499269 0V.04899597H.21998596V.21818543C.21998596 .29125978 .24699402 .40737916 .34399415 .41036988 .33299256 .39898683 .32798768 .38198854 .32798768 .3659973 .32798768 .32199098 .36299134 .3019867 .3909912 .3019867 .4229889 .3019867 .45498658 .32398988 .45498658 .3659973V.36618043Z"/>
<path id="font_1_50" d="M.5089874 .11605835C.5089874 .13604737 .4889984 .13604737 .48298646 .13604737 .46499635 .13604737 .46299745 .13005066 .45700074 .11605835 .43399049 .06410217 .37298585 .037139894 .30999757 .037139894 .16799927 .037139894 .1659851 .16601563 .1659851 .21496582H.47599793C.49699403 .21496582 .5089874 .21496582 .5089874 .2429657 .5089874 .26498414 .5069885 .35305787 .44198609 .4071045 .39698792 .4441223 .33699037 .453125 .28799439 .453125 .116989139 .453125 .032989503 .345047 .032989503 .22497559 .032989503 .09408569 .13198853-.005859375 .3019867-.005859375 .46699525-.005859375 .5089874 .1000824 .5089874 .11605835M.41099549 .25097657H.1659851C.16799927 .29701234 .17298889 .41311646 .28799439 .41311646 .40499879 .41311646 .40899659 .29100038 .41099549 .25097657Z"/>
<path id="font_1_91" d="M.6159973-.19354248V-.14453125H.5479889V.4501953H.5029907L.45199586 .37217713C.4119873 .42118836 .3619995 .4501953 .29599 .4501953 .13899231 .4501953 .038986207 .35517884 .038986207 .22216797 .038986207 .089141849 .1349945-.005859375 .28599549-.005859375 .33898927-.005859375 .3909912 .013137817 .43099977 .0491333V-.14453125H.36299134V-.19354248L.4889984-.1905365 .6159973-.19354248M.43699647 .14814759C.43699647 .12915039 .43699647 .12814331 .4249878 .10914612 .3889923 .054138185 .33898927 .03413391 .29699708 .03413391 .22999573 .03413391 .17199707 .09414673 .17199707 .22116089 .17199707 .25315858 .1749878 .3061676 .20399475 .35017396 .24099732 .40518189 .29599 .4071808 .30799867 .4071808 .3889923 .4071808 .43699647 .32717896 .43699647 .27816773V.14814759Z"/>
<path id="font_1_109" d="M.6299896 0V.04899597C.56999209 .04899597 .56199648 .04899597 .56199648 .088012699V.4501953L.3769989 .4423828V.39337159C.43699647 .39337159 .44499208 .39337159 .44499208 .35437013V.16433716C.44499208 .08433533 .3929901 .03413391 .31599427 .03413391 .23899842 .03413391 .23498535 .056259157 .23498535 .10932922V.4501953L.049987794 .4423828V.39337159C.10998535 .39337159 .117996219 .39337159 .117996219 .35437013V.12333679C.117996219 .014129639 .20399475-.005859375 .30099488-.005859375 .33198548-.005859375 .3999939-.005859375 .45098878 .06933594V-.005859375L.6299896 0Z"/>
<path id="font_1_43" d="M.49198915 .11613464C.49198915 .13212586 .47698976 .13212586 .46598817 .13212586 .44599916 .13212586 .44599916 .13113404 .43798829 .11312866 .41799928 .06512451 .37298585 .037139894 .31399537 .037139894 .17199707 .037139894 .17199707 .18112183 .17199707 .22612 .17199707 .28611756 .17298889 .41011048 .3039856 .41011048 .31098939 .41011048 .36499024 .40911866 .36499024 .40411378L.3619995 .39912416C.35299684 .38812257 .34899903 .3721161 .34899903 .35812379 .34899903 .3171234 .37998963 .29312135 .4139862 .29312135 .44499208 .29312135 .47898866 .31411744 .47898866 .3591156 .47898866 .453125 .33898927 .453125 .2999878 .453125 .10798645 .453125 .038986207 .33111573 .038986207 .22212219 .038986207 .09613037 .1289978-.005859375 .29499818-.005859375 .33198548-.005859375 .3809967 .0001373291 .4229889 .026138306 .47999574 .06098938 .49198915 .11299133 .49198915 .115997318V.11613464Z"/>
<path id="font_1_118" d="M.59599307 .3953247V.44433595C.56799319 .44132997 .54299929 .44132997 .5149994 .44132997 .4850006 .44132997 .45399476 .44232179 .4249878 .44433595V.3953247C.4249878 .3953247 .46899415 .3953247 .46899415 .38331605 .46899415 .38331605 .46899415 .38131715 .46398927 .37130738L.34498597 .12709046 .21499634 .3953247H.2659912V.44433595L.14299011 .44132997C.10699463 .44132997 .08699036 .44132997 .027999878 .44433595V.3953247H.09098816L.2829895-.000015258789C.24798584-.082092288 .20999146-.16015625 .1329956-.16015625 .1269989-.16015625 .12098694-.16015625 .11399841-.15716553 .1309967-.14814759 .14299011-.13014221 .14299011-.1051178 .14299011-.06707764 .114990238-.045059205 .08299255-.045059205 .050994874-.045059205 .022994996-.06707764 .022994996-.1051178 .022994996-.15916443 .07299805-.2001648 .13198853-.2001648 .20999146-.2001648 .27198792-.14215088 .30299378-.0770874L.5219879 .37330628C.5289917 .38832093 .5329895 .3953247 .59599307 .3953247Z"/>
<path id="font_1_46" d="M.83999636 .33776856C.83999636 .5496063 .69299319 .6855469 .48298646 .6855469H.041992189V.63653567H.1499939V.04899597H.041992189V0H.48399354C.68299868 0 .83999636 .12094116 .83999636 .33776856M.68899539 .33776856C.68899539 .24084473 .68899539 .04899597 .44198609 .04899597H.2889862V.63653567H.44099427C.519989 .63653567 .59399417 .611557 .6380005 .55659487 .6819916 .50064089 .68899539 .42970277 .68899539 .33776856Z"/>
<path id="font_1_98" d="M.4269867 .14027405C.4269867 .19128418 .397995 .22328186 .37998963 .23828125 .33499146 .27627564 .30299378 .28128053 .22399903 .294281 .17599488 .3022766 .11299133 .31228639 .11299133 .35728456 .11299133 .41711427 .20599365 .41711427 .22799683 .41711427 .33999635 .41711427 .34399415 .35827638 .34599305 .33128358 .34700013 .3173828 .36099244 .3173828 .37098695 .3173828 .3959961 .3173828 .39698792 .32237245 .39698792 .3463745V.42411805C.39698792 .4421234 .39698792 .453125 .3769989 .453125 .36698915 .453125 .35099793 .44511415 .33299256 .43511964 .30099488 .44911195 .2619934 .453125 .22898865 .453125 .19799805 .4532776 .038986207 .4532776 .038986207 .32128907 .038986207 .2162323 .16999817 .19421387 .20498657 .18821717 .2869873 .1742096 .35299684 .16320801 .35299684 .106170658 .35299684 .03413391 .25898744 .03413391 .23699951 .03413391 .18598938 .03413391 .12098694 .0471344 .09199524 .13919068 .08699036 .15620423 .085998538 .15919495 .06498718 .15919495 .038986207 .15919495 .038986207 .15319824 .038986207 .12918091V.023132325C.038986207 .005126953 .038986207-.005859375 .05899048-.005859375 .06599426-.005859375 .067993167-.005859375 .08999634 .008132935L.116989139 .025131226C.1639862-.005859375 .21699524-.005859375 .23699951-.005859375 .2669983-.005859375 .4269867-.005859375 .4269867 .1401825V.14027405Z"/>
<path id="font_1_105" d="M.3929901 .123184207V.1762085H.34199525V.12617493C.34199525 .055145265 .30599977 .037139894 .2809906 .037139894 .22299195 .037139894 .22299195 .09716797 .22299195 .1211853V.3953247H.37399293V.44433595H.22299195V.6357422H.17199707C.17098999 .5415344 .12399292 .43832398 .021987915 .43533326V.3953247H.10598755V.123184207C.10598755 .009140015 .20498657-.005859375 .2669983-.005859375 .34498597-.005859375 .3929901 .05014038 .3929901 .123184207Z"/>
<path id="font_2_56" d="M.44898988 .20091248C.44898988 .31991578 .36698915 .41992188 .25898744 .41992188 .21099854 .41992188 .16799927 .4039154 .13198853 .36891175V.5641022C.1519928 .55778506 .18499756 .55078127 .21699524 .55078127 .33999635 .55078127 .4099884 .6418457 .4099884 .65493777 .4099884 .6609802 .40699769 .6660156 .3999939 .6660156 .3999939 .66607668 .39698792 .66607668 .3919983 .66308596 .37199403 .65408328 .32299806 .63378909 .2559967 .63378909 .21598816 .63409426 .16999817 .641098 .12298584 .6621094 .114990238 .6651001 .11099243 .6651001 .11099243 .6651001 .100997928 .66508486 .100997928 .657074 .100997928 .64108279V.3447113C.100997928 .3266449 .100997928 .31861878 .114990238 .31861878 .12199402 .31861878 .12399292 .32164 .12799073 .32765199 .13899231 .34371949 .17599488 .3979187 .25698854 .3979187 .30899049 .3979187 .33399964 .3517456 .34199525 .3336792 .35798646 .2965393 .3600006 .2574005 .3600006 .20721436 .3600006 .17218018 .3600006 .112197879 .33599855 .07032776 .31199647 .031448366 .2749939 .0055389406 .22898865 .0055389406 .1559906 .0055389406 .09899902 .05836487 .08198547 .1171875 .084991458 .11685181 .08799744 .115859989 .09899902 .115859989 .13198853 .115859989 .14898682 .14085388 .14898682 .16485596 .14898682 .18885803 .13198853 .21386719 .09899902 .21386719 .084991458 .21386719 .049987794 .2068634 .049987794 .16085816 .049987794 .07432556 .11898804-.022460938 .23098755-.022460938 .34700013-.022460938 .44898988 .07331848 .44898988 .20019531V.20091248Z"/>
<path id="font_2_82" d="M.4189911 0V.0309906H.3869934C.29699708 .0309906 .2939911 .041992189 .2939911 .07902527V.64012148C.2939911 .6640167 .2939911 .6660156 .2709961 .6660156 .20899964 .60227969 .12098694 .60227969 .08898926 .60227969V.57128909C.10899353 .57128909 .16799927 .57128909 .21998596 .5972748V.07902527C.21998596 .042999269 .21699524 .0309906 .1269989 .0309906H.09498596V0C.12998963 .0029907227 .21699524 .0029907227 .25698854 .0029907227 .29699708 .0029907227 .38398744 .0029907227 .4189911 0Z"/>
<path id="font_2_121" d="M.45999146 .31976319C.45999146 .39982606 .45498658 .47988893 .41999818 .5539398 .37399293 .65000918 .2919922 .6660156 .25 .6660156 .18998719 .6660156 .116989139 .64001467 .07598877 .54693606 .04399109 .47789 .038986207 .39982606 .038986207 .31976319 .038986207 .24472046 .042999269 .15464783 .083999637 .07859802 .1269989-.0024719239 .19999695-.022460938 .24899292-.022460938 .30299378-.022460938 .3789978-.0014648438 .4229889 .09359741 .45498658 .16265869 .45999146 .2407074 .45999146 .31976319M.3769989 .3317871C.3769989 .25672914 .3769989 .18867493 .3659973 .12461853 .35099793 .029556275 .2939911-.00047302247 .24899292-.00047302247 .20999146-.00047302247 .15098572 .024551392 .1329956 .12062073 .12199402 .18066406 .12199402 .2727356 .12199402 .3317871 .12199402 .39582826 .12199402 .46188355 .12998963 .5159149 .14898682 .63500979 .22399903 .64401248 .24899292 .64401248 .28199769 .64401248 .34799195 .6259918 .36698915 .52693179 .3769989 .47088624 .3769989 .39482118 .3769989 .3317871Z"/>
<path id="font_2_107" d="M.44898988 .17396546H.42399598C.4189911 .14398194 .4119873 .099990848 .4019928 .084991458 .394989 .07699585 .32899476 .07699585 .30699159 .07699585H.1269989L.23298645 .17996216C.3889923 .31803895 .44898988 .37210084 .44898988 .47216798 .44898988 .5860901 .35899354 .6660156 .23699951 .6660156 .12399292 .6660156 .049987794 .57411196 .049987794 .48516847 .049987794 .4291687 .099990848 .4291687 .102996829 .4291687 .11999512 .4291687 .15499878 .44117738 .15499878 .48217774 .15499878 .5081787 .13699341 .5341797 .101989749 .5341797 .09399414 .5341797 .09199524 .5341797 .08898926 .5331726 .11199951 .59806826 .1659851 .63500979 .22399903 .63500979 .31498719 .63500979 .35798646 .5541382 .35798646 .47216798 .35798646 .39196778 .30799867 .31297303 .25299073 .25097657L.06098938 .036987306C.049987794 .025985718 .049987794 .023986817 .049987794 0H.42099L.44898988 .17396546Z"/>
<path id="font_2_106" d="M.45700074 .17037964C.45700074 .252594 .3939972 .33088685 .2899933 .35191346 .37199403 .37893678 .42999269 .4490509 .42999269 .52809146 .42999269 .6100464 .34199525 .6660156 .24598694 .6660156 .14498902 .6660156 .068984989 .60606387 .068984989 .53009036 .068984989 .49710084 .09098816 .47808839 .11999512 .47808839 .15098572 .47808839 .17098999 .50009158 .17098999 .5290985 .17098999 .57910159 .12399292 .57910159 .10899353 .57910159 .13999939 .62802127 .20599365 .64100649 .24198914 .64100649 .2829895 .64100649 .33799745 .6190338 .33799745 .5290985 .33799745 .51708987 .33599855 .45906068 .30999757 .4149933 .27999879 .36691285 .24598694 .36390687 .22099304 .36291505 .21299744 .36190797 .18899536 .35990907 .18199158 .35990907 .17399597 .35890199 .16699219 .35791017 .16699219 .3479004 .16699219 .33691407 .17399597 .33691407 .19099427 .33691407H.23498535C.31698609 .33691407 .35398866 .2686615 .35398866 .17037964 .35398866 .034469606 .2849884 .0055389406 .24099732 .0055389406 .19799805 .0055389406 .12298584 .022491456 .08799744 .08137512 .12298584 .07637024 .1539917 .09837341 .1539917 .1363678 .1539917 .17237854 .1269989 .19238281 .09799194 .19238281 .07398987 .19238281 .041992189 .17837525 .041992189 .1343689 .041992189 .043441774 .1349945-.022460938 .24398804-.022460938 .3659973-.022460938 .45700074 .06838989 .45700074 .17037964Z"/>
<path id="font_2_57" d="M.47099305 .16503906V.19602967H.37098695V.6507721C.37098695 .6707611 .37098695 .6767578 .35499574 .6767578 .34599305 .6767578 .34298707 .6767578 .33499146 .6647644L.027999878 .19602967V.16503906H.2939911V.07800293C.2939911 .041992189 .2919922 .0309906 .21798706 .0309906H.19699097V0C.23799134 .0029907227 .2899933 .0029907227 .33198548 .0029907227 .37399293 .0029907227 .4269867 .0029907227 .46798707 0V.0309906H.44699098C.37298585 .0309906 .37098695 .041992189 .37098695 .07800293V.16503906H.47099305M.2999878 .19602967H.055999757L.2999878 .56881716V.19602967Z"/>
<path id="font_3_62" d="M.8600006 0V.04699707H.7519989V.63853457H.8600006V.6855469C.82199099 .6825409 .723999 .6825409 .68099978 .6825409 .6380005 .6825409 .5399933 .6825409 .5019989 .6855469V.63853457H.6100006V.3798828H.2889862V.63853457H.39698792V.6855469C.35899354 .6825409 .26098634 .6825409 .21798706 .6825409 .1749878 .6825409 .07699585 .6825409 .038986207 .6855469V.63853457H.14698792V.04699707H.038986207V0C.07699585 .0029907227 .1749878 .0029907227 .21798706 .0029907227 .26098634 .0029907227 .35899354 .0029907227 .39698792 0V.04699707H.2889862V.33287049H.6100006V.04699707H.5019989V0C.5399933 .0029907227 .6380005 .0029907227 .68099978 .0029907227 .723999 .0029907227 .82199099 .0029907227 .8600006 0Z"/>
<path id="font_3_66" d="M.28599549 0V.04699707H.22399903V.4501953L.049987794 .4423828V.39537049C.10899353 .39537049 .115997318 .39537049 .115997318 .3563385V.04699707H.04699707V0L.16899109 .0029907227 .28599549 0M.23799134 .60728457C.23799134 .6502838 .20298767 .6852875 .1599884 .6852875 .116989139 .6852875 .08198547 .6502838 .08198547 .60728457 .08198547 .5642853 .116989139 .5292969 .1599884 .5292969 .20298767 .5292969 .23799134 .5642853 .23799134 .60728457Z"/>
<path id="font_3_98" d="M.4149933 .14012146C.4149933 .18312073 .394989 .21812439 .3600006 .24612427 .32099916 .27511598 .2889862 .28112794 .21099854 .29412843 .17399597 .30111695 .10899353 .31211854 .10899353 .3591156 .10899353 .42111207 .20199585 .42111207 .22099304 .42111207 .29599 .42111207 .33399964 .39212037 .33898927 .33711244 .33999635 .32211305 .34098817 .3171234 .3619995 .3171234 .38598634 .3171234 .38598634 .32211305 .38598634 .3451233V.42510987C.38598634 .4441223 .38598634 .453125 .36799623 .453125 .3639984 .453125 .3619995 .453125 .32299806 .43411256 .29699708 .44711305 .2619934 .453125 .22200012 .453125 .19198609 .453125 .037994386 .453125 .037994386 .32211305 .037994386 .28211976 .057998659 .25512696 .07798767 .23812866 .117996219 .203125 .1559906 .1971283 .23298645 .18312073 .2689972 .17712403 .34399415 .16412354 .34399415 .10513306 .34399415 .030136109 .2519989 .030136109 .22999573 .030136109 .12399292 .030136109 .09799194 .103134158 .085998538 .14613343 .08099365 .16012573 .07598877 .16012573 .06199646 .16012573 .037994386 .16012573 .037994386 .15412903 .037994386 .13113404V.022140503C.037994386 .0031280518 .037994386-.005859375 .055999757-.005859375 .06298828-.005859375 .06498718-.005859375 .085998538 .009140015L.11199951 .026138306C.1579895-.005859375 .20999146-.005859375 .22999573-.005859375 .26098634-.005859375 .4149933-.005859375 .4149933 .14013672V.14012146Z"/>
<path id="font_3_105" d="M.38198854 .124176029V.17721558H.33499146V.12619019C.33499146 .058151246 .30299378 .03413391 .2749939 .03413391 .21699524 .03413391 .21699524 .09817505 .21699524 .1211853V.3973236H.36299134V.44433595H.21699524V.6357422H.16999817C.16899109 .53552249 .11999512 .43632508 .020996094 .43333436V.3973236H.102996829V.123184207C.102996829 .01612854 .18998719-.005859375 .26098634-.005859375 .33699037-.005859375 .38198854 .05114746 .38198854 .124176029Z"/>
<path id="font_3_81" d="M.5419922 .21812439C.5419922 .35212709 .44999696 .453125 .2869873 .453125 .12298584 .453125 .03199768 .35112 .03199768 .21812439 .03199768 .09413147 .11999512-.005859375 .2869873-.005859375 .45498658-.005859375 .5419922 .09512329 .5419922 .21812439M.4139862 .22912598C.4139862 .14213562 .4139862 .03413391 .2869873 .03413391 .1599884 .03413391 .1599884 .14213562 .1599884 .22912598 .1599884 .27412416 .1599884 .32511903 .1769867 .3591156 .19599915 .39611817 .23799134 .41711427 .2869873 .41711427 .32899476 .41711427 .37098695 .40112306 .3929901 .36611939 .4139862 .3321228 .4139862 .27713014 .4139862 .22912598Z"/>
<path id="font_3_59" d="M.55799868 .3970642C.55799868 .42007447 .54100039 .45507813 .49499513 .45507813 .47999574 .45507813 .43299867 .45207215 .3889923 .41706849 .37098695 .42918397 .32899476 .4501953 .25498963 .4501953 .11099243 .4501953 .055999757 .37243653 .055999757 .3024292 .055999757 .26127626 .07598877 .22012329 .10798645 .19703675 .07998657 .16191101 .07398987 .12878418 .07398987 .10771179 .07398987 .0927124 .07798767 .04371643 .117996219 .01171875 .10499573 .008712769 .03199768-.012252808 .03199768-.075164798 .03199768-.12609864 .08699036-.2010498 .2869873-.2010498 .46398927-.2010498 .5419922-.14207459 .5419922-.07217407 .5419922-.04222107 .5339966 .020706177 .46699525 .054718019 .41099549 .08300781 .35099793 .08300781 .25498963 .08300781 .22898865 .08300781 .18299866 .08300781 .17799378 .083984378 .13398743 .0909729 .12298584 .12898255 .12298584 .14697266 .12298584 .15698242 .1269989 .17198181 .1329956 .17997742 .1789856 .15629578 .22999573 .15429688 .25498963 .15429688 .39898683 .15429688 .45399476 .23234558 .45399476 .3024292 .45399476 .34942628 .42900086 .38243104 .4139862 .3984375 .44400025 .4144287 .46499635 .4164276 .47599793 .4174347 .47399903 .4124298 .47200013 .40342713 .47200013 .39743043 .47200013 .37219239 .4889984 .354187 .5149994 .354187 .54100039 .354187 .55799868 .3731842 .55799868 .39718629V.3970642M.34298707 .30221559C.34298707 .25724793 .34298707 .19029236 .25498963 .19029236 .16699219 .19021607 .16699219 .25733949 .16699219 .3024292 .16699219 .34742738 .16699219 .41418458 .25498963 .41418458 .34298707 .41418458 .34298707 .34742738 .34298707 .3024292V.30221559M.45599366-.07501221C.45599366-.11102295 .4169922-.16503906 .2869873-.16503906 .16699219-.16503906 .117996219-.11903381 .117996219-.073013309 .117996219-.013000488 .18099976-.013000488 .19499207-.013000488H.31199647C.34298707-.013000488 .45599366-.013000488 .45599366-.07501221Z"/>
<path id="font_3_96" d="M.44198609 .36819459C.44198609 .42118836 .3880005 .4501953 .33599855 .4501953 .2659912 .4501953 .22599793 .40019227 .20298767 .33718873V.4501953L.036987306 .4423828V.39537049C.09899902 .39537049 .10598755 .39537049 .10598755 .3563385V.04699707H.036987306V0L.16299439 .0029907227C.20098877 .0029907227 .2649994 .0029907227 .30099488 0V.04699707H.21398926V.22218323C.21398926 .29226686 .23899842 .41436769 .33898927 .41436769 .33898927 .41436769 .31999208 .39736939 .31999208 .36834718 .31999208 .32730104 .35198976 .3072815 .3809967 .3072815 .4099884 .3072815 .44198609 .3283081 .44198609 .36834718V.36819459Z"/>
<path id="font_3_28" d="M.5529938 .023986817C.5529938 .04699707 .5399933 .04699707 .5269928 .04699707 .46598817 .04798889 .46598817 .06100464 .46598817 .083999637V.29907228C.46598817 .3881073 .394989 .453125 .24598694 .453125 .18899536 .453125 .066986087 .44911195 .066986087 .36109925 .066986087 .3170929 .101989749 .29808045 .1289978 .29808045 .1599884 .29808045 .19198609 .3190918 .19198609 .36109925 .19198609 .39111329 .17298889 .40811158 .16999817 .41011048 .19799805 .41612245 .22999573 .41711427 .24198914 .41711427 .31698609 .41711427 .35198976 .3751068 .35198976 .29907228V.26506043C.2809906 .2620697 .026992798 .25306703 .026992798 .10801697 .026992798 .012130737 .15098572-.005859375 .21998596-.005859375 .2999878-.005859375 .34700013 .035125734 .36898805 .07713318 .36898805 .04598999 .36898805 0 .47299195 0H.5209961C.54100039 0 .5529938 0 .5529938 .023986817M.35198976 .13899231C.35198976 .043151857 .2599945 .030136109 .23498535 .030136109 .18399048 .030136109 .14399719 .06517029 .14399719 .10922241 .14399719 .21734619 .3019867 .23136902 .35198976 .234375V.13899231Z"/>
<path id="font_3_75" d="M.93499758 0V.04699707H.8659973V.30613709C.8659973 .40919496 .8149872 .4501953 .71199038 .4501953 .62098696 .4501953 .56900027 .40019227 .54299929 .3541565 .522995 .44718934 .43099977 .4501953 .3929901 .4501953 .30599977 .4501953 .24899292 .40518189 .21699524 .3421631V.4501953L.04499817 .4423828V.39537049C.10699463 .39537049 .11399841 .39537049 .11399841 .3563385V.04699707H.04499817V0L.17098999 .0029907227 .29699708 0V.04699707H.22799683V.2562256C.22799683 .3653412 .31498719 .41436769 .3769989 .41436769 .41099549 .41436769 .43299867 .39437867 .43299867 .31729127V.04699707H.3639984V0L.48999024 .0029907227 .6159973 0V.04699707H.5469971V.2562256C.5469971 .3653412 .6339874 .41436769 .69599917 .41436769 .7299957 .41436769 .7519989 .39437867 .7519989 .31729127V.04699707H.68299868V0L.8089905 .0029907227 .93499758 0Z"/>
<path id="font_3_55" d="M.43699647 .6132202C.43699647 .65519717 .40098573 .7001953 .32299806 .7001953 .22499085 .7001953 .116989139 .65818789 .116989139 .54525759V.44433595H.041992189V.3973236H.116989139V.04699707H.04798889V0L.17399597 .0029907227C.21199036 .0029907227 .27598573 .0029907227 .31199647 0V.04699707H.22499085V.3973236H.33999635V.44433595H.21899414V.54525759C.21899414 .65519717 .29499818 .6641846 .31999208 .6641846 .32499696 .6641846 .32998658 .6641846 .33699037 .66218569 .32199098 .65119937 .31399537 .63220217 .31399537 .6132202 .31399537 .57025149 .34899903 .5512543 .375 .5512543 .40499879 .5512543 .43699647 .57225039 .43699647 .6132202Z"/>
<path id="font_3_95" d="M.8580017 .09487915C.8580017 .11682129 .84399417 .11682129 .83399966 .11682129 .8129883 .11682129 .81199648 .1068573 .8109894 .09388733 .80599978 .04699707 .7769928 .024993897 .746994 .024993897 .68699648 .024993897 .6779938 .09587097 .6729889 .13778687 .67099 .14875794 .6629944 .21759033 .6619873 .22257996 .647995 .29241944 .59298709 .323349 .5499878 .3393402 .66600039 .36935426 .71699526 .43440248 .71699526 .5004425 .71699526 .6015167 .6069946 .6855469 .4189911 .6855469H.038986207V.63853457H.14698792V.04699707H.038986207V0C.07499695 .0029907227 .17298889 .0029907227 .21499634 .0029907227 .25698854 .0029907227 .35499574 .0029907227 .3909912 0V.04699707H.2829895V.32434083H.3999939C.4139862 .32434083 .45799256 .32434083 .4889984 .29042054 .5209961 .25550843 .5209961 .23654175 .5209961 .16371155 .5209961 .09786987 .5209961 .048980714 .59098818 .01499939 .6349945-.007003784 .69699099-.011001587 .73799136-.011001587 .8450012-.011001587 .8580017 .07891846 .8580017 .09487915M.56399539 .49943543C.56399539 .44340516 .56399539 .36035157 .39898683 .36035157H.2829895V.63853457H.40098573C.56199648 .63853457 .56399539 .56048586 .56399539 .49943543Z"/>
<path id="font_3_77" d="M.61499026 0V.04699707H.54599V.30613709C.54599 .41119386 .49198915 .4501953 .3919983 .4501953 .29599 .4501953 .24299622 .39318849 .21699524 .3421631V.4501953L.04499817 .4423828V.39537049C.10699463 .39537049 .11399841 .39537049 .11399841 .3563385V.04699707H.04499817V0L.17098999 .0029907227 .29699708 0V.04699707H.22799683V.2562256C.22799683 .3653412 .31399537 .41436769 .3769989 .41436769 .41099549 .41436769 .43199159 .39337159 .43199159 .31729127V.04699707H.36299134V0L.4889984 .0029907227 .61499026 0Z"/>
<path id="font_3_72" d="M.29299928 0V.04699707H.22399903V.69433596L.04699707 .6855469V.63853457C.10899353 .63853457 .115997318 .63853457 .115997318 .5995636V.04699707H.04699707V0L.16999817 .0029907227 .29299928 0Z"/>
<path id="font_3_46" d="M.81700137 .33676148C.81700137 .55659487 .6669922 .6855469 .46899415 .6855469H.038986207V.63853457H.14698792V.04699707H.038986207V0H.46998597C.6669922 0 .81700137 .12294006 .81700137 .33676148M.66999819 .33776856C.66999819 .22885132 .6579895 .17588806 .6259918 .13092041 .5779877 .06297302 .48999024 .04699707 .42900086 .04699707H.2829895V.63853457H.42900086C.49499513 .63853457 .5779877 .6195526 .6269989 .5496063 .6619873 .49864198 .66999819 .43069459 .66999819 .33776856Z"/>
</defs>
<path transform="matrix(1.00003,0,0,-1,28.867386,183.495)" stroke-width=".19925" stroke-linecap="butt" stroke-miterlimit="10" stroke-linejoin="miter" fill="none" stroke="#d9d9d9" d="M0 0H283.4681M0 2.83484H283.4681M0 5.6697H283.4681M0 8.50455H283.4681M0 11.33939H283.4681M0 14.17424H283.4681M0 17.0091H283.4681M0 19.84393H283.4681M0 22.67879H283.4681M0 25.51364H283.4681M0 28.3485H283.4681M0 31.18333H283.4681M0 34.01819H283.4681M0 36.85304H283.4681M0 39.68788H283.4681M0 42.52274H283.4681M0 45.35759H283.4681M0 48.19244H283.4681M0 51.02728H283.4681M0 53.86214H283.4681M0 56.69699H283.4681M0 59.53183H283.4681M0 62.36668H283.4681M0 65.20154H283.4681M0 68.03639H283.4681M0 70.87123H283.4681M0 73.70609H283.4681M0 76.54094H283.4681M0 79.37578H283.4681M0 82.21063H283.4681M0 85.04549H283.4681M0 87.88034H283.4681M0 90.71518H283.4681M0 93.55003H283.4681M0 96.38489H283.4681M0 99.21973H283.4681M0 102.05458H283.4681M0 104.88943H283.4681M0 107.72429H283.4681M0 110.55913H283.4681M0 113.39398H283.4681M0 116.22884H283.4681M0 119.06367H283.4681M0 121.89853H283.4681M0 124.73338H283.4681M0 127.56824H283.4681M0 130.40308H283.4681M0 133.23793H283.4681M0 136.07279H283.4681M0 138.90763H283.4681M0 141.74248H283.4681M0 144.57733H283.4681M0 147.41219H283.4681M0 150.24703H283.4681M0 153.08188H283.4681M0 155.91674H283.4681M0 158.75157H283.4681M0 161.58643H283.4681M0 164.42128H283.4681M0 167.25612H283.4681M0 0V170.08086M2.83484 0V170.08086M5.6697 0V170.08086M8.50455 0V170.08086M11.33939 0V170.08086M14.17424 0V170.08086M17.0091 0V170.08086M19.84393 0V170.08086M22.67879 0V170.08086M25.51364 0V170.08086M28.3485 0V170.08086M31.18333 0V170.08086M34.01819 0V170.08086M36.85304 0V170.08086M39.68788 0V170.08086M42.52274 0V170.08086M45.35759 0V170.08086M48.19244 0V170.08086M51.02728 0V170.08086M53.86214 0V170.08086M56.69699 0V170.08086M59.53183 0V170.08086M62.36668 0V170.08086M65.20154 0V170.08086M68.03639 0V170.08086M70.87123 0V170.08086M73.70609 0V170.08086M76.54094 0V170.08086M79.37578 0V170.08086M82.21063 0V170.08086M85.04549 0V170.08086M87.88034 0V170.08086M90.71518 0V170.08086M93.55003 0V170.08086M96.38489 0V170.08086M99.21973 0V170.08086M102.05458 0V170.08086M104.88943 0V170.08086M107.72429 0V170.08086M110.55913 0V170.08086M113.39398 0V170.08086M116.22884 0V170.08086M119.06367 0V170.08086M121.89853 0V170.08086M124.73338 0V170.08086M127.56824 0V170.08086M130.40308 0V170.08086M133.23793 0V170.08086M136.07279 0V170.08086M138.90763 0V170.08086M141.74248 0V170.08086M144.57733 0V170.08086M147.41219 0V170.08086M150.24703 0V170.08086M153.08188 0V170.08086M155.91674 0V170.08086M158.75157 0V170.08086M161.58643 0V170.08086M164.42128 0V170.08086M167.25612 0V170.08086M170.09098 0V170.08086M172.92583 0V170.08086M175.76068 0V170.08086M178.59552 0V170.08086M181.43038 0V170.08086M184.26523 0V170.08086M187.10007 0V170.08086M189.93492 0V170.08086M192.76978 0V170.08086M195.60463 0V170.08086M198.43947 0V170.08086M201.27433 0V170.08086M204.10918 0V170.08086M206.94402 0V170.08086M209.77887 0V170.08086M212.61373 0V170.08086M215.44858 0V170.08086M218.28342 0V170.08086M221.11827 0V170.08086M223.95313 0V170.08086M226.78797 0V170.08086M229.62282 0V170.08086M232.45767 0V170.08086M235.29253 0V170.08086M238.12737 0V170.08086M240.96222 0V170.08086M243.79708 0V170.08086M246.63191 0V170.08086M249.46677 0V170.08086M252.30162 0V170.08086M255.13648 0V170.08086M257.9713 0V170.08086M260.80619 0V170.08086M263.64103 0V170.08086M266.47587 0V170.08086M269.3107 0V170.08086M272.14558 0V170.08086M274.9804 0V170.08086M277.81526 0V170.08086M280.65013 0V170.08086M283.4681 170.08086"/>
<path transform="matrix(1.00003,0,0,-1,28.867386,183.495)" stroke-width=".3985" stroke-linecap="butt" stroke-miterlimit="10" stroke-linejoin="miter" fill="none" stroke="#a6a6a6" d="M0 0H283.4681M0 28.3468H283.4681M0 56.69362H283.4681M0 85.04042H283.4681M0 113.38724H283.4681M0 141.73404H283.4681M0 170.07089H283.4681M0 0V170.08086M28.3468 0V170.08086M56.69362 0V170.08086M85.04042 0V170.08086M113.38724 0V170.08086M141.73404 0V170.08086M170.08086 0V170.08086M198.42766 0V170.08086M226.77448 0V170.08086M255.12128 0V170.08086M283.45814 0V170.08086M283.4681 170.08086"/>
<path transform="matrix(1.00003,0,0,-1,28.867386,183.495)" stroke-width=".79701" stroke-linecap="butt" stroke-miterlimit="10" stroke-linejoin="miter" fill="none" stroke="#000000" d="M0 0H282.67109"/>
<path transform="matrix(1.00003,0,0,-1,311.9455,183.495)" stroke-width=".79701" stroke-linecap="round" stroke-linejoin="round" fill="none" stroke="#000000" d="M-2.55046 3.11095C-2.0845 1.24435-1.04614 .36295 0 0-1.04614-.36295-2.0845-1.24435-2.55046-3.11095"/>
<path transform="matrix(1.00003,0,0,-1,28.867386,183.495)" stroke-width=".79701" stroke-linecap="butt" stroke-miterlimit="10" stroke-linejoin="miter" fill="none" stroke="#000000" d="M0 0V169.28385"/>
<path transform="matrix(0,-1,-1.00003,-0,28.867386,13.812653)" stroke-width=".79701" stroke-linecap="round" stroke-linejoin="round" fill="none" stroke="#000000" d="M-2.55046 3.11095C-2.0845 1.24435-1.04614 .36295 0 0-1.04614-.36295-2.0845-1.24435-2.55046-3.11095"/>
<use data-text="R" xlink:href="#font_1_95" transform="matrix(8.966669,0,0,-8.9664,137.74666,216.41699)"/>
<use data-text="a" xlink:href="#font_1_28" transform="matrix(8.966669,0,0,-8.9664,145.7001,216.41699)"/>
<use data-text="i" xlink:href="#font_1_66" transform="matrix(8.966669,0,0,-8.9664,150.85593,216.41699)"/>
<use data-text="n" xlink:href="#font_1_77" transform="matrix(8.966669,0,0,-8.9664,153.80597,216.41699)"/>
<use data-text="f" xlink:href="#font_1_55" transform="matrix(8.966669,0,0,-8.9664,159.69707,216.41699)"/>
<use data-text="a" xlink:href="#font_1_28" transform="matrix(8.966669,0,0,-8.9664,162.94301,216.41699)"/>
<use data-text="l" xlink:href="#font_1_72" transform="matrix(8.966669,0,0,-8.9664,168.09885,216.41699)"/>
<use data-text="l" xlink:href="#font_1_72" transform="matrix(8.966669,0,0,-8.9664,171.04889,216.41699)"/>
<use data-text="(" xlink:href="#font_1_85" transform="matrix(8.966669,0,0,-8.9664,177.5318,216.41699)"/>
<use data-text="m" xlink:href="#font_1_75" transform="matrix(8.966669,0,0,-8.9664,181.65647,216.41699)"/>
<use data-text="m" xlink:href="#font_1_75" transform="matrix(8.966669,0,0,-8.9664,190.49759,216.41699)"/>
<use data-text=")" xlink:href="#font_1_86" transform="matrix(8.966669,0,0,-8.9664,199.33872,216.41699)"/>
<use data-text="F" xlink:href="#font_1_54" transform="matrix(0,-8.9664,-8.966669,-0,8.368774,141.755)"/>
<use data-text="r" xlink:href="#font_1_96" transform="matrix(0,-8.9664,-8.966669,-0,8.368774,135.9627)"/>
<use data-text="e" xlink:href="#font_1_50" transform="matrix(0,-8.9664,-8.966669,-0,8.368774,131.5871)"/>
<use data-text="q" xlink:href="#font_1_91" transform="matrix(0,-8.9664,-8.966669,-0,8.368774,126.718349)"/>
<use data-text="u" xlink:href="#font_1_109" transform="matrix(0,-8.9664,-8.966669,-0,8.368774,121.11435)"/>
<use data-text="e" xlink:href="#font_1_50" transform="matrix(0,-8.9664,-8.966669,-0,8.368774,115.22342)"/>
<use data-text="n" xlink:href="#font_1_77" transform="matrix(0,-8.9664,-8.966669,-0,8.368774,110.35466)"/>
<use data-text="c" xlink:href="#font_1_43" transform="matrix(0,-8.9664,-8.966669,-0,8.368774,104.46373)"/>
<use data-text="y" xlink:href="#font_1_118" transform="matrix(0,-8.9664,-8.966669,-0,8.368774,99.747409)"/>
<use data-text="D" xlink:href="#font_1_46" transform="matrix(0,-8.9664,-8.966669,-0,8.368774,90.61961)"/>
<use data-text="e" xlink:href="#font_1_50" transform="matrix(0,-8.9664,-8.966669,-0,8.368774,82.48709)"/>
<use data-text="n" xlink:href="#font_1_77" transform="matrix(0,-8.9664,-8.966669,-0,8.368774,77.61833)"/>
<use data-text="s" xlink:href="#font_1_98" transform="matrix(0,-8.9664,-8.966669,-0,8.368774,71.7274)"/>
<use data-text="i" xlink:href="#font_1_66" transform="matrix(0,-8.9664,-8.966669,-0,8.368774,67.5401)"/>
<use data-text="t" xlink:href="#font_1_105" transform="matrix(0,-8.9664,-8.966669,-0,8.368774,64.59015)"/>
<use data-text="y" xlink:href="#font_1_118" transform="matrix(0,-8.9664,-8.966669,-0,8.368774,60.752534)"/>
<use data-text="5" xlink:href="#font_2_56" transform="matrix(9.962899,0,0,-9.9626,54.724164,193.65)"/>
<use data-text="1" xlink:href="#font_2_82" transform="matrix(9.962899,0,0,-9.9626,80.58094,193.65)"/>
<use data-text="0" xlink:href="#font_2_121" transform="matrix(9.962899,0,0,-9.9626,85.56239,193.65)"/>
<use data-text="1" xlink:href="#font_2_82" transform="matrix(9.962899,0,0,-9.9626,108.92879,193.65)"/>
<use data-text="5" xlink:href="#font_2_56" transform="matrix(9.962899,0,0,-9.9626,113.91024,193.65)"/>
<use data-text="2" xlink:href="#font_2_107" transform="matrix(9.962899,0,0,-9.9626,137.27664,193.65)"/>
<use data-text="0" xlink:href="#font_2_121" transform="matrix(9.962899,0,0,-9.9626,142.25809,193.65)"/>
<use data-text="3" xlink:href="#font_2_106" transform="matrix(9.962899,0,0,-9.9626,193.97135,193.65)"/>
<use data-text="0" xlink:href="#font_2_121" transform="matrix(9.962899,0,0,-9.9626,198.95279,193.65)"/>
<use data-text="4" xlink:href="#font_2_57" transform="matrix(9.962899,0,0,-9.9626,279.0149,193.76)"/>
<use data-text="5" xlink:href="#font_2_56" transform="matrix(9.962899,0,0,-9.9626,283.99635,193.76)"/>
<use data-text="1" xlink:href="#font_2_82" transform="matrix(9.962899,0,0,-9.9626,20.366127,158.466)"/>
<use data-text="2" xlink:href="#font_2_107" transform="matrix(9.962899,0,0,-9.9626,20.366127,130.11899)"/>
<use data-text="3" xlink:href="#font_2_106" transform="matrix(9.962899,0,0,-9.9626,20.366127,101.662998)"/>
<use data-text="4" xlink:href="#font_2_57" transform="matrix(9.962899,0,0,-9.9626,20.366127,73.479999)"/>
<use data-text="5" xlink:href="#font_2_56" transform="matrix(9.962899,0,0,-9.9626,20.366127,44.968996)"/>
<path transform="matrix(1.00003,0,0,-1,28.867386,183.495)" d="M28.3468 0V124.72578H56.69362V0ZM56.69362 124.72578" fill="#4d4dff"/>
<path transform="matrix(1.00003,0,0,-1,28.867386,183.495)" stroke-width=".3985" stroke-linecap="butt" stroke-miterlimit="10" stroke-linejoin="miter" fill="none" stroke="#000000" d="M28.3468 0V124.72578H56.69362V0ZM56.69362 124.72578"/>
<path transform="matrix(1.00003,0,0,-1,28.867386,183.495)" d="M56.69362 0V85.04042H85.04042V0ZM85.04042 85.04042" fill="#4d4dff"/>
<path transform="matrix(1.00003,0,0,-1,28.867386,183.495)" stroke-width=".3985" stroke-linecap="butt" stroke-miterlimit="10" stroke-linejoin="miter" fill="none" stroke="#000000" d="M56.69362 0V85.04042H85.04042V0ZM85.04042 85.04042"/>
<path transform="matrix(1.00003,0,0,-1,28.867386,183.495)" d="M85.04042 0V68.03217H113.38724V0ZM113.38724 68.03217" fill="#4d4dff"/>
<path transform="matrix(1.00003,0,0,-1,28.867386,183.495)" stroke-width=".3985" stroke-linecap="butt" stroke-miterlimit="10" stroke-linejoin="miter" fill="none" stroke="#000000" d="M85.04042 0V68.03217H113.38724V0ZM113.38724 68.03217"/>
<path transform="matrix(1.00003,0,0,-1,28.867386,183.495)" d="M113.38724 0V22.67752H170.08086V0ZM170.08086 22.67752" fill="#4d4dff"/>
<path transform="matrix(1.00003,0,0,-1,28.867386,183.495)" stroke-width=".3985" stroke-linecap="butt" stroke-miterlimit="10" stroke-linejoin="miter" fill="none" stroke="#000000" d="M113.38724 0V22.67752H170.08086V0ZM170.08086 22.67752"/>
<path transform="matrix(1.00003,0,0,-1,28.867386,183.495)" d="M170.08086 0V5.66927H255.12128V0ZM255.12128 5.66927" fill="#4d4dff"/>
<path transform="matrix(1.00003,0,0,-1,28.867386,183.495)" stroke-width=".3985" stroke-linecap="butt" stroke-miterlimit="10" stroke-linejoin="miter" fill="none" stroke="#000000" d="M170.08086 0V5.66927H255.12128V0ZM255.12128 5.66927"/>
<use data-text="H" xlink:href="#font_3_62" transform="matrix(9.962899,0,0,-9.9626,102.30359,7.8919985)"/>
<use data-text="i" xlink:href="#font_3_66" transform="matrix(9.962899,0,0,-9.9626,111.2702,7.8919985)"/>
<use data-text="s" xlink:href="#font_3_98" transform="matrix(9.962899,0,0,-9.9626,114.448368,7.8919985)"/>
<use data-text="t" xlink:href="#font_3_105" transform="matrix(9.962899,0,0,-9.9626,118.97153,7.8919985)"/>
<use data-text="o" xlink:href="#font_3_81" transform="matrix(9.962899,0,0,-9.9626,123.42494,7.8919985)"/>
<use data-text="g" xlink:href="#font_3_59" transform="matrix(9.962899,0,0,-9.9626,129.15361,7.8919985)"/>
<use data-text="r" xlink:href="#font_3_96" transform="matrix(9.962899,0,0,-9.9626,134.88228,7.8919985)"/>
<use data-text="a" xlink:href="#font_3_28" transform="matrix(9.962899,0,0,-9.9626,139.6047,7.8919985)"/>
<use data-text="m" xlink:href="#font_3_75" transform="matrix(9.962899,0,0,-9.9626,145.17397,7.8919985)"/>
<use data-text="o" xlink:href="#font_3_81" transform="matrix(9.962899,0,0,-9.9626,158.53421,7.8919985)"/>
<use data-text="f" xlink:href="#font_3_55" transform="matrix(9.962899,0,0,-9.9626,164.26288,7.8919985)"/>
<use data-text="R" xlink:href="#font_3_95" transform="matrix(9.962899,0,0,-9.9626,171.57566,7.8919985)"/>
<use data-text="a" xlink:href="#font_3_28" transform="matrix(9.962899,0,0,-9.9626,180.17363,7.8919985)"/>
<use data-text="i" xlink:href="#font_3_66" transform="matrix(9.962899,0,0,-9.9626,185.74288,7.8919985)"/>
<use data-text="n" xlink:href="#font_3_77" transform="matrix(9.962899,0,0,-9.9626,188.92105,7.8919985)"/>
<use data-text="f" xlink:href="#font_3_55" transform="matrix(9.962899,0,0,-9.9626,195.28734,7.8919985)"/>
<use data-text="a" xlink:href="#font_3_28" transform="matrix(9.962899,0,0,-9.9626,198.78432,7.8919985)"/>
<use data-text="l" xlink:href="#font_3_72" transform="matrix(9.962899,0,0,-9.9626,204.35358,7.8919985)"/>
<use data-text="l" xlink:href="#font_3_72" transform="matrix(9.962899,0,0,-9.9626,207.53174,7.8919985)"/>
<use data-text="D" xlink:href="#font_3_46" transform="matrix(9.962899,0,0,-9.9626,214.5257,7.8919985)"/>
<use data-text="a" xlink:href="#font_3_28" transform="matrix(9.962899,0,0,-9.9626,223.31298,7.8919985)"/>
<use data-text="t" xlink:href="#font_3_105" transform="matrix(9.962899,0,0,-9.9626,228.88224,7.8919985)"/>
<use data-text="a" xlink:href="#font_3_28" transform="matrix(9.962899,0,0,-9.9626,233.33565,7.8919985)"/>
</svg>
