<svg xmlns="http://www.w3.org/2000/svg" xmlns:xlink="http://www.w3.org/1999/xlink" xmlns:inkscape="http://www.inkscape.org/namespaces/inkscape" version="1.1" width="373" height="258" viewBox="0 0 373 258">
<defs>
<path id="font_1_113" d="M1.1389923 .64253237V.6855469L1.0299988 .6835327C1.0009918 .6835327 .9279938 .6835327 .9039917 .6855469V.64253237C.91600039 .64253237 1.0039978 .64253237 1.0039978 .6285553 1.0039978 .6285553 1.0039978 .6255646 1 .61657717L.83200076 .17102051 .6529999 .64253237H.7480011V.6855469C.71598818 .6835327 .6230011 .6835327 .58499148 .6835327 .55400088 .6835327 .45700074 .6835327 .43299867 .6855469V.64253237H.5169983L.55799868 .5346527 .42099 .17102051 .24299622 .64253237H.33699037V.6855469C.30799867 .6835327 .20999146 .6835327 .17399597 .6835327 .14199829 .6835327 .04699707 .6835327 .021987915 .6855469V.64253237H.10598755L.34399415 .015182495C.34999085-.0018005371 .35299684-.0087890629 .375-.0087890629 .39698792-.0087890629 .3999939-.0018005371 .4059906 .014175415L.5799866 .4747162 .7549896 .014175415C.7609863-.0018005371 .7639923-.0087890629 .7859955-.0087890629 .8049927-.0087890629 .80999758-.0048065187 .81700137 .014175415L1.04599 .6185608C1.0529938 .6365509 1.0549927 .64253237 1.1389923 .64253237Z"/>
<path id="font_1_28" d="M.54100039 .022140503C.54100039 .043136598 .5319977 .043136598 .5179901 .043136598 .45498658 .044128419 .45498658 .060134889 .45498658 .08312988V.29911805C.45498658 .39111329 .38198854 .453125 .24099732 .453125 .18499756 .453125 .066986087 .44812013 .066986087 .36412049 .066986087 .32211305 .09899902 .30412293 .12599182 .30412293 .1559906 .30412293 .18499756 .32511903 .18499756 .3631134 .18499756 .3821106 .17799378 .40011598 .16099549 .41111756 .19400025 .42012025 .21798706 .42012025 .23699951 .42012025 .30499269 .42012025 .34599305 .3821106 .34599305 .30012513V.26011659C.18798828 .26011659 .0289917 .21612549 .0289917 .10513306 .0289917 .014129639 .14498902-.005859375 .21398926-.005859375 .29100038-.005859375 .33999635 .036132814 .3600006 .0801239 .3600006 .042999269 .3600006 0 .46099855 0H.5119934C.5329895 0 .54100039 0 .54100039 .021987915V.022140503M.34599305 .13899231C.34599305 .04499817 .2619934 .026992798 .22999573 .026992798 .18099976 .026992798 .13999939 .05999756 .13999939 .10598755 .13999939 .19699097 .24798584 .22799683 .34599305 .23298645V.13899231Z"/>
<path id="font_1_105" d="M.37399293 .124176029V.17721558H.33198548V.1251831C.33198548 .059143068 .3019867 .030136109 .2709961 .030136109 .21099854 .030136109 .21099854 .09716797 .21099854 .12017822V.4013214H.35499574V.44433595H.21099854V.6357422H.16899109C.16799927 .53652957 .11999512 .43733216 .020996094 .43432618V.4013214H.101989749V.123184207C.101989749 .01713562 .18399048-.005859375 .2559967-.005859375 .32998658-.005859375 .37399293 .05014038 .37399293 .124176029Z"/>
<path id="font_1_50" d="M.48098756 .11706543C.48098756 .13206482 .46598817 .13206482 .45999146 .13206482 .44400025 .13206482 .44299317 .12905884 .43699647 .11607361 .41099549 .051116945 .34498597 .030136109 .29699708 .030136109 .1519928 .030136109 .15098572 .16503906 .15098572 .22099304H.45199586C.47499085 .22099304 .48098756 .22099304 .48098756 .24598694 .48098756 .27601625 .47399903 .35105897 .42799378 .3981018 .38598634 .4401245 .32998658 .453125 .27198792 .453125 .115997318 .453125 .0309906 .35105897 .0309906 .22499085 .0309906 .08509827 .13398743-.005859375 .2849884-.005859375 .43598939-.005859375 .48098756 .1000824 .48098756 .11706543M.3889923 .25H.15098572C.15299988 .29101563 .1539917 .3300476 .1749878 .3660736 .19400025 .3981018 .22898865 .42012025 .27198792 .42012025 .3789978 .42012025 .3880005 .30003358 .3889923 .25Z"/>
<path id="font_1_96" d="M.4269867 .3711853C.4269867 .42218019 .375 .4501953 .32699586 .4501953 .24798584 .4501953 .21398926 .38119508 .19999695 .33918763H.19898987V.4501953L.034988405 .4423828V.3993683C.09700012 .3993683 .10398865 .3993683 .10398865 .3603363V.042999269H.034988405V0C.057998659 .0019989014 .1329956 .0019989014 .16099549 .0019989014 .18998719 .0019989014 .2709961 .0019989014 .29499818 0V.042999269H.20799256V.22518921C.20799256 .25819398 .21499634 .41719056 .33198548 .41719056 .31799317 .40618897 .31098939 .38919068 .31098939 .3711853 .31098939 .33018495 .34399415 .31318666 .36898805 .31318666 .3939972 .31318666 .4269867 .33018495 .4269867 .3711853Z"/>
<path id="font_1_42" d="M.7489929 .22810364C.7489929 .24508667 .7429962 .24609375 .7279968 .24609375 .71798709 .24609375 .70799258 .24609375 .70700076 .23509217 .69799807 .083221439 .56900027 .031280519 .47898866 .031280519 .4139862 .031280519 .32598878 .04925537 .269989 .112197879 .23498535 .15016175 .20298767 .2051239 .20298767 .3434143 .20298767 .4416809 .21798706 .51452639 .2649994 .57040408 .32899476 .6452484 .42900086 .65522769 .47698976 .65522769 .5519867 .65522769 .6729889 .613327 .7029877 .4376831 .7049866 .42871095 .71398928 .42871095 .7259979 .42871095 .7489929 .42871095 .7489929 .43069459 .7489929 .45465089V.6722412C.7489929 .6952362 .7489929 .6982422 .72698977 .6982422L.6519928 .626297C.59599307 .6742401 .5289917 .6982422 .45498658 .6982422 .21598816 .6982422 .06199646 .55345156 .06199646 .3434143 .06199646 .13717652 .21099854-.01171875 .45599366-.01171875 .6339874-.01171875 .7489929 .110198978 .7489929 .22810364Z"/>
<path id="font_1_81" d="M.5299988 .21913147C.5299988 .35412599 .43798829 .453125 .2809906 .453125 .117996219 .453125 .0309906 .3491211 .0309906 .21913147 .0309906 .088134769 .12298584-.005859375 .27999879-.005859375 .44299317-.005859375 .5299988 .09312439 .5299988 .21913147M.4099884 .22912598C.4099884 .14613343 .4099884 .030136109 .2809906 .030136109 .15098572 .030136109 .15098572 .14712525 .15098572 .22912598 .15098572 .27612306 .15098572 .3261261 .16999817 .36212159 .19198609 .40211488 .23699951 .42012025 .27999879 .42012025 .33699037 .42012025 .37298585 .39311219 .3899994 .3651123 .4099884 .32911683 .4099884 .27713014 .4099884 .22912598Z"/>
<path id="font_1_77" d="M.59999087 0V.042999269H.5309906V.30613709C.5309906 .40118409 .48999024 .4501953 .37998963 .4501953 .30799867 .4501953 .24598694 .41519166 .21199036 .34014894H.21099854V.4501953L.041992189 .4423828V.3993683C.10398865 .3993683 .11099243 .3993683 .11099243 .36035157V.042999269H.041992189V0C.06498718 .0019989014 .13699341 .0019989014 .16499329 .0019989014 .19299317 .0019989014 .2659912 .0019989014 .2889862 0V.042999269H.21998596V.25627137C.21998596 .3643341 .2999878 .41719056 .3639984 .41719056 .40098573 .41719056 .42199708 .3932495 .42199708 .31733705V.042999269H.35299684V0C.37599183 .0019989014 .44799806 .0019989014 .47599793 .0019989014 .5039978 .0019989014 .57699587 .0019989014 .59999087 0Z"/>
<path id="font_1_98" d="M.40499879 .13912964C.40499879 .18711853 .3789978 .22012329 .35899354 .23812866 .31799317 .27212525 .28399659 .27812196 .22999573 .28811646 .1659851 .29911805 .10598755 .31011964 .10598755 .35812379 .10598755 .42311097 .19499207 .42311097 .21598816 .42311097 .32699586 .42311097 .33299256 .3531189 .33499146 .328125 .33599855 .3151245 .34399415 .3151245 .35598756 .3151245 .3769989 .3151245 .3769989 .31811524 .3769989 .34111024V.42712403C.3769989 .44612123 .3769989 .453125 .3619995 .453125 .35598756 .453125 .35398866 .453125 .33898927 .4441223 .33499146 .44111634 .32398988 .43411256 .31900025 .43112184 .29100038 .44711305 .2539978 .453125 .21798706 .453125 .18798828 .453125 .037994386 .453125 .037994386 .32312013 .037994386 .21812439 .1619873 .19612122 .19299317 .19113159 .21998596 .18612671 .25299073 .18013 .25698854 .18013 .29699708 .17112732 .33699037 .14613343 .33699037 .10412598 .33699037 .027130127 .24598694 .027130127 .22499085 .027130127 .17399597 .027130127 .11099243 .043136598 .08299255 .14012146 .07699585 .16012573 .07598877 .16113281 .05899048 .16113281 .037994386 .16113281 .037994386 .15812683 .037994386 .13513184V.020126343C.037994386 .0011291504 .037994386-.005859375 .052993776-.005859375 .05999756-.005859375 .06199646-.005859375 .08198547 .010131836L.10798645 .029129029C.15299988-.005859375 .20698548-.005859375 .22499085-.005859375 .27999879-.005859375 .40499879 .006134033 .40499879 .13912964Z"/>
<path id="font_1_109" d="M.59999087 0V.042999269C.5379944 .042999269 .5309906 .042999269 .5309906 .08201599V.4501953L.35299684 .4423828V.3993683C.4149933 .3993683 .42199708 .3993683 .42199708 .36035157V.16423035C.42199708 .08818054 .3769989 .027130127 .29899598 .027130127 .22399903 .027130127 .21998596 .05215454 .21998596 .10719299V.4501953L.041992189 .4423828V.3993683C.10398865 .3993683 .11099243 .3993683 .11099243 .36035157V.12319946C.11099243 .023132325 .17799378-.005859375 .2849884-.005859375 .30899049-.005859375 .3829956-.005859375 .42599488 .075164798H.4269867V-.005859375L.59999087 0Z"/>
<path id="font_1_75" d="M.9129944 0V.042999269H.84399417V.30636598C.84399417 .39823915 .8049927 .4501953 .69299319 .4501953 .59199526 .4501953 .54499819 .38227845 .5289917 .3503723 .5130005 .43518067 .44499208 .4501953 .3809967 .4501953 .2849884 .4501953 .23298645 .38827516 .21199036 .3403778H.21099854V.4501953L.041992189 .4423828V.3993683C.10398865 .3993683 .11099243 .3993683 .11099243 .36035157V.042999269H.041992189V0C.06498718 .0019989014 .13699341 .0019989014 .16499329 .0019989014 .19299317 .0019989014 .2659912 .0019989014 .2889862 0V.042999269H.21998596V.25627137C.21998596 .36532594 .30099488 .41719056 .3639984 .41719056 .40098573 .41719056 .4229889 .3952484 .4229889 .3173828V.042999269H.35398866V0C.3769989 .0019989014 .44898988 .0019989014 .47698976 .0019989014 .5049896 .0019989014 .5779877 .0019989014 .6009979 0V.042999269H.5319977V.25628663C.5319977 .36532594 .61299136 .41719056 .6759949 .41719056 .71299746 .41719056 .7350006 .3952484 .7350006 .3173828V.042999269H.66600039V0C.68899539 .0019989014 .7609863 .0019989014 .78900149 .0019989014 .81700137 .0019989014 .8899994 .0019989014 .9129944 0Z"/>
<path id="font_1_84" d="M.58599856 .22319031C.58599856 .3611908 .49299623 .4501953 .35798646 .4501953 .29899598 .4501953 .24798584 .43019105 .20799256 .39819337V.4501953L.034988405 .4423828V.3993683C.09700012 .3993683 .10398865 .3993683 .10398865 .36035157V-.15039063H.034988405V-.19340515C.057998659-.19139099 .12998963-.19139099 .1579895-.19139099 .18598938-.19139099 .25898744-.19139099 .28199769-.19340515V-.15039063H.21299744V.041137697C.23799134 .019134522 .28199769-.005859375 .34199525-.005859375 .47898866-.005859375 .58599856 .0771637 .58599856 .2232666V.22319031M.46598817 .2232666C.46598817 .07817078 .3939972 .027130127 .32998658 .027130127 .2869873 .027130127 .24398804 .04914856 .21299744 .09617615V.3503418C.25 .39819337 .30299378 .41418458 .34199525 .41418458 .40699769 .41418458 .46598817 .3551941 .46598817 .22319031V.2232666Z"/>
<path id="font_1_66" d="M.2789917 0V.042999269H.21699524V.4501953L.04699707 .4423828V.3993683C.10598755 .3993683 .11299133 .3993683 .11299133 .3603363V.042999269H.04399109V0C.066986087 .0019989014 .13598633 .0019989014 .16299439 .0019989014 .19099427 .0019989014 .25498963 .0019989014 .2789917 0M.22898865 .6081238C.22898865 .64912417 .19499207 .68013 .15699768 .68013 .115997318 .68013 .083999637 .64712527 .083999637 .6081238 .083999637 .5671234 .117996219 .5361328 .1559906 .5361328 .19699097 .5361328 .22898865 .5691223 .22898865 .6081238Z"/>
<path id="font_1_85" d="M.37399293-.23898316C.37399293-.23498535 .37399293-.23298645 .35499574-.21498108 .24299622-.10298157 .19999695 .073013309 .19999695 .24900818 .19999695 .44599916 .24899292 .60798647 .36099244 .72099307 .37298585 .73298647 .37399293 .73399356 .37399293 .73799136 .37399293 .75 .3619995 .75 .35699464 .75 .34799195 .75 .34599305 .75 .31999208 .72898867 .17599488 .6139984 .10798645 .42999269 .10798645 .25 .10798645 .06600952 .1769867-.11299133 .31900025-.22898865 .34498597-.25097657 .34700013-.25097657 .35699464-.25097657 .3619995-.25097657 .37399293-.25097657 .37399293-.23898316Z"/>
<path id="font_1_71" d="M.6279907 .26982118H.58599856C.57899478 .2008667 .5629883 .042999269 .3829956 .042999269H.27598573V.64253237H.40899659V.6855469L.21798706 .6835327C.18099976 .6835327 .066986087 .6835327 .037994386 .6855469V.64253237H.14399719V.042999269H.037994386V0H.598999L.6279907 .26982118Z"/>
<path id="font_1_86" d="M.32798768 .24900818C.32798768 .43299867 .25898744 .61198428 .116989139 .72798159 .09098816 .75 .08898926 .75 .07899475 .75 .07398987 .75 .06199646 .75 .06199646 .73799136 .06199646 .73399356 .06199646 .7319946 .08099365 .71398928 .19299317 .60198977 .23599243 .42599488 .23599243 .25 .23599243 .053009035 .18699646-.10899353 .07499695-.22198487 .06298828-.23397827 .06199646-.23498535 .06199646-.23898316 .06199646-.25097657 .07398987-.25097657 .07899475-.25097657 .08799744-.25097657 .08999634-.25097657 .115997318-.22998047 .2599945-.114990238 .32798768 .069000247 .32798768 .24900818Z"/>
<path id="font_1_54" d="M.6589966 .4441223 .6299896 .6806946H.037994386V.6376953H.14399719V.042999269H.037994386V0C.066986087 .0019989014 .18099976 .0019989014 .21798706 .0019989014L.40899659 0V.042999269H.27598573V.31929017H.33099366C.4269867 .31929017 .43499757 .2752533 .43499757 .2021637H.47698976V.47903443H.43499757C.43499757 .40620423 .4269867 .3623047 .33099366 .3623047H.27598573V.6376953H.4189911C.5779877 .6376953 .6029968 .56484988 .61698916 .4441223H.6589966Z"/>
<path id="font_1_91" d="M.58898928-.19340515V-.15039063H.519989V.4501953H.48298646L.42999269 .36717225C.394989 .41818238 .34599305 .4501953 .27999879 .4501953 .14199829 .4501953 .037994386 .36418153 .037994386 .22215271 .037994386 .07914734 .13798523-.005859375 .269989-.005859375 .30799867-.005859375 .35899354 .0021362305 .41099549 .051132204V-.15039063H.34199525V-.19340515C.36499024-.19139099 .43699647-.19139099 .46499635-.19139099 .49299623-.19139099 .56599429-.19139099 .58898928-.19340515M.41600038 .119140628C.37399293 .040130617 .31498719 .027130127 .28199769 .027130127 .21798706 .027130127 .1579895 .086135867 .1579895 .22116089 .1579895 .36717225 .23399353 .41418458 .29299928 .41418458 .37098695 .41418458 .41600038 .33317567 .41600038 .2871704V.119140628Z"/>
<path id="font_1_43" d="M.46798707 .117126468C.46798707 .12913513 .45700074 .12913513 .44699098 .12913513 .43099977 .12913513 .42999269 .12812805 .4249878 .11613464 .41799928 .09713745 .3909912 .030136109 .29899598 .030136109 .1579895 .030136109 .1579895 .1821289 .1579895 .22712708 .1579895 .28611756 .15899658 .41711427 .2899933 .41711427 .29699708 .41711427 .35598756 .41511537 .35598756 .41011048 .35598756 .41011048 .35499574 .40811158 .35299684 .40711976 .34999085 .40411378 .33699037 .38911439 .33699037 .36412049 .33699037 .32211305 .37098695 .30511476 .3959961 .30511476 .4169922 .30511476 .45498658 .31811524 .45498658 .3651123 .45498658 .44711305 .33999635 .453125 .28599549 .453125 .10798645 .453125 .037994386 .33711244 .037994386 .22212219 .037994386 .086135867 .1329956-.005859375 .27999879-.005859375 .43699647-.005859375 .46798707 .11012268 .46798707 .117126468Z"/>
<path id="font_1_118" d="M.56900027 .4013214V.44433595C.5349884 .44232179 .5309906 .44232179 .48999024 .44232179L.4039917 .44433595V.4013214C.4039917 .4013214 .45199586 .4013214 .45199586 .38832093 .45199586 .38531495 .44898988 .37931825 .44799806 .37631227L.33099366 .124176029 .20298767 .4013214H.2579956V.44433595C.23399353 .44232179 .1659851 .44232179 .13798523 .44232179 .10899353 .44232179 .049987794 .44232179 .023986817 .44433595V.4013214H.08799744L.272995 .000091552738C.2679901-.0119018559 .2539978-.040924074 .24899292-.05293274 .22799683-.097961429 .19599915-.16699219 .12599182-.16699219 .12199402-.16699219 .10998535-.16699219 .09899902-.16099549 .100997928-.1599884 .1309967-.147995 .1309967-.10997009 .1309967-.07695007 .10699463-.05593872 .07699585-.05593872 .04598999-.05593872 .021987915-.07695007 .021987915-.110961917 .021987915-.1579895 .06599426-.19999695 .12599182-.19999695 .20799256-.19999695 .2619934-.12597656 .28199769-.081954959L.49499513 .37931825C.5009918 .3933258 .5049896 .4013214 .56900027 .4013214Z"/>
<path id="font_1_46" d="M.798996 .33677674C.798996 .56259158 .6469879 .6855469 .45899964 .6855469H.037994386V.64253237H.14399719V.042999269H.037994386V0H.45899964C.651001 0 .798996 .122924808 .798996 .33677674M.6629944 .33776856C.6629944 .22085572 .647995 .16889954 .61299136 .12193298 .5779877 .07597351 .5109863 .042999269 .42099 .042999269H.2709961V.64253237H.42099C.5079956 .64253237 .5779877 .6085663 .61499026 .5566101 .6439972 .51564028 .6629944 .4666748 .6629944 .33776856Z"/>
<path id="font_2_107" d="M.44898988 .17396546H.42399598C.4189911 .14398194 .4119873 .099990848 .4019928 .084991458 .394989 .07699585 .32899476 .07699585 .30699159 .07699585H.1269989L.23298645 .17996216C.3889923 .31803895 .44898988 .37210084 .44898988 .47216798 .44898988 .5860901 .35899354 .6660156 .23699951 .6660156 .12399292 .6660156 .049987794 .57411196 .049987794 .48516847 .049987794 .4291687 .099990848 .4291687 .102996829 .4291687 .11999512 .4291687 .15499878 .44117738 .15499878 .48217774 .15499878 .5081787 .13699341 .5341797 .101989749 .5341797 .09399414 .5341797 .09199524 .5341797 .08898926 .5331726 .11199951 .59806826 .1659851 .63500979 .22399903 .63500979 .31498719 .63500979 .35798646 .5541382 .35798646 .47216798 .35798646 .39196778 .30799867 .31297303 .25299073 .25097657L.06098938 .036987306C.049987794 .025985718 .049987794 .023986817 .049987794 0H.42099L.44898988 .17396546Z"/>
<path id="font_2_121" d="M.45999146 .31976319C.45999146 .39982606 .45498658 .47988893 .41999818 .5539398 .37399293 .65000918 .2919922 .6660156 .25 .6660156 .18998719 .6660156 .116989139 .64001467 .07598877 .54693606 .04399109 .47789 .038986207 .39982606 .038986207 .31976319 .038986207 .24472046 .042999269 .15464783 .083999637 .07859802 .1269989-.0024719239 .19999695-.022460938 .24899292-.022460938 .30299378-.022460938 .3789978-.0014648438 .4229889 .09359741 .45498658 .16265869 .45999146 .2407074 .45999146 .31976319M.3769989 .3317871C.3769989 .25672914 .3769989 .18867493 .3659973 .12461853 .35099793 .029556275 .2939911-.00047302247 .24899292-.00047302247 .20999146-.00047302247 .15098572 .024551392 .1329956 .12062073 .12199402 .18066406 .12199402 .2727356 .12199402 .3317871 .12199402 .39582826 .12199402 .46188355 .12998963 .5159149 .14898682 .63500979 .22399903 .64401248 .24899292 .64401248 .28199769 .64401248 .34799195 .6259918 .36698915 .52693179 .3769989 .47088624 .3769989 .39482118 .3769989 .3317871Z"/>
<path id="font_2_56" d="M.44898988 .20091248C.44898988 .31991578 .36698915 .41992188 .25898744 .41992188 .21099854 .41992188 .16799927 .4039154 .13198853 .36891175V.5641022C.1519928 .55778506 .18499756 .55078127 .21699524 .55078127 .33999635 .55078127 .4099884 .6418457 .4099884 .65493777 .4099884 .6609802 .40699769 .6660156 .3999939 .6660156 .3999939 .66607668 .39698792 .66607668 .3919983 .66308596 .37199403 .65408328 .32299806 .63378909 .2559967 .63378909 .21598816 .63409426 .16999817 .641098 .12298584 .6621094 .114990238 .6651001 .11099243 .6651001 .11099243 .6651001 .100997928 .66508486 .100997928 .657074 .100997928 .64108279V.3447113C.100997928 .3266449 .100997928 .31861878 .114990238 .31861878 .12199402 .31861878 .12399292 .32164 .12799073 .32765199 .13899231 .34371949 .17599488 .3979187 .25698854 .3979187 .30899049 .3979187 .33399964 .3517456 .34199525 .3336792 .35798646 .2965393 .3600006 .2574005 .3600006 .20721436 .3600006 .17218018 .3600006 .112197879 .33599855 .07032776 .31199647 .031448366 .2749939 .0055389406 .22898865 .0055389406 .1559906 .0055389406 .09899902 .05836487 .08198547 .1171875 .084991458 .11685181 .08799744 .115859989 .09899902 .115859989 .13198853 .115859989 .14898682 .14085388 .14898682 .16485596 .14898682 .18885803 .13198853 .21386719 .09899902 .21386719 .084991458 .21386719 .049987794 .2068634 .049987794 .16085816 .049987794 .07432556 .11898804-.022460938 .23098755-.022460938 .34700013-.022460938 .44898988 .07331848 .44898988 .20019531V.20091248Z"/>
<path id="font_2_106" d="M.45700074 .17037964C.45700074 .252594 .3939972 .33088685 .2899933 .35191346 .37199403 .37893678 .42999269 .4490509 .42999269 .52809146 .42999269 .6100464 .34199525 .6660156 .24598694 .6660156 .14498902 .6660156 .068984989 .60606387 .068984989 .53009036 .068984989 .49710084 .09098816 .47808839 .11999512 .47808839 .15098572 .47808839 .17098999 .50009158 .17098999 .5290985 .17098999 .57910159 .12399292 .57910159 .10899353 .57910159 .13999939 .62802127 .20599365 .64100649 .24198914 .64100649 .2829895 .64100649 .33799745 .6190338 .33799745 .5290985 .33799745 .51708987 .33599855 .45906068 .30999757 .4149933 .27999879 .36691285 .24598694 .36390687 .22099304 .36291505 .21299744 .36190797 .18899536 .35990907 .18199158 .35990907 .17399597 .35890199 .16699219 .35791017 .16699219 .3479004 .16699219 .33691407 .17399597 .33691407 .19099427 .33691407H.23498535C.31698609 .33691407 .35398866 .2686615 .35398866 .17037964 .35398866 .034469606 .2849884 .0055389406 .24099732 .0055389406 .19799805 .0055389406 .12298584 .022491456 .08799744 .08137512 .12298584 .07637024 .1539917 .09837341 .1539917 .1363678 .1539917 .17237854 .1269989 .19238281 .09799194 .19238281 .07398987 .19238281 .041992189 .17837525 .041992189 .1343689 .041992189 .043441774 .1349945-.022460938 .24398804-.022460938 .3659973-.022460938 .45700074 .06838989 .45700074 .17037964Z"/>
<path id="font_2_57" d="M.47099305 .16503906V.19602967H.37098695V.6507721C.37098695 .6707611 .37098695 .6767578 .35499574 .6767578 .34599305 .6767578 .34298707 .6767578 .33499146 .6647644L.027999878 .19602967V.16503906H.2939911V.07800293C.2939911 .041992189 .2919922 .0309906 .21798706 .0309906H.19699097V0C.23799134 .0029907227 .2899933 .0029907227 .33198548 .0029907227 .37399293 .0029907227 .4269867 .0029907227 .46798707 0V.0309906H.44699098C.37298585 .0309906 .37098695 .041992189 .37098695 .07800293V.16503906H.47099305M.2999878 .19602967H.055999757L.2999878 .56881716V.19602967Z"/>
<path id="font_2_82" d="M.4189911 0V.0309906H.3869934C.29699708 .0309906 .2939911 .041992189 .2939911 .07902527V.64012148C.2939911 .6640167 .2939911 .6660156 .2709961 .6660156 .20899964 .60227969 .12098694 .60227969 .08898926 .60227969V.57128909C.10899353 .57128909 .16799927 .57128909 .21998596 .5972748V.07902527C.21998596 .042999269 .21699524 .0309906 .1269989 .0309906H.09498596V0C.12998963 .0029907227 .21699524 .0029907227 .25698854 .0029907227 .29699708 .0029907227 .38398744 .0029907227 .4189911 0Z"/>
<path id="font_2_101" d="M.45700074 .2036438C.45700074 .33070375 .36799623 .4267578 .25698854 .4267578 .18899536 .4267578 .1519928 .37573243 .13198853 .327713V.35173036C.13198853 .6047821 .2559967 .64100649 .30699159 .64100649 .33099366 .64100649 .37298585 .634964 .394989 .6007538 .37998963 .6007538 .33999635 .6007538 .33999635 .5557556 .33999635 .524765 .3639984 .5097656 .38598634 .5097656 .4019928 .5097656 .43199159 .51875308 .43199159 .5577545 .43199159 .6178589 .3880005 .6660156 .30499269 .6660156 .1769867 .6660156 .041992189 .5367584 .041992189 .31570436 .041992189 .048553468 .1579895-.022460938 .25099183-.022460938 .3619995-.022460938 .45700074 .07156372 .45700074 .2036438M.36698915 .20463562C.36698915 .15661621 .36698915 .10658264 .34999085 .0705719 .31999208 .010528564 .27398683 .0055389406 .25099183 .0055389406 .18798828 .0055389406 .1579895 .06556702 .1519928 .080566409 .13398743 .127594 .13398743 .2076416 .13398743 .22564698 .13398743 .30369569 .1659851 .40374757 .2559967 .40374757 .27198792 .40374757 .31799317 .40374757 .34899903 .34172059 .36698915 .30470277 .36698915 .2536621 .36698915 .20463562Z"/>
<path id="font_1_72" d="M.28599549 0V.042999269H.21699524V.69433596L.04399109 .6855469V.64253237C.10598755 .64253237 .11299133 .64253237 .11299133 .6035614V.042999269H.04399109V0C.066986087 .0019989014 .13798523 .0019989014 .16499329 .0019989014 .19198609 .0019989014 .2630005 .0019989014 .28599549 0Z"/>
<path id="font_1_62" d="M.84098818 0V.042999269H.7350006V.64253237H.84098818V.6855469C.81199648 .6835327 .7049866 .6835327 .6689911 .6835327 .6329956 .6835327 .526001 .6835327 .49699403 .6855469V.64253237H.6029968V.3779297H.27598573V.64253237H.38198854V.6855469C.35299684 .6835327 .24598694 .6835327 .20999146 .6835327 .17399597 .6835327 .066986087 .6835327 .037994386 .6855469V.64253237H.14399719V.042999269H.037994386V0C.066986087 .0019989014 .17399597 .0019989014 .20999146 .0019989014 .24598694 .0019989014 .35299684 .0019989014 .38198854 0V.042999269H.27598573V.33491517H.6029968V.042999269H.49699403V0C.526001 .0019989014 .6329956 .0019989014 .6689911 .0019989014 .7049866 .0019989014 .81199648 .0019989014 .84098818 0Z"/>
<path id="font_1_63" d="M.59999087 0V.042999269H.5309906V.30659486C.5309906 .4012909 .48999024 .4501953 .37998963 .4501953 .2789917 .4501953 .22999573 .37942506 .21598816 .34960938H.21499634V.69433596L.041992189 .6855469V.64253237C.10398865 .64253237 .11099243 .64253237 .11099243 .6036682V.042999269H.041992189V0C.06498718 .0019989014 .13699341 .0019989014 .16499329 .0019989014 .19299317 .0019989014 .2659912 .0019989014 .2889862 0V.042999269H.21998596V.25610353C.21998596 .36416627 .2999878 .41719056 .3639984 .41719056 .40098573 .41719056 .42199708 .39317323 .42199708 .31713868V.042999269H.35299684V0C.37599183 .0019989014 .44799806 .0019989014 .47599793 .0019989014 .5039978 .0019989014 .57699587 .0019989014 .59999087 0Z"/>
<path id="font_1_47" d="M.58898928 0V.042999269C.5269928 .042999269 .519989 .042999269 .519989 .08201599V.69433596L.34700013 .6855469V.64253237C.40899659 .64253237 .41600038 .64253237 .41600038 .6036682V.40219117C.3939972 .42118836 .34999085 .4501953 .2809906 .4501953 .13899231 .4501953 .037994386 .36218263 .037994386 .22215271 .037994386 .07914734 .13699341-.005859375 .269989-.005859375 .32499696-.005859375 .37199403 .013137817 .41099549 .046142579V-.005859375L.58898928 0M.41099549 .100997928C.36898805 .040130617 .31799317 .027130127 .28199769 .027130127 .1579895 .027130127 .1579895 .15414429 .1579895 .22015381 .1579895 .26716615 .1579895 .3171692 .17999268 .35517884 .21099854 .4111786 .269989 .41719056 .29299928 .41719056 .33399964 .41719056 .37799073 .39918519 .41099549 .35517884V.100997928Z"/>
<path id="font_1_80" d="M.7819977 .34025575C.7819977 .5522461 .6439972 .6982422 .42199708 .6982422 .19898987 .6982422 .06199646 .551239 .06199646 .34025575 .06199646 .12927246 .20199585-.01171875 .42199708-.01171875 .6419983-.01171875 .7819977 .12927246 .7819977 .34025575M.6409912 .35424806C.6409912 .25526429 .6299896 .17227173 .5799866 .103271488 .5549927 .0692749 .5 .026275635 .42199708 .026275635 .35699464 .026275635 .2939911 .057266237 .2559967 .11427307 .20799256 .18727112 .20298767 .28126527 .20298767 .35424806 .20298767 .4152527 .20599365 .49925233 .24699402 .5672455 .29100038 .63723757 .36299134 .66223147 .42199708 .66223147 .5029907 .66223147 .5629883 .6192322 .59199526 .57424929 .6289978 .5162506 .6409912 .45425416 .6409912 .35424806Z"/>
<path id="font_1_112" d="M.56900027 .4013214V.44433595C.5329895 .44232179 .5309906 .44232179 .48999024 .44232179L.4039917 .44433595V.4013214C.43099977 .4013214 .45298768 .3963318 .45298768 .389328 .45298768 .389328 .45298768 .38731385 .44799806 .37731935L.33099366 .12017822 .20199585 .4013214H.25698854V.44433595C.23399353 .44232179 .1639862 .44232179 .13699341 .44232179 .10798645 .44232179 .049987794 .44232179 .023986817 .44433595V.4013214H.08699036L.2630005 .019119263C.27198792 .00010681152 .27398683-.0048828127 .29699708-.0048828127 .31298829-.0048828127 .32099916-.0028839112 .32998658 .017120362L.49499513 .37831117C.5019989 .3933258 .5059967 .4013214 .56900027 .4013214Z"/>
<path id="font_1_74" d="M1.0249939 0V.042999269H.9189911V.64253237H1.0249939V.6855469H.81199648C.79100039 .6855469 .7819977 .6855469 .772995 .6645355L.5329895 .1269226 .29299928 .6645355C.28399659 .6855469 .2749939 .6855469 .2539978 .6855469H.040985109V.64253237H.14698792V.07296753C.14698792 .050979616 .1459961 .049987794 .11999512 .04598999 .101989749 .04399109 .08198547 .042999269 .06399536 .042999269H.040985109V0C.06399536 .0019989014 .14199829 .0019989014 .16999817 .0019989014 .19799805 .0019989014 .2769928 .0019989014 .2999878 0V.042999269H.2769928C.25 .042999269 .24798584 .042999269 .22399903 .04598999 .19499207 .049987794 .19400025 .050979616 .19400025 .07296753V.6305542H.19499207L.46699525 .020996094C.47200013 .009994507 .47799684 0 .49499513 0 .5119934 0 .5179901 .009994507 .522995 .020996094L.7999878 .64253237H.8009949V.042999269H.69499209V0C.7220001 .0019989014 .82598879 .0019989014 .8600006 .0019989014 .8939972 .0019989014 .9980011 .0019989014 1.0249939 0Z"/>
</defs>
<path transform="matrix(1.00006,0,0,-1.00003,87.38433,215.75511)" stroke-width=".19925" stroke-linecap="butt" stroke-miterlimit="10" stroke-linejoin="miter" fill="none" stroke="#d9d9d9" d="M0 0H198.42766M0 2.83484H198.42766M0 5.6697H198.42766M0 8.50455H198.42766M0 11.33939H198.42766M0 14.17424H198.42766M0 17.0091H198.42766M0 19.84393H198.42766M0 22.67879H198.42766M0 25.51364H198.42766M0 28.3485H198.42766M0 31.18333H198.42766M0 34.01819H198.42766M0 36.85304H198.42766M0 39.68788H198.42766M0 42.52274H198.42766M0 45.35759H198.42766M0 48.19244H198.42766M0 51.02728H198.42766M0 53.86214H198.42766M0 56.69699H198.42766M0 59.53183H198.42766M0 62.36668H198.42766M0 65.20154H198.42766M0 68.03639H198.42766M0 70.87123H198.42766M0 73.70609H198.42766M0 76.54094H198.42766M0 79.37578H198.42766M0 82.21063H198.42766M0 85.04549H198.42766M0 87.88034H198.42766M0 90.71518H198.42766M0 93.55003H198.42766M0 96.38489H198.42766M0 99.21973H198.42766M0 102.05458H198.42766M0 104.88943H198.42766M0 107.72429H198.42766M0 110.55913H198.42766M0 113.39398H198.42766M0 116.22884H198.42766M0 119.06367H198.42766M0 121.89853H198.42766M0 124.73338H198.42766M0 127.56824H198.42766M0 130.40308H198.42766M0 133.23793H198.42766M0 136.07279H198.42766M0 138.90763H198.42766M0 141.74248H198.42766M0 144.57733H198.42766M0 147.41219H198.42766M0 150.24703H198.42766M0 153.08188H198.42766M0 155.91674H198.42766M0 158.75157H198.42766M0 161.58643H198.42766M0 164.42128H198.42766M0 167.25612H198.42766M0 170.09098H198.42766M0 172.92583H198.42766M0 175.76068H198.42766M0 178.59552H198.42766M0 181.43038H198.42766M0 184.26523H198.42766M0 187.10007H198.42766M0 189.93492H198.42766M0 192.76978H198.42766M0 195.60463H198.42766M0 0V198.42766M2.83484 0V198.42766M5.6697 0V198.42766M8.50455 0V198.42766M11.33939 0V198.42766M14.17424 0V198.42766M17.0091 0V198.42766M19.84393 0V198.42766M22.67879 0V198.42766M25.51364 0V198.42766M28.3485 0V198.42766M31.18333 0V198.42766M34.01819 0V198.42766M36.85304 0V198.42766M39.68788 0V198.42766M42.52274 0V198.42766M45.35759 0V198.42766M48.19244 0V198.42766M51.02728 0V198.42766M53.86214 0V198.42766M56.69699 0V198.42766M59.53183 0V198.42766M62.36668 0V198.42766M65.20154 0V198.42766M68.03639 0V198.42766M70.87123 0V198.42766M73.70609 0V198.42766M76.54094 0V198.42766M79.37578 0V198.42766M82.21063 0V198.42766M85.04549 0V198.42766M87.88034 0V198.42766M90.71518 0V198.42766M93.55003 0V198.42766M96.38489 0V198.42766M99.21973 0V198.42766M102.05458 0V198.42766M104.88943 0V198.42766M107.72429 0V198.42766M110.55913 0V198.42766M113.39398 0V198.42766M116.22884 0V198.42766M119.06367 0V198.42766M121.89853 0V198.42766M124.73338 0V198.42766M127.56824 0V198.42766M130.40308 0V198.42766M133.23793 0V198.42766M136.07279 0V198.42766M138.90763 0V198.42766M141.74248 0V198.42766M144.57733 0V198.42766M147.41219 0V198.42766M150.24703 0V198.42766M153.08188 0V198.42766M155.91674 0V198.42766M158.75157 0V198.42766M161.58643 0V198.42766M164.42128 0V198.42766M167.25612 0V198.42766M170.09098 0V198.42766M172.92583 0V198.42766M175.76068 0V198.42766M178.59552 0V198.42766M181.43038 0V198.42766M184.26523 0V198.42766M187.10007 0V198.42766M189.93492 0V198.42766M192.76978 0V198.42766M195.60463 0V198.42766M198.42766 198.42766"/>
<path transform="matrix(1.00006,0,0,-1.00003,87.38433,215.75511)" stroke-width=".3985" stroke-linecap="butt" stroke-miterlimit="10" stroke-linejoin="miter" fill="none" stroke="#a6a6a6" d="M0 0H198.42766M0 28.3468H198.42766M0 56.69362H198.42766M0 85.04042H198.42766M0 113.38724H198.42766M0 141.73404H198.42766M0 170.08086H198.42766M0 198.41771H198.42766M0 0V198.42766M28.3468 0V198.42766M56.69362 0V198.42766M85.04042 0V198.42766M113.38724 0V198.42766M141.73404 0V198.42766M170.08086 0V198.42766M198.41771 0V198.42766M198.42766 198.42766"/>
<path transform="matrix(1.00006,0,0,-1.00003,87.38433,215.75511)" stroke-width=".79701" stroke-linecap="butt" stroke-miterlimit="10" stroke-linejoin="miter" fill="none" stroke="#000000" d="M0 0H197.63065"/>
<path transform="matrix(1.00006,0,0,-1.00003,285.42536,215.75511)" stroke-width=".79701" stroke-linecap="round" stroke-linejoin="round" fill="none" stroke="#000000" d="M-2.55046 3.11095C-2.0845 1.24435-1.04614 .36295 0 0-1.04614-.36295-2.0845-1.24435-2.55046-3.11095"/>
<path transform="matrix(1.00006,0,0,-1.00003,87.38433,215.75511)" stroke-width=".79701" stroke-linecap="butt" stroke-miterlimit="10" stroke-linejoin="miter" fill="none" stroke="#000000" d="M0 0V197.63065"/>
<path transform="matrix(0,-1.00003,-1.00006,-0,87.38433,17.720002)" stroke-width=".79701" stroke-linecap="round" stroke-linejoin="round" fill="none" stroke="#000000" d="M-2.55046 3.11095C-2.0845 1.24435-1.04614 .36295 0 0-1.04614-.36295-2.0845-1.24435-2.55046-3.11095"/>
<use data-text="W" xlink:href="#font_1_113" transform="matrix(14.34706,0,0,-14.346631,99.86008,252.71323)"/>
<use data-text="a" xlink:href="#font_1_28" transform="matrix(14.34706,0,0,-14.346631,115.182758,252.71323)"/>
<use data-text="t" xlink:href="#font_1_105" transform="matrix(14.34706,0,0,-14.346631,123.03058,252.71323)"/>
<use data-text="e" xlink:href="#font_1_50" transform="matrix(14.34706,0,0,-14.346631,129.31459,252.71323)"/>
<use data-text="r" xlink:href="#font_1_96" transform="matrix(14.34706,0,0,-14.346631,136.67464,252.71323)"/>
<use data-text="C" xlink:href="#font_1_42" transform="matrix(14.34706,0,0,-14.346631,148.65444,252.71323)"/>
<use data-text="o" xlink:href="#font_1_81" transform="matrix(14.34706,0,0,-14.346631,160.3186,252.71323)"/>
<use data-text="n" xlink:href="#font_1_77" transform="matrix(14.34706,0,0,-14.346631,168.396,252.71323)"/>
<use data-text="s" xlink:href="#font_1_98" transform="matrix(14.34706,0,0,-14.346631,177.3629,252.71323)"/>
<use data-text="u" xlink:href="#font_1_109" transform="matrix(14.34706,0,0,-14.346631,183.73299,252.71323)"/>
<use data-text="m" xlink:href="#font_1_75" transform="matrix(14.34706,0,0,-14.346631,192.6999,252.71323)"/>
<use data-text="p" xlink:href="#font_1_84" transform="matrix(14.34706,0,0,-14.346631,206.15746,252.71323)"/>
<use data-text="t" xlink:href="#font_1_105" transform="matrix(14.34706,0,0,-14.346631,215.12435,252.71323)"/>
<use data-text="i" xlink:href="#font_1_66" transform="matrix(14.34706,0,0,-14.346631,221.40837,252.71323)"/>
<use data-text="o" xlink:href="#font_1_81" transform="matrix(14.34706,0,0,-14.346631,225.89897,252.71323)"/>
<use data-text="n" xlink:href="#font_1_77" transform="matrix(14.34706,0,0,-14.346631,233.97637,252.71323)"/>
<use data-text="(" xlink:href="#font_1_85" transform="matrix(14.34706,0,0,-14.346631,248.32341,252.71323)"/>
<use data-text="L" xlink:href="#font_1_71" transform="matrix(14.34706,0,0,-14.346631,254.60744,252.71323)"/>
<use data-text="i" xlink:href="#font_1_66" transform="matrix(14.34706,0,0,-14.346631,264.30604,252.71323)"/>
<use data-text="t" xlink:href="#font_1_105" transform="matrix(14.34706,0,0,-14.346631,268.7967,252.71323)"/>
<use data-text="e" xlink:href="#font_1_50" transform="matrix(14.34706,0,0,-14.346631,275.0807,252.71323)"/>
<use data-text="r" xlink:href="#font_1_96" transform="matrix(14.34706,0,0,-14.346631,282.44068,252.71323)"/>
<use data-text="s" xlink:href="#font_1_98" transform="matrix(14.34706,0,0,-14.346631,289.04035,252.71323)"/>
<use data-text=")" xlink:href="#font_1_86" transform="matrix(14.34706,0,0,-14.346631,295.41047,252.71323)"/>
<use data-text="F" xlink:href="#font_1_54" transform="matrix(0,-14.346631,-14.34706,-0,62.614854,164.80162)"/>
<use data-text="r" xlink:href="#font_1_96" transform="matrix(0,-14.346631,-14.34706,-0,62.614854,156.00713)"/>
<use data-text="e" xlink:href="#font_1_50" transform="matrix(0,-14.346631,-14.34706,-0,62.614854,149.40767)"/>
<use data-text="q" xlink:href="#font_1_91" transform="matrix(0,-14.346631,-14.34706,-0,62.614854,142.04785)"/>
<use data-text="u" xlink:href="#font_1_109" transform="matrix(0,-14.346631,-14.34706,-0,62.614854,133.52596)"/>
<use data-text="e" xlink:href="#font_1_50" transform="matrix(0,-14.346631,-14.34706,-0,62.614854,124.55931)"/>
<use data-text="n" xlink:href="#font_1_77" transform="matrix(0,-14.346631,-14.34706,-0,62.614854,117.19949)"/>
<use data-text="c" xlink:href="#font_1_43" transform="matrix(0,-14.346631,-14.34706,-0,62.614854,108.23285)"/>
<use data-text="y" xlink:href="#font_1_118" transform="matrix(0,-14.346631,-14.34706,-0,62.614854,101.05954)"/>
<use data-text="(" xlink:href="#font_1_85" transform="matrix(0,-14.346631,-14.34706,-0,62.614854,87.15767)"/>
<use data-text="D" xlink:href="#font_1_46" transform="matrix(0,-14.346631,-14.34706,-0,62.614854,80.87384)"/>
<use data-text="a" xlink:href="#font_1_28" transform="matrix(0,-14.346631,-14.34706,-0,62.614854,68.50705)"/>
<use data-text="y" xlink:href="#font_1_118" transform="matrix(0,-14.346631,-14.34706,-0,62.614854,61.089815)"/>
<use data-text="s" xlink:href="#font_1_98" transform="matrix(0,-14.346631,-14.34706,-0,62.614854,52.567934)"/>
<use data-text=")" xlink:href="#font_1_86" transform="matrix(0,-14.346631,-14.34706,-0,62.614854,46.19803)"/>
<use data-text="2" xlink:href="#font_2_107" transform="matrix(9.963197,0,0,-9.962899,110.75073,225.91042)"/>
<use data-text="0" xlink:href="#font_2_121" transform="matrix(9.963197,0,0,-9.962899,115.73233,225.91042)"/>
<use data-text="2" xlink:href="#font_2_107" transform="matrix(9.963197,0,0,-9.962899,139.09943,225.91042)"/>
<use data-text="5" xlink:href="#font_2_56" transform="matrix(9.963197,0,0,-9.962899,144.08103,225.91042)"/>
<use data-text="3" xlink:href="#font_2_106" transform="matrix(9.963197,0,0,-9.962899,167.44812,225.91042)"/>
<use data-text="0" xlink:href="#font_2_121" transform="matrix(9.963197,0,0,-9.962899,172.42972,225.91042)"/>
<use data-text="3" xlink:href="#font_2_106" transform="matrix(9.963197,0,0,-9.962899,195.79683,225.91042)"/>
<use data-text="5" xlink:href="#font_2_56" transform="matrix(9.963197,0,0,-9.962899,200.77843,225.91042)"/>
<use data-text="4" xlink:href="#font_2_57" transform="matrix(9.963197,0,0,-9.962899,224.14554,226.02042)"/>
<use data-text="0" xlink:href="#font_2_121" transform="matrix(9.963197,0,0,-9.962899,229.12714,226.02042)"/>
<use data-text="1" xlink:href="#font_2_82" transform="matrix(9.963197,0,0,-9.962899,78.88282,190.72536)"/>
<use data-text="2" xlink:href="#font_2_107" transform="matrix(9.963197,0,0,-9.962899,78.88282,162.3775)"/>
<use data-text="3" xlink:href="#font_2_106" transform="matrix(9.963197,0,0,-9.962899,78.88282,133.92066)"/>
<use data-text="4" xlink:href="#font_2_57" transform="matrix(9.963197,0,0,-9.962899,78.88282,105.73681)"/>
<use data-text="5" xlink:href="#font_2_56" transform="matrix(9.963197,0,0,-9.962899,78.88282,77.224948)"/>
<use data-text="6" xlink:href="#font_2_101" transform="matrix(9.963197,0,0,-9.962899,78.88282,48.87709)"/>
<path transform="matrix(1.00006,0,0,-1.00003,87.38433,215.75511)" d="M28.3468 0V56.69362H56.69362V0ZM56.69362 56.69362" fill="#6666ff"/>
<path transform="matrix(1.00006,0,0,-1.00003,87.38433,215.75511)" stroke-width=".3985" stroke-linecap="butt" stroke-miterlimit="10" stroke-linejoin="miter" fill="none" stroke="#000000" d="M28.3468 0V56.69362H56.69362V0ZM56.69362 56.69362"/>
<path transform="matrix(1.00006,0,0,-1.00003,87.38433,215.75511)" d="M56.69362 0V113.38724H85.04042V0ZM85.04042 113.38724" fill="#6666ff"/>
<path transform="matrix(1.00006,0,0,-1.00003,87.38433,215.75511)" stroke-width=".3985" stroke-linecap="butt" stroke-miterlimit="10" stroke-linejoin="miter" fill="none" stroke="#000000" d="M56.69362 0V113.38724H85.04042V0ZM85.04042 113.38724"/>
<path transform="matrix(1.00006,0,0,-1.00003,87.38433,215.75511)" d="M85.04042 0V170.08086H113.38724V0ZM113.38724 170.08086" fill="#6666ff"/>
<path transform="matrix(1.00006,0,0,-1.00003,87.38433,215.75511)" stroke-width=".3985" stroke-linecap="butt" stroke-miterlimit="10" stroke-linejoin="miter" fill="none" stroke="#000000" d="M85.04042 0V170.08086H113.38724V0ZM113.38724 170.08086"/>
<path transform="matrix(1.00006,0,0,-1.00003,87.38433,215.75511)" d="M113.38724 0V141.73404H141.73404V0ZM141.73404 141.73404" fill="#6666ff"/>
<path transform="matrix(1.00006,0,0,-1.00003,87.38433,215.75511)" stroke-width=".3985" stroke-linecap="butt" stroke-miterlimit="10" stroke-linejoin="miter" fill="none" stroke="#000000" d="M113.38724 0V141.73404H141.73404V0ZM141.73404 141.73404"/>
<path transform="matrix(1.00006,0,0,-1.00003,87.38433,215.75511)" d="M141.73404 0V85.04042H170.08086V0ZM170.08086 85.04042" fill="#6666ff"/>
<path transform="matrix(1.00006,0,0,-1.00003,87.38433,215.75511)" stroke-width=".3985" stroke-linecap="butt" stroke-miterlimit="10" stroke-linejoin="miter" fill="none" stroke="#000000" d="M141.73404 0V85.04042H170.08086V0ZM170.08086 85.04042"/>
<use data-text="D" xlink:href="#font_1_46" transform="matrix(14.34706,0,0,-14.346631,1.2161713,10.931961)"/>
<use data-text="a" xlink:href="#font_1_28" transform="matrix(14.34706,0,0,-14.346631,13.5833439,10.931961)"/>
<use data-text="i" xlink:href="#font_1_66" transform="matrix(14.34706,0,0,-14.346631,21.431183,10.931961)"/>
<use data-text="l" xlink:href="#font_1_72" transform="matrix(14.34706,0,0,-14.346631,25.921799,10.931961)"/>
<use data-text="y" xlink:href="#font_1_118" transform="matrix(14.34706,0,0,-14.346631,30.41243,10.931961)"/>
<use data-text="H" xlink:href="#font_1_62" transform="matrix(14.34706,0,0,-14.346631,44.314729,10.931961)"/>
<use data-text="o" xlink:href="#font_1_81" transform="matrix(14.34706,0,0,-14.346631,56.940126,10.931961)"/>
<use data-text="u" xlink:href="#font_1_109" transform="matrix(14.34706,0,0,-14.346631,65.01752,10.931961)"/>
<use data-text="s" xlink:href="#font_1_98" transform="matrix(14.34706,0,0,-14.346631,73.98442,10.931961)"/>
<use data-text="e" xlink:href="#font_1_50" transform="matrix(14.34706,0,0,-14.346631,80.35452,10.931961)"/>
<use data-text="h" xlink:href="#font_1_63" transform="matrix(14.34706,0,0,-14.346631,87.71457,10.931961)"/>
<use data-text="o" xlink:href="#font_1_81" transform="matrix(14.34706,0,0,-14.346631,96.68146,10.931961)"/>
<use data-text="l" xlink:href="#font_1_72" transform="matrix(14.34706,0,0,-14.346631,104.75885,10.931961)"/>
<use data-text="d" xlink:href="#font_1_47" transform="matrix(14.34706,0,0,-14.346631,109.24948,10.931961)"/>
<use data-text="W" xlink:href="#font_1_113" transform="matrix(14.34706,0,0,-14.346631,123.59653,10.931961)"/>
<use data-text="a" xlink:href="#font_1_28" transform="matrix(14.34706,0,0,-14.346631,138.93354,10.931961)"/>
<use data-text="t" xlink:href="#font_1_105" transform="matrix(14.34706,0,0,-14.346631,146.7814,10.931961)"/>
<use data-text="e" xlink:href="#font_1_50" transform="matrix(14.34706,0,0,-14.346631,153.0654,10.931961)"/>
<use data-text="r" xlink:href="#font_1_96" transform="matrix(14.34706,0,0,-14.346631,160.42545,10.931961)"/>
<use data-text="C" xlink:href="#font_1_42" transform="matrix(14.34706,0,0,-14.346631,172.39087,10.931961)"/>
<use data-text="o" xlink:href="#font_1_81" transform="matrix(14.34706,0,0,-14.346631,184.05503,10.931961)"/>
<use data-text="n" xlink:href="#font_1_77" transform="matrix(14.34706,0,0,-14.346631,192.13242,10.931961)"/>
<use data-text="s" xlink:href="#font_1_98" transform="matrix(14.34706,0,0,-14.346631,201.0993,10.931961)"/>
<use data-text="u" xlink:href="#font_1_109" transform="matrix(14.34706,0,0,-14.346631,207.46942,10.931961)"/>
<use data-text="m" xlink:href="#font_1_75" transform="matrix(14.34706,0,0,-14.346631,216.43634,10.931961)"/>
<use data-text="p" xlink:href="#font_1_84" transform="matrix(14.34706,0,0,-14.346631,229.89386,10.931961)"/>
<use data-text="t" xlink:href="#font_1_105" transform="matrix(14.34706,0,0,-14.346631,238.86078,10.931961)"/>
<use data-text="i" xlink:href="#font_1_66" transform="matrix(14.34706,0,0,-14.346631,245.14478,10.931961)"/>
<use data-text="o" xlink:href="#font_1_81" transform="matrix(14.34706,0,0,-14.346631,249.6354,10.931961)"/>
<use data-text="n" xlink:href="#font_1_77" transform="matrix(14.34706,0,0,-14.346631,257.7128,10.931961)"/>
<use data-text="O" xlink:href="#font_1_80" transform="matrix(14.34706,0,0,-14.346631,272.05986,10.931961)"/>
<use data-text="v" xlink:href="#font_1_112" transform="matrix(14.34706,0,0,-14.346631,284.1831,10.931961)"/>
<use data-text="e" xlink:href="#font_1_50" transform="matrix(14.34706,0,0,-14.346631,292.27485,10.931961)"/>
<use data-text="r" xlink:href="#font_1_96" transform="matrix(14.34706,0,0,-14.346631,299.63487,10.931961)"/>
<use data-text="a" xlink:href="#font_1_28" transform="matrix(14.34706,0,0,-14.346631,311.6003,10.931961)"/>
<use data-text="M" xlink:href="#font_1_74" transform="matrix(14.34706,0,0,-14.346631,324.8283,10.931961)"/>
<use data-text="o" xlink:href="#font_1_81" transform="matrix(14.34706,0,0,-14.346631,340.13664,10.931961)"/>
<use data-text="n" xlink:href="#font_1_77" transform="matrix(14.34706,0,0,-14.346631,348.214,10.931961)"/>
<use data-text="t" xlink:href="#font_1_105" transform="matrix(14.34706,0,0,-14.346631,356.75056,10.931961)"/>
<use data-text="h" xlink:href="#font_1_63" transform="matrix(14.34706,0,0,-14.346631,363.03456,10.931961)"/>
</svg>
