<svg xmlns="http://www.w3.org/2000/svg" xmlns:xlink="http://www.w3.org/1999/xlink" xmlns:inkscape="http://www.inkscape.org/namespaces/inkscape" version="1.1" width="153" height="86" viewBox="0 0 153 86">
<defs>
<path id="font_1_62" d="M.7509918 0V.032989503H.72898867C.6519928 .032989503 .6499939 .04399109 .6499939 .08097839V.60165408C.6499939 .63861086 .6519928 .6496124 .72898867 .6496124H.7509918V.6826172L.60398867 .6796112 .45700074 .6826172V.6496124H.47898866C.55599978 .6496124 .55799868 .63861086 .55799868 .60165408V.3718567H.23699951V.60165408C.23699951 .63861086 .23899842 .6496124 .31599427 .6496124H.33799745V.6826172L.19099427 .6796112 .04399109 .6826172V.6496124H.06599426C.14299011 .6496124 .14498902 .63861086 .14498902 .60165408V.08097839C.14498902 .04399109 .14299011 .032989503 .06599426 .032989503H.04399109V0L.19099427 .0029907227 .33799745 0V.032989503H.31599427C.23899842 .032989503 .23699951 .04399109 .23699951 .08097839V.3388672H.55799868V.08097839C.55799868 .04399109 .55599978 .032989503 .47898866 .032989503H.45700074V0L.60398867 .0029907227 .7509918 0Z"/>
<path id="font_1_104" d="M.7279968 .44877626 .70799258 .67578127H.057998659L.037994386 .44877626H.068984989C.08299255 .61776736 .10598755 .6427765 .25898744 .6427765 .27799989 .6427765 .30899049 .6427765 .31698609 .6407776 .33599855 .6367798 .33699037 .6267853 .33699037 .6017914V.081970218C.33699037 .04698181 .33699037 .032989503 .23298645 .032989503H.19499207V0C.23199463 .0029907227 .33999635 .0029907227 .3829956 .0029907227 .42599488 .0029907227 .5339966 .0029907227 .57099917 0V.032989503H.5329895C.42900086 .032989503 .42900086 .04698181 .42900086 .081970218V.6017914C.42900086 .6247864 .42900086 .6367798 .44999696 .6407776 .45899964 .6427765 .48799134 .6427765 .5069885 .6427765 .6599884 .6427765 .68299868 .61776736 .69699099 .44877626H.7279968Z"/>
<path id="font_2_1" d="M.397995 .63591006C.397995 .6660156 .394989 .6660156 .3619995 .6660156 .29100038 .6016083 .17999268 .6016083 .1599884 .6016083H.14299011V.5576172H.1599884C.18299866 .5576172 .24798584 .5606079 .30599977 .58561709V.08596802C.30599977 .054977418 .30599977 .04399109 .19999695 .04399109H.1499939V0C.20498657 .0039978029 .2939911 .0039978029 .35198976 .0039978029 .4099884 .0039978029 .49899293 .0039978029 .55400088 0V.04399109H.5039978C.397995 .04399109 .397995 .054977418 .397995 .08596802V.63591006Z"/>
<path id="font_2_2" d="M.58898928 .19296265H.5469971C.5439911 .17396546 .5339966 .11198425 .5179901 .101989749 .5099945 .09599304 .42599488 .09599304 .41099549 .09599304H.21499634C.2809906 .14497376 .35499574 .20095825 .4149933 .24093628 .5049896 .30291749 .58898928 .36090089 .58898928 .46687318 .58898928 .59495547 .46798707 .6660156 .32499696 .6660156 .18998719 .6660156 .09098816 .58795168 .09098816 .48986817 .09098816 .4378662 .1349945 .42886354 .14898682 .42886354 .17599488 .42886354 .20799256 .4468689 .20799256 .48786927 .20799256 .52386477 .18199158 .543869 .15098572 .546875 .1789856 .59194949 .23699951 .6220093 .3039856 .6220093 .40098573 .6220093 .48199464 .5639038 .48199464 .4658661 .48199464 .3818817 .42399598 .31791688 .34700013 .2529297L.102996829 .04598999C.09298706 .036987306 .09199524 .036987306 .09098816 .02999878V0H.55599978L.58898928 .19296265Z"/>
</defs>
<path transform="matrix(1,0,0,-1.00008,5.112999,42.673215)" stroke-width=".79701" stroke-linecap="butt" stroke-miterlimit="10" stroke-linejoin="miter" fill="none" stroke="#000000" d="M2.81807 0C2.81807 1.55638 1.55638 2.81807 0 2.81807-1.55638 2.81807-2.81807 1.55638-2.81807 0-2.81807-1.55638-1.55638-2.81807 0-2.81807 1.55638-2.81807 2.81807-1.55638 2.81807 0ZM0 0"/>
<path transform="matrix(1,0,0,-1.00008,5.112999,42.673215)" stroke-width=".3985" stroke-linecap="butt" stroke-miterlimit="10" stroke-linejoin="miter" fill="none" stroke="#000000" d="M75.0275-27.21292C75.0275-23.34946 71.89561-20.21758 68.03217-20.21758 64.1687-20.21758 61.03682-23.34946 61.03682-27.21292 61.03682-31.07639 64.1687-34.20825 68.03217-34.20825 71.89561-34.20825 75.0275-31.07639 75.0275-27.21292ZM68.03217-27.21292"/>
<use data-text="H" xlink:href="#font_1_62" transform="matrix(7.9701,0,0,-7.9707376,69.973,72.61061)"/>
<path transform="matrix(1,0,0,-1.00008,5.112999,42.673215)" stroke-width=".79701" stroke-linecap="butt" stroke-miterlimit="10" stroke-linejoin="miter" fill="none" stroke="#000000" d="M2.99765-1.19904 61.3536-24.54155"/>
<path transform="matrix(1,0,0,-1.00008,5.112999,42.673215)" stroke-width=".79701" stroke-linecap="butt" stroke-miterlimit="10" stroke-linejoin="miter" fill="none" stroke="#000000" d="M145.54453-31.7483C145.54453-26.51247 141.30016-22.26811 136.06433-22.26811 130.82849-22.26811 126.58414-26.51247 126.58414-31.7483 126.58414-36.98415 130.82849-41.2285 136.06433-41.2285 141.30016-41.2285 145.54453-36.98415 145.54453-31.7483ZM136.06433-31.7483"/>
<use data-text="H" xlink:href="#font_1_62" transform="matrix(7.9701,0,0,-7.9707376,134.949,77.14597)"/>
<use data-text="T" xlink:href="#font_1_104" transform="matrix(7.9701,0,0,-7.9707376,141.2932,77.14597)"/>
<path transform="matrix(1,0,0,-1.00008,5.112999,42.673215)" stroke-width=".79701" stroke-linecap="butt" stroke-miterlimit="10" stroke-linejoin="miter" fill="none" stroke="#000000" d="M75.2211-27.69664 126.40846-31.1093"/>
<use data-text="1" xlink:href="#font_2_1" transform="matrix(4.9813,0,0,-4.9816987,104.233,77.68001)"/>
<path transform="matrix(1,0,0,-1.00008,16.924004,52.679014)" stroke-width=".3387" stroke-linecap="butt" stroke-miterlimit="10" stroke-linejoin="miter" fill="none" stroke="#000000" d="M87.309-25.933H90.699"/>
<use data-text="2" xlink:href="#font_2_2" transform="matrix(4.9813,0,0,-4.9816987,104.233,82.758419)"/>
<path transform="matrix(1,0,0,-1.00008,5.112999,42.673215)" stroke-width=".79701" stroke-linecap="butt" stroke-miterlimit="10" stroke-linejoin="miter" fill="none" stroke="#000000" d="M145.63477-22.67744C145.63477-17.39177 141.34999-13.107 136.06433-13.107 130.77866-13.107 126.4939-17.39177 126.4939-22.67744 126.4939-27.9631 130.77866-32.24788 136.06433-32.24788 141.34999-32.24788 145.63477-27.9631 145.63477-22.67744ZM136.06433-22.67744"/>
<use data-text="H" xlink:href="#font_1_62" transform="matrix(7.9701,0,0,-7.9707376,134.83301,68.07425)"/>
<use data-text="H" xlink:href="#font_1_62" transform="matrix(7.9701,0,0,-7.9707376,141.1772,68.07425)"/>
<path transform="matrix(1,0,0,-1.00008,5.112999,42.673215)" stroke-width=".79701" stroke-linecap="butt" stroke-miterlimit="10" stroke-linejoin="miter" fill="none" stroke="#000000" d="M75.22095-26.72906 126.31845-23.32242"/>
<use data-text="1" xlink:href="#font_2_1" transform="matrix(4.9813,0,0,-4.9816987,104.187999,60.230619)"/>
<path transform="matrix(1,0,0,-1.00008,16.878998,35.229619)" stroke-width=".3387" stroke-linecap="butt" stroke-miterlimit="10" stroke-linejoin="miter" fill="none" stroke="#000000" d="M87.309-25.933H90.699"/>
<use data-text="2" xlink:href="#font_2_2" transform="matrix(4.9813,0,0,-4.9816987,104.187999,65.30902)"/>
<use data-text="1" xlink:href="#font_2_1" transform="matrix(4.9813,0,0,-4.9816987,35.593999,61.14569)"/>
<path transform="matrix(1,0,0,-1.00008,-51.715,36.14469)" stroke-width=".3387" stroke-linecap="butt" stroke-miterlimit="10" stroke-linejoin="miter" fill="none" stroke="#000000" d="M87.309-25.933H90.699"/>
<use data-text="2" xlink:href="#font_2_2" transform="matrix(4.9813,0,0,-4.9816987,35.593999,66.2241)"/>
<path transform="matrix(1,0,0,-1.00008,5.112999,42.673215)" stroke-width=".3985" stroke-linecap="butt" stroke-miterlimit="10" stroke-linejoin="miter" fill="none" stroke="#000000" d="M74.90735 27.21301C74.90735 31.01012 71.82927 34.0882 68.03217 34.0882 64.23506 34.0882 61.15697 31.01012 61.15697 27.21301 61.15697 23.41591 64.23506 20.33783 68.03217 20.33783 71.82927 20.33783 74.90735 23.41591 74.90735 27.21301ZM68.03217 27.21301"/>
<use data-text="T" xlink:href="#font_1_104" transform="matrix(7.9701,0,0,-7.9707376,70.089,18.152255)"/>
<path transform="matrix(1,0,0,-1.00008,5.112999,42.673215)" stroke-width=".79701" stroke-linecap="butt" stroke-miterlimit="10" stroke-linejoin="miter" fill="none" stroke="#000000" d="M2.99765 1.19902 61.46515 24.58623"/>
<path transform="matrix(1,0,0,-1.00008,5.112999,42.673215)" stroke-width=".79701" stroke-linecap="butt" stroke-miterlimit="10" stroke-linejoin="miter" fill="none" stroke="#000000" d="M145.41124 22.67761C145.41124 27.83983 141.22653 32.02452 136.06433 32.02452 130.90212 32.02452 126.71742 27.83983 126.71742 22.67761 126.71742 17.51541 130.90212 13.33072 136.06433 13.33072 141.22653 13.33072 145.41124 17.51541 145.41124 22.67761ZM136.06433 22.67761"/>
<use data-text="T" xlink:href="#font_1_104" transform="matrix(7.9701,0,0,-7.9707376,135.064,22.687617)"/>
<use data-text="T" xlink:href="#font_1_104" transform="matrix(7.9701,0,0,-7.9707376,141.17707,22.687617)"/>
<path transform="matrix(1,0,0,-1.00008,5.112999,42.673215)" stroke-width=".79701" stroke-linecap="butt" stroke-miterlimit="10" stroke-linejoin="miter" fill="none" stroke="#000000" d="M75.10121 26.73727 126.5414 23.30779"/>
<use data-text="1" xlink:href="#font_2_1" transform="matrix(4.9813,0,0,-4.9816987,104.24,23.24966)"/>
<path transform="matrix(1,0,0,-1.00008,16.931,-1.751339)" stroke-width=".3387" stroke-linecap="butt" stroke-miterlimit="10" stroke-linejoin="miter" fill="none" stroke="#000000" d="M87.309-25.933H90.699"/>
<use data-text="2" xlink:href="#font_2_2" transform="matrix(4.9813,0,0,-4.9816987,104.24,28.328066)"/>
<path transform="matrix(1,0,0,-1.00008,5.112999,42.673215)" stroke-width=".79701" stroke-linecap="butt" stroke-miterlimit="10" stroke-linejoin="miter" fill="none" stroke="#000000" d="M145.54453 31.74849C145.54453 36.98433 141.30016 41.22868 136.06433 41.22868 130.82849 41.22868 126.58414 36.98433 126.58414 31.74849 126.58414 26.51265 130.82849 22.2683 136.06433 22.2683 141.30016 22.2683 145.54453 26.51265 145.54453 31.74849ZM136.06433 31.74849"/>
<use data-text="T" xlink:href="#font_1_104" transform="matrix(7.9701,0,0,-7.9707376,134.949,13.643892)"/>
<use data-text="H" xlink:href="#font_1_62" transform="matrix(7.9701,0,0,-7.9707376,141.06208,13.643892)"/>
<path transform="matrix(1,0,0,-1.00008,5.112999,42.673215)" stroke-width=".79701" stroke-linecap="butt" stroke-miterlimit="10" stroke-linejoin="miter" fill="none" stroke="#000000" d="M75.10121 27.68872 126.40846 31.10948"/>
<use data-text="1" xlink:href="#font_2_1" transform="matrix(4.9813,0,0,-4.9816987,104.173,5.801262)"/>
<path transform="matrix(1,0,0,-1.00008,16.863999,-19.199738)" stroke-width=".3387" stroke-linecap="butt" stroke-miterlimit="10" stroke-linejoin="miter" fill="none" stroke="#000000" d="M87.309-25.933H90.699"/>
<use data-text="2" xlink:href="#font_2_2" transform="matrix(4.9813,0,0,-4.9816987,104.173,10.879667)"/>
<use data-text="1" xlink:href="#font_2_1" transform="matrix(4.9813,0,0,-4.9816987,35.649999,22.309584)"/>
<path transform="matrix(1,0,0,-1.00008,-51.659,-2.6914159)" stroke-width=".3387" stroke-linecap="butt" stroke-miterlimit="10" stroke-linejoin="miter" fill="none" stroke="#000000" d="M87.309-25.933H90.699"/>
<use data-text="2" xlink:href="#font_2_2" transform="matrix(4.9813,0,0,-4.9816987,35.649999,27.387989)"/>
</svg>
