<svg xmlns="http://www.w3.org/2000/svg" xmlns:xlink="http://www.w3.org/1999/xlink" xmlns:inkscape="http://www.inkscape.org/namespaces/inkscape" version="1.1" width="378" height="367" viewBox="0 0 378 367">
<defs>
<path id="font_1_82" d="M.4189911 0V.0309906H.3869934C.29699708 .0309906 .2939911 .041992189 .2939911 .07902527V.64012148C.2939911 .6640167 .2939911 .6660156 .2709961 .6660156 .20899964 .60227969 .12098694 .60227969 .08898926 .60227969V.57128909C.10899353 .57128909 .16799927 .57128909 .21998596 .5972748V.07902527C.21998596 .042999269 .21699524 .0309906 .1269989 .0309906H.09498596V0C.12998963 .0029907227 .21699524 .0029907227 .25698854 .0029907227 .29699708 .0029907227 .38398744 .0029907227 .4189911 0Z"/>
<path id="font_1_121" d="M.45999146 .31976319C.45999146 .39982606 .45498658 .47988893 .41999818 .5539398 .37399293 .65000918 .2919922 .6660156 .25 .6660156 .18998719 .6660156 .116989139 .64001467 .07598877 .54693606 .04399109 .47789 .038986207 .39982606 .038986207 .31976319 .038986207 .24472046 .042999269 .15464783 .083999637 .07859802 .1269989-.0024719239 .19999695-.022460938 .24899292-.022460938 .30299378-.022460938 .3789978-.0014648438 .4229889 .09359741 .45498658 .16265869 .45999146 .2407074 .45999146 .31976319M.3769989 .3317871C.3769989 .25672914 .3769989 .18867493 .3659973 .12461853 .35099793 .029556275 .2939911-.00047302247 .24899292-.00047302247 .20999146-.00047302247 .15098572 .024551392 .1329956 .12062073 .12199402 .18066406 .12199402 .2727356 .12199402 .3317871 .12199402 .39582826 .12199402 .46188355 .12998963 .5159149 .14898682 .63500979 .22399903 .64401248 .24899292 .64401248 .28199769 .64401248 .34799195 .6259918 .36698915 .52693179 .3769989 .47088624 .3769989 .39482118 .3769989 .3317871Z"/>
<path id="font_1_107" d="M.44898988 .17396546H.42399598C.4189911 .14398194 .4119873 .099990848 .4019928 .084991458 .394989 .07699585 .32899476 .07699585 .30699159 .07699585H.1269989L.23298645 .17996216C.3889923 .31803895 .44898988 .37210084 .44898988 .47216798 .44898988 .5860901 .35899354 .6660156 .23699951 .6660156 .12399292 .6660156 .049987794 .57411196 .049987794 .48516847 .049987794 .4291687 .099990848 .4291687 .102996829 .4291687 .11999512 .4291687 .15499878 .44117738 .15499878 .48217774 .15499878 .5081787 .13699341 .5341797 .101989749 .5341797 .09399414 .5341797 .09199524 .5341797 .08898926 .5331726 .11199951 .59806826 .1659851 .63500979 .22399903 .63500979 .31498719 .63500979 .35798646 .5541382 .35798646 .47216798 .35798646 .39196778 .30799867 .31297303 .25299073 .25097657L.06098938 .036987306C.049987794 .025985718 .049987794 .023986817 .049987794 0H.42099L.44898988 .17396546Z"/>
<path id="font_1_106" d="M.45700074 .17037964C.45700074 .252594 .3939972 .33088685 .2899933 .35191346 .37199403 .37893678 .42999269 .4490509 .42999269 .52809146 .42999269 .6100464 .34199525 .6660156 .24598694 .6660156 .14498902 .6660156 .068984989 .60606387 .068984989 .53009036 .068984989 .49710084 .09098816 .47808839 .11999512 .47808839 .15098572 .47808839 .17098999 .50009158 .17098999 .5290985 .17098999 .57910159 .12399292 .57910159 .10899353 .57910159 .13999939 .62802127 .20599365 .64100649 .24198914 .64100649 .2829895 .64100649 .33799745 .6190338 .33799745 .5290985 .33799745 .51708987 .33599855 .45906068 .30999757 .4149933 .27999879 .36691285 .24598694 .36390687 .22099304 .36291505 .21299744 .36190797 .18899536 .35990907 .18199158 .35990907 .17399597 .35890199 .16699219 .35791017 .16699219 .3479004 .16699219 .33691407 .17399597 .33691407 .19099427 .33691407H.23498535C.31698609 .33691407 .35398866 .2686615 .35398866 .17037964 .35398866 .034469606 .2849884 .0055389406 .24099732 .0055389406 .19799805 .0055389406 .12298584 .022491456 .08799744 .08137512 .12298584 .07637024 .1539917 .09837341 .1539917 .1363678 .1539917 .17237854 .1269989 .19238281 .09799194 .19238281 .07398987 .19238281 .041992189 .17837525 .041992189 .1343689 .041992189 .043441774 .1349945-.022460938 .24398804-.022460938 .3659973-.022460938 .45700074 .06838989 .45700074 .17037964Z"/>
<path id="font_1_57" d="M.47099305 .16503906V.19602967H.37098695V.6507721C.37098695 .6707611 .37098695 .6767578 .35499574 .6767578 .34599305 .6767578 .34298707 .6767578 .33499146 .6647644L.027999878 .19602967V.16503906H.2939911V.07800293C.2939911 .041992189 .2919922 .0309906 .21798706 .0309906H.19699097V0C.23799134 .0029907227 .2899933 .0029907227 .33198548 .0029907227 .37399293 .0029907227 .4269867 .0029907227 .46798707 0V.0309906H.44699098C.37298585 .0309906 .37098695 .041992189 .37098695 .07800293V.16503906H.47099305M.2999878 .19602967H.055999757L.2999878 .56881716V.19602967Z"/>
<path id="font_1_56" d="M.44898988 .20091248C.44898988 .31991578 .36698915 .41992188 .25898744 .41992188 .21099854 .41992188 .16799927 .4039154 .13198853 .36891175V.5641022C.1519928 .55778506 .18499756 .55078127 .21699524 .55078127 .33999635 .55078127 .4099884 .6418457 .4099884 .65493777 .4099884 .6609802 .40699769 .6660156 .3999939 .6660156 .3999939 .66607668 .39698792 .66607668 .3919983 .66308596 .37199403 .65408328 .32299806 .63378909 .2559967 .63378909 .21598816 .63409426 .16999817 .641098 .12298584 .6621094 .114990238 .6651001 .11099243 .6651001 .11099243 .6651001 .100997928 .66508486 .100997928 .657074 .100997928 .64108279V.3447113C.100997928 .3266449 .100997928 .31861878 .114990238 .31861878 .12199402 .31861878 .12399292 .32164 .12799073 .32765199 .13899231 .34371949 .17599488 .3979187 .25698854 .3979187 .30899049 .3979187 .33399964 .3517456 .34199525 .3336792 .35798646 .2965393 .3600006 .2574005 .3600006 .20721436 .3600006 .17218018 .3600006 .112197879 .33599855 .07032776 .31199647 .031448366 .2749939 .0055389406 .22898865 .0055389406 .1559906 .0055389406 .09899902 .05836487 .08198547 .1171875 .084991458 .11685181 .08799744 .115859989 .09899902 .115859989 .13198853 .115859989 .14898682 .14085388 .14898682 .16485596 .14898682 .18885803 .13198853 .21386719 .09899902 .21386719 .084991458 .21386719 .049987794 .2068634 .049987794 .16085816 .049987794 .07432556 .11898804-.022460938 .23098755-.022460938 .34700013-.022460938 .44898988 .07331848 .44898988 .20019531V.20091248Z"/>
<path id="font_1_101" d="M.45700074 .2036438C.45700074 .33070375 .36799623 .4267578 .25698854 .4267578 .18899536 .4267578 .1519928 .37573243 .13198853 .327713V.35173036C.13198853 .6047821 .2559967 .64100649 .30699159 .64100649 .33099366 .64100649 .37298585 .634964 .394989 .6007538 .37998963 .6007538 .33999635 .6007538 .33999635 .5557556 .33999635 .524765 .3639984 .5097656 .38598634 .5097656 .4019928 .5097656 .43199159 .51875308 .43199159 .5577545 .43199159 .6178589 .3880005 .6660156 .30499269 .6660156 .1769867 .6660156 .041992189 .5367584 .041992189 .31570436 .041992189 .048553468 .1579895-.022460938 .25099183-.022460938 .3619995-.022460938 .45700074 .07156372 .45700074 .2036438M.36698915 .20463562C.36698915 .15661621 .36698915 .10658264 .34999085 .0705719 .31999208 .010528564 .27398683 .0055389406 .25099183 .0055389406 .18798828 .0055389406 .1579895 .06556702 .1519928 .080566409 .13398743 .127594 .13398743 .2076416 .13398743 .22564698 .13398743 .30369569 .1659851 .40374757 .2559967 .40374757 .27198792 .40374757 .31799317 .40374757 .34899903 .34172059 .36698915 .30470277 .36698915 .2536621 .36698915 .20463562Z"/>
<path id="font_1_100" d="M.4850006 .6435547H.24198914C.11999512 .6435547 .117996219 .6566467 .11399841 .67578127H.08898926L.055999757 .46954347H.08099365C.083999637 .48554994 .09298706 .54855349 .10598755 .5605469 .11299133 .5665436 .19099427 .5665436 .20399475 .5665436H.41099549L.29899598 .40853883C.20899964 .2735443 .17599488 .13453675 .17599488 .03253174 .17599488 .022537232 .17599488-.022460938 .22200012-.022460938 .2679901-.022460938 .2679901 .022537232 .2679901 .03253174V.08354187C.2679901 .13853455 .2709961 .19354248 .2789917 .24754334 .2829895 .27053834 .29699708 .35653688 .34098817 .41854859L.47599793 .608551C.4850006 .62054446 .4850006 .62254336 .4850006 .6435547Z"/>
<path id="font_1_51" d="M.45700074 .16764832C.45700074 .20367432 .44599916 .24871826 .4079895 .29074098 .3889923 .31176759 .37298585 .32176209 .30899049 .36180116 .3809967 .39881898 .42999269 .4508667 .42999269 .51690676 .42999269 .6089783 .34098817 .6660156 .25 .6660156 .1499939 .6660156 .068984989 .5919647 .068984989 .49890138 .068984989 .48088075 .070999149 .43585206 .11299133 .38882447 .12399292 .3768158 .16099549 .35179139 .18598938 .33477784 .12799073 .30575563 .041992189 .24971009 .041992189 .15063477 .041992189 .044555665 .14399719-.022460938 .24899292-.022460938 .3619995-.022460938 .45700074 .060577394 .45700074 .16764832M.38598634 .51690676C.38598634 .45986939 .34700013 .41183473 .2869873 .3768158L.16299439 .4568634C.116989139 .4868927 .11299133 .5209198 .11299133 .53793337 .11299133 .5989685 .17799378 .64100649 .24899292 .64100649 .32199098 .64100649 .38598634 .588974 .38598634 .51690676M.40699769 .13162232C.40699769 .05757141 .33198548 .0055389406 .25 .0055389406 .1639862 .0055389406 .09199524 .06758118 .09199524 .15063477 .09199524 .2086792 .12399292 .2727356 .20899964 .31976319L.33198548 .24171448C.3600006 .22268677 .40699769 .19267273 .40699769 .13162232Z"/>
<path id="font_1_78" d="M.45700074 .32888795C.45700074 .598114 .34199525 .6660156 .25299073 .6660156 .19799805 .6660156 .14898682 .64801028 .10598755 .6031189 .06498718 .5580902 .041992189 .5160217 .041992189 .44091798 .041992189 .3158722 .12998963 .21777344 .24198914 .21777344 .30299378 .21777344 .34399415 .25979615 .36698915 .3178711V.28582765C.36698915 .05178833 .2630005 .0055389406 .20498657 .0055389406 .18798828 .0055389406 .13398743 .007537842 .10699463 .041778566 .15098572 .041778566 .15899658 .07078552 .15899658 .08778381 .15899658 .118774417 .1349945 .13378906 .11299133 .13378906 .09700012 .13378906 .066986087 .12478638 .066986087 .08578491 .066986087 .018615723 .12098694-.022460938 .20599365-.022460938 .33499146-.022460938 .45700074 .11378479 .45700074 .32888795M.36499024 .42089845C.36499024 .33789063 .33099366 .24076844 .24299622 .24076844 .22698975 .2407074 .18099976 .2407074 .1499939 .30371095 .13198853 .34072877 .13198853 .3908081 .13198853 .43988038 .13198853 .49397279 .13198853 .5410614 .15299988 .578125 .17999268 .62805178 .21798706 .64100649 .25299073 .64100649 .29899598 .64100649 .33198548 .60710147 .34899903 .562088 .36099244 .52989199 .36499024 .46688844 .36499024 .42089845Z"/>
<path id="font_2_97" d="M.56199648 .20014954C.56199648 .2942047 .5 .38433839 .3909912 .40937806L.2539978 .4404297C.15499878 .4624176 .1519928 .5343628 .1519928 .5483551 .1519928 .59928897 .18499756 .65823367 .28199769 .65823367 .3789978 .65823367 .46598817 .61128237 .4869995 .48042298 .48999024 .45942689 .48999024 .4584198 .5089874 .4584198 .5299988 .4584198 .5299988 .46142579 .5299988 .48442079V.6722412C.5299988 .6912384 .5299988 .6982422 .5149994 .6982422 .5079956 .6982422 .5049896 .6972351 .49598695 .6872406L.45298768 .6382599C.42799378 .6592407 .37799073 .6982422 .2809906 .6982422 .13798523 .6982422 .06199646 .6082916 .06199646 .4994049 .06199646 .43241883 .09799194 .38534547 .11199951 .37132264 .1639862 .31924439 .19198609 .31323243 .29599 .2902069 .3959961 .26817323 .4079895 .26617433 .42999269 .2451477 .44299317 .23214722 .47200013 .20414734 .47200013 .15318299 .47200013 .11021423 .45098878 .031280519 .33898927 .031280519 .25099183 .031280519 .11199951 .06124878 .10398865 .20713806 .102996829 .22514344 .102996829 .22813416 .08299255 .22813416 .06199646 .22813416 .06199646 .22514344 .06199646 .20214844V.014266968C.06199646-.0047302248 .06199646-.01171875 .07699585-.01171875 .083999637-.01171875 .084991458-.010726929 .09498596-.0017242432 .10598755 .009277344 .114990238 .022277832 .13999939 .04725647 .19799805 .0012664795 .27999879-.01171875 .33999635-.01171875 .49598695-.01171875 .56199648 .09422302 .56199648 .20014954Z"/>
<path id="font_2_84" d="M.58599856 .22319031C.58599856 .3611908 .49299623 .4501953 .35798646 .4501953 .29899598 .4501953 .24798584 .43019105 .20799256 .39819337V.4501953L.034988405 .4423828V.3993683C.09700012 .3993683 .10398865 .3993683 .10398865 .36035157V-.15039063H.034988405V-.19340515C.057998659-.19139099 .12998963-.19139099 .1579895-.19139099 .18598938-.19139099 .25898744-.19139099 .28199769-.19340515V-.15039063H.21299744V.041137697C.23799134 .019134522 .28199769-.005859375 .34199525-.005859375 .47898866-.005859375 .58599856 .0771637 .58599856 .2232666V.22319031M.46598817 .2232666C.46598817 .07817078 .3939972 .027130127 .32998658 .027130127 .2869873 .027130127 .24398804 .04914856 .21299744 .09617615V.3503418C.25 .39819337 .30299378 .41418458 .34199525 .41418458 .40699769 .41418458 .46598817 .3551941 .46598817 .22319031V.2232666Z"/>
<path id="font_2_50" d="M.48098756 .11706543C.48098756 .13206482 .46598817 .13206482 .45999146 .13206482 .44400025 .13206482 .44299317 .12905884 .43699647 .11607361 .41099549 .051116945 .34498597 .030136109 .29699708 .030136109 .1519928 .030136109 .15098572 .16503906 .15098572 .22099304H.45199586C.47499085 .22099304 .48098756 .22099304 .48098756 .24598694 .48098756 .27601625 .47399903 .35105897 .42799378 .3981018 .38598634 .4401245 .32998658 .453125 .27198792 .453125 .115997318 .453125 .0309906 .35105897 .0309906 .22499085 .0309906 .08509827 .13398743-.005859375 .2849884-.005859375 .43598939-.005859375 .48098756 .1000824 .48098756 .11706543M.3889923 .25H.15098572C.15299988 .29101563 .1539917 .3300476 .1749878 .3660736 .19400025 .3981018 .22898865 .42012025 .27198792 .42012025 .3789978 .42012025 .3880005 .30003358 .3889923 .25Z"/>
<path id="font_2_47" d="M.58898928 0V.042999269C.5269928 .042999269 .519989 .042999269 .519989 .08201599V.69433596L.34700013 .6855469V.64253237C.40899659 .64253237 .41600038 .64253237 .41600038 .6036682V.40219117C.3939972 .42118836 .34999085 .4501953 .2809906 .4501953 .13899231 .4501953 .037994386 .36218263 .037994386 .22215271 .037994386 .07914734 .13699341-.005859375 .269989-.005859375 .32499696-.005859375 .37199403 .013137817 .41099549 .046142579V-.005859375L.58898928 0M.41099549 .100997928C.36898805 .040130617 .31799317 .027130127 .28199769 .027130127 .1579895 .027130127 .1579895 .15414429 .1579895 .22015381 .1579895 .26716615 .1579895 .3171692 .17999268 .35517884 .21099854 .4111786 .269989 .41719056 .29299928 .41719056 .33399964 .41719056 .37799073 .39918519 .41099549 .35517884V.100997928Z"/>
<path id="font_2_85" d="M.37399293-.23898316C.37399293-.23498535 .37399293-.23298645 .35499574-.21498108 .24299622-.10298157 .19999695 .073013309 .19999695 .24900818 .19999695 .44599916 .24899292 .60798647 .36099244 .72099307 .37298585 .73298647 .37399293 .73399356 .37399293 .73799136 .37399293 .75 .3619995 .75 .35699464 .75 .34799195 .75 .34599305 .75 .31999208 .72898867 .17599488 .6139984 .10798645 .42999269 .10798645 .25 .10798645 .06600952 .1769867-.11299133 .31900025-.22898865 .34498597-.25097657 .34700013-.25097657 .35699464-.25097657 .3619995-.25097657 .37399293-.25097657 .37399293-.23898316Z"/>
<path id="font_2_70" d="M.57499697 0V.042999269C.5589905 .042999269 .5389862 .042999269 .5279999 .04399109 .5139923 .04699707 .5099945 .05000305 .49899293 .06401062L.33198548 .2802124 .45799256 .38230897C.46998597 .39231874 .48098756 .4013214 .5499878 .4013214V.44433595C.5239868 .44232179 .5039978 .44232179 .46699525 .44232179 .44099427 .44232179 .3849945 .44232179 .3619995 .44433595V.4013214C.37399293 .4013214 .397995 .3983307 .397995 .39031983 .397995 .38632203 .3919983 .38230897 .3899994 .38031007L.20799256 .23417664V.69433596L.034988405 .6855469V.64253237C.09700012 .64253237 .10398865 .64253237 .10398865 .6035614V.042999269H.034988405V0C.057998659 .001953125 .1269989 .001953125 .1539917 .001953125 .18099976 .0019989014 .25 .0019989014 .272995 0V.042999269H.20399475V.17675781C.21998596 .18875122 .23498535 .20175171 .25698854 .21975708L.37799073 .063949588C.3849945 .05593872 .3849945 .052947999 .3849945 .052947999 .3849945 .042999269 .36499024 .042999269 .35099793 .042999269V0C.375 .001953125 .44099427 .001953125 .46798707 .001953125 .5189972 .0019989014 .5329895 .0019989014 .57499697 0Z"/>
<path id="font_2_75" d="M.9129944 0V.042999269H.84399417V.30636598C.84399417 .39823915 .8049927 .4501953 .69299319 .4501953 .59199526 .4501953 .54499819 .38227845 .5289917 .3503723 .5130005 .43518067 .44499208 .4501953 .3809967 .4501953 .2849884 .4501953 .23298645 .38827516 .21199036 .3403778H.21099854V.4501953L.041992189 .4423828V.3993683C.10398865 .3993683 .11099243 .3993683 .11099243 .36035157V.042999269H.041992189V0C.06498718 .0019989014 .13699341 .0019989014 .16499329 .0019989014 .19299317 .0019989014 .2659912 .0019989014 .2889862 0V.042999269H.21998596V.25627137C.21998596 .36532594 .30099488 .41719056 .3639984 .41719056 .40098573 .41719056 .4229889 .3952484 .4229889 .3173828V.042999269H.35398866V0C.3769989 .0019989014 .44898988 .0019989014 .47698976 .0019989014 .5049896 .0019989014 .5779877 .0019989014 .6009979 0V.042999269H.5319977V.25628663C.5319977 .36532594 .61299136 .41719056 .6759949 .41719056 .71299746 .41719056 .7350006 .3952484 .7350006 .3173828V.042999269H.66600039V0C.68899539 .0019989014 .7609863 .0019989014 .78900149 .0019989014 .81700137 .0019989014 .8899994 .0019989014 .9129944 0Z"/>
<path id="font_2_102" d="M.49899293 .7220001C.49899293 .73999026 .4850006 .75 .47200013 .75 .45298768 .75 .44898988 .73799136 .44299317 .723999L.066986087-.20401001C.06199646-.21600342 .06199646-.22200012 .06199646-.22200012 .06199646-.2400055 .07598877-.25 .08898926-.25 .10798645-.25 .11199951-.23901367 .117996219-.22401428L.49398805 .70399478C.49899293 .71598818 .49899293 .7220001 .49899293 .7220001Z"/>
<path id="font_2_63" d="M.59999087 0V.042999269H.5309906V.30659486C.5309906 .4012909 .48999024 .4501953 .37998963 .4501953 .2789917 .4501953 .22999573 .37942506 .21598816 .34960938H.21499634V.69433596L.041992189 .6855469V.64253237C.10398865 .64253237 .11099243 .64253237 .11099243 .6036682V.042999269H.041992189V0C.06498718 .0019989014 .13699341 .0019989014 .16499329 .0019989014 .19299317 .0019989014 .2659912 .0019989014 .2889862 0V.042999269H.21998596V.25610353C.21998596 .36416627 .2999878 .41719056 .3639984 .41719056 .40098573 .41719056 .42199708 .39317323 .42199708 .31713868V.042999269H.35299684V0C.37599183 .0019989014 .44799806 .0019989014 .47599793 .0019989014 .5039978 .0019989014 .57699587 .0019989014 .59999087 0Z"/>
<path id="font_2_86" d="M.32798768 .24900818C.32798768 .43299867 .25898744 .61198428 .116989139 .72798159 .09098816 .75 .08898926 .75 .07899475 .75 .07398987 .75 .06199646 .75 .06199646 .73799136 .06199646 .73399356 .06199646 .7319946 .08099365 .71398928 .19299317 .60198977 .23599243 .42599488 .23599243 .25 .23599243 .053009035 .18699646-.10899353 .07499695-.22198487 .06298828-.23397827 .06199646-.23498535 .06199646-.23898316 .06199646-.25097657 .07398987-.25097657 .07899475-.25097657 .08799744-.25097657 .08999634-.25097657 .115997318-.22998047 .2599945-.114990238 .32798768 .069000247 .32798768 .24900818Z"/>
<path id="font_2_54" d="M.6589966 .4441223 .6299896 .6806946H.037994386V.6376953H.14399719V.042999269H.037994386V0C.066986087 .0019989014 .18099976 .0019989014 .21798706 .0019989014L.40899659 0V.042999269H.27598573V.31929017H.33099366C.4269867 .31929017 .43499757 .2752533 .43499757 .2021637H.47698976V.47903443H.43499757C.43499757 .40620423 .4269867 .3623047 .33099366 .3623047H.27598573V.6376953H.4189911C.5779877 .6376953 .6029968 .56484988 .61698916 .4441223H.6589966Z"/>
<path id="font_2_96" d="M.4269867 .3711853C.4269867 .42218019 .375 .4501953 .32699586 .4501953 .24798584 .4501953 .21398926 .38119508 .19999695 .33918763H.19898987V.4501953L.034988405 .4423828V.3993683C.09700012 .3993683 .10398865 .3993683 .10398865 .3603363V.042999269H.034988405V0C.057998659 .0019989014 .1329956 .0019989014 .16099549 .0019989014 .18998719 .0019989014 .2709961 .0019989014 .29499818 0V.042999269H.20799256V.22518921C.20799256 .25819398 .21499634 .41719056 .33198548 .41719056 .31799317 .40618897 .31098939 .38919068 .31098939 .3711853 .31098939 .33018495 .34399415 .31318666 .36898805 .31318666 .3939972 .31318666 .4269867 .33018495 .4269867 .3711853Z"/>
<path id="font_2_91" d="M.58898928-.19340515V-.15039063H.519989V.4501953H.48298646L.42999269 .36717225C.394989 .41818238 .34599305 .4501953 .27999879 .4501953 .14199829 .4501953 .037994386 .36418153 .037994386 .22215271 .037994386 .07914734 .13798523-.005859375 .269989-.005859375 .30799867-.005859375 .35899354 .0021362305 .41099549 .051132204V-.15039063H.34199525V-.19340515C.36499024-.19139099 .43699647-.19139099 .46499635-.19139099 .49299623-.19139099 .56599429-.19139099 .58898928-.19340515M.41600038 .119140628C.37399293 .040130617 .31498719 .027130127 .28199769 .027130127 .21798706 .027130127 .1579895 .086135867 .1579895 .22116089 .1579895 .36717225 .23399353 .41418458 .29299928 .41418458 .37098695 .41418458 .41600038 .33317567 .41600038 .2871704V.119140628Z"/>
<path id="font_2_109" d="M.59999087 0V.042999269C.5379944 .042999269 .5309906 .042999269 .5309906 .08201599V.4501953L.35299684 .4423828V.3993683C.4149933 .3993683 .42199708 .3993683 .42199708 .36035157V.16423035C.42199708 .08818054 .3769989 .027130127 .29899598 .027130127 .22399903 .027130127 .21998596 .05215454 .21998596 .10719299V.4501953L.041992189 .4423828V.3993683C.10398865 .3993683 .11099243 .3993683 .11099243 .36035157V.12319946C.11099243 .023132325 .17799378-.005859375 .2849884-.005859375 .30899049-.005859375 .3829956-.005859375 .42599488 .075164798H.4269867V-.005859375L.59999087 0Z"/>
<path id="font_2_77" d="M.59999087 0V.042999269H.5309906V.30613709C.5309906 .40118409 .48999024 .4501953 .37998963 .4501953 .30799867 .4501953 .24598694 .41519166 .21199036 .34014894H.21099854V.4501953L.041992189 .4423828V.3993683C.10398865 .3993683 .11099243 .3993683 .11099243 .36035157V.042999269H.041992189V0C.06498718 .0019989014 .13699341 .0019989014 .16499329 .0019989014 .19299317 .0019989014 .2659912 .0019989014 .2889862 0V.042999269H.21998596V.25627137C.21998596 .3643341 .2999878 .41719056 .3639984 .41719056 .40098573 .41719056 .42199708 .3932495 .42199708 .31733705V.042999269H.35299684V0C.37599183 .0019989014 .44799806 .0019989014 .47599793 .0019989014 .5039978 .0019989014 .57699587 .0019989014 .59999087 0Z"/>
<path id="font_2_43" d="M.46798707 .117126468C.46798707 .12913513 .45700074 .12913513 .44699098 .12913513 .43099977 .12913513 .42999269 .12812805 .4249878 .11613464 .41799928 .09713745 .3909912 .030136109 .29899598 .030136109 .1579895 .030136109 .1579895 .1821289 .1579895 .22712708 .1579895 .28611756 .15899658 .41711427 .2899933 .41711427 .29699708 .41711427 .35598756 .41511537 .35598756 .41011048 .35598756 .41011048 .35499574 .40811158 .35299684 .40711976 .34999085 .40411378 .33699037 .38911439 .33699037 .36412049 .33699037 .32211305 .37098695 .30511476 .3959961 .30511476 .4169922 .30511476 .45498658 .31811524 .45498658 .3651123 .45498658 .44711305 .33999635 .453125 .28599549 .453125 .10798645 .453125 .037994386 .33711244 .037994386 .22212219 .037994386 .086135867 .1329956-.005859375 .27999879-.005859375 .43699647-.005859375 .46798707 .11012268 .46798707 .117126468Z"/>
<path id="font_2_118" d="M.56900027 .4013214V.44433595C.5349884 .44232179 .5309906 .44232179 .48999024 .44232179L.4039917 .44433595V.4013214C.4039917 .4013214 .45199586 .4013214 .45199586 .38832093 .45199586 .38531495 .44898988 .37931825 .44799806 .37631227L.33099366 .124176029 .20298767 .4013214H.2579956V.44433595C.23399353 .44232179 .1659851 .44232179 .13798523 .44232179 .10899353 .44232179 .049987794 .44232179 .023986817 .44433595V.4013214H.08799744L.272995 .000091552738C.2679901-.0119018559 .2539978-.040924074 .24899292-.05293274 .22799683-.097961429 .19599915-.16699219 .12599182-.16699219 .12199402-.16699219 .10998535-.16699219 .09899902-.16099549 .100997928-.1599884 .1309967-.147995 .1309967-.10997009 .1309967-.07695007 .10699463-.05593872 .07699585-.05593872 .04598999-.05593872 .021987915-.07695007 .021987915-.110961917 .021987915-.1579895 .06599426-.19999695 .12599182-.19999695 .20799256-.19999695 .2619934-.12597656 .28199769-.081954959L.49499513 .37931825C.5009918 .3933258 .5049896 .4013214 .56900027 .4013214Z"/>
<path id="font_2_62" d="M.84098818 0V.042999269H.7350006V.64253237H.84098818V.6855469C.81199648 .6835327 .7049866 .6835327 .6689911 .6835327 .6329956 .6835327 .526001 .6835327 .49699403 .6855469V.64253237H.6029968V.3779297H.27598573V.64253237H.38198854V.6855469C.35299684 .6835327 .24598694 .6835327 .20999146 .6835327 .17399597 .6835327 .066986087 .6835327 .037994386 .6855469V.64253237H.14399719V.042999269H.037994386V0C.066986087 .0019989014 .17399597 .0019989014 .20999146 .0019989014 .24598694 .0019989014 .35299684 .0019989014 .38198854 0V.042999269H.27598573V.33491517H.6029968V.042999269H.49699403V0C.526001 .0019989014 .6329956 .0019989014 .6689911 .0019989014 .7049866 .0019989014 .81199648 .0019989014 .84098818 0Z"/>
<path id="font_2_66" d="M.2789917 0V.042999269H.21699524V.4501953L.04699707 .4423828V.3993683C.10598755 .3993683 .11299133 .3993683 .11299133 .3603363V.042999269H.04399109V0C.066986087 .0019989014 .13598633 .0019989014 .16299439 .0019989014 .19099427 .0019989014 .25498963 .0019989014 .2789917 0M.22898865 .6081238C.22898865 .64912417 .19499207 .68013 .15699768 .68013 .115997318 .68013 .083999637 .64712527 .083999637 .6081238 .083999637 .5671234 .117996219 .5361328 .1559906 .5361328 .19699097 .5361328 .22898865 .5691223 .22898865 .6081238Z"/>
<path id="font_2_98" d="M.40499879 .13912964C.40499879 .18711853 .3789978 .22012329 .35899354 .23812866 .31799317 .27212525 .28399659 .27812196 .22999573 .28811646 .1659851 .29911805 .10598755 .31011964 .10598755 .35812379 .10598755 .42311097 .19499207 .42311097 .21598816 .42311097 .32699586 .42311097 .33299256 .3531189 .33499146 .328125 .33599855 .3151245 .34399415 .3151245 .35598756 .3151245 .3769989 .3151245 .3769989 .31811524 .3769989 .34111024V.42712403C.3769989 .44612123 .3769989 .453125 .3619995 .453125 .35598756 .453125 .35398866 .453125 .33898927 .4441223 .33499146 .44111634 .32398988 .43411256 .31900025 .43112184 .29100038 .44711305 .2539978 .453125 .21798706 .453125 .18798828 .453125 .037994386 .453125 .037994386 .32312013 .037994386 .21812439 .1619873 .19612122 .19299317 .19113159 .21998596 .18612671 .25299073 .18013 .25698854 .18013 .29699708 .17112732 .33699037 .14613343 .33699037 .10412598 .33699037 .027130127 .24598694 .027130127 .22499085 .027130127 .17399597 .027130127 .11099243 .043136598 .08299255 .14012146 .07699585 .16012573 .07598877 .16113281 .05899048 .16113281 .037994386 .16113281 .037994386 .15812683 .037994386 .13513184V.020126343C.037994386 .0011291504 .037994386-.005859375 .052993776-.005859375 .05999756-.005859375 .06199646-.005859375 .08198547 .010131836L.10798645 .029129029C.15299988-.005859375 .20698548-.005859375 .22499085-.005859375 .27999879-.005859375 .40499879 .006134033 .40499879 .13912964Z"/>
<path id="font_2_105" d="M.37399293 .124176029V.17721558H.33198548V.1251831C.33198548 .059143068 .3019867 .030136109 .2709961 .030136109 .21099854 .030136109 .21099854 .09716797 .21099854 .12017822V.4013214H.35499574V.44433595H.21099854V.6357422H.16899109C.16799927 .53652957 .11999512 .43733216 .020996094 .43432618V.4013214H.101989749V.123184207C.101989749 .01713562 .18399048-.005859375 .2559967-.005859375 .32998658-.005859375 .37399293 .05014038 .37399293 .124176029Z"/>
<path id="font_2_81" d="M.5299988 .21913147C.5299988 .35412599 .43798829 .453125 .2809906 .453125 .117996219 .453125 .0309906 .3491211 .0309906 .21913147 .0309906 .088134769 .12298584-.005859375 .27999879-.005859375 .44299317-.005859375 .5299988 .09312439 .5299988 .21913147M.4099884 .22912598C.4099884 .14613343 .4099884 .030136109 .2809906 .030136109 .15098572 .030136109 .15098572 .14712525 .15098572 .22912598 .15098572 .27612306 .15098572 .3261261 .16999817 .36212159 .19198609 .40211488 .23699951 .42012025 .27999879 .42012025 .33699037 .42012025 .37298585 .39311219 .3899994 .3651123 .4099884 .32911683 .4099884 .27713014 .4099884 .22912598Z"/>
<path id="font_2_59" d="M.54499819 .40003968C.54499819 .42404176 .5269928 .4560547 .4850006 .4560547 .44198609 .4560547 .40098573 .43504334 .37998963 .41705323 .33898927 .44119264 .2999878 .4501953 .24899292 .4501953 .11099243 .4501953 .055999757 .3731842 .055999757 .30319215 .055999757 .27218629 .06599426 .23118592 .10798645 .19718933 .09098816 .17819214 .07299805 .14318848 .07299805 .10719299 .07299805 .064193729 .09599304 .027191163 .116989139 .011184692 .09298706 .0052490236 .0309906-.01776123 .0309906-.0748291 .0309906-.13391114 .09599304-.20095825 .27999879-.20095825 .44599916-.20095825 .5299988-.14692688 .5299988-.07182312 .5299988 .01625061 .47200013 .04525757 .44699098 .057250978 .39898683 .08125305 .33499146 .08125305 .24699402 .08125305 .22200012 .08125305 .17799378 .08125305 .17298889 .08224487 .12998963 .08924866 .117996219 .12724304 .117996219 .14624024 .117996219 .15423584 .11898804 .16923523 .12998963 .18223572 .17799378 .15625 .23399353 .15625 .24899292 .15625 .3869934 .15625 .44198609 .23320008 .44198609 .30314637 .44198609 .35411073 .41299439 .39007569 .40098573 .4000702 .42999269 .41604615 .45399476 .42004396 .47099305 .42204286 .46798707 .41705323 .46499635 .41305543 .46499635 .4000702 .46499635 .37908937 .47898866 .36009217 .5049896 .36009217 .5309906 .36009217 .54499819 .37908937 .54499819 .4000702V.40003968M.33599855 .30314637C.33599855 .2571869 .33599855 .18824768 .24899292 .18824768 .1619873 .18812561 .1619873 .25715638 .1619873 .30316163 .1619873 .34916688 .1619873 .41818238 .24899292 .41818238 .33599855 .41818238 .33599855 .34916688 .33599855 .30316163V.30314637M.44799806-.075927738C.44799806-.1109314 .41299439-.16894531 .2809906-.16894531 .14898682-.16874695 .11299133-.11274719 .11299133-.07475281 .11299133-.0107421879 .17599488-.0107421879 .19099427-.0107421879H.30499269C.37799073-.0107421879 .44799806-.023742676 .44799806-.07574463V-.075927738Z"/>
<path id="font_2_28" d="M.54100039 .022140503C.54100039 .043136598 .5319977 .043136598 .5179901 .043136598 .45498658 .044128419 .45498658 .060134889 .45498658 .08312988V.29911805C.45498658 .39111329 .38198854 .453125 .24099732 .453125 .18499756 .453125 .066986087 .44812013 .066986087 .36412049 .066986087 .32211305 .09899902 .30412293 .12599182 .30412293 .1559906 .30412293 .18499756 .32511903 .18499756 .3631134 .18499756 .3821106 .17799378 .40011598 .16099549 .41111756 .19400025 .42012025 .21798706 .42012025 .23699951 .42012025 .30499269 .42012025 .34599305 .3821106 .34599305 .30012513V.26011659C.18798828 .26011659 .0289917 .21612549 .0289917 .10513306 .0289917 .014129639 .14498902-.005859375 .21398926-.005859375 .29100038-.005859375 .33999635 .036132814 .3600006 .0801239 .3600006 .042999269 .3600006 0 .46099855 0H.5119934C.5329895 0 .54100039 0 .54100039 .021987915V.022140503M.34599305 .13899231C.34599305 .04499817 .2619934 .026992798 .22999573 .026992798 .18099976 .026992798 .13999939 .05999756 .13999939 .10598755 .13999939 .19699097 .24798584 .22799683 .34599305 .23298645V.13899231Z"/>
<path id="font_2_55" d="M.42199708 .617218C.42199708 .65818789 .38598634 .7001953 .31498719 .7001953 .22399903 .7001953 .11299133 .66218569 .11299133 .54626467V.44433595H.038986207V.4013214H.11299133V.042999269H.04399109V0C.066986087 .0019989014 .14199829 .0019989014 .16999817 .0019989014 .19898987 .0019989014 .27999879 .0019989014 .3039856 0V.042999269H.21699524V.4013214H.33099366V.44433595H.21199036V.54725649C.21199036 .65119937 .27799989 .66719058 .31098939 .66719058 .32199098 .66719058 .32398988 .6661835 .32998658 .6641846 .31498719 .65419009 .30599977 .63720706 .30599977 .6162262 .30599977 .57624819 .33799745 .55825808 .3639984 .55825808 .38598634 .55825808 .42199708 .5732422 .42199708 .617218Z"/>
</defs>
<path transform="matrix(1.00006,0,0,-1,35.885255,330.177)" stroke-width=".19925" stroke-linecap="butt" stroke-miterlimit="10" stroke-linejoin="miter" fill="none" stroke="#d9d9d9" d="M0 0H340.1617M0 2.83484H340.1617M0 5.6697H340.1617M0 8.50455H340.1617M0 11.33939H340.1617M0 14.17424H340.1617M0 17.0091H340.1617M0 19.84393H340.1617M0 22.67879H340.1617M0 25.51364H340.1617M0 28.3485H340.1617M0 31.18333H340.1617M0 34.01819H340.1617M0 36.85304H340.1617M0 39.68788H340.1617M0 42.52274H340.1617M0 45.35759H340.1617M0 48.19244H340.1617M0 51.02728H340.1617M0 53.86214H340.1617M0 56.69699H340.1617M0 59.53183H340.1617M0 62.36668H340.1617M0 65.20154H340.1617M0 68.03639H340.1617M0 70.87123H340.1617M0 73.70609H340.1617M0 76.54094H340.1617M0 79.37578H340.1617M0 82.21063H340.1617M0 85.04549H340.1617M0 87.88034H340.1617M0 90.71518H340.1617M0 93.55003H340.1617M0 96.38489H340.1617M0 99.21973H340.1617M0 102.05458H340.1617M0 104.88943H340.1617M0 107.72429H340.1617M0 110.55913H340.1617M0 113.39398H340.1617M0 116.22884H340.1617M0 119.06367H340.1617M0 121.89853H340.1617M0 124.73338H340.1617M0 127.56824H340.1617M0 130.40308H340.1617M0 133.23793H340.1617M0 136.07279H340.1617M0 138.90763H340.1617M0 141.74248H340.1617M0 144.57733H340.1617M0 147.41219H340.1617M0 150.24703H340.1617M0 153.08188H340.1617M0 155.91674H340.1617M0 158.75157H340.1617M0 161.58643H340.1617M0 164.42128H340.1617M0 167.25612H340.1617M0 170.09098H340.1617M0 172.92583H340.1617M0 175.76068H340.1617M0 178.59552H340.1617M0 181.43038H340.1617M0 184.26523H340.1617M0 187.10007H340.1617M0 189.93492H340.1617M0 192.76978H340.1617M0 195.60463H340.1617M0 198.43947H340.1617M0 201.27433H340.1617M0 204.10918H340.1617M0 206.94402H340.1617M0 209.77887H340.1617M0 212.61373H340.1617M0 215.44858H340.1617M0 218.28342H340.1617M0 221.11827H340.1617M0 223.95313H340.1617M0 226.78797H340.1617M0 229.62282H340.1617M0 232.45767H340.1617M0 235.29253H340.1617M0 238.12737H340.1617M0 240.96222H340.1617M0 243.79708H340.1617M0 246.63191H340.1617M0 249.46677H340.1617M0 252.30162H340.1617M0 255.13648H340.1617M0 257.9713H340.1617M0 260.80619H340.1617M0 263.64103H340.1617M0 266.47587H340.1617M0 269.3107H340.1617M0 272.14558H340.1617M0 274.9804H340.1617M0 277.81526H340.1617M0 280.65013H340.1617M0 283.48497H340.1617M0 286.31983H340.1617M0 289.15467H340.1617M0 291.98954H340.1617M0 294.82438H340.1617M0 297.6592H340.1617M0 300.49406H340.1617M0 303.32893H340.1617M0 306.16377H340.1617M0 308.9986H340.1617M0 0V311.8149M2.83484 0V311.8149M5.6697 0V311.8149M8.50455 0V311.8149M11.33939 0V311.8149M14.17424 0V311.8149M17.0091 0V311.8149M19.84393 0V311.8149M22.67879 0V311.8149M25.51364 0V311.8149M28.3485 0V311.8149M31.18333 0V311.8149M34.01819 0V311.8149M36.85304 0V311.8149M39.68788 0V311.8149M42.52274 0V311.8149M45.35759 0V311.8149M48.19244 0V311.8149M51.02728 0V311.8149M53.86214 0V311.8149M56.69699 0V311.8149M59.53183 0V311.8149M62.36668 0V311.8149M65.20154 0V311.8149M68.03639 0V311.8149M70.87123 0V311.8149M73.70609 0V311.8149M76.54094 0V311.8149M79.37578 0V311.8149M82.21063 0V311.8149M85.04549 0V311.8149M87.88034 0V311.8149M90.71518 0V311.8149M93.55003 0V311.8149M96.38489 0V311.8149M99.21973 0V311.8149M102.05458 0V311.8149M104.88943 0V311.8149M107.72429 0V311.8149M110.55913 0V311.8149M113.39398 0V311.8149M116.22884 0V311.8149M119.06367 0V311.8149M121.89853 0V311.8149M124.73338 0V311.8149M127.56824 0V311.8149M130.40308 0V311.8149M133.23793 0V311.8149M136.07279 0V311.8149M138.90763 0V311.8149M141.74248 0V311.8149M144.57733 0V311.8149M147.41219 0V311.8149M150.24703 0V311.8149M153.08188 0V311.8149M155.91674 0V311.8149M158.75157 0V311.8149M161.58643 0V311.8149M164.42128 0V311.8149M167.25612 0V311.8149M170.09098 0V311.8149M172.92583 0V311.8149M175.76068 0V311.8149M178.59552 0V311.8149M181.43038 0V311.8149M184.26523 0V311.8149M187.10007 0V311.8149M189.93492 0V311.8149M192.76978 0V311.8149M195.60463 0V311.8149M198.43947 0V311.8149M201.27433 0V311.8149M204.10918 0V311.8149M206.94402 0V311.8149M209.77887 0V311.8149M212.61373 0V311.8149M215.44858 0V311.8149M218.28342 0V311.8149M221.11827 0V311.8149M223.95313 0V311.8149M226.78797 0V311.8149M229.62282 0V311.8149M232.45767 0V311.8149M235.29253 0V311.8149M238.12737 0V311.8149M240.96222 0V311.8149M243.79708 0V311.8149M246.63191 0V311.8149M249.46677 0V311.8149M252.30162 0V311.8149M255.13648 0V311.8149M257.9713 0V311.8149M260.80619 0V311.8149M263.64103 0V311.8149M266.47587 0V311.8149M269.3107 0V311.8149M272.14558 0V311.8149M274.9804 0V311.8149M277.81526 0V311.8149M280.65013 0V311.8149M283.48497 0V311.8149M286.31983 0V311.8149M289.15467 0V311.8149M291.98954 0V311.8149M294.82438 0V311.8149M297.6592 0V311.8149M300.49406 0V311.8149M303.32893 0V311.8149M306.16377 0V311.8149M308.9986 0V311.8149M311.83348 0V311.8149M314.66835 0V311.8149M317.50318 0V311.8149M320.338 0V311.8149M323.17289 0V311.8149M326.0077 0V311.8149M328.84257 0V311.8149M331.6774 0V311.8149M334.51225 0V311.8149M337.3471 0V311.8149M340.1617 311.8149"/>
<path transform="matrix(1.00006,0,0,-1,35.885255,330.177)" stroke-width=".3985" stroke-linecap="butt" stroke-miterlimit="10" stroke-linejoin="miter" fill="none" stroke="#a6a6a6" d="M0 0H340.1617M0 28.3468H340.1617M0 56.69362H340.1617M0 85.04042H340.1617M0 113.38724H340.1617M0 141.73404H340.1617M0 170.08086H340.1617M0 198.42766H340.1617M0 226.77448H340.1617M0 255.12128H340.1617M0 283.4681H340.1617M0 311.80497H340.1617M0 0V311.8149M28.3468 0V311.8149M56.69362 0V311.8149M85.04042 0V311.8149M113.38724 0V311.8149M141.73404 0V311.8149M170.08086 0V311.8149M198.42766 0V311.8149M226.77448 0V311.8149M255.12128 0V311.8149M283.4681 0V311.8149M311.8149 0V311.8149M340.15177 0V311.8149M340.1617 311.8149"/>
<path transform="matrix(1.00006,0,0,-1,35.885255,330.177)" stroke-width=".79701" stroke-linecap="butt" stroke-miterlimit="10" stroke-linejoin="miter" fill="none" stroke="#000000" d="M0 0H339.3647"/>
<path transform="matrix(1.00006,0,0,-1,375.66886,330.177)" stroke-width=".79701" stroke-linecap="round" stroke-linejoin="round" fill="none" stroke="#000000" d="M-2.55046 3.11095C-2.0845 1.24435-1.04614 .36295 0 0-1.04614-.36295-2.0845-1.24435-2.55046-3.11095"/>
<path transform="matrix(1.00006,0,0,-1,35.885255,330.177)" stroke-width=".79701" stroke-linecap="butt" stroke-miterlimit="10" stroke-linejoin="miter" fill="none" stroke="#000000" d="M0 0V311.0179"/>
<path transform="matrix(0,-1,-1.00006,-0,35.885255,18.76059)" stroke-width=".79701" stroke-linecap="round" stroke-linejoin="round" fill="none" stroke="#000000" d="M-2.55046 3.11095C-2.0845 1.24435-1.04614 .36295 0 0-1.04614-.36295-2.0845-1.24435-2.55046-3.11095"/>
<use data-text="1" xlink:href="#font_1_82" transform="matrix(9.963197,0,0,-9.9626,59.251657,340.332)"/>
<use data-text="0" xlink:href="#font_1_121" transform="matrix(9.963197,0,0,-9.9626,64.23325,340.332)"/>
<use data-text="2" xlink:href="#font_1_107" transform="matrix(9.963197,0,0,-9.9626,87.60036,340.332)"/>
<use data-text="0" xlink:href="#font_1_121" transform="matrix(9.963197,0,0,-9.9626,92.581958,340.332)"/>
<use data-text="3" xlink:href="#font_1_106" transform="matrix(9.963197,0,0,-9.9626,115.94905,340.332)"/>
<use data-text="0" xlink:href="#font_1_121" transform="matrix(9.963197,0,0,-9.9626,120.93065,340.332)"/>
<use data-text="4" xlink:href="#font_1_57" transform="matrix(9.963197,0,0,-9.9626,144.29776,340.44203)"/>
<use data-text="0" xlink:href="#font_1_121" transform="matrix(9.963197,0,0,-9.9626,149.27936,340.44203)"/>
<use data-text="5" xlink:href="#font_1_56" transform="matrix(9.963197,0,0,-9.9626,172.64646,340.332)"/>
<use data-text="0" xlink:href="#font_1_121" transform="matrix(9.963197,0,0,-9.9626,177.62805,340.332)"/>
<use data-text="6" xlink:href="#font_1_101" transform="matrix(9.963197,0,0,-9.9626,200.99416,340.332)"/>
<use data-text="0" xlink:href="#font_1_121" transform="matrix(9.963197,0,0,-9.9626,205.97576,340.332)"/>
<use data-text="7" xlink:href="#font_1_100" transform="matrix(9.963197,0,0,-9.9626,229.34285,340.432)"/>
<use data-text="0" xlink:href="#font_1_121" transform="matrix(9.963197,0,0,-9.9626,234.32445,340.432)"/>
<use data-text="8" xlink:href="#font_1_51" transform="matrix(9.963197,0,0,-9.9626,257.69157,340.332)"/>
<use data-text="0" xlink:href="#font_1_121" transform="matrix(9.963197,0,0,-9.9626,262.67317,340.332)"/>
<use data-text="9" xlink:href="#font_1_78" transform="matrix(9.963197,0,0,-9.9626,286.04026,340.332)"/>
<use data-text="0" xlink:href="#font_1_121" transform="matrix(9.963197,0,0,-9.9626,291.02186,340.332)"/>
<use data-text="1" xlink:href="#font_1_82" transform="matrix(9.963197,0,0,-9.9626,311.8978,340.332)"/>
<use data-text="0" xlink:href="#font_1_121" transform="matrix(9.963197,0,0,-9.9626,316.8794,340.332)"/>
<use data-text="0" xlink:href="#font_1_121" transform="matrix(9.963197,0,0,-9.9626,321.86097,340.332)"/>
<use data-text="1" xlink:href="#font_1_82" transform="matrix(9.963197,0,0,-9.9626,22.401444,276.691)"/>
<use data-text="0" xlink:href="#font_1_121" transform="matrix(9.963197,0,0,-9.9626,27.383042,276.691)"/>
<use data-text="1" xlink:href="#font_1_82" transform="matrix(9.963197,0,0,-9.9626,22.401444,248.345)"/>
<use data-text="5" xlink:href="#font_1_56" transform="matrix(9.963197,0,0,-9.9626,27.383042,248.345)"/>
<use data-text="2" xlink:href="#font_1_107" transform="matrix(9.963197,0,0,-9.9626,22.401444,219.998)"/>
<use data-text="0" xlink:href="#font_1_121" transform="matrix(9.963197,0,0,-9.9626,27.383042,219.998)"/>
<use data-text="2" xlink:href="#font_1_107" transform="matrix(9.963197,0,0,-9.9626,22.401444,191.651)"/>
<use data-text="5" xlink:href="#font_1_56" transform="matrix(9.963197,0,0,-9.9626,27.383042,191.651)"/>
<use data-text="3" xlink:href="#font_1_106" transform="matrix(9.963197,0,0,-9.9626,22.401444,163.304)"/>
<use data-text="0" xlink:href="#font_1_121" transform="matrix(9.963197,0,0,-9.9626,27.383042,163.304)"/>
<use data-text="3" xlink:href="#font_1_106" transform="matrix(9.963197,0,0,-9.9626,22.401444,134.957)"/>
<use data-text="5" xlink:href="#font_1_56" transform="matrix(9.963197,0,0,-9.9626,27.383042,134.957)"/>
<use data-text="4" xlink:href="#font_1_57" transform="matrix(9.963197,0,0,-9.9626,22.401444,106.66501)"/>
<use data-text="0" xlink:href="#font_1_121" transform="matrix(9.963197,0,0,-9.9626,27.383042,106.66501)"/>
<use data-text="4" xlink:href="#font_1_57" transform="matrix(9.963197,0,0,-9.9626,22.401444,78.319)"/>
<use data-text="5" xlink:href="#font_1_56" transform="matrix(9.963197,0,0,-9.9626,27.383042,78.319)"/>
<use data-text="5" xlink:href="#font_1_56" transform="matrix(9.963197,0,0,-9.9626,22.401444,49.916994)"/>
<use data-text="0" xlink:href="#font_1_121" transform="matrix(9.963197,0,0,-9.9626,27.383042,49.916994)"/>
<use data-text="5" xlink:href="#font_1_56" transform="matrix(9.963197,0,0,-9.9626,22.401444,21.570008)"/>
<use data-text="5" xlink:href="#font_1_56" transform="matrix(9.963197,0,0,-9.9626,27.383042,21.570008)"/>
<path transform="matrix(1.00006,0,0,-1,35.885255,330.177)" d="M28.3468 0V283.4681H42.5202V0" fill="#6666ff"/>
<path transform="matrix(1.00006,0,0,-1,35.885255,330.177)" stroke-width=".79701" stroke-linecap="butt" stroke-miterlimit="10" stroke-linejoin="miter" fill="none" stroke="#000000" d="M28.3468 0V283.4681H42.5202V0"/>
<path transform="matrix(1.00006,0,0,-1,35.885255,330.177)" d="M42.5202 0V141.73404H70.867V0" fill="#6666ff"/>
<path transform="matrix(1.00006,0,0,-1,35.885255,330.177)" stroke-width=".79701" stroke-linecap="butt" stroke-miterlimit="10" stroke-linejoin="miter" fill="none" stroke="#000000" d="M42.5202 0V141.73404H70.867V0"/>
<path transform="matrix(1.00006,0,0,-1,35.885255,330.177)" d="M70.867 0V226.77448H113.38724V0" fill="#6666ff"/>
<path transform="matrix(1.00006,0,0,-1,35.885255,330.177)" stroke-width=".79701" stroke-linecap="butt" stroke-miterlimit="10" stroke-linejoin="miter" fill="none" stroke="#000000" d="M70.867 0V226.77448H113.38724V0"/>
<path transform="matrix(1.00006,0,0,-1,35.885255,330.177)" d="M113.38724 0V198.42766H198.42766V0" fill="#6666ff"/>
<path transform="matrix(1.00006,0,0,-1,35.885255,330.177)" stroke-width=".79701" stroke-linecap="butt" stroke-miterlimit="10" stroke-linejoin="miter" fill="none" stroke="#000000" d="M113.38724 0V198.42766H198.42766V0"/>
<path transform="matrix(1.00006,0,0,-1,35.885255,330.177)" d="M198.42766 0V85.04042H255.12128V0" fill="#6666ff"/>
<path transform="matrix(1.00006,0,0,-1,35.885255,330.177)" stroke-width=".79701" stroke-linecap="butt" stroke-miterlimit="10" stroke-linejoin="miter" fill="none" stroke="#000000" d="M198.42766 0V85.04042H255.12128V0"/>
<use data-text="S" xlink:href="#font_2_97" transform="matrix(14.34706,0,0,-14.3462,113.93393,362.103)"/>
<use data-text="p" xlink:href="#font_2_84" transform="matrix(14.34706,0,0,-14.3462,122.90084,362.103)"/>
<use data-text="e" xlink:href="#font_2_50" transform="matrix(14.34706,0,0,-14.3462,132.3125,362.103)"/>
<use data-text="e" xlink:href="#font_2_50" transform="matrix(14.34706,0,0,-14.3462,139.67255,362.103)"/>
<use data-text="d" xlink:href="#font_2_47" transform="matrix(14.34706,0,0,-14.3462,147.0326,362.103)"/>
<use data-text="(" xlink:href="#font_2_85" transform="matrix(14.34706,0,0,-14.3462,161.37964,362.103)"/>
<use data-text="k" xlink:href="#font_2_70" transform="matrix(14.34706,0,0,-14.3462,167.66367,362.103)"/>
<use data-text="m" xlink:href="#font_2_75" transform="matrix(14.34706,0,0,-14.3462,176.18582,362.103)"/>
<use data-text="/" xlink:href="#font_2_102" transform="matrix(14.34706,0,0,-14.3462,189.64337,362.103)"/>
<use data-text="h" xlink:href="#font_2_63" transform="matrix(14.34706,0,0,-14.3462,197.72074,362.103)"/>
<use data-text=")" xlink:href="#font_2_86" transform="matrix(14.34706,0,0,-14.3462,206.68766,362.103)"/>
<use data-text="F" xlink:href="#font_2_54" transform="matrix(0,-14.3462,-14.34706,-0,10.987762,252.92099)"/>
<use data-text="r" xlink:href="#font_2_96" transform="matrix(0,-14.3462,-14.34706,-0,10.987762,244.11241)"/>
<use data-text="e" xlink:href="#font_2_50" transform="matrix(0,-14.3462,-14.34706,-0,10.987762,237.51316)"/>
<use data-text="q" xlink:href="#font_2_91" transform="matrix(0,-14.3462,-14.34706,-0,10.987762,230.15355)"/>
<use data-text="u" xlink:href="#font_2_109" transform="matrix(0,-14.3462,-14.34706,-0,10.987762,221.63191)"/>
<use data-text="e" xlink:href="#font_2_50" transform="matrix(0,-14.3462,-14.34706,-0,10.987762,212.66555)"/>
<use data-text="n" xlink:href="#font_2_77" transform="matrix(0,-14.3462,-14.34706,-0,10.987762,205.30594)"/>
<use data-text="c" xlink:href="#font_2_43" transform="matrix(0,-14.3462,-14.34706,-0,10.987762,196.33957)"/>
<use data-text="y" xlink:href="#font_2_118" transform="matrix(0,-14.3462,-14.34706,-0,10.987762,189.16648)"/>
<use data-text="H" xlink:href="#font_2_62" transform="matrix(14.34706,0,0,-14.3462,111.41179,11.959015)"/>
<use data-text="i" xlink:href="#font_2_66" transform="matrix(14.34706,0,0,-14.3462,124.03721,11.959015)"/>
<use data-text="s" xlink:href="#font_2_98" transform="matrix(14.34706,0,0,-14.3462,128.52783,11.959015)"/>
<use data-text="t" xlink:href="#font_2_105" transform="matrix(14.34706,0,0,-14.3462,134.89792,11.959015)"/>
<use data-text="o" xlink:href="#font_2_81" transform="matrix(14.34706,0,0,-14.3462,141.18195,11.959015)"/>
<use data-text="g" xlink:href="#font_2_59" transform="matrix(14.34706,0,0,-14.3462,149.25934,11.959015)"/>
<use data-text="r" xlink:href="#font_2_96" transform="matrix(14.34706,0,0,-14.3462,157.3367,11.959015)"/>
<use data-text="a" xlink:href="#font_2_28" transform="matrix(14.34706,0,0,-14.3462,163.93637,11.959015)"/>
<use data-text="m" xlink:href="#font_2_75" transform="matrix(14.34706,0,0,-14.3462,171.78421,11.959015)"/>
<use data-text="o" xlink:href="#font_2_81" transform="matrix(14.34706,0,0,-14.3462,190.62189,11.959015)"/>
<use data-text="f" xlink:href="#font_2_55" transform="matrix(14.34706,0,0,-14.3462,198.69928,11.959015)"/>
<use data-text="t" xlink:href="#font_2_105" transform="matrix(14.34706,0,0,-14.3462,209.01483,11.959015)"/>
<use data-text="h" xlink:href="#font_2_63" transform="matrix(14.34706,0,0,-14.3462,215.29883,11.959015)"/>
<use data-text="e" xlink:href="#font_2_50" transform="matrix(14.34706,0,0,-14.3462,224.26572,11.959015)"/>
<use data-text="a" xlink:href="#font_2_28" transform="matrix(14.34706,0,0,-14.3462,237.00592,11.959015)"/>
<use data-text="g" xlink:href="#font_2_59" transform="matrix(14.34706,0,0,-14.3462,244.85376,11.959015)"/>
<use data-text="e" xlink:href="#font_2_50" transform="matrix(14.34706,0,0,-14.3462,252.93119,11.959015)"/>
<use data-text="s" xlink:href="#font_2_98" transform="matrix(14.34706,0,0,-14.3462,260.2912,11.959015)"/>
<use data-text="o" xlink:href="#font_2_81" transform="matrix(14.34706,0,0,-14.3462,272.04145,11.959015)"/>
<use data-text="f" xlink:href="#font_2_55" transform="matrix(14.34706,0,0,-14.3462,280.11885,11.959015)"/>
<use data-text="a" xlink:href="#font_2_28" transform="matrix(14.34706,0,0,-14.3462,290.43437,11.959015)"/>
<use data-text="t" xlink:href="#font_2_105" transform="matrix(14.34706,0,0,-14.3462,298.28224,11.959015)"/>
<use data-text="t" xlink:href="#font_2_105" transform="matrix(14.34706,0,0,-14.3462,304.56623,11.959015)"/>
<use data-text="e" xlink:href="#font_2_50" transform="matrix(14.34706,0,0,-14.3462,310.85023,11.959015)"/>
<use data-text="n" xlink:href="#font_2_77" transform="matrix(14.34706,0,0,-14.3462,318.21028,11.959015)"/>
<use data-text="d" xlink:href="#font_2_47" transform="matrix(14.34706,0,0,-14.3462,327.17716,11.959015)"/>
<use data-text="e" xlink:href="#font_2_50" transform="matrix(14.34706,0,0,-14.3462,336.14408,11.959015)"/>
<use data-text="e" xlink:href="#font_2_50" transform="matrix(14.34706,0,0,-14.3462,343.50413,11.959015)"/>
<use data-text="s" xlink:href="#font_2_98" transform="matrix(14.34706,0,0,-14.3462,350.86415,11.959015)"/>
</svg>
