<svg xmlns="http://www.w3.org/2000/svg" xmlns:xlink="http://www.w3.org/1999/xlink" xmlns:inkscape="http://www.inkscape.org/namespaces/inkscape" version="1.1" width="350" height="60" viewBox="0 0 350 60">
<defs>
<path id="font_1_67" d="M.36499024 .14936829V.69433596H.2829895V.15235901C.2829895 .10437012 .2630005 .04536438 .17298889 .04536438 .12199402 .04536438 .07899475 .069366458 .051986696 .099365238L.038986207 .026367188C.100997928-.0066375734 .1579895-.015625 .19999695-.015625 .29699708-.015625 .36499024 .040374757 .36499024 .14936829Z"/>
<path id="font_1_69" d="M.61099246 0 .34899903 .41918946 .59799197 .69433596H.5019989L.17199707 .33114625V.69433596H.08799744V0H.17199707V.22509766L.29299928 .35816957 .5179901 0H.61099246Z"/>
<path id="font_1_71" d="M.46899415 0V.06498718H.26098634C.24899292 .06498718 .23699951 .06399536 .22499085 .06399536H.17199707V.69433596H.08799744V0H.46899415Z"/>
<path id="font_1_74" d="M.72898867 0V.69433596H.61299136L.49899293 .37316896 .45098878 .23210144C.44299317 .2060852 .41600038 .12504578 .4099884 .09303284H.40899659C.4059906 .11305237 .3999939 .13406372 .38398744 .18507385L.35499574 .27412416 .20698548 .69433596H.08999634V0H.16799927V.61328127L.16899109 .61299136C.16899109 .61299136 .17799378 .56799319 .23899842 .3929901L.37098695 .015991211H.44499208L.56399539 .35099793 .60798647 .48199464C.6179962 .5119934 .6429901 .58599856 .6489868 .61499026H.6499939V0H.72898867Z"/>
<path id="font_1_76" d="M.57398989 0V.69433596H.49598695V.07702637L.49499513 .076034549 .44299317 .19207764 .22898865 .65730288 .21099854 .69433596H.08799744V0H.1659851V.6172943L.16699219 .61828616 .21899414 .5022278 .43299867 .037002565 .45098878 0H.57398989Z"/>
<path id="font_1_80" d="M.6399994 .3461609C.6399994 .5540161 .5029907 .70996096 .34599305 .70996096 .18899536 .70996096 .051986696 .5530243 .051986696 .3461609 .051986696 .13729859 .19099427-.015625 .34599305-.015625 .5009918-.015625 .6399994 .13729859 .6399994 .3461609M.55599978 .35916139C.55599978 .169281 .45498658 .04736328 .34599305 .04736328 .23599243 .04736328 .13598633 .17028809 .13598633 .35916139 .13598633 .5430298 .24198914 .6469574 .34599305 .6469574 .44999696 .6469574 .55599978 .5430298 .55599978 .35916139Z"/>
<path id="font_1_83" d="M.5469971 .4921875C.5469971 .600296 .45298768 .69433596 .32299806 .69433596H.08898926V0H.17298889V.2890625H.32899476C.44898988 .2890625 .5469971 .38209535 .5469971 .4921875M.46798707 .4921875C.46798707 .4241333 .42099 .34706117 .30099488 .34706117H.17098999V.6383209H.30099488C.4169922 .6383209 .46798707 .56526187 .46798707 .4921875Z"/>
<path id="font_1_90" d="M.6399994 .3461609C.6399994 .5540161 .5029907 .70996096 .34599305 .70996096 .18899536 .70996096 .051986696 .5530243 .051986696 .3461609 .051986696 .13729859 .19099427-.015625 .34599305-.015625 .3809967-.015625 .41099549-.0076293947 .43199159 .00036621095L.5159912-.125H.6139984L.5 .037368776C.621994 .13630677 .6399994 .2702179 .6399994 .3461609M.55799868 .3461609C.55799868 .2822113 .5479889 .17527771 .46099855 .09333801L.3889923 .19425965H.30299378L.394989 .055358888C.3809967 .050369264 .3639984 .04736328 .34599305 .04736328 .23799134 .04736328 .13398743 .16029358 .13398743 .3461609 .13398743 .5310364 .23699951 .6469574 .34599305 .6469574 .45599366 .6469574 .55799868 .53004458 .55799868 .3461609Z"/>
<path id="font_1_95" d="M.57899478 0 .3939972 .32637025 .3959961 .32737733C.5519867 .38137818 .5529938 .48934938 .5529938 .50834658 .5529938 .6033325 .45700074 .69433596 .31298829 .69433596H.08898926V0H.17098999V.3173828H.31799317L.49499513 0H.57899478M.47399903 .50834658C.47399903 .45436097 .43399049 .3783722 .3019867 .3783722H.17098999V.6383209H.3019867C.42900086 .6383209 .47399903 .5663452 .47399903 .50834658Z"/>
</defs>
<path transform="matrix(1.00003,0,0,-1.00003,175.12569,30.077424)" stroke-width=".3985" stroke-linecap="butt" stroke-miterlimit="10" stroke-linejoin="miter" fill="none" stroke="#000000" d="M-173.02635-28.27728H173.02639V28.2773H-173.02635Z"/>
<use data-text="J" xlink:href="#font_1_67" transform="matrix(59.777597,0,0,-59.777597,5.4145967,47.56295)"/>
<use data-text="K" xlink:href="#font_1_69" transform="matrix(59.777597,0,0,-59.777597,31.896073,47.56295)"/>
<use data-text="L" xlink:href="#font_1_71" transform="matrix(59.777597,0,0,-59.777597,70.811267,47.56295)"/>
<use data-text="M" xlink:href="#font_1_74" transform="matrix(59.777597,0,0,-59.777597,101.23805,47.56295)"/>
<use data-text="N" xlink:href="#font_1_76" transform="matrix(59.777597,0,0,-59.777597,150.25569,47.56295)"/>
<use data-text="O" xlink:href="#font_1_80" transform="matrix(59.777597,0,0,-59.777597,189.88823,47.56295)"/>
<use data-text="P" xlink:href="#font_1_83" transform="matrix(59.777597,0,0,-59.777597,231.31407,47.56295)"/>
<use data-text="Q" xlink:href="#font_1_90" transform="matrix(59.777597,0,0,-59.777597,267.18067,47.56295)"/>
<use data-text="R" xlink:href="#font_1_95" transform="matrix(59.777597,0,0,-59.777597,308.6065,47.56295)"/>
</svg>
