<svg xmlns="http://www.w3.org/2000/svg" xmlns:xlink="http://www.w3.org/1999/xlink" xmlns:inkscape="http://www.inkscape.org/namespaces/inkscape" version="1.1" width="139" height="108" viewBox="0 0 139 108">
<defs>
<path id="font_1_27" d="M.69200137 .017990113C.69200137 .0309906 .6839905 .0309906 .66799929 .0309906 .6159973 .0309906 .61299136 .038986207 .61099246 .064956668L.56799319 .69081118C.5669861 .71281436 .56599429 .7158203 .5499878 .7158203 .5339966 .7158203 .5299988 .7088165 .5239868 .69781497L.19198609 .11289978C.14898682 .036987306 .10598755 .032989503 .070999149 .0309906 .05999756 .02999878 .05899048 .011993408 .05899048 .011993408 .05899048 .008987427 .05999756 0 .070999149 0 .09599304 0 .125 .0029907227 .15098572 .0029907227 .18199158 .0029907227 .21398926 0 .24398804 0 .24899292 0 .2619934 0 .2619934 .018997193 .2619934 .02999878 .2539978 .02999878 .24598694 .0309906 .23999024 .03199768 .20399475 .033981325 .20399475 .064956668 .20399475 .07394409 .20899964 .08592224 .21798706 .10290527L.2899933 .22875977H.5179901L.5289917 .06295776C.5289917 .04298401 .5049896 .0309906 .46199037 .0309906 .45098878 .0309906 .43899537 .0309906 .43899537 .011993408 .43899537 0 .45098878 0 .45399476 0 .4909973 0 .5309906 .0029907227 .56900027 .0029907227 .60398867 .0029907227 .6399994 0 .673996 0 .6799927 0 .69200137 0 .69200137 .017990113M.5159912 .25976563H.30699159L.49299623 .586792 .5159912 .25976563Z"/>
<path id="font_1_46" d="M.7749939 .43774415C.7749939 .5806427 .69400027 .6826172 .5649872 .6826172H.25299073C.23699951 .6826172 .22599793 .6826172 .22599793 .66360476 .22599793 .6516113 .23399353 .6516113 .25299073 .6516113 .28399659 .6516113 .31098939 .6516113 .31098939 .63461306 .31098939 .6316223 .31098939 .6296234 .30699159 .6156311L.17199707 .07296753C.1639862 .038986207 .1579895 .0309906 .08999634 .0309906 .07398987 .0309906 .06298828 .0309906 .06298828 .011993408 .06298828 0 .07199097 0 .08799744 0H.394989C.58399966 0 .7749939 .21287537 .7749939 .43774415M.69200137 .475708C.69200137 .41674806 .6629944 .22987366 .5779877 .12992859 .5289917 .07296753 .45799256 .0309906 .37799073 .0309906H.2749939C.24398804 .0309906 .24398804 .033996583 .24398804 .040985109 .24398804 .04698181 .24699402 .05697632 .24798584 .06297302L.38598634 .6156311C.394989 .65060427 .4019928 .6516113 .43499757 .6516113H.5319977C.61299136 .6516113 .69200137 .6066284 .69200137 .475708Z"/>
<path id="font_1_42" d="M.80999758 .68107607C.8109894 .68507388 .81199648 .69107058 .81199648 .69506838 .81199648 .69506838 .8109894 .7050781 .8009949 .7050781 .8009949 .7050781 .7939911 .7050781 .7849884 .69407656L.7220001 .62002566C.67900088 .68907168 .62098696 .7050781 .57099917 .7050781 .36499024 .7050781 .1499939 .47990418 .1499939 .24472046 .1499939 .080596927 .25698854-.022460938 .394989-.022460938 .58999636-.022460938 .69898989 .19168091 .69898989 .23971558 .69898989 .24972534 .68899539 .24972534 .6839905 .24972534 .6779938 .24972534 .67099 .24972534 .66799929 .24171448 .61698916 .07258606 .49198915 .008529663 .40899659 .008529663 .32499696 .008529663 .23699951 .064575199 .23699951 .20669556 .23699951 .2687378 .2619934 .4258728 .34199525 .5359497 .4099884 .6280365 .5019989 .67407229 .57899478 .67407229 .68499758 .67407229 .72099307 .5779877 .72099307 .49092103 .72099307 .4649048 .71598818 .4328766 .71598818 .4298706 .71598818 .41986085 .7259979 .41986085 .73098757 .41986085 .74198916 .41986085 .7449951 .42086793 .7489929 .43788148L.80999758 .68107607Z"/>
<path id="font_1_34" d="M.6769867 .21884156C.6769867 .30177308 .6100006 .3477478 .5379944 .35673524 .6599884 .38372804 .73399356 .46969605 .73399356 .5466614 .73399356 .6186218 .6749878 .6826172 .56599429 .6826172H.25498963C.23899842 .6826172 .22799683 .6826172 .22799683 .66360476 .22799683 .6516113 .23599243 .6516113 .25498963 .6516113 .28599549 .6516113 .31298829 .6516113 .31298829 .63461306 .31298829 .6316223 .31298829 .6296234 .30899049 .6156311L.17399597 .07295227C.1659851 .038986207 .1599884 .0309906 .09199524 .0309906 .07598877 .0309906 .06498718 .0309906 .06498718 .011993408 .06498718 0 .07398987 0 .08999634 0H.41999818C.56199648 0 .6769867 .1149292 .6769867 .21884156M.6459961 .5526581C.6459961 .46769715 .56900027 .36573792 .45498658 .36573792H.32299806L.3849945 .6156311C.3939972 .6516113 .40098573 .6516113 .43399049 .6516113H.5519867C.6359863 .6516113 .6459961 .5836487 .6459961 .5526581M.58799746 .23182678C.58799746 .13490296 .5079956 .0309906 .397995 .0309906H.27398683C.24299622 .0309906 .24299622 .033996583 .24299622 .040985109 .24299622 .04698181 .24598694 .05697632 .24699402 .06297302L.31698609 .34375H.4889984C.58200076 .34375 .58799746 .2578125 .58799746 .23182678Z"/>
<path id="font_1_49" d="M.68699648 .24691773C.68699648 .2579193 .6749878 .2579193 .6719971 .2579193 .6609955 .2579193 .6599884 .25691224 .651001 .23391724 .59298709 .095962528 .55799868 .0309906 .39898683 .0309906H.2769928C.24598694 .0309906 .24598694 .033996583 .24598694 .040985109 .24598694 .04698181 .24899292 .05697632 .25 .06298828L.31900025 .33789063H.4059906C.47399903 .33789063 .48098756 .32188417 .48098756 .29489137 .48098756 .28790284 .47999574 .27290345 .47200013 .24391175 .47200013 .24391175 .46998597 .23591614 .46998597 .23292542 .46998597 .220932 .47999574 .220932 .48599244 .220932 .49699403 .220932 .5 .22293091 .5039978 .24092102L.5589905 .46107484C.55999758 .46406556 .56199648 .47407533 .56199648 .47407533 .56199648 .48606874 .5499878 .48606874 .54599 .48606874 .5329895 .48606874 .5329895 .483078 .5269928 .46206666 .5079956 .39093019 .4889984 .36888124 .4079895 .36888124H.32699586L.3880005 .61476138C.3959961 .6476898 .40299989 .64868167 .43598939 .64868167H.5609894C.6689911 .64868167 .69400027 .61875918 .69400027 .54792788 .69400027 .52098086 .69200137 .50801089 .68899539 .48406983 .6879883 .47906495 .68699648 .4700775 .68699648 .46707154 .68699648 .45507813 .69799807 .45507813 .70199587 .45507813 .71598818 .45507813 .71699526 .45907594 .71899417 .47706605L.74198916 .6536865C.7449951 .6796875 .7389984 .6796875 .71798709 .6796875H.25099183C.23399353 .6796875 .22399903 .6796875 .22399903 .6616821 .22399903 .64868167 .23098755 .64868167 .25099183 .64868167 .30899049 .64868167 .30899049 .6407013 .30899049 .63171389 .30899049 .63171389 .30899049 .6237335 .30499269 .6087799L.17098999 .07298279C.16299439 .038986207 .15699768 .0309906 .08898926 .0309906 .07299805 .0309906 .06199646 .0309906 .06199646 .011993408 .06199646 0 .070999149 0 .08699036 0H.56599429C.58599856 0 .58699038 .0009918213 .59399417 .015991211L.68299868 .23492432C.6839905 .23692322 .68699648 .24691773 .68699648 .24691773Z"/>
</defs>
<path transform="matrix(1,0,0,-1.00003,12.139,96.72555)" d="M0 0H113.38724V85.04042Z" fill="#80ff80"/>
<path transform="matrix(1,0,0,-1.00003,12.139,96.72555)" stroke-width=".79701" stroke-linecap="butt" stroke-miterlimit="10" stroke-linejoin="miter" fill="none" stroke="#00ff00" d="M0 0H113.38724V85.04042Z"/>
<path transform="matrix(1,0,0,-1.00003,12.139,96.72555)" stroke-width=".79701" stroke-linecap="butt" stroke-miterlimit="10" stroke-linejoin="miter" fill="none" stroke="#00ff00" d="M113.38724 0V84.24341"/>
<path transform="matrix(0,-1.00003,-1,-0,125.52624,12.081085)" stroke-width=".79701" stroke-linecap="round" stroke-linejoin="round" fill="none" stroke="#00ff00" d="M-2.55046 3.11095C-2.0845 1.24435-1.04614 .36295 0 0-1.04614-.36295-2.0845-1.24435-2.55046-3.11095"/>
<path transform="matrix(1,0,0,-1.00003,12.139,96.72555)" stroke-width=".79701" stroke-linecap="butt" stroke-miterlimit="10" stroke-linejoin="miter" fill="none" stroke="#00ff00" d="M56.69362 0V41.72319"/>
<path transform="matrix(0,-1.00003,-1,-0,68.83262,54.602594)" stroke-width=".79701" stroke-linecap="round" stroke-linejoin="round" fill="none" stroke="#00ff00" d="M-2.55046 3.11095C-2.0845 1.24435-1.04614 .36295 0 0-1.04614-.36295-2.0845-1.24435-2.55046-3.11095"/>
<path transform="matrix(1,0,0,-1.00003,12.139,96.72555)" stroke-width=".79701" stroke-linecap="butt" stroke-miterlimit="10" stroke-linejoin="miter" fill="none" stroke="#ff0000" d="M56.69362 42.5202V0"/>
<use data-text="A" xlink:href="#font_1_27" transform="matrix(9.9626,0,0,-9.962899,1.2170029,107.37887)"/>
<use data-text="D" xlink:href="#font_1_46" transform="matrix(9.9626,0,0,-9.962899,129.04599,107.04986)"/>
<use data-text="C" xlink:href="#font_1_42" transform="matrix(9.9626,0,0,-9.962899,129.04599,7.943878)"/>
<use data-text="B" xlink:href="#font_1_34" transform="matrix(9.9626,0,0,-9.962899,65.175998,50.684164)"/>
<use data-text="E" xlink:href="#font_1_49" transform="matrix(9.9626,0,0,-9.962899,65.121,107.01985)"/>
</svg>
