<svg xmlns="http://www.w3.org/2000/svg" xmlns:xlink="http://www.w3.org/1999/xlink" xmlns:inkscape="http://www.inkscape.org/namespaces/inkscape" version="1.1" width="273" height="188" viewBox="0 0 273 188">
<path transform="matrix(1.00003,0,0,-1.00003,2.2955018,186.2561)" stroke-width=".79701" stroke-linecap="butt" stroke-miterlimit="10" stroke-linejoin="miter" fill="none" stroke="#000000" d="M0 0H226.77448V141.73404H0Z"/>
<path transform="matrix(1.00003,0,0,-1.00003,2.2955018,186.2561)" stroke-width=".79701" stroke-linecap="butt" stroke-miterlimit="10" stroke-linejoin="miter" fill="none" stroke="#000000" d="M0 0 42.5202 42.5202"/>
<path transform="matrix(1.00003,0,0,-1.00003,2.2955018,186.2561)" stroke-width=".79701" stroke-linecap="butt" stroke-miterlimit="10" stroke-linejoin="miter" fill="none" stroke="#000000" d="M226.77448 0 269.29469 42.5202"/>
<path transform="matrix(1.00003,0,0,-1.00003,2.2955018,186.2561)" stroke-width=".79701" stroke-linecap="butt" stroke-miterlimit="10" stroke-linejoin="miter" fill="none" stroke="#000000" d="M226.77448 141.73404 269.29469 184.25424"/>
<path transform="matrix(1.00003,0,0,-1.00003,2.2955018,186.2561)" stroke-width=".79701" stroke-linecap="butt" stroke-miterlimit="10" stroke-linejoin="miter" fill="none" stroke="#000000" d="M0 141.73404 42.5202 184.25424"/>
<path transform="matrix(1.00003,0,0,-1.00003,2.2955018,186.2561)" stroke-width=".79701" stroke-linecap="butt" stroke-miterlimit="10" stroke-linejoin="miter" fill="none" stroke="#000000" d="M42.5202 42.5202H269.29469V184.25424H42.5202Z"/>
<path transform="matrix(1.00003,0,0,-1.00003,2.2955018,186.2561)" stroke-width=".79701" stroke-linecap="butt" stroke-dasharray="2.98883,2.98883" stroke-miterlimit="10" stroke-linejoin="miter" fill="none" stroke="#000000" d="M42.5202 42.5202V184.25424"/>
<path transform="matrix(1.00003,0,0,-1.00003,2.2955018,186.2561)" stroke-width=".79701" stroke-linecap="butt" stroke-dasharray="2.98883,2.98883" stroke-miterlimit="10" stroke-linejoin="miter" fill="none" stroke="#000000" d="M269.29469 42.5202V184.25424"/>
</svg>
