<svg xmlns="http://www.w3.org/2000/svg" xmlns:xlink="http://www.w3.org/1999/xlink" xmlns:inkscape="http://www.inkscape.org/namespaces/inkscape" version="1.1" width="272" height="156" viewBox="0 0 272 156">
<defs>
<path id="font_1_104" d="M.68499758 .45214845 .66600039 .6767578H.054992677L.035995485 .45214845H.06098938C.07499695 .6128235 .08999634 .64575198 .24099732 .64575198 .25898744 .64575198 .2849884 .64575198 .29499818 .64375308 .31599427 .6397705 .31599427 .6287842 .31599427 .60583499V.07901001C.31599427 .04499817 .31599427 .0309906 .21099854 .0309906H.17098999V0C.21199036 .0029907227 .31399537 .0029907227 .3600006 .0029907227 .4059906 .0029907227 .5089874 .0029907227 .5499878 0V.0309906H.5099945C.40499879 .0309906 .40499879 .04499817 .40499879 .07901001V.60583499C.40499879 .62579348 .40499879 .6397705 .4229889 .64375308 .43399049 .64575198 .46099855 .64575198 .47999574 .64575198 .6309967 .64575198 .6459961 .6128235 .6599884 .45214845H.68499758Z"/>
<path id="font_1_66" d="M.24699402 0V.0309906C.18099976 .0309906 .1769867 .035995485 .1769867 .075042728V.4423828L.036987306 .43066407V.3996582C.101989749 .3996582 .11099243 .3936615 .11099243 .3447113V.07595825C.11099243 .0309906 .099990848 .0309906 .032989503 .0309906V0L.14299011 .0029907227C.17799378 .0029907227 .21299744 .0009918213 .24699402 0M.19198609 .603775C.19198609 .6307678 .16899109 .6567688 .13899231 .6567688 .10499573 .6567688 .084991458 .6287689 .084991458 .603775 .084991458 .57676699 .10798645 .55078127 .13798523 .55078127 .17199707 .55078127 .19198609 .5787811 .19198609 .603775Z"/>
<path id="font_1_75" d="M.8129883 0V.0309906C.7609863 .0309906 .73599246 .0309906 .7350006 .061019899V.25221253C.7350006 .3383026 .7350006 .36932374 .70399478 .405365 .6899872 .42237855 .6569977 .4423828 .598999 .4423828 .5149994 .4423828 .47099305 .38233949 .45399476 .34429933 .43998719 .43138124 .3659973 .4423828 .32099916 .4423828 .24798584 .4423828 .20098877 .39935304 .17298889 .33729554V.4423828L.03199768 .43066407V.3996582C.101989749 .3996582 .10998535 .39266969 .10998535 .34370423V.07595825C.10998535 .0309906 .09899902 .0309906 .03199768 .0309906V0L.14498902 .0029907227 .25698854 0V.0309906C.18998719 .0309906 .1789856 .0309906 .1789856 .07595825V.25978089C.1789856 .36431886 .25 .42037965 .31399537 .42037965 .3769989 .42037965 .3880005 .36631776 .3880005 .30926515V.076034549C.3880005 .0309906 .3769989 .0309906 .30999757 .0309906V0L.4229889 .0029907227 .5349884 0V.0309906C.46798707 .0309906 .45700074 .0309906 .45700074 .076034549V.2602234C.45700074 .36431886 .5279999 .42037965 .59199526 .42037965 .6549988 .42037965 .66600039 .36631776 .66600039 .30926515V.076034549C.66600039 .0309906 .6549988 .0309906 .58799746 .0309906V0L.70098879 .0029907227 .8129883 0Z"/>
<path id="font_1_50" d="M.4149933 .11933899C.4149933 .12934876 .40699769 .13134766 .4019928 .13134766 .3929901 .13134766 .3909912 .12535095 .3889923 .11734009 .35398866 .014251709 .2639923 .014251709 .2539978 .014251709 .20399475 .014251709 .1639862 .044281007 .14099121 .08131409 .11099243 .12934876 .11099243 .19540406 .11099243 .23144531H.3899994C.4119873 .23144531 .4149933 .23144531 .4149933 .2524414 .4149933 .35131837 .36099244 .4482422 .23599243 .4482422 .11999512 .4482422 .027999878 .34532167 .027999878 .22042847 .027999878 .08631897 .1329956-.0107421879 .24798584-.0107421879 .36999513-.0107421879 .4149933 .10032654 .4149933 .11933899M.34899903 .2524414H.11199951C.117996219 .40126039 .20199585 .426239 .23599243 .426239 .33898927 .426239 .34899903 .2913971 .34899903 .2524414Z"/>
<path id="font_1_85" d="M.33099366-.2400055C.33099366-.23701477 .33099366-.23500061 .31399537-.21800232 .18899536-.0920105 .15699768 .09700012 .15699768 .25 .15699768 .42399598 .19499207 .59799197 .31799317 .72299197 .33099366 .7350006 .33099366 .7369995 .33099366 .73999026 .33099366 .746994 .32699586 .75 .32099916 .75 .31098939 .75 .22099304 .6819916 .1619873 .5549927 .11099243 .44499208 .09899902 .33399964 .09899902 .25 .09899902 .17199707 .10998535 .050994874 .16499329-.06201172 .22499085-.18501282 .31098939-.25 .32099916-.25 .32699586-.25 .33099366-.24700928 .33099366-.2400055Z"/>
<path id="font_1_98" d="M.3600006 .12823487C.3600006 .18122864 .32998658 .21122742 .31799317 .22323609 .2849884 .25523377 .24598694 .26322938 .20399475 .27124024 .147995 .28224183 .08099365 .29522706 .08099365 .35324098 .08099365 .38822938 .10699463 .42922975 .19299317 .42922975 .30299378 .42922975 .30799867 .3392334 .30999757 .30822755 .31098939 .2992401 .32199098 .2992401 .32199098 .2992401 .33499146 .2992401 .33499146 .30422975 .33499146 .32322694V.4242401C.33499146 .4412384 .33499146 .4482422 .32398988 .4482422 .31900025 .4482422 .31698609 .4482422 .3039856 .43623353 .30099488 .43223573 .29100038 .42323304 .2869873 .42022706 .24899292 .4482422 .20799256 .4482422 .19299317 .4482422 .070999149 .4482422 .032989503 .38124085 .032989503 .3252411 .032989503 .29023744 .04899597 .26223756 .07598877 .24023438 .10798645 .2142334 .13598633 .2082367 .20799256 .19422913 .22999573 .19021607 .31199647 .17422486 .31199647 .10221863 .31199647 .051223756 .2769928 .011245728 .19898987 .011245728 .114990238 .011245728 .07899475 .068222049 .05999756 .1532135 .056991579 .16621399 .055999757 .17021179 .04598999 .17021179 .032989503 .17021179 .032989503 .16322327 .032989503 .1452179V.013214111C.032989503-.003753662 .032989503-.0107421879 .04399109-.0107421879 .04899597-.0107421879 .049987794-.009750366 .068984989 .009246826 .070999149 .011245728 .070999149 .013214111 .08898926 .032226564 .1329956-.009750366 .17799378-.0107421879 .19898987-.0107421879 .31399537-.0107421879 .3600006 .05621338 .3600006 .1282196V.12823487Z"/>
<path id="font_1_86" d="M.2889862 .25C.2889862 .32798768 .27799989 .44898988 .22299195 .56199648 .16299439 .68499758 .07699585 .75 .066986087 .75 .06098938 .75 .056991579 .74598696 .056991579 .73999026 .056991579 .7369995 .056991579 .7350006 .07598877 .71699526 .17399597 .6179962 .23098755 .45899964 .23098755 .25 .23098755 .07899475 .19400025-.09700012 .069992069-.2230072 .056991579-.23500061 .056991579-.23701477 .056991579-.2400055 .056991579-.2460022 .06098938-.25 .066986087-.25 .07699585-.25 .16699219-.18200684 .22599793-.055007936 .2769928 .054992677 .2889862 .16600037 .2889862 .25Z"/>
<path id="font_1_111" d="M.7299957 .6516113V.6826172C.69898989 .680603 .6589966 .6796112 .6329956 .6796112L.5189972 .6826172V.6516113C.57099917 .6506195 .59199526 .6246033 .59199526 .6016083 .59199526 .5936127 .58898928 .5876007 .58699038 .581604L.4039917 .09954834 .21299744 .60461428C.20698548 .61860659 .20698548 .62260439 .20698548 .62260439 .20698548 .6516113 .2639923 .6516113 .2889862 .6516113V.6826172C.25299073 .6796112 .18399048 .6796112 .1459961 .6796112L.018997193 .6826172V.6516113C.083999637 .6516113 .102996829 .6516113 .116989139 .6136017L.34899903-.00047302247C.35598756-.019470215 .36099244-.022460938 .37399293-.022460938 .3909912-.022460938 .3929901-.017471314 .397995-.0034637452L.62098696 .58461C.6349945 .62161257 .6619873 .6506195 .7299957 .6516113Z"/>
<path id="font_1_72" d="M.25498963 0V.0309906C.18798828 .0309906 .1769867 .0309906 .1769867 .07601929V.69433596L.032989503 .6826172V.6516113C.102996829 .6516113 .11099243 .64460757 .11099243 .5956421V.07595825C.11099243 .0309906 .099990848 .0309906 .032989503 .0309906V0L.14399719 .0029907227 .25498963 0Z"/>
<path id="font_1_81" d="M.47099305 .21424866C.47099305 .34223939 .37098695 .4482422 .25 .4482422 .125 .4482422 .027999878 .3392334 .027999878 .21424866 .027999878 .085250858 .13198853-.0107421879 .24899292-.0107421879 .36999513-.0107421879 .47099305 .087249759 .47099305 .21424866M.3880005 .22224427C.3880005 .18624878 .3880005 .13224793 .3659973 .08824158 .34399415 .04324341 .2999878 .014251709 .25 .014251709 .20698548 .014251709 .16299439 .035247804 .13598633 .08125305 .11099243 .12524414 .11099243 .18624878 .11099243 .22224427 .11099243 .26124574 .11099243 .31523133 .1349945 .35923768 .1619873 .40522767 .20899964 .426239 .24899292 .426239 .29299928 .426239 .33599855 .40423585 .3619995 .36123658 .3880005 .3182373 .3880005 .26023866 .3880005 .22224427Z"/>
<path id="font_1_43" d="M.4149933 .119140628C.4149933 .12911988 .40499879 .12911988 .4019928 .12911988 .3929901 .12911988 .3909912 .12512207 .3889923 .119140628 .3600006 .026229859 .29499818 .014251709 .2579956 .014251709 .20498657 .014251709 .116989139 .0572052 .116989139 .21801758 .116989139 .38093568 .19898987 .42323304 .2519989 .42323304 .26098634 .42323304 .32398988 .42222596 .35899354 .38594056 .31799317 .38293458 .31199647 .3529358 .31199647 .3399353 .31199647 .31393434 .32998658 .2939453 .35798646 .2939453 .38398744 .2939453 .4039917 .3109436 .4039917 .34094239 .4039917 .40911866 .32798768 .4482422 .25099183 .4482422 .12599182 .4482422 .033996583 .3399353 .033996583 .21601868 .033996583 .08816528 .1329956-.0107421879 .24899292-.0107421879 .3829956-.0107421879 .4149933 .10914612 .4149933 .119140628Z"/>
<path id="font_1_105" d="M.33198548 .12385559V.18066406H.30699159V.12585449C.30699159 .052108766 .2769928 .014251709 .23999024 .014251709 .17298889 .014251709 .17298889 .10491943 .17298889 .12187195V.3996582H.31599427V.43066407H.17298889V.6142578H.147995C.14698792 .5324249 .116989139 .42565919 .018997193 .42166139V.3996582H.10398865V.12408447C.10398865 .0012512207 .19699097-.0107421879 .23298645-.0107421879 .3039856-.0107421879 .33198548 .060180665 .33198548 .12408447V.12385559Z"/>
<path id="font_1_118" d="M.5079956 .3996582V.43066407C.4850006 .4286499 .45599366 .42765809 .43299867 .42765809L.34599305 .43066407V.3996582C.3769989 .39866639 .3929901 .3816681 .3929901 .35668946 .3929901 .34669496 .3919983 .34469605 .3869934 .33270265L.28599549 .08685303 .1749878 .35568238C.17098999 .36567689 .16899109 .36967469 .16899109 .3736725 .16899109 .3996582 .20599365 .3996582 .22499085 .3996582V.43066407L.115997318 .42765809C.08898926 .42765809 .04899597 .4286499 .018997193 .43066407V.3996582C.066986087 .3996582 .085998538 .3996582 .099990848 .36468507L.25-.000091552738 .22499085-.059066774C.20298767-.11407471 .1749878-.18309021 .11099243-.18309021 .10598755-.18309021 .08299255-.18309021 .06399536-.16503906 .09498596-.16104126 .102996829-.13905335 .102996829-.123046878 .102996829-.0970459 .083999637-.08103943 .06098938-.08103943 .040985109-.08103943 .018997193-.09403992 .018997193-.124053958 .018997193-.16905213 .06098938-.20507813 .11099243-.20507813 .17399597-.20507813 .21499634-.14804077 .23899842-.091049198L.4149933 .33569337C.44099427 .39865113 .49198915 .3996582 .5079956 .3996582Z"/>
<path id="font_1_102" d="M.44299317 .7299957C.44299317 .7409973 .43399049 .75 .4229889 .75 .40899659 .75 .40499879 .73999026 .4019928 .7299957L.06098938-.21200562C.055999757-.2250061 .055999757-.23001099 .055999757-.23001099 .055999757-.24101258 .06498718-.25 .07598877-.25 .08999634-.25 .09399414-.2400055 .09700012-.23001099L.43798829 .71199038C.44299317 .72499087 .44299317 .7299957 .44299317 .7299957Z"/>
<path id="font_2_111" d="M.84199526 .63853457V.6855469L.72898867 .6825409C.68899539 .6825409 .6369934 .6825409 .59799197 .6855469V.63853457C.6069946 .63853457 .6859894 .63853457 .6859894 .62654116 .6859894 .6225586 .68299868 .6175537 .6819916 .614563L.47999574 .16001892 .2669983 .63853457H.36099244V.6855469C.32299806 .6825409 .22698975 .6825409 .18399048 .6825409 .14498902 .6825409 .06098938 .6825409 .025985718 .6855469V.63853457H.117996219L.3939972 .018157959C.4019928 .00016784668 .4059906-.0078125 .43399049-.0078125 .44999696-.0078125 .46299745-.0078125 .47399903 .016159058L.73999026 .6165619C.74598696 .6295471 .75 .63853457 .82299807 .63853457H.84199526Z"/>
<path id="font_2_50" d="M.49398805 .11706543C.49398805 .13504029 .47499085 .13504029 .46998597 .13504029 .45298768 .13504029 .45098878 .13005066 .44499208 .11405945 .42399598 .066101077 .36698915 .03413391 .3019867 .03413391 .16099549 .03413391 .1599884 .16700745 .1599884 .2179718H.46199037C.48399354 .2179718 .49398805 .2179718 .49398805 .2449646 .49398805 .27598573 .48799134 .34906007 .43798829 .3991089 .40098573 .43511964 .34799195 .453125 .2789917 .453125 .11898804 .453125 .03199768 .35005189 .03199768 .22497559 .03199768 .09107971 .13198853-.005859375 .29299928-.005859375 .45098878-.005859375 .49398805 .10006714 .49398805 .11706543M.39898683 .25097657H.1599884C.1619873 .29000855 .16299439 .3320465 .18399048 .36506654 .20999146 .4051056 .25 .41711427 .2789917 .41711427 .3959961 .41711427 .397995 .28599549 .39898683 .25097657Z"/>
<path id="font_2_72" d="M.29299928 0V.04699707H.22399903V.69433596L.04699707 .6855469V.63853457C.10899353 .63853457 .115997318 .63853457 .115997318 .5995636V.04699707H.04699707V0L.16999817 .0029907227 .29299928 0Z"/>
<path id="font_2_81" d="M.5419922 .21812439C.5419922 .35212709 .44999696 .453125 .2869873 .453125 .12298584 .453125 .03199768 .35112 .03199768 .21812439 .03199768 .09413147 .11999512-.005859375 .2869873-.005859375 .45498658-.005859375 .5419922 .09512329 .5419922 .21812439M.4139862 .22912598C.4139862 .14213562 .4139862 .03413391 .2869873 .03413391 .1599884 .03413391 .1599884 .14213562 .1599884 .22912598 .1599884 .27412416 .1599884 .32511903 .1769867 .3591156 .19599915 .39611817 .23799134 .41711427 .2869873 .41711427 .32899476 .41711427 .37098695 .40112306 .3929901 .36611939 .4139862 .3321228 .4139862 .27713014 .4139862 .22912598Z"/>
<path id="font_2_43" d="M.47799684 .117126468C.47799684 .13113404 .46398927 .13113404 .45399476 .13113404 .43598939 .13113404 .43499757 .12913513 .42999269 .11613464 .4039917 .053131105 .35598756 .03413391 .30499269 .03413391 .1659851 .03413391 .1659851 .18112183 .1659851 .22712708 .1659851 .28312684 .1659851 .41311646 .29499818 .41311646 .32998658 .41311646 .34700013 .41011048 .3600006 .40711976 .34199525 .39111329 .33999635 .3701172 .33999635 .3611145 .33999635 .3171234 .375 .29811097 .4019928 .29811097 .43299867 .29811097 .46499635 .3191223 .46499635 .3611145 .46499635 .44711305 .34899903 .453125 .29100038 .453125 .11199951 .45314027 .037994386 .33813478 .037994386 .22213745 .037994386 .08912659 .13198853-.005859375 .28599549-.005859375 .44799806-.005859375 .47799684 .11013794 .47799684 .117126468Z"/>
<path id="font_2_66" d="M.28599549 0V.04699707H.22399903V.4501953L.049987794 .4423828V.39537049C.10899353 .39537049 .115997318 .39537049 .115997318 .3563385V.04699707H.04699707V0L.16899109 .0029907227 .28599549 0M.23799134 .60728457C.23799134 .6502838 .20298767 .6852875 .1599884 .6852875 .116989139 .6852875 .08198547 .6502838 .08198547 .60728457 .08198547 .5642853 .116989139 .5292969 .1599884 .5292969 .20298767 .5292969 .23799134 .5642853 .23799134 .60728457Z"/>
<path id="font_2_105" d="M.38198854 .124176029V.17721558H.33499146V.12619019C.33499146 .058151246 .30299378 .03413391 .2749939 .03413391 .21699524 .03413391 .21699524 .09817505 .21699524 .1211853V.3973236H.36299134V.44433595H.21699524V.6357422H.16999817C.16899109 .53552249 .11999512 .43632508 .020996094 .43333436V.3973236H.102996829V.123184207C.102996829 .01612854 .18998719-.005859375 .26098634-.005859375 .33699037-.005859375 .38198854 .05114746 .38198854 .124176029Z"/>
<path id="font_2_118" d="M.5799866 .3973236V.44433595C.55599978 .44232179 .526001 .44132997 .5009918 .44132997L.4099884 .44433595V.3973236C.4099884 .3973236 .45700074 .3973236 .45700074 .3853302L.45199586 .37332154 .33699037 .12713623 .20999146 .3973236H.2639923V.44433595L.13999939 .44132997 .025985718 .44433595V.3973236H.08999634L.2769928 .000045776369 .2539978-.04798889C.23199463-.09602356 .19999695-.1640625 .1289978-.1640625 .114990238-.1640625 .11299133-.16307068 .10499573-.1600647 .11399841-.1560669 .13699341-.14205933 .13699341-.10702515 .13699341-.07400513 .11299133-.049987794 .07899475-.049987794 .050994874-.049987794 .021987915-.069000247 .021987915-.10803223 .021987915-.15907288 .068984989-.20007324 .1289978-.20007324 .20599365-.20007324 .2639923-.13804627 .29100038-.08100891L.5059967 .37631227C.5130005 .39031983 .5159912 .3973236 .5799866 .3973236Z"/>
<path id="font_2_64" d="M.31799317 .17382813V.27082826H.0129852299V.17382813H.31799317Z"/>
<path id="font_2_104" d="M.7569885 .43385316 .73599246 .6748047H.06298828L.041992189 .43385316H.08898926C.09799194 .5468292 .10798645 .62779238 .2519989 .62779238H.32899476V.04699707H.17599488V0C.22999573 .0029907227 .34098817 .0029907227 .3999939 .0029907227 .45899964 .0029907227 .56999209 .0029907227 .6239929 0V.04699707H.47099305V.62779238H.5469971C.6899872 .62779238 .69999697 .54782107 .70999148 .43385316H.7569885Z"/>
<path id="font_2_75" d="M.93499758 0V.04699707H.8659973V.30613709C.8659973 .40919496 .8149872 .4501953 .71199038 .4501953 .62098696 .4501953 .56900027 .40019227 .54299929 .3541565 .522995 .44718934 .43099977 .4501953 .3929901 .4501953 .30599977 .4501953 .24899292 .40518189 .21699524 .3421631V.4501953L.04499817 .4423828V.39537049C.10699463 .39537049 .11399841 .39537049 .11399841 .3563385V.04699707H.04499817V0L.17098999 .0029907227 .29699708 0V.04699707H.22799683V.2562256C.22799683 .3653412 .31498719 .41436769 .3769989 .41436769 .41099549 .41436769 .43299867 .39437867 .43299867 .31729127V.04699707H.3639984V0L.48999024 .0029907227 .6159973 0V.04699707H.5469971V.2562256C.5469971 .3653412 .6339874 .41436769 .69599917 .41436769 .7299957 .41436769 .7519989 .39437867 .7519989 .31729127V.04699707H.68299868V0L.8089905 .0029907227 .93499758 0Z"/>
<path id="font_2_58" d="M.8450012 .22935486V.2763672C.80999758 .2733612 .72299197 .2733612 .6839905 .2733612 .6259918 .2733612 .5329895 .2733612 .47898866 .2763672V.22935486H.6230011V.1282959C.6230011 .109298709 .6230011 .08027649 .58399966 .057266237 .55799868 .042251588 .526001 .036254884 .49398805 .036254884 .4079895 .036254884 .32199098 .06526184 .272995 .12730408 .22999573 .18232727 .21699524 .25335694 .21699524 .3443451 .21699524 .4563141 .23699951 .5142975 .27398683 .5632782 .31399537 .613266 .3909912 .6502533 .4869995 .6502533 .59399417 .6502533 .68899539 .5742798 .71099856 .4473114 .71398928 .4283142 .71499636 .4263153 .73799136 .4263153 .7639923 .4263153 .7649994 .4283142 .7649994 .4543152V.6692505C.7649994 .68826296 .7649994 .6972656 .746994 .6972656 .73799136 .6972656 .73599246 .69525149 .7279968 .68826296L.6619873 .62927249C.58898928 .68725588 .5169983 .6972656 .46499635 .6972656 .21899414 .6972656 .06399536 .55029299 .06399536 .343338 .06399536 .14431763 .20899964-.0107421879 .46699525-.0107421879 .5-.0107421879 .6029968-.008743286 .6529999 .053253175 .6839905 .026245118 .74398806 .00024414063 .7509918 .00024414063 .7649994 .00024414063 .7649994 .013244629 .7649994 .028244019V.22935486H.8450012Z"/>
<path id="font_2_96" d="M.44198609 .36819459C.44198609 .42118836 .3880005 .4501953 .33599855 .4501953 .2659912 .4501953 .22599793 .40019227 .20298767 .33718873V.4501953L.036987306 .4423828V.39537049C.09899902 .39537049 .10598755 .39537049 .10598755 .3563385V.04699707H.036987306V0L.16299439 .0029907227C.20098877 .0029907227 .2649994 .0029907227 .30099488 0V.04699707H.21398926V.22218323C.21398926 .29226686 .23899842 .41436769 .33898927 .41436769 .33898927 .41436769 .31999208 .39736939 .31999208 .36834718 .31999208 .32730104 .35198976 .3072815 .3809967 .3072815 .4099884 .3072815 .44198609 .3283081 .44198609 .36834718V.36819459Z"/>
<path id="font_2_28" d="M.5529938 .023986817C.5529938 .04699707 .5399933 .04699707 .5269928 .04699707 .46598817 .04798889 .46598817 .06100464 .46598817 .083999637V.29907228C.46598817 .3881073 .394989 .453125 .24598694 .453125 .18899536 .453125 .066986087 .44911195 .066986087 .36109925 .066986087 .3170929 .101989749 .29808045 .1289978 .29808045 .1599884 .29808045 .19198609 .3190918 .19198609 .36109925 .19198609 .39111329 .17298889 .40811158 .16999817 .41011048 .19799805 .41612245 .22999573 .41711427 .24198914 .41711427 .31698609 .41711427 .35198976 .3751068 .35198976 .29907228V.26506043C.2809906 .2620697 .026992798 .25306703 .026992798 .10801697 .026992798 .012130737 .15098572-.005859375 .21998596-.005859375 .2999878-.005859375 .34700013 .035125734 .36898805 .07713318 .36898805 .04598999 .36898805 0 .47299195 0H.5209961C.54100039 0 .5529938 0 .5529938 .023986817M.35198976 .13899231C.35198976 .043151857 .2599945 .030136109 .23498535 .030136109 .18399048 .030136109 .14399719 .06517029 .14399719 .10922241 .14399719 .21734619 .3019867 .23136902 .35198976 .234375V.13899231Z"/>
<path id="font_2_84" d="M.59999087 .22319031C.59999087 .3561859 .5089874 .4501953 .36499024 .4501953 .2899933 .4501953 .23699951 .41918946 .21398926 .40118409V.4501953L.036987306 .4423828V.39537049C.09899902 .39537049 .10598755 .39537049 .10598755 .3573761V-.14648438H.036987306V-.1934967L.16299439-.19049073 .2889862-.1934967V-.14648438H.21998596V.03945923C.2630005 .004135132 .30699159-.005859375 .34799195-.005859375 .49798585-.005859375 .59999087 .08413696 .59999087 .22312927V.22319031M.47200013 .22312927C.47200013 .08213806 .4019928 .030136109 .33699037 .030136109 .32299806 .030136109 .27598573 .030136109 .23098755 .08413696 .21998596 .09713745 .21998596 .09812927 .21998596 .117126468V.32913209C.21998596 .34814454 .22099304 .3491516 .23498535 .36314393 .2749939 .4041443 .32699586 .41015626 .34899903 .41015626 .41600038 .41015626 .47200013 .3491516 .47200013 .22314453V.22312927Z"/>
<path id="font_2_63" d="M.61499026 0V.04699707H.54599V.30613709C.54599 .41119386 .49198915 .4501953 .3919983 .4501953 .29599 .4501953 .24499512 .3921814 .22299195 .3541565H.22200012V.69433596L.04499817 .6855469V.63853457C.10699463 .63853457 .11399841 .63853457 .11399841 .5996704V.04699707H.04499817V0L.17098999 .0029907227 .29699708 0V.04699707H.22799683V.25610353C.22799683 .36515809 .31399537 .41418458 .3769989 .41418458 .41099549 .41418458 .43199159 .39317323 .43199159 .31713868V.04699707H.36299134V0L.4889984 .0029907227 .61499026 0Z"/>
<path id="font_2_55" d="M.43699647 .6132202C.43699647 .65519717 .40098573 .7001953 .32299806 .7001953 .22499085 .7001953 .116989139 .65818789 .116989139 .54525759V.44433595H.041992189V.3973236H.116989139V.04699707H.04798889V0L.17399597 .0029907227C.21199036 .0029907227 .27598573 .0029907227 .31199647 0V.04699707H.22499085V.3973236H.33999635V.44433595H.21899414V.54525759C.21899414 .65519717 .29499818 .6641846 .31999208 .6641846 .32499696 .6641846 .32998658 .6641846 .33699037 .66218569 .32199098 .65119937 .31399537 .63220217 .31399537 .6132202 .31399537 .57025149 .34899903 .5512543 .375 .5512543 .40499879 .5512543 .43699647 .57225039 .43699647 .6132202Z"/>
<path id="font_2_71" d="M.6429901 .27381898H.59599307C.58799746 .2048645 .57099917 .04699707 .3919983 .04699707H.2889862V.63853457H.42399598V.6855469C.37998963 .6825409 .2709961 .6825409 .22200012 .6825409 .17799378 .6825409 .07699585 .6825409 .038986207 .6855469V.63853457H.14698792V.04699707H.038986207V0H.6119995L.6429901 .27381898Z"/>
<path id="font_2_77" d="M.61499026 0V.04699707H.54599V.30613709C.54599 .41119386 .49198915 .4501953 .3919983 .4501953 .29599 .4501953 .24299622 .39318849 .21699524 .3421631V.4501953L.04499817 .4423828V.39537049C.10699463 .39537049 .11399841 .39537049 .11399841 .3563385V.04699707H.04499817V0L.17098999 .0029907227 .29699708 0V.04699707H.22799683V.2562256C.22799683 .3653412 .31399537 .41436769 .3769989 .41436769 .41099549 .41436769 .43199159 .39337159 .43199159 .31729127V.04699707H.36299134V0L.4889984 .0029907227 .61499026 0Z"/>
<path id="font_2_74" d="M1.0509949 0V.04699707H.94299319V.63853457H1.0509949V.6855469H.8299866C.80799868 .6855469 .7969971 .6855469 .7859955 .6605377L.54599 .13192749 .30599977 .6605377C.29499818 .6855469 .28399659 .6855469 .2619934 .6855469H.039993287V.63853457H.147995V.07597351C.147995 .05392456 .14698792 .05291748 .11898804 .049926759 .09498596 .04699707 .09298706 .04699707 .06498718 .04699707H.039993287V0C.07798767 .0029296876 .1349945 .0029296876 .17399597 .0029296876 .21598816 .0029907227 .2679901 .0029907227 .30899049 0V.04699707H.28399659C.2659912 .046920778 .24899292 .047927858 .23098755 .049926759 .20199585 .05291748 .20098877 .05392456 .20098877 .075927738V.6259308H.20199585L.47399903 .024917603C.48298646 .004989624 .49499513 0 .5059967 0 .526001 0 .5339966 .01499939 .5379944 .023986817L.81700137 .63853457H.81799319V.04699707H.70999148V0C.74598696 .0029296876 .83898928 .0029296876 .8799896 .0029296876 .92099 .0029907227 1.0149994 .0029907227 1.0509949 0Z"/>
<path id="font_3_3" d="M.34999085 .056259157C.36099244 .015258789 .3959961-.0107421879 .43899537-.0107421879 .47399903-.0107421879 .49699403 .012252808 .5130005 .044265748 .5299988 .08027649 .54299929 .14129639 .54299929 .14329529 .54299929 .1532898 .5339966 .1532898 .5309906 .1532898 .5209961 .1532898 .519989 .14929199 .5169983 .13528443 .5029907 .07926941 .48399354 .011245728 .44198609 .011245728 .42099 .011245728 .41099549 .024261475 .41099549 .057266237 .41099549 .07926941 .4229889 .12628174 .43099977 .16130066L.45899964 .2693329C.46199037 .28433229 .47200013 .32234193 .47599793 .3373413 .48098756 .36035157 .4909973 .3983612 .4909973 .40437318 .4909973 .42237855 .47698976 .43138124 .46199037 .43138124 .45700074 .43138124 .43099977 .43037416 .4229889 .3963623 .4039917 .323349 .3600006 .14828491 .34799195 .09527588 .34700013 .091278079 .30699159 .011245728 .23399353 .011245728 .18199158 .011245728 .17199707 .056259157 .17199707 .09327698 .17199707 .14929199 .19999695 .22831726 .22599793 .29733277 .23799134 .3273468 .24299622 .34135438 .24299622 .36035157 .24299622 .405365 .21099854 .4423828 .16099549 .4423828 .06599426 .4423828 .0289917 .29733277 .0289917 .28833009 .0289917 .27833558 .038986207 .27833558 .040985109 .27833558 .050994874 .27833558 .051986696 .28033448 .056991579 .29634095 .08198547 .38336183 .11999512 .42037965 .1579895 .42037965 .16699219 .42037965 .18299866 .41937257 .18299866 .38735963 .18299866 .36335755 .17199707 .3343506 .1659851 .31933595 .1289978 .2203064 .10798645 .15829468 .10798645 .10928345 .10798645 .014251709 .1769867-.0107421879 .23098755-.0107421879 .29699708-.0107421879 .33299256 .03425598 .34999085 .056259157Z"/>
<path id="font_3_4" d="M.46798707 .37236024C.46798707 .42637635 .44198609 .4423828 .42399598 .4423828 .39898683 .4423828 .375 .41636659 .375 .3943634 .375 .38136292 .37998963 .3753662 .3909912 .36434938 .4119873 .3443451 .4249878 .31834413 .4249878 .28233338 .4249878 .24032593 .3639984 .011245728 .24699402 .011245728 .19599915 .011245728 .17298889 .04626465 .17298889 .09828186 .17298889 .15429688 .19999695 .22731018 .23098755 .31033326 .23799134 .3273468 .24299622 .34135438 .24299622 .36035157 .24299622 .405365 .21099854 .4423828 .16099549 .4423828 .066986087 .4423828 .0289917 .29733277 .0289917 .28833009 .0289917 .27833558 .038986207 .27833558 .040985109 .27833558 .050994874 .27833558 .051986696 .28033448 .056991579 .29634095 .085998538 .39736939 .1289978 .42037965 .1579895 .42037965 .1659851 .42037965 .18299866 .42037965 .18299866 .3883667 .18299866 .36335755 .17298889 .3363495 .1659851 .31834413 .12199402 .20230103 .10899353 .15629578 .10899353 .11328125 .10899353 .0052490236 .19699097-.0107421879 .24299622-.0107421879 .41099549-.0107421879 .46798707 .32034303 .46798707 .37236024Z"/>
<path id="font_4_2" d="M.68699648 .32714845C.70199587 .32714845 .72099307 .32714845 .72099307 .34713746 .72099307 .36714173 .70199587 .36714173 .6879883 .36714173H.08898926C.07499695 .36714173 .055999757 .36714173 .055999757 .34713746 .055999757 .32714845 .07499695 .32714845 .08999634 .32714845H.68699648M.6879883 .13284302C.70199587 .13284302 .72099307 .13284302 .72099307 .15284729 .72099307 .17285156 .70199587 .17285156 .68699648 .17285156H.08999634C.07499695 .17285156 .055999757 .17285156 .055999757 .15284729 .055999757 .13284302 .07499695 .13284302 .08898926 .13284302H.6879883Z"/>
<path id="font_4_1" d="M.40899659 .23046875H.6879883C.70199587 .23046875 .72099307 .23046875 .72099307 .25045777 .72099307 .27046205 .70199587 .27046205 .6879883 .27046205H.40899659V.5500183C.40899659 .56399539 .40899659 .5830078 .3889923 .5830078 .36898805 .5830078 .36898805 .56399539 .36898805 .5500183V.27046205H.08898926C.07499695 .27046205 .055999757 .27046205 .055999757 .25045777 .055999757 .23046875 .07499695 .23046875 .08898926 .23046875H.36898805V-.05000305C.36898805-.06401062 .36898805-.08300781 .3889923-.08300781 .40899659-.08300781 .40899659-.06401062 .40899659-.05000305V.23046875Z"/>
<path id="font_3_1" d="M.37298585 .37835694C.35499574 .41537477 .32598878 .4423828 .2809906 .4423828 .1639862 .4423828 .039993287 .29533387 .039993287 .14929199 .039993287 .055267335 .09498596-.0107421879 .17298889-.0107421879 .19299317-.0107421879 .24299622-.0067443849 .30299378 .06427002 .31098939 .022247315 .34599305-.0107421879 .3939972-.0107421879 .42900086-.0107421879 .45199586 .012252808 .46798707 .044265748 .4850006 .08027649 .49798585 .14129639 .49798585 .14329529 .49798585 .1532898 .4889984 .1532898 .48599244 .1532898 .47599793 .1532898 .47499085 .14929199 .47200013 .13528443 .45498658 .07026672 .43699647 .011245728 .3959961 .011245728 .36898805 .011245728 .3659973 .037261964 .3659973 .057266237 .3659973 .07926941 .36799623 .08728027 .3789978 .13128662 .3899994 .17329407 .3919983 .18330384 .40098573 .22131348L.43699647 .36135865C.44400025 .38935853 .44400025 .39135743 .44400025 .39537049 .44400025 .41236878 .43199159 .42237855 .4149933 .42237855 .3909912 .42237855 .37599183 .4003601 .37298585 .37835694M.30799867 .119277957C.30299378 .10127258 .30299378 .09927368 .28799439 .08227539 .24398804 .027252198 .20298767 .011245728 .1749878 .011245728 .125 .011245728 .11099243 .06626892 .11099243 .105285648 .11099243 .1552887 .14299011 .27833558 .1659851 .32434083 .19699097 .38336183 .24198914 .42037965 .28199769 .42037965 .34700013 .42037965 .36099244 .3383484 .36099244 .33235169 .36099244 .32633973 .35899354 .32034303 .35798646 .31533814L.30799867 .119277957Z"/>
<path id="font_3_2" d="M.20599365 .3996582H.2999878C.31999208 .3996582 .32998658 .3996582 .32998658 .41966249 .32998658 .43066407 .31999208 .43066407 .3019867 .43066407H.21398926C.25 .5724945 .25498963 .59246829 .25498963 .59846499 .25498963 .61546328 .24299622 .62545779 .22599793 .62545779 .22299195 .62545779 .19499207 .62446597 .18598938 .58947756L.14698792 .43066407H.052993776C.032989503 .43066407 .022994996 .43066407 .022994996 .4116516 .022994996 .3996582 .0309906 .3996582 .050994874 .3996582H.13899231C.066986087 .11608887 .06298828 .099121097 .06298828 .08114624 .06298828 .02722168 .100997928-.0107421879 .15499878-.0107421879 .25698854-.0107421879 .31399537 .13505554 .31399537 .14305115 .31399537 .1530304 .30599977 .1530304 .3019867 .1530304 .29299928 .1530304 .2919922 .15003968 .2869873 .13905335 .24398804 .035217287 .19099427 .011245728 .15699768 .011245728 .13598633 .011245728 .12599182 .024230957 .12599182 .057174684 .12599182 .08114624 .12799073 .088134769 .13198853 .10510254L.20599365 .3996582Z"/>
<path id="font_5_1" d="M.5159912 .31925965C.5159912 .42918397 .5029907 .50813296 .45700074 .5780945 .42599488 .62405398 .3639984 .6640625 .28399659 .6640625 .051986696 .6640625 .051986696 .39120484 .051986696 .31925965 .051986696 .2472992 .051986696-.01953125 .28399659-.01953125 .5159912-.01953125 .5159912 .2472992 .5159912 .31925965M.28399659 .008468628C.23799134 .008468628 .1769867 .035446168 .15699768 .117385867 .14299011 .17634583 .14299011 .25830079 .14299011 .33224488 .14299011 .40519715 .14299011 .4811554 .1579895 .53611758 .1789856 .6150665 .24299622 .63604739 .28399659 .63604739 .33799745 .63604739 .3899994 .6030731 .4079895 .545105 .42399598 .4911499 .4249878 .41918946 .4249878 .33224488 .4249878 .25830079 .4249878 .18434143 .4119873 .12138367 .3919983 .030441285 .32398988 .008468628 .28399659 .008468628Z"/>
</defs>
<path transform="matrix(1.00003,0,0,-1,68.36061,140.966)" stroke-width=".3985" stroke-linecap="butt" stroke-miterlimit="10" stroke-linejoin="miter" fill="none" stroke="#7f807f" d="M0 0H170.08086M0 14.17339H170.08086M0 28.34679H170.08086M0 42.52019H170.08086M0 56.69359H170.08086M0 70.86697H170.08086M0 85.04037H170.08086M0 99.21378H170.08086M0 113.38718H170.08086M0 0V113.38724M14.17339 0V113.38724M28.34679 0V113.38724M42.52019 0V113.38724M56.69359 0V113.38724M70.86697 0V113.38724M85.04037 0V113.38724M99.21378 0V113.38724M113.38718 0V113.38724M127.56056 0V113.38724M141.73397 0V113.38724M155.90737 0V113.38724M170.08077 0V113.38724M170.08086 113.38724"/>
<path transform="matrix(1.00003,0,0,-1,68.36061,140.966)" stroke-width=".79701" stroke-linecap="butt" stroke-miterlimit="10" stroke-linejoin="miter" fill="none" stroke="#000000" d="M0 0H183.54689"/>
<path transform="matrix(1.00003,0,0,-1,251.91301,140.966)" stroke-width=".6376" stroke-linecap="round" stroke-linejoin="round" fill="none" stroke="#000000" d="M-1.55415 2.0722C-1.42464 1.29512 0 .1295 .38852 0 0-.1295-1.42464-1.29512-1.55415-2.0722"/>
<use data-text="T" xlink:href="#font_1_104" transform="matrix(9.962899,0,0,-9.9626,233.78058,152.157)"/>
<use data-text="i" xlink:href="#font_1_66" transform="matrix(9.962899,0,0,-9.9626,240.97379,152.157)"/>
<use data-text="m" xlink:href="#font_1_75" transform="matrix(9.962899,0,0,-9.9626,243.74349,152.157)"/>
<use data-text="e" xlink:href="#font_1_50" transform="matrix(9.962899,0,0,-9.9626,252.04257,152.157)"/>
<use data-text="(" xlink:href="#font_1_85" transform="matrix(9.962899,0,0,-9.9626,259.78376,152.157)"/>
<use data-text="s" xlink:href="#font_1_98" transform="matrix(9.962899,0,0,-9.9626,263.65934,152.157)"/>
<use data-text=")" xlink:href="#font_1_86" transform="matrix(9.962899,0,0,-9.9626,267.58473,152.157)"/>
<path transform="matrix(1.00003,0,0,-1,68.36061,140.966)" stroke-width=".79701" stroke-linecap="butt" stroke-miterlimit="10" stroke-linejoin="miter" fill="none" stroke="#000000" d="M0 0V126.85327"/>
<path transform="matrix(0,-1,-1.00003,-0,68.36061,14.112732)" stroke-width=".6376" stroke-linecap="round" stroke-linejoin="round" fill="none" stroke="#000000" d="M-1.55415 2.0722C-1.42464 1.29512 0 .1295 .38852 0 0-.1295-1.42464-1.29512-1.55415-2.0722"/>
<use data-text="V" xlink:href="#font_1_111" transform="matrix(9.962899,0,0,-9.9626,1.2165985,15.896004)"/>
<use data-text="e" xlink:href="#font_1_50" transform="matrix(9.962899,0,0,-9.9626,7.871811,15.896004)"/>
<use data-text="l" xlink:href="#font_1_72" transform="matrix(9.962899,0,0,-9.9626,12.295349,15.896004)"/>
<use data-text="o" xlink:href="#font_1_81" transform="matrix(9.962899,0,0,-9.9626,15.065033,15.896004)"/>
<use data-text="c" xlink:href="#font_1_43" transform="matrix(9.962899,0,0,-9.9626,20.31549,15.896004)"/>
<use data-text="i" xlink:href="#font_1_66" transform="matrix(9.962899,0,0,-9.9626,24.739014,15.896004)"/>
<use data-text="t" xlink:href="#font_1_105" transform="matrix(9.962899,0,0,-9.9626,27.508713,15.896004)"/>
<use data-text="y" xlink:href="#font_1_118" transform="matrix(9.962899,0,0,-9.9626,31.11528,15.896004)"/>
<use data-text="(" xlink:href="#font_1_85" transform="matrix(9.962899,0,0,-9.9626,39.68338,15.896004)"/>
<use data-text="m" xlink:href="#font_1_75" transform="matrix(9.962899,0,0,-9.9626,43.558946,15.896004)"/>
<use data-text="/" xlink:href="#font_1_102" transform="matrix(9.962899,0,0,-9.9626,51.858049,15.896004)"/>
<use data-text="s" xlink:href="#font_1_98" transform="matrix(9.962899,0,0,-9.9626,56.839479,15.896004)"/>
<use data-text=")" xlink:href="#font_1_86" transform="matrix(9.962899,0,0,-9.9626,60.764863,15.896004)"/>
<use data-text="V" xlink:href="#font_2_111" transform="matrix(9.962899,0,0,-9.9626,53.42916,7.8930056)"/>
<use data-text="e" xlink:href="#font_2_50" transform="matrix(9.962899,0,0,-9.9626,61.14045,7.8930056)"/>
<use data-text="l" xlink:href="#font_2_72" transform="matrix(9.962899,0,0,-9.9626,66.39089,7.8930056)"/>
<use data-text="o" xlink:href="#font_2_81" transform="matrix(9.962899,0,0,-9.9626,69.56907,7.8930056)"/>
<use data-text="c" xlink:href="#font_2_43" transform="matrix(9.962899,0,0,-9.9626,75.60659,7.8930056)"/>
<use data-text="i" xlink:href="#font_2_66" transform="matrix(9.962899,0,0,-9.9626,80.697628,7.8930056)"/>
<use data-text="t" xlink:href="#font_2_105" transform="matrix(9.962899,0,0,-9.9626,83.875789,7.8930056)"/>
<use data-text="y" xlink:href="#font_2_118" transform="matrix(9.962899,0,0,-9.9626,88.02035,7.8930056)"/>
<use data-text="-" xlink:href="#font_2_64" transform="matrix(9.962899,0,0,-9.9626,94.06783,7.8930056)"/>
<use data-text="T" xlink:href="#font_2_104" transform="matrix(9.962899,0,0,-9.9626,97.88361,7.8930056)"/>
<use data-text="i" xlink:href="#font_2_66" transform="matrix(9.962899,0,0,-9.9626,105.853939,7.8930056)"/>
<use data-text="m" xlink:href="#font_2_75" transform="matrix(9.962899,0,0,-9.9626,109.0321,7.8930056)"/>
<use data-text="e" xlink:href="#font_2_50" transform="matrix(9.962899,0,0,-9.9626,118.57656,7.8930056)"/>
<use data-text="G" xlink:href="#font_2_58" transform="matrix(9.962899,0,0,-9.9626,127.632839,7.8930056)"/>
<use data-text="r" xlink:href="#font_2_96" transform="matrix(9.962899,0,0,-9.9626,136.63932,7.8930056)"/>
<use data-text="a" xlink:href="#font_2_28" transform="matrix(9.962899,0,0,-9.9626,141.36173,7.8930056)"/>
<use data-text="p" xlink:href="#font_2_84" transform="matrix(9.962899,0,0,-9.9626,146.93097,7.8930056)"/>
<use data-text="h" xlink:href="#font_2_63" transform="matrix(9.962899,0,0,-9.9626,153.29727,7.8930056)"/>
<use data-text="f" xlink:href="#font_2_55" transform="matrix(9.962899,0,0,-9.9626,163.47934,7.8930056)"/>
<use data-text="o" xlink:href="#font_2_81" transform="matrix(9.962899,0,0,-9.9626,166.97635,7.8930056)"/>
<use data-text="r" xlink:href="#font_2_96" transform="matrix(9.962899,0,0,-9.9626,172.70499,7.8930056)"/>
<use data-text="L" xlink:href="#font_2_71" transform="matrix(9.962899,0,0,-9.9626,181.2432,7.8930056)"/>
<use data-text="i" xlink:href="#font_2_66" transform="matrix(9.962899,0,0,-9.9626,188.13755,7.8930056)"/>
<use data-text="n" xlink:href="#font_2_77" transform="matrix(9.962899,0,0,-9.9626,191.3157,7.8930056)"/>
<use data-text="e" xlink:href="#font_2_50" transform="matrix(9.962899,0,0,-9.9626,197.68198,7.8930056)"/>
<use data-text="a" xlink:href="#font_2_28" transform="matrix(9.962899,0,0,-9.9626,202.93244,7.8930056)"/>
<use data-text="r" xlink:href="#font_2_96" transform="matrix(9.962899,0,0,-9.9626,208.50171,7.8930056)"/>
<use data-text="M" xlink:href="#font_2_74" transform="matrix(9.962899,0,0,-9.9626,217.03989,7.8930056)"/>
<use data-text="o" xlink:href="#font_2_81" transform="matrix(9.962899,0,0,-9.9626,227.91938,7.8930056)"/>
<use data-text="t" xlink:href="#font_2_105" transform="matrix(9.962899,0,0,-9.9626,233.64801,7.8930056)"/>
<use data-text="i" xlink:href="#font_2_66" transform="matrix(9.962899,0,0,-9.9626,238.10144,7.8930056)"/>
<use data-text="o" xlink:href="#font_2_81" transform="matrix(9.962899,0,0,-9.9626,241.2796,7.8930056)"/>
<use data-text="n" xlink:href="#font_2_77" transform="matrix(9.962899,0,0,-9.9626,247.00827,7.8930056)"/>
<path transform="matrix(1.00003,0,0,-1,68.36061,140.966)" stroke-width=".79701" stroke-linecap="butt" stroke-miterlimit="10" stroke-linejoin="miter" fill="none" stroke="#0000ff" d="M28.3468 28.3468 141.73404 85.04042"/>
<use data-text="u" xlink:href="#font_3_3" transform="matrix(9.962899,0,0,-9.9626,87.48518,114.76401)"/>
<use data-text="v" xlink:href="#font_3_4" transform="matrix(9.962899,0,0,-9.9626,213.61898,58.07)"/>
<use data-text="v" xlink:href="#font_3_4" transform="matrix(9.962899,0,0,-9.9626,130.79549,79.922008)" fill="#0000ff"/>
<use data-text="=" xlink:href="#font_4_2" transform="matrix(9.962899,0,0,-9.9626,138.74973,79.922008)" fill="#0000ff"/>
<use data-text="u" xlink:href="#font_3_3" transform="matrix(9.962899,0,0,-9.9626,149.26604,79.922008)" fill="#0000ff"/>
<use data-text="+" xlink:href="#font_4_1" transform="matrix(9.962899,0,0,-9.9626,157.18328,79.922008)" fill="#0000ff"/>
<use data-text="a" xlink:href="#font_3_1" transform="matrix(9.962899,0,0,-9.9626,167.14656,79.922008)" fill="#0000ff"/>
<use data-text="t" xlink:href="#font_3_2" transform="matrix(9.962899,0,0,-9.9626,172.40699,79.922008)" fill="#0000ff"/>
<path transform="matrix(1.00003,0,0,-1,68.36061,140.966)" stroke-width=".3985" stroke-linecap="butt" stroke-dasharray="2.98883,2.98883" stroke-miterlimit="10" stroke-linejoin="miter" fill="none" stroke="#000000" d="M141.73404 85.04042V0"/>
<use data-text="t" xlink:href="#font_3_2" transform="matrix(9.962899,0,0,-9.9626,208.2998,150.614)"/>
<path transform="matrix(1.00003,0,0,-1,68.36061,140.966)" stroke-width=".3985" stroke-linecap="butt" stroke-dasharray="2.98883,2.98883" stroke-miterlimit="10" stroke-linejoin="miter" fill="none" stroke="#000000" d="M28.3468 28.3468V0"/>
<use data-text="t" xlink:href="#font_3_2" transform="matrix(9.962899,0,0,-9.9626,92.67434,150.614)"/>
<use data-text="0" xlink:href="#font_5_1" transform="matrix(6.9740097,0,0,-6.9738,96.27245,152.108)"/>
</svg>
