<svg xmlns="http://www.w3.org/2000/svg" xmlns:xlink="http://www.w3.org/1999/xlink" xmlns:inkscape="http://www.inkscape.org/namespaces/inkscape" version="1.1" width="262" height="333" viewBox="0 0 262 333">
<defs>
<path id="font_1_76" d="M.9069977 .6335449V.6855469L.7679901 .6826172 .6289978 .6855469V.6335449H.6569977C.68299868 .63360598 .68699648 .63360598 .70999148 .63061526 .73599246 .62760928 .7369995 .6266022 .7369995 .60661318V.206604L.31599427 .6716156C.30299378 .6845398 .3019867 .6855469 .2809906 .6855469H.04699707V.6335449H.15499878V.07896423C.15499878 .0579834 .1539917 .056991579 .12599182 .053985597 .11299133 .052993776 .083999637 .051986696 .07499695 .051986696H.04699707V0L.18598938 .0029296876 .32499696 0V.051986696H.29699708C.2709961 .05192566 .2669983 .05192566 .24398804 .05491638 .21798706 .057922365 .21699524 .058929445 .21699524 .07891846V.58792117L.7369995 .011917114C.7480011 0 .7529907 0 .7679901 0 .7979889 0 .798996 .009994507 .798996 .033996583V.6065674C.798996 .6275482 .7999878 .62854006 .8279877 .631546 .84098818 .63253787 .8699951 .6335449 .8789978 .6335449H.9069977Z"/>
<path id="font_1_109" d="M.6499939 .00015258789V.05215454C.59098818 .05215454 .58399966 .05215454 .58399966 .091033939V.45117188L.3959961 .443161V.39115907C.45498658 .39115907 .46199037 .39115907 .46199037 .35214234V.1620636C.46199037 .08604431 .40899659 .03515625 .32798768 .03515625 .24699402 .03515625 .24398804 .05809021 .24398804 .10903931V.45117188L.055999757 .443161V.39115907C.114990238 .39115907 .12199402 .39115907 .12199402 .35214234V.123046878C.12199402 .011154175 .21598816-.0068359377 .31399537-.0068359377 .34700013-.0068359377 .4139862-.0068359377 .46798707 .06303406V-.0068359377L.6499939 .00015258789Z"/>
<path id="font_1_75" d="M.98999026 0V.051986696H.923996V.3034973C.923996 .42315675 .8509979 .45117188 .7589874 .45117188 .6539917 .45117188 .598999 .39059449 .5779877 .35958863 .55400088 .4371643 .4869995 .45117188 .4189911 .45117188 .2979889 .45117188 .24398804 .3715973 .23199463 .34959413H.23098755V.45117188L.055999757 .44335938V.39135743C.114990238 .39135743 .12199402 .39135743 .12199402 .35231019V.051986696H.055999757V0C.10998535 .0029907227 .14498902 .0029907227 .18299866 .0029907227 .22200012 .0029907227 .2559967 .0029907227 .30999757 0V.051986696H.24398804V.25320436C.24398804 .36413575 .33999635 .40916444 .4039917 .40916444 .43899537 .40916444 .46199037 .39215089 .46199037 .31411744V.051986696H.3959961V0C.44999696 .0029907227 .4850006 .0029907227 .522995 .0029907227 .56199648 .0029907227 .59599307 .0029907227 .6499939 0V.051986696H.58399966V.25308229C.58399966 .36413575 .6799927 .40916444 .74398806 .40916444 .7789917 .40916444 .8019867 .39215089 .8019867 .31411744V.051986696H.73599246V0C.7899933 .0029907227 .82499697 .0029907227 .86299136 .0029907227 .9019928 .0029907227 .9359894 .0029907227 .98999026 0Z"/>
<path id="font_1_35" d="M.6389923 .22215271C.6389923 .35516358 .54100039 .45117188 .38398744 .45117188 .30699159 .45117188 .25299073 .42216493 .22799683 .40516664V.69433596L.04598999 .6863251V.6343231C.10499573 .6343231 .11199951 .6343231 .11199951 .59529116V.00015258789H.16799927L.21398926 .055160524C.25898744 .012161255 .31098939-.0068359377 .36999513-.0068359377 .5389862-.0068359377 .6389923 .09315491 .6389923 .22215271M.5039978 .22515869C.5039978 .16215515 .5039978 .03515625 .36099244 .03515625 .2869873 .03515625 .24499512 .090164188 .23399353 .107162479V.344162C.2519989 .36915589 .30299378 .40916444 .37298585 .40916444 .5039978 .40916444 .5039978 .28715516 .5039978 .22515869Z"/>
<path id="font_1_50" d="M.526001 .11508179C.526001 .13604737 .5049896 .13604737 .49798585 .13604737 .48098756 .13604737 .47698976 .13404846 .46899415 .11706543 .43699647 .04714966 .35198976 .040161134 .32398988 .040161134 .17599488 .040161134 .17098999 .15603638 .16899109 .2119751H.49198915C.5130005 .2119751 .526001 .2119751 .526001 .2409668 .526001 .28399659 .5159912 .35003663 .46598817 .3990631 .4099884 .45507813 .31999208 .45507813 .29699708 .45507813 .11898804 .45507813 .033996583 .34402467 .033996583 .2259674 .033996583 .09609985 .13398743-.0068359377 .31199647-.0068359377 .48799134-.0068359377 .526001 .10108948 .526001 .11508179M.42799378 .25097657H.16899109C.16999817 .29100038 .17399597 .41307069 .2979889 .41307069 .42199708 .41307069 .4269867 .2899933 .42799378 .25097657Z"/>
<path id="font_1_96" d="M.47099305 .36416627C.47099305 .41915895 .4149933 .45117188 .35699464 .45117188 .27198792 .45117188 .23098755 .38116456 .21598816 .34317018L.21499634 .344162V.45117188L.04598999 .44335938V.39135743C.10499573 .39135743 .11199951 .39135743 .11199951 .35231019V.051986696H.04598999V0C.10398865 .0029907227 .11399841 .0029907227 .17399597 .0029907227L.30999757 0V.051986696H.22799683V.2141571C.22799683 .2932434 .25898744 .4063568 .35499574 .40934754 .35499574 .40916444 .33898927 .39216615 .33898927 .36416627 .33898927 .3241577 .36799623 .29815675 .40499879 .29815675 .44198609 .29815675 .47099305 .3251648 .47099305 .36416627Z"/>
<path id="font_1_81" d="M.5779877 .21810913C.5779877 .3440857 .4889984 .45507813 .30599977 .45507813 .12199402 .45507813 .033996583 .3430786 .033996583 .21810913 .033996583 .09913635 .12199402-.0068359377 .30599977-.0068359377 .49198915-.0068359377 .5779877 .10014343 .5779877 .21810913M.44299317 .2301178C.44299317 .14312744 .44299317 .040161134 .30599977 .040161134 .16899109 .040161134 .16899109 .14312744 .16899109 .2301178 .16899109 .312088 .16899109 .41307069 .30599977 .41307069 .44299317 .41307069 .44299317 .3110962 .44299317 .2301178Z"/>
<path id="font_1_55" d="M.46699525 .60920718C.46699525 .6551819 .4269867 .7011719 .34298707 .7011719 .24198914 .7011719 .125 .6601715 .125 .54125979V.44433595H.04598999V.39233399H.125V.051986696H.05899048V0C.116989139 .0029907227 .1269989 .0029907227 .18699646 .0029907227L.32299806 0V.051986696H.24099732V.39233399H.36299134V.44433595H.23498535V.5422516C.23498535 .59721377 .2579956 .6591797 .33999635 .6591797 .34298707 .6591797 .35299684 .6571808 .35299684 .6571808 .35299684 .6571808 .35299684 .6551819 .35099793 .653183 .33999635 .6409912 .33499146 .625 .33499146 .60899356 .33499146 .5649872 .36999513 .54299929 .40098573 .54299929 .43099977 .54299929 .46699525 .5649872 .46699525 .60899356V.60920718Z"/>
<path id="font_1_54" d="M.71699526 .4371338 .6839905 .6799164H.04699707V.6279297H.15499878V.051986696H.04699707V0C.084991458 .0029907227 .19198609 .0029907227 .23599243 .0029907227 .27999879 .0029907227 .4019928 .0029907227 .43899537 0V.051986696H.3039856V.31420899H.3600006C.45599366 .31420899 .46798707 .27416993 .46798707 .19911194H.5239868V.4810791H.46798707C.46798707 .40615846 .45599366 .36621095 .3600006 .36621095H.3039856V.6279297H.45700074C.6069946 .6279297 .6439972 .5669861 .6609955 .4371338H.71699526Z"/>
<path id="font_1_66" d="M.2999878 0V.051986696H.24099732V.45117188L.06199646 .44335938V.39135743C.117996219 .39135743 .125 .39135743 .125 .35331727V.051986696H.05899048V0C.116989139 .0029907227 .12799073 .0029907227 .18099976 .0029907227 .22200012 .0029907227 .25099183 .0029907227 .2999878 0M.25099183 .6053772C.25099183 .6503906 .21299744 .685379 .17098999 .685379 .12599182 .685379 .08999634 .64938357 .08999634 .6053772 .08999634 .560379 .12799073 .5253906 .16999817 .5253906 .21499634 .5253906 .25099183 .5613861 .25099183 .6053772Z"/>
<path id="font_1_105" d="M.40699769 .12319946V.17422486H.35099793V.12519837C.35099793 .056167604 .31298829 .040161134 .2899933 .040161134 .23199463 .040161134 .23098755 .093185428 .23098755 .12019348V.39233399H.3869934V.44433595H.23098755V.6357422H.1749878C.17399597 .53652957 .12298584 .43632508 .022994996 .43432618V.39233399H.10899353V.12319946C.10899353 .02015686 .18998719-.0068359377 .2749939-.0068359377 .35099793-.0068359377 .40699769 .044158937 .40699769 .12319946Z"/>
<path id="font_1_98" d="M.44099427 .14112854C.44099427 .18511963 .42099 .21511841 .397995 .2361145 .35398866 .2770996 .3019867 .2850952 .2639923 .29110719 .17298889 .3060913 .117996219 .315094 .117996219 .35908509 .117996219 .41807557 .21499634 .41807557 .23599243 .41807557 .34799195 .41807557 .35299684 .36408998 .35499574 .3360901 .35699464 .32009889 .37098695 .32009889 .3829956 .32009889 .4099884 .32009889 .41099549 .3270874 .41099549 .35108949V.42407228C.41099549 .44306947 .41099549 .45507813 .3889923 .45507813 .3809967 .45507813 .37799073 .45507813 .34399415 .43806459 .3019867 .45507813 .25498963 .45507813 .23799134 .45507813 .20399475 .45507813 .040985109 .45507813 .040985109 .3210907 .040985109 .2761078 .066986087 .24711609 .09199524 .2281189 .13198853 .20011902 .1749878 .19311524 .23999024 .1821289 .2899933 .1741333 .3639984 .16212464 .3639984 .10714722 .3639984 .03715515 .27598573 .03515625 .24499512 .03515625 .14299011 .03515625 .11399841 .09214783 .09799194 .13912964 .09298706 .15612793 .09098816 .15812683 .068984989 .15812683 .040985109 .15812683 .040985109 .15013123 .040985109 .12713623V.024154664C.040985109 .0051574709 .040985109-.0068359377 .06298828-.0068359377 .07199097-.0068359377 .07398987-.0068359377 .09498596 .006149292L.12098694 .023162842C.17098999-.0068359377 .22399903-.0068359377 .24499512-.0068359377 .27598573-.0068359377 .44099427-.0068359377 .44099427 .14112854Z"/>
<path id="font_1_97" d="M.6119995 .20230103C.6119995 .31228639 .5269928 .39527894 .4269867 .4152832L.2749939 .44628907C.20298767 .46128846 .16899109 .50527957 .16899109 .5492554 .16899109 .5932312 .19999695 .653183 .30699159 .653183 .32998658 .653183 .39698792 .6511841 .44999696 .61120608 .5059967 .5682373 .5169983 .50627139 .5209961 .48228456 .5239868 .46328736 .5249939 .45828248 .5499878 .45828248 .57699587 .45828248 .5779877 .46528626 .5779877 .48928834V.66918948C.5779877 .68818667 .5779877 .7001953 .55599978 .7001953 .5439911 .7001953 .54299929 .69918826 .519989 .67619326L.4889984 .64619448C.44299317 .67918398 .3869934 .7001953 .30699159 .7001953 .13798523 .7001953 .067993167 .5952301 .067993167 .49827577 .067993167 .4552765 .08198547 .4132843 .115997318 .37428285 .16799927 .31529237 .23098755 .30329896 .2749939 .29429627L.397995 .26930238C.48399354 .251297 .5109863 .1973114 .5109863 .15330506 .5109863 .12231445 .49699403 .03831482 .36898805 .03831482 .32099916 .03831482 .24798584 .045318605 .19198609 .080322269 .1289978 .11930847 .125 .18031311 .12399292 .21229553 .12298584 .228302 .10699463 .228302 .09599304 .228302 .067993167 .228302 .067993167 .2203064 .067993167 .1973114V.017318726C.067993167-.0016784668 .067993167-.013671875 .08999634-.013671875 .101989749-.013671875 .102996829-.012680054 .12599182 .010314941L.1559906 .0393219C.22599793-.0066833498 .31799317-.013671875 .36999513-.013671875 .5499878-.013671875 .6119995 .10430908 .6119995 .20230103Z"/>
<path id="font_1_72" d="M.30699159 0V.051986696H.24099732V.69433596L.05899048 .6855469V.6335449C.117996219 .6335449 .125 .6335449 .125 .594574V.051986696H.05899048V0C.116989139 .0029907227 .1269989 .0029907227 .18299866 .0029907227 .23899842 .0029907227 .24899292 .0029907227 .30699159 0Z"/>
<path id="font_1_47" d="M.6339874 0V.051986696C.57499697 .051986696 .56799319 .051986696 .56799319 .09101868V.69433596L.38598634 .6855469V.6335449C.44499208 .6335449 .45199586 .6335449 .45199586 .5946808V.40815736C.397995 .4451599 .34599305 .45117188 .30899049 .45117188 .13999939 .45117188 .040985109 .35116578 .040985109 .22215271 .040985109 .091156009 .13798523-.0068359377 .29699708-.0068359377 .36999513-.007003784 .41999818 .021987915 .44599916 .041992189V-.0068359377L.6339874 0M.44599916 .11099243C.39898683 .045150758 .33999635 .03515625 .30599977 .03515625 .17599488 .03515625 .17599488 .15916443 .17599488 .21916199 .17599488 .28216554 .17599488 .40916444 .31900025 .40916444 .36499024 .40916444 .4119873 .39016725 .44599916 .34716798V.11099243Z"/>
<path id="font_1_91" d="M.6339874-.19360352V-.14160156H.56799319V.45117188H.5179901L.46899415 .37316896C.4249878 .42315675 .375 .45117188 .30599977 .45117188 .14299011 .45117188 .040985109 .3541565 .040985109 .22215271 .040985109 .0871582 .14199829-.0068359377 .29699708-.0068359377 .31498719-.0068359377 .3809967-.0068359377 .44599916 .046157838V-.14160156H.37998963V-.19360352C.43399049-.1906128 .46899415-.1906128 .5069885-.1906128 .54599-.1906128 .5799866-.1906128 .6339874-.19360352M.45199586 .15016175C.45199586 .13215637 .45199586 .12815857 .43598939 .105163577 .3929901 .04714966 .33999635 .03515625 .30699159 .03515625 .23498535 .03515625 .17599488 .09715271 .17599488 .22116089 .17599488 .3541565 .25 .40415956 .31900025 .40415956 .40098573 .4039917 .45199586 .32598878 .45199586 .2749939V.15016175Z"/>
<path id="font_1_77" d="M.6499939 0V.051986696H.58399966V.3034973C.58399966 .4251709 .5079956 .45117188 .4189911 .45117188 .2979889 .45117188 .24398804 .3715973 .23199463 .34959413H.23098755V.45117188L.055999757 .44335938V.39135743C.114990238 .39135743 .12199402 .39135743 .12199402 .35231019V.051986696H.055999757V0C.10998535 .0029907227 .14498902 .0029907227 .18299866 .0029907227 .22200012 .0029907227 .2559967 .0029907227 .30999757 0V.051986696H.24398804V.25320436C.24398804 .36413575 .33999635 .40916444 .4039917 .40916444 .43899537 .40916444 .46199037 .39215089 .46199037 .31411744V.051986696H.3959961V0C.44999696 .0029907227 .4850006 .0029907227 .522995 .0029907227 .56199648 .0029907227 .59599307 .0029907227 .6499939 0Z"/>
<path id="font_1_43" d="M.5089874 .11520386C.5089874 .13320923 .49299623 .13320923 .48098756 .13320923 .46199037 .13320923 .45899964 .13320923 .45199586 .11520386 .42399598 .04916382 .35699464 .040161134 .32499696 .040161134 .17599488 .040161134 .17599488 .1832428 .17599488 .22625733 .17599488 .28630067 .1789856 .4080658 .31298829 .4080658 .31999208 .4080658 .37599183 .40615846 .37599183 .40234376 .37599183 .40234376 .375 .39933778 .37199403 .3963318 .3639984 .38433839 .3600006 .369339 .3600006 .35533143 .3600006 .31530763 .3909912 .28829957 .4269867 .28829957 .46499635 .28829957 .49499513 .3143158 .49499513 .3563385 .49499513 .45507813 .34999085 .45507813 .30899049 .45507813 .116989139 .45507813 .040985109 .33532716 .040985109 .22225952 .040985109 .09819031 .1309967-.0068359377 .30499269-.0068359377 .34999085-.0068359377 .3999939 .001159668 .44099427 .026153565 .49398805 .059173585 .5089874 .109191898 .5089874 .11520386Z"/>
<path id="font_1_118" d="M.6159973 .39233399V.44433595C.5779877 .44132997 .57598879 .44132997 .5329895 .44132997 .526001 .44132997 .47299195 .44132997 .44299317 .44433595V.39233399C.44299317 .39233399 .48399354 .39233399 .48399354 .38232423 .48399354 .37931825 .48098756 .37330628 .47898866 .36930848L.35699464 .12808228 .22299195 .39233399H.269989V.44433595C.21199036 .44132997 .19099427 .44132997 .14698792 .44132997 .12399292 .44132997 .069992069 .44132997 .02999878 .44433595V.39233399H.09298706L.29100038-.000030517579C.25-.085113529 .24198914-.09512329 .23498535-.10513306 .19699097-.1541748 .1539917-.15917969 .13798523-.15917969 .1289978-.15917969 .125-.1581726 .11999512-.1561737 .13999939-.14416504 .14898682-.12414551 .14898682-.102127078 .14898682-.062088014 .11898804-.04006958 .08699036-.04006958 .053985597-.04006958 .023986817-.062088014 .023986817-.103134158 .023986817-.1561737 .07299805-.20117188 .13699341-.20117188 .23399353-.20117188 .2939911-.11714172 .30799867-.09011841L.54299929 .37130738C.5519867 .38832093 .55400088 .39233399 .6159973 .39233399Z"/>
<path id="font_1_85" d="M.40699769-.23200989C.40699769-.2250061 .4039917-.22200012 .3919983-.21200562 .2649994-.09700012 .21998596 .07798767 .21998596 .25 .21998596 .42099 .2630005 .59599307 .3899994 .70899966 .4059906 .723999 .40699769 .72499087 .40699769 .7319946 .40699769 .74198916 .40098573 .75 .38598634 .75 .36698915 .75 .31399537 .70500186 .2939911 .6859894 .16899109 .56199648 .11399841 .4099884 .11399841 .25 .11399841 .16099549 .13198853 .039993287 .20599365-.07800293 .2689972-.17800904 .3639984-.25 .38598634-.25 .40098573-.25 .40699769-.2420044 .40699769-.23200989Z"/>
<path id="font_1_46" d="M.86898806 .33677674C.86898806 .5536041 .71199038 .6855469 .5 .6855469H.04699707V.6335449H.15499878V.051986696H.04699707V0H.5009918C.71398928 0 .86898806 .12792969 .86898806 .33677674M.71499636 .33877564C.71499636 .2418518 .71499636 .051986696 .45899964 .051986696H.2979889V.6335449H.45799256C.71499636 .6335449 .71499636 .43469239 .71499636 .33877564Z"/>
<path id="font_1_28" d="M.58898928 .025985718C.58898928 .051986696 .57299807 .051986696 .5589905 .051986696 .49699403 .051986696 .49699403 .06199646 .49699403 .085006717V.29605104C.49699403 .38606263 .4249878 .45507813 .2619934 .45507813 .21299744 .45507813 .069992069 .45507813 .069992069 .35606385 .069992069 .31204225 .10398865 .28804017 .13699341 .28804017 .1769867 .28804017 .20498657 .31704713 .20498657 .35505677 .20498657 .3870697 .18399048 .4060669 .18399048 .4060669 .19198609 .4080658 .22099304 .41307069 .2599945 .41307069 .33999635 .41307069 .375 .36906434 .375 .29704286V.2680359C.22499085 .26704408 .02999878 .23402405 .02999878 .11199951 .02999878 .027160645 .12599182-.0068359377 .23498535-.0068359377 .33799745-.0068359377 .3809967 .04815674 .3939972 .06816101 .3939972 .037994386 .40499879 0 .5019989 0H.5549927C.57398989 0 .58898928 0 .58898928 .025985718M.375 .13699341C.375 .03515625 .25498963 .03515625 .25099183 .03515625 .19898987 .03515625 .1519928 .066207889 .1519928 .11427307 .1519928 .1843872 .24499512 .22746277 .375 .23046875V.13699341Z"/>
<path id="font_1_86" d="M.36099244 .25C.36099244 .33898927 .34298707 .45999146 .2689972 .5779877 .20599365 .6779938 .11099243 .75 .08898926 .75 .07199097 .75 .067993167 .7389984 .067993167 .7319946 .067993167 .72499087 .07199097 .72099307 .08299255 .71199038 .20999146 .5970001 .25498963 .42199708 .25498963 .25 .25498963 .07899475 .21199036-.0960083 .084991458-.2090149 .07299805-.22000122 .067993167-.22401428 .067993167-.23200989 .067993167-.23901367 .07199097-.25 .08898926-.25 .10798645-.25 .16099549-.20500183 .18099976-.18600464 .30599977-.06201172 .36099244 .08999634 .36099244 .25Z"/>
<path id="font_2_82" d="M.4189911 0V.0309906H.3869934C.29699708 .0309906 .2939911 .041992189 .2939911 .07902527V.64012148C.2939911 .6640167 .2939911 .6660156 .2709961 .6660156 .20899964 .60227969 .12098694 .60227969 .08898926 .60227969V.57128909C.10899353 .57128909 .16799927 .57128909 .21998596 .5972748V.07902527C.21998596 .042999269 .21699524 .0309906 .1269989 .0309906H.09498596V0C.12998963 .0029907227 .21699524 .0029907227 .25698854 .0029907227 .29699708 .0029907227 .38398744 .0029907227 .4189911 0Z"/>
<path id="font_2_121" d="M.45999146 .31976319C.45999146 .39982606 .45498658 .47988893 .41999818 .5539398 .37399293 .65000918 .2919922 .6660156 .25 .6660156 .18998719 .6660156 .116989139 .64001467 .07598877 .54693606 .04399109 .47789 .038986207 .39982606 .038986207 .31976319 .038986207 .24472046 .042999269 .15464783 .083999637 .07859802 .1269989-.0024719239 .19999695-.022460938 .24899292-.022460938 .30299378-.022460938 .3789978-.0014648438 .4229889 .09359741 .45498658 .16265869 .45999146 .2407074 .45999146 .31976319M.3769989 .3317871C.3769989 .25672914 .3769989 .18867493 .3659973 .12461853 .35099793 .029556275 .2939911-.00047302247 .24899292-.00047302247 .20999146-.00047302247 .15098572 .024551392 .1329956 .12062073 .12199402 .18066406 .12199402 .2727356 .12199402 .3317871 .12199402 .39582826 .12199402 .46188355 .12998963 .5159149 .14898682 .63500979 .22399903 .64401248 .24899292 .64401248 .28199769 .64401248 .34799195 .6259918 .36698915 .52693179 .3769989 .47088624 .3769989 .39482118 .3769989 .3317871Z"/>
<path id="font_2_107" d="M.44898988 .17396546H.42399598C.4189911 .14398194 .4119873 .099990848 .4019928 .084991458 .394989 .07699585 .32899476 .07699585 .30699159 .07699585H.1269989L.23298645 .17996216C.3889923 .31803895 .44898988 .37210084 .44898988 .47216798 .44898988 .5860901 .35899354 .6660156 .23699951 .6660156 .12399292 .6660156 .049987794 .57411196 .049987794 .48516847 .049987794 .4291687 .099990848 .4291687 .102996829 .4291687 .11999512 .4291687 .15499878 .44117738 .15499878 .48217774 .15499878 .5081787 .13699341 .5341797 .101989749 .5341797 .09399414 .5341797 .09199524 .5341797 .08898926 .5331726 .11199951 .59806826 .1659851 .63500979 .22399903 .63500979 .31498719 .63500979 .35798646 .5541382 .35798646 .47216798 .35798646 .39196778 .30799867 .31297303 .25299073 .25097657L.06098938 .036987306C.049987794 .025985718 .049987794 .023986817 .049987794 0H.42099L.44898988 .17396546Z"/>
<path id="font_2_106" d="M.45700074 .17037964C.45700074 .252594 .3939972 .33088685 .2899933 .35191346 .37199403 .37893678 .42999269 .4490509 .42999269 .52809146 .42999269 .6100464 .34199525 .6660156 .24598694 .6660156 .14498902 .6660156 .068984989 .60606387 .068984989 .53009036 .068984989 .49710084 .09098816 .47808839 .11999512 .47808839 .15098572 .47808839 .17098999 .50009158 .17098999 .5290985 .17098999 .57910159 .12399292 .57910159 .10899353 .57910159 .13999939 .62802127 .20599365 .64100649 .24198914 .64100649 .2829895 .64100649 .33799745 .6190338 .33799745 .5290985 .33799745 .51708987 .33599855 .45906068 .30999757 .4149933 .27999879 .36691285 .24598694 .36390687 .22099304 .36291505 .21299744 .36190797 .18899536 .35990907 .18199158 .35990907 .17399597 .35890199 .16699219 .35791017 .16699219 .3479004 .16699219 .33691407 .17399597 .33691407 .19099427 .33691407H.23498535C.31698609 .33691407 .35398866 .2686615 .35398866 .17037964 .35398866 .034469606 .2849884 .0055389406 .24099732 .0055389406 .19799805 .0055389406 .12298584 .022491456 .08799744 .08137512 .12298584 .07637024 .1539917 .09837341 .1539917 .1363678 .1539917 .17237854 .1269989 .19238281 .09799194 .19238281 .07398987 .19238281 .041992189 .17837525 .041992189 .1343689 .041992189 .043441774 .1349945-.022460938 .24398804-.022460938 .3659973-.022460938 .45700074 .06838989 .45700074 .17037964Z"/>
<path id="font_2_57" d="M.47099305 .16503906V.19602967H.37098695V.6507721C.37098695 .6707611 .37098695 .6767578 .35499574 .6767578 .34599305 .6767578 .34298707 .6767578 .33499146 .6647644L.027999878 .19602967V.16503906H.2939911V.07800293C.2939911 .041992189 .2919922 .0309906 .21798706 .0309906H.19699097V0C.23799134 .0029907227 .2899933 .0029907227 .33198548 .0029907227 .37399293 .0029907227 .4269867 .0029907227 .46798707 0V.0309906H.44699098C.37298585 .0309906 .37098695 .041992189 .37098695 .07800293V.16503906H.47099305M.2999878 .19602967H.055999757L.2999878 .56881716V.19602967Z"/>
<path id="font_2_56" d="M.44898988 .20091248C.44898988 .31991578 .36698915 .41992188 .25898744 .41992188 .21099854 .41992188 .16799927 .4039154 .13198853 .36891175V.5641022C.1519928 .55778506 .18499756 .55078127 .21699524 .55078127 .33999635 .55078127 .4099884 .6418457 .4099884 .65493777 .4099884 .6609802 .40699769 .6660156 .3999939 .6660156 .3999939 .66607668 .39698792 .66607668 .3919983 .66308596 .37199403 .65408328 .32299806 .63378909 .2559967 .63378909 .21598816 .63409426 .16999817 .641098 .12298584 .6621094 .114990238 .6651001 .11099243 .6651001 .11099243 .6651001 .100997928 .66508486 .100997928 .657074 .100997928 .64108279V.3447113C.100997928 .3266449 .100997928 .31861878 .114990238 .31861878 .12199402 .31861878 .12399292 .32164 .12799073 .32765199 .13899231 .34371949 .17599488 .3979187 .25698854 .3979187 .30899049 .3979187 .33399964 .3517456 .34199525 .3336792 .35798646 .2965393 .3600006 .2574005 .3600006 .20721436 .3600006 .17218018 .3600006 .112197879 .33599855 .07032776 .31199647 .031448366 .2749939 .0055389406 .22898865 .0055389406 .1559906 .0055389406 .09899902 .05836487 .08198547 .1171875 .084991458 .11685181 .08799744 .115859989 .09899902 .115859989 .13198853 .115859989 .14898682 .14085388 .14898682 .16485596 .14898682 .18885803 .13198853 .21386719 .09899902 .21386719 .084991458 .21386719 .049987794 .2068634 .049987794 .16085816 .049987794 .07432556 .11898804-.022460938 .23098755-.022460938 .34700013-.022460938 .44898988 .07331848 .44898988 .20019531V.20091248Z"/>
<path id="font_2_101" d="M.45700074 .2036438C.45700074 .33070375 .36799623 .4267578 .25698854 .4267578 .18899536 .4267578 .1519928 .37573243 .13198853 .327713V.35173036C.13198853 .6047821 .2559967 .64100649 .30699159 .64100649 .33099366 .64100649 .37298585 .634964 .394989 .6007538 .37998963 .6007538 .33999635 .6007538 .33999635 .5557556 .33999635 .524765 .3639984 .5097656 .38598634 .5097656 .4019928 .5097656 .43199159 .51875308 .43199159 .5577545 .43199159 .6178589 .3880005 .6660156 .30499269 .6660156 .1769867 .6660156 .041992189 .5367584 .041992189 .31570436 .041992189 .048553468 .1579895-.022460938 .25099183-.022460938 .3619995-.022460938 .45700074 .07156372 .45700074 .2036438M.36698915 .20463562C.36698915 .15661621 .36698915 .10658264 .34999085 .0705719 .31999208 .010528564 .27398683 .0055389406 .25099183 .0055389406 .18798828 .0055389406 .1579895 .06556702 .1519928 .080566409 .13398743 .127594 .13398743 .2076416 .13398743 .22564698 .13398743 .30369569 .1659851 .40374757 .2559967 .40374757 .27198792 .40374757 .31799317 .40374757 .34899903 .34172059 .36698915 .30470277 .36698915 .2536621 .36698915 .20463562Z"/>
<path id="font_2_100" d="M.4850006 .6435547H.24198914C.11999512 .6435547 .117996219 .6566467 .11399841 .67578127H.08898926L.055999757 .46954347H.08099365C.083999637 .48554994 .09298706 .54855349 .10598755 .5605469 .11299133 .5665436 .19099427 .5665436 .20399475 .5665436H.41099549L.29899598 .40853883C.20899964 .2735443 .17599488 .13453675 .17599488 .03253174 .17599488 .022537232 .17599488-.022460938 .22200012-.022460938 .2679901-.022460938 .2679901 .022537232 .2679901 .03253174V.08354187C.2679901 .13853455 .2709961 .19354248 .2789917 .24754334 .2829895 .27053834 .29699708 .35653688 .34098817 .41854859L.47599793 .608551C.4850006 .62054446 .4850006 .62254336 .4850006 .6435547Z"/>
<path id="font_2_78" d="M.45700074 .32888795C.45700074 .598114 .34199525 .6660156 .25299073 .6660156 .19799805 .6660156 .14898682 .64801028 .10598755 .6031189 .06498718 .5580902 .041992189 .5160217 .041992189 .44091798 .041992189 .3158722 .12998963 .21777344 .24198914 .21777344 .30299378 .21777344 .34399415 .25979615 .36698915 .3178711V.28582765C.36698915 .05178833 .2630005 .0055389406 .20498657 .0055389406 .18798828 .0055389406 .13398743 .007537842 .10699463 .041778566 .15098572 .041778566 .15899658 .07078552 .15899658 .08778381 .15899658 .118774417 .1349945 .13378906 .11299133 .13378906 .09700012 .13378906 .066986087 .12478638 .066986087 .08578491 .066986087 .018615723 .12098694-.022460938 .20599365-.022460938 .33499146-.022460938 .45700074 .11378479 .45700074 .32888795M.36499024 .42089845C.36499024 .33789063 .33099366 .24076844 .24299622 .24076844 .22698975 .2407074 .18099976 .2407074 .1499939 .30371095 .13198853 .34072877 .13198853 .3908081 .13198853 .43988038 .13198853 .49397279 .13198853 .5410614 .15299988 .578125 .17999268 .62805178 .21798706 .64100649 .25299073 .64100649 .29899598 .64100649 .33198548 .60710147 .34899903 .562088 .36099244 .52989199 .36499024 .46688844 .36499024 .42089845Z"/>
<path id="font_3_62" d="M.84098818 0V.042999269H.7350006V.64253237H.84098818V.6855469C.81199648 .6835327 .7049866 .6835327 .6689911 .6835327 .6329956 .6835327 .526001 .6835327 .49699403 .6855469V.64253237H.6029968V.3779297H.27598573V.64253237H.38198854V.6855469C.35299684 .6835327 .24598694 .6835327 .20999146 .6835327 .17399597 .6835327 .066986087 .6835327 .037994386 .6855469V.64253237H.14399719V.042999269H.037994386V0C.066986087 .0019989014 .17399597 .0019989014 .20999146 .0019989014 .24598694 .0019989014 .35299684 .0019989014 .38198854 0V.042999269H.27598573V.33491517H.6029968V.042999269H.49699403V0C.526001 .0019989014 .6329956 .0019989014 .6689911 .0019989014 .7049866 .0019989014 .81199648 .0019989014 .84098818 0Z"/>
<path id="font_3_66" d="M.2789917 0V.042999269H.21699524V.4501953L.04699707 .4423828V.3993683C.10598755 .3993683 .11299133 .3993683 .11299133 .3603363V.042999269H.04399109V0C.066986087 .0019989014 .13598633 .0019989014 .16299439 .0019989014 .19099427 .0019989014 .25498963 .0019989014 .2789917 0M.22898865 .6081238C.22898865 .64912417 .19499207 .68013 .15699768 .68013 .115997318 .68013 .083999637 .64712527 .083999637 .6081238 .083999637 .5671234 .117996219 .5361328 .1559906 .5361328 .19699097 .5361328 .22898865 .5691223 .22898865 .6081238Z"/>
<path id="font_3_98" d="M.40499879 .13912964C.40499879 .18711853 .3789978 .22012329 .35899354 .23812866 .31799317 .27212525 .28399659 .27812196 .22999573 .28811646 .1659851 .29911805 .10598755 .31011964 .10598755 .35812379 .10598755 .42311097 .19499207 .42311097 .21598816 .42311097 .32699586 .42311097 .33299256 .3531189 .33499146 .328125 .33599855 .3151245 .34399415 .3151245 .35598756 .3151245 .3769989 .3151245 .3769989 .31811524 .3769989 .34111024V.42712403C.3769989 .44612123 .3769989 .453125 .3619995 .453125 .35598756 .453125 .35398866 .453125 .33898927 .4441223 .33499146 .44111634 .32398988 .43411256 .31900025 .43112184 .29100038 .44711305 .2539978 .453125 .21798706 .453125 .18798828 .453125 .037994386 .453125 .037994386 .32312013 .037994386 .21812439 .1619873 .19612122 .19299317 .19113159 .21998596 .18612671 .25299073 .18013 .25698854 .18013 .29699708 .17112732 .33699037 .14613343 .33699037 .10412598 .33699037 .027130127 .24598694 .027130127 .22499085 .027130127 .17399597 .027130127 .11099243 .043136598 .08299255 .14012146 .07699585 .16012573 .07598877 .16113281 .05899048 .16113281 .037994386 .16113281 .037994386 .15812683 .037994386 .13513184V.020126343C.037994386 .0011291504 .037994386-.005859375 .052993776-.005859375 .05999756-.005859375 .06199646-.005859375 .08198547 .010131836L.10798645 .029129029C.15299988-.005859375 .20698548-.005859375 .22499085-.005859375 .27999879-.005859375 .40499879 .006134033 .40499879 .13912964Z"/>
<path id="font_3_105" d="M.37399293 .124176029V.17721558H.33198548V.1251831C.33198548 .059143068 .3019867 .030136109 .2709961 .030136109 .21099854 .030136109 .21099854 .09716797 .21099854 .12017822V.4013214H.35499574V.44433595H.21099854V.6357422H.16899109C.16799927 .53652957 .11999512 .43733216 .020996094 .43432618V.4013214H.101989749V.123184207C.101989749 .01713562 .18399048-.005859375 .2559967-.005859375 .32998658-.005859375 .37399293 .05014038 .37399293 .124176029Z"/>
<path id="font_3_81" d="M.5299988 .21913147C.5299988 .35412599 .43798829 .453125 .2809906 .453125 .117996219 .453125 .0309906 .3491211 .0309906 .21913147 .0309906 .088134769 .12298584-.005859375 .27999879-.005859375 .44299317-.005859375 .5299988 .09312439 .5299988 .21913147M.4099884 .22912598C.4099884 .14613343 .4099884 .030136109 .2809906 .030136109 .15098572 .030136109 .15098572 .14712525 .15098572 .22912598 .15098572 .27612306 .15098572 .3261261 .16999817 .36212159 .19198609 .40211488 .23699951 .42012025 .27999879 .42012025 .33699037 .42012025 .37298585 .39311219 .3899994 .3651123 .4099884 .32911683 .4099884 .27713014 .4099884 .22912598Z"/>
<path id="font_3_59" d="M.54499819 .40003968C.54499819 .42404176 .5269928 .4560547 .4850006 .4560547 .44198609 .4560547 .40098573 .43504334 .37998963 .41705323 .33898927 .44119264 .2999878 .4501953 .24899292 .4501953 .11099243 .4501953 .055999757 .3731842 .055999757 .30319215 .055999757 .27218629 .06599426 .23118592 .10798645 .19718933 .09098816 .17819214 .07299805 .14318848 .07299805 .10719299 .07299805 .064193729 .09599304 .027191163 .116989139 .011184692 .09298706 .0052490236 .0309906-.01776123 .0309906-.0748291 .0309906-.13391114 .09599304-.20095825 .27999879-.20095825 .44599916-.20095825 .5299988-.14692688 .5299988-.07182312 .5299988 .01625061 .47200013 .04525757 .44699098 .057250978 .39898683 .08125305 .33499146 .08125305 .24699402 .08125305 .22200012 .08125305 .17799378 .08125305 .17298889 .08224487 .12998963 .08924866 .117996219 .12724304 .117996219 .14624024 .117996219 .15423584 .11898804 .16923523 .12998963 .18223572 .17799378 .15625 .23399353 .15625 .24899292 .15625 .3869934 .15625 .44198609 .23320008 .44198609 .30314637 .44198609 .35411073 .41299439 .39007569 .40098573 .4000702 .42999269 .41604615 .45399476 .42004396 .47099305 .42204286 .46798707 .41705323 .46499635 .41305543 .46499635 .4000702 .46499635 .37908937 .47898866 .36009217 .5049896 .36009217 .5309906 .36009217 .54499819 .37908937 .54499819 .4000702V.40003968M.33599855 .30314637C.33599855 .2571869 .33599855 .18824768 .24899292 .18824768 .1619873 .18812561 .1619873 .25715638 .1619873 .30316163 .1619873 .34916688 .1619873 .41818238 .24899292 .41818238 .33599855 .41818238 .33599855 .34916688 .33599855 .30316163V.30314637M.44799806-.075927738C.44799806-.1109314 .41299439-.16894531 .2809906-.16894531 .14898682-.16874695 .11299133-.11274719 .11299133-.07475281 .11299133-.0107421879 .17599488-.0107421879 .19099427-.0107421879H.30499269C.37799073-.0107421879 .44799806-.023742676 .44799806-.07574463V-.075927738Z"/>
<path id="font_3_96" d="M.4269867 .3711853C.4269867 .42218019 .375 .4501953 .32699586 .4501953 .24798584 .4501953 .21398926 .38119508 .19999695 .33918763H.19898987V.4501953L.034988405 .4423828V.3993683C.09700012 .3993683 .10398865 .3993683 .10398865 .3603363V.042999269H.034988405V0C.057998659 .0019989014 .1329956 .0019989014 .16099549 .0019989014 .18998719 .0019989014 .2709961 .0019989014 .29499818 0V.042999269H.20799256V.22518921C.20799256 .25819398 .21499634 .41719056 .33198548 .41719056 .31799317 .40618897 .31098939 .38919068 .31098939 .3711853 .31098939 .33018495 .34399415 .31318666 .36898805 .31318666 .3939972 .31318666 .4269867 .33018495 .4269867 .3711853Z"/>
<path id="font_3_28" d="M.54100039 .022140503C.54100039 .043136598 .5319977 .043136598 .5179901 .043136598 .45498658 .044128419 .45498658 .060134889 .45498658 .08312988V.29911805C.45498658 .39111329 .38198854 .453125 .24099732 .453125 .18499756 .453125 .066986087 .44812013 .066986087 .36412049 .066986087 .32211305 .09899902 .30412293 .12599182 .30412293 .1559906 .30412293 .18499756 .32511903 .18499756 .3631134 .18499756 .3821106 .17799378 .40011598 .16099549 .41111756 .19400025 .42012025 .21798706 .42012025 .23699951 .42012025 .30499269 .42012025 .34599305 .3821106 .34599305 .30012513V.26011659C.18798828 .26011659 .0289917 .21612549 .0289917 .10513306 .0289917 .014129639 .14498902-.005859375 .21398926-.005859375 .29100038-.005859375 .33999635 .036132814 .3600006 .0801239 .3600006 .042999269 .3600006 0 .46099855 0H.5119934C.5329895 0 .54100039 0 .54100039 .021987915V.022140503M.34599305 .13899231C.34599305 .04499817 .2619934 .026992798 .22999573 .026992798 .18099976 .026992798 .13999939 .05999756 .13999939 .10598755 .13999939 .19699097 .24798584 .22799683 .34599305 .23298645V.13899231Z"/>
<path id="font_3_75" d="M.9129944 0V.042999269H.84399417V.30636598C.84399417 .39823915 .8049927 .4501953 .69299319 .4501953 .59199526 .4501953 .54499819 .38227845 .5289917 .3503723 .5130005 .43518067 .44499208 .4501953 .3809967 .4501953 .2849884 .4501953 .23298645 .38827516 .21199036 .3403778H.21099854V.4501953L.041992189 .4423828V.3993683C.10398865 .3993683 .11099243 .3993683 .11099243 .36035157V.042999269H.041992189V0C.06498718 .0019989014 .13699341 .0019989014 .16499329 .0019989014 .19299317 .0019989014 .2659912 .0019989014 .2889862 0V.042999269H.21998596V.25627137C.21998596 .36532594 .30099488 .41719056 .3639984 .41719056 .40098573 .41719056 .4229889 .3952484 .4229889 .3173828V.042999269H.35398866V0C.3769989 .0019989014 .44898988 .0019989014 .47698976 .0019989014 .5049896 .0019989014 .5779877 .0019989014 .6009979 0V.042999269H.5319977V.25628663C.5319977 .36532594 .61299136 .41719056 .6759949 .41719056 .71299746 .41719056 .7350006 .3952484 .7350006 .3173828V.042999269H.66600039V0C.68899539 .0019989014 .7609863 .0019989014 .78900149 .0019989014 .81700137 .0019989014 .8899994 .0019989014 .9129944 0Z"/>
<path id="font_3_55" d="M.42199708 .617218C.42199708 .65818789 .38598634 .7001953 .31498719 .7001953 .22399903 .7001953 .11299133 .66218569 .11299133 .54626467V.44433595H.038986207V.4013214H.11299133V.042999269H.04399109V0C.066986087 .0019989014 .14199829 .0019989014 .16999817 .0019989014 .19898987 .0019989014 .27999879 .0019989014 .3039856 0V.042999269H.21699524V.4013214H.33099366V.44433595H.21199036V.54725649C.21199036 .65119937 .27799989 .66719058 .31098939 .66719058 .32199098 .66719058 .32398988 .6661835 .32998658 .6641846 .31498719 .65419009 .30599977 .63720706 .30599977 .6162262 .30599977 .57624819 .33799745 .55825808 .3639984 .55825808 .38598634 .55825808 .42199708 .5732422 .42199708 .617218Z"/>
<path id="font_3_76" d="M.84098818 .64253237V.6855469C.81799319 .6835327 .73999026 .6835327 .71199038 .6835327 .6839905 .6835327 .6049957 .6835327 .58200076 .6855469V.64253237H.6049957C.6319885 .64253237 .6339874 .64253237 .6579895 .6395416 .68699648 .6355438 .6879883 .63453677 .6879883 .6125641V.19487L.2899933 .6735382C.27999879 .6845398 .2789917 .6855469 .25898744 .6855469H.037994386V.64253237H.14399719V.07296753C.14399719 .050979616 .14299011 .049987794 .116989139 .04598999 .09899902 .04399109 .07899475 .042999269 .06098938 .042999269H.037994386V0C.06098938 .0019989014 .13899231 .0019989014 .16699219 .0019989014 .19499207 .0019989014 .27398683 .0019989014 .29699708 0V.042999269H.27398683C.24699402 .042999269 .24499512 .042999269 .22099304 .04598999 .19198609 .049987794 .19099427 .050979616 .19099427 .07296753V.6085663L.6859894 .0129852299C.69699099 .0009918213 .69799807 0 .71099856 0 .7350006 0 .7350006 .005996704 .7350006 .0289917V.6125641C.7350006 .63453677 .73599246 .6355438 .7619934 .6395416 .7799988 .6415405 .7999878 .64253237 .81799319 .64253237H.84098818Z"/>
<path id="font_3_109" d="M.59999087 0V.042999269C.5379944 .042999269 .5309906 .042999269 .5309906 .08201599V.4501953L.35299684 .4423828V.3993683C.4149933 .3993683 .42199708 .3993683 .42199708 .36035157V.16423035C.42199708 .08818054 .3769989 .027130127 .29899598 .027130127 .22399903 .027130127 .21998596 .05215454 .21998596 .10719299V.4501953L.041992189 .4423828V.3993683C.10398865 .3993683 .11099243 .3993683 .11099243 .36035157V.12319946C.11099243 .023132325 .17799378-.005859375 .2849884-.005859375 .30899049-.005859375 .3829956-.005859375 .42599488 .075164798H.4269867V-.005859375L.59999087 0Z"/>
<path id="font_3_35" d="M.58599856 .22319031C.58599856 .36018373 .49198915 .4501953 .35499574 .4501953 .29599 .4501953 .24899292 .43118287 .20799256 .39918519V.69433596L.034988405 .6863251V.6433258C.09700012 .6433258 .10398865 .6433258 .10398865 .6042938V.0001373291H.1459961C.16299439 .019134522 .17999268 .038131715 .19599915 .058135988 .24699402 .005126953 .3019867-.005859375 .34199525-.005859375 .47999574-.005859375 .58599856 .07814026 .58599856 .22315979V.22319031M.46598817 .22416687C.46598817 .17915344 .46598817 .12214661 .44198609 .08514404 .41099549 .037139894 .3639984 .027130127 .33198548 .027130127 .2639923 .027130127 .22698975 .07513428 .21299744 .09713745V.35118104C.24798584 .39918519 .2999878 .41719056 .34199525 .41719056 .46598817 .41719056 .46598817 .29019166 .46598817 .22418213V.22416687Z"/>
<path id="font_3_50" d="M.48098756 .11706543C.48098756 .13206482 .46598817 .13206482 .45999146 .13206482 .44400025 .13206482 .44299317 .12905884 .43699647 .11607361 .41099549 .051116945 .34498597 .030136109 .29699708 .030136109 .1519928 .030136109 .15098572 .16503906 .15098572 .22099304H.45199586C.47499085 .22099304 .48098756 .22099304 .48098756 .24598694 .48098756 .27601625 .47399903 .35105897 .42799378 .3981018 .38598634 .4401245 .32998658 .453125 .27198792 .453125 .115997318 .453125 .0309906 .35105897 .0309906 .22499085 .0309906 .08509827 .13398743-.005859375 .2849884-.005859375 .43598939-.005859375 .48098756 .1000824 .48098756 .11706543M.3889923 .25H.15098572C.15299988 .29101563 .1539917 .3300476 .1749878 .3660736 .19400025 .3981018 .22898865 .42012025 .27198792 .42012025 .3789978 .42012025 .3880005 .30003358 .3889923 .25Z"/>
<path id="font_3_54" d="M.6589966 .4441223 .6299896 .6806946H.037994386V.6376953H.14399719V.042999269H.037994386V0C.066986087 .0019989014 .18099976 .0019989014 .21798706 .0019989014L.40899659 0V.042999269H.27598573V.31929017H.33099366C.4269867 .31929017 .43499757 .2752533 .43499757 .2021637H.47698976V.47903443H.43499757C.43499757 .40620423 .4269867 .3623047 .33099366 .3623047H.27598573V.6376953H.4189911C.5779877 .6376953 .6029968 .56484988 .61698916 .4441223H.6589966Z"/>
<path id="font_3_97" d="M.56199648 .20014954C.56199648 .2942047 .5 .38433839 .3909912 .40937806L.2539978 .4404297C.15499878 .4624176 .1519928 .5343628 .1519928 .5483551 .1519928 .59928897 .18499756 .65823367 .28199769 .65823367 .3789978 .65823367 .46598817 .61128237 .4869995 .48042298 .48999024 .45942689 .48999024 .4584198 .5089874 .4584198 .5299988 .4584198 .5299988 .46142579 .5299988 .48442079V.6722412C.5299988 .6912384 .5299988 .6982422 .5149994 .6982422 .5079956 .6982422 .5049896 .6972351 .49598695 .6872406L.45298768 .6382599C.42799378 .6592407 .37799073 .6982422 .2809906 .6982422 .13798523 .6982422 .06199646 .6082916 .06199646 .4994049 .06199646 .43241883 .09799194 .38534547 .11199951 .37132264 .1639862 .31924439 .19198609 .31323243 .29599 .2902069 .3959961 .26817323 .4079895 .26617433 .42999269 .2451477 .44299317 .23214722 .47200013 .20414734 .47200013 .15318299 .47200013 .11021423 .45098878 .031280519 .33898927 .031280519 .25099183 .031280519 .11199951 .06124878 .10398865 .20713806 .102996829 .22514344 .102996829 .22813416 .08299255 .22813416 .06199646 .22813416 .06199646 .22514344 .06199646 .20214844V.014266968C.06199646-.0047302248 .06199646-.01171875 .07699585-.01171875 .083999637-.01171875 .084991458-.010726929 .09498596-.0017242432 .10598755 .009277344 .114990238 .022277832 .13999939 .04725647 .19799805 .0012664795 .27999879-.01171875 .33999635-.01171875 .49598695-.01171875 .56199648 .09422302 .56199648 .20014954Z"/>
<path id="font_3_72" d="M.28599549 0V.042999269H.21699524V.69433596L.04399109 .6855469V.64253237C.10598755 .64253237 .11299133 .64253237 .11299133 .6035614V.042999269H.04399109V0C.066986087 .0019989014 .13798523 .0019989014 .16499329 .0019989014 .19198609 .0019989014 .2630005 .0019989014 .28599549 0Z"/>
<path id="font_3_47" d="M.58898928 0V.042999269C.5269928 .042999269 .519989 .042999269 .519989 .08201599V.69433596L.34700013 .6855469V.64253237C.40899659 .64253237 .41600038 .64253237 .41600038 .6036682V.40219117C.3939972 .42118836 .34999085 .4501953 .2809906 .4501953 .13899231 .4501953 .037994386 .36218263 .037994386 .22215271 .037994386 .07914734 .13699341-.005859375 .269989-.005859375 .32499696-.005859375 .37199403 .013137817 .41099549 .046142579V-.005859375L.58898928 0M.41099549 .100997928C.36898805 .040130617 .31799317 .027130127 .28199769 .027130127 .1579895 .027130127 .1579895 .15414429 .1579895 .22015381 .1579895 .26716615 .1579895 .3171692 .17999268 .35517884 .21099854 .4111786 .269989 .41719056 .29299928 .41719056 .33399964 .41719056 .37799073 .39918519 .41099549 .35517884V.100997928Z"/>
</defs>
<path transform="matrix(1.0001,0,0,-1.00006,33.552858,299.69517)" stroke-width=".19925" stroke-linecap="butt" stroke-miterlimit="10" stroke-linejoin="miter" fill="none" stroke="#d9d9d9" d="M0 0H226.77448M0 2.83484H226.77448M0 5.6697H226.77448M0 8.50455H226.77448M0 11.33939H226.77448M0 14.17424H226.77448M0 17.0091H226.77448M0 19.84393H226.77448M0 22.67879H226.77448M0 25.51364H226.77448M0 28.3485H226.77448M0 31.18333H226.77448M0 34.01819H226.77448M0 36.85304H226.77448M0 39.68788H226.77448M0 42.52274H226.77448M0 45.35759H226.77448M0 48.19244H226.77448M0 51.02728H226.77448M0 53.86214H226.77448M0 56.69699H226.77448M0 59.53183H226.77448M0 62.36668H226.77448M0 65.20154H226.77448M0 68.03639H226.77448M0 70.87123H226.77448M0 73.70609H226.77448M0 76.54094H226.77448M0 79.37578H226.77448M0 82.21063H226.77448M0 85.04549H226.77448M0 87.88034H226.77448M0 90.71518H226.77448M0 93.55003H226.77448M0 96.38489H226.77448M0 99.21973H226.77448M0 102.05458H226.77448M0 104.88943H226.77448M0 107.72429H226.77448M0 110.55913H226.77448M0 113.39398H226.77448M0 116.22884H226.77448M0 119.06367H226.77448M0 121.89853H226.77448M0 124.73338H226.77448M0 127.56824H226.77448M0 130.40308H226.77448M0 133.23793H226.77448M0 136.07279H226.77448M0 138.90763H226.77448M0 141.74248H226.77448M0 144.57733H226.77448M0 147.41219H226.77448M0 150.24703H226.77448M0 153.08188H226.77448M0 155.91674H226.77448M0 158.75157H226.77448M0 161.58643H226.77448M0 164.42128H226.77448M0 167.25612H226.77448M0 170.09098H226.77448M0 172.92583H226.77448M0 175.76068H226.77448M0 178.59552H226.77448M0 181.43038H226.77448M0 184.26523H226.77448M0 187.10007H226.77448M0 189.93492H226.77448M0 192.76978H226.77448M0 195.60463H226.77448M0 198.43947H226.77448M0 201.27433H226.77448M0 204.10918H226.77448M0 206.94402H226.77448M0 209.77887H226.77448M0 212.61373H226.77448M0 215.44858H226.77448M0 218.28342H226.77448M0 221.11827H226.77448M0 223.95313H226.77448M0 226.78797H226.77448M0 229.62282H226.77448M0 232.45767H226.77448M0 235.29253H226.77448M0 238.12737H226.77448M0 240.96222H226.77448M0 243.79708H226.77448M0 246.63191H226.77448M0 249.46677H226.77448M0 252.30162H226.77448M0 255.13648H226.77448M0 257.9713H226.77448M0 260.80619H226.77448M0 263.64103H226.77448M0 266.47587H226.77448M0 269.3107H226.77448M0 272.14558H226.77448M0 274.9804H226.77448M0 277.81526H226.77448M0 280.65013H226.77448M0 0V283.4681M2.83484 0V283.4681M5.6697 0V283.4681M8.50455 0V283.4681M11.33939 0V283.4681M14.17424 0V283.4681M17.0091 0V283.4681M19.84393 0V283.4681M22.67879 0V283.4681M25.51364 0V283.4681M28.3485 0V283.4681M31.18333 0V283.4681M34.01819 0V283.4681M36.85304 0V283.4681M39.68788 0V283.4681M42.52274 0V283.4681M45.35759 0V283.4681M48.19244 0V283.4681M51.02728 0V283.4681M53.86214 0V283.4681M56.69699 0V283.4681M59.53183 0V283.4681M62.36668 0V283.4681M65.20154 0V283.4681M68.03639 0V283.4681M70.87123 0V283.4681M73.70609 0V283.4681M76.54094 0V283.4681M79.37578 0V283.4681M82.21063 0V283.4681M85.04549 0V283.4681M87.88034 0V283.4681M90.71518 0V283.4681M93.55003 0V283.4681M96.38489 0V283.4681M99.21973 0V283.4681M102.05458 0V283.4681M104.88943 0V283.4681M107.72429 0V283.4681M110.55913 0V283.4681M113.39398 0V283.4681M116.22884 0V283.4681M119.06367 0V283.4681M121.89853 0V283.4681M124.73338 0V283.4681M127.56824 0V283.4681M130.40308 0V283.4681M133.23793 0V283.4681M136.07279 0V283.4681M138.90763 0V283.4681M141.74248 0V283.4681M144.57733 0V283.4681M147.41219 0V283.4681M150.24703 0V283.4681M153.08188 0V283.4681M155.91674 0V283.4681M158.75157 0V283.4681M161.58643 0V283.4681M164.42128 0V283.4681M167.25612 0V283.4681M170.09098 0V283.4681M172.92583 0V283.4681M175.76068 0V283.4681M178.59552 0V283.4681M181.43038 0V283.4681M184.26523 0V283.4681M187.10007 0V283.4681M189.93492 0V283.4681M192.76978 0V283.4681M195.60463 0V283.4681M198.43947 0V283.4681M201.27433 0V283.4681M204.10918 0V283.4681M206.94402 0V283.4681M209.77887 0V283.4681M212.61373 0V283.4681M215.44858 0V283.4681M218.28342 0V283.4681M221.11827 0V283.4681M223.95313 0V283.4681M226.77448 283.4681"/>
<path transform="matrix(1.0001,0,0,-1.00006,33.552858,299.69517)" stroke-width=".3985" stroke-linecap="butt" stroke-miterlimit="10" stroke-linejoin="miter" fill="none" stroke="#a6a6a6" d="M0 0H226.77448M0 28.3468H226.77448M0 56.69362H226.77448M0 85.04042H226.77448M0 113.38724H226.77448M0 141.73404H226.77448M0 170.08086H226.77448M0 198.42766H226.77448M0 226.77448H226.77448M0 255.12128H226.77448M0 283.45814H226.77448M0 0V283.4681M28.3468 0V283.4681M56.69362 0V283.4681M85.04042 0V283.4681M113.38724 0V283.4681M141.73404 0V283.4681M170.08086 0V283.4681M198.42766 0V283.4681M226.76451 0V283.4681M226.77448 283.4681"/>
<path transform="matrix(1.0001,0,0,-1.00006,33.552858,299.69517)" stroke-width=".79701" stroke-linecap="butt" stroke-miterlimit="10" stroke-linejoin="miter" fill="none" stroke="#000000" d="M0 0H225.97747"/>
<path transform="matrix(1.0001,0,0,-1.00006,259.95149,299.69517)" stroke-width=".79701" stroke-linecap="round" stroke-linejoin="round" fill="none" stroke="#000000" d="M-2.55046 3.11095C-2.0845 1.24435-1.04614 .36295 0 0-1.04614-.36295-2.0845-1.24435-2.55046-3.11095"/>
<path transform="matrix(1.0001,0,0,-1.00006,33.552858,299.69517)" stroke-width=".79701" stroke-linecap="butt" stroke-miterlimit="10" stroke-linejoin="miter" fill="none" stroke="#000000" d="M0 0V282.67109"/>
<path transform="matrix(0,-1.00006,-1.0001,-0,33.552858,16.608613)" stroke-width=".79701" stroke-linecap="round" stroke-linejoin="round" fill="none" stroke="#000000" d="M-2.55046 3.11095C-2.0845 1.24435-1.04614 .36295 0 0-1.04614-.36295-2.0845-1.24435-2.55046-3.11095"/>
<use data-text="N" xlink:href="#font_1_76" transform="matrix(7.970897,0,0,-7.9705779,127.14022,331.48109)"/>
<use data-text="u" xlink:href="#font_1_109" transform="matrix(7.970897,0,0,-7.9705779,134.75243,331.48109)"/>
<use data-text="m" xlink:href="#font_1_75" transform="matrix(7.970897,0,0,-7.9705779,140.18062,331.48109)"/>
<use data-text="b" xlink:href="#font_1_35" transform="matrix(7.970897,0,0,-7.9705779,148.04788,331.48109)"/>
<use data-text="e" xlink:href="#font_1_50" transform="matrix(7.970897,0,0,-7.9705779,153.7391,331.48109)"/>
<use data-text="r" xlink:href="#font_1_96" transform="matrix(7.970897,0,0,-7.9705779,158.21079,331.48109)"/>
<use data-text="o" xlink:href="#font_1_81" transform="matrix(7.970897,0,0,-7.9705779,165.49617,331.48109)"/>
<use data-text="f" xlink:href="#font_1_55" transform="matrix(7.970897,0,0,-7.9705779,170.38233,331.48109)"/>
<use data-text="F" xlink:href="#font_1_54" transform="matrix(7.970897,0,0,-7.9705779,176.61557,331.48109)"/>
<use data-text="r" xlink:href="#font_1_96" transform="matrix(7.970897,0,0,-7.9705779,181.94014,331.48109)"/>
<use data-text="u" xlink:href="#font_1_109" transform="matrix(7.970897,0,0,-7.9705779,185.97342,331.48109)"/>
<use data-text="i" xlink:href="#font_1_66" transform="matrix(7.970897,0,0,-7.9705779,191.4016,331.48109)"/>
<use data-text="t" xlink:href="#font_1_105" transform="matrix(7.970897,0,0,-7.9705779,194.11171,331.48109)"/>
<use data-text="s" xlink:href="#font_1_98" transform="matrix(7.970897,0,0,-7.9705779,197.90586,331.48109)"/>
<use data-text="S" xlink:href="#font_1_97" transform="matrix(7.970897,0,0,-7.9705779,204.99996,331.48109)"/>
<use data-text="o" xlink:href="#font_1_81" transform="matrix(7.970897,0,0,-7.9705779,210.42815,331.48109)"/>
<use data-text="l" xlink:href="#font_1_72" transform="matrix(7.970897,0,0,-7.9705779,215.3143,331.48109)"/>
<use data-text="d" xlink:href="#font_1_47" transform="matrix(7.970897,0,0,-7.9705779,218.02442,331.48109)"/>
<use data-text="F" xlink:href="#font_1_54" transform="matrix(0,-7.9705779,-7.970897,-0,7.196228,181.57907)"/>
<use data-text="r" xlink:href="#font_1_96" transform="matrix(0,-7.9705779,-7.970897,-0,7.196228,176.2627)"/>
<use data-text="e" xlink:href="#font_1_50" transform="matrix(0,-7.9705779,-7.970897,-0,7.196228,172.2296)"/>
<use data-text="q" xlink:href="#font_1_91" transform="matrix(0,-7.9705779,-7.970897,-0,7.196228,167.7581)"/>
<use data-text="u" xlink:href="#font_1_109" transform="matrix(0,-7.9705779,-7.970897,-0,7.196228,162.60114)"/>
<use data-text="e" xlink:href="#font_1_50" transform="matrix(0,-7.9705779,-7.970897,-0,7.196228,157.17316)"/>
<use data-text="n" xlink:href="#font_1_77" transform="matrix(0,-7.9705779,-7.970897,-0,7.196228,152.70168)"/>
<use data-text="c" xlink:href="#font_1_43" transform="matrix(0,-7.9705779,-7.970897,-0,7.196228,147.2737)"/>
<use data-text="y" xlink:href="#font_1_118" transform="matrix(0,-7.9705779,-7.970897,-0,7.196228,142.9377)"/>
<use data-text="(" xlink:href="#font_1_85" transform="matrix(0,-7.9705779,-7.970897,-0,7.196228,134.5367)"/>
<use data-text="D" xlink:href="#font_1_46" transform="matrix(0,-7.9705779,-7.970897,-0,7.196228,130.7427)"/>
<use data-text="a" xlink:href="#font_1_28" transform="matrix(0,-7.9705779,-7.970897,-0,7.196228,123.26631)"/>
<use data-text="y" xlink:href="#font_1_118" transform="matrix(0,-7.9705779,-7.970897,-0,7.196228,118.77887)"/>
<use data-text="s" xlink:href="#font_1_98" transform="matrix(0,-7.9705779,-7.970897,-0,7.196228,113.6219)"/>
<use data-text=")" xlink:href="#font_1_86" transform="matrix(0,-7.9705779,-7.970897,-0,7.196228,109.77211)"/>
<use data-text="1" xlink:href="#font_2_82" transform="matrix(9.963596,0,0,-9.963197,56.920194,318.3553)"/>
<use data-text="0" xlink:href="#font_2_121" transform="matrix(9.963596,0,0,-9.963197,61.90199,318.3553)"/>
<use data-text="2" xlink:href="#font_2_107" transform="matrix(9.963596,0,0,-9.963197,85.270038,318.3553)"/>
<use data-text="0" xlink:href="#font_2_121" transform="matrix(9.963596,0,0,-9.963197,90.25183,318.3553)"/>
<use data-text="3" xlink:href="#font_2_106" transform="matrix(9.963596,0,0,-9.963197,113.619869,318.3553)"/>
<use data-text="0" xlink:href="#font_2_121" transform="matrix(9.963596,0,0,-9.963197,118.60166,318.3553)"/>
<use data-text="4" xlink:href="#font_2_57" transform="matrix(9.963596,0,0,-9.963197,141.9697,318.46528)"/>
<use data-text="0" xlink:href="#font_2_121" transform="matrix(9.963596,0,0,-9.963197,146.95149,318.46528)"/>
<use data-text="5" xlink:href="#font_2_56" transform="matrix(9.963596,0,0,-9.963197,170.31954,318.3553)"/>
<use data-text="0" xlink:href="#font_2_121" transform="matrix(9.963596,0,0,-9.963197,175.30133,318.3553)"/>
<use data-text="6" xlink:href="#font_2_101" transform="matrix(9.963596,0,0,-9.963197,198.66837,318.3553)"/>
<use data-text="0" xlink:href="#font_2_121" transform="matrix(9.963596,0,0,-9.963197,203.65016,318.3553)"/>
<use data-text="7" xlink:href="#font_2_100" transform="matrix(9.963596,0,0,-9.963197,227.0182,318.4553)"/>
<use data-text="0" xlink:href="#font_2_121" transform="matrix(9.963596,0,0,-9.963197,232,318.4553)"/>
<use data-text="0" xlink:href="#font_2_121" transform="matrix(9.963596,0,0,-9.963197,16.546158,302.90336)"/>
<use data-text="3" xlink:href="#font_2_106" transform="matrix(9.963596,0,0,-9.963197,16.546158,246.20595)"/>
<use data-text="6" xlink:href="#font_2_101" transform="matrix(9.963596,0,0,-9.963197,16.546158,189.50955)"/>
<use data-text="9" xlink:href="#font_2_78" transform="matrix(9.963596,0,0,-9.963197,16.546158,132.81215)"/>
<use data-text="1" xlink:href="#font_2_82" transform="matrix(9.963596,0,0,-9.963197,11.56366,76.22476)"/>
<use data-text="2" xlink:href="#font_2_107" transform="matrix(9.963596,0,0,-9.963197,16.545456,76.22476)"/>
<use data-text="1" xlink:href="#font_2_82" transform="matrix(9.963596,0,0,-9.963197,11.56366,19.418335)"/>
<use data-text="5" xlink:href="#font_2_56" transform="matrix(9.963596,0,0,-9.963197,16.545456,19.418335)"/>
<path transform="matrix(1.0001,0,0,-1.00006,33.552858,299.69517)" d="M28.3468 0V56.69362H56.69362V0ZM56.69362 56.69362" fill="#6666ff"/>
<path transform="matrix(1.0001,0,0,-1.00006,33.552858,299.69517)" stroke-width=".3985" stroke-linecap="butt" stroke-miterlimit="10" stroke-linejoin="miter" fill="none" stroke="#000000" d="M28.3468 0V56.69362H56.69362V0ZM56.69362 56.69362"/>
<path transform="matrix(1.0001,0,0,-1.00006,33.552858,299.69517)" d="M56.69362 0V132.37953H85.04042V0ZM85.04042 132.37953" fill="#6666ff"/>
<path transform="matrix(1.0001,0,0,-1.00006,33.552858,299.69517)" stroke-width=".3985" stroke-linecap="butt" stroke-miterlimit="10" stroke-linejoin="miter" fill="none" stroke="#000000" d="M56.69362 0V132.37953H85.04042V0ZM85.04042 132.37953"/>
<path transform="matrix(1.0001,0,0,-1.00006,33.552858,299.69517)" d="M85.04042 0V226.77448H113.38724V0ZM113.38724 226.77448" fill="#6666ff"/>
<path transform="matrix(1.0001,0,0,-1.00006,33.552858,299.69517)" stroke-width=".3985" stroke-linecap="butt" stroke-miterlimit="10" stroke-linejoin="miter" fill="none" stroke="#000000" d="M85.04042 0V226.77448H113.38724V0ZM113.38724 226.77448"/>
<path transform="matrix(1.0001,0,0,-1.00006,33.552858,299.69517)" d="M113.38724 0V283.4681H141.73404V0ZM141.73404 283.4681" fill="#6666ff"/>
<path transform="matrix(1.0001,0,0,-1.00006,33.552858,299.69517)" stroke-width=".3985" stroke-linecap="butt" stroke-miterlimit="10" stroke-linejoin="miter" fill="none" stroke="#000000" d="M113.38724 0V283.4681H141.73404V0ZM141.73404 283.4681"/>
<path transform="matrix(1.0001,0,0,-1.00006,33.552858,299.69517)" d="M141.73404 0V151.08853H170.08086V0ZM170.08086 151.08853" fill="#6666ff"/>
<path transform="matrix(1.0001,0,0,-1.00006,33.552858,299.69517)" stroke-width=".3985" stroke-linecap="butt" stroke-miterlimit="10" stroke-linejoin="miter" fill="none" stroke="#000000" d="M141.73404 0V151.08853H170.08086V0ZM170.08086 151.08853"/>
<path transform="matrix(1.0001,0,0,-1.00006,33.552858,299.69517)" d="M170.08086 0V94.39491H198.42766V0ZM198.42766 94.39491" fill="#6666ff"/>
<path transform="matrix(1.0001,0,0,-1.00006,33.552858,299.69517)" stroke-width=".3985" stroke-linecap="butt" stroke-miterlimit="10" stroke-linejoin="miter" fill="none" stroke="#000000" d="M170.08086 0V94.39491H198.42766V0ZM198.42766 94.39491"/>
<use data-text="H" xlink:href="#font_3_62" transform="matrix(11.956396,0,0,-11.955917,39.970499,10.286804)"/>
<use data-text="i" xlink:href="#font_3_66" transform="matrix(11.956396,0,0,-11.955917,50.492128,10.286804)"/>
<use data-text="s" xlink:href="#font_3_98" transform="matrix(11.956396,0,0,-11.955917,54.23448,10.286804)"/>
<use data-text="t" xlink:href="#font_3_105" transform="matrix(11.956396,0,0,-11.955917,59.543107,10.286804)"/>
<use data-text="o" xlink:href="#font_3_81" transform="matrix(11.956396,0,0,-11.955917,64.780017,10.286804)"/>
<use data-text="g" xlink:href="#font_3_59" transform="matrix(11.956396,0,0,-11.955917,71.51146,10.286804)"/>
<use data-text="r" xlink:href="#font_3_96" transform="matrix(11.956396,0,0,-11.955917,78.242908,10.286804)"/>
<use data-text="a" xlink:href="#font_3_28" transform="matrix(11.956396,0,0,-11.955917,83.74284,10.286804)"/>
<use data-text="m" xlink:href="#font_3_75" transform="matrix(11.956396,0,0,-11.955917,90.28299,10.286804)"/>
<use data-text="o" xlink:href="#font_3_81" transform="matrix(11.956396,0,0,-11.955917,105.96979,10.286804)"/>
<use data-text="f" xlink:href="#font_3_55" transform="matrix(11.956396,0,0,-11.955917,112.70123,10.286804)"/>
<use data-text="N" xlink:href="#font_3_76" transform="matrix(11.956396,0,0,-11.955917,121.29788,10.286804)"/>
<use data-text="u" xlink:href="#font_3_109" transform="matrix(11.956396,0,0,-11.955917,131.8195,10.286804)"/>
<use data-text="m" xlink:href="#font_3_75" transform="matrix(11.956396,0,0,-11.955917,139.29225,10.286804)"/>
<use data-text="b" xlink:href="#font_3_35" transform="matrix(11.956396,0,0,-11.955917,150.14865,10.286804)"/>
<use data-text="e" xlink:href="#font_3_50" transform="matrix(11.956396,0,0,-11.955917,157.98009,10.286804)"/>
<use data-text="r" xlink:href="#font_3_96" transform="matrix(11.956396,0,0,-11.955917,164.11373,10.286804)"/>
<use data-text="o" xlink:href="#font_3_81" transform="matrix(11.956396,0,0,-11.955917,174.0973,10.286804)"/>
<use data-text="f" xlink:href="#font_3_55" transform="matrix(11.956396,0,0,-11.955917,180.82877,10.286804)"/>
<use data-text="F" xlink:href="#font_3_54" transform="matrix(11.956396,0,0,-11.955917,189.42542,10.286804)"/>
<use data-text="r" xlink:href="#font_3_96" transform="matrix(11.956396,0,0,-11.955917,196.76663,10.286804)"/>
<use data-text="u" xlink:href="#font_3_109" transform="matrix(11.956396,0,0,-11.955917,202.26657,10.286804)"/>
<use data-text="i" xlink:href="#font_3_66" transform="matrix(11.956396,0,0,-11.955917,209.73932,10.286804)"/>
<use data-text="t" xlink:href="#font_3_105" transform="matrix(11.956396,0,0,-11.955917,213.48166,10.286804)"/>
<use data-text="s" xlink:href="#font_3_98" transform="matrix(11.956396,0,0,-11.955917,218.71857,10.286804)"/>
<use data-text="S" xlink:href="#font_3_97" transform="matrix(11.956396,0,0,-11.955917,228.4989,10.286804)"/>
<use data-text="o" xlink:href="#font_3_81" transform="matrix(11.956396,0,0,-11.955917,235.97168,10.286804)"/>
<use data-text="l" xlink:href="#font_3_72" transform="matrix(11.956396,0,0,-11.955917,242.70313,10.286804)"/>
<use data-text="d" xlink:href="#font_3_47" transform="matrix(11.956396,0,0,-11.955917,246.44547,10.286804)"/>
</svg>
