<svg xmlns="http://www.w3.org/2000/svg" xmlns:xlink="http://www.w3.org/1999/xlink" xmlns:inkscape="http://www.inkscape.org/namespaces/inkscape" version="1.1" width="296" height="170" viewBox="0 0 296 170">
<defs>
<path id="font_1_51" d="M.526001 .1875C.526001 .29545594 .44198609 .3424225 .3929901 .3704071 .46299745 .40638734 .49398805 .45036317 .49398805 .5083313 .49398805 .61027529 .40299989 .65527346 .2889862 .65527346 .1499939 .65527346 .07998657 .57629397 .07998657 .48034669 .07998657 .43637086 .09799194 .3734131 .17599488 .32943727 .09199524 .29244996 .04798889 .23548889 .04798889 .16145325 .04798889 .040267946 .1559906-.0107421879 .2849884-.0107421879 .44499208-.0107421879 .526001 .077316287 .526001 .1875M.4189911 .5073242C.4189911 .45835877 .3929901 .42437745 .34899903 .395401L.19898987 .4793396C.18299866 .4883423 .15499878 .5053253 .15499878 .53930667 .15499878 .6092682 .24499512 .616272 .2849884 .616272 .36898805 .616272 .4189911 .57528689 .4189911 .5073242M.43998719 .13240052C.43998719 .04827881 .34599305 .03225708 .2889862 .03225708 .19099427 .03225708 .13398743 .08332825 .13398743 .16145325 .13398743 .2394867 .18699646 .28245545 .22200012 .30244447L.35899354 .2264862C.40299989 .20149231 .43998719 .18048096 .43998719 .13240052Z"/>
<path id="font_1_43" d="M.47799684 .117126468C.47799684 .13113404 .46398927 .13113404 .45399476 .13113404 .43598939 .13113404 .43499757 .12913513 .42999269 .11613464 .4039917 .053131105 .35598756 .03413391 .30499269 .03413391 .1659851 .03413391 .1659851 .18112183 .1659851 .22712708 .1659851 .28312684 .1659851 .41311646 .29499818 .41311646 .32998658 .41311646 .34700013 .41011048 .3600006 .40711976 .34199525 .39111329 .33999635 .3701172 .33999635 .3611145 .33999635 .3171234 .375 .29811097 .4019928 .29811097 .43299867 .29811097 .46499635 .3191223 .46499635 .3611145 .46499635 .44711305 .34899903 .453125 .29100038 .453125 .11199951 .45314027 .037994386 .33813478 .037994386 .22213745 .037994386 .08912659 .13198853-.005859375 .28599549-.005859375 .44799806-.005859375 .47799684 .11013794 .47799684 .117126468Z"/>
<path id="font_1_75" d="M.93499758 0V.04699707H.8659973V.30613709C.8659973 .40919496 .8149872 .4501953 .71199038 .4501953 .62098696 .4501953 .56900027 .40019227 .54299929 .3541565 .522995 .44718934 .43099977 .4501953 .3929901 .4501953 .30599977 .4501953 .24899292 .40518189 .21699524 .3421631V.4501953L.04499817 .4423828V.39537049C.10699463 .39537049 .11399841 .39537049 .11399841 .3563385V.04699707H.04499817V0L.17098999 .0029907227 .29699708 0V.04699707H.22799683V.2562256C.22799683 .3653412 .31498719 .41436769 .3769989 .41436769 .41099549 .41436769 .43299867 .39437867 .43299867 .31729127V.04699707H.3639984V0L.48999024 .0029907227 .6159973 0V.04699707H.5469971V.2562256C.5469971 .3653412 .6339874 .41436769 .69599917 .41436769 .7299957 .41436769 .7519989 .39437867 .7519989 .31729127V.04699707H.68299868V0L.8089905 .0029907227 .93499758 0Z"/>
<path id="font_1_57" d="M.5419922 0V.04699707H.44499208V.15611267H.5419922V.203125H.44499208V.62423709C.44499208 .6512451 .44299317 .65625 .4149933 .65625 .3939972 .65625 .3929901 .6552429 .3809967 .6402283L.03199768 .203125V.15611267H.31999208V.04699707H.20799256V0C.24598694 .0029907227 .33699037 .0029907227 .37998963 .0029907227 .41999818 .0029907227 .5069885 .0029907227 .5419922 0M.33099366 .203125H.083999637L.33099366 .51319888V.203125Z"/>
</defs>
<path transform="matrix(1.00003,0,0,-1.00005,25.10231,157.9111)" d="M0 0H226.77448V113.38724H0Z" fill="#b3b3ff"/>
<path transform="matrix(1.00003,0,0,-1.00005,25.10231,157.9111)" d="M42.5202 42.5202H269.29469V155.90744H42.5202Z" fill="#b3b3ff"/>
<path transform="matrix(1.00003,0,0,-1.00005,25.10231,157.9111)" d="M0 0 42.5202 42.5202V155.90744L0 113.38724Z" fill="#b3b3ff"/>
<path transform="matrix(1.00003,0,0,-1.00005,25.10231,157.9111)" stroke-width=".79701" stroke-linecap="butt" stroke-miterlimit="10" stroke-linejoin="miter" fill="none" stroke="#000000" d="M0 0H226.77448V113.38724H0Z"/>
<path transform="matrix(1.00003,0,0,-1.00005,25.10231,157.9111)" stroke-width=".79701" stroke-linecap="butt" stroke-miterlimit="10" stroke-linejoin="miter" fill="none" stroke="#000000" d="M0 0 42.5202 42.5202"/>
<path transform="matrix(1.00003,0,0,-1.00005,25.10231,157.9111)" stroke-width=".79701" stroke-linecap="butt" stroke-miterlimit="10" stroke-linejoin="miter" fill="none" stroke="#000000" d="M226.77448 0 269.29469 42.5202"/>
<path transform="matrix(1.00003,0,0,-1.00005,25.10231,157.9111)" stroke-width=".79701" stroke-linecap="butt" stroke-miterlimit="10" stroke-linejoin="miter" fill="none" stroke="#000000" d="M226.77448 113.38724 269.29469 155.90744"/>
<path transform="matrix(1.00003,0,0,-1.00005,25.10231,157.9111)" stroke-width=".79701" stroke-linecap="butt" stroke-miterlimit="10" stroke-linejoin="miter" fill="none" stroke="#000000" d="M0 113.38724 42.5202 155.90744"/>
<path transform="matrix(1.00003,0,0,-1.00005,25.10231,157.9111)" stroke-width=".79701" stroke-linecap="butt" stroke-miterlimit="10" stroke-linejoin="miter" fill="none" stroke="#000000" d="M42.5202 42.5202H269.29469V155.90744H42.5202Z"/>
<path transform="matrix(1.00003,0,0,-1.00005,25.10231,157.9111)" stroke-width=".79701" stroke-linecap="butt" stroke-dasharray="2.98883,2.98883" stroke-miterlimit="10" stroke-linejoin="miter" fill="none" stroke="#000000" d="M42.5202 42.5202V155.90744"/>
<path transform="matrix(1.00003,0,0,-1.00005,25.10231,157.9111)" stroke-width=".79701" stroke-linecap="butt" stroke-dasharray="2.98883,2.98883" stroke-miterlimit="10" stroke-linejoin="miter" fill="none" stroke="#000000" d="M269.29469 42.5202V155.90744"/>
<use data-text="8" xlink:href="#font_1_51" transform="matrix(9.962899,0,0,-9.963098,126.40235,167.9566)"/>
<use data-text="c" xlink:href="#font_1_43" transform="matrix(9.962899,0,0,-9.963098,135.93683,167.9566)"/>
<use data-text="m" xlink:href="#font_1_75" transform="matrix(9.962899,0,0,-9.963098,141.02788,167.9566)"/>
<use data-text="4" xlink:href="#font_1_57" transform="matrix(9.962899,0,0,-9.963098,1.2175903,104.45243)"/>
<use data-text="c" xlink:href="#font_1_43" transform="matrix(9.962899,0,0,-9.963098,6.946251,104.45243)"/>
<use data-text="m" xlink:href="#font_1_75" transform="matrix(9.962899,0,0,-9.963098,12.0372929,104.45243)"/>
<use data-text="4" xlink:href="#font_1_57" transform="matrix(9.962899,0,0,-9.963098,55.533227,69.286678)"/>
<use data-text="c" xlink:href="#font_1_43" transform="matrix(9.962899,0,0,-9.963098,65.06771,69.286678)"/>
<use data-text="m" xlink:href="#font_1_75" transform="matrix(9.962899,0,0,-9.963098,70.15875,69.286678)"/>
</svg>
