<svg xmlns="http://www.w3.org/2000/svg" xmlns:xlink="http://www.w3.org/1999/xlink" xmlns:inkscape="http://www.inkscape.org/namespaces/inkscape" version="1.1" width="400" height="278" viewBox="0 0 400 278">
<defs>
<path id="font_1_104" d="M.68499758 .45214845 .66600039 .6767578H.054992677L.035995485 .45214845H.06098938C.07499695 .6128235 .08999634 .64575198 .24099732 .64575198 .25898744 .64575198 .2849884 .64575198 .29499818 .64375308 .31599427 .6397705 .31599427 .6287842 .31599427 .60583499V.07901001C.31599427 .04499817 .31599427 .0309906 .21099854 .0309906H.17098999V0C.21199036 .0029907227 .31399537 .0029907227 .3600006 .0029907227 .4059906 .0029907227 .5089874 .0029907227 .5499878 0V.0309906H.5099945C.40499879 .0309906 .40499879 .04499817 .40499879 .07901001V.60583499C.40499879 .62579348 .40499879 .6397705 .4229889 .64375308 .43399049 .64575198 .46099855 .64575198 .47999574 .64575198 .6309967 .64575198 .6459961 .6128235 .6599884 .45214845H.68499758Z"/>
<path id="font_1_66" d="M.24699402 0V.0309906C.18099976 .0309906 .1769867 .035995485 .1769867 .075042728V.4423828L.036987306 .43066407V.3996582C.101989749 .3996582 .11099243 .3936615 .11099243 .3447113V.07595825C.11099243 .0309906 .099990848 .0309906 .032989503 .0309906V0L.14299011 .0029907227C.17799378 .0029907227 .21299744 .0009918213 .24699402 0M.19198609 .603775C.19198609 .6307678 .16899109 .6567688 .13899231 .6567688 .10499573 .6567688 .084991458 .6287689 .084991458 .603775 .084991458 .57676699 .10798645 .55078127 .13798523 .55078127 .17199707 .55078127 .19198609 .5787811 .19198609 .603775Z"/>
<path id="font_1_75" d="M.8129883 0V.0309906C.7609863 .0309906 .73599246 .0309906 .7350006 .061019899V.25221253C.7350006 .3383026 .7350006 .36932374 .70399478 .405365 .6899872 .42237855 .6569977 .4423828 .598999 .4423828 .5149994 .4423828 .47099305 .38233949 .45399476 .34429933 .43998719 .43138124 .3659973 .4423828 .32099916 .4423828 .24798584 .4423828 .20098877 .39935304 .17298889 .33729554V.4423828L.03199768 .43066407V.3996582C.101989749 .3996582 .10998535 .39266969 .10998535 .34370423V.07595825C.10998535 .0309906 .09899902 .0309906 .03199768 .0309906V0L.14498902 .0029907227 .25698854 0V.0309906C.18998719 .0309906 .1789856 .0309906 .1789856 .07595825V.25978089C.1789856 .36431886 .25 .42037965 .31399537 .42037965 .3769989 .42037965 .3880005 .36631776 .3880005 .30926515V.076034549C.3880005 .0309906 .3769989 .0309906 .30999757 .0309906V0L.4229889 .0029907227 .5349884 0V.0309906C.46798707 .0309906 .45700074 .0309906 .45700074 .076034549V.2602234C.45700074 .36431886 .5279999 .42037965 .59199526 .42037965 .6549988 .42037965 .66600039 .36631776 .66600039 .30926515V.076034549C.66600039 .0309906 .6549988 .0309906 .58799746 .0309906V0L.70098879 .0029907227 .8129883 0Z"/>
<path id="font_1_50" d="M.4149933 .11933899C.4149933 .12934876 .40699769 .13134766 .4019928 .13134766 .3929901 .13134766 .3909912 .12535095 .3889923 .11734009 .35398866 .014251709 .2639923 .014251709 .2539978 .014251709 .20399475 .014251709 .1639862 .044281007 .14099121 .08131409 .11099243 .12934876 .11099243 .19540406 .11099243 .23144531H.3899994C.4119873 .23144531 .4149933 .23144531 .4149933 .2524414 .4149933 .35131837 .36099244 .4482422 .23599243 .4482422 .11999512 .4482422 .027999878 .34532167 .027999878 .22042847 .027999878 .08631897 .1329956-.0107421879 .24798584-.0107421879 .36999513-.0107421879 .4149933 .10032654 .4149933 .11933899M.34899903 .2524414H.11199951C.117996219 .40126039 .20199585 .426239 .23599243 .426239 .33898927 .426239 .34899903 .2913971 .34899903 .2524414Z"/>
<path id="font_1_85" d="M.33099366-.2400055C.33099366-.23701477 .33099366-.23500061 .31399537-.21800232 .18899536-.0920105 .15699768 .09700012 .15699768 .25 .15699768 .42399598 .19499207 .59799197 .31799317 .72299197 .33099366 .7350006 .33099366 .7369995 .33099366 .73999026 .33099366 .746994 .32699586 .75 .32099916 .75 .31098939 .75 .22099304 .6819916 .1619873 .5549927 .11099243 .44499208 .09899902 .33399964 .09899902 .25 .09899902 .17199707 .10998535 .050994874 .16499329-.06201172 .22499085-.18501282 .31098939-.25 .32099916-.25 .32699586-.25 .33099366-.24700928 .33099366-.2400055Z"/>
<path id="font_1_98" d="M.3600006 .12823487C.3600006 .18122864 .32998658 .21122742 .31799317 .22323609 .2849884 .25523377 .24598694 .26322938 .20399475 .27124024 .147995 .28224183 .08099365 .29522706 .08099365 .35324098 .08099365 .38822938 .10699463 .42922975 .19299317 .42922975 .30299378 .42922975 .30799867 .3392334 .30999757 .30822755 .31098939 .2992401 .32199098 .2992401 .32199098 .2992401 .33499146 .2992401 .33499146 .30422975 .33499146 .32322694V.4242401C.33499146 .4412384 .33499146 .4482422 .32398988 .4482422 .31900025 .4482422 .31698609 .4482422 .3039856 .43623353 .30099488 .43223573 .29100038 .42323304 .2869873 .42022706 .24899292 .4482422 .20799256 .4482422 .19299317 .4482422 .070999149 .4482422 .032989503 .38124085 .032989503 .3252411 .032989503 .29023744 .04899597 .26223756 .07598877 .24023438 .10798645 .2142334 .13598633 .2082367 .20799256 .19422913 .22999573 .19021607 .31199647 .17422486 .31199647 .10221863 .31199647 .051223756 .2769928 .011245728 .19898987 .011245728 .114990238 .011245728 .07899475 .068222049 .05999756 .1532135 .056991579 .16621399 .055999757 .17021179 .04598999 .17021179 .032989503 .17021179 .032989503 .16322327 .032989503 .1452179V.013214111C.032989503-.003753662 .032989503-.0107421879 .04399109-.0107421879 .04899597-.0107421879 .049987794-.009750366 .068984989 .009246826 .070999149 .011245728 .070999149 .013214111 .08898926 .032226564 .1329956-.009750366 .17799378-.0107421879 .19898987-.0107421879 .31399537-.0107421879 .3600006 .05621338 .3600006 .1282196V.12823487Z"/>
<path id="font_1_86" d="M.2889862 .25C.2889862 .32798768 .27799989 .44898988 .22299195 .56199648 .16299439 .68499758 .07699585 .75 .066986087 .75 .06098938 .75 .056991579 .74598696 .056991579 .73999026 .056991579 .7369995 .056991579 .7350006 .07598877 .71699526 .17399597 .6179962 .23098755 .45899964 .23098755 .25 .23098755 .07899475 .19400025-.09700012 .069992069-.2230072 .056991579-.23500061 .056991579-.23701477 .056991579-.2400055 .056991579-.2460022 .06098938-.25 .066986087-.25 .07699585-.25 .16699219-.18200684 .22599793-.055007936 .2769928 .054992677 .2889862 .16600037 .2889862 .25Z"/>
<path id="font_1_46" d="M.70700076 .33580018C.70700076 .52568057 .57199099 .6826172 .40098573 .6826172H.034988405V.6516113H.05899048C.13598633 .6516113 .13798523 .64060977 .13798523 .6046295V.07795715C.13798523 .041992189 .13598633 .0309906 .05899048 .0309906H.034988405V0H.40098573C.56900027 0 .70700076 .1479187 .70700076 .33580018M.6069946 .33580018C.6069946 .22486878 .58799746 .16490174 .5519867 .11593628 .5319977 .08895874 .47499085 .0309906 .37399293 .0309906H.272995C.22599793 .0309906 .22399903 .037994386 .22399903 .07096863V.6116333C.22399903 .64460757 .22599793 .6516113 .272995 .6516113H.37298585C.43499757 .6516113 .5039978 .6296234 .5549927 .55867007 .59799197 .49969483 .6069946 .41375733 .6069946 .33580018Z"/>
<path id="font_1_84" d="M.5209961 .21636963C.5209961 .34336854 .42399598 .4423828 .31199647 .4423828 .23399353 .4423828 .19198609 .39837647 .17199707 .3763733V.4423828L.027999878 .43066407V.3996582C.09899902 .3996582 .10598755 .3936615 .10598755 .34973146V-.117996219C.10598755-.16308594 .09498596-.16308594 .027999878-.16308594V-.1940918L.13999939-.19110108 .25299073-.1940918V-.16308594C.18598938-.16308594 .1749878-.16308594 .1749878-.117996219V.050186159 .059173585C.17999268 .04319763 .22200012-.0107421879 .2979889-.0107421879 .4169922-.0107421879 .5209961 .087127689 .5209961 .21594239V.21636963M.43798829 .21594239C.43798829 .09512329 .36799623 .011245728 .2939911 .011245728 .2539978 .011245728 .21598816 .031219483 .18899536 .07215881 .1749878 .09312439 .1749878 .09411621 .1749878 .114089969V.33674623C.20399475 .38838197 .25299073 .41737367 .3039856 .41737367 .3769989 .41737367 .43798829 .32937623 .43798829 .21636963V.21594239Z"/>
<path id="font_1_72" d="M.25498963 0V.0309906C.18798828 .0309906 .1769867 .0309906 .1769867 .07601929V.69433596L.032989503 .6826172V.6516113C.102996829 .6516113 .11099243 .64460757 .11099243 .5956421V.07595825C.11099243 .0309906 .099990848 .0309906 .032989503 .0309906V0L.14399719 .0029907227 .25498963 0Z"/>
<path id="font_1_28" d="M.48298646 .08912659V.14511109H.45799256V.08912659C.45799256 .03112793 .43299867 .025131226 .42199708 .025131226 .3889923 .025131226 .3849945 .070129398 .3849945 .07511902V.27508546C.3849945 .31707765 .3849945 .3560791 .34899903 .39312745 .30999757 .43223573 .2599945 .4482422 .21199036 .4482422 .12998963 .4482422 .06098938 .40115357 .06098938 .335083 .06098938 .30508424 .08099365 .28808595 .10699463 .28808595 .1349945 .28808595 .15299988 .30807496 .15299988 .33407594 .15299988 .3460846 .147995 .37908937 .101989749 .38008119 .1289978 .41519166 .17799378 .426239 .20999146 .426239 .25898744 .426239 .31599427 .38710023 .31599427 .29808045V.26107789C.2649994 .25808717 .19499207 .25508119 .13198853 .22509766 .056991579 .19110108 .03199768 .13911438 .03199768 .09512329 .03199768 .014251709 .1289978-.0107421879 .19198609-.0107421879 .2579956-.0107421879 .3039856 .029251099 .32299806 .07624817 .32699586 .036132814 .35398866-.005859375 .40098573-.005859375 .42199708-.005859375 .48298646 .008132935 .48298646 .08912659M.31599427 .14013672C.31599427 .04525757 .24398804 .011245728 .19898987 .011245728 .1499939 .011245728 .10899353 .04624939 .10899353 .09625244 .10899353 .15124512 .15098572 .23425293 .31599427 .24024964V.14013672Z"/>
<path id="font_1_43" d="M.4149933 .119140628C.4149933 .12911988 .40499879 .12911988 .4019928 .12911988 .3929901 .12911988 .3909912 .12512207 .3889923 .119140628 .3600006 .026229859 .29499818 .014251709 .2579956 .014251709 .20498657 .014251709 .116989139 .0572052 .116989139 .21801758 .116989139 .38093568 .19898987 .42323304 .2519989 .42323304 .26098634 .42323304 .32398988 .42222596 .35899354 .38594056 .31799317 .38293458 .31199647 .3529358 .31199647 .3399353 .31199647 .31393434 .32998658 .2939453 .35798646 .2939453 .38398744 .2939453 .4039917 .3109436 .4039917 .34094239 .4039917 .40911866 .32798768 .4482422 .25099183 .4482422 .12599182 .4482422 .033996583 .3399353 .033996583 .21601868 .033996583 .08816528 .1329956-.0107421879 .24899292-.0107421879 .3829956-.0107421879 .4149933 .10914612 .4149933 .119140628Z"/>
<path id="font_1_77" d="M.5349884 0V.0309906C.48298646 .0309906 .45799256 .0309906 .45700074 .061019899V.25221253C.45700074 .3383026 .45700074 .36932374 .42599488 .405365 .4119873 .42237855 .3789978 .4423828 .32099916 .4423828 .24798584 .4423828 .20098877 .39935304 .17298889 .33729554V.4423828L.03199768 .43066407V.3996582C.101989749 .3996582 .10998535 .39266969 .10998535 .34370423V.07595825C.10998535 .0309906 .09899902 .0309906 .03199768 .0309906V0L.14498902 .0029907227 .25698854 0V.0309906C.18998719 .0309906 .1789856 .0309906 .1789856 .07595825V.25978089C.1789856 .36431886 .25 .42037965 .31399537 .42037965 .3769989 .42037965 .3880005 .36631776 .3880005 .30926515V.076034549C.3880005 .0309906 .3769989 .0309906 .30999757 .0309906V0L.4229889 .0029907227 .5349884 0Z"/>
<path id="font_1_105" d="M.33198548 .12385559V.18066406H.30699159V.12585449C.30699159 .052108766 .2769928 .014251709 .23999024 .014251709 .17298889 .014251709 .17298889 .10491943 .17298889 .12187195V.3996582H.31599427V.43066407H.17298889V.6142578H.147995C.14698792 .5324249 .116989139 .42565919 .018997193 .42166139V.3996582H.10398865V.12408447C.10398865 .0012512207 .19699097-.0107421879 .23298645-.0107421879 .3039856-.0107421879 .33198548 .060180665 .33198548 .12408447V.12385559Z"/>
<path id="font_1_107" d="M.44898988 .17396546H.42399598C.4189911 .14398194 .4119873 .099990848 .4019928 .084991458 .394989 .07699585 .32899476 .07699585 .30699159 .07699585H.1269989L.23298645 .17996216C.3889923 .31803895 .44898988 .37210084 .44898988 .47216798 .44898988 .5860901 .35899354 .6660156 .23699951 .6660156 .12399292 .6660156 .049987794 .57411196 .049987794 .48516847 .049987794 .4291687 .099990848 .4291687 .102996829 .4291687 .11999512 .4291687 .15499878 .44117738 .15499878 .48217774 .15499878 .5081787 .13699341 .5341797 .101989749 .5341797 .09399414 .5341797 .09199524 .5341797 .08898926 .5331726 .11199951 .59806826 .1659851 .63500979 .22399903 .63500979 .31498719 .63500979 .35798646 .5541382 .35798646 .47216798 .35798646 .39196778 .30799867 .31297303 .25299073 .25097657L.06098938 .036987306C.049987794 .025985718 .049987794 .023986817 .049987794 0H.42099L.44898988 .17396546Z"/>
<path id="font_1_57" d="M.47099305 .16503906V.19602967H.37098695V.6507721C.37098695 .6707611 .37098695 .6767578 .35499574 .6767578 .34599305 .6767578 .34298707 .6767578 .33499146 .6647644L.027999878 .19602967V.16503906H.2939911V.07800293C.2939911 .041992189 .2919922 .0309906 .21798706 .0309906H.19699097V0C.23799134 .0029907227 .2899933 .0029907227 .33198548 .0029907227 .37399293 .0029907227 .4269867 .0029907227 .46798707 0V.0309906H.44699098C.37298585 .0309906 .37098695 .041992189 .37098695 .07800293V.16503906H.47099305M.2999878 .19602967H.055999757L.2999878 .56881716V.19602967Z"/>
<path id="font_1_101" d="M.45700074 .2036438C.45700074 .33070375 .36799623 .4267578 .25698854 .4267578 .18899536 .4267578 .1519928 .37573243 .13198853 .327713V.35173036C.13198853 .6047821 .2559967 .64100649 .30699159 .64100649 .33099366 .64100649 .37298585 .634964 .394989 .6007538 .37998963 .6007538 .33999635 .6007538 .33999635 .5557556 .33999635 .524765 .3639984 .5097656 .38598634 .5097656 .4019928 .5097656 .43199159 .51875308 .43199159 .5577545 .43199159 .6178589 .3880005 .6660156 .30499269 .6660156 .1769867 .6660156 .041992189 .5367584 .041992189 .31570436 .041992189 .048553468 .1579895-.022460938 .25099183-.022460938 .3619995-.022460938 .45700074 .07156372 .45700074 .2036438M.36698915 .20463562C.36698915 .15661621 .36698915 .10658264 .34999085 .0705719 .31999208 .010528564 .27398683 .0055389406 .25099183 .0055389406 .18798828 .0055389406 .1579895 .06556702 .1519928 .080566409 .13398743 .127594 .13398743 .2076416 .13398743 .22564698 .13398743 .30369569 .1659851 .40374757 .2559967 .40374757 .27198792 .40374757 .31799317 .40374757 .34899903 .34172059 .36698915 .30470277 .36698915 .2536621 .36698915 .20463562Z"/>
<path id="font_1_51" d="M.45700074 .16764832C.45700074 .20367432 .44599916 .24871826 .4079895 .29074098 .3889923 .31176759 .37298585 .32176209 .30899049 .36180116 .3809967 .39881898 .42999269 .4508667 .42999269 .51690676 .42999269 .6089783 .34098817 .6660156 .25 .6660156 .1499939 .6660156 .068984989 .5919647 .068984989 .49890138 .068984989 .48088075 .070999149 .43585206 .11299133 .38882447 .12399292 .3768158 .16099549 .35179139 .18598938 .33477784 .12799073 .30575563 .041992189 .24971009 .041992189 .15063477 .041992189 .044555665 .14399719-.022460938 .24899292-.022460938 .3619995-.022460938 .45700074 .060577394 .45700074 .16764832M.38598634 .51690676C.38598634 .45986939 .34700013 .41183473 .2869873 .3768158L.16299439 .4568634C.116989139 .4868927 .11299133 .5209198 .11299133 .53793337 .11299133 .5989685 .17799378 .64100649 .24899292 .64100649 .32199098 .64100649 .38598634 .588974 .38598634 .51690676M.40699769 .13162232C.40699769 .05757141 .33198548 .0055389406 .25 .0055389406 .1639862 .0055389406 .09199524 .06758118 .09199524 .15063477 .09199524 .2086792 .12399292 .2727356 .20899964 .31976319L.33198548 .24171448C.3600006 .22268677 .40699769 .19267273 .40699769 .13162232Z"/>
<path id="font_1_82" d="M.4189911 0V.0309906H.3869934C.29699708 .0309906 .2939911 .041992189 .2939911 .07902527V.64012148C.2939911 .6640167 .2939911 .6660156 .2709961 .6660156 .20899964 .60227969 .12098694 .60227969 .08898926 .60227969V.57128909C.10899353 .57128909 .16799927 .57128909 .21998596 .5972748V.07902527C.21998596 .042999269 .21699524 .0309906 .1269989 .0309906H.09498596V0C.12998963 .0029907227 .21699524 .0029907227 .25698854 .0029907227 .29699708 .0029907227 .38398744 .0029907227 .4189911 0Z"/>
<path id="font_1_121" d="M.45999146 .31976319C.45999146 .39982606 .45498658 .47988893 .41999818 .5539398 .37399293 .65000918 .2919922 .6660156 .25 .6660156 .18998719 .6660156 .116989139 .64001467 .07598877 .54693606 .04399109 .47789 .038986207 .39982606 .038986207 .31976319 .038986207 .24472046 .042999269 .15464783 .083999637 .07859802 .1269989-.0024719239 .19999695-.022460938 .24899292-.022460938 .30299378-.022460938 .3789978-.0014648438 .4229889 .09359741 .45498658 .16265869 .45999146 .2407074 .45999146 .31976319M.3769989 .3317871C.3769989 .25672914 .3769989 .18867493 .3659973 .12461853 .35099793 .029556275 .2939911-.00047302247 .24899292-.00047302247 .20999146-.00047302247 .15098572 .024551392 .1329956 .12062073 .12199402 .18066406 .12199402 .2727356 .12199402 .3317871 .12199402 .39582826 .12199402 .46188355 .12998963 .5159149 .14898682 .63500979 .22399903 .64401248 .24899292 .64401248 .28199769 .64401248 .34799195 .6259918 .36698915 .52693179 .3769989 .47088624 .3769989 .39482118 .3769989 .3317871Z"/>
<path id="font_1_106" d="M.45700074 .17037964C.45700074 .252594 .3939972 .33088685 .2899933 .35191346 .37199403 .37893678 .42999269 .4490509 .42999269 .52809146 .42999269 .6100464 .34199525 .6660156 .24598694 .6660156 .14498902 .6660156 .068984989 .60606387 .068984989 .53009036 .068984989 .49710084 .09098816 .47808839 .11999512 .47808839 .15098572 .47808839 .17098999 .50009158 .17098999 .5290985 .17098999 .57910159 .12399292 .57910159 .10899353 .57910159 .13999939 .62802127 .20599365 .64100649 .24198914 .64100649 .2829895 .64100649 .33799745 .6190338 .33799745 .5290985 .33799745 .51708987 .33599855 .45906068 .30999757 .4149933 .27999879 .36691285 .24598694 .36390687 .22099304 .36291505 .21299744 .36190797 .18899536 .35990907 .18199158 .35990907 .17399597 .35890199 .16699219 .35791017 .16699219 .3479004 .16699219 .33691407 .17399597 .33691407 .19099427 .33691407H.23498535C.31698609 .33691407 .35398866 .2686615 .35398866 .17037964 .35398866 .034469606 .2849884 .0055389406 .24099732 .0055389406 .19799805 .0055389406 .12298584 .022491456 .08799744 .08137512 .12298584 .07637024 .1539917 .09837341 .1539917 .1363678 .1539917 .17237854 .1269989 .19238281 .09799194 .19238281 .07398987 .19238281 .041992189 .17837525 .041992189 .1343689 .041992189 .043441774 .1349945-.022460938 .24398804-.022460938 .3659973-.022460938 .45700074 .06838989 .45700074 .17037964Z"/>
<path id="font_1_56" d="M.44898988 .20091248C.44898988 .31991578 .36698915 .41992188 .25898744 .41992188 .21099854 .41992188 .16799927 .4039154 .13198853 .36891175V.5641022C.1519928 .55778506 .18499756 .55078127 .21699524 .55078127 .33999635 .55078127 .4099884 .6418457 .4099884 .65493777 .4099884 .6609802 .40699769 .6660156 .3999939 .6660156 .3999939 .66607668 .39698792 .66607668 .3919983 .66308596 .37199403 .65408328 .32299806 .63378909 .2559967 .63378909 .21598816 .63409426 .16999817 .641098 .12298584 .6621094 .114990238 .6651001 .11099243 .6651001 .11099243 .6651001 .100997928 .66508486 .100997928 .657074 .100997928 .64108279V.3447113C.100997928 .3266449 .100997928 .31861878 .114990238 .31861878 .12199402 .31861878 .12399292 .32164 .12799073 .32765199 .13899231 .34371949 .17599488 .3979187 .25698854 .3979187 .30899049 .3979187 .33399964 .3517456 .34199525 .3336792 .35798646 .2965393 .3600006 .2574005 .3600006 .20721436 .3600006 .17218018 .3600006 .112197879 .33599855 .07032776 .31199647 .031448366 .2749939 .0055389406 .22898865 .0055389406 .1559906 .0055389406 .09899902 .05836487 .08198547 .1171875 .084991458 .11685181 .08799744 .115859989 .09899902 .115859989 .13198853 .115859989 .14898682 .14085388 .14898682 .16485596 .14898682 .18885803 .13198853 .21386719 .09899902 .21386719 .084991458 .21386719 .049987794 .2068634 .049987794 .16085816 .049987794 .07432556 .11898804-.022460938 .23098755-.022460938 .34700013-.022460938 .44898988 .07331848 .44898988 .20019531V.20091248Z"/>
<path id="font_1_100" d="M.4850006 .6435547H.24198914C.11999512 .6435547 .117996219 .6566467 .11399841 .67578127H.08898926L.055999757 .46954347H.08099365C.083999637 .48554994 .09298706 .54855349 .10598755 .5605469 .11299133 .5665436 .19099427 .5665436 .20399475 .5665436H.41099549L.29899598 .40853883C.20899964 .2735443 .17599488 .13453675 .17599488 .03253174 .17599488 .022537232 .17599488-.022460938 .22200012-.022460938 .2679901-.022460938 .2679901 .022537232 .2679901 .03253174V.08354187C.2679901 .13853455 .2709961 .19354248 .2789917 .24754334 .2829895 .27053834 .29699708 .35653688 .34098817 .41854859L.47599793 .608551C.4850006 .62054446 .4850006 .62254336 .4850006 .6435547Z"/>
<path id="font_1_78" d="M.45700074 .32888795C.45700074 .598114 .34199525 .6660156 .25299073 .6660156 .19799805 .6660156 .14898682 .64801028 .10598755 .6031189 .06498718 .5580902 .041992189 .5160217 .041992189 .44091798 .041992189 .3158722 .12998963 .21777344 .24198914 .21777344 .30299378 .21777344 .34399415 .25979615 .36698915 .3178711V.28582765C.36698915 .05178833 .2630005 .0055389406 .20498657 .0055389406 .18798828 .0055389406 .13398743 .007537842 .10699463 .041778566 .15098572 .041778566 .15899658 .07078552 .15899658 .08778381 .15899658 .118774417 .1349945 .13378906 .11299133 .13378906 .09700012 .13378906 .066986087 .12478638 .066986087 .08578491 .066986087 .018615723 .12098694-.022460938 .20599365-.022460938 .33499146-.022460938 .45700074 .11378479 .45700074 .32888795M.36499024 .42089845C.36499024 .33789063 .33099366 .24076844 .24299622 .24076844 .22698975 .2407074 .18099976 .2407074 .1499939 .30371095 .13198853 .34072877 .13198853 .3908081 .13198853 .43988038 .13198853 .49397279 .13198853 .5410614 .15299988 .578125 .17999268 .62805178 .21798706 .64100649 .25299073 .64100649 .29899598 .64100649 .33198548 .60710147 .34899903 .562088 .36099244 .52989199 .36499024 .46688844 .36499024 .42089845Z"/>
<path id="font_2_46" d="M.72698977 .33580018C.72698977 .52568057 .58799746 .6826172 .4119873 .6826172H.039993287V.6516113H.06298828C.13999939 .6516113 .14199829 .64060977 .14199829 .6036377V.07896423C.14199829 .041992189 .13999939 .0309906 .06298828 .0309906H.039993287V0H.4119873C.58499148 0 .72698977 .1479187 .72698977 .33580018M.6279907 .33580018C.6279907 .29483033 .6279907 .18989563 .57299807 .11993408 .5209961 .051986696 .44898988 .0309906 .38598634 .0309906H.27799989C.23098755 .0309906 .22898865 .037994386 .22898865 .07196045V.6106262C.22898865 .64460757 .23098755 .6516113 .27799989 .6516113H.3849945C.48199464 .6516113 .5419922 .6006317 .56900027 .56466677 .61299136 .5066986 .6279907 .43473817 .6279907 .33580018Z"/>
<path id="font_2_66" d="M.25299073 0V.0309906C.18798828 .0309906 .18399048 .035995485 .18399048 .075042728V.4423828L.039993287 .43066407V.3996582C.10398865 .3996582 .11299133 .3936615 .11299133 .3447113V.07695007C.11299133 .0309906 .101989749 .0309906 .035995485 .0309906V0C.08099365 .0019989014 .101989749 .0029907227 .1459961 .0029907227 .1619873 .0029907227 .20399475 .0029907227 .25299073 0M.19699097 .6028137C.19699097 .63282778 .17298889 .6568146 .14299011 .6568146 .11299133 .6568146 .08898926 .63282778 .08898926 .6028137 .08898926 .57281497 .11299133 .5488281 .14299011 .5488281 .17298889 .5488281 .19699097 .57281497 .19699097 .6028137Z"/>
<path id="font_2_98" d="M.36999513 .12831116C.36999513 .17330933 .34999085 .20030213 .32798768 .22329712 .2939911 .25628663 .2579956 .26327516 .18399048 .2772827 .1579895 .28227235 .084991458 .29527284 .084991458 .35224916 .084991458 .38424684 .10798645 .426239 .19898987 .426239 .30699159 .426239 .31399537 .34326173 .31599427 .31826783 .31698609 .3062744 .31698609 .3002777 .32998658 .3002777 .34399415 .3002777 .34399415 .30726625 .34399415 .32626344V.4222412C.34399415 .4392395 .34399415 .4482422 .33198548 .4482422 .32699586 .4482422 .32499696 .4482422 .31199647 .43623353 .30999757 .43423463 .30099488 .42523194 .29499818 .4202423 .2639923 .44223023 .23298645 .4482422 .19898987 .4482422 .066986087 .4482422 .033996583 .37524415 .033996583 .32426454 .033996583 .29226686 .04798889 .26628114 .070999149 .24429322 .10499573 .21330261 .14299011 .20629883 .19400025 .19729615 .24499512 .18730164 .2619934 .18431092 .28399659 .16731262 .2939911 .15931702 .31900025 .14031983 .31900025 .10229492 .31900025 .014251709 .21798706 .014251709 .20399475 .014251709 .101989749 .014251709 .07598877 .0993042 .06399536 .15332031 .06098938 .16331482 .05999756 .16931153 .04798889 .16931153 .033996583 .16931153 .033996583 .16131592 .033996583 .14331055V.01524353C.033996583-.0017547608 .033996583-.0107421879 .04598999-.0107421879 .051986696-.0107421879 .052993776-.009750366 .070999149 .009246826 .07499695 .01524353 .085998538 .028259278 .09098816 .03326416 .1329956-.007751465 .1789856-.0107421879 .20399475-.0107421879 .32699586-.0107421879 .36999513 .061279298 .36999513 .12831116Z"/>
<path id="font_2_84" d="M.5359955 .21557617C.5359955 .34158326 .43798829 .4423828 .31999208 .4423828 .2659912 .4423828 .21598816 .42037965 .17799378 .37858583V.4423828L.02999878 .43066407V.3996582C.100997928 .3996582 .10699463 .39363099 .10699463 .35058595V-.116989139C.10699463-.16308594 .09599304-.16308594 .02999878-.16308594V-.1940918C.07699585-.1920929 .09599304-.19110108 .14399719-.19110108 .19198609-.19110108 .20498657-.1920929 .2579956-.1940918V-.16308594C.19198609-.16308594 .18099976-.16308594 .18099976-.116989139V.048187257C.20698548 .022232056 .24099732-.0107421879 .30699159-.0107421879 .42599488-.0107421879 .5359955 .085113529 .5359955 .21585083V.21557617M.44999696 .21585083C.44999696 .1020813 .38198854 .014251709 .30099488 .014251709 .2559967 .014251709 .21798706 .04019165 .19400025 .07513428 .18099976 .09509277 .18099976 .097091678 .18099976 .11604309V.3356018C.21499634 .39437867 .269989 .41436769 .31199647 .41436769 .3899994 .41436769 .44999696 .32437135 .44999696 .21636963V.21585083Z"/>
<path id="font_2_72" d="M.26098634 0V.0309906C.19499207 .0309906 .18399048 .0309906 .18399048 .07701111V.69433596L.035995485 .6826172V.6516113C.10398865 .6516113 .11299133 .64460757 .11299133 .5956421V.07696533C.11299133 .0309906 .101989749 .0309906 .035995485 .0309906V0C.08299255 .0019989014 .101989749 .0029907227 .147995 .0029907227 .19499207 .0029907227 .21199036 .0019989014 .26098634 0Z"/>
<path id="font_2_28" d="M.49699403 .089141849V.14515686H.46899415V.090148929C.46899415 .07914734 .46899415 .029129029 .43299867 .029129029 .39698792 .029129029 .39698792 .07714844 .39698792 .09315491V.26818849C.39698792 .32521058 .39698792 .3592224 .35198976 .40022279 .31498719 .43322755 .2669983 .4482422 .21699524 .4482422 .1329956 .4482422 .06298828 .40623475 .06298828 .34220887 .06298828 .311203 .083999637 .2942047 .10998535 .2942047 .13699341 .2942047 .1559906 .31420899 .1559906 .34020997 .1559906 .3832245 .11099243 .38822938 .11099243 .38822938 .13798523 .41423036 .18598938 .42323304 .21499634 .42323304 .2659912 .42323304 .32299806 .3852234 .32299806 .29719544V.26419068C.2689972 .26219178 .19400025 .2571869 .1269989 .22518921 .054992677 .19017029 .032989503 .13816834 .032989503 .09814453 .032989503 .01625061 .12998963-.0107421879 .19699097-.0107421879 .27999879-.0107421879 .31799317 .04425049 .33198548 .072250369 .33699037 .030136109 .3659973-.005859375 .40899659-.005859375 .43399049-.005859375 .49699403 .009140015 .49699403 .08912659V.089141849M.32299806 .14112854C.32299806 .04425049 .24798584 .014251709 .20399475 .014251709 .15699768 .014251709 .11299133 .04824829 .11299133 .098236087 .11299133 .16423035 .16999817 .23422241 .32299806 .24023438V.14112854Z"/>
<path id="font_2_43" d="M.4269867 .11936951C.4269867 .13139344 .41600038 .13139344 .41299439 .13139344 .4019928 .13139344 .4019928 .12937927 .3959961 .11236572 .37298585 .043289186 .31698609 .01725769 .2659912 .01725769 .20199585 .01725769 .11999512 .06932068 .11999512 .21749878 .11999512 .3735962 .19999695 .42022706 .2599945 .42022706 .272995 .42022706 .32699586 .41825868 .3639984 .39356996 .34298707 .3895874 .32299806 .3755951 .32299806 .34658814 .32299806 .32058717 .34298707 .30059815 .36898805 .30059815 .394989 .30059815 .41600038 .31759645 .41600038 .34858705 .41600038 .4103546 .34599305 .4482422 .2579956 .4482422 .12998963 .4482422 .033996583 .3415985 .033996583 .2164917 .033996583 .08734131 .13798523-.0107421879 .2559967-.0107421879 .394989-.0107421879 .4269867 .11036682 .4269867 .11936951Z"/>
<path id="font_2_50" d="M.4269867 .11936951C.4269867 .12637329 .42199708 .13237 .41299439 .13237 .40299989 .13237 .3999939 .12536621 .39898683 .12136841 .36499024 .019256592 .27598573 .01725769 .26098634 .01725769 .21299744 .01725769 .17199707 .044281007 .14898682 .078323367 .115997318 .12736511 .114990238 .18743897 .114990238 .22949219H.3999939C.42199708 .22949219 .4269867 .22949219 .4269867 .25048829 .4269867 .35333253 .37098695 .4482422 .24299622 .4482422 .12298584 .4482422 .0289917 .3443451 .0289917 .22047425 .0289917 .08932495 .13398743-.0107421879 .2559967-.0107421879 .37799073-.0107421879 .4269867 .096343997 .4269867 .11936951M.35899354 .253479H.115997318C.125 .40725709 .21499634 .42323304 .24299622 .42323304 .2979889 .42323304 .35798646 .38130189 .35899354 .253479Z"/>
<path id="font_2_75" d="M.83299258 0V.0309906C.7819977 .03125 .7569885 .03125 .7559967 .0622406V.2539215C.7559967 .34077455 .7559967 .36872865 .72299197 .4056549 .70199587 .43037416 .6619873 .4423828 .6159973 .4423828 .5439911 .4423828 .49499513 .40037538 .46699525 .3473816 .45498658 .40637208 .4149933 .4423828 .33099366 .4423828 .25099183 .4423828 .20199585 .39038087 .18099976 .3443756H.17999268V.4423828L.034988405 .43066407V.3996582C.102996829 .3996582 .11199951 .39266969 .11199951 .34370423V.07695007C.11199951 .0309906 .100997928 .0309906 .034988405 .0309906V0C.08198547 .0019989014 .100997928 .0029907227 .14898682 .0029907227 .19699097 .0029907227 .20999146 .0019989014 .2630005 0V.0309906C.19699097 .0309906 .18598938 .0309906 .18598938 .07695007V.25878907C.18598938 .36732484 .2639923 .41737367 .32398988 .41737367 .3789978 .41737367 .39698792 .37834168 .39698792 .30825807V.077041629C.39698792 .0309906 .38598634 .0309906 .31999208 .0309906V0C.36698915 .0019989014 .38598634 .0029907227 .43399049 .0029907227 .48199464 .0029907227 .49499513 .0019989014 .5479889 0V.0309906C.48199464 .0309906 .47099305 .0309906 .47099305 .077041629V.2592163C.47099305 .36732484 .548996 .41737367 .60899356 .41737367 .6639862 .41737367 .6819916 .37834168 .6819916 .30825807V.077041629C.6819916 .0309906 .67099 .0309906 .6049957 .0309906V0C.6519928 .0019989014 .67099 .0029907227 .71899417 .0029907227 .7669983 .0029907227 .7799988 .0019989014 .83299258 0Z"/>
<path id="font_2_77" d="M.5469971 0V.0309906C.49598695 .03125 .47099305 .03125 .46998597 .0622406V.25431825C.46998597 .3373413 .46998597 .36636354 .44198609 .4013672 .4189911 .42938233 .3809967 .4423828 .33099366 .4423828 .23799134 .4423828 .19499207 .37335206 .18099976 .34535218H.17999268V.4423828L.034988405 .43066407V.3996582C.102996829 .3996582 .11199951 .39266969 .11199951 .34370423V.07695007C.11199951 .0309906 .100997928 .0309906 .034988405 .0309906V0C.08198547 .0019989014 .100997928 .0029907227 .14898682 .0029907227 .19699097 .0029907227 .20999146 .0019989014 .2630005 0V.0309906C.19699097 .0309906 .18598938 .0309906 .18598938 .07695007V.25878907C.18598938 .36532594 .26098634 .41737367 .32398988 .41737367 .3829956 .41737367 .3959961 .3683319 .3959961 .30825807V.077041629C.3959961 .0309906 .3849945 .0309906 .31900025 .0309906V0C.3659973 .0019989014 .3849945 .0029907227 .43299867 .0029907227 .48098756 .0029907227 .49398805 .0019989014 .5469971 0Z"/>
<path id="font_2_105" d="M.34199525 .12408447V.18099976H.31399537V.1270752C.31399537 .05319214 .2829895 .01725769 .24699402 .01725769 .17999268 .01725769 .17999268 .1051178 .17999268 .12309265V.3996582H.32499696V.43066407H.17999268V.6142578H.1519928C.15098572 .5304413 .115997318 .42765809 .018997193 .4246521V.3996582H.10598755V.12408447C.10598755 .012252808 .18699646-.0107421879 .23999024-.0107421879 .30699159-.011001587 .34199525 .052993776 .34199525 .12399292V.12408447Z"/>
<path id="font_2_64" d="M.2849884 .1850586V.24707031H.010986328V.1850586H.2849884Z"/>
<path id="font_2_104" d="M.70399478 .451828 .6839905 .6767578H.056991579L.036987306 .451828H.06498718C.07899475 .61676028 .09899902 .64575198 .24899292 .64575198 .2679901 .64575198 .29699708 .64575198 .30699159 .64375308 .32499696 .63975527 .32598878 .6297455 .32598878 .60476687V.07997131C.32598878 .04598999 .32598878 .0309906 .22099304 .0309906H.18199158V0C.21798706 .0029907227 .32798768 .0029907227 .37098695 .0029907227 .4139862 .0029907227 .5239868 .0029907227 .55999758 0V.0309906H.5209961C.41600038 .0309906 .41600038 .04598999 .41600038 .07997131V.60476687C.41600038 .63075259 .4169922 .63975527 .43699647 .64375308 .44699098 .64575198 .47399903 .64575198 .49198915 .64575198 .6419983 .64575198 .6619873 .61676028 .6759949 .451828H.70399478Z"/>
<path id="font_2_58" d="M.7549896 .24243164V.2734375C.6899872 .27043153 .67900088 .27043153 .6259918 .27043153 .58699038 .27043153 .5009918 .27043153 .46598817 .2734375V.24243164H.49798585C.59098818 .24243164 .59399417 .23043823 .59399417 .19345093V.1304779C.59399417 .008529663 .44198609 .008529663 .42900086 .008529663 .34700013 .008529663 .15899658 .057510377 .15899658 .34153749 .15899658 .62098696 .34098817 .67407229 .42399598 .67407229 .522995 .67407229 .6279907 .59895327 .6519928 .43669129 .6539917 .42367555 .6549988 .4186554 .66799929 .4186554 .6839905 .4186554 .6839905 .42367555 .6839905 .44470216V.67907717C.6839905 .69607546 .6839905 .7050781 .6719971 .7050781 .6649933 .7050781 .6619873 .70207217 .6559906 .69306948L.6049957 .61798098C.57299807 .6490326 .5159912 .7050781 .4149933 .7050781 .22099304 .7050781 .056991579 .54385378 .056991579 .34153749 .056991579 .13748169 .21998596-.022460938 .41600038-.022460938 .5099945-.022460938 .58200076 .013534546 .6100006 .06251526 .6269989 .03552246 .6629944 .0005340576 .6729889 .0005340576 .6839905 .0005340576 .6839905 .009536743 .6839905 .025527955V.19744873C.6839905 .23742676 .6879883 .24243164 .7549896 .24243164Z"/>
<path id="font_2_96" d="M.37298585 .3798828C.37298585 .41236878 .34298707 .4423828 .2979889 .4423828 .23799134 .4423828 .19599915 .40037538 .17298889 .33787538H.17199707V.4423828L.02999878 .43066407V.3996582C.09799194 .3996582 .10699463 .3927307 .10699463 .34387208V.07698059C.10699463 .0309906 .09599304 .0309906 .02999878 .0309906V0C.08299255 .0019989014 .09599304 .0029907227 .14698792 .0029907227L.27398683 0V.0309906H.2539978C.18099976 .0309906 .17799378 .041992189 .17799378 .07897949V.22891236C.17799378 .26989747 .18899536 .4166565 .30299378 .4166565V.4156494C.30099488 .4146576 .2849884 .40264894 .2849884 .37887574 .2849884 .35186769 .30599977 .33486939 .32899476 .33486939 .34999085 .33486939 .37298585 .34986878 .37298585 .3798828Z"/>
<path id="font_2_63" d="M.5469971 0V.0309906C.49598695 .03125 .47099305 .03125 .46998597 .0622406V.25431825C.46998597 .3373413 .46998597 .36636354 .44198609 .4013672 .4189911 .42938233 .3809967 .4423828 .33099366 .4423828 .2639923 .4423828 .21499634 .40737916 .18399048 .35134889H.18299866V.69433596L.034988405 .6826172V.6516113C.102996829 .6516113 .11199951 .64463809 .11199951 .59580996V.077041629C.11199951 .0309906 .100997928 .0309906 .034988405 .0309906V0C.08198547 .0019989014 .100997928 .0029907227 .14898682 .0029907227 .19699097 .0029907227 .20999146 .0019989014 .2630005 0V.0309906C.19699097 .0309906 .18598938 .0309906 .18598938 .077041629V.2592163C.18598938 .36532594 .26098634 .41737367 .32398988 .41737367 .3829956 .41737367 .3959961 .3683319 .3959961 .30825807V.077041629C.3959961 .0309906 .3849945 .0309906 .31900025 .0309906V0C.3659973 .0019989014 .3849945 .0029907227 .43299867 .0029907227 .48098756 .0029907227 .49398805 .0019989014 .5469971 0Z"/>
<path id="font_2_55" d="M.3659973 .6340637C.3659973 .67207339 .32798768 .7050781 .272995 .7050781 .19499207 .7046509 .11299133 .6456604 .11299133 .5456543V.43066407H.033996583V.3996582H.11299133V.07695007C.11299133 .0309906 .101989749 .0309906 .035995485 .0309906V0C.08898926 .0019989014 .101989749 .0029907227 .15299988 .0029907227L.27999879 0V.0309906H.2599945C.18699646 .0309906 .18399048 .04197693 .18399048 .078948978V.3996582H.2999878V.43066407H.18099976V.5436554C.18099976 .6350708 .22999573 .68006899 .272995 .68006899 .2829895 .68006899 .29299928 .67807009 .30299378 .67407229 .29299928 .67007449 .2769928 .6580658 .2769928 .6330719 .2769928 .6070709 .29599 .58906558 .32099916 .58906558 .34799195 .58906558 .3659973 .60806277 .3659973 .6340637Z"/>
<path id="font_2_81" d="M.48399354 .21324158C.48399354 .34423829 .37998963 .4482422 .25698854 .4482422 .12998963 .4482422 .0289917 .3412323 .0289917 .21324158 .0289917 .08824158 .1329956-.0107421879 .2559967-.0107421879 .3829956-.0107421879 .48399354 .09024048 .48399354 .21324158M.397995 .22224427C.397995 .1852417 .397995 .12724304 .37298585 .08325195 .34498597 .037246705 .29899598 .01725769 .25698854 .01725769 .20698548 .01725769 .16499329 .042251588 .14199829 .08125305 .115997318 .12324524 .114990238 .17623902 .114990238 .22224427 .114990238 .25924684 .114990238 .3162384 .13999939 .35723878 .16999817 .40823365 .21998596 .42323304 .2559967 .42323304 .31298829 .42323304 .35398866 .39123536 .37399293 .35723878 .39698792 .31523133 .397995 .26423646 .397995 .22224427Z"/>
<path id="font_2_83" d="M.6409912 .49668885C.6409912 .5956421 .5379944 .6826172 .39898683 .6826172H.039993287V.6516113H.06298828C.13999939 .6516113 .14199829 .64060977 .14199829 .6036377V.0789032C.14199829 .041915895 .13999939 .030929566 .06298828 .030929566H.039993287V0C.084991458 .0029296876 .14099121 .0029296876 .18699646 .0029296876 .23298645 .0029907227 .2889862 .0029907227 .33399964 0V.0309906H.31098939C.23399353 .0309906 .23199463 .041992189 .23199463 .07896423V.31378175H.39898683C.5389862 .31378175 .6409912 .40075685 .6409912 .4967041V.49668885M.5389862 .4967041C.5389862 .4517212 .5389862 .34179688 .37298585 .34179688H.22898865V.6106262C.22898865 .64460757 .23098755 .6516113 .27799989 .6516113H.37399293C.5389862 .6516113 .5389862 .54167178 .5389862 .4967041Z"/>
<path id="font_2_74" d="M.897995 0V.0309906H.875C.7979889 .0309906 .79599 .041992189 .79599 .07896423V.6036377C.79599 .64060977 .7979889 .6516113 .875 .6516113H.897995V.6826172H.7299957C.70899966 .6826172 .70199587 .6826172 .69499209 .6646118L.47099305 .09794617 .24699402 .660614C.23899842 .680603 .23799134 .6826172 .21099854 .6826172H.042999269V.6516113H.06599426C.14299011 .6516113 .14498902 .64060977 .14498902 .6036377V.10594177C.14498902 .07896423 .14498902 .0309906 .042999269 .0309906V0C.09799194 .0019989014 .11199951 .0029907227 .16099549 .0029907227 .20899964 .0029907227 .22399903 .0019989014 .27799989 0V.0309906C.17599488 .0309906 .17599488 .07896423 .17599488 .10594177V.64060977L.1769867 .6416168 .4229889 .021987915C.42799378 .008987427 .43199159 0 .44400025 0 .45498658 0 .45999146 .008987427 .46398927 .017990113L.71398928 .6496124 .71499636 .64860537V.07896423C.71499636 .041992189 .71299746 .0309906 .6359863 .0309906H.61299136V0C.6729889 .0029907227 .73999026 .0029907227 .7549896 .0029907227 .7609863 .0029907227 .83499148 .0029907227 .897995 0Z"/>
</defs>
<path transform="matrix(1.00002,0,0,-1,82.60635,262.95)" stroke-width=".3985" stroke-linecap="butt" stroke-miterlimit="10" stroke-linejoin="miter" fill="none" stroke="#7f807f" d="M0 0H283.4681M0 14.17339H283.4681M0 28.34679H283.4681M0 42.52019H283.4681M0 56.69359H283.4681M0 70.86697H283.4681M0 85.04037H283.4681M0 99.21378H283.4681M0 113.38718H283.4681M0 127.56056H283.4681M0 141.73397H283.4681M0 155.90737H283.4681M0 170.08077H283.4681M0 184.25415H283.4681M0 198.42755H283.4681M0 212.60095H283.4681M0 226.77436H283.4681M0 0V226.77448M14.17339 0V226.77448M28.34679 0V226.77448M42.52019 0V226.77448M56.69359 0V226.77448M70.86697 0V226.77448M85.04037 0V226.77448M99.21378 0V226.77448M113.38718 0V226.77448M127.56056 0V226.77448M141.73397 0V226.77448M155.90737 0V226.77448M170.08077 0V226.77448M184.25415 0V226.77448M198.42755 0V226.77448M212.60095 0V226.77448M226.77436 0V226.77448M240.94776 0V226.77448M255.12114 0V226.77448M269.29454 0V226.77448M283.46794 0V226.77448M283.4681 226.77448"/>
<path transform="matrix(1.00002,0,0,-1,82.60635,262.95)" stroke-width=".79701" stroke-linecap="butt" stroke-miterlimit="10" stroke-linejoin="miter" fill="none" stroke="#000000" d="M0 0H296.84449"/>
<path transform="matrix(1.00002,0,0,-1,379.8553,262.95)" stroke-width=".79701" stroke-linecap="round" stroke-linejoin="round" fill="none" stroke="#000000" d="M-2.55046 3.11095C-2.0845 1.24435-1.04614 .36295 0 0-1.04614-.36295-2.0845-1.24435-2.55046-3.11095"/>
<use data-text="T" xlink:href="#font_1_104" transform="matrix(9.962799,0,0,-9.9626,361.41395,274.14103)"/>
<use data-text="i" xlink:href="#font_1_66" transform="matrix(9.962799,0,0,-9.9626,368.60707,274.14103)"/>
<use data-text="m" xlink:href="#font_1_75" transform="matrix(9.962799,0,0,-9.9626,371.37675,274.14103)"/>
<use data-text="e" xlink:href="#font_1_50" transform="matrix(9.962799,0,0,-9.9626,379.67576,274.14103)"/>
<use data-text="(" xlink:href="#font_1_85" transform="matrix(9.962799,0,0,-9.9626,387.4069,274.14103)"/>
<use data-text="s" xlink:href="#font_1_98" transform="matrix(9.962799,0,0,-9.9626,391.2824,274.14103)"/>
<use data-text=")" xlink:href="#font_1_86" transform="matrix(9.962799,0,0,-9.9626,395.20777,274.14103)"/>
<path transform="matrix(1.00002,0,0,-1,82.60635,262.95)" stroke-width=".79701" stroke-linecap="butt" stroke-miterlimit="10" stroke-linejoin="miter" fill="none" stroke="#000000" d="M0 0V240.15087"/>
<path transform="matrix(0,-1,-1.00002,-0,82.60635,22.40065)" stroke-width=".79701" stroke-linecap="round" stroke-linejoin="round" fill="none" stroke="#000000" d="M-2.55046 3.11095C-2.0845 1.24435-1.04614 .36295 0 0-1.04614-.36295-2.0845-1.24435-2.55046-3.11095"/>
<use data-text="D" xlink:href="#font_1_46" transform="matrix(9.962799,0,0,-9.9626,1.2157135,24.493012)"/>
<use data-text="i" xlink:href="#font_1_66" transform="matrix(9.962799,0,0,-9.9626,8.827286,24.493012)"/>
<use data-text="s" xlink:href="#font_1_98" transform="matrix(9.962799,0,0,-9.9626,11.596954,24.493012)"/>
<use data-text="p" xlink:href="#font_1_84" transform="matrix(9.962799,0,0,-9.9626,15.522293,24.493012)"/>
<use data-text="l" xlink:href="#font_1_72" transform="matrix(9.962799,0,0,-9.9626,21.0616,24.493012)"/>
<use data-text="a" xlink:href="#font_1_28" transform="matrix(9.962799,0,0,-9.9626,23.831269,24.493012)"/>
<use data-text="c" xlink:href="#font_1_43" transform="matrix(9.962799,0,0,-9.9626,28.812653,24.493012)"/>
<use data-text="e" xlink:href="#font_1_50" transform="matrix(9.962799,0,0,-9.9626,33.236146,24.493012)"/>
<use data-text="m" xlink:href="#font_1_75" transform="matrix(9.962799,0,0,-9.9626,37.659639,24.493012)"/>
<use data-text="e" xlink:href="#font_1_50" transform="matrix(9.962799,0,0,-9.9626,45.95865,24.493012)"/>
<use data-text="n" xlink:href="#font_1_77" transform="matrix(9.962799,0,0,-9.9626,50.38214,24.493012)"/>
<use data-text="t" xlink:href="#font_1_105" transform="matrix(9.962799,0,0,-9.9626,55.652437,24.493012)"/>
<use data-text="(" xlink:href="#font_1_85" transform="matrix(9.962799,0,0,-9.9626,62.82567,24.493012)"/>
<use data-text="m" xlink:href="#font_1_75" transform="matrix(9.962799,0,0,-9.9626,66.7012,24.493012)"/>
<use data-text=")" xlink:href="#font_1_86" transform="matrix(9.962799,0,0,-9.9626,75.01018,24.493012)"/>
<path transform="matrix(1.00002,0,0,-1,82.60635,262.95)" stroke-width=".3985" stroke-linecap="butt" stroke-miterlimit="10" stroke-linejoin="miter" fill="none" stroke="#000000" d="M-5.66927 28.3468H5.66927"/>
<use data-text="2" xlink:href="#font_1_107" transform="matrix(9.962799,0,0,-9.9626,72.800159,237.92102)"/>
<path transform="matrix(1.00002,0,0,-1,82.60635,262.95)" stroke-width=".3985" stroke-linecap="butt" stroke-miterlimit="10" stroke-linejoin="miter" fill="none" stroke="#000000" d="M-5.66927 56.69362H5.66927"/>
<use data-text="4" xlink:href="#font_1_57" transform="matrix(9.962799,0,0,-9.9626,72.800159,209.62902)"/>
<path transform="matrix(1.00002,0,0,-1,82.60635,262.95)" stroke-width=".3985" stroke-linecap="butt" stroke-miterlimit="10" stroke-linejoin="miter" fill="none" stroke="#000000" d="M-5.66927 85.04042H5.66927"/>
<use data-text="6" xlink:href="#font_1_101" transform="matrix(9.962799,0,0,-9.9626,72.800159,181.11801)"/>
<path transform="matrix(1.00002,0,0,-1,82.60635,262.95)" stroke-width=".3985" stroke-linecap="butt" stroke-miterlimit="10" stroke-linejoin="miter" fill="none" stroke="#000000" d="M-5.66927 113.38724H5.66927"/>
<use data-text="8" xlink:href="#font_1_51" transform="matrix(9.962799,0,0,-9.9626,72.800159,152.77101)"/>
<path transform="matrix(1.00002,0,0,-1,82.60635,262.95)" stroke-width=".3985" stroke-linecap="butt" stroke-miterlimit="10" stroke-linejoin="miter" fill="none" stroke="#000000" d="M-5.66927 141.73404H5.66927"/>
<use data-text="1" xlink:href="#font_1_82" transform="matrix(9.962799,0,0,-9.9626,67.81906,124.42401)"/>
<use data-text="0" xlink:href="#font_1_121" transform="matrix(9.962799,0,0,-9.9626,72.80046,124.42401)"/>
<path transform="matrix(1.00002,0,0,-1,82.60635,262.95)" stroke-width=".3985" stroke-linecap="butt" stroke-miterlimit="10" stroke-linejoin="miter" fill="none" stroke="#000000" d="M-5.66927 170.08086H5.66927"/>
<use data-text="1" xlink:href="#font_1_82" transform="matrix(9.962799,0,0,-9.9626,67.81906,96.18701)"/>
<use data-text="2" xlink:href="#font_1_107" transform="matrix(9.962799,0,0,-9.9626,72.80046,96.18701)"/>
<path transform="matrix(1.00002,0,0,-1,82.60635,262.95)" stroke-width=".3985" stroke-linecap="butt" stroke-miterlimit="10" stroke-linejoin="miter" fill="none" stroke="#000000" d="M-5.66927 198.42766H5.66927"/>
<use data-text="1" xlink:href="#font_1_82" transform="matrix(9.962799,0,0,-9.9626,67.81906,67.89502)"/>
<use data-text="4" xlink:href="#font_1_57" transform="matrix(9.962799,0,0,-9.9626,72.80046,67.89502)"/>
<path transform="matrix(1.00002,0,0,-1,82.60635,262.95)" stroke-width=".3985" stroke-linecap="butt" stroke-miterlimit="10" stroke-linejoin="miter" fill="none" stroke="#000000" d="M-5.66927 226.77448H5.66927"/>
<use data-text="1" xlink:href="#font_1_82" transform="matrix(9.962799,0,0,-9.9626,67.81906,39.384019)"/>
<use data-text="6" xlink:href="#font_1_101" transform="matrix(9.962799,0,0,-9.9626,72.80046,39.384019)"/>
<path transform="matrix(1.00002,0,0,-1,82.60635,262.95)" stroke-width=".3985" stroke-linecap="butt" stroke-miterlimit="10" stroke-linejoin="miter" fill="none" stroke="#000000" d="M28.3468-5.66927V5.66927"/>
<use data-text="1" xlink:href="#font_1_82" transform="matrix(9.962799,0,0,-9.9626,108.462879,274.41)"/>
<path transform="matrix(1.00002,0,0,-1,82.60635,262.95)" stroke-width=".3985" stroke-linecap="butt" stroke-miterlimit="10" stroke-linejoin="miter" fill="none" stroke="#000000" d="M56.69362-5.66927V5.66927"/>
<use data-text="2" xlink:href="#font_1_107" transform="matrix(9.962799,0,0,-9.9626,136.81044,274.41)"/>
<path transform="matrix(1.00002,0,0,-1,82.60635,262.95)" stroke-width=".3985" stroke-linecap="butt" stroke-miterlimit="10" stroke-linejoin="miter" fill="none" stroke="#000000" d="M85.04042-5.66927V5.66927"/>
<use data-text="3" xlink:href="#font_1_106" transform="matrix(9.962799,0,0,-9.9626,165.15802,274.41)"/>
<path transform="matrix(1.00002,0,0,-1,82.60635,262.95)" stroke-width=".3985" stroke-linecap="butt" stroke-miterlimit="10" stroke-linejoin="miter" fill="none" stroke="#000000" d="M113.38724-5.66927V5.66927"/>
<use data-text="4" xlink:href="#font_1_57" transform="matrix(9.962799,0,0,-9.9626,193.50559,274.519)"/>
<path transform="matrix(1.00002,0,0,-1,82.60635,262.95)" stroke-width=".3985" stroke-linecap="butt" stroke-miterlimit="10" stroke-linejoin="miter" fill="none" stroke="#000000" d="M141.73404-5.66927V5.66927"/>
<use data-text="5" xlink:href="#font_1_56" transform="matrix(9.962799,0,0,-9.9626,221.85214,274.41)"/>
<path transform="matrix(1.00002,0,0,-1,82.60635,262.95)" stroke-width=".3985" stroke-linecap="butt" stroke-miterlimit="10" stroke-linejoin="miter" fill="none" stroke="#000000" d="M170.08086-5.66927V5.66927"/>
<use data-text="6" xlink:href="#font_1_101" transform="matrix(9.962799,0,0,-9.9626,250.1997,274.41)"/>
<path transform="matrix(1.00002,0,0,-1,82.60635,262.95)" stroke-width=".3985" stroke-linecap="butt" stroke-miterlimit="10" stroke-linejoin="miter" fill="none" stroke="#000000" d="M198.42766-5.66927V5.66927"/>
<use data-text="7" xlink:href="#font_1_100" transform="matrix(9.962799,0,0,-9.9626,278.54728,274.509)"/>
<path transform="matrix(1.00002,0,0,-1,82.60635,262.95)" stroke-width=".3985" stroke-linecap="butt" stroke-miterlimit="10" stroke-linejoin="miter" fill="none" stroke="#000000" d="M226.77448-5.66927V5.66927"/>
<use data-text="8" xlink:href="#font_1_51" transform="matrix(9.962799,0,0,-9.9626,306.89485,274.41)"/>
<path transform="matrix(1.00002,0,0,-1,82.60635,262.95)" stroke-width=".3985" stroke-linecap="butt" stroke-miterlimit="10" stroke-linejoin="miter" fill="none" stroke="#000000" d="M255.12128-5.66927V5.66927"/>
<use data-text="9" xlink:href="#font_1_78" transform="matrix(9.962799,0,0,-9.9626,335.24244,274.41)"/>
<use data-text="D" xlink:href="#font_2_46" transform="matrix(8.966579,0,0,-8.9664,114.10699,8.239014)"/>
<use data-text="i" xlink:href="#font_2_66" transform="matrix(8.966579,0,0,-8.9664,121.145748,8.239014)"/>
<use data-text="s" xlink:href="#font_2_98" transform="matrix(8.966579,0,0,-8.9664,123.7102,8.239014)"/>
<use data-text="p" xlink:href="#font_2_84" transform="matrix(8.966579,0,0,-8.9664,127.34165,8.239014)"/>
<use data-text="l" xlink:href="#font_2_72" transform="matrix(8.966579,0,0,-8.9664,132.46158,8.239014)"/>
<use data-text="a" xlink:href="#font_2_28" transform="matrix(8.966579,0,0,-8.9664,135.026,8.239014)"/>
<use data-text="c" xlink:href="#font_2_43" transform="matrix(8.966579,0,0,-8.9664,139.63483,8.239014)"/>
<use data-text="e" xlink:href="#font_2_50" transform="matrix(8.966579,0,0,-8.9664,143.73258,8.239014)"/>
<use data-text="m" xlink:href="#font_2_75" transform="matrix(8.966579,0,0,-8.9664,147.83029,8.239014)"/>
<use data-text="e" xlink:href="#font_2_50" transform="matrix(8.966579,0,0,-8.9664,155.50568,8.239014)"/>
<use data-text="n" xlink:href="#font_2_77" transform="matrix(8.966579,0,0,-8.9664,159.6034,8.239014)"/>
<use data-text="t" xlink:href="#font_2_105" transform="matrix(8.966579,0,0,-8.9664,164.47226,8.239014)"/>
<use data-text="-" xlink:href="#font_2_64" transform="matrix(8.966579,0,0,-8.9664,168.0589,8.239014)"/>
<use data-text="T" xlink:href="#font_2_104" transform="matrix(8.966579,0,0,-8.9664,171.13443,8.239014)"/>
<use data-text="i" xlink:href="#font_2_66" transform="matrix(8.966579,0,0,-8.9664,177.78763,8.239014)"/>
<use data-text="m" xlink:href="#font_2_75" transform="matrix(8.966579,0,0,-8.9664,180.35208,8.239014)"/>
<use data-text="e" xlink:href="#font_2_50" transform="matrix(8.966579,0,0,-8.9664,188.02747,8.239014)"/>
<use data-text="G" xlink:href="#font_2_58" transform="matrix(8.966579,0,0,-8.9664,195.19174,8.239014)"/>
<use data-text="r" xlink:href="#font_2_96" transform="matrix(8.966579,0,0,-8.9664,202.4278,8.239014)"/>
<use data-text="a" xlink:href="#font_2_28" transform="matrix(8.966579,0,0,-8.9664,206.03235,8.239014)"/>
<use data-text="p" xlink:href="#font_2_84" transform="matrix(8.966579,0,0,-8.9664,210.64118,8.239014)"/>
<use data-text="h" xlink:href="#font_2_63" transform="matrix(8.966579,0,0,-8.9664,215.76111,8.239014)"/>
<use data-text="f" xlink:href="#font_2_55" transform="matrix(8.966579,0,0,-8.9664,223.95655,8.239014)"/>
<use data-text="o" xlink:href="#font_2_81" transform="matrix(8.966579,0,0,-8.9664,226.77207,8.239014)"/>
<use data-text="r" xlink:href="#font_2_96" transform="matrix(8.966579,0,0,-8.9664,231.38089,8.239014)"/>
<use data-text="T" xlink:href="#font_2_104" transform="matrix(8.966579,0,0,-8.9664,238.06098,8.239014)"/>
<use data-text="h" xlink:href="#font_2_63" transform="matrix(8.966579,0,0,-8.9664,244.7142,8.239014)"/>
<use data-text="r" xlink:href="#font_2_96" transform="matrix(8.966579,0,0,-8.9664,249.8341,8.239014)"/>
<use data-text="e" xlink:href="#font_2_50" transform="matrix(8.966579,0,0,-8.9664,253.43866,8.239014)"/>
<use data-text="e" xlink:href="#font_2_50" transform="matrix(8.966579,0,0,-8.9664,257.5364,8.239014)"/>
<use data-text="P" xlink:href="#font_2_83" transform="matrix(8.966579,0,0,-8.9664,264.7097,8.239014)"/>
<use data-text="h" xlink:href="#font_2_63" transform="matrix(8.966579,0,0,-8.9664,270.97734,8.239014)"/>
<use data-text="a" xlink:href="#font_2_28" transform="matrix(8.966579,0,0,-8.9664,276.09724,8.239014)"/>
<use data-text="s" xlink:href="#font_2_98" transform="matrix(8.966579,0,0,-8.9664,280.70606,8.239014)"/>
<use data-text="e" xlink:href="#font_2_50" transform="matrix(8.966579,0,0,-8.9664,284.33753,8.239014)"/>
<use data-text="s" xlink:href="#font_2_98" transform="matrix(8.966579,0,0,-8.9664,288.43525,8.239014)"/>
<use data-text="o" xlink:href="#font_2_81" transform="matrix(8.966579,0,0,-8.9664,295.14225,8.239014)"/>
<use data-text="f" xlink:href="#font_2_55" transform="matrix(8.966579,0,0,-8.9664,299.75108,8.239014)"/>
<use data-text="M" xlink:href="#font_2_74" transform="matrix(8.966579,0,0,-8.9664,305.64213,8.239014)"/>
<use data-text="o" xlink:href="#font_2_81" transform="matrix(8.966579,0,0,-8.9664,314.08863,8.239014)"/>
<use data-text="t" xlink:href="#font_2_105" transform="matrix(8.966579,0,0,-8.9664,318.69746,8.239014)"/>
<use data-text="i" xlink:href="#font_2_66" transform="matrix(8.966579,0,0,-8.9664,322.2841,8.239014)"/>
<use data-text="o" xlink:href="#font_2_81" transform="matrix(8.966579,0,0,-8.9664,324.8485,8.239014)"/>
<use data-text="n" xlink:href="#font_2_77" transform="matrix(8.966579,0,0,-8.9664,329.45735,8.239014)"/>
<path transform="matrix(1.00002,0,0,-1,82.60635,262.95)" stroke-width=".79701" stroke-linecap="butt" stroke-miterlimit="10" stroke-linejoin="miter" fill="none" stroke="#ff0000" d="M0 0C0 0 20.48068 6.30727 28.3468 14.17339 36.21294 22.03952 48.82748 40.96135 56.69362 56.69362 64.55974 72.42589 85.04042 127.56062 85.04042 127.56062"/>
<path transform="matrix(1.00002,0,0,-1,82.60635,262.95)" stroke-width=".79701" stroke-linecap="butt" stroke-miterlimit="10" stroke-linejoin="miter" fill="none" stroke="#ff0000" d="M85.04042 127.56062 170.08086 198.42766"/>
<path transform="matrix(1.00002,0,0,-1,82.60635,262.95)" stroke-width=".79701" stroke-linecap="butt" stroke-miterlimit="10" stroke-linejoin="miter" fill="none" stroke="#ff0000" d="M170.08086 198.42766H255.12128"/>
<path transform="matrix(1.00002,0,0,-1,82.60635,262.95)" d="M87.03297 127.56062C87.03297 128.6611 86.1409 129.55318 85.04042 129.55318 83.93996 129.55318 83.04787 128.6611 83.04787 127.56062 83.04787 126.46016 83.93996 125.56807 85.04042 125.56807 86.1409 125.56807 87.03297 126.46016 87.03297 127.56062ZM85.04042 127.56062"/>
<path transform="matrix(1.00002,0,0,-1,82.60635,262.95)" d="M172.07341 198.42766C172.07341 199.52814 171.18132 200.42021 170.08086 200.42021 168.98038 200.42021 168.0883 199.52814 168.0883 198.42766 168.0883 197.3272 168.98038 196.4351 170.08086 196.4351 171.18132 196.4351 172.07341 197.3272 172.07341 198.42766ZM170.08086 198.42766"/>
<path transform="matrix(1.00002,0,0,-1,82.60635,262.95)" d="M257.11384 198.42766C257.11384 199.52814 256.22178 200.42021 255.12128 200.42021 254.02082 200.42021 253.12873 199.52814 253.12873 198.42766 253.12873 197.3272 254.02082 196.4351 255.12128 196.4351 256.22178 196.4351 257.11384 197.3272 257.11384 198.42766ZM255.12128 198.42766"/>
</svg>
