<svg xmlns="http://www.w3.org/2000/svg" xmlns:xlink="http://www.w3.org/1999/xlink" xmlns:inkscape="http://www.inkscape.org/namespaces/inkscape" version="1.1" width="315" height="228" viewBox="0 0 315 228">
<defs>
<path id="font_1_95" d="M.83499148 .0921936C.83499148 .109176639 .82699587 .11216736 .81399539 .11216736 .79499819 .11216736 .7939911 .10517883 .79299929 .0921936 .7879944 .042251588 .7569885 .021270752 .72898867 .021270752 .6649933 .021270752 .6579895 .0881958 .6499939 .18008423 .6439972 .23301697 .6369934 .30693055 .5289917 .3399048 .6639862 .3758545 .69699099 .44776917 .69699099 .501709 .69699099 .601593 .59199526 .6855469 .40699769 .6855469H.037994386V.64253237H.14399719V.042999269H.037994386V0C.066986087 .0019989014 .17098999 .0019989014 .20698548 .0019989014 .24299622 .0019989014 .34799195 .0019989014 .3769989 0V.042999269H.2709961V.32714845H.3899994C.42999269 .32714845 .46199037 .31513978 .48399354 .28912355 .5139923 .25509645 .5139923 .23309326 .5139923 .1660614 .5139923 .09901428 .5139923 .057998659 .5649872 .023986817 .61698916-.010726929 .69898989-.01171875 .72099307-.01171875 .82299807-.01171875 .83499148 .07824707 .83499148 .09223938V.0921936M.55599978 .50183108C.55599978 .44696046 .5549927 .36013795 .3880005 .36013795H.2709961V.64253237H.3899994C.5529938 .64253237 .55599978 .5607147 .55599978 .50183108Z"/>
<path id="font_1_28" d="M.54100039 .022140503C.54100039 .043136598 .5319977 .043136598 .5179901 .043136598 .45498658 .044128419 .45498658 .060134889 .45498658 .08312988V.29911805C.45498658 .39111329 .38198854 .453125 .24099732 .453125 .18499756 .453125 .066986087 .44812013 .066986087 .36412049 .066986087 .32211305 .09899902 .30412293 .12599182 .30412293 .1559906 .30412293 .18499756 .32511903 .18499756 .3631134 .18499756 .3821106 .17799378 .40011598 .16099549 .41111756 .19400025 .42012025 .21798706 .42012025 .23699951 .42012025 .30499269 .42012025 .34599305 .3821106 .34599305 .30012513V.26011659C.18798828 .26011659 .0289917 .21612549 .0289917 .10513306 .0289917 .014129639 .14498902-.005859375 .21398926-.005859375 .29100038-.005859375 .33999635 .036132814 .3600006 .0801239 .3600006 .042999269 .3600006 0 .46099855 0H.5119934C.5329895 0 .54100039 0 .54100039 .021987915V.022140503M.34599305 .13899231C.34599305 .04499817 .2619934 .026992798 .22999573 .026992798 .18099976 .026992798 .13999939 .05999756 .13999939 .10598755 .13999939 .19699097 .24798584 .22799683 .34599305 .23298645V.13899231Z"/>
<path id="font_1_66" d="M.2789917 0V.042999269H.21699524V.4501953L.04699707 .4423828V.3993683C.10598755 .3993683 .11299133 .3993683 .11299133 .3603363V.042999269H.04399109V0C.066986087 .0019989014 .13598633 .0019989014 .16299439 .0019989014 .19099427 .0019989014 .25498963 .0019989014 .2789917 0M.22898865 .6081238C.22898865 .64912417 .19499207 .68013 .15699768 .68013 .115997318 .68013 .083999637 .64712527 .083999637 .6081238 .083999637 .5671234 .117996219 .5361328 .1559906 .5361328 .19699097 .5361328 .22898865 .5691223 .22898865 .6081238Z"/>
<path id="font_1_77" d="M.59999087 0V.042999269H.5309906V.30613709C.5309906 .40118409 .48999024 .4501953 .37998963 .4501953 .30799867 .4501953 .24598694 .41519166 .21199036 .34014894H.21099854V.4501953L.041992189 .4423828V.3993683C.10398865 .3993683 .11099243 .3993683 .11099243 .36035157V.042999269H.041992189V0C.06498718 .0019989014 .13699341 .0019989014 .16499329 .0019989014 .19299317 .0019989014 .2659912 .0019989014 .2889862 0V.042999269H.21998596V.25627137C.21998596 .3643341 .2999878 .41719056 .3639984 .41719056 .40098573 .41719056 .42199708 .3932495 .42199708 .31733705V.042999269H.35299684V0C.37599183 .0019989014 .44799806 .0019989014 .47599793 .0019989014 .5039978 .0019989014 .57699587 .0019989014 .59999087 0Z"/>
<path id="font_1_55" d="M.42199708 .617218C.42199708 .65818789 .38598634 .7001953 .31498719 .7001953 .22399903 .7001953 .11299133 .66218569 .11299133 .54626467V.44433595H.038986207V.4013214H.11299133V.042999269H.04399109V0C.066986087 .0019989014 .14199829 .0019989014 .16999817 .0019989014 .19898987 .0019989014 .27999879 .0019989014 .3039856 0V.042999269H.21699524V.4013214H.33099366V.44433595H.21199036V.54725649C.21199036 .65119937 .27799989 .66719058 .31098939 .66719058 .32199098 .66719058 .32398988 .6661835 .32998658 .6641846 .31498719 .65419009 .30599977 .63720706 .30599977 .6162262 .30599977 .57624819 .33799745 .55825808 .3639984 .55825808 .38598634 .55825808 .42199708 .5732422 .42199708 .617218Z"/>
<path id="font_1_72" d="M.28599549 0V.042999269H.21699524V.69433596L.04399109 .6855469V.64253237C.10598755 .64253237 .11299133 .64253237 .11299133 .6035614V.042999269H.04399109V0C.066986087 .0019989014 .13798523 .0019989014 .16499329 .0019989014 .19198609 .0019989014 .2630005 .0019989014 .28599549 0Z"/>
<path id="font_1_85" d="M.37399293-.23898316C.37399293-.23498535 .37399293-.23298645 .35499574-.21498108 .24299622-.10298157 .19999695 .073013309 .19999695 .24900818 .19999695 .44599916 .24899292 .60798647 .36099244 .72099307 .37298585 .73298647 .37399293 .73399356 .37399293 .73799136 .37399293 .75 .3619995 .75 .35699464 .75 .34799195 .75 .34599305 .75 .31999208 .72898867 .17599488 .6139984 .10798645 .42999269 .10798645 .25 .10798645 .06600952 .1769867-.11299133 .31900025-.22898865 .34498597-.25097657 .34700013-.25097657 .35699464-.25097657 .3619995-.25097657 .37399293-.25097657 .37399293-.23898316Z"/>
<path id="font_1_75" d="M.9129944 0V.042999269H.84399417V.30636598C.84399417 .39823915 .8049927 .4501953 .69299319 .4501953 .59199526 .4501953 .54499819 .38227845 .5289917 .3503723 .5130005 .43518067 .44499208 .4501953 .3809967 .4501953 .2849884 .4501953 .23298645 .38827516 .21199036 .3403778H.21099854V.4501953L.041992189 .4423828V.3993683C.10398865 .3993683 .11099243 .3993683 .11099243 .36035157V.042999269H.041992189V0C.06498718 .0019989014 .13699341 .0019989014 .16499329 .0019989014 .19299317 .0019989014 .2659912 .0019989014 .2889862 0V.042999269H.21998596V.25627137C.21998596 .36532594 .30099488 .41719056 .3639984 .41719056 .40098573 .41719056 .4229889 .3952484 .4229889 .3173828V.042999269H.35398866V0C.3769989 .0019989014 .44898988 .0019989014 .47698976 .0019989014 .5049896 .0019989014 .5779877 .0019989014 .6009979 0V.042999269H.5319977V.25628663C.5319977 .36532594 .61299136 .41719056 .6759949 .41719056 .71299746 .41719056 .7350006 .3952484 .7350006 .3173828V.042999269H.66600039V0C.68899539 .0019989014 .7609863 .0019989014 .78900149 .0019989014 .81700137 .0019989014 .8899994 .0019989014 .9129944 0Z"/>
<path id="font_1_86" d="M.32798768 .24900818C.32798768 .43299867 .25898744 .61198428 .116989139 .72798159 .09098816 .75 .08898926 .75 .07899475 .75 .07398987 .75 .06199646 .75 .06199646 .73799136 .06199646 .73399356 .06199646 .7319946 .08099365 .71398928 .19299317 .60198977 .23599243 .42599488 .23599243 .25 .23599243 .053009035 .18699646-.10899353 .07499695-.22198487 .06298828-.23397827 .06199646-.23498535 .06199646-.23898316 .06199646-.25097657 .07398987-.25097657 .07899475-.25097657 .08799744-.25097657 .08999634-.25097657 .115997318-.22998047 .2599945-.114990238 .32798768 .069000247 .32798768 .24900818Z"/>
<path id="font_1_54" d="M.6589966 .4441223 .6299896 .6806946H.037994386V.6376953H.14399719V.042999269H.037994386V0C.066986087 .0019989014 .18099976 .0019989014 .21798706 .0019989014L.40899659 0V.042999269H.27598573V.31929017H.33099366C.4269867 .31929017 .43499757 .2752533 .43499757 .2021637H.47698976V.47903443H.43499757C.43499757 .40620423 .4269867 .3623047 .33099366 .3623047H.27598573V.6376953H.4189911C.5779877 .6376953 .6029968 .56484988 .61698916 .4441223H.6589966Z"/>
<path id="font_1_96" d="M.4269867 .3711853C.4269867 .42218019 .375 .4501953 .32699586 .4501953 .24798584 .4501953 .21398926 .38119508 .19999695 .33918763H.19898987V.4501953L.034988405 .4423828V.3993683C.09700012 .3993683 .10398865 .3993683 .10398865 .3603363V.042999269H.034988405V0C.057998659 .0019989014 .1329956 .0019989014 .16099549 .0019989014 .18998719 .0019989014 .2709961 .0019989014 .29499818 0V.042999269H.20799256V.22518921C.20799256 .25819398 .21499634 .41719056 .33198548 .41719056 .31799317 .40618897 .31098939 .38919068 .31098939 .3711853 .31098939 .33018495 .34399415 .31318666 .36898805 .31318666 .3939972 .31318666 .4269867 .33018495 .4269867 .3711853Z"/>
<path id="font_1_50" d="M.48098756 .11706543C.48098756 .13206482 .46598817 .13206482 .45999146 .13206482 .44400025 .13206482 .44299317 .12905884 .43699647 .11607361 .41099549 .051116945 .34498597 .030136109 .29699708 .030136109 .1519928 .030136109 .15098572 .16503906 .15098572 .22099304H.45199586C.47499085 .22099304 .48098756 .22099304 .48098756 .24598694 .48098756 .27601625 .47399903 .35105897 .42799378 .3981018 .38598634 .4401245 .32998658 .453125 .27198792 .453125 .115997318 .453125 .0309906 .35105897 .0309906 .22499085 .0309906 .08509827 .13398743-.005859375 .2849884-.005859375 .43598939-.005859375 .48098756 .1000824 .48098756 .11706543M.3889923 .25H.15098572C.15299988 .29101563 .1539917 .3300476 .1749878 .3660736 .19400025 .3981018 .22898865 .42012025 .27198792 .42012025 .3789978 .42012025 .3880005 .30003358 .3889923 .25Z"/>
<path id="font_1_91" d="M.58898928-.19340515V-.15039063H.519989V.4501953H.48298646L.42999269 .36717225C.394989 .41818238 .34599305 .4501953 .27999879 .4501953 .14199829 .4501953 .037994386 .36418153 .037994386 .22215271 .037994386 .07914734 .13798523-.005859375 .269989-.005859375 .30799867-.005859375 .35899354 .0021362305 .41099549 .051132204V-.15039063H.34199525V-.19340515C.36499024-.19139099 .43699647-.19139099 .46499635-.19139099 .49299623-.19139099 .56599429-.19139099 .58898928-.19340515M.41600038 .119140628C.37399293 .040130617 .31498719 .027130127 .28199769 .027130127 .21798706 .027130127 .1579895 .086135867 .1579895 .22116089 .1579895 .36717225 .23399353 .41418458 .29299928 .41418458 .37098695 .41418458 .41600038 .33317567 .41600038 .2871704V.119140628Z"/>
<path id="font_1_109" d="M.59999087 0V.042999269C.5379944 .042999269 .5309906 .042999269 .5309906 .08201599V.4501953L.35299684 .4423828V.3993683C.4149933 .3993683 .42199708 .3993683 .42199708 .36035157V.16423035C.42199708 .08818054 .3769989 .027130127 .29899598 .027130127 .22399903 .027130127 .21998596 .05215454 .21998596 .10719299V.4501953L.041992189 .4423828V.3993683C.10398865 .3993683 .11099243 .3993683 .11099243 .36035157V.12319946C.11099243 .023132325 .17799378-.005859375 .2849884-.005859375 .30899049-.005859375 .3829956-.005859375 .42599488 .075164798H.4269867V-.005859375L.59999087 0Z"/>
<path id="font_1_43" d="M.46798707 .117126468C.46798707 .12913513 .45700074 .12913513 .44699098 .12913513 .43099977 .12913513 .42999269 .12812805 .4249878 .11613464 .41799928 .09713745 .3909912 .030136109 .29899598 .030136109 .1579895 .030136109 .1579895 .1821289 .1579895 .22712708 .1579895 .28611756 .15899658 .41711427 .2899933 .41711427 .29699708 .41711427 .35598756 .41511537 .35598756 .41011048 .35598756 .41011048 .35499574 .40811158 .35299684 .40711976 .34999085 .40411378 .33699037 .38911439 .33699037 .36412049 .33699037 .32211305 .37098695 .30511476 .3959961 .30511476 .4169922 .30511476 .45498658 .31811524 .45498658 .3651123 .45498658 .44711305 .33999635 .453125 .28599549 .453125 .10798645 .453125 .037994386 .33711244 .037994386 .22212219 .037994386 .086135867 .1329956-.005859375 .27999879-.005859375 .43699647-.005859375 .46798707 .11012268 .46798707 .117126468Z"/>
<path id="font_1_118" d="M.56900027 .4013214V.44433595C.5349884 .44232179 .5309906 .44232179 .48999024 .44232179L.4039917 .44433595V.4013214C.4039917 .4013214 .45199586 .4013214 .45199586 .38832093 .45199586 .38531495 .44898988 .37931825 .44799806 .37631227L.33099366 .124176029 .20298767 .4013214H.2579956V.44433595C.23399353 .44232179 .1659851 .44232179 .13798523 .44232179 .10899353 .44232179 .049987794 .44232179 .023986817 .44433595V.4013214H.08799744L.272995 .000091552738C.2679901-.0119018559 .2539978-.040924074 .24899292-.05293274 .22799683-.097961429 .19599915-.16699219 .12599182-.16699219 .12199402-.16699219 .10998535-.16699219 .09899902-.16099549 .100997928-.1599884 .1309967-.147995 .1309967-.10997009 .1309967-.07695007 .10699463-.05593872 .07699585-.05593872 .04598999-.05593872 .021987915-.07695007 .021987915-.110961917 .021987915-.1579895 .06599426-.19999695 .12599182-.19999695 .20799256-.19999695 .2619934-.12597656 .28199769-.081954959L.49499513 .37931825C.5009918 .3933258 .5049896 .4013214 .56900027 .4013214Z"/>
<path id="font_1_46" d="M.798996 .33677674C.798996 .56259158 .6469879 .6855469 .45899964 .6855469H.037994386V.64253237H.14399719V.042999269H.037994386V0H.45899964C.651001 0 .798996 .122924808 .798996 .33677674M.6629944 .33776856C.6629944 .22085572 .647995 .16889954 .61299136 .12193298 .5779877 .07597351 .5109863 .042999269 .42099 .042999269H.2709961V.64253237H.42099C.5079956 .64253237 .5779877 .6085663 .61499026 .5566101 .6439972 .51564028 .6629944 .4666748 .6629944 .33776856Z"/>
<path id="font_1_98" d="M.40499879 .13912964C.40499879 .18711853 .3789978 .22012329 .35899354 .23812866 .31799317 .27212525 .28399659 .27812196 .22999573 .28811646 .1659851 .29911805 .10598755 .31011964 .10598755 .35812379 .10598755 .42311097 .19499207 .42311097 .21598816 .42311097 .32699586 .42311097 .33299256 .3531189 .33499146 .328125 .33599855 .3151245 .34399415 .3151245 .35598756 .3151245 .3769989 .3151245 .3769989 .31811524 .3769989 .34111024V.42712403C.3769989 .44612123 .3769989 .453125 .3619995 .453125 .35598756 .453125 .35398866 .453125 .33898927 .4441223 .33499146 .44111634 .32398988 .43411256 .31900025 .43112184 .29100038 .44711305 .2539978 .453125 .21798706 .453125 .18798828 .453125 .037994386 .453125 .037994386 .32312013 .037994386 .21812439 .1619873 .19612122 .19299317 .19113159 .21998596 .18612671 .25299073 .18013 .25698854 .18013 .29699708 .17112732 .33699037 .14613343 .33699037 .10412598 .33699037 .027130127 .24598694 .027130127 .22499085 .027130127 .17399597 .027130127 .11099243 .043136598 .08299255 .14012146 .07699585 .16012573 .07598877 .16113281 .05899048 .16113281 .037994386 .16113281 .037994386 .15812683 .037994386 .13513184V.020126343C.037994386 .0011291504 .037994386-.005859375 .052993776-.005859375 .05999756-.005859375 .06199646-.005859375 .08198547 .010131836L.10798645 .029129029C.15299988-.005859375 .20698548-.005859375 .22499085-.005859375 .27999879-.005859375 .40499879 .006134033 .40499879 .13912964Z"/>
<path id="font_1_105" d="M.37399293 .124176029V.17721558H.33198548V.1251831C.33198548 .059143068 .3019867 .030136109 .2709961 .030136109 .21099854 .030136109 .21099854 .09716797 .21099854 .12017822V.4013214H.35499574V.44433595H.21099854V.6357422H.16899109C.16799927 .53652957 .11999512 .43733216 .020996094 .43432618V.4013214H.101989749V.123184207C.101989749 .01713562 .18399048-.005859375 .2559967-.005859375 .32998658-.005859375 .37399293 .05014038 .37399293 .124176029Z"/>
<path id="font_2_56" d="M.44898988 .20091248C.44898988 .31991578 .36698915 .41992188 .25898744 .41992188 .21099854 .41992188 .16799927 .4039154 .13198853 .36891175V.5641022C.1519928 .55778506 .18499756 .55078127 .21699524 .55078127 .33999635 .55078127 .4099884 .6418457 .4099884 .65493777 .4099884 .6609802 .40699769 .6660156 .3999939 .6660156 .3999939 .66607668 .39698792 .66607668 .3919983 .66308596 .37199403 .65408328 .32299806 .63378909 .2559967 .63378909 .21598816 .63409426 .16999817 .641098 .12298584 .6621094 .114990238 .6651001 .11099243 .6651001 .11099243 .6651001 .100997928 .66508486 .100997928 .657074 .100997928 .64108279V.3447113C.100997928 .3266449 .100997928 .31861878 .114990238 .31861878 .12199402 .31861878 .12399292 .32164 .12799073 .32765199 .13899231 .34371949 .17599488 .3979187 .25698854 .3979187 .30899049 .3979187 .33399964 .3517456 .34199525 .3336792 .35798646 .2965393 .3600006 .2574005 .3600006 .20721436 .3600006 .17218018 .3600006 .112197879 .33599855 .07032776 .31199647 .031448366 .2749939 .0055389406 .22898865 .0055389406 .1559906 .0055389406 .09899902 .05836487 .08198547 .1171875 .084991458 .11685181 .08799744 .115859989 .09899902 .115859989 .13198853 .115859989 .14898682 .14085388 .14898682 .16485596 .14898682 .18885803 .13198853 .21386719 .09899902 .21386719 .084991458 .21386719 .049987794 .2068634 .049987794 .16085816 .049987794 .07432556 .11898804-.022460938 .23098755-.022460938 .34700013-.022460938 .44898988 .07331848 .44898988 .20019531V.20091248Z"/>
<path id="font_2_82" d="M.4189911 0V.0309906H.3869934C.29699708 .0309906 .2939911 .041992189 .2939911 .07902527V.64012148C.2939911 .6640167 .2939911 .6660156 .2709961 .6660156 .20899964 .60227969 .12098694 .60227969 .08898926 .60227969V.57128909C.10899353 .57128909 .16799927 .57128909 .21998596 .5972748V.07902527C.21998596 .042999269 .21699524 .0309906 .1269989 .0309906H.09498596V0C.12998963 .0029907227 .21699524 .0029907227 .25698854 .0029907227 .29699708 .0029907227 .38398744 .0029907227 .4189911 0Z"/>
<path id="font_2_121" d="M.45999146 .31976319C.45999146 .39982606 .45498658 .47988893 .41999818 .5539398 .37399293 .65000918 .2919922 .6660156 .25 .6660156 .18998719 .6660156 .116989139 .64001467 .07598877 .54693606 .04399109 .47789 .038986207 .39982606 .038986207 .31976319 .038986207 .24472046 .042999269 .15464783 .083999637 .07859802 .1269989-.0024719239 .19999695-.022460938 .24899292-.022460938 .30299378-.022460938 .3789978-.0014648438 .4229889 .09359741 .45498658 .16265869 .45999146 .2407074 .45999146 .31976319M.3769989 .3317871C.3769989 .25672914 .3769989 .18867493 .3659973 .12461853 .35099793 .029556275 .2939911-.00047302247 .24899292-.00047302247 .20999146-.00047302247 .15098572 .024551392 .1329956 .12062073 .12199402 .18066406 .12199402 .2727356 .12199402 .3317871 .12199402 .39582826 .12199402 .46188355 .12998963 .5159149 .14898682 .63500979 .22399903 .64401248 .24899292 .64401248 .28199769 .64401248 .34799195 .6259918 .36698915 .52693179 .3769989 .47088624 .3769989 .39482118 .3769989 .3317871Z"/>
<path id="font_2_107" d="M.44898988 .17396546H.42399598C.4189911 .14398194 .4119873 .099990848 .4019928 .084991458 .394989 .07699585 .32899476 .07699585 .30699159 .07699585H.1269989L.23298645 .17996216C.3889923 .31803895 .44898988 .37210084 .44898988 .47216798 .44898988 .5860901 .35899354 .6660156 .23699951 .6660156 .12399292 .6660156 .049987794 .57411196 .049987794 .48516847 .049987794 .4291687 .099990848 .4291687 .102996829 .4291687 .11999512 .4291687 .15499878 .44117738 .15499878 .48217774 .15499878 .5081787 .13699341 .5341797 .101989749 .5341797 .09399414 .5341797 .09199524 .5341797 .08898926 .5331726 .11199951 .59806826 .1659851 .63500979 .22399903 .63500979 .31498719 .63500979 .35798646 .5541382 .35798646 .47216798 .35798646 .39196778 .30799867 .31297303 .25299073 .25097657L.06098938 .036987306C.049987794 .025985718 .049987794 .023986817 .049987794 0H.42099L.44898988 .17396546Z"/>
<path id="font_2_106" d="M.45700074 .17037964C.45700074 .252594 .3939972 .33088685 .2899933 .35191346 .37199403 .37893678 .42999269 .4490509 .42999269 .52809146 .42999269 .6100464 .34199525 .6660156 .24598694 .6660156 .14498902 .6660156 .068984989 .60606387 .068984989 .53009036 .068984989 .49710084 .09098816 .47808839 .11999512 .47808839 .15098572 .47808839 .17098999 .50009158 .17098999 .5290985 .17098999 .57910159 .12399292 .57910159 .10899353 .57910159 .13999939 .62802127 .20599365 .64100649 .24198914 .64100649 .2829895 .64100649 .33799745 .6190338 .33799745 .5290985 .33799745 .51708987 .33599855 .45906068 .30999757 .4149933 .27999879 .36691285 .24598694 .36390687 .22099304 .36291505 .21299744 .36190797 .18899536 .35990907 .18199158 .35990907 .17399597 .35890199 .16699219 .35791017 .16699219 .3479004 .16699219 .33691407 .17399597 .33691407 .19099427 .33691407H.23498535C.31698609 .33691407 .35398866 .2686615 .35398866 .17037964 .35398866 .034469606 .2849884 .0055389406 .24099732 .0055389406 .19799805 .0055389406 .12298584 .022491456 .08799744 .08137512 .12298584 .07637024 .1539917 .09837341 .1539917 .1363678 .1539917 .17237854 .1269989 .19238281 .09799194 .19238281 .07398987 .19238281 .041992189 .17837525 .041992189 .1343689 .041992189 .043441774 .1349945-.022460938 .24398804-.022460938 .3659973-.022460938 .45700074 .06838989 .45700074 .17037964Z"/>
<path id="font_2_57" d="M.47099305 .16503906V.19602967H.37098695V.6507721C.37098695 .6707611 .37098695 .6767578 .35499574 .6767578 .34599305 .6767578 .34298707 .6767578 .33499146 .6647644L.027999878 .19602967V.16503906H.2939911V.07800293C.2939911 .041992189 .2919922 .0309906 .21798706 .0309906H.19699097V0C.23799134 .0029907227 .2899933 .0029907227 .33198548 .0029907227 .37399293 .0029907227 .4269867 .0029907227 .46798707 0V.0309906H.44699098C.37298585 .0309906 .37098695 .041992189 .37098695 .07800293V.16503906H.47099305M.2999878 .19602967H.055999757L.2999878 .56881716V.19602967Z"/>
<path id="font_1_62" d="M.84098818 0V.042999269H.7350006V.64253237H.84098818V.6855469C.81199648 .6835327 .7049866 .6835327 .6689911 .6835327 .6329956 .6835327 .526001 .6835327 .49699403 .6855469V.64253237H.6029968V.3779297H.27598573V.64253237H.38198854V.6855469C.35299684 .6835327 .24598694 .6835327 .20999146 .6835327 .17399597 .6835327 .066986087 .6835327 .037994386 .6855469V.64253237H.14399719V.042999269H.037994386V0C.066986087 .0019989014 .17399597 .0019989014 .20999146 .0019989014 .24598694 .0019989014 .35299684 .0019989014 .38198854 0V.042999269H.27598573V.33491517H.6029968V.042999269H.49699403V0C.526001 .0019989014 .6329956 .0019989014 .6689911 .0019989014 .7049866 .0019989014 .81199648 .0019989014 .84098818 0Z"/>
<path id="font_1_81" d="M.5299988 .21913147C.5299988 .35412599 .43798829 .453125 .2809906 .453125 .117996219 .453125 .0309906 .3491211 .0309906 .21913147 .0309906 .088134769 .12298584-.005859375 .27999879-.005859375 .44299317-.005859375 .5299988 .09312439 .5299988 .21913147M.4099884 .22912598C.4099884 .14613343 .4099884 .030136109 .2809906 .030136109 .15098572 .030136109 .15098572 .14712525 .15098572 .22912598 .15098572 .27612306 .15098572 .3261261 .16999817 .36212159 .19198609 .40211488 .23699951 .42012025 .27999879 .42012025 .33699037 .42012025 .37298585 .39311219 .3899994 .3651123 .4099884 .32911683 .4099884 .27713014 .4099884 .22912598Z"/>
<path id="font_1_59" d="M.54499819 .40003968C.54499819 .42404176 .5269928 .4560547 .4850006 .4560547 .44198609 .4560547 .40098573 .43504334 .37998963 .41705323 .33898927 .44119264 .2999878 .4501953 .24899292 .4501953 .11099243 .4501953 .055999757 .3731842 .055999757 .30319215 .055999757 .27218629 .06599426 .23118592 .10798645 .19718933 .09098816 .17819214 .07299805 .14318848 .07299805 .10719299 .07299805 .064193729 .09599304 .027191163 .116989139 .011184692 .09298706 .0052490236 .0309906-.01776123 .0309906-.0748291 .0309906-.13391114 .09599304-.20095825 .27999879-.20095825 .44599916-.20095825 .5299988-.14692688 .5299988-.07182312 .5299988 .01625061 .47200013 .04525757 .44699098 .057250978 .39898683 .08125305 .33499146 .08125305 .24699402 .08125305 .22200012 .08125305 .17799378 .08125305 .17298889 .08224487 .12998963 .08924866 .117996219 .12724304 .117996219 .14624024 .117996219 .15423584 .11898804 .16923523 .12998963 .18223572 .17799378 .15625 .23399353 .15625 .24899292 .15625 .3869934 .15625 .44198609 .23320008 .44198609 .30314637 .44198609 .35411073 .41299439 .39007569 .40098573 .4000702 .42999269 .41604615 .45399476 .42004396 .47099305 .42204286 .46798707 .41705323 .46499635 .41305543 .46499635 .4000702 .46499635 .37908937 .47898866 .36009217 .5049896 .36009217 .5309906 .36009217 .54499819 .37908937 .54499819 .4000702V.40003968M.33599855 .30314637C.33599855 .2571869 .33599855 .18824768 .24899292 .18824768 .1619873 .18812561 .1619873 .25715638 .1619873 .30316163 .1619873 .34916688 .1619873 .41818238 .24899292 .41818238 .33599855 .41818238 .33599855 .34916688 .33599855 .30316163V.30314637M.44799806-.075927738C.44799806-.1109314 .41299439-.16894531 .2809906-.16894531 .14898682-.16874695 .11299133-.11274719 .11299133-.07475281 .11299133-.0107421879 .17599488-.0107421879 .19099427-.0107421879H.30499269C.37799073-.0107421879 .44799806-.023742676 .44799806-.07574463V-.075927738Z"/>
</defs>
<path transform="matrix(1.00009,0,0,-1.00003,30.194275,188.45026)" stroke-width=".19925" stroke-linecap="butt" stroke-miterlimit="10" stroke-linejoin="miter" fill="none" stroke="#d9d9d9" d="M0 0H283.4681M0 2.83484H283.4681M0 5.6697H283.4681M0 8.50455H283.4681M0 11.33939H283.4681M0 14.17424H283.4681M0 17.0091H283.4681M0 19.84393H283.4681M0 22.67879H283.4681M0 25.51364H283.4681M0 28.3485H283.4681M0 31.18333H283.4681M0 34.01819H283.4681M0 36.85304H283.4681M0 39.68788H283.4681M0 42.52274H283.4681M0 45.35759H283.4681M0 48.19244H283.4681M0 51.02728H283.4681M0 53.86214H283.4681M0 56.69699H283.4681M0 59.53183H283.4681M0 62.36668H283.4681M0 65.20154H283.4681M0 68.03639H283.4681M0 70.87123H283.4681M0 73.70609H283.4681M0 76.54094H283.4681M0 79.37578H283.4681M0 82.21063H283.4681M0 85.04549H283.4681M0 87.88034H283.4681M0 90.71518H283.4681M0 93.55003H283.4681M0 96.38489H283.4681M0 99.21973H283.4681M0 102.05458H283.4681M0 104.88943H283.4681M0 107.72429H283.4681M0 110.55913H283.4681M0 113.39398H283.4681M0 116.22884H283.4681M0 119.06367H283.4681M0 121.89853H283.4681M0 124.73338H283.4681M0 127.56824H283.4681M0 130.40308H283.4681M0 133.23793H283.4681M0 136.07279H283.4681M0 138.90763H283.4681M0 141.74248H283.4681M0 144.57733H283.4681M0 147.41219H283.4681M0 150.24703H283.4681M0 153.08188H283.4681M0 155.91674H283.4681M0 158.75157H283.4681M0 161.58643H283.4681M0 164.42128H283.4681M0 167.25612H283.4681M0 0V170.08086M2.83484 0V170.08086M5.6697 0V170.08086M8.50455 0V170.08086M11.33939 0V170.08086M14.17424 0V170.08086M17.0091 0V170.08086M19.84393 0V170.08086M22.67879 0V170.08086M25.51364 0V170.08086M28.3485 0V170.08086M31.18333 0V170.08086M34.01819 0V170.08086M36.85304 0V170.08086M39.68788 0V170.08086M42.52274 0V170.08086M45.35759 0V170.08086M48.19244 0V170.08086M51.02728 0V170.08086M53.86214 0V170.08086M56.69699 0V170.08086M59.53183 0V170.08086M62.36668 0V170.08086M65.20154 0V170.08086M68.03639 0V170.08086M70.87123 0V170.08086M73.70609 0V170.08086M76.54094 0V170.08086M79.37578 0V170.08086M82.21063 0V170.08086M85.04549 0V170.08086M87.88034 0V170.08086M90.71518 0V170.08086M93.55003 0V170.08086M96.38489 0V170.08086M99.21973 0V170.08086M102.05458 0V170.08086M104.88943 0V170.08086M107.72429 0V170.08086M110.55913 0V170.08086M113.39398 0V170.08086M116.22884 0V170.08086M119.06367 0V170.08086M121.89853 0V170.08086M124.73338 0V170.08086M127.56824 0V170.08086M130.40308 0V170.08086M133.23793 0V170.08086M136.07279 0V170.08086M138.90763 0V170.08086M141.74248 0V170.08086M144.57733 0V170.08086M147.41219 0V170.08086M150.24703 0V170.08086M153.08188 0V170.08086M155.91674 0V170.08086M158.75157 0V170.08086M161.58643 0V170.08086M164.42128 0V170.08086M167.25612 0V170.08086M170.09098 0V170.08086M172.92583 0V170.08086M175.76068 0V170.08086M178.59552 0V170.08086M181.43038 0V170.08086M184.26523 0V170.08086M187.10007 0V170.08086M189.93492 0V170.08086M192.76978 0V170.08086M195.60463 0V170.08086M198.43947 0V170.08086M201.27433 0V170.08086M204.10918 0V170.08086M206.94402 0V170.08086M209.77887 0V170.08086M212.61373 0V170.08086M215.44858 0V170.08086M218.28342 0V170.08086M221.11827 0V170.08086M223.95313 0V170.08086M226.78797 0V170.08086M229.62282 0V170.08086M232.45767 0V170.08086M235.29253 0V170.08086M238.12737 0V170.08086M240.96222 0V170.08086M243.79708 0V170.08086M246.63191 0V170.08086M249.46677 0V170.08086M252.30162 0V170.08086M255.13648 0V170.08086M257.9713 0V170.08086M260.80619 0V170.08086M263.64103 0V170.08086M266.47587 0V170.08086M269.3107 0V170.08086M272.14558 0V170.08086M274.9804 0V170.08086M277.81526 0V170.08086M280.65013 0V170.08086M283.4681 170.08086"/>
<path transform="matrix(1.00009,0,0,-1.00003,30.194275,188.45026)" stroke-width=".3985" stroke-linecap="butt" stroke-miterlimit="10" stroke-linejoin="miter" fill="none" stroke="#a6a6a6" d="M0 0H283.4681M0 28.3468H283.4681M0 56.69362H283.4681M0 85.04042H283.4681M0 113.38724H283.4681M0 141.73404H283.4681M0 170.07089H283.4681M0 0V170.08086M28.3468 0V170.08086M56.69362 0V170.08086M85.04042 0V170.08086M113.38724 0V170.08086M141.73404 0V170.08086M170.08086 0V170.08086M198.42766 0V170.08086M226.77448 0V170.08086M255.12128 0V170.08086M283.45814 0V170.08086M283.4681 170.08086"/>
<path transform="matrix(1.00009,0,0,-1.00003,30.194275,188.45026)" stroke-width=".79701" stroke-linecap="butt" stroke-miterlimit="10" stroke-linejoin="miter" fill="none" stroke="#000000" d="M0 0H282.67109"/>
<path transform="matrix(1.00009,0,0,-1.00003,313.28935,188.45026)" stroke-width=".79701" stroke-linecap="round" stroke-linejoin="round" fill="none" stroke="#000000" d="M-2.55046 3.11095C-2.0845 1.24435-1.04614 .36295 0 0-1.04614-.36295-2.0845-1.24435-2.55046-3.11095"/>
<path transform="matrix(1.00009,0,0,-1.00003,30.194275,188.45026)" stroke-width=".79701" stroke-linecap="butt" stroke-miterlimit="10" stroke-linejoin="miter" fill="none" stroke="#000000" d="M0 0V169.28385"/>
<path transform="matrix(0,-1.00003,-1.00009,-0,30.194275,18.762818)" stroke-width=".79701" stroke-linecap="round" stroke-linejoin="round" fill="none" stroke="#000000" d="M-2.55046 3.11095C-2.0845 1.24435-1.04614 .36295 0 0-1.04614-.36295-2.0845-1.24435-2.55046-3.11095"/>
<use data-text="R" xlink:href="#font_1_95" transform="matrix(11.956276,0,0,-11.95556,130.28528,223.61531)"/>
<use data-text="a" xlink:href="#font_1_28" transform="matrix(11.956276,0,0,-11.95556,140.31659,223.61531)"/>
<use data-text="i" xlink:href="#font_1_66" transform="matrix(11.956276,0,0,-11.95556,146.85669,223.61531)"/>
<use data-text="n" xlink:href="#font_1_77" transform="matrix(11.956276,0,0,-11.95556,150.599,223.61531)"/>
<use data-text="f" xlink:href="#font_1_55" transform="matrix(11.956276,0,0,-11.95556,158.07166,223.61531)"/>
<use data-text="a" xlink:href="#font_1_28" transform="matrix(11.956276,0,0,-11.95556,162.18463,223.61531)"/>
<use data-text="l" xlink:href="#font_1_72" transform="matrix(11.956276,0,0,-11.95556,168.7247,223.61531)"/>
<use data-text="l" xlink:href="#font_1_72" transform="matrix(11.956276,0,0,-11.95556,172.46701,223.61531)"/>
<use data-text="(" xlink:href="#font_1_85" transform="matrix(11.956276,0,0,-11.95556,180.681,223.61531)"/>
<use data-text="m" xlink:href="#font_1_75" transform="matrix(11.956276,0,0,-11.95556,185.91785,223.61531)"/>
<use data-text="m" xlink:href="#font_1_75" transform="matrix(11.956276,0,0,-11.95556,197.13282,223.61531)"/>
<use data-text=")" xlink:href="#font_1_86" transform="matrix(11.956276,0,0,-11.95556,208.34781,223.61531)"/>
<use data-text="F" xlink:href="#font_1_54" transform="matrix(0,-11.95556,-11.956276,-0,10.419495,158.22336)"/>
<use data-text="r" xlink:href="#font_1_96" transform="matrix(0,-11.95556,-11.956276,-0,10.419495,150.89459)"/>
<use data-text="e" xlink:href="#font_1_50" transform="matrix(0,-11.95556,-11.956276,-0,10.419495,145.39505)"/>
<use data-text="q" xlink:href="#font_1_91" transform="matrix(0,-11.95556,-11.956276,-0,10.419495,139.26184)"/>
<use data-text="u" xlink:href="#font_1_109" transform="matrix(0,-11.95556,-11.956276,-0,10.419495,132.16024)"/>
<use data-text="e" xlink:href="#font_1_50" transform="matrix(0,-11.95556,-11.956276,-0,10.419495,124.688)"/>
<use data-text="n" xlink:href="#font_1_77" transform="matrix(0,-11.95556,-11.956276,-0,10.419495,118.55481)"/>
<use data-text="c" xlink:href="#font_1_43" transform="matrix(0,-11.95556,-11.956276,-0,10.419495,111.08258)"/>
<use data-text="y" xlink:href="#font_1_118" transform="matrix(0,-11.95556,-11.956276,-0,10.419495,105.10481)"/>
<use data-text="D" xlink:href="#font_1_46" transform="matrix(0,-11.95556,-11.956276,-0,10.419495,93.531818)"/>
<use data-text="e" xlink:href="#font_1_50" transform="matrix(0,-11.95556,-11.956276,-0,10.419495,83.22612)"/>
<use data-text="n" xlink:href="#font_1_77" transform="matrix(0,-11.95556,-11.956276,-0,10.419495,77.09291)"/>
<use data-text="s" xlink:href="#font_1_98" transform="matrix(0,-11.95556,-11.956276,-0,10.419495,69.6207)"/>
<use data-text="i" xlink:href="#font_1_66" transform="matrix(0,-11.95556,-11.956276,-0,10.419495,64.31242)"/>
<use data-text="t" xlink:href="#font_1_105" transform="matrix(0,-11.95556,-11.956276,-0,10.419495,60.570344)"/>
<use data-text="y" xlink:href="#font_1_118" transform="matrix(0,-11.95556,-11.956276,-0,10.419495,55.692476)"/>
<use data-text="5" xlink:href="#font_2_56" transform="matrix(9.963496,0,0,-9.962899,56.052606,198.60556)"/>
<use data-text="1" xlink:href="#font_2_82" transform="matrix(9.963496,0,0,-9.962899,81.910938,198.60556)"/>
<use data-text="0" xlink:href="#font_2_121" transform="matrix(9.963496,0,0,-9.962899,86.892688,198.60556)"/>
<use data-text="1" xlink:href="#font_2_82" transform="matrix(9.963496,0,0,-9.962899,110.260478,198.60556)"/>
<use data-text="5" xlink:href="#font_2_56" transform="matrix(9.963496,0,0,-9.962899,115.242229,198.60556)"/>
<use data-text="2" xlink:href="#font_2_107" transform="matrix(9.963496,0,0,-9.962899,138.61003,198.60556)"/>
<use data-text="0" xlink:href="#font_2_121" transform="matrix(9.963496,0,0,-9.962899,143.59178,198.60556)"/>
<use data-text="3" xlink:href="#font_2_106" transform="matrix(9.963496,0,0,-9.962899,195.30814,198.60556)"/>
<use data-text="0" xlink:href="#font_2_121" transform="matrix(9.963496,0,0,-9.962899,200.28989,198.60556)"/>
<use data-text="4" xlink:href="#font_2_57" transform="matrix(9.963496,0,0,-9.962899,280.35679,198.71556)"/>
<use data-text="5" xlink:href="#font_2_56" transform="matrix(9.963496,0,0,-9.962899,285.33854,198.71556)"/>
<use data-text="1" xlink:href="#font_2_82" transform="matrix(9.963496,0,0,-9.962899,21.692513,163.4205)"/>
<use data-text="2" xlink:href="#font_2_107" transform="matrix(9.963496,0,0,-9.962899,21.692513,135.07266)"/>
<use data-text="3" xlink:href="#font_2_106" transform="matrix(9.963496,0,0,-9.962899,21.692513,106.6158)"/>
<use data-text="4" xlink:href="#font_2_57" transform="matrix(9.963496,0,0,-9.962899,21.692513,78.43195)"/>
<use data-text="5" xlink:href="#font_2_56" transform="matrix(9.963496,0,0,-9.962899,21.692513,49.92009)"/>
<path transform="matrix(1.00009,0,0,-1.00003,30.194275,188.45026)" d="M28.3468 0V124.72578H56.69362V0ZM56.69362 124.72578" fill="#4d4dff"/>
<path transform="matrix(1.00009,0,0,-1.00003,30.194275,188.45026)" stroke-width=".3985" stroke-linecap="butt" stroke-miterlimit="10" stroke-linejoin="miter" fill="none" stroke="#000000" d="M28.3468 0V124.72578H56.69362V0ZM56.69362 124.72578"/>
<path transform="matrix(1.00009,0,0,-1.00003,30.194275,188.45026)" d="M56.69362 0V85.04042H85.04042V0ZM85.04042 85.04042" fill="#4d4dff"/>
<path transform="matrix(1.00009,0,0,-1.00003,30.194275,188.45026)" stroke-width=".3985" stroke-linecap="butt" stroke-miterlimit="10" stroke-linejoin="miter" fill="none" stroke="#000000" d="M56.69362 0V85.04042H85.04042V0ZM85.04042 85.04042"/>
<path transform="matrix(1.00009,0,0,-1.00003,30.194275,188.45026)" d="M85.04042 0V68.03217H113.38724V0ZM113.38724 68.03217" fill="#4d4dff"/>
<path transform="matrix(1.00009,0,0,-1.00003,30.194275,188.45026)" stroke-width=".3985" stroke-linecap="butt" stroke-miterlimit="10" stroke-linejoin="miter" fill="none" stroke="#000000" d="M85.04042 0V68.03217H113.38724V0ZM113.38724 68.03217"/>
<path transform="matrix(1.00009,0,0,-1.00003,30.194275,188.45026)" d="M113.38724 0V22.67752H170.08086V0ZM170.08086 22.67752" fill="#4d4dff"/>
<path transform="matrix(1.00009,0,0,-1.00003,30.194275,188.45026)" stroke-width=".3985" stroke-linecap="butt" stroke-miterlimit="10" stroke-linejoin="miter" fill="none" stroke="#000000" d="M113.38724 0V22.67752H170.08086V0ZM170.08086 22.67752"/>
<path transform="matrix(1.00009,0,0,-1.00003,30.194275,188.45026)" d="M170.08086 0V5.66927H255.12128V0ZM255.12128 5.66927" fill="#4d4dff"/>
<path transform="matrix(1.00009,0,0,-1.00003,30.194275,188.45026)" stroke-width=".3985" stroke-linecap="butt" stroke-miterlimit="10" stroke-linejoin="miter" fill="none" stroke="#000000" d="M170.08086 0V5.66927H255.12128V0ZM255.12128 5.66927"/>
<use data-text="H" xlink:href="#font_1_62" transform="matrix(14.347491,0,0,-14.346631,75.71837,11.960968)"/>
<use data-text="i" xlink:href="#font_1_66" transform="matrix(14.347491,0,0,-14.346631,88.34416,11.960968)"/>
<use data-text="s" xlink:href="#font_1_98" transform="matrix(14.347491,0,0,-14.346631,92.83493,11.960968)"/>
<use data-text="t" xlink:href="#font_1_105" transform="matrix(14.347491,0,0,-14.346631,99.205219,11.960968)"/>
<use data-text="o" xlink:href="#font_1_81" transform="matrix(14.347491,0,0,-14.346631,105.48941,11.960968)"/>
<use data-text="g" xlink:href="#font_1_59" transform="matrix(14.347491,0,0,-14.346631,113.56705,11.960968)"/>
<use data-text="r" xlink:href="#font_1_96" transform="matrix(14.347491,0,0,-14.346631,121.64467,11.960968)"/>
<use data-text="a" xlink:href="#font_1_28" transform="matrix(14.347491,0,0,-14.346631,128.24452,11.960968)"/>
<use data-text="m" xlink:href="#font_1_75" transform="matrix(14.347491,0,0,-14.346631,136.0926,11.960968)"/>
<use data-text="o" xlink:href="#font_1_81" transform="matrix(14.347491,0,0,-14.346631,154.91652,11.960968)"/>
<use data-text="f" xlink:href="#font_1_55" transform="matrix(14.347491,0,0,-14.346631,162.99414,11.960968)"/>
<use data-text="R" xlink:href="#font_1_95" transform="matrix(14.347491,0,0,-14.346631,173.30998,11.960968)"/>
<use data-text="a" xlink:href="#font_1_28" transform="matrix(14.347491,0,0,-14.346631,185.34754,11.960968)"/>
<use data-text="i" xlink:href="#font_1_66" transform="matrix(14.347491,0,0,-14.346631,193.1956,11.960968)"/>
<use data-text="n" xlink:href="#font_1_77" transform="matrix(14.347491,0,0,-14.346631,197.68637,11.960968)"/>
<use data-text="f" xlink:href="#font_1_55" transform="matrix(14.347491,0,0,-14.346631,206.65355,11.960968)"/>
<use data-text="a" xlink:href="#font_1_28" transform="matrix(14.347491,0,0,-14.346631,211.58908,11.960968)"/>
<use data-text="l" xlink:href="#font_1_72" transform="matrix(14.347491,0,0,-14.346631,219.43717,11.960968)"/>
<use data-text="l" xlink:href="#font_1_72" transform="matrix(14.347491,0,0,-14.346631,223.92792,11.960968)"/>
<use data-text="D" xlink:href="#font_1_46" transform="matrix(14.347491,0,0,-14.346631,233.79898,11.960968)"/>
<use data-text="a" xlink:href="#font_1_28" transform="matrix(14.347491,0,0,-14.346631,246.1665,11.960968)"/>
<use data-text="t" xlink:href="#font_1_105" transform="matrix(14.347491,0,0,-14.346631,254.01462,11.960968)"/>
<use data-text="a" xlink:href="#font_1_28" transform="matrix(14.347491,0,0,-14.346631,260.2988,11.960968)"/>
</svg>
