<svg xmlns="http://www.w3.org/2000/svg" xmlns:xlink="http://www.w3.org/1999/xlink" xmlns:inkscape="http://www.inkscape.org/namespaces/inkscape" version="1.1" width="309" height="127" viewBox="0 0 309 127">
<defs>
<path id="font_1_3" d="M.4039917 .40527345C.37098695 .39926148 .35398866 .3712616 .35398866 .3502655 .35398866 .3312683 .36799623 .31427003 .3929901 .31427003 .41999818 .31427003 .44799806 .337265 .44799806 .37426759 .44799806 .41334535 .4119873 .4423828 .36299134 .4423828 .28799439 .4423828 .24598694 .386261 .23199463 .3672638 .21998596 .42237855 .1749878 .4423828 .13699341 .4423828 .100997928 .4423828 .07798767 .42037965 .06098938 .38526917 .041992189 .34925843 .0289917 .29226686 .0289917 .28826905 .0289917 .27926637 .035995485 .27626039 .042999269 .27626039 .053985597 .27626039 .055999757 .28126527 .06098938 .30126954 .07998657 .38026429 .100997928 .41737367 .1349945 .41737367 .16499329 .41737367 .16499329 .38526917 .16499329 .37026979 .16499329 .34925843 .15699768 .31826783 .15098572 .29226686 .14399719 .26626588 .13398743 .2232666 .12998963 .21125794L.08999634 .04725647C.08299255 .023254395 .08299255 .021255494 .08299255 .018249512 .08299255 .0052490236 .09199524-.0107421879 .11399841-.0107421879 .1459961-.0107421879 .15299988 .01625061 .1599884 .04525757 .17199707 .088256839 .17199707 .09025574 .18199158 .1312561 .21899414 .28126527 .22499085 .30526734 .22698975 .31025697 .23298645 .32226563 .2789917 .41737367 .3619995 .41737367 .3849945 .41737367 .39898683 .40930177 .4039917 .40527345Z"/>
<path id="font_1_1" d="M.09799194 .13923645C.10998535 .04725647 .14698792-.01171875 .21398926-.01171875 .27598573-.01171875 .33599855 .042266847 .37199403 .07525635 .37399293 .07624817 .3769989 .07925415 .3769989 .085250858 .3769989 .09124756 .36999513 .099243167 .36299134 .099243167 .35899354 .099243167 .35699464 .099243167 .34799195 .09025574 .28399659 .030273438 .24899292 .0132751469 .21598816 .0132751469 .20199585 .0132751469 .17999268 .0132751469 .16499329 .057266237 .1599884 .07325745 .1539917 .10824585 .1539917 .14422608 .1539917 .16023255 .1539917 .18022156 .1579895 .19621277 .1579895 .19721985 .1579895 .19921875 .17799378 .21821594 .22200012 .26319886 .2789917 .32817079 .31900025 .38916017 .397995 .5081177 .40499879 .5970917 .40499879 .6260834 .40499879 .66007998 .394989 .7050781 .34399415 .7050781 .2979889 .7050781 .2639923 .66407778 .25099183 .64707949 .1579895 .5311127 .09399414 .32017518 .09399414 .19221497 .09399414 .18722534 .09399414 .18022156 .09498596 .17422486 .07199097 .15322876 .04899597 .13223267 .026992798 .11024475 .023986817 .10824585 .016998291 .101242069 .01399231 .099243167 .011993408 .09625244 .009994507 .09324646 .009994507 .08924866 .009994507 .085250858 .01399231 .07424927 .022994996 .07424927 .03199768 .07424927 .069992069 .11224365 .08099365 .12423706L.09799194 .13923645M.1639862 .24420166C.17098999 .28419496 .20599365 .43714906 .23899842 .5261078 .25099183 .55810549 .29699708 .68006899 .34498597 .68006899 .37298585 .68006899 .37799073 .654068 .37799073 .62908938 .37799073 .61408999 .37399293 .55010989 .33399964 .46813966 .27598573 .35217286 .16499329 .24420166 .1639862 .24420166Z"/>
<path id="font_1_2" d="M.2869873 .6603241C.29100038 .67433169 .29100038 .67633059 .29100038 .68032839 .29100038 .68933108 .2849884 .69433596 .27598573 .69433596 .2619934 .69433596 .17399597 .6863251 .1539917 .6843262 .14399719 .68333438 .1329956 .6823273 .1329956 .665329 .1329956 .6523285 .14399719 .6523285 .1599884 .6523285 .20698548 .6523285 .20698548 .6453247 .20698548 .6363373 .20698548 .6323395 .20698548 .6303406 .20199585 .6123352L.05899048 .037261964C.054992677 .023254395 .054992677 .021255494 .054992677 .018249512 .054992677 .002243042 .067993167-.0107421879 .085998538-.0107421879 .102996829-.0107421879 .116989139-.00074768069 .12399292 .013244629 .12599182 .018249512 .1349945 .054260255 .13999939 .07527161L.16299439 .16429138C.1659851 .17930603 .17599488 .21731568 .1789856 .23231507L.19099427 .27633668C.19599915 .29934693 .25299073 .41737367 .36099244 .41737367 .4149933 .41737367 .4149933 .36436463 .4149933 .34735108 .4149933 .28633119 .36799623 .16429138 .35699464 .13328552 .34498597 .10227966 .34098817 .0922699 .34098817 .073272708 .34098817 .019256592 .38198854-.0107421879 .4269867-.0107421879 .522995-.0107421879 .56199648 .1322937 .56199648 .14329529 .56199648 .14828491 .5589905 .1552887 .548996 .1552887 .5379944 .1552887 .5369873 .15029907 .5329895 .13728333 .5079956 .052261354 .46598817 .014251709 .42999269 .014251709 .4229889 .014251709 .40499879 .014251709 .40499879 .04626465 .40499879 .0712738 .4149933 .09727478 .4229889 .119277957 .44299317 .17030335 .48298646 .27633668 .48298646 .33235169 .48298646 .42137147 .4169922 .4423828 .3639984 .4423828 .3039856 .4423828 .25299073 .41438294 .21299744 .36535646L.2869873 .6603241Z"/>
<path id="font_2_54" d="M.6269989 .4550171 .598999 .6796875H.037994386V.64868167H.06098938C.13798523 .64868167 .13999939 .6376953 .13999939 .60076907V.07902527C.13999939 .041992189 .13798523 .0309906 .06098938 .0309906H.037994386V0C.08299255 .0029907227 .14498902 .0029907227 .19099427 .0029907227 .23098755 .0029907227 .32199098 .0029907227 .35699464 0V.0309906H.32499696C.23399353 .0309906 .22999573 .042999269 .22999573 .08001709V.3251953H.31999208C.4169922 .3251953 .42799378 .29318238 .42799378 .20819092H.45599366V.47299195H.42799378C.42799378 .38813783 .4169922 .3561859 .31999208 .3561859H.22999573V.60775759C.22999573 .6416931 .23199463 .64868167 .2789917 .64868167H.40499879C.55799868 .64868167 .58299258 .59277346 .598999 .4550171H.6269989Z"/>
<path id="font_2_81" d="M.48399354 .21324158C.48399354 .34423829 .37998963 .4482422 .25698854 .4482422 .12998963 .4482422 .0289917 .3412323 .0289917 .21324158 .0289917 .08824158 .1329956-.0107421879 .2559967-.0107421879 .3829956-.0107421879 .48399354 .09024048 .48399354 .21324158M.397995 .22224427C.397995 .1852417 .397995 .12724304 .37298585 .08325195 .34498597 .037246705 .29899598 .01725769 .25698854 .01725769 .20698548 .01725769 .16499329 .042251588 .14199829 .08125305 .115997318 .12324524 .114990238 .17623902 .114990238 .22224427 .114990238 .25924684 .114990238 .3162384 .13999939 .35723878 .16999817 .40823365 .21998596 .42323304 .2559967 .42323304 .31298829 .42323304 .35398866 .39123536 .37399293 .35723878 .39698792 .31523133 .397995 .26423646 .397995 .22224427Z"/>
<path id="font_2_96" d="M.37298585 .3798828C.37298585 .41236878 .34298707 .4423828 .2979889 .4423828 .23799134 .4423828 .19599915 .40037538 .17298889 .33787538H.17199707V.4423828L.02999878 .43066407V.3996582C.09799194 .3996582 .10699463 .3927307 .10699463 .34387208V.07698059C.10699463 .0309906 .09599304 .0309906 .02999878 .0309906V0C.08299255 .0019989014 .09599304 .0029907227 .14698792 .0029907227L.27398683 0V.0309906H.2539978C.18099976 .0309906 .17799378 .041992189 .17799378 .07897949V.22891236C.17799378 .26989747 .18899536 .4166565 .30299378 .4166565V.4156494C.30099488 .4146576 .2849884 .40264894 .2849884 .37887574 .2849884 .35186769 .30599977 .33486939 .32899476 .33486939 .34999085 .33486939 .37298585 .34986878 .37298585 .3798828Z"/>
<path id="font_2_75" d="M.83299258 0V.0309906C.7819977 .03125 .7569885 .03125 .7559967 .0622406V.2539215C.7559967 .34077455 .7559967 .36872865 .72299197 .4056549 .70199587 .43037416 .6619873 .4423828 .6159973 .4423828 .5439911 .4423828 .49499513 .40037538 .46699525 .3473816 .45498658 .40637208 .4149933 .4423828 .33099366 .4423828 .25099183 .4423828 .20199585 .39038087 .18099976 .3443756H.17999268V.4423828L.034988405 .43066407V.3996582C.102996829 .3996582 .11199951 .39266969 .11199951 .34370423V.07695007C.11199951 .0309906 .100997928 .0309906 .034988405 .0309906V0C.08198547 .0019989014 .100997928 .0029907227 .14898682 .0029907227 .19699097 .0029907227 .20999146 .0019989014 .2630005 0V.0309906C.19699097 .0309906 .18598938 .0309906 .18598938 .07695007V.25878907C.18598938 .36732484 .2639923 .41737367 .32398988 .41737367 .3789978 .41737367 .39698792 .37834168 .39698792 .30825807V.077041629C.39698792 .0309906 .38598634 .0309906 .31999208 .0309906V0C.36698915 .0019989014 .38598634 .0029907227 .43399049 .0029907227 .48199464 .0029907227 .49499513 .0019989014 .5479889 0V.0309906C.48199464 .0309906 .47099305 .0309906 .47099305 .077041629V.2592163C.47099305 .36732484 .548996 .41737367 .60899356 .41737367 .6639862 .41737367 .6819916 .37834168 .6819916 .30825807V.077041629C.6819916 .0309906 .67099 .0309906 .6049957 .0309906V0C.6519928 .0019989014 .67099 .0029907227 .71899417 .0029907227 .7669983 .0029907227 .7799988 .0019989014 .83299258 0Z"/>
<path id="font_2_109" d="M.5469971 .00024414063V.03125C.47898866 .03125 .46998597 .038253786 .46998597 .087265018V.4423828L.31900025 .43138124V.40037538C.3869934 .40037538 .3959961 .39337159 .3959961 .34436036V.16729737C.3959961 .07826233 .34599305 .014251709 .27398683 .014251709 .19099427 .014251709 .18598938 .057266237 .18598938 .11128235V.4423828L.034988405 .43138124V.40037538C.11199951 .40037538 .11199951 .39736939 .11199951 .3083496V.15829468C.11199951 .09327698 .11199951 .051254274 .1579895 .01625061 .18699646-.003753662 .22799683-.0107421879 .2679901-.0107421879 .31999208-.0107421879 .36898805 .012252808 .397995 .072265628H.39898683V-.0107421879L.5469971 .00024414063Z"/>
<path id="font_2_72" d="M.26098634 0V.0309906C.19499207 .0309906 .18399048 .0309906 .18399048 .07701111V.69433596L.035995485 .6826172V.6516113C.10398865 .6516113 .11299133 .64460757 .11299133 .5956421V.07696533C.11299133 .0309906 .101989749 .0309906 .035995485 .0309906V0C.08299255 .0019989014 .101989749 .0029907227 .147995 .0029907227 .19499207 .0029907227 .21199036 .0019989014 .26098634 0Z"/>
<path id="font_2_28" d="M.49699403 .089141849V.14515686H.46899415V.090148929C.46899415 .07914734 .46899415 .029129029 .43299867 .029129029 .39698792 .029129029 .39698792 .07714844 .39698792 .09315491V.26818849C.39698792 .32521058 .39698792 .3592224 .35198976 .40022279 .31498719 .43322755 .2669983 .4482422 .21699524 .4482422 .1329956 .4482422 .06298828 .40623475 .06298828 .34220887 .06298828 .311203 .083999637 .2942047 .10998535 .2942047 .13699341 .2942047 .1559906 .31420899 .1559906 .34020997 .1559906 .3832245 .11099243 .38822938 .11099243 .38822938 .13798523 .41423036 .18598938 .42323304 .21499634 .42323304 .2659912 .42323304 .32299806 .3852234 .32299806 .29719544V.26419068C.2689972 .26219178 .19400025 .2571869 .1269989 .22518921 .054992677 .19017029 .032989503 .13816834 .032989503 .09814453 .032989503 .01625061 .12998963-.0107421879 .19699097-.0107421879 .27999879-.0107421879 .31799317 .04425049 .33198548 .072250369 .33699037 .030136109 .3659973-.005859375 .40899659-.005859375 .43399049-.005859375 .49699403 .009140015 .49699403 .08912659V.089141849M.32299806 .14112854C.32299806 .04425049 .24798584 .014251709 .20399475 .014251709 .15699768 .014251709 .11299133 .04824829 .11299133 .098236087 .11299133 .16423035 .16999817 .23422241 .32299806 .24023438V.14112854Z"/>
</defs>
<path transform="matrix(1.00006,0,0,-1.00003,58.79238,114.989978)" d="M28.3468 85.04042C28.3468 100.69614 15.6557 113.38724 0 113.38724-15.6557 113.38724-28.3468 100.69614-28.3468 85.04042-28.3468 69.3847-15.6557 56.69362 0 56.69362 15.6557 56.69362 28.3468 69.3847 28.3468 85.04042ZM0 85.04042" fill="#ff8c00"/>
<path transform="matrix(1.00006,0,0,-1.00003,58.79238,114.989978)" d="M-56.69362 0C-56.69362 31.31142-31.31142 56.69362 0 56.69362 31.31142 56.69362 56.69362 31.31142 56.69362 0Z" fill="#87cefa"/>
<path transform="matrix(1.00006,0,0,-1.00003,58.79238,114.989978)" stroke-width=".3985" stroke-linecap="butt" stroke-miterlimit="10" stroke-linejoin="miter" fill="none" stroke="#000000" d="M-56.69362 0C-56.69362 31.31142-31.31142 56.69362 0 56.69362 31.31142 56.69362 56.69362 31.31142 56.69362 0"/>
<path transform="matrix(1.00006,0,0,-1.00003,58.79238,114.989978)" stroke-width=".3985" stroke-linecap="butt" stroke-dasharray="2.98883,2.98883" stroke-miterlimit="10" stroke-linejoin="miter" fill="none" stroke="#000000" d="M0 85.04042H28.3468"/>
<use data-text="r" xlink:href="#font_1_3" transform="matrix(8.966938,0,0,-8.966669,70.759098,26.427315)"/>
<path transform="matrix(1.00006,0,0,-1.00003,58.79238,114.989978)" stroke-width=".3985" stroke-linecap="butt" stroke-miterlimit="10" stroke-linejoin="miter" fill="none" stroke="#000000" d="M-56.2951 0H56.2951"/>
<path transform="matrix(-1.00006,-0,0,1.00003,2.2946435,114.989978)" stroke-width=".3985" stroke-linecap="round" stroke-linejoin="round" fill="none" stroke="#000000" d="M-2.07224 2.39104C-1.69365 .95639-.84999 .27895 0 0-.84999-.27895-1.69365-.95639-2.07224-2.39104"/>
<path transform="matrix(1.00006,0,0,-1.00003,115.290119,114.989978)" stroke-width=".3985" stroke-linecap="round" stroke-linejoin="round" fill="none" stroke="#000000" d="M-2.07224 2.39104C-1.69365 .95639-.84999 .27895 0 0-.84999-.27895-1.69365-.95639-2.07224-2.39104"/>
<use data-text="&#x2113;" xlink:href="#font_1_1" transform="matrix(8.966938,0,0,-8.966669,56.889268,124.73727)"/>
<path transform="matrix(1.00006,0,0,-1.00003,58.79238,114.989978)" stroke-width=".3985" stroke-linecap="butt" stroke-miterlimit="10" stroke-linejoin="miter" fill="none" stroke="#000000" d="M-56.69362-8.50412-6.06233-.06549"/>
<path transform="matrix(.9863991,-.16438493,-.16438985,-.9863696,52.92623,115.022708)" stroke-width=".3985" stroke-linecap="round" stroke-linejoin="round" fill="none" stroke="#000000" d="M-2.07224 2.39104C-1.69365 .95639-.84999 .27895 0 0-.84999-.27895-1.69365-.95639-2.07224-2.39104"/>
<path transform="matrix(1.00006,0,0,-1.00003,58.79238,114.989978)" stroke-width=".3985" stroke-linecap="butt" stroke-miterlimit="10" stroke-linejoin="miter" fill="none" stroke="#000000" d="M56.69362-8.50412 6.06233-.06549"/>
<path transform="matrix(-.9863991,-.16438493,-.16438985,.9863696,64.65853,115.022708)" stroke-width=".3985" stroke-linecap="round" stroke-linejoin="round" fill="none" stroke="#000000" d="M-2.07224 2.39104C-1.69365 .95639-.84999 .27895 0 0-.84999-.27895-1.69365-.95639-2.07224-2.39104"/>
<path transform="matrix(1.00006,0,0,-1.00003,58.79238,114.989978)" d="M175.75012 56.69362C175.75012 62.9558 160.52085 68.03217 141.73404 68.03217 122.94724 68.03217 107.71796 62.9558 107.71796 56.69362 107.71796 50.43143 122.94724 45.35507 141.73404 45.35507 160.52085 45.35507 175.75012 50.43143 175.75012 56.69362ZM141.73404 56.69362" fill="#ff8c00"/>
<path transform="matrix(1.00006,0,0,-1.00003,58.79238,114.989978)" d="M175.75012 45.35506 141.73404 0 107.71794 45.35506Z" fill="#87cefa"/>
<path transform="matrix(1.00006,0,0,-1.00003,58.79238,114.989978)" stroke-width=".3985" stroke-linecap="butt" stroke-dasharray="2.98883,2.98883" stroke-miterlimit="10" stroke-linejoin="miter" fill="none" stroke="#000000" d="M141.73404 0V56.69362"/>
<use data-text="h" xlink:href="#font_1_2" transform="matrix(8.966938,0,0,-8.966669,204.05509,89.75622)"/>
<path transform="matrix(1.00006,0,0,-1.00003,58.79238,114.989978)" stroke-width=".3985" stroke-linecap="butt" stroke-dasharray="2.98883,2.98883" stroke-miterlimit="10" stroke-linejoin="miter" fill="none" stroke="#000000" d="M141.73404 56.69362 175.75012 45.35506"/>
<use data-text="r" xlink:href="#font_1_3" transform="matrix(8.966938,0,0,-8.966669,215.33676,60.444337)"/>
<path transform="matrix(1.00006,0,0,-1.00003,58.79238,114.989978)" stroke-width=".3985" stroke-linecap="butt" stroke-miterlimit="10" stroke-linejoin="miter" fill="none" stroke="#000000" d="M107.95705 45.03627 141.49495 .31877"/>
<path transform="matrix(-.600026,-.799994,-.80001798,.600008,166.63636,69.79295)" stroke-width=".3985" stroke-linecap="round" stroke-linejoin="round" fill="none" stroke="#000000" d="M-2.07224 2.39104C-1.69365 .95639-.84999 .27895 0 0-.84999-.27895-1.69365-.95639-2.07224-2.39104"/>
<path transform="matrix(.600026,.799994,.80001798,-.600008,200.41538,114.83059)" stroke-width=".3985" stroke-linecap="round" stroke-linejoin="round" fill="none" stroke="#000000" d="M-2.07224 2.39104C-1.69365 .95639-.84999 .27895 0 0-.84999-.27895-1.69365-.95639-2.07224-2.39104"/>
<use data-text="&#x2113;" xlink:href="#font_1_1" transform="matrix(8.966938,0,0,-8.966669,176.20043,95.425388)"/>
<path transform="matrix(1.00006,0,0,-1.00003,58.79238,114.989978)" stroke-width=".3985" stroke-linecap="butt" stroke-miterlimit="10" stroke-linejoin="miter" fill="none" stroke="#000000" d="M198.42766 70.867V85.04042H212.60106V70.867ZM212.60106 85.04042"/>
<use data-text="F" xlink:href="#font_2_54" transform="matrix(8.966938,0,0,-8.966669,274.92634,40.095727)"/>
<use data-text="o" xlink:href="#font_2_81" transform="matrix(8.966938,0,0,-8.966669,280.172,40.095727)"/>
<use data-text="r" xlink:href="#font_2_96" transform="matrix(8.966938,0,0,-8.966669,284.781,40.095727)"/>
<use data-text="m" xlink:href="#font_2_75" transform="matrix(8.966938,0,0,-8.966669,288.38575,40.095727)"/>
<use data-text="u" xlink:href="#font_2_109" transform="matrix(8.966938,0,0,-8.966669,295.8014,40.095727)"/>
<use data-text="l" xlink:href="#font_2_72" transform="matrix(8.966938,0,0,-8.966669,300.9215,40.095727)"/>
<use data-text="a" xlink:href="#font_2_28" transform="matrix(8.966938,0,0,-8.966669,303.48606,40.095727)"/>
</svg>
