<svg xmlns="http://www.w3.org/2000/svg" xmlns:xlink="http://www.w3.org/1999/xlink" xmlns:inkscape="http://www.inkscape.org/namespaces/inkscape" version="1.1" width="194" height="15" viewBox="0 0 194 15">
<defs>
<path id="font_1_27" d="M.71699526 0V.0309906H.69898989C.6389923 .0309906 .625 .037979127 .6139984 .07095337L.397995 .6958008C.3929901 .7088165 .3909912 .7158203 .375 .7158203 .35899354 .7158203 .35598756 .70980837 .35099793 .6958008L.14399719 .09791565C.12599182 .04698181 .085998538 .03199768 .03199768 .0309906V0L.13398743 .0029907227 .24899292 0V.0309906C.19898987 .0309906 .17399597 .05596924 .17399597 .0819397 .17399597 .08493042 .1749878 .09492493 .17599488 .09692383L.22200012 .2277832H.46899415L.5219879 .07495117C.522995 .07095337 .5249939 .064956668 .5249939 .060958864 .5249939 .0309906 .46899415 .0309906 .44198609 .0309906V0C.47799684 .0029907227 .5479889 .0029907227 .58599856 .0029907227L.71699526 0M.45799256 .25878907H.23298645L.34498597 .58380129 .45799256 .25878907Z"/>
<path id="font_1_34" d="M.651001 .18289185C.651001 .26983644 .56900027 .34480287 .45799256 .35679627 .5549927 .3757782 .6239929 .43974305 .6239929 .51368716 .6239929 .6006317 .5319977 .6826172 .4019928 .6826172H.035995485V.6516113H.05999756C.13699341 .6516113 .13899231 .64060977 .13899231 .6046295V.07795715C.13899231 .041992189 .13699341 .0309906 .05999756 .0309906H.035995485V0H.42799378C.5609894-.0002593994 .651001 .08874512 .651001 .18273926V.18289185M.5269928 .5136719C.5269928 .44970704 .47799684 .36573792 .36698915 .36573792H.22200012V.6116333C.22200012 .64460757 .22399903 .6516113 .2709961 .6516113H.394989C.49198915 .65174868 .5269928 .56674197 .5269928 .51374819V.5136719M.5509949 .18386841C.5509949 .1129303 .49899293 .0309906 .3959961 .0309906H.2709961C.22399903 .0309906 .22200012 .037994386 .22200012 .07095337V.34375H.4099884C.5089874 .34399415 .5509949 .25099183 .5509949 .18399048V.18386841Z"/>
<path id="font_1_28" d="M.48298646 .08912659V.14511109H.45799256V.08912659C.45799256 .03112793 .43299867 .025131226 .42199708 .025131226 .3889923 .025131226 .3849945 .070129398 .3849945 .07511902V.27508546C.3849945 .31707765 .3849945 .3560791 .34899903 .39312745 .30999757 .43223573 .2599945 .4482422 .21199036 .4482422 .12998963 .4482422 .06098938 .40115357 .06098938 .335083 .06098938 .30508424 .08099365 .28808595 .10699463 .28808595 .1349945 .28808595 .15299988 .30807496 .15299988 .33407594 .15299988 .3460846 .147995 .37908937 .101989749 .38008119 .1289978 .41519166 .17799378 .426239 .20999146 .426239 .25898744 .426239 .31599427 .38710023 .31599427 .29808045V.26107789C.2649994 .25808717 .19499207 .25508119 .13198853 .22509766 .056991579 .19110108 .03199768 .13911438 .03199768 .09512329 .03199768 .014251709 .1289978-.0107421879 .19198609-.0107421879 .2579956-.0107421879 .3039856 .029251099 .32299806 .07624817 .32699586 .036132814 .35398866-.005859375 .40098573-.005859375 .42199708-.005859375 .48298646 .008132935 .48298646 .08912659M.31599427 .14013672C.31599427 .04525757 .24398804 .011245728 .19898987 .011245728 .1499939 .011245728 .10899353 .04624939 .10899353 .09625244 .10899353 .15124512 .15098572 .23425293 .31599427 .24024964V.14013672Z"/>
</defs>
<use data-text="A" xlink:href="#font_1_27" transform="matrix(9.9626,0,0,-9.963496,1.2170029,13.582053)"/>
<use data-text="B" xlink:href="#font_1_34" transform="matrix(9.9626,0,0,-9.963496,185.81,13.417037)"/>
<path transform="matrix(1,0,0,-1.00009,12.209,10.014731)" stroke-width=".79701" stroke-linecap="butt" stroke-miterlimit="10" stroke-linejoin="miter" fill="none" stroke="#000000" d="M0 0H170.08086"/>
<path transform="matrix(1,0,0,-1.00009,12.209,10.014731)" stroke-width=".3985" stroke-linecap="butt" stroke-miterlimit="10" stroke-linejoin="miter" fill="none" stroke="#000000" d="M0 0H76.73564"/>
<path transform="matrix(1,0,0,-1.00009,88.94464,10.014731)" d="M7.48325 0C6.56427 .22145 2.52473 1.47641 0 2.84209V-2.84209C2.52473-1.47641 6.56427-.22145 7.48325 0Z"/>
<path transform="matrix(1,0,0,-1.00009,88.94464,10.014731)" stroke-width=".3985" stroke-linecap="butt" stroke-miterlimit="10" stroke-linejoin="miter" fill="none" stroke="#000000" d="M7.48325 0C6.56427 .22145 2.52473 1.47641 0 2.84209V-2.84209C2.52473-1.47641 6.56427-.22145 7.48325 0Z"/>
<use data-text="a" xlink:href="#font_1_28" transform="matrix(9.9626,0,0,-9.963496,94.759,6.3854048)"/>
</svg>
