<svg xmlns="http://www.w3.org/2000/svg" xmlns:xlink="http://www.w3.org/1999/xlink" xmlns:inkscape="http://www.inkscape.org/namespaces/inkscape" version="1.1" width="273" height="160" viewBox="0 0 273 160">
<path transform="matrix(1.00003,0,0,-1.00005,2.2955018,157.91109)" d="M0 0H226.77448V113.38724H0Z" fill="#b3b3ff"/>
<path transform="matrix(1.00003,0,0,-1.00005,2.2955018,157.91109)" d="M42.5202 42.5202H269.29469V155.90744H42.5202Z" fill="#b3b3ff"/>
<path transform="matrix(1.00003,0,0,-1.00005,2.2955018,157.91109)" d="M0 0 42.5202 42.5202V155.90744L0 113.38724Z" fill="#b3b3ff"/>
<path transform="matrix(1.00003,0,0,-1.00005,2.2955018,157.91109)" stroke-width=".79701" stroke-linecap="butt" stroke-miterlimit="10" stroke-linejoin="miter" fill="none" stroke="#000000" d="M0 0H226.77448V113.38724H0Z"/>
<path transform="matrix(1.00003,0,0,-1.00005,2.2955018,157.91109)" stroke-width=".79701" stroke-linecap="butt" stroke-miterlimit="10" stroke-linejoin="miter" fill="none" stroke="#000000" d="M0 0 42.5202 42.5202"/>
<path transform="matrix(1.00003,0,0,-1.00005,2.2955018,157.91109)" stroke-width=".79701" stroke-linecap="butt" stroke-miterlimit="10" stroke-linejoin="miter" fill="none" stroke="#000000" d="M226.77448 0 269.29469 42.5202"/>
<path transform="matrix(1.00003,0,0,-1.00005,2.2955018,157.91109)" stroke-width=".79701" stroke-linecap="butt" stroke-miterlimit="10" stroke-linejoin="miter" fill="none" stroke="#000000" d="M226.77448 113.38724 269.29469 155.90744"/>
<path transform="matrix(1.00003,0,0,-1.00005,2.2955018,157.91109)" stroke-width=".79701" stroke-linecap="butt" stroke-miterlimit="10" stroke-linejoin="miter" fill="none" stroke="#000000" d="M0 113.38724 42.5202 155.90744"/>
<path transform="matrix(1.00003,0,0,-1.00005,2.2955018,157.91109)" stroke-width=".79701" stroke-linecap="butt" stroke-miterlimit="10" stroke-linejoin="miter" fill="none" stroke="#000000" d="M42.5202 42.5202H269.29469V155.90744H42.5202Z"/>
<path transform="matrix(1.00003,0,0,-1.00005,2.2955018,157.91109)" stroke-width=".79701" stroke-linecap="butt" stroke-dasharray="2.98883,2.98883" stroke-miterlimit="10" stroke-linejoin="miter" fill="none" stroke="#000000" d="M42.5202 42.5202V155.90744"/>
<path transform="matrix(1.00003,0,0,-1.00005,2.2955018,157.91109)" stroke-width=".79701" stroke-linecap="butt" stroke-dasharray="2.98883,2.98883" stroke-miterlimit="10" stroke-linejoin="miter" fill="none" stroke="#000000" d="M269.29469 42.5202V155.90744"/>
</svg>
