<svg xmlns="http://www.w3.org/2000/svg" xmlns:xlink="http://www.w3.org/1999/xlink" xmlns:inkscape="http://www.inkscape.org/namespaces/inkscape" version="1.1" width="86" height="80" viewBox="0 0 86 80">
<defs>
<path id="font_1_27" d="M.82699587 0V.04699707H.7299957L.47399903 .6722412C.46299745 .6982422 .45098878 .6982422 .43399049 .6982422 .4059906 .6982422 .4019928 .6902313 .394989 .6722412L.14698792 .07002258C.14099121 .055007936 .13798523 .04699707 .06199646 .04699707H.040985109V0L.1579895 .0029907227C.19699097 .0029907227 .25299073 .0029907227 .2899933 0V.04699707C.2899933 .04699707 .20098877 .04699707 .20098877 .060012819L.20498657 .07203674 .25498963 .19322205H.522995L.58299258 .04699707H.48799134V0C.526001 .0029907227 .62098696 .0029907227 .6639862 .0029907227 .70399478 .0029907227 .7919922 .0029907227 .82699587 0M.5029907 .24023438H.2749939L.3889923 .51823428 .5029907 .24023438Z"/>
<path id="font_1_34" d="M.7529907 .18592835C.7529907 .28189088 .6669922 .3488617 .5479889 .35786439 .6559906 .37686158 .72099307 .43678285 .72099307 .51368716 .72099307 .60557559 .6339874 .6855469 .47299195 .6855469H.038986207V.63853457H.14698792V.04699707H.038986207V0H.5029907C.6689911 0 .7529907 .08796692 .7529907 .18592835M.57899478 .51368716C.57899478 .43678285 .5309906 .37486268 .43399049 .37486268H.27799989V.63853457H.45999146C.5609894 .63853457 .57899478 .55963137 .57899478 .51368716M.60598757 .18693543C.60598757 .17492676 .60598757 .04699707 .46199037 .04699707H.27799989V.3388672H.47200013C.49198915 .3388672 .5389862 .3388672 .57299807 .29588319 .60598757 .253891 .60598757 .19792176 .60598757 .18693543Z"/>
<path id="font_1_42" d="M.7659912 .22724915C.7659912 .24725342 .7589874 .2482605 .74198916 .2482605 .72898867 .2482605 .7200012 .2482605 .71899417 .23124695 .71199038 .09724426 .59098818 .036254884 .48999024 .036254884 .4119873 .036254884 .32798768 .060256959 .27598573 .12124634 .22898865 .17825318 .21699524 .25325013 .21699524 .34326173 .21699524 .39926148 .21998596 .5072632 .2829895 .57325747 .34799195 .63926699 .43499757 .6502533 .4869995 .6502533 .59498599 .6502533 .6899872 .5742645 .71199038 .44725038 .71499636 .42825318 .71598818 .42625428 .7389984 .42625428 .7649994 .42625428 .7659912 .42825318 .7659912 .45425416V.6692505C.7659912 .68826296 .7659912 .6972656 .7480011 .6972656 .7389984 .6972656 .7369995 .69525149 .72898867 .68826296L.6629944 .6292572C.6009979 .67926028 .5339966 .6972656 .46598817 .6972656 .21699524 .6972656 .06399536 .54826357 .06399536 .34326173 .06399536 .13824463 .21699524-.0107421879 .46598817-.0107421879 .6529999-.0107421879 .7659912 .11225891 .7659912 .22724915Z"/>
<path id="font_1_106" d="M.526001 .18013C.526001 .23513794 .49699403 .32113648 .35198976 .35212709 .42099 .3731537 .49398805 .4303589 .49398805 .5164032 .49398805 .5933533 .41799928 .65527346 .2769928 .65527346 .1579895 .65527346 .07998657 .59135439 .07998657 .5113983 .07998657 .46839906 .11099243 .44140626 .14898682 .44140626 .19400025 .44140626 .21899414 .47340394 .21899414 .51039126 .21899414 .56840518 .16499329 .5793915 .16099549 .58039858 .19599915 .6082916 .23999024 .616272 .2709961 .616272 .35398866 .616272 .35699464 .5523987 .35699464 .5193939 .35699464 .50639346 .35598756 .3751526 .2519989 .36914063 .21099854 .36712647 .20899964 .36613465 .20399475 .36512757 .19400025 .36413575 .19198609 .35412599 .19198609 .34812928 .19198609 .33013917 .20199585 .33013917 .21998596 .33013917H.2639923C.37298585 .33013917 .37298585 .23243714 .37298585 .18159485 .37298585 .13456726 .37298585 .03225708 .2689972 .03225708 .24299622 .03225708 .19099427 .03627014 .14299011 .06636047 .17599488 .07537842 .20098877 .10046387 .20098877 .14160156 .20098877 .18644715 .16899109 .217453 .125 .217453 .08299255 .217453 .04798889 .19044495 .04798889 .13945008 .04798889 .049346925 .14498902-.0107421879 .27398683-.0107421879 .45298768-.010406494 .526001 .08959961 .526001 .18058777V.18013Z"/>
<path id="font_1_43" d="M.47799684 .117126468C.47799684 .13113404 .46398927 .13113404 .45399476 .13113404 .43598939 .13113404 .43499757 .12913513 .42999269 .11613464 .4039917 .053131105 .35598756 .03413391 .30499269 .03413391 .1659851 .03413391 .1659851 .18112183 .1659851 .22712708 .1659851 .28312684 .1659851 .41311646 .29499818 .41311646 .32998658 .41311646 .34700013 .41011048 .3600006 .40711976 .34199525 .39111329 .33999635 .3701172 .33999635 .3611145 .33999635 .3171234 .375 .29811097 .4019928 .29811097 .43299867 .29811097 .46499635 .3191223 .46499635 .3611145 .46499635 .44711305 .34899903 .453125 .29100038 .453125 .11199951 .45314027 .037994386 .33813478 .037994386 .22213745 .037994386 .08912659 .13198853-.005859375 .28599549-.005859375 .44799806-.005859375 .47799684 .11013794 .47799684 .117126468Z"/>
<path id="font_1_75" d="M.93499758 0V.04699707H.8659973V.30613709C.8659973 .40919496 .8149872 .4501953 .71199038 .4501953 .62098696 .4501953 .56900027 .40019227 .54299929 .3541565 .522995 .44718934 .43099977 .4501953 .3929901 .4501953 .30599977 .4501953 .24899292 .40518189 .21699524 .3421631V.4501953L.04499817 .4423828V.39537049C.10699463 .39537049 .11399841 .39537049 .11399841 .3563385V.04699707H.04499817V0L.17098999 .0029907227 .29699708 0V.04699707H.22799683V.2562256C.22799683 .3653412 .31498719 .41436769 .3769989 .41436769 .41099549 .41436769 .43299867 .39437867 .43299867 .31729127V.04699707H.3639984V0L.48999024 .0029907227 .6159973 0V.04699707H.5469971V.2562256C.5469971 .3653412 .6339874 .41436769 .69599917 .41436769 .7299957 .41436769 .7519989 .39437867 .7519989 .31729127V.04699707H.68299868V0L.8089905 .0029907227 .93499758 0Z"/>
<path id="font_1_101" d="M.526001 .20495606C.526001 .34495545 .4249878 .41796876 .3039856 .41796876 .28199769 .41781617 .22599793 .41781617 .18399048 .34181214V.36080934C.18399048 .47483827 .20498657 .51797488 .21199036 .53302 .23599243 .5801544 .2899933 .616272 .35099793 .616272 .36898805 .616272 .40299989 .6132202 .42599488 .58984377 .3899994 .58483889 .37199403 .5578308 .37199403 .52783206 .37199403 .49383546 .394989 .46583558 .43399049 .46583558 .47299195 .46583558 .49699403 .49183656 .49699403 .52983096 .49699403 .59187319 .45498658 .65527346 .34899903 .65527346 .21299744 .65527346 .04798889 .5688324 .04798889 .3170166 .04798889 .23808289 .056991579 .15814209 .09799194 .08920288 .14498902 .013244629 .22099304-.0107421879 .29100038-.0107421879 .42999269-.0107421879 .526001 .07121277 .526001 .20510865V.20495606M.3899994 .20710755C.3899994 .10618591 .3899994 .03225708 .2889862 .03225708 .23699951 .03225708 .20999146 .07121277 .20199585 .08720398 .18598938 .11917114 .18598938 .19212342 .18598938 .21009827 .18598938 .33499146 .23999024 .381958 .29499818 .381958 .3899994 .381958 .3899994 .3070221 .3899994 .20710755Z"/>
<path id="font_1_100" d="M.55799868 .6435547H.35398866C.33099366 .6435547 .18399048 .6485901 .16999817 .6526184 .14898682 .6566467 .147995 .6656952 .1459961 .67578127H.09899902L.06399536 .42167665H.11099243C.12098694 .49757386 .13398743 .5105591 .13798523 .512558 .14898682 .5185547 .22999573 .5185547 .24699402 .5185547H.41600038C.397995 .49658204 .3789978 .4756012 .36099244 .45362855 .2649994 .34178163 .19299317 .20695496 .19299317 .059158327 .19299317-.0107421879 .24899292-.0107421879 .25498963-.0107421879 .2709961-.0107421879 .31799317-.0057525637 .31799317 .060150148V.10609436C.31799317 .15403748 .32099916 .20196533 .32798768 .24890137 .33699037 .31581117 .35798646 .3747406 .3929901 .41567994L.5479889 .59555056C.55799868 .6065521 .55799868 .608551 .55799868 .6435547Z"/>
</defs>
<path transform="matrix(1.00002,0,0,-1.00002,14.742996,68.188129)" d="M0 0H56.69362L28.3468 56.69362Z" fill="#b3b3ff"/>
<path transform="matrix(1.00002,0,0,-1.00002,14.742996,68.188129)" stroke-width=".79701" stroke-linecap="butt" stroke-miterlimit="10" stroke-linejoin="miter" fill="none" stroke="#0000ff" d="M0 0H56.69362L28.3468 56.69362Z"/>
<use data-text="A" xlink:href="#font_1_27" transform="matrix(9.962799,0,0,-9.962799,2.5657502,71.66519)"/>
<use data-text="B" xlink:href="#font_1_34" transform="matrix(9.962799,0,0,-9.962799,74.9572,71.605197)"/>
<use data-text="C" xlink:href="#font_1_42" transform="matrix(9.962799,0,0,-9.962799,38.95048,7.8639147)"/>
<use data-text="3" xlink:href="#font_1_106" transform="matrix(9.962799,0,0,-9.962799,31.00032,78.23332)"/>
<use data-text="c" xlink:href="#font_1_43" transform="matrix(9.962799,0,0,-9.962799,40.544679,78.23332)"/>
<use data-text="m" xlink:href="#font_1_75" transform="matrix(9.962799,0,0,-9.962799,45.635667,78.23332)"/>
<use data-text="6" xlink:href="#font_1_101" transform="matrix(9.962799,0,0,-9.962799,1.2167282,43.048624)"/>
<use data-text="c" xlink:href="#font_1_43" transform="matrix(9.962799,0,0,-9.962799,10.7610859,43.048624)"/>
<use data-text="m" xlink:href="#font_1_75" transform="matrix(9.962799,0,0,-9.962799,15.852074,43.048624)"/>
<use data-text="7" xlink:href="#font_1_100" transform="matrix(9.962799,0,0,-9.962799,60.78392,43.153627)"/>
<use data-text="c" xlink:href="#font_1_43" transform="matrix(9.962799,0,0,-9.962799,70.32828,43.153627)"/>
<use data-text="m" xlink:href="#font_1_75" transform="matrix(9.962799,0,0,-9.962799,75.419269,43.153627)"/>
</svg>
