<svg xmlns="http://www.w3.org/2000/svg" xmlns:xlink="http://www.w3.org/1999/xlink" xmlns:inkscape="http://www.inkscape.org/namespaces/inkscape" version="1.1" width="221" height="222" viewBox="0 0 221 222">
<defs>
<path id="font_1_62" d="M.7509918 0V.032989503H.72898867C.6519928 .032989503 .6499939 .04399109 .6499939 .08097839V.60165408C.6499939 .63861086 .6519928 .6496124 .72898867 .6496124H.7509918V.6826172L.60398867 .6796112 .45700074 .6826172V.6496124H.47898866C.55599978 .6496124 .55799868 .63861086 .55799868 .60165408V.3718567H.23699951V.60165408C.23699951 .63861086 .23899842 .6496124 .31599427 .6496124H.33799745V.6826172L.19099427 .6796112 .04399109 .6826172V.6496124H.06599426C.14299011 .6496124 .14498902 .63861086 .14498902 .60165408V.08097839C.14498902 .04399109 .14299011 .032989503 .06599426 .032989503H.04399109V0L.19099427 .0029907227 .33799745 0V.032989503H.31599427C.23899842 .032989503 .23699951 .04399109 .23699951 .08097839V.3388672H.55799868V.08097839C.55799868 .04399109 .55599978 .032989503 .47898866 .032989503H.45700074V0L.60398867 .0029907227 .7509918 0Z"/>
<path id="font_1_104" d="M.7279968 .44877626 .70799258 .67578127H.057998659L.037994386 .44877626H.068984989C.08299255 .61776736 .10598755 .6427765 .25898744 .6427765 .27799989 .6427765 .30899049 .6427765 .31698609 .6407776 .33599855 .6367798 .33699037 .6267853 .33699037 .6017914V.081970218C.33699037 .04698181 .33699037 .032989503 .23298645 .032989503H.19499207V0C.23199463 .0029907227 .33999635 .0029907227 .3829956 .0029907227 .42599488 .0029907227 .5339966 .0029907227 .57099917 0V.032989503H.5329895C.42900086 .032989503 .42900086 .04698181 .42900086 .081970218V.6017914C.42900086 .6247864 .42900086 .6367798 .44999696 .6407776 .45899964 .6427765 .48799134 .6427765 .5069885 .6427765 .6599884 .6427765 .68299868 .61776736 .69699099 .44877626H.7279968Z"/>
<path id="font_2_1" d="M.397995 .63591006C.397995 .6660156 .394989 .6660156 .3619995 .6660156 .29100038 .6016083 .17999268 .6016083 .1599884 .6016083H.14299011V.5576172H.1599884C.18299866 .5576172 .24798584 .5606079 .30599977 .58561709V.08596802C.30599977 .054977418 .30599977 .04399109 .19999695 .04399109H.1499939V0C.20498657 .0039978029 .2939911 .0039978029 .35198976 .0039978029 .4099884 .0039978029 .49899293 .0039978029 .55400088 0V.04399109H.5039978C.397995 .04399109 .397995 .054977418 .397995 .08596802V.63591006Z"/>
<path id="font_2_2" d="M.58898928 .19296265H.5469971C.5439911 .17396546 .5339966 .11198425 .5179901 .101989749 .5099945 .09599304 .42599488 .09599304 .41099549 .09599304H.21499634C.2809906 .14497376 .35499574 .20095825 .4149933 .24093628 .5049896 .30291749 .58898928 .36090089 .58898928 .46687318 .58898928 .59495547 .46798707 .6660156 .32499696 .6660156 .18998719 .6660156 .09098816 .58795168 .09098816 .48986817 .09098816 .4378662 .1349945 .42886354 .14898682 .42886354 .17599488 .42886354 .20799256 .4468689 .20799256 .48786927 .20799256 .52386477 .18199158 .543869 .15098572 .546875 .1789856 .59194949 .23699951 .6220093 .3039856 .6220093 .40098573 .6220093 .48199464 .5639038 .48199464 .4658661 .48199464 .3818817 .42399598 .31791688 .34700013 .2529297L.102996829 .04598999C.09298706 .036987306 .09199524 .036987306 .09098816 .02999878V0H.55599978L.58898928 .19296265Z"/>
</defs>
<path transform="matrix(1.00003,0,0,-1.00002,5.1135866,111.059909)" stroke-width=".79701" stroke-linecap="butt" stroke-miterlimit="10" stroke-linejoin="miter" fill="none" stroke="#000000" d="M2.81807 0C2.81807 1.55638 1.55638 2.81807 0 2.81807-1.55638 2.81807-2.81807 1.55638-2.81807 0-2.81807-1.55638-1.55638-2.81807 0-2.81807 1.55638-2.81807 2.81807-1.55638 2.81807 0ZM0 0"/>
<path transform="matrix(1.00003,0,0,-1.00002,5.1135866,111.059909)" stroke-width=".3985" stroke-linecap="butt" stroke-miterlimit="10" stroke-linejoin="miter" fill="none" stroke="#000000" d="M109.0436-61.22902C109.0436-57.36555 105.91171-54.23367 102.04826-54.23367 98.1848-54.23367 95.05292-57.36555 95.05292-61.22902 95.05292-65.09248 98.1848-68.22437 102.04826-68.22437 105.91171-68.22437 109.0436-65.09248 109.0436-61.22902ZM102.04826-61.22902"/>
<use data-text="H" xlink:href="#font_1_62" transform="matrix(7.9703395,0,0,-7.9702599,103.99255,175.01219)"/>
<path transform="matrix(1.00003,0,0,-1.00002,5.1135866,111.059909)" stroke-width=".79701" stroke-linecap="butt" stroke-miterlimit="10" stroke-linejoin="miter" fill="none" stroke="#000000" d="M2.7535-1.65218 95.87886-57.52728"/>
<path transform="matrix(1.00003,0,0,-1.00002,5.1135866,111.059909)" stroke-width=".79701" stroke-linecap="butt" stroke-miterlimit="10" stroke-linejoin="miter" fill="none" stroke="#000000" d="M213.57672-99.7805C213.57672-94.54466 209.33237-90.30031 204.09653-90.30031 198.86069-90.30031 194.61634-94.54466 194.61634-99.7805 194.61634-105.01634 198.86069-109.2607 204.09653-109.2607 209.33237-109.2607 213.57672-105.01634 213.57672-99.7805ZM204.09653-99.7805"/>
<use data-text="H" xlink:href="#font_1_62" transform="matrix(7.9703395,0,0,-7.9702599,202.98754,213.56397)"/>
<use data-text="T" xlink:href="#font_1_104" transform="matrix(7.9703395,0,0,-7.9702599,209.33193,213.56397)"/>
<path transform="matrix(1.00003,0,0,-1.00002,5.1135866,111.059909)" stroke-width=".79701" stroke-linecap="butt" stroke-miterlimit="10" stroke-linejoin="miter" fill="none" stroke="#000000" d="M108.77383-63.76862 195.04174-96.35864"/>
<use data-text="1" xlink:href="#font_2_1" transform="matrix(4.9814498,0,0,-4.9813997,155.33109,196.72663)"/>
<path transform="matrix(1.00003,0,0,-1.00002,68.01947,104.339778)" stroke-width=".3387" stroke-linecap="butt" stroke-miterlimit="10" stroke-linejoin="miter" fill="none" stroke="#000000" d="M87.309-93.319H90.699"/>
<use data-text="2" xlink:href="#font_2_2" transform="matrix(4.9814498,0,0,-4.9813997,155.33109,201.80472)"/>
<path transform="matrix(1.00003,0,0,-1.00002,5.1135866,111.059909)" stroke-width=".79701" stroke-linecap="butt" stroke-miterlimit="10" stroke-linejoin="miter" fill="none" stroke="#000000" d="M213.66696-22.67743C213.66696-17.39175 209.38219-13.10698 204.09653-13.10698 198.81085-13.10698 194.5261-17.39175 194.5261-22.67743 194.5261-27.96309 198.81085-32.24786 204.09653-32.24786 209.38219-32.24786 213.66696-27.96309 213.66696-22.67743ZM204.09653-22.67743"/>
<use data-text="H" xlink:href="#font_1_62" transform="matrix(7.9703395,0,0,-7.9702599,202.87152,136.45941)"/>
<use data-text="H" xlink:href="#font_1_62" transform="matrix(7.9703395,0,0,-7.9702599,209.21591,136.45941)"/>
<path transform="matrix(1.00003,0,0,-1.00002,5.1135866,111.059909)" stroke-width=".79701" stroke-linecap="butt" stroke-miterlimit="10" stroke-linejoin="miter" fill="none" stroke="#000000" d="M108.77383-58.68939 194.9573-26.1311"/>
<use data-text="1" xlink:href="#font_2_1" transform="matrix(4.9814498,0,0,-4.9813997,155.2891,146.00261)"/>
<path transform="matrix(1.00003,0,0,-1.00002,67.97748,53.615755)" stroke-width=".3387" stroke-linecap="butt" stroke-miterlimit="10" stroke-linejoin="miter" fill="none" stroke="#000000" d="M87.309-93.319H90.699"/>
<use data-text="2" xlink:href="#font_2_2" transform="matrix(4.9814498,0,0,-4.9813997,155.2891,151.0807)"/>
<use data-text="1" xlink:href="#font_2_1" transform="matrix(4.9814498,0,0,-4.9813997,52.73702,146.25162)"/>
<path transform="matrix(1.00003,0,0,-1.00002,-34.574605,53.86476)" stroke-width=".3387" stroke-linecap="butt" stroke-miterlimit="10" stroke-linejoin="miter" fill="none" stroke="#000000" d="M87.309-93.319H90.699"/>
<use data-text="2" xlink:href="#font_2_2" transform="matrix(4.9814498,0,0,-4.9813997,52.73702,151.32971)"/>
<path transform="matrix(1.00003,0,0,-1.00002,5.1135866,111.059909)" stroke-width=".3985" stroke-linecap="butt" stroke-miterlimit="10" stroke-linejoin="miter" fill="none" stroke="#000000" d="M108.92345 61.22913C108.92345 65.02623 105.84537 68.10431 102.04826 68.10431 98.25116 68.10431 95.17307 65.02623 95.17307 61.22913 95.17307 57.43202 98.25116 54.35394 102.04826 54.35394 105.84537 54.35394 108.92345 57.43202 108.92345 61.22913ZM102.04826 61.22913"/>
<use data-text="T" xlink:href="#font_1_104" transform="matrix(7.9703395,0,0,-7.9702599,104.10856,52.523736)"/>
<path transform="matrix(1.00003,0,0,-1.00002,5.1135866,111.059909)" stroke-width=".79701" stroke-linecap="butt" stroke-miterlimit="10" stroke-linejoin="miter" fill="none" stroke="#000000" d="M2.7535 1.65218 95.98189 57.5892"/>
<path transform="matrix(1.00003,0,0,-1.00002,5.1135866,111.059909)" stroke-width=".79701" stroke-linecap="butt" stroke-miterlimit="10" stroke-linejoin="miter" fill="none" stroke="#000000" d="M213.44344 22.67763C213.44344 27.83984 209.25875 32.02454 204.09653 32.02454 198.93431 32.02454 194.74962 27.83984 194.74962 22.67763 194.74962 17.51543 198.93431 13.33073 204.09653 13.33073 209.25875 13.33073 213.44344 17.51543 213.44344 22.67763ZM204.09653 22.67763"/>
<use data-text="T" xlink:href="#font_1_104" transform="matrix(7.9703395,0,0,-7.9702599,203.10254,91.07551)"/>
<use data-text="T" xlink:href="#font_1_104" transform="matrix(7.9703395,0,0,-7.9702599,209.21579,91.07551)"/>
<path transform="matrix(1.00003,0,0,-1.00002,5.1135866,111.059909)" stroke-width=".79701" stroke-linecap="butt" stroke-miterlimit="10" stroke-linejoin="miter" fill="none" stroke="#000000" d="M108.66147 58.732 195.1664 26.0524"/>
<use data-text="1" xlink:href="#font_2_1" transform="matrix(4.9814498,0,0,-4.9813997,155.3371,74.26817)"/>
<path transform="matrix(1.00003,0,0,-1.00002,68.02547,-18.11868)" stroke-width=".3387" stroke-linecap="butt" stroke-miterlimit="10" stroke-linejoin="miter" fill="none" stroke="#000000" d="M87.309-93.319H90.699"/>
<use data-text="2" xlink:href="#font_2_2" transform="matrix(4.9814498,0,0,-4.9813997,155.3371,79.34627)"/>
<path transform="matrix(1.00003,0,0,-1.00002,5.1135866,111.059909)" stroke-width=".79701" stroke-linecap="butt" stroke-miterlimit="10" stroke-linejoin="miter" fill="none" stroke="#000000" d="M213.57672 99.78072C213.57672 105.01656 209.33237 109.26091 204.09653 109.26091 198.86069 109.26091 194.61634 105.01656 194.61634 99.78072 194.61634 94.54488 198.86069 90.30052 204.09653 90.30052 209.33237 90.30052 213.57672 94.54488 213.57672 99.78072ZM204.09653 99.78072"/>
<use data-text="T" xlink:href="#font_1_104" transform="matrix(7.9703395,0,0,-7.9702599,202.98754,13.998962)"/>
<use data-text="H" xlink:href="#font_1_62" transform="matrix(7.9703395,0,0,-7.9702599,209.10079,13.998962)"/>
<path transform="matrix(1.00003,0,0,-1.00002,5.1135866,111.059909)" stroke-width=".79701" stroke-linecap="butt" stroke-miterlimit="10" stroke-linejoin="miter" fill="none" stroke="#000000" d="M108.66147 63.72624 195.04174 96.35886"/>
<use data-text="1" xlink:href="#font_2_1" transform="matrix(4.9814498,0,0,-4.9813997,155.27509,23.547158)"/>
<path transform="matrix(1.00003,0,0,-1.00002,67.96347,-68.8397)" stroke-width=".3387" stroke-linecap="butt" stroke-miterlimit="10" stroke-linejoin="miter" fill="none" stroke="#000000" d="M87.309-93.319H90.699"/>
<use data-text="2" xlink:href="#font_2_2" transform="matrix(4.9814498,0,0,-4.9813997,155.27509,28.625252)"/>
<use data-text="1" xlink:href="#font_2_1" transform="matrix(4.9814498,0,0,-4.9813997,52.78802,73.97017)"/>
<path transform="matrix(1.00003,0,0,-1.00002,-34.5236,-18.416687)" stroke-width=".3387" stroke-linecap="butt" stroke-miterlimit="10" stroke-linejoin="miter" fill="none" stroke="#000000" d="M87.309-93.319H90.699"/>
<use data-text="2" xlink:href="#font_2_2" transform="matrix(4.9814498,0,0,-4.9813997,52.78802,79.04826)"/>
</svg>
