<svg xmlns="http://www.w3.org/2000/svg" xmlns:xlink="http://www.w3.org/1999/xlink" xmlns:inkscape="http://www.inkscape.org/namespaces/inkscape" version="1.1" width="375" height="276" viewBox="0 0 375 276">
<defs>
<path id="font_1_82" d="M.4189911 0V.0309906H.3869934C.29699708 .0309906 .2939911 .041992189 .2939911 .07902527V.64012148C.2939911 .6640167 .2939911 .6660156 .2709961 .6660156 .20899964 .60227969 .12098694 .60227969 .08898926 .60227969V.57128909C.10899353 .57128909 .16799927 .57128909 .21998596 .5972748V.07902527C.21998596 .042999269 .21699524 .0309906 .1269989 .0309906H.09498596V0C.12998963 .0029907227 .21699524 .0029907227 .25698854 .0029907227 .29699708 .0029907227 .38398744 .0029907227 .4189911 0Z"/>
<path id="font_1_121" d="M.45999146 .31976319C.45999146 .39982606 .45498658 .47988893 .41999818 .5539398 .37399293 .65000918 .2919922 .6660156 .25 .6660156 .18998719 .6660156 .116989139 .64001467 .07598877 .54693606 .04399109 .47789 .038986207 .39982606 .038986207 .31976319 .038986207 .24472046 .042999269 .15464783 .083999637 .07859802 .1269989-.0024719239 .19999695-.022460938 .24899292-.022460938 .30299378-.022460938 .3789978-.0014648438 .4229889 .09359741 .45498658 .16265869 .45999146 .2407074 .45999146 .31976319M.3769989 .3317871C.3769989 .25672914 .3769989 .18867493 .3659973 .12461853 .35099793 .029556275 .2939911-.00047302247 .24899292-.00047302247 .20999146-.00047302247 .15098572 .024551392 .1329956 .12062073 .12199402 .18066406 .12199402 .2727356 .12199402 .3317871 .12199402 .39582826 .12199402 .46188355 .12998963 .5159149 .14898682 .63500979 .22399903 .64401248 .24899292 .64401248 .28199769 .64401248 .34799195 .6259918 .36698915 .52693179 .3769989 .47088624 .3769989 .39482118 .3769989 .3317871Z"/>
<path id="font_1_107" d="M.44898988 .17396546H.42399598C.4189911 .14398194 .4119873 .099990848 .4019928 .084991458 .394989 .07699585 .32899476 .07699585 .30699159 .07699585H.1269989L.23298645 .17996216C.3889923 .31803895 .44898988 .37210084 .44898988 .47216798 .44898988 .5860901 .35899354 .6660156 .23699951 .6660156 .12399292 .6660156 .049987794 .57411196 .049987794 .48516847 .049987794 .4291687 .099990848 .4291687 .102996829 .4291687 .11999512 .4291687 .15499878 .44117738 .15499878 .48217774 .15499878 .5081787 .13699341 .5341797 .101989749 .5341797 .09399414 .5341797 .09199524 .5341797 .08898926 .5331726 .11199951 .59806826 .1659851 .63500979 .22399903 .63500979 .31498719 .63500979 .35798646 .5541382 .35798646 .47216798 .35798646 .39196778 .30799867 .31297303 .25299073 .25097657L.06098938 .036987306C.049987794 .025985718 .049987794 .023986817 .049987794 0H.42099L.44898988 .17396546Z"/>
<path id="font_1_106" d="M.45700074 .17037964C.45700074 .252594 .3939972 .33088685 .2899933 .35191346 .37199403 .37893678 .42999269 .4490509 .42999269 .52809146 .42999269 .6100464 .34199525 .6660156 .24598694 .6660156 .14498902 .6660156 .068984989 .60606387 .068984989 .53009036 .068984989 .49710084 .09098816 .47808839 .11999512 .47808839 .15098572 .47808839 .17098999 .50009158 .17098999 .5290985 .17098999 .57910159 .12399292 .57910159 .10899353 .57910159 .13999939 .62802127 .20599365 .64100649 .24198914 .64100649 .2829895 .64100649 .33799745 .6190338 .33799745 .5290985 .33799745 .51708987 .33599855 .45906068 .30999757 .4149933 .27999879 .36691285 .24598694 .36390687 .22099304 .36291505 .21299744 .36190797 .18899536 .35990907 .18199158 .35990907 .17399597 .35890199 .16699219 .35791017 .16699219 .3479004 .16699219 .33691407 .17399597 .33691407 .19099427 .33691407H.23498535C.31698609 .33691407 .35398866 .2686615 .35398866 .17037964 .35398866 .034469606 .2849884 .0055389406 .24099732 .0055389406 .19799805 .0055389406 .12298584 .022491456 .08799744 .08137512 .12298584 .07637024 .1539917 .09837341 .1539917 .1363678 .1539917 .17237854 .1269989 .19238281 .09799194 .19238281 .07398987 .19238281 .041992189 .17837525 .041992189 .1343689 .041992189 .043441774 .1349945-.022460938 .24398804-.022460938 .3659973-.022460938 .45700074 .06838989 .45700074 .17037964Z"/>
<path id="font_1_57" d="M.47099305 .16503906V.19602967H.37098695V.6507721C.37098695 .6707611 .37098695 .6767578 .35499574 .6767578 .34599305 .6767578 .34298707 .6767578 .33499146 .6647644L.027999878 .19602967V.16503906H.2939911V.07800293C.2939911 .041992189 .2919922 .0309906 .21798706 .0309906H.19699097V0C.23799134 .0029907227 .2899933 .0029907227 .33198548 .0029907227 .37399293 .0029907227 .4269867 .0029907227 .46798707 0V.0309906H.44699098C.37298585 .0309906 .37098695 .041992189 .37098695 .07800293V.16503906H.47099305M.2999878 .19602967H.055999757L.2999878 .56881716V.19602967Z"/>
<path id="font_1_56" d="M.44898988 .20091248C.44898988 .31991578 .36698915 .41992188 .25898744 .41992188 .21099854 .41992188 .16799927 .4039154 .13198853 .36891175V.5641022C.1519928 .55778506 .18499756 .55078127 .21699524 .55078127 .33999635 .55078127 .4099884 .6418457 .4099884 .65493777 .4099884 .6609802 .40699769 .6660156 .3999939 .6660156 .3999939 .66607668 .39698792 .66607668 .3919983 .66308596 .37199403 .65408328 .32299806 .63378909 .2559967 .63378909 .21598816 .63409426 .16999817 .641098 .12298584 .6621094 .114990238 .6651001 .11099243 .6651001 .11099243 .6651001 .100997928 .66508486 .100997928 .657074 .100997928 .64108279V.3447113C.100997928 .3266449 .100997928 .31861878 .114990238 .31861878 .12199402 .31861878 .12399292 .32164 .12799073 .32765199 .13899231 .34371949 .17599488 .3979187 .25698854 .3979187 .30899049 .3979187 .33399964 .3517456 .34199525 .3336792 .35798646 .2965393 .3600006 .2574005 .3600006 .20721436 .3600006 .17218018 .3600006 .112197879 .33599855 .07032776 .31199647 .031448366 .2749939 .0055389406 .22898865 .0055389406 .1559906 .0055389406 .09899902 .05836487 .08198547 .1171875 .084991458 .11685181 .08799744 .115859989 .09899902 .115859989 .13198853 .115859989 .14898682 .14085388 .14898682 .16485596 .14898682 .18885803 .13198853 .21386719 .09899902 .21386719 .084991458 .21386719 .049987794 .2068634 .049987794 .16085816 .049987794 .07432556 .11898804-.022460938 .23098755-.022460938 .34700013-.022460938 .44898988 .07331848 .44898988 .20019531V.20091248Z"/>
<path id="font_1_101" d="M.45700074 .2036438C.45700074 .33070375 .36799623 .4267578 .25698854 .4267578 .18899536 .4267578 .1519928 .37573243 .13198853 .327713V.35173036C.13198853 .6047821 .2559967 .64100649 .30699159 .64100649 .33099366 .64100649 .37298585 .634964 .394989 .6007538 .37998963 .6007538 .33999635 .6007538 .33999635 .5557556 .33999635 .524765 .3639984 .5097656 .38598634 .5097656 .4019928 .5097656 .43199159 .51875308 .43199159 .5577545 .43199159 .6178589 .3880005 .6660156 .30499269 .6660156 .1769867 .6660156 .041992189 .5367584 .041992189 .31570436 .041992189 .048553468 .1579895-.022460938 .25099183-.022460938 .3619995-.022460938 .45700074 .07156372 .45700074 .2036438M.36698915 .20463562C.36698915 .15661621 .36698915 .10658264 .34999085 .0705719 .31999208 .010528564 .27398683 .0055389406 .25099183 .0055389406 .18798828 .0055389406 .1579895 .06556702 .1519928 .080566409 .13398743 .127594 .13398743 .2076416 .13398743 .22564698 .13398743 .30369569 .1659851 .40374757 .2559967 .40374757 .27198792 .40374757 .31799317 .40374757 .34899903 .34172059 .36698915 .30470277 .36698915 .2536621 .36698915 .20463562Z"/>
<path id="font_1_100" d="M.4850006 .6435547H.24198914C.11999512 .6435547 .117996219 .6566467 .11399841 .67578127H.08898926L.055999757 .46954347H.08099365C.083999637 .48554994 .09298706 .54855349 .10598755 .5605469 .11299133 .5665436 .19099427 .5665436 .20399475 .5665436H.41099549L.29899598 .40853883C.20899964 .2735443 .17599488 .13453675 .17599488 .03253174 .17599488 .022537232 .17599488-.022460938 .22200012-.022460938 .2679901-.022460938 .2679901 .022537232 .2679901 .03253174V.08354187C.2679901 .13853455 .2709961 .19354248 .2789917 .24754334 .2829895 .27053834 .29699708 .35653688 .34098817 .41854859L.47599793 .608551C.4850006 .62054446 .4850006 .62254336 .4850006 .6435547Z"/>
<path id="font_1_51" d="M.45700074 .16764832C.45700074 .20367432 .44599916 .24871826 .4079895 .29074098 .3889923 .31176759 .37298585 .32176209 .30899049 .36180116 .3809967 .39881898 .42999269 .4508667 .42999269 .51690676 .42999269 .6089783 .34098817 .6660156 .25 .6660156 .1499939 .6660156 .068984989 .5919647 .068984989 .49890138 .068984989 .48088075 .070999149 .43585206 .11299133 .38882447 .12399292 .3768158 .16099549 .35179139 .18598938 .33477784 .12799073 .30575563 .041992189 .24971009 .041992189 .15063477 .041992189 .044555665 .14399719-.022460938 .24899292-.022460938 .3619995-.022460938 .45700074 .060577394 .45700074 .16764832M.38598634 .51690676C.38598634 .45986939 .34700013 .41183473 .2869873 .3768158L.16299439 .4568634C.116989139 .4868927 .11299133 .5209198 .11299133 .53793337 .11299133 .5989685 .17799378 .64100649 .24899292 .64100649 .32199098 .64100649 .38598634 .588974 .38598634 .51690676M.40699769 .13162232C.40699769 .05757141 .33198548 .0055389406 .25 .0055389406 .1639862 .0055389406 .09199524 .06758118 .09199524 .15063477 .09199524 .2086792 .12399292 .2727356 .20899964 .31976319L.33198548 .24171448C.3600006 .22268677 .40699769 .19267273 .40699769 .13162232Z"/>
<path id="font_1_78" d="M.45700074 .32888795C.45700074 .598114 .34199525 .6660156 .25299073 .6660156 .19799805 .6660156 .14898682 .64801028 .10598755 .6031189 .06498718 .5580902 .041992189 .5160217 .041992189 .44091798 .041992189 .3158722 .12998963 .21777344 .24198914 .21777344 .30299378 .21777344 .34399415 .25979615 .36698915 .3178711V.28582765C.36698915 .05178833 .2630005 .0055389406 .20498657 .0055389406 .18798828 .0055389406 .13398743 .007537842 .10699463 .041778566 .15098572 .041778566 .15899658 .07078552 .15899658 .08778381 .15899658 .118774417 .1349945 .13378906 .11299133 .13378906 .09700012 .13378906 .066986087 .12478638 .066986087 .08578491 .066986087 .018615723 .12098694-.022460938 .20599365-.022460938 .33499146-.022460938 .45700074 .11378479 .45700074 .32888795M.36499024 .42089845C.36499024 .33789063 .33099366 .24076844 .24299622 .24076844 .22698975 .2407074 .18099976 .2407074 .1499939 .30371095 .13198853 .34072877 .13198853 .3908081 .13198853 .43988038 .13198853 .49397279 .13198853 .5410614 .15299988 .578125 .17999268 .62805178 .21798706 .64100649 .25299073 .64100649 .29899598 .64100649 .33198548 .60710147 .34899903 .562088 .36099244 .52989199 .36499024 .46688844 .36499024 .42089845Z"/>
<path id="font_2_121" d="M.47299195 .31976319C.47299195 .38682557 .46998597 .47288514 .43499757 .5479431 .3909912 .64201357 .31498719 .6660156 .25698854 .6660156 .19699097 .6660156 .12098694 .64201357 .07699585 .5459442 .04499817 .47688294 .039993287 .39582826 .039993287 .31976319 .039993287 .25471498 .041992189 .15765381 .084991458 .07858276 .13198853-.0064697267 .20999146-.022460938 .2559967-.022460938 .32099916-.022460938 .394989 .0055389406 .43699647 .097595218 .46699525 .1646576 .47299195 .23971558 .47299195 .31976319M.3869934 .33177186C.3869934 .2697296 .3869934 .18566895 .3769989 .12661743 .35598756 .012542725 .28199769 .002532959 .25698854 .002532959 .22698975 .002532959 .15499878 .016540528 .13598633 .12962342 .12599182 .18867493 .12599182 .2747345 .12599182 .33177186 .12599182 .39982606 .12599182 .47888185 .13798523 .53393557 .1579895 .6230011 .22200012 .64100649 .2559967 .64100649 .2939911 .64100649 .35699464 .62098696 .37599183 .5279236 .3869934 .47288514 .3869934 .39482118 .3869934 .33177186Z"/>
<path id="font_2_82" d="M.43199159 0V.0309906H.3999939C.30699159 .0309906 .3039856 .042999269 .3039856 .08001709V.63912966C.3039856 .6640167 .30299378 .6660156 .27799989 .6660156 .21598816 .60227969 .12399292 .60227969 .09298706 .60227969V.57128909C.11199951 .57128909 .17298889 .57128909 .22698975 .5972748V.08001709C.22698975 .042999269 .22399903 .0309906 .1309967 .0309906H.09899902V0C.1349945 .0029907227 .22399903 .0029907227 .2649994 .0029907227 .30599977 .0029907227 .3959961 .0029907227 .43199159 0Z"/>
<path id="font_2_107" d="M.46199037 .17704773H.43399049C.43199159 .16404724 .42399598 .10501099 .41099549 .08900452 .40499879 .07998657 .33599855 .07998657 .31599427 .07998657H.13798523L.23699951 .17404175C.40098573 .3161316 .46199037 .36915589 .46199037 .4711914 .46199037 .5860901 .36698915 .6660156 .24398804 .6660156 .1289978 .6660156 .050994874 .575119 .050994874 .4841919 .050994874 .43418885 .09399414 .42919923 .102996829 .42919923 .125 .42919923 .15499878 .44519044 .15499878 .48120118 .15499878 .51119998 .13398743 .5332031 .102996829 .5332031 .09799194 .5332031 .09498596 .5332031 .09098816 .53219607 .114990238 .6030731 .1789856 .63500979 .23298645 .63500979 .33499146 .63500979 .36999513 .5401764 .36999513 .4711914 .36999513 .36915589 .29299928 .28611756 .24499512 .23408509L.06199646 .035995485C.050994874 .024993897 .050994874 .022994996 .050994874 0H.43399049L.46199037 .17704773Z"/>
<path id="font_2_106" d="M.46998597 .17008972C.46998597 .25709535 .40098573 .33110047 .30499269 .35209657 .397995 .38710023 .44198609 .46009828 .44198609 .5290985 .44198609 .60606387 .35699464 .6660156 .25299073 .6660156 .14898682 .6660156 .070999149 .60705569 .070999149 .5310974 .070999149 .49809266 .09298706 .47909547 .12199402 .47909547 .15098572 .47909547 .17199707 .50009158 .17199707 .5290985 .17199707 .5640869 .147995 .57910159 .11399841 .57910159 .13999939 .6210327 .20098877 .64100649 .25 .64100649 .33299256 .64100649 .34899903 .5750885 .34899903 .52809146 .34899903 .49809266 .34298707 .45005799 .31799317 .41201783 .2869873 .36695863 .2519989 .36495973 .22299195 .36296083 .19799805 .36094667 .19599915 .36094667 .18798828 .36094667 .1789856 .35995484 .17098999 .35894776 .17098999 .34794618 .17098999 .33496095 .1789856 .33496095 .19599915 .33496095H.24299622C.32998658 .33496095 .36799623 .2646637 .36799623 .16937256 .36799623 .04145813 .2999878 .0055389406 .24899292 .0055389406 .22999573 .0055389406 .1329956 .010528564 .08799744 .0843811 .12399292 .07939148 .1519928 .10437012 .1519928 .13838196 .1519928 .17137146 .1269989 .19238281 .09799194 .19238281 .07299805 .19238281 .042999269 .17736817 .042999269 .13537598 .042999269 .046447755 .13598633-.022460938 .2519989-.022460938 .3769989-.022460938 .46998597 .06741333 .46998597 .16937256V.17008972Z"/>
<path id="font_2_57" d="M.48399354 .16503906V.19602967H.38198854V.649765C.38198854 .669754 .38198854 .6767578 .36299134 .6767578 .35099793 .6767578 .34999085 .67575076 .34098817 .6617584L.0289917 .19602967V.16503906H.3019867V.07901001C.3019867 .041992189 .29899598 .0309906 .22399903 .0309906H.20199585V0C.2649994 .0029907227 .33499146 .0029907227 .34199525 .0029907227 .34700013 .0029907227 .4189911 .0029907227 .48199464 0V.0309906H.45999146C.3849945 .0309906 .38198854 .041992189 .38198854 .07901001V.16503906H.48399354M.30799867 .19602967H.06098938L.30799867 .56581118V.19602967Z"/>
<path id="font_2_56" d="M.46199037 .19992066C.46199037 .3209076 .37599183 .41992188 .2669983 .41992188 .21899414 .41992188 .16999817 .4039154 .1349945 .36791993V.5647888C.16499329 .55578616 .19599915 .55078127 .22698975 .55078127 .34999085 .55078127 .42199708 .63983157 .42199708 .6529236 .42199708 .6619873 .41600038 .6660156 .41099549 .6660156 .41099549 .6660156 .40699769 .6660156 .397995 .6609802 .35099793 .6418457 .30499269 .63378909 .2630005 .63378909 .21998596 .63378909 .1749878 .6418457 .1289978 .6609802 .11898804 .6660156 .115997318 .6660156 .115997318 .6660156 .10398865 .6660156 .10398865 .6559448 .10398865 .63882449V.34490968C.10398865 .32699586 .10398865 .31599427 .117996219 .31599427 .12599182 .31562806 .1289978 .3196411 .1349945 .32867433 .16499329 .37083436 .21299744 .39491273 .2649994 .39491273 .37199403 .39491273 .37199403 .24035645 .37199403 .20422364 .37199403 .17321778 .37199403 .11122131 .34399415 .06636047 .31698609 .024475098 .2749939 .0055389406 .23599243 .0055389406 .1769867 .0055389406 .10998535 .042419435 .085998538 .11621094 .085998538 .116882327 .09298706 .11488342 .099990848 .11488342 .11999512 .11488342 .14898682 .12788391 .14898682 .1638794 .14898682 .19488526 .1269989 .21289063 .099990848 .21289063 .07899475 .21289063 .050994874 .20088196 .050994874 .16088867 .050994874 .069732669 .1269989-.022460938 .23799134-.022460938 .35899354-.02279663 .46199037 .07521057 .46199037 .19921875V.19992066Z"/>
<path id="font_2_101" d="M.46998597 .20277405C.46998597 .32977296 .37799073 .42578126 .2649994 .42578126 .20498657 .42578126 .1619873 .3907776 .13398743 .33078004 .13398743 .43276979 .14498902 .4897766 .17199707 .54177859 .19198609 .58277896 .24099732 .64100649 .31498719 .64100649 .33499146 .64100649 .3809967 .63697817 .4039917 .6007843 .36698915 .6007843 .35099793 .5817871 .35099793 .55477908 .35099793 .5287781 .36898805 .50878909 .39698792 .50878909 .4249878 .50878909 .44400025 .5267792 .44400025 .55677798 .44400025 .61299136 .4039917 .6660156 .31298829 .6660156 .18399048 .6660156 .042999269 .5389252 .042999269 .31576539 .042999269 .044555665 .16499329-.022460938 .25898744-.022460938 .36999513-.022460938 .46998597 .07052612 .46998597 .2025299V.20277405M.3789978 .20353699C.3789978 .15553284 .3789978 .106536868 .3600006 .0695343 .32899476 .012527466 .2849884 .0055389406 .2579956 .0055389406 .20098877 .0055389406 .16799927 .05253601 .1559906 .08152771 .13699341 .12652588 .13598633 .20953369 .13598633 .2255249 .13598633 .2927704 .16699219 .4007721 .2630005 .4007721 .2789917 .4007721 .32798768 .4007721 .3600006 .33877564 .3789978 .300766 .3789978 .25177003 .3789978 .20376587V.20353699Z"/>
<path id="font_2_100" d="M.49899293 .6435547H.25C.12399292 .6435547 .12098694 .6566467 .117996219 .67578127H.08999634L.056991579 .46655274H.084991458C.08898926 .48954774 .09700012 .5455475 .10998535 .55755618 .116989139 .56355288 .19599915 .56355288 .20999146 .56355288H.41999818L.32398988 .4325409C.19400025 .25354005 .18199158 .090530399 .18199158 .03353882 .18199158 .022537232 .18199158-.022460938 .22799683-.022460938 .2749939-.022460938 .2749939 .021530152 .2749939 .03453064V.08354187C.2749939 .23054505 .29699708 .34654237 .34999085 .41854859L.48999024 .60954287C.49899293 .62054446 .49899293 .62254336 .49899293 .6435547Z"/>
<path id="font_2_51" d="M.46998597 .16764832C.46998597 .26472474 .3959961 .3127594 .37098695 .32876588 .3600006 .33677674 .33099366 .35479737 .31900025 .36180116 .36898805 .38581849 .44198609 .43585206 .44198609 .51690676 .44198609 .6109772 .34799195 .6660156 .2579956 .6660156 .15299988 .6660156 .070999149 .5909729 .070999149 .49890138 .070999149 .46087647 .084991458 .42485047 .10899353 .39582826 .12599182 .3768158 .13198853 .37280274 .18998719 .3357849 .101989749 .29374696 .042999269 .23269654 .042999269 .15063477 .042999269 .044555665 .147995-.022460938 .2559967-.022460938 .37199403-.022460938 .46998597 .059570314 .46998597 .16764832M.3939972 .51690676C.3939972 .44685365 .33399964 .40083314 .2939911 .37780763L.17199707 .45387269C.14199829 .47288514 .11898804 .4998932 .11898804 .53692629 .11898804 .6019745 .18899536 .64100649 .25498963 .64100649 .33198548 .64100649 .3939972 .58695986 .3939972 .51690676M.41600038 .1326294C.41600038 .05357361 .33599855 .0055389406 .25698854 .0055389406 .16999817 .0055389406 .09700012 .06758118 .09700012 .15063477 .09700012 .22268677 .14698792 .28274537 .21699524 .31877137L.34298707 .2407074C.3659973 .22569275 .41600038 .19366455 .41600038 .1326294Z"/>
<path id="font_3_97" d="M.5299988 .18458557C.5299988 .2716217 .47299195 .36065675 .37098695 .38467408L.23298645 .416687C.16899109 .4316864 .12199402 .4827118 .12199402 .5437927 .12199402 .61094668 .17999268 .6740875 .2669983 .6740875 .43998719 .6740875 .46299745 .51171877 .46798707 .4737091 .46998597 .46270753 .47099305 .45570375 .48399354 .45570375 .5 .45570375 .5 .46270753 .5 .4817047V.6781006C.5 .6940918 .5 .70410159 .4869995 .70410159 .47898866 .70410159 .47698976 .7010956 .46998597 .690094L.43499757 .6340027C.3849945 .6890869 .32099916 .70410159 .2659912 .70410159 .14698792 .70410159 .05899048 .61395266 .05899048 .51171877 .05899048 .43569947 .101989749 .39367677 .12098694 .3746643 .15699768 .33865357 .18998719 .3306427 .2979889 .30563355 .38398744 .28562928 .39898683 .2826233 .43199159 .24760437 .44198609 .23660279 .46699525 .20259094 .46699525 .15356446 .46699525 .08453369 .4139862 .011505127 .31999208 .011505127 .20999146 .011505127 .09599304 .06452942 .08999634 .20359802 .08898926 .21960449 .08898926 .22660828 .07499695 .22660828 .05899048 .22660828 .05899048 .21859741 .05899048 .19958496V.004501343C.05899048-.011489868 .05899048-.021484375 .07199097-.021484375 .07998657-.021484375 .08099365-.019485474 .08799744-.009490967 .09199524-.0034942628 .09599304 .005508423 .12399292 .047531129 .18699646-.0084991459 .26098634-.021484375 .32099916-.021484375 .44599916-.021484375 .5299988 .07752991 .5299988 .18458557Z"/>
<path id="font_3_84" d="M.55400088 .21640015C.55400088 .34140016 .45298768 .44140626 .33198548 .44140626 .29299928 .44140626 .23498535 .43139649 .18399048 .37939454V.44140626L.034988405 .43045045V.39746095C.10598755 .39746095 .11099243 .39144898 .11099243 .34947206V-.1159668C.11099243-.16113281 .09899902-.16113281 .034988405-.16113281V-.19413758C.07798767-.19114685 .12199402-.19114685 .14898682-.19114685 .17799378-.19114685 .21998596-.19114685 .2630005-.19413758V-.16113281C.19898987-.16113281 .18699646-.16113281 .18699646-.1159668V.049545289C.23399353-.0017700195 .2849884-.009765625 .31698609-.009765625 .44400025-.009765625 .55400088 .088256839 .55400088 .2163086V.21640015M.46499635 .2163086C.46499635 .101257327 .3929901 .018234253 .31199647 .018234253 .2769928 .018234253 .23098755 .033233644 .19898987 .08325195 .18699646 .1002655 .18699646 .101257327 .18699646 .120269779V.33335877C.20999146 .37338258 .2599945 .4104004 .32299806 .4104004 .3999939 .4104004 .46499635 .32536317 .46499635 .2163086Z"/>
<path id="font_3_50" d="M.44099427 .12036133C.44099427 .12435913 .43798829 .13438416 .4249878 .13438416 .4139862 .13438416 .4119873 .12736511 .4099884 .12136841 .37399293 .024230957 .28799439 .021224976 .269989 .021224976 .22499085 .021224976 .1789856 .042251588 .14898682 .08831787 .11898804 .13438416 .11898804 .19847107 .11898804 .22851563H.41299439C.43499757 .22851563 .44099427 .22851563 .44099427 .25151063 .44099427 .34039308 .3919983 .44628907 .25099183 .44628907 .1269989 .44628907 .02999878 .3433838 .02999878 .21949768 .02999878 .09031677 .13798523-.009765625 .2639923-.009765625 .3909912-.009765625 .44099427 .097335819 .44099427 .12036133M.37298585 .25450135H.11999512C.1289978 .39431764 .21398926 .41827394 .25099183 .41827394 .36799623 .41827394 .37199403 .27748109 .37298585 .25450135Z"/>
<path id="font_3_47" d="M.55400088 0V.032989503C.48599244 .032989503 .47799684 .039993287 .47799684 .089019779V.69433596L.32899476 .6826172V.6496124C.39698792 .6496124 .40499879 .64263918 .40499879 .5938263V.38339234C.36999513 .42140199 .32299806 .44140626 .2709961 .44140626 .1459961 .44140626 .034988405 .3443756 .034988405 .21531677 .034988405 .09225464 .1349945-.009765625 .26098634-.009765625 .31999208-.009765625 .36898805 .018234253 .4019928 .053237916V-.009765625L.55400088 0M.4019928 .12399292C.4019928 .10598755 .4019928 .101989749 .3869934 .08198547 .35899354 .042236329 .31298829 .018234253 .2659912 .018234253 .21998596 .018234253 .17999268 .042236329 .1559906 .07925415 .1289978 .118270877 .12399292 .16729737 .12399292 .21430969 .12399292 .27233888 .1329956 .3133545 .1559906 .3483734 .17999268 .38539125 .22499085 .4133911 .27598573 .4133911 .32398988 .4133911 .37199403 .38938905 .4019928 .33737184V.12399292Z"/>
<path id="font_3_85" d="M.35299684-.23800659C.35299684-.23400879 .35198976-.23300171 .33898927-.22000122 .20199585-.09100342 .16799927 .09498596 .16799927 .25 .16799927 .5379944 .2869873 .6729889 .33799745 .71899417 .35198976 .7319946 .35299684 .7330017 .35299684 .73799136 .35299684 .7429962 .34899903 .75 .33898927 .75 .32299806 .75 .272995 .69898989 .2649994 .6899872 .1309967 .5499878 .102996829 .36999513 .102996829 .25 .102996829 .025985718 .19699097-.15400696 .33299256-.25 .34098817-.25 .35299684-.25 .35299684-.23800659Z"/>
<path id="font_3_70" d="M.5419922 0V.032989503C.5 .032989503 .48199464 .036987306 .44599916 .083984378L.30099488 .27194215 .38598634 .33992005C.45199586 .3917389 .49398805 .39666749 .5189972 .3976593V.43066407C.49499513 .42765809 .48098756 .42765809 .43998719 .42765809 .3909912 .42765809 .3769989 .4286499 .33299256 .43066407V.3976593C.35198976 .39666749 .35598756 .38383485 .35598756 .3779297 .35598756 .35691834 .33599855 .33992005 .32798768 .33392335L.18399048 .21794129V.69433596L.034988405 .6826172V.6496124C.102996829 .6496124 .11099243 .64260867 .11099243 .5936432V.07795715C.11099243 .032989503 .09899902 .032989503 .034988405 .032989503V0C.07398987 .0029907227 .12799073 .0029907227 .14498902 .0029907227 .16499329 .0029907227 .21699524 .0029907227 .2559967 0V.032989503C.19198609 .032989503 .17999268 .032989503 .17999268 .07795715V.17489624L.24798584 .22886658C.25099183 .22886658 .2769928 .19389344 .29299928 .17489624 .30799867 .1539154 .32398988 .13392639 .33999635 .11393738 .35398866 .093948367 .375 .067977908 .375 .052978517 .375 .035995485 .35598756 .032989503 .34399415 .032989503V0C.3869934 .0029907227 .43199159 .0029907227 .44898988 .0029907227 .4869995 .0029907227 .5069885 .0029907227 .5419922 0Z"/>
<path id="font_3_75" d="M.8569946 0V.032989503C.79299929 .032989503 .7809906 .032989503 .7809906 .07803345V.3032837C.7809906 .3843689 .74598696 .44140626 .6369934 .44140626 .54499819 .44140626 .49899293 .37835694 .48298646 .34933473 .46499635 .42140199 .4079895 .44140626 .34298707 .44140626 .24598694 .44140626 .19999695 .37236024 .18699646 .34532167H.18598938V.44140626L.040985109 .43045045V.39746095C.10899353 .39746095 .116989139 .3904419 .116989139 .3413849V.078048709C.116989139 .032989503 .10499573 .032989503 .040985109 .032989503V0C.083999637 .0029907227 .12799073 .0029907227 .15499878 .0029907227 .18399048 .0029907227 .22599793 .0029907227 .2689972 0V.032989503C.20498657 .032989503 .19299317 .032989503 .19299317 .078048709V.25927735C.19299317 .36434938 .27198792 .4133911 .33499146 .4133911 .3999939 .4133911 .41099549 .36235047 .41099549 .3072815V.07803345C.41099549 .032989503 .39898683 .032989503 .33499146 .032989503V0C.37799073 .0029907227 .42199708 .0029907227 .44898988 .0029907227 .47799684 .0029907227 .519989 .0029907227 .5629883 0V.032989503C.49899293 .032989503 .4869995 .032989503 .4869995 .07803345V.25923158C.4869995 .36434938 .56599429 .4133911 .6289978 .4133911 .69400027 .4133911 .7049866 .36235047 .7049866 .3072815V.07803345C.7049866 .032989503 .69299319 .032989503 .6289978 .032989503V0C.6719971 .0029907227 .71598818 .0029907227 .7429962 .0029907227 .7719879 .0029907227 .81399539 .0029907227 .8569946 0Z"/>
<path id="font_3_102" d="M.47099305 .72698977C.47099305 .73999026 .46099855 .75 .44799806 .75 .43199159 .75 .42799378 .73799136 .4229889 .7259979L.06399536-.2090149C.05899048-.2210083 .05899048-.227005 .05899048-.227005 .05899048-.2400055 .068984989-.25 .08198547-.25 .09799194-.25 .101989749-.23800659 .10699463-.22601319L.46598817 .70899966C.47099305 .72099307 .47099305 .72698977 .47099305 .72698977Z"/>
<path id="font_3_63" d="M.56199648 0V.032989503C.49798585 .032989503 .48599244 .032989503 .48599244 .07814026V.30371095C.48599244 .38746644 .44799806 .44140626 .34298707 .44140626 .25498963 .44140626 .20899964 .3854828 .19099427 .3535614H.18998719V.69433596L.040985109 .6826172V.6496124C.10899353 .6496124 .116989139 .64263918 .116989139 .5938263V.07814026C.116989139 .032989503 .10499573 .032989503 .040985109 .032989503V0C.083999637 .0029907227 .12799073 .0029907227 .15499878 .0029907227 .18399048 .0029907227 .22599793 .0029907227 .2689972 0V.032989503C.20498657 .032989503 .19299317 .032989503 .19299317 .07814026V.2597046C.19299317 .36453248 .272995 .4133911 .33399964 .4133911 .394989 .4133911 .4099884 .37051393 .4099884 .30769349V.07814026C.4099884 .032989503 .397995 .032989503 .33399964 .032989503V0C.3769989 .0029907227 .42099 .0029907227 .44799806 .0029907227 .47698976 .0029907227 .5189972 .0029907227 .56199648 0Z"/>
<path id="font_3_86" d="M.30899049 .25C.30899049 .34498597 .29299928 .45899964 .23098755 .57699587 .18199158 .6689911 .09098816 .75 .07299805 .75 .06298828 .75 .05999756 .7429962 .05999756 .73799136 .05999756 .73399356 .05999756 .7319946 .07199097 .7200012 .21199036 .58699038 .24398804 .4039917 .24398804 .25 .24398804-.037002565 .125-.17300415 .07398987-.2190094 .06098938-.23200989 .05999756-.23300171 .05999756-.23800659 .05999756-.24301148 .06298828-.25 .07299805-.25 .08898926-.25 .13899231-.19900513 .14698792-.19000244 .2809906-.05000305 .30899049 .12998963 .30899049 .25Z"/>
<path id="font_3_54" d="M.647995 .45303346 .61898806 .6796875H.04399109V.64668276H.06599426C.14299011 .64668276 .14498902 .6356964 .14498902 .59877017V.08102417C.14498902 .044006349 .14299011 .032989503 .06599426 .032989503H.04399109V0L.19799805 .0029907227C.24499512 .0029907227 .31799317 .0029907227 .36299134 0V.032989503H.33099366C.23699951 .032989503 .23699951 .04699707 .23699951 .08203125V.32421876H.32998658C.42799378 .32421876 .43998719 .29318238 .43998719 .2071228H.47099305V.47399903H.43998719C.43998719 .38916017 .42799378 .35720826 .32998658 .35720826H.23699951V.60575869C.23699951 .6396942 .23899842 .64668276 .2849884 .64668276H.41799928C.58099368 .64668276 .59999087 .58380129 .61698916 .45303346H.647995Z"/>
<path id="font_3_96" d="M.38398744 .3784027C.38398744 .4133911 .35198976 .44140626 .30799867 .44140626 .24299622 .44140626 .19898987 .39239503 .17799378 .33639527H.1769867V.44140626L.034988405 .43045045V.39746095C.102996829 .39746095 .11099243 .3904419 .11099243 .3413849V.078048709C.11099243 .032989503 .09899902 .032989503 .034988405 .032989503V0C.07398987 .0029907227 .1289978 .0029907227 .15299988 .0029907227 .21199036 .0029907227 .21398926 .0029907227 .2789917 0V.032989503H.25898744C.18598938 .032989503 .18399048 .044006349 .18399048 .08004761V.22824097C.18399048 .30332948 .21499634 .41145326 .31098939 .41345216 .30499269 .40899659 .29499818 .40098573 .29499818 .37799073 .29499818 .34700013 .31900025 .33299256 .33898927 .33299256 .36299134 .33299256 .38398744 .34899903 .38398744 .37799073V.3784027Z"/>
<path id="font_3_91" d="M.5549927-.19413758V-.16113281C.4909973-.16113281 .47898866-.16113281 .47898866-.11602783V.44140626H.45098878L.4139862 .35437013C.3809967 .4073944 .33299256 .44140626 .269989 .44140626 .14498902 .44140626 .034988405 .3443756 .034988405 .21531677 .034988405 .09025574 .13798523-.009765625 .26098634-.009765625 .33299256-.009765625 .3789978 .030227662 .40299989 .0602417V-.11602783C.40299989-.16113281 .3909912-.16113281 .32699586-.16113281V-.19413758C.36999513-.19114685 .4139862-.19114685 .44099427-.19114685 .46998597-.19114685 .5119934-.19114685 .5549927-.19413758M.4059906 .14228821C.4059906 .12626648 .4059906 .120269779 .3909912 .09425354 .35398866 .033233644 .30099488 .018234253 .2669983 .018234253 .18699646 .018234253 .12399292 .10726929 .12399292 .21531677 .12399292 .32936097 .19799805 .4104004 .2769928 .4104004 .35798646 .4104004 .4059906 .32936097 .4059906 .27433778V.14228821Z"/>
<path id="font_3_109" d="M.56199648 .00022888184V.033233644C.49398805 .033233644 .48599244 .040237428 .48599244 .08924866V.44140626L.33399964 .43040467V.3973999C.4019928 .3973999 .4099884 .39039613 .4099884 .34136964V.16726685C.4099884 .08125305 .35798646 .018234253 .2829895 .018234253 .19699097 .018234253 .19299317 .06123352 .19299317 .11126709V.44140626L.040985109 .43040467V.3973999C.116989139 .3973999 .116989139 .39439393 .116989139 .30534364V.15527344C.116989139 .08325195 .116989139-.009765625 .2769928-.009765625 .37098695-.009765625 .40699769 .0622406 .4119873 .071243289H.41299439V-.009765625L.56199648 .00022888184Z"/>
<path id="font_3_77" d="M.56199648 0V.032989503C.49798585 .032989503 .48599244 .032989503 .48599244 .07803345V.3032837C.48599244 .38737489 .44799806 .44140626 .34298707 .44140626 .24398804 .44140626 .19898987 .36935426 .18699646 .34532167H.18598938V.44140626L.040985109 .43045045V.39746095C.10899353 .39746095 .116989139 .3904419 .116989139 .3413849V.078048709C.116989139 .032989503 .10499573 .032989503 .040985109 .032989503V0C.083999637 .0029907227 .12799073 .0029907227 .15499878 .0029907227 .18399048 .0029907227 .22599793 .0029907227 .2689972 0V.032989503C.20498657 .032989503 .19299317 .032989503 .19299317 .078048709V.25927735C.19299317 .36434938 .272995 .4133911 .33399964 .4133911 .394989 .4133911 .4099884 .37036134 .4099884 .3072815V.07803345C.4099884 .032989503 .397995 .032989503 .33399964 .032989503V0C.3769989 .0029907227 .42099 .0029907227 .44799806 .0029907227 .47698976 .0029907227 .5189972 .0029907227 .56199648 0Z"/>
<path id="font_3_43" d="M.44099427 .12031555C.44099427 .13232422 .42799378 .13232422 .4249878 .13232422 .41799928 .13232422 .41299439 .13131714 .4099884 .12130737 .40299989 .10029602 .375 .021224976 .2749939 .021224976 .21299744 .021224976 .12399292 .0692749 .12399292 .21739197 .12399292 .3614807 .19799805 .4152832 .2709961 .4152832 .27999879 .4152832 .33299256 .4152832 .36799623 .39746095 .33999635 .3884735 .33599855 .36547853 .33599855 .35346986 .33599855 .32647706 .35499574 .30647279 .3829956 .30647279 .40899659 .30625917 .42999269 .32426454 .42999269 .35427857 .42999269 .41627503 .3619995 .44628907 .2679901 .44628907 .1289978 .44628907 .034988405 .3352661 .034988405 .21624756 .034988405 .0892334 .13899231-.009765625 .2649994-.009765625 .4059906-.009765625 .44099427 .10824585 .44099427 .12023926V.12031555Z"/>
<path id="font_3_118" d="M.5379944 .3976593V.43066407C.5029907 .42765809 .5009918 .42765809 .45899964 .42765809 .45498658 .42765809 .4019928 .42765809 .37298585 .43066407V.3976593C.4019928 .39564515 .41600038 .37954713 .41600038 .3564148 .41600038 .3504181 .4149933 .3434143 .4099884 .3314209L.30299378 .089645389 .18699646 .3514099C.17999268 .36647035 .17999268 .3684845 .17999268 .37249757 .17999268 .39665223 .21099854 .3976593 .23298645 .3976593V.43066407C.18798828 .42765809 .14498902 .42765809 .12298584 .42765809 .101989749 .42765809 .053985597 .42765809 .021987915 .43066407V.3976593C.07398987 .3976593 .08799744 .39564515 .10499573 .35742188L.2630005-.0002746582C.21798706-.106170658 .18798828-.17610169 .117996219-.17610169 .09298706-.17610169 .07699585-.16412354 .07699585-.16412354 .083999637-.16212464 .10699463-.1511383 .10699463-.122161868 .10699463-.094192508 .085998538-.079193118 .06399536-.079193118 .04399109-.079193118 .020996094-.0921936 .020996094-.12315369 .020996094-.16711426 .06399536-.20410156 .117996219-.20410156 .20698548-.20410156 .25498963-.09718323 .25898744-.08718872L.44299317 .32940675C.46798707 .38659669 .5049896 .39665223 .5379944 .3976593Z"/>
<path id="font_4_62" d="M.94400027 0V.055999757H.83699038V.62953189H.94400027V.6855469C.92099 .6835327 .7779999 .6815338 .7619934 .6815338 .73999026 .6815338 .6009979 .6835327 .57899478 .6855469V.62953189H.6859894V.38476563H.31498719V.62953189H.42199708V.6855469C.39898683 .6835327 .2559967 .6815338 .23999024 .6815338 .21798706 .6815338 .07899475 .6835327 .056991579 .6855469V.62953189H.1639862V.055999757H.056991579V0C.07998657 .0019989014 .22299195 .0039978029 .23899842 .0039978029 .26098634 .0039978029 .3999939 .0019989014 .42199708 0V.055999757H.31498719V.3287506H.6859894V.055999757H.57899478V0C.60198977 .0019989014 .7449951 .0039978029 .7609863 .0039978029 .7829895 .0039978029 .9219971 .0019989014 .94400027 0Z"/>
<path id="font_4_66" d="M.31498719 0V.055999757H.2539978V.4501953L.069992069 .4423828V.3863678C.1269989 .3863678 .13398743 .3863678 .13398743 .34733583V.055999757H.066986087V0C.066986087 0 .147995 .0039978029 .19299317 .0039978029 .23399353 .0039978029 .27398683 .0029907227 .31498719 0M.2639923 .602478C.2639923 .6484833 .22698975 .68447878 .18199158 .68447878 .13598633 .68447878 .099990848 .6464844 .099990848 .60346987 .099990848 .55747988 .13699341 .5214844 .18199158 .5214844 .22799683 .5214844 .2639923 .55947878 .2639923 .602478Z"/>
<path id="font_4_98" d="M.46398927 .14213562C.46398927 .18812561 .43998719 .22012329 .4169922 .23912049 .36999513 .27812196 .32699586 .28512574 .24398804 .29812623 .18699646 .3071289 .12799073 .31611634 .12799073 .35612489 .12799073 .41212464 .22799683 .41212464 .24899292 .41212464 .3619995 .41212464 .3659973 .36611939 .36898805 .3421173 .37098695 .3221283 .3769989 .32011415 .3999939 .32011415 .42900086 .32011415 .43199159 .32312013 .43199159 .35212709V.42111207C.43199159 .44111634 .43199159 .453125 .4079895 .453125 .40098573 .453125 .397995 .453125 .38198854 .44511415 .37998963 .4441223 .36698915 .43811036 .36299134 .43811036 .36299134 .43811036 .3600006 .43811036 .35598756 .4401245 .31498719 .453125 .272995 .453125 .2519989 .453125 .22299195 .453125 .1619873 .453125 .11199951 .42611695 .054992677 .39411927 .04699707 .3421173 .04699707 .3191223 .04699707 .2111206 .1789856 .19113159 .24899292 .18013 .30999757 .17112732 .3829956 .16012573 .3829956 .10812378 .3829956 .040130617 .28399659 .040130617 .2599945 .040130617 .16499329 .040130617 .12998963 .08312988 .11099243 .13713074 .10499573 .15412903 .10398865 .15612793 .07899475 .15612793 .049987794 .15612793 .04699707 .15312195 .04699707 .12413025V.026138306C.04699707 .006134033 .04699707-.005859375 .069992069-.005859375 .07899475-.005859375 .08099365-.005859375 .101989749 .0071258547 .10798645 .010131836 .12399292 .019134522 .12998963 .023132325 .18199158-.005859375 .23599243-.005859375 .25898744-.005859375 .2919922-.005859375 .46398927-.005859375 .46398927 .14213562Z"/>
<path id="font_4_105" d="M.42900086 .121170047V.17320252H.3659973V.1251831C.3659973 .056137086 .32398988 .045135499 .3039856 .045135499 .24598694 .045135499 .24499512 .09416199 .24499512 .121170047V.38832093H.4079895V.44433595H.24499512V.6357422H.18199158C.18099976 .5425415 .13398743 .43733216 .027999878 .43432618V.38832093H.117996219V.121170047C.117996219 .022140503 .19898987-.005859375 .28599549-.005859375 .36499024-.005859375 .42900086 .040130617 .42900086 .121170047Z"/>
<path id="font_4_81" d="M.60598757 .21812439C.60598757 .3371277 .5189972 .453125 .32299806 .453125 .125 .453125 .039993287 .3361206 .039993287 .21812439 .039993287 .101135257 .1289978-.005859375 .32299806-.005859375 .5179901-.005859375 .60598757 .102127078 .60598757 .21812439M.46699525 .2301178C.46699525 .14413452 .46699525 .045135499 .32299806 .045135499 .1789856 .045135499 .1789856 .14413452 .1789856 .2301178 .1789856 .31011964 .1789856 .40711976 .32299806 .40711976 .46699525 .40711976 .46699525 .31011964 .46699525 .2301178Z"/>
<path id="font_4_59" d="M.6239929 .38919068C.6239929 .42018128 .598999 .45619203 .548996 .45619203 .5079956 .45619203 .46299745 .44018556 .43299867 .41818238 .37399293 .4501953 .31098939 .4501953 .2869873 .4501953 .12399292 .4501953 .068984989 .3651886 .068984989 .30119325 .068984989 .2442627 .10398865 .21226502 .12199402 .19726563 .09899902 .16899109 .08999634 .13999939 .08999634 .10899353 .08999634 .07199097 .10398865 .038986207 .12998963 .0129852299 .09498596 .0051116945 .039993287-.019943238 .039993287-.07203674 .039993287-.13214112 .10998535-.20117188 .32299806-.20117188 .5069885-.20117188 .60598757-.14816284 .60598757-.06903076 .60598757-.04899597 .6029968 .023132325 .519989 .062210084 .45999146 .089263919 .3939972 .089263919 .2919922 .089263919H.23799134C.20298767 .089263919 .18899536 .089263919 .17199707 .103256229 .1619873 .11125183 .14898682 .12625122 .14898682 .1502533 .14898682 .15626526 .14898682 .16725159 .1559906 .17625427 .20799256 .15126038 .2659912 .15126038 .2869873 .15126038 .45599366 .15126038 .5059967 .2392273 .5059967 .30020143 .5059967 .3511963 .47499085 .38519288 .46598817 .39318849 .48199464 .39920045 .5049896 .40618897 .526001 .40820313 .5239868 .40319825 .522995 .39520265 .522995 .38919068 .522995 .3531952 .5529938 .3381958 .57299807 .3381958 .59599307 .3381958 .6239929 .3551941 .6239929 .38919068M.3869934 .30119325C.3869934 .2602234 .3869934 .19726563 .2869873 .19726563 .18798828 .19726563 .18798828 .2612152 .18798828 .30020143 .18798828 .34014894 .18798828 .40419007 .2869873 .40419007 .3869934 .40419007 .3869934 .34114076 .3869934 .30111695V.30119325M.5079956-.072128299C.5079956-.105148319 .46598817-.15518189 .32299806-.15518189 .18598938-.15518189 .13798523-.1081543 .13798523-.071121219 .13798523-.019134522 .20698548-.019134522 .21998596-.019134522H.35299684C.37799073-.019134522 .5079956-.019134522 .5079956-.072143558V-.072128299Z"/>
<path id="font_4_96" d="M.49499513 .3611908C.49499513 .41618348 .43899537 .4501953 .3769989 .4501953 .30499269 .45028688 .25698854 .4022827 .22999573 .34028626H.22898865V.4501953L.054992677 .4423828V.3863678C.11399841 .3863678 .12199402 .3863678 .12199402 .34733583V.055999757H.054992677V0C.05899048 0 .13598633 .0039978029 .18299866 .0039978029L.32598878 0V.055999757H.24198914V.21017456C.24198914 .30029298 .2829895 .399292 .37298585 .40429688 .37298585 .40429688 .35899354 .3862915 .35899354 .36128236 .35899354 .32229615 .3869934 .29328919 .4269867 .29328919 .46699525 .29328919 .49499513 .32229615 .49499513 .36128236V.3611908Z"/>
<path id="font_4_28" d="M.61898806 .028137207C.61898806 .056137086 .60398867 .056137086 .58299258 .056137086 .522995 .056137086 .522995 .06413269 .522995 .087127689V.29512025C.522995 .37712098 .45700074 .453125 .2769928 .453125 .21899414 .453125 .07899475 .453125 .07899475 .35412599 .07899475 .31011964 .11099243 .28411866 .147995 .28411866 .19198609 .28411866 .21798706 .3151245 .21798706 .3531189 .21798706 .37512208 .20899964 .39012147 .20599365 .39311219 .20399475 .39611817 .20298767 .40011598 .20298767 .40011598 .20298767 .40512086 .2669983 .40711976 .27398683 .40711976 .34399415 .40711976 .3959961 .37911988 .3959961 .29412843V.26712037C.34700013 .26712037 .035995485 .26312257 .035995485 .11512756 .035995485 .022140503 .1459961-.005859375 .24598694-.005859375 .35198976-.005859375 .39898683 .042129518 .41600038 .06813049 .41600038 .025131226 .44299317 .0001373291 .5249939 .0001373291H.58399966C.6029968 .0001373291 .61898806 .0001373291 .61898806 .028137207M.3959961 .13713074C.3959961 .11613464 .3959961 .087127689 .35699464 .06312561 .31900025 .040130617 .27198792 .040130617 .2659912 .040130617 .20999146 .040130617 .1619873 .071136478 .1619873 .11613464 .1619873 .19812012 .29599 .22512818 .3959961 .2281189V.13713074Z"/>
<path id="font_4_75" d="M1.0349884 0V.055999757H.96798709V.30078126C.96798709 .42619325 .8849945 .4501953 .7969971 .4501953 .70098879 .4501953 .6399994 .40518189 .6069946 .35583497 .58200076 .44319154 .49598695 .4501953 .44198609 .4501953 .32199098 .4501953 .2649994 .38002015 .24499512 .34577943V.4501953L.06399536 .4423828V.3863678C.12298584 .3863678 .1309967 .3863678 .1309967 .34677125V.055999757H.06399536V0C.06399536 0 .1459961 .0039978029 .19400025 .0039978029 .24299622 .0039978029 .32499696 0 .32499696 0V.055999757H.2579956V.24882508C.2579956 .36715699 .36499024 .40419007 .42199708 .40419007 .46699525 .40419007 .48599244 .38217164 .48599244 .308136V.055999757H.4189911V0C.4189911 0 .5009918 .0039978029 .548996 .0039978029 .59799197 .0039978029 .6799927 0 .6799927 0V.055999757H.61299136V.24909973C.61299136 .36715699 .7200012 .40419007 .7769928 .40419007 .82199099 .40419007 .84098818 .38217164 .84098818 .308136V.055999757H.7739868V0C.7739868 0 .85598757 .0039978029 .9039917 .0039978029 .9529877 .0039978029 1.0349884 0 1.0349884 0Z"/>
<path id="font_4_55" d="M.4909973 .6063385C.4909973 .65234377 .44999696 .70028689 .36499024 .70028689 .24899292 .70028689 .1349945 .6533203 .1349945 .540329V.44433595H.051986696V.38832093H.1349945V.055999757H.067993167V0C.07199097 0 .14898682 .0039978029 .19599915 .0039978029L.33898927 0V.055999757H.25498963V.38832093H.3829956V.44433595H.24798584V.5383301C.24798584 .55532839 .24798584 .6542969 .35798646 .6542969 .36898805 .6542969 .36898805 .65234377 .36898805 .65234377 .36898805 .65234377 .36799623 .64933779 .3659973 .64733889 .3619995 .64134219 .35398866 .6263428 .35398866 .6063385 .35398866 .55833438 .3929901 .53733828 .42199708 .53733828 .45498658 .53733828 .4909973 .56033328 .4909973 .6063385Z"/>
<path id="font_4_111" d="M.9319916 .62953189V.6855469C.9169922 .6845398 .8470001 .6815338 .8129883 .6815338L.67099 .6855469V.62953189C.70999148 .62953189 .72898867 .62854006 .7549896 .6235504L.5239868 .14509583 .2899933 .62953189H.37799073V.6855469C.32499696 .6815338 .24899292 .6815338 .19499207 .6815338L.034988405 .6855469V.62953189H.1289978L.42599488 .017242432C.43998719-.01171875 .45298768-.01171875 .47599793-.01171875H.4909973C.5239868-.01171875 .5299988-.0047302248 .54100039 .018234253L.82899478 .611557C.83499148 .62454226 .83799746 .62953189 .9049988 .62953189H.9319916Z"/>
<path id="font_4_50" d="M.5509949 .11407471C.5509949 .13606262 .5289917 .13606262 .5189972 .13606262 .5009918 .13606262 .49598695 .13505554 .48799134 .11907959 .45199586 .045135499 .36099244 .045135499 .34399415 .045135499 .18598938 .045135499 .18099976 .16203308 .1789856 .20800781H.5159912C.5369873 .20800781 .5509949 .20800781 .5509949 .23800659 .5509949 .2669983 .5439911 .34199525 .49598695 .39100648 .44198609 .44511415 .36799623 .453125 .31298829 .453125 .12799073 .453125 .039993287 .3431244 .039993287 .22512818 .039993287 .10612488 .13198853-.005859375 .32998658-.005859375 .3659973-.005859375 .42399598-.0018615723 .47399903 .025131226 .5329895 .055999757 .5509949 .104003909 .5509949 .11399841V.11407471M.45199586 .25H.1789856C.17999268 .28903199 .18499756 .40711976 .31399537 .40711976 .44299317 .40711976 .44999696 .2930298 .45199586 .25Z"/>
<path id="font_4_63" d="M.67900088 0V.055999757H.6119995V.3011322C.6119995 .42419435 .5329895 .4501953 .44099427 .4501953 .32998658 .4501953 .27398683 .3901825 .25099183 .3561554V.69433596L.06399536 .6855469V.62953189C.12298584 .62953189 .1309967 .62953189 .1309967 .590683V.055999757H.06399536V0C.06399536 0 .1459961 .0039978029 .19400025 .0039978029 .24299622 .0039978029 .32499696 0 .32499696 0V.055999757H.2579956V.24909973C.2579956 .36515809 .3619995 .40419007 .42199708 .40419007 .46598817 .40419007 .4850006 .3811798 .4850006 .3091278V.055999757H.41799928V0C.41799928 0 .5 .0039978029 .5479889 .0039978029 .5970001 .0039978029 .67900088 0 .67900088 0Z"/>
<path id="font_4_43" d="M.5349884 .11413574C.5349884 .13212586 .5179901 .13212586 .5029907 .13212586 .47999574 .13212586 .47799684 .13113404 .47099305 .11613464 .45599366 .08312988 .42399598 .045135499 .34700013 .045135499 .18598938 .045135499 .18598938 .18511963 .18598938 .22612 .18598938 .30111695 .19799805 .40211488 .33198548 .40211488 .33799745 .40211488 .394989 .40112306 .394989 .39712525L.3929901 .39311219C.3909912 .39012147 .38198854 .37512208 .38198854 .3531189 .38198854 .31211854 .4119873 .28411866 .45098878 .28411866 .49198915 .28411866 .5209961 .31211854 .5209961 .35412599 .5209961 .45011903 .3869934 .453125 .32899476 .453125 .10598755 .453125 .04699707 .3151245 .04699707 .22212219 .04699707 .10513306 .13398743-.005859375 .32299806-.005859375 .37199403-.005859375 .4229889 .0021362305 .46299745 .025131226 .519989 .059127809 .5349884 .10812378 .5349884 .11413574Z"/>
<path id="font_4_72" d="M.32099916 0V.055999757H.2539978V.69433596L.066986087 .6855469V.62953189C.12599182 .62953189 .13398743 .62953189 .13398743 .5905762V.055999757H.066986087V0C.069992069 0 .147995 .0039978029 .19400025 .0039978029 .24299622 .0039978029 .31799317 0 .32099916 0Z"/>
<path id="font_4_97" d="M.6419983 .20327759C.6419983 .31828309 .54599 .39527894 .44999696 .41427613L.28599549 .44628907C.21299744 .46028138 .1769867 .50227358 .1769867 .5452728 .1769867 .58724978 .20698548 .64723208 .32398988 .64723208 .4099884 .64723208 .5169983 .61724856 .54100039 .48727418 .54599 .46128846 .54599 .45828248 .57398989 .45828248 .6029968 .45828248 .60598757 .46128846 .60598757 .49028016V.66622927C.60598757 .6862335 .60598757 .6982422 .58299258 .6982422 .57199099 .6982422 .56999209 .6982422 .5569916 .6852417L.522995 .65322878C.5149994 .64523318 .5130005 .64523318 .5130005 .64523318 .5130005 .64523318 .5109863 .64523318 .5049896 .65023806 .44799806 .6882324 .3809967 .6982422 .32398988 .6982422 .14299011 .6982422 .07499695 .59025576 .07499695 .49728395 .07499695 .4442749 .09799194 .40127564 .12799073 .37028504 .18199158 .31628419 .22999573 .3062744 .35499574 .28227235L.44099427 .26628114C.48999024 .25328065 .5399933 .215271 .5399933 .15727234 .5399933 .14627075 .5399933 .044281007 .3889923 .044281007 .35699464 .044158937 .2809906 .047164918 .21998596 .076171878 .1499939 .11116028 .13999939 .16816712 .13798523 .2021637 .13699341 .22216797 .13598633 .22816468 .10699463 .22816468 .07798767 .22816468 .07499695 .22515869 .07499695 .19616699V.02015686C.07499695 .0002746582 .07499695-.01171875 .09799194-.01171875 .10998535-.01171875 .11199951-.010726929 .11898804-.0047302248 .12998963 .005279541 .15499878 .031280519 .1659851 .040267946 .23498535-.0027313233 .32099916-.01171875 .3899994-.01171875 .57899478-.01171875 .6419983 .10726929 .6419983 .20327759Z"/>
<path id="font_4_84" d="M.66999819 .22319031C.66999819 .3441925 .58299258 .4501953 .41299439 .4501953 .36099244 .4501953 .2999878 .44018556 .24198914 .40419007V.4501953L.054992677 .4423828V.3863678C.07199097 .3863678 .09199524 .3863678 .10499573 .3843689 .12199402 .38137818 .12199402 .37036134 .12199402 .35134889V-.13769531H.054992677V-.19371033C.054992677-.19371033 .13699341-.18969727 .18499756-.18969727 .23399353-.18969727 .31599427-.19371033 .31599427-.19371033V-.13769531H.24899292V.037139894C.27398683 .020126343 .32299806-.005859375 .3929901-.005859375 .5649872-.005859375 .66999819 .091171268 .66999819 .2232666V.22319031M.5309906 .2232666C.5309906 .093170169 .45599366 .040130617 .37998963 .040130617 .3039856 .040130617 .26098634 .094177249 .24899292 .11117554V.32032777C.24899292 .33940126 .25 .34040834 .2639923 .3534088 .31199647 .395401 .37098695 .39941407 .3919983 .39941407 .47698976 .39941407 .5309906 .33140565 .5309906 .22340393V.2232666Z"/>
<path id="font_4_47" d="M.6619873 0V.055999757C.6029968 .055999757 .59498599 .055999757 .59498599 .09501648V.69433596L.4079895 .6855469V.62953189C.46699525 .62953189 .47499085 .62953189 .47499085 .59065249V.40820313C.41299439 .44618226 .35699464 .4501953 .32398988 .4501953 .14498902 .4501953 .04699707 .34817506 .04699707 .22116089 .04699707 .09713745 .13999939-.005859375 .31098939-.005859375 .375-.005859375 .42799378 .014129639 .46798707 .042129518V-.005859375L.6619873 0M.46798707 .115997318C.44499208 .08314514 .3959961 .040130617 .32299806 .040130617 .18598938 .040130617 .18598938 .16015625 .18598938 .21916199 .18598938 .2811737 .18598938 .40419007 .33599855 .40419007 .41999818 .40419007 .46499635 .3481903 .46798707 .3441925V.115997318Z"/>
</defs>
<path transform="matrix(1.00003,0,0,-1,33.087549,241.943)" stroke-width=".19925" stroke-linecap="butt" stroke-miterlimit="10" stroke-linejoin="miter" fill="none" stroke="#d9d9d9" d="M0 0H340.1617M0 2.83484H340.1617M0 5.6697H340.1617M0 8.50455H340.1617M0 11.33939H340.1617M0 14.17424H340.1617M0 17.0091H340.1617M0 19.84393H340.1617M0 22.67879H340.1617M0 25.51364H340.1617M0 28.3485H340.1617M0 31.18333H340.1617M0 34.01819H340.1617M0 36.85304H340.1617M0 39.68788H340.1617M0 42.52274H340.1617M0 45.35759H340.1617M0 48.19244H340.1617M0 51.02728H340.1617M0 53.86214H340.1617M0 56.69699H340.1617M0 59.53183H340.1617M0 62.36668H340.1617M0 65.20154H340.1617M0 68.03639H340.1617M0 70.87123H340.1617M0 73.70609H340.1617M0 76.54094H340.1617M0 79.37578H340.1617M0 82.21063H340.1617M0 85.04549H340.1617M0 87.88034H340.1617M0 90.71518H340.1617M0 93.55003H340.1617M0 96.38489H340.1617M0 99.21973H340.1617M0 102.05458H340.1617M0 104.88943H340.1617M0 107.72429H340.1617M0 110.55913H340.1617M0 113.39398H340.1617M0 116.22884H340.1617M0 119.06367H340.1617M0 121.89853H340.1617M0 124.73338H340.1617M0 127.56824H340.1617M0 130.40308H340.1617M0 133.23793H340.1617M0 136.07279H340.1617M0 138.90763H340.1617M0 141.74248H340.1617M0 144.57733H340.1617M0 147.41219H340.1617M0 150.24703H340.1617M0 153.08188H340.1617M0 155.91674H340.1617M0 158.75157H340.1617M0 161.58643H340.1617M0 164.42128H340.1617M0 167.25612H340.1617M0 170.09098H340.1617M0 172.92583H340.1617M0 175.76068H340.1617M0 178.59552H340.1617M0 181.43038H340.1617M0 184.26523H340.1617M0 187.10007H340.1617M0 189.93492H340.1617M0 192.76978H340.1617M0 195.60463H340.1617M0 198.43947H340.1617M0 201.27433H340.1617M0 204.10918H340.1617M0 206.94402H340.1617M0 209.77887H340.1617M0 212.61373H340.1617M0 215.44858H340.1617M0 218.28342H340.1617M0 221.11827H340.1617M0 223.95313H340.1617M0 0V226.77448M2.83484 0V226.77448M5.6697 0V226.77448M8.50455 0V226.77448M11.33939 0V226.77448M14.17424 0V226.77448M17.0091 0V226.77448M19.84393 0V226.77448M22.67879 0V226.77448M25.51364 0V226.77448M28.3485 0V226.77448M31.18333 0V226.77448M34.01819 0V226.77448M36.85304 0V226.77448M39.68788 0V226.77448M42.52274 0V226.77448M45.35759 0V226.77448M48.19244 0V226.77448M51.02728 0V226.77448M53.86214 0V226.77448M56.69699 0V226.77448M59.53183 0V226.77448M62.36668 0V226.77448M65.20154 0V226.77448M68.03639 0V226.77448M70.87123 0V226.77448M73.70609 0V226.77448M76.54094 0V226.77448M79.37578 0V226.77448M82.21063 0V226.77448M85.04549 0V226.77448M87.88034 0V226.77448M90.71518 0V226.77448M93.55003 0V226.77448M96.38489 0V226.77448M99.21973 0V226.77448M102.05458 0V226.77448M104.88943 0V226.77448M107.72429 0V226.77448M110.55913 0V226.77448M113.39398 0V226.77448M116.22884 0V226.77448M119.06367 0V226.77448M121.89853 0V226.77448M124.73338 0V226.77448M127.56824 0V226.77448M130.40308 0V226.77448M133.23793 0V226.77448M136.07279 0V226.77448M138.90763 0V226.77448M141.74248 0V226.77448M144.57733 0V226.77448M147.41219 0V226.77448M150.24703 0V226.77448M153.08188 0V226.77448M155.91674 0V226.77448M158.75157 0V226.77448M161.58643 0V226.77448M164.42128 0V226.77448M167.25612 0V226.77448M170.09098 0V226.77448M172.92583 0V226.77448M175.76068 0V226.77448M178.59552 0V226.77448M181.43038 0V226.77448M184.26523 0V226.77448M187.10007 0V226.77448M189.93492 0V226.77448M192.76978 0V226.77448M195.60463 0V226.77448M198.43947 0V226.77448M201.27433 0V226.77448M204.10918 0V226.77448M206.94402 0V226.77448M209.77887 0V226.77448M212.61373 0V226.77448M215.44858 0V226.77448M218.28342 0V226.77448M221.11827 0V226.77448M223.95313 0V226.77448M226.78797 0V226.77448M229.62282 0V226.77448M232.45767 0V226.77448M235.29253 0V226.77448M238.12737 0V226.77448M240.96222 0V226.77448M243.79708 0V226.77448M246.63191 0V226.77448M249.46677 0V226.77448M252.30162 0V226.77448M255.13648 0V226.77448M257.9713 0V226.77448M260.80619 0V226.77448M263.64103 0V226.77448M266.47587 0V226.77448M269.3107 0V226.77448M272.14558 0V226.77448M274.9804 0V226.77448M277.81526 0V226.77448M280.65013 0V226.77448M283.48497 0V226.77448M286.31983 0V226.77448M289.15467 0V226.77448M291.98954 0V226.77448M294.82438 0V226.77448M297.6592 0V226.77448M300.49406 0V226.77448M303.32893 0V226.77448M306.16377 0V226.77448M308.9986 0V226.77448M311.83348 0V226.77448M314.66835 0V226.77448M317.50318 0V226.77448M320.338 0V226.77448M323.17289 0V226.77448M326.0077 0V226.77448M328.84257 0V226.77448M331.6774 0V226.77448M334.51225 0V226.77448M337.3471 0V226.77448M340.1617 226.77448"/>
<path transform="matrix(1.00003,0,0,-1,33.087549,241.943)" stroke-width=".3985" stroke-linecap="butt" stroke-miterlimit="10" stroke-linejoin="miter" fill="none" stroke="#a6a6a6" d="M0 0H340.1617M0 28.3468H340.1617M0 56.69362H340.1617M0 85.04042H340.1617M0 113.38724H340.1617M0 141.73404H340.1617M0 170.08086H340.1617M0 198.42766H340.1617M0 226.76451H340.1617M0 0V226.77448M28.3468 0V226.77448M56.69362 0V226.77448M85.04042 0V226.77448M113.38724 0V226.77448M141.73404 0V226.77448M170.08086 0V226.77448M198.42766 0V226.77448M226.77448 0V226.77448M255.12128 0V226.77448M283.4681 0V226.77448M311.8149 0V226.77448M340.15177 0V226.77448M340.1617 226.77448"/>
<path transform="matrix(1.00003,0,0,-1,33.087549,241.943)" stroke-width=".79701" stroke-linecap="butt" stroke-miterlimit="10" stroke-linejoin="miter" fill="none" stroke="#000000" d="M0 0H339.3647"/>
<path transform="matrix(1.00003,0,0,-1,372.86097,241.943)" stroke-width=".79701" stroke-linecap="round" stroke-linejoin="round" fill="none" stroke="#000000" d="M-2.55046 3.11095C-2.0845 1.24435-1.04614 .36295 0 0-1.04614-.36295-2.0845-1.24435-2.55046-3.11095"/>
<path transform="matrix(1.00003,0,0,-1,33.087549,241.943)" stroke-width=".79701" stroke-linecap="butt" stroke-miterlimit="10" stroke-linejoin="miter" fill="none" stroke="#000000" d="M0 0V240.15087"/>
<path transform="matrix(0,-1,-1.00003,-0,33.087549,1.393631)" stroke-width=".79701" stroke-linecap="round" stroke-linejoin="round" fill="none" stroke="#000000" d="M-2.55046 3.11095C-2.0845 1.24435-1.04614 .36295 0 0-1.04614-.36295-2.0845-1.24435-2.55046-3.11095"/>
<use data-text="1" xlink:href="#font_1_82" transform="matrix(9.962899,0,0,-9.9626,56.453248,252.09799)"/>
<use data-text="0" xlink:href="#font_1_121" transform="matrix(9.962899,0,0,-9.9626,61.4347,252.09799)"/>
<use data-text="2" xlink:href="#font_1_107" transform="matrix(9.962899,0,0,-9.9626,84.8011,252.09799)"/>
<use data-text="0" xlink:href="#font_1_121" transform="matrix(9.962899,0,0,-9.9626,89.782558,252.09799)"/>
<use data-text="3" xlink:href="#font_1_106" transform="matrix(9.962899,0,0,-9.9626,113.14895,252.09799)"/>
<use data-text="0" xlink:href="#font_1_121" transform="matrix(9.962899,0,0,-9.9626,118.1304,252.09799)"/>
<use data-text="4" xlink:href="#font_1_57" transform="matrix(9.962899,0,0,-9.9626,141.4968,252.208)"/>
<use data-text="0" xlink:href="#font_1_121" transform="matrix(9.962899,0,0,-9.9626,146.47826,252.208)"/>
<use data-text="5" xlink:href="#font_1_56" transform="matrix(9.962899,0,0,-9.9626,169.84467,252.09799)"/>
<use data-text="0" xlink:href="#font_1_121" transform="matrix(9.962899,0,0,-9.9626,174.82611,252.09799)"/>
<use data-text="6" xlink:href="#font_1_101" transform="matrix(9.962899,0,0,-9.9626,198.1915,252.09799)"/>
<use data-text="0" xlink:href="#font_1_121" transform="matrix(9.962899,0,0,-9.9626,203.17296,252.09799)"/>
<use data-text="7" xlink:href="#font_1_100" transform="matrix(9.962899,0,0,-9.9626,226.53937,252.198)"/>
<use data-text="0" xlink:href="#font_1_121" transform="matrix(9.962899,0,0,-9.9626,231.52082,252.198)"/>
<use data-text="8" xlink:href="#font_1_51" transform="matrix(9.962899,0,0,-9.9626,254.8872,252.09799)"/>
<use data-text="0" xlink:href="#font_1_121" transform="matrix(9.962899,0,0,-9.9626,259.86866,252.09799)"/>
<use data-text="9" xlink:href="#font_1_78" transform="matrix(9.962899,0,0,-9.9626,283.23506,252.09799)"/>
<use data-text="0" xlink:href="#font_1_121" transform="matrix(9.962899,0,0,-9.9626,288.2165,252.09799)"/>
<use data-text="1" xlink:href="#font_1_82" transform="matrix(9.962899,0,0,-9.9626,309.09187,252.09799)"/>
<use data-text="0" xlink:href="#font_1_121" transform="matrix(9.962899,0,0,-9.9626,314.0733,252.09799)"/>
<use data-text="0" xlink:href="#font_1_121" transform="matrix(9.962899,0,0,-9.9626,319.05476,252.09799)"/>
<use data-text="0" xlink:href="#font_2_121" transform="matrix(8.966669,0,0,-8.9664,24.958306,244.82999)"/>
<use data-text="1" xlink:href="#font_2_82" transform="matrix(8.966669,0,0,-8.9664,24.958306,216.582)"/>
<use data-text="2" xlink:href="#font_2_107" transform="matrix(8.966669,0,0,-8.9664,24.958306,188.23499)"/>
<use data-text="3" xlink:href="#font_2_106" transform="matrix(8.966669,0,0,-8.9664,24.958306,159.79)"/>
<use data-text="4" xlink:href="#font_2_57" transform="matrix(8.966669,0,0,-8.9664,24.958306,131.591)"/>
<use data-text="5" xlink:href="#font_2_56" transform="matrix(8.966669,0,0,-8.9664,24.958306,103.09599)"/>
<use data-text="6" xlink:href="#font_2_101" transform="matrix(8.966669,0,0,-8.9664,24.958306,74.74899)"/>
<use data-text="7" xlink:href="#font_2_100" transform="matrix(8.966669,0,0,-8.9664,24.958306,46.44699)"/>
<use data-text="8" xlink:href="#font_2_51" transform="matrix(8.966669,0,0,-8.9664,24.958306,18.056)"/>
<path transform="matrix(1.00003,0,0,-1,33.087549,241.943)" d="M155.90744 0V56.69362H170.08086V0" fill="#6666ff"/>
<path transform="matrix(1.00003,0,0,-1,33.087549,241.943)" stroke-width=".79701" stroke-linecap="butt" stroke-miterlimit="10" stroke-linejoin="miter" fill="none" stroke="#000000" d="M155.90744 0V56.69362H170.08086V0"/>
<path transform="matrix(1.00003,0,0,-1,33.087549,241.943)" d="M170.08086 0V85.04042H184.25424V0" fill="#6666ff"/>
<path transform="matrix(1.00003,0,0,-1,33.087549,241.943)" stroke-width=".79701" stroke-linecap="butt" stroke-miterlimit="10" stroke-linejoin="miter" fill="none" stroke="#000000" d="M170.08086 0V85.04042H184.25424V0"/>
<path transform="matrix(1.00003,0,0,-1,33.087549,241.943)" d="M184.25424 0V170.08086H198.42766V0" fill="#6666ff"/>
<path transform="matrix(1.00003,0,0,-1,33.087549,241.943)" stroke-width=".79701" stroke-linecap="butt" stroke-miterlimit="10" stroke-linejoin="miter" fill="none" stroke="#000000" d="M184.25424 0V170.08086H198.42766V0"/>
<path transform="matrix(1.00003,0,0,-1,33.087549,241.943)" d="M198.42766 0V141.73404H212.60106V0" fill="#6666ff"/>
<path transform="matrix(1.00003,0,0,-1,33.087549,241.943)" stroke-width=".79701" stroke-linecap="butt" stroke-miterlimit="10" stroke-linejoin="miter" fill="none" stroke="#000000" d="M198.42766 0V141.73404H212.60106V0"/>
<path transform="matrix(1.00003,0,0,-1,33.087549,241.943)" d="M212.60106 0V113.38724H226.77448V0" fill="#6666ff"/>
<path transform="matrix(1.00003,0,0,-1,33.087549,241.943)" stroke-width=".79701" stroke-linecap="butt" stroke-miterlimit="10" stroke-linejoin="miter" fill="none" stroke="#000000" d="M212.60106 0V113.38724H226.77448V0"/>
<path transform="matrix(1.00003,0,0,-1,33.087549,241.943)" d="M226.77448 0V141.73404H240.94788V0" fill="#6666ff"/>
<path transform="matrix(1.00003,0,0,-1,33.087549,241.943)" stroke-width=".79701" stroke-linecap="butt" stroke-miterlimit="10" stroke-linejoin="miter" fill="none" stroke="#000000" d="M226.77448 0V141.73404H240.94788V0"/>
<path transform="matrix(1.00003,0,0,-1,33.087549,241.943)" d="M240.94788 0V170.08086H255.12128V0" fill="#6666ff"/>
<path transform="matrix(1.00003,0,0,-1,33.087549,241.943)" stroke-width=".79701" stroke-linecap="butt" stroke-miterlimit="10" stroke-linejoin="miter" fill="none" stroke="#000000" d="M240.94788 0V170.08086H255.12128V0"/>
<path transform="matrix(1.00003,0,0,-1,33.087549,241.943)" d="M255.12128 0V198.42766H269.29469V0" fill="#6666ff"/>
<path transform="matrix(1.00003,0,0,-1,33.087549,241.943)" stroke-width=".79701" stroke-linecap="butt" stroke-miterlimit="10" stroke-linejoin="miter" fill="none" stroke="#000000" d="M255.12128 0V198.42766H269.29469V0"/>
<path transform="matrix(1.00003,0,0,-1,33.087549,241.943)" d="M269.29469 0V28.3468H283.4681V0" fill="#6666ff"/>
<path transform="matrix(1.00003,0,0,-1,33.087549,241.943)" stroke-width=".79701" stroke-linecap="butt" stroke-miterlimit="10" stroke-linejoin="miter" fill="none" stroke="#000000" d="M269.29469 0V28.3468H283.4681V0"/>
<use data-text="S" xlink:href="#font_3_97" transform="matrix(7.9703395,0,0,-7.9701,134.7836,272.28199)"/>
<use data-text="p" xlink:href="#font_3_84" transform="matrix(7.9703395,0,0,-7.9701,139.4861,272.28199)"/>
<use data-text="e" xlink:href="#font_3_50" transform="matrix(7.9703395,0,0,-7.9701,144.42772,272.28199)"/>
<use data-text="e" xlink:href="#font_3_50" transform="matrix(7.9703395,0,0,-7.9701,148.18973,272.28199)"/>
<use data-text="d" xlink:href="#font_3_47" transform="matrix(7.9703395,0,0,-7.9701,151.95172,272.28199)"/>
<use data-text="(" xlink:href="#font_3_85" transform="matrix(7.9703395,0,0,-7.9701,159.47571,272.28199)"/>
<use data-text="k" xlink:href="#font_3_70" transform="matrix(7.9703395,0,0,-7.9701,162.76749,272.28199)"/>
<use data-text="m" xlink:href="#font_3_75" transform="matrix(7.9703395,0,0,-7.9701,167.23883,272.28199)"/>
<use data-text="/" xlink:href="#font_3_102" transform="matrix(7.9703395,0,0,-7.9701,174.29257,272.28199)"/>
<use data-text="h" xlink:href="#font_3_63" transform="matrix(7.9703395,0,0,-7.9701,178.52484,272.28199)"/>
<use data-text=")" xlink:href="#font_3_86" transform="matrix(7.9703395,0,0,-7.9701,183.22733,272.28199)"/>
<use data-text="F" xlink:href="#font_3_54" transform="matrix(0,-7.9701,-7.9703395,-0,6.6367495,147.43)"/>
<use data-text="r" xlink:href="#font_3_96" transform="matrix(0,-7.9701,-7.9703395,-0,6.6367495,142.6081)"/>
<use data-text="e" xlink:href="#font_3_50" transform="matrix(0,-7.9701,-7.9703395,-0,6.6367495,139.30847)"/>
<use data-text="q" xlink:href="#font_3_91" transform="matrix(0,-7.9701,-7.9703395,-0,6.6367495,135.54657)"/>
<use data-text="u" xlink:href="#font_3_109" transform="matrix(0,-7.9701,-7.9703395,-0,6.6367495,131.07535)"/>
<use data-text="e" xlink:href="#font_3_50" transform="matrix(0,-7.9701,-7.9703395,-0,6.6367495,126.372989)"/>
<use data-text="n" xlink:href="#font_3_77" transform="matrix(0,-7.9701,-7.9703395,-0,6.6367495,122.6111)"/>
<use data-text="c" xlink:href="#font_3_43" transform="matrix(0,-7.9701,-7.9703395,-0,6.6367495,117.90874)"/>
<use data-text="y" xlink:href="#font_3_118" transform="matrix(0,-7.9701,-7.9703395,-0,6.6367495,114.14685)"/>
<use data-text="H" xlink:href="#font_4_62" transform="matrix(6.9740097,0,0,-6.9738,174.9888,10.246994)"/>
<use data-text="i" xlink:href="#font_4_66" transform="matrix(6.9740097,0,0,-6.9738,181.97676,10.246994)"/>
<use data-text="s" xlink:href="#font_4_98" transform="matrix(6.9740097,0,0,-6.9738,184.50833,10.246994)"/>
<use data-text="t" xlink:href="#font_4_105" transform="matrix(6.9740097,0,0,-6.9738,188.07901,10.246994)"/>
<use data-text="o" xlink:href="#font_4_81" transform="matrix(6.9740097,0,0,-6.9738,191.60089,10.246994)"/>
<use data-text="g" xlink:href="#font_4_59" transform="matrix(6.9740097,0,0,-6.9738,196.11309,10.246994)"/>
<use data-text="r" xlink:href="#font_4_96" transform="matrix(6.9740097,0,0,-6.9738,200.62528,10.246994)"/>
<use data-text="a" xlink:href="#font_4_28" transform="matrix(6.9740097,0,0,-6.9738,204.35637,10.246994)"/>
<use data-text="m" xlink:href="#font_4_75" transform="matrix(6.9740097,0,0,-6.9738,208.74303,10.246994)"/>
<use data-text="o" xlink:href="#font_4_81" transform="matrix(6.9740097,0,0,-6.9738,219.25287,10.246994)"/>
<use data-text="f" xlink:href="#font_4_55" transform="matrix(6.9740097,0,0,-6.9738,223.76506,10.246994)"/>
<use data-text="V" xlink:href="#font_4_111" transform="matrix(6.9740097,0,0,-6.9738,229.5744,10.246994)"/>
<use data-text="e" xlink:href="#font_4_50" transform="matrix(6.9740097,0,0,-6.9738,235.586,10.246994)"/>
<use data-text="h" xlink:href="#font_4_63" transform="matrix(6.9740097,0,0,-6.9738,239.71462,10.246994)"/>
<use data-text="i" xlink:href="#font_4_66" transform="matrix(6.9740097,0,0,-6.9738,244.72196,10.246994)"/>
<use data-text="c" xlink:href="#font_4_43" transform="matrix(6.9740097,0,0,-6.9738,247.25353,10.246994)"/>
<use data-text="l" xlink:href="#font_4_72" transform="matrix(6.9740097,0,0,-6.9738,251.27056,10.246994)"/>
<use data-text="e" xlink:href="#font_4_50" transform="matrix(6.9740097,0,0,-6.9738,253.80213,10.246994)"/>
<use data-text="S" xlink:href="#font_4_97" transform="matrix(6.9740097,0,0,-6.9738,260.9505,10.246994)"/>
<use data-text="p" xlink:href="#font_4_84" transform="matrix(6.9740097,0,0,-6.9738,265.95783,10.246994)"/>
<use data-text="e" xlink:href="#font_4_50" transform="matrix(6.9740097,0,0,-6.9738,271.21623,10.246994)"/>
<use data-text="e" xlink:href="#font_4_50" transform="matrix(6.9740097,0,0,-6.9738,275.34486,10.246994)"/>
<use data-text="d" xlink:href="#font_4_47" transform="matrix(6.9740097,0,0,-6.9738,279.47346,10.246994)"/>
<use data-text="s" xlink:href="#font_4_98" transform="matrix(6.9740097,0,0,-6.9738,284.48078,10.246994)"/>
</svg>
