<svg xmlns="http://www.w3.org/2000/svg" xmlns:xlink="http://www.w3.org/1999/xlink" xmlns:inkscape="http://www.inkscape.org/namespaces/inkscape" version="1.1" width="460" height="46" viewBox="0 0 460 46">
<defs>
<path id="font_1_6" d="M.10598755 .34527589C.10598755 .5844116 .21798706 .63812258 .2829895 .63812258 .3039856 .63812258 .35499574 .6341553 .375 .5954132 .35899354 .5954132 .32899476 .5954132 .32899476 .56040957 .32899476 .5334015 .35099793 .52441409 .36499024 .52441409 .37399293 .52441409 .40098573 .52841189 .40098573 .56240847 .40098573 .6252136 .35099793 .6611328 .28199769 .6611328 .16299439 .6611328 .037994386 .5373993 .037994386 .31628419 .037994386 .0443573 .15098572-.015625 .23098755-.015625 .32798768-.015625 .41999818 .0713501 .41999818 .20532227 .41999818 .33029176 .33898927 .42126466 .23699951 .42126466 .17599488 .42126466 .1309967 .38127137 .10598755 .31129457V.34527589M.23098755 .008361816C.10798645 .008361816 .10798645 .19232178 .10798645 .22930908 .10798645 .30130006 .14199829 .40527345 .23498535 .40527345 .2519989 .40527345 .30099488 .40527345 .33399964 .33628846 .35198976 .29730226 .35198976 .25630189 .35198976 .20631409 .35198976 .15232849 .35198976 .112335208 .33099366 .07235718 .30899049 .03135681 .2769928 .008361816 .23098755 .008361816Z"/>
<path id="font_2_3" d="M.36099244 .6508026C.36099244 .6697998 .36099244 .6748047 .34700013 .6748047 .33898927 .6748047 .33599855 .6748047 .32798768 .662796L.026992798 .19598389V.16699219H.2899933V.07598877C.2899933 .038986207 .28799439 .0289917 .21499634 .0289917H.19499207V0C.21798706 .0019989014 .29699708 .0019989014 .32499696 .0019989014 .35299684 .0019989014 .43299867 .0019989014 .45599366 0V.0289917H.43598939C.3639984 .0289917 .36099244 .038986207 .36099244 .07598877V.16699219H.46199037V.19598389H.36099244V.6508026M.29499818 .5728302V.19598389H.051986696L.29499818 .5728302Z"/>
<path id="font_3_1" d="M.3889923 .27801515 .18899536 .47720338C.1769867 .48919679 .1749878 .49121095 .16699219 .49121095 .15699768 .49121095 .14698792 .48220826 .14698792 .47120667 .14698792 .46420289 .14898682 .46218873 .1599884 .45118714L.3600006 .24998474 .1599884 .048797609C.14898682 .03779602 .14698792 .03578186 .14698792 .028778077 .14698792 .01777649 .15699768 .0087890629 .16699219 .0087890629 .1749878 .0087890629 .1769867 .010787964 .18899536 .022781373L.3880005 .2219696 .59498599 .014785767C.5970001 .0137786869 .60398867 .0087890629 .6100006 .0087890629 .621994 .0087890629 .6299896 .01777649 .6299896 .028778077 .6299896 .030776978 .6299896 .03479004 .6269989 .039794923 .6259918 .041793825 .46699525 .19894409 .4169922 .24998474L.59999087 .4331665C.6049957 .43917848 .6199951 .45217896 .625 .45819093 .6259918 .46018983 .6299896 .46420289 .6299896 .47120667 .6299896 .48220826 .621994 .49121095 .6100006 .49121095 .60198977 .49121095 .59799197 .48719789 .58699038 .4761963L.3889923 .27801515Z"/>
<path id="font_2_2" d="M.18399048 .35888673C.16699219 .35787965 .16299439 .35688783 .16299439 .34788514 .16299439 .33789063 .16799927 .33789063 .18598938 .33789063H.23199463C.31698609 .33789063 .35499574 .267807 .35499574 .17172241 .35499574 .04058838 .2869873 .005508423 .23799134 .005508423 .18998719 .005508423 .10798645 .028564454 .07899475 .09472656 .11099243 .08970642 .13999939 .10771179 .13999939 .14372254 .13999939 .17271424 .11898804 .1927185 .09098816 .1927185 .066986087 .1927185 .040985109 .1787262 .040985109 .14071656 .040985109 .051620485 .12998963-.021484375 .24099732-.021484375 .3600006-.021484375 .44799806 .06965637 .44799806 .17071533 .44799806 .26280213 .37399293 .33488465 .27799989 .35188294 .36499024 .3769226 .42099 .45011903 .42099 .5282135 .42099 .6071167 .33898927 .66503909 .24198914 .66503909 .14199829 .66503909 .067993167 .604126 .067993167 .5312042 .067993167 .49121095 .09899902 .48321534 .11399841 .48321534 .1349945 .48321534 .15899658 .49821473 .15899658 .5282135 .15899658 .5602112 .1349945 .57421877 .11299133 .57421877 .10699463 .57421877 .10499573 .57421877 .101989749 .57321169 .13999939 .641037 .23399353 .641037 .23899842 .641037 .27198792 .641037 .33699037 .6260681 .33699037 .5282135 .33699037 .5092163 .33399964 .453125 .30499269 .41001893 .2749939 .3658905 .24099732 .36288453 .21398926 .36187745L.18399048 .35888673Z"/>
<path id="font_2_6" d="M.3659973 .29078675C.3659973 .05493164 .26098634 .005508423 .20098877 .005508423 .1769867 .005508423 .12399292 .008544922 .09899902 .043945314H.10499573C.11199951 .041915895 .147995 .047943117 .147995 .08493042 .147995 .106933597 .1329956 .12593079 .10699463 .12593079 .08099365 .12593079 .06498718 .108932498 .06498718 .08293152 .06498718 .02067566 .114990238-.021484375 .20199585-.021484375 .32699586-.021484375 .44799806 .11193848 .44799806 .32881166 .44799806 .5980072 .33599855 .66503909 .24798584 .66503909 .13798523 .66503909 .040985109 .5729828 .040985109 .44088746 .040985109 .3087921 .13398743 .21875 .23399353 .21875 .30799867 .21875 .34599305 .2727661 .3659973 .32380677V.29078675M.23799134 .23873902C.1749878 .23873902 .147995 .28977967 .13899231 .3087921 .12298584 .34681703 .12298584 .39485169 .12298584 .43988038 .12298584 .4959259 .12298584 .5439606 .14898682 .58499148 .16699219 .6120148 .19400025 .641037 .24798584 .641037 .30499269 .641037 .33399964 .59098818 .34399415 .5679779 .3639984 .51893618 .3639984 .43388368 .3639984 .41886903 .3639984 .33480836 .32598878 .23873902 .23799134 .23873902Z"/>
<path id="font_2_5" d="M.47499085 .62054446V.6435547H.23399353C.11299133 .6435547 .11099243 .6567688 .10699463 .67578127H.084991458L.053985597 .47554017H.07598877C.07899475 .49354554 .08799744 .555542 .100997928 .5665436 .10899353 .5725403 .18399048 .5725403 .19799805 .5725403H.4099884L.3039856 .42053224C.2769928 .38153077 .17599488 .21751404 .17599488 .029510498 .17599488 .018508912 .17599488-.021484375 .21699524-.021484375 .25898744-.021484375 .25898744 .017501831 .25898744 .030517579V.08052063C.25898744 .2295227 .2829895 .34553529 .32998658 .41253663L.47499085 .62054446Z"/>
<path id="font_2_4" d="M.12799073 .5727997C.17098999 .5588074 .20599365 .5578003 .21699524 .5578003 .32998658 .5578003 .4019928 .6409912 .4019928 .6550598 .4019928 .6590576 .3999939 .6640625 .3939972 .6640625 .3919983 .6640625 .3899994 .6640625 .3809967 .66004946 .32499696 .6358795 .2769928 .6328125 .25099183 .6328125 .18499756 .6328125 .13798523 .6530609 .11898804 .6610565 .11199951 .6640625 .10998535 .6640625 .10899353 .6640625 .100997928 .6640625 .100997928 .65805056 .100997928 .64201357V.34495545C.100997928 .32695008 .100997928 .32095338 .11299133 .32095338 .117996219 .32095338 .11898804 .32196046 .1289978 .33395387 .15699768 .37493897 .20399475 .39894105 .2539978 .39894105 .30699159 .39894105 .33299256 .34994508 .34098817 .33294679 .35798646 .29396058 .35899354 .2449646 .35899354 .20697022 .35899354 .16897583 .35899354 .11193848 .33099366 .0667572 .30899049 .03060913 .269989 .005508423 .22599793 .005508423 .1599884 .005508423 .09498596 .050689699 .07699585 .12397766 .08198547 .12197876 .08799744 .12097168 .09298706 .12097168 .10998535 .12097168 .13699341 .13098145 .13699341 .16497803 .13699341 .1929779 .117996219 .20898438 .09298706 .20898438 .07499695 .20898438 .04899597 .19998169 .04899597 .16098023 .04899597 .075790408 .116989139-.021484375 .22799683-.021484375 .34098817-.021484375 .43998719 .073791507 .43998719 .20097351 .43998719 .3199463 .3600006 .4189453 .25498963 .4189453 .19799805 .4189453 .1539917 .39393617 .12799073 .36595155V.5727997Z"/>
<path id="font_1_1" d="M.30599977-.2440033C.30599977-.24301148 .30599977-.24101258 .30299378-.23800659 .25698854-.19100952 .13398743-.06300354 .13398743 .24899292 .13398743 .56100466 .25498963 .68800356 .3039856 .73802188 .3039856 .7390137 .30599977 .7410126 .30599977 .74401858 .30599977 .7470093 .30299378 .74902346 .29899598 .74902346 .28799439 .74902346 .20298767 .67500308 .1539917 .56500247 .10398865 .45401 .08999634 .3460083 .08999634 .25 .08999634 .17799378 .09700012 .055999757 .15699768-.07299805 .20498657-.17700196 .2869873-.25 .29899598-.25 .3039856-.25 .30599977-.2480011 .30599977-.2440033Z"/>
<path id="font_1_3" d="M.4169922 .15492249H.39898683C.3889923 .083969119 .3809967 .07197571 .3769989 .06599426 .37199403 .057998659 .2999878 .057998659 .28599549 .057998659H.09399414C.12998963 .096969608 .19999695 .16792298 .2849884 .24986267 .34599305 .30781556 .4169922 .37576295 .4169922 .47473146 .4169922 .59298709 .32299806 .6611328 .21798706 .6611328 .10798645 .6611328 .040985109 .5639038 .040985109 .47373963 .040985109 .43473817 .069992069 .42973329 .08198547 .42973329 .09199524 .42973329 .12199402 .43572999 .12199402 .47073365 .12199402 .5017395 .09599304 .5107422 .08198547 .5107422 .07598877 .5107422 .069992069 .5097351 .06599426 .5077362 .084991458 .59298709 .14299011 .63513186 .20399475 .63513186 .29100038 .63513186 .34799195 .5659027 .34799195 .47473146 .34799195 .38775636 .29699708 .31282044 .23999024 .24786377L.040985109 .022994996V0H.3929901L.4169922 .15492249Z"/>
<path id="font_1_2" d="M.2630005 .24899292C.2630005 .32099916 .2559967 .44300843 .19599915 .5720062 .147995 .67601016 .06599426 .74902346 .053985597 .74902346 .050994874 .74902346 .04699707 .74801638 .04699707 .7430115 .04699707 .7410126 .04798889 .74002078 .04899597 .73802188 .09700012 .68800356 .21899414 .56100466 .21899414 .25 .21899414-.06201172 .09799194-.18901062 .04899597-.23901367 .04798889-.24101258 .04699707-.2420044 .04699707-.2440033 .04699707-.24900818 .050994874-.25 .053985597-.25 .06498718-.25 .1499939-.17601013 .19898987-.06600952 .24899292 .04499817 .2630005 .15299988 .2630005 .24899292Z"/>
<path id="font_1_4" d="M.33599855 .64694216C.33599855 .66793826 .33499146 .6689453 .31698609 .6689453L.019989014 .1959076V.16992188H.27799989V.07196045C.27799989 .035980226 .27598573 .025985718 .20599365 .025985718H.18699646V0C.21899414 .0019989014 .272995 .0019989014 .30699159 .0019989014 .34098817 .0019989014 .394989 .0019989014 .4269867 0V.025985718H.4079895C.33799745 .025985718 .33599855 .035980226 .33599855 .07196045V.16992188H.43798829V.1959076H.33599855V.64694216M.2809906 .5809326V.1959076H.039993287L.2809906 .5809326Z"/>
<path id="font_1_5" d="M.11399841 .58535769C.12399292 .5813446 .16499329 .5683594 .20698548 .5683594 .2999878 .5683594 .35099793 .61834719 .37998963 .64715579 .37998963 .65515139 .37998963 .66015627 .37399293 .66015627 .37298585 .66015627 .37098695 .66015627 .36299134 .6561432 .32798768 .6411438 .2869873 .62934878 .23699951 .62934878 .20698548 .62934878 .1619873 .6332855 .11299133 .65515139 .101989749 .66015627 .099990848 .66015627 .09899902 .66015627 .09399414 .66015627 .09298706 .65914919 .09298706 .63916018V.34931947C.09298706 .33129884 .09298706 .32629396 .102996829 .32629396 .10798645 .32629396 .10998535 .32829286 .114990238 .33529664 .14698792 .3803711 .19099427 .39941407 .24099732 .39941407 .27598573 .39941407 .35099793 .3773651 .35099793 .20610047 .35099793 .17408753 .35099793 .116119388 .32099916 .07022095 .29599 .029312134 .25698854 .008361816 .21398926 .008361816 .147995 .008361816 .08099365 .054260255 .06298828 .13108826 .066986087 .13009644 .07499695 .12809754 .07899475 .12809754 .09199524 .12809754 .116989139 .13510132 .116989139 .16609192 .116989139 .19309998 .09799194 .20410156 .07899475 .20410156 .055999757 .20410156 .040985109 .190094 .040985109 .16209412 .040985109 .07521057 .10998535-.015625 .21598816-.015625 .31900025-.015625 .4169922 .07322693 .4169922 .2020874 .4169922 .32228089 .33898927 .41540528 .24198914 .41540528 .19099427 .41540528 .147995 .39640809 .11399841 .3603363V.58535769Z"/>
<path id="font_2_1" d="M.43998719 .16790772H.41799928C.4149933 .15092469 .40699769 .09597778 .39698792 .07998657 .3899994 .070999149 .33299256 .070999149 .30299378 .070999149H.117996219C.14498902 .09397888 .20599365 .15792847 .23199463 .18190003 .38398744 .3217926 .43998719 .37374879 .43998719 .47270204 .43998719 .5878906 .34899903 .66503909 .23298645 .66503909 .116989139 .66503909 .04899597 .5658264 .04899597 .4797058 .04899597 .42871095 .09298706 .42871095 .09599304 .42871095 .116989139 .42871095 .14299011 .44371034 .14299011 .475708 .14299011 .5037079 .12399292 .5227051 .09599304 .5227051 .08699036 .5227051 .084991458 .5227051 .08198547 .521698 .100997928 .5899048 .15499878 .6360321 .21998596 .6360321 .30499269 .6360321 .35699464 .56481936 .35699464 .47270204 .35699464 .3877411 .30799867 .313797 .25099183 .24984741L.04899597 .023986817V0H.4139862L.43998719 .16790772Z"/>
<path id="font_4_1" d="M.41299439-1.1491852C.41299439-1.1451874 .41099549-1.1431885 .40899659-1.1401825 .36299134-1.0911713 .29499818-1.0101624 .25299073-.84713748 .22999573-.7561188 .22099304-.65309146 .22099304-.56007388 .22099304-.2970276 .28399659-.11299133 .4039917 .017044068 .41299439 .026031495 .41299439 .028030396 .41299439 .030029297 .41299439 .040039064 .40499879 .040039064 .40098573 .040039064 .38598634 .040039064 .33198548-.019973755 .31900025-.034973146 .21699524-.1559906 .1519928-.33602906 .1519928-.5590668 .1519928-.7010956 .1769867-.9021454 .30799867-1.071167 .31799317-1.0831757 .3829956-1.1591797 .40098573-1.1591797 .40499879-1.1591797 .41299439-1.1591797 .41299439-1.1491852Z"/>
<path id="font_4_2" d="M.30499269-.56007388C.30499269-.41804505 .27999879-.2170105 .14898682-.047973634 .13899231-.035964967 .07398987 .040039064 .055999757 .040039064 .050994874 .040039064 .04399109 .038024904 .04399109 .030029297 .04399109 .026031495 .04598999 .023025513 .049987794 .02003479 .09799194-.031967164 .16299439-.11299133 .20399475-.27201844 .22698975-.3630371 .23599243-.4660492 .23599243-.5590668 .23599243-.6600952 .22698975-.7621155 .20098877-.86013796 .16299439-1.0001679 .10398865-1.0801697 .052993776-1.1361847 .04399109-1.1451874 .04399109-1.1471863 .04399109-1.1491852 .04399109-1.1571808 .050994874-1.1591797 .055999757-1.1591797 .070999149-1.1591797 .12599182-1.098175 .13798523-1.0841827 .23999024-.96315 .30499269-.7831116 .30499269-.56007388Z"/>
</defs>
<path transform="matrix(1.00006,0,0,-1.00002,2.0959855,44.319566)" d="M0 0V42.52022H85.04045V0ZM85.04045 42.52022" fill="#0000ff"/>
<path transform="matrix(1.00006,0,0,-1.00002,2.0959855,44.319566)" stroke-width=".3985" stroke-linecap="butt" stroke-miterlimit="10" stroke-linejoin="miter" fill="none" stroke="#000000" d="M0 0V42.52022H85.04045V0ZM85.04045 42.52022"/>
<use data-text="6" xlink:href="#font_1_6" transform="matrix(20.66374,0,0,-20.662915,14.99176,30.57029)"/>
<use data-text="4" xlink:href="#font_2_3" transform="matrix(14.34706,0,0,-14.346487,24.46833,23.07114)"/>
<use data-text="&#x00d7;" xlink:href="#font_3_1" transform="matrix(20.66374,0,0,-20.662915,36.582056,30.57029)"/>
<use data-text="6" xlink:href="#font_1_6" transform="matrix(20.66374,0,0,-20.662915,57.246294,30.57029)"/>
<use data-text="3" xlink:href="#font_2_2" transform="matrix(14.34706,0,0,-14.346487,66.72287,23.07114)"/>
<path transform="matrix(1.00006,0,0,-1.00002,2.0959855,44.319566)" d="M113.38728 0V42.52022H198.42774V0ZM198.42774 42.52022" fill="#bf0040"/>
<path transform="matrix(1.00006,0,0,-1.00002,2.0959855,44.319566)" stroke-width=".3985" stroke-linecap="butt" stroke-miterlimit="10" stroke-linejoin="miter" fill="none" stroke="#000000" d="M113.38728 0V42.52022H198.42774V0ZM198.42774 42.52022"/>
<use data-text="9" xlink:href="#font_2_6" transform="matrix(14.34706,0,0,-14.346487,151.32492,21.485108)"/>
<use data-text="7" xlink:href="#font_2_5" transform="matrix(11.955917,0,0,-11.95544,158.34937,16.279006)"/>
<path transform="matrix(1.00006,0,0,-1.00002,67.02888,1.300704)" stroke-width=".8265" stroke-linecap="butt" stroke-miterlimit="10" stroke-linejoin="miter" fill="none" stroke="#000000" d="M84.291-23.154H97.666"/>
<use data-text="9" xlink:href="#font_2_6" transform="matrix(14.34706,0,0,-14.346487,151.32492,37.54443)"/>
<use data-text="5" xlink:href="#font_2_4" transform="matrix(11.955917,0,0,-11.95544,158.34937,33.39935)"/>
<path transform="matrix(1.00006,0,0,-1.00002,2.0959855,44.319566)" d="M226.77457 0V42.52022H311.81504V0ZM311.81504 42.52022" fill="#ff0000"/>
<path transform="matrix(1.00006,0,0,-1.00002,2.0959855,44.319566)" stroke-width=".3985" stroke-linecap="butt" stroke-miterlimit="10" stroke-linejoin="miter" fill="none" stroke="#000000" d="M226.77457 0V42.52022H311.81504V0ZM311.81504 42.52022"/>
<use data-text="(" xlink:href="#font_1_1" transform="matrix(20.66374,0,0,-20.662915,251.82895,28.857254)"/>
<use data-text="2" xlink:href="#font_1_3" transform="matrix(20.66374,0,0,-20.662915,259.14393,28.857254)"/>
<use data-text="3" xlink:href="#font_2_2" transform="matrix(14.34706,0,0,-14.346487,268.62297,21.358105)"/>
<use data-text=")" xlink:href="#font_1_2" transform="matrix(20.66374,0,0,-20.662915,276.14543,28.857254)"/>
<use data-text="5" xlink:href="#font_2_4" transform="matrix(14.34706,0,0,-14.346487,283.46287,21.358105)"/>
<path transform="matrix(1.00006,0,0,-1.00002,2.0959855,44.319566)" d="M340.16188 0V42.52022H425.2023V0ZM425.2023 42.52022" fill="#fff200"/>
<path transform="matrix(1.00006,0,0,-1.00002,2.0959855,44.319566)" stroke-width=".3985" stroke-linecap="butt" stroke-miterlimit="10" stroke-linejoin="miter" fill="none" stroke="#000000" d="M340.16188 0V42.52022H425.2023V0ZM425.2023 42.52022"/>
<use data-text="(" xlink:href="#font_1_1" transform="matrix(20.66374,0,0,-20.662915,351.61695,28.857254)"/>
<use data-text="4" xlink:href="#font_1_4" transform="matrix(20.66374,0,0,-20.662915,358.93193,28.857254)"/>
<use data-text="&#x00d7;" xlink:href="#font_3_1" transform="matrix(20.66374,0,0,-20.662915,373.00325,28.857254)"/>
<use data-text="5" xlink:href="#font_1_5" transform="matrix(20.66374,0,0,-20.662915,393.66749,28.857254)"/>
<use data-text=")" xlink:href="#font_1_2" transform="matrix(20.66374,0,0,-20.662915,403.13148,28.857254)"/>
<use data-text="2" xlink:href="#font_2_1" transform="matrix(14.34706,0,0,-14.346487,410.4615,21.358105)"/>
<path transform="matrix(1.00006,0,0,-1.00002,2.0959855,44.319566)" d="M453.54914 0V42.52022H538.5896V0ZM538.5896 42.52022" fill="#00ff00"/>
<path transform="matrix(1.00006,0,0,-1.00002,2.0959855,44.319566)" stroke-width=".3985" stroke-linecap="butt" stroke-miterlimit="10" stroke-linejoin="miter" fill="none" stroke="#000000" d="M453.54914 0V42.52022H538.5896V0ZM538.5896 42.52022"/>
<use data-text="(" xlink:href="#font_4_1" transform="matrix(20.66374,0,0,-20.662915,480.25566,13.340945)"/>
<use data-text="3" xlink:href="#font_2_2" transform="matrix(14.34706,0,0,-14.346487,490.9223,21.942118)"/>
<path transform="matrix(1.00006,0,0,-1.00002,397.15467,1.7577133)" stroke-width=".8265" stroke-linecap="butt" stroke-miterlimit="10" stroke-linejoin="miter" fill="none" stroke="#000000" d="M93.762-23.154H100.785"/>
<use data-text="7" xlink:href="#font_2_5" transform="matrix(14.34706,0,0,-14.346487,490.9223,37.203424)"/>
<use data-text=")" xlink:href="#font_4_2" transform="matrix(20.66374,0,0,-20.662915,499.14179,13.340945)"/>
<use data-text="4" xlink:href="#font_2_3" transform="matrix(14.34706,0,0,-14.346487,508.61238,18.05304)"/>
</svg>
