<svg xmlns="http://www.w3.org/2000/svg" xmlns:xlink="http://www.w3.org/1999/xlink" xmlns:inkscape="http://www.inkscape.org/namespaces/inkscape" version="1.1" width="95" height="101" viewBox="0 0 95 101">
<defs>
<path id="font_1_3" d="M.27198792 .3602295C.33499146 .3922119 .39898683 .4402008 .39898683 .51716616 .39898683 .60813906 .31098939 .6611328 .22999573 .6611328 .13899231 .6611328 .05899048 .59513857 .05899048 .5041809 .05899048 .479187 .06498718 .436203 .10398865 .39822389 .11399841 .3882141 .1559906 .3582306 .18299866 .3392334 .13798523 .31625367 .032989503 .26127626 .032989503 .15130615 .032989503 .048355104 .1309967-.015625 .22799683-.015625 .33499146-.015625 .4249878 .061340333 .4249878 .16331482 .4249878 .25427247 .3639984 .2962494 .32398988 .3232422L.27198792 .3602295M.14099121 .4481964C.1329956 .4532013 .09298706 .48417665 .09298706 .53115847 .09298706 .5921478 .1559906 .63812258 .22799683 .63812258 .30699159 .63812258 .36499024 .5821533 .36499024 .51716616 .36499024 .4242096 .26098634 .37123109 .2559967 .37123109 .25498963 .37123109 .2539978 .37123109 .24598694 .37722779L.14099121 .4481964M.32499696 .24327088C.33999635 .23228455 .3880005 .19929505 .3880005 .13832093 .3880005 .06434631 .31399537 .008361816 .22999573 .008361816 .13899231 .008361816 .069992069 .073349 .069992069 .15231323 .069992069 .23127747 .1309967 .29725648 .19999695 .32824708L.32499696 .24327088Z"/>
<path id="font_1_1" d="M.4169922 .15492249H.39898683C.3889923 .083969119 .3809967 .07197571 .3769989 .06599426 .37199403 .057998659 .2999878 .057998659 .28599549 .057998659H.09399414C.12998963 .096969608 .19999695 .16792298 .2849884 .24986267 .34599305 .30781556 .4169922 .37576295 .4169922 .47473146 .4169922 .59298709 .32299806 .6611328 .21798706 .6611328 .10798645 .6611328 .040985109 .5639038 .040985109 .47373963 .040985109 .43473817 .069992069 .42973329 .08198547 .42973329 .09199524 .42973329 .12199402 .43572999 .12199402 .47073365 .12199402 .5017395 .09599304 .5107422 .08198547 .5107422 .07598877 .5107422 .069992069 .5097351 .06599426 .5077362 .084991458 .59298709 .14299011 .63513186 .20399475 .63513186 .29100038 .63513186 .34799195 .5659027 .34799195 .47473146 .34799195 .38775636 .29699708 .31282044 .23999024 .24786377L.040985109 .022994996V0H.3929901L.4169922 .15492249Z"/>
<path id="font_1_2" d="M.33599855 .64694216C.33599855 .66793826 .33499146 .6689453 .31698609 .6689453L.019989014 .1959076V.16992188H.27799989V.07196045C.27799989 .035980226 .27598573 .025985718 .20599365 .025985718H.18699646V0C.21899414 .0019989014 .272995 .0019989014 .30699159 .0019989014 .34098817 .0019989014 .394989 .0019989014 .4269867 0V.025985718H.4079895C.33799745 .025985718 .33599855 .035980226 .33599855 .07196045V.16992188H.43798829V.1959076H.33599855V.64694216M.2809906 .5809326V.1959076H.039993287L.2809906 .5809326Z"/>
</defs>
<use data-text="8" xlink:href="#font_1_3" transform="matrix(20.6625,0,0,-20.662915,28.564003,15.240046)"/>
<use data-text="2" xlink:href="#font_1_1" transform="matrix(20.6625,0,0,-20.662915,.21700287,57.760896)"/>
<use data-text="4" xlink:href="#font_1_2" transform="matrix(20.6625,0,0,-20.662915,56.911005,57.760896)"/>
<use data-text="2" xlink:href="#font_1_1" transform="matrix(20.6625,0,0,-20.662915,28.564003,100.281749)"/>
<use data-text="2" xlink:href="#font_1_1" transform="matrix(20.6625,0,0,-20.662915,85.257,100.281749)"/>
<path transform="matrix(1,0,0,-1.00002,33.302003,8.579911)" stroke-width=".3985" stroke-linecap="butt" stroke-miterlimit="10" stroke-linejoin="miter" fill="none" stroke="#000000" d="M-6.78407-10.17953-21.56302-32.34065"/>
<path transform="matrix(1,0,0,-1.00002,33.302003,8.579911)" stroke-width=".3985" stroke-linecap="butt" stroke-miterlimit="10" stroke-linejoin="miter" fill="none" stroke="#000000" d="M6.78407-10.17953 21.56302-32.34065"/>
<path transform="matrix(1,0,0,-1.00002,33.302003,8.579911)" stroke-width=".3985" stroke-linecap="butt" stroke-miterlimit="10" stroke-linejoin="miter" fill="none" stroke="#000000" d="M21.56273-52.69975 6.78377-74.86087"/>
<path transform="matrix(1,0,0,-1.00002,33.302003,8.579911)" stroke-width=".3985" stroke-linecap="butt" stroke-miterlimit="10" stroke-linejoin="miter" fill="none" stroke="#000000" d="M35.13089-52.69975 49.90984-74.86087"/>
</svg>
