<svg xmlns="http://www.w3.org/2000/svg" xmlns:xlink="http://www.w3.org/1999/xlink" xmlns:inkscape="http://www.inkscape.org/namespaces/inkscape" version="1.1" width="79" height="95" viewBox="0 0 79 95">
<defs>
<path id="font_1_34" d="M.69200137 .18299866C.69200137 .2639923 .61499026 .34298707 .48999024 .35699464 .598999 .379776 .6619873 .44573976 .6619873 .51368716 .6619873 .6026306 .56199648 .6826172 .42799378 .6826172H.04798889V.6496124H.069992069C.14698792 .6496124 .14898682 .63861086 .14898682 .6016388V.080963138C.14898682 .04399109 .14698792 .032989503 .069992069 .032989503H.04798889V0H.45599366C.59399417-.00018310547 .69200137 .08781433 .69200137 .18281555V.18299866M.5649872 .5137024C.5649872 .445755 .5049896 .3688202 .3909912 .3688202H.23399353V.6086426C.23399353 .64260867 .23599243 .6496124 .28199769 .6496124H.42099C.519989 .6498108 .5649872 .57281497 .5649872 .5138092V.5137024M.59098818 .18389893C.59098818 .10295105 .5239868 .032989503 .42199708 .032989503H.28199769C.23599243 .032989503 .23399353 .039993287 .23399353 .07397461V.3408203H.43699647C.5339966 .34098817 .59098818 .2630005 .59098818 .18399048V.18389893Z"/>
<path id="font_1_67" d="M.48799134 .6496124V.6826172C.43699647 .6796112 .40899659 .6796112 .35299684 .6796112 .30899049 .6796112 .23298645 .6796112 .19198609 .6826172V.6496124H.22599793C.31999208 .6496124 .32299806 .63760378 .32299806 .6006012V.14859009C.32299806 .05657959 .2689972 .006515503 .21598816 .006515503 .17298889 .006515503 .1269989 .026535035 .10398865 .05758667 .13198853 .05859375 .1619873 .07559204 .1619873 .113586429 .1619873 .14859009 .1349945 .1685791 .10699463 .1685791 .085998538 .1685791 .051986696 .15458679 .051986696 .111587528 .051986696 .03755188 .125-.021484375 .21899414-.021484375 .31098939-.021484375 .4119873 .03855896 .4119873 .14859009V.60461428C.4119873 .6496124 .42399598 .6496124 .48799134 .6496124Z"/>
<path id="font_1_97" d="M.5299988 .18458557C.5299988 .2716217 .47299195 .36065675 .37098695 .38467408L.23298645 .416687C.16899109 .4316864 .12199402 .4827118 .12199402 .5437927 .12199402 .61094668 .17999268 .6740875 .2669983 .6740875 .43998719 .6740875 .46299745 .51171877 .46798707 .4737091 .46998597 .46270753 .47099305 .45570375 .48399354 .45570375 .5 .45570375 .5 .46270753 .5 .4817047V.6781006C.5 .6940918 .5 .70410159 .4869995 .70410159 .47898866 .70410159 .47698976 .7010956 .46998597 .690094L.43499757 .6340027C.3849945 .6890869 .32099916 .70410159 .2659912 .70410159 .14698792 .70410159 .05899048 .61395266 .05899048 .51171877 .05899048 .43569947 .101989749 .39367677 .12098694 .3746643 .15699768 .33865357 .18998719 .3306427 .2979889 .30563355 .38398744 .28562928 .39898683 .2826233 .43199159 .24760437 .44198609 .23660279 .46699525 .20259094 .46699525 .15356446 .46699525 .08453369 .4139862 .011505127 .31999208 .011505127 .20999146 .011505127 .09599304 .06452942 .08999634 .20359802 .08898926 .21960449 .08898926 .22660828 .07499695 .22660828 .05899048 .22660828 .05899048 .21859741 .05899048 .19958496V.004501343C.05899048-.011489868 .05899048-.021484375 .07199097-.021484375 .07998657-.021484375 .08099365-.019485474 .08799744-.009490967 .09199524-.0034942628 .09599304 .005508423 .12399292 .047531129 .18699646-.0084991459 .26098634-.021484375 .32099916-.021484375 .44599916-.021484375 .5299988 .07752991 .5299988 .18458557Z"/>
<path id="font_2_1" d="M.397995 .63591006C.397995 .6660156 .394989 .6660156 .3619995 .6660156 .29100038 .6016083 .17999268 .6016083 .1599884 .6016083H.14299011V.5576172H.1599884C.18299866 .5576172 .24798584 .5606079 .30599977 .58561709V.08596802C.30599977 .054977418 .30599977 .04399109 .19999695 .04399109H.1499939V0C.20498657 .0039978029 .2939911 .0039978029 .35198976 .0039978029 .4099884 .0039978029 .49899293 .0039978029 .55400088 0V.04399109H.5039978C.397995 .04399109 .397995 .054977418 .397995 .08596802V.63591006Z"/>
<path id="font_2_3" d="M.32998658 .3310547C.42199708 .3310547 .48298646 .2737732 .48298646 .17437744 .48298646 .07237244 .41999818 .01852417 .33099366 .01852417 .31999208 .01852417 .20098877 .01852417 .1499939 .070373538 .19099427 .07637024 .20298767 .1073761 .20298767 .13137818 .20298767 .16838074 .1749878 .19238281 .14199829 .19238281 .10998535 .19238281 .07998657 .17137146 .07998657 .12937927 .07998657 .025512696 .19799805-.022460938 .33399964-.022460938 .49798585-.022460938 .59999087 .07637024 .59999087 .17337036 .59999087 .25567628 .5269928 .3260193 .41299439 .35205079 .5329895 .3909912 .5649872 .46684266 .5649872 .5228424 .5649872 .60491946 .46299745 .6660156 .33699037 .6660156 .21398926 .6660156 .114990238 .61395266 .114990238 .5238342 .114990238 .47683717 .15299988 .46484376 .17199707 .46484376 .20098877 .46484376 .22898865 .48583985 .22898865 .5218353 .22898865 .5448303 .21699524 .5728302 .18099976 .57884219 .22399903 .625 .31298829 .628006 .33399964 .628006 .40699769 .628006 .45899964 .5908661 .45899964 .5228424 .45899964 .46484376 .42099 .37402345 .31599427 .368042 .28799439 .3670349 .28399659 .3660431 .2579956 .365036 .24699402 .3640442 .23599243 .36305238 .23599243 .34805299 .23599243 .3310547 .24598694 .3310547 .2639923 .3310547H.32998658Z"/>
<path id="font_1_27" d="M.7589874 0V.032989503H.74198916C.67900088 .032989503 .6689911 .04197693 .6569977 .07392883L.4229889 .69184878C.41799928 .7048645 .4149933 .7138672 .397995 .7138672 .37998963 .7138672 .3769989 .7058563 .37199403 .69184878L.14898682 .102890018C.13899231 .075927738 .117996219 .032989503 .035995485 .032989503V0C.067993167 .0029907227 .12098694 .0029907227 .13899231 .0029907227 .17098999 .0029907227 .20098877 .0029907227 .25 0V.032989503C.20599365 .033996583 .17999268 .053955079 .17999268 .08291626 .17999268 .089904788 .17999268 .09190369 .18499756 .103897098L.23199463 .22871399H.5039978L.55999758 .08091736C.5649872 .06893921 .5649872 .062942508 .5649872 .062942508 .5649872 .032989503 .5130005 .032989503 .4850006 .032989503V0L.6269989 .0029907227C.68299868 .0029907227 .70098879 .0029907227 .7589874 0M.4909973 .26171876H.24398804L.36799623 .5888214 .4909973 .26171876Z"/>
<path id="font_1_42" d="M.70700076 .23370362C.70700076 .24371338 .70700076 .25273133 .69099429 .25273133 .6799927 .25273133 .6769867 .24772644 .6759949 .23771668 .66799929 .08357239 .5439911 .011505127 .43798829 .011505127 .35299684 .011505127 .16299439 .06355286 .16299439 .34179688 .16299439 .6110382 .34298707 .6710968 .43798829 .6710968 .5319977 .6710968 .647995 .6040344 .673996 .43188478 .6749878 .4238739 .6759949 .41687013 .6899872 .41687013 .70700076 .41687013 .70700076 .4238739 .70700076 .4429016V.6781006C.70700076 .6940918 .70700076 .70410159 .69400027 .70410159 .68699648 .70410159 .6859894 .7030945 .6769867 .690094L.6259918 .6160431C.58999636 .65509036 .5239868 .70410159 .42799378 .70410159 .22698975 .70410159 .05899048 .542984 .05899048 .34179688 .05899048 .13961792 .22599793-.021484375 .42900086-.021484375 .5970001-.021484375 .70700076 .11160278 .70700076 .23370362Z"/>
<path id="font_1_63" d="M.56199648 0V.032989503C.49798585 .032989503 .48599244 .032989503 .48599244 .07814026V.30371095C.48599244 .38746644 .44799806 .44140626 .34298707 .44140626 .25498963 .44140626 .20899964 .3854828 .19099427 .3535614H.18998719V.69433596L.040985109 .6826172V.6496124C.10899353 .6496124 .116989139 .64263918 .116989139 .5938263V.07814026C.116989139 .032989503 .10499573 .032989503 .040985109 .032989503V0C.083999637 .0029907227 .12799073 .0029907227 .15499878 .0029907227 .18399048 .0029907227 .22599793 .0029907227 .2689972 0V.032989503C.20498657 .032989503 .19299317 .032989503 .19299317 .07814026V.2597046C.19299317 .36453248 .272995 .4133911 .33399964 .4133911 .394989 .4133911 .4099884 .37051393 .4099884 .30769349V.07814026C.4099884 .032989503 .397995 .032989503 .33399964 .032989503V0C.3769989 .0029907227 .42099 .0029907227 .44799806 .0029907227 .47698976 .0029907227 .5189972 .0029907227 .56199648 0Z"/>
<path id="font_2_2" d="M.58898928 .19296265H.5469971C.5439911 .17396546 .5339966 .11198425 .5179901 .101989749 .5099945 .09599304 .42599488 .09599304 .41099549 .09599304H.21499634C.2809906 .14497376 .35499574 .20095825 .4149933 .24093628 .5049896 .30291749 .58898928 .36090089 .58898928 .46687318 .58898928 .59495547 .46798707 .6660156 .32499696 .6660156 .18998719 .6660156 .09098816 .58795168 .09098816 .48986817 .09098816 .4378662 .1349945 .42886354 .14898682 .42886354 .17599488 .42886354 .20799256 .4468689 .20799256 .48786927 .20799256 .52386477 .18199158 .543869 .15098572 .546875 .1789856 .59194949 .23699951 .6220093 .3039856 .6220093 .40098573 .6220093 .48199464 .5639038 .48199464 .4658661 .48199464 .3818817 .42399598 .31791688 .34700013 .2529297L.102996829 .04598999C.09298706 .036987306 .09199524 .036987306 .09098816 .02999878V0H.55599978L.58898928 .19296265Z"/>
</defs>
<path transform="matrix(1.00005,0,0,-1.00005,5.113304,47.58568)" stroke-width=".79701" stroke-linecap="butt" stroke-miterlimit="10" stroke-linejoin="miter" fill="none" stroke="#000000" d="M2.81807 0C2.81807 1.55638 1.55638 2.81807 0 2.81807-1.55638 2.81807-2.81807 1.55638-2.81807 0-2.81807-1.55638-1.55638-2.81807 0-2.81807 1.55638-2.81807 2.81807-1.55638 2.81807 0ZM0 0"/>
<path transform="matrix(1.00005,0,0,-1.00005,5.113304,47.58568)" stroke-width=".3985" stroke-linecap="butt" stroke-miterlimit="10" stroke-linejoin="miter" fill="none" stroke="#000000" d="M32.37929-34.01627C32.37929-30.22372 29.3049-27.14934 25.51237-27.14934 21.71985-27.14934 18.64546-30.22372 18.64546-34.01627 18.64546-37.80879 21.71985-40.88318 25.51237-40.88318 29.3049-40.88318 32.37929-37.80879 32.37929-34.01627ZM25.51237-34.01627"/>
<use data-text="B" xlink:href="#font_1_34" transform="matrix(7.970498,0,0,-7.970498,27.630433,84.325519)"/>
<path transform="matrix(1.00005,0,0,-1.00005,5.113304,47.58568)" stroke-width=".79701" stroke-linecap="butt" stroke-miterlimit="10" stroke-linejoin="miter" fill="none" stroke="#000000" d="M1.93242-2.57652 21.2732-28.36414"/>
<path transform="matrix(1.00005,0,0,-1.00005,5.113304,47.58568)" stroke-width=".79701" stroke-linecap="butt" stroke-miterlimit="10" stroke-linejoin="miter" fill="none" stroke="#000000" d="M71.52948-36.85098C71.52948-33.35426 68.69489-30.51967 65.19817-30.51967 61.70143-30.51967 58.86684-33.35426 58.86684-36.85098 58.86684-40.34772 61.70143-43.18231 65.19817-43.18231 68.69489-43.18231 71.52948-40.34772 71.52948-36.85098ZM65.19817-36.85098"/>
<use data-text="J" xlink:href="#font_1_67" transform="matrix(7.970498,0,0,-7.970498,68.13845,87.076648)"/>
<path transform="matrix(1.00005,0,0,-1.00005,5.113304,47.58568)" stroke-width=".79701" stroke-linecap="butt" stroke-miterlimit="10" stroke-linejoin="miter" fill="none" stroke="#000000" d="M32.5623-34.52187 58.68352-36.3876"/>
<path transform="matrix(1.00005,0,0,-1.00005,5.113304,47.58568)" stroke-width=".79701" stroke-linecap="butt" stroke-miterlimit="10" stroke-linejoin="miter" fill="none" stroke="#000000" d="M71.74109-31.18147C71.74109-27.56787 68.81177-24.63853 65.19817-24.63853 61.58456-24.63853 58.65523-27.56787 58.65523-31.18147 58.65523-34.79507 61.58456-37.7244 65.19817-37.7244 68.81177-37.7244 71.74109-34.79507 71.74109-31.18147ZM65.19817-31.18147"/>
<use data-text="S" xlink:href="#font_1_97" transform="matrix(7.970498,0,0,-7.970498,67.96344,81.49037)"/>
<path transform="matrix(1.00005,0,0,-1.00005,5.113304,47.58568)" stroke-width=".79701" stroke-linecap="butt" stroke-miterlimit="10" stroke-linejoin="miter" fill="none" stroke="#000000" d="M32.5623-33.51067 58.47246-31.66003"/>
<use data-text="1" xlink:href="#font_2_1" transform="matrix(4.981549,0,0,-4.981549,15.021797,68.65773)"/>
<path transform="matrix(1.00005,0,0,-1.00005,-72.291568,37.746187)" stroke-width=".3387" stroke-linecap="butt" stroke-miterlimit="10" stroke-linejoin="miter" fill="none" stroke="#000000" d="M87.309-31.844H90.699"/>
<use data-text="3" xlink:href="#font_2_3" transform="matrix(4.981549,0,0,-4.981549,15.021797,73.73598)"/>
<path transform="matrix(1.00005,0,0,-1.00005,5.113304,47.58568)" stroke-width=".3985" stroke-linecap="butt" stroke-miterlimit="10" stroke-linejoin="miter" fill="none" stroke="#000000" d="M32.58264 .00003C32.58264 3.90488 29.41722 7.0703 25.51237 7.0703 21.60754 7.0703 18.44212 3.90488 18.44212 .00003 18.44212-3.90479 21.60754-7.0702 25.51237-7.0702 29.41722-7.0702 32.58264-3.90479 32.58264 .00003ZM25.51237 .00003"/>
<use data-text="A" xlink:href="#font_1_27" transform="matrix(7.970498,0,0,-7.970498,27.454422,50.43082)"/>
<path transform="matrix(1.00005,0,0,-1.00005,5.113304,47.58568)" stroke-width=".79701" stroke-linecap="butt" stroke-miterlimit="10" stroke-linejoin="miter" fill="none" stroke="#000000" d="M3.21895 .00002 18.24364 .00003"/>
<path transform="matrix(1.00005,0,0,-1.00005,5.113304,47.58568)" stroke-width=".79701" stroke-linecap="butt" stroke-miterlimit="10" stroke-linejoin="miter" fill="none" stroke="#000000" d="M71.52948-2.83467C71.52948 .66203 68.69489 3.49663 65.19817 3.49663 61.70143 3.49663 58.86684 .66203 58.86684-2.83467 58.86684-6.3314 61.70143-9.166 65.19817-9.166 68.69489-9.166 71.52948-6.3314 71.52948-2.83467ZM65.19817-2.83467"/>
<use data-text="J" xlink:href="#font_1_67" transform="matrix(7.970498,0,0,-7.970498,68.13845,53.058954)"/>
<path transform="matrix(1.00005,0,0,-1.00005,5.113304,47.58568)" stroke-width=".79701" stroke-linecap="butt" stroke-miterlimit="10" stroke-linejoin="miter" fill="none" stroke="#000000" d="M32.76509-.52005 58.68352-2.37129"/>
<path transform="matrix(1.00005,0,0,-1.00005,5.113304,47.58568)" stroke-width=".79701" stroke-linecap="butt" stroke-miterlimit="10" stroke-linejoin="miter" fill="none" stroke="#000000" d="M71.74109 2.83482C71.74109 6.44843 68.81177 9.37776 65.19817 9.37776 61.58456 9.37776 58.65523 6.44843 58.65523 2.83482 58.65523-.77876 61.58456-3.70808 65.19817-3.70808 68.81177-3.70808 71.74109-.77876 71.74109 2.83482ZM65.19817 2.83482"/>
<use data-text="S" xlink:href="#font_1_97" transform="matrix(7.970498,0,0,-7.970498,67.96344,47.47267)"/>
<path transform="matrix(1.00005,0,0,-1.00005,5.113304,47.58568)" stroke-width=".79701" stroke-linecap="butt" stroke-miterlimit="10" stroke-linejoin="miter" fill="none" stroke="#000000" d="M32.76509 .52013 58.47246 2.35626"/>
<use data-text="1" xlink:href="#font_2_1" transform="matrix(4.981549,0,0,-4.981549,14.150757,40.115304)"/>
<path transform="matrix(1.00005,0,0,-1.00005,-73.162609,9.203759)" stroke-width=".3387" stroke-linecap="butt" stroke-miterlimit="10" stroke-linejoin="miter" fill="none" stroke="#000000" d="M87.309-31.844H90.699"/>
<use data-text="3" xlink:href="#font_2_3" transform="matrix(4.981549,0,0,-4.981549,14.150757,45.193555)"/>
<path transform="matrix(1.00005,0,0,-1.00005,5.113304,47.58568)" stroke-width=".3985" stroke-linecap="butt" stroke-miterlimit="10" stroke-linejoin="miter" fill="none" stroke="#000000" d="M34.36504 34.01633C34.36504 38.90558 30.40163 42.86899 25.51237 42.86899 20.62314 42.86899 16.65971 38.90558 16.65971 34.01633 16.65971 29.12709 20.62314 25.16368 25.51237 25.16368 30.40163 25.16368 34.36504 29.12709 34.36504 34.01633ZM25.51237 34.01633"/>
<use data-text="C" xlink:href="#font_1_42" transform="matrix(7.970498,0,0,-7.970498,25.219307,16.290114)"/>
<use data-text="h" xlink:href="#font_1_63" transform="matrix(7.970498,0,0,-7.970498,31.33268,16.290114)"/>
<path transform="matrix(1.00005,0,0,-1.00005,5.113304,47.58568)" stroke-width=".79701" stroke-linecap="butt" stroke-miterlimit="10" stroke-linejoin="miter" fill="none" stroke="#000000" d="M1.93242 2.5765 20.0819 26.77583"/>
<path transform="matrix(1.00005,0,0,-1.00005,5.113304,47.58568)" stroke-width=".79701" stroke-linecap="butt" stroke-miterlimit="10" stroke-linejoin="miter" fill="none" stroke="#000000" d="M71.52948 31.18161C71.52948 34.67833 68.69489 37.51292 65.19817 37.51292 61.70143 37.51292 58.86684 34.67833 58.86684 31.18161 58.86684 27.68488 61.70143 24.85028 65.19817 24.85028 68.69489 24.85028 71.52948 27.68488 71.52948 31.18161ZM65.19817 31.18161"/>
<use data-text="J" xlink:href="#font_1_67" transform="matrix(7.970498,0,0,-7.970498,68.13845,19.041254)"/>
<path transform="matrix(1.00005,0,0,-1.00005,5.113304,47.58568)" stroke-width=".79701" stroke-linecap="butt" stroke-miterlimit="10" stroke-linejoin="miter" fill="none" stroke="#000000" d="M34.5427 33.36916 58.68352 31.64499"/>
<path transform="matrix(1.00005,0,0,-1.00005,5.113304,47.58568)" stroke-width=".79701" stroke-linecap="butt" stroke-miterlimit="10" stroke-linejoin="miter" fill="none" stroke="#000000" d="M71.74109 36.85112C71.74109 40.46472 68.81177 43.39406 65.19817 43.39406 61.58456 43.39406 58.65523 40.46472 58.65523 36.85112 58.65523 33.23752 61.58456 30.3082 65.19817 30.3082 68.81177 30.3082 71.74109 33.23752 71.74109 36.85112ZM65.19817 36.85112"/>
<use data-text="S" xlink:href="#font_1_97" transform="matrix(7.970498,0,0,-7.970498,67.96344,13.454971)"/>
<path transform="matrix(1.00005,0,0,-1.00005,5.113304,47.58568)" stroke-width=".79701" stroke-linecap="butt" stroke-miterlimit="10" stroke-linejoin="miter" fill="none" stroke="#000000" d="M34.5427 34.66351 58.47246 36.37256"/>
<use data-text="1" xlink:href="#font_2_1" transform="matrix(4.981549,0,0,-4.981549,14.426765,25.438569)"/>
<path transform="matrix(1.00005,0,0,-1.00005,-72.8866,-5.472975)" stroke-width=".3387" stroke-linecap="butt" stroke-miterlimit="10" stroke-linejoin="miter" fill="none" stroke="#000000" d="M87.309-31.844H90.699"/>
<use data-text="3" xlink:href="#font_2_3" transform="matrix(4.981549,0,0,-4.981549,14.426765,30.51682)"/>
<use data-text="1" xlink:href="#font_2_1" transform="matrix(4.981549,0,0,-4.981549,49.038499,88.43771)"/>
<path transform="matrix(1.00005,0,0,-1.00005,-38.274866,57.526174)" stroke-width=".3387" stroke-linecap="butt" stroke-miterlimit="10" stroke-linejoin="miter" fill="none" stroke="#000000" d="M87.309-31.844H90.699"/>
<use data-text="2" xlink:href="#font_2_2" transform="matrix(4.981549,0,0,-4.981549,49.038499,93.51597)"/>
<use data-text="1" xlink:href="#font_2_1" transform="matrix(4.981549,0,0,-4.981549,48.93249,72.89994)"/>
<path transform="matrix(1.00005,0,0,-1.00005,-38.38087,41.988397)" stroke-width=".3387" stroke-linecap="butt" stroke-miterlimit="10" stroke-linejoin="miter" fill="none" stroke="#000000" d="M87.309-31.844H90.699"/>
<use data-text="2" xlink:href="#font_2_2" transform="matrix(4.981549,0,0,-4.981549,48.93249,77.978199)"/>
<use data-text="1" xlink:href="#font_2_1" transform="matrix(4.981549,0,0,-4.981549,49.139505,54.431016)"/>
<path transform="matrix(1.00005,0,0,-1.00005,-38.17386,23.519474)" stroke-width=".3387" stroke-linecap="butt" stroke-miterlimit="10" stroke-linejoin="miter" fill="none" stroke="#000000" d="M87.309-31.844H90.699"/>
<use data-text="2" xlink:href="#font_2_2" transform="matrix(4.981549,0,0,-4.981549,49.139505,59.50927)"/>
<use data-text="1" xlink:href="#font_2_1" transform="matrix(4.981549,0,0,-4.981549,49.034498,38.879243)"/>
<path transform="matrix(1.00005,0,0,-1.00005,-38.278867,7.9676978)" stroke-width=".3387" stroke-linecap="butt" stroke-miterlimit="10" stroke-linejoin="miter" fill="none" stroke="#000000" d="M87.309-31.844H90.699"/>
<use data-text="2" xlink:href="#font_2_2" transform="matrix(4.981549,0,0,-4.981549,49.034498,43.957494)"/>
<use data-text="1" xlink:href="#font_2_1" transform="matrix(4.981549,0,0,-4.981549,50.028547,20.481322)"/>
<path transform="matrix(1.00005,0,0,-1.00005,-37.284818,-10.430222)" stroke-width=".3387" stroke-linecap="butt" stroke-miterlimit="10" stroke-linejoin="miter" fill="none" stroke="#000000" d="M87.309-31.844H90.699"/>
<use data-text="2" xlink:href="#font_2_2" transform="matrix(4.981549,0,0,-4.981549,50.028547,25.559575)"/>
<use data-text="1" xlink:href="#font_2_1" transform="matrix(4.981549,0,0,-4.981549,49.923543,4.8015387)"/>
<path transform="matrix(1.00005,0,0,-1.00005,-37.38982,-26.110005)" stroke-width=".3387" stroke-linecap="butt" stroke-miterlimit="10" stroke-linejoin="miter" fill="none" stroke="#000000" d="M87.309-31.844H90.699"/>
<use data-text="2" xlink:href="#font_2_2" transform="matrix(4.981549,0,0,-4.981549,49.923543,9.879791)"/>
</svg>
